<svg xmlns="http://www.w3.org/2000/svg" width="610" height="195" viewBox="0 0 610 195">
  <g id="_1" data-name="1" transform="translate(-810 -430)">
    <path id="Path_184677" data-name="Path 184677" d="M14,0H596a14,14,0,0,1,14,14V181a14,14,0,0,1-14,14H14A14,14,0,0,1,0,181V14A14,14,0,0,1,14,0Z" transform="translate(810 430)" fill="#f0f4ff"/>
    <path id="Path_184678" data-name="Path 184678" d="M2.762,11.493,2.146,15h-2L1.873,5.047l3.486.007a3.488,3.488,0,0,1,2.536.9A2.777,2.777,0,0,1,8.7,8.287a3.143,3.143,0,0,1-1.22,2.338,4.44,4.44,0,0,1-2.833.875Zm.28-1.661,1.668.014a2.109,2.109,0,0,0,1.34-.417A1.678,1.678,0,0,0,6.686,8.3a1.441,1.441,0,0,0-.229-1.135,1.24,1.24,0,0,0-.981-.451L3.589,6.708ZM13.05,15a2,2,0,0,1-.075-.67,2.505,2.505,0,0,1-1.887.807,2.27,2.27,0,0,1-1.61-.632,1.913,1.913,0,0,1-.6-1.528A2.211,2.211,0,0,1,9.9,11.121a4.608,4.608,0,0,1,2.594-.646l.9.014.1-.444a1.543,1.543,0,0,0,.021-.431.74.74,0,0,0-.243-.5.836.836,0,0,0-.55-.188,1.177,1.177,0,0,0-.766.222,1.077,1.077,0,0,0-.4.68l-1.935.007a2.15,2.15,0,0,1,.974-1.719,3.773,3.773,0,0,1,2.287-.646,2.727,2.727,0,0,1,1.969.749,2.19,2.19,0,0,1,.595,1.856l-.567,3.541-.034.438a2.111,2.111,0,0,0,.116.82l-.007.13Zm-1.483-1.36a1.765,1.765,0,0,0,1.456-.725l.239-1.278-.67-.007a1.872,1.872,0,0,0-1.538.649,1.131,1.131,0,0,0-.212.554.656.656,0,0,0,.154.584A.779.779,0,0,0,11.566,13.64Zm8.839-.725q.109-.547-.759-.793l-.622-.157q-2.208-.608-2.146-2.146A2.124,2.124,0,0,1,17.8,8.113a3.449,3.449,0,0,1,2.15-.646,3.094,3.094,0,0,1,2.023.663,2.184,2.184,0,0,1,.786,1.729L20.85,9.853a.843.843,0,0,0-.943-.964,1.358,1.358,0,0,0-.783.226.929.929,0,0,0-.407.608q-.1.547.827.772l.273.062a5.5,5.5,0,0,1,1.442.516,2.177,2.177,0,0,1,.769.721,1.785,1.785,0,0,1,.25,1.032,1.97,1.97,0,0,1-.455,1.23,2.782,2.782,0,0,1-1.189.813,4.144,4.144,0,0,1-1.589.267,3.122,3.122,0,0,1-2.051-.708,2.281,2.281,0,0,1-.834-1.794l1.818.014a1,1,0,0,0,1.135,1.073,1.614,1.614,0,0,0,.878-.219A.864.864,0,0,0,20.405,12.915Zm6.672-7.13L26.756,7.6h1.23l-.253,1.449H26.5l-.629,3.705a.942.942,0,0,0,.055.533q.1.185.465.2.109.007.588-.034l-.137,1.511a3.242,3.242,0,0,1-1.107.157,1.737,1.737,0,0,1-1.415-.595,2.149,2.149,0,0,1-.383-1.572l.636-3.9H23.529L23.782,7.6h1.046l.314-1.818Z" transform="translate(825 496)" fill="#fc5f65"/>
    <path id="Path_184679" data-name="Path 184679" d="M2.762,11.493,2.146,15h-2L1.873,5.047l3.486.007a3.488,3.488,0,0,1,2.536.9A2.777,2.777,0,0,1,8.7,8.287a3.143,3.143,0,0,1-1.22,2.338,4.44,4.44,0,0,1-2.833.875Zm.28-1.661,1.668.014a2.109,2.109,0,0,0,1.34-.417A1.678,1.678,0,0,0,6.686,8.3a1.441,1.441,0,0,0-.229-1.135,1.24,1.24,0,0,0-.981-.451L3.589,6.708Zm10.869-.376a3.98,3.98,0,0,0-.649-.068,1.869,1.869,0,0,0-1.634.772L10.773,15H8.846l1.285-7.4L11.942,7.6l-.178.9a2.034,2.034,0,0,1,1.723-1.046,2.812,2.812,0,0,1,.67.1Zm3.473,5.681a3.218,3.218,0,0,1-1.719-.475,2.88,2.88,0,0,1-1.118-1.285,3.582,3.582,0,0,1-.287-1.8l.021-.273a4.782,4.782,0,0,1,.629-1.982,3.8,3.8,0,0,1,1.354-1.391,3.349,3.349,0,0,1,1.832-.461,2.56,2.56,0,0,1,2.164,1.049,3.592,3.592,0,0,1,.557,2.587l-.109.841H16.174a1.587,1.587,0,0,0,.349,1.148,1.331,1.331,0,0,0,1.025.444,2.373,2.373,0,0,0,1.846-.813l.882,1.094a2.743,2.743,0,0,1-1.2.981A3.934,3.934,0,0,1,17.384,15.137ZM18,9.06a1.37,1.37,0,0,0-.947.335,2.943,2.943,0,0,0-.742,1.21h2.652L19,10.427a1.812,1.812,0,0,0,.007-.52.992.992,0,0,0-.335-.619A1.05,1.05,0,0,0,18,9.06Zm7.567,3.855q.109-.547-.759-.793l-.622-.157q-2.208-.608-2.146-2.146a2.124,2.124,0,0,1,.926-1.706,3.449,3.449,0,0,1,2.15-.646,3.094,3.094,0,0,1,2.023.663,2.184,2.184,0,0,1,.786,1.729l-1.914-.007a.843.843,0,0,0-.943-.964,1.358,1.358,0,0,0-.783.226.929.929,0,0,0-.407.608q-.1.547.827.772l.273.062a5.5,5.5,0,0,1,1.442.516,2.177,2.177,0,0,1,.769.721,1.785,1.785,0,0,1,.25,1.032,1.97,1.97,0,0,1-.455,1.23,2.782,2.782,0,0,1-1.189.813,4.144,4.144,0,0,1-1.589.267,3.122,3.122,0,0,1-2.051-.708,2.281,2.281,0,0,1-.834-1.794l1.818.014a1,1,0,0,0,1.135,1.073,1.614,1.614,0,0,0,.878-.219A.864.864,0,0,0,25.566,12.915Zm6.275,2.222a3.218,3.218,0,0,1-1.719-.475A2.88,2.88,0,0,1,29,13.376a3.582,3.582,0,0,1-.287-1.8l.021-.273a4.782,4.782,0,0,1,.629-1.982,3.8,3.8,0,0,1,1.354-1.391,3.349,3.349,0,0,1,1.832-.461,2.56,2.56,0,0,1,2.164,1.049,3.592,3.592,0,0,1,.557,2.587l-.109.841H30.632a1.587,1.587,0,0,0,.349,1.148,1.331,1.331,0,0,0,1.025.444,2.373,2.373,0,0,0,1.846-.813l.882,1.094a2.743,2.743,0,0,1-1.2.981A3.934,3.934,0,0,1,31.842,15.137Zm.615-6.077a1.37,1.37,0,0,0-.947.335,2.943,2.943,0,0,0-.742,1.21h2.652l.041-.178a1.812,1.812,0,0,0,.007-.52.992.992,0,0,0-.335-.619A1.05,1.05,0,0,0,32.457,9.06ZM38.787,7.6l-.164.875a2.661,2.661,0,0,1,2.153-1,1.774,1.774,0,0,1,1.545.766,3.085,3.085,0,0,1,.362,2.064L41.9,15H39.977l.793-4.724a2.212,2.212,0,0,0,.014-.485.783.783,0,0,0-.875-.718,1.659,1.659,0,0,0-1.36.7L37.625,15H35.7l1.285-7.4Zm8.538-1.812L47,7.6h1.23l-.253,1.449h-1.23l-.629,3.705a.942.942,0,0,0,.055.533q.1.185.465.2.109.007.588-.034l-.137,1.511a3.242,3.242,0,0,1-1.107.157,1.737,1.737,0,0,1-1.415-.595,2.149,2.149,0,0,1-.383-1.572l.636-3.9H43.777L44.03,7.6h1.046l.314-1.818Z" transform="translate(1088 496)" fill="#fc5f65"/>
    <path id="Path_184680" data-name="Path 184680" d="M.4,15,2.133,5.047l2.584.007a3.588,3.588,0,0,1,2.1.608A3.356,3.356,0,0,1,8.073,7.34a5.217,5.217,0,0,1,.226,2.4l-.068.5A5.628,5.628,0,0,1,6.542,13.7,4.91,4.91,0,0,1,3.056,15ZM3.227,6.127l-1.354,7.8,1.265.007a3.554,3.554,0,0,0,2.458-.9A4.284,4.284,0,0,0,6.9,10.557a8.051,8.051,0,0,0,.164-2.14,2.606,2.606,0,0,0-.7-1.658,2.28,2.28,0,0,0-1.613-.625ZM13.713,15a1.657,1.657,0,0,1-.048-.39l.021-.39a3.032,3.032,0,0,1-2.16.916,2.21,2.21,0,0,1-1.589-.619A1.872,1.872,0,0,1,9.379,13a2.277,2.277,0,0,1,1.029-1.835,4.38,4.38,0,0,1,2.526-.66l1.292.007.082-.588a1.352,1.352,0,0,0-.256-1.049,1.237,1.237,0,0,0-.974-.4,1.908,1.908,0,0,0-1.125.311,1.324,1.324,0,0,0-.6.858l-1.244.007A1.983,1.983,0,0,1,10.616,8.5a2.943,2.943,0,0,1,1.142-.779A3.688,3.688,0,0,1,13.2,7.46a2.452,2.452,0,0,1,1.8.7,2.173,2.173,0,0,1,.54,1.788l-.6,3.664-.034.526a2.58,2.58,0,0,0,.082.745L14.971,15Zm-1.941-.957a2.158,2.158,0,0,0,1.125-.284,2.847,2.847,0,0,0,.913-.824l.267-1.524-.937-.007a3.547,3.547,0,0,0-1.791.369,1.36,1.36,0,0,0-.7,1.046,1.059,1.059,0,0,0,.243.865A1.156,1.156,0,0,0,11.771,14.043ZM19.1,7.6l-.178.937a2.916,2.916,0,0,1,2.27-1.066,1.835,1.835,0,0,1,1.545.725,2.815,2.815,0,0,1,.369,1.962L22.3,15H21.062l.813-4.867a2.6,2.6,0,0,0,.007-.622,1.022,1.022,0,0,0-1.128-.978A2.328,2.328,0,0,0,18.8,9.723L17.883,15H16.646l1.285-7.4Zm7.759,5.537L29.49,7.6h1.367L26.469,16.23a2.656,2.656,0,0,1-2.352,1.777,4.029,4.029,0,0,1-.745-.123l.109-1.025.321.034a1.622,1.622,0,0,0,1.015-.263,2.426,2.426,0,0,0,.755-.94l.444-.848L24.739,7.6h1.292Zm9.584-4.628a2.866,2.866,0,0,1,2.235-1.032,1.8,1.8,0,0,1,1.542.714,2.815,2.815,0,0,1,.373,1.965L39.785,15H38.548l.813-4.867a2.6,2.6,0,0,0,.007-.622,1.022,1.022,0,0,0-1.128-.978,2.276,2.276,0,0,0-1.955,1.189L35.369,15H34.132L35.957,4.5h1.237ZM46.2,15a1.657,1.657,0,0,1-.048-.39l.021-.39a3.032,3.032,0,0,1-2.16.916,2.21,2.21,0,0,1-1.589-.619A1.872,1.872,0,0,1,41.87,13,2.277,2.277,0,0,1,42.9,11.168a4.38,4.38,0,0,1,2.526-.66l1.292.007.082-.588a1.352,1.352,0,0,0-.256-1.049,1.237,1.237,0,0,0-.974-.4,1.908,1.908,0,0,0-1.125.311,1.324,1.324,0,0,0-.6.858L42.6,9.654A1.983,1.983,0,0,1,43.107,8.5a2.943,2.943,0,0,1,1.142-.779,3.688,3.688,0,0,1,1.442-.263,2.452,2.452,0,0,1,1.8.7,2.173,2.173,0,0,1,.54,1.788l-.6,3.664-.034.526a2.58,2.58,0,0,0,.082.745L47.462,15Zm-1.941-.957a2.158,2.158,0,0,0,1.125-.284,2.847,2.847,0,0,0,.913-.824l.267-1.524L45.63,11.4a3.547,3.547,0,0,0-1.791.369,1.36,1.36,0,0,0-.7,1.046,1.059,1.059,0,0,0,.243.865A1.156,1.156,0,0,0,44.263,14.043Zm5.229-2.755a5.755,5.755,0,0,1,.622-2.037,3.527,3.527,0,0,1,1.2-1.36,2.736,2.736,0,0,1,1.565-.431,2.31,2.31,0,0,1,1.9.9L55.487,4.5h1.237L54.906,15H53.778l.13-.793a2.727,2.727,0,0,1-2.16.93,2.043,2.043,0,0,1-1.634-.8,3.5,3.5,0,0,1-.656-2.082A6.648,6.648,0,0,1,49.492,11.288ZM50.682,12a2.569,2.569,0,0,0,.349,1.518,1.257,1.257,0,0,0,1.08.554,2.235,2.235,0,0,0,1.907-1.08l.588-3.418a1.535,1.535,0,0,0-1.49-1.039,1.874,1.874,0,0,0-1.289.441,2.852,2.852,0,0,0-.848,1.292A5.334,5.334,0,0,0,50.682,12ZM62.6,8.506a2.866,2.866,0,0,1,2.235-1.032,1.8,1.8,0,0,1,1.542.714,2.815,2.815,0,0,1,.373,1.965L65.946,15H64.709l.813-4.867a2.6,2.6,0,0,0,.007-.622A1.022,1.022,0,0,0,64.4,8.533a2.276,2.276,0,0,0-1.955,1.189L61.53,15H60.293L62.118,4.5h1.237ZM69.18,15h-1.23l1.285-7.4h1.23ZM70.2,4.9a.677.677,0,0,1,.523.188.7.7,0,0,1,.208.53.73.73,0,0,1-.731.745.682.682,0,0,1-.526-.185.669.669,0,0,1-.2-.52.775.775,0,0,1,.205-.533A.723.723,0,0,1,70.2,4.9Zm3.657,6.686-.971.868L72.447,15H71.21L73.035,4.5h1.237l-1.094,6.275.759-.766L76.563,7.6h1.606l-3.4,3.151L77.109,15H75.756Zm7.5,3.548a2.667,2.667,0,0,1-2.16-1.019,3.505,3.505,0,0,1-.656-2.536l.034-.294a4.921,4.921,0,0,1,.653-2.01,3.8,3.8,0,0,1,1.309-1.371A3.054,3.054,0,0,1,82.2,7.467a2.352,2.352,0,0,1,1.791.759,3.121,3.121,0,0,1,.711,1.982,5.793,5.793,0,0,1-.027.889l-.075.567H79.769a2.5,2.5,0,0,0,.332,1.709,1.57,1.57,0,0,0,1.357.731,2.631,2.631,0,0,0,2.023-.984l.711.6a3.253,3.253,0,0,1-1.2,1.049A3.4,3.4,0,0,1,81.354,15.137ZM82.141,8.5a1.807,1.807,0,0,0-1.336.52,3.693,3.693,0,0,0-.906,1.606l3.6.007.027-.109a2.024,2.024,0,0,0-.277-1.432A1.3,1.3,0,0,0,82.141,8.5Zm3.63,2.789a5.755,5.755,0,0,1,.622-2.037,3.527,3.527,0,0,1,1.2-1.36,2.736,2.736,0,0,1,1.565-.431,2.31,2.31,0,0,1,1.9.9L91.766,4.5H93L91.185,15H90.057l.13-.793a2.727,2.727,0,0,1-2.16.93,2.043,2.043,0,0,1-1.634-.8,3.5,3.5,0,0,1-.656-2.082A6.647,6.647,0,0,1,85.771,11.288ZM86.96,12a2.569,2.569,0,0,0,.349,1.518,1.257,1.257,0,0,0,1.08.554A2.235,2.235,0,0,0,90.3,12.99l.588-3.418a1.535,1.535,0,0,0-1.49-1.039,1.874,1.874,0,0,0-1.289.441,2.852,2.852,0,0,0-.848,1.292A5.334,5.334,0,0,0,86.96,12Zm10.213,3,1.121-6.419H97.152l.171-.978h1.135l.123-.875a2.9,2.9,0,0,1,.861-1.743,2.561,2.561,0,0,1,1.832-.643,4.3,4.3,0,0,1,.882.116l-.15,1.032a4.057,4.057,0,0,0-.663-.082,1.41,1.41,0,0,0-1.042.4,1.822,1.822,0,0,0-.5,1.063L99.7,7.6h1.531l-.171.978H99.524L98.41,15Zm8.292-7.533a2.666,2.666,0,0,1,1.593.506,2.875,2.875,0,0,1,.981,1.357,4.2,4.2,0,0,1,.215,1.89l-.014.15a4.975,4.975,0,0,1-.643,1.952,3.77,3.77,0,0,1-1.326,1.357,3.234,3.234,0,0,1-1.784.458,2.671,2.671,0,0,1-1.589-.506,2.809,2.809,0,0,1-.974-1.34,4.315,4.315,0,0,1-.219-1.866,5.04,5.04,0,0,1,.622-2.064,3.858,3.858,0,0,1,1.336-1.418A3.2,3.2,0,0,1,105.465,7.467Zm-2.516,3.965a4.2,4.2,0,0,0,0,.9,2.194,2.194,0,0,0,.482,1.285,1.447,1.447,0,0,0,1.1.5,1.971,1.971,0,0,0,1.135-.3,2.554,2.554,0,0,0,.875-.981A4.131,4.131,0,0,0,107,11.37a6.557,6.557,0,0,0,.021-1.06,2.277,2.277,0,0,0-.5-1.306,1.479,1.479,0,0,0-1.107-.506,2.016,2.016,0,0,0-1.627.752,3.715,3.715,0,0,0-.827,2.023Zm10.821-2.7-.581-.062a2.117,2.117,0,0,0-1.873,1.073L110.407,15H109.17l1.285-7.4,1.2-.007-.185.861a2.211,2.211,0,0,1,1.853-1,2.27,2.27,0,0,1,.588.1Zm6.146,4.4,2.632-5.53h1.367l-4.389,8.627a2.656,2.656,0,0,1-2.352,1.777,4.029,4.029,0,0,1-.745-.123l.109-1.025.321.034a1.622,1.622,0,0,0,1.015-.263,2.426,2.426,0,0,0,.755-.94l.444-.848L117.8,7.6h1.292Zm7.041,2a2.667,2.667,0,0,1-2.16-1.019,3.505,3.505,0,0,1-.656-2.536l.034-.294a4.921,4.921,0,0,1,.653-2.01,3.8,3.8,0,0,1,1.309-1.371,3.054,3.054,0,0,1,1.668-.441,2.352,2.352,0,0,1,1.791.759,3.121,3.121,0,0,1,.711,1.982,5.792,5.792,0,0,1-.027.889l-.075.567h-4.833a2.5,2.5,0,0,0,.332,1.709,1.57,1.57,0,0,0,1.357.731,2.631,2.631,0,0,0,2.023-.984l.711.6a3.253,3.253,0,0,1-1.2,1.049A3.4,3.4,0,0,1,126.957,15.137Zm.786-6.638a1.807,1.807,0,0,0-1.336.52,3.693,3.693,0,0,0-.906,1.606l3.6.007.027-.109a2.024,2.024,0,0,0-.277-1.432A1.3,1.3,0,0,0,127.743,8.5Zm7.8,6.5a1.657,1.657,0,0,1-.048-.39l.021-.39a3.032,3.032,0,0,1-2.16.916,2.21,2.21,0,0,1-1.589-.619A1.872,1.872,0,0,1,131.209,13a2.277,2.277,0,0,1,1.029-1.835,4.38,4.38,0,0,1,2.526-.66l1.292.007.082-.588a1.352,1.352,0,0,0-.256-1.049,1.237,1.237,0,0,0-.974-.4,1.908,1.908,0,0,0-1.125.311,1.324,1.324,0,0,0-.6.858l-1.244.007a1.983,1.983,0,0,1,.506-1.152,2.943,2.943,0,0,1,1.142-.779,3.688,3.688,0,0,1,1.442-.263,2.452,2.452,0,0,1,1.8.7,2.173,2.173,0,0,1,.54,1.788l-.6,3.664-.034.526a2.581,2.581,0,0,0,.082.745L136.8,15Zm-1.941-.957a2.158,2.158,0,0,0,1.125-.284,2.847,2.847,0,0,0,.913-.824l.267-1.524-.937-.007a3.547,3.547,0,0,0-1.791.369,1.36,1.36,0,0,0-.7,1.046,1.059,1.059,0,0,0,.243.865A1.156,1.156,0,0,0,133.6,14.043Zm9.475-5.312L142.5,8.67a2.117,2.117,0,0,0-1.873,1.073L139.713,15h-1.237l1.285-7.4,1.2-.007-.185.861a2.212,2.212,0,0,1,1.853-1,2.27,2.27,0,0,1,.588.1ZM147.718,13q.1-.766-.841-1.08l-1.285-.376q-1.627-.561-1.572-1.859a2.048,2.048,0,0,1,.892-1.6,3.177,3.177,0,0,1,1.986-.612,2.649,2.649,0,0,1,1.822.653,2.068,2.068,0,0,1,.673,1.665l-1.23-.007a1.154,1.154,0,0,0-.349-.9,1.379,1.379,0,0,0-.964-.362,1.8,1.8,0,0,0-1.107.314,1.151,1.151,0,0,0-.5.807q-.089.643.786.937l.622.171a4.005,4.005,0,0,1,1.8.854,1.632,1.632,0,0,1,.492,1.306,2.074,2.074,0,0,1-.451,1.2,2.58,2.58,0,0,1-1.094.783,3.658,3.658,0,0,1-1.456.25,2.885,2.885,0,0,1-1.941-.687,2.124,2.124,0,0,1-.738-1.733l1.237.007a1.311,1.311,0,0,0,.4,1,1.515,1.515,0,0,0,1.087.376,2.132,2.132,0,0,0,1.169-.284A1.091,1.091,0,0,0,147.718,13ZM0,16H22.413v1H0Zm27.586,0h87.885v1H27.586Zm93.058,0h29.351v1H120.644ZM6.925,29.336A5.763,5.763,0,0,1,6.3,31.38a3.484,3.484,0,0,1-1.176,1.347,2.676,2.676,0,0,1-1.531.417,2.284,2.284,0,0,1-1.989-1L1.354,33H.212L2.037,22.5H3.274l-.745,3.924a2.719,2.719,0,0,1,2.16-.957,2.063,2.063,0,0,1,1.661.786,3.46,3.46,0,0,1,.629,2.092,6.442,6.442,0,0,1-.041.848Zm-1.176-.718a2.639,2.639,0,0,0-.335-1.528,1.281,1.281,0,0,0-1.087-.557A2.252,2.252,0,0,0,2.372,27.7l-.554,3.22A1.575,1.575,0,0,0,3.356,32.07a1.8,1.8,0,0,0,1.268-.431,2.814,2.814,0,0,0,.824-1.282A5.77,5.77,0,0,0,5.749,28.618ZM11.1,33.137a2.667,2.667,0,0,1-2.16-1.019,3.505,3.505,0,0,1-.656-2.536l.034-.294a4.921,4.921,0,0,1,.653-2.01,3.8,3.8,0,0,1,1.309-1.371,3.054,3.054,0,0,1,1.668-.441,2.352,2.352,0,0,1,1.791.759,3.121,3.121,0,0,1,.711,1.982,5.793,5.793,0,0,1-.027.889l-.075.567H9.516a2.5,2.5,0,0,0,.332,1.709A1.57,1.57,0,0,0,11.2,32.1a2.631,2.631,0,0,0,2.023-.984l.711.6a3.253,3.253,0,0,1-1.2,1.049A3.4,3.4,0,0,1,11.1,33.137Zm.786-6.638a1.807,1.807,0,0,0-1.336.52,3.693,3.693,0,0,0-.906,1.606l3.6.007.027-.109a2.024,2.024,0,0,0-.277-1.432A1.3,1.3,0,0,0,11.888,26.5ZM15.764,33l1.121-6.419H15.743l.171-.978h1.135l.123-.875a2.9,2.9,0,0,1,.861-1.743,2.561,2.561,0,0,1,1.832-.643,4.3,4.3,0,0,1,.882.116l-.15,1.032a4.057,4.057,0,0,0-.663-.082,1.41,1.41,0,0,0-1.042.4,1.822,1.822,0,0,0-.5,1.063l-.109.731h1.531l-.171.978H18.115L17,33Zm8.292-7.533a2.666,2.666,0,0,1,1.593.506,2.874,2.874,0,0,1,.981,1.357,4.2,4.2,0,0,1,.215,1.89l-.014.15a4.975,4.975,0,0,1-.643,1.952,3.77,3.77,0,0,1-1.326,1.357,3.234,3.234,0,0,1-1.784.458,2.671,2.671,0,0,1-1.589-.506,2.809,2.809,0,0,1-.974-1.34,4.314,4.314,0,0,1-.219-1.866,5.04,5.04,0,0,1,.622-2.064,3.858,3.858,0,0,1,1.336-1.418A3.2,3.2,0,0,1,24.056,25.467ZM21.54,29.432a4.2,4.2,0,0,0,0,.9,2.194,2.194,0,0,0,.482,1.285,1.447,1.447,0,0,0,1.1.5,1.971,1.971,0,0,0,1.135-.3,2.554,2.554,0,0,0,.875-.981,4.131,4.131,0,0,0,.458-1.456,6.557,6.557,0,0,0,.021-1.06,2.277,2.277,0,0,0-.5-1.306,1.479,1.479,0,0,0-1.107-.506,2.016,2.016,0,0,0-1.627.752,3.715,3.715,0,0,0-.827,2.023Zm10.821-2.7-.581-.062a2.117,2.117,0,0,0-1.873,1.073L29,33H27.761l1.285-7.4,1.2-.007-.185.861a2.211,2.211,0,0,1,1.853-1,2.27,2.27,0,0,1,.588.1Zm3.261,6.405a2.667,2.667,0,0,1-2.16-1.019,3.505,3.505,0,0,1-.656-2.536l.034-.294a4.921,4.921,0,0,1,.653-2.01A3.8,3.8,0,0,1,34.8,25.908a3.054,3.054,0,0,1,1.668-.441,2.352,2.352,0,0,1,1.791.759,3.121,3.121,0,0,1,.711,1.982,5.793,5.793,0,0,1-.027.889l-.075.567H34.036a2.5,2.5,0,0,0,.332,1.709,1.57,1.57,0,0,0,1.357.731,2.631,2.631,0,0,0,2.023-.984l.711.6a3.253,3.253,0,0,1-1.2,1.049A3.4,3.4,0,0,1,35.622,33.137Zm.786-6.638a1.807,1.807,0,0,0-1.336.52,3.693,3.693,0,0,0-.906,1.606l3.6.007.027-.109a2.024,2.024,0,0,0-.277-1.432A1.3,1.3,0,0,0,36.408,26.5Zm9.017.007a2.866,2.866,0,0,1,2.235-1.032,1.8,1.8,0,0,1,1.542.714,2.815,2.815,0,0,1,.373,1.965L48.768,33H47.53l.813-4.867a2.6,2.6,0,0,0,.007-.622,1.022,1.022,0,0,0-1.128-.978,2.276,2.276,0,0,0-1.955,1.189L44.352,33H43.114l1.825-10.5h1.237Zm8.436,6.631a2.667,2.667,0,0,1-2.16-1.019,3.505,3.505,0,0,1-.656-2.536l.034-.294a4.921,4.921,0,0,1,.653-2.01,3.8,3.8,0,0,1,1.309-1.371,3.054,3.054,0,0,1,1.668-.441,2.352,2.352,0,0,1,1.791.759,3.121,3.121,0,0,1,.711,1.982,5.793,5.793,0,0,1-.027.889l-.075.567H52.274a2.5,2.5,0,0,0,.332,1.709,1.57,1.57,0,0,0,1.357.731,2.631,2.631,0,0,0,2.023-.984l.711.6a3.253,3.253,0,0,1-1.2,1.049A3.4,3.4,0,0,1,53.86,33.137Zm.786-6.638a1.807,1.807,0,0,0-1.336.52,3.693,3.693,0,0,0-.906,1.606l3.6.007.027-.109a2.024,2.024,0,0,0-.277-1.432A1.3,1.3,0,0,0,54.646,26.5ZM65.933,31q.1-.766-.841-1.08l-1.285-.376q-1.627-.561-1.572-1.859a2.048,2.048,0,0,1,.892-1.6,3.177,3.177,0,0,1,1.986-.612,2.649,2.649,0,0,1,1.822.653,2.068,2.068,0,0,1,.673,1.665l-1.23-.007a1.154,1.154,0,0,0-.349-.9,1.379,1.379,0,0,0-.964-.362,1.8,1.8,0,0,0-1.107.314,1.151,1.151,0,0,0-.5.807q-.089.643.786.937l.622.171a4.005,4.005,0,0,1,1.8.854,1.632,1.632,0,0,1,.492,1.306,2.074,2.074,0,0,1-.451,1.2,2.58,2.58,0,0,1-1.094.783,3.658,3.658,0,0,1-1.456.25,2.885,2.885,0,0,1-1.941-.687,2.124,2.124,0,0,1-.738-1.733l1.237.007a1.311,1.311,0,0,0,.4,1A1.515,1.515,0,0,0,64.2,32.1a2.132,2.132,0,0,0,1.169-.284A1.091,1.091,0,0,0,65.933,31Zm5.756-7.185L71.374,25.6h1.347l-.171.978H71.21l-.772,4.6a1.6,1.6,0,0,0-.007.328.521.521,0,0,0,.581.533,3.544,3.544,0,0,0,.6-.068l-.1,1.032a3.366,3.366,0,0,1-.9.123,1.292,1.292,0,0,1-1.107-.543,2.1,2.1,0,0,1-.287-1.425l.752-4.58H68.667l.171-.978h1.306l.314-1.791ZM77.451,33a1.657,1.657,0,0,1-.048-.39l.021-.39a3.032,3.032,0,0,1-2.16.916,2.21,2.21,0,0,1-1.589-.619A1.872,1.872,0,0,1,73.117,31a2.277,2.277,0,0,1,1.029-1.835,4.38,4.38,0,0,1,2.526-.66l1.292.007.082-.588a1.352,1.352,0,0,0-.256-1.049,1.237,1.237,0,0,0-.974-.4,1.908,1.908,0,0,0-1.125.311,1.324,1.324,0,0,0-.6.858l-1.244.007a1.983,1.983,0,0,1,.506-1.152,2.943,2.943,0,0,1,1.142-.779,3.688,3.688,0,0,1,1.442-.263,2.452,2.452,0,0,1,1.8.7,2.173,2.173,0,0,1,.54,1.788l-.6,3.664-.034.526a2.58,2.58,0,0,0,.082.745L78.709,33Zm-1.941-.957a2.158,2.158,0,0,0,1.125-.284,2.847,2.847,0,0,0,.913-.824l.267-1.524-.937-.007a3.547,3.547,0,0,0-1.791.369,1.36,1.36,0,0,0-.7,1.046,1.059,1.059,0,0,0,.243.865A1.156,1.156,0,0,0,75.51,32.043Zm9.475-5.312L84.4,26.67a2.117,2.117,0,0,0-1.873,1.073L81.621,33H80.384l1.285-7.4,1.2-.007-.185.861a2.211,2.211,0,0,1,1.853-1,2.27,2.27,0,0,1,.588.1Zm3.671-2.919L88.341,25.6h1.347l-.171.978h-1.34l-.772,4.6a1.6,1.6,0,0,0-.007.328.521.521,0,0,0,.581.533,3.544,3.544,0,0,0,.6-.068l-.1,1.032a3.366,3.366,0,0,1-.9.123,1.292,1.292,0,0,1-1.107-.543,2.1,2.1,0,0,1-.287-1.425l.752-4.58H85.634L85.8,25.6H87.11l.314-1.791Zm4.437,9.324a2.667,2.667,0,0,1-2.16-1.019,3.505,3.505,0,0,1-.656-2.536l.034-.294a4.921,4.921,0,0,1,.653-2.01,3.8,3.8,0,0,1,1.309-1.371,3.054,3.054,0,0,1,1.668-.441,2.352,2.352,0,0,1,1.791.759,3.121,3.121,0,0,1,.711,1.982,5.793,5.793,0,0,1-.027.889l-.075.567H91.506a2.5,2.5,0,0,0,.332,1.709,1.57,1.57,0,0,0,1.357.731,2.631,2.631,0,0,0,2.023-.984l.711.6a3.253,3.253,0,0,1-1.2,1.049A3.4,3.4,0,0,1,93.092,33.137Zm.786-6.638a1.807,1.807,0,0,0-1.336.52,3.693,3.693,0,0,0-.906,1.606l3.6.007.027-.109a2.024,2.024,0,0,0-.277-1.432A1.3,1.3,0,0,0,93.878,26.5Zm3.63,2.789a5.755,5.755,0,0,1,.622-2.037,3.527,3.527,0,0,1,1.2-1.36,2.736,2.736,0,0,1,1.565-.431,2.31,2.31,0,0,1,1.9.9L103.5,22.5h1.237L102.922,33h-1.128l.13-.793a2.727,2.727,0,0,1-2.16.93,2.043,2.043,0,0,1-1.634-.8,3.5,3.5,0,0,1-.656-2.082A6.647,6.647,0,0,1,97.508,29.288ZM98.7,30a2.569,2.569,0,0,0,.349,1.518,1.257,1.257,0,0,0,1.08.554,2.235,2.235,0,0,0,1.907-1.08l.588-3.418a1.535,1.535,0,0,0-1.49-1.039,1.874,1.874,0,0,0-1.289.441,2.852,2.852,0,0,0-.848,1.292A5.334,5.334,0,0,0,98.7,30Zm14.191,1q.1-.766-.841-1.08l-1.285-.376q-1.627-.561-1.572-1.859a2.048,2.048,0,0,1,.892-1.6,3.177,3.177,0,0,1,1.986-.612,2.649,2.649,0,0,1,1.822.653,2.068,2.068,0,0,1,.673,1.665l-1.23-.007a1.154,1.154,0,0,0-.349-.9,1.379,1.379,0,0,0-.964-.362,1.8,1.8,0,0,0-1.107.314,1.151,1.151,0,0,0-.5.807q-.089.643.786.937l.622.171a4.005,4.005,0,0,1,1.8.854,1.632,1.632,0,0,1,.492,1.306,2.074,2.074,0,0,1-.451,1.2,2.58,2.58,0,0,1-1.094.783,3.658,3.658,0,0,1-1.456.25,2.885,2.885,0,0,1-1.941-.687,2.124,2.124,0,0,1-.738-1.733l1.237.007a1.311,1.311,0,0,0,.4,1,1.515,1.515,0,0,0,1.087.376,2.132,2.132,0,0,0,1.169-.284A1.091,1.091,0,0,0,112.889,31Zm5.141-1.408-.971.868L116.621,33h-1.237l1.825-10.5h1.237l-1.094,6.275.759-.766,2.625-2.406h1.606l-3.4,3.151L121.283,33H119.93ZM126.854,33a1.657,1.657,0,0,1-.048-.39l.021-.39a3.032,3.032,0,0,1-2.16.916,2.21,2.21,0,0,1-1.589-.619A1.872,1.872,0,0,1,122.521,31a2.277,2.277,0,0,1,1.029-1.835,4.38,4.38,0,0,1,2.526-.66l1.292.007.082-.588a1.352,1.352,0,0,0-.256-1.049,1.237,1.237,0,0,0-.974-.4,1.908,1.908,0,0,0-1.125.311,1.324,1.324,0,0,0-.6.858l-1.244.007a1.983,1.983,0,0,1,.506-1.152,2.943,2.943,0,0,1,1.142-.779,3.688,3.688,0,0,1,1.442-.263,2.452,2.452,0,0,1,1.8.7,2.173,2.173,0,0,1,.54,1.788l-.6,3.664-.034.526a2.581,2.581,0,0,0,.082.745l-.014.116Zm-1.941-.957a2.158,2.158,0,0,0,1.125-.284,2.847,2.847,0,0,0,.913-.824l.267-1.524-.937-.007a3.547,3.547,0,0,0-1.791.369,1.36,1.36,0,0,0-.7,1.046,1.059,1.059,0,0,0,.243.865A1.156,1.156,0,0,0,124.913,32.043Zm8.142-8.23L132.74,25.6h1.347l-.171.978h-1.34l-.772,4.6a1.6,1.6,0,0,0-.007.328.521.521,0,0,0,.581.533,3.544,3.544,0,0,0,.6-.068l-.1,1.032a3.366,3.366,0,0,1-.9.123,1.292,1.292,0,0,1-1.107-.543,2.1,2.1,0,0,1-.287-1.425l.752-4.58h-1.306l.171-.978h1.306l.314-1.791ZM135.632,33H134.4l1.285-7.4h1.23Zm1.019-10.1a.677.677,0,0,1,.523.188.7.7,0,0,1,.208.53.73.73,0,0,1-.731.745.682.682,0,0,1-.526-.185.669.669,0,0,1-.2-.52.776.776,0,0,1,.205-.533A.723.723,0,0,1,136.65,22.9Zm3.459,2.693-.178.937a2.916,2.916,0,0,1,2.27-1.066,1.835,1.835,0,0,1,1.545.725,2.815,2.815,0,0,1,.369,1.962L143.309,33h-1.237l.813-4.867a2.6,2.6,0,0,0,.007-.622,1.022,1.022,0,0,0-1.128-.978,2.328,2.328,0,0,0-1.955,1.189L138.893,33h-1.237l1.285-7.4Zm5.469,3.691a6.028,6.028,0,0,1,.653-2.1,3.415,3.415,0,0,1,1.189-1.319,2.757,2.757,0,0,1,1.535-.407,2.276,2.276,0,0,1,1.941.971l.246-.827h1.135l-1.23,7.239a3.6,3.6,0,0,1-1.148,2.266,3.235,3.235,0,0,1-2.345.81,3.329,3.329,0,0,1-1.439-.355,2.736,2.736,0,0,1-1.083-.937l.7-.759a2.219,2.219,0,0,0,3.264.526,2.54,2.54,0,0,0,.81-1.477l.137-.656a2.8,2.8,0,0,1-2.112.875,2.175,2.175,0,0,1-1.2-.373,2.265,2.265,0,0,1-.79-1.019,4.164,4.164,0,0,1-.308-1.487A7.643,7.643,0,0,1,145.578,29.288Zm1.2.7a2.608,2.608,0,0,0,.338,1.514,1.278,1.278,0,0,0,1.083.564,2.24,2.24,0,0,0,1.907-1.087l.581-3.4a1.554,1.554,0,0,0-1.483-1.053,1.919,1.919,0,0,0-1.651.82,4.277,4.277,0,0,0-.762,2.29Zm7.041,1.572a.74.74,0,0,1,.554.205.706.706,0,0,1,.212.547.739.739,0,0,1-.226.543.813.813,0,0,1-.547.222.689.689,0,0,1-.752-.725.765.765,0,0,1,.759-.793Z" transform="translate(1175 448)" fill="#3c3fa7"/>
    <path id="Path_184681" data-name="Path 184681" d="M1.155,15V5.047h2.81a4.523,4.523,0,0,1,2.3.574A3.884,3.884,0,0,1,7.8,7.255a5.318,5.318,0,0,1,.55,2.434v.636a5.336,5.336,0,0,1-.543,2.468,3.823,3.823,0,0,1-1.552,1.627A4.811,4.811,0,0,1,3.91,15ZM2.468,6.127v7.8H3.849a3.006,3.006,0,0,0,2.362-.943A3.9,3.9,0,0,0,7.055,10.3V9.716a3.957,3.957,0,0,0-.8-2.635A2.835,2.835,0,0,0,4,6.127ZM14.7,15a2.657,2.657,0,0,1-.178-.779,2.822,2.822,0,0,1-2.105.916,2.611,2.611,0,0,1-1.794-.619,2,2,0,0,1-.7-1.569,2.091,2.091,0,0,1,.878-1.794,4.142,4.142,0,0,1,2.471-.639h1.23V9.935a1.42,1.42,0,0,0-.4-1.056,1.593,1.593,0,0,0-1.169-.393,1.844,1.844,0,0,0-1.135.342,1.007,1.007,0,0,0-.458.827H10.076a1.745,1.745,0,0,1,.393-1.07,2.683,2.683,0,0,1,1.066-.817,3.588,3.588,0,0,1,1.48-.3,2.924,2.924,0,0,1,2,.639,2.306,2.306,0,0,1,.752,1.76v3.4a4.162,4.162,0,0,0,.26,1.62V15Zm-2.1-.964a2.223,2.223,0,0,0,1.128-.308,1.861,1.861,0,0,0,.772-.8V11.411h-.991q-2.324,0-2.324,1.36a1.151,1.151,0,0,0,.4.93A1.524,1.524,0,0,0,12.605,14.036ZM18.949,7.6l.041.93a2.7,2.7,0,0,1,2.215-1.066q2.345,0,2.365,2.646V15H22.306V10.105a1.7,1.7,0,0,0-.366-1.183,1.466,1.466,0,0,0-1.118-.383,1.825,1.825,0,0,0-1.08.328,2.228,2.228,0,0,0-.725.861V15H17.753V7.6ZM27.9,13.147,29.62,7.6h1.354L28,16.142q-.69,1.846-2.194,1.846l-.239-.021-.472-.089V16.853l.342.027a1.683,1.683,0,0,0,1-.26,1.88,1.88,0,0,0,.591-.95l.28-.752L24.671,7.6h1.381ZM36.832,8.5A2.689,2.689,0,0,1,39.02,7.467q2.345,0,2.365,2.646V15H40.12V10.105a1.7,1.7,0,0,0-.366-1.183,1.466,1.466,0,0,0-1.118-.383,1.825,1.825,0,0,0-1.08.328,2.228,2.228,0,0,0-.725.861V15H35.567V4.5h1.265ZM47.845,15a2.657,2.657,0,0,1-.178-.779,2.822,2.822,0,0,1-2.105.916,2.611,2.611,0,0,1-1.794-.619,2,2,0,0,1-.7-1.569,2.091,2.091,0,0,1,.878-1.794,4.142,4.142,0,0,1,2.471-.639h1.23V9.935a1.42,1.42,0,0,0-.4-1.056,1.593,1.593,0,0,0-1.169-.393,1.844,1.844,0,0,0-1.135.342,1.007,1.007,0,0,0-.458.827H43.217a1.745,1.745,0,0,1,.393-1.07,2.683,2.683,0,0,1,1.066-.817,3.588,3.588,0,0,1,1.48-.3,2.924,2.924,0,0,1,2,.639,2.306,2.306,0,0,1,.752,1.76v3.4a4.162,4.162,0,0,0,.26,1.62V15Zm-2.1-.964a2.223,2.223,0,0,0,1.128-.308,1.861,1.861,0,0,0,.772-.8V11.411h-.991q-2.324,0-2.324,1.36a1.151,1.151,0,0,0,.4.93A1.524,1.524,0,0,0,45.746,14.036Zm11.409-2.652a4.4,4.4,0,0,1-.779,2.724,2.49,2.49,0,0,1-2.092,1.029,2.578,2.578,0,0,1-2.167-.991L52.056,15H50.894V4.5h1.265V8.417a2.564,2.564,0,0,1,2.112-.95,2.505,2.505,0,0,1,2.116,1.019,4.53,4.53,0,0,1,.769,2.789Zm-1.265-.144a3.417,3.417,0,0,0-.5-2,1.652,1.652,0,0,0-1.436-.7,1.857,1.857,0,0,0-1.8,1.162v3.2a1.909,1.909,0,0,0,1.812,1.162,1.643,1.643,0,0,0,1.415-.7A3.634,3.634,0,0,0,55.891,11.24ZM60.122,15H58.851V7.6h1.271Zm.014-10.493h1.531l-1.832,2.01H58.816ZM66.773,15a2.657,2.657,0,0,1-.178-.779,2.822,2.822,0,0,1-2.105.916,2.611,2.611,0,0,1-1.794-.619,2,2,0,0,1-.7-1.569,2.091,2.091,0,0,1,.878-1.794,4.142,4.142,0,0,1,2.471-.639h1.23V9.935a1.42,1.42,0,0,0-.4-1.056,1.593,1.593,0,0,0-1.169-.393,1.844,1.844,0,0,0-1.135.342,1.007,1.007,0,0,0-.458.827H62.146a1.745,1.745,0,0,1,.393-1.07A2.683,2.683,0,0,1,63.6,7.768a3.588,3.588,0,0,1,1.48-.3,2.924,2.924,0,0,1,2,.639,2.306,2.306,0,0,1,.752,1.76v3.4a4.162,4.162,0,0,0,.26,1.62V15Zm-2.1-.964a2.223,2.223,0,0,0,1.128-.308,1.861,1.861,0,0,0,.772-.8V11.411h-.991q-2.324,0-2.324,1.36a1.151,1.151,0,0,0,.4.93A1.524,1.524,0,0,0,64.675,14.036Zm11.683,1.1a3.232,3.232,0,0,1-2.447-.988,3.666,3.666,0,0,1-.943-2.642v-.232a4.438,4.438,0,0,1,.42-1.965,3.28,3.28,0,0,1,1.176-1.354A2.956,2.956,0,0,1,76.2,7.467a2.77,2.77,0,0,1,2.242.95,4.114,4.114,0,0,1,.8,2.721v.526H74.231a2.629,2.629,0,0,0,.639,1.767,2.009,2.009,0,0,0,1.555.673,2.2,2.2,0,0,0,1.135-.273,2.851,2.851,0,0,0,.813-.725l.772.6A3.106,3.106,0,0,1,76.357,15.137ZM76.2,8.506a1.687,1.687,0,0,0-1.285.557,2.708,2.708,0,0,0-.643,1.562h3.705v-.1a2.409,2.409,0,0,0-.52-1.494A1.588,1.588,0,0,0,76.2,8.506Zm8.812,4.532a.931.931,0,0,0-.386-.8,3.718,3.718,0,0,0-1.347-.489,6.367,6.367,0,0,1-1.524-.492,2.169,2.169,0,0,1-.834-.684,1.635,1.635,0,0,1-.27-.943A1.919,1.919,0,0,1,81.419,8.1a3,3,0,0,1,1.965-.629,3.091,3.091,0,0,1,2.041.649,2.063,2.063,0,0,1,.783,1.661H84.937a1.142,1.142,0,0,0-.441-.9,1.652,1.652,0,0,0-1.111-.376,1.729,1.729,0,0,0-1.08.3.947.947,0,0,0-.39.786.767.767,0,0,0,.362.69,4.458,4.458,0,0,0,1.309.444,6.821,6.821,0,0,1,1.535.506,2.239,2.239,0,0,1,.872.708,1.74,1.74,0,0,1,.284,1.008,1.893,1.893,0,0,1-.793,1.589,3.326,3.326,0,0,1-2.058.6,3.725,3.725,0,0,1-1.572-.314,2.557,2.557,0,0,1-1.07-.878,2.117,2.117,0,0,1-.386-1.22h1.265a1.309,1.309,0,0,0,.509,1.008,1.976,1.976,0,0,0,1.254.373,2.039,2.039,0,0,0,1.152-.291A.893.893,0,0,0,85.012,13.038ZM90.891,14.1a1.822,1.822,0,0,0,1.183-.41,1.443,1.443,0,0,0,.561-1.025h1.2a2.293,2.293,0,0,1-.437,1.21,2.882,2.882,0,0,1-1.077.916,3.107,3.107,0,0,1-1.425.342,3.047,3.047,0,0,1-2.4-1.008A4.016,4.016,0,0,1,87.6,11.37v-.212a4.453,4.453,0,0,1,.4-1.921A3.02,3.02,0,0,1,89.13,7.932a3.233,3.233,0,0,1,1.753-.465,2.966,2.966,0,0,1,2.068.745,2.663,2.663,0,0,1,.878,1.935h-1.2a1.743,1.743,0,0,0-.543-1.179,1.691,1.691,0,0,0-1.207-.461A1.77,1.77,0,0,0,89.39,9.2a3.259,3.259,0,0,0-.53,2.006v.239a3.194,3.194,0,0,0,.526,1.969A1.779,1.779,0,0,0,90.891,14.1Zm8.928.9a2.657,2.657,0,0,1-.178-.779,2.822,2.822,0,0,1-2.105.916,2.611,2.611,0,0,1-1.794-.619,2,2,0,0,1-.7-1.569,2.091,2.091,0,0,1,.878-1.794,4.141,4.141,0,0,1,2.471-.639h1.23V9.935a1.42,1.42,0,0,0-.4-1.056,1.593,1.593,0,0,0-1.169-.393,1.844,1.844,0,0,0-1.135.342,1.007,1.007,0,0,0-.458.827H95.19a1.745,1.745,0,0,1,.393-1.07,2.683,2.683,0,0,1,1.066-.817,3.588,3.588,0,0,1,1.48-.3,2.924,2.924,0,0,1,2,.639,2.306,2.306,0,0,1,.752,1.76v3.4a4.162,4.162,0,0,0,.26,1.62V15Zm-2.1-.964a2.223,2.223,0,0,0,1.128-.308,1.861,1.861,0,0,0,.772-.8V11.411h-.991q-2.324,0-2.324,1.36a1.151,1.151,0,0,0,.4.93A1.524,1.524,0,0,0,97.72,14.036Zm6.521.964h-1.265V4.5h1.265Zm6.59,0a2.657,2.657,0,0,1-.178-.779,2.822,2.822,0,0,1-2.105.916,2.611,2.611,0,0,1-1.794-.619,2,2,0,0,1-.7-1.569,2.091,2.091,0,0,1,.878-1.794,4.141,4.141,0,0,1,2.471-.639h1.23V9.935a1.42,1.42,0,0,0-.4-1.056,1.593,1.593,0,0,0-1.169-.393,1.844,1.844,0,0,0-1.135.342,1.007,1.007,0,0,0-.458.827H106.2a1.745,1.745,0,0,1,.393-1.07,2.683,2.683,0,0,1,1.066-.817,3.588,3.588,0,0,1,1.48-.3,2.924,2.924,0,0,1,2,.639,2.306,2.306,0,0,1,.752,1.76v3.4a4.162,4.162,0,0,0,.26,1.62V15Zm-2.1-.964a2.223,2.223,0,0,0,1.128-.308,1.861,1.861,0,0,0,.772-.8V11.411h-.991q-2.324,0-2.324,1.36a1.151,1.151,0,0,0,.4.93A1.524,1.524,0,0,0,108.732,14.036Zm4.84-2.8a4.333,4.333,0,0,1,.807-2.738,2.745,2.745,0,0,1,4.17-.147V4.5h1.265V15h-1.162l-.062-.793a2.575,2.575,0,0,1-2.112.93,2.526,2.526,0,0,1-2.1-1.053,4.382,4.382,0,0,1-.81-2.748Zm1.265.144a3.281,3.281,0,0,0,.52,1.969,1.68,1.68,0,0,0,1.436.711,1.845,1.845,0,0,0,1.757-1.08v-3.4a1.859,1.859,0,0,0-1.743-1.046,1.687,1.687,0,0,0-1.449.718A3.612,3.612,0,0,0,114.837,11.384Zm6.6-.15a4.369,4.369,0,0,1,.427-1.955,3.187,3.187,0,0,1,1.189-1.34,3.238,3.238,0,0,1,1.74-.472,3.119,3.119,0,0,1,2.444,1.046,4.024,4.024,0,0,1,.933,2.782v.089a4.407,4.407,0,0,1-.414,1.938,3.14,3.14,0,0,1-1.183,1.336,3.275,3.275,0,0,1-1.767.479,3.111,3.111,0,0,1-2.437-1.046,4,4,0,0,1-.933-2.769Zm1.271.15a3.164,3.164,0,0,0,.571,1.976,1.934,1.934,0,0,0,3.059-.01,3.46,3.46,0,0,0,.567-2.116,3.159,3.159,0,0,0-.578-1.972,1.836,1.836,0,0,0-1.535-.755,1.816,1.816,0,0,0-1.511.745A3.435,3.435,0,0,0,122.712,11.384Zm16.762,0A4.429,4.429,0,0,1,138.7,14.1a2.476,2.476,0,0,1-2.092,1.032,2.713,2.713,0,0,1-2.119-.854v3.562h-1.265V7.6h1.155l.062.82a2.605,2.605,0,0,1,2.146-.957,2.522,2.522,0,0,1,2.109,1,4.477,4.477,0,0,1,.776,2.8Zm-1.265-.144a3.268,3.268,0,0,0-.533-1.976,1.718,1.718,0,0,0-1.463-.725,1.859,1.859,0,0,0-1.723,1.019v3.534a1.863,1.863,0,0,0,1.736,1.012,1.71,1.71,0,0,0,1.446-.721A3.567,3.567,0,0,0,138.209,11.24Zm2.536-.007a4.369,4.369,0,0,1,.427-1.955,3.187,3.187,0,0,1,1.189-1.34,3.238,3.238,0,0,1,1.74-.472,3.119,3.119,0,0,1,2.444,1.046,4.024,4.024,0,0,1,.933,2.782v.089a4.407,4.407,0,0,1-.414,1.938,3.14,3.14,0,0,1-1.183,1.336,3.275,3.275,0,0,1-1.767.479,3.111,3.111,0,0,1-2.437-1.046,4,4,0,0,1-.933-2.769Zm1.271.15a3.164,3.164,0,0,0,.571,1.976,1.934,1.934,0,0,0,3.059-.01,3.46,3.46,0,0,0,.567-2.116,3.159,3.159,0,0,0-.578-1.972,1.836,1.836,0,0,0-1.535-.755,1.816,1.816,0,0,0-1.511.745A3.435,3.435,0,0,0,142.017,11.384ZM152.64,8.738a3.79,3.79,0,0,0-.622-.048,1.667,1.667,0,0,0-1.688,1.06V15h-1.265V7.6h1.23l.021.854a1.969,1.969,0,0,1,1.764-.991,1.292,1.292,0,0,1,.561.1ZM0,16H24.095v1H0Zm29.049,0H132.226v1H29.049ZM135.49,16h17.354v1H135.49ZM5.523,33a2.657,2.657,0,0,1-.178-.779,2.822,2.822,0,0,1-2.105.916,2.611,2.611,0,0,1-1.794-.619,2,2,0,0,1-.7-1.569,2.091,2.091,0,0,1,.878-1.794,4.141,4.141,0,0,1,2.471-.639h1.23v-.581a1.42,1.42,0,0,0-.4-1.056,1.593,1.593,0,0,0-1.169-.393,1.844,1.844,0,0,0-1.135.342,1.007,1.007,0,0,0-.458.827H.9a1.745,1.745,0,0,1,.393-1.07,2.683,2.683,0,0,1,1.066-.817,3.588,3.588,0,0,1,1.48-.3,2.924,2.924,0,0,1,2,.639,2.306,2.306,0,0,1,.752,1.76v3.4a4.162,4.162,0,0,0,.26,1.62V33Zm-2.1-.964a2.223,2.223,0,0,0,1.128-.308,1.861,1.861,0,0,0,.772-.8V29.411H4.334q-2.324,0-2.324,1.36a1.151,1.151,0,0,0,.4.93A1.524,1.524,0,0,0,3.425,32.036ZM9.769,25.6l.041.93a2.7,2.7,0,0,1,2.215-1.066q2.345,0,2.365,2.646V33H13.125V28.105a1.7,1.7,0,0,0-.366-1.183,1.466,1.466,0,0,0-1.118-.383,1.825,1.825,0,0,0-1.08.328,2.228,2.228,0,0,0-.725.861V33H8.572V25.6Zm4.184-2.885a1.7,1.7,0,0,1-.42,1.2,1.365,1.365,0,0,1-1.049.458A1.54,1.54,0,0,1,12,24.3a2.619,2.619,0,0,1-.537-.28,2.324,2.324,0,0,0-.479-.256,1.171,1.171,0,0,0-.338-.044.627.627,0,0,0-.479.215.781.781,0,0,0-.2.55l-.848-.048a1.784,1.784,0,0,1,.414-1.21,1.326,1.326,0,0,1,1.049-.479,1.275,1.275,0,0,1,.431.068,3.138,3.138,0,0,1,.52.267,3.057,3.057,0,0,0,.5.26,1.154,1.154,0,0,0,.386.062.612.612,0,0,0,.489-.232.815.815,0,0,0,.195-.54Zm2.01,6.515a4.369,4.369,0,0,1,.427-1.955,3.187,3.187,0,0,1,1.189-1.34,3.238,3.238,0,0,1,1.74-.472,3.119,3.119,0,0,1,2.444,1.046,4.024,4.024,0,0,1,.933,2.782v.089a4.407,4.407,0,0,1-.414,1.938A3.14,3.14,0,0,1,21.1,32.658a3.275,3.275,0,0,1-1.767.479A3.111,3.111,0,0,1,16.9,32.091a4,4,0,0,1-.933-2.769Zm1.271.15a3.164,3.164,0,0,0,.571,1.976,1.934,1.934,0,0,0,3.059-.01,3.46,3.46,0,0,0,.567-2.116,3.159,3.159,0,0,0-.578-1.972,1.836,1.836,0,0,0-1.535-.755,1.816,1.816,0,0,0-1.511.745A3.434,3.434,0,0,0,17.233,29.384Zm11.354,1.654a.931.931,0,0,0-.386-.8,3.718,3.718,0,0,0-1.347-.489,6.367,6.367,0,0,1-1.524-.492,2.169,2.169,0,0,1-.834-.684,1.635,1.635,0,0,1-.27-.943A1.919,1.919,0,0,1,25,26.1a3,3,0,0,1,1.965-.629A3.091,3.091,0,0,1,29,26.116a2.063,2.063,0,0,1,.783,1.661H28.513a1.142,1.142,0,0,0-.441-.9,1.652,1.652,0,0,0-1.111-.376,1.729,1.729,0,0,0-1.08.3.947.947,0,0,0-.39.786.767.767,0,0,0,.362.69,4.458,4.458,0,0,0,1.309.444,6.821,6.821,0,0,1,1.535.506,2.239,2.239,0,0,1,.872.708,1.74,1.74,0,0,1,.284,1.008,1.893,1.893,0,0,1-.793,1.589,3.326,3.326,0,0,1-2.058.6,3.725,3.725,0,0,1-1.572-.314,2.557,2.557,0,0,1-1.07-.878,2.117,2.117,0,0,1-.386-1.22h1.265a1.309,1.309,0,0,0,.509,1.008A1.976,1.976,0,0,0,27,32.1a2.039,2.039,0,0,0,1.152-.291A.893.893,0,0,0,28.588,31.038ZM0,34H34.009v1H0Zm39.532-1a2.657,2.657,0,0,1-.178-.779,2.822,2.822,0,0,1-2.105.916,2.611,2.611,0,0,1-1.794-.619,2,2,0,0,1-.7-1.569,2.091,2.091,0,0,1,.878-1.794,4.142,4.142,0,0,1,2.471-.639h1.23v-.581a1.42,1.42,0,0,0-.4-1.056,1.593,1.593,0,0,0-1.169-.393,1.844,1.844,0,0,0-1.135.342,1.007,1.007,0,0,0-.458.827H34.9a1.745,1.745,0,0,1,.393-1.07,2.683,2.683,0,0,1,1.066-.817,3.588,3.588,0,0,1,1.48-.3,2.924,2.924,0,0,1,2,.639,2.306,2.306,0,0,1,.752,1.76v3.4a4.162,4.162,0,0,0,.26,1.62V33Zm-2.1-.964a2.223,2.223,0,0,0,1.128-.308,1.861,1.861,0,0,0,.772-.8V29.411h-.991q-2.324,0-2.324,1.36a1.151,1.151,0,0,0,.4.93A1.524,1.524,0,0,0,37.434,32.036ZM43.777,25.6l.041.93a2.7,2.7,0,0,1,2.215-1.066q2.345,0,2.365,2.646V33H47.134V28.105a1.7,1.7,0,0,0-.366-1.183,1.466,1.466,0,0,0-1.118-.383,1.825,1.825,0,0,0-1.08.328,2.228,2.228,0,0,0-.725.861V33H42.581V25.6Zm8.244-1.791V25.6H53.4v.978H52.021v4.587a1.024,1.024,0,0,0,.185.667.777.777,0,0,0,.629.222,3.062,3.062,0,0,0,.6-.082V33a3.666,3.666,0,0,1-.971.137,1.575,1.575,0,0,1-1.278-.513,2.2,2.2,0,0,1-.431-1.456V26.581H49.41V25.6h1.347V23.813Zm5.927,9.324a3.232,3.232,0,0,1-2.447-.988,3.666,3.666,0,0,1-.943-2.642v-.232a4.438,4.438,0,0,1,.42-1.965,3.279,3.279,0,0,1,1.176-1.354,2.956,2.956,0,0,1,1.637-.489,2.77,2.77,0,0,1,2.242.95,4.114,4.114,0,0,1,.8,2.721v.526H55.822a2.629,2.629,0,0,0,.639,1.767,2.009,2.009,0,0,0,1.555.673,2.2,2.2,0,0,0,1.135-.273,2.851,2.851,0,0,0,.813-.725l.772.6A3.106,3.106,0,0,1,57.948,33.137Zm-.157-6.631a1.687,1.687,0,0,0-1.285.557,2.708,2.708,0,0,0-.643,1.562h3.705v-.1a2.409,2.409,0,0,0-.52-1.494A1.588,1.588,0,0,0,57.791,26.506ZM66.6,31.038a.931.931,0,0,0-.386-.8,3.718,3.718,0,0,0-1.347-.489,6.367,6.367,0,0,1-1.524-.492,2.169,2.169,0,0,1-.834-.684,1.635,1.635,0,0,1-.27-.943A1.919,1.919,0,0,1,63.01,26.1a3,3,0,0,1,1.965-.629,3.091,3.091,0,0,1,2.041.649,2.063,2.063,0,0,1,.783,1.661H66.527a1.142,1.142,0,0,0-.441-.9,1.652,1.652,0,0,0-1.111-.376,1.729,1.729,0,0,0-1.08.3.947.947,0,0,0-.39.786.767.767,0,0,0,.362.69,4.458,4.458,0,0,0,1.309.444,6.821,6.821,0,0,1,1.535.506,2.239,2.239,0,0,1,.872.708,1.74,1.74,0,0,1,.284,1.008,1.893,1.893,0,0,1-.793,1.589,3.326,3.326,0,0,1-2.058.6,3.725,3.725,0,0,1-1.572-.314,2.557,2.557,0,0,1-1.07-.878,2.117,2.117,0,0,1-.386-1.22h1.265a1.309,1.309,0,0,0,.509,1.008,1.976,1.976,0,0,0,1.254.373,2.039,2.039,0,0,0,1.152-.291A.893.893,0,0,0,66.6,31.038Zm6.07-1.8a4.333,4.333,0,0,1,.807-2.738,2.745,2.745,0,0,1,4.17-.147V22.5h1.265V33H77.752l-.062-.793a2.575,2.575,0,0,1-2.112.93,2.526,2.526,0,0,1-2.1-1.053,4.382,4.382,0,0,1-.81-2.748Zm1.265.144a3.281,3.281,0,0,0,.52,1.969,1.68,1.68,0,0,0,1.436.711,1.845,1.845,0,0,0,1.757-1.08v-3.4a1.859,1.859,0,0,0-1.743-1.046,1.687,1.687,0,0,0-1.449.718A3.612,3.612,0,0,0,73.938,29.384Zm10.008,3.753a3.232,3.232,0,0,1-2.447-.988,3.666,3.666,0,0,1-.943-2.642v-.232a4.438,4.438,0,0,1,.42-1.965,3.28,3.28,0,0,1,1.176-1.354,2.956,2.956,0,0,1,1.637-.489,2.77,2.77,0,0,1,2.242.95,4.114,4.114,0,0,1,.8,2.721v.526H81.819a2.629,2.629,0,0,0,.639,1.767,2.009,2.009,0,0,0,1.555.673,2.2,2.2,0,0,0,1.135-.273,2.851,2.851,0,0,0,.813-.725l.772.6A3.106,3.106,0,0,1,83.945,33.137Zm-.157-6.631a1.687,1.687,0,0,0-1.285.557,2.708,2.708,0,0,0-.643,1.562h3.705v-.1a2.409,2.409,0,0,0-.52-1.494A1.588,1.588,0,0,0,83.788,26.506Zm11.04,6.631a3.232,3.232,0,0,1-2.447-.988,3.666,3.666,0,0,1-.943-2.642v-.232a4.438,4.438,0,0,1,.42-1.965,3.28,3.28,0,0,1,1.176-1.354,2.956,2.956,0,0,1,1.637-.489,2.77,2.77,0,0,1,2.242.95,4.114,4.114,0,0,1,.8,2.721v.526H92.7a2.629,2.629,0,0,0,.639,1.767A2.009,2.009,0,0,0,94.9,32.1a2.2,2.2,0,0,0,1.135-.273,2.851,2.851,0,0,0,.813-.725l.772.6A3.106,3.106,0,0,1,94.828,33.137Zm-.157-6.631a1.687,1.687,0,0,0-1.285.557,2.708,2.708,0,0,0-.643,1.562h3.705v-.1a2.409,2.409,0,0,0-.52-1.494A1.588,1.588,0,0,0,94.671,26.506Zm5.694-.9.034.82a2.732,2.732,0,0,1,2.194-.957,2.115,2.115,0,0,1,2.112,1.189,2.8,2.8,0,0,1,.96-.861,2.837,2.837,0,0,1,1.4-.328q2.434,0,2.475,2.577V33h-1.265V28.119a1.7,1.7,0,0,0-.362-1.186,1.6,1.6,0,0,0-1.217-.393,1.677,1.677,0,0,0-1.169.42,1.706,1.706,0,0,0-.54,1.131V33h-1.271V28.153a1.411,1.411,0,0,0-1.579-1.613,1.692,1.692,0,0,0-1.7,1.06V33H99.169V25.6Zm17.329,3.78a4.429,4.429,0,0,1-.772,2.721,2.476,2.476,0,0,1-2.092,1.032,2.713,2.713,0,0,1-2.119-.854v3.562h-1.265V25.6H112.6l.062.82a2.605,2.605,0,0,1,2.146-.957,2.522,2.522,0,0,1,2.109,1,4.477,4.477,0,0,1,.776,2.8Zm-1.265-.144a3.268,3.268,0,0,0-.533-1.976,1.718,1.718,0,0,0-1.463-.725,1.859,1.859,0,0,0-1.723,1.019v3.534a1.863,1.863,0,0,0,1.736,1.012,1.71,1.71,0,0,0,1.446-.721A3.567,3.567,0,0,0,116.43,29.24Zm5.94,3.9a3.232,3.232,0,0,1-2.447-.988,3.666,3.666,0,0,1-.943-2.642v-.232a4.438,4.438,0,0,1,.42-1.965,3.28,3.28,0,0,1,1.176-1.354,2.956,2.956,0,0,1,1.637-.489,2.77,2.77,0,0,1,2.242.95,4.114,4.114,0,0,1,.8,2.721v.526h-5.011a2.629,2.629,0,0,0,.639,1.767,2.009,2.009,0,0,0,1.555.673,2.2,2.2,0,0,0,1.135-.273,2.851,2.851,0,0,0,.813-.725l.772.6A3.106,3.106,0,0,1,122.37,33.137Zm-.157-6.631a1.687,1.687,0,0,0-1.285.557,2.708,2.708,0,0,0-.643,1.562h3.705v-.1a2.409,2.409,0,0,0-.52-1.494A1.588,1.588,0,0,0,122.213,26.506Zm5.694,5.462h4.327V33h-5.872v-.93l4.081-5.421h-4.02V25.6h5.605v.9ZM138.223,33a2.657,2.657,0,0,1-.178-.779,2.822,2.822,0,0,1-2.105.916,2.611,2.611,0,0,1-1.794-.619,2,2,0,0,1-.7-1.569,2.091,2.091,0,0,1,.878-1.794,4.142,4.142,0,0,1,2.471-.639h1.23v-.581a1.42,1.42,0,0,0-.4-1.056,1.593,1.593,0,0,0-1.169-.393,1.844,1.844,0,0,0-1.135.342,1.007,1.007,0,0,0-.458.827h-1.271a1.745,1.745,0,0,1,.393-1.07,2.683,2.683,0,0,1,1.066-.817,3.588,3.588,0,0,1,1.48-.3,2.924,2.924,0,0,1,2,.639,2.306,2.306,0,0,1,.752,1.76v3.4a4.162,4.162,0,0,0,.26,1.62V33Zm-2.1-.964a2.223,2.223,0,0,0,1.128-.308,1.861,1.861,0,0,0,.772-.8V29.411h-.991q-2.324,0-2.324,1.36a1.151,1.151,0,0,0,.4.93A1.524,1.524,0,0,0,136.124,32.036Zm8.723-5.3a3.79,3.79,0,0,0-.622-.048,1.667,1.667,0,0,0-1.688,1.06V33h-1.265V25.6h1.23l.021.854a1.969,1.969,0,0,1,1.764-.991,1.292,1.292,0,0,1,.561.1ZM154.041,33a2.657,2.657,0,0,1-.178-.779,2.822,2.822,0,0,1-2.105.916,2.611,2.611,0,0,1-1.794-.619,2,2,0,0,1-.7-1.569,2.091,2.091,0,0,1,.878-1.794,4.142,4.142,0,0,1,2.471-.639h1.23v-.581a1.42,1.42,0,0,0-.4-1.056,1.593,1.593,0,0,0-1.169-.393,1.844,1.844,0,0,0-1.135.342,1.007,1.007,0,0,0-.458.827h-1.271a1.745,1.745,0,0,1,.393-1.07,2.683,2.683,0,0,1,1.066-.817,3.588,3.588,0,0,1,1.48-.3,2.924,2.924,0,0,1,2,.639,2.306,2.306,0,0,1,.752,1.76v3.4a4.162,4.162,0,0,0,.26,1.62V33Zm-2.1-.964a2.223,2.223,0,0,0,1.128-.308,1.861,1.861,0,0,0,.772-.8V29.411h-.991q-2.324,0-2.324,1.36a1.151,1.151,0,0,0,.4.93A1.524,1.524,0,0,0,151.942,32.036ZM7.205,47.384A4.429,4.429,0,0,1,6.433,50.1a2.476,2.476,0,0,1-2.092,1.032,2.713,2.713,0,0,1-2.119-.854v3.562H.957V43.6H2.112l.062.82a2.605,2.605,0,0,1,2.146-.957,2.522,2.522,0,0,1,2.109,1,4.477,4.477,0,0,1,.776,2.8ZM5.94,47.24a3.268,3.268,0,0,0-.533-1.976,1.718,1.718,0,0,0-1.463-.725,1.859,1.859,0,0,0-1.723,1.019v3.534A1.863,1.863,0,0,0,3.958,50.1,1.71,1.71,0,0,0,5.4,49.383,3.567,3.567,0,0,0,5.94,47.24ZM13.378,51a2.657,2.657,0,0,1-.178-.779,2.822,2.822,0,0,1-2.105.916A2.611,2.611,0,0,1,9.3,50.518a2,2,0,0,1-.7-1.569,2.091,2.091,0,0,1,.878-1.794,4.142,4.142,0,0,1,2.471-.639h1.23v-.581a1.42,1.42,0,0,0-.4-1.056,1.593,1.593,0,0,0-1.169-.393,1.844,1.844,0,0,0-1.135.342,1.007,1.007,0,0,0-.458.827H8.75a1.745,1.745,0,0,1,.393-1.07,2.683,2.683,0,0,1,1.066-.817,3.588,3.588,0,0,1,1.48-.3,2.924,2.924,0,0,1,2,.639,2.306,2.306,0,0,1,.752,1.76v3.4a4.162,4.162,0,0,0,.26,1.62V51Zm-2.1-.964a2.223,2.223,0,0,0,1.128-.308,1.861,1.861,0,0,0,.772-.8V47.411h-.991q-2.324,0-2.324,1.36a1.151,1.151,0,0,0,.4.93A1.524,1.524,0,0,0,11.279,50.036Zm6.863-8.224V43.6h1.381v.978H18.143v4.587a1.025,1.025,0,0,0,.185.667.777.777,0,0,0,.629.222,3.062,3.062,0,0,0,.6-.082V51a3.666,3.666,0,0,1-.971.137,1.575,1.575,0,0,1-1.278-.513,2.2,2.2,0,0,1-.431-1.456V44.581H15.531V43.6h1.347V41.813ZM22.374,51H21.109V43.6h1.265Zm-1.367-9.358a.755.755,0,0,1,.188-.52.706.706,0,0,1,.557-.212.717.717,0,0,1,.561.212.747.747,0,0,1,.191.52.722.722,0,0,1-.191.513.73.73,0,0,1-.561.205.718.718,0,0,1-.557-.205A.73.73,0,0,1,21.007,41.642ZM25.594,43.6l.041.93a2.7,2.7,0,0,1,2.215-1.066q2.345,0,2.365,2.646V51H28.95V46.105a1.7,1.7,0,0,0-.366-1.183,1.466,1.466,0,0,0-1.118-.383,1.825,1.825,0,0,0-1.08.328,2.228,2.228,0,0,0-.725.861V51H24.4V43.6ZM36.688,51a2.657,2.657,0,0,1-.178-.779,2.822,2.822,0,0,1-2.105.916,2.611,2.611,0,0,1-1.794-.619,2,2,0,0,1-.7-1.569,2.091,2.091,0,0,1,.878-1.794,4.142,4.142,0,0,1,2.471-.639h1.23v-.581a1.42,1.42,0,0,0-.4-1.056,1.593,1.593,0,0,0-1.169-.393,1.844,1.844,0,0,0-1.135.342,1.007,1.007,0,0,0-.458.827H32.061a1.745,1.745,0,0,1,.393-1.07,2.683,2.683,0,0,1,1.066-.817,3.588,3.588,0,0,1,1.48-.3,2.924,2.924,0,0,1,2,.639,2.306,2.306,0,0,1,.752,1.76v3.4a4.162,4.162,0,0,0,.26,1.62V51Zm-2.1-.964a2.223,2.223,0,0,0,1.128-.308,1.861,1.861,0,0,0,.772-.8V47.411H35.5q-2.324,0-2.324,1.36a1.151,1.151,0,0,0,.4.93A1.524,1.524,0,0,0,34.59,50.036Zm8.723-5.3a3.79,3.79,0,0,0-.622-.048A1.667,1.667,0,0,0,41,45.75V51H39.737V43.6h1.23l.021.854a1.969,1.969,0,0,1,1.764-.991,1.292,1.292,0,0,1,.561.1Zm.349,5.6a.792.792,0,0,1,.195-.547.742.742,0,0,1,.584-.219.765.765,0,0,1,.591.219.776.776,0,0,1,.2.547.734.734,0,0,1-.2.526.778.778,0,0,1-.591.212.7.7,0,0,1-.779-.738Z" transform="translate(1175 541)" fill="#3c3fa7"/>
    <path id="Path_184682" data-name="Path 184682" d="M2.365,11.1,1.688,15H.4L2.133,5.047l3.322.007a3.249,3.249,0,0,1,2.372.817,2.57,2.57,0,0,1,.718,2.17A3.1,3.1,0,0,1,7.407,10.29a4.128,4.128,0,0,1-2.676.82ZM2.55,10.03l2.215.007A2.694,2.694,0,0,0,6.48,9.511a2.106,2.106,0,0,0,.786-1.463,1.65,1.65,0,0,0-.349-1.364,1.755,1.755,0,0,0-1.333-.55L3.227,6.127ZM13.3,15a1.657,1.657,0,0,1-.048-.39l.021-.39a3.032,3.032,0,0,1-2.16.916,2.21,2.21,0,0,1-1.589-.619A1.872,1.872,0,0,1,8.962,13a2.277,2.277,0,0,1,1.029-1.835,4.38,4.38,0,0,1,2.526-.66l1.292.007.082-.588a1.352,1.352,0,0,0-.256-1.049,1.237,1.237,0,0,0-.974-.4,1.908,1.908,0,0,0-1.125.311,1.324,1.324,0,0,0-.6.858l-1.244.007A1.983,1.983,0,0,1,10.2,8.5a2.943,2.943,0,0,1,1.142-.779,3.688,3.688,0,0,1,1.442-.263,2.452,2.452,0,0,1,1.8.7,2.173,2.173,0,0,1,.54,1.788l-.6,3.664-.034.526a2.58,2.58,0,0,0,.082.745L14.554,15Zm-1.941-.957a2.158,2.158,0,0,0,1.125-.284,2.847,2.847,0,0,0,.913-.824l.267-1.524-.937-.007a3.547,3.547,0,0,0-1.791.369,1.36,1.36,0,0,0-.7,1.046,1.059,1.059,0,0,0,.243.865A1.156,1.156,0,0,0,11.354,14.043ZM20.809,13q.1-.766-.841-1.08l-1.285-.376q-1.627-.561-1.572-1.859A2.048,2.048,0,0,1,18,8.079a3.177,3.177,0,0,1,1.986-.612,2.649,2.649,0,0,1,1.822.653,2.068,2.068,0,0,1,.673,1.665l-1.23-.007a1.154,1.154,0,0,0-.349-.9,1.379,1.379,0,0,0-.964-.362,1.8,1.8,0,0,0-1.107.314,1.151,1.151,0,0,0-.5.807q-.089.643.786.937l.622.171a4.005,4.005,0,0,1,1.8.854,1.632,1.632,0,0,1,.492,1.306,2.074,2.074,0,0,1-.451,1.2,2.58,2.58,0,0,1-1.094.783,3.658,3.658,0,0,1-1.456.25A2.885,2.885,0,0,1,17.1,14.45a2.124,2.124,0,0,1-.738-1.733l1.237.007a1.311,1.311,0,0,0,.4,1,1.515,1.515,0,0,0,1.087.376,2.132,2.132,0,0,0,1.169-.284A1.091,1.091,0,0,0,20.809,13Zm5.756-7.185L26.25,7.6H27.6l-.171.978h-1.34l-.772,4.6a1.6,1.6,0,0,0-.007.328.521.521,0,0,0,.581.533,3.544,3.544,0,0,0,.6-.068l-.1,1.032a3.366,3.366,0,0,1-.9.123,1.292,1.292,0,0,1-1.107-.543,2.1,2.1,0,0,1-.287-1.425l.752-4.58H23.543l.171-.978H25.02l.314-1.791Zm11.368,5.523a5.868,5.868,0,0,1-.608,2.03,3.455,3.455,0,0,1-1.169,1.35,2.676,2.676,0,0,1-1.545.427,2.463,2.463,0,0,1-1.969-.868l-.663,3.568H30.741L32.519,7.6,33.64,7.6l-.137.827A2.806,2.806,0,0,1,35.7,7.467a2.063,2.063,0,0,1,1.661.786,3.46,3.46,0,0,1,.629,2.092,7.361,7.361,0,0,1-.034.848Zm-1.217-.144.034-.574a2.6,2.6,0,0,0-.379-1.528,1.333,1.333,0,0,0-1.1-.557,2.194,2.194,0,0,0-1.853,1.019L32.8,13.1a1.548,1.548,0,0,0,1.5,1.012,1.945,1.945,0,0,0,1.569-.721A4.188,4.188,0,0,0,36.716,11.192Zm5.407,3.944a2.667,2.667,0,0,1-2.16-1.019,3.505,3.505,0,0,1-.656-2.536l.034-.294a4.921,4.921,0,0,1,.653-2.01A3.8,3.8,0,0,1,41.3,7.908a3.054,3.054,0,0,1,1.668-.441,2.352,2.352,0,0,1,1.791.759,3.121,3.121,0,0,1,.711,1.982,5.793,5.793,0,0,1-.027.889l-.075.567H40.537a2.5,2.5,0,0,0,.332,1.709,1.57,1.57,0,0,0,1.357.731,2.631,2.631,0,0,0,2.023-.984l.711.6a3.253,3.253,0,0,1-1.2,1.049A3.4,3.4,0,0,1,42.123,15.137ZM42.909,8.5a1.807,1.807,0,0,0-1.336.52,3.693,3.693,0,0,0-.906,1.606l3.6.007.027-.109a2.024,2.024,0,0,0-.277-1.432A1.3,1.3,0,0,0,42.909,8.5Zm7.875.232L50.2,8.67A2.117,2.117,0,0,0,48.33,9.743L47.421,15H46.184l1.285-7.4,1.2-.007-.185.861a2.211,2.211,0,0,1,1.853-1,2.27,2.27,0,0,1,.588.1ZM51.55,15l1.121-6.419H51.529L51.7,7.6h1.135l.123-.875a2.9,2.9,0,0,1,.861-1.743,2.561,2.561,0,0,1,1.832-.643,4.3,4.3,0,0,1,.882.116l-.15,1.032a4.057,4.057,0,0,0-.663-.082,1.41,1.41,0,0,0-1.042.4,1.822,1.822,0,0,0-.5,1.063l-.109.731H55.6l-.171.978H53.9L52.787,15Zm7.383.137a2.667,2.667,0,0,1-2.16-1.019,3.505,3.505,0,0,1-.656-2.536l.034-.294a4.921,4.921,0,0,1,.653-2.01,3.8,3.8,0,0,1,1.309-1.371,3.054,3.054,0,0,1,1.668-.441,2.352,2.352,0,0,1,1.791.759,3.121,3.121,0,0,1,.711,1.982,5.793,5.793,0,0,1-.027.889l-.075.567H57.347a2.5,2.5,0,0,0,.332,1.709,1.57,1.57,0,0,0,1.357.731,2.631,2.631,0,0,0,2.023-.984l.711.6a3.253,3.253,0,0,1-1.2,1.049A3.4,3.4,0,0,1,58.933,15.137ZM59.719,8.5a1.807,1.807,0,0,0-1.336.52,3.693,3.693,0,0,0-.906,1.606l3.6.007.027-.109a2.024,2.024,0,0,0-.277-1.432A1.3,1.3,0,0,0,59.719,8.5Zm6.4,5.612a1.877,1.877,0,0,0,1.2-.386,1.837,1.837,0,0,0,.7-1.049l1.169-.007a2.637,2.637,0,0,1-.557,1.271,3.22,3.22,0,0,1-2.56,1.2,2.64,2.64,0,0,1-1.562-.482,2.7,2.7,0,0,1-.94-1.306,4.35,4.35,0,0,1-.205-1.883l.034-.342a4.9,4.9,0,0,1,.622-1.907A3.6,3.6,0,0,1,65.3,7.908a3.192,3.192,0,0,1,1.75-.441,2.5,2.5,0,0,1,1.859.779,2.7,2.7,0,0,1,.7,1.907l-1.155-.007a1.775,1.775,0,0,0-.4-1.172A1.406,1.406,0,0,0,66.992,8.5a1.972,1.972,0,0,0-1.6.718,3.76,3.76,0,0,0-.8,2.064l-.021.178a5.929,5.929,0,0,0-.014.9,2.061,2.061,0,0,0,.451,1.265A1.449,1.449,0,0,0,66.117,14.111Zm7.321-8.3L73.124,7.6h1.347l-.171.978H72.96l-.772,4.6a1.6,1.6,0,0,0-.007.328.521.521,0,0,0,.581.533,3.544,3.544,0,0,0,.6-.068l-.1,1.032a3.366,3.366,0,0,1-.9.123,1.292,1.292,0,0,1-1.107-.543,2.1,2.1,0,0,1-.287-1.425l.752-4.58H70.417l.171-.978h1.306l.314-1.791Z" transform="translate(867 540)" fill="#12263f"/>
    <path id="Path_184683" data-name="Path 184683" d="M2.365,11.1,1.688,15H.4L2.133,5.047l3.322.007a3.249,3.249,0,0,1,2.372.817,2.57,2.57,0,0,1,.718,2.17A3.1,3.1,0,0,1,7.407,10.29a4.128,4.128,0,0,1-2.676.82ZM2.55,10.03l2.215.007A2.694,2.694,0,0,0,6.48,9.511a2.106,2.106,0,0,0,.786-1.463,1.65,1.65,0,0,0-.349-1.364,1.755,1.755,0,0,0-1.333-.55L3.227,6.127ZM13.3,15a1.657,1.657,0,0,1-.048-.39l.021-.39a3.032,3.032,0,0,1-2.16.916,2.21,2.21,0,0,1-1.589-.619A1.872,1.872,0,0,1,8.962,13a2.277,2.277,0,0,1,1.029-1.835,4.38,4.38,0,0,1,2.526-.66l1.292.007.082-.588a1.352,1.352,0,0,0-.256-1.049,1.237,1.237,0,0,0-.974-.4,1.908,1.908,0,0,0-1.125.311,1.324,1.324,0,0,0-.6.858l-1.244.007A1.983,1.983,0,0,1,10.2,8.5a2.943,2.943,0,0,1,1.142-.779,3.688,3.688,0,0,1,1.442-.263,2.452,2.452,0,0,1,1.8.7,2.173,2.173,0,0,1,.54,1.788l-.6,3.664-.034.526a2.58,2.58,0,0,0,.082.745L14.554,15Zm-1.941-.957a2.158,2.158,0,0,0,1.125-.284,2.847,2.847,0,0,0,.913-.824l.267-1.524-.937-.007a3.547,3.547,0,0,0-1.791.369,1.36,1.36,0,0,0-.7,1.046,1.059,1.059,0,0,0,.243.865A1.156,1.156,0,0,0,11.354,14.043ZM20.809,13q.1-.766-.841-1.08l-1.285-.376q-1.627-.561-1.572-1.859A2.048,2.048,0,0,1,18,8.079a3.177,3.177,0,0,1,1.986-.612,2.649,2.649,0,0,1,1.822.653,2.068,2.068,0,0,1,.673,1.665l-1.23-.007a1.154,1.154,0,0,0-.349-.9,1.379,1.379,0,0,0-.964-.362,1.8,1.8,0,0,0-1.107.314,1.151,1.151,0,0,0-.5.807q-.089.643.786.937l.622.171a4.005,4.005,0,0,1,1.8.854,1.632,1.632,0,0,1,.492,1.306,2.074,2.074,0,0,1-.451,1.2,2.58,2.58,0,0,1-1.094.783,3.658,3.658,0,0,1-1.456.25A2.885,2.885,0,0,1,17.1,14.45a2.124,2.124,0,0,1-.738-1.733l1.237.007a1.311,1.311,0,0,0,.4,1,1.515,1.515,0,0,0,1.087.376,2.132,2.132,0,0,0,1.169-.284A1.091,1.091,0,0,0,20.809,13Zm5.756-7.185L26.25,7.6H27.6l-.171.978h-1.34l-.772,4.6a1.6,1.6,0,0,0-.007.328.521.521,0,0,0,.581.533,3.544,3.544,0,0,0,.6-.068l-.1,1.032a3.366,3.366,0,0,1-.9.123,1.292,1.292,0,0,1-1.107-.543,2.1,2.1,0,0,1-.287-1.425l.752-4.58H23.543l.171-.978H25.02l.314-1.791ZM35.759,15a1.657,1.657,0,0,1-.048-.39l.021-.39a3.032,3.032,0,0,1-2.16.916,2.21,2.21,0,0,1-1.589-.619A1.872,1.872,0,0,1,31.425,13a2.277,2.277,0,0,1,1.029-1.835,4.38,4.38,0,0,1,2.526-.66l1.292.007.082-.588A1.352,1.352,0,0,0,36.1,8.878a1.237,1.237,0,0,0-.974-.4A1.908,1.908,0,0,0,34,8.79a1.324,1.324,0,0,0-.6.858l-1.244.007A1.983,1.983,0,0,1,32.662,8.5,2.943,2.943,0,0,1,33.8,7.723a3.688,3.688,0,0,1,1.442-.263,2.452,2.452,0,0,1,1.8.7,2.173,2.173,0,0,1,.54,1.788l-.6,3.664-.034.526a2.58,2.58,0,0,0,.082.745L37.017,15Zm-1.941-.957a2.158,2.158,0,0,0,1.125-.284,2.847,2.847,0,0,0,.913-.824l.267-1.524-.937-.007a3.547,3.547,0,0,0-1.791.369,1.36,1.36,0,0,0-.7,1.046,1.059,1.059,0,0,0,.243.865A1.156,1.156,0,0,0,33.817,14.043Zm8,.068a1.877,1.877,0,0,0,1.2-.386,1.837,1.837,0,0,0,.7-1.049l1.169-.007a2.638,2.638,0,0,1-.557,1.271,3.22,3.22,0,0,1-2.56,1.2,2.64,2.64,0,0,1-1.562-.482,2.7,2.7,0,0,1-.94-1.306,4.35,4.35,0,0,1-.205-1.883l.034-.342a4.9,4.9,0,0,1,.622-1.907A3.6,3.6,0,0,1,41,7.908a3.192,3.192,0,0,1,1.75-.441,2.5,2.5,0,0,1,1.859.779,2.7,2.7,0,0,1,.7,1.907l-1.155-.007a1.775,1.775,0,0,0-.4-1.172A1.406,1.406,0,0,0,42.69,8.5a1.972,1.972,0,0,0-1.6.718,3.76,3.76,0,0,0-.8,2.064l-.021.178a5.929,5.929,0,0,0-.014.9,2.061,2.061,0,0,0,.451,1.265A1.449,1.449,0,0,0,41.815,14.111Zm7.321-8.3L48.822,7.6h1.347L50,8.581h-1.34l-.772,4.6a1.6,1.6,0,0,0-.007.328.521.521,0,0,0,.581.533,3.544,3.544,0,0,0,.6-.068l-.1,1.032a3.366,3.366,0,0,1-.9.123,1.292,1.292,0,0,1-1.107-.543,2.1,2.1,0,0,1-.287-1.425l.752-4.58H46.115l.171-.978h1.306l.314-1.791ZM51.714,15h-1.23l1.285-7.4H53ZM52.732,4.9a.677.677,0,0,1,.523.188.7.7,0,0,1,.208.53.73.73,0,0,1-.731.745.682.682,0,0,1-.526-.185.669.669,0,0,1-.2-.52.775.775,0,0,1,.205-.533A.723.723,0,0,1,52.732,4.9Zm5.113,2.563a2.666,2.666,0,0,1,1.593.506,2.874,2.874,0,0,1,.981,1.357,4.2,4.2,0,0,1,.215,1.89l-.014.15a4.975,4.975,0,0,1-.643,1.952,3.77,3.77,0,0,1-1.326,1.357,3.234,3.234,0,0,1-1.784.458,2.671,2.671,0,0,1-1.589-.506,2.809,2.809,0,0,1-.974-1.34,4.314,4.314,0,0,1-.219-1.866,5.04,5.04,0,0,1,.622-2.064,3.858,3.858,0,0,1,1.336-1.418A3.2,3.2,0,0,1,57.846,7.467ZM55.33,11.432a4.2,4.2,0,0,0,0,.9,2.194,2.194,0,0,0,.482,1.285,1.447,1.447,0,0,0,1.1.5,1.971,1.971,0,0,0,1.135-.3,2.554,2.554,0,0,0,.875-.981,4.131,4.131,0,0,0,.458-1.456,6.558,6.558,0,0,0,.021-1.06A2.277,2.277,0,0,0,58.905,9,1.479,1.479,0,0,0,57.8,8.5a2.016,2.016,0,0,0-1.627.752,3.715,3.715,0,0,0-.827,2.023ZM64,7.6l-.178.937A2.916,2.916,0,0,1,66.1,7.467a1.835,1.835,0,0,1,1.545.725,2.815,2.815,0,0,1,.369,1.962L67.2,15H65.967l.813-4.867a2.6,2.6,0,0,0,.007-.622,1.022,1.022,0,0,0-1.128-.978A2.328,2.328,0,0,0,63.7,9.723L62.788,15H61.551l1.285-7.4Z" transform="translate(998 540)" fill="#12263f"/>
    <path id="Path_184684" data-name="Path 184684" d="M6.672,10.933H2.857L2.146,15h-2L1.873,5.047h6.3L7.882,6.708H3.589l-.451,2.57H6.966Zm5.284,3.3a2.554,2.554,0,0,1-2.037.9,1.9,1.9,0,0,1-1.613-.766,2.8,2.8,0,0,1-.424-1.982l.8-4.785h1.928L9.8,12.409a1.9,1.9,0,0,0-.007.424.7.7,0,0,0,.759.7,1.763,1.763,0,0,0,1.483-.69L12.954,7.6H14.9L13.61,15h-1.8Zm7-8.449L18.635,7.6h1.23l-.253,1.449h-1.23l-.629,3.705a.942.942,0,0,0,.055.533q.1.185.465.2.109.007.588-.034l-.137,1.511a3.242,3.242,0,0,1-1.107.157,1.737,1.737,0,0,1-1.415-.595,2.149,2.149,0,0,1-.383-1.572l.636-3.9H15.408L15.661,7.6h1.046l.314-1.818Zm5.325,8.449a2.554,2.554,0,0,1-2.037.9,1.9,1.9,0,0,1-1.613-.766,2.8,2.8,0,0,1-.424-1.982l.8-4.785h1.928l-.813,4.806a1.9,1.9,0,0,0-.007.424.7.7,0,0,0,.759.7,1.763,1.763,0,0,0,1.483-.69L25.279,7.6h1.941L25.936,15h-1.8Zm8.155-4.778a3.98,3.98,0,0,0-.649-.068,1.869,1.869,0,0,0-1.634.772L29.3,15H27.371l1.285-7.4L30.468,7.6l-.178.9a2.034,2.034,0,0,1,1.723-1.046,2.812,2.812,0,0,1,.67.1Zm3.473,5.681a3.218,3.218,0,0,1-1.719-.475,2.88,2.88,0,0,1-1.118-1.285,3.582,3.582,0,0,1-.287-1.8l.021-.273a4.782,4.782,0,0,1,.629-1.982,3.8,3.8,0,0,1,1.354-1.391,3.349,3.349,0,0,1,1.832-.461,2.56,2.56,0,0,1,2.164,1.049,3.592,3.592,0,0,1,.557,2.587l-.109.841H34.7a1.587,1.587,0,0,0,.349,1.148,1.331,1.331,0,0,0,1.025.444,2.373,2.373,0,0,0,1.846-.813l.882,1.094a2.743,2.743,0,0,1-1.2.981A3.934,3.934,0,0,1,35.909,15.137Zm.615-6.077a1.37,1.37,0,0,0-.947.335,2.943,2.943,0,0,0-.742,1.21h2.652l.041-.178a1.812,1.812,0,0,0,.007-.52.992.992,0,0,0-.335-.619A1.05,1.05,0,0,0,36.524,9.06Z" transform="translate(1364 496)" fill="#fc5f65"/>
    <path id="Path_184685" data-name="Path 184685" d="M0,0H572.018" transform="translate(825.25 522)" fill="none" stroke="#3c3fa7" stroke-width="3"/>
    <path id="Path_184686" data-name="Path 184686" d="M10,0,20,17H0Z" transform="translate(1405.768 512) rotate(90)" fill="#3c3fa7"/>
    <path id="Path_182348" data-name="Path 182348" d="M45.2,0c.067.048.132.1.2.145a1.344,1.344,0,0,1,.684,1.506,1.339,1.339,0,0,1-1.389.989q-5.12.009-10.241,0h-4.99a4.541,4.541,0,0,1,2.669,3.148,3.941,3.941,0,0,1-.774,3.478.778.778,0,0,0-.08.982c2.556,5.323,5.086,10.658,7.647,15.978a2.57,2.57,0,0,1,.193,1.9c-1.009,3.776-1.981,7.563-2.988,11.34a1.32,1.32,0,0,0,.212,1.208c2.032,2.979,4.038,5.976,6.052,8.968.644.957.621,1.377-.109,2.235-2.8,3.287-5.582,6.582-8.4,9.851a2.971,2.971,0,0,0-.51,1.6c-.1.539-.392,1.261-.159,1.584.251.347,1.025.1,1.569.1q14.766.009,29.533.018c.562,0,.718-.106.718-.7q-.028-30.49,0-60.981c0-.554-.092-.734-.7-.723-2.4.043-4.8.018-7.2.017-1,0-1.479-.265-1.7-.93C55.23,1.069,55.5.542,56.3,0H66.61a1.592,1.592,0,0,1,1.057,1.057V66.735a1.783,1.783,0,0,1-1.787.939c-6.164-.024-12.328-.013-18.493-.013q-7.793,0-15.587,0a1.358,1.358,0,0,1-1.521-1.715c.07-.567.177-1.129.263-1.694.267-1.771.326-3.621,1.895-4.888.026-.021.024-.076.032-.1-2.027-.9-4.06-1.783-6.071-2.714a4.277,4.277,0,0,1-2.488-4.586A7.1,7.1,0,0,1,25,49.442a1.046,1.046,0,0,0,.235-.729c-.365-1.954-.719-3.909-1.095-5.959-1.081,1.008-2.076,1.967-3.105,2.887a9.116,9.116,0,0,1-10.386,1.207c-2.9-1.539-4.4-4.24-5.372-7.089C3.428,34.3,1.928,28.716.322,23.173A8.058,8.058,0,0,1,3.961,14c.161-.1.366-.141.463-.33a6.1,6.1,0,0,1-1.555-3.5A.924.924,0,0,0,2.5,9.514a2.016,2.016,0,0,1-.765-1.343A7.1,7.1,0,0,1,6.768.278,2.291,2.291,0,0,0,7.67,0H9.785c.042.041.079.11.127.12a6.863,6.863,0,0,1,5.747,5.363,2.527,2.527,0,0,1-.423,2.541.46.46,0,0,0-.136.418,6.4,6.4,0,0,1-.583,3.883,10.868,10.868,0,0,0,5.187-2.9c1.525-1.553,2.993-3.161,4.488-4.744,1-1.06,1-1.06.387-2.35C24.022,1.165,24.116.757,25.115,0H45.2M31.078,39.847h-.169c0-2.51.025-5.02-.008-7.53a4.1,4.1,0,0,0-2.4-3.877,4.153,4.153,0,0,0-4.478.462Q16.837,34,9.648,39.094c-.444.316-1.172.537-1.238,1-.064.439.425.963.684,1.442,2.321,4.278,7.132,5.039,10.67,1.694q2.112-2,4.244-3.974a1.32,1.32,0,0,1,2.323.755c.037.172.073.344.1.518.408,2.272.824,4.543,1.217,6.818.073.423.237.574.683.55.79-.044,1.586-.037,2.378,0,.458.02.592-.1.575-.582-.091-2.487-.143-4.975-.208-7.463M29.156,11.931c-.768.91-1.472,1.754-2.186,2.588A21.007,21.007,0,0,1,16.676,21.44c-.337.1-.423.234-.371.6.234,1.655.423,3.316.634,4.974.142,1.12.294,2.238.45,3.428.272-.189.47-.321.662-.461,1.585-1.147,3.14-2.339,4.761-3.435a6.877,6.877,0,0,1,10.3,3.313,7.455,7.455,0,0,1,.441,2.587c.006,1.836,0,3.673,0,5.509.218-.028.261-.052.27-.084q1.322-5.032,2.641-10.065a1.121,1.121,0,0,0-.114-.819c-.68-1.4-1.344-2.811-2.015-4.217-1.712-3.583-3.426-7.165-5.181-10.836M7.31,37.513c2.521-1.749,4.955-3.443,7.4-5.124.267-.184.21-.392.179-.633-.342-2.705-.688-5.411-1.018-8.118-.191-1.574-.18-1.575-1.783-1.508a4.737,4.737,0,0,1-4.84-3.985,6.142,6.142,0,0,1,.262-2.565A5.388,5.388,0,0,0,2.861,22.4c.514,1.885,1.091,3.752,1.644,5.625C5.43,31.161,6.359,34.3,7.31,37.513M12.468,19.46c.242-.012.44-.016.638-.032s.394-.039.59-.064a17.269,17.269,0,0,0,10.719-5.936c1.632-1.784,3.134-3.686,4.684-5.544a1.564,1.564,0,0,0-.036-2.341,1.612,1.612,0,0,0-2.34.28c-.488.507-.963,1.027-1.444,1.542-1.02,1.094-2.044,2.185-3.059,3.284a14.068,14.068,0,0,1-10.261,4.678,2.083,2.083,0,0,0-.811,4.019,2.682,2.682,0,0,0,1.321.114m17.09,31.066a4.51,4.51,0,0,1-.856-.008c-1.014-.2-1.55.28-1.95,1.162a1.719,1.719,0,0,0,.866,2.511q2.6,1.192,5.218,2.345a1.647,1.647,0,0,0,1.9-2.67c-.565-.616-1.2-1.177-1.708-1.834-.895-1.153-1.908-1.929-3.466-1.506m4.3-8.835a2.13,2.13,0,0,0-.06.3c.053,2.286.116,4.573.156,6.86a.983.983,0,0,0,.326.679,30.675,30.675,0,0,1,3.317,3.775c.69-.808,1.352-1.6,2.033-2.372a.435.435,0,0,0,.036-.63c-1.919-2.833-3.827-5.674-5.809-8.617M13.078,6.193A4.316,4.316,0,0,0,9.469,2.7a4.452,4.452,0,0,0-5.158,4.2c0,.219-.1.5.34.438,2.807-.391,5.617-.761,8.427-1.138m-4.071,6.8a3.54,3.54,0,0,0,3.547-3.564C12.542,9.1,12.48,8.95,12.105,9c-2.043.291-4.086.579-6.134.831-.5.061-.479.283-.375.649a3.527,3.527,0,0,0,3.41,2.508" transform="translate(874 449)" fill="#020202"/>
    <path id="Path_182349" data-name="Path 182349" d="M113.105,0c0,.215.217.216.328.319a1.314,1.314,0,0,1,.082,1.924,1.3,1.3,0,0,1-1.876,0A1.315,1.315,0,0,1,111.72.319c.111-.1.327-.1.328-.319Z" transform="translate(812.175 449)" fill="#020202"/>
    <path id="Path_184687" data-name="Path 184687" d="M0,0H67.667V67.674H0Z" transform="translate(874 449)" fill="none"/>
    <path id="Path_182350" data-name="Path 182350" d="M36.788,41.31a20.17,20.17,0,0,1-6.419.751,20.138,20.138,0,0,1-4.126-.715c-.623-.166-.881-.7-1.176-1.17a.557.557,0,0,0-.89-.23c-.553.3-1.134.562-1.715.811a.98.98,0,1,1-.827-1.765c.542-.281,1.094-.547,1.657-.782.334-.14.347-.283.181-.584a34.916,34.916,0,0,1-2.874-6.8c-.122-.4-.3-.433-.655-.366-1.31.245-2.62.516-3.942.669-1.932.224-3.876.357-5.815.527-.2.017-.393.034-.59.034a2.241,2.241,0,0,0-1.9.935,4.331,4.331,0,0,1-6.405.232A4.458,4.458,0,0,1,1.37,26.51a4.412,4.412,0,0,1,6.464.43.727.727,0,0,0,.811.317c1.854-.312,3.72-.553,5.572-.869a44.721,44.721,0,0,0,4.766-1.409c.221-.064.279-.172.251-.373a1.523,1.523,0,0,1-.026-.261,1.891,1.891,0,0,0-1.464-2.134,7.542,7.542,0,0,1-3.7-3.123.659.659,0,0,0-.784-.37A3.542,3.542,0,0,1,9.2,15.945a3.594,3.594,0,0,1,2.549-4.223c.48-.119.54-.169.287-.627a7.246,7.246,0,0,1,1.619-8.509A11.372,11.372,0,0,1,19.067.263,1.9,1.9,0,0,0,20.033,0h3.416a24.507,24.507,0,0,1,3.38,1.036A4.719,4.719,0,0,0,29.16.878a2.863,2.863,0,0,1,3.361,2.6A8.4,8.4,0,0,1,30.382,10.2c-.137.141-.276.249-.175.5.118.291.343.215.545.231a3.625,3.625,0,0,1,3.461,3.664,3.567,3.567,0,0,1-3.766,3.525.856.856,0,0,0-.954.542A8.326,8.326,0,0,1,27.858,20.7c1.887.774,3.731,1.486,5.537,2.282,2.665,1.173,5.541,1.543,8.317,2.293.367.1.462-.139.633-.314a4.356,4.356,0,0,1,4.767-1.05,4.256,4.256,0,0,1,2.836,3.967,4.41,4.41,0,0,1-8.2,2.407,1.1,1.1,0,0,0-.908-.6c-1.966-.291-3.927-.617-6.063-.957.615.564,1.113,1.01,1.6,1.468.563.532.644,1.108.236,1.544s-.98.422-1.56-.091a62.184,62.184,0,0,1-8.482-9.119c-.332-.44-.581-.534-1.1-.267a8.486,8.486,0,0,1-3.865.874c-.177,0-.472-.126-.512.1a1.512,1.512,0,0,0,.1.894c.117.233.385.01.576-.048,1.043-.32,2.08-.657,3.124-.976.7-.213,1.231,0,1.42.532.207.586-.087,1.1-.814,1.33q-4.363,1.4-8.732,2.781a.764.764,0,0,0-.525,1.13c.127.325.378.16.555.13,2.348-.4,4.693-.819,7.04-1.229.947-.166,1.893-.341,2.845-.477.693-.1,1.15.209,1.239.766a.966.966,0,0,1-.9,1.148c-1.373.266-2.75.514-4.133.723-.444.067-.466.21-.341.584a34.313,34.313,0,0,0,4.1,8.53,1.425,1.425,0,0,0,.94.611,16.9,16.9,0,0,0,11.421-1.349,16.484,16.484,0,0,0,2.75-1.61l-2.512-1.72a4.217,4.217,0,0,1-.426-.3.951.951,0,0,1-.211-1.342A.906.906,0,0,1,39.9,33.08c1.4.888,2.795,1.792,4.164,2.73a.888.888,0,0,1,.093,1.507,8.745,8.745,0,0,0-2.47,3.081,8.329,8.329,0,0,1-4.66,3.093c-.45.153-.91.278-1.418.431.274.423.536.8.767,1.189a.976.976,0,0,1-.253,1.436,1.01,1.01,0,0,1-1.373-.353c-.349-.475-.667-.974-.977-1.476a.519.519,0,0,0-.636-.3c-.978.229-1.962.435-2.949.651.012.239.213.324.343.451q3.616,3.536,7.245,7.057c.147.142.243.459.572.284.346-.183.65-.3.266-.795-.536-.687-.981-1.446-1.451-2.183-.408-.64-.326-1.227.192-1.548.5-.31,1.032-.154,1.449.458q.793,1.165,1.548,2.356c.152.238.282.383.617.319a.95.95,0,0,1,1.02.558c1.122,1.924,2.253,3.843,3.363,5.775a.983.983,0,0,1-.436,1.543c-.49.274-.216.477-.085.765.157.347.333.392.641.177a4.2,4.2,0,0,1,.8-.442.9.9,0,0,1,1.239.4.924.924,0,0,1-.288,1.275,2.806,2.806,0,0,1-.329.213Q42.5,64.3,38.114,66.847a2.007,2.007,0,0,1-2.857-.422.933.933,0,0,1,.025-1.307.886.886,0,0,1,1.341-.062.384.384,0,0,0,.55.067c.614-.376,1.226-.761,1.868-1.086.5-.252.138-.472.037-.713-.128-.306-.287-.452-.623-.208a7.213,7.213,0,0,1-.959.564A.844.844,0,0,1,36.36,63.5a6.606,6.606,0,0,1-1.609-3.791,4.041,4.041,0,0,1,1.714-3.436c.406-.291.436-.5.159-.876a1.08,1.08,0,0,1-.235-1.1c.118-.266-.067-.358-.2-.486q-4.067-3.965-8.136-7.93a.581.581,0,0,0-.629-.186c-1.777.453-3.558.893-5.345,1.305-.353.081-.4.225-.355.536.222,1.536.431,3.075.636,4.614.031.231.065.374.359.432a.889.889,0,0,1,.741.948c0,2.3.014,4.6,0,6.9-.005.681-.371,1.022-1.169,1.023-.588,0-.374.372-.416.649-.052.341.076.472.429.439a4.573,4.573,0,0,1,.918.008.9.9,0,0,1,.9.877.924.924,0,0,1-.786,1.044,1.819,1.819,0,0,1-.456.036c-3.437,0-6.874.008-10.312,0a1.989,1.989,0,0,1-2.143-1.852.934.934,0,0,1,.736-1.082.876.876,0,0,1,1.129.626c.086.253.186.35.453.344.722-.016,1.446-.033,2.167,0,.482.023.382-.279.392-.55.011-.294.05-.577-.41-.53a5.9,5.9,0,0,1-1.05,0,.986.986,0,0,1-1.036-1.1,7.508,7.508,0,0,1,.316-3.239,4.119,4.119,0,0,1,3.566-2.6c.363-.031.5-.146.467-.514a1.316,1.316,0,0,1,.377-1.261c.267-.217.029-.458-.028-.656-.823-2.874-1.668-5.742-2.5-8.612-.283-.97-.143-1.278.765-1.711.61-.291,1.214-.6,1.833-.869a.99.99,0,0,1,1.432.461c.223.52,0,1.008-.612,1.333-.019.01-.042.014-.06.025-.426.254-1.128.288-1.256.718-.12.407.205.95.345,1.429q1.035,3.551,2.077,7.1a2.387,2.387,0,0,1,.1.312c.056.382.352.26.566.258.359,0,.191-.261.168-.427-.227-1.668-.461-3.335-.689-5-.17-1.247,0-1.492,1.195-1.813,4.811-1.289,9.692-2.28,14.551-3.366a6.213,6.213,0,0,0,1.482-.487l.2-.112c-.1-.154-.2-.04-.3-.007M22.031,1.979a15.352,15.352,0,0,0-4.471.663c-3.286,1.01-4.815,3.547-4.1,6.781.24,1.078.8,1.424,1.853,1.137a8.713,8.713,0,0,0,2.874-1.521c1.216-.9,1.247-.906,2.407.025a6.714,6.714,0,0,0,7.89.154c1.856-1.436,2.2-3.476,2.045-5.65-.039-.557-.5-.794-1.046-.751-.3.023-.6.114-.9.156a4.67,4.67,0,0,1-2.83-.205,8.235,8.235,0,0,0-3.723-.789m-.45,19.175a7.2,7.2,0,0,0,7.031-8.984c-.146-.552-.294-.6-.8-.41a8.443,8.443,0,0,1-7.839-.735.888.888,0,0,0-1.179-.006,7.746,7.746,0,0,1-3.955,1.591c-.329.02-.307.213-.342.433a7.185,7.185,0,0,0,7.088,8.112M40.614,53.838c-.073.04-.169.09-.262.144a11.031,11.031,0,0,1-1.136.649c-.5.215-.552.442-.255.907.5.783.351,1.259-.431,1.736-.223.136-.456.258-.675.4a2.4,2.4,0,0,0-.624,3.548c.165.227.273.187.462.076q2.6-1.523,5.206-3.031c.229-.132.314-.232.153-.5-.728-1.217-1.429-2.45-2.148-3.674-.059-.1-.086-.259-.29-.255m-22.507,5.65c.983,0,1.966-.014,2.949.007.341.007.456-.09.448-.438-.021-.939,0-1.879-.012-2.818-.01-.561.245-1.3-.1-1.636s-1.082-.034-1.638-.11c-.584-.079-.671.171-.652.685.032.88-.324,1.21-1.214,1.244-.24.009-.481,0-.721.008a2.341,2.341,0,0,0-2.411,2.58c0,.36.082.5.468.484.96-.027,1.922-.009,2.883-.009M4.4,27.28a2.451,2.451,0,1,0,2.476,2.434A2.472,2.472,0,0,0,4.4,27.28m41.134-1.691a2.445,2.445,0,1,0,.016,4.889A2.472,2.472,0,0,0,48,28.019a2.445,2.445,0,0,0-2.466-2.43m-9.77.936c-.146.39.106.375.326.41,1.506.237,3.011.482,4.517.717.208.033.486.219.556-.193.065-.387-.239-.345-.452-.4-1.417-.341-2.841-.659-4.251-1.024-.518-.134-.735,0-.7.486m-26.5,3.218.566-.044c1.35-.1,2.7-.221,4.05-.295.564-.031.377-.385.384-.686.01-.414-.236-.3-.479-.263q-2.3.362-4.593.7c-.221.032-.37.064-.351.345.021.3.186.3.422.241m21.124-5.872-.108.137c.948.863,1.479,2.245,3.034,2.351.177.012.458.185.475-.113.019-.33.426-.78-.031-.992-1.1-.51-2.244-.928-3.37-1.383m1.861-9.354a1.746,1.746,0,0,0-1-1.487c-.282-.1-.482-.127-.455.311a8.686,8.686,0,0,1-.082,1.949c-.045.278-.314.7-.052.828.31.149.7-.1,1-.345a1.712,1.712,0,0,0,.592-1.256m-19.827-.863a1.534,1.534,0,0,0-1.3,1.746A1.557,1.557,0,0,0,12.9,16.747a11.993,11.993,0,0,1-.483-3.094M43.292,61.4a.625.625,0,0,0-.956-.534c-.488.282-.957.6-1.464.844-.434.209-.215.429-.068.646.132.2.154.595.587.311.543-.356,1.121-.659,1.681-.99.1-.062.255-.1.219-.278m-24.653.057c-.349,0-.7,0-1.045,0-.143,0-.28-.03-.334.2-.149.62.022.867.649.868.544,0,1.089-.015,1.633.006.291.012.345-.1.372-.369.055-.546-.083-.823-.688-.708a3.227,3.227,0,0,1-.587.006" transform="translate(1011.624 448.999)" fill="#040404"/>
    <path id="Path_182351" data-name="Path 182351" d="M119.382,132.093a1.57,1.57,0,0,1-1.377-.851,4.276,4.276,0,0,0-1.4-1.527,1.323,1.323,0,0,1,.024-2.291,4.565,4.565,0,0,0,1.359-1.474,1.563,1.563,0,0,1,2.809-.026,4.845,4.845,0,0,0,1.4,1.522,1.319,1.319,0,0,1-.029,2.288,4.1,4.1,0,0,0-1.351,1.481,1.594,1.594,0,0,1-1.44.877m.012-4.6c-.311.365-.858.725-.866,1.095-.007.355.546.721.854,1.081.006.006.032-.005.054-.01.3-.358.854-.728.842-1.079-.012-.37-.564-.721-.884-1.086" transform="translate(942.013 373.925)" fill="#040404"/>
    <path id="Path_182352" data-name="Path 182352" d="M9.2,142.631a1.539,1.539,0,0,1-1.4-.843,4.372,4.372,0,0,0-1.4-1.527,1.32,1.32,0,0,1,.023-2.289A4.611,4.611,0,0,0,7.783,136.5a1.57,1.57,0,0,1,2.846.024,4.589,4.589,0,0,0,1.366,1.469,1.311,1.311,0,0,1,.027,2.25,4.519,4.519,0,0,0-1.44,1.575,1.5,1.5,0,0,1-1.378.815m.012-4.609c-.288.322-.546.614-.809.9-.106.115-.215.2-.046.367.3.3.574.618.885.959.247-.454.852-.759.836-1.09-.018-.378-.534-.732-.866-1.136" transform="translate(1008.171 367.596)" fill="#040404"/>
    <path id="Path_182353" data-name="Path 182353" d="M20.051,123.03a1.479,1.479,0,0,1-1.333-.773,4.653,4.653,0,0,0-1.481-1.624,1.3,1.3,0,0,1,0-2.211,4.947,4.947,0,0,0,1.451-1.564,1.557,1.557,0,0,1,2.772,0,5.007,5.007,0,0,0,1.449,1.566,1.311,1.311,0,0,1-.006,2.215,4.441,4.441,0,0,0-1.441,1.572,1.527,1.527,0,0,1-1.416.818m.042-2.407c.321-.384.863-.749.863-1.114s-.557-.707-.873-1.064c-.307.336-.785.633-.872,1.018-.094.415.545.641.74,1.043.017.035.065.056.141.118" transform="translate(1001.644 379.358)" fill="#040404"/>
    <path id="Path_182354" data-name="Path 182354" d="M92.04,103.247c.1-.033.2-.148.3.007l-.2.112-.1-.118" transform="translate(956.371 387.063)" fill="#fdfdfd"/>
    <path id="Path_182355" data-name="Path 182355" d="M56.418,16.725a5.286,5.286,0,0,1-3.8-1.633.982.982,0,0,1-.078-1.409.968.968,0,0,1,1.408,0,3.413,3.413,0,0,0,3.793.8.937.937,0,0,1,1.3.529.994.994,0,0,1-.645,1.309,4.724,4.724,0,0,1-1.974.409" transform="translate(980.242 440.969)" fill="#040404"/>
    <path id="Path_182356" data-name="Path 182356" d="M51.375,45.226a3.017,3.017,0,0,1-1.779-.611.965.965,0,0,1,.982-1.657,1.582,1.582,0,0,0,1.717-.014.849.849,0,0,1,1.2.332.921.921,0,0,1-.188,1.293,3.1,3.1,0,0,1-1.926.657" transform="translate(982.117 423.296)" fill="#040404"/>
    <path id="Path_182357" data-name="Path 182357" d="M62.906,35.77a.961.961,0,0,1-1.374.944,1.657,1.657,0,0,0-1.778.009.845.845,0,0,1-1.187-.354.9.9,0,0,1,.168-1.24,3.086,3.086,0,0,1,3.86.012,1.124,1.124,0,0,1,.311.629" transform="translate(976.572 428.314)" fill="#040404"/>
    <path id="Path_182358" data-name="Path 182358" d="M41.418,34.459a2.847,2.847,0,0,1,1.8.564.969.969,0,0,1-.985,1.67,1.488,1.488,0,0,0-1.654.009.869.869,0,0,1-1.245-.337.949.949,0,0,1,.276-1.325,2.811,2.811,0,0,1,1.811-.581" transform="translate(988.111 428.316)" fill="#040404"/>
    <path id="Path_184688" data-name="Path 184688" d="M0,0H53.239V67.246H0Z" transform="translate(1011.624 449)" fill="none"/>
    <path id="Path_182359" data-name="Path 182359" d="M-6505-11133.635v39.911h125.5v-39.911" transform="translate(7402 11695)" fill="none" stroke="#3c3fa7" stroke-width="3"/>
    <path id="Path_184689" data-name="Path 184689" d="M11.5,0,23,20H0Z" transform="translate(885.639 556.5)" fill="#3c3fa7"/>
    <path id="Path_184690" data-name="Path 184690" d="M11.5,0,23,20H0Z" transform="translate(1127 488) rotate(180)" fill="#fc5f65"/>
    <path id="Path_184691" data-name="Path 184691" d="M0,0H12V25H0Z" transform="translate(1110 448)" fill="#fc5f65"/>
    <path id="Path_184692" data-name="Path 184692" d="M11.5,0,23,20H0Z" transform="translate(1028 557)" fill="#3c3fa7"/>
  </g>
</svg>
