<svg xmlns="http://www.w3.org/2000/svg" xmlns:xlink="http://www.w3.org/1999/xlink" width="293" height="248" viewBox="0 0 293 248">
  <defs>
    <clipPath id="clip-path">
      <rect id="Rectangle_45327" data-name="Rectangle 45327" width="293" height="232.092" fill="#a6bbff"/>
    </clipPath>
    <clipPath id="clip-path-2">
      <rect id="Rectangle_45326" data-name="Rectangle 45326" width="225.443" height="248" fill="none"/>
    </clipPath>
    <clipPath id="clip-path-4">
      <path id="Path_184088" data-name="Path 184088" d="M69.473,18.25s9.287,12.41,13.6,12.781,15.607-2.658,15.607-7.987S90.6,1.036,77.267,1.036,69.473,18.25,69.473,18.25" transform="translate(-68.334 -1.036)" fill="none"/>
    </clipPath>
    <clipPath id="clip-path-6">
      <rect id="Rectangle_45323" data-name="Rectangle 45323" width="21.732" height="19.66" fill="none"/>
    </clipPath>
    <clipPath id="clip-path-7">
      <rect id="Rectangle_45324" data-name="Rectangle 45324" width="3.725" height="2.79" fill="none"/>
    </clipPath>
  </defs>
  <g id="_12" data-name="12" transform="translate(-233 -3821)">
    <rect id="Rectangle_45195" data-name="Rectangle 45195" width="293" height="248" rx="11" transform="translate(233 3821)" fill="#c4d1ff"/>
    <g id="Group_175119" data-name="Group 175119" transform="translate(206.866 3821)">
      <g id="Group_175118" data-name="Group 175118" transform="translate(26.134)" clip-path="url(#clip-path)">
        <path id="Path_184134" data-name="Path 184134" d="M651.389,573.808h-78c5.409-5.822,11.761-8.727,18.482-7.685,2.78-3.987,6.849-5.995,10.729-5.11,5.638-6.137,12.791-9.167,19.836-8.217s13.8,5.811,18.543,13.347C644.867,564.79,649.313,568.9,651.389,573.808Z" transform="translate(-424.92 -406.976)" fill="#a6bbff" stroke="#fff" stroke-miterlimit="10" stroke-width="2"/>
        <path id="Path_184135" data-name="Path 184135" d="M581.846,111.941h70.786c-4.909-6.006-10.673-9-16.773-7.928-2.522-4.113-6.215-6.184-9.737-5.271-5.117-6.331-11.608-9.456-18-8.477S595.6,96.26,591.294,104.034C587.764,102.638,583.73,106.874,581.846,111.941Z" transform="translate(-431.084 -66.345)" fill="#a6bbff" stroke="#fff" stroke-miterlimit="10" stroke-width="2"/>
        <path id="Path_184136" data-name="Path 184136" d="M1001.451,806.61H944.272c3.965-4.268,8.622-6.4,13.549-5.634,2.038-2.923,5.02-4.395,7.865-3.746,4.133-4.5,9.377-6.72,14.541-6.024s10.114,4.26,13.593,9.784C996.67,800,999.929,803.009,1001.451,806.61Z" transform="translate(-695.185 -582.585)" fill="#a6bbff" stroke="#fff" stroke-miterlimit="10" stroke-width="2"/>
        <path id="Path_184137" data-name="Path 184137" d="M835.259,356.186h49.972c-2.892-5.041-7.84-7.7-12.246-6.069-4.095-5.409-9.542-8.565-15.106-8.538s-11.092,3.171-15.161,8.621C839.909,348.709,836.5,352.272,835.259,356.186Z" transform="translate(-615.746 -251.553)" fill="#a6bbff" stroke="#fff" stroke-miterlimit="10" stroke-width="2"/>
        <path id="Path_184138" data-name="Path 184138" d="M33.915,821.525H2.142c4.09-4.743,9.667-7.208,14.8-5.584,2.31-2.671,5.606-4.1,8.522-3.323S32.425,817.842,33.915,821.525Z" transform="translate(-8.651 -598.29)" fill="#a6bbff" stroke="#fff" stroke-miterlimit="10" stroke-width="2"/>
        <path id="Path_184139" data-name="Path 184139" d="M141.721,593.787H75.343c3.842-6.7,10.414-10.223,16.266-8.061,5.439-7.185,12.674-11.377,20.065-11.34s14.734,4.212,20.138,11.451C135.544,583.855,140.073,588.588,141.721,593.787Z" transform="translate(-61.993 -423.001)" fill="#a6bbff" stroke="#fff" stroke-miterlimit="10" stroke-width="2"/>
      </g>
    </g>
    <g id="Group_175117" data-name="Group 175117" transform="translate(269.101 3821)">
      <g id="Group_175116" data-name="Group 175116" clip-path="url(#clip-path-2)">
        <path id="Path_184056" data-name="Path 184056" d="M48.925,60.013l17.847-3.895V31.861H89.911V54.977L110.527,60.8l-32.186,36Z" transform="translate(46.691 30.406)" fill="#a9543d"/>
        <g id="Group_175105" data-name="Group 175105">
          <g id="Group_175104" data-name="Group 175104" clip-path="url(#clip-path-2)">
            <path id="Path_184057" data-name="Path 184057" d="M81.2,44.8v-9.8H58.057V49.677c7.62,5.929,17.706-.45,23.139-4.882" transform="translate(55.406 33.396)"/>
            <path id="Path_184058" data-name="Path 184058" d="M146.314,159.672c-7.7-25.991-15.574-47.508-23.173-60.252-9.3-15.6-67.864.262-67.864.262-5.763,12.635-11.886,32.782-18,56.928,36.224,2.728,72.653,3.064,109.033,3.062" transform="translate(35.579 88.328)"/>
            <path id="Path_184059" data-name="Path 184059" d="M60.087,147.174V105.932H74.265v41.112a.541.541,0,0,0,.444.514c.074,0,.149,0,.221,0a.541.541,0,0,0,.459-.518V105.369a.563.563,0,0,0-.563-.561h-15.3a.563.563,0,0,0-.563.561v41.768l1.124.037" transform="translate(56.271 100.023)" fill="#fff"/>
            <path id="Path_184060" data-name="Path 184060" d="M42.312,116.742h86.474a184.144,184.144,0,0,0-8.161-18.422H48.859c-2.146,5.226-4.333,11.423-6.547,18.422" transform="translate(40.38 93.831)" fill="#a9543d"/>
            <path id="Path_184061" data-name="Path 184061" d="M47.671,38.928c0-17.742,13.477-32.125,30.1-32.125s30.1,14.384,30.1,32.125S94.4,71.054,77.774,71.054s-30.1-14.384-30.1-32.125" transform="translate(45.494 6.492)" fill="#a9543d"/>
            <path id="Path_184062" data-name="Path 184062" d="M69.474,18.25S63.94,1.036,77.268,1.036s21.41,16.68,21.41,22.01-11.3,8.357-15.607,7.987-13.6-12.783-13.6-12.783" transform="translate(65.215 0.989)" fill="#fea41a"/>
            <path id="Path_184063" data-name="Path 184063" d="M52.908,23.359s-6.582-5.343-9.082,2.928c-2.386,7.9,6.948,11.351,9.344,10.256,4.442-2.031,4.9-6.6-.262-13.184" transform="translate(41.456 20.672)" fill="#a9543d"/>
            <path id="Path_184064" data-name="Path 184064" d="M51.915,29.075a.669.669,0,0,1-.582-.332,9.159,9.159,0,0,0-6.34-4.21.673.673,0,0,1,.145-1.339,10.362,10.362,0,0,1,7.36,4.868.674.674,0,0,1-.244.922.66.66,0,0,1-.338.09" transform="translate(42.366 22.132)"/>
            <path id="Path_184065" data-name="Path 184065" d="M47.363,98.32c-1.149,2.8-2.31,5.881-3.483,9.211h79.626c-1.466-3.352-2.926-6.434-4.378-9.211Z" transform="translate(41.876 93.831)"/>
            <path id="Path_184066" data-name="Path 184066" d="M46.831,30.343a.673.673,0,0,1-.577-1.02l2.365-3.942a.674.674,0,1,1,1.155.694L47.41,30.016a.677.677,0,0,1-.578.326" transform="translate(44.051 23.91)"/>
            <path id="Path_184067" data-name="Path 184067" d="M182.313,147.627l4.714,12a4.094,4.094,0,0,0,1.591,1.89c.924.614,2.048,1.714,2.75,1.724,7.727.109,13.088-.08,18.246-1.319,1.554-.373,3.109-.79,4.624-1.3.408-.139,1.108-.448,1.562-.651,1.22-.653,2.359-1.429,3.569-2.1-1.622.9-.534.266.285-.467.4-.588,1.583-2.2,1.761-2.623.057-.133.1-.227.145-.334a16.919,16.919,0,0,1,.5-1.722,61.831,61.831,0,0,0,1.984-7.985,3.891,3.891,0,0,0-.16-1.927c-13.028-38.278-26.38-75.043-31.1-79.763-8.238-8.238-30.494-14.134-38.9-16.129a3.89,3.89,0,0,0-4.343,2.011c-2.144,4.071-8.329,11.218-25.322,11.218-16.416,0-21.47-7.231-23.028-11.7a3.838,3.838,0,0,0-4.606-2.441c-9.463,2.468-33.13,8.912-37.521,12.678C52.589,64.243,38.08,88.541,38.08,88.541S6.545,136.759,1.718,155.094c-2.2,8.361,8.091,18.23,14.892,20.55,6.768,2.3,20.6.752,25.782-8.325,5.634-9.867,11.662-21.84,16.1-30.951a3.864,3.864,0,0,1,7.333,1.54l.5,11.865a3.865,3.865,0,0,0,3.883,3.7l100.8-.563a3.865,3.865,0,0,0,3.842-3.868,3.866,3.866,0,0,1,7.464-1.417" transform="translate(1.351 43.795)" fill="#5774cd"/>
            <path id="Path_184068" data-name="Path 184068" d="M62.173,144.343l-1.1-35.815a.674.674,0,1,0-1.347.041L60.823,144.3c.451.014.9.031,1.35.045" transform="translate(57.003 102.949)"/>
            <path id="Path_184069" data-name="Path 184069" d="M46.629,134.431c.322-.557.641-1.126.948-1.716A59.931,59.931,0,0,0,52.9,117.629a.561.561,0,1,0-1.1-.2,58.781,58.781,0,0,1-5.226,14.788c-.393.752-.815,1.44-1.233,2.138.432.025.862.053,1.292.076" transform="translate(43.267 111.627)" fill="#fff"/>
            <path id="Path_184070" data-name="Path 184070" d="M89.555,136.6l1.452.006A37.172,37.172,0,0,1,87.2,131.1a54.355,54.355,0,0,1-5.445-13.96.562.562,0,1,0-1.1.229,55.5,55.5,0,0,0,5.556,14.265,38.935,38.935,0,0,0,3.346,4.966" transform="translate(76.959 111.369)" fill="#fff"/>
            <path id="Path_184071" data-name="Path 184071" d="M39.419,118.348a.562.562,0,0,1,0-1.124l99.333-.528h0a.562.562,0,0,1,0,1.124l-99.333.528Z" transform="translate(37.084 111.369)" fill="#fff"/>
            <path id="Path_184072" data-name="Path 184072" d="M77.771,6.8C62.228,6.8,44.711,20.3,48.1,42.567L58.046,30.23c2.285,9.43,5.132-9.514,5.132-9.514C90.519,41.522,90.4,25.971,90.4,25.971s8.787,18.721,13.4,10.983c0,0,2.646,2.382,4.079,1.974.965-22.6-16.946-32.125-30.1-32.125" transform="translate(45.497 6.492)" fill="#fea41a"/>
            <path id="Path_184073" data-name="Path 184073" d="M79.829,23.359s6.582-5.343,9.082,2.928c2.386,7.9-6.948,11.351-9.344,10.256-4.442-2.031-4.9-6.6.262-13.184" transform="translate(72.623 20.672)" fill="#a9543d"/>
            <path id="Path_184074" data-name="Path 184074" d="M78.378,29.075a.66.66,0,0,1-.338-.09.676.676,0,0,1-.244-.922,10.365,10.365,0,0,1,7.36-4.868.674.674,0,1,1,.145,1.341,9.149,9.149,0,0,0-6.34,4.208.669.669,0,0,1-.582.332" transform="translate(74.157 22.132)"/>
            <path id="Path_184075" data-name="Path 184075" d="M81.272,30.343a.677.677,0,0,1-.579-.326l-2.365-3.942a.674.674,0,0,1,1.155-.694l2.365,3.942a.673.673,0,0,1-.577,1.02" transform="translate(74.661 23.91)"/>
            <path id="Path_184076" data-name="Path 184076" d="M62.261,33.386a.675.675,0,0,1-.573-1.028l2.494-4.034a.674.674,0,0,1,1.04-.133l3.668,3.522a.674.674,0,1,1-.934.971l-3.066-2.943-2.054,3.324a.674.674,0,0,1-.575.321" transform="translate(58.775 26.726)"/>
            <path id="Path_184077" data-name="Path 184077" d="M73.7,37.636c-9.281,4.427-15.84-3.137-15.84-3.137Z" transform="translate(55.214 32.924)"/>
            <path id="Path_184078" data-name="Path 184078" d="M68.687,33.817S62.568,15.974,50.2,30.039c0,0,6.627,13.555,18.484,3.778" transform="translate(47.911 23.512)" fill="#fff"/>
            <path id="Path_184079" data-name="Path 184079" d="M66.5,33.827s5.984-17.888,18.455-3.916c0,0-6.526,13.606-18.455,3.916" transform="translate(63.465 23.453)" fill="#fff"/>
            <path id="Path_184080" data-name="Path 184080" d="M66.982,25.323a.674.674,0,0,1-.494-1.134c.19-.2,4.733-4.933,13.952-.919a.674.674,0,0,1-.539,1.235c-8.351-3.635-12.385.559-12.424.6a.676.676,0,0,1-.494.215" transform="translate(63.281 20.672)"/>
            <path id="Path_184081" data-name="Path 184081" d="M66.18,25.323a.677.677,0,0,1-.492-.213c-.17-.18-4.135-4.214-12.426-.6a.674.674,0,1,1-.539-1.235c9.219-4.014,13.762.715,13.95.919a.673.673,0,0,1-.492,1.134" transform="translate(49.929 20.672)"/>
            <path id="Path_184082" data-name="Path 184082" d="M65.1,31a6.663,6.663,0,0,0-.268-1.874c-2-2.863-5.234-5.671-9.715-3.971a6.7,6.7,0,0,0-1.72,10.311,9.247,9.247,0,0,0,7.792,1.628A6.7,6.7,0,0,0,65.1,31" transform="translate(49.33 23.513)"/>
            <path id="Path_184083" data-name="Path 184083" d="M81.007,30.891a6.7,6.7,0,0,0-3.467-5.82c-4.493-1.667-7.706,1.167-9.686,4.044a6.7,6.7,0,0,0,3.7,7.94,9.24,9.24,0,0,0,7.778-1.687,6.669,6.669,0,0,0,1.671-4.477" transform="translate(64.513 23.453)"/>
            <path id="Path_184084" data-name="Path 184084" d="M68.782,114.824a3.774,3.774,0,1,1-3.774-3.774,3.774,3.774,0,0,1,3.774,3.774" transform="translate(58.438 105.98)"/>
            <path id="Path_184085" data-name="Path 184085" d="M65.283,119.433a4.336,4.336,0,1,1,4.337-4.335,4.341,4.341,0,0,1-4.337,4.335m0-7.548A3.213,3.213,0,1,0,68.5,115.1a3.217,3.217,0,0,0-3.213-3.213" transform="translate(58.163 105.705)" fill="#fff"/>
          </g>
        </g>
        <g id="Group_175107" data-name="Group 175107" transform="translate(133.549 2.025)">
          <g id="Group_175106" data-name="Group 175106" clip-path="url(#clip-path-4)">
            <path id="Path_184086" data-name="Path 184086" d="M75.661,26.436c-.272,0-.551-.008-.835-.023a.674.674,0,0,1,.076-1.347c3.035.172,5.253-.676,6.592-2.517,4.337-5.967-1.173-20.374-1.229-20.519a.674.674,0,1,1,1.257-.487,52.876,52.876,0,0,1,2.333,8.32c1.182,6.158.754,10.692-1.27,13.477-1.5,2.056-3.823,3.1-6.924,3.1" transform="translate(-62.746 -0.963)"/>
            <path id="Path_184087" data-name="Path 184087" d="M86.418,23.491a.84.84,0,0,1-.119-.01c-4.075-.729-8.079-4.78-11.9-12.045A74.915,74.915,0,0,1,69.908.879a.674.674,0,0,1,1.284-.41c.064.2,6.543,20.112,15.344,21.685a.674.674,0,0,1-.117,1.337" transform="translate(-66.864 -2.024)"/>
          </g>
        </g>
        <g id="Group_175115" data-name="Group 175115">
          <g id="Group_175114" data-name="Group 175114" clip-path="url(#clip-path-2)">
            <path id="Path_184089" data-name="Path 184089" d="M87.33,108.5a.347.347,0,0,1-.063,0,.645.645,0,0,1-.573-.707,143,143,0,0,1,4.044-21.2c2.865-10.569,8.216-24.828,17.444-32.727a.63.63,0,0,1,.9.078.657.657,0,0,1-.078.915c-8.974,7.683-14.214,21.676-17.03,32.059a141.582,141.582,0,0,0-4.01,21,.64.64,0,0,1-.633.586" transform="translate(82.733 51.259)"/>
            <path id="Path_184090" data-name="Path 184090" d="M37.434,94.212a.639.639,0,0,1-.625-.532L30.134,56.658a.649.649,0,0,1,.51-.756.639.639,0,0,1,.743.522l6.674,37.023a.647.647,0,0,1-.512.754.591.591,0,0,1-.115.012" transform="translate(28.748 53.339)"/>
            <path id="Path_184091" data-name="Path 184091" d="M98.742,95.383a12.5,12.5,0,0,1-4.45-4.845c-2.47-4.26-5.65-15.349-16.059-21.891S70.6,79.917,70.6,79.917l-5.82,17.966L93.762,112.57s7.364-5.56,4.98-17.186" transform="translate(61.825 64.136)" fill="#a9543d"/>
            <path id="Path_184092" data-name="Path 184092" d="M86.034,93.057a42.242,42.242,0,0,1-18.8-3.645c-5.111-2.32-8.062-3.856-9.707-4.786a2.742,2.742,0,0,1-1.186-3.248,2.172,2.172,0,0,1,2.728-1.44,62.114,62.114,0,0,0,12.4,2.89c5.873.479,14.564,10.229,14.564,10.229" transform="translate(53.631 76.187)" fill="#a9543d"/>
            <path id="Path_184093" data-name="Path 184093" d="M87.246,90.386s-12.7-.565-22.319-4.835c-5.425-2.41-8.505-3.629-10.082-4.518a2.68,2.68,0,0,1-.9-3.031,2.715,2.715,0,0,1,3.207-1.808c4.825,1.184,15.7,3.764,20.2,4.116,5.871.455,9.889,10.077,9.889,10.077" transform="translate(51.348 72.641)" fill="#a9543d"/>
            <path id="Path_184094" data-name="Path 184094" d="M87.47,87.762S74,86.742,63.962,82.028c-5.7-2.674-8.9-4.116-10.524-5.077a2.623,2.623,0,0,1-.809-3.076,2.787,2.787,0,0,1,3.3-1.753c4.989,1.36,16.637,4.446,21.459,4.966,6.217.672,10.079,10.675,10.079,10.675" transform="translate(50.047 68.738)" fill="#a9543d"/>
            <path id="Path_184095" data-name="Path 184095" d="M89.679,84.275s-13.29-.979-23.194-5.56c-5.888-2.724-9-4.149-10.534-5.062a2.312,2.312,0,0,1-.729-2.662v0a2.973,2.973,0,0,1,3.5-1.878c5,1.339,16.309,4.278,21.017,4.774,6.135.649,9.938,10.389,9.938,10.389" transform="translate(52.556 65.863)" fill="#a9543d"/>
            <path id="Path_184096" data-name="Path 184096" d="M71.783,100.836l12.981,3.457L82.513,72.505a57.467,57.467,0,0,1-12.172-.919c-6.916-1.229-5.91,27.29,1.442,29.249" transform="translate(62.674 68.281)" fill="#a9543d"/>
            <path id="Path_184097" data-name="Path 184097" d="M77.462,78.934a.378.378,0,0,1-.066,0A64.275,64.275,0,0,1,58.61,73.522a.317.317,0,0,1,.266-.577A63.558,63.558,0,0,0,77.452,78.3a.317.317,0,0,1,.01.631" transform="translate(55.758 69.587)"/>
            <path id="Path_184098" data-name="Path 184098" d="M76.409,83.685a.315.315,0,0,1-.1,0A84.418,84.418,0,0,1,56,76.638a.317.317,0,1,1,.291-.563,83.7,83.7,0,0,0,20.138,6.983.318.318,0,0,1-.021.627" transform="translate(53.281 72.567)"/>
            <path id="Path_184099" data-name="Path 184099" d="M74.23,86.568a.376.376,0,0,1-.094,0,57.563,57.563,0,0,1-17.362-6.244.318.318,0,0,1,.313-.553,56.879,56.879,0,0,0,17.161,6.172.317.317,0,0,1-.018.627" transform="translate(54.028 76.088)"/>
            <path id="Path_184100" data-name="Path 184100" d="M83.822,79.331a12.215,12.215,0,0,0,4.233,4.479C90.439,95.437,83.073,101,83.073,101L75.981,97.4Z" transform="translate(72.512 75.709)"/>
            <path id="Path_184101" data-name="Path 184101" d="M60.669,72.688c-.338,1.055-1.868,1.509-3.42,1.01s-2.537-1.753-2.2-2.808,1.87-1.509,3.422-1.012,2.535,1.755,2.2,2.81" transform="translate(52.473 66.495)"/>
            <path id="Path_184102" data-name="Path 184102" d="M58.444,75.838c-.383,1.194-2.034,1.732-3.69,1.2s-2.689-1.927-2.306-3.121,2.034-1.732,3.69-1.2,2.687,1.927,2.306,3.121" transform="translate(49.977 69.202)"/>
            <path id="Path_184103" data-name="Path 184103" d="M59.181,79.649c-.332,1.038-1.767,1.5-3.205,1.044s-2.335-1.675-2-2.711,1.767-1.5,3.205-1.044,2.335,1.673,2,2.711" transform="translate(51.442 73.256)"/>
            <path id="Path_184104" data-name="Path 184104" d="M60.813,83.466c-.42.876-1.747,1.112-2.963.53s-1.859-1.767-1.436-2.644,1.745-1.112,2.961-.528,1.859,1.767,1.438,2.642" transform="translate(53.715 76.827)"/>
            <path id="Path_184105" data-name="Path 184105" d="M58.621,124.228a.561.561,0,0,1-.315-1.026l23.806-16.117-16.145-28.6L10.5,111.321a.562.562,0,0,1-.573-.967L65.889,77.226a.558.558,0,0,1,.774.207l16.682,29.55a.562.562,0,0,1-.174.741L58.936,124.132a.561.561,0,0,1-.315.1" transform="translate(9.208 73.624)"/>
            <path id="Path_184106" data-name="Path 184106" d="M15.519,95.782a.563.563,0,0,1-.412-.18l-4.532-4.9a.562.562,0,1,1,.825-.764l4.532,4.9a.561.561,0,0,1-.412.942" transform="translate(9.948 85.663)"/>
            <path id="Path_184107" data-name="Path 184107" d="M11.361,49.148H43.313L59.872,59.786,57.5,49.148H56.327c6.117,0,11.075-4.434,11.075-9.9V22.857c0-5.468-4.958-9.9-11.075-9.9H11.361c-6.115,0-11.073,4.434-11.073,9.9V39.246c0,5.468,4.958,9.9,11.073,9.9" transform="translate(0.275 12.363)" fill="#fff"/>
            <path id="Path_184108" data-name="Path 184108" d="M60.147,60.623a.574.574,0,0,1-.3-.088L43.424,49.985H11.636C5.22,49.985,0,45.291,0,39.52V23.132c0-5.771,5.22-10.465,11.636-10.465H56.6c6.416,0,11.636,4.694,11.636,10.465V39.52c0,5.206-4.247,9.535-9.787,10.333l2.244,10.086a.559.559,0,0,1-.547.684M11.636,13.791c-5.8,0-10.512,4.19-10.512,9.342V39.52c0,5.152,4.716,9.342,10.512,9.342H43.59a.56.56,0,0,1,.3.09l15.408,9.9-1.972-8.867H56.6a.562.562,0,0,1,0-1.124c5.8,0,10.514-4.19,10.514-9.342V23.132c0-5.152-4.716-9.342-10.514-9.342Z" transform="translate(0 12.089)"/>
            <path id="Path_184109" data-name="Path 184109" d="M23.62,19.36s-2.623-3.7-6.825-3S10.6,21.614,11.21,24.516c.571,2.726.782,6.758,10.421,14a3.327,3.327,0,0,0,4.01-.016c3.178-2.406,9.07-7.376,9.938-11.7,1.2-5.971-.7-8.521-3.762-10.09s-7.127.807-8.2,2.658" transform="translate(10.596 15.452)" fill="#ffb6c8"/>
            <path id="Path_184110" data-name="Path 184110" d="M152.772,118.376,83.7,72.953,67.017,102.5l56.613,32.012a8.751,8.751,0,0,0,9.748-.76Z" transform="translate(63.957 69.622)" fill="#5774cd"/>
            <path id="Path_184111" data-name="Path 184111" d="M91.526,119.747a.561.561,0,0,0,.315-1.026L68.034,102.6,84.179,74l55.47,32.837a.562.562,0,1,0,.573-.967L84.257,72.745a.558.558,0,0,0-.774.207L66.8,102.5a.562.562,0,0,0,.174.741l24.236,16.409a.561.561,0,0,0,.315.1" transform="translate(63.682 69.347)"/>
            <path id="Path_184112" data-name="Path 184112" d="M101.368,91.3a.563.563,0,0,0,.412-.18l4.532-4.9a.562.562,0,0,0-.825-.764l-4.532,4.9a.561.561,0,0,0,.412.942" transform="translate(96.204 81.386)"/>
            <path id="Path_184113" data-name="Path 184113" d="M39.542,95.756a12.5,12.5,0,0,0,4.45-4.845c2.47-4.26,5.65-15.349,16.059-21.891s7.63,11.269,7.63,11.269L73.5,98.256,44.522,112.943s-7.364-5.56-4.98-17.186" transform="translate(37.283 64.492)" fill="#a9543d"/>
            <path id="Path_184114" data-name="Path 184114" d="M52.531,109.485l30.445,1.434a1.036,1.036,0,0,0,1.04-1.042l1.878-47.694a1.056,1.056,0,0,0-.954-1.134L54.5,59.614a1.039,1.039,0,0,0-1.04,1.042L51.577,108.35a1.057,1.057,0,0,0,.954,1.135" transform="translate(49.222 56.892)"/>
            <path id="Path_184115" data-name="Path 184115" d="M52.451,110.844,82.9,112.279a1.035,1.035,0,0,0,1.04-1.042l1.88-47.748a1.056,1.056,0,0,0-.954-1.135L54.417,60.918A1.036,1.036,0,0,0,53.38,61.96L51.5,109.709a1.054,1.054,0,0,0,.952,1.135" transform="translate(49.147 58.136)" fill="#ffd4de"/>
            <g id="Group_175110" data-name="Group 175110" transform="translate(106.118 134.904)" opacity="0.7">
              <g id="Group_175109" data-name="Group 175109">
                <g id="Group_175108" data-name="Group 175108" clip-path="url(#clip-path-6)">
                  <path id="Path_184116" data-name="Path 184116" d="M63,69.089c-1.964.231-4.667.264-6.572,4.405s-3.36,4.311-.6,6.707,7.135,9.42,10.116,8.382,10.211-5.73,10.086-10.139S69.058,68.376,63,69.089" transform="translate(-54.298 -69.028)" fill="#fff"/>
                </g>
              </g>
            </g>
            <path id="Path_184117" data-name="Path 184117" d="M59.9,64.716c-.139,1.356-1.728,2.306-3.549,2.12S53.165,65.4,53.3,64.044s1.728-2.306,3.551-2.119S60.04,63.36,59.9,64.716" transform="translate(50.859 59.076)"/>
            <g id="Group_175113" data-name="Group 175113" transform="translate(105.559 122.009)" opacity="0.7">
              <g id="Group_175112" data-name="Group 175112">
                <g id="Group_175111" data-name="Group 175111" clip-path="url(#clip-path-7)">
                  <path id="Path_184118" data-name="Path 184118" d="M57.733,64.014a1.683,1.683,0,0,1-2,1.192c-1.026-.1-1.794-.807-1.716-1.571a1.684,1.684,0,0,1,2-1.192c1.028.106,1.794.807,1.718,1.571" transform="translate(-54.013 -62.43)" fill="#fff"/>
                </g>
              </g>
            </g>
            <path id="Path_184119" data-name="Path 184119" d="M60.317,63.556a1.43,1.43,0,0,1-1.7,1.014c-.872-.088-1.526-.686-1.46-1.337a1.433,1.433,0,0,1,1.7-1.014c.872.088,1.526.688,1.46,1.337" transform="translate(54.543 59.368)"/>
            <path id="Path_184120" data-name="Path 184120" d="M50,93.43a42.242,42.242,0,0,0,18.8-3.645c5.111-2.32,8.062-3.856,9.707-4.786A2.742,2.742,0,0,0,79.7,81.751a2.172,2.172,0,0,0-2.728-1.44,62.115,62.115,0,0,1-12.4,2.89C58.7,83.68,50,93.43,50,93.43" transform="translate(47.722 76.543)" fill="#a9543d"/>
            <path id="Path_184121" data-name="Path 184121" d="M50.553,90.76s12.7-.565,22.319-4.835c5.425-2.41,8.505-3.629,10.082-4.518a2.68,2.68,0,0,0,.9-3.031,2.715,2.715,0,0,0-3.207-1.808c-4.825,1.184-15.7,3.764-20.2,4.114-5.871.457-9.889,10.079-9.889,10.079" transform="translate(48.245 72.998)" fill="#a9543d"/>
            <path id="Path_184122" data-name="Path 184122" d="M51.1,88.135S64.57,87.115,74.612,82.4c5.7-2.675,8.9-4.116,10.524-5.079a2.623,2.623,0,0,0,.809-3.076,2.787,2.787,0,0,0-3.3-1.753C77.651,73.854,66,76.94,61.182,77.46,54.965,78.133,51.1,88.135,51.1,88.135" transform="translate(48.77 69.094)" fill="#a9543d"/>
            <path id="Path_184123" data-name="Path 184123" d="M48.69,84.649s13.288-.979,23.192-5.56c5.89-2.724,9-4.149,10.536-5.062a2.308,2.308,0,0,0,.727-2.662v0a2.97,2.97,0,0,0-3.5-1.878c-5,1.339-16.311,4.278-21.019,4.774-6.135.649-9.936,10.389-9.936,10.389" transform="translate(46.467 66.22)" fill="#a9543d"/>
            <path id="Path_184124" data-name="Path 184124" d="M59.009,101.208l-12.981,3.457,2.249-31.787a57.482,57.482,0,0,0,12.174-.919c6.916-1.229,5.91,27.29-1.442,29.249" transform="translate(43.926 68.637)" fill="#a9543d"/>
            <path id="Path_184125" data-name="Path 184125" d="M53.439,79.307a.251.251,0,0,0,.066,0,64.159,64.159,0,0,0,18.785-5.412.317.317,0,0,0-.266-.577,63.558,63.558,0,0,1-18.576,5.357.317.317,0,0,0-.01.631" transform="translate(50.733 69.943)"/>
            <path id="Path_184126" data-name="Path 184126" d="M55.244,84.058a.316.316,0,0,0,.1,0,84.389,84.389,0,0,0,20.311-7.043.317.317,0,1,0-.291-.563,83.7,83.7,0,0,1-20.138,6.983.318.318,0,0,0,.021.627" transform="translate(52.455 72.923)"/>
            <path id="Path_184127" data-name="Path 184127" d="M55.978,86.941a.377.377,0,0,0,.094,0,57.562,57.562,0,0,0,17.362-6.244.318.318,0,1,0-.313-.553,56.879,56.879,0,0,1-17.161,6.172.317.317,0,0,0,.018.627" transform="translate(53.156 76.444)"/>
            <path id="Path_184128" data-name="Path 184128" d="M43.774,79.7a12.215,12.215,0,0,1-4.233,4.479c-2.384,11.626,4.982,17.186,4.982,17.186l7.092-3.594Z" transform="translate(37.282 76.065)"/>
            <path id="Path_184129" data-name="Path 184129" d="M63.608,73.061c.338,1.055,1.868,1.509,3.42,1.01s2.537-1.753,2.2-2.808-1.87-1.509-3.422-1.012-2.535,1.755-2.2,2.81" transform="translate(60.641 66.851)"/>
            <path id="Path_184130" data-name="Path 184130" d="M66.031,76.212c.381,1.194,2.034,1.732,3.69,1.2s2.687-1.927,2.306-3.121-2.034-1.732-3.69-1.2-2.689,1.927-2.306,3.121" transform="translate(62.94 69.559)"/>
            <path id="Path_184131" data-name="Path 184131" d="M64.9,80.022c.332,1.038,1.767,1.5,3.205,1.044s2.335-1.675,2-2.711-1.767-1.5-3.205-1.044-2.335,1.673-2,2.711" transform="translate(61.87 73.612)"/>
            <path id="Path_184132" data-name="Path 184132" d="M62.93,83.839c.42.876,1.747,1.112,2.963.53s1.859-1.767,1.436-2.644-1.745-1.112-2.961-.528-1.859,1.767-1.438,2.642" transform="translate(59.934 77.183)"/>
            <path id="Path_184133" data-name="Path 184133" d="M3.229,122.858,72.3,77.434l16.682,29.552L33.629,143.692Z" transform="translate(3.082 73.898)" fill="#5774cd"/>
          </g>
        </g>
      </g>
    </g>
  </g>
</svg>
