<svg xmlns="http://www.w3.org/2000/svg" xmlns:xlink="http://www.w3.org/1999/xlink" width="293" height="248" viewBox="0 0 293 248">
  <defs>
    <clipPath id="clip-path">
      <rect id="Rectangle_45327" data-name="Rectangle 45327" width="293" height="232.092" fill="#ff9fa3"/>
    </clipPath>
    <clipPath id="clip-path-2">
      <rect id="Rectangle_45332" data-name="Rectangle 45332" width="243.821" height="242" fill="none"/>
    </clipPath>
    <clipPath id="clip-path-4">
      <path id="Path_184172" data-name="Path 184172" d="M81.944,17.833S91,29.943,95.211,30.306s15.23-2.594,15.23-7.794S102.553,1.036,89.549,1.036s-7.605,16.8-7.605,16.8" transform="translate(-80.832 -1.036)" fill="none"/>
    </clipPath>
    <clipPath id="clip-path-6">
      <rect id="Rectangle_45329" data-name="Rectangle 45329" width="21.206" height="19.184" fill="none"/>
    </clipPath>
    <clipPath id="clip-path-7">
      <rect id="Rectangle_45330" data-name="Rectangle 45330" width="3.635" height="2.723" fill="none"/>
    </clipPath>
  </defs>
  <g id="_16" data-name="16" transform="translate(-548 -4600)">
    <rect id="Rectangle_45197" data-name="Rectangle 45197" width="293" height="248" rx="11" transform="translate(548 4600)" fill="#ffbfc1"/>
    <g id="Group_175135" data-name="Group 175135" transform="translate(521.866 4600)">
      <g id="Group_175118" data-name="Group 175118" transform="translate(26.134)" clip-path="url(#clip-path)">
        <path id="Path_184134" data-name="Path 184134" d="M651.389,573.808h-78c5.409-5.822,11.761-8.727,18.482-7.685,2.78-3.987,6.849-5.995,10.729-5.11,5.638-6.137,12.791-9.167,19.836-8.217s13.8,5.811,18.543,13.347C644.867,564.79,649.313,568.9,651.389,573.808Z" transform="translate(-424.92 -406.976)" fill="#ff9fa3" stroke="#fff" stroke-miterlimit="10" stroke-width="2"/>
        <path id="Path_184135" data-name="Path 184135" d="M581.846,111.941h70.786c-4.909-6.006-10.673-9-16.773-7.928-2.522-4.113-6.215-6.184-9.737-5.271-5.117-6.331-11.608-9.456-18-8.477S595.6,96.26,591.294,104.034C587.764,102.638,583.73,106.874,581.846,111.941Z" transform="translate(-431.084 -66.345)" fill="#ff9fa3" stroke="#fff" stroke-miterlimit="10" stroke-width="2"/>
        <path id="Path_184136" data-name="Path 184136" d="M1001.451,806.61H944.272c3.965-4.268,8.622-6.4,13.549-5.634,2.038-2.923,5.02-4.395,7.865-3.746,4.133-4.5,9.377-6.72,14.541-6.024s10.114,4.26,13.593,9.784C996.67,800,999.929,803.009,1001.451,806.61Z" transform="translate(-695.185 -582.585)" fill="#ff9fa3" stroke="#fff" stroke-miterlimit="10" stroke-width="2"/>
        <path id="Path_184137" data-name="Path 184137" d="M835.259,356.186h49.972c-2.892-5.041-7.84-7.7-12.246-6.069-4.095-5.409-9.542-8.565-15.106-8.538s-11.092,3.171-15.161,8.621C839.909,348.709,836.5,352.272,835.259,356.186Z" transform="translate(-615.746 -251.553)" fill="#ff9fa3" stroke="#fff" stroke-miterlimit="10" stroke-width="2"/>
        <path id="Path_184138" data-name="Path 184138" d="M33.915,821.525H2.142c4.09-4.743,9.667-7.208,14.8-5.584,2.31-2.671,5.606-4.1,8.522-3.323S32.425,817.842,33.915,821.525Z" transform="translate(-8.651 -598.29)" fill="#ff9fa3" stroke="#fff" stroke-miterlimit="10" stroke-width="2"/>
        <path id="Path_184139" data-name="Path 184139" d="M141.721,593.787H75.343c3.842-6.7,10.414-10.223,16.266-8.061,5.439-7.185,12.674-11.377,20.065-11.34s14.734,4.212,20.138,11.451C135.544,583.855,140.073,588.588,141.721,593.787Z" transform="translate(-61.993 -423.001)" fill="#ff9fa3" stroke="#fff" stroke-miterlimit="10" stroke-width="2"/>
      </g>
    </g>
    <g id="Group_175134" data-name="Group 175134" transform="translate(573 4603)">
      <g id="Group_175133" data-name="Group 175133" clip-path="url(#clip-path-2)">
        <path id="Path_184140" data-name="Path 184140" d="M61.422,59.332l17.415-3.8V31.861h22.58V54.418L121.534,60.1,90.127,95.229Z" transform="translate(55.713 28.9)" fill="#a9543d"/>
        <g id="Group_175122" data-name="Group 175122">
          <g id="Group_175121" data-name="Group 175121" clip-path="url(#clip-path-2)">
            <path id="Path_184141" data-name="Path 184141" d="M93.134,44.558V34.994H70.554V49.322c7.436,5.786,17.278-.439,22.58-4.764" transform="translate(63.997 31.742)"/>
            <path id="Path_184142" data-name="Path 184142" d="M156.173,158.048c-7.512-25.362-15.2-46.359-22.612-58.795-9.078-15.22-66.223.256-66.223.256-5.624,12.329-11.6,31.989-17.56,55.551,35.347,2.662,70.9,2.99,106.395,2.988" transform="translate(45.152 83.952)"/>
            <path id="Path_184143" data-name="Path 184143" d="M72.557,146.149V105.9H86.392v40.117a.528.528,0,0,0,.433.5c.072,0,.145,0,.215,0a.528.528,0,0,0,.448-.505V105.355a.549.549,0,0,0-.549-.547H72.009a.549.549,0,0,0-.549.547v40.758l1.1.036" transform="translate(64.818 95.067)" fill="#fff"/>
            <path id="Path_184144" data-name="Path 184144" d="M54.81,116.3h84.382a180.116,180.116,0,0,0-7.964-17.976H61.2c-2.094,5.1-4.228,11.147-6.389,17.976" transform="translate(49.716 89.182)" fill="#a9543d"/>
            <path id="Path_184145" data-name="Path 184145" d="M60.168,38.151C60.168,20.839,73.319,6.8,89.542,6.8s29.374,14.036,29.374,31.348S105.766,69.5,89.542,69.5,60.168,55.464,60.168,38.151" transform="translate(54.576 6.171)" fill="#a9543d"/>
            <path id="Path_184146" data-name="Path 184146" d="M81.944,17.833s-5.4-16.8,7.605-16.8,20.892,16.277,20.892,21.477-11.023,8.155-15.23,7.794S81.944,17.833,81.944,17.833" transform="translate(73.319 0.94)" fill="#fea419"/>
            <path id="Path_184147" data-name="Path 184147" d="M65.176,23.318s-6.423-5.214-8.862,2.857c-2.329,7.706,6.78,11.076,9.118,10.008,4.335-1.981,4.777-6.442-.256-12.865" transform="translate(50.737 19.648)" fill="#a9543d"/>
            <path id="Path_184148" data-name="Path 184148" d="M64.23,28.933a.653.653,0,0,1-.568-.324A8.937,8.937,0,0,0,57.476,24.5a.657.657,0,0,1,.141-1.306,10.111,10.111,0,0,1,7.182,4.75.66.66,0,0,1-.238.9.644.644,0,0,1-.33.088" transform="translate(51.602 21.036)"/>
            <path id="Path_184149" data-name="Path 184149" d="M59.775,98.32c-1.121,2.731-2.254,5.738-3.4,8.988h77.7c-1.43-3.271-2.855-6.278-4.27-8.988Z" transform="translate(51.137 89.182)"/>
            <path id="Path_184150" data-name="Path 184150" d="M59.312,30.215a.657.657,0,0,1-.563-1l2.308-3.847a.657.657,0,0,1,1.127.677L59.877,29.9a.661.661,0,0,1-.564.318" transform="translate(53.204 22.725)"/>
            <path id="Path_184151" data-name="Path 184151" d="M190.433,145.166l4.6,11.713a4,4,0,0,0,1.552,1.844c.9.6,2,1.672,2.683,1.682,7.54.107,12.772-.078,17.8-1.287,1.516-.364,3.034-.77,4.512-1.266.4-.135,1.081-.437,1.524-.635,1.19-.637,2.3-1.394,3.482-2.048-1.583.879-.521.259.278-.456.389-.574,1.545-2.151,1.718-2.559.055-.13.1-.221.141-.326a16.5,16.5,0,0,1,.484-1.68,60.334,60.334,0,0,0,1.936-7.792,3.8,3.8,0,0,0-.156-1.88c-12.712-37.352-25.741-73.227-30.347-77.833C192.607,54.6,170.89,48.85,162.685,46.9a3.8,3.8,0,0,0-4.237,1.962c-2.092,3.972-8.128,10.947-24.71,10.947-16.019,0-20.951-7.056-22.471-11.416a3.745,3.745,0,0,0-4.495-2.382c-9.234,2.409-32.328,8.7-36.614,12.371C63.848,63.8,49.69,87.509,49.69,87.509S18.918,134.56,14.207,152.452c-2.147,8.158,7.9,17.789,14.532,20.053,6.6,2.248,20.1.734,25.158-8.124,5.5-9.629,11.379-21.311,15.71-30.2a3.771,3.771,0,0,1,7.155,1.5l.486,11.578a3.772,3.772,0,0,0,3.789,3.612l98.362-.549a3.771,3.771,0,0,0,3.749-3.774,3.772,3.772,0,0,1,7.283-1.383" transform="translate(12.619 41.625)" fill="#5774cd"/>
            <path id="Path_184152" data-name="Path 184152" d="M74.611,143.461l-1.07-34.949a.657.657,0,0,0-1.314.04l1.066,34.865c.441.013.879.031,1.318.044" transform="translate(65.514 97.849)"/>
            <path id="Path_184153" data-name="Path 184153" d="M59.095,134.008c.315-.544.626-1.1.925-1.674a58.48,58.48,0,0,0,5.195-14.721.548.548,0,1,0-1.077-.2,57.359,57.359,0,0,1-5.1,14.431c-.383.734-.8,1.406-1.2,2.086.421.025.841.051,1.261.074" transform="translate(52.459 106.096)" fill="#fff"/>
            <path id="Path_184154" data-name="Path 184154" d="M101.837,136.122l1.415.006a36.274,36.274,0,0,1-3.717-5.372,53.121,53.121,0,0,1-5.313-13.622.547.547,0,1,0-1.072.223,54.029,54.029,0,0,0,5.42,13.92,38,38,0,0,0,3.267,4.846" transform="translate(84.482 105.851)" fill="#fff"/>
            <path id="Path_184155" data-name="Path 184155" d="M51.9,118.308a.548.548,0,0,1,0-1.1l96.93-.515h0a.548.548,0,0,1,0,1.1l-96.93.515Z" transform="translate(46.582 105.851)" fill="#fff"/>
            <path id="Path_184156" data-name="Path 184156" d="M89.54,6.8c-15.167,0-32.26,13.174-28.955,34.9l9.707-12.039c2.229,9.2,5.008-9.284,5.008-9.284,26.68,20.3,26.56,5.128,26.56,5.128s8.574,18.268,13.075,10.718c0,0,2.582,2.325,3.98,1.926C119.856,16.094,102.378,6.8,89.54,6.8" transform="translate(54.578 6.171)" fill="#fea419"/>
            <path id="Path_184157" data-name="Path 184157" d="M92.236,23.318s6.423-5.214,8.862,2.857c2.329,7.706-6.78,11.076-9.118,10.008-4.335-1.981-4.777-6.442.256-12.865" transform="translate(80.361 19.648)" fill="#a9543d"/>
            <path id="Path_184158" data-name="Path 184158" d="M90.858,28.933a.644.644,0,0,1-.33-.088.66.66,0,0,1-.238-.9,10.114,10.114,0,0,1,7.182-4.75.658.658,0,0,1,.141,1.308,8.928,8.928,0,0,0-6.186,4.106.653.653,0,0,1-.568.324" transform="translate(81.818 21.036)"/>
            <path id="Path_184159" data-name="Path 184159" d="M93.7,30.215a.661.661,0,0,1-.564-.318L90.824,26.05a.657.657,0,0,1,1.127-.677l2.308,3.847a.657.657,0,0,1-.563,1" transform="translate(82.297 22.725)"/>
            <path id="Path_184160" data-name="Path 184160" d="M74.741,33.256a.658.658,0,0,1-.559-1l2.433-3.936a.658.658,0,0,1,1.015-.13l3.58,3.437a.658.658,0,1,1-.912.948L77.306,29.7l-2,3.244a.658.658,0,0,1-.561.313" transform="translate(67.199 25.402)"/>
            <path id="Path_184161" data-name="Path 184161" d="M85.81,37.56C76.753,41.879,70.353,34.5,70.353,34.5Z" transform="translate(63.814 31.293)"/>
            <path id="Path_184162" data-name="Path 184162" d="M80.737,33.595S74.766,16.183,62.7,29.908c0,0,6.467,13.227,18.037,3.686" transform="translate(56.873 22.347)" fill="#fff"/>
            <path id="Path_184163" data-name="Path 184163" d="M79,33.6s5.839-17.455,18.008-3.822c0,0-6.368,13.277-18.008,3.822" transform="translate(71.656 22.291)" fill="#fff"/>
            <path id="Path_184164" data-name="Path 184164" d="M79.463,25.235a.658.658,0,0,1-.482-1.106c.185-.2,4.619-4.813,13.614-.9a.658.658,0,0,1-.526,1.205c-8.149-3.547-12.085.545-12.123.587a.659.659,0,0,1-.482.21" transform="translate(71.481 19.648)"/>
            <path id="Path_184165" data-name="Path 184165" d="M78.342,25.235a.661.661,0,0,1-.481-.208c-.166-.175-4.035-4.112-12.125-.589a.658.658,0,1,1-.526-1.205c9-3.917,13.43.7,13.613.9a.657.657,0,0,1-.481,1.106" transform="translate(58.791 19.648)"/>
            <path id="Path_184166" data-name="Path 184166" d="M77.269,30.845a6.5,6.5,0,0,0-.261-1.829c-1.953-2.794-5.107-5.534-9.48-3.875A6.54,6.54,0,0,0,65.85,35.2a9.023,9.023,0,0,0,7.6,1.589,6.54,6.54,0,0,0,3.816-5.946" transform="translate(58.221 22.348)"/>
            <path id="Path_184167" data-name="Path 184167" d="M93.179,30.739A6.541,6.541,0,0,0,89.8,25.059c-4.384-1.627-7.52,1.139-9.451,3.946a6.537,6.537,0,0,0,3.614,7.748,9.017,9.017,0,0,0,7.59-1.646,6.508,6.508,0,0,0,1.631-4.369" transform="translate(72.653 22.291)"/>
            <path id="Path_184168" data-name="Path 184168" d="M81.1,114.733a3.683,3.683,0,1,1-3.683-3.683,3.682,3.682,0,0,1,3.683,3.683" transform="translate(66.878 100.729)"/>
            <path id="Path_184169" data-name="Path 184169" d="M77.675,119.224a4.231,4.231,0,1,1,4.232-4.23,4.236,4.236,0,0,1-4.232,4.23m0-7.365a3.135,3.135,0,1,0,3.135,3.135,3.139,3.139,0,0,0-3.135-3.135" transform="translate(66.617 100.468)" fill="#fff"/>
          </g>
        </g>
        <g id="Group_175124" data-name="Group 175124" transform="translate(154.151 1.976)">
          <g id="Group_175123" data-name="Group 175123" clip-path="url(#clip-path-4)">
            <path id="Path_184170" data-name="Path 184170" d="M88.123,25.823c-.265,0-.538-.008-.814-.023a.658.658,0,0,1,.074-1.314c2.962.168,5.126-.66,6.433-2.456,4.232-5.822-1.144-19.881-1.2-20.022a.657.657,0,0,1,1.226-.475,51.359,51.359,0,0,1,2.277,8.118c1.154,6.009.736,10.434-1.24,13.151-1.459,2.006-3.728,3.021-6.757,3.021" transform="translate(-75.521 -0.967)"/>
            <path id="Path_184171" data-name="Path 184171" d="M98.515,22.922a.82.82,0,0,1-.116-.01c-3.976-.711-7.884-4.665-11.614-11.753A73.1,73.1,0,0,1,82.4.858a.658.658,0,0,1,1.253-.4c.063.2,6.385,19.626,14.972,21.161a.657.657,0,0,1-.114,1.3" transform="translate(-79.435 -1.975)"/>
          </g>
        </g>
        <g id="Group_175132" data-name="Group 175132">
          <g id="Group_175131" data-name="Group 175131" clip-path="url(#clip-path-2)">
            <path id="Path_184173" data-name="Path 184173" d="M99.811,107.177a.338.338,0,0,1-.061,0,.63.63,0,0,1-.559-.69A139.542,139.542,0,0,1,103.137,85.8c2.8-10.313,8.017-24.227,17.022-31.936a.614.614,0,0,1,.877.076.641.641,0,0,1-.076.893c-8.757,7.5-13.87,21.151-16.618,31.283a138.163,138.163,0,0,0-3.913,20.491.625.625,0,0,1-.618.572" transform="translate(89.97 48.72)"/>
            <path id="Path_184174" data-name="Path 184174" d="M49.754,93.285a.624.624,0,0,1-.61-.519L42.631,56.639a.633.633,0,0,1,.5-.738.623.623,0,0,1,.725.509l6.513,36.127a.631.631,0,0,1-.5.736.576.576,0,0,1-.113.011" transform="translate(38.659 50.696)"/>
            <path id="Path_184175" data-name="Path 184175" d="M110.417,94.7a12.193,12.193,0,0,1-4.342-4.728C103.664,85.817,100.561,75,90.4,68.613s-7.445,11-7.445,11L77.28,97.141l28.278,14.332s7.186-5.426,4.859-16.771" transform="translate(70.097 60.958)" fill="#a9543d"/>
            <path id="Path_184176" data-name="Path 184176" d="M97.809,92.737A41.22,41.22,0,0,1,79.467,89.18c-4.987-2.264-7.867-3.763-9.472-4.67a2.675,2.675,0,0,1-1.158-3.17A2.12,2.12,0,0,1,71.5,79.935a60.612,60.612,0,0,0,12.1,2.821c5.731.467,14.211,9.982,14.211,9.982" transform="translate(62.309 72.412)" fill="#a9543d"/>
            <path id="Path_184177" data-name="Path 184177" d="M98.934,90.041s-12.39-.551-21.779-4.718c-5.294-2.351-8.3-3.541-9.839-4.409a2.615,2.615,0,0,1-.877-2.958,2.649,2.649,0,0,1,3.129-1.764c4.709,1.156,15.323,3.673,19.715,4.016,5.729.444,9.65,9.833,9.65,9.833" transform="translate(60.14 69.042)" fill="#a9543d"/>
            <path id="Path_184178" data-name="Path 184178" d="M99.121,87.381s-13.143-1-22.942-5.6c-5.557-2.609-8.679-4.016-10.268-4.955a2.557,2.557,0,0,1-.79-3,2.72,2.72,0,0,1,3.225-1.711c4.869,1.327,16.235,4.339,20.938,4.846,6.066.656,9.837,10.416,9.837,10.416" transform="translate(58.903 65.332)" fill="#a9543d"/>
            <path id="Path_184179" data-name="Path 184179" d="M101.339,83.906S88.373,82.95,78.706,78.48c-5.746-2.658-8.778-4.049-10.279-4.939a2.256,2.256,0,0,1-.711-2.6v0a2.9,2.9,0,0,1,3.417-1.833c4.88,1.306,15.916,4.175,20.51,4.659,5.986.633,9.7,10.138,9.7,10.138" transform="translate(61.287 62.6)" fill="#a9543d"/>
            <path id="Path_184180" data-name="Path 184180" d="M84.132,100.127,96.8,103.5,94.6,72.482a56.075,56.075,0,0,1-11.877-.9c-6.749-1.2-5.767,26.63,1.407,28.541" transform="translate(70.904 64.898)" fill="#a9543d"/>
            <path id="Path_184181" data-name="Path 184181" d="M89.5,78.788a.369.369,0,0,1-.065,0A62.72,62.72,0,0,1,71.1,73.507a.31.31,0,0,1,.259-.563,62.022,62.022,0,0,0,18.127,5.227.31.31,0,0,1,.01.616" transform="translate(64.331 66.139)"/>
            <path id="Path_184182" data-name="Path 184182" d="M88.408,83.5a.307.307,0,0,1-.093,0,82.375,82.375,0,0,1-19.82-6.873.309.309,0,1,1,.284-.549,81.674,81.674,0,0,0,19.65,6.814.31.31,0,0,1-.021.612" transform="translate(61.977 68.971)"/>
            <path id="Path_184183" data-name="Path 184183" d="M86.3,86.4a.367.367,0,0,1-.092,0,56.17,56.17,0,0,1-16.942-6.093.31.31,0,0,1,.305-.54A55.5,55.5,0,0,0,86.318,85.79a.31.31,0,0,1-.017.612" transform="translate(62.686 72.318)"/>
            <path id="Path_184184" data-name="Path 184184" d="M96.13,79.331a11.925,11.925,0,0,0,4.129,4.371c2.327,11.345-4.861,16.771-4.861,16.771l-6.919-3.507Z" transform="translate(80.256 71.958)"/>
            <path id="Path_184185" data-name="Path 184185" d="M73.029,72.615c-.33,1.03-1.825,1.472-3.337.986s-2.475-1.711-2.145-2.74,1.825-1.472,3.339-.988,2.473,1.713,2.144,2.742" transform="translate(61.209 63.2)"/>
            <path id="Path_184186" data-name="Path 184186" d="M70.794,75.757c-.372,1.165-1.985,1.69-3.6,1.173s-2.624-1.88-2.25-3.046,1.985-1.69,3.6-1.173,2.622,1.88,2.25,3.046" transform="translate(58.837 65.773)"/>
            <path id="Path_184187" data-name="Path 184187" d="M71.55,79.58c-.324,1.013-1.724,1.468-3.128,1.018s-2.279-1.634-1.955-2.645,1.724-1.468,3.128-1.018,2.279,1.632,1.955,2.645" transform="translate(60.229 69.627)"/>
            <path id="Path_184188" data-name="Path 184188" d="M73.2,83.394c-.41.854-1.7,1.085-2.891.517s-1.814-1.724-1.4-2.58,1.7-1.085,2.889-.515,1.814,1.724,1.4,2.578" transform="translate(62.389 73.021)"/>
            <path id="Path_184189" data-name="Path 184189" d="M69.933,123.089a.547.547,0,0,1-.307-1l23.23-15.728L77.1,78.452,22.974,110.495a.548.548,0,0,1-.559-.944L77.025,77.224a.544.544,0,0,1,.755.2l16.279,28.835a.549.549,0,0,1-.17.723L70.24,123a.557.557,0,0,1-.307.093" transform="translate(20.088 69.976)"/>
            <path id="Path_184190" data-name="Path 184190" d="M27.892,95.637a.55.55,0,0,1-.4-.175l-4.422-4.779a.549.549,0,1,1,.8-.746l4.422,4.781a.547.547,0,0,1-.4.919" transform="translate(20.791 81.419)"/>
            <path id="Path_184191" data-name="Path 184191" d="M11.093,48.273H72.487l16.157,10.38-2.309-10.38H85.186c5.967,0,10.805-4.327,10.805-9.663V22.617c0-5.336-4.838-9.663-10.805-9.663H11.093C5.126,12.954.288,17.281.288,22.617V38.61c0,5.336,4.838,9.663,10.805,9.663" transform="translate(0.261 11.75)" fill="#fff"/>
            <path id="Path_184192" data-name="Path 184192" d="M88.905,59.462a.549.549,0,0,1-.3-.086L72.588,49.082H11.355C5.094,49.082,0,44.5,0,38.87V22.879c0-5.632,5.094-10.212,11.355-10.212H85.448c6.261,0,11.355,4.581,11.355,10.212V38.87c0,5.08-4.144,9.3-9.552,10.083l2.191,9.842a.546.546,0,0,1-.536.667m-77.551-45.7C5.7,13.764,1.1,17.852,1.1,22.879V38.87c0,5.027,4.6,9.116,10.258,9.116H72.749a.542.542,0,0,1,.3.088l15.037,9.661-1.926-8.652h-.708a.548.548,0,0,1,0-1.1c5.656,0,10.258-4.089,10.258-9.116V22.879c0-5.027-4.6-9.116-10.258-9.116Z" transform="translate(0 11.49)"/>
            <path id="Path_184193" data-name="Path 184193" d="M163.194,117.277l-67.4-44.324L79.514,101.788l55.244,31.238a8.539,8.539,0,0,0,9.512-.742Z" transform="translate(72.124 66.173)" fill="#5774cd"/>
            <path id="Path_184194" data-name="Path 184194" d="M103.423,118.608a.547.547,0,0,0,.307-1L80.5,101.879,96.254,73.971l54.128,32.042a.548.548,0,0,0,.559-.944L96.33,72.743a.544.544,0,0,0-.755.2L79.3,101.78a.549.549,0,0,0,.17.723l23.649,16.012a.548.548,0,0,0,.307.093" transform="translate(71.863 65.912)"/>
            <path id="Path_184195" data-name="Path 184195" d="M113.852,91.154a.55.55,0,0,0,.4-.175l4.422-4.779a.549.549,0,0,0-.8-.746l-4.422,4.781a.547.547,0,0,0,.4.919" transform="translate(102.773 77.353)"/>
            <path id="Path_184196" data-name="Path 184196" d="M52.028,95.075a12.193,12.193,0,0,0,4.342-4.728c2.411-4.157,5.513-14.978,15.67-21.361s7.445,11,7.445,11l5.679,17.532L56.887,111.845S49.7,106.42,52.028,95.075" transform="translate(46.771 61.297)" fill="#a9543d"/>
            <path id="Path_184197" data-name="Path 184197" d="M65.007,108.279l29.706,1.4a1.014,1.014,0,0,0,1.016-1.016l1.831-46.54a1.029,1.029,0,0,0-.929-1.106l-29.71-1.4a1.014,1.014,0,0,0-1.015,1.016l-1.833,46.54a1.032,1.032,0,0,0,.933,1.108" transform="translate(58.118 54.073)"/>
            <path id="Path_184198" data-name="Path 184198" d="M64.926,109.636l29.708,1.4a1.01,1.01,0,0,0,1.015-1.016l1.835-46.593a1.031,1.031,0,0,0-.931-1.108l-29.708-1.4a1.011,1.011,0,0,0-1.013,1.016L64,108.528a1.031,1.031,0,0,0,.931,1.108" transform="translate(58.047 55.256)" fill="#ffd4de"/>
            <g id="Group_175127" data-name="Group 175127" transform="translate(127.383 131.64)" opacity="0.7">
              <g id="Group_175126" data-name="Group 175126">
                <g id="Group_175125" data-name="Group 175125" clip-path="url(#clip-path-6)">
                  <path id="Path_184199" data-name="Path 184199" d="M75.288,69.087c-1.917.225-4.554.257-6.413,4.3s-3.278,4.207-.587,6.545,6.963,9.192,9.871,8.179S88.123,82.519,88,78.217s-6.8-9.825-12.712-9.129" transform="translate(-66.795 -69.028)" fill="#fff"/>
                </g>
              </g>
            </g>
            <path id="Path_184200" data-name="Path 184200" d="M72.24,64.648c-.135,1.324-1.686,2.25-3.463,2.069s-3.11-1.4-2.977-2.725,1.686-2.25,3.465-2.067,3.11,1.4,2.975,2.723" transform="translate(59.676 56.149)"/>
            <g id="Group_175130" data-name="Group 175130" transform="translate(126.838 119.057)" opacity="0.7">
              <g id="Group_175129" data-name="Group 175129">
                <g id="Group_175128" data-name="Group 175128" clip-path="url(#clip-path-7)">
                  <path id="Path_184201" data-name="Path 184201" d="M70.139,63.975a1.639,1.639,0,0,1-1.949,1.163c-1-.1-1.751-.788-1.674-1.533a1.642,1.642,0,0,1,1.949-1.163c1,.1,1.751.788,1.674,1.533" transform="translate(-66.509 -62.43)" fill="#fff"/>
                </g>
              </g>
            </g>
            <path id="Path_184202" data-name="Path 184202" d="M72.738,63.523a1.4,1.4,0,0,1-1.659.99c-.851-.086-1.489-.669-1.425-1.3a1.4,1.4,0,0,1,1.659-.99c.851.086,1.489.671,1.425,1.3" transform="translate(63.176 56.427)"/>
            <path id="Path_184203" data-name="Path 184203" d="M62.5,93.11a41.221,41.221,0,0,0,18.342-3.557c4.987-2.264,7.867-3.763,9.472-4.67a2.675,2.675,0,0,0,1.158-3.17,2.12,2.12,0,0,0-2.662-1.406,60.612,60.612,0,0,1-12.1,2.821C70.983,83.6,62.5,93.11,62.5,93.11" transform="translate(56.693 72.751)" fill="#a9543d"/>
            <path id="Path_184204" data-name="Path 184204" d="M63.05,90.415s12.39-.551,21.779-4.718c5.294-2.351,8.3-3.541,9.839-4.409a2.615,2.615,0,0,0,.877-2.958,2.649,2.649,0,0,0-3.129-1.764C87.706,77.722,77.092,80.239,72.7,80.58c-5.729.446-9.65,9.835-9.65,9.835" transform="translate(57.19 69.381)" fill="#a9543d"/>
            <path id="Path_184205" data-name="Path 184205" d="M63.6,87.754s13.142-1,22.94-5.593C92.1,79.55,95.221,78.145,96.81,77.2a2.559,2.559,0,0,0,.79-3,2.72,2.72,0,0,0-3.225-1.711c-4.869,1.327-16.235,4.339-20.939,4.846-6.066.656-9.835,10.416-9.835,10.416" transform="translate(57.689 65.671)" fill="#a9543d"/>
            <path id="Path_184206" data-name="Path 184206" d="M61.187,84.28s12.966-.955,22.633-5.426C89.566,76.2,92.6,74.805,94.1,73.915a2.256,2.256,0,0,0,.711-2.6v0a2.9,2.9,0,0,0-3.417-1.833c-4.88,1.306-15.916,4.175-20.51,4.659-5.986.633-9.7,10.138-9.7,10.138" transform="translate(55.5 62.939)" fill="#a9543d"/>
            <path id="Path_184207" data-name="Path 184207" d="M71.192,100.5l-12.667,3.374,2.2-31.018a56.09,56.09,0,0,0,11.879-.9c6.749-1.2,5.767,26.63-1.407,28.541" transform="translate(53.086 65.237)" fill="#a9543d"/>
            <path id="Path_184208" data-name="Path 184208" d="M65.929,79.161a.245.245,0,0,0,.065,0A62.606,62.606,0,0,0,84.325,73.88a.31.31,0,0,0-.259-.563,62.021,62.021,0,0,1-18.127,5.227.31.31,0,0,0-.01.616" transform="translate(59.555 66.477)"/>
            <path id="Path_184209" data-name="Path 184209" d="M67.735,83.873a.308.308,0,0,0,.093,0A82.347,82.347,0,0,0,87.648,77a.309.309,0,1,0-.284-.549,81.675,81.675,0,0,1-19.65,6.814.31.31,0,0,0,.021.612" transform="translate(61.192 69.31)"/>
            <path id="Path_184210" data-name="Path 184210" d="M68.468,86.776a.368.368,0,0,0,.092,0A56.17,56.17,0,0,0,85.5,80.681a.31.31,0,0,0-.305-.54,55.5,55.5,0,0,1-16.746,6.022.31.31,0,0,0,.017.612" transform="translate(61.858 72.656)"/>
            <path id="Path_184211" data-name="Path 184211" d="M56.157,79.7a11.92,11.92,0,0,1-4.131,4.371c-2.327,11.345,4.861,16.771,4.861,16.771l6.921-3.507Z" transform="translate(46.771 72.296)"/>
            <path id="Path_184212" data-name="Path 184212" d="M76.1,72.988c.33,1.03,1.823,1.472,3.337.986s2.475-1.711,2.145-2.74-1.825-1.472-3.339-.988-2.473,1.713-2.144,2.742" transform="translate(68.972 63.539)"/>
            <path id="Path_184213" data-name="Path 184213" d="M78.526,76.131c.374,1.165,1.985,1.69,3.6,1.173s2.624-1.88,2.25-3.046-1.985-1.69-3.6-1.173-2.622,1.88-2.25,3.046" transform="translate(71.157 66.112)"/>
            <path id="Path_184214" data-name="Path 184214" d="M77.394,79.953c.324,1.013,1.724,1.468,3.128,1.018s2.279-1.634,1.955-2.645-1.724-1.468-3.128-1.018-2.279,1.632-1.955,2.645" transform="translate(70.14 69.965)"/>
            <path id="Path_184215" data-name="Path 184215" d="M75.424,83.767c.41.854,1.7,1.085,2.891.517s1.814-1.724,1.4-2.58-1.7-1.085-2.889-.515-1.814,1.724-1.4,2.578" transform="translate(68.3 73.359)"/>
            <path id="Path_184216" data-name="Path 184216" d="M15.726,121.759l67.4-44.326L99.406,106.27,45.391,142.089Z" transform="translate(14.265 70.237)" fill="#5774cd"/>
            <path id="Path_184217" data-name="Path 184217" d="M2.977,26.68a8.909,8.909,0,0,1,.311-2.38,6.875,6.875,0,0,1,.879-1.983,4.547,4.547,0,0,1,1.375-1.364,3.3,3.3,0,0,1,1.8-.511,2.109,2.109,0,0,1,1.118.307,3.238,3.238,0,0,1,.866.757,3.6,3.6,0,0,1,.559.961,2.618,2.618,0,0,1,.2.931,3.288,3.288,0,0,1-.055.536c-.036.212-.088.435-.151.667a6.792,6.792,0,0,1-.235.7,4.919,4.919,0,0,1-.294.626,1.925,1.925,0,0,1-.338.45.534.534,0,0,1-.372.175.7.7,0,0,1-.318-.092,1.245,1.245,0,0,1-.33-.252,1.531,1.531,0,0,1-.265-.372.974.974,0,0,1-.107-.452,1.64,1.64,0,0,1,.059-.45c.038-.149.082-.3.126-.463s.086-.324.126-.492a2.332,2.332,0,0,0,.061-.542,2.2,2.2,0,0,0-.019-.277,1.021,1.021,0,0,0-.078-.3.551.551,0,0,0-.187-.24.517.517,0,0,0-.328-.1,1.023,1.023,0,0,0-.74.374,3.365,3.365,0,0,0-.626,1,7.2,7.2,0,0,0-.433,1.461,9.1,9.1,0,0,0-.162,1.73,5.815,5.815,0,0,0,.139,1.388,2.57,2.57,0,0,0,.372.889,1.335,1.335,0,0,0,.547.469,1.591,1.591,0,0,0,.662.139,2.6,2.6,0,0,0,1.049-.235,6.527,6.527,0,0,0,1.064-.6c.355-.24.69-.5,1.016-.769s.622-.53.894-.77.513-.439.715-.6a.919.919,0,0,1,.463-.235c.29,0,.471.093.547.277a2,2,0,0,1,.114.734,1.577,1.577,0,0,1-.254.763,5.041,5.041,0,0,1-.69.908,8.853,8.853,0,0,1-1.028.925,9.19,9.19,0,0,1-1.261.824,7.634,7.634,0,0,1-1.4.589,4.933,4.933,0,0,1-1.436.221,3.4,3.4,0,0,1-1.684-.408,3.694,3.694,0,0,1-1.236-1.131,5.306,5.306,0,0,1-.769-1.693,7.963,7.963,0,0,1-.265-2.1" transform="translate(2.7 18.542)"/>
            <path id="Path_184218" data-name="Path 184218" d="M14.775,23.89a3.9,3.9,0,0,1-.193,1.238,4.385,4.385,0,0,1-.511,1.058,4.492,4.492,0,0,1-.727.852,6.172,6.172,0,0,1-.822.637,4.5,4.5,0,0,1-.812.416,2.355,2.355,0,0,1-.7.162.574.574,0,0,0-.421.137.423.423,0,0,0-.109.282.748.748,0,0,0,.072.313,1.836,1.836,0,0,0,.133.252,1.378,1.378,0,0,0,.5.458,2.123,2.123,0,0,0,1,.179A5.764,5.764,0,0,0,13,29.8a4.661,4.661,0,0,0,1.057-.307,5.807,5.807,0,0,0,2.411-1.905.483.483,0,0,1,.179-.145.563.563,0,0,1,.254-.059.555.555,0,0,1,.431.271,2.143,2.143,0,0,1-.034,1.911,3.086,3.086,0,0,1-.656.793,5.309,5.309,0,0,1-.961.666,7.042,7.042,0,0,1-1.165.511,8.258,8.258,0,0,1-1.274.324,7.452,7.452,0,0,1-1.28.114,5.069,5.069,0,0,1-1.905-.341,3.792,3.792,0,0,1-1.43-.992,4.427,4.427,0,0,1-.9-1.587,6.733,6.733,0,0,1-.313-2.128,9.392,9.392,0,0,1,.12-1.484,9.1,9.1,0,0,1,.36-1.467,7.414,7.414,0,0,1,.6-1.341,4.953,4.953,0,0,1,.849-1.093,3.777,3.777,0,0,1,1.1-.74,3.322,3.322,0,0,1,1.346-.269,2.832,2.832,0,0,1,1.425.324,2.748,2.748,0,0,1,.913.816,3.3,3.3,0,0,1,.492,1.089,4.549,4.549,0,0,1,.151,1.123m-4.735,2.031q0,.049.006.132a.408.408,0,0,0,.048.162.356.356,0,0,0,.128.133.44.44,0,0,0,.24.053,1.333,1.333,0,0,0,.774-.307,3.746,3.746,0,0,0,.757-.757,4.738,4.738,0,0,0,.57-.967,2.324,2.324,0,0,0,.229-.925,1.651,1.651,0,0,0-.034-.318,1.444,1.444,0,0,0-.116-.338.751.751,0,0,0-.215-.271.565.565,0,0,0-.355-.107,1.02,1.02,0,0,0-.66.341,3.789,3.789,0,0,0-.662.866,6.221,6.221,0,0,0-.505,1.142,3.728,3.728,0,0,0-.2,1.159" transform="translate(6.729 18.628)"/>
            <path id="Path_184219" data-name="Path 184219" d="M12.16,24.249c.015-.3.032-.719.048-1.243s.042-1.091.078-1.7.082-1.219.139-1.844.13-1.188.221-1.69a6,6,0,0,1,.343-1.232q.2-.481.492-.481a1.452,1.452,0,0,1,.374.061,1.659,1.659,0,0,1,.42.185,1.311,1.311,0,0,1,.36.338,1,1,0,0,1,.191.5c.017.13.025.429.025.9s-.008,1.055-.025,1.743-.034,1.459-.059,2.308-.046,1.718-.065,2.609-.04,1.77-.061,2.643-.034,1.678-.042,2.416-.006,1.375.006,1.911a11.229,11.229,0,0,0,.067,1.142q.106.612.492.612a1.314,1.314,0,0,0,.753-.349,6.3,6.3,0,0,0,.893-.889q-.034-.852-.059-1.766c-.017-.61-.023-1.211-.023-1.8s0-1.165.011-1.718.015-1.058.023-1.514.019-.854.032-1.19.019-.589.029-.757q.023-.409.05-1.159t.071-1.634c.031-.589.076-1.192.132-1.81s.132-1.175.223-1.676a5.717,5.717,0,0,1,.343-1.226q.2-.475.492-.475a1.415,1.415,0,0,1,.372.061,1.679,1.679,0,0,1,.421.185,1.283,1.283,0,0,1,.36.338,1.027,1.027,0,0,1,.193.5,8.6,8.6,0,0,1,.011.938q-.011.744-.055,1.869t-.088,2.531q-.049,1.4-.09,2.92t-.067,3.059q-.026,1.545,0,2.939t.09,2.542a14.8,14.8,0,0,0,.21,1.892c.065.305.132.582.2.83a4.73,4.73,0,0,1,.151.667,1.059,1.059,0,0,1-.036.511.724.724,0,0,1-.366.372,1.074,1.074,0,0,1-.482.12,1.025,1.025,0,0,1-.593-.185,2.422,2.422,0,0,1-.481-.433,2.965,2.965,0,0,1-.343-.486c-.088-.162-.149-.277-.179-.349a3.323,3.323,0,0,1-.181-.559,7.032,7.032,0,0,1-.143-.776,4.72,4.72,0,0,1-1.058.734,2.716,2.716,0,0,1-1.249.3,1.948,1.948,0,0,1-.77-.143,2.4,2.4,0,0,1-.582-.349,2.438,2.438,0,0,1-.667-.866,3.85,3.85,0,0,1-.265-.913c-.072-.385-.13-.814-.174-1.291s-.08-.988-.109-1.533-.048-1.091-.059-1.64-.017-1.089-.013-1.617.01-1.015.013-1.461.011-.835.023-1.171.021-.585.031-.746" transform="translate(10.968 14.026)"/>
            <path id="Path_184220" data-name="Path 184220" d="M17.618,37.723a.649.649,0,0,1-.536-.271,2.048,2.048,0,0,1-.332-.643,3.721,3.721,0,0,1-.16-.774,4.508,4.508,0,0,1-.031-.656q.049-1.585.084-2.819T16.7,30.3c.013-.687.021-1.337.025-1.955s.006-1.255.006-1.917V24.3q0-1.141-.011-2.607a1.143,1.143,0,0,1,.065-.33,1.309,1.309,0,0,1,.21-.38,1.349,1.349,0,0,1,.368-.313,1.031,1.031,0,0,1,.534-.132.823.823,0,0,1,.591.2,1.241,1.241,0,0,1,.305.5,3.343,3.343,0,0,1,.145.662c.029.24.057.473.09.7a1.779,1.779,0,0,0,.1.408.176.176,0,0,0,.177.109c.057,0,.124-.055.2-.164s.168-.244.275-.408.233-.339.368-.528a3.664,3.664,0,0,1,.463-.528,2.406,2.406,0,0,1,.57-.41,1.479,1.479,0,0,1,.685-.162A2.74,2.74,0,0,1,24.2,22.082a3.831,3.831,0,0,1,.582,1.291A6.419,6.419,0,0,1,24.971,25a8.25,8.25,0,0,1-.305,2.235,7.279,7.279,0,0,1-.843,1.941,4.84,4.84,0,0,1-1.243,1.364,2.523,2.523,0,0,1-1.514.517A2.767,2.767,0,0,1,20.532,31a4.1,4.1,0,0,1-.444-.109c-.133-.04-.257-.074-.374-.107a1.173,1.173,0,0,0-.318-.048.328.328,0,0,0-.269.126.828.828,0,0,0-.156.288,1.657,1.657,0,0,0-.074.324c-.01.109-.021.187-.029.235a10.364,10.364,0,0,0-.109,1.472q0,.715-.006,1.388c0,.448-.025.885-.067,1.31a4.62,4.62,0,0,1-.288,1.238,1.175,1.175,0,0,1-.277.408.674.674,0,0,1-.5.193M22.75,25a1.958,1.958,0,0,0-.1-.673,1.087,1.087,0,0,0-.24-.391.7.7,0,0,0-.3-.179.946.946,0,0,0-.866.162,3.03,3.03,0,0,0-.584.528,5.649,5.649,0,0,0-.528.727,6.924,6.924,0,0,0-.427.812,6.742,6.742,0,0,0-.288.769,2.714,2.714,0,0,0-.122.6,1.367,1.367,0,0,0,.074.439,1.327,1.327,0,0,0,.21.4,1.118,1.118,0,0,0,.338.3.853.853,0,0,0,.437.114,1.865,1.865,0,0,0,.955-.229,2.226,2.226,0,0,0,.656-.578,2.9,2.9,0,0,0,.421-.78,5.974,5.974,0,0,0,.235-.83,6.078,6.078,0,0,0,.1-.721c.015-.217.025-.374.025-.469" transform="translate(15.018 18.628)"/>
            <path id="Path_184221" data-name="Path 184221" d="M21.448,33.141c0-.177,0-.544.006-1.1s.01-1.23.019-2.02.017-1.661.034-2.62.038-1.926.059-2.908.057-1.938.1-2.872.084-1.775.133-2.523.1-1.371.168-1.863a2.267,2.267,0,0,1,.217-.885.983.983,0,0,1,.311-.185,1.419,1.419,0,0,1,.589-.114.92.92,0,0,1,.757.307,1.745,1.745,0,0,1,.349.738,4.127,4.127,0,0,1,.1.908v.8c0,.368-.006.816-.017,1.341s-.027,1.083-.042,1.676-.036,1.2-.053,1.816-.036,1.207-.044,1.772-.011,1.079-.011,1.545.011.841.036,1.131c.025.32.092.481.2.481s.221-.133.349-.4.267-.553.437-.913a6.883,6.883,0,0,1,.627-1.047,3.817,3.817,0,0,1,.858-.858,1.906,1.906,0,0,1,1.14-.355,2.01,2.01,0,0,1,1.005.24,2.19,2.19,0,0,1,.709.631,2.684,2.684,0,0,1,.416.889,3.975,3.975,0,0,1,.132,1.016c0,.656-.015,1.285-.042,1.886s-.061,1.2-.1,1.791-.067,1.192-.1,1.8-.044,1.238-.044,1.894c0,.248-.071.4-.215.463a1.389,1.389,0,0,1-.528.09,1.719,1.719,0,0,1-.986-.229,1.151,1.151,0,0,1-.444-.631,3.045,3.045,0,0,1-.109-.936c.008-.357.013-.74.013-1.148q0-.446.017-.961c.013-.345.027-.69.042-1.034s.031-.677.042-1,.017-.6.013-.849a4.7,4.7,0,0,0-.038-.582c-.019-.145-.057-.217-.113-.217a.815.815,0,0,0-.486.277,5.082,5.082,0,0,0-.637.751,11.921,11.921,0,0,0-.709,1.123q-.366.649-.709,1.388c-.229.494-.444,1-.643,1.533a14.877,14.877,0,0,0-.505,1.573,1.717,1.717,0,0,1-.324.614.771.771,0,0,1-.626.277,1.038,1.038,0,0,1-.74-.254,1.574,1.574,0,0,1-.408-.629,3.118,3.118,0,0,1-.174-.818c-.025-.292-.036-.559-.036-.8" transform="translate(19.455 14.558)"/>
            <path id="Path_184222" data-name="Path 184222" d="M30.271,20.594a2.964,2.964,0,0,1,1.653.475,4.288,4.288,0,0,1,1.236,1.249,6.1,6.1,0,0,1,.782,1.749,7.338,7.338,0,0,1,.271,1.983,6.07,6.07,0,0,1-.385,2.21,5.507,5.507,0,0,1-1.015,1.707,4.529,4.529,0,0,1-1.455,1.1,3.888,3.888,0,0,1-1.688.391,2.779,2.779,0,0,1-1.55-.416,3.219,3.219,0,0,1-1.028-1.062,4.679,4.679,0,0,1-.564-1.449,7.208,7.208,0,0,1-.175-1.568,8.1,8.1,0,0,1,.139-1.478,9.189,9.189,0,0,1,.389-1.461,8.689,8.689,0,0,1,.608-1.329,5.707,5.707,0,0,1,.793-1.093,3.66,3.66,0,0,1,.944-.74,2.192,2.192,0,0,1,1.045-.269m.2,2.283a.821.821,0,0,0-.6.38,3.992,3.992,0,0,0-.559.984,7.757,7.757,0,0,0-.414,1.371,7.306,7.306,0,0,0-.162,1.531q0,.12.011.469a3.621,3.621,0,0,0,.1.721,1.842,1.842,0,0,0,.3.662.689.689,0,0,0,.6.288,1.169,1.169,0,0,0,.757-.313,3.1,3.1,0,0,0,.666-.8,4.566,4.566,0,0,0,.475-1.118,4.432,4.432,0,0,0,.181-1.251q0-.2-.011-.5a6.237,6.237,0,0,0-.061-.626,5.355,5.355,0,0,0-.137-.643,2.626,2.626,0,0,0-.24-.578,1.308,1.308,0,0,0-.374-.414.9.9,0,0,0-.534-.156" transform="translate(23.903 18.68)"/>
            <path id="Path_184223" data-name="Path 184223" d="M30.908,23.022a1.988,1.988,0,0,1,.1-.547,2.554,2.554,0,0,1,.277-.606,1.835,1.835,0,0,1,.446-.492,1.044,1.044,0,0,1,1.1-.092.723.723,0,0,1,.282.332,1.563,1.563,0,0,1,.12.528c.017.208.025.441.025.7,0,.49.076.734.229.734.08,0,.16-.061.24-.181.143-.215.313-.467.5-.757a5.644,5.644,0,0,1,.673-.822,3.853,3.853,0,0,1,.885-.667,2.312,2.312,0,0,1,1.146-.277,1.71,1.71,0,0,1,1.045.294,1.824,1.824,0,0,1,.606.841,4.339,4.339,0,0,1,.259,1.318,12.044,12.044,0,0,1-.025,1.7q-.057.807-.072,2.056t.1,3.078a1.424,1.424,0,0,1-.019.341,1.1,1.1,0,0,1-.113.349.939.939,0,0,1-.215.277.5.5,0,0,1-.338.114,1.366,1.366,0,0,1-.992-.343,2.127,2.127,0,0,1-.528-.816,3.585,3.585,0,0,1-.215-.975c-.029-.332-.044-.6-.044-.8a9.417,9.417,0,0,1,.044-.95c.027-.28.055-.553.084-.816s.055-.528.084-.788a8.341,8.341,0,0,0,.042-.849,5.739,5.739,0,0,0-.031-.643,1.476,1.476,0,0,0-.086-.383.414.414,0,0,0-.118-.187.213.213,0,0,0-.126-.048.815.815,0,0,0-.475.277,6.205,6.205,0,0,0-.633.709q-.335.432-.685.955c-.231.347-.442.683-.637,1a2.617,2.617,0,0,0-.208.481,3.127,3.127,0,0,0-.1.349,3.812,3.812,0,0,0-.038.6v.774c0,.273,0,.547-.015.824a4.306,4.306,0,0,1-.1.751,1.6,1.6,0,0,1-.221.545.468.468,0,0,1-.41.212h-.24a1.135,1.135,0,0,1-.362-.067,1.826,1.826,0,0,1-.666-.4.866.866,0,0,1-.2-.265,3.483,3.483,0,0,1-.2-.8c-.053-.339-.093-.723-.126-1.148s-.051-.873-.061-1.346-.011-.933-.011-1.381q0-.841.011-1.556t.013-1.137" transform="translate(28.013 18.931)"/>
            <path id="Path_184224" data-name="Path 184224" d="M42.758,23.89a3.9,3.9,0,0,1-.193,1.238,4.385,4.385,0,0,1-.511,1.058,4.492,4.492,0,0,1-.727.852,6.172,6.172,0,0,1-.822.637,4.5,4.5,0,0,1-.812.416,2.355,2.355,0,0,1-.7.162.574.574,0,0,0-.421.137.423.423,0,0,0-.109.282.748.748,0,0,0,.072.313,1.836,1.836,0,0,0,.133.252,1.377,1.377,0,0,0,.5.458,2.123,2.123,0,0,0,1,.179,5.764,5.764,0,0,0,.812-.071,4.661,4.661,0,0,0,1.057-.307,5.807,5.807,0,0,0,2.411-1.905.483.483,0,0,1,.179-.145.563.563,0,0,1,.254-.059.555.555,0,0,1,.431.271,2.143,2.143,0,0,1-.034,1.911,3.086,3.086,0,0,1-.656.793,5.309,5.309,0,0,1-.961.666,7.042,7.042,0,0,1-1.165.511,8.258,8.258,0,0,1-1.274.324,7.452,7.452,0,0,1-1.28.114,5.069,5.069,0,0,1-1.905-.341,3.792,3.792,0,0,1-1.43-.992,4.427,4.427,0,0,1-.9-1.587,6.733,6.733,0,0,1-.313-2.128,9.392,9.392,0,0,1,.12-1.484,9.1,9.1,0,0,1,.36-1.467,7.413,7.413,0,0,1,.6-1.341,4.953,4.953,0,0,1,.849-1.093,3.777,3.777,0,0,1,1.1-.74,3.322,3.322,0,0,1,1.346-.269,2.832,2.832,0,0,1,1.425.324,2.748,2.748,0,0,1,.913.816,3.3,3.3,0,0,1,.492,1.089,4.549,4.549,0,0,1,.151,1.123m-4.735,2.031q0,.049.006.132a.408.408,0,0,0,.048.162.356.356,0,0,0,.128.133.44.44,0,0,0,.24.053,1.333,1.333,0,0,0,.774-.307,3.746,3.746,0,0,0,.757-.757,4.738,4.738,0,0,0,.57-.967,2.324,2.324,0,0,0,.229-.925,1.651,1.651,0,0,0-.034-.318,1.444,1.444,0,0,0-.116-.338.751.751,0,0,0-.215-.271.565.565,0,0,0-.355-.107,1.02,1.02,0,0,0-.66.341,3.789,3.789,0,0,0-.662.866,6.221,6.221,0,0,0-.505,1.142,3.728,3.728,0,0,0-.2,1.159" transform="translate(32.112 18.628)"/>
            <path id="Path_184225" data-name="Path 184225" d="M40.041,19.548a3.123,3.123,0,0,1,.21-1.3,3.412,3.412,0,0,1,.643-1.022,4.125,4.125,0,0,1,.95-.761,6.337,6.337,0,0,1,1.112-.524,6.867,6.867,0,0,1,1.137-.3,6.25,6.25,0,0,1,1.02-.1,4.212,4.212,0,0,1,1.606.294,3.611,3.611,0,0,1,1.215.807,3.458,3.458,0,0,1,.761,1.207,4.179,4.179,0,0,1,.265,1.5,6.047,6.047,0,0,1-.21,1.539A13.358,13.358,0,0,1,48.2,22.54q-.343.841-.788,1.688t-.9,1.672q-.458.821-.9,1.6t-.788,1.472a11.962,11.962,0,0,0-.553,1.285,3.165,3.165,0,0,0-.21,1.034,1.09,1.09,0,0,1-.09.45,1.144,1.144,0,0,1-.229.338,1.011,1.011,0,0,1-.318.215.878.878,0,0,1-.36.078.789.789,0,0,1-.566-.252,1.142,1.142,0,0,1-.252-.83,8.693,8.693,0,0,1,.318-2.4,13.524,13.524,0,0,1,.8-2.115A20.715,20.715,0,0,1,44.4,24.859q.566-.913,1.047-1.795a12.926,12.926,0,0,0,.8-1.762,5.223,5.223,0,0,0,.318-1.791,4.244,4.244,0,0,0-.031-.469,1.334,1.334,0,0,0-.179-.534,1.239,1.239,0,0,0-.458-.439,1.73,1.73,0,0,0-.872-.181,3.426,3.426,0,0,0-.769.1,2.653,2.653,0,0,0-.8.343,3.207,3.207,0,0,0-.734.656,3.4,3.4,0,0,0-.57,1.045,1.134,1.134,0,0,1-.2.36,1.423,1.423,0,0,1-.294.265,1.371,1.371,0,0,1-.338.162A1.069,1.069,0,0,1,41,20.87a.83.83,0,0,1-.648-.355,1.581,1.581,0,0,1-.313-.967m1.6,15.516a2.269,2.269,0,0,1,.092-.654A1.54,1.54,0,0,1,42,33.874a1.207,1.207,0,0,1,.458-.355,1.519,1.519,0,0,1,.637-.126,1.776,1.776,0,0,1,.5.072,1.136,1.136,0,0,1,.439.24,1.254,1.254,0,0,1,.313.433,1.594,1.594,0,0,1,.12.66,1.858,1.858,0,0,1-.132.723,1.455,1.455,0,0,1-.36.517,1.505,1.505,0,0,1-.524.305,1.817,1.817,0,0,1-.606.1,1.232,1.232,0,0,1-.606-.132,1.049,1.049,0,0,1-.366-.332,1.189,1.189,0,0,1-.181-.444,2.6,2.6,0,0,1-.048-.475" transform="translate(36.317 14.1)"/>
            <path id="Path_184226" data-name="Path 184226" d="M95.41,59.416a6.335,6.335,0,0,1,1-1.514,4.283,4.283,0,0,1,1.3-1,3.35,3.35,0,0,1,1.554-.334,4.176,4.176,0,0,1,1.726.444,4.852,4.852,0,0,1,1.15.774,3.16,3.16,0,0,1,.8,1.116,3.492,3.492,0,0,1,.259,1.444,4.374,4.374,0,0,1-.49,1.781,5.077,5.077,0,0,1-1.184,1.627,3.937,3.937,0,0,1-1.508.849,4.191,4.191,0,0,1-1.659.137,5.069,5.069,0,0,1-1.623-.467A3.4,3.4,0,0,1,95.4,63.218a2.883,2.883,0,0,1-.517-1.255,3.358,3.358,0,0,1,.084-1.316,6.8,6.8,0,0,1,.446-1.232M109.915,19.1a8.627,8.627,0,0,1,2.065-2.964,9.189,9.189,0,0,1,2.807-1.764,11.276,11.276,0,0,1,3.259-.759,17.935,17.935,0,0,1,3.374.027,18.645,18.645,0,0,1,3.17.608,16.8,16.8,0,0,1,2.643.978,11.47,11.47,0,0,1,3.621,2.637,9.85,9.85,0,0,1,2.05,3.438,9.587,9.587,0,0,1,.45,3.9,11.577,11.577,0,0,1-1.135,4.035A16.718,16.718,0,0,1,129.87,32.8a36.937,36.937,0,0,1-3.328,3.417q-1.851,1.676-3.957,3.244t-4.22,3.063q-2.114,1.5-4.133,2.885t-3.7,2.708a34.007,34.007,0,0,0-2.9,2.525,8.527,8.527,0,0,0-1.751,2.309,2.981,2.981,0,0,1-.761,1.007,3.033,3.033,0,0,1-.967.561,2.764,2.764,0,0,1-1.043.156,2.412,2.412,0,0,1-.986-.235,2.144,2.144,0,0,1-1.1-1.3,3.138,3.138,0,0,1,.362-2.353,23.9,23.9,0,0,1,3.639-5.557,37.239,37.239,0,0,1,4.5-4.285,56.1,56.1,0,0,1,4.871-3.5q2.483-1.588,4.726-3.2a35.634,35.634,0,0,0,4.075-3.406,14.332,14.332,0,0,0,2.918-4.056,12.537,12.537,0,0,0,.484-1.2,3.735,3.735,0,0,0,.191-1.537,3.4,3.4,0,0,0-.61-1.631,4.76,4.76,0,0,0-1.941-1.484,9.3,9.3,0,0,0-2.02-.675,7.159,7.159,0,0,0-2.384-.1,8.712,8.712,0,0,0-2.6.748,9.383,9.383,0,0,0-2.657,1.909,3.117,3.117,0,0,1-.934.65,3.892,3.892,0,0,1-1.043.3,3.491,3.491,0,0,1-1.026,0,2.921,2.921,0,0,1-.852-.246,2.269,2.269,0,0,1-1.184-1.65,4.36,4.36,0,0,1,.376-2.765" transform="translate(86.034 12.292)"/>
          </g>
        </g>
      </g>
    </g>
  </g>
</svg>
