<svg xmlns="http://www.w3.org/2000/svg" xmlns:xlink="http://www.w3.org/1999/xlink" width="84.19" height="84.191" viewBox="0 0 84.19 84.191">
  <defs>
    <clipPath id="clip-path">
      <rect id="Rectangle_45287" data-name="Rectangle 45287" width="84.19" height="84.191" fill="none"/>
    </clipPath>
  </defs>
  <g id="_2" data-name="2" transform="translate(0 0)">
    <g id="Group_175011" data-name="Group 175011" transform="translate(0 0)" clip-path="url(#clip-path)">
      <path id="Path_183342" data-name="Path 183342" d="M0,39.3a1.2,1.2,0,0,0,.161-.257,5.293,5.293,0,0,1,5.454-3.975q12.5-.009,24.99.016c.758,0,.991-.127.988-.949-.036-9.481-.023-18.962-.022-28.443A5.279,5.279,0,0,1,37.25,0H78.515c3.495,0,5.672,2.187,5.673,5.7q0,15.371,0,30.744A5.281,5.281,0,0,1,78.55,42.1c-.85,0-1.7.029-2.548-.012-.485-.022-.589.149-.574.6.038,1.15.037,2.3.026,3.452a9.318,9.318,0,0,1-.119,1.47,1.572,1.572,0,0,1-2.478,1.227c-1-.551-1.962-1.191-2.919-1.826q-3.417-2.271-6.808-4.581a1.893,1.893,0,0,0-1.14-.341c-2.877.015-5.754.029-8.631-.008-.614-.008-.758.141-.757.756.022,9.536-.037,19.071.045,28.606a5.544,5.544,0,0,1-5.756,5.748c-8.191-.092-16.385-.026-24.578-.037a2.166,2.166,0,0,0-1.293.387q-4.251,2.869-8.525,5.7c-.487.325-.986.632-1.479.947h-.987c-1.122-.377-1.471-.846-1.532-2.2-.054-1.2-.008-2.407-.018-3.611-.008-.971-.053-1.016-1.02-1.024-.766-.006-1.532,0-2.3,0A5.363,5.363,0,0,1,.529,74.71,6.025,6.025,0,0,1,0,72.845V39.3" transform="translate(0 0)"/>
      <path id="Path_183343" data-name="Path 183343" d="M83.934,4.03a1.6,1.6,0,0,1,1.379,1.508,4.641,4.641,0,0,1,.027.82q0,15.126,0,30.255c0,1.83-.583,2.414-2.4,2.416-1.425,0-2.851.016-4.275-.006A2.319,2.319,0,0,0,77,39.563a.9.9,0,0,1-1.07-.139A13.146,13.146,0,0,0,68.163,37.5c-6.986.063-13.973.016-20.961.027a4.051,4.051,0,0,1-2.952-1,3.9,3.9,0,0,1-1.232-3.02c.012-4.275.005-8.549,0-12.824V5.723c0-.3.006-.6.009-.9,0-.59.213-.868.882-.867q19.768.025,39.538.013a.928.928,0,0,1,.482.064" transform="translate(-4.645 -0.426)" fill="#81bbf3"/>
      <path id="Path_183344" data-name="Path 183344" d="M49.846,76.915a1.625,1.625,0,0,1-1.711,1.418c-2.672.01-5.343-.011-8.014-.02a8.641,8.641,0,0,1-1.378-.524,11.156,11.156,0,0,0-5.031-.992q-11.005-.021-22.009,0a3.924,3.924,0,0,1-2.492-.643A3.779,3.779,0,0,1,7.625,72.9c.02-7.227.009-14.454.009-21.681,0-2.244,0-4.49,0-6.734a1.639,1.639,0,0,1,.258-1.174c.626-.013,1.253-.038,1.88-.038q9.956,0,19.913,0c.3,0,.6.025.9.038a1.582,1.582,0,0,1,.261,1.091c.1,2.621,1.4,3.9,4.039,3.906,4.407.015,8.813,0,13.219,0,.3,0,.6,0,.9.009.612.01.914.205.913.927q-.039,13.549-.018,27.1a1.327,1.327,0,0,1-.057.566" transform="translate(-0.823 -4.673)" fill="#eceaf1"/>
      <path id="Path_183345" data-name="Path 183345" d="M83.533,4.023c-1.286.008-2.573.022-3.86.022q-17.869,0-35.737,0c-1.05,0-1.051,0-1.051,1.077q0,14.254,0,28.507a3.424,3.424,0,0,0,3.664,3.623c7.449,0,14.9.023,22.346-.012a11.855,11.855,0,0,1,6.793,1.988,1.452,1.452,0,0,0,.906.327,2.77,2.77,0,0,0-.458,1.707c.021,1.007.005,2.014.005,3.024-.412.062-.607-.217-.841-.371q-3.292-2.168-6.562-4.366a3.143,3.143,0,0,0-1.846-.538q-12.575.024-25.149.01c-1.869,0-2.435-.574-2.435-2.466q0-15.122,0-30.244c0-1.818.587-2.4,2.418-2.4q20.382-.005,40.763-.005a1.8,1.8,0,0,1,1.043.115" transform="translate(-4.245 -0.419)" fill="#6faae5"/>
      <path id="Path_183346" data-name="Path 183346" d="M7.493,43.315c0,9.91.039,19.82-.037,29.729a3.754,3.754,0,0,0,3.511,3.524c7.637-.085,15.275-.062,22.912-.021a9.412,9.412,0,0,1,5.841,1.766c-5.833.009-11.667.035-17.5.008a3.984,3.984,0,0,0-2.368.723c-2.1,1.428-4.226,2.831-6.341,4.243l-.8.53c0-1.18,0-2.231,0-3.282-.008-1.55-.651-2.193-2.192-2.2s-3.068.006-4.6,0a1.786,1.786,0,0,1-2-1.974q-.015-15.571,0-31.142A1.75,1.75,0,0,1,5.854,43.28c.546-.009,1.093.022,1.639.036" transform="translate(-0.423 -4.673)" fill="#d9d6e4"/>
      <path id="Path_183347" data-name="Path 183347" d="M52.625,76.91c-.012-.355-.032-.71-.032-1.066q0-13.182.014-26.364c0-.71-.164-.93-.905-.925-4.736.035-9.472.018-14.208.017a3.776,3.776,0,0,1-4.128-4.112q0-.574,0-1.15c.191-.013.383-.013.571-.043a1.869,1.869,0,0,1,2.181,1.126,4.775,4.775,0,0,0,4.416,2.368c3.809.01,7.619.016,11.427-.011.593,0,.785.11.783.752q-.031,14.3-.01,28.609a1.315,1.315,0,0,1-.108.8" transform="translate(-3.603 -4.667)" fill="#d9d6e4"/>
      <path id="Path_183348" data-name="Path 183348" d="M55.08,31.032a2.274,2.274,0,0,1,.253-.984q3.345-8.364,6.689-16.728c.339-.853.8-1.514,1.807-1.514s1.466.67,1.807,1.517q3.348,8.321,6.724,16.631a2.581,2.581,0,0,1,.3,1.261A1.8,1.8,0,0,1,71.12,32.8a1.754,1.754,0,0,1-1.834-1.1q-.724-1.738-1.366-3.511a.848.848,0,0,0-.964-.636c-2.053.032-4.107.028-6.16,0a.758.758,0,0,0-.847.559c-.491,1.244-1.005,2.481-1.557,3.7a1.723,1.723,0,0,1-1.96,1,1.766,1.766,0,0,1-1.353-1.777" transform="translate(-5.947 -1.275)"/>
      <path id="Path_183349" data-name="Path 183349" d="M31.74,58.139c-3.415,0-6.754,0-10.094,0A1.8,1.8,0,0,1,19.74,56.89a1.712,1.712,0,0,1,1.63-2.226c1.341-.044,2.684-.016,4.026-.018,1.265,0,1.26,0,1.273-1.231a4.392,4.392,0,0,1,.093-.975,1.719,1.719,0,0,1,1.673-1.318,1.768,1.768,0,0,1,1.679,1.32,3.859,3.859,0,0,1,.076,1.388c-.051.616.108.863.793.834,1.367-.06,2.738-.023,4.107-.016a1.815,1.815,0,0,1,2.037,1.49A1.744,1.744,0,0,1,35.667,58.1c-.366.1-.408.306-.459.56a15.308,15.308,0,0,1-3.837,7.49c-.305.33-.363.5.06.794.925.634,1.863,1.243,2.841,1.792a1.78,1.78,0,1,1-1.73,3.054,23.9,23.9,0,0,1-3.549-2.356.715.715,0,0,0-1.1-.009,21.7,21.7,0,0,1-3.688,2.44,1.748,1.748,0,1,1-1.707-3.039q1.416-.83,2.766-1.759c.449-.308.609-.5.141-.948a9.541,9.541,0,0,1-1.078-1.342,1.769,1.769,0,1,1,2.809-2.1c.312.381.645.746.939,1.14.282.378.47.3.752-.023a12.873,12.873,0,0,0,2.918-5.651" transform="translate(-2.124 -5.52)"/>
      <path id="Path_183350" data-name="Path 183350" d="M62.313,24.824c.746-1.874,1.476-3.707,2.292-5.757l2.3,5.757Z" transform="translate(-6.729 -2.059)" fill="#81baf2"/>
    </g>
  </g>
</svg>
