<svg xmlns="http://www.w3.org/2000/svg" xmlns:xlink="http://www.w3.org/1999/xlink" width="390" height="361.411" viewBox="0 0 390 361.411">
  <defs>
    <clipPath id="clip-path">
      <path id="Path_184389" data-name="Path 184389" d="M390,0H0V340H390Z" fill="#e1e8ff"/>
    </clipPath>
    <clipPath id="clip-path-2">
      <rect id="Rectangle_45343" data-name="Rectangle 45343" width="447.085" height="333.215" fill="none"/>
    </clipPath>
    <clipPath id="clip-path-3">
      <path id="Path_184371" data-name="Path 184371" d="M89.165,37.391c16.074,8.268,28.258-11.327,28.258-11.327a24.666,24.666,0,0,0-9.356-2c-13.261,0-18.9,13.326-18.9,13.326" transform="translate(-89.165 -24.065)" fill="none"/>
    </clipPath>
  </defs>
  <g id="_20" data-name="20" transform="translate(-879.054 -6202.069)">
    <g id="Group_175159" data-name="Group 175159" transform="translate(879.054 6202.069)">
      <path id="Path_184344" data-name="Path 184344" d="M390,0H0V340H390Z" transform="translate(0 0)" fill="#e1e8ff"/>
      <g id="Mask_Group_304" data-name="Mask Group 304" clip-path="url(#clip-path)">
        <path id="Path_184390" data-name="Path 184390" d="M18-31.551s-94.387,45.8,11.57,104.914,144.378-31.23,232.24,77.773S360.535,306.674,416.72,275.58,534.565,163.539,490.943,73.362,482.454-89.907,301.21-73.762,48.958-37.737,37.149-45.507,18-31.551,18-31.551Z" transform="translate(-128 16)" fill="#c4d1ff"/>
        <g id="Group_175166" data-name="Group 175166" transform="translate(-57.085 9.239)">
          <g id="Group_175161" data-name="Group 175161">
            <g id="Group_175160" data-name="Group 175160" clip-path="url(#clip-path-2)">
              <path id="Path_184345" data-name="Path 184345" d="M105.655,42.913a51.609,51.609,0,0,1-27.5,35.666A111.591,111.591,0,0,0,130.364,84.9c4.17-.5,19.778-6.019,20.823-10.084s-3.723-6.357-4.235-10.525-9.22-8.828-7.852-12.8a5.143,5.143,0,0,0-4.405-6.5c-10.007-.477-20.016-.953-29.039-2.081" transform="translate(72.853 40.003)" fill="#5774cd"/>
              <path id="Path_184346" data-name="Path 184346" d="M191.242,63.99s-25.007,5.294-45.126,18.92C114.076,104.6,108.6,117.852,108.6,117.852s5.256-36.37,21.071-53.255c28.156-30.063,71.364-30.05,61.575-.607" transform="translate(101.233 39.132)" fill="#fc5f65"/>
              <path id="Path_184347" data-name="Path 184347" d="M105.978,55.925l18.5,33.193L154.426,72.31l-16.1-32.629Z" transform="translate(98.792 36.99)" fill="#ffa992"/>
              <path id="Path_184348" data-name="Path 184348" d="M142,47.129h0l-3.675-7.449L105.977,55.924l10.268,18.418Z" transform="translate(98.792 36.99)"/>
              <path id="Path_184349" data-name="Path 184349" d="M130.473,3.861c25.271,0,43.776,20.9,45.758,46.5,1,12.948-20.618,43.919-45.758,46.5-34.836,3.58-44.207-17.718-44.207-43.4,0-35.013,18.936-49.605,44.207-49.605" transform="translate(80.417 3.599)" fill="#ffa992"/>
              <path id="Path_184350" data-name="Path 184350" d="M75.934,143.382s-23.9-6.131-46.164,1.781c-16.8,5.97-20.775,16-21.714,20.566a2.71,2.71,0,0,0,1.78,3.1,4.819,4.819,0,0,0,5.294-1.519,38.689,38.689,0,0,1,7.9-7.114c7.414-5.153,23.024,4.193,36.142,5.5,20.918,2.077,31.46-7.306,31.46-7.306Z" transform="translate(7.458 131.549)" fill="#ffa992"/>
              <path id="Path_184351" data-name="Path 184351" d="M73.342,141.634s-24.858-4.4-47.124,3.517C10.549,150.72,6.038,159.82,4.739,164.724A3.654,3.654,0,0,0,7.1,169.1a3.58,3.58,0,0,0,4-1.2,37.624,37.624,0,0,1,8.38-7.713c7.416-5.153,23.2-6.5,23.2-6.5l26.465-.128Z" transform="translate(4.306 130.896)" fill="#ffa992"/>
              <path id="Path_184352" data-name="Path 184352" d="M80.526,147.629S54.688,136.1,28.737,140.972C8.449,144.78,2.017,157.442.175,162.789a3.218,3.218,0,0,0,1.242,3.71,4.93,4.93,0,0,0,6.208-.556,44.151,44.151,0,0,1,10.264-7.282c9.24-4.854,26.624-2.835,26.624-2.835l28.649,6.108Z" transform="translate(0 130.295)" fill="#ffa992"/>
              <path id="Path_184353" data-name="Path 184353" d="M94.954,156.167c-3.758-13.037-39.314-22.783-65.264-17.91-20.356,3.82-26.763,16.553-28.581,21.869a3.15,3.15,0,0,0,1.215,3.627,5,5,0,0,0,6.293-.566,44.252,44.252,0,0,1,10.225-7.242c9.238-4.854,26.622-2.835,26.622-2.835l46.123,12.057s4.516-5.01,3.366-9" transform="translate(0.876 127.694)" fill="#ffa992"/>
              <path id="Path_184354" data-name="Path 184354" d="M.613,153.112A3.778,3.778,0,0,1,.8,152.26a.668.668,0,0,1,1.264.431,2.488,2.488,0,0,0,.956,2.86,4.359,4.359,0,0,0,5.457-.493A45.012,45.012,0,0,1,18.853,147.7,27.49,27.49,0,0,1,26.81,145.2a.667.667,0,0,1,.232,1.314,26.2,26.2,0,0,0-7.568,2.375A43.694,43.694,0,0,0,9.4,156.016a5.7,5.7,0,0,1-7.132.64,3.834,3.834,0,0,1-1.658-3.544" transform="translate(0.554 135.344)"/>
              <path id="Path_184355" data-name="Path 184355" d="M3.769,159.66a.664.664,0,0,1,.2-.412c.328-.321.682-.68,1.065-1.068a35.658,35.658,0,0,1,9.037-7.124c1.8-.945,6.423-3.2,10.519-3.754a.671.671,0,0,1,.752.574.664.664,0,0,1-.574.75c-3.992.537-8.722,2.9-10.076,3.611a34.558,34.558,0,0,0-8.706,6.881c-.39.4-.75.761-1.086,1.088a.667.667,0,0,1-1.128-.545" transform="translate(3.51 137.309)"/>
              <path id="Path_184356" data-name="Path 184356" d="M7.523,161.668a.678.678,0,0,1,.1-.294,42.1,42.1,0,0,1,6.85-8c3.926-3.416,11.112-4.666,11.415-4.718a.667.667,0,0,1,.224,1.316c-.071.014-7.122,1.241-10.762,4.409a41.267,41.267,0,0,0-6.6,7.713.668.668,0,0,1-1.227-.427" transform="translate(7.011 138.569)"/>
              <path id="Path_184357" data-name="Path 184357" d="M13.852,150.8c.015-.278.039-.556.068-.833.659-6.272,10.117-6.857,17.718-7.327q.762-.046,1.488-.095c6.9-.454,9.157-1.354,9.178-1.362a.667.667,0,0,1,.516,1.231c-.095.041-2.411.987-9.607,1.463-.483.033-.983.064-1.492.095-6.724.415-15.933.985-16.474,6.135-.178,1.685-.106,3.03.813,4.108,1.467,1.72,5.072,2.713,11.025,3.035,12.123.657,35.133,4.786,35.363,4.829a.667.667,0,0,1-.236,1.314c-.23-.043-23.159-4.156-35.2-4.809-6.425-.35-10.227-1.463-11.966-3.5a5.758,5.758,0,0,1-1.194-4.28" transform="translate(12.897 131.564)"/>
              <path id="Path_184358" data-name="Path 184358" d="M204.1,62.69s-41.681,53.329-38.924,112.479L25.213,193.444l7.441,56.783,155.074-3.917Z" transform="translate(23.504 58.439)" fill="#fc5f65"/>
              <path id="Path_184359" data-name="Path 184359" d="M159.231,55.836s11.931-16.389,54.428,7.089,133.1,102.391,140.063,138.224-15.28,64.584-53.634,58.845c-16.717-2.5-34.02-12.872-34.02-12.872s8.581,23.629,6.436,39.229c0,0-129.523-19.31-172.793-22.346,0,0-5.559-49.42,10.662-60.1,0,0-22.342-55.23-.305-109.722Z" transform="translate(92.094 46.864)" fill="#fc5f65"/>
              <path id="Path_184360" data-name="Path 184360" d="M237.991,212.458a1.132,1.132,0,0,1-.47-.1c-31.76-14.5-109.581-61.5-110.365-61.971a1.136,1.136,0,0,1-.495-1.31l19.529-61.91a1.139,1.139,0,0,1,1.559-.69l137,63.442a1.136,1.136,0,0,1-.953,2.062l-135.828-62.9L129.094,148.9c8.177,4.927,79.415,47.712,109.368,61.388a1.134,1.134,0,0,1-.471,2.166" transform="translate(118.025 80.515)"/>
              <path id="Path_184361" data-name="Path 184361" d="M165.252,139.058a1.107,1.107,0,0,1-.427-.085c-.294-.118-29.588-11.9-50.235-7.9a1.135,1.135,0,0,1-.429-2.23c21.318-4.116,50.3,7.538,51.518,8.036a1.134,1.134,0,0,1-.427,2.183" transform="translate(105.563 119.284)"/>
              <path id="Path_184362" data-name="Path 184362" d="M89.165,37.394s8.254-19.5,28.258-11.328c0,0-12.186,19.594-28.258,11.328" transform="translate(83.119 22.433)" fill="#fff"/>
              <path id="Path_184363" data-name="Path 184363" d="M94.564,48.019a1.394,1.394,0,0,1-.363-2.74,36.816,36.816,0,0,0,13.4-7.087,1.4,1.4,0,0,1,1.865,2.079,39.1,39.1,0,0,1-14.536,7.7,1.42,1.42,0,0,1-.367.048" transform="translate(86.854 35.271)"/>
              <path id="Path_184364" data-name="Path 184364" d="M92.961,21.137a1.395,1.395,0,0,1-.632-2.639c6.923-3.507,15.162-.742,15.51-.622a1.394,1.394,0,0,1-.906,2.637c-.075-.021-7.489-2.494-13.342.473a1.4,1.4,0,0,1-.63.151" transform="translate(85.356 15.593)"/>
              <path id="Path_184365" data-name="Path 184365" d="M95.763,31.637l-16.1.423L96.045,44.208Z" transform="translate(74.259 29.492)" fill="#ffa992"/>
              <path id="Path_184366" data-name="Path 184366" d="M161.142,53.037a38.373,38.373,0,0,1-28.307-10.8,38.365,38.365,0,0,1-11.33-28.1c-13.253,7.315-24.429,18.344-37.152,30.875C86.507,20.709,109.139,0,133.537,0s47.024,20.721,49.173,45.024c1.409,15.914,9.537,31.126,21.258,40.083-20.329,11.439-37.794,32.351-53.609,46.647-3.99-19.189-1.517-48.243,10.248-63.919.091-5.153.184-10.306.535-14.8" transform="translate(78.634 0)" fill="#5774cd"/>
              <path id="Path_184367" data-name="Path 184367" d="M122.09,28.148c4.763-5.458,12.349-6.289,16.936-1.857s4.448,12.451-.317,17.91-12.347,6.289-16.936,1.855-4.448-12.449.317-17.908" transform="translate(110.392 21.853)" fill="#ffa992"/>
              <path id="Path_184368" data-name="Path 184368" d="M122.833,35.113a1.4,1.4,0,0,1-.564-2.672l11.025-4.854a1.4,1.4,0,0,1,1.123,2.556L123.393,35a1.41,1.41,0,0,1-.56.118" transform="translate(113.203 25.608)"/>
              <path id="Path_184369" data-name="Path 184369" d="M127.3,37.668a1.4,1.4,0,0,1-1.258-.788l-2.562-5.292A1.4,1.4,0,1,1,126,30.372l2.562,5.294a1.394,1.394,0,0,1-1.254,2" transform="translate(114.982 27.577)"/>
            </g>
          </g>
          <g id="Group_175163" data-name="Group 175163" transform="translate(172.284 46.498)">
            <g id="Group_175162" data-name="Group 175162" clip-path="url(#clip-path-3)">
              <path id="Path_184370" data-name="Path 184370" d="M108.252,35.055c-1.088,6.28-6.618,10.4-12.354,9.215s-9.5-7.246-8.417-13.525,6.62-10.4,12.354-9.215,9.5,7.246,8.417,13.525" transform="translate(-90.909 -26.619)"/>
            </g>
          </g>
          <g id="Group_175165" data-name="Group 175165">
            <g id="Group_175164" data-name="Group 175164" clip-path="url(#clip-path-2)">
              <path id="Path_184372" data-name="Path 184372" d="M100.27,244.5a1.134,1.134,0,0,1-1.126-1.009c-.226-2.013-5.286-48.771,10.42-60.642-2.67-7.2-20.464-59.089.014-109.728a1.134,1.134,0,1,1,2.1.852c-21.6,53.419.085,108.323.307,108.87a1.137,1.137,0,0,1-.427,1.374C96.1,194.387,101.343,242.75,101.4,243.238a1.133,1.133,0,0,1-1,1.252.944.944,0,0,1-.128.008" transform="translate(91.533 67.503)"/>
              <path id="Path_184373" data-name="Path 184373" d="M110.233,97.756a1.137,1.137,0,0,1-1.1-1.436l6.222-22.512a1.133,1.133,0,1,1,2.185.6l-5.518,19.975,78.215-41.469a1.134,1.134,0,0,1,1.067,2l-80.546,42.7a1.127,1.127,0,0,1-.529.133" transform="translate(101.7 49.203)"/>
              <path id="Path_184374" data-name="Path 184374" d="M114.721,129.989a.83.83,0,0,1-.831-.831V79.779a.831.831,0,1,1,1.662,0v49.379a.831.831,0,0,1-.831.831" transform="translate(106.168 73.595)"/>
              <path id="Path_184375" data-name="Path 184375" d="M202.6,121.041a1.134,1.134,0,0,1-.441-2.18l11.885-5a1.134,1.134,0,1,1,.879,2.091l-11.883,5a1.143,1.143,0,0,1-.441.089" transform="translate(187.808 106.055)"/>
              <path id="Path_184376" data-name="Path 184376" d="M149.258,142.742h-34.7L112.092,84.95H151.72Z" transform="translate(104.492 79.19)" fill="#ffb6c8"/>
              <rect id="Rectangle_45344" data-name="Rectangle 45344" width="45.886" height="5.563" transform="translate(213.456 158.577)" fill="#d7e5ff"/>
              <path id="Path_184377" data-name="Path 184377" d="M156.759,88.865H110.873a.829.829,0,0,1-.829-.831V82.473a.829.829,0,0,1,.829-.831h45.886a.83.83,0,0,1,.831.831v5.561a.83.83,0,0,1-.831.831M111.7,87.2h44.224V83.3H111.7Z" transform="translate(102.583 76.106)" fill="#d7e5ff"/>
              <rect id="Rectangle_45345" data-name="Rectangle 45345" width="34.447" height="5.563" transform="translate(219.175 153.017)" fill="#d7e5ff"/>
              <path id="Path_184378" data-name="Path 184378" d="M148.281,85.985H113.834a.829.829,0,0,1-.831-.829V79.593a.829.829,0,0,1,.831-.829h34.447a.829.829,0,0,1,.831.829v5.563a.829.829,0,0,1-.831.829m-33.616-1.66h32.787v-3.9H114.665Z" transform="translate(105.341 73.424)" fill="#d7e5ff"/>
              <path id="Path_184379" data-name="Path 184379" d="M149.876,115.682,150.9,91.7H112.379l1.022,23.986Z" transform="translate(104.76 85.479)" fill="#fff"/>
              <path id="Path_184380" data-name="Path 184380" d="M127.767,87.528l20.3,1.349A5.949,5.949,0,0,1,153.5,95.62a6.383,6.383,0,0,1-7.078,5.706L126.314,98.5a5.279,5.279,0,0,1-4.351-6.3,5.635,5.635,0,0,1,5.8-4.668" transform="translate(113.603 81.582)" fill="#ffa992"/>
              <path id="Path_184381" data-name="Path 184381" d="M124.881,104.715l24.1,3.037a5.879,5.879,0,0,0,6.142-3.917l.2-.535a5.6,5.6,0,0,0-4.432-7.7l-24.3-2.5a5.943,5.943,0,0,0-6.282,4.838,5.541,5.541,0,0,0,4.572,6.778" transform="translate(112.034 86.76)" fill="#ffa992"/>
              <path id="Path_184382" data-name="Path 184382" d="M122.488,103.314h0a5.127,5.127,0,0,1,5.437-3.922l16.118,1.414a5.129,5.129,0,0,1,4.678,5.012l.025,1.308a5.126,5.126,0,0,1-5.978,5.151l-16.145-2.722a5.126,5.126,0,0,1-4.135-6.241" transform="translate(114.052 92.634)" fill="#ffa992"/>
              <path id="Path_184383" data-name="Path 184383" d="M123.771,107.726h0a4.441,4.441,0,0,1,4.436-2.836l13.276,1.43a3.829,3.829,0,0,1,3.219,4.622l-.242,1.468a4.482,4.482,0,0,1-5.142,3.833l-13.037-2.9a3.993,3.993,0,0,1-2.512-5.619" transform="translate(115.037 97.758)" fill="#ffa992"/>
              <path id="Path_184384" data-name="Path 184384" d="M152.635,95.763l-.01-.023a.491.491,0,0,0-.636-.286,8.861,8.861,0,0,1-3.493.29L127.177,93c-.17-.014-3.565-.247-5.737,1.731a5.541,5.541,0,0,0-1.727,4.179c-.114,6.5,9.047,7.155,9.618,7.192l12.681,1.836c.954.137,6.173.641,7.522.678a.492.492,0,1,0,.025-.983c-1.324-.039-6.465-.535-7.406-.67l-12.7-1.839a.414.414,0,0,0-.048-.006c-.089,0-8.805-.47-8.7-6.191a4.585,4.585,0,0,1,1.407-3.466c1.861-1.695,4.941-1.482,4.972-1.48l21.289,2.744a9.736,9.736,0,0,0,3.978-.346.493.493,0,0,0,.292-.611" transform="translate(111.595 86.677)"/>
              <path id="Path_184385" data-name="Path 184385" d="M145.716,112.447a.492.492,0,0,0-.456-.34c-1.308-.037-9.083-1.217-10.374-1.468-1.208-.236-5.18-.852-5.348-.877-.073-.012-7.451-1.244-6.718-6.028a3.772,3.772,0,0,1,3.291-3.184,9.565,9.565,0,0,1,3.01-.137.493.493,0,0,0,.139-.976c-2.3-.327-6.8.122-7.414,4.148-.7,4.6,4.624,6.689,7.539,7.151.043.006,4.123.638,5.314.869,1.213.238,9.108,1.449,10.536,1.488a.494.494,0,0,0,.5-.481.47.47,0,0,0-.023-.164" transform="translate(113.525 92.613)"/>
              <path id="Path_184386" data-name="Path 184386" d="M149.743,88.992a.5.5,0,0,0-.425-.34c-.129-.012-13.017-1.171-18.267-1.592-5.534-.444-9.066,1.656-9.7,5.766-.754,4.916,4.087,6.68,4.137,6.7a.492.492,0,0,0,.328-.927c-.17-.062-4.119-1.519-3.491-5.621.549-3.584,3.619-5.337,8.643-4.933,5.244.421,18.128,1.581,18.257,1.592a.49.49,0,0,0,.535-.446.472.472,0,0,0-.021-.2" transform="translate(113.053 81.103)"/>
              <path id="Path_184387" data-name="Path 184387" d="M368.818,179.524H28.175a4.92,4.92,0,0,1-4.921-4.921V160.1a4.92,4.92,0,0,1,4.921-4.921H368.818a4.92,4.92,0,0,1,4.921,4.921V174.6a4.92,4.92,0,0,1-4.921,4.921" transform="translate(21.677 144.653)" fill="#8284d2"/>
              <path id="Path_184388" data-name="Path 184388" d="M371.807,182.389H26.09c-1.832,0-3.321-3.074-3.321-6.854V161.029c0-3.779,1.49-6.854,3.321-6.854H371.807c1.83,0,3.321,3.074,3.321,6.854v14.507c0,3.779-1.492,6.854-3.321,6.854M26.09,158.039c-.8,0-1.449,1.341-1.449,2.989v14.507c0,1.646.651,2.989,1.449,2.989H371.807c.8,0,1.447-1.343,1.447-2.989V161.029c0-1.648-.649-2.989-1.447-2.989Z" transform="translate(21.225 143.722)" fill="#5774cd"/>
            </g>
          </g>
        </g>
      </g>
      <g id="Group_174316" data-name="Group 174316" transform="translate(117.174 318.952)">
        <g id="Group_173798" data-name="Group 173798" transform="translate(0 0)">
          <rect id="Rectangle_44603" data-name="Rectangle 44603" width="158.826" height="42.458" rx="21.229" fill="#3c3fa7"/>
        </g>
      </g>
    </g>
    <path id="Path_184394" data-name="Path 184394" d="M-31.889-8.043a14.739,14.739,0,0,1,.283-2.726,22.858,22.858,0,0,1,.8-3.03,22.936,22.936,0,0,1,1.246-2.988,14.916,14.916,0,0,1,1.621-2.577,8.225,8.225,0,0,1,1.933-1.805,3.917,3.917,0,0,1,2.174-.68,2.451,2.451,0,0,1,1.289.368,4.218,4.218,0,0,1,1.076.935A4.617,4.617,0,0,1-20.73-19.3a3.569,3.569,0,0,1,.269,1.317,3.176,3.176,0,0,1-.12.75,10.006,10.006,0,0,1-.319,1q-.2.531-.453,1.069a9.649,9.649,0,0,1-.524.97,4.159,4.159,0,0,1-.531.7.725.725,0,0,1-.489.269,1.008,1.008,0,0,1-.581-.184,1.778,1.778,0,0,1-.46-.46,2.236,2.236,0,0,1-.3-.623,2.251,2.251,0,0,1-.106-.658,1.31,1.31,0,0,1,.12-.474q.12-.29.283-.623l.333-.68a6.211,6.211,0,0,0,.269-.623A1.135,1.135,0,0,0-23.251-18a.175.175,0,0,0-.2-.177,1.752,1.752,0,0,0-1,.347,4.941,4.941,0,0,0-.991.942A9.817,9.817,0,0,0-26.38-15.5q-.453.8-.857,1.706t-.736,1.876q-.333.97-.573,1.9t-.375,1.784A9.874,9.874,0,0,0-29.057-6.7a6.316,6.316,0,0,0,.149,1.338,3.724,3.724,0,0,0,.517,1.253,2.839,2.839,0,0,0,.984.92,3.076,3.076,0,0,0,1.551.354A5.221,5.221,0,0,0-24.1-3.144a10.34,10.34,0,0,0,1.692-.779,12.955,12.955,0,0,0,1.522-1.02q.708-.552,1.253-1.02t.9-.779q.354-.312.453-.312a.818.818,0,0,1,.616.227,1.4,1.4,0,0,1,.326.566,2.964,2.964,0,0,1,.127.722q.021.382.021.694a1.454,1.454,0,0,1-.347.715,8.708,8.708,0,0,1-.942,1.055A13.534,13.534,0,0,1-19.888-1.89a13.619,13.619,0,0,1-1.756,1.1A11.686,11.686,0,0,1-23.6.021,6.8,6.8,0,0,1-25.644.34,5.006,5.006,0,0,1-27.6-.028a5.46,5.46,0,0,1-1.572-1,6.794,6.794,0,0,1-1.211-1.466,9.331,9.331,0,0,1-.85-1.763,10.967,10.967,0,0,1-.5-1.9A11.457,11.457,0,0,1-31.889-8.043ZM-18.422-.722a3.846,3.846,0,0,1-.1-.687q-.042-.5-.064-1.189t-.028-1.48q-.007-.793-.007-1.543t.007-1.395q.007-.644.007-1.027a8.207,8.207,0,0,1,.071-1.005,4.722,4.722,0,0,1,.255-1.062,2.673,2.673,0,0,1,.489-.843,1,1,0,0,1,.786-.347.758.758,0,0,1,.559.191,1.442,1.442,0,0,1,.3.425q.106.234.177.425t.212.191a.582.582,0,0,0,.34-.212q.2-.2.453-.432a4.265,4.265,0,0,1,.573-.439,3.526,3.526,0,0,1,.708-.347,2.49,2.49,0,0,1,.857-.142,2.605,2.605,0,0,1,1.112.234,2.708,2.708,0,0,1,.857.616,2.87,2.87,0,0,1,.552.864,2.546,2.546,0,0,1,.2.977,3.182,3.182,0,0,1-.042.524,1.432,1.432,0,0,1-.156.46.9.9,0,0,1-.319.333,1.024,1.024,0,0,1-.545.127.922.922,0,0,1-.644-.191,1.983,1.983,0,0,1-.347-.425,3.255,3.255,0,0,0-.3-.425.624.624,0,0,0-.5-.191,1.468,1.468,0,0,0-1.048.531,4.931,4.931,0,0,0-.9,1.388,9.794,9.794,0,0,0-.63,1.954,10.444,10.444,0,0,0-.241,2.244A6.728,6.728,0,0,1-15.9-1.289a3.168,3.168,0,0,1-.312.906,1.35,1.35,0,0,1-.453.51,1.04,1.04,0,0,1-.552.156,1,1,0,0,1-.453-.1,1.323,1.323,0,0,1-.347-.248,1.487,1.487,0,0,1-.248-.326A2.288,2.288,0,0,1-18.422-.722ZM-9.629-4.05q0-.5-.021-1.317t-.014-1.756q.007-.935.071-1.89a14.163,14.163,0,0,1,.212-1.728A4.183,4.183,0,0,1-8.956-12a.815.815,0,0,1,.715-.489,1.8,1.8,0,0,1,.843.163,1.041,1.041,0,0,1,.432.743,6.43,6.43,0,0,1,.092.715q.035.432.035,1.041,0,.326.014,1.1t.021,1.77q.007.991.014,2.074T-6.8-2.832q-.014.963-.057,1.671a4.835,4.835,0,0,1-.113.935.456.456,0,0,1-.227.262A1.676,1.676,0,0,1-7.54.177a1.86,1.86,0,0,1-.34.064Q-8.043.255-8.1.255a.851.851,0,0,1-.666-.333A2.7,2.7,0,0,1-9.24-1a7.507,7.507,0,0,1-.29-1.374A13.429,13.429,0,0,1-9.629-4.05Zm.283-14.061a2.723,2.723,0,0,1,.106-.772,1.845,1.845,0,0,1,.319-.63,1.43,1.43,0,0,1,.538-.418,1.79,1.79,0,0,1,.75-.149,2.082,2.082,0,0,1,.588.085,1.352,1.352,0,0,1,.517.283,1.478,1.478,0,0,1,.368.51,1.883,1.883,0,0,1,.142.779,2.165,2.165,0,0,1-.156.85,1.682,1.682,0,0,1-.425.609,1.8,1.8,0,0,1-.616.361,2.167,2.167,0,0,1-.715.12,1.446,1.446,0,0,1-.715-.156,1.237,1.237,0,0,1-.432-.389,1.426,1.426,0,0,1-.212-.524A2.92,2.92,0,0,1-9.346-18.111ZM-5.565-1.982a1.376,1.376,0,0,1,.241-.828.673.673,0,0,1,.538-.333.614.614,0,0,1,.4.163q.191.163.446.354a3.185,3.185,0,0,0,.623.354,2.279,2.279,0,0,0,.92.163q.085,0,.3-.021a1.27,1.27,0,0,0,.446-.135,1.124,1.124,0,0,0,.4-.34,1.071,1.071,0,0,0,.17-.651,1.332,1.332,0,0,0-.29-.885A3.023,3.023,0,0,0-2.1-4.765q-.446-.276-.963-.531A5.351,5.351,0,0,1-4.029-5.9a3.157,3.157,0,0,1-.75-.864,2.675,2.675,0,0,1-.333-1.289,4.067,4.067,0,0,1,.276-1.529,4.176,4.176,0,0,1,.857-1.374,4.3,4.3,0,0,1,1.395-.984,4.463,4.463,0,0,1,1.862-.375,4.56,4.56,0,0,1,.75.064,2.439,2.439,0,0,1,.694.219,1.349,1.349,0,0,1,.51.439,1.257,1.257,0,0,1,.2.736,2.748,2.748,0,0,1-.035.4A1.828,1.828,0,0,1,1.26-10a1.12,1.12,0,0,1-.269.382.624.624,0,0,1-.439.156.852.852,0,0,1-.326-.064q-.156-.064-.312-.142T-.4-9.806A.983.983,0,0,0-.765-9.87a1.533,1.533,0,0,0-.559.12,2.041,2.041,0,0,0-.559.333,1.94,1.94,0,0,0-.425.5,1.139,1.139,0,0,0-.17.595,1.075,1.075,0,0,0,.3.743,4.9,4.9,0,0,0,.758.658q.453.326.977.687a6.486,6.486,0,0,1,.977.828A4.245,4.245,0,0,1,1.3-4.326a3.24,3.24,0,0,1,.3,1.451A2.967,2.967,0,0,1,1.2-1.26,3.143,3.143,0,0,1,.184-.248,4.1,4.1,0,0,1-1.133.276a6.375,6.375,0,0,1-1.3.149A3.853,3.853,0,0,1-3.88.184a3.007,3.007,0,0,1-.97-.6A2.274,2.274,0,0,1-5.4-1.2,2.091,2.091,0,0,1-5.565-1.982ZM6.117-16.61q-.014.17-.028.276a.352.352,0,0,0,.014.177.172.172,0,0,0,.113.1.925.925,0,0,0,.269.028h.149a1.584,1.584,0,0,0,.191-.014q.481-.028.942-.05t.942-.021q.51,0,1.2.028a8.484,8.484,0,0,1,1.3.149,3.448,3.448,0,0,1,1.034.361.738.738,0,0,1,.425.666.872.872,0,0,1-.191.545,1.482,1.482,0,0,1-.6.425,4.411,4.411,0,0,1-1.069.276,10.793,10.793,0,0,1-1.579.1q-.312,0-.666.028l-.7.057q-.347.028-.68.064t-.588.05a.58.58,0,0,0-.453.234,1.136,1.136,0,0,0-.17.559q-.1,1.543-.149,3.059t-.035,2.9q.014,1.388.106,2.6a20.379,20.379,0,0,0,.262,2.131q.127.609.276,1.09a8.141,8.141,0,0,1,.219.85,1.268,1.268,0,0,1-.014.63.819.819,0,0,1-.425.446,1.231,1.231,0,0,1-.552.142,1.209,1.209,0,0,1-.7-.219A2.806,2.806,0,0,1,4.383.538,3.921,3.921,0,0,1,3.972-.05q-.163-.29-.219-.418a5.968,5.968,0,0,1-.375-1.381q-.149-.871-.234-1.947t-.12-2.266Q2.988-7.25,2.988-8.4t.028-2.181q.028-1.027.071-1.749a2.118,2.118,0,0,0,.014-.4Q3.087-12.8,2.79-12.8H2.45A1.967,1.967,0,0,1,1.3-13.1a.866.866,0,0,1-.425-.722.738.738,0,0,1,.142-.439,1.649,1.649,0,0,1,.389-.375,3.689,3.689,0,0,1,.581-.333q.333-.156.715-.312a1.208,1.208,0,0,0,.411-.262.842.842,0,0,0,.17-.517q.028-.538.085-1.14T3.5-18.38q.078-.581.191-1.1a7.8,7.8,0,0,1,.255-.927,2.219,2.219,0,0,1,.326-.637.513.513,0,0,1,.4-.234,1.53,1.53,0,0,1,.425.071,1.751,1.751,0,0,1,.467.219,1.44,1.44,0,0,1,.4.4,1.309,1.309,0,0,1,.212.588q.014.113.021.467t.007.828q0,.474-.021,1.027T6.117-16.61Zm1.7,12.56q0-.5-.021-1.317T7.781-7.123q.007-.935.071-1.89a14.163,14.163,0,0,1,.212-1.728A4.183,4.183,0,0,1,8.489-12a.815.815,0,0,1,.715-.489,1.8,1.8,0,0,1,.843.163,1.041,1.041,0,0,1,.432.743,6.43,6.43,0,0,1,.092.715q.035.432.035,1.041,0,.326.014,1.1t.021,1.77q.007.991.014,2.074t-.007,2.046q-.014.963-.057,1.671a4.835,4.835,0,0,1-.113.935.456.456,0,0,1-.227.262,1.676,1.676,0,0,1-.347.142,1.86,1.86,0,0,1-.34.064Q9.4.255,9.346.255A.851.851,0,0,1,8.68-.078,2.7,2.7,0,0,1,8.206-1a7.507,7.507,0,0,1-.29-1.374A13.429,13.429,0,0,1,7.816-4.05ZM8.1-18.111a2.723,2.723,0,0,1,.106-.772,1.845,1.845,0,0,1,.319-.63,1.43,1.43,0,0,1,.538-.418,1.79,1.79,0,0,1,.75-.149,2.082,2.082,0,0,1,.588.085,1.352,1.352,0,0,1,.517.283,1.478,1.478,0,0,1,.368.51,1.883,1.883,0,0,1,.142.779,2.165,2.165,0,0,1-.156.85,1.682,1.682,0,0,1-.425.609,1.8,1.8,0,0,1-.616.361,2.167,2.167,0,0,1-.715.12,1.446,1.446,0,0,1-.715-.156,1.237,1.237,0,0,1-.432-.389,1.426,1.426,0,0,1-.212-.524A2.92,2.92,0,0,1,8.1-18.111Zm3.979,8.666a2.287,2.287,0,0,1,.113-.644,2.956,2.956,0,0,1,.326-.715,2.2,2.2,0,0,1,.524-.581,1.127,1.127,0,0,1,.708-.241,1.117,1.117,0,0,1,.588.135.845.845,0,0,1,.333.389,1.9,1.9,0,0,1,.142.623q.028.368.028.821,0,.864.269.864.142,0,.283-.212l.595-.892a6.6,6.6,0,0,1,.793-.97,4.537,4.537,0,0,1,1.041-.786,2.743,2.743,0,0,1,1.352-.326,2.017,2.017,0,0,1,1.232.347,2.162,2.162,0,0,1,.715.991,5.249,5.249,0,0,1,.3,1.551A14.549,14.549,0,0,1,21.4-7.08q-.071.949-.085,2.421t.113,3.625a1.717,1.717,0,0,1-.021.4,1.354,1.354,0,0,1-.135.411,1.085,1.085,0,0,1-.255.326.585.585,0,0,1-.4.135,1.612,1.612,0,0,1-1.168-.4,2.534,2.534,0,0,1-.623-.963,4.383,4.383,0,0,1-.255-1.147q-.05-.588-.05-.942,0-.623.05-1.119t.1-.963q.05-.467.1-.927a9.354,9.354,0,0,0,.05-1,6.51,6.51,0,0,0-.035-.758,1.935,1.935,0,0,0-.1-.453.488.488,0,0,0-.142-.219.256.256,0,0,0-.149-.057.963.963,0,0,0-.559.326,7.3,7.3,0,0,0-.743.835q-.4.51-.807,1.126t-.75,1.182a3.28,3.28,0,0,0-.248.566q-.092.283-.12.411a4.664,4.664,0,0,0-.042.7v.913q0,.481-.021.97a4.859,4.859,0,0,1-.113.885,1.892,1.892,0,0,1-.262.644A.55.55,0,0,1,14.245.1h-.283a1.31,1.31,0,0,1-.425-.078,2.183,2.183,0,0,1-.425-.2,2.088,2.088,0,0,1-.361-.276,1.034,1.034,0,0,1-.234-.312,4.181,4.181,0,0,1-.234-.942q-.092-.6-.149-1.352t-.071-1.586q-.014-.835-.014-1.628,0-.991.014-1.834T12.079-9.445ZM32.087-1.713a3.291,3.291,0,0,1,.042.991,1.979,1.979,0,0,1-.205.694,1.038,1.038,0,0,1-.375.4.928.928,0,0,1-.481.135A.842.842,0,0,1,30.48.283a1.949,1.949,0,0,1-.418-.559A4.106,4.106,0,0,1,29.779-1q-.113-.389-.2-.722t-.149-.559q-.064-.227-.149-.227a.569.569,0,0,0-.375.205,5.446,5.446,0,0,0-.446.517q-.241.312-.531.673a5.147,5.147,0,0,1-.651.673,3.467,3.467,0,0,1-.8.517,2.244,2.244,0,0,1-.963.205,2.323,2.323,0,0,1-1.317-.4,3.544,3.544,0,0,1-1.02-1.062A5.484,5.484,0,0,1,22.522-2.7a6.857,6.857,0,0,1-.234-1.8,8.938,8.938,0,0,1,.184-1.735A11.462,11.462,0,0,1,23-8.078a10.2,10.2,0,0,1,.864-1.749,7.5,7.5,0,0,1,1.189-1.48,5.511,5.511,0,0,1,1.494-1.027,4.175,4.175,0,0,1,1.784-.382,3.218,3.218,0,0,1,1.359.262,2.782,2.782,0,0,1,.956.715,3.581,3.581,0,0,1,.623,1.062,7.289,7.289,0,0,1,.361,1.31,11.854,11.854,0,0,1,.17,1.451q.042.75.042,1.487T31.867-5q.021.708.05,1.338t.078,1.133Q32.044-2.025,32.087-1.713ZM25.106-3.951A1.959,1.959,0,0,0,25.34-2.9q.234.368.432.368a1.281,1.281,0,0,0,.765-.283,4.116,4.116,0,0,0,.75-.743,7.414,7.414,0,0,0,.687-1.034,11.247,11.247,0,0,0,.559-1.154,9.29,9.29,0,0,0,.382-1.1,3.4,3.4,0,0,0,.142-.871q0-.014-.007-.156t-.035-.347q-.028-.205-.085-.446a1.867,1.867,0,0,0-.17-.453,1.088,1.088,0,0,0-.283-.347.641.641,0,0,0-.411-.135,1.145,1.145,0,0,0-.729.3,3.58,3.58,0,0,0-.687.786,8.245,8.245,0,0,0-.609,1.1,11.062,11.062,0,0,0-.489,1.239,11.176,11.176,0,0,0-.326,1.218A5.157,5.157,0,0,0,25.106-3.951Z" transform="translate(1079 6553)" fill="#ffd947"/>
  </g>
</svg>
