<svg xmlns="http://www.w3.org/2000/svg" xmlns:xlink="http://www.w3.org/1999/xlink" width="228" height="340" viewBox="0 0 228 340">
  <defs>
    <clipPath id="clip-path">
      <rect id="Rectangle_45221" data-name="Rectangle 45221" width="228" height="340" transform="translate(1105 925.602)" fill="#fff" stroke="#707070" stroke-width="1"/>
    </clipPath>
    <clipPath id="clip-path-2">
      <rect id="Rectangle_45352" data-name="Rectangle 45352" width="138.063" height="334.718" fill="none"/>
    </clipPath>
    <clipPath id="clip-path-4">
      <rect id="Rectangle_45350" data-name="Rectangle 45350" width="8.939" height="10.28" fill="none"/>
    </clipPath>
  </defs>
  <g id="_24" data-name="24" transform="translate(-1105 -925.602)" clip-path="url(#clip-path)">
    <g id="Group_174842" data-name="Group 174842" transform="translate(1105 926)">
      <g id="Group_174829" data-name="Group 174829" transform="translate(0 168.08)">
        <rect id="Rectangle_45216" data-name="Rectangle 45216" width="172.683" height="171.135" transform="translate(69.693)" fill="#6b8dfc"/>
        <path id="Rectangle_45217" data-name="Rectangle 45217" d="M98.344,0H242.376a0,0,0,0,1,0,0V98.344a0,0,0,0,1,0,0H0a0,0,0,0,1,0,0v0A98.344,98.344,0,0,1,98.344,0Z" transform="translate(0 72.79)" fill="#3c3fa7"/>
      </g>
      <g id="Group_175174" data-name="Group 175174" transform="translate(50 4.497)">
        <g id="Group_175173" data-name="Group 175173" clip-path="url(#clip-path-2)">
          <rect id="Rectangle_45347" data-name="Rectangle 45347" width="14.172" height="29.37" transform="translate(76.173 291.921)" fill="#fe3a01"/>
          <path id="Path_184395" data-name="Path 184395" d="M39.145,266.24H24.973l-4.96,30.709H34.184Z" transform="translate(1.811 24.097)" fill="#fe3a01"/>
          <path id="Path_184396" data-name="Path 184396" d="M31.013,137.89,9.916,290.8h36.9L62.506,159.261l5.225.253L67.8,290.8h32.721l1.3-150.528Z" transform="translate(0.897 12.48)"/>
          <g id="Group_175172" data-name="Group 175172">
            <g id="Group_175171" data-name="Group 175171" clip-path="url(#clip-path-2)">
              <path id="Path_184397" data-name="Path 184397" d="M95.266,156.307c-4.331,0-7.773-1.359-10.227-4.038-4.842-5.289-4.156-13.766-4.125-14.123l.75.065c-.008.085-.687,8.51,3.932,13.552,2.305,2.517,5.558,3.792,9.67,3.792Z" transform="translate(7.319 12.503)" fill="#fff"/>
              <path id="Path_184398" data-name="Path 184398" d="M27.621,153.874v-.752c4.112,0,7.365-1.276,9.671-3.794,4.623-5.048,3.937-13.465,3.93-13.55l.749-.065c.032.358.718,8.834-4.125,14.123-2.454,2.679-5.894,4.038-10.225,4.038" transform="translate(2.5 12.283)" fill="#fff"/>
              <path id="Path_184399" data-name="Path 184399" d="M81.953,48.909s22.973,3.191,31.915,12.133c11.918,11.917,24.59,48.577,24.185,57.472s-9.995,19.953-29.143,7.852l-1.794,25.178-78.537-3.535-.546-25.474s8.358,5.947-1.322,11.106S-4.737,130.831.926,111.115C4.5,98.67,9.671,72.334,17.11,64.033S53,49.491,53,49.491Z" transform="translate(0 4.427)" fill="#fea419"/>
              <path id="Path_184400" data-name="Path 184400" d="M70.083,40.734c11.531-.023,17.077,7.649,17.822,11.574,1.989,10.489-33.368,7.933-33.368,7.933S35.83,62.787,39.061,51.635c3.158-10.9,18.673-10.877,31.022-10.9" transform="translate(3.501 3.687)" fill="#fea419"/>
              <path id="Path_184401" data-name="Path 184401" d="M55.653,53.77V30.88H67.919V52.429L61.341,58.2Z" transform="translate(5.037 2.795)" fill="#ffc5b8"/>
              <path id="Path_184402" data-name="Path 184402" d="M100.074,87.191a.2.2,0,0,1-.193-.26c.052-.18,5.446-18,8.88-23.242a.2.2,0,0,1,.28-.058.2.2,0,0,1,.057.279c-3.4,5.192-8.776,22.957-8.832,23.136a.2.2,0,0,1-.192.144" transform="translate(9.039 5.756)"/>
              <path id="Path_184403" data-name="Path 184403" d="M100.094,87.463a.441.441,0,0,1-.13-.02.451.451,0,0,1-.3-.564c.055-.18,5.463-18.045,8.912-23.306a.452.452,0,0,1,.757.5c-3.391,5.176-8.748,22.893-8.8,23.072a.45.45,0,0,1-.433.322" transform="translate(9.018 5.735)"/>
              <path id="Path_184404" data-name="Path 184404" d="M23.935,75.235a.2.2,0,0,1-.181-.111l-6.86-13.746a.2.2,0,1,1,.361-.18l6.86,13.745a.2.2,0,0,1-.091.27.187.187,0,0,1-.089.022" transform="translate(1.527 5.529)"/>
              <path id="Path_184405" data-name="Path 184405" d="M23.951,75.439a.388.388,0,0,1-.349-.216L16.74,61.478a.39.39,0,0,1,.472-.544.386.386,0,0,1,.226.2L24.3,74.875a.391.391,0,0,1-.174.523.4.4,0,0,1-.173.04M17.088,61.29h-.005a.014.014,0,0,0-.005.019l6.86,13.745c.008.014.014.009.019.007a.014.014,0,0,0,.007-.019L17.1,61.3a.015.015,0,0,0-.013-.008" transform="translate(1.511 5.513)"/>
              <path id="Path_184406" data-name="Path 184406" d="M67.477,60.933l.031-.008c.148-.036,15.3-2.394,18.8-10.687l-.427-.15C84.1,54.3,79.3,56.36,75.584,58.109a32.2,32.2,0,0,1-8.159,2.4C57.3,60.364,50.4,57.948,46.389,55.947a22.951,22.951,0,0,1-6.34-4.357l-.356.272a22.824,22.824,0,0,0,6.448,4.445c4.06,2.033,11.052,4.484,21.3,4.626Z" transform="translate(3.593 4.533)"/>
              <path id="Path_184407" data-name="Path 184407" d="M67.5,61.136a.147.147,0,0,0,.032-.005l.032-.007.06-.011a45.142,45.142,0,0,0,8.565-2.423c5.409-2.159,8.877-4.973,10.31-8.363a.188.188,0,0,0-.111-.251l-.429-.15a.187.187,0,0,0-.234.1c-1.658,3.924-6.062,5.984-9.6,7.639l-.607.285a30.816,30.816,0,0,1-7.767,2.322c-.162.027-.27.046-.333.06-10.08-.148-16.945-2.551-20.931-4.542A22.86,22.86,0,0,1,40.2,51.48a.189.189,0,0,0-.254-.024l-.356.273a.188.188,0,0,0-.026.275,23.013,23.013,0,0,0,6.5,4.487c4.079,2.04,11.1,4.5,21.386,4.646H67.5M86.075,50.364c-1.439,3.213-4.81,5.9-10.023,7.977a44.791,44.791,0,0,1-8.49,2.4l-.084.015-.007,0h-.009c-10.217-.142-17.18-2.582-21.222-4.605A23.9,23.9,0,0,1,39.989,51.9l.056-.043a24.345,24.345,0,0,0,6.276,4.274c4.024,2.01,10.954,4.435,21.117,4.581a.188.188,0,0,0,.049-.005c.043-.011.169-.033.33-.06a31.207,31.207,0,0,0,7.863-2.352l.606-.285c3.549-1.66,7.954-3.721,9.718-7.671Z" transform="translate(3.577 4.518)"/>
              <path id="Path_184408" data-name="Path 184408" d="M61.04,58.148l-.158-.374L74.03,46.748l.159.374Z" transform="translate(5.51 4.231)"/>
              <path id="Path_184409" data-name="Path 184409" d="M61.051,58.357a.1.1,0,0,1-.034-.007.15.15,0,0,1-.084-.088l-.158-.374a.241.241,0,0,1,.048-.265L73.971,46.6a.107.107,0,0,1,.1-.022.155.155,0,0,1,.084.089l.158.374a.241.241,0,0,1-.047.264L61.121,58.33a.113.113,0,0,1-.071.027m.031-.5.017.041L74.011,47.071l-.017-.043Z" transform="translate(5.499 4.215)"/>
              <path id="Path_184410" data-name="Path 184410" d="M63.527,60.146,49.156,48.2l.4-.5L63.923,59.649Z" transform="translate(4.449 4.317)"/>
              <path id="Path_184411" data-name="Path 184411" d="M63.55,60.454a.278.278,0,0,1-.176-.063L49,48.442a.286.286,0,0,1-.1-.192.289.289,0,0,1,.061-.209l.395-.5a.274.274,0,0,1,.391-.041L64.121,59.451a.286.286,0,0,1,.1.192.289.289,0,0,1-.061.209l-.4.5a.276.276,0,0,1-.216.1M49.571,48.18l13.939,11.59.045-.056-13.94-11.59Z" transform="translate(4.426 4.294)"/>
              <path id="Path_184412" data-name="Path 184412" d="M77.065,24.574a4.866,4.866,0,1,0,9.695-.456,4.866,4.866,0,1,0-9.695.456" transform="translate(6.974 1.731)" fill="#ffc5b8"/>
              <path id="Path_184413" data-name="Path 184413" d="M81.839,24.794a.211.211,0,0,0,.207-.17,4.313,4.313,0,0,1,2.644-3.2.211.211,0,0,0-.132-.4,4.681,4.681,0,0,0-2.927,3.516.21.21,0,0,0,.167.248.169.169,0,0,0,.04,0" transform="translate(7.388 1.902)"/>
              <path id="Path_184414" data-name="Path 184414" d="M83.856,26.332a.209.209,0,0,0,.117-.035.211.211,0,0,0,.059-.292L82.27,23.34a.211.211,0,1,0-.351.233l1.76,2.664a.211.211,0,0,0,.177.095" transform="translate(7.411 2.104)"/>
              <path id="Path_184415" data-name="Path 184415" d="M55.653,43.961V39.009H67.919v6.756a29.2,29.2,0,0,1-12.266-1.8" transform="translate(5.037 3.531)"/>
              <path id="Path_184416" data-name="Path 184416" d="M43.187,24.583c0,12.209,9.465,22.107,21.138,22.107s21.138-9.9,21.138-22.107S76,2.476,64.325,2.476s-21.138,9.9-21.138,22.107" transform="translate(3.909 0.224)" fill="#ffc5b8"/>
              <path id="Path_184417" data-name="Path 184417" d="M61.146,28.038s-5.186-11.277-13.3-2.659c0,0,4.558,12.11,13.3,2.659" transform="translate(4.331 2.003)" fill="#fff"/>
              <path id="Path_184418" data-name="Path 184418" d="M67.771,28.086S73.085,16.869,81.1,25.579c0,0-4.695,12.058-13.326,2.507" transform="translate(6.134 2.015)" fill="#fff"/>
              <path id="Path_184419" data-name="Path 184419" d="M66.466,32.727a.213.213,0,0,0,.112-.033.21.21,0,0,0,.065-.291l-2.188-3.451a.211.211,0,0,0-.171-.1.2.2,0,0,0-.178.086l-2.315,3.18a.211.211,0,0,0,.341.249l2.133-2.929,2.021,3.19a.212.212,0,0,0,.179.1" transform="translate(5.589 2.611)"/>
              <path id="Path_184420" data-name="Path 184420" d="M66.473,32.808a.284.284,0,0,1-.242-.133L64.269,29.58,62.2,32.419a.287.287,0,1,1-.463-.338L64.053,28.9a.268.268,0,0,1,.248-.118.282.282,0,0,1,.227.133l2.188,3.451a.287.287,0,0,1-.088.4.293.293,0,0,1-.154.044m-2.2-3.438h0a.08.08,0,0,1,.062.035l2.021,3.19a.139.139,0,0,0,.188.041.136.136,0,0,0,.041-.186L64.4,29a.137.137,0,0,0-.11-.063.129.129,0,0,0-.113.056L61.86,32.17a.137.137,0,0,0-.024.1.134.134,0,0,0,.053.088.137.137,0,0,0,.19-.029L64.212,29.4a.076.076,0,0,1,.061-.032" transform="translate(5.583 2.605)"/>
              <path id="Path_184421" data-name="Path 184421" d="M60.319,20.218a.633.633,0,0,0,.345-1.165,11.162,11.162,0,0,0-9.551-.551.633.633,0,0,0,.436,1.189,9.9,9.9,0,0,1,8.43.427.629.629,0,0,0,.34.1" transform="translate(4.589 1.603)"/>
              <path id="Path_184422" data-name="Path 184422" d="M77.874,20.74a.633.633,0,0,0,.293-1.2A11.057,11.057,0,0,0,70.152,18.5a.633.633,0,0,0,.387,1.206,9.977,9.977,0,0,1,7.043.96.629.629,0,0,0,.292.072" transform="translate(6.31 1.645)"/>
              <path id="Path_184423" data-name="Path 184423" d="M49.8,28.956a5.78,5.78,0,0,1-.363-2.4A5.609,5.609,0,0,1,51.3,22.672c3.361-1.48,5.995.368,7.664,2.287a5.8,5.8,0,0,1,.287,2.192,5.648,5.648,0,0,1-1.591,3.636c-3.566,1.969-6.2.2-7.856-1.83" transform="translate(4.474 2.003)"/>
              <path id="Path_184424" data-name="Path 184424" d="M69.7,26.738a5.784,5.784,0,0,1,.666-2.37c1.839-1.725,4.5-3.034,7.686-1.209a5.6,5.6,0,0,1,1.458,4.172,5.877,5.877,0,0,1-.161,1.058c-1.576,2.152-4.272,4.5-7.905,2.8A5.554,5.554,0,0,1,69.7,26.738" transform="translate(6.308 2.016)"/>
              <path id="Path_184425" data-name="Path 184425" d="M64.325,2.476c11.675,0,21.138,9.9,21.138,22.107,0,.292-.011.581-.021.871-.08-.205-.231-6.121-4.058-8.754l-8.7-1.08L70.593,11.23l-.486,4.214-6.349-.2-1.177-3.311L61,15.245a79.449,79.449,0,0,0-8.762.7l-.6-1.847s-7.829,4.172-8.457,10.487c0-12.209,9.465-22.107,21.138-22.107" transform="translate(3.909 0.224)" fill="#fd521b"/>
              <path id="Path_184426" data-name="Path 184426" d="M74.178,0a3.49,3.49,0,0,1,.15,1c0,2.224-2.095,4.026-4.679,4.026a4.752,4.752,0,0,1-4.141-2.071,10.685,10.685,0,0,0,1.989.1c3.067,0,5.673-1.273,6.68-3.055" transform="translate(5.929)" fill="#fd521b"/>
              <path id="Path_184427" data-name="Path 184427" d="M56.9,35.276s8.4-1.388,12.01,1.918c0,0-5.573,3.306-12.01-1.918" transform="translate(5.15 3.167)"/>
              <path id="Path_184428" data-name="Path 184428" d="M65.957,35.62a7.433,7.433,0,0,1,2.822,1.528s-4.69,2.778-10.433-.795c.037-.021,2.193-1.215,7.611-.733" transform="translate(5.281 3.214)" fill="#fe3a01"/>
              <path id="Path_184429" data-name="Path 184429" d="M48.917,24.478a5.418,5.418,0,0,1-5,5.84,5.5,5.5,0,0,1-5.581-5.351,5.418,5.418,0,0,1,5-5.84,5.494,5.494,0,0,1,5.581,5.351" transform="translate(3.469 1.731)" fill="#ffc5b8"/>
              <path id="Path_184430" data-name="Path 184430" d="M43.064,25.638a.238.238,0,0,0,.039,0,.226.226,0,0,0,.184-.262c-.473-2.735-3.32-3.817-3.441-3.861a.226.226,0,0,0-.157.424c.027.01,2.724,1.039,3.152,3.515a.226.226,0,0,0,.222.188" transform="translate(3.579 1.946)"/>
              <path id="Path_184431" data-name="Path 184431" d="M40.855,27.106a.227.227,0,0,0,.205-.13l1.448-3.049a.226.226,0,0,0-.409-.194l-1.448,3.05a.226.226,0,0,0,.107.3.237.237,0,0,0,.1.022" transform="translate(3.677 2.136)"/>
              <path id="Path_184432" data-name="Path 184432" d="M101.823,123.319S80.929,110.084,85.479,96.035l-4.523-4.112,10.268-8.369,4.052,2.353a15.113,15.113,0,0,1,12.743,1.742c6.21,4.145,14.455,17.6,14.455,17.6Z" transform="translate(7.327 7.562)" fill="#fea419"/>
              <path id="Path_184433" data-name="Path 184433" d="M68.721,278.495l15.589.354,1.772,10.275,5.12,6.715s7.977,1.24,9.141,6.377.2,7.294.2,7.294H64.725a105.16,105.16,0,0,1,2.214-16.932c.99-5.363,1.782-14.084,1.782-14.084" transform="translate(5.858 25.206)" fill="#5774cd"/>
              <path id="Path_184434" data-name="Path 184434" d="M39.776,278.495l-18.065.354-2.052,10.275-5.933,6.715s-9.244,1.24-10.592,6.377-.228,7.294-.228,7.294H40.557c-.32-7.4-.869-11.207-1.064-16.345-.207-5.481.284-14.672.284-14.672" transform="translate(0.223 25.206)" fill="#5774cd"/>
              <path id="Path_184435" data-name="Path 184435" d="M40.314,302.943H2.616a.261.261,0,1,1,0-.522h37.7a.261.261,0,1,1,0,.522" transform="translate(0.213 27.372)"/>
              <path id="Path_184436" data-name="Path 184436" d="M100.912,302.943H65.026a.261.261,0,1,1,0-.522h35.886a.261.261,0,1,1,0,.522" transform="translate(5.862 27.372)"/>
              <path id="Path_184437" data-name="Path 184437" d="M68.714,304.838,73.5,278.6H69.954Z" transform="translate(6.219 25.216)"/>
              <path id="Path_184438" data-name="Path 184438" d="M34.5,278.6l-1.063,26.237-3.191-26.216Z" transform="translate(2.737 25.216)"/>
              <path id="Path_184439" data-name="Path 184439" d="M82.869,294.95a.261.261,0,0,1-.085-.508,15.379,15.379,0,0,1,5.28-.5c1.694.061,3.057.246,3.07.249a.261.261,0,1,1-.071.518c-.053-.008-5.347-.719-8.109.232a.258.258,0,0,1-.085.014" transform="translate(7.477 26.602)"/>
              <path id="Path_184440" data-name="Path 184440" d="M22.945,294.937H22.92a78,78,0,0,0-11.728-.244.261.261,0,1,1-.039-.521,78.4,78.4,0,0,1,11.817.245.261.261,0,0,1-.024.521" transform="translate(0.987 26.615)"/>
              <path id="Path_184441" data-name="Path 184441" d="M26.11,130.5s37.37-12.529,37.625-30.748l7.121-5.281L61.912,83.555l-5.837,3.01s-3.123-1.42-13.579.267c-10.51,1.7-35.84,18.784-35.84,18.784Z" transform="translate(0.602 7.562)" fill="#fea419"/>
              <path id="Path_184442" data-name="Path 184442" d="M101.5,123.658a.318.318,0,0,1-.157-.043A38.766,38.766,0,0,1,93,116.666a23.414,23.414,0,0,1-4.784-7.8,15.3,15.3,0,0,1-.174-9.794l-3.53-6.352a.315.315,0,0,1,.015-.329L90.646,83.4a.314.314,0,0,1,.417-.094l6.413,3.724a7.161,7.161,0,0,1,2.724-1.345,9.683,9.683,0,0,1,7.674,1.725c6.179,4.125,16.4,16.9,16.836,17.443a.313.313,0,1,1-.489.39c-.106-.132-10.6-13.241-16.7-17.312-2.485-1.659-4.888-2.214-7.137-1.648a6.332,6.332,0,0,0-2.656,1.355.315.315,0,0,1-.376.046L91,84,85.159,92.58l3.5,6.3a.31.31,0,0,1,.024.249,14.7,14.7,0,0,0,.125,9.519,22.776,22.776,0,0,0,4.653,7.588,38.091,38.091,0,0,0,8.2,6.836.314.314,0,0,1-.158.585" transform="translate(7.646 7.536)"/>
              <rect id="Rectangle_45348" data-name="Rectangle 45348" width="36.692" height="0.752" transform="translate(12.337 291.858)" fill="#fff"/>
              <path id="Path_184443" data-name="Path 184443" d="M26.136,130.844a.314.314,0,0,1-.1-.611,117.008,117.008,0,0,0,18.667-8.52,56.855,56.855,0,0,0,12.845-9.659c3.856-4.073,5.841-8.2,5.9-12.277a.309.309,0,0,1,.128-.246l6.856-5.086L61.856,83.976,56.245,86.87a.317.317,0,0,1-.274.007c-1.072-.473-5.255-1.023-13.4.292C32.249,88.835,7.111,105.731,6.858,105.9a.313.313,0,0,1-.351-.519c.064-.043,6.429-4.328,14-8.766,10.181-5.971,17.572-9.358,21.969-10.068,9.33-1.506,12.873-.559,13.611-.3L61.794,83.3a.313.313,0,0,1,.386.08L71.123,94.3a.313.313,0,0,1-.056.45l-7,5.19c-.107,4.186-2.148,8.407-6.069,12.546a57.5,57.5,0,0,1-12.992,9.772,117.6,117.6,0,0,1-18.774,8.567.315.315,0,0,1-.1.016" transform="translate(0.576 7.536)"/>
              <rect id="Rectangle_45349" data-name="Rectangle 45349" width="33.096" height="0.752" transform="translate(68.693 289.961)" fill="#fff"/>
              <path id="Path_184444" data-name="Path 184444" d="M78.8,102.163l-14.957-.125A3.552,3.552,0,0,1,60.4,97.4l8.551-27.483c.474-1.522,1.442-3.077,3.015-3.077H85.422c3.022,0,5.646,2.475,4.912,4.834l-8.1,27.93a3.613,3.613,0,0,1-3.439,2.558" transform="translate(5.451 6.05)"/>
              <path id="Path_184445" data-name="Path 184445" d="M78.3,101.989H64.383a3.54,3.54,0,0,1-3.2-4.648l8.851-26.767a3.387,3.387,0,0,1,3.2-2.5H87.151a3.54,3.54,0,0,1,3.2,4.648L82.238,99.6c-.441,1.486-2.472,2.393-3.937,2.393" transform="translate(5.523 6.162)" fill="#fe3a01"/>
              <g id="Group_175170" data-name="Group 175170" transform="translate(75.712 76.397)" style="mix-blend-mode: overlay;isolation: isolate">
                <g id="Group_175169" data-name="Group 175169">
                  <g id="Group_175168" data-name="Group 175168" clip-path="url(#clip-path-4)">
                    <path id="Path_184446" data-name="Path 184446" d="M74.666,80.336H70.447a1.073,1.073,0,0,1-.971-1.409l2.684-8.114a1.025,1.025,0,0,1,.969-.757h4.22a1.073,1.073,0,0,1,.969,1.409l-2.46,8.146a1.291,1.291,0,0,1-1.193.725" transform="translate(-69.428 -70.056)"/>
                  </g>
                </g>
              </g>
              <path id="Path_184447" data-name="Path 184447" d="M74.149,76.527H71.843a.587.587,0,0,1-.531-.77l1.467-4.434a.562.562,0,0,1,.53-.414h2.305a.588.588,0,0,1,.531.771L74.8,76.131a.708.708,0,0,1-.652.4" transform="translate(6.452 6.418)"/>
              <path id="Path_184448" data-name="Path 184448" d="M85.218,76.39l8.121,1.651c1.35.275,2.083,1.817,1.627,3.425a2.925,2.925,0,0,1-3.358,2.312l-7.915-2.332a2.351,2.351,0,0,1-1.228-3.166,2.587,2.587,0,0,1,2.752-1.891" transform="translate(7.448 6.911)" fill="#ffc5b8"/>
              <path id="Path_184449" data-name="Path 184449" d="M81.692,86.218,91.21,88.85a2.582,2.582,0,0,0,2.826-1.522l.126-.241c.839-1.6.279-3.47-1.142-3.822l-9.644-2.391a2.706,2.706,0,0,0-2.961,1.948c-.554,1.5.028,3.052,1.277,3.4" transform="translate(7.259 7.315)" fill="#ffc5b8"/>
              <path id="Path_184450" data-name="Path 184450" d="M81.1,87.8h0a2.308,2.308,0,0,1,2.54-1.561l6.419,1.472a2.159,2.159,0,0,1,1.47,2.578l-.1.613a2.374,2.374,0,0,1-2.865,2.108l-6.316-2.085A2.3,2.3,0,0,1,81.1,87.8" transform="translate(7.322 7.802)" fill="#ffc5b8"/>
              <path id="Path_184451" data-name="Path 184451" d="M81.207,91.958h0a1.95,1.95,0,0,1,2.041-1.1l5.264,1.336a1.7,1.7,0,0,1,.912,2.323l-.224.675a2.02,2.02,0,0,1-2.412,1.533L81.747,94.71a1.892,1.892,0,0,1-.54-2.752" transform="translate(7.319 8.219)" fill="#ffc5b8"/>
              <path id="Path_184452" data-name="Path 184452" d="M84.228,80.958a1.986,1.986,0,0,0,2.414-1.364,1.9,1.9,0,0,0-1.309-2.388A1.987,1.987,0,0,0,82.92,78.57a1.9,1.9,0,0,0,1.309,2.388" transform="translate(7.498 6.982)" fill="#ffd4de"/>
              <path id="Path_184453" data-name="Path 184453" d="M82.373,85.432a1.985,1.985,0,0,0,2.414-1.363,1.9,1.9,0,0,0-1.309-2.388,1.985,1.985,0,0,0-2.414,1.363,1.9,1.9,0,0,0,1.309,2.388" transform="translate(7.33 7.387)" fill="#ffd4de"/>
              <path id="Path_184454" data-name="Path 184454" d="M82.694,90.028a1.676,1.676,0,0,0,2.085-1.055,1.605,1.605,0,0,0-1.2-1.957A1.677,1.677,0,0,0,81.5,88.071a1.605,1.605,0,0,0,1.2,1.957" transform="translate(7.371 7.87)" fill="#ffd4de"/>
              <path id="Path_184455" data-name="Path 184455" d="M82.214,94.13a1.3,1.3,0,0,0,1.568-.923,1.248,1.248,0,0,0-.83-1.582,1.3,1.3,0,0,0-1.568.923,1.248,1.248,0,0,0,.83,1.582" transform="translate(7.361 8.289)" fill="#ffd4de"/>
              <path id="Path_184456" data-name="Path 184456" d="M83.052,81.29a.28.28,0,0,1,.168-.533l8.412,2.356a3.113,3.113,0,0,0,1.388.04.28.28,0,0,1,.159.537,3.632,3.632,0,0,1-1.7-.039L83.068,81.3l-.016-.005" transform="translate(7.5 7.308)"/>
              <path id="Path_184457" data-name="Path 184457" d="M82.948,86.591a.28.28,0,0,1,.172-.532l5,1.5c.368.109,2.4.6,2.932.68a.28.28,0,0,1-.086.553c-.562-.087-2.62-.582-3.007-.7l-5-1.5-.012,0" transform="translate(7.491 7.788)"/>
              <path id="Path_184458" data-name="Path 184458" d="M82.87,91.218a.28.28,0,0,1,.176-.531c.065.021,1.627.509,2.1.68.5.181,3.539,1.121,4.062,1.2a.28.28,0,1,1-.086.553c-.579-.091-3.691-1.058-4.168-1.23-.459-.168-2.059-.667-2.075-.672l-.009,0" transform="translate(7.483 8.207)"/>
              <path id="Path_184459" data-name="Path 184459" d="M71.788,78.382,61.644,76.491a3.137,3.137,0,0,0-3.658,2.433,2.965,2.965,0,0,0,2.622,3.5l10.267,1.188A2.755,2.755,0,0,0,73.94,81.25a2.611,2.611,0,0,0-2.152-2.868" transform="translate(5.243 6.918)" fill="#ffc5b8"/>
              <path id="Path_184460" data-name="Path 184460" d="M70.825,88.787,58.57,87.2a2.771,2.771,0,0,1-2.43-2.563l-.017-.272a2.878,2.878,0,0,1,3.312-3l12.273,1.855a2.765,2.765,0,0,1,2.361,3,2.887,2.887,0,0,1-3.243,2.555" transform="translate(5.079 7.362)" fill="#ffc5b8"/>
              <path id="Path_184461" data-name="Path 184461" d="M70.29,90.42h0a2.394,2.394,0,0,0-2.082-2.479L60.1,86.6a2.735,2.735,0,0,0-3.034,1.728l-.205.6a2.379,2.379,0,0,0,2.166,3.112l8.311.744a2.667,2.667,0,0,0,2.95-2.362" transform="translate(5.135 7.835)" fill="#ffc5b8"/>
              <path id="Path_184462" data-name="Path 184462" d="M67.751,94.105h0A2.091,2.091,0,0,0,66,92.25l-6.714-.984A2,2,0,0,0,57.023,93l-.1.706a2.1,2.1,0,0,0,1.952,2.4l6.815.278a2.022,2.022,0,0,0,2.062-2.276" transform="translate(5.15 8.259)" fill="#ffc5b8"/>
              <path id="Path_184463" data-name="Path 184463" d="M69.563,82.769a2.1,2.1,0,0,1-2.043-2.248A2.366,2.366,0,0,1,70.269,78.9a2.1,2.1,0,0,1,2.043,2.248,2.368,2.368,0,0,1-2.749,1.624" transform="translate(6.109 7.139)" fill="#ffd4de"/>
              <path id="Path_184464" data-name="Path 184464" d="M69.332,87.609a2.1,2.1,0,0,1-2.043-2.248,2.367,2.367,0,0,1,2.749-1.624,2.1,2.1,0,0,1,2.043,2.248,2.367,2.367,0,0,1-2.749,1.624" transform="translate(6.088 7.577)" fill="#ffd4de"/>
              <path id="Path_184465" data-name="Path 184465" d="M66.488,91.64c-1.166-.152-1.985-.971-1.828-1.829a2.035,2.035,0,0,1,2.395-1.278c1.166.152,1.985.971,1.829,1.828a2.038,2.038,0,0,1-2.4,1.279" transform="translate(5.851 8.011)" fill="#ffd4de"/>
              <path id="Path_184466" data-name="Path 184466" d="M64.783,95.551a1.365,1.365,0,0,1-1.308-1.493,1.544,1.544,0,0,1,1.779-1.092,1.365,1.365,0,0,1,1.308,1.493,1.542,1.542,0,0,1-1.779,1.092" transform="translate(5.743 8.413)" fill="#ffd4de"/>
              <path id="Path_184467" data-name="Path 184467" d="M71.378,83.655a.345.345,0,0,0,.381-.234c.031-.153-.1-.3-.292-.321L60.619,81.728a4.507,4.507,0,0,1-1.607-.543.417.417,0,0,0-.5.027.241.241,0,0,0,.033.394,5.212,5.212,0,0,0,1.965.675l10.843,1.372.022,0" transform="translate(5.288 7.342)"/>
              <path id="Path_184468" data-name="Path 184468" d="M68.516,88.462a.343.343,0,0,0,.382-.24c.027-.153-.107-.294-.3-.315l-6.5-.725c-.479-.053-3.059-.459-3.709-.605a.37.37,0,0,0-.434.193.278.278,0,0,0,.242.346c.689.155,3.3.564,3.8.621l6.5.725h.015" transform="translate(5.245 7.835)"/>
              <path id="Path_184469" data-name="Path 184469" d="M66,92.661a.343.343,0,0,0,.383-.243c.025-.153-.111-.293-.3-.313-.086-.009-2.125-.217-2.756-.258-.664-.044-4.632-.459-5.274-.6a.372.372,0,0,0-.434.193.277.277,0,0,0,.242.346c.71.16,4.773.58,5.408.623.613.039,2.7.254,2.724.256H66" transform="translate(5.213 8.257)"/>
              <path id="Path_184470" data-name="Path 184470" d="M56.742,97.56a.314.314,0,0,1-.288-.189L51.711,86.466a.314.314,0,1,1,.575-.251L57.03,97.122a.314.314,0,0,1-.162.412.323.323,0,0,1-.125.026" transform="translate(4.678 7.786)"/>
              <path id="Path_184471" data-name="Path 184471" d="M88.375,99.031c-.1,0-.194,0-.292,0a.313.313,0,0,1-.308-.32.317.317,0,0,1,.32-.306c2.925.058,5.174-.781,6.682-2.491,2.892-3.278,2.137-8.713,2.13-8.768a.314.314,0,0,1,.62-.091c.034.234.8,5.779-2.279,9.273a8.713,8.713,0,0,1-6.872,2.706" transform="translate(7.944 7.855)"/>
              <path id="Path_184472" data-name="Path 184472" d="M121.537,98.783h-4.383a.314.314,0,0,1,0-.627h4.383a.314.314,0,0,1,0,.627" transform="translate(10.575 8.884)"/>
              <path id="Path_184473" data-name="Path 184473" d="M65.431,70.067h-.014a.314.314,0,0,1-.3-.327l.541-12.266a.314.314,0,0,1,.627.027l-.542,12.266a.314.314,0,0,1-.313.3" transform="translate(5.894 5.175)"/>
              <path id="Path_184474" data-name="Path 184474" d="M121.576,62.93H99.5l-7.557,5.43,1.081-5.43a5.054,5.054,0,0,1-5.053-5.055V49.512a5.054,5.054,0,0,1,5.053-5.055h28.55a5.054,5.054,0,0,1,5.055,5.055v8.364a5.054,5.054,0,0,1-5.055,5.055" transform="translate(7.962 4.024)" fill="#fff"/>
              <path id="Path_184475" data-name="Path 184475" d="M91.972,68.7a.306.306,0,0,1-.169-.05.311.311,0,0,1-.137-.324l1.008-5.069A5.375,5.375,0,0,1,87.685,57.9V49.537a5.374,5.374,0,0,1,5.367-5.367H121.6a5.374,5.374,0,0,1,5.367,5.367V57.9A5.374,5.374,0,0,1,121.6,63.27H99.629l-7.474,5.371a.313.313,0,0,1-.183.059m1.081-23.9a4.746,4.746,0,0,0-4.74,4.74V57.9a4.746,4.746,0,0,0,4.74,4.74.314.314,0,0,1,.308.375l-.926,4.65L99.346,62.7a.316.316,0,0,1,.183-.059H121.6a4.746,4.746,0,0,0,4.74-4.74V49.537a4.746,4.746,0,0,0-4.74-4.74Z" transform="translate(7.936 3.998)"/>
              <path id="Path_184476" data-name="Path 184476" d="M101.391,53.155a2.744,2.744,0,1,1-2.745-2.745,2.745,2.745,0,0,1,2.745,2.745" transform="translate(8.68 4.563)" fill="#000300"/>
              <path id="Path_184477" data-name="Path 184477" d="M109.076,53.155a2.744,2.744,0,1,1-2.745-2.745,2.745,2.745,0,0,1,2.745,2.745" transform="translate(9.376 4.563)" fill="#000300"/>
              <path id="Path_184478" data-name="Path 184478" d="M115.949,53.155A2.744,2.744,0,1,1,113.2,50.41a2.745,2.745,0,0,1,2.745,2.745" transform="translate(9.998 4.563)" fill="#000300"/>
            </g>
          </g>
        </g>
      </g>
    </g>
  </g>
</svg>
