<svg xmlns="http://www.w3.org/2000/svg" xmlns:xlink="http://www.w3.org/1999/xlink" width="228" height="340" viewBox="0 0 228 340">
  <defs>
    <clipPath id="clip-path">
      <rect id="Rectangle_45229" data-name="Rectangle 45229" width="228" height="340" transform="translate(1105 925.602)" fill="#fff" stroke="#707070" stroke-width="1"/>
    </clipPath>
    <clipPath id="clip-path-2">
      <rect id="Rectangle_45357" data-name="Rectangle 45357" width="236.51" height="340.366" fill="none"/>
    </clipPath>
    <clipPath id="clip-path-3">
      <path id="Path_184567" data-name="Path 184567" d="M120.639,31.985s6.717,6.455,14.223-4.493a10.062,10.062,0,0,0-5.735-2.047c-2.674,0-5.842,1.4-8.488,6.54" fill="none"/>
    </clipPath>
    <clipPath id="clip-path-5">
      <path id="Path_184573" data-name="Path 184573" d="M119.965,44.978c-.254,1.973,7.665-.466,7.274-4.635-.036-.387-.305-.555-.72-.555-1.788,0-6.285,3.112-6.554,5.19" fill="none"/>
    </clipPath>
  </defs>
  <g id="_25" data-name="25" transform="translate(-1105 -925.602)" clip-path="url(#clip-path)">
    <g id="Group_174858" data-name="Group 174858" transform="translate(1105 926)">
      <g id="Group_174845" data-name="Group 174845" transform="translate(0 168.08)">
        <rect id="Rectangle_45224" data-name="Rectangle 45224" width="172.683" height="171.135" transform="translate(69.693)" fill="#6b8dfc"/>
        <path id="Rectangle_45225" data-name="Rectangle 45225" d="M98.344,0H242.376a0,0,0,0,1,0,0V98.344a0,0,0,0,1,0,0H0a0,0,0,0,1,0,0v0A98.344,98.344,0,0,1,98.344,0Z" transform="translate(0 72.79)" fill="#3c3fa7"/>
      </g>
      <g id="Group_175197" data-name="Group 175197" transform="translate(-9 -1.151)">
        <g id="Group_175188" data-name="Group 175188">
          <g id="Group_175187" data-name="Group 175187" clip-path="url(#clip-path-2)">
            <path id="Path_184520" data-name="Path 184520" d="M216.941,338.944a.983.983,0,0,1-.986-.788l-19.61-113.642c-1.1-6.367-6.082-10.988-11.85-10.988H141.444a.939.939,0,1,1,0-1.874h43.051c6.755,0,12.569,5.284,13.825,12.564l19.609,113.642a.945.945,0,0,1-.827,1.074,1.112,1.112,0,0,1-.161.012" fill="#fd521b"/>
            <path id="Path_184521" data-name="Path 184521" d="M177.836,213.524H87.6c-11.821,0-21.439-6.223-21.439-13.872V99.615c0-14.527,12.617-26.345,28.126-26.345h76.876c15.485,0,28.1,11.8,28.125,26.305l.153,93.678a19.482,19.482,0,0,1-6.317,14.332,22.222,22.222,0,0,1-15.292,5.939M94.291,75.143c-14.406,0-26.126,10.978-26.126,24.472V199.652c0,6.617,8.72,12,19.439,12h90.232a20.165,20.165,0,0,0,13.877-5.39,17.677,17.677,0,0,0,5.732-13.005l-.153-93.678c-.021-13.474-11.741-24.435-26.125-24.435Z" fill="#fd521b"/>
            <path id="Path_184522" data-name="Path 184522" d="M51.122,339.152a1.04,1.04,0,0,1-.166-.013.945.945,0,0,1-.821-1.078L70.752,222.375c1.272-6.223,7.084-10.723,13.824-10.723h69.24a.939.939,0,1,1,0,1.873H84.576a11.907,11.907,0,0,0-11.855,9.181L52.107,338.37a.983.983,0,0,1-.985.782" fill="#fd521b"/>
            <path id="Path_184523" data-name="Path 184523" d="M73.864,339.152a1.04,1.04,0,0,1-.166-.013.944.944,0,0,1-.821-1.078L93.494,222.375c1.272-6.223,7.084-10.723,13.824-10.723h43.051a.939.939,0,1,1,0,1.873H107.318a11.909,11.909,0,0,0-11.856,9.181L74.849,338.37a.983.983,0,0,1-.985.782" fill="#fd521b"/>
            <path id="Path_184524" data-name="Path 184524" d="M111.009,40.277c-3.058,1.185-9.42,6.656-7.9,11.113A11.015,11.015,0,0,0,114.063,58.6c-6.857.036-12.971,6.585-12.537,13.427S108.854,84.6,115.66,83.766l14.693-1.795a19.429,19.429,0,0,0,16.4-16.131,19.43,19.43,0,0,0-11.378-19.991c-5.328-2.238-17.647-8.176-24.365-5.572" fill="#ffc849"/>
            <path id="Path_184525" data-name="Path 184525" d="M146.678,69.814s-23.612.88-36.657,4.658C88.88,80.6,88.172,97.069,82.076,117.915c-5.869,20.068-10.514,38.176,8.119,38.176,7.059,0,20.5-39.728,20.5-39.728l-1.8,40.362,74.733-1.449-.464-11.711s13.1,18.031,35.133,15.654C234.247,157.5,242.538,140.8,231.4,122s-37.395-54.773-48.584-55.657c-17.289-1.365-36.14,3.473-36.14,3.473" fill="#ed8274"/>
            <path id="Path_184526" data-name="Path 184526" d="M102.35,151.233l-1.78-10.38a3.08,3.08,0,0,0-3.762-2.434,3.3,3.3,0,0,0-2.56,3.949l2.53,10.2a2.733,2.733,0,0,0,3.479,1.9,2.917,2.917,0,0,0,2.093-3.238"/>
            <path id="Path_184527" data-name="Path 184527" d="M91.075,154.723l-2.853-12.246a3.044,3.044,0,0,1,1.687-3.372l.266-.13a2.9,2.9,0,0,1,4.2,1.87l2.588,12.377a3.076,3.076,0,0,1-2.155,3.492,2.868,2.868,0,0,1-3.734-1.991"/>
            <path id="Path_184528" data-name="Path 184528" d="M88.792,155.156h0a2.654,2.654,0,0,0,1.728-3.009l-1.59-8.223a2.654,2.654,0,0,0-2.831-2.14l-.674.057a2.654,2.654,0,0,0-2.333,3.354l2.266,8.166a2.653,2.653,0,0,0,3.434,1.8"/>
            <path id="Path_184529" data-name="Path 184529" d="M83.761,154.5h0a2.3,2.3,0,0,0,1.223-2.436L83.537,145.3a1.981,1.981,0,0,0-2.551-1.41l-.743.2a2.32,2.32,0,0,0-1.7,2.852l2.19,6.556a2.066,2.066,0,0,0,3.027.993"/>
            <path id="Path_184530" data-name="Path 184530" d="M94.264,140.177l.014,0a.255.255,0,0,1,.179.313,4.591,4.591,0,0,0,.039,1.814l2.555,10.829a4.369,4.369,0,0,1-.585,3.046,2.866,2.866,0,0,1-2.059,1.113c-3.34.406-4.168-4.274-4.216-4.567L88.567,146.3c-.122-.484-.661-3.144-.752-3.836a.255.255,0,1,1,.506-.066c.089.68.621,3.3.74,3.777l1.627,6.442,0,.024c.007.046.712,4.508,3.653,4.15a2.371,2.371,0,0,0,1.709-.909,3.9,3.9,0,0,0,.5-2.639L94,142.427a5.036,5.036,0,0,1-.035-2.067.255.255,0,0,1,.3-.183"/>
            <path id="Path_184531" data-name="Path 184531" d="M82.886,143.956a.256.256,0,0,1,.2.216c.088.672,1.112,4.612,1.311,5.263.186.609.715,2.621.737,2.706.01.037,1.039,3.77,3.463,3.136a1.949,1.949,0,0,0,1.463-1.863,4.943,4.943,0,0,0-.09-1.558.255.255,0,0,1,.495-.123c.291,1.163.3,3.505-1.739,4.038-2.332.609-3.692-2.022-4.085-3.5,0-.022-.549-2.089-.732-2.689s-1.233-4.612-1.329-5.344a.255.255,0,0,1,.22-.286.248.248,0,0,1,.086,0"/>
            <path id="Path_184532" data-name="Path 184532" d="M100.7,140.255a.255.255,0,0,1,.2.2c.013.066,1.3,6.639,1.8,9.319.525,2.825-.368,4.756-2.45,5.3a3.265,3.265,0,0,1-3.67-1.771.255.255,0,0,1,.461-.219,2.711,2.711,0,0,0,3.08,1.5c1.816-.474,2.554-2.148,2.077-4.713-.5-2.677-1.783-9.248-1.8-9.315a.255.255,0,0,1,.2-.3.25.25,0,0,1,.1,0"/>
            <path id="Path_184533" data-name="Path 184533" d="M102.866,152.106l-1.78-10.38a3.08,3.08,0,0,0-3.762-2.434,3.3,3.3,0,0,0-2.56,3.949l2.53,10.2a2.733,2.733,0,0,0,3.479,1.9,2.917,2.917,0,0,0,2.093-3.238" fill="#ed8274"/>
            <path id="Path_184534" data-name="Path 184534" d="M91.591,155.6,88.738,143.35a3.044,3.044,0,0,1,1.687-3.372l.266-.13a2.9,2.9,0,0,1,4.2,1.87l2.588,12.376a3.077,3.077,0,0,1-2.155,3.493,2.868,2.868,0,0,1-3.734-1.991" fill="#ed8274"/>
            <path id="Path_184535" data-name="Path 184535" d="M89.308,156.029h0a2.654,2.654,0,0,0,1.728-3.009l-1.59-8.223a2.654,2.654,0,0,0-2.831-2.14l-.674.057a2.654,2.654,0,0,0-2.333,3.354l2.266,8.166a2.653,2.653,0,0,0,3.434,1.8" fill="#ed8274"/>
            <path id="Path_184536" data-name="Path 184536" d="M84.277,155.371h0a2.3,2.3,0,0,0,1.223-2.436l-1.447-6.758a1.981,1.981,0,0,0-2.551-1.41l-.743.2a2.32,2.32,0,0,0-1.7,2.852l2.19,6.556a2.066,2.066,0,0,0,3.027.993" fill="#ed8274"/>
            <path id="Path_184537" data-name="Path 184537" d="M94.78,141.05l.014,0a.255.255,0,0,1,.179.313,4.591,4.591,0,0,0,.039,1.814l2.555,10.829a4.369,4.369,0,0,1-.585,3.046,2.866,2.866,0,0,1-2.059,1.113c-3.34.406-4.168-4.274-4.216-4.567l-1.624-6.431c-.122-.484-.661-3.144-.752-3.836a.255.255,0,1,1,.506-.066c.089.68.621,3.3.74,3.777l1.627,6.442,0,.024c.007.046.712,4.508,3.653,4.15a2.367,2.367,0,0,0,1.709-.909,3.9,3.9,0,0,0,.5-2.639L94.516,143.3a5.036,5.036,0,0,1-.035-2.067.255.255,0,0,1,.3-.183"/>
            <path id="Path_184538" data-name="Path 184538" d="M83.4,144.829a.256.256,0,0,1,.2.216c.088.672,1.112,4.612,1.311,5.263.186.609.715,2.621.737,2.707.01.036,1.039,3.769,3.463,3.135a1.949,1.949,0,0,0,1.463-1.863,4.943,4.943,0,0,0-.09-1.558.255.255,0,0,1,.5-.123c.291,1.163.3,3.5-1.739,4.038-2.332.609-3.692-2.022-4.085-3.5,0-.022-.549-2.089-.732-2.689s-1.233-4.612-1.329-5.344a.255.255,0,0,1,.22-.286.248.248,0,0,1,.086,0"/>
            <path id="Path_184539" data-name="Path 184539" d="M101.213,141.128a.255.255,0,0,1,.2.2c.013.066,1.3,6.639,1.8,9.319.525,2.825-.368,4.756-2.45,5.3a3.265,3.265,0,0,1-3.67-1.771.255.255,0,0,1,.461-.219,2.711,2.711,0,0,0,3.08,1.5c1.816-.474,2.554-2.148,2.077-4.713-.5-2.677-1.783-9.248-1.8-9.315a.255.255,0,0,1,.2-.3.25.25,0,0,1,.1,0"/>
            <path id="Path_184540" data-name="Path 184540" d="M76.048,295.6,70.4,323.943l-22.827-2.558,6.754-34.3Z" fill="#ed8274"/>
            <path id="Path_184541" data-name="Path 184541" d="M51.954,299.117l21.75,8.24L76.048,295.6l-21.725-8.517Z"/>
            <path id="Path_184542" data-name="Path 184542" d="M163.277,289.331l13,31.124-22.893,5.414-13.409-31.89Z" fill="#ed8274"/>
            <path id="Path_184543" data-name="Path 184543" d="M144.674,305.165l23.173-4.889-4.57-10.945-23.306,4.648Z"/>
            <path id="Path_184544" data-name="Path 184544" d="M176.134,316.761l.139,23.264-52.06-.518-.087-8.343c-.048-4.639,2.9-8.744,6.929-9.659l18.61-4.221s11.128,4.88,17.223,4.184a14.41,14.41,0,0,0,9.246-4.707" fill="#fd521b"/>
            <path id="Path_184545" data-name="Path 184545" d="M137.189,335.559a.38.38,0,0,1-.378-.346l-1.332-14.623a.381.381,0,0,1,.344-.413.385.385,0,0,1,.413.345l1.332,14.623a.38.38,0,0,1-.344.412l-.035,0"/>
            <path id="Path_184546" data-name="Path 184546" d="M47.927,316.712l-7.189,23.654,37.812-.526.055-8.483c.031-4.717-1.844-8.892-4.41-9.821l-2.6-3.6a17.482,17.482,0,0,0-20.21,3.56Z" fill="#fd521b"/>
            <path id="Path_184547" data-name="Path 184547" d="M103.723,233.991,88.651,307.146l-50.208-9.128S46.451,186.258,63.5,170.946c13.721-12.323,56.2-5.42,56.2-5.42Z" fill="#ffb6c8"/>
            <path id="Path_184548" data-name="Path 184548" d="M183.548,152.72s16.629,44.587-9.884,55.682c-16.128,6.749-35.419,2.735-35.419,2.735l33.466,85.149-49.165,10.86S83.873,210.7,79.85,197.789c-6.081-19.514,7.848-37.243,36.331-35.739Z" fill="#ffb6c8"/>
            <path id="Path_184549" data-name="Path 184549" d="M133.619,52.235l4.7,18.371,19.027-3.5-6.342-24.386Z" fill="#ed8274"/>
            <path id="Path_184550" data-name="Path 184550" d="M152.136,47.067l-1.13-4.345-17.387,9.513,2.008,7.845c8.064-2.351,13.871-9.266,16.509-13.013"/>
            <path id="Path_184551" data-name="Path 184551" d="M177.946,65.07c-2.1-.036-5.834.03-7.892.125l.888,18.374-22.464,18.217-27.463-13.3-.591-17.252c-2.948.464-5.8,1.01-8.369,1.65-.374,8.3-1.388,30.431-2.205,44.853.536-1.515.843-2.42.843-2.42l-1.8,40.362,74.8.166-.528-13.327s.09.122.247.323Z" fill="#5774cd"/>
            <path id="Path_184552" data-name="Path 184552" d="M182.952,143.268,153.7,119.281s-7.907,5.977-14.062,7.144c-4.409.835-7.229,3.6-8.851,4.731-.6.417-2.068-.306-2.6-.8a1.553,1.553,0,0,1-.159-2.121c1.9-2.348,6.256-7.588,8.113-8.531,2.408-1.223,3.894-13.66,10.109-14.732,13.818-2.384,53.227,16.555,60.155,21.648Z" fill="#ed8274"/>
            <path id="Path_184553" data-name="Path 184553" d="M118.115,137.043a.906.906,0,0,1-.821-1.288l15.426-33.192a.906.906,0,0,1,1.642.765l-15.425,33.191a.907.907,0,0,1-.822.524" fill="#d7e5ff"/>
            <path id="Path_184554" data-name="Path 184554" d="M122,138.847a.906.906,0,0,1-.821-1.288l2.209-4.752c1.007-2.167.453-4.569-1.234-5.353s-3.881.339-4.889,2.508l-2.209,4.752a.905.905,0,1,1-1.642-.762l2.208-4.753c1.43-3.074,4.7-4.59,7.295-3.388s3.541,4.687,2.113,7.76l-2.208,4.752a.907.907,0,0,1-.822.524" fill="#d7e5ff"/>
            <path id="Path_184555" data-name="Path 184555" d="M126.695,129.446h0a2.084,2.084,0,0,1-.97-2.5c.823-2.464,2.786-7.014,6.646-9.549,5.475-3.6,8.955-1.97,8.955-1.97L129.241,129a2.076,2.076,0,0,1-2.546.442" fill="#ed8274"/>
            <path id="Path_184556" data-name="Path 184556" d="M135.5,10.728s-17.131-.082-18.968,15.9,1.374,31.009,17.567,28.2c10.807-1.873,19.634-16.527,19.634-16.527l-2.38-12.2Z" fill="#ed8274"/>
            <path id="Path_184557" data-name="Path 184557" d="M134.862,27.492s-8.382-6.842-14.224,4.493c0,0,6.718,6.456,14.224-4.493" fill="#fff"/>
            <path id="Path_184558" data-name="Path 184558" d="M124.414,127.654h0a2.083,2.083,0,0,1-1.092-2.444c.7-2.5,2.436-7.143,6.165-9.866,5.292-3.862,8.847-2.41,8.847-2.41l-11.4,14.153a2.077,2.077,0,0,1-2.522.567" fill="#ed8274"/>
            <path id="Path_184559" data-name="Path 184559" d="M122.691,120.093h0a2.109,2.109,0,0,1-.735-1.993,10.348,10.348,0,0,1,5.16-7.022,42.488,42.488,0,0,1,22.357-6.308c7.014,0-12.668,6.942-16.924,9.194a22.16,22.16,0,0,0-6.936,5.809,2.05,2.05,0,0,1-2.922.32" fill="#ed8274"/>
            <path id="Path_184560" data-name="Path 184560" d="M119.966,44.978c.331-2.56,7.082-6.69,7.274-4.635.39,4.169-7.529,6.608-7.274,4.635"/>
            <path id="Path_184561" data-name="Path 184561" d="M117.716,33.295l-7.15-.239,6.9,5.753Z" fill="#ed8274"/>
            <path id="Path_184562" data-name="Path 184562" d="M152.727,29.627c.434,3.534-3.2,6.721-6.753,6.455s-6.49-3.3-7.388-6.749a15.112,15.112,0,0,1,1.524-10.341,25.129,25.129,0,0,1-25.91-3.943c-1.78-1.541-1.406-4.668.356-6.229a7.292,7.292,0,0,1,6.681-1.151,26.042,26.042,0,0,1,6.315,3.114,16,16,0,0,0,6.525,2.549c9.825.893,17.813,9.483,18.65,16.3" fill="#ffc849"/>
            <path id="Path_184563" data-name="Path 184563" d="M140.409,10.721a11.854,11.854,0,0,1,22.363-4.267c2.31,4.534,1.263,10.538-1.836,14.72,3.381-4.456,9.627-6.763,14.9-4.908s8.763,8.146,6.934,13.432-9.158,7.974-13.662,4.656c5.25,1.6,10.414,4.185,13.776,8.521s4.511,10.694,1.676,15.392-10.13,6.425-14.1,2.641A6.705,6.705,0,0,1,166.915,73.8a6.655,6.655,0,0,1-5.169-7.474c-.6,5.1-5.773,9.013-10.9,8.781s-9.71-4.143-11.347-9.008a17.292,17.292,0,0,1,2.266-14.7c2.814-4.293,5.791-8.348,10.329-10.643,2.377-2.872,1.537-5.61.669-9.235s-.335-7.1-3.755-8.589c-5.163-2.241-9-7.944-8.6-12.209" fill="#ffc849"/>
            <path id="Path_184564" data-name="Path 184564" d="M154.39,37.1S156.256,21.5,140.449,8.909l-12.29,1.957S149.834,25.155,154.39,37.1"/>
            <path id="Path_184565" data-name="Path 184565" d="M138,212.706a.5.5,0,0,1-.472-.335l-7.935-22.637a.5.5,0,0,1,.944-.33l7.935,22.638a.5.5,0,0,1-.307.636.473.473,0,0,1-.165.028"/>
          </g>
        </g>
        <g id="Group_175190" data-name="Group 175190">
          <g id="Group_175189" data-name="Group 175189" clip-path="url(#clip-path-3)">
            <path id="Path_184566" data-name="Path 184566" d="M117.716,29.66a5.863,5.863,0,1,0,5.863-5.863,5.863,5.863,0,0,0-5.863,5.863"/>
          </g>
        </g>
        <g id="Group_175192" data-name="Group 175192">
          <g id="Group_175191" data-name="Group 175191" clip-path="url(#clip-path-2)">
            <path id="Path_184568" data-name="Path 184568" d="M147.82,34.3c2.475-2.835,6.414-3.267,8.8-.964s2.31,6.467-.165,9.3-6.414,3.267-8.8.965-2.31-6.468.165-9.3" fill="#ed8274"/>
            <path id="Path_184569" data-name="Path 184569" d="M149.666,39.873a.725.725,0,0,1-.293-1.388l5.726-2.521a.725.725,0,0,1,.584,1.328l-5.726,2.52a.734.734,0,0,1-.291.061"/>
            <path id="Path_184570" data-name="Path 184570" d="M152.912,42.223a.723.723,0,0,1-.653-.409l-1.331-2.751a.725.725,0,0,1,1.305-.631l1.331,2.751a.724.724,0,0,1-.652,1.04"/>
            <path id="Path_184571" data-name="Path 184571" d="M121.709,24.281a.725.725,0,0,1-.282-1.393c.172-.072,4.269-1.766,8.008-.576a.725.725,0,1,1-.44,1.382c-3.219-1.026-6.969.515-7.007.53a.707.707,0,0,1-.279.057"/>
          </g>
        </g>
        <g id="Group_175194" data-name="Group 175194">
          <g id="Group_175193" data-name="Group 175193" clip-path="url(#clip-path-5)">
            <path id="Path_184572" data-name="Path 184572" d="M119.547,43.235S125.86,40.5,130.126,41.5s-6.519,6.685-6.519,6.685l-4.06-.512Z" fill="#fd521b"/>
          </g>
        </g>
        <g id="Group_175196" data-name="Group 175196">
          <g id="Group_175195" data-name="Group 175195" clip-path="url(#clip-path-2)">
            <path id="Path_184574" data-name="Path 184574" d="M146.84,104.972l-15.042,5.5.853,10.99,16.3-3.412Z" fill="#ed8274"/>
            <path id="Path_184575" data-name="Path 184575" d="M100.1,250.037a.5.5,0,0,1-.461-.308c-.163-.388-16.286-39.009-20.27-51.791-2.81-9.015-1.474-17.689,3.761-24.423,6.6-8.493,18.339-12.743,33.074-11.963a.5.5,0,0,1,.473.525.5.5,0,0,1-.526.473c-14.4-.758-25.838,3.352-32.232,11.578-5.028,6.469-6.3,14.819-3.595,23.514,3.97,12.736,20.075,51.314,20.237,51.7a.5.5,0,0,1-.268.653.508.508,0,0,1-.193.039"/>
            <path id="Path_184576" data-name="Path 184576" d="M209.922,130.433a.5.5,0,0,1-.3-.1c-4.126-3.034-17.607-10.792-31.19-16.883a.5.5,0,0,1,.409-.913c13.645,6.12,27.212,13.931,31.374,16.99a.5.5,0,0,1-.3.9"/>
            <path id="Path_184577" data-name="Path 184577" d="M128.184,130.808a.456.456,0,0,1-.307-.119,2.036,2.036,0,0,1-.219-2.719,31.177,31.177,0,0,1,8.585-7.7.453.453,0,0,1,.41.808,30.011,30.011,0,0,0-8.26,7.425,1.14,1.14,0,0,0,.1,1.523.453.453,0,0,1-.307.786"/>
            <path id="Path_184578" data-name="Path 184578" d="M125.3,127.45a.463.463,0,0,1-.215-.054.453.453,0,0,1-.183-.614c2.22-4.118,7.319-8.87,9.782-9.727a.453.453,0,0,1,.3.856c-2.294.8-7.207,5.451-9.282,9.3a.453.453,0,0,1-.4.238"/>
            <path id="Path_184579" data-name="Path 184579" d="M126.137,118.947a.447.447,0,0,1-.295-.11.453.453,0,0,1-.049-.638,19.027,19.027,0,0,1,8.35-5.418.453.453,0,1,1,.238.874,18.429,18.429,0,0,0-7.9,5.135.454.454,0,0,1-.343.157"/>
            <path id="Path_184580" data-name="Path 184580" d="M117.315,139.821c-.8.48-2.077-.189-2.864-1.493s.016-3.229.016-3.229,2.078.188,2.864,1.492.779,2.75-.016,3.23" fill="#ffb6c8"/>
            <path id="Path_184581" data-name="Path 184581" d="M119.844,139.68c0,1.291-1.716,2.338-3.833,2.338s-3.833-1.047-3.833-2.338,1.493-1.345,3.61-1.345,4.056.054,4.056,1.345" fill="#ffb6c8"/>
            <path id="Path_184582" data-name="Path 184582" d="M122.109,142.645c0,2.054-2.73,3.719-6.1,3.719s-6.1-1.665-6.1-3.719,2.924-1.984,6.292-1.984,5.9-.07,5.9,1.984" fill="#ffb6c8"/>
            <path id="Path_184583" data-name="Path 184583" d="M104.43,143.538h22.716a4.812,4.812,0,0,1,4.812,4.812v7.5H99.618v-7.5a4.811,4.811,0,0,1,4.812-4.812" fill="#ffb6c8"/>
            <path id="Path_184584" data-name="Path 184584" d="M131.958,149.639c-.917-.6-1.808-1.007-2.3-.773-1.309.619-2.46,4.929-5.87,3.854s-2.66-6.083-6.323-5.7-1.256,4.678-5.015,6.353-4.3-.628-6.6-3.682c-1.617-2.144-4.57-2-6.188-1.731-.011.13-.039.254-.039.387v7.5h32.339Z" fill="#d7e5ff"/>
            <path id="Path_184585" data-name="Path 184585" d="M131.958,148.462h-32.3a.5.5,0,0,1,0-1h32.3a.5.5,0,0,1,0,1" fill="#fff"/>
            <path id="Path_184586" data-name="Path 184586" d="M131.958,151.926h-32.3a.5.5,0,0,1,0-1h32.3a.5.5,0,0,1,0,1" fill="#fff"/>
            <path id="Path_184587" data-name="Path 184587" d="M53.428,335.773H53.4a.387.387,0,0,1-.354-.417c.038-.455.983-11.164,7.391-13.572a21.874,21.874,0,0,1,14.273-.612.386.386,0,0,1-.265.726,21.522,21.522,0,0,0-13.736.61c-5.949,2.235-6.883,12.805-6.892,12.911a.387.387,0,0,1-.385.355"/>
            <path id="Path_184588" data-name="Path 184588" d="M215.05,168.285H3a2.466,2.466,0,0,1-2.378-2.547V158.23A2.466,2.466,0,0,1,3,155.683H215.05a2.466,2.466,0,0,1,2.378,2.547v7.508a2.466,2.466,0,0,1-2.378,2.547" transform="translate(15.427)" fill="#fff"/>
            <path id="Path_184589" data-name="Path 184589" d="M215.378,169.285H2.05c-1.131,0-2.05-1.591-2.05-3.547V158.23c0-1.956.919-3.547,2.05-3.547H215.378c1.13,0,2.049,1.591,2.049,3.547v7.508c0,1.956-.919,3.547-2.049,3.547M2.05,156.683c-.493,0-.894.694-.894,1.547v7.508c0,.852.4,1.547.894,1.547H215.378c.493,0,.893-.7.893-1.547V158.23c0-.853-.4-1.547-.893-1.547Z" transform="translate(16.048)" fill="#5774cd"/>
            <rect id="Rectangle_45359" data-name="Rectangle 45359" width="3.666" height="169.067" transform="translate(33.342 168.185)" fill="#fff"/>
            <path id="Path_184590" data-name="Path 184590" d="M37.008,338.153H33.343c-.267,0-.483-.4-.483-.9V168.185c0-.5.216-.9.483-.9h3.665c.267,0,.483.4.483.9V337.252c0,.5-.216.9-.483.9m-3.183-1.8h2.7V169.084h-2.7Z" fill="#5774cd"/>
            <rect id="Rectangle_45360" data-name="Rectangle 45360" width="3.666" height="169.067" transform="translate(183.864 168.185)" fill="#fff"/>
            <path id="Path_184591" data-name="Path 184591" d="M187.53,338.153h-3.666c-.266,0-.482-.4-.482-.9V168.185c0-.5.216-.9.482-.9h3.666c.266,0,.482.4.482.9V337.252c0,.5-.216.9-.482.9m-3.183-1.8h2.7V169.084h-2.7Z" fill="#5774cd"/>
          </g>
        </g>
      </g>
    </g>
  </g>
</svg>
