<svg xmlns="http://www.w3.org/2000/svg" xmlns:xlink="http://www.w3.org/1999/xlink" width="228" height="340" viewBox="0 0 228 340">
  <defs>
    <clipPath id="clip-path">
      <rect id="Rectangle_45235" data-name="Rectangle 45235" width="228" height="340" transform="translate(1105 925.602)" fill="#fff" stroke="#707070" stroke-width="1"/>
    </clipPath>
    <clipPath id="clip-path-2">
      <rect id="Rectangle_45356" data-name="Rectangle 45356" width="170.449" height="336.135" fill="none"/>
    </clipPath>
    <clipPath id="clip-path-4">
      <rect id="Rectangle_45353" data-name="Rectangle 45353" width="4.302" height="4.893" fill="none"/>
    </clipPath>
    <clipPath id="clip-path-5">
      <rect id="Rectangle_45354" data-name="Rectangle 45354" width="3.158" height="5.07" fill="none"/>
    </clipPath>
  </defs>
  <g id="_26" data-name="26" transform="translate(-1105 -925.602)" clip-path="url(#clip-path)">
    <g id="Group_174872" data-name="Group 174872" transform="translate(1105 926)">
      <g id="Group_174859" data-name="Group 174859" transform="translate(0 168.08)">
        <rect id="Rectangle_45230" data-name="Rectangle 45230" width="172.683" height="171.135" transform="translate(69.693)" fill="#6b8dfc"/>
        <path id="Rectangle_45231" data-name="Rectangle 45231" d="M98.344,0H242.376a0,0,0,0,1,0,0V98.344a0,0,0,0,1,0,0H0a0,0,0,0,1,0,0v0A98.344,98.344,0,0,1,98.344,0Z" transform="translate(0 72.79)" fill="#3c3fa7"/>
      </g>
      <g id="Group_175175" data-name="Group 175175" transform="translate(43.894 3.081)">
        <g id="Group_175183" data-name="Group 175183" clip-path="url(#clip-path-2)">
          <g id="Group_175182" data-name="Group 175182">
            <g id="Group_175181" data-name="Group 175181" clip-path="url(#clip-path-2)">
              <path id="Path_184479" data-name="Path 184479" d="M116.776,224.527l10.384-3.74a23.833,23.833,0,0,0,12.987-33.575L79.022,71.782Z" transform="translate(27.521 25)" fill="#fff7da"/>
              <path id="Path_184480" data-name="Path 184480" d="M27.741,20.954S13.406,44.926,24.7,64.3s35.991.32,35.991.32L81.328,42.389,64.052,12l-30.073.64Z" transform="translate(7.092 4.178)" fill="#e58373"/>
              <path id="Path_184481" data-name="Path 184481" d="M43.414,92.084c-4.975-5.587-3.276-15.219,3.8-21.516s16.836-6.872,21.81-1.285S72.3,84.5,65.224,90.8s-16.835,6.872-21.81,1.285" transform="translate(14.126 22.792)" fill="#ffb6c8"/>
              <path id="Path_184482" data-name="Path 184482" d="M90.8,68.617s34.818,71.933,41.215,115.325,10.63,128.3,10.63,128.3l-104.974-.379S52.274,183.731,54.4,167.713s-11.881-79.55-5.314-88.468S90.8,68.617,90.8,68.617" transform="translate(13.119 23.898)" fill="#fcf2ca"/>
              <path id="Path_184483" data-name="Path 184483" d="M32.282,131.127,16.5,95.375l14.36-10.96,17.093,33.429Z" transform="translate(5.748 29.4)" fill="#e58373"/>
              <path id="Path_184484" data-name="Path 184484" d="M25.063,37.8s2.61-20,17.874-8.584c0,0-10.237,11.667-17.874,8.584" transform="translate(8.729 8.948)" fill="#fff"/>
              <path id="Path_184485" data-name="Path 184485" d="M24.554,34.593l-9.559-.752,8.431,9.86Z" transform="translate(5.222 11.786)" fill="#e58373"/>
              <path id="Path_184486" data-name="Path 184486" d="M33.3,39.588c-4.076,1.7-8.091,5.831-7.513,9.751s5.435.121,8.072-3.756.829-6.576-.56-5.994" transform="translate(8.961 13.76)"/>
              <path id="Path_184487" data-name="Path 184487" d="M42.347,23.693c0-7.185,5.436-13.01,12.143-13.01s12.143,5.825,12.143,13.01S61.2,36.7,54.49,36.7s-12.143-5.825-12.143-13.01" transform="translate(14.748 3.721)" fill="#ffb6c8"/>
              <path id="Path_184488" data-name="Path 184488" d="M122.275,223.457h-.024a.676.676,0,0,1-.65-.7c.024-.647,1.859-65.773-43-150.486a.674.674,0,1,1,1.191-.631c23.533,44.438,34.013,83.155,38.662,107.809,5.04,26.736,4.5,43.195,4.5,43.359a.676.676,0,0,1-.674.648" transform="translate(27.347 24.826)"/>
              <path id="Path_184489" data-name="Path 184489" d="M35.741,80.76c-6.747-7.577-6.484-18.823.586-25.12S54.6,50.382,61.346,57.959s6.485,18.822-.586,25.118S42.488,88.336,35.741,80.76" transform="translate(10.744 17.943)" fill="#ffb6c8"/>
              <path id="Path_184490" data-name="Path 184490" d="M23.045,20.711C21.393,15.406,27.691,8.726,37.113,5.794s18.4-1.011,20.05,4.294S52.517,22.071,43.1,25.005s-18.4,1.011-20.05-4.294" transform="translate(7.934 1.54)" fill="#ffb6c8"/>
              <path id="Path_184491" data-name="Path 184491" d="M45.838,16.71C42.4,12.846,43.073,6.629,47.347,2.825s10.527-3.759,13.968.1,2.765,10.081-1.509,13.887-10.527,3.759-13.968-.105" transform="translate(15.199 0)" fill="#ffb6c8"/>
              <path id="Path_184492" data-name="Path 184492" d="M53.432,31.752A16.495,16.495,0,0,1,78.068,9.814,16.495,16.495,0,0,1,53.432,31.752" transform="translate(17.184 1.53)" fill="#ffb6c8"/>
              <path id="Path_184493" data-name="Path 184493" d="M59.487,51.339c-5.516-6.194-3.866-16.666,3.685-23.39s18.144-7.154,23.66-.96S90.7,43.655,83.147,50.38,65,57.533,59.487,51.339" transform="translate(19.582 7.875)" fill="#ffb6c8"/>
              <path id="Path_184494" data-name="Path 184494" d="M43.928,80.937C36.5,72.6,38.885,58.368,49.244,49.143s24.775-9.946,32.2-1.611S86.481,70.1,76.121,79.326s-24.772,9.946-32.193,1.611" transform="translate(13.794 14.532)" fill="#ffb6c8"/>
              <path id="Path_184495" data-name="Path 184495" d="M69.506,71.99c-6.747-7.577-4.583-20.517,4.835-28.9s22.52-9.042,29.267-1.464,4.583,20.517-4.835,28.9-22.52,9.042-29.267,1.464" transform="translate(22.84 12.657)" fill="#ffb6c8"/>
              <path id="Path_184496" data-name="Path 184496" d="M69.506,71.99c-6.747-7.577-4.583-20.517,4.835-28.9s22.52-9.042,29.267-1.464,4.583,20.517-4.835,28.9-22.52,9.042-29.267,1.464" transform="translate(22.84 12.657)" fill="#ffb6c8"/>
              <path id="Path_184497" data-name="Path 184497" d="M69.276,76.795c-6.747-7.577-6.484-18.823.586-25.12s18.272-5.258,25.019,2.319,6.485,18.822-.587,25.118-18.272,5.26-25.019-2.318" transform="translate(22.423 16.563)" fill="#ffb6c8"/>
              <path id="Path_184498" data-name="Path 184498" d="M73.328,68.317h0a24.185,24.185,0,0,0-17.6,29.2l13.213,54.039L45.5,116.679l-25.77,25.5L77.2,229.038a31.756,31.756,0,0,0,57.143-25.8L102.571,85.472A24.185,24.185,0,0,0,73.328,68.317" transform="translate(6.873 23.537)" fill="#fff7da"/>
              <path id="Path_184499" data-name="Path 184499" d="M22.978,108.68,17.52,96.452a18.592,18.592,0,0,1-3.806-4.835c-1.608-2.966-7.223-15.409-7.223-15.409l22.23-8.559s5.663,18.168,5.63,22.6,4.464,12.008,4.464,12.008Z" transform="translate(2.261 23.56)" fill="#e58373"/>
              <path id="Path_184500" data-name="Path 184500" d="M25.124,94.237s8.438-9.857,9.255-16.3c.7-5.489.431-9.735.771-12.5a1.456,1.456,0,0,0-1.347-1.56,3.712,3.712,0,0,0-3.95,1.931,23.271,23.271,0,0,0-2.032,7.05c-.177,2.4-6.032,6.561-6.032,6.561Z" transform="translate(7.588 22.231)" fill="#e58373"/>
              <path id="Path_184501" data-name="Path 184501" d="M26.055,74.3,20.8,53.444a2.806,2.806,0,0,0-3.534-1.827,2.708,2.708,0,0,0-2.155,3.09l4.817,21.234Z" transform="translate(5.242 17.94)" fill="#e58373"/>
              <path id="Path_184502" data-name="Path 184502" d="M22.251,75.818l-8-21.509a3,3,0,0,0-3.829-1.672A2.688,2.688,0,0,0,8.707,56.07L16.69,78.2Z" transform="translate(2.978 18.269)" fill="#e58373"/>
              <path id="Path_184503" data-name="Path 184503" d="M17.755,76.333,10.136,57.651a2.908,2.908,0,0,0-3.755-1.285,2.5,2.5,0,0,0-1.735,3.139l7.595,19.23Z" transform="translate(1.569 19.554)" fill="#e58373"/>
              <path id="Path_184504" data-name="Path 184504" d="M13.809,76.553,4.129,64.3A2.356,2.356,0,0,0,1,64.107,1.879,1.879,0,0,0,.32,66.773l9.775,12.663Z" transform="translate(0 22.154)" fill="#e58373"/>
              <path id="Path_184505" data-name="Path 184505" d="M35.656,87.144l-19.5,17.5a1.889,1.889,0,0,0-.4,2.307l4.7,8.675a1.89,1.89,0,0,0,2.877.546l19.038-16.012a1.888,1.888,0,0,0,.529-2.172L38.663,87.824a1.89,1.89,0,0,0-3.007-.68" transform="translate(5.407 30.182)" fill="#fea41a"/>
              <path id="Path_184506" data-name="Path 184506" d="M97.159,244.149a32.319,32.319,0,0,1-27-14.568L51.137,200.836a.675.675,0,0,1,1.124-.746l19.021,28.747a31.082,31.082,0,0,0,55.93-25.249L95.438,85.82A23.512,23.512,0,0,0,49.9,97.528l13.214,54.039a.674.674,0,0,1-1.213.537L38.462,117.227a.674.674,0,1,1,1.119-.752L60.9,148.2,48.591,97.848a24.859,24.859,0,0,1,48.148-12.38l31.775,117.769a32.5,32.5,0,0,1-31.355,40.912" transform="translate(13.355 23.366)"/>
              <path id="Path_184507" data-name="Path 184507" d="M71.7,179.971a.676.676,0,0,1-.646-.475L55.761,130.239a.674.674,0,0,1,1.288-.4l15.3,49.259a.673.673,0,0,1-.643.874" transform="translate(19.41 45.054)"/>
              <path id="Path_184508" data-name="Path 184508" d="M68.582,40.037C69.7,33.818,66.4,28.052,61.217,27.159s-10.283,3.423-11.4,9.642S52,48.786,57.185,49.678s10.283-3.423,11.4-9.642" transform="translate(17.276 9.418)" fill="#e58373"/>
              <path id="Path_184509" data-name="Path 184509" d="M52.334,41.3a.665.665,0,0,1-.444-.167.673.673,0,0,1-.065-.951L59.847,31a.675.675,0,0,1,1.017.887L52.843,41.07a.677.677,0,0,1-.508.231" transform="translate(17.992 10.718)"/>
              <path id="Path_184510" data-name="Path 184510" d="M58.886,40.492a.673.673,0,0,1-.368-.109l-4.362-2.842a.674.674,0,0,1,.738-1.129l4.36,2.841a.674.674,0,0,1-.368,1.239" transform="translate(18.755 12.644)"/>
              <path id="Path_184511" data-name="Path 184511" d="M34,31.942a6.917,6.917,0,0,0-2.865-5.6c-4.964,2.78-6.071,11.224-6.071,11.224a8.772,8.772,0,0,0,6.136-.084A6.915,6.915,0,0,0,34,31.942" transform="translate(8.729 9.175)"/>
              <path id="Path_184512" data-name="Path 184512" d="M26.93,44.022a6.7,6.7,0,0,0-1.145,4.5c.578,3.919,5.435.123,8.072-3.756a7.546,7.546,0,0,0,1.267-2.924,21.379,21.379,0,0,0-8.195,2.177" transform="translate(8.961 14.574)" fill="#fd521b"/>
              <path id="Path_184513" data-name="Path 184513" d="M28.273,24.134a.663.663,0,0,1-.356-.1.672.672,0,0,1-.217-.921c.1-.173,2.678-4.178,10.24-.986a.674.674,0,1,1-.524,1.242c-6.439-2.717-8.486.324-8.571.456a.679.679,0,0,1-.572.311" transform="translate(9.613 7.277)"/>
              <g id="Group_175177" data-name="Group 175177" transform="translate(21.547 70.201)" opacity="0.5" style="mix-blend-mode: overlay;isolation: isolate">
                <g id="Group_175176" data-name="Group 175176">
                  <g id="Group_175175-2" data-name="Group 175175" clip-path="url(#clip-path-4)">
                    <path id="Path_184514" data-name="Path 184514" d="M20.248,54.29a2.184,2.184,0,0,1-1.738,2.66,2.458,2.458,0,0,1-2.5-2.213,2.184,2.184,0,0,1,1.738-2.66,2.457,2.457,0,0,1,2.5,2.213" transform="translate(-15.981 -52.067)" fill="#ffd4de"/>
                  </g>
                </g>
              </g>
              <g id="Group_175180" data-name="Group 175180" transform="translate(39.611 86.524)" opacity="0.5" style="mix-blend-mode: overlay;isolation: isolate">
                <g id="Group_175179" data-name="Group 175179">
                  <g id="Group_175178" data-name="Group 175178" clip-path="url(#clip-path-5)">
                    <path id="Path_184515" data-name="Path 184515" d="M32.346,66.95c-.1,1.393.266,2.423-.944,2.28a2.527,2.527,0,0,1-2.016-2.78,2.245,2.245,0,0,1,2.362-2.262c1.209.142.693,1.37.6,2.763" transform="translate(-29.379 -64.174)" fill="#ffd4de"/>
                  </g>
                </g>
              </g>
            </g>
          </g>
        </g>
      </g>
    </g>
    <g id="Group_175184" data-name="Group 175184" transform="translate(-201.305 -7350.533)">
      <path id="Path_184518" data-name="Path 184518" d="M.724-13.808q0-.167.017-.428T.8-14.8a5.072,5.072,0,0,1,.117-.611,3.15,3.15,0,0,1,.194-.556,1.3,1.3,0,0,1,.283-.406.552.552,0,0,1,.389-.156.766.766,0,0,1,.567.211,1.429,1.429,0,0,1,.328.533,2.932,2.932,0,0,1,.156.7,6.965,6.965,0,0,1,.039.711q0,.267-.011.7t-.006.917q.006.483.056.972a4.044,4.044,0,0,0,.183.884,1.8,1.8,0,0,0,.361.645.754.754,0,0,0,.583.25,1.257,1.257,0,0,0,.572-.15,1.989,1.989,0,0,0,.556-.433,3.273,3.273,0,0,0,.472-.678,3.236,3.236,0,0,0,.311-.884q.033-.167.067-.528t.072-.811q.039-.45.078-.939t.089-.906q.05-.417.106-.711a.624.624,0,0,1,.133-.35q.022-.022.067-.078a.786.786,0,0,1,.111-.111.813.813,0,0,1,.172-.106.732.732,0,0,1,.261-.061h.089a.77.77,0,0,1,.456.133,1.157,1.157,0,0,1,.317.339,1.472,1.472,0,0,1,.183.439,1.879,1.879,0,0,1,.056.433q0,.9-.006,1.867t-.011,1.834q-.006.867-.011,1.55T8.17-9.14a20.64,20.64,0,0,1-.217,3.245A7.154,7.154,0,0,1,7.3-3.728,2.842,2.842,0,0,1,6.191-2.522a3.187,3.187,0,0,1-1.578.372,3.571,3.571,0,0,1-1.128-.161,2.419,2.419,0,0,1-.806-.433A1.8,1.8,0,0,1,2.2-3.367a1.722,1.722,0,0,1-.161-.728.926.926,0,0,1,.183-.561.552.552,0,0,1,.461-.25.439.439,0,0,1,.372.189l.3.411a2.024,2.024,0,0,0,.406.411,1.1,1.1,0,0,0,.689.189,1.158,1.158,0,0,0,.911-.361,2.3,2.3,0,0,0,.478-1.011,8.539,8.539,0,0,0,.2-1.545Q6.08-7.518,6.1-8.6a1.274,1.274,0,0,0-.022-.239.126.126,0,0,0-.133-.117.607.607,0,0,0-.406.172q-.194.172-.456.383a3.022,3.022,0,0,1-.633.383,2.239,2.239,0,0,1-.939.172,2.22,2.22,0,0,1-1.128-.267,2.377,2.377,0,0,1-.772-.717,3.673,3.673,0,0,1-.489-1.045,8.163,8.163,0,0,1-.267-1.261,13.561,13.561,0,0,1-.111-1.356Q.724-13.174.724-13.808Zm15.126-.211a3.6,3.6,0,0,1-.178,1.145,4.12,4.12,0,0,1-.472.978,4.2,4.2,0,0,1-.672.789,5.62,5.62,0,0,1-.761.589,4.111,4.111,0,0,1-.75.383,2.1,2.1,0,0,1-.645.15.531.531,0,0,0-.389.128.391.391,0,0,0-.1.261.684.684,0,0,0,.067.289,2.156,2.156,0,0,0,.122.233,1.305,1.305,0,0,0,.461.422,1.962,1.962,0,0,0,.928.167,5.287,5.287,0,0,0,.75-.067,4.235,4.235,0,0,0,.978-.283,5.462,5.462,0,0,0,1.106-.633A5.483,5.483,0,0,0,17.416-10.6a.442.442,0,0,1,.167-.133.515.515,0,0,1,.233-.056.519.519,0,0,1,.4.25,1.654,1.654,0,0,1,.189.939,1.663,1.663,0,0,1-.222.828,2.851,2.851,0,0,1-.606.733,4.893,4.893,0,0,1-.889.617,6.729,6.729,0,0,1-1.078.472,7.84,7.84,0,0,1-1.178.3,6.886,6.886,0,0,1-1.184.106,4.664,4.664,0,0,1-1.761-.317,3.525,3.525,0,0,1-1.323-.917A4.106,4.106,0,0,1,9.337-9.24a6.207,6.207,0,0,1-.289-1.967,8.677,8.677,0,0,1,.111-1.373,8.426,8.426,0,0,1,.333-1.356,6.821,6.821,0,0,1,.556-1.239,4.549,4.549,0,0,1,.784-1.011,3.482,3.482,0,0,1,1.017-.683,3.05,3.05,0,0,1,1.245-.25,2.634,2.634,0,0,1,1.317.3,2.532,2.532,0,0,1,.845.756,3.059,3.059,0,0,1,.456,1.006A4.251,4.251,0,0,1,15.849-14.019ZM11.47-12.141q0,.044.006.122a.369.369,0,0,0,.044.15.334.334,0,0,0,.117.122.412.412,0,0,0,.222.05,1.231,1.231,0,0,0,.717-.283,3.481,3.481,0,0,0,.7-.7,4.438,4.438,0,0,0,.528-.895,2.153,2.153,0,0,0,.211-.856,1.464,1.464,0,0,0-.033-.295,1.341,1.341,0,0,0-.106-.311.7.7,0,0,0-.2-.25.516.516,0,0,0-.328-.1.942.942,0,0,0-.611.317,3.5,3.5,0,0,0-.611.8,5.694,5.694,0,0,0-.467,1.056A3.431,3.431,0,0,0,11.47-12.141ZM24.9-8.473a2.583,2.583,0,0,1,.033.778,1.553,1.553,0,0,1-.161.545.815.815,0,0,1-.295.317.728.728,0,0,1-.378.106.661.661,0,0,1-.461-.178,1.53,1.53,0,0,1-.328-.439,3.222,3.222,0,0,1-.222-.567q-.089-.306-.156-.567t-.117-.439Q22.762-9.1,22.7-9.1a.447.447,0,0,0-.295.161,4.274,4.274,0,0,0-.35.406q-.189.244-.417.528a4.04,4.04,0,0,1-.511.528,2.721,2.721,0,0,1-.628.406,1.761,1.761,0,0,1-.756.161,1.823,1.823,0,0,1-1.034-.311,2.782,2.782,0,0,1-.8-.834,4.3,4.3,0,0,1-.517-1.2,5.382,5.382,0,0,1-.183-1.411,7.015,7.015,0,0,1,.144-1.361,9,9,0,0,1,.417-1.445,8.008,8.008,0,0,1,.678-1.373A5.888,5.888,0,0,1,19.378-16a4.326,4.326,0,0,1,1.172-.806,3.277,3.277,0,0,1,1.4-.3,2.526,2.526,0,0,1,1.067.206,2.183,2.183,0,0,1,.75.561,2.81,2.81,0,0,1,.489.834,5.721,5.721,0,0,1,.283,1.028,9.3,9.3,0,0,1,.133,1.139q.033.589.033,1.167t.017,1.122q.017.556.039,1.05t.061.889Q24.862-8.718,24.9-8.473Zm-5.479-1.756a1.537,1.537,0,0,0,.183.822q.183.289.339.289a1,1,0,0,0,.6-.222,3.23,3.23,0,0,0,.589-.583,5.819,5.819,0,0,0,.539-.811,8.826,8.826,0,0,0,.439-.906,7.291,7.291,0,0,0,.3-.861,2.671,2.671,0,0,0,.111-.683q0-.011-.006-.122t-.028-.272q-.022-.161-.067-.35a1.465,1.465,0,0,0-.133-.356.854.854,0,0,0-.222-.272.5.5,0,0,0-.322-.106.9.9,0,0,0-.572.233,2.81,2.81,0,0,0-.539.617,6.471,6.471,0,0,0-.478.861,8.682,8.682,0,0,0-.383.972,8.772,8.772,0,0,0-.256.956A4.047,4.047,0,0,0,19.417-10.229ZM25.8-7.7a3.019,3.019,0,0,1-.078-.539q-.033-.395-.05-.934t-.022-1.161q-.006-.622-.006-1.211t.006-1.095q.006-.506.006-.806a6.442,6.442,0,0,1,.056-.789,3.706,3.706,0,0,1,.2-.834,2.1,2.1,0,0,1,.383-.661A.783.783,0,0,1,26.907-16a.6.6,0,0,1,.439.15,1.132,1.132,0,0,1,.233.333q.083.183.139.333t.167.15a.456.456,0,0,0,.267-.167q.156-.156.356-.339a3.348,3.348,0,0,1,.45-.345,2.768,2.768,0,0,1,.556-.272,1.954,1.954,0,0,1,.672-.111,2.045,2.045,0,0,1,.872.183,2.125,2.125,0,0,1,.672.483,2.252,2.252,0,0,1,.433.678,2,2,0,0,1,.156.767,2.5,2.5,0,0,1-.033.411,1.124,1.124,0,0,1-.122.361.7.7,0,0,1-.25.261.8.8,0,0,1-.428.1.724.724,0,0,1-.506-.15,1.556,1.556,0,0,1-.272-.333,2.554,2.554,0,0,0-.239-.333.49.49,0,0,0-.395-.15,1.152,1.152,0,0,0-.822.417,3.87,3.87,0,0,0-.706,1.089,7.686,7.686,0,0,0-.495,1.534,8.2,8.2,0,0,0-.189,1.761,5.28,5.28,0,0,1-.089,1.045,2.486,2.486,0,0,1-.244.711,1.059,1.059,0,0,1-.356.4.816.816,0,0,1-.433.122.785.785,0,0,1-.356-.078,1.038,1.038,0,0,1-.272-.194,1.167,1.167,0,0,1-.194-.256A1.8,1.8,0,0,1,25.8-7.7Zm6.9-.989a1.08,1.08,0,0,1,.189-.65.528.528,0,0,1,.422-.261.482.482,0,0,1,.317.128q.15.128.35.278a2.5,2.5,0,0,0,.489.278,1.789,1.789,0,0,0,.722.128q.067,0,.239-.017a1,1,0,0,0,.35-.106.882.882,0,0,0,.311-.267.841.841,0,0,0,.133-.511,1.046,1.046,0,0,0-.228-.695,2.372,2.372,0,0,0-.578-.489q-.35-.217-.756-.417a4.2,4.2,0,0,1-.756-.478,2.478,2.478,0,0,1-.589-.678,2.1,2.1,0,0,1-.261-1.011,3.192,3.192,0,0,1,.217-1.2,3.278,3.278,0,0,1,.672-1.078,3.376,3.376,0,0,1,1.095-.772A3.5,3.5,0,0,1,36.5-16.8a3.579,3.579,0,0,1,.589.05,1.914,1.914,0,0,1,.545.172,1.058,1.058,0,0,1,.4.345.987.987,0,0,1,.156.578,2.157,2.157,0,0,1-.028.317,1.435,1.435,0,0,1-.106.361.879.879,0,0,1-.211.3.49.49,0,0,1-.345.122.669.669,0,0,1-.256-.05q-.122-.05-.244-.111t-.25-.111a.772.772,0,0,0-.283-.05,1.2,1.2,0,0,0-.439.094,1.6,1.6,0,0,0-.439.261,1.523,1.523,0,0,0-.333.389.894.894,0,0,0-.133.467.844.844,0,0,0,.239.583,3.842,3.842,0,0,0,.595.517q.356.256.767.539a5.09,5.09,0,0,1,.767.65,3.331,3.331,0,0,1,.595.85,2.543,2.543,0,0,1,.239,1.139A2.328,2.328,0,0,1,38-8.118a2.467,2.467,0,0,1-.795.795,3.214,3.214,0,0,1-1.034.411,5,5,0,0,1-1.022.117,3.024,3.024,0,0,1-1.134-.189,2.36,2.36,0,0,1-.761-.472,1.784,1.784,0,0,1-.428-.611A1.641,1.641,0,0,1,32.7-8.684Z" transform="translate(1333.594 8350.525)"/>
      <path id="Path_184519" data-name="Path 184519" d="M2.047-15.294a1.661,1.661,0,0,1,.15-.7,2.09,2.09,0,0,1,.378-.57,1.775,1.775,0,0,1,.5-.378,1.175,1.175,0,0,1,.527-.135,3.973,3.973,0,0,0,1.425-.278,6.587,6.587,0,0,0,1.4-.741,8.591,8.591,0,0,0,1.261-1.069,9.033,9.033,0,0,0,1.033-1.261,6.6,6.6,0,0,0,.7-1.325A3.517,3.517,0,0,0,9.67-23a1.737,1.737,0,0,0-.385-1.183,2.48,2.48,0,0,0-.983-.677,5.1,5.1,0,0,0-1.318-.313,12.838,12.838,0,0,0-1.389-.078q-.527,0-.955.021t-.7.021a1.4,1.4,0,0,1-.969-.356,2.778,2.778,0,0,1-.648-.869,4.273,4.273,0,0,1-.356-1.076,5.39,5.39,0,0,1-.107-.99q0-.841-.021-1.61t-.043-1.5q-.021-.734-.043-1.446t-.021-1.425a1.8,1.8,0,0,1,.043-.392.93.93,0,0,1,.157-.349,2.085,2.085,0,0,1,.449-.164q.435-.135,1.147-.321T5.16-36.1q.919-.2,1.9-.37t1.959-.285a15.513,15.513,0,0,1,1.788-.114,2.114,2.114,0,0,1,1.582.484,2.215,2.215,0,0,1,.456,1.553.843.843,0,0,1-.242.634,1.378,1.378,0,0,1-.584.335q-.67.185-1.161.306t-.9.214q-.406.093-.769.157t-.777.121Q8-33,7.5-32.94l-1.2.15q-.342.043-.591.071a1.154,1.154,0,0,0-.42.121A.71.71,0,0,0,5-32.32a1.618,1.618,0,0,0-.164.534,7.645,7.645,0,0,0-.078.9q-.021.556-.021,1.4,0,.043.014.2a1.2,1.2,0,0,0,.085.335.84.84,0,0,0,.221.313.6.6,0,0,0,.42.135h.826q.826,0,1.61.028a9.621,9.621,0,0,1,1.482.164,5.42,5.42,0,0,1,1.275.406,2.954,2.954,0,0,1,.99.748,3.433,3.433,0,0,1,.648,1.2,5.718,5.718,0,0,1,.235,1.76,9.594,9.594,0,0,1-.321,2.436,11.293,11.293,0,0,1-.9,2.351,11.3,11.3,0,0,1-1.411,2.1,10.086,10.086,0,0,1-1.845,1.7,8.767,8.767,0,0,1-2.194,1.14,7.4,7.4,0,0,1-2.472.413,1.674,1.674,0,0,1-.641-.107,1.175,1.175,0,0,1-.42-.285.993.993,0,0,1-.228-.4A1.6,1.6,0,0,1,2.047-15.294Z" transform="translate(1318 8364)"/>
    </g>
    <g id="Group_175185" data-name="Group 175185" transform="translate(6871.215 4358.87)">
      <path id="Path_177702" data-name="Path 177702" d="M21.95,38a1.963,1.963,0,0,0,1.956-1.972,2.1,2.1,0,0,0-1.929-2.1,1.861,1.861,0,0,0-2.023,1.794,2.022,2.022,0,0,0,2,2.274m-.019-2.72a.676.676,0,0,1,.129.007.6.6,0,0,1,.475.591,1.214,1.214,0,0,1,0,.158.592.592,0,0,1-.278.488.648.648,0,0,1-.191.072.96.96,0,0,1-.156.02c-.393.019-.557-.266-.593-.6a.6.6,0,0,1,.618-.735" transform="translate(-5766.381 -3354.503)"/>
      <path id="Path_177704" data-name="Path 177704" d="M24.821,39.5a1,1,0,0,0,.156-.02.662.662,0,0,0,.191-.072.592.592,0,0,0,.278-.488,1.185,1.185,0,0,0,0-.156.6.6,0,0,0-.475-.593.673.673,0,0,0-.129-.007.6.6,0,0,0-.618.735c.036.335.2.62.593.6" transform="translate(-5769.296 -3357.39)" fill="#fff"/>
      <path id="Path_177705" data-name="Path 177705" d="M27.194,41.025a.592.592,0,0,0,.278-.488.593.593,0,0,1-.278.488" transform="translate(-5771.323 -3359.009)" fill="#fff"/>
      <path id="Path_177706" data-name="Path 177706" d="M26.785,42.071a.654.654,0,0,1-.191.072.654.654,0,0,0,.191-.072" transform="translate(-5770.914 -3360.054)" fill="#fff"/>
      <path id="Path_177708" data-name="Path 177708" d="M6.273,23.458a1.679,1.679,0,0,1,1.111,1.615A6.448,6.448,0,0,0,14,31.235c.584-.007,1.365.2,1.725-.425.393-.688-.466-.909-.738-1.355a4.854,4.854,0,0,1-.77-4.212c.4-1.059,1.812-.354,2.7-.729a1.115,1.115,0,0,1,.157-.023c1.226-.3,1.668.024,1.8,1.435.558,5.967,3.708,9.985,9.572,10.9,1.147.18,2.316.223,2.943.28a27.993,27.993,0,0,0,9.54-1.686,8.331,8.331,0,0,0,3.037-1.964c2.484-2.485,3.2-5.7,3.1-8.945-.129-4.429-1.349-8.56-5.889-10.611a2.717,2.717,0,0,1-1.9-2.464,6.939,6.939,0,0,0-7.373-5.825c-.554.056-1.076.165-1.316.694-.224.493.242.742.53,1.031a4.279,4.279,0,0,1,1.017,3.836c-.177,1.4-1.326,1.379-2.289,1.386-.877.006-1.383-.408-1.45-1.525-.32-5.346-2.958-8.81-7.5-10.054A29.481,29.481,0,0,0,16.23.127,23.6,23.6,0,0,0,7.983.739c-2.637.644-5.947,2.786-6.891,5.236a15.9,15.9,0,0,0-.678,9.407,11.362,11.362,0,0,0,5.86,8.075M29.73,13.565c1.038-.137,2.355.565,3.091-.554a5.736,5.736,0,0,0,.456-4.6c-.1-.446-.529-.8-.375-1.32a5.514,5.514,0,0,1,5.23,5.5c-.034,1.356.5,1.776,1.6,2.231,4.106,1.707,5.754,5.095,6,9.308.237,4.022-.842,7.49-4.565,9.619a15.41,15.41,0,0,1-7.326,1.837,32.661,32.661,0,0,1-4.922-.125,10.258,10.258,0,0,1-8.865-10.691.872.872,0,0,1,.787-.959c4.61-1.217,7-4.339,7.507-8.973.1-.949.494-1.149,1.384-1.266M1.507,9.918c.62-4.986,2.912-7.484,7.928-8.3a26.688,26.688,0,0,1,11.307.721c4.115,1.111,5.52,4.341,6.274,7.995a12.371,12.371,0,0,1-.828,7.32,9.076,9.076,0,0,1-4.866,4.715c-2.236,1.1-4.527.84-6.809.979a1.471,1.471,0,0,0-1.61,1.321,7.48,7.48,0,0,0,.712,5.07A4.9,4.9,0,0,1,8.7,24.44a1.69,1.69,0,0,0-1.269-1.947c-4.052-1.787-5.583-5.262-5.967-9.4a14.875,14.875,0,0,1,.046-3.176" transform="translate(-5752.787 -3331.378)"/>
      <path id="Path_177710" data-name="Path 177710" d="M74.057,60.605h0l0,.007,0,0,0-.005" transform="translate(-5803.262 -3372.688)" fill="#fcfcfc"/>
      <path id="Path_177712" data-name="Path 177712" d="M61.416,36.049a1.794,1.794,0,0,0-1.821-2.1,1.866,1.866,0,0,0-2.141,1.813,2.073,2.073,0,0,0,2.031,2.246,1.9,1.9,0,0,0,1.932-1.957M58.79,36a.613.613,0,0,1-.011-.151c.02-.327.336-.478.64-.6a.9.9,0,0,1,.286.08.659.659,0,0,1,.373.5.894.894,0,0,1,.012.139.659.659,0,0,1-.563.653c-.462.08-.672-.273-.737-.624" transform="translate(-5791.941 -3354.515)"/>
      <path id="Path_177713" data-name="Path 177713" d="M40.946,37.662c1.368.191,1.707-.747,1.785-1.806a1.966,1.966,0,0,0-3.929-.1,2.08,2.08,0,0,0,2.144,1.91m-.4-2.481a1.078,1.078,0,0,1,.164,0,.745.745,0,0,1,.6.384,1.052,1.052,0,0,1,.113.318.762.762,0,0,1-.536.7,1.248,1.248,0,0,1-.139.04c-.52.12-.631-.255-.657-.621-.024-.343-.047-.791.455-.819" transform="translate(-5779.233 -3354.472)"/>
      <path id="Path_177715" data-name="Path 177715" d="M70.321,62.04a4.511,4.511,0,0,0,1.19-1.418l0,0a4.5,4.5,0,0,1-1.188,1.416" transform="translate(-5800.719 -3372.699)"/>
      <path id="Path_177716" data-name="Path 177716" d="M74.072,60.6h0" transform="translate(-5803.272 -3372.686)"/>
      <path id="Path_177717" data-name="Path 177717" d="M74.07,60.549h0l.034-.024Z" transform="translate(-5803.274 -3372.633)"/>
      <path id="Path_177718" data-name="Path 177718" d="M74.065,60.6h0l0,.005.007-.006" transform="translate(-5803.266 -3372.687)"/>
      <path id="Path_177719" data-name="Path 177719" d="M74.166,60.542l-.054-.017c-.01.009-.02.016-.03.025l.084-.008" transform="translate(-5803.283 -3372.633)"/>
      <path id="Path_177720" data-name="Path 177720" d="M74.067,60.6h0" transform="translate(-5803.272 -3372.685)"/>
      <path id="Path_177721" data-name="Path 177721" d="M74.1,60.525l-.034.024h0c.01-.009.02-.016.03-.025" transform="translate(-5803.273 -3372.633)"/>
      <path id="Union_104" data-name="Union 104" d="M7.3,23.129A1.69,1.69,0,0,0,6.03,21.183C1.978,19.4.446,15.921.064,11.783A14.858,14.858,0,0,1,.11,8.607C.73,3.621,3.022,1.123,8.038.31a26.687,26.687,0,0,1,11.307.721c4.116,1.11,5.52,4.341,6.274,7.995a12.367,12.367,0,0,1-.828,7.32,9.075,9.075,0,0,1-4.866,4.715c-2.236,1.1-4.527.84-6.809.979a1.471,1.471,0,0,0-1.61,1.32,7.479,7.479,0,0,0,.712,5.07A4.9,4.9,0,0,1,7.3,23.129ZM18.171,20.39a6.946,6.946,0,0,0,.762-.1,6.894,6.894,0,0,1-.761.1Zm2.821-.982a4.472,4.472,0,0,1-1.464.741,4.47,4.47,0,0,0,1.464-.741,4.519,4.519,0,0,0,1.189-1.419l.007-.006.085-.009-.054-.017-.034.024h0l0,.007a6.341,6.341,0,0,1-1.056.745,6.34,6.34,0,0,0,1.056-.745A4.5,4.5,0,0,1,20.993,19.409ZM5.256,19.232h0a1.865,1.865,0,0,1-1.191-.348A1.866,1.866,0,0,0,5.256,19.232Zm-.47-.385-1.172-.958h0ZM3.64,18.434q.034.05.071.1-.036-.048-.071-.1a2.476,2.476,0,0,1-.152-.253A2.514,2.514,0,0,0,3.64,18.434Zm-.219-.389h0c.062-.054.126-.105.192-.155-.066.049-.13.1-.192.155a.867.867,0,0,1-.124-.072A.863.863,0,0,0,3.421,18.045Zm.192-.155c-.068-.113-.1-.257-.176-.364C3.511,17.633,3.545,17.777,3.613,17.89Zm-.477-.1a.461.461,0,0,1-.014-.358A.459.459,0,0,0,3.136,17.795Zm-.273-.57c.022.135.094.187.2.167a.224.224,0,0,1-.041,0c-.084,0-.139-.055-.159-.172v0Zm.28.147h0l0,0Zm0,0h0v0Zm0,0,0,0h0Zm-.178-.223L2.934,17.1h0ZM6.986,9.492a1.861,1.861,0,0,0-2.024,1.793,2.022,2.022,0,0,0,2,2.274,1.963,1.963,0,0,0,1.955-1.972,2.116,2.116,0,0,0-1.876-2.1ZM16.9,11.313a2.072,2.072,0,0,0,2.031,2.245A1.9,1.9,0,0,0,20.866,11.6a1.794,1.794,0,0,0-1.821-2.1c-.052,0-.1,0-.152,0A1.845,1.845,0,0,0,16.9,11.313Zm-4-1.832a1.863,1.863,0,0,0-1.939,1.866,2.08,2.08,0,0,0,2.144,1.91c1.368.191,1.707-.747,1.786-1.806a1.882,1.882,0,0,0-1.867-1.974C12.981,9.477,12.94,9.478,12.9,9.481Zm8.88-4.81a.33.33,0,0,0,.077-.044.33.33,0,0,1-.077.044h0Zm.078-.045h0Zm.071-.1a.539.539,0,0,0-.044-.326q-.056-.066-.117-.131c.041.043.08.087.117.131A.542.542,0,0,1,21.928,4.524Zm-.409-.116ZM13.1,1.927c.674.083,1.348.157,2.018.244-.67-.087-1.344-.161-2.018-.244Z" transform="translate(-5751.391 -3330.067)" fill="#fcfcfc" stroke="rgba(0,0,0,0)" stroke-miterlimit="10" stroke-width="1"/>
      <path id="Path_177723" data-name="Path 177723" d="M99.074,76.252a1.862,1.862,0,0,0,1.943-1.884,1.909,1.909,0,0,0-2.006-2.136A1.858,1.858,0,0,0,97.049,74.1a1.951,1.951,0,0,0,2.026,2.148m.014-2.661c.368,0,.54.255.576.631-.032.393-.206.683-.668.658a.6.6,0,0,1-.571-.624c-.046-.472.253-.665.663-.665" transform="translate(-5818.933 -3380.612)"/>
      <path id="Path_177724" data-name="Path 177724" d="M118.027,76.252c1.315-.047,1.786-.943,1.928-2.089-.2-1.225-.807-2-2.109-1.921a1.777,1.777,0,0,0-1.864,2.078,1.828,1.828,0,0,0,2.046,1.932m-.055-2.669a.654.654,0,0,1-.111,1.3c-.388-.013-.525-.311-.544-.637-.026-.456.275-.626.655-.664" transform="translate(-5831.838 -3380.615)"/>
      <path id="Path_177725" data-name="Path 177725" d="M78.255,74.35a1.994,1.994,0,0,0,2.08,2.081,1.811,1.811,0,0,0,1.85-1.859c-.017-1.129-1.037-2.321-1.885-2.042-.865.285-1.978.566-2.045,1.82m1.961-.575c.475-.043.618.28.672.661-.075.346-.21.615-.6.616-.46,0-.655-.3-.673-.7-.017-.383.266-.549.6-.579" transform="translate(-5806.125 -3380.788)"/>
      <path id="Union_105" data-name="Union 105" d="M8.876,28.366A10.258,10.258,0,0,1,.011,17.676.872.872,0,0,1,.8,16.717c4.61-1.217,7-4.339,7.507-8.974.1-.949.495-1.149,1.384-1.266a4.377,4.377,0,0,1,1.038.037c.773.087,1.549.175,2.053-.591a5.735,5.735,0,0,0,.455-4.6c-.1-.447-.528-.8-.375-1.32a5.514,5.514,0,0,1,5.23,5.5c-.034,1.356.5,1.776,1.6,2.231,4.106,1.708,5.754,5.095,6,9.308.237,4.022-.842,7.49-4.565,9.619A15.413,15.413,0,0,1,13.8,28.492c-.641.019-1.285.034-1.928.034A24.5,24.5,0,0,1,8.876,28.366Zm7.88-1.9a10.248,10.248,0,0,1-4.487.837,17.366,17.366,0,0,1-2.205-.141C12.521,27.482,15.238,27.271,16.757,26.469ZM6.922,16.033c-.865.285-1.978.566-2.045,1.82a1.994,1.994,0,0,0,2.08,2.081,1.811,1.811,0,0,0,1.85-1.859c-.016-1.016-.843-2.083-1.626-2.083A.823.823,0,0,0,6.922,16.033Zm5.9-.121a1.858,1.858,0,0,0-1.963,1.872,1.95,1.95,0,0,0,2.025,2.147,1.862,1.862,0,0,0,1.944-1.883,1.91,1.91,0,0,0-1.906-2.139Zm5.929.005a1.777,1.777,0,0,0-1.864,2.078,1.828,1.828,0,0,0,2.045,1.932c1.315-.048,1.786-.943,1.927-2.089-.189-1.168-.752-1.927-1.933-1.927Q18.845,15.911,18.755,15.916Zm5.136.038h0a34.237,34.237,0,0,0-2.92-4.9A34.288,34.288,0,0,1,23.891,15.954Zm-1.839-4.626a4.83,4.83,0,0,0-1.716-1.057A4.83,4.83,0,0,1,22.053,11.329ZM20.309,10.32l.02-.036h0l-.019.036Zm.027-.049.086-.156h0Zm0,0-.029-.011Zm.048-.194L20.309,10h0Z" transform="translate(-5732.747 -3324.29)" fill="#fcfcfc" stroke="rgba(0,0,0,0)" stroke-miterlimit="10" stroke-width="1"/>
      <path id="Path_177729" data-name="Path 177729" d="M62.949,38.773a.852.852,0,0,0-.012-.139.66.66,0,0,0-.373-.5.9.9,0,0,0-.284-.079c-.306.118-.622.269-.642.6a.629.629,0,0,0,.011.151c.065.351.275.7.737.624a.659.659,0,0,0,.563-.653" transform="translate(-5794.8 -3357.317)" fill="#fff"/>
      <path id="Path_177730" data-name="Path 177730" d="M64.921,38.8a.66.66,0,0,0-.373-.5.661.661,0,0,1,.373.5" transform="translate(-5796.784 -3357.487)" fill="#fff"/>
      <path id="Path_177731" data-name="Path 177731" d="M43.48,39.4a1.2,1.2,0,0,0,.139-.04.76.76,0,0,0,.535-.7,1.04,1.04,0,0,0-.112-.316.745.745,0,0,0-.6-.384,1.036,1.036,0,0,0-.164,0c-.5.027-.479.476-.455.819.026.366.137.742.657.621" transform="translate(-5781.968 -3357.251)" fill="#fff"/>
      <path id="Path_177732" data-name="Path 177732" d="M45.346,40.191a.762.762,0,0,0,.536-.7,1.059,1.059,0,0,0-.113-.318,1.046,1.046,0,0,1,.112.316.76.76,0,0,1-.535.7" transform="translate(-5783.696 -3358.083)" fill="#fff"/>
      <path id="Path_177733" data-name="Path 177733" d="M101.948,77.793c.462.025.636-.265.668-.658-.036-.376-.208-.632-.576-.631-.41,0-.709.194-.663.666a.6.6,0,0,0,.571.624" transform="translate(-5821.884 -3383.525)" fill="#fff"/>
      <path id="Path_177734" data-name="Path 177734" d="M120.729,77.767a.654.654,0,0,0,.111-1.3c-.38.038-.681.208-.655.664.018.325.156.624.544.637" transform="translate(-5834.706 -3383.499)" fill="#fff"/>
      <path id="Path_177735" data-name="Path 177735" d="M83.2,77.8c.39,0,.525-.271.6-.617-.053-.38-.2-.7-.672-.66-.335.03-.618.2-.6.579.018.4.213.7.673.7" transform="translate(-5809.04 -3383.532)" fill="#fff"/>
      <rect id="Rectangle_44673" data-name="Rectangle 44673" width="47.075" height="37.11" transform="translate(-5752.787 -3331.378)" fill="none"/>
    </g>
  </g>
</svg>
