<svg xmlns="http://www.w3.org/2000/svg" xmlns:xlink="http://www.w3.org/1999/xlink" width="1240" height="579" viewBox="0 0 1240 579">
  <defs>
    <clipPath id="clip-path">
      <rect id="Rectangle_45246" data-name="Rectangle 45246" width="1240" height="579" transform="translate(180 2874)" fill="#f0f4ff"/>
    </clipPath>
  </defs>
  <g id="margin-bg" transform="translate(-180 -2874)">
    <rect id="Rectangle_45243" data-name="Rectangle 45243" width="1240" height="579" transform="translate(180 2874)" fill="#f0f4ff"/>
    <g id="Mask_Group_298" data-name="Mask Group 298" clip-path="url(#clip-path)">
      <g id="Group_174906" data-name="Group 174906" transform="translate(397.066 3665.713) rotate(-50)">
        <g id="Group_162315" data-name="Group 162315" transform="translate(36.745 36.149)" style="mix-blend-mode: overlay;isolation: isolate">
          <path id="Path_143614" data-name="Path 143614" d="M1083.527,551.327C1001.9,633.442,917.8,712.784,832.217,790.854c39.11-80.718,80.936-160.3,118.285-241.766,42.334-92.359,92.367-217.912,48.372-310.89C898.621,26.266,611.11,251.241,503.923,364.871c-11.414,12.113-22.365,24.716-33.439,37.181,40.5-89.73,77.464-181.724,73.041-276.543C537.443-4.864,416.954-30.891,309.287,34.567,193.672,104.836,98.094,221.824,17.926,327.78c-68.1,89.991,75.062,166.491,142.6,77.767A1297.762,1297.762,0,0,1,280.854,268.739q-9.855,16.846-19.9,33.638c-44.294,74.018-88.1,148.3-124.961,225.784C65.41,676.5-38.362,882.145,35.374,1031.654c37.165,75.347,132.062,78.98,205.18,44.429,98.289-46.444,169.23-142.533,237.131-224.2C548.562,766.609,611.659,676.6,677.7,587.972c27.592-37.034,55.191-74.579,86.43-108.891.715-.8,1.46-1.529,2.174-2.31l-.849,2.347c-18.783,51.282-42.191,100.73-65.881,150.317-44.06,92.26-99.94,189.786-119,288.891-16.853,87.635,14.582,183.636,121.233,172.625C802.07,1080.6,886.459,982.248,956.145,915.98c84.387-80.262,167.4-161.977,250.425-243.613C1293.267,587.13,1169.265,465.1,1083.527,551.327Z" transform="translate(16.401 16.007)" fill="#3c384f"/>
          <path id="Path_143615" data-name="Path 143615" d="M707.973,1123.629c-39.243,1.731-71.947-10.363-95.016-35.273-32.066-34.626-43.986-92.8-31.9-155.623,15.754-81.9,55.3-161.428,93.524-238.317,9.157-18.416,18.224-36.653,26.829-54.679,8.159-17.1,16.746-35.059,25.294-53.624q-7.536,10.056-14.922,19.993l-4.889,6.57q-25.741,34.532-51.053,69.236c-47.572,64.847-96.764,131.915-149.566,195.432-7.712,9.275-15.464,18.742-23.3,28.309-60.6,73.989-129.278,157.843-220.08,200.739-80.95,38.209-184.5,33.078-225.815-50.733C-37.18,905.107,59.336,702.906,129.82,555.269l8-16.789c20.736-43.612,43.712-86.3,67.961-128.861q-8.228,10.324-16.17,20.78C147.858,485.243,78.938,487.487,36.4,457.957,1.227,433.533-17,386.049,21.625,335.007,107.209,221.9,202.362,107.528,318.094,37.19,382.32-1.842,451.1-10.753,502.13,13.354c44.929,21.222,71.218,65.977,74.011,126.038,3.282,70.439-15.263,138.815-40.64,204.387,86.824-83.73,245.854-204.058,368.584-192.3,56.378,5.428,98.772,37.385,126.007,94.966,44.808,94.694.631,217-48.5,324.13-23.381,51.008-48.863,101.98-73.511,151.29L899.361,739.3c69.665-64.707,132.088-124.873,189.485-182.6v.016c28.377-28.565,63.322-40.14,98.3-32.653,38.409,8.244,70.169,39.22,79.018,77.116,8.117,34.759-3.327,69.568-32.249,98l-9.442,9.272c-78.609,77.3-159.891,157.234-241.2,234.542-10.021,9.536-20.329,19.721-30.959,30.223-63.236,62.433-141.929,140.15-233.838,149.635C714.931,1123.227,711.425,1123.477,707.973,1123.629Zm75.364-646.112a14.579,14.579,0,0,1,7.753,1.713c6.346,3.51,9.491,10.586,6.839,17.774l-.866,2.363c-19.687,53.775-44.556,105.851-66.5,151.794-8.694,18.2-17.85,36.6-27.078,55.168-37.2,74.836-75.672,152.213-90.562,229.617-10.1,52.555-.571,102.286,24.874,129.766,18.872,20.381,45.8,28.8,80.14,25.37,79.574-8.224,150.157-77.908,212.43-139.405,10.8-10.653,21.276-21.006,31.449-30.691,81.091-77.107,162.272-156.925,240.779-234.125l9.426-9.271c25.587-25.145,26.335-50.134,22.481-66.67-6.284-26.908-29.689-49.765-56.9-55.6-16.584-3.569-41.562-2.5-66.567,22.669V578c-74.151,74.571-156.569,153.122-251.984,240.13-5.887,5.372-14.419,6.242-20.462,2.113s-7.934-12.136-4.511-19.183c14.778-30.513,29.954-60.853,45.129-91.192,24.507-49.05,49.864-99.762,72.995-150.233,46.025-100.357,87.736-214.2,48.248-297.65-22.948-48.549-56.431-74.29-102.356-78.7C783.681,172.313,616.292,301.563,531.76,391.2c-9.018,9.539-17.727,19.415-26.452,29.292l-6.6,7.474c-5.453,6.165-14.282,7.892-20.891,4.09-6.592-3.786-8.976-11.979-5.653-19.339,38.563-85.472,75.861-176.652,71.557-269.056C541.413,94.149,521.466,59.132,486.043,42.4,444.726,22.877,387.629,30.954,333.3,63.96,222.838,131.119,130.43,242.361,47.029,352.584,20.685,387.414,34.7,416.1,56.622,431.313c29.686,20.588,77.485,21.06,107.637-18.572A1323.164,1323.164,0,0,1,286.275,273.995c5.942-5.884,15.016-6.937,21.255-2.466,6.255,4.47,7.793,13.1,3.623,20.241q-9.907,16.92-20,33.785c-44.838,74.95-88.092,148.509-124.151,224.3l-8.017,16.821C91.351,708.326-1.238,902.327,66.506,1039.694c32.908,66.727,117.743,69.642,184.529,38.109,83.348-39.367,146.412-116.363,207.389-190.832,7.889-9.616,15.71-19.167,23.489-28.508,52.085-62.672,100.933-129.28,148.195-193.7q25.484-34.76,51.208-69.45l4.888-6.554c25.906-34.794,52.69-70.758,82.688-103.726l1.512-1.611A19.556,19.556,0,0,1,783.336,477.518Zm316.616,89.824.146-.007Z" transform="translate(-0.008 -0.008)" fill="#3c384f"/>
          <path id="Path_143616" data-name="Path 143616" d="M78.5,8.68C13.492,129.464-26.414,269.461,20.366,394.137c6.907,18.44,38.64,8.839,31.633-9.868C8.1,267.206,44.629,137.152,105.774,23.547,115.867,4.818,88.631-10.145,78.5,8.68Z" transform="translate(69.762 616.063)" fill="#3c384f"/>
          <path id="Path_143617" data-name="Path 143617" d="M46.67,84.937c-.274-.019-.53-.088-.787-.124-.415-.841-.778-1.765-.913-2.014l-.077-.092c-.027-.126.018-.033-.022-.222-1.771-7.041-2.94-14.188-4.2-21.378Q36.3,36.1,31.925,11.086C30.508,2.994,20.592-2.079,12.487.827,3.608,4.005-1.244,12.278.276,20.954q4.945,28.281,9.906,56.578c2.743,15.693,7.338,36.242,26.486,38.567,8.27,1,17.96-2.942,20.438-12.034C59.234,96.28,55.552,86.01,46.67,84.937Z" transform="translate(135.731 874.45)" fill="#3c384f"/>
          <path id="Path_143618" data-name="Path 143618" d="M63.951,1.7C45.986-7.16,28.364,21.105,46.361,29.979c24.85,12.25,31.394,39.131,31.2,65.831-.194,30.316-5.061,61.681-11.409,91.807a651.327,651.327,0,0,1-63.944,173.9c-10.077,18.743,17.143,33.692,27.273,14.866,34.96-64.991,59.462-133.789,71.971-204.654C111.664,113.879,124.478,31.534,63.951,1.7Z" transform="translate(862.612 245.494)" fill="#3c384f"/>
        </g>
        <g id="Group_162318" data-name="Group 162318" transform="translate(0.008 0.009)">
          <g id="Group_162317" data-name="Group 162317" transform="translate(0)">
            <g id="Group_162316" data-name="Group 162316">
              <path id="Path_143619" data-name="Path 143619" d="M1083.541,551.331c-81.623,82.115-165.726,161.458-251.325,239.512,39.11-80.7,80.952-160.3,118.3-241.75,42.334-92.359,92.351-217.911,48.372-310.89C898.635,26.271,611.126,251.229,503.937,364.875c-11.43,12.1-22.364,24.7-33.439,37.181,40.485-89.729,77.447-181.723,73.041-276.543C537.458-4.859,416.968-30.887,309.3,34.556,193.67,104.842,98.109,221.828,17.925,327.785-50.17,417.776,93,494.276,160.541,405.551A1299.413,1299.413,0,0,1,280.853,268.728Q271,285.575,260.967,302.381c-44.295,74.019-88.1,148.3-124.961,225.768-70.6,148.359-174.353,353.984-100.617,503.51,37.165,75.347,132.046,78.981,205.18,44.429,98.289-46.444,169.23-142.533,237.131-224.2,70.877-85.273,133.958-175.282,200-263.909,27.609-37.035,55.208-74.58,86.431-108.908.715-.78,1.475-1.514,2.191-2.31l-.85,2.363c-18.783,51.282-42.207,100.73-65.881,150.317-44.076,92.245-99.939,189.77-119,288.891-16.869,87.636,14.582,183.636,121.233,172.625,100.247-10.346,184.635-108.7,254.321-174.969,84.4-80.263,167.417-161.994,250.442-243.63C1293.266,587.135,1169.264,465.1,1083.541,551.331Z" transform="translate(16.387 16.003)" fill="#a6bbff"/>
              <path id="Path_143620" data-name="Path 143620" d="M707.957,1123.614c-39.244,1.731-71.931-10.348-95-35.258-32.066-34.626-43.987-92.8-31.9-155.639,15.738-81.884,55.28-161.411,93.524-238.316,9.14-18.415,18.208-36.636,26.829-54.662,8.159-17.1,16.745-35.06,25.294-53.624-5.024,6.688-10,13.373-14.922,19.992l-4.888,6.554c-17.16,23.022-34.116,46.146-51.069,69.237-47.557,64.862-96.749,131.93-149.55,195.43q-11.569,13.937-23.3,28.326c-60.6,73.973-129.277,157.827-220.08,200.739-80.966,38.211-184.5,33.062-225.814-50.749C-37.18,905.107,59.336,702.906,129.8,555.254l8.015-16.773c20.737-43.612,43.712-86.3,67.944-128.86q-8.2,10.323-16.17,20.764c-41.737,54.859-110.657,57.1-153.192,27.572C1.227,433.534-17,386.05,21.625,335.008,107.209,221.9,202.362,107.528,318.078,37.176,382.32-1.842,451.086-10.752,502.13,13.354c44.929,21.222,71.2,65.962,74.012,126.022,3.283,70.439-15.264,138.831-40.656,204.388C622.326,260.049,781.34,139.721,904.07,151.476c56.378,5.428,98.788,37.384,126.023,94.965,44.791,94.695.615,216.98-48.5,324.13-23.38,50.991-48.863,101.979-73.511,151.274l-8.724,17.441c69.663-64.69,132.087-124.857,189.483-182.588h0c28.378-28.564,63.321-40.123,98.3-32.636,38.409,8.244,70.169,39.22,79,77.117,8.133,34.758-3.31,69.551-32.232,97.981l-9.443,9.287c-78.609,77.3-159.891,157.218-241.2,234.542-10.021,9.536-20.329,19.721-30.976,30.224-63.221,62.431-141.913,140.15-233.822,149.635C714.915,1123.212,711.426,1123.461,707.957,1123.614ZM783.321,477.5a14.551,14.551,0,0,1,7.752,1.729c6.362,3.51,9.508,10.569,6.855,17.774l-.866,2.363c-19.686,53.758-44.556,105.85-66.5,151.793-8.694,18.189-17.85,36.589-27.078,55.168-37.213,74.837-75.688,152.214-90.577,229.6-10.1,52.556-.571,102.286,24.89,129.782,18.857,20.366,45.8,28.8,80.14,25.37,79.574-8.224,150.157-77.907,212.414-139.4,10.8-10.669,21.293-21.022,31.466-30.692,81.091-77.107,162.271-156.925,240.779-234.125l9.427-9.287c25.57-25.128,26.334-50.118,22.465-66.669-6.285-26.893-29.672-49.766-56.9-55.588-16.567-3.569-41.545-2.5-66.551,22.668h0c-74.15,74.571-156.568,153.122-251.984,240.146-5.9,5.373-14.435,6.242-20.462,2.113-6.06-4.128-7.933-12.136-4.512-19.183,14.778-30.513,29.953-60.853,45.113-91.207,24.522-49.034,49.864-99.746,73.01-150.217,46.008-100.356,87.735-214.2,48.249-297.666-22.965-48.533-56.448-74.273-102.356-78.7C783.681,172.314,616.275,301.564,531.744,391.181c-9,9.554-17.711,19.43-26.436,29.291l-6.613,7.49c-5.437,6.164-14.267,7.891-20.875,4.09-6.593-3.786-8.992-11.978-5.668-19.355,38.579-85.456,75.877-176.653,71.572-269.041-2.31-49.523-22.258-84.541-57.681-101.277C444.71,22.878,387.629,30.954,333.3,63.961,222.822,131.1,130.429,242.361,47.029,352.584c-26.361,34.83-12.325,63.5,9.593,78.713,29.685,20.605,77.485,21.076,107.636-18.556A1319.87,1319.87,0,0,1,286.274,274c5.926-5.883,15.017-6.937,21.239-2.466,6.255,4.47,7.809,13.1,3.623,20.226q-9.908,16.944-19.989,33.8c-44.854,74.951-88.092,148.509-124.167,224.3l-8.017,16.821c-67.612,141.65-160.2,335.651-92.456,473,32.908,66.744,117.742,69.659,184.528,38.126,83.348-39.367,146.413-116.379,207.389-190.831q11.834-14.45,23.474-28.524c52.1-62.658,100.949-129.265,148.21-193.684q25.485-34.76,51.209-69.466l4.887-6.539c25.906-34.794,52.691-70.774,82.672-103.725l1.528-1.612A19.539,19.539,0,0,1,783.321,477.5Zm316.614,89.84.162-.007Z" transform="translate(-0.008 -0.009)" fill="#6b8dfc"/>
            </g>
            <path id="Path_143621" data-name="Path 143621" d="M78.51,8.684C13.484,129.468-26.405,269.448,20.358,394.14c6.924,18.424,38.657,8.838,31.649-9.868C8.089,267.194,44.621,137.156,105.783,23.55,115.86,4.807,88.64-10.142,78.51,8.684Z" transform="translate(69.754 616.06)"/>
            <path id="Path_143622" data-name="Path 143622" d="M46.67,84.937c-.274-.02-.53-.088-.787-.124-.414-.858-.794-1.765-.929-2.013l-.06-.093c-.027-.126.018-.048-.022-.238-1.772-7.025-2.955-14.187-4.2-21.363Q36.281,36.1,31.925,11.085C30.508,2.994,20.592-2.079,12.47.827,3.609,3.989-1.244,12.278.276,20.954q4.945,28.282,9.89,56.563c2.758,15.708,7.354,36.257,26.5,38.582,8.271.989,17.96-2.942,20.438-12.033C59.234,96.279,55.536,86.011,46.67,84.937Z" transform="translate(135.731 874.451)"/>
            <path id="Path_143623" data-name="Path 143623" d="M63.957,1.7c-17.965-8.859-35.6,19.407-17.59,28.28,24.85,12.25,31.378,39.132,31.2,65.815-.194,30.316-5.062,61.7-11.411,91.823a651.332,651.332,0,0,1-63.944,173.9C-7.88,380.258,19.357,395.205,29.486,376.38c34.944-65.006,59.462-133.8,71.971-204.654C111.67,113.862,124.484,31.518,63.957,1.7Z" transform="translate(862.607 245.495)" fill="#6b8dfc"/>
          </g>
        </g>
      </g>
    </g>
  </g>
</svg>
