<svg xmlns="http://www.w3.org/2000/svg" xmlns:xlink="http://www.w3.org/1999/xlink" width="144" height="138" viewBox="0 0 144 138">
  <defs>
    <clipPath id="clip-path">
      <rect id="Rectangle_45267" data-name="Rectangle 45267" width="94.151" height="94.155" fill="none"/>
    </clipPath>
  </defs>
  <g id="_11" data-name="11" transform="translate(-698 -4474.297)">
    <g id="Group_165391" data-name="Group 165391" transform="translate(161 3186.297)">
      <rect id="Rectangle_40797" data-name="Rectangle 40797" width="144" height="138" transform="translate(537 1288)" fill="#ffe891"/>
    </g>
    <g id="Group_174958" data-name="Group 174958" transform="translate(723 4496.297)">
      <g id="Group_174957" data-name="Group 174957" transform="translate(0 0)" clip-path="url(#clip-path)">
        <path id="Path_182815" data-name="Path 182815" d="M23.088,12.919c3.043-3.177,4.671-3.177,7.609.117V8.407c0-6.538,0-6.538-5.9-6.39a2.882,2.882,0,0,1-.475,0c-.873-.118-1.27.191-1.251,1.282.058,3.133.02,6.268.02,9.619" transform="translate(-2.956 -0.254)" fill="#f7a32f"/>
        <path id="Path_182816" data-name="Path 182816" d="M17.3,62.131c.949,1.252,3.7,4.655,4.915,6.1L22.135,64c0-2.737.373-3.157,2.779-3.157h5.3c1.507-.008,2.1-.7,2.1-2.466V39.724c0-1.765-.594-2.458-2.106-2.458H3.933c-1.577,0-2.146.675-2.146,2.532V58.209c0,2.01.534,2.636,2.271,2.636l0,0c4.026.012,6.421.029,10.447-.04a3.117,3.117,0,0,1,2.8,1.324" transform="translate(-0.229 -4.776)" fill="#fcc059"/>
        <path id="Path_182817" data-name="Path 182817" d="M98.291,28.833h-24.4C72.56,28.833,72,29.4,72,30.75q-.01,7.495,0,14.991c0,1.344.561,1.911,1.9,1.911,1.9,0,3.79-.012,5.684,0a1.609,1.609,0,0,1,1.825,1.79c.011.673,0,1.348,0,2.26,1.152-1.161,2.151-2.1,3.072-3.119a2.843,2.843,0,0,1,2.334-.951c3.82.04,7.642.015,11.463.015,1.4,0,1.953-.554,1.953-1.958v0q.007-7.446,0-14.889c0-1.414-.544-1.969-1.942-1.969M93.168,42.94c-5.192,0-10.386-.016-15.582.02-.729,0-.919-.165-.9-.9.044-2.249.009-2.249,2.276-2.249h7.155c2.875,0,5.752.019,8.626-.016.638-.008.809.157.8.793-.015,2.353.01,2.353-2.371,2.353m0-6.269c-5.192,0-10.386-.016-15.582.019-.732.005-.919-.168-.9-.909.045-2.248.01-2.248,2.278-2.248h7.249c2.844,0,5.687.021,8.528-.017.643,0,.8.161.8.8-.015,2.351.01,2.351-2.373,2.351" transform="translate(-9.226 -3.695)" fill="#fe5d7c"/>
        <path id="Path_182818" data-name="Path 182818" d="M83.136,47.993a4.579,4.579,0,0,0-2.964.524Q77.485,51.13,74.8,53.738a1.671,1.671,0,0,1-2.948-1.225c.022-1.266-.038-2.535.022-3.8.037-.648-.2-.772-.8-.75-1.232.046-2.464.013-3.693.013a5.105,5.105,0,0,1-.864,0,4.856,4.856,0,0,1-4.5-5.216V27.671a4.716,4.716,0,0,1,0-.935,4.918,4.918,0,0,1,5.4-4.348c5.019,0,10.04-.01,15.06.01.6,0,.874-.061.874-.779-.037-5.5-.024-10.995-.024-16.493,0-1.357-.6-1.929-2.006-1.929Q56.47,3.21,31.624,3.18c-.65,0-.777.173-.777.775.035,2.725,0,5.457.025,8.189.008.969-.094,1.839-1.206,2.162s-1.685-.406-2.2-1.2c-.467-.721-.965-1.42-1.52-2.228-.6.876-1.146,1.65-1.642,2.411a1.79,1.79,0,0,1-2.1,1.021c-.974-.287-1.2-1.044-1.188-1.966.026-2.8-.012-5.6.026-8.4.009-.622-.156-.792-.789-.765-1.232.052-2.464.017-3.693.017-1.54.007-2.1.542-2.1,2.044,0,8.628.009,17.257-.018,25.887,0,.693.156.875.885.875q7.735-.043,15.469-.014h.138a4.807,4.807,0,0,1,4.828,4.787q.041,8,0,15.994v.115a4.827,4.827,0,0,1-4.957,4.685c-1.4.026-2.8.034-4.2,0-.534-.02-.7.126-.683.655.038,1.232-.007,2.467.018,3.7a1.743,1.743,0,0,1-1,1.884,1.77,1.77,0,0,1-2.085-.613c-1.538-1.514-3.134-2.976-4.612-4.545A3.285,3.285,0,0,0,15.5,57.535c-.866.028-1.034.23-1.034,1.05q.02,15.943.02,31.885c0,1.838.46,2.293,2.351,2.293H80.965c1.888,0,2.359-.459,2.359-2.293V58.484q0-4.841,0-9.694c0-.265.185-.611-.188-.8" transform="translate(-1.852 -0.407)" fill="#dcd9ea"/>
        <path id="Path_182819" data-name="Path 182819" d="M89.584,22c-.1,0-.2,0-.3,0-1.766-.013-3.534-.038-5.3.016-.7.021-.853-.173-.85-.856.031-5.261.018-10.521.017-15.784a4.767,4.767,0,0,0-5.3-5.34H16.3a4.773,4.773,0,0,0-5.306,4.172,4.827,4.827,0,0,0,0,1.171c0,8.4-.009,16.8.017,25.2,0,.686-.16.875-.852.853-1.766-.054-3.534-.027-5.3-.016A4.681,4.681,0,0,0,.014,35.919c0,.1,0,.194,0,.292q-.026,7.745,0,15.49a4.684,4.684,0,0,0,4.561,4.8c.1,0,.193,0,.289,0,1.731.012,3.465.046,5.2-.018.772-.027.95.194.949.955q-.041,15.636-.018,31.272c0,3.611,1.814,5.441,5.4,5.441H77.657c3.684,0,5.492-1.791,5.492-5.442V77.047q0-14.558-.016-29.117c0-.685.16-.875.851-.853,1.767.055,3.534.029,5.3.016a4.679,4.679,0,0,0,4.847-4.506c0-.1,0-.2,0-.3q.033-7.743.005-15.49A4.679,4.679,0,0,0,89.584,22M21.363,1.764a3.087,3.087,0,0,0,.475,0c5.9-.148,5.9-.148,5.9,6.39v4.629c-2.937-3.295-4.566-3.295-7.609-.117,0-3.351.038-6.486-.02-9.62-.019-1.091.378-1.4,1.251-1.282M3.826,55.514l0,0c-1.737,0-2.271-.608-2.271-2.56V35.074c0-1.8.569-2.459,2.146-2.459H29.975c1.513,0,2.1.672,2.106,2.386V53.118c0,1.716-.594,2.386-2.1,2.394h-5.3c-2.405,0-2.779.409-2.779,3.066l.054,4.216s-4.192-4.618-5.14-5.834a3.151,3.151,0,0,0-2.8-1.286c-4.026.066-6.172-.149-10.2-.161m77.646-6.945q.008,4.832,0,9.653v31.85c0,1.827-.472,2.283-2.358,2.283H14.984c-1.891,0-2.351-.453-2.351-2.283q0-15.875-.02-31.75c0-.816.167-1.018,1.034-1.045a3.294,3.294,0,0,1,2.752,1.11c1.477,1.562,3.073,3.019,4.611,4.526a1.774,1.774,0,0,0,2.085.61,1.734,1.734,0,0,0,1-1.875c-.025-1.227.021-2.456-.018-3.683-.017-.527.149-.672.684-.652,1.4.034,2.8.026,4.2,0a4.817,4.817,0,0,0,4.956-4.665c0-.038,0-.077,0-.115q.041-7.962,0-15.926a4.8,4.8,0,0,0-4.829-4.767c-.045,0-.092,0-.137,0q-7.734-.03-15.47.013c-.729,0-.887-.181-.885-.871.027-8.594.016-17.187.019-25.778,0-1.5.555-2.029,2.1-2.036,1.228,0,2.461.036,3.693-.016.633-.026.8.141.789.761-.039,2.786,0,5.575-.027,8.36-.009.918.214,1.671,1.188,1.957a1.792,1.792,0,0,0,2.1-1.017c.5-.758,1.044-1.527,1.642-2.4.554.8,1.053,1.5,1.52,2.218.517.794,1.092,1.52,2.2,1.2s1.214-1.187,1.206-2.153c-.027-2.72.01-5.44-.025-8.154,0-.6.127-.772.778-.771q24.845.029,49.691.017c1.411,0,2,.569,2.006,1.922,0,5.474-.013,10.948.024,16.423,0,.714-.27.778-.874.774-5.019-.019-10.041-.013-15.06-.01a4.912,4.912,0,0,0-5.4,4.329,4.681,4.681,0,0,0,0,.931V42.567a4.844,4.844,0,0,0,4.5,5.194,5.106,5.106,0,0,0,.864,0c1.228,0,2.46.032,3.693-.013.606-.024.84.1.8.746-.06,1.258,0,2.521-.022,3.782a1.626,1.626,0,0,0,1.007,1.685,1.653,1.653,0,0,0,1.941-.466q2.686-2.6,5.372-5.2a4.6,4.6,0,0,1,2.965-.522c.372.187.187.53.187.794M91,42v0c0,1.4-.554,1.957-1.953,1.958-3.822,0-7.643.026-11.463-.014a2.842,2.842,0,0,0-2.335.95c-.92,1.016-1.919,1.959-3.071,3.12,0-.913.01-1.588,0-2.261a1.607,1.607,0,0,0-1.395-1.793,1.577,1.577,0,0,0-.43,0c-1.895-.013-3.788,0-5.684,0-1.338,0-1.9-.568-1.9-1.912q-.009-7.495,0-14.991c0-1.35.559-1.916,1.893-1.916h24.4c1.4,0,1.941.554,1.942,1.968Q91.011,34.55,91,42" transform="translate(0 0)"/>
        <path id="Path_182820" data-name="Path 182820" d="M26.2,85.961q23.478-.041,46.958-.019c2.267,0,2.229,0,2.276-2.249.014-.742-.183-.9-.908-.9-8.032.029-16.077.017-24.117.017H27.37c-2.16,0-2.115,0-2.18,2.159-.024.816.2.991,1.007.991" transform="translate(-3.228 -10.61)"/>
        <path id="Path_182821" data-name="Path 182821" d="M76.734,89.979Q61.1,90.025,45.462,90c-2.267,0-2.231,0-2.276,2.249-.014.738.177.907.907.9,5.461-.034,10.913-.019,16.37-.019h15.1c2.162,0,2.117,0,2.181-2.157.019-.816-.2-1-1.01-.995" transform="translate(-5.534 -11.531)"/>
        <path id="Path_182822" data-name="Path 182822" d="M46.779,70.656c-.014.736.172.908.9.9,4.9-.037,9.8-.019,14.7-.019H76.015c2.162,0,2.119,0,2.182-2.155.024-.82-.192-1.006-1-1-9.378.032-18.756.021-28.135.021-2.266,0-2.231,0-2.279,2.254" transform="translate(-5.995 -8.763)"/>
        <path id="Path_182823" data-name="Path 182823" d="M49.549,25.746l-.014.005a7.55,7.55,0,0,0,8.342-1.075c.944-.741.923-.766,0-1.576a8.359,8.359,0,0,1-.8-.718c-.439-.5-.737-.551-1.32-.055a4.57,4.57,0,0,1-6.151-.276,4.671,4.671,0,0,1-.538-6.151,4.748,4.748,0,0,1,6.129-1.325c.468.257.775.978,1.321.8.482-.152.85-.685,1.268-1.05a2.637,2.637,0,0,1,.368-.322c.665-.392.481-.726,0-1.139a7.6,7.6,0,0,0-8.392-1.378,7.781,7.781,0,0,0-.209,14.256" transform="translate(-5.765 -1.383)"/>
        <path id="Path_182824" data-name="Path 182824" d="M33.294,78.763c6.241-.032,12.481-.019,18.722-.019,2.385,0,2.358,0,2.373-2.351,0-.643-.161-.8-.8-.8q-2.523.025-5.047.021H34.667c-2.268,0-2.233,0-2.278,2.249-.014.737.174.908.9.9" transform="translate(-4.151 -9.687)"/>
        <path id="Path_182825" data-name="Path 182825" d="M43.182,36.613c-.069.617.149.757.75.749,1.438-.017,2.875-.021,4.313-.021H59.718c2.319,0,2.287,0,2.323-2.305.01-.694-.175-.854-.856-.848-5.2.031-10.391.011-15.583.023-.774,0-1.789-.335-2.258.138s-.071,1.494-.162,2.265" transform="translate(-5.525 -4.369)"/>
        <path id="Path_182826" data-name="Path 182826" d="M50.4,44.553h9.31c2.33,0,2.3,0,2.33-2.3.01-.677-.146-.864-.845-.86-5.227.034-10.455.017-15.683.017-2.351,0-2.33,0-2.33,2.394,0,.591.124.768.745.759,2.158-.024,4.315-.019,6.471-.016" transform="translate(-5.535 -5.305)"/>
        <path id="Path_182827" data-name="Path 182827" d="M61.2,48.6c-5.227.032-10.456.017-15.683.017-2.349,0-2.324,0-2.326,2.4,0,.6.139.763.752.757,2.156-.027,4.313-.023,6.469-.017h9.312c2.324,0,2.294,0,2.328-2.3.01-.686-.161-.858-.852-.854" transform="translate(-5.535 -6.228)"/>
        <path id="Path_182828" data-name="Path 182828" d="M61.148,55.8c-5.2.036-10.39.019-15.582.019-2.383,0-2.357,0-2.371,2.353,0,.643.16.8.8.8,2.875-.036,5.752-.017,8.627-.017h7.154c2.267,0,2.229,0,2.276-2.248.011-.751-.181-.919-.908-.911" transform="translate(-5.536 -7.151)"/>
        <path id="Path_182829" data-name="Path 182829" d="M37.075,89.988c-1.371.026-2.744.021-4.115.016H27.572c-2.383,0-2.357,0-2.373,2.352,0,.643.161.8.8.8,3.135-.033,6.265-.016,9.408-.016,2.41,0,2.4,0,2.37-2.45-.008-.557-.151-.717-.705-.705" transform="translate(-3.229 -11.532)"/>
        <path id="Path_182830" data-name="Path 182830" d="M80.681,75.589c-2.088.044-4.177.016-6.265.016-2.492,0-2.477,0-2.424,2.492.01.5.114.675.643.659.67-.02,1.338-.023,2.008-.021s1.34.008,2.01.008H79.1c2.351,0,2.329,0,2.329-2.394-.008-.589-.13-.769-.75-.759" transform="translate(-9.224 -9.687)"/>
        <path id="Path_182831" data-name="Path 182831" d="M36.7,71.561c1.606-.036,3.2-.046,4.8,0,.643.019.8-.172.8-.8-.015-2.349.01-2.349-2.375-2.349H38.363c-2.41,0-2.393,0-2.364,2.454,0,.561.149.709.7.7" transform="translate(-4.612 -8.767)"/>
        <path id="Path_182832" data-name="Path 182832" d="M64.419,75.609h-.784c-2.57,0-2.57,0-2.446,2.57.017.376.038.593.514.585,1.767-.028,3.534-.015,5.292,0,.3,0,.439-.045.489-.408.349-2.528.19-2.731-2.283-2.731Z" transform="translate(-7.836 -9.689)"/>
        <path id="Path_182833" data-name="Path 182833" d="M26.765,78.747c1.589,0,1.589,0,1.589-1.548,0-1.589,0-1.589-1.548-1.589-1.589,0-1.589,0-1.589,1.548,0,1.589,0,1.589,1.548,1.589" transform="translate(-3.232 -9.69)"/>
        <path id="Path_182834" data-name="Path 182834" d="M95.426,34.205c-2.841.037-5.685.016-8.528.016H79.648c-2.269,0-2.233,0-2.278,2.249-.014.74.172.914.9.909,5.194-.036,10.39-.019,15.582-.019,2.384,0,2.358,0,2.372-2.352,0-.643-.16-.8-.8-.8" transform="translate(-9.915 -4.383)"/>
        <path id="Path_182835" data-name="Path 182835" d="M95.428,41.4c-2.874.036-5.751.016-8.626.016H79.646c-2.267,0-2.231,0-2.276,2.249-.015.738.174.906.9.9,5.2-.036,10.39-.02,15.582-.02,2.382,0,2.357,0,2.371-2.353.009-.636-.163-.8-.8-.793" transform="translate(-9.915 -5.306)"/>
        <path id="Path_182836" data-name="Path 182836" d="M9.9,48.174c5.2-.036,10.39-.019,15.582-.019,2.383,0,2.357,0,2.371-2.353,0-.643-.16-.8-.8-.8-2.874.036-5.752.017-8.627.017H11.273c-2.267,0-2.231,0-2.276,2.248-.013.747.178.916.908.911" transform="translate(-1.153 -5.767)"/>
        <path id="Path_182837" data-name="Path 182837" d="M25.589,55.352c2.267,0,2.231,0,2.278-2.249.014-.735-.173-.907-.9-.9-5.194.036-10.39.019-15.582.019-2.382,0-2.357,0-2.372,2.352,0,.642.16.8.8.8,2.841-.036,5.685-.017,8.527-.017Z" transform="translate(-1.154 -6.69)"/>
      </g>
    </g>
  </g>
</svg>
