<svg xmlns="http://www.w3.org/2000/svg" xmlns:xlink="http://www.w3.org/1999/xlink" width="89" height="85" viewBox="0 0 89 85">
  <defs>
    <clipPath id="clip-path">
      <rect id="Rectangle_45271" data-name="Rectangle 45271" width="55" height="62.897" fill="none"/>
    </clipPath>
  </defs>
  <g id="_16" data-name="16" transform="translate(-698 -4457)">
    <g id="Group_165391" data-name="Group 165391" transform="translate(698 4457)">
      <rect id="Rectangle_40797" data-name="Rectangle 40797" width="89" height="85" rx="15" fill="#ffd947"/>
    </g>
    <g id="Group_174963" data-name="Group 174963" transform="translate(715 4468)">
      <g id="Group_174962" data-name="Group 174962" clip-path="url(#clip-path)">
        <path id="Path_182884" data-name="Path 182884" d="M42.57,41.947a1.014,1.014,0,0,1-.064,1.568,22.145,22.145,0,0,1-3.679,3.421,15.855,15.855,0,0,1,2.359.846c.2.1.341,0,.495-.118q4.438-3.428,8.888-6.843c.26-.2.213-.316.046-.521q-.541-.667-1.049-1.359a.943.943,0,0,1,.1-1.407A.917.917,0,0,1,51,37.8c1.094,1.4,2.2,2.795,3.251,4.227a3.592,3.592,0,0,1-.757,5.117q-3.276,2.578-6.6,5.089c-.339.257-.342.422-.144.774a11.689,11.689,0,0,1,1.485,5.5,4.032,4.032,0,0,1-3.373,4.3c-.024.005-.035.063-.052.1H8.094c-.06-.18-.238-.134-.361-.176a4.152,4.152,0,0,1-2.9-4.278,12.126,12.126,0,0,1,9.138-11.4,1.753,1.753,0,0,0,.228-.111c-.309-.25-.584-.471-.857-.7a20.8,20.8,0,0,1-6.82-10.039c-.116-.367-.3-.439-.639-.482a6.475,6.475,0,0,1,.4-12.919.672.672,0,0,0,.732-.529A13.283,13.283,0,0,1,7.706,20.7c.159-.321.214-.469-.261-.515a3.829,3.829,0,0,1-.5-7.559,10.311,10.311,0,0,1,2.508-.075c.456.008.6-.106.581-.575A11.357,11.357,0,0,1,10.927,6.4,10.387,10.387,0,0,1,20.552.056c3.925-.1,7.855-.034,11.783-.02A10.681,10.681,0,0,1,43.054,10.568c.013.511.025,1.024,0,1.534-.019.36.118.451.456.439.634-.023,1.268-.019,1.9,0a3.829,3.829,0,0,1,.247,7.639c-.514.042-.493.174-.3.564a8.913,8.913,0,0,0,.835,1.822c.423.493,1.215.217,1.834.374A6.478,6.478,0,0,1,47.2,35.7a.719.719,0,0,0-.72.624,18.22,18.22,0,0,1-1.409,3.382c-.389.729-.685.849-1.49.589a1.181,1.181,0,0,1-.092-1.553,18.974,18.974,0,0,0,1.832-12.314c-.076-.42-.245-.533-.619-.555a11.132,11.132,0,0,1-1.938-.282c-2.8-.667-4.882-2.14-5.643-5.065-.106-.409-.373-.3-.611-.3q-8.47-.007-16.938,0c-.182,0-.365.028-.547.043-.9-.015-1.8-.021-2.694-.05-.306-.01-.35.158-.415.4a6.512,6.512,0,0,1-4.027,4.47,11.17,11.17,0,0,1-3.634.8c-.353.023-.477.156-.54.5A19.126,19.126,0,0,0,30.567,48.619,18.738,18.738,0,0,0,41.081,42.33a1.08,1.08,0,0,1,1.489-.383M17.794,61.035c.49.006.98,0,1.468.025.338.019.424-.073.329-.413q-1.621-5.826-3.221-11.658c0-.36-.164-.516-.537-.435-.516.113-1.033.226-1.555.306-.407.062-.515.27-.509.666.021,1.548-.015,3.1.019,4.645.016.7-.164,1.195-.9,1.36-.764-.25-.961-.5-.966-1.272,0-.715,0-1.43,0-2.145V49.879a3.525,3.525,0,0,0-.373.176A9.975,9.975,0,0,0,6.733,59.12a2.152,2.152,0,0,0,2.113,1.927c.877.028,1.757-.007,2.635.013.361.009.458-.136.445-.47-.02-.51-.011-1.021,0-1.532.012-.733.235-1.008.959-1.2a1.013,1.013,0,0,1,.9,1.175c-.024.53.008,1.063-.01,1.594-.01.3.064.442.4.435,1.205-.023,2.411-.019,3.616-.026m.132-47.492-.156.438a1.563,1.563,0,0,1-1.175.4q-4.321-.016-8.641,0a2,2,0,1,0-.024,3.987c2.063.014,4.126.009,6.19,0,1.183,0,2.367-.023,3.55-.035.183.013.366.038.549.038q13.35,0,26.7,0a5.6,5.6,0,0,0,.612-.027,1.964,1.964,0,0,0,1.745-1.9,1.99,1.99,0,0,0-2.208-2.066q-11.723,0-23.446,0c-.935,0-1.153-.154-1.38-.96.144-.679.576-.894,1.248-.892,4.925.017,9.851.009,14.776.009,1.472,0,2.943-.015,4.414.01.437.007.578-.133.546-.558-.032-.447,0-.9-.01-1.349a8.78,8.78,0,0,0-8.271-8.725C29.536,1.787,26.12,1.9,22.707,1.9c-.694-.007-1.389-.037-2.082-.018a8.736,8.736,0,0,0-7.288,3.951,9.917,9.917,0,0,0-1.467,6.381c.018.4.288.321.517.322,1.45,0,2.9,0,4.351,0,.8,0,1.015.187,1.19,1.005m.937,37.2a4.192,4.192,0,0,0,.052.479c.859,3.15,1.725,6.3,2.577,9.45.089.33.272.384.574.384q4.447-.014,8.9,0a.53.53,0,0,0,.624-.476c.535-2.033,1.109-4.055,1.665-6.082.338-1.229.667-2.46,1.04-3.841-.241.215-.363.318-.478.429q-2.267,2.2-4.533,4.4a3.624,3.624,0,0,1-5.438.036q-2.118-2.045-4.227-4.1c-.2-.195-.415-.377-.751-.682m20.411,4.28V50.8c0-2,0-2-2-2.233-.02,0-.041,0-.06-.007-.283-.06-.434.014-.52.333q-1.585,5.876-3.211,11.742c-.109.392,0,.432.341.429,1.655-.013,3.311-.021,4.966,0,.42.006.5-.135.5-.52-.018-1.839-.008-3.678-.008-5.518m1.943-5.139c-.053.058-.076.072-.076.085q-.012,5.364-.028,10.727c0,.326.158.36.417.357.838-.009,1.675.005,2.513-.005a2.256,2.256,0,0,0,2.344-2.427,10.1,10.1,0,0,0-2.052-5.979,9.871,9.871,0,0,0-3.118-2.757m11.916-5.507a3.086,3.086,0,0,0-.9-1.988c-.208-.3-.36-.276-.622-.072q-4.072,3.158-8.16,6.294c-.244.187-.343.3-.027.525a9.072,9.072,0,0,1,1.75,1.623c.181.219.307.244.543.061,2.228-1.733,4.465-3.451,6.7-5.178a1.8,1.8,0,0,0,.719-1.266M47.5,29.8a19.694,19.694,0,0,1-.319,3.617c-.081.412.055.438.4.377a4.646,4.646,0,0,0-.234-9.112c-.477-.069-.511.079-.413.47A20.838,20.838,0,0,1,47.5,29.8M1.843,29.214a4.661,4.661,0,0,0,3.505,4.54c.211.051.62.3.515-.288a20.347,20.347,0,0,1,.264-8.385c.089-.371-.018-.442-.387-.4a4.677,4.677,0,0,0-3.9,4.529m19.69,21.1c1.075,1.167,2.313,2.555,3.6,3.893a1.78,1.78,0,0,0,2.8,0q1.881-1.807,3.742-3.636c.084-.082.255-.135.182-.348a21.073,21.073,0,0,1-10.325.087M8.347,24.011a7.314,7.314,0,0,0,4.432-1.6,4.4,4.4,0,0,0,1.207-1.743c.131-.324.109-.464-.3-.455-1.081.024-2.163.011-3.244.005a.527.527,0,0,0-.553.273,18.661,18.661,0,0,0-1.54,3.521m36.362.03a20.468,20.468,0,0,0-1.479-3.419.688.688,0,0,0-.724-.41c-.961.022-1.923.007-2.885.008-.727,0-.761.035-.429.707,1.11,2.245,3.168,2.82,5.517,3.114" transform="translate(0 0)" fill="#030303"/>
        <path id="Path_182885" data-name="Path 182885" d="M66.921,70.583a1.081,1.081,0,0,0-1.489.383,18.739,18.739,0,0,1-10.514,6.289c-.091-.3-.385-.263-.6-.338A19.5,19.5,0,0,1,47.8,73.167,19.861,19.861,0,0,1,41.658,63.3a7.966,7.966,0,0,0,1.06-.268c1.745-.7,2.692-2.509,1.394-4.154l-.378-.478c.625-.487.283-1.214.43-1.817.809.118,1.26-.092,1.4-.641s-.208-1-1-1.208c-1-.26-2.014-.492-3.022-.737.15-.569.292-1.141.453-1.707.336-1.181.939-2.253,1.386-3.388.182-.015.365-.042.547-.043q8.469,0,16.938,0c.238,0,.5-.111.611.3.761,2.925,2.842,4.4,5.643,5.065a11.132,11.132,0,0,0,1.938.282c.375.022.544.134.619.555a18.974,18.974,0,0,1-1.832,12.314,1.181,1.181,0,0,0,.092,1.553c-.155.663-.715,1.077-1.014,1.651m-8.926-12.2c-.013.23-.2.345-.33.5a2.386,2.386,0,0,0-.081,3.082,4.227,4.227,0,0,0,5.97.232,2.412,2.412,0,0,0,.231-3.14,4.056,4.056,0,0,0-4.306-1.293,5.683,5.683,0,0,0-.017-.672c-.1-.689-.008-1.187.856-1.3a.894.894,0,0,0-.412-1.738c-1.051.241-2.1.515-3.128.829a.817.817,0,0,0-.573,1.019.88.88,0,0,0,.97.747,2.75,2.75,0,0,0,.418-.07c.1.628-.158,1.314.4,1.811m-7.136-1.614a3.581,3.581,0,0,0-2.568,1.1.914.914,0,0,0-.1,1.357.931.931,0,0,0,1.359-.015A1.739,1.739,0,0,1,52.2,59.2a.923.923,0,1,0,1.278-1.322,3.493,3.493,0,0,0-2.622-1.106" transform="translate(-24.351 -28.636)" fill="#fddcce"/>
        <path id="Path_182886" data-name="Path 182886" d="M27.785,63.309a19.861,19.861,0,0,0,6.142,9.864,19.494,19.494,0,0,0,6.519,3.749c.213.074.507.036.6.338A19.125,19.125,0,0,1,18.2,55.027c.062-.345.187-.478.539-.5a11.166,11.166,0,0,0,3.634-.8,6.509,6.509,0,0,0,4.027-4.47c.065-.242.109-.41.415-.4.9.029,1.8.035,2.694.05-.447,1.135-1.051,2.208-1.387,3.388-.161.566-.3,1.138-.453,1.707-.922.465-1.006,1.093-.238,1.794a5.482,5.482,0,0,0-.257,1.838,3.775,3.775,0,0,0-2.62.957c-1.66,1.48-.914,3.471.847,4.345a5.122,5.122,0,0,0,2.385.369" transform="translate(-10.477 -28.642)" fill="#fcc8bc"/>
        <path id="Path_182887" data-name="Path 182887" d="M49.665,4.524c3.413,0,6.829-.111,10.237.015a8.781,8.781,0,0,1,8.271,8.725c.01.449-.022.9.01,1.349.031.425-.109.565-.546.558-1.471-.025-2.943-.01-4.414-.01-4.926,0-9.851.007-14.777-.009-.672,0-1.1.213-1.248.892l-.484-.007a10.878,10.878,0,0,1-.63-5.076,9.4,9.4,0,0,1,3.327-6.039.552.552,0,0,0,.254-.4m6.15,4.058a.994.994,0,0,0-.533-1.007.858.858,0,0,0-.973.129c-.283.228-.522.648-.819.687-.326.043-.527-.448-.814-.67a.908.908,0,0,0-1.273.046.9.9,0,0,0,0,1.27c.223.262.632.5.655.768.029.332-.448.527-.672.811a.886.886,0,0,0,.032,1.268.877.877,0,0,0,1.224.055c.291-.218.531-.65.826-.681.359-.038.55.48.862.7a.879.879,0,0,0,1.18-.048.857.857,0,0,0,.148-1.166,1.89,1.89,0,0,0-.277-.325c-.571-.6-.574-.6-.014-1.171.231-.238.456-.475.447-.664" transform="translate(-26.958 -2.625)" fill="#c68569"/>
        <path id="Path_182888" data-name="Path 182888" d="M44.468,32.41l.483.007c.228.806.446.96,1.38.96q11.723,0,23.446,0a1.99,1.99,0,0,1,2.208,2.066,1.963,1.963,0,0,1-1.745,1.9,5.593,5.593,0,0,1-.612.027q-13.35,0-26.7,0c-.183,0-.366-.025-.549-.038a3.753,3.753,0,0,0-.037-.543,5.689,5.689,0,0,1-.11-2.331,4.01,4.01,0,0,0,.247-1.48l.156-.438a6.306,6.306,0,0,1,1.83-.131" transform="translate(-24.712 -18.998)" fill="#da9d81"/>
        <path id="Path_182889" data-name="Path 182889" d="M45.585,122.517c.337.3.55.487.751.682q2.115,2.048,4.228,4.1A3.624,3.624,0,0,0,56,127.263q2.264-2.2,4.532-4.4c.114-.111.237-.213.478-.428-.373,1.38-.7,2.611-1.039,3.84-.556,2.027-1.131,4.049-1.665,6.082a.53.53,0,0,1-.625.476q-4.447-.019-8.895,0c-.3,0-.485-.053-.574-.384q-1.278-4.728-2.577-9.45a4.3,4.3,0,0,1-.052-.479" transform="translate(-26.722 -71.77)" fill="#5a758f"/>
        <path id="Path_182890" data-name="Path 182890" d="M36.539,16.068a6.306,6.306,0,0,0-1.83.131c-.175-.818-.387-1-1.19-1.005-1.45,0-2.9,0-4.351,0-.229,0-.5.083-.517-.322a9.916,9.916,0,0,1,1.467-6.38,8.736,8.736,0,0,1,7.288-3.951c.694-.019,1.388.011,2.082.018a.549.549,0,0,1-.254.4,9.406,9.406,0,0,0-3.327,6.039,10.873,10.873,0,0,0,.631,5.076" transform="translate(-16.783 -2.656)" fill="#bf7960"/>
        <path id="Path_182891" data-name="Path 182891" d="M86.643,123.786c0,1.839-.01,3.678.008,5.517,0,.384-.078.526-.5.52-1.655-.025-3.31-.017-4.966,0-.345,0-.45-.037-.341-.429q1.629-5.864,3.212-11.742c.086-.319.236-.392.519-.333a.6.6,0,0,0,.061.007c2,.236,2,.236,2,2.234v4.23" transform="translate(-47.368 -68.758)" fill="#d99c81"/>
        <path id="Path_182892" data-name="Path 182892" d="M22.409,128.516c-.723.194-.947.468-.958,1.2-.008.511-.017,1.022,0,1.532.013.334-.084.478-.445.469-.878-.021-1.757.015-2.635-.013a2.151,2.151,0,0,1-2.113-1.927,9.974,9.974,0,0,1,4.815-9.064,3.488,3.488,0,0,1,.372-.177v2.234c0,.715,0,1.43,0,2.145,0,.768.2,1.022.966,1.272q0,1.164-.007,2.328" transform="translate(-9.529 -70.659)" fill="#445a6f"/>
        <path id="Path_182893" data-name="Path 182893" d="M25.943,33.786a3.985,3.985,0,0,1-.247,1.48,5.691,5.691,0,0,0,.111,2.332,3.743,3.743,0,0,1,.036.543c-1.183.012-2.367.032-3.55.035-2.063.006-4.127.011-6.19,0a2,2,0,1,1,.024-3.987q4.321-.007,8.641,0a1.562,1.562,0,0,0,1.175-.4" transform="translate(-8.174 -19.805)" fill="#c68569"/>
        <path id="Path_182894" data-name="Path 182894" d="M99.46,120.561a9.866,9.866,0,0,1,3.118,2.757,10.1,10.1,0,0,1,2.053,5.979,2.256,2.256,0,0,1-2.344,2.427c-.838.011-1.676,0-2.513.005-.259,0-.418-.03-.417-.357q.023-5.363.028-10.726c0-.014.023-.027.075-.086" transform="translate(-58.243 -70.672)" fill="#5a758f"/>
        <path id="Path_182895" data-name="Path 182895" d="M114.367,104.118a1.8,1.8,0,0,1-.719,1.266c-2.232,1.726-4.47,3.445-6.7,5.178-.235.183-.362.158-.543-.061a9.081,9.081,0,0,0-1.75-1.623c-.317-.224-.217-.338.026-.525q4.087-3.138,8.16-6.294c.263-.2.415-.228.622.072a3.085,3.085,0,0,1,.9,1.988" transform="translate(-61.233 -59.736)" fill="#e4e4e4"/>
        <path id="Path_182896" data-name="Path 182896" d="M31.128,126.609q0-1.164.007-2.328c.737-.165.917-.66.9-1.359-.034-1.548,0-3.1-.019-4.645-.005-.4.1-.6.51-.666.521-.079,1.038-.193,1.554-.306.373-.081.533.074.537.435a.791.791,0,0,0-.31.507,12.959,12.959,0,0,0,1.733,11.539c-1.205.007-2.411,0-3.616.026-.341.007-.414-.133-.4-.435.017-.531-.015-1.063.009-1.594a1.013,1.013,0,0,0-.9-1.175" transform="translate(-18.247 -68.751)" fill="#c48368"/>
        <path id="Path_182897" data-name="Path 182897" d="M113.919,64.748a20.86,20.86,0,0,0-.571-4.647c-.1-.391-.065-.539.413-.47a4.646,4.646,0,0,1,.234,9.111c-.34.061-.476.035-.395-.377a19.722,19.722,0,0,0,.319-3.617" transform="translate(-66.418 -34.946)" fill="#fcc8bc"/>
        <path id="Path_182898" data-name="Path 182898" d="M4.453,64.167a4.678,4.678,0,0,1,3.9-4.53c.369-.045.476.026.387.4a20.347,20.347,0,0,0-.264,8.385c.1.59-.3.339-.515.288a4.661,4.661,0,0,1-3.505-4.54" transform="translate(-2.61 -34.952)" fill="#fcc8bc"/>
        <path id="Path_182899" data-name="Path 182899" d="M39.626,130.433a12.962,12.962,0,0,1-1.733-11.539.792.792,0,0,1,.31-.507q1.608,5.829,3.221,11.657c.095.341.009.432-.329.413-.488-.027-.979-.018-1.468-.025" transform="translate(-21.832 -69.398)" fill="#d99c81"/>
        <path id="Path_182900" data-name="Path 182900" d="M52.036,121.477a21.074,21.074,0,0,0,10.325-.087c.073.213-.1.265-.182.348q-1.865,1.824-3.742,3.636a1.779,1.779,0,0,1-2.8,0c-1.29-1.338-2.528-2.726-3.6-3.893" transform="translate(-30.503 -71.158)" fill="#e8b0a5"/>
        <path id="Path_182901" data-name="Path 182901" d="M20.17,52.643a18.608,18.608,0,0,1,1.54-3.521.527.527,0,0,1,.552-.273c1.082.006,2.163.018,3.245-.005.41-.009.432.131.3.455A4.4,4.4,0,0,1,24.6,51.041a7.316,7.316,0,0,1-4.432,1.6" transform="translate(-11.824 -28.632)" fill="#f7c848"/>
        <path id="Path_182902" data-name="Path 182902" d="M99.941,52.674c-2.348-.294-4.407-.869-5.517-3.114-.332-.672-.3-.706.429-.707.962,0,1.924.014,2.885-.008a.688.688,0,0,1,.724.41,20.468,20.468,0,0,1,1.479,3.419" transform="translate(-55.233 -28.633)" fill="#f7e268"/>
        <path id="Path_182903" data-name="Path 182903" d="M81.462,70.174a4.055,4.055,0,0,1,4.306,1.293,2.412,2.412,0,0,1-.23,3.14,4.228,4.228,0,0,1-5.971-.232,2.386,2.386,0,0,1,.082-3.082c.13-.154.317-.269.329-.5.8.293,1.135.151,1.484-.621" transform="translate(-46.335 -41.048)" fill="#fea1ab"/>
        <path id="Path_182904" data-name="Path 182904" d="M35.934,75.744a5.122,5.122,0,0,1-2.385-.369c-1.761-.874-2.507-2.864-.847-4.345a3.775,3.775,0,0,1,2.62-.957,3.815,3.815,0,0,1,1.219.132c.389.769.685.9,1.469.638l.378.478c1.3,1.645.351,3.459-1.394,4.154a8.062,8.062,0,0,1-1.06.268" transform="translate(-18.626 -41.076)" fill="#fea1ab"/>
        <path id="Path_182905" data-name="Path 182905" d="M80.219,65.088c-.349.773-.686.914-1.484.621-.56-.5-.3-1.183-.4-1.811a2.756,2.756,0,0,1-.418.07.88.88,0,0,1-.97-.747.817.817,0,0,1,.573-1.019c1.032-.314,2.077-.588,3.128-.829a.894.894,0,0,1,.411,1.738c-.864.117-.951.614-.856,1.3a5.684,5.684,0,0,1,.017.672" transform="translate(-45.091 -35.961)" fill="#030303"/>
        <path id="Path_182906" data-name="Path 182906" d="M42.66,65.7c-.783.259-1.08.13-1.469-.639.006-.259.016-.519.016-.779,0-.963,0-.963-.979-1.191-.768-.7-.685-1.329.237-1.794,1.008.245,2.019.477,3.022.737.791.205,1.139.647,1,1.208s-.588.759-1.4.641c-.147.6.2,1.33-.43,1.817" transform="translate(-23.276 -35.93)" fill="#030303"/>
        <path id="Path_182907" data-name="Path 182907" d="M59.917,67.988a3.493,3.493,0,0,1,2.622,1.106.923.923,0,1,1-1.278,1.322,1.739,1.739,0,0,0-2.65.011.931.931,0,0,1-1.359.015.914.914,0,0,1,.1-1.357,3.581,3.581,0,0,1,2.568-1.1" transform="translate(-33.409 -39.854)" fill="#030303"/>
        <path id="Path_182908" data-name="Path 182908" d="M40.6,65.63c.98.228.981.228.979,1.191,0,.26-.011.519-.016.779a3.8,3.8,0,0,0-1.219-.132A5.493,5.493,0,0,1,40.6,65.63" transform="translate(-23.651 -38.472)" fill="#fddcce"/>
        <path id="Path_182909" data-name="Path 182909" d="M63.109,12.831c.01.19-.216.427-.447.664-.559.575-.557.576.014,1.171a1.89,1.89,0,0,1,.277.325.857.857,0,0,1-.148,1.166.879.879,0,0,1-1.18.048c-.312-.218-.5-.737-.862-.7-.3.031-.535.463-.826.681a.877.877,0,0,1-1.224-.055.886.886,0,0,1-.032-1.268c.224-.284.7-.478.672-.811-.023-.272-.432-.505-.655-.768a.9.9,0,0,1,0-1.27.908.908,0,0,1,1.273-.046c.288.222.488.713.814.67.3-.039.536-.458.819-.687a.858.858,0,0,1,.973-.129.994.994,0,0,1,.533,1.007" transform="translate(-34.252 -6.875)" fill="#030303"/>
      </g>
    </g>
  </g>
</svg>
