<svg xmlns="http://www.w3.org/2000/svg" xmlns:xlink="http://www.w3.org/1999/xlink" width="89" height="85" viewBox="0 0 89 85">
  <defs>
    <clipPath id="clip-path">
      <rect id="Rectangle_45272" data-name="Rectangle 45272" width="59.009" height="70.276" fill="none"/>
    </clipPath>
  </defs>
  <g id="_17" data-name="17" transform="translate(-698 -4457)">
    <g id="Group_165391" data-name="Group 165391" transform="translate(698 4457)">
      <rect id="Rectangle_40797" data-name="Rectangle 40797" width="89" height="85" rx="15" fill="#ffd947"/>
    </g>
    <g id="Group_174978" data-name="Group 174978" transform="translate(713 4464)">
      <g id="Group_174978-2" data-name="Group 174978" clip-path="url(#clip-path)">
        <path id="Path_182910" data-name="Path 182910" d="M7.26,4.667c-.161-.536-.1-1.049.443-1.285C10.222,2.3,12.633.94,15.332.3A2.748,2.748,0,0,0,16.476,0h2.744c.55.145,1.132.064,1.677.246a5.338,5.338,0,0,1,3.562,3.611.938.938,0,0,0,1.075.767c2.675-.028,5.351-.024,8.026,0a.861.861,0,0,0,.984-.7A5.39,5.39,0,0,1,38.063.264C38.539.1,39.055.157,39.532,0h2.745a5.968,5.968,0,0,0,1.557.332,34.33,34.33,0,0,1,5.9,2.321c1.8.771,3.546,1.679,5.375,2.374,3.252,1.235,4.167,3.947,3.833,6.922a24.868,24.868,0,0,1-3.664,9.715,22.825,22.825,0,0,1-3.268,4.466,4.413,4.413,0,0,1-2.4,1.364c-.464.082-.552.331-.619.722-.541,3.124-1.068,6.252-1.663,9.366a17.312,17.312,0,0,1-2.579,6.286c-.166.253-.289.438-.037.761a33.259,33.259,0,0,1,5.921,13.251,51.319,51.319,0,0,1,1.233,11.076c.006.51-.072.959-.609,1.184-.678.283-1.228-.034-1.464-.848a1.1,1.1,0,0,1-.159-.72,57.219,57.219,0,0,0-.794-8.239,36.437,36.437,0,0,0-3.386-10.325,10.709,10.709,0,0,1-1.465,1.765,1.292,1.292,0,0,1-1.709.388,1.224,1.224,0,0,1-.245-.22,1.2,1.2,0,0,1,.154-1.777,19.435,19.435,0,0,0,1.543-1.834,1.4,1.4,0,0,0-.465-1.876c-.29-.155-.415.1-.567.244a20.935,20.935,0,0,1-2.284,2.068,18.4,18.4,0,0,1-22.466-.5c-.558-.441-1.022-.98-1.532-1.472-.531-.513-.584-.511-1.025.108-.238.335-.448.691-.691,1.022a.8.8,0,0,0,.144,1.193,19.808,19.808,0,0,0,9.489,5.358,20.365,20.365,0,0,0,12.772-.86c.508-.21.982-.489,1.489-.7.837-.349,1.286-.179,1.736.645.114.905,0,1.164-.881,1.632a19.449,19.449,0,0,1-6.567,2.08,10.19,10.19,0,0,1-1.636.155c-.342-.009-.489.159-.471.511.042.822.007,1.645.021,2.468,0,.252-.006.529.332.588a.645.645,0,0,0,.767-.3c.151-.281.276-.578.436-.855a4.014,4.014,0,0,1,7.166,3.6,1.464,1.464,0,0,0,0,1.3,3.917,3.917,0,0,1-.437,4.027,1.091,1.091,0,0,1-.629.5c-1.891,1.346-3.277,1.353-5.135.024a2.345,2.345,0,0,1-1.238-1.467.958.958,0,0,0-1.043-.669c-1.024.03-2.05.023-3.074,0a.883.883,0,0,0-.943.606,2.474,2.474,0,0,1-1.27,1.528c-1.858,1.33-3.253,1.323-5.134-.024-.424-.105-.612-.455-.812-.788a3.8,3.8,0,0,1-.278-3.675,1.544,1.544,0,0,0-.007-1.362,4.023,4.023,0,0,1,7.262-3.464c.158.251.25.54.42.786a.642.642,0,0,0,.735.226c.3-.064.3-.311.307-.541.011-.8,0-1.6,0-2.4,0-.426-.191-.6-.621-.629a22.59,22.59,0,0,1-13.177-5.368c-.247-.205-.471-.434-.7-.659-.563-.556-.6-.552-.914.147a33.8,33.8,0,0,0-1.631,4.44A43.982,43.982,0,0,0,9.507,66.3c-.037.82-.13,1.639-.125,2.462a.706.706,0,0,1-.151.514.99.99,0,0,1-1.123.949A.976.976,0,0,1,7.162,69.1c.076-7.283,1.279-14.311,4.753-20.818a22.789,22.789,0,0,1,2.348-3.612c.178-.22.308-.382.09-.7a20.5,20.5,0,0,1-3.086-8.619c-.388-2.435-.84-4.858-1.26-7.288-.049-.281-.107-.474-.475-.539a4.827,4.827,0,0,1-2.9-1.81A29.521,29.521,0,0,1,.221,12.944,8.4,8.4,0,0,1,.392,8.475,5.064,5.064,0,0,1,2.768,5.584c.8-.457,1.173-.386,1.758.324a.861.861,0,0,1-.234,1.318c-2.242,1.324-2.3,3.363-1.818,5.528A27.854,27.854,0,0,0,8.451,24.42a2.571,2.571,0,0,0,1.378.856,1.725,1.725,0,0,0,2.256-1.321c1.341-4.56,2.72-9.11,4.023-13.681A7.541,7.541,0,0,1,21.309,5c.924-.317,1-.5.4-1.316a3.979,3.979,0,0,0-3.338-1.44A12.263,12.263,0,0,0,13,3.453c-1.381.605-2.755,1.229-4.135,1.835-.849.373-1.345.162-1.6-.621" transform="translate(0)" fill="#060606"/>
        <path id="Path_182911" data-name="Path 182911" d="M9.418,6.811c.575.73.777.778,1.632.416,1.889-.8,3.709-1.771,5.659-2.421A9.713,9.713,0,0,1,21.7,4.341a3.414,3.414,0,0,1,2.681,2c.229.517.156.733-.437.872A7.405,7.405,0,0,0,18.983,11a16.081,16.081,0,0,0-1.049,3.247c-1.183,3.954-2.4,7.9-3.485,11.88a2.074,2.074,0,0,1-3.2,1.19,4.943,4.943,0,0,1-1.363-1.337,28.423,28.423,0,0,1-5.442-11.1,7.136,7.136,0,0,1-.081-3.126A3.063,3.063,0,0,1,5.927,9.546a1.223,1.223,0,0,0,.756-1.494L9.418,6.811" transform="translate(-2.158 -2.144)" fill="#be7645"/>
        <path id="Path_182912" data-name="Path 182912" d="M18.888,122.153a43.091,43.091,0,0,1,3.836-18.745c.634.567,1.216,1.126,1.837,1.637A22.025,22.025,0,0,0,37.4,110.109c.592.039.789.209.752.807-.054.842,0,1.691-.02,2.537,0,.236.144.645-.313.6-.413-.044-.966.32-1.209-.367a4.016,4.016,0,0,0-2.895-2.759,3.575,3.575,0,0,0-3.843,1.349,3.673,3.673,0,0,0-.441,4.173.991.991,0,0,1,0,1.045c-.807,1.551-.509,3.117.824,4.645l-11.365.018" transform="translate(-9.658 -52.874)" fill="#f4a16a"/>
        <path id="Path_182913" data-name="Path 182913" d="M74.1,106.142l.136.13a7.86,7.86,0,0,1,1.172,2.746,45.739,45.739,0,0,1,1.933,10.47c.061.979.1,1.956.112,2.936.009.747.07.805.834.813.866.008,1.733-.012,2.6.011.271.007.611-.087.745.3l-11.247-.01a3.9,3.9,0,0,0,.7-4.888.567.567,0,0,1,.039-.618,3.884,3.884,0,0,0-2.777-5.777,4.01,4.01,0,0,0-4.257,2.633,1.14,1.14,0,0,1-1.4.57c-.2-.083-.179-.242-.18-.4,0-1.029.009-2.057-.012-3.086-.012-.6.434-.426.725-.445a20.451,20.451,0,0,0,8.183-2.265,1.162,1.162,0,0,0,.738-1.484c-.024-.064-.057-.157-.017-.195a5.905,5.905,0,0,1,1.977-1.44" transform="translate(-31.954 -54.272)" fill="#f4a16a"/>
        <path id="Path_182914" data-name="Path 182914" d="M93.918,121.3a16.863,16.863,0,0,0-3.191-.1c-1.384-.045-1.178.179-1.189-1.206a45.479,45.479,0,0,0-2.306-13.978c-.22-.668-.473-1.325-.71-1.987a1.147,1.147,0,0,0,1.575-.33c.54-.642,1.1-1.264,1.7-1.939a42.779,42.779,0,0,1,4.241,19.561.177.177,0,0,1-.118-.021" transform="translate(-44.24 -52.034)" fill="#e58d53"/>
        <path id="Path_182915" data-name="Path 182915" d="M52.648,139.375a4.678,4.678,0,0,0,1.233-1.93.417.417,0,0,1,.468-.366c1.389.017,2.779.012,4.167,0,.233,0,.375.048.444.3a4.706,4.706,0,0,0,1.256,1.994H52.648" transform="translate(-26.92 -70.091)" fill="#f3a16a"/>
        <path id="Path_182916" data-name="Path 182916" d="M52.213,48.125a9.873,9.873,0,0,0-5.681-3.808,9.677,9.677,0,0,0-2.449-.235,40.329,40.329,0,0,0-5.752.14,9.475,9.475,0,0,0-7.792,7.819,1.249,1.249,0,0,1-.064.187c-.3-.087-.435-.345-.607-.544a16.9,16.9,0,0,1-3.821-8.438c-.461-2.77-.952-5.535-1.453-8.3-.059-.327-.017-.484.286-.643a3.934,3.934,0,0,0,1.955-2.594c1.314-4.583,2.67-9.154,4.018-13.728a5.415,5.415,0,0,1,5.138-3.912q6.072-.053,12.144,0a5.139,5.139,0,0,1,4.115,1.987,32.339,32.339,0,0,1,.959,4.689c.431,2.242.847,4.489,1.064,6.764a62.451,62.451,0,0,1,.358,7.172,1.765,1.765,0,0,1-.025.341c-.033.152-.033.36-.216.388-.245.037-.233-.226-.327-.363a4.621,4.621,0,0,0-3.578-3.73,4.429,4.429,0,0,0-5.2,3.919,1.136,1.136,0,0,0,.24.963.816.816,0,0,0,1.355-.273,2.788,2.788,0,0,0,.127-.67,2.671,2.671,0,0,1,5.276-.121c.044.2.076.4.13.6a.843.843,0,0,0,1.314.582c.177-.087.319-.277.556-.2a2.749,2.749,0,0,1,.176,1.862c-.163,1.885-.354,3.767-.675,5.635a19.763,19.763,0,0,1-.963,3.632c-.126.335-.221.707-.607.866" transform="translate(-12.564 -7.181)" fill="#f4a16a"/>
        <path id="Path_182917" data-name="Path 182917" d="M79.337,4.233a12.864,12.864,0,0,1,5.091,1.194c2.726,1.224,5.434,2.493,8.2,3.623,2.142.875,2.978,2.266,2.628,4.938a24.822,24.822,0,0,1-3.962,9.752,20.084,20.084,0,0,1-2.072,2.808,2.889,2.889,0,0,1-2.031,1.14,1.788,1.788,0,0,1-1.994-1.4q-1.724-5.8-3.432-11.609c-.22-.743-.454-1.482-.66-2.229a7.156,7.156,0,0,0-5.456-5.211c-.647-.175-.681-.4-.443-.923C75.9,4.8,77.228,4.386,78.72,4.236c.2-.021.411,0,.617,0" transform="translate(-38.384 -2.161)" fill="#be7645"/>
        <path id="Path_182918" data-name="Path 182918" d="M83.1,37.014l.233.476a61.55,61.55,0,0,0-.227-6.305c-.122-1.606-.3-3.2-.579-4.782-.388-2.227-.787-4.453-1.164-6.683a5.31,5.31,0,0,1-.194-1.544,3.3,3.3,0,0,1,.937,1.558c1.4,4.767,2.826,9.529,4.206,14.3A3.827,3.827,0,0,0,88.147,36.4c.215.125.435.188.364.547-.71,3.579-1.123,7.215-2.028,10.754a15.284,15.284,0,0,1-3.457,6.307c-.071.081-.131.2-.32.161a10.687,10.687,0,0,0-1.572-3.93,16.532,16.532,0,0,0,1.5-5.27,44.147,44.147,0,0,0,.579-6.074c0-.218.075-.461-.128-.643a.938.938,0,0,1,.021-1.236" transform="translate(-41.485 -9.294)" fill="#e58d53"/>
        <path id="Path_182919" data-name="Path 182919" d="M57.086,100.026c-.6.614-1.409.968-1.959,1.636-.582-.723-.85-.779-1.7-.355a20.69,20.69,0,0,1-23.793-3.938c-.509-.515-.554-.869-.132-1.418.442-.576.787-1.225,1.281-1.77A18.227,18.227,0,0,0,58.1,94.2a.6.6,0,0,1,.151.115c1.274,1.878,1.359,1.164-.038,3.052a8.118,8.118,0,0,1-.909,1.025,1.121,1.121,0,0,0-.219,1.636" transform="translate(-14.94 -48.156)" fill="#f44c5a"/>
        <path id="Path_182920" data-name="Path 182920" d="M43.853,129.007a1.853,1.853,0,0,1,.483-1.161c.8-.915.8-1.045-.019-2a1.754,1.754,0,0,1-.43-1.527,1.843,1.843,0,0,1,1.8-1.572,2.107,2.107,0,0,1,1.819,1.852c.128,1.245.314,1.412,1.575,1.413q2.914,0,5.829,0c1.1,0,1.352-.24,1.443-1.337a2.044,2.044,0,0,1,1.907-1.9,1.992,1.992,0,0,1,1.773,2.008,1.784,1.784,0,0,1-.6,1.188c-.655.678-.652,1.066-.02,1.756a1.85,1.85,0,0,1,.387,2.307,1.823,1.823,0,0,1-2.022.8,2.032,2.032,0,0,1-1.425-1.888c-.054-.906-.366-1.233-1.266-1.239q-3.155-.02-6.31,0c-.917.006-1.2.32-1.268,1.3a2.055,2.055,0,0,1-1.92,1.956,1.908,1.908,0,0,1-1.741-1.957" transform="translate(-22.423 -62.761)" fill="#f2f2fe"/>
        <path id="Path_182921" data-name="Path 182921" d="M66.662,81.031a7.413,7.413,0,0,1,4.569,6.95.588.588,0,0,1-.308.49,16.251,16.251,0,0,1-7.951,3.044c-.392.043-.531-.07-.5-.471a10.415,10.415,0,0,0,0-1.37c-.056-.9-.077-1.741.975-2.176.363-.15.555-.588.758-.949.6-1.072,1.208-2.145,1.834-3.2a3.581,3.581,0,0,0,.624-2.315" transform="translate(-31.932 -41.433)" fill="#fef2a6"/>
        <path id="Path_182922" data-name="Path 182922" d="M45.082,81.151a3.774,3.774,0,0,0,.662,2.3c.619,1.038,1.212,2.092,1.8,3.149a3.1,3.1,0,0,0,1.374,1.385.543.543,0,0,1,.366.575c-.016.868-.025,1.737,0,2.605.013.41-.178.441-.5.406a16.094,16.094,0,0,1-7.843-2.965.594.594,0,0,1-.265-.508,7.493,7.493,0,0,1,4.4-6.951" transform="translate(-20.795 -41.494)" fill="#fef2a6"/>
        <path id="Path_182923" data-name="Path 182923" d="M57.145,79.721c.685,0,1.37-.015,2.054,0a.974.974,0,0,1,.908,1.514c-.657,1.225-1.341,2.438-2.064,3.625a1.042,1.042,0,0,1-1.937-.025q-.964-1.654-1.9-3.326c-.608-1.087-.208-1.783,1.02-1.792.639,0,1.278,0,1.917,0" transform="translate(-27.574 -40.76)" fill="#be7545"/>
        <path id="Path_182924" data-name="Path 182924" d="M40.138,48.865a4.586,4.586,0,0,1,4.528,4.489,1,1,0,0,1-.94,1.122,1.024,1.024,0,0,1-1.114-1.039,2.526,2.526,0,0,0-2.472-2.513,2.47,2.47,0,0,0-2.533,2.441,1.106,1.106,0,0,1-1.194,1.105c-.632-.089-.932-.545-.866-1.321a4.585,4.585,0,0,1,4.592-4.284" transform="translate(-18.171 -24.986)" fill="#060606"/>
        <path id="Path_182925" data-name="Path 182925" d="M75.653,52.689l-.021,1.236a1.106,1.106,0,0,1-1.246.49c-.549-.153-.687-.57-.749-1.092a2.509,2.509,0,0,0-5.016.1,1.023,1.023,0,0,1-1.116,1.032,1,1,0,0,1-.938-1.121,4.561,4.561,0,0,1,8.91-1.309c.069.216.118.44.176.66" transform="translate(-34.037 -24.969)" fill="#060606"/>
      </g>
    </g>
  </g>
</svg>
