<svg xmlns="http://www.w3.org/2000/svg" xmlns:xlink="http://www.w3.org/1999/xlink" width="410" height="355.527" viewBox="0 0 410 355.527">
  <defs>
    <clipPath id="clip-path">
      <rect id="Rectángulo_44997" data-name="Rectángulo 44997" width="410" height="326.296" fill="none"/>
    </clipPath>
  </defs>
  <g id="_2" data-name="2" transform="translate(0)">
    <g id="Grupo_174315" data-name="Grupo 174315">
      <g id="Grupo_174315-2" data-name="Grupo 174315" transform="translate(0)" clip-path="url(#clip-path)">
        <path id="Trazado_179631" data-name="Trazado 179631" d="M0,64.474,3.672,353.631a2.085,2.085,0,0,0,2.085,2.058h401.85a2.085,2.085,0,0,0,2.084-2.111l-3.67-289.1Z" transform="translate(0.309 -29.393)" fill="#c4d1ff"/>
        <path id="Trazado_179632" data-name="Trazado 179632" d="M0,335.376l1.759,138.55H78.533a2.085,2.085,0,0,0,2.084-2.111L78.739,323.826Z" transform="translate(329.383 -147.631)" fill="#6b8dfc"/>
        <path id="Trazado_179633" data-name="Trazado 179633" d="M3.668,261.258l1.319,103.9,29.853,27.852-1.358-106.9H125.21l-.316-24.85Z" transform="translate(282.795 -119.106)" fill="#6b8dfc"/>
        <path id="Trazado_179634" data-name="Trazado 179634" d="M3.145,352.572a1.764,1.764,0,0,0,1.981,1.71c.374-.063.77-.1,1.145-.167q30.246-4.346,60.534-8.672l-.04-3.148q-31.276,4.5-62.51,8.964a1.169,1.169,0,0,0-1.09,1.168.3.3,0,0,0-.019.146" transform="translate(341.483 -156.05)" fill="#a6bbff"/>
        <path id="Trazado_179635" data-name="Trazado 179635" d="M111.408,360.292l1.645,129.566h3.127l-1.645-129.566a1.572,1.572,0,0,0-3.09-.354.311.311,0,0,0-.019.146.653.653,0,0,0-.018.208" transform="translate(233.202 -163.562)" fill="#a6bbff"/>
        <path id="Trazado_179636" data-name="Trazado 179636" d="M172.159,263.442l.051,3.982q14.91,11.851,29.8,23.7l-.05-3.982q-14.879-11.851-29.8-23.7" transform="translate(114.318 -120.102)" fill="#a6bbff"/>
        <path id="Trazado_179637" data-name="Trazado 179637" d="M123.667,319.944l1.723,135.674H464.073s.721-43.3-6.228-60.29c-6.95-17.011-20.986-37.212-48.129-51.951-27.122-14.76-74.14-30.166-115.985-42.028S197.6,283.065,175.47,283.712c-22.11.646-37.74,7.693-51.8,36.232" transform="translate(-121.382 -129.322)" fill="#fff0f0"/>
        <path id="Trazado_179638" data-name="Trazado 179638" d="M617.671,512.072q-3.873,18.641-7.745,37.283c-.405,1.949-3.408,1.124-3-.825q3.872-18.641,7.745-37.283c.4-1.949,3.407-1.124,3,.825" transform="translate(-537.918 -232.568)" fill="#c29e8c"/>
        <path id="Trazado_179639" data-name="Trazado 179639" d="M297.358,582.8h3.148c1.279-6.066,2.536-12.154,3.792-18.22.413-1.96-2.579-2.773-2.992-.833-1.316,6.358-2.632,12.7-3.949,19.054" transform="translate(-56.131 -256.503)" fill="#c29e8c"/>
        <path id="Trazado_179640" data-name="Trazado 179640" d="M615.445,511.147l.041,3.252q34.306,9.975,68.59,19.972c.4.125.816.229,1.214.354,1.925.563,2.7-2.439.8-3-.461-.126-.9-.271-1.36-.4q-34.652-10.069-69.281-20.18" transform="translate(-612.05 -233.029)" fill="#c29e8c"/>
        <path id="Trazado_179641" data-name="Trazado 179641" d="M337.377,367.61c.256.4.532.792.787,1.188,6.078,9.089,13.694,17.866,23.188,23.432,5.062,2.96,11.244,5.525,13.158-1.355,2.333-8.381,2.842-17.553,3.733-26.185.63-6.213,1.218-12.425,1.639-18.637l-2.952-1c-.836,12.988-2.088,26.017-4.2,38.8-.309,1.939-.342,5.92-1.614,7.525-1.95,2.46-7.039-1.063-9.35-2.5-8.889-5.566-16.044-14.135-21.721-22.828a1.514,1.514,0,0,0-1.3-.73h-.083a.857.857,0,0,0-.229.021,1.469,1.469,0,0,0-1.056,2.273" transform="translate(-153.306 -157.308)" fill="#c29e8c"/>
        <path id="Trazado_179642" data-name="Trazado 179642" d="M410.488,356.107c1.646,8.151,13.3,6.609,19.354,5.524,11.876-2.168,23.479-7.776,34.338-12.9.455-.229.911-.438,1.347-.646,1.555-.708.569-2.793-.849-2.835a.841.841,0,0,0-.23.021,1.307,1.307,0,0,0-.519.146c-7.46,3.523-15.091,6.8-22.83,9.673-6.515,2.4-13.45,4.607-20.5,4.212-5.674-.334-7.131-1.751-7.382-6.713a87.3,87.3,0,0,1,.547-12.779c.988-10.841,2.748-21.639,4.78-32.334.371-1.96.763-3.919,1.176-5.858-1.023-.188-2.048-.4-3.051-.584-.3,1.4-.569,2.793-.843,4.19-1.84,9.465-3.386,18.992-4.536,28.582-.828,7.088-2.267,15.177-.8,22.306" transform="translate(-279.322 -137.238)" fill="#c29e8c"/>
        <path id="Trazado_179643" data-name="Trazado 179643" d="M331.614,475.5l.353,27.774a2.085,2.085,0,0,0,2.084,2.058h171.6s42.327-38.8,46.78-42.758c4.432-3.961,5.525-6.546,5-9.84-.68-4.253-3.5-6.629-7.766-5.775-4.117.834-23.263,13.3-24.462,14.072,1.422-1.292,24.176-21.848,26.981-25.829,2.888-4.108,4.573-9.319-1.255-13.53-3.19-2.3-7.116.376-7.836.924l-.189-.013c-.6-.734-1.752-2.5-1.752-2.5a1.208,1.208,0,0,0,.165-.167c.9-.98,5.4-6.275,2.338-11.237-1.639-2.648-5.695-3.586-8.892-2.564-4.318,1.4-31.874,28.061-31.874,28.061s16.628-23.62,18.5-28.748c1.853-5.129.818-9.465-2.67-11.591-4.852-2.939-10.354.521-12.2,3.252-2.088,3.064-25.367,34.836-25.367,34.836s-6.652-18.158-10.584-24.1c-3.911-5.92-10.277-1.606-11.632,0s-.538,13.467.2,20.367c.713,6.9-3.009,29.019-3.009,29.019l-56.786,36.254h-.021Z" transform="translate(-327.986 -179.041)" fill="#f59c73"/>
        <path id="Trazado_179644" data-name="Trazado 179644" d="M622.5,588.845h5.775q9.212-5.941,18.445-11.862l-4.058-1.084L622.5,588.845" transform="translate(-575.418 -262.549)" fill="#b35546"/>
        <path id="Trazado_179645" data-name="Trazado 179645" d="M423.483,310.212s-3.293,15.375-13.159,21.469-25.083,7.377-42.194-1.443-22.442-24.535-22.093-34.959L352.054,270Z" transform="translate(-201.755 -123.09)" fill="#f59c73"/>
        <path id="Trazado_179646" data-name="Trazado 179646" d="M351.174,114.529h0A46.753,46.753,0,0,0,301.449,159l-1.761,36.126a48.2,48.2,0,0,0,45.105,50.289,46.753,46.753,0,0,0,49.725-44.467l1.761-36.126a48.2,48.2,0,0,0-45.105-50.289" transform="translate(-149.367 -52.172)" fill="#f59c73"/>
        <path id="Trazado_179647" data-name="Trazado 179647" d="M349.478,302.4a.941.941,0,0,1,.626-.231h24.161a1.424,1.424,0,0,1,.748.318l.015.015a.861.861,0,0,1,.258.987c-4.393,12.944-21.242,12.187-26.171,0a.818.818,0,0,1,.363-1.089" transform="translate(-155.256 -137.757)" fill="#b35546"/>
        <path id="Trazado_179648" data-name="Trazado 179648" d="M328.833,229.9a15.307,15.307,0,0,0,.26,6.1,3.722,3.722,0,0,0,7.164-.6,15.708,15.708,0,0,0-.094-5.883,3.714,3.714,0,0,0-7.33.375" transform="translate(-105.309 -103.293)" fill="#2f2031"/>
        <path id="Trazado_179649" data-name="Trazado 179649" d="M396.022,229.9a15.306,15.306,0,0,0,.26,6.1,3.722,3.722,0,0,0,7.164-.6,15.709,15.709,0,0,0-.094-5.883,3.714,3.714,0,0,0-7.33.375" transform="translate(-209.056 -103.293)" fill="#2f2031"/>
        <path id="Trazado_179650" data-name="Trazado 179650" d="M405.1,208.191c-4.469-1.062-8.1-1.349-12.144,1.009-1.954,1.138-3.822-1.883-1.864-3.023,4.884-2.844,9.392-2.7,14.812-1.415a1.761,1.761,0,0,1-.8,3.428" transform="translate(-209.561 -92.949)" fill="#3e2a43"/>
        <path id="Trazado_179651" data-name="Trazado 179651" d="M321.192,208.191c4.442-1.062,8.061-1.349,12.17,1.009,1.983,1.138,3.774-1.883,1.787-3.023-4.956-2.844-9.461-2.7-14.848-1.415-2.2.527-1.316,3.956.891,3.428" transform="translate(-99.599 -92.949)" fill="#3e2a43"/>
        <path id="Trazado_179652" data-name="Trazado 179652" d="M378.573,114.9s2.294,12.295-11.136,15.5-22.883-.428-31.282-5.131-23.66-15.778-27.561-15.181-6.377,2.994-5.183,12.829-8.626,49.389-8.626,49.389-8.5-50.672-9.539-65.425,3.906-22.96,16.15-24.8c0,0-2.665-7.778,2.4-12.749,3.5-3.437,8.162-5.536,27.9-4.37,20.81,1.23,48.824,14.18,59.075,25.887s10.332,35.286-1,64.472c0,0-1.7-24.756-11.2-40.418" transform="translate(-143.504 -29.466)" fill="#3e2a43"/>
        <path id="Trazado_179653" data-name="Trazado 179653" d="M439.467,223.212a15.416,15.416,0,0,0,15.374,15.181,14.951,14.951,0,0,0,14.988-15.181,15.416,15.416,0,0,0-15.374-15.181,14.951,14.951,0,0,0-14.988,15.181" transform="translate(-298.946 -94.84)" fill="#f59c73"/>
        <path id="Trazado_179654" data-name="Trazado 179654" d="M306.5,238.782a19.417,19.417,0,0,0,13.442-5.452,22.406,22.406,0,0,0,6.858-15.208c.645-12.209-8.068-22.832-19.425-23.681a19.373,19.373,0,0,0-14.9,5.4,22.394,22.394,0,0,0-6.857,15.208,23.374,23.374,0,0,0,5.2,16.108,20.278,20.278,0,0,0,14.22,7.573c.489.036.977.054,1.461.054m-.545-41.269q.627,0,1.256.047a17.435,17.435,0,0,1,12.215,6.507,20.086,20.086,0,0,1,4.473,13.84,19.255,19.255,0,0,1-5.892,13.064,16.707,16.707,0,0,1-12.8,4.637,17.42,17.42,0,0,1-12.215-6.506,20.081,20.081,0,0,1-4.472-13.84,19.238,19.238,0,0,1,5.891-13.064,16.689,16.689,0,0,1,11.548-4.685" transform="translate(-72.219 -88.619)" fill="#ffd373"/>
        <path id="Trazado_179655" data-name="Trazado 179655" d="M391.946,232.563a21.886,21.886,0,0,0,21.87-20.662A22.536,22.536,0,0,0,392.91,188.22a21.862,21.862,0,0,0-23.42,20.6A22.538,22.538,0,0,0,390.4,232.508q.78.056,1.55.055m-.563-41.271q.673,0,1.351.047a19.363,19.363,0,0,1,17.96,20.346,18.794,18.794,0,0,1-20.122,17.7,19.366,19.366,0,0,1-17.959-20.348,18.778,18.778,0,0,1,18.771-17.749" transform="translate(-204.873 -85.784)" fill="#ffd373"/>
        <path id="Trazado_179656" data-name="Trazado 179656" d="M365.391,226.812l-7.472-.519c-1.983-.138-2.037-3.241-.04-3.1l7.473.519c1.982.138,2.037,3.241.039,3.1" transform="translate(-150.787 -101.75)" fill="#ffd373"/>
        <path id="Trazado_179657" data-name="Trazado 179657" d="M487.288,525.817l38.239,40.2H497.089l-26.573-29.5Z" transform="translate(-371.537 -239.717)" fill="#b36152"/>
        <path id="Trazado_179658" data-name="Trazado 179658" d="M472.849,570.145a19.094,19.094,0,0,0,1.574,7.38h35.211a18.833,18.833,0,0,0,1.386-7.38A19.38,19.38,0,0,0,491.7,551.07a18.8,18.8,0,0,0-18.854,19.075" transform="translate(-358.299 -251.23)" fill="#fff0f0"/>
        <path id="Trazado_179659" data-name="Trazado 179659" d="M492.853,573.649l1.577.951,6.9,4.16,6.975-11.571a1.564,1.564,0,0,1,2.678,1.614l-7.782,12.91a1.424,1.424,0,0,1-.841.652,1.191,1.191,0,0,1-.126.051c-.04.008-.079.008-.12.013a1.424,1.424,0,0,1-1.059-.183l-8.24-4.967-1.577-.951a1.564,1.564,0,0,1,1.614-2.678" transform="translate(-368.104 -258.242)" fill="#c29e8c"/>
        <path id="Trazado_179660" data-name="Trazado 179660" d="M456.355,212.879l-9.935-7c-1.629-1.148-.115-3.839,1.532-2.679l9.935,7c1.629,1.148.115,3.839-1.532,2.679" transform="translate(-291.105 -92.508)" fill="#ffd373"/>
        <path id="Trazado_179661" data-name="Trazado 179661" d="M361.121,471.075c9.541-8.756,18.183-16.689,27.724-25.466-.571-.668-1.826-2.585-1.826-2.585-9.664,8.9-18.451,16.94-28.136,25.841-1.484,1.376.775,3.565,2.238,2.21" transform="translate(-173.851 -201.972)" fill="#b35546"/>
        <path id="Trazado_179662" data-name="Trazado 179662" d="M357.762,242.566c1.049,3.148,1.978,6.319,2.723,9.55.55,2.384,1.686,5.518,1.445,8.008-.368,3.807-6.176,5.161-9.209,5.8-1.959.411-2.836-2.6-.869-3.015,1.647-.345,4.495-.7,5.649-1.982,1.749-1.938.771-4.336.311-6.485a103.135,103.135,0,0,0-3.055-11.04c-.64-1.921,2.368-2.743,3.005-.831" transform="translate(-142.804 -110.089)" fill="#b35546"/>
        <path id="Trazado_179663" data-name="Trazado 179663" d="M348.457,329.527a46.1,46.1,0,0,0,29.794,13.417l1.815.1a44.976,44.976,0,0,0,25.38-5.858s-.374,1.71-1.218,4.211A48.258,48.258,0,0,1,383,346.279c-1.021,0-2.064-.041-3.087-.1l-1.815-.1a49.288,49.288,0,0,1-31.565-14.083c-1.466-1.469.631-3.671,1.919-2.46" transform="translate(-183.726 -150.07)" fill="#b35546"/>
        <path id="Trazado_179664" data-name="Trazado 179664" d="M7.055,35.081h406.02l-.317-24.791A10.423,10.423,0,0,0,402.335,0H17.169A10.423,10.423,0,0,0,6.747,10.555Z" transform="translate(-6.746)" fill="#6b8dfc"/>
        <path id="Trazado_179665" data-name="Trazado 179665" d="M121.7,25.85a7.622,7.622,0,1,0,7.622-7.622A7.623,7.623,0,0,0,121.7,25.85" transform="translate(-111.698 -8.31)" fill="#ffb357"/>
        <path id="Trazado_179666" data-name="Trazado 179666" d="M79.551,25.85a7.623,7.623,0,1,0,7.622-7.622,7.623,7.623,0,0,0-7.622,7.622" transform="translate(-46.619 -8.31)" fill="#ffb357"/>
        <path id="Trazado_179667" data-name="Trazado 179667" d="M37.4,25.85a7.622,7.622,0,1,0,7.622-7.622A7.623,7.623,0,0,0,37.4,25.85" transform="translate(18.459 -8.31)" fill="#ffb357"/>
        <path id="Trazado_179668" data-name="Trazado 179668" d="M439.418,549.148a16.359,16.359,0,1,0-16.36-16.36,16.377,16.377,0,0,0,16.36,16.36m0-30.634a14.274,14.274,0,1,1-14.275,14.274,14.289,14.289,0,0,1,14.275-14.274" transform="translate(-275.964 -235.438)" fill="#12263f"/>
        <g id="Grupo_174319" data-name="Grupo 174319" transform="translate(155.748 292.816)">
          <path id="Trazado_179669" data-name="Trazado 179669" d="M448.581,547.231H440.8a1.84,1.84,0,0,1-1.84-1.839V540a1.839,1.839,0,0,1,1.84-1.839h7.779A1.839,1.839,0,0,1,450.42,540v5.391a1.839,1.839,0,0,1-1.839,1.839" transform="translate(-438.962 -538.162)" fill="#12263f"/>
          <path id="Trazado_179670" data-name="Trazado 179670" d="M460.475,540.566l-5.858,2.724a.614.614,0,0,0-.008,1.11l5.858,2.832a.614.614,0,0,0,.881-.553v-5.557a.614.614,0,0,0-.873-.557" transform="translate(-445.937 -539.231)" fill="#12263f"/>
        </g>
        <path id="Trazado_179671" data-name="Trazado 179671" d="M350.894,526.561a15.317,15.317,0,1,0,20.671-6.473,15.316,15.316,0,0,0-20.671,6.473" transform="translate(-159.758 -236.309)" fill="#fc5f65"/>
        <path id="Trazado_179672" data-name="Trazado 179672" d="M380.106,537.809c-1.2-1.816-3.817-5.236-5.956-4.117l-13.3,6.958c-2.138,1.118-.824,5.222-.016,7.24.244.608.817.968,1.217.758l5.007-2.619c.36-.188.429-.766.155-1.29l-.377-.722c-.274-.525-.205-1.1.155-1.291l5.367-2.807c.36-.188.873.084,1.148.609l.377.722c.274.524.788.8,1.148.609l5.008-2.619c.4-.209.431-.886.071-1.432" transform="translate(-166.062 -243.207)" fill="#fff0f0"/>
        <path id="Trazado_179673" data-name="Trazado 179673" d="M287.77,549.148a16.359,16.359,0,1,0-16.358-16.36,16.379,16.379,0,0,0,16.358,16.36m0-30.634A14.274,14.274,0,1,1,273.5,532.788a14.291,14.291,0,0,1,14.273-14.274" transform="translate(-41.807 -235.438)" fill="#12263f"/>
        <path id="Trazado_179674" data-name="Trazado 179674" d="M295.98,536.375a2.994,2.994,0,1,0,2.995-2.994,2.995,2.995,0,0,0-2.995,2.994" transform="translate(-53.013 -243.166)" fill="#12263f"/>
        <path id="Trazado_179675" data-name="Trazado 179675" d="M288.034,552.666h13.329a1.47,1.47,0,0,0,1.414-1.817,8.273,8.273,0,0,0-16.179.145,1.433,1.433,0,0,0,1.436,1.671" transform="translate(-48.74 -248.179)" fill="#12263f"/>
        <rect id="Rectángulo_44996" data-name="Rectángulo 44996" width="14.208" height="21.57" transform="translate(270.48 283.701)" fill="#fff0f0"/>
      </g>
    </g>
    <g id="Grupo_174316" data-name="Grupo 174316" transform="translate(126.338 313.069)">
      <g id="Grupo_173798" data-name="Grupo 173798" transform="translate(0 0)">
        <rect id="Rectángulo_44603" data-name="Rectángulo 44603" width="158.826" height="42.458" rx="21.229" fill="#3c3fa7"/>
      </g>
      <path id="Trazado_179676" data-name="Trazado 179676" d="M2.187,2.255A1.6,1.6,0,0,1,.922,1.794,1.789,1.789,0,0,1,.516.568,1.442,1.442,0,0,1,.754-.22a2.163,2.163,0,0,1,.653-.645.563.563,0,0,0,.175-.223,2.015,2.015,0,0,0,.135-.358,2.584,2.584,0,0,0,.08-.422,1.527,1.527,0,0,0-.008-.414q-.111-.892-.167-1.871T1.55-6.094q-.016-.963-.016-1.879v-1.7q0-3.486.279-6.933t.724-6.487a1.611,1.611,0,0,1,.35-.756,1,1,0,0,1,.828-.358,2.117,2.117,0,0,1,.876.159.931.931,0,0,1,.446.334,2.222,2.222,0,0,1,.151.828q.04.637.04,1.568t-.04,2.085q-.04,1.154-.1,2.38T4.973-14.4q-.064,1.226-.119,2.308t-.1,1.95q-.04.868-.04,1.361V-6.97q0,.645.008,1.369T4.75-4.176a4.441,4.441,0,0,0,.207,1.3.738.738,0,0,0,.78.486A1.652,1.652,0,0,0,6.1-2.441q.764-.143,1.576-.239t1.552-.151q.74-.056,1.337-.072t.915-.016A2.707,2.707,0,0,1,12.3-2.8a2.2,2.2,0,0,1,.677.342,1.612,1.612,0,0,1,.462.541,1.484,1.484,0,0,1,.167.7.949.949,0,0,1-.287.748,1.629,1.629,0,0,1-.7.358,4.227,4.227,0,0,1-.884.119q-.47.016-.836.048Q10.609.09,9.964.17T8.5.369q-.82.119-1.711.279T5.132,1A10.905,10.905,0,0,0,3.819,1.4a1.281,1.281,0,0,0-.677.454.666.666,0,0,1-.406.3A1.787,1.787,0,0,1,2.187,2.255ZM17.1.7A3.058,3.058,0,0,1,15.647.369,3.1,3.1,0,0,1,14.6-.539,4.747,4.747,0,0,1,13.92-1.9a10.849,10.849,0,0,1-.4-1.7,18.243,18.243,0,0,1-.191-1.942q-.048-1.019-.048-2.054,0-.255.016-.78t.08-1.17q.064-.645.191-1.329a6.789,6.789,0,0,1,.35-1.25,2.909,2.909,0,0,1,.565-.931,1.083,1.083,0,0,1,.82-.366,1.281,1.281,0,0,1,.565.135,1.564,1.564,0,0,1,.486.366,1.86,1.86,0,0,1,.334.541,1.723,1.723,0,0,1,.127.661q0,.685-.064,1.4T16.618-8.88q-.072.724-.135,1.457t-.064,1.449q0,.239.008.6t.056.764a7.232,7.232,0,0,0,.143.812,3.217,3.217,0,0,0,.263.732,1.55,1.55,0,0,0,.422.525.978.978,0,0,0,.621.2,1.411,1.411,0,0,0,1.114-.517,4.124,4.124,0,0,0,.732-1.321,9.759,9.759,0,0,0,.438-1.775q.151-.971.215-1.886T20.5-9.5q.008-.74.008-1.075a5.152,5.152,0,0,1,.08-.907,2.805,2.805,0,0,1,.255-.788,1.549,1.549,0,0,1,.454-.549,1.077,1.077,0,0,1,.661-.207,1.049,1.049,0,0,1,.693.231,1.73,1.73,0,0,1,.454.6,3.168,3.168,0,0,1,.255.8,4.757,4.757,0,0,1,.08.852q0,1.289-.048,2.452t-.1,2.308q-.048,1.146-.1,2.316T23.153-.992a3.3,3.3,0,0,1-.4,1.871,1.224,1.224,0,0,1-1.035.549,1.948,1.948,0,0,1-.844-.143.891.891,0,0,1-.406-.366,1.152,1.152,0,0,1-.135-.478Q20.32.186,20.32-.037A1.022,1.022,0,0,0,20.264-.4a.235.235,0,0,0-.247-.143.673.673,0,0,0-.43.191q-.223.191-.541.43a3.576,3.576,0,0,1-.78.43A3.058,3.058,0,0,1,17.1.7Zm7.228-6.527a11.773,11.773,0,0,1,.414-3.152,9.135,9.135,0,0,1,1.162-2.627,6.034,6.034,0,0,1,1.823-1.807,4.377,4.377,0,0,1,2.38-.677,2.8,2.8,0,0,1,1.481.406,4.336,4.336,0,0,1,1.146,1,4.832,4.832,0,0,1,.74,1.274,3.442,3.442,0,0,1,.263,1.234,4.36,4.36,0,0,1-.072.708,8.992,8.992,0,0,1-.2.884,8.989,8.989,0,0,1-.31.923,6.716,6.716,0,0,1-.39.828,2.611,2.611,0,0,1-.446.6.711.711,0,0,1-.494.231.931.931,0,0,1-.422-.119,1.687,1.687,0,0,1-.438-.334,2.073,2.073,0,0,1-.35-.494,1.287,1.287,0,0,1-.143-.6,2.278,2.278,0,0,1,.08-.6q.08-.295.167-.613t.167-.653a3.087,3.087,0,0,0,.08-.716,3.237,3.237,0,0,0-.024-.366,1.467,1.467,0,0,0-.1-.4.763.763,0,0,0-.247-.318.7.7,0,0,0-.438-.127,1.359,1.359,0,0,0-.979.494,4.461,4.461,0,0,0-.828,1.329,9.6,9.6,0,0,0-.573,1.934,11.917,11.917,0,0,0-.215,2.292,7.805,7.805,0,0,0,.183,1.839,3.482,3.482,0,0,0,.494,1.178,1.774,1.774,0,0,0,.724.621,2.141,2.141,0,0,0,.876.183,3.453,3.453,0,0,0,1.393-.31,8.714,8.714,0,0,0,1.409-.788q.7-.478,1.345-1.019t1.186-1.019q.541-.478.947-.788a1.22,1.22,0,0,1,.613-.31q.573,0,.724.366a2.587,2.587,0,0,1,.151.971,2.106,2.106,0,0,1-.334,1.011,6.626,6.626,0,0,1-.915,1.2A11.572,11.572,0,0,1,35-.929,12.4,12.4,0,0,1,33.326.162a9.954,9.954,0,0,1-1.855.78,6.481,6.481,0,0,1-1.9.295A4.5,4.5,0,0,1,27.34.7,4.9,4.9,0,0,1,25.7-.8a7.142,7.142,0,0,1-1.019-2.245A10.6,10.6,0,0,1,24.331-5.832ZM46.667-1.47a3.7,3.7,0,0,1,.048,1.114,2.225,2.225,0,0,1-.231.78,1.167,1.167,0,0,1-.422.454,1.043,1.043,0,0,1-.541.151A.946.946,0,0,1,44.86.775a2.191,2.191,0,0,1-.47-.629,4.616,4.616,0,0,1-.318-.812q-.127-.438-.223-.812t-.167-.629q-.072-.255-.167-.255a.64.64,0,0,0-.422.231,6.122,6.122,0,0,0-.5.581q-.271.35-.6.756a5.787,5.787,0,0,1-.732.756,3.9,3.9,0,0,1-.9.581A2.523,2.523,0,0,1,39.28.775,2.612,2.612,0,0,1,37.8.329,3.985,3.985,0,0,1,36.653-.865a6.165,6.165,0,0,1-.74-1.719,7.709,7.709,0,0,1-.263-2.022,10.049,10.049,0,0,1,.207-1.95,12.887,12.887,0,0,1,.6-2.07,11.472,11.472,0,0,1,.971-1.966,8.434,8.434,0,0,1,1.337-1.664,6.2,6.2,0,0,1,1.68-1.154,4.694,4.694,0,0,1,2.006-.43,3.618,3.618,0,0,1,1.528.295,3.128,3.128,0,0,1,1.075.8,4.026,4.026,0,0,1,.7,1.194,8.194,8.194,0,0,1,.406,1.473,13.326,13.326,0,0,1,.191,1.632q.048.844.048,1.672,0,.812.024,1.608t.056,1.5q.032.708.088,1.274T46.667-1.47ZM38.818-3.985a2.2,2.2,0,0,0,.263,1.178q.263.414.486.414a1.44,1.44,0,0,0,.86-.318,4.628,4.628,0,0,0,.844-.836,8.336,8.336,0,0,0,.772-1.162,12.643,12.643,0,0,0,.629-1.3,10.446,10.446,0,0,0,.43-1.234,3.826,3.826,0,0,0,.159-.979q0-.016-.008-.175t-.04-.39q-.032-.231-.1-.5a2.1,2.1,0,0,0-.191-.509,1.223,1.223,0,0,0-.318-.39.721.721,0,0,0-.462-.151,1.288,1.288,0,0,0-.82.334,4.025,4.025,0,0,0-.772.884,9.27,9.27,0,0,0-.685,1.234,12.438,12.438,0,0,0-.549,1.393,12.565,12.565,0,0,0-.366,1.369A5.8,5.8,0,0,0,38.818-3.985Zm8.756,2.213a1.547,1.547,0,0,1,.271-.931.757.757,0,0,1,.6-.374.691.691,0,0,1,.454.183q.215.183.5.4a3.581,3.581,0,0,0,.7.4,2.563,2.563,0,0,0,1.035.183q.1,0,.342-.024a1.428,1.428,0,0,0,.5-.151,1.264,1.264,0,0,0,.446-.382,1.2,1.2,0,0,0,.191-.732,1.5,1.5,0,0,0-.326-.995,3.4,3.4,0,0,0-.828-.7q-.5-.31-1.083-.6A6.016,6.016,0,0,1,49.3-6.182a3.55,3.55,0,0,1-.844-.971A3.007,3.007,0,0,1,48.084-8.6a4.572,4.572,0,0,1,.31-1.719,4.7,4.7,0,0,1,.963-1.544,4.836,4.836,0,0,1,1.568-1.106,5.018,5.018,0,0,1,2.093-.422,5.127,5.127,0,0,1,.844.072,2.742,2.742,0,0,1,.78.247,1.516,1.516,0,0,1,.573.494,1.413,1.413,0,0,1,.223.828,3.09,3.09,0,0,1-.04.454,2.055,2.055,0,0,1-.151.517,1.259,1.259,0,0,1-.3.43.7.7,0,0,1-.494.175.958.958,0,0,1-.366-.072q-.175-.072-.35-.159t-.358-.159a1.105,1.105,0,0,0-.406-.072,1.724,1.724,0,0,0-.629.135,2.294,2.294,0,0,0-.629.374,2.181,2.181,0,0,0-.478.557,1.28,1.28,0,0,0-.191.669,1.208,1.208,0,0,0,.342.836,5.5,5.5,0,0,0,.852.74q.509.366,1.1.772a7.292,7.292,0,0,1,1.1.931,4.772,4.772,0,0,1,.852,1.218,3.643,3.643,0,0,1,.342,1.632A3.335,3.335,0,0,1,55.176-.96,3.534,3.534,0,0,1,54.038.178a4.6,4.6,0,0,1-1.481.589,7.167,7.167,0,0,1-1.465.167A4.332,4.332,0,0,1,49.469.663a3.381,3.381,0,0,1-1.09-.677,2.556,2.556,0,0,1-.613-.876A2.351,2.351,0,0,1,47.574-1.772Z" transform="translate(50.953 29.09)" fill="#ffd947"/>
    </g>
  </g>
</svg>
