<svg xmlns="http://www.w3.org/2000/svg" xmlns:xlink="http://www.w3.org/1999/xlink" width="89" height="85" viewBox="0 0 89 85">
  <defs>
    <clipPath id="clip-path">
      <rect id="Rectangle_45276" data-name="Rectangle 45276" width="47.559" height="59.477" fill="none"/>
    </clipPath>
  </defs>
  <g id="_21" data-name="21" transform="translate(-4935 9851)">
    <g id="_21-2" data-name="21" transform="translate(4935 -9851)">
      <rect id="Rectangle_40797" data-name="Rectangle 40797" width="89" height="85" rx="15" fill="#ffd947"/>
    </g>
    <g id="Group_174982" data-name="Group 174982" transform="translate(4956 -9838)">
      <g id="Group_174982-2" data-name="Group 174982" clip-path="url(#clip-path)">
        <path id="Path_183092" data-name="Path 183092" d="M60.321,0c.927.725,1,1.155.348,2.186-.809,1.289-1.618,2.579-2.485,3.961.741,0,1.4,0,2.064,0,.679,0,1.082.322,1.092.851.011.547-.413.886-1.12.889-.871,0-1.741-.011-2.611.005-.584.011-1.136-.029-1.462-.6-.34-.6-.058-1.1.265-1.61C57.15,4.525,57.874,3.362,58.6,2.2c.077-.124.21-.226.2-.457-.612,0-1.222-.013-1.831,0-.492.014-.95-.035-1.156-.56s.1-.865.448-1.187Z" transform="translate(-31.999)"/>
        <path id="Path_183093" data-name="Path 183093" d="M.825,26.866A1,1,0,0,1,0,25.718,24.048,24.048,0,0,1,11.766,6.153a2.175,2.175,0,0,1,2.51-.022,2.212,2.212,0,0,1,1.038,2.184,5.017,5.017,0,0,1-.386,1.209,18.678,18.678,0,0,0,3.329,19.182.593.593,0,0,0,.816.22c1.232-.5,2.485-.952,3.732-1.415a4.59,4.59,0,0,1,6.369,3.32c.083.319.229.362.515.365a22.519,22.519,0,0,1,4.11.175,9.294,9.294,0,0,1,4.81,2.5.592.592,0,0,0,.747.143,19.134,19.134,0,0,0,4.45-2.453,2.3,2.3,0,0,1,3.62,2.57A23.875,23.875,0,0,1,43.4,41.841,17.175,17.175,0,0,1,42,43.468a1.515,1.515,0,0,0-.47,1.229c.032,1.083.014,2.168.008,3.252,0,.722-.189.946-.9,1.133a.83.83,0,0,1-.961-.814,12.206,12.206,0,0,1-.02-1.333c0-1.953.01-3.906,0-5.859A7.915,7.915,0,0,0,37.8,35.771,7.4,7.4,0,0,0,33.127,33.2a22.084,22.084,0,0,0-3.072-.116c-.492-.018-.636.207-.633.663.011,1.762.006,3.524,0,5.285a6.217,6.217,0,0,1-.017.7,1.041,1.041,0,0,1-.86.961A1.076,1.076,0,0,1,27.455,40a2.473,2.473,0,0,1-.121-.973c0-2.4.008-4.8,0-7.2A2.657,2.657,0,0,0,25,29.08a2.329,2.329,0,0,0-1.2.113c-.95.332-1.889.7-2.831,1.05-.583.219-.609.325-.128.7a6.663,6.663,0,0,1,2.1,2.732,6.305,6.305,0,0,1,.457,2.437q-.008,11.5,0,23c0,.135,0,.271,0,.406.006,1.168.169,1.327,1.357,1.329s2.362,0,3.542,0a5.027,5.027,0,0,0,4.6-3.464,7.017,7.017,0,0,0,.269-1.887c.02-3.168-.021-6.337.021-9.506.215-.616.57-.906,1.059-.869a1.13,1.13,0,0,1,.977,1.059,6.444,6.444,0,0,1,.028.865c.02,2.021-.04,4.043.034,6.061.08.25.291.214.48.214A3.726,3.726,0,0,0,38.9,51.916a2.216,2.216,0,0,1,.5-.556c.311-.2.637-.38.984-.055.62.543.674.872.2,1.539a5.369,5.369,0,0,1-4.841,2.339c-.592-.021-.712.144-.714.717a6.87,6.87,0,0,1-6.858,6.867q-2.032.015-4.064,0a2.533,2.533,0,0,1-2.626-2.639c-.01-2.787-.018-5.574.01-8.36.006-.532-.1-.737-.676-.826A24.053,24.053,0,0,1,3.8,39.928a23.343,23.343,0,0,1-3.569-9.52c-.109-.729.042-.984.7-1.261.437-.2.72.032.975.346a1.309,1.309,0,0,1,.193.518A22.079,22.079,0,0,0,7.449,41.645a22.52,22.52,0,0,0,11.5,7.033c.617.162,1.248.265,1.878.374.361.063.5-.066.492-.424-.009-.87,0-1.741-.007-2.612,0-3.212-.035-6.424.013-9.635a4.583,4.583,0,0,0-1.813-3.828A20.523,20.523,0,0,1,12.5,21.863a20.534,20.534,0,0,1,.581-12.827c.074-.2.163-.394.228-.6.074-.227.126-.465-.094-.64-.2-.163-.409-.052-.593.056a15.582,15.582,0,0,0-1.405.925,22.181,22.181,0,0,0-9.194,15.7c-.059.478-.109.96-.149,1.441a1.061,1.061,0,0,1-.52.917c-.173.059-.345.173-.528.022" transform="translate(0 -3.297)"/>
        <path id="Path_183094" data-name="Path 183094" d="M85.128,88.108a1.082,1.082,0,0,0-1.26.565,3.8,3.8,0,0,1-4.043,1.492.319.319,0,0,1,.142-.1c1.417-.223,1.843-1.332,2.172-2.487a5.839,5.839,0,0,0,.176-1.611c-.007-2.67.017-5.341-.009-8.011a8.567,8.567,0,0,0-3.849-7.517c-.216-.144-.486-.265-.512-.586a7.673,7.673,0,0,1,6.5,6.647c.224,2.406.045,4.823.09,7.235.006.347.016.7,0,1.042a.939.939,0,0,0,.848,1.1,5.148,5.148,0,0,1-.256,2.223" transform="translate(-44.743 -40.1)" fill="#bdd8fc"/>
        <path id="Path_183095" data-name="Path 183095" d="M69.791,37.279c.765,0,1.419-.005,2.072,0,.679.007,1.059.33,1.055.883s-.364.853-1.07.857c-.987.005-1.974.01-2.96,0A1.173,1.173,0,0,1,67.845,37.1c.854-1.378,1.721-2.747,2.647-4.223-.805,0-1.526.015-2.246,0a.858.858,0,0,1-.9-.966.848.848,0,0,1,.884-.762c1.1-.017,2.207-.04,3.308.006A1.157,1.157,0,0,1,72.459,33c-.852,1.4-1.732,2.779-2.668,4.275" transform="translate(-38.651 -17.866)"/>
        <path id="Path_183096" data-name="Path 183096" d="M94.039,19.911c.757,0,1.41-.008,2.063,0,.685.01,1.062.333,1.056.884s-.376.849-1.076.854c-.986.007-1.972.015-2.958,0a1.173,1.173,0,0,1-1.048-1.917c.761-1.231,1.539-2.451,2.3-3.679a.79.79,0,0,0,.222-.529c-.55,0-1.1,0-1.649,0a3.9,3.9,0,0,1-.636-.032.8.8,0,0,1-.732-.886.752.752,0,0,1,.756-.8c1.2-.027,2.4-.057,3.593.015a1.124,1.124,0,0,1,.766,1.806c-.752,1.237-1.534,2.454-2.3,3.68-.1.161-.194.326-.358.6" transform="translate(-52.572 -7.908)"/>
        <path id="Path_183097" data-name="Path 183097" d="M1.938,55.205l.427-.093A6.892,6.892,0,0,1,2.944,57.9a1.113,1.113,0,0,0-.906-.413q-.05-1.141-.1-2.281" transform="translate(-1.112 -31.636)" fill="#e7a42e"/>
        <path id="Path_183098" data-name="Path 183098" d="M3.519,31.923a20,20,0,0,1-.579-2.788A1.2,1.2,0,0,0,3.446,28.1a22.275,22.275,0,0,1,10.7-17.957c.288-.185.581-.448.935-.133s.156.636.03.959a20.569,20.569,0,0,0,6.2,23.82,4.727,4.727,0,0,1,1.871,3.92c-.035,3.231-.024,6.462-.032,9.694a1.523,1.523,0,0,1-1.014-.018A23.655,23.655,0,0,1,3.991,33.594c-.152-.394-.208-.816-.336-1.218q-.068-.226-.136-.453" transform="translate(-1.688 -5.659)" fill="#edbf6b"/>
        <path id="Path_183099" data-name="Path 183099" d="M60.209,64.213A10.5,10.5,0,0,1,63.5,67.478a9.264,9.264,0,0,1,1.225,4.578c.044,2.845.015,5.69.011,8.536a5.043,5.043,0,0,1-1.316,3.54,1.573,1.573,0,0,1-1.332.39l-.035-6.438c0-.193,0-.387,0-.581-.011-.624-.273-1.013-.764-1.06a.864.864,0,0,0-.99.766c-.081,1.522-.018,3.046-.033,4.568-.011,1.081-.014,2.162,0,3.242.006.342-.082.518-.441.609-1.1.276-1.331.575-1.443,1.713a6.284,6.284,0,0,1-2.022,4.231,2.05,2.05,0,0,1-1.033.593c-1.412.007-2.823.023-4.235.017a.8.8,0,0,1-.866-.871c-.009-.174,0-.348,0-.522,0-7.7-.024-15.4.014-23.1a6.513,6.513,0,0,0-2.658-5.566,1.363,1.363,0,0,1-.537-.553c1.271-.476,2.512-1,3.791-1.4a2.831,2.831,0,0,1,3.693,2.713c.033,2.515.009,5.03.011,7.545a2.861,2.861,0,0,0,.018.521.86.86,0,0,0,.874.774.838.838,0,0,0,.841-.855c.022-.676.009-1.354.009-2.031q0-2.147,0-4.295c0-.238-.037-.465.336-.449a25.189,25.189,0,0,1,3.589.127" transform="translate(-27.007 -34.457)" fill="#dceafc"/>
        <path id="Path_183100" data-name="Path 183100" d="M4.619,62.721c.408.976.771,1.975,1.234,2.925a23.8,23.8,0,0,0,3.76,5.531,23.426,23.426,0,0,0,14.494,7.566c.008.967,0,1.934.031,2.9.01.349-.128.363-.413.322A22.761,22.761,0,0,1,4.749,63.752c-.063-.34-.087-.687-.13-1.031" transform="translate(-2.651 -36.004)" fill="#e8a42d"/>
        <path id="Path_183101" data-name="Path 183101" d="M99.373,69.3a.469.469,0,0,1,.414.633,22.476,22.476,0,0,1-4.264,7.915,10.084,10.084,0,0,0-1.49-5.727l1.86-.832c.6.381.75,1.084,1.142,1.655A24.174,24.174,0,0,0,98.9,69.93c.118-.238.193-.513.472-.633" transform="translate(-53.978 -39.779)" fill="#e8a42d"/>
        <path id="Path_183102" data-name="Path 183102" d="M66.5,115.319a6.076,6.076,0,0,0,2.895-4.976,1.628,1.628,0,0,1,1.511-1.716c.455-.045.473-.243.472-.587q-.012-3.533,0-7.065c0-.205-.07-.428.09-.612,0,3.346.054,6.693-.012,10.037a5.054,5.054,0,0,1-4.955,4.919" transform="translate(-38.172 -57.612)" fill="#bdd8fc"/>
        <path id="Path_183103" data-name="Path 183103" d="M101.88,69.258A22.771,22.771,0,0,1,99.5,73.182a14.7,14.7,0,0,0-1.1-1.936,25.7,25.7,0,0,0,2.953-1.854.522.522,0,0,1,.527-.134" transform="translate(-56.485 -39.74)" fill="#edbf6a"/>
      </g>
    </g>
  </g>
</svg>
