<svg xmlns="http://www.w3.org/2000/svg" xmlns:xlink="http://www.w3.org/1999/xlink" width="89" height="85" viewBox="0 0 89 85">
  <defs>
    <clipPath id="clip-path">
      <rect id="Rectangle_45277" data-name="Rectangle 45277" width="52.717" height="64.303" fill="none"/>
    </clipPath>
  </defs>
  <g id="_22" data-name="22" transform="translate(-698 -4457)">
    <g id="Group_165391" data-name="Group 165391" transform="translate(698 4457)">
      <rect id="Rectangle_40797" data-name="Rectangle 40797" width="89" height="85" rx="15" fill="#ffd947"/>
    </g>
    <g id="Group_174983" data-name="Group 174983" transform="translate(716 4467)">
      <g id="Group_174983-2" data-name="Group 174983" clip-path="url(#clip-path)">
        <path id="Path_183104" data-name="Path 183104" d="M28.448,63.388a1.053,1.053,0,0,1-1.209.915c-6.069-.01-12.139,0-18.208-.01a4.111,4.111,0,0,1-3.615-6.227,1.483,1.483,0,0,0,.167-.775q0-4.96,0-9.92A9.275,9.275,0,0,1,11.82,38.3c3.811-1.474,7.613-2.973,11.424-4.447a.7.7,0,0,0,.511-.714,3.11,3.11,0,0,0-1.175-2.968,8.331,8.331,0,0,1-2.7-5.037c-.083-.455-.2-.706-.766-.819A4.368,4.368,0,0,1,16.6,17.11c.27-.32.275-.5.016-.81a2.878,2.878,0,0,1-.694-1.847,77.957,77.957,0,0,1,.076-8.092A7.1,7.1,0,0,1,21.887.122c.1-.018.211-.006.265-.122H33.705a.746.746,0,0,0,.2.108,3.806,3.806,0,0,1,3.3,3.151.979.979,0,0,0,1.124.889,3.7,3.7,0,0,1,3.691,3.181,11.524,11.524,0,0,1,.062,1.815c0,.638-.445.875-.963,1.04a.887.887,0,0,1-1.048-.857c-.049-.373-.01-.751-.03-1.126a1.856,1.856,0,0,0-2-1.995,2.72,2.72,0,0,1-2.74-2.149c-.333-1.409-.97-1.988-2.716-1.991q-4.038-.008-8.076,0a16.941,16.941,0,0,0-1.943.047,5.264,5.264,0,0,0-4.626,5.319c-.022,2.112-.012,4.225,0,6.338A1.734,1.734,0,0,0,19.8,15.744c.751.057,1.505.016,2.258.022,2.719.022,5.438.006,8.158.007a1.492,1.492,0,0,0,.5-.052,5.3,5.3,0,0,0,4.054-2.535,2.431,2.431,0,0,1,.4-.484,1.206,1.206,0,0,1,2.052.621c.061.244.053.5.126.742a2.153,2.153,0,0,0,1.666,1.616.777.777,0,0,0,1.046-.757c.051-.479-.018-.963.038-1.442a.835.835,0,0,1,1.159-.812.9.9,0,0,1,.83.941,7.034,7.034,0,0,1-.1,2.184.509.509,0,0,0,.222.618,4.489,4.489,0,0,1-2.185,7.953c-.3.056-.4.169-.45.465A9.776,9.776,0,0,1,35.932,31a.7.7,0,0,0-.3.634c.027.666-.184,1.452.1,1.967s1.153.566,1.77.805c3.495,1.361,7,2.7,10.494,4.061a9.2,9.2,0,0,1,5.781,8.3c.052,3.492.019,6.987.014,10.48a1.842,1.842,0,0,0,.245.941,4.108,4.108,0,0,1-3.516,6.1c-6.15.034-12.3.009-18.45.016a1.024,1.024,0,0,1-1.145-.913.893.893,0,0,1,.729-1.093,3.433,3.433,0,0,1,.936-.067q5.145,0,10.29,0a1.066,1.066,0,0,0,.748-.112,3.1,3.1,0,0,0-.538-.756c-.842-1.067-1.709-2.115-2.54-3.19a1.421,1.421,0,0,0-1.231-.595q-9.631.015-19.262,0a1.268,1.268,0,0,0-1.109.447C17.921,59.316,16.88,60.6,15.855,61.9a.243.243,0,0,0-.07.245c.211.159.469.082.708.082q5.145.008,10.29,0a3.433,3.433,0,0,1,.936.067.893.893,0,0,1,.728,1.093" transform="translate(-3.329)"/>
        <path id="Path_183105" data-name="Path 183105" d="M78.1,16.823c-.778.067-1.021.323-1.034,1.1-.007.4.008.8-.005,1.192a.851.851,0,0,1-1.112.909A2.313,2.313,0,0,1,73.978,17.9c-.049-.638-.265-1.109-.916-1.247-.634-.134-.994.259-1.3.754a5.1,5.1,0,0,1-4.068,2.578,1.37,1.37,0,0,1-.617.048q-3.636.005-7.271,0c-.839,0-1.1-.209-1.3-1.025a3.131,3.131,0,0,1-.061-.748c0-2.382-.025-4.765.007-7.146a6.225,6.225,0,0,1,2.047-4.5,2.734,2.734,0,0,1,.9-.562c2.839-.006,5.678-.037,8.517-.007a2.149,2.149,0,0,1,2.378,1.934,2.616,2.616,0,0,0,2.779,2.191,1.9,1.9,0,0,1,2,1.884,6.574,6.574,0,0,1,0,1,1.074,1.074,0,0,0,.916,1.274,10.708,10.708,0,0,0,.124,2.486" transform="translate(-40.182 -4.153)" fill="#7b6c79"/>
        <path id="Path_183106" data-name="Path 183106" d="M51.272,189.764c-.182-.77-.424-.973-1.207-.973q-5.619,0-11.237,0h-.8c.482-.607.9-1.139,1.324-1.667.8-1,1.606-1.983,2.393-2.987a.826.826,0,0,1,.727-.368q10.044.017,20.089.007a.656.656,0,0,1,.608.218c1.243,1.571,2.5,3.13,3.838,4.8h-.753q-5.65,0-11.3,0c-.783,0-1.027.205-1.205.974H51.272" transform="translate(-26.153 -126.376)" fill="#60b8fd"/>
        <path id="Path_183107" data-name="Path 183107" d="M2.687,93.147c-.563,0-1.127.012-1.69,0a.94.94,0,1,1,.009-1.875c1.147-.017,2.295-.015,3.442,0a.943.943,0,1,1-.009,1.877c-.584.012-1.168,0-1.752,0" transform="translate(0 -62.757)"/>
        <path id="Path_183108" data-name="Path 183108" d="M154.026,91.269c.542,0,1.085-.008,1.627,0a.974.974,0,0,1,1.079.959.957.957,0,0,1-1.051.919q-1.69.015-3.379,0a.943.943,0,1,1-.028-1.877c.584-.016,1.168,0,1.752,0" transform="translate(-104.016 -62.762)"/>
        <path id="Path_183109" data-name="Path 183109" d="M6.823,69.369a1.323,1.323,0,0,1,.649.2c.936.542,1.875,1.08,2.807,1.63a.978.978,0,0,1,.49,1.358.96.96,0,0,1-1.409.276c-.98-.55-1.951-1.116-2.923-1.678a.926.926,0,0,1-.485-1.11.892.892,0,0,1,.872-.678" transform="translate(-4.066 -47.705)"/>
        <path id="Path_183110" data-name="Path 183110" d="M151.879,110.171a.9.9,0,0,1-1.306.853c-1.123-.588-2.222-1.23-3.294-1.907a.836.836,0,0,1-.216-1.221.812.812,0,0,1,1.132-.361c1.116.6,2.209,1.249,3.3,1.892a.8.8,0,0,1,.382.744" transform="translate(-101.018 -73.877)"/>
        <path id="Path_183111" data-name="Path 183111" d="M10.86,108.5a.9.9,0,0,1-.451.774c-1.025.6-2.044,1.2-3.081,1.779a.913.913,0,0,1-1.3-.313.922.922,0,0,1,.4-1.328c.983-.585,1.972-1.162,2.975-1.713a.924.924,0,0,1,1.458.8" transform="translate(-4.044 -73.957)"/>
        <path id="Path_183112" data-name="Path 183112" d="M150.924,69.366a.9.9,0,0,1,.9.6.841.841,0,0,1-.3,1.062c-1.1.668-2.22,1.313-3.355,1.924a.916.916,0,0,1-.964-1.518,30.586,30.586,0,0,1,3.5-2.027.751.751,0,0,1,.219-.043" transform="translate(-101.011 -47.703)"/>
        <path id="Path_183113" data-name="Path 183113" d="M70.72,51.879c1.233-.011,2.467-.031,3.7-.032,3.09,0,4.09-.362,6.416-2.327a4.4,4.4,0,0,0,1.932,1.88.372.372,0,0,1,.241.389c-.059,2.258.159,4.525-.122,6.773a7.9,7.9,0,0,1-7,6.648,1.4,1.4,0,0,1-1.235-.285,8.922,8.922,0,0,1-4.1-7.5c-.025-1.568-.006-3.137,0-4.706a1.174,1.174,0,0,1,.174-.839" transform="translate(-48.507 -34.055)" fill="#fecdbd"/>
        <path id="Path_183114" data-name="Path 183114" d="M95.887,147.612c-2.556,0-5,0-7.449,0-.136,0-.357.106-.369-.186s.19-.338.39-.409a3.665,3.665,0,0,0,2.488-2.6,3.582,3.582,0,0,0-2.3-4.271.7.7,0,0,1-.558-.8c.036-.793.007-1.589.013-2.384,0-.137-.066-.328.1-.392.15-.057.265.091.372.186a1.791,1.791,0,0,1,.611,1.2c.078.725.473,1.083,1.078,1a.968.968,0,0,0,.793-1.215,3.665,3.665,0,0,0-2.346-3.081c-.134-.058-.276-.094-.413-.145a.351.351,0,0,1-.223-.406c.032-.267.259-.155.4-.158.732-.012,1.464-.006,2.2-.006q3.859,0,7.719,0c1,0,1.348.355,1.35,1.366,0,1.3,0,2.594,0,3.891,0,.286-.048.43-.384.5a5.167,5.167,0,0,0-3.647,7.551c.044.089.086.179.175.364" transform="translate(-60.564 -92.097)" fill="#73d478"/>
        <path id="Path_183115" data-name="Path 183115" d="M110.527,121.819a11.339,11.339,0,0,0,1.3-2.578c.079-.249.231-.23.438-.149,2.758,1.081,5.579,2.027,8.262,3.269a6.824,6.824,0,0,1,4.027,6.265c.116,2.819.025,5.647.025,8.484-.243.011-.291-.208-.393-.334q-2.15-2.659-4.284-5.331a5.137,5.137,0,0,0-2.449-1.777.5.5,0,0,1-.4-.58c.018-1.4.015-2.8.005-4.2a2.927,2.927,0,0,0-3.086-3.063c-1.121-.008-2.242,0-3.453,0" transform="translate(-76.009 -81.862)" fill="#60b8fd"/>
        <path id="Path_183116" data-name="Path 183116" d="M66.325,134.509c-.14.184-.371.178-.558.258a3.665,3.665,0,0,0-2.339,3.4,3.589,3.589,0,0,0,2.372,3.368.723.723,0,0,1,.577.843c-.038.916-.011,1.835-.011,2.839a1.709,1.709,0,0,1-1.051-1.429c-.085-.726-.483-1.13-1.045-1.072s-.906.513-.829,1.25a3.659,3.659,0,0,0,2.4,3.107,2.574,2.574,0,0,0,.354.124c.212.058.237.239.224.4-.019.226-.225.132-.347.132q-3.324,0-6.648-.019a1,1,0,0,1-.2-.766q-.01-5.989,0-11.977c0-.831.055-.865.9-.865q2.885,0,5.769,0c.255,0,.622-.087.438.4" transform="translate(-40.718 -92.219)" fill="#73d477"/>
        <path id="Path_183117" data-name="Path 183117" d="M53,6.056a8.62,8.62,0,0,0-2,2.283,5.833,5.833,0,0,0-.75,2.612c-.021,2.51,0,5.021-.012,7.531a2.4,2.4,0,0,0,.23.959.794.794,0,0,0,.866.537c2.427-.02,4.853-.01,7.28-.009.23,0,.46.009.69.014a1.215,1.215,0,0,1-.733.095q-5.081,0-10.162-.007c-1.513,0-2.17-.67-2.171-2.185,0-2.091-.007-4.182,0-6.273a5.4,5.4,0,0,1,5.575-5.579c.4,0,.794.014,1.191.021" transform="translate(-31.795 -4.15)" fill="#665e68"/>
        <path id="Path_183118" data-name="Path 183118" d="M62.328,56.984c0,1.8,0,3.6,0,5.4a8.807,8.807,0,0,0,4.117,7.572,1.778,1.778,0,0,0,1.047.362,7.916,7.916,0,0,1-7.055-2.569,7.719,7.719,0,0,1-2.095-5.353c-.026-1.65,0-3.3-.011-4.952,0-.313.027-.508.425-.5,1.189.032,2.379.03,3.569.041" transform="translate(-40.115 -39.159)" fill="#feb09f"/>
        <path id="Path_183119" data-name="Path 183119" d="M17.732,137.413l-4.4,5.56c-.2-.185-.111-.382-.112-.551q-.011-3.639,0-7.278a7.505,7.505,0,0,1,5.772-7.666c.1.318-.084.568-.211.824a7.76,7.76,0,0,0-.867,3.746c.04,1.442.008,2.885.01,4.328a2.11,2.11,0,0,1-.186,1.037" transform="translate(-9.078 -87.666)" fill="#1ca7fe"/>
        <path id="Path_183120" data-name="Path 183120" d="M127.107,171.147c-1.107.007-2.215.007-3.323.025a.649.649,0,0,1-.58-.274c-1.967-2.468-3.959-4.915-5.913-7.393a3.289,3.289,0,0,1,4.422-4.773,4.43,4.43,0,0,0-.985,2.454,4.354,4.354,0,0,0,1.165,3.207c1.647,2,3.237,4.037,4.86,6.053.162.2.4.388.354.7" transform="translate(-80.155 -108.755)" fill="#fea58d"/>
        <path id="Path_183121" data-name="Path 183121" d="M15.687,171.126c-.856.007-1.712.02-2.567.018a2.187,2.187,0,0,1-2.081-1.249,2.118,2.118,0,0,1,.27-2.406c1.131-1.447,2.292-2.872,3.443-4.3,1.032-1.286,2.047-2.588,3.106-3.852a3.2,3.2,0,0,1,4.374-.625q-2.775,3.523-5.6,7c-.369.455-.733.915-1.082,1.384a3.018,3.018,0,0,0-.1,3.476c.107.171.293.312.238.554" transform="translate(-7.414 -108.733)" fill="#fea58d"/>
        <path id="Path_183122" data-name="Path 183122" d="M24.584,172.439a3.33,3.33,0,0,1,0-4.473c2.113-2.509,4.113-5.113,6.152-7.683a.53.53,0,0,1,.4-.261,3.22,3.22,0,0,1,.751,4.8c-1.185,1.536-2.42,3.032-3.633,4.546-.6.749-1.255,1.461-1.785,2.256a1.656,1.656,0,0,1-1.877.819" transform="translate(-16.312 -110.046)" fill="#feb09f"/>
        <path id="Path_183123" data-name="Path 183123" d="M135.919,172.443c-1.656-2.085-3.3-4.184-4.978-6.246a5.71,5.71,0,0,1-1.489-2.561,4.27,4.27,0,0,1,.681-3.342.5.5,0,0,1,.393-.266,1.978,1.978,0,0,1,.748.648q3.225,4.008,6.443,8.023a2.184,2.184,0,0,1,.344,2.512,2.117,2.117,0,0,1-2.143,1.231" transform="translate(-88.968 -110.051)" fill="#feb09f"/>
        <path id="Path_183124" data-name="Path 183124" d="M67.364,111.471c-1.8.009-3.591.015-5.386.032a.683.683,0,0,1-.532-.271,8.618,8.618,0,0,1-1.759-2.857c-.146-.382-.021-.5.314-.619.648-.227,1.283-.492,1.922-.746a1.832,1.832,0,0,0,1.374-1.988c.026-1.128.028-1.136,1.111-.793a12.981,12.981,0,0,0,2.956.479,1.009,1.009,0,0,1,.2.763q.01,2.617,0,5.235a1.038,1.038,0,0,1-.2.764" transform="translate(-41.006 -71.542)" fill="#fea58d"/>
        <path id="Path_183125" data-name="Path 183125" d="M84.4,111.3q0-3.381,0-6.762a11.037,11.037,0,0,0,3.675-.7c.34-.138.428-.013.385.285-.252,1.771.636,2.7,2.263,3.1a3.337,3.337,0,0,1,.408.159c1.162.452,1.163.452.6,1.61-.082.169-.176.332-.26.5-.649,1.279-1.5,2.09-3.127,1.87A31.3,31.3,0,0,0,84.4,111.3" transform="translate(-58.042 -71.374)" fill="#feb09f"/>
        <path id="Path_183126" data-name="Path 183126" d="M55.417,134.392c.014-.333-.2-.349-.454-.348-1.986,0-3.973.018-5.958-.008-.523-.006-.5.28-.5.637q.007,6.46.005,12.92H47.252a10.3,10.3,0,0,0,.652-1.812,5.182,5.182,0,0,0-4.047-6.06c-.393-.077-.515-.192-.508-.587.023-1.339,0-2.678.012-4.018a1.051,1.051,0,0,1,1.166-1.17c3.536-.012,7.073-.007,10.609-.017.39,0,.513.111.282.463" transform="translate(-29.81 -92.102)" fill="#4bcd5b"/>
        <path id="Path_183127" data-name="Path 183127" d="M27.683,131.558c0-2.084-.033-4.168.008-6.251a8.2,8.2,0,0,1,1.246-3.684q3.283-1.3,6.566-2.611c.212-.085.348-.071.424.171a9.858,9.858,0,0,0,1.322,2.586c-1.121,0-2.139.053-3.149-.011a3.088,3.088,0,0,0-3.425,3.445c.08,1.25,0,2.51.021,3.765,0,.351-.051.563-.44.677a5.529,5.529,0,0,0-2.574,1.914" transform="translate(-19.029 -81.812)" fill="#60b8fd"/>
        <path id="Path_183128" data-name="Path 183128" d="M47.254,59.166c0,.627-.013,1.255.005,1.881.01.351-.053.514-.452.365a2.561,2.561,0,0,1-1.819-2.046,2.6,2.6,0,0,1,1.1-2.514c.336-.273.695-.11,1.018-.041.295.063.137.392.144.6.021.585.007,1.171.007,1.756Z" transform="translate(-30.916 -38.992)" fill="#fda994"/>
        <path id="Path_183129" data-name="Path 183129" d="M118.532,60.623a2.524,2.524,0,0,1-1.64,3.5c-.288.08-.423.052-.411-.29.025-.683.023-1.368.032-2.052a.686.686,0,0,1,.354-.242,3.445,3.445,0,0,0,1.664-.918" transform="translate(-80.103 -41.69)" fill="#fda58d"/>
        <path id="Path_183130" data-name="Path 183130" d="M118.491,57.655c-.116.549-.608.688-1.019.881a5.9,5.9,0,0,1-1,.278c-.009-.583-.032-1.167-.022-1.75,0-.205-.141-.508.171-.594s.649-.319.994,0a2.512,2.512,0,0,1,.876,1.182" transform="translate(-80.062 -38.722)" fill="#fdb09e"/>
        <path id="Path_183131" data-name="Path 183131" d="M88.142,159.554a1.732,1.732,0,0,1,0,3.215v-3.215" transform="translate(-60.615 -109.725)" fill="#6ecc73"/>
        <path id="Path_183132" data-name="Path 183132" d="M79.8,143.843c0,.418,0,.835,0,1.253,0,.259-.106.291-.3.147a1.69,1.69,0,0,1-.014-2.809c.2-.152.306-.083.309.156,0,.418,0,.835,0,1.253" transform="translate(-54.152 -97.896)" fill="#72d377"/>
      </g>
    </g>
  </g>
</svg>
