<svg xmlns="http://www.w3.org/2000/svg" xmlns:xlink="http://www.w3.org/1999/xlink" width="89" height="85" viewBox="0 0 89 85">
  <defs>
    <clipPath id="clip-path">
      <rect id="Rectangle_45280" data-name="Rectangle 45280" width="59.774" height="59.754" fill="none"/>
    </clipPath>
  </defs>
  <g id="_25" data-name="25" transform="translate(-698 -4457)">
    <g id="Group_165391" data-name="Group 165391" transform="translate(698 4457)">
      <rect id="Rectangle_40797" data-name="Rectangle 40797" width="89" height="85" rx="15" fill="#ffd947"/>
    </g>
    <g id="Group_174986" data-name="Group 174986" transform="translate(712.613 4469.611)">
      <g id="Group_174986-2" data-name="Group 174986" transform="translate(0 0)" clip-path="url(#clip-path)">
        <path id="Path_183188" data-name="Path 183188" d="M38.418,59.754H.838A1.573,1.573,0,0,1,.01,58.178Q.032,29.871.01,1.562A1.58,1.58,0,0,1,.84,0H38.42c.138.23.384.111.574.164a5.855,5.855,0,0,1,4.442,5.831q.009,10,0,20a.738.738,0,0,0,.45.8,3.318,3.318,0,0,1,1.884,3.057q.04,2.361,0,4.724a3.323,3.323,0,0,1-1.878,3.058.741.741,0,0,0-.454.8q.016,7.7,0,15.394a5.865,5.865,0,0,1-4.049,5.661c-.326.1-.685.06-.972.271M8.2,33.947c.884.2,1.159.54,1.16,1.459V56.878c0,.338-.024.552.46.552q13.886-.025,27.773-.017A3.469,3.469,0,0,0,41.1,53.988c0-.033,0-.066,0-.1.014-5.134,0-10.273.014-15.4,0-.358-.084-.455-.442-.451-1.711.021-3.424,0-5.134.015a1.62,1.62,0,0,1-1.25-.5c-1.45-1.465-2.917-2.914-4.369-4.378a1.182,1.182,0,0,1,0-1.923c1.451-1.463,2.918-2.914,4.369-4.378a1.62,1.62,0,0,1,1.25-.5c1.673.018,3.346-.012,5.017.018.462.009.566-.12.564-.571q-.022-9.86-.011-19.722a3.511,3.511,0,0,0-3.748-3.756q-13.71,0-27.424-.014c-.508,0-.584.151-.582.613q.025,10.707.011,21.413c0,.921-.277,1.263-1.159,1.46a1.228,1.228,0,0,1-1.194-1.26,1.261,1.261,0,0,1,.02-.186q0-10.7.013-21.41c0-.528-.142-.646-.644-.629-1.1.04-2.217.049-3.324,0-.586-.026-.729.132-.729.724q.028,26.842.014,53.67a2.1,2.1,0,0,1,0,.292c-.047.331.1.428.423.422,1.186-.018,2.374-.039,3.559.007.553.021.7-.117.7-.69Q7.013,46.073,7.034,35.4a1.227,1.227,0,0,1,.982-1.43,1.212,1.212,0,0,1,.182-.02m30.951,1.767c.994,0,1.983.007,2.973,0a1.178,1.178,0,0,0,1.31-1.294q.016-2.187,0-4.374A1.186,1.186,0,0,0,42.4,28.721a1.2,1.2,0,0,0-.3,0c-1.983-.007-3.967,0-5.949-.008a.845.845,0,0,0-.663.264c-.966.986-1.937,1.969-2.928,2.927-.272.263-.232.4.014.645q1.464,1.423,2.887,2.887a.89.89,0,0,0,.714.292c.983-.025,1.974-.015,2.967-.015Z" transform="translate(0 0)" fill="#010101"/>
        <path id="Path_183189" data-name="Path 183189" d="M83.655,0h.7a2.045,2.045,0,0,1,.91,1.14q1.162,2.976,2.365,5.933c.735,1.806,1.388,3.645,2.209,5.413V54.968c-.2.085-.159.294-.2.442A5.856,5.856,0,0,1,85.726,59.5c-.3.11-.641.039-.9.25H82.953c-.047-.18-.221-.136-.332-.17a5.833,5.833,0,0,1-4.448-5.938V13.162a2.8,2.8,0,0,1,.21-1.073q2.209-5.5,4.4-11.007A2,2,0,0,1,83.655,0m-.817,30.989v-2.45c0-3.947-.007-7.895.012-11.842,0-.469-.111-.564-.542-.428a1.967,1.967,0,0,1-1.215.011c-.585-.2-.6.066-.6.531q.016,13.587.012,27.181c0,.575-.252,1.343.111,1.67.316.282,1.073.045,1.629.1.493.048.6-.11.6-.6C82.83,40.437,82.838,35.713,82.838,30.989Zm2.334,0V44.055c0,.541-.19,1.265.082,1.577.316.362,1.062.047,1.613.124s.652-.145.65-.663q-.025-14.139-.012-28.288a1.925,1.925,0,0,1,0-.292c.046-.318-.111-.358-.367-.282a2.411,2.411,0,0,1-1.383.044c-.5-.154-.6-.026-.6.48.023,4.748.015,9.492.015,14.234ZM84,52.749H81.794c-1.345,0-1.345,0-1.282,1.345a3.5,3.5,0,0,0,6.25,1.978,4.269,4.269,0,0,0,.758-2.915c-.007-.331-.11-.421-.428-.415-1.031.021-2.058.009-3.087.009Zm.162-43.41c-.684,0-1.249.014-1.812-.007a.442.442,0,0,0-.5.351c-.381.994-.774,1.988-1.194,2.966a.843.843,0,0,0,.355,1.138l.008,0c.774.545,1.682.045,1.82-.994a1.163,1.163,0,0,1,2.324-.02,1.479,1.479,0,0,0,.221.711,1.143,1.143,0,0,0,1.495.375c.546-.29.663-.7.4-1.358-.179-.45-.354-.9-.538-1.351-.24-.591-.332-1.373-.774-1.713-.471-.36-1.273-.062-1.809-.105Zm-.19,41.08c1.049,0,2.1-.011,3.149.007.3,0,.4-.077.388-.386-.024-.542-.018-1.089,0-1.633.009-.256-.071-.331-.331-.331q-3.179.014-6.358,0c-.252,0-.337.066-.332.324.019.545.025,1.089,0,1.633-.013.307.081.394.388.389,1.034-.014,2.064,0,3.093,0ZM85.08,6.99,84.007,4.322,82.942,6.99Z" transform="translate(-30.065 0)" fill="#010101"/>
        <path id="Path_183190" data-name="Path 183190" d="M13.319,27.259c.884-.2,1.159-.54,1.16-1.459q0-10.707-.011-21.413c0-.462.074-.614.582-.614q13.712.028,27.424.015a3.51,3.51,0,0,1,3.748,3.756q0,9.86.011,19.722c0,.45-.1.58-.564.571-1.673-.031-3.346,0-5.017-.018a1.621,1.621,0,0,0-1.25.5c-1.45,1.465-2.917,2.915-4.369,4.378a1.182,1.182,0,0,0,0,1.923C36.483,36.085,37.95,37.534,39.4,39a1.62,1.62,0,0,0,1.25.5c1.712-.017,3.425,0,5.134-.015.364,0,.449.093.442.45-.013,5.135,0,10.273-.013,15.4A3.468,3.468,0,0,1,42.8,58.863h-.1q-13.886.014-27.773.017c-.482,0-.46-.221-.46-.552q.008-10.734,0-21.472c0-.92-.278-1.265-1.159-1.459V32.512c.784-.172,1.173-.581,1.159-1.215-.016-.611-.4-.989-1.159-1.154Zm17.028-18.8h-8.98c-1.126,0-1.518.386-1.518,1.494V18.58c0,1.166.375,1.546,1.524,1.546H39.336c1.127,0,1.518-.386,1.52-1.494V9.943c0-1.086-.4-1.487-1.468-1.487q-4.522-.006-9.041,0Zm0,35.712h6.821c.856,0,1.712.019,2.564-.011a1.147,1.147,0,0,0,1.119-1.173v-.007a1.17,1.17,0,0,0-1.1-1.138c-.156-.012-.311,0-.468,0H21.44a4.526,4.526,0,0,0-.525.009,1.168,1.168,0,0,0-1.057,1.239,1.2,1.2,0,0,0,1.292,1.09l.047,0h9.149Zm0,2.334H21.834c-.29,0-.584-.013-.873.007a1.162,1.162,0,0,0,.007,2.322c.136.012.272,0,.408,0H39.333a3.245,3.245,0,0,0,.524-.018,1.162,1.162,0,0,0-.006-2.3,4.089,4.089,0,0,0-.582-.015Zm-3.5,5.817a1.165,1.165,0,0,0-2.33.022v.016a1.165,1.165,0,0,0,2.33-.027v-.012Zm3.51,1.185a1.166,1.166,0,0,0,0-2.332h-.011a1.166,1.166,0,0,0,0,2.331h.012Zm5.827-1.156a1.166,1.166,0,0,0-2.332-.03v.009a1.166,1.166,0,0,0,2.332.029v-.008Z" transform="translate(-5.119 -1.451)" fill="#d9a171"/>
        <path id="Path_183191" data-name="Path 183191" d="M9.657,32.511V35.4a1.225,1.225,0,0,0-1.193,1.258,1.191,1.191,0,0,0,.02.187q0,10.677.013,21.352c0,.574-.146.711-.7.69-1.185-.046-2.372-.025-3.559-.007-.331,0-.471-.086-.423-.422a2.307,2.307,0,0,0,0-.292q0-26.833-.015-53.67c0-.592.144-.75.729-.724,1.1.052,2.218.042,3.324,0,.5-.017.645.1.644.629q-.03,10.7-.013,21.41a1.226,1.226,0,0,0,.988,1.426,1.261,1.261,0,0,0,.186.02v2.885c-.774.146-1.173.547-1.173,1.182s.388,1.027,1.173,1.19" transform="translate(-1.461 -1.449)" fill="#908686"/>
        <path id="Path_183192" data-name="Path 183192" d="M59.384,53.653c-.994,0-1.988-.011-2.975.007a.891.891,0,0,1-.714-.292q-1.427-1.459-2.887-2.886c-.246-.242-.286-.382-.014-.646.994-.96,1.963-1.942,2.928-2.927a.845.845,0,0,1,.663-.264c1.983.011,3.967,0,5.949.007a1.186,1.186,0,0,1,1.326,1.028,1.2,1.2,0,0,1,0,.3q.012,2.186,0,4.374a1.177,1.177,0,0,1-1.31,1.294c-.984.014-1.975.007-2.966.007M57.81,48.987a1.165,1.165,0,0,0,.039,2.33h.012A1.177,1.177,0,0,0,59,50.1V50.1A1.178,1.178,0,0,0,57.81,48.987Z" transform="translate(-20.233 -17.94)" fill="#fd9155"/>
        <path id="Path_183193" data-name="Path 183193" d="M84.249,41.122c0,4.724-.008,9.448.012,14.174,0,.483-.111.646-.6.6-.553-.053-1.313.185-1.63-.1-.364-.332-.11-1.095-.11-1.67q-.01-13.586-.012-27.181c0-.464.014-.732.6-.531a1.965,1.965,0,0,0,1.215-.011c.431-.135.546-.041.543.428-.02,3.947-.012,7.895-.012,11.842Z" transform="translate(-31.476 -10.134)" fill="#fed98e"/>
        <path id="Path_183194" data-name="Path 183194" d="M89.515,41.115c0-4.743.008-9.487-.011-14.231,0-.507.1-.634.6-.481a2.416,2.416,0,0,0,1.383-.044c.258-.076.414-.036.367.282a1.923,1.923,0,0,0,0,.292q0,14.144.012,28.288c0,.514-.1.734-.65.663s-1.3.239-1.613-.124c-.272-.314-.081-1.036-.082-1.577q-.006-6.536,0-13.069" transform="translate(-34.406 -10.126)" fill="#fed98e"/>
        <path id="Path_183195" data-name="Path 183195" d="M85.454,85.717c1.028,0,2.057.012,3.085-.007.322,0,.421.081.429.415a4.266,4.266,0,0,1-.758,2.915,3.5,3.5,0,0,1-6.25-1.978c-.064-1.346-.064-1.346,1.282-1.346Z" transform="translate(-31.516 -32.966)" fill="#a66d58"/>
        <path id="Path_183196" data-name="Path 183196" d="M85.662,15.125c.535.044,1.338-.256,1.807.111.442.34.534,1.122.773,1.713.183.448.358.9.538,1.351.262.663.14,1.067-.4,1.358a1.142,1.142,0,0,1-1.494-.375,1.47,1.47,0,0,1-.221-.711,1.163,1.163,0,0,0-2.324.02c-.137,1.036-1.047,1.537-1.819.994a.842.842,0,0,1-.368-1.134l0-.009c.426-.976.813-1.969,1.194-2.965a.443.443,0,0,1,.5-.351c.564.015,1.129,0,1.813,0" transform="translate(-31.561 -5.789)" fill="#f8e4cd"/>
        <path id="Path_183197" data-name="Path 183197" d="M85.43,80.467c-1.03,0-2.061-.011-3.093.008-.307,0-.4-.082-.388-.389.025-.543.02-1.088,0-1.633-.008-.258.078-.332.331-.325q3.179.015,6.358,0c.257,0,.332.072.332.331-.018.543-.022,1.089,0,1.633.014.31-.085.391-.389.387-1.05-.023-2.1-.012-3.151-.012" transform="translate(-31.519 -30.05)" fill="#edf9fe"/>
        <path id="Path_183198" data-name="Path 183198" d="M88.058,9.691H85.921l1.066-2.668Z" transform="translate(-33.047 -2.701)" fill="#908686"/>
        <path id="Path_183199" data-name="Path 183199" d="M34.432,11.378h9.04c1.071,0,1.467.4,1.468,1.487v8.688c0,1.1-.393,1.495-1.52,1.495H25.457c-1.149,0-1.524-.381-1.524-1.546V12.871c0-1.1.393-1.494,1.518-1.495Zm0,9.337c2.568,0,5.134-.008,7.7.009.382,0,.481-.1.476-.477q-.03-3.033,0-6.068c0-.382-.1-.476-.477-.475q-7.7.018-15.4,0c-.381,0-.481.1-.476.478q.028,3.033,0,6.068c0,.383.1.479.479.476,2.568-.018,5.135-.01,7.7-.01Z" transform="translate(-9.205 -4.375)"/>
        <path id="Path_183200" data-name="Path 183200" d="M34.434,67.954H25.28a1.2,1.2,0,0,1-1.334-1.038c0-.015,0-.031,0-.047A1.168,1.168,0,0,1,25,65.629a4.67,4.67,0,0,1,.525-.009h17.84c.157,0,.311-.007.467,0a1.17,1.17,0,0,1,1.1,1.138,1.147,1.147,0,0,1-1.111,1.18h-.007c-.853.028-1.709.011-2.565.011Z" transform="translate(-9.207 -25.238)" fill="#000101"/>
        <path id="Path_183201" data-name="Path 183201" d="M34.433,73.2h8.92a4.082,4.082,0,0,1,.582.015,1.162,1.162,0,0,1,.007,2.3,3.323,3.323,0,0,1-.525.018H25.46c-.135,0-.271.007-.407,0a1.162,1.162,0,0,1-.008-2.322c.29-.02.582-.007.874-.007Z" transform="translate(-9.206 -28.154)" fill="#000101"/>
        <path id="Path_183202" data-name="Path 183202" d="M33.852,81.94a1.175,1.175,0,0,1-1.166,1.185h-.012a1.166,1.166,0,0,1,.006-2.332H32.7a1.175,1.175,0,0,1,1.156,1.146" transform="translate(-12.124 -31.075)" fill="#050707"/>
        <path id="Path_183203" data-name="Path 183203" d="M40.279,83.126a1.173,1.173,0,0,1-1.172-1.174v-.014a1.165,1.165,0,0,1,2.33.031v.012a1.179,1.179,0,0,1-1.159,1.145" transform="translate(-15.041 -31.075)" fill="#050707"/>
        <path id="Path_183204" data-name="Path 183204" d="M49.025,81.97a1.178,1.178,0,0,1-1.2,1.156h-.007a1.167,1.167,0,0,1,.07-2.332H47.9a1.177,1.177,0,0,1,1.127,1.177" transform="translate(-17.959 -31.075)" fill="#050707"/>
        <path id="Path_183205" data-name="Path 183205" d="M12.591,49c-.789-.162-1.174-.552-1.173-1.185s.4-1.036,1.173-1.182c.763.166,1.142.545,1.159,1.154.014.632-.377,1.041-1.159,1.213" transform="translate(-4.392 -17.934)" fill="#050707"/>
        <path id="Path_183206" data-name="Path 183206" d="M60.35,50.452a1.163,1.163,0,1,1,.058,2.325H60.4A1.174,1.174,0,0,1,59.21,51.62v-.012a1.174,1.174,0,0,1,1.14-1.156" transform="translate(-22.774 -19.405)" fill="#070402"/>
        <path id="Path_183207" data-name="Path 183207" d="M35.889,22.169c-2.566,0-5.134-.007-7.7.009-.378,0-.482-.092-.479-.476q.032-3.033,0-6.068c0-.382.095-.478.476-.478q7.7.02,15.4,0c.378,0,.482.093.478.475q-.03,3.033,0,6.068c0,.381-.1.481-.476.477-2.566-.015-5.132-.008-7.7-.008" transform="translate(-10.658 -5.83)" fill="#edf9fe"/>
      </g>
    </g>
  </g>
</svg>
