<svg xmlns="http://www.w3.org/2000/svg" xmlns:xlink="http://www.w3.org/1999/xlink" width="89" height="85" viewBox="0 0 89 85">
  <defs>
    <clipPath id="clip-path">
      <rect id="Rectangle_45282" data-name="Rectangle 45282" width="61" height="57" transform="translate(0.342 -0.268)" fill="none"/>
    </clipPath>
  </defs>
  <g id="_27" data-name="27" transform="translate(-698 -4457)">
    <g id="Group_165391" data-name="Group 165391" transform="translate(698 4457)">
      <rect id="Rectangle_40797" data-name="Rectangle 40797" width="89" height="85" rx="15" fill="#ffd947"/>
    </g>
    <g id="Group_174988" data-name="Group 174988" transform="translate(711.658 4471.268)">
      <g id="Group_174988-2" data-name="Group 174988" clip-path="url(#clip-path)">
        <path id="Path_183249" data-name="Path 183249" d="M17.245,5.532a1.256,1.256,0,0,1,1.594.092,18.6,18.6,0,0,0,3,1.647,1.282,1.282,0,0,0,1.179-.034,17.647,17.647,0,0,1,8.356-1.9,17.675,17.675,0,0,1,6.981,1.843,1.216,1.216,0,0,0,1.125.026,25.936,25.936,0,0,0,4.147-2.419c1.64-1.118,3.226-2.315,4.923-3.35A12.184,12.184,0,0,1,50.858.3a3.763,3.763,0,0,1,4.918,1.822A10.426,10.426,0,0,1,57,6.606a41.15,41.15,0,0,1-.911,10.943c-.307,1.655-.669,3.3-1.121,4.921a1.08,1.08,0,0,0,.147.851c1.1,2.068,2.214,4.131,3.174,6.267a56.831,56.831,0,0,1,3.166,10.255c.074.312.145.625.205.939a1.009,1.009,0,0,1-1.186,1.234c-.711-.123-1.421-.259-2.12-.435-.4-.1-.461.012-.442.392a34.306,34.306,0,0,1-.436,7.559,1.942,1.942,0,0,1-.785,1.423,1.475,1.475,0,0,1-1.676.152c-.878-.478-1.8-.873-2.691-1.332a.64.64,0,0,0-.762.05,30.766,30.766,0,0,1-2.978,1.809c-.754.411-1.045.34-1.551-.384a.994.994,0,0,1,.6-1.165,23.83,23.83,0,0,0,3.2-1.972,1.487,1.487,0,0,1,1.8-.235c.835.421,1.684.816,2.5,1.272.437.244.56.14.625-.316A32.825,32.825,0,0,0,56.015,41c0-.6-.106-1.242.638-1.531.958-.017,1.853.4,2.851.446a19.458,19.458,0,0,0-1.176-2.869,23.319,23.319,0,0,0-4.464-6.4,11.252,11.252,0,0,0-8.03-3.923,6.827,6.827,0,0,0-7.225,5.277,9.856,9.856,0,0,0,.248,5.165c.565,2.008,1.453,3.9,2.173,5.849A6.713,6.713,0,0,1,37.546,51.5c-.142.067-.334.122-.4.24-.441.789-.854,1.593-1.332,2.5a34.938,34.938,0,0,0,6.9-1.88c.793-.3,1.063-.2,1.477.505.1.625-.2.953-.768,1.171A34.569,34.569,0,0,1,28.94,56.411a37.373,37.373,0,0,1-14.752-4.16,35.381,35.381,0,0,1-4.144-2.428.644.644,0,0,0-.757-.047c-.889.457-1.795.884-2.7,1.32a1.67,1.67,0,0,1-2.376-1.211A31.781,31.781,0,0,1,3.7,42.1c.009-.179,0-.358,0-.6-.791.161-1.574.28-2.333.486A1.069,1.069,0,0,1,0,41.483V39.916a21.446,21.446,0,0,0,.639-2.651A54.887,54.887,0,0,1,4.664,27.059c.542-1.095,1.089-2.187,1.657-3.268a1.282,1.282,0,0,0,.107-1.022A58.676,58.676,0,0,1,4.063,8.383,13.476,13.476,0,0,1,4.82,3.177,6.293,6.293,0,0,1,5.486,1.9,3.81,3.81,0,0,1,10.306.3,19.12,19.12,0,0,1,14.78,2.856c.427.3.342.727.267,1.149-.694.617-.863.624-1.667.082A17.313,17.313,0,0,0,9.836,2.069c-1.558-.583-2.691.019-3.161,1.689A4.914,4.914,0,0,1,9.926,4.8c1.227.8,2.441,1.615,3.668,2.414a22.692,22.692,0,0,0,4.6,2.471c.21.076.4.159.619,0,.5-.357,1.015-.69,1.542-1.045-.845-.5-1.66-.967-2.46-1.458-.886-.544-.93-.68-.647-1.647M51.939,6.537c-.255.155-.515.3-.765.465a50.114,50.114,0,0,1-6.694,4.051c.654.578,1.289,1.127,1.91,1.692a54.172,54.172,0,0,1,4.8,5.131l2.276,3.09c.049-.143.081-.217.1-.295a59.122,59.122,0,0,0,1.7-11.028,14.417,14.417,0,0,0-.09-2.881c-.171-1.1-.808-1.474-1.845-1.039a5.593,5.593,0,0,0-1.39.814m4.875,24.639.125.244a.243.243,0,0,0-.018-.338c-.061-.17-.109-.345-.184-.507C53.254,23,48.614,16.327,41.795,11.354A20.637,20.637,0,0,0,32.653,7.3a11.882,11.882,0,0,0-4.721.167,23.847,23.847,0,0,0-10.006,5.18A45.9,45.9,0,0,0,6.458,27.212a34.218,34.218,0,0,0-1.778,3.9c.469-.437.88-.918,1.311-1.38,2.973-3.189,6.468-5.209,11-4.755a8.222,8.222,0,0,1,6.9,4.491A10.015,10.015,0,0,1,24.95,34.42a.969.969,0,0,0,.069.63,8.359,8.359,0,0,1,5.807-2.9c2.371-.037,4.141,1.283,5.828,2.987A8.425,8.425,0,0,1,36.62,33.3c.367-5.546,4.495-8.655,9.7-8.378a12.43,12.43,0,0,1,5.268,1.54,20.951,20.951,0,0,1,5.231,4.71M22.433,48.845a1.008,1.008,0,0,1,1.254.225,4.234,4.234,0,0,0,2.19,1.059,29.348,29.348,0,0,0,3.727.122c.257.007.3-.123.294-.333-.005-.823,0-1.646,0-2.469a.3.3,0,0,0-.19-.324,10.128,10.128,0,0,1-2.794-2.606,1.478,1.478,0,0,1-.165-1.747,1.519,1.519,0,0,1,1.424-.937c1.766-.009,3.533-.029,5.3.006a1.613,1.613,0,0,1,1.374,2.431A7.468,7.468,0,0,1,32,47.135a.417.417,0,0,0-.3.445c.011.763.019,1.526,0,2.288-.009.325.105.408.414.4.943-.016,1.887.024,2.83-.007a4.825,4.825,0,0,0,4.491-6.24,22.282,22.282,0,0,0-3.233-6.54,10.986,10.986,0,0,0-2.146-2.264,4.834,4.834,0,0,0-6.118-.307,8.3,8.3,0,0,0-1.971,1.753,22.364,22.364,0,0,0-3.861,7.545,3.643,3.643,0,0,0-.142,1.189.941.941,0,0,1-.78,1.091c-.8-.078-1.035-.318-1.04-1.086a7.047,7.047,0,0,1,.519-2.638c.483-1.229.981-2.453,1.45-3.686a13.505,13.505,0,0,0,1.057-5.025C23.114,30.116,20.79,27.33,17,26.821A9.894,9.894,0,0,0,9.09,29.3a23.837,23.837,0,0,0-6.683,9.56,3.423,3.423,0,0,0-.345,1.111c.737-.149,1.42-.291,2.1-.424,1.1-.215,1.492.155,1.42,1.253a34.943,34.943,0,0,0,.281,8.1c.082.489.231.43.562.263.911-.46,1.842-.883,2.749-1.35a1.131,1.131,0,0,1,1.286.093,39.021,39.021,0,0,0,12.258,5.668,24.656,24.656,0,0,0,3.194.667c-.343-.673-.675-1.268-.953-1.888a1.624,1.624,0,0,0-.975-.966A4.646,4.646,0,0,1,22.57,50.5c-.708-.6-.738-.959-.137-1.654m-5.569-37.7c-.619-.316-1.2-.592-1.754-.9-2.043-1.119-3.918-2.5-5.879-3.75a6.839,6.839,0,0,0-1.642-.87,1.1,1.1,0,0,0-1.546.935,9.1,9.1,0,0,0-.131,1.372A50.455,50.455,0,0,0,7.423,19.844,6.159,6.159,0,0,0,7.829,21.3a45.88,45.88,0,0,1,9.035-10.149M40.972,8.52c1.661,1.364,1.877,1.388,3.666.44l.106-.055c2.23-1.158,4.229-2.679,6.348-4.012A5.241,5.241,0,0,1,54.5,3.761c-.65-1.911-1.785-2.246-3.1-1.73a13.948,13.948,0,0,0-2.335,1.228c-2.71,1.709-5.181,3.781-8.092,5.261M26.859,52.085l.64,1.278a1.894,1.894,0,0,0,1.779,1.116c1.061.013,2.123.009,3.184,0a1.778,1.778,0,0,0,1.513-.722,8.551,8.551,0,0,0,.88-1.672ZM32.971,43.7H28.656l-.116.166c.436.382.887.748,1.3,1.151a1.266,1.266,0,0,0,2.015,0,7.659,7.659,0,0,0,1.113-1.32" transform="translate(0 0)" fill="#090909"/>
        <path id="Path_183250" data-name="Path 183250" d="M100.25,71.984c-.744.289-.64.931-.637,1.531-.877-.18-1.758-.343-2.629-.548-.4-.1-.508.025-.471.409a41.279,41.279,0,0,1-.016,6.645.413.413,0,0,1-.258.373,1.486,1.486,0,0,0-1.8.235,23.8,23.8,0,0,1-3.2,1.972,1,1,0,0,0-.6,1.165,7.154,7.154,0,0,1-2.144,1.192c-.242.127-.53.171-.7.418-.414-.707-.685-.807-1.477-.505a34.974,34.974,0,0,1-6.9,1.88c.478-.905.891-1.71,1.332-2.5.066-.118.258-.173.4-.24a6.714,6.714,0,0,0,3.484-8.487c-.721-1.951-1.608-3.841-2.173-5.849a9.851,9.851,0,0,1-.247-5.165,6.827,6.827,0,0,1,7.225-5.278,11.254,11.254,0,0,1,8.029,3.923.973.973,0,0,0,.112.461c.69,1.6,1.261,3.24,1.82,4.887.386,1.137.565,2.322.857,3.48m-10.624-5.89a.876.876,0,1,0-1.751-.046.877.877,0,1,0,1.751.046" transform="translate(-43.596 -32.516)" fill="#dcdcdd"/>
        <path id="Path_183251" data-name="Path 183251" d="M25.371,7.786c-.283.968-.239,1.1.647,1.647.8.491,1.615.959,2.459,1.458-.528.355-1.044.688-1.542,1.045-.223.159-.409.076-.618,0a22.661,22.661,0,0,1-4.6-2.471c-1.227-.8-2.44-1.616-3.667-2.414A4.915,4.915,0,0,0,14.8,6.014c.469-1.671,1.6-2.273,3.161-1.69a17.334,17.334,0,0,1,3.545,2.018c.8.542.973.534,1.667-.082a10.535,10.535,0,0,1,2.2,1.526" transform="translate(-8.126 -2.255)" fill="#8b8d93"/>
        <path id="Path_183252" data-name="Path 183252" d="M57.281,35.146a12.42,12.42,0,0,0-5.268-1.539c-5.2-.277-9.329,2.831-9.7,8.377a8.422,8.422,0,0,0,.033,1.833c-1.687-1.7-3.457-3.024-5.828-2.986a8.359,8.359,0,0,0-5.807,2.9.968.968,0,0,1-.068-.629,10.02,10.02,0,0,0-1.058-4.949,8.222,8.222,0,0,0-6.9-4.492c-4.532-.454-8.027,1.566-11,4.755-.431.462-.842.943-1.311,1.381a34.166,34.166,0,0,1,1.777-3.9A45.894,45.894,0,0,1,23.624,21.325a23.841,23.841,0,0,1,10.005-5.18,11.891,11.891,0,0,1,4.721-.167c.391.436.971.5,1.461.744a32.1,32.1,0,0,1,5.312,3.364,40.486,40.486,0,0,1,6.27,6.086,48.093,48.093,0,0,1,4.673,6.591,7.216,7.216,0,0,1,1.215,2.383" transform="translate(-5.698 -8.682)" fill="#8c8e94"/>
        <path id="Path_183253" data-name="Path 183253" d="M24.944,81.384c-.6.695-.571,1.051.137,1.654a4.646,4.646,0,0,0,1.419.891,1.624,1.624,0,0,1,.975.966c.278.62.61,1.215.953,1.888a24.664,24.664,0,0,1-3.195-.667,39.021,39.021,0,0,1-12.258-5.668,1.131,1.131,0,0,0-1.286-.093c-.907.468-1.838.891-2.749,1.35-.331.167-.481.226-.562-.263a34.918,34.918,0,0,1-.28-8.1c.073-1.1-.322-1.468-1.42-1.253-.684.133-1.366.276-2.1.424A3.423,3.423,0,0,1,4.918,71.4a23.845,23.845,0,0,1,6.683-9.56,9.894,9.894,0,0,1,7.906-2.48c3.793.509,6.118,3.3,6.177,7.234a13.505,13.505,0,0,1-1.057,5.025c-.47,1.234-.967,2.457-1.451,3.686a7.056,7.056,0,0,0-.519,2.638c0,.768.242,1.008,1.04,1.086a4.691,4.691,0,0,0,.621,1.71c.152.256.236.607.626.645M18.853,65.2a.853.853,0,0,0-.873.869.88.88,0,1,0,1.755-.011.85.85,0,0,0-.882-.858" transform="translate(-2.511 -32.54)" fill="#dbdbdc"/>
        <path id="Path_183254" data-name="Path 183254" d="M48.224,90.195c-.389-.037-.474-.389-.626-.645a4.692,4.692,0,0,1-.621-1.709.941.941,0,0,0,.779-1.091,3.64,3.64,0,0,1,.142-1.189,22.37,22.37,0,0,1,3.861-7.546,8.314,8.314,0,0,1,1.971-1.753,4.834,4.834,0,0,1,6.117.307,10.973,10.973,0,0,1,2.146,2.264,22.279,22.279,0,0,1,3.233,6.54,4.825,4.825,0,0,1-4.491,6.239c-.942.031-1.887-.009-2.829.007-.309.005-.424-.078-.414-.4.022-.762.014-1.525,0-2.288a.416.416,0,0,1,.3-.445,7.467,7.467,0,0,0,2.844-2.862,1.612,1.612,0,0,0-1.374-2.43c-1.766-.036-3.532-.016-5.3-.007a1.519,1.519,0,0,0-1.424.937A1.478,1.478,0,0,0,52.7,85.87,10.145,10.145,0,0,0,55.5,88.475a.3.3,0,0,1,.191.325c0,.823,0,1.646,0,2.468,0,.211-.037.34-.294.333a29.342,29.342,0,0,1-3.727-.122,4.237,4.237,0,0,1-2.19-1.059,1.007,1.007,0,0,0-1.254-.226" transform="translate(-25.791 -41.35)" fill="#fcf2e4"/>
        <path id="Path_183255" data-name="Path 183255" d="M24.056,17.907a45.89,45.89,0,0,0-9.035,10.149,6.162,6.162,0,0,1-.406-1.453A50.461,50.461,0,0,1,13.1,14.7a9.1,9.1,0,0,1,.131-1.373,1.1,1.1,0,0,1,1.546-.935,6.864,6.864,0,0,1,1.642.87c1.961,1.248,3.836,2.631,5.879,3.751.559.306,1.135.582,1.754.9" transform="translate(-7.191 -6.759)" fill="#dbdbdc"/>
        <path id="Path_183256" data-name="Path 183256" d="M91.332,35.347a7.216,7.216,0,0,0-1.215-2.383,48.094,48.094,0,0,0-4.673-6.591,40.485,40.485,0,0,0-6.27-6.086,32.1,32.1,0,0,0-5.312-3.364c-.49-.242-1.07-.308-1.461-.744a20.632,20.632,0,0,1,9.142,4.057C88.363,25.209,93,31.885,96.485,39.457c.075.163.124.338.184.507l-.107.094a20.952,20.952,0,0,0-5.23-4.711" transform="translate(-39.748 -8.882)" fill="#7c7d85"/>
        <path id="Path_183257" data-name="Path 183257" d="M105.337,25.832a54.172,54.172,0,0,0-4.8-5.131c-.621-.564-1.256-1.114-1.91-1.692a50.161,50.161,0,0,0,6.694-4.051c.249-.164.51-.311.765-.465a1.043,1.043,0,0,1,.122.2,12.226,12.226,0,0,1,.2,4.57,40.565,40.565,0,0,1-.575,4.561,5.742,5.742,0,0,1-.491,2.008" transform="translate(-54.146 -7.957)" fill="#dbdbdc"/>
        <path id="Path_183258" data-name="Path 183258" d="M113.506,24.625A5.742,5.742,0,0,0,114,22.616a40.562,40.562,0,0,0,.575-4.561,12.226,12.226,0,0,0-.2-4.57,1.043,1.043,0,0,0-.122-.2,5.593,5.593,0,0,1,1.39-.814c1.037-.435,1.674-.064,1.845,1.039a14.418,14.418,0,0,1,.09,2.881,59.121,59.121,0,0,1-1.7,11.028c-.019.078-.051.152-.1.295l-2.276-3.09" transform="translate(-62.315 -6.749)" fill="#d0d0d1"/>
        <path id="Path_183259" data-name="Path 183259" d="M90.849,10.726c2.91-1.48,5.382-3.552,8.092-5.261a13.948,13.948,0,0,1,2.335-1.228c1.316-.516,2.452-.181,3.1,1.73A5.241,5.241,0,0,0,100.969,7.1c-2.119,1.333-4.118,2.854-6.347,4.012l-.107.056c-1.789.948-2.005.924-3.666-.44" transform="translate(-49.877 -2.207)" fill="#8a8c92"/>
        <path id="Path_183260" data-name="Path 183260" d="M116.725,97.082a.413.413,0,0,0,.258-.373A41.332,41.332,0,0,0,117,90.064c-.037-.385.067-.5.471-.41.87.206,1.752.368,2.628.548a32.821,32.821,0,0,1-.248,7.835c-.065.456-.187.56-.625.316-.815-.456-1.665-.851-2.5-1.271" transform="translate(-64.083 -49.204)" fill="#d0d0d1"/>
        <path id="Path_183261" data-name="Path 183261" d="M59.556,115.488h8a8.551,8.551,0,0,1-.88,1.672,1.78,1.78,0,0,1-1.513.722c-1.061.01-2.122.013-3.184,0a1.893,1.893,0,0,1-1.779-1.116l-.64-1.278" transform="translate(-32.697 -63.403)" fill="#f6e4ca"/>
        <path id="Path_183262" data-name="Path 183262" d="M122.221,76.768c-.293-1.158-.472-2.343-.858-3.48-.559-1.647-1.13-3.289-1.819-4.887a.975.975,0,0,1-.112-.461,23.312,23.312,0,0,1,4.464,6.4,19.43,19.43,0,0,1,1.176,2.869c-1-.042-1.893-.462-2.851-.446" transform="translate(-65.568 -37.299)" fill="#d0d0d1"/>
        <path id="Path_183263" data-name="Path 183263" d="M67.714,96.888a7.66,7.66,0,0,1-1.113,1.32,1.266,1.266,0,0,1-2.015,0c-.416-.4-.867-.769-1.3-1.151l.116-.166Z" transform="translate(-34.743 -53.192)" fill="#47484c"/>
        <path id="Path_183264" data-name="Path 183264" d="M126.08,68.917a.243.243,0,0,1,.018.338l-.125-.244.107-.094" transform="translate(-69.16 -37.836)" fill="#7c7d85"/>
        <path id="Path_183265" data-name="Path 183265" d="M99.929,73.338a.877.877,0,1,1-1.751-.046.876.876,0,1,1,1.751.046" transform="translate(-53.9 -39.761)" fill="#0e0e0e"/>
        <path id="Path_183266" data-name="Path 183266" d="M35.173,72.422a.85.85,0,0,1,.882.858.88.88,0,1,1-1.755.011.853.853,0,0,1,.873-.869" transform="translate(-18.83 -39.76)" fill="#0e0e0e"/>
      </g>
    </g>
  </g>
</svg>
