<svg xmlns="http://www.w3.org/2000/svg" width="410" height="357.375" viewBox="0 0 410 357.375">
  <g id="_3" data-name="3" transform="translate(-867.062 -1535.046)">
    <g id="Grupo_174318" data-name="Grupo 174318" transform="translate(867.062 1535.046)">
      <g id="Grupo_174353" data-name="Grupo 174353" transform="translate(0)">
        <path id="Trazado_179677" data-name="Trazado 179677" d="M409.7,84.247l-3.592,282.928a2.257,2.257,0,0,1-2.257,2.228H2.321a2.257,2.257,0,0,1-2.257-2.286L3.655,84.247Z" transform="translate(-0.035 -46.266)" fill="#ffe891"/>
        <path id="Trazado_179678" data-name="Trazado 179678" d="M414.073,37.981H8.026l.344-26.84A11.285,11.285,0,0,1,19.654,0H403.122a11.286,11.286,0,0,1,11.285,11.427Z" transform="translate(-4.408)" fill="#6b8dfc"/>
        <path id="Trazado_179679" data-name="Trazado 179679" d="M174.736,32.07a8.252,8.252,0,1,1-8.252-8.252,8.252,8.252,0,0,1,8.252,8.252" transform="translate(-86.897 -13.08)" fill="#ffb357"/>
        <path id="Trazado_179680" data-name="Trazado 179680" d="M119.665,32.07a8.252,8.252,0,1,1-8.252-8.252,8.253,8.253,0,0,1,8.252,8.252" transform="translate(-56.653 -13.08)" fill="#ffb357"/>
        <path id="Trazado_179681" data-name="Trazado 179681" d="M64.593,32.07a8.252,8.252,0,1,1-8.252-8.252,8.252,8.252,0,0,1,8.252,8.252" transform="translate(-26.409 -13.08)" fill="#ffb357"/>
        <path id="Trazado_179682" data-name="Trazado 179682" d="M116.6,594.286l-.693,54.621h-2.257l.694-54.621a1.129,1.129,0,0,1,2.257,0" transform="translate(-62.412 -325.771)" fill="#ffb357"/>
        <path id="Trazado_179683" data-name="Trazado 179683" d="M55.2,597.337,1.58,649.971H0l.02-1.6,53.6-52.635c1.531-1.49,3.113.113,1.582,1.6" transform="translate(0 -326.834)" fill="#ffb357"/>
        <path id="Trazado_179684" data-name="Trazado 179684" d="M58.979,257.163c8.081,2.846,18.791,7.979,27.847,17a1.431,1.431,0,0,1-.9,2.447c-5.581.411-17.793,1.146-26.818.5v.023l-.3,2.234-.745,5.371-.471,3.318a.565.565,0,0,1,.088.158c.774,1.5,6.869,13.419,7.153,25.361a1.421,1.421,0,0,1-1.847,1.366c-3.074-.968-9.274-3.24-12.94-6.753l-.026.27-.281,2.6-4.305,40.446-.078.79-.177,1.467-.078.79H1.767L3.54,214.911s23.9-29.734,46.151-43.188a1.4,1.4,0,0,1,2.113,1.5c-1.815,7.729-7.188,28.281-16.1,43.476a60.343,60.343,0,0,1-4.51,6.771c-.023,0-.023,0-.023.046-.069.068-.115.158-.183.225,0,0,21.693-15.507,45.091-20.39A1.394,1.394,0,0,1,77.729,205c-.932,4.354-5.126,15.316-23.963,29.005a.958.958,0,0,0,.159-.023c.519-.045,2.147-.225,4.608-.339,9.165-.412,29.53.094,42.418,11.3a1.406,1.406,0,0,1-.385,2.326c-5.061,2.264-20.647,7.773-50.846,6.782a2.736,2.736,0,0,1-.429-.023c-.88-.046-1.759-.068-2.662-.113,0,0,.135.022.36.068h.023a73.468,73.468,0,0,1,11.967,3.182" transform="translate(-0.97 -94.187)" fill="#ffb357"/>
        <path id="Trazado_179685" data-name="Trazado 179685" d="M34.9,278.509c-.023,0-.023,0-.023.045a161.277,161.277,0,0,0-24.224,27.152c-.828,1.173-2.777.045-1.927-1.151a165.152,165.152,0,0,1,30.684-32.818Z" transform="translate(-4.676 -149.231)" fill="#de8647"/>
        <path id="Trazado_179686" data-name="Trazado 179686" d="M83.165,357.6a99.037,99.037,0,0,0-35.974,1.512c-1.4.316-1.986-1.851-.559-2.167a101.587,101.587,0,0,1,24.544-2.528H71.2A73.473,73.473,0,0,1,83.165,357.6" transform="translate(-25.156 -194.628)" fill="#de8647"/>
        <path id="Trazado_179687" data-name="Trazado 179687" d="M114.684,402.168a40.223,40.223,0,0,1-9.985-2.889c-1.3-.564-2.478,1.377-1.153,1.964a45.262,45.262,0,0,0,10.839,3.16Z" transform="translate(-56.545 -219.217)" fill="#de8647"/>
        <path id="Trazado_179688" data-name="Trazado 179688" d="M77.3,309.337A408.025,408.025,0,0,1,37.62,332.359c-1.3.677-2.4-1.287-1.1-1.941q18.605-9.479,36.173-20.742c.52-.045,2.147-.225,4.609-.339" transform="translate(-19.736 -169.879)" fill="#de8647"/>
        <path id="Trazado_179689" data-name="Trazado 179689" d="M51.339,423.5l-.281,2.6c-6.129-4.334-12.076-8.826-17.794-13.542-.894-.723-1.787-1.468-2.68-2.257q-9.313-7.821-17.8-16.5c-.713-.745-1.426-1.489-2.138-2.256-2.227-2.325-4.387-4.718-6.478-7.155l.044-3.408c13.7,16.183,29.547,30.042,47.129,42.522" transform="translate(-2.288 -209.223)" fill="#de8647"/>
        <path id="Trazado_179690" data-name="Trazado 179690" d="M59.679,377.73l-.383,3.476a.557.557,0,0,0-.088-.158c-6.087-9.457-14.66-16.905-24.6-22.886-6.72-4.04-13.763-7.517-20.829-10.924-3.006-1.444-6.014-2.821-9.068-4.04l.03-2.37c2.517.925,4.986,2.008,7.454,3.16A233.648,233.648,0,0,1,37.5,357.282,75.379,75.379,0,0,1,59.679,377.73" transform="translate(-2.584 -187.173)" fill="#de8647"/>
        <path id="Trazado_179691" data-name="Trazado 179691" d="M45.357,572.527l-.177,1.467-.077.79H1.767l.029-2.257Z" transform="translate(-0.97 -314.416)" fill="#de8647"/>
        <path id="Trazado_179692" data-name="Trazado 179692" d="M12.749,406.666H3.9l.029-2.257h8.848a1.129,1.129,0,0,1-.029,2.257" transform="translate(-2.142 -222.09)" fill="#de8647"/>
        <path id="Trazado_179693" data-name="Trazado 179693" d="M32.9,448.27H3.373l.028-2.257H32.924a1.13,1.13,0,0,1-.029,2.257" transform="translate(-1.852 -244.938)" fill="#de8647"/>
        <path id="Trazado_179694" data-name="Trazado 179694" d="M1.559,577.518H65.05a2.223,2.223,0,0,1,2.228,2.257l-.1,8.16a2.292,2.292,0,0,1-2.286,2.257H1.4Z" transform="translate(-0.768 -317.157)" fill="#ffb357"/>
        <path id="Trazado_179695" data-name="Trazado 179695" d="M240.469,398.235H538.574l-.222,17.454H240.247a2.222,2.222,0,0,1-2.228-2.257l.164-12.94a2.292,2.292,0,0,1,2.286-2.257" transform="translate(-130.713 -218.7)" fill="#ffd947"/>
        <path id="Trazado_179696" data-name="Trazado 179696" d="M551.586,225.809l-.057,4.492H261.7l1.854-146.054h19.433l-1.8,141.562H484.912l1.8-141.562h11.1l-1.8,141.562Z" transform="translate(-143.718 -46.266)" fill="#ffb357"/>
        <path id="Trazado_179697" data-name="Trazado 179697" d="M304.784,84.247c-2.092,13.588-4.52,27.107-6.949,40.627q-3.241,17.977-6.6,35.932c-1.523,8.013-1.68,13.226-10.284,17.131-4.495,2.031-8.637-.587-13.051-1.377-5.788-1.038-12.644,3.837-17.642,6.478-3.3,1.715-6.794,3.588-10.546,3.972a12.492,12.492,0,0,1-8.614-2.37c-5.148-3.408-9.444-4.559-15.672-2.889-8.266,2.212-15.393,7.132-24.215,5.056a1.113,1.113,0,0,1-.773-1.377c3.239-20.449,5.509-41.01,8.748-61.46.244-1.422,2.4-.812,2.182.609-3.166,20.043-5.431,40.2-8.574,60.264,10.472,1.828,19.319-7,29.805-6.3,3.518.225,6.207,1.715,9.026,3.7,6.086,4.243,11.577,1.964,17.507-1.174,5.544-2.912,12.926-8.261,19.405-6.681,2.7.632,5.436,2.076,8.257,2.054,3.408,0,8.774-3.069,10.372-6.32.788-1.6.8-4.176,1.136-5.913q1.2-6.3,2.349-12.572c4.167-22.412,8.38-44.847,11.87-67.4Z" transform="translate(-104.574 -46.266)" fill="#ffb357"/>
        <path id="Trazado_179698" data-name="Trazado 179698" d="M282.482,298.893l-.032,2.505a14.978,14.978,0,0,1-2.829.564,12.493,12.493,0,0,1-8.614-2.37,19.974,19.974,0,0,0-7.924-3.431l.033-2.6c3.223.339,5.756,1.76,8.418,3.634a11.939,11.939,0,0,0,10.948,1.693" transform="translate(-144.478 -161.219)" fill="#de8647"/>
        <path id="Trazado_179699" data-name="Trazado 179699" d="M281.289,393.245l-.029,2.257H261.826l.028-2.257Z" transform="translate(-143.788 -215.959)" fill="#de8647"/>
        <path id="Trazado_179700" data-name="Trazado 179700" d="M417.636,266.4c-9.321-10.942-13.557-26.158-9.443-40.28s22.244-20.6,29.163-27.316,14.954-19.677,21.23-30.789,17.776-23.458,30.271-23.072,23.578,20.957,29,31.158,12.183,25.017,12.184,34.046-4.558,30.789-4.558,30.789-88.92,47.688-107.852,25.464" transform="translate(-223.304 -79.591)" fill="#4f292c"/>
        <path id="Trazado_179701" data-name="Trazado 179701" d="M594.009,165.531l-.364,2.889-3.025,23.744c-2.057,16.16-16.345,27.716-31.944,25.8-14.445-1.783-24.918-14.49-24.731-29.229a31.835,31.835,0,0,1,.241-3.521l1.985-15.641,1.4-10.969c2.058-16.183,16.346-27.739,31.944-25.821,15.577,1.919,26.547,16.59,24.49,32.75" transform="translate(-293.227 -72.806)" fill="#ffb08c"/>
        <path id="Trazado_179702" data-name="Trazado 179702" d="M617.5,214.64a12.023,12.023,0,0,1,7.829-.424c1.353.468,2.37-1.563,1.006-2.035a14.444,14.444,0,0,0-9.577.335,1.126,1.126,0,0,0,.743,2.124" transform="translate(-338.302 -116.156)" fill="#4f292c"/>
        <path id="Trazado_179703" data-name="Trazado 179703" d="M558.553,211.122c2.3-.743,5.414-.715,7.147,1.155.983,1.061,2.6-.537,1.616-1.6-2.268-2.448-6.273-2.724-9.335-1.735-1.382.446-.821,2.626.572,2.176" transform="translate(-305.989 -114.453)" fill="#4f292c"/>
        <path id="Trazado_179704" data-name="Trazado 179704" d="M597.423,164.954l-.37,2.889a20.381,20.381,0,0,0-11.49-11.96c-3.7-1.6-9.481-2.808-15.517-3.809a37.05,37.05,0,0,0-21.16,2.962c-7.079,3.141-8.548,10.181-9.756,11.969l.792-8.981c2.093-16.183,16.648-27.739,32.541-25.821,15.871,1.919,27.052,16.59,24.96,32.75" transform="translate(-296.075 -72.489)" fill="#4f292c"/>
        <path id="Trazado_179705" data-name="Trazado 179705" d="M655.637,219.258a9.115,9.115,0,0,1-8.848,9.2,8.84,8.84,0,0,1-8.614-9.2,9.115,9.115,0,0,1,8.848-9.2,8.84,8.84,0,0,1,8.615,9.2" transform="translate(-350.467 -115.357)" fill="#ffb08c"/>
        <path id="Trazado_179706" data-name="Trazado 179706" d="M537.224,220.8a9.115,9.115,0,0,1-8.848,9.2,8.84,8.84,0,0,1-8.614-9.2,9.115,9.115,0,0,1,8.848-9.2,8.84,8.84,0,0,1,8.614,9.2" transform="translate(-285.438 -116.203)" fill="#ffb08c"/>
        <path id="Trazado_179707" data-name="Trazado 179707" d="M514.742,258.746l-6.557,11.3a.544.544,0,0,0,.2.756,12.768,12.768,0,0,0,5.636,1.691,11.63,11.63,0,0,0,5.3-1.5.55.55,0,0,0,.251-.66l-3.819-11.489a.554.554,0,0,0-1.006-.093" transform="translate(-279.038 -141.942)" fill="#ffb357"/>
        <path id="Trazado_179708" data-name="Trazado 179708" d="M663.545,257.206l6.27,11.3a.552.552,0,0,1-.215.756,13.04,13.04,0,0,1-5.679,1.691,11.391,11.391,0,0,1-5.262-1.5.538.538,0,0,1-.234-.66l4.111-11.489a.556.556,0,0,1,1.009-.093" transform="translate(-361.57 -141.096)" fill="#ffb357"/>
        <path id="Trazado_179709" data-name="Trazado 179709" d="M605.922,112.174a14.34,14.34,0,0,1-14.3,14.121,13.907,13.907,0,0,1-13.942-14.121,14.339,14.339,0,0,1,14.3-14.121,13.907,13.907,0,0,1,13.942,14.121" transform="translate(-317.245 -53.848)" fill="#4f292c"/>
        <path id="Trazado_179710" data-name="Trazado 179710" d="M581.826,337.67A27.8,27.8,0,0,0,563.572,316.8c-16.132-5.757-60.285-3.823-75.186-3.905s-43.19,1.331-65.926,14.353c-12.572,7.2-22.954,21.066-22.954,21.066s20.171,34.029,47.663,38.428S575.8,356.652,581.826,337.67" transform="translate(-219.397 -171.7)" fill="#ffb08c"/>
        <path id="Trazado_179711" data-name="Trazado 179711" d="M503.375,452.631c-1.7,12.8-4.371,22.526-7.376,29.906-7.854,19.478-17.938,22.638-17.938,22.638H258.133c-10.3-25.934.55-43.29,4.614-52.319,4.042-9.028,37.1-105.2,92.84-121.412,2.288-.665,7.131,41.6,47.283,44.6a126.491,126.491,0,0,0,46.5-5.575c.023,0,.046-.023.068-.023,25.111-8.1,52.379-22.458,52.379-22.458s7.726,58.1,1.56,104.637" transform="translate(-139.39 -182.016)" fill="#fff0f0"/>
        <path id="Trazado_179712" data-name="Trazado 179712" d="M408.792,523.838l-16.967,51.168a1.116,1.116,0,0,0,2.12.7q8.484-25.584,16.967-51.168a1.116,1.116,0,0,0-2.12-.7" transform="translate(-215.144 -287.268)" fill="#c29e8c"/>
        <path id="Trazado_179713" data-name="Trazado 179713" d="M457.988,668.863H279.861L316.225,629.5l88.7,16.093s20.407-3.769,33.4-1.173a21.171,21.171,0,0,1,2.5.609,16.575,16.575,0,0,1,3.907,1.6c13.308,7.764,13.26,22.232,13.26,22.232" transform="translate(-153.692 -345.704)" fill="#ffb08c"/>
        <path id="Trazado_179714" data-name="Trazado 179714" d="M644.834,466.12C636.98,485.6,626.9,488.758,626.9,488.758H588.346a33.843,33.843,0,0,1-12.119-19.682c-1.91-9.525-16.784-75.34-24.521-109.444-2.756-12.256-4.616-20.426-4.616-20.426a11,11,0,0,1-8.162,4.581c-5.694.519-13.383-3.656-14.009-9.434-.626-5.8,2.361-13.144,6.685-14.977a6.636,6.636,0,0,1-1.464-6.182c.595-2.625,6.449-4.116,6.449-4.116s3.118-8.874,14.791-7.362c11.672,1.49,22.4,4.266,27.413,9.705,1.67,1.828,9.591,19.659,19.411,42.636,19.332,45.3,46.017,110.528,46.63,112.063" transform="translate(-288.225 -165.599)" fill="#ffb08c"/>
        <path id="Trazado_179715" data-name="Trazado 179715" d="M624.634,226.444a9.313,9.313,0,0,1-.629,3.649,2.246,2.246,0,0,1-4.245-.914,9.535,9.535,0,0,1,.512-3.528,2.243,2.243,0,0,1,4.362.793" transform="translate(-340.348 -123.089)" fill="#2f2031"/>
        <path id="Trazado_179716" data-name="Trazado 179716" d="M564.026,222.531a9.281,9.281,0,0,0-.395,3.679,2.253,2.253,0,0,0,4.348.179,9.547,9.547,0,0,0,.474-3.533,2.246,2.246,0,0,0-4.427-.325" transform="translate(-309.5 -121.255)" fill="#2f2031"/>
        <path id="Trazado_179717" data-name="Trazado 179717" d="M528.515,340.841c3.016-4.538,8.667-6.2,13.842-6.17a1.129,1.129,0,0,0,.028-2.257c-6.018-.039-12.333,2.063-15.8,7.288-.811,1.22,1.128,2.353,1.934,1.139" transform="translate(-289.076 -182.552)" fill="#c45d4d"/>
        <path id="Trazado_179718" data-name="Trazado 179718" d="M538.852,316.664c4.864-4.4,14.435-3.819,20.35-2.677,1.416.274,2.051-1.9.628-2.176-6.752-1.3-16.994-1.774-22.554,3.257-1.087.983.493,2.576,1.576,1.6" transform="translate(-294.856 -170.761)" fill="#c45d4d"/>
        <path id="Trazado_179719" data-name="Trazado 179719" d="M562.747,394.882h-2.3c-2.086-9.886-4.16-24.309-15.209-26.949-1.395-.339-.781-2.505.637-2.167,12.511,3,14.53,18.214,16.875,29.116" transform="translate(-298.996 -200.849)" fill="#c45d4d"/>
        <path id="Trazado_179720" data-name="Trazado 179720" d="M589.666,302.046a24.1,24.1,0,0,1-2.253,1.467c-10.194-4.221-23.941-9.435-31.888-2.122a21.281,21.281,0,0,1-1.742-1.467c9.071-8.712,24.791-2.415,35.883,2.122" transform="translate(-304.122 -162.318)" fill="#c45d4d"/>
        <path id="Trazado_179721" data-name="Trazado 179721" d="M523.087,347.958c-4.3,6.243-4.39,15.279,1.779,20.291,5.414,4.4,13.208,1.21,17.472-3.5.978-1.081-.592-2.682-1.576-1.6-3.506,3.871-9.918,6.963-14.466,3.273-5.339-4.333-4.946-12-1.274-17.332.831-1.206-1.109-2.337-1.935-1.139" transform="translate(-285.583 -190.809)" fill="#c45d4d"/>
        <path id="Trazado_179722" data-name="Trazado 179722" d="M534.944,319.713c-2.587,2.386-3.264,7.85-.492,10.268,1.083.945,2.706-.645,1.616-1.6-1.845-1.609-1.257-5.5.452-7.076,1.077-.993-.5-2.586-1.576-1.6" transform="translate(-292.524 -175.406)" fill="#c45d4d"/>
        <path id="Trazado_179723" data-name="Trazado 179723" d="M656.546,357.163c-.7.226-1.382.452-2.085.677-.022,0-.046.023-.068.023-3.31-7.719-6.734-15.371-10.2-23-3.843-8.441-6.87-20.7-16.283-24.151-1.348-.5-.733-2.663.615-2.167,9.031,3.318,11.277,11.285,15.033,19.478q6.654,14.491,12.992,29.138" transform="translate(-344.414 -169.405)" fill="#c45d4d"/>
        <path id="Trazado_179724" data-name="Trazado 179724" d="M645.374,687.037h-4.2a17.521,17.521,0,0,1-3.617-4.875c-3.105-6.071-4.576-12.91-6.207-19.568a21.112,21.112,0,0,1,2.5.609,119.729,119.729,0,0,0,3.782,13.249c1.855,5.01,4.3,8.351,7.743,10.585" transform="translate(-346.721 -363.878)" fill="#c45d4d"/>
        <path id="Trazado_179725" data-name="Trazado 179725" d="M609.954,696.447a52.319,52.319,0,0,1,14.95,1.862,1.133,1.133,0,0,0,.628-2.176,54.438,54.438,0,0,0-15.549-1.943c-1.451.028-1.485,2.285-.029,2.257" transform="translate(-334.378 -381.225)" fill="#c45d4d"/>
        <path id="Trazado_179726" data-name="Trazado 179726" d="M610.763,675.927a23.619,23.619,0,0,1,11.051,1.329c1.357.509,1.972-1.672.628-2.176a25.118,25.118,0,0,0-11.65-1.411c-1.427.168-1.473,2.427-.029,2.257" transform="translate(-334.83 -369.869)" fill="#c45d4d"/>
        <path id="Trazado_179727" data-name="Trazado 179727" d="M590.283,278.994a13.471,13.471,0,0,0,9.754-4.878c.922-1.118-.645-2.725-1.575-1.6a11.247,11.247,0,0,1-8.149,4.217c-1.446.081-1.484,2.338-.029,2.257" transform="translate(-323.577 -149.449)" fill="#c45d4d"/>
        <path id="Trazado_179728" data-name="Trazado 179728" d="M584.533,236.831c-.827,1.272-1.615,2.565-2.337,3.9a14.622,14.622,0,0,0-1.838,3.891c-.346,2.1,3.182,3.724,4.556,4.795,1.138.887,2.288-1.073,1.164-1.949a25.547,25.547,0,0,1-3.87-3.117l.276,1.1c.475-2.54,2.594-5.341,3.983-7.478.8-1.228-1.139-2.361-1.935-1.139" transform="translate(-318.703 -129.773)" fill="#c45d4d"/>
        <path id="Trazado_179729" data-name="Trazado 179729" d="M416.391,511.6a62.433,62.433,0,0,1,13.9-7.964,1.123,1.123,0,0,0-.888-2.063,64.785,64.785,0,0,0-14.423,8.28c-1.164.882.242,2.631,1.408,1.747" transform="translate(-227.658 -275.398)" fill="#c29e8c"/>
        <g id="Grupo_174352" data-name="Grupo 174352">
          <path id="Trazado_179730" data-name="Trazado 179730" d="M528.461,643.383a17.711,17.711,0,1,1,17.713-17.712,17.731,17.731,0,0,1-17.713,17.712m0-33.166a15.455,15.455,0,1,0,15.455,15.453,15.471,15.471,0,0,0-15.455-15.453" transform="translate(-280.49 -333.875)" fill="#12263f"/>
          <path id="Trazado_179731" data-name="Trazado 179731" d="M541.947,646.175h-8.422a1.991,1.991,0,0,1-1.991-1.991v-5.836a1.991,1.991,0,0,1,1.991-1.991h8.422a1.992,1.992,0,0,1,1.991,1.991v5.836a1.991,1.991,0,0,1-1.991,1.991" transform="translate(-291.903 -349.469)" fill="#12263f"/>
          <path id="Trazado_179732" data-name="Trazado 179732" d="M558.25,639.486l-6.343,2.95a.665.665,0,0,0-.009,1.2l6.343,3.065a.665.665,0,0,0,.955-.6v-6.015a.665.665,0,0,0-.945-.6" transform="translate(-302.88 -351.153)" fill="#12263f"/>
        </g>
        <path id="Trazado_179733" data-name="Trazado 179733" d="M445.452,619.356a16.583,16.583,0,1,1-22.38-7.009,16.583,16.583,0,0,1,22.38,7.009" transform="translate(-227.451 -335.245)" fill="#fc5f65"/>
        <path id="Trazado_179734" data-name="Trazado 179734" d="M450.053,634.924c-1.3-1.966-4.133-5.669-6.448-4.458L429.2,638c-2.315,1.211-.893,5.654-.017,7.839.264.658.884,1.048,1.317.821l5.422-2.836c.389-.2.464-.829.168-1.4l-.409-.781c-.3-.567-.222-1.193.167-1.4l5.811-3.039c.39-.2.946.091,1.243.659l.408.782c.3.568.853.863,1.243.659l5.422-2.836c.433-.226.467-.959.077-1.55" transform="translate(-235.014 -346.104)" fill="#fff0f0"/>
        <g id="Grupo_174351" data-name="Grupo 174351">
          <path id="Trazado_179735" data-name="Trazado 179735" d="M330.312,643.383a17.711,17.711,0,1,1,17.71-17.712,17.733,17.733,0,0,1-17.71,17.712m0-33.166a15.455,15.455,0,1,0,15.454,15.453,15.472,15.472,0,0,0-15.454-15.453" transform="translate(-171.671 -333.875)" fill="#12263f"/>
          <path id="Trazado_179736" data-name="Trazado 179736" d="M351.186,633.351a3.242,3.242,0,1,1-3.242-3.242,3.242,3.242,0,0,1,3.242,3.242" transform="translate(-189.301 -346.038)" fill="#12263f"/>
          <path id="Trazado_179737" data-name="Trazado 179737" d="M348.411,653.452H333.979a1.591,1.591,0,0,1-1.53-1.967,8.956,8.956,0,0,1,17.517.157,1.552,1.552,0,0,1-1.555,1.81" transform="translate(-182.549 -353.93)" fill="#12263f"/>
        </g>
      </g>
    </g>
    <g id="Grupo_174320" data-name="Grupo 174320" transform="translate(987 1849.734)">
      <g id="Grupo_173798" data-name="Grupo 173798" transform="translate(0 0.229)">
        <rect id="Rectángulo_44603" data-name="Rectángulo 44603" width="158.826" height="42.458" rx="21.229" fill="#3c3fa7"/>
      </g>
      <path id="Trazado_179738" data-name="Trazado 179738" d="M.308-21.636A.7.7,0,0,1,.293-21.8.683.683,0,0,1,.586-22.4a1.337,1.337,0,0,1,.762-.2,3.081,3.081,0,0,1,.33.022,2.208,2.208,0,0,1,.41.088,1.693,1.693,0,0,1,.425.205,1.2,1.2,0,0,1,.359.374,5.346,5.346,0,0,1,.505,1.289q.256.894.52,2.095t.513,2.607l.5,2.813q.249,1.406.483,2.71t.461,2.314a16.141,16.141,0,0,0,.432,1.611q.205.6.381.6.132,0,.286-.3a7.046,7.046,0,0,0,.337-.813q.183-.513.4-1.216t.425-1.509q.212-.806.439-1.677t.461-1.721l.674-2.461q.337-1.23.681-2.358t.674-2.095q.33-.967.637-1.677a7.475,7.475,0,0,1,.579-1.121q.271-.41.491-.41a2.219,2.219,0,0,1,.754.11,1.212,1.212,0,0,1,.483.308,1.175,1.175,0,0,1,.264.461,1.9,1.9,0,0,1,.081.557,4.121,4.121,0,0,1-.1.688q-.1.483-.271,1.179t-.41,1.56q-.234.864-.5,1.816T12.5-14.59q-.293,1.011-.586,2.007-.425,1.45-.842,2.9T10.239-6.9q-.41,1.333-.806,2.5T8.672-2.344a10.069,10.069,0,0,1-.71,1.45A1.559,1.559,0,0,1,7.31-.22q-.073.029-.293.1a1.266,1.266,0,0,1-.278.073,1.141,1.141,0,0,1-.681-.417,5.941,5.941,0,0,1-.93-1.4,21.66,21.66,0,0,1-1.1-2.607Q3.442-6.094,2.82-8.489T1.553-14.136Q.908-17.388.308-21.636ZM13.8-4.189q0-.513-.022-1.362t-.015-1.816q.007-.967.073-1.956a14.651,14.651,0,0,1,.22-1.787,4.327,4.327,0,0,1,.439-1.3.843.843,0,0,1,.74-.505,1.867,1.867,0,0,1,.872.168,1.076,1.076,0,0,1,.447.769,6.652,6.652,0,0,1,.1.74q.037.447.037,1.077,0,.337.015,1.143t.022,1.831q.007,1.025.015,2.146T16.729-2.93q-.015,1-.059,1.729a5,5,0,0,1-.117.967.472.472,0,0,1-.234.271,1.734,1.734,0,0,1-.359.146,1.924,1.924,0,0,1-.352.066q-.168.015-.227.015a.88.88,0,0,1-.688-.344,2.8,2.8,0,0,1-.491-.952,7.766,7.766,0,0,1-.3-1.421A13.892,13.892,0,0,1,13.8-4.189Zm.293-14.546a2.816,2.816,0,0,1,.11-.8,1.908,1.908,0,0,1,.33-.652,1.48,1.48,0,0,1,.557-.432,1.851,1.851,0,0,1,.776-.154,2.154,2.154,0,0,1,.608.088,1.4,1.4,0,0,1,.535.293,1.529,1.529,0,0,1,.381.527,1.948,1.948,0,0,1,.146.806,2.24,2.24,0,0,1-.161.879,1.74,1.74,0,0,1-.439.63,1.86,1.86,0,0,1-.637.374,2.241,2.241,0,0,1-.74.125,1.5,1.5,0,0,1-.74-.161,1.28,1.28,0,0,1-.447-.4,1.476,1.476,0,0,1-.22-.542A3.021,3.021,0,0,1,14.092-18.735ZM18.105-5.786a10.833,10.833,0,0,1,.381-2.9A8.4,8.4,0,0,1,19.556-11.1a5.553,5.553,0,0,1,1.677-1.663,4.027,4.027,0,0,1,2.19-.623,2.574,2.574,0,0,1,1.362.374,3.99,3.99,0,0,1,1.055.923,4.446,4.446,0,0,1,.681,1.172,3.167,3.167,0,0,1,.242,1.135,4.012,4.012,0,0,1-.066.652,8.272,8.272,0,0,1-.183.813,8.272,8.272,0,0,1-.286.85,6.179,6.179,0,0,1-.359.762,2.4,2.4,0,0,1-.41.549A.654.654,0,0,1,25-5.947a.857.857,0,0,1-.388-.11,1.553,1.553,0,0,1-.4-.308,1.908,1.908,0,0,1-.322-.454,1.184,1.184,0,0,1-.132-.549,2.1,2.1,0,0,1,.073-.549q.073-.271.154-.564t.154-.6a2.84,2.84,0,0,0,.073-.659,2.978,2.978,0,0,0-.022-.337,1.35,1.35,0,0,0-.1-.366.7.7,0,0,0-.227-.293.647.647,0,0,0-.4-.117,1.251,1.251,0,0,0-.9.454A4.1,4.1,0,0,0,21.8-9.177a8.832,8.832,0,0,0-.527,1.78,10.965,10.965,0,0,0-.2,2.109A7.182,7.182,0,0,0,21.248-3.6,3.2,3.2,0,0,0,21.7-2.512a1.633,1.633,0,0,0,.667.571,1.97,1.97,0,0,0,.806.168,3.178,3.178,0,0,0,1.282-.286,8.018,8.018,0,0,0,1.3-.725q.645-.439,1.238-.937t1.091-.937q.5-.439.872-.725a1.123,1.123,0,0,1,.564-.286q.527,0,.667.337a2.381,2.381,0,0,1,.139.894,1.938,1.938,0,0,1-.308.93A6.1,6.1,0,0,1,29.172-2.4,10.648,10.648,0,0,1,27.92-1.274a11.409,11.409,0,0,1-1.538,1,9.159,9.159,0,0,1-1.707.718,5.964,5.964,0,0,1-1.75.271,4.141,4.141,0,0,1-2.051-.5,4.507,4.507,0,0,1-1.509-1.377,6.572,6.572,0,0,1-.937-2.065A9.751,9.751,0,0,1,18.105-5.786Zm14.355-11.4q-.015.176-.029.286a.364.364,0,0,0,.015.183.178.178,0,0,0,.117.1.957.957,0,0,0,.278.029H33a1.638,1.638,0,0,0,.2-.015q.5-.029.974-.051t.974-.022q.527,0,1.238.029a8.777,8.777,0,0,1,1.34.154,3.566,3.566,0,0,1,1.069.374.763.763,0,0,1,.439.688.9.9,0,0,1-.2.564,1.533,1.533,0,0,1-.623.439,4.563,4.563,0,0,1-1.106.286,11.165,11.165,0,0,1-1.633.1q-.322,0-.688.029l-.725.059q-.359.029-.7.066t-.608.051a.6.6,0,0,0-.469.242,1.176,1.176,0,0,0-.176.579q-.1,1.6-.154,3.164t-.037,3q.015,1.436.11,2.688a21.082,21.082,0,0,0,.271,2.2q.132.63.286,1.128A8.422,8.422,0,0,1,33,.059a1.312,1.312,0,0,1-.015.652.847.847,0,0,1-.439.461,1.273,1.273,0,0,1-.571.146,1.251,1.251,0,0,1-.725-.227,2.9,2.9,0,0,1-.586-.535,4.056,4.056,0,0,1-.425-.608q-.168-.3-.227-.432a6.174,6.174,0,0,1-.388-1.428q-.154-.9-.242-2.014T29.26-6.27q-.037-1.23-.037-2.424t.029-2.256q.029-1.062.073-1.809a2.192,2.192,0,0,0,.015-.41q-.015-.073-.322-.073h-.352a2.035,2.035,0,0,1-1.187-.308.9.9,0,0,1-.439-.747.764.764,0,0,1,.146-.454,1.706,1.706,0,0,1,.4-.388,3.817,3.817,0,0,1,.6-.344q.344-.161.74-.322a1.25,1.25,0,0,0,.425-.271.871.871,0,0,0,.176-.535q.029-.557.088-1.179t.139-1.223q.081-.6.2-1.143a8.065,8.065,0,0,1,.264-.959,2.3,2.3,0,0,1,.337-.659.531.531,0,0,1,.41-.242,1.583,1.583,0,0,1,.439.073,1.811,1.811,0,0,1,.483.227,1.49,1.49,0,0,1,.41.41,1.354,1.354,0,0,1,.22.608q.015.117.022.483t.007.857q0,.491-.022,1.062T32.461-17.183Zm6.094,4.146a3.6,3.6,0,0,1,2.014.579,5.219,5.219,0,0,1,1.509,1.523A7.485,7.485,0,0,1,43.03-8.8a8.99,8.99,0,0,1,.33,2.417,7.437,7.437,0,0,1-.469,2.7,6.739,6.739,0,0,1-1.238,2.08A5.531,5.531,0,0,1,39.88-.271a4.752,4.752,0,0,1-2.058.476A3.39,3.39,0,0,1,35.933-.3,3.972,3.972,0,0,1,34.68-1.6a5.786,5.786,0,0,1-.688-1.765,8.957,8.957,0,0,1-.212-1.912,10.024,10.024,0,0,1,.168-1.8,11.223,11.223,0,0,1,.476-1.78,10.381,10.381,0,0,1,.74-1.619,6.978,6.978,0,0,1,.967-1.333,4.473,4.473,0,0,1,1.15-.9A2.665,2.665,0,0,1,38.555-13.037Zm.249,2.783a1,1,0,0,0-.725.461,4.895,4.895,0,0,0-.681,1.2,9.5,9.5,0,0,0-.505,1.67,8.958,8.958,0,0,0-.2,1.868q0,.146.015.571a4.378,4.378,0,0,0,.125.879A2.249,2.249,0,0,0,37.2-2.8a.845.845,0,0,0,.725.352,1.432,1.432,0,0,0,.923-.381,3.824,3.824,0,0,0,.813-.981,5.751,5.751,0,0,0,.579-1.362,5.474,5.474,0,0,0,.22-1.523q0-.249-.015-.615a7.153,7.153,0,0,0-.073-.762,6.225,6.225,0,0,0-.168-.784,3.039,3.039,0,0,0-.293-.7,1.571,1.571,0,0,0-.454-.505A1.1,1.1,0,0,0,38.8-10.254ZM44.487-.747a3.979,3.979,0,0,1-.1-.71q-.044-.52-.066-1.23T44.29-4.219q-.007-.82-.007-1.6t.007-1.443q.007-.667.007-1.062a8.491,8.491,0,0,1,.073-1.04,4.885,4.885,0,0,1,.264-1.1,2.765,2.765,0,0,1,.505-.872,1.032,1.032,0,0,1,.813-.359.784.784,0,0,1,.579.2,1.492,1.492,0,0,1,.308.439q.11.242.183.439t.22.2a.6.6,0,0,0,.352-.22q.205-.205.469-.447a4.412,4.412,0,0,1,.593-.454,3.648,3.648,0,0,1,.732-.359,2.576,2.576,0,0,1,.886-.146,2.7,2.7,0,0,1,1.15.242,2.8,2.8,0,0,1,.886.637,2.969,2.969,0,0,1,.571.894,2.633,2.633,0,0,1,.205,1.011,3.292,3.292,0,0,1-.044.542,1.482,1.482,0,0,1-.161.476.928.928,0,0,1-.33.344,1.06,1.06,0,0,1-.564.132.954.954,0,0,1-.667-.2,2.051,2.051,0,0,1-.359-.439,3.367,3.367,0,0,0-.315-.439.646.646,0,0,0-.52-.2,1.519,1.519,0,0,0-1.084.549,5.1,5.1,0,0,0-.93,1.436,10.131,10.131,0,0,0-.652,2.021,10.8,10.8,0,0,0-.249,2.322,6.96,6.96,0,0,1-.117,1.377,3.277,3.277,0,0,1-.322.938A1.4,1.4,0,0,1,46.3.132a1.076,1.076,0,0,1-.571.161,1.034,1.034,0,0,1-.469-.1A1.369,1.369,0,0,1,44.9-.066,1.538,1.538,0,0,1,44.648-.4,2.367,2.367,0,0,1,44.487-.747Zm9.1-3.442q0-.513-.022-1.362t-.015-1.816q.007-.967.073-1.956a14.651,14.651,0,0,1,.22-1.787,4.327,4.327,0,0,1,.439-1.3.843.843,0,0,1,.74-.505,1.867,1.867,0,0,1,.872.168,1.076,1.076,0,0,1,.447.769,6.652,6.652,0,0,1,.1.74q.037.447.037,1.077,0,.337.015,1.143t.022,1.831q.007,1.025.015,2.146T56.514-2.93q-.015,1-.059,1.729a5,5,0,0,1-.117.967A.472.472,0,0,1,56.1.037a1.734,1.734,0,0,1-.359.146,1.924,1.924,0,0,1-.352.066q-.168.015-.227.015a.88.88,0,0,1-.688-.344,2.8,2.8,0,0,1-.491-.952,7.766,7.766,0,0,1-.3-1.421A13.892,13.892,0,0,1,53.584-4.189Zm.293-14.546a2.816,2.816,0,0,1,.11-.8,1.908,1.908,0,0,1,.33-.652,1.48,1.48,0,0,1,.557-.432,1.851,1.851,0,0,1,.776-.154,2.154,2.154,0,0,1,.608.088,1.4,1.4,0,0,1,.535.293,1.529,1.529,0,0,1,.381.527,1.948,1.948,0,0,1,.146.806,2.24,2.24,0,0,1-.161.879,1.74,1.74,0,0,1-.439.63,1.86,1.86,0,0,1-.637.374,2.241,2.241,0,0,1-.74.125,1.5,1.5,0,0,1-.74-.161,1.28,1.28,0,0,1-.447-.4,1.476,1.476,0,0,1-.22-.542A3.021,3.021,0,0,1,53.877-18.735ZM67.939-1.772a3.4,3.4,0,0,1,.044,1.025,2.047,2.047,0,0,1-.212.718,1.074,1.074,0,0,1-.388.417.96.96,0,0,1-.5.139.871.871,0,0,1-.608-.234,2.016,2.016,0,0,1-.432-.579,4.247,4.247,0,0,1-.293-.747q-.117-.4-.205-.747t-.154-.579q-.066-.234-.154-.234a.589.589,0,0,0-.388.212,5.634,5.634,0,0,0-.461.535q-.249.322-.549.7a5.324,5.324,0,0,1-.674.7,3.586,3.586,0,0,1-.828.535,2.322,2.322,0,0,1-1,.212,2.4,2.4,0,0,1-1.362-.41,3.667,3.667,0,0,1-1.055-1.1A5.673,5.673,0,0,1,58.044-2.8a7.094,7.094,0,0,1-.242-1.86,9.246,9.246,0,0,1,.19-1.794,11.857,11.857,0,0,1,.549-1.9,10.556,10.556,0,0,1,.894-1.809,7.76,7.76,0,0,1,1.23-1.531,5.7,5.7,0,0,1,1.545-1.062,4.319,4.319,0,0,1,1.846-.4,3.329,3.329,0,0,1,1.406.271,2.878,2.878,0,0,1,.989.74,3.7,3.7,0,0,1,.645,1.1,7.54,7.54,0,0,1,.374,1.355,12.262,12.262,0,0,1,.176,1.5q.044.776.044,1.538t.022,1.479q.022.732.051,1.384t.081,1.172Q67.9-2.095,67.939-1.772ZM60.718-4.087A2.026,2.026,0,0,0,60.959-3q.242.381.447.381a1.325,1.325,0,0,0,.791-.293,4.258,4.258,0,0,0,.776-.769,7.67,7.67,0,0,0,.71-1.069,11.634,11.634,0,0,0,.579-1.194,9.61,9.61,0,0,0,.4-1.135,3.52,3.52,0,0,0,.146-.9q0-.015-.007-.161T64.761-8.5q-.029-.212-.088-.461a1.932,1.932,0,0,0-.176-.469,1.125,1.125,0,0,0-.293-.359.663.663,0,0,0-.425-.139,1.185,1.185,0,0,0-.754.308,3.7,3.7,0,0,0-.71.813,8.53,8.53,0,0,0-.63,1.135,11.444,11.444,0,0,0-.505,1.282,11.562,11.562,0,0,0-.337,1.26A5.334,5.334,0,0,0,60.718-4.087Z" transform="translate(45.707 32.461)" fill="#ffd947"/>
    </g>
  </g>
</svg>
