<svg xmlns="http://www.w3.org/2000/svg" xmlns:xlink="http://www.w3.org/1999/xlink" width="144" height="138" viewBox="0 0 144 138">
  <defs>
    <clipPath id="clip-path">
      <rect id="Rectangle_45264" data-name="Rectangle 45264" width="97.51" height="98.508" fill="none"/>
    </clipPath>
  </defs>
  <g id="_3" data-name="3" transform="translate(-698 -4474.297)">
    <g id="Group_165391" data-name="Group 165391" transform="translate(161 3186.297)">
      <rect id="Rectangle_40797" data-name="Rectangle 40797" width="144" height="138" transform="translate(537 1288)" fill="#ffe891"/>
    </g>
    <g id="Group_174954" data-name="Group 174954" transform="translate(721 4494.297)">
      <g id="Group_174953" data-name="Group 174953" transform="translate(0 0)" clip-path="url(#clip-path)">
        <path id="Path_182741" data-name="Path 182741" d="M28,98.508H26.651a9.89,9.89,0,0,1-2.836-1.749,1.265,1.265,0,0,0-1.721-.019,11.787,11.787,0,0,1-2.94,1.769H18a1.939,1.939,0,0,1-1.771-1.734c-.114-.7-.551-.844-1.161-.844-2.113,0-4.229.066-6.341-.017A8.677,8.677,0,0,1,.634,90.555a8.082,8.082,0,0,1-.627-3.466Q.022,64.941.013,42.794c0-11.4.018-22.8-.013-34.2A8.663,8.663,0,0,1,3.3,1.643,7.174,7.174,0,0,1,8.1,0Q41.725,0,75.352,0c1.8,0,2.694.9,2.72,2.731.033,2.178.008,4.355.01,6.534,0,1.86,0,1.86,1.816,1.861H93.157c.448,0,.9-.011,1.344.027,2.042.172,2.99,1.175,2.991,3.22q.009,22.818,0,45.639c0,1.6-.214,1.946-1.394,2.4a1.807,1.807,0,0,1-2.046-1.8,12.293,12.293,0,0,1-.045-1.631q0-21.328,0-42.656c0-1.707,0-1.708-1.672-1.709q-6.389,0-12.777,0c-1.4,0-1.472.073-1.476,1.455q-.011,3.266,0,6.534c.006,1.31.1,1.4,1.439,1.4,2.274.008,4.547,0,6.821.005,1.538.005,2.369.576,2.4,1.621.029,1.11-.906,1.838-2.449,1.853-2.305.024-4.611,0-6.917.01-1.218.005-1.281.074-1.291,1.322-.006.8.022,1.6-.005,2.4s.326,1.069,1.094,1.062c2.242-.022,4.484-.011,6.725-.007a6.067,6.067,0,0,1,1.245.076,1.853,1.853,0,0,1,1.591,1.875,1.711,1.711,0,0,1-1.806,1.512c-2.369.055-4.739.015-7.109.021-1.734,0-1.735,0-1.735,1.746,0,.736.018,1.474,0,2.209s.3,1.028,1.03,1.023c2.274-.015,4.547-.008,6.821,0a8.808,8.808,0,0,1,1.151.036,1.736,1.736,0,0,1,1.664,1.672,1.765,1.765,0,0,1-1.617,1.73,7.6,7.6,0,0,1-1.15.045c-2.242,0-4.484-.011-6.725.007-1.047.008-1.148.118-1.167,1.165q-.024,1.3,0,2.593c.023,1.076.133,1.193,1.244,1.2,2.146.018,4.291,0,6.437.006.352,0,.7-.008,1.057.009a1.774,1.774,0,0,1,1.911,1.511A1.87,1.87,0,0,1,87.1,52.551a7.369,7.369,0,0,1-1.72.125c-1.922,0-3.843,0-5.765,0-1.506,0-1.529.03-1.533,1.578,0,.608,0,1.217,0,1.825.009,1.306.063,1.369,1.34,1.374,2.178.009,4.355,0,6.533,0a5.5,5.5,0,0,1,1.431.119,1.708,1.708,0,0,1,1.366,1.737,1.726,1.726,0,0,1-1.467,1.555,6.061,6.061,0,0,1-1.245.071c-2.209,0-4.419-.005-6.629,0-1.248.005-1.318.078-1.329,1.289q-.011,1.2,0,2.4c.011,1.18.09,1.269,1.246,1.275,2.242.012,4.484,0,6.725.005a5.046,5.046,0,0,1,1.338.1,1.6,1.6,0,0,1,1.334,1.451A1.666,1.666,0,0,1,87.68,69.15a3.271,3.271,0,0,1-1.5.248c-2.242.005-4.484,0-6.725,0-1.32,0-1.363.049-1.374,1.33-.005.64.011,1.281-.007,1.921a2.7,2.7,0,0,1-2.138,2.813,22.572,22.572,0,0,1-2.96.074c-.6.008-.835.252-.871.858-.13,2.215-.148,2.214,2.1,2.214.574,0,1.148-.011,1.723.01,5.317-.055,10.634-.01,15.95-.025.32,0,.64.006.961,0,1.051-.026,1.153-.109,1.16-1.165.018-3.074-.017-6.15.017-9.225.017-1.513.494-2.1,1.822-2.393,1.185.271,1.63.723,1.642,1.883.04,3.908.053,7.815-.006,11.723a2.588,2.588,0,0,1-2.436,2.628,10.518,10.518,0,0,1-1.343.045q-7.014,0-14.028,0c-1.577,0-1.579.005-1.579,1.62,0,2.627-.1,5.257.023,7.879.158,3.5-1.084,4.368-4.328,4.359-13.932-.044-27.865-.018-41.8-.018-.448,0-.9.012-1.344,0a.907.907,0,0,0-1.061.845A2.01,2.01,0,0,1,28,98.508" transform="translate(0 0)"/>
        <path id="Path_182742" data-name="Path 182742" d="M21.744,111.489c1.086-.758,2.184-1.5,3.253-2.285a.724.724,0,0,1,1-.011c1.067.784,2.158,1.534,3.241,2.3Z" transform="translate(-2.59 -12.981)" fill="#fdfdfd"/>
        <path id="Path_182743" data-name="Path 182743" d="M106.24,64.151c-.405,1.249-.089,2.533-.187,3.8-1.209.346-1.486.7-1.489,1.969-.005,3.354-.025,6.709.017,10.063.009.716-.168.892-.886.887-5.876-.043-11.753-.041-17.629-.053a4.713,4.713,0,0,1,0-3.607A2.6,2.6,0,0,0,88.031,74.3c-.046-.8.04-1.6-.022-2.4-.055-.7.137-.931.883-.916,2.561.051,5.123.019,7.686.019.224,0,.449.013.672-.006a1.491,1.491,0,0,0,1.464-1.479,1.431,1.431,0,0,0-1.53-1.387c-2.722-.02-5.445-.039-8.166.008-.781.013-1.065-.171-1.013-.99a28.463,28.463,0,0,0,0-3.457c-.048-.836.142-1.148,1.069-1.121,2.592.073,5.188.028,7.782.024,1.19,0,1.875-.545,1.859-1.453s-.7-1.424-1.905-1.427c-2.626,0-5.253-.036-7.878.02-.793.017-.958-.242-.925-.966.056-1.246.051-2.5,0-3.746-.026-.644.183-.811.81-.8,2.562.033,5.124.016,7.686.011a5.5,5.5,0,0,0,1.051-.069,1.406,1.406,0,0,0-.118-2.779A12.859,12.859,0,0,0,96.1,51.35c-2.338,0-4.678-.051-7.013.024-.928.029-1.127-.285-1.076-1.127a32.106,32.106,0,0,0,0-3.458c-.036-.723.129-.984.924-.967,2.689.055,5.381.028,8.07.018,1.038,0,1.7-.57,1.714-1.42s-.638-1.43-1.666-1.458c-.224-.006-.448,0-.672,0-2.434,0-4.87-.049-7.3.026-.926.028-1.117-.283-1.07-1.121.067-1.214.054-2.435,0-3.65-.027-.651.2-.8.815-.793,2.786.03,5.573.023,8.359,0a1.428,1.428,0,0,0,1.531-1.384,1.5,1.5,0,0,0-1.464-1.481c-.254-.025-.512-.01-.768-.01-2.53,0-5.061-.032-7.59.019-.746.015-.916-.214-.884-.916.057-1.278.05-2.563,0-3.842-.024-.618.2-.744.767-.738,2.562.027,5.124.012,7.686.011a6.886,6.886,0,0,0,.864-.019,1.494,1.494,0,0,0,1.388-1.455,1.435,1.435,0,0,0-1.515-1.4c-1.248-.026-2.5-.008-3.746-.009-1.505,0-3.012-.033-4.516.015-.682.022-.948-.111-.934-.876q.075-4.083,0-8.167c-.013-.75.23-.891.924-.886,4.868.029,9.736.038,14.6-.006.845-.008,1.054.2,1.053,1.048q-.045,21.09-.021,42.181c0,.961-.014,1.922,0,2.882.022,1.2.443,1.627,1.674,1.756" transform="translate(-10.208 -1.939)" fill="#dff5fc"/>
        <path id="Path_182744" data-name="Path 182744" d="M77.267,38.122q0,16.718.019,33.435c0,.921-.157,1.24-1.183,1.239q-27.622-.056-55.243-.01c-.845,0-1.134-.172-1.133-1.09q.042-33.627,0-67.256c0-.929.3-1.083,1.138-1.082q27.622.032,55.243-.011c1.036,0,1.18.33,1.177,1.243q-.042,16.765-.019,33.532" transform="translate(-2.349 -0.399)" fill="#863f31"/>
        <path id="Path_182745" data-name="Path 182745" d="M10.017,3.414c1.568-.011,3.136-.009,4.7-.044.51-.011.7.179.649.671a5.462,5.462,0,0,0,0,.576V71.548c0,1.224,0,1.208-1.239,1.229a51.57,51.57,0,0,0-6.609.177c-.456-.52-.3-1.157-.3-1.748Q7.2,53.532,7.209,35.858q0-13.256,0-26.512A7.656,7.656,0,0,1,8.758,4.409a2.742,2.742,0,0,1,1.259-1" transform="translate(-0.856 -0.401)" fill="#a14f41"/>
        <path id="Path_182746" data-name="Path 182746" d="M38.62,97.609A1.438,1.438,0,0,0,37.029,96.4c-1.436-.007-2.874-.037-4.308.015-.62.022-.736-.187-.721-.753.04-1.467.014-2.936.013-4.4,0-1.744-.41-2.159-2.119-2.165q-3.636-.012-7.273-.033a3.417,3.417,0,0,1,3.189-3.525q22.282,0,44.566,0c1.32,0,1.159-.133,1.145,1.2a8.673,8.673,0,0,1-.086,2.285q-4.363.036-8.725.07c-.9.006-1.793-.01-2.689,0-1.044.016-1.668.565-1.67,1.439s.621,1.435,1.662,1.438c3.553.009,7.106.026,10.658-.015.722-.008.951.171.9.9a16.773,16.773,0,0,0,0,2.686c.065.766-.235.875-.917.872-6.5-.026-13-.015-19.493-.015q-3.457,0-6.913,0a1.484,1.484,0,0,0-1.692,1.212c-.614.88-3.322.879-3.937,0" transform="translate(-2.694 -10.187)" fill="#fefefe"/>
        <path id="Path_182747" data-name="Path 182747" d="M9.588,3.418a8.568,8.568,0,0,0-2.53,6.744q.082,31.4.032,62.8a10.59,10.59,0,0,0-3.33,1.692,1.186,1.186,0,0,1-.154-.872Q3.6,41.453,3.6,9.128A5.4,5.4,0,0,1,9.588,3.418" transform="translate(-0.428 -0.406)" fill="#863f31"/>
        <path id="Path_182748" data-name="Path 182748" d="M39.876,98.478a6.188,6.188,0,0,0,3.937,0c.066,1.278.476,1.671,1.788,1.671q13.876,0,27.75,0a2.062,2.062,0,0,0,2.348-2.28c.046-1.407.042-2.817,0-4.225-.019-.636.19-.807.814-.811,2.364-.018,2.364-.04,2.364,2.311,0,2.593-.02,5.186.014,7.778.009.66-.171.869-.853.868q-21.989-.028-43.977,0c-.639,0-.861-.195-.793-.818.1-.911-.4-2.095.206-2.668.548-.521,1.708-.122,2.6-.147.7-.021,1.409,0,2.112-.006,1.22-.014,1.628-.422,1.692-1.671" transform="translate(-3.95 -11.056)" fill="#b85d4f"/>
        <path id="Path_182749" data-name="Path 182749" d="M12.308,85.435C9.687,89.12,9.685,92.7,12.3,96.388a23.565,23.565,0,0,1-4.553-.17,5.424,5.424,0,0,1-4.12-6.076,5.481,5.481,0,0,1,5.266-4.7c1.086-.032,2.175-.005,3.413-.005" transform="translate(-0.427 -10.174)" fill="#24cff8"/>
        <path id="Path_182750" data-name="Path 182750" d="M70.471,89.009c0-.9-.027-1.792,0-2.686.017-.546-.195-.762-.729-.714-.254.023-.511,0-.767,0-14.486,0-28.972.037-43.457-.049a3.241,3.241,0,0,0-3.2,2c-.257.475-.443.987-.662,1.483-.543.011-1.086.026-1.629.034-1.277.021-1.786.525-1.8,1.823-.012,1.44-.048,2.882.012,4.321.039.927-.27.838-.9.484a5.48,5.48,0,0,1,2.4-10.263c1.535-.052,3.073-.018,4.609-.018q22.612,0,45.224-.024c.881,0,1.124.244,1.017,1.062a13.987,13.987,0,0,1-.129,2.545" transform="translate(-1.729 -10.171)" fill="#f1fafe"/>
        <path id="Path_182751" data-name="Path 182751" d="M29.008,105.559c-.652-.433-1.322-.839-1.949-1.306a2.005,2.005,0,0,0-1.853-.381,1.568,1.568,0,0,1-.322-1.259c-.012-2.78-.018-5.56,0-8.339.009-1.257.1-1.32,1.386-1.32.735,0,1.473.041,2.2-.012.671-.049.87.181.864.854-.033,3.2-.015,6.391-.015,9.586,0,.575.007,1.15,0,1.726,0,.209.056.484-.31.454" transform="translate(-2.962 -11.068)" fill="#f72f41"/>
        <path id="Path_182752" data-name="Path 182752" d="M28.663,105.546c.314-.236.214-.581.215-.888.006-3.553-.015-7.106.018-10.659.007-.739-.174-1.053-.961-.982a15,15,0,0,1-2.207,0c-.645-.037-.9.152-.9.851.036,3.329.023,6.658.027,9.987l-2.631,1.87c-.373-.249-.226-.566-.226-.825-.011-3.713.008-7.426-.022-11.138-.005-.676.11-.963.877-.939,1.823.057,3.649.037,5.472,0,.6-.013.753.188.75.767-.023,3.841-.008,7.681-.026,11.522,0,.17.27.78-.391.433" transform="translate(-2.617 -11.055)" fill="#df2334"/>
        <path id="Path_182753" data-name="Path 182753" d="M9.745,101.17c2.4-.01,4.79-.009,7.186-.039.516-.006.759.114.729.685-.05.923-.038,1.85-.053,2.775a37.256,37.256,0,0,1-5.609.056c-1.206-.047-2.571-2.29-2.252-3.477" transform="translate(-1.155 -12.045)" fill="#b85c4f"/>
        <path id="Path_182754" data-name="Path 182754" d="M9.021,100.911a5.509,5.509,0,0,0,1.657,3.035,1.458,1.458,0,0,0,1.232.393c1.658-.013,3.315-.006,4.972-.006-.16.3-.449.182-.682.183-2.4,0-4.79.026-7.185-.018a5.457,5.457,0,0,1-5.4-4.965c-.007-.15.017-.3.033-.578a9.055,9.055,0,0,0,5.368,1.956" transform="translate(-0.431 -11.785)" fill="#a14f41"/>
        <path id="Path_182755" data-name="Path 182755" d="M85.543,85.425q0,1.8,0,3.607c-1.178.011-2.356,0-3.532.044-.46.016-.613-.122-.593-.588.044-.985-.323-2.239.154-2.881.453-.609,1.786-.137,2.729-.188.412-.023.827,0,1.24.005" transform="translate(-9.686 -10.158)" fill="#c8eefc"/>
        <path id="Path_182756" data-name="Path 182756" d="M73.536,20.6a.818.818,0,0,1,.4.7q-.041,1.282,0,2.565a.814.814,0,0,1-.4.7A5.081,5.081,0,0,0,72.7,28q.029,18.675.011,37.348c0,2.191-.048,2.237-2.27,2.237q-18.048,0-36.1,0a2.946,2.946,0,0,1-1.773-.26,2.138,2.138,0,0,1-.269-1.386q-.009-26.886,0-53.772c0-1.537.15-1.672,1.728-1.673q18.531,0,37.062,0a2.7,2.7,0,0,1,1.227.142c.438.351.364.856.368,1.321.018,1.78.041,3.562,0,5.342a4.5,4.5,0,0,0,.855,3.307" transform="translate(-3.846 -1.249)" fill="#c76e5c"/>
        <path id="Path_182757" data-name="Path 182757" d="M72.511,20.225a1.613,1.613,0,0,1-1.115-1.79c0-2.683-.019-5.367-.032-8.051a1.949,1.949,0,0,0-1.035-.094c-12.55-.006-25.1-.032-37.651.027-1.65.008-3.31.195-4.969.2-.567,0-.805.292-.8.838,0,.288-.007.576-.007.865q0,26.27,0,52.54c0,1.822,0,1.793,1.865,1.835.943.022,1.923-.24,2.823.269,1.985.011,3.968.03,5.953.03q16.282.005,32.563,0c1.293,0,1.293,0,1.293-1.341q0-19.692-.005-39.384c0-.893.123-1.672,1.115-1.986,1.391.052,1.763.418,1.763,1.787q0,20.706,0,41.413c0,1.675-.721,2.393-2.4,2.393q-22.916,0-45.832,0a2.047,2.047,0,0,1-2.357-2.342q-.005-28.874,0-57.748c0-1.655.738-2.371,2.425-2.371q22.867,0,45.736,0c1.683,0,2.422.724,2.425,2.38q.009,4.372,0,8.744c0,1.37-.373,1.737-1.762,1.787" transform="translate(-2.821 -0.871)"/>
        <path id="Path_182758" data-name="Path 182758" d="M31.975,67.246c-1.44.011-2.881,0-4.322.041-.528.014-.788-.13-.713-.693a3.622,3.622,0,0,0,0-.479q0-27.185-.026-54.372c0-1,.285-1.186,1.223-1.184q21.275.041,42.553.022c.349,0,.763-.194,1.056.186q-19.358,0-38.717-.019c-.835,0-1.082.2-1.08,1.063q.04,27.718.024,55.435" transform="translate(-3.206 -1.254)" fill="#b85d4f"/>
        <path id="Path_182759" data-name="Path 182759" d="M50.751,33.43q-4.8,0-9.6,0c-1.713,0-2.5-.74-2.516-2.425q-.038-4.178,0-8.356c.014-1.72.772-2.456,2.477-2.457q9.654-.008,19.306,0c1.675,0,2.436.692,2.459,2.369q.062,4.273,0,8.548c-.026,1.6-.817,2.315-2.418,2.32-3.233.01-6.467,0-9.7,0" transform="translate(-4.599 -2.404)"/>
        <path id="Path_182760" data-name="Path 182760" d="M50.866,52.032q5.136,0,10.273,0c1.087,0,1.678.5,1.7,1.393s-.6,1.468-1.628,1.483c-1.5.019-3.008.005-4.512.005q-8.066,0-16.13,0A1.849,1.849,0,0,1,39,54.38a1.374,1.374,0,0,1-.189-1.532,1.342,1.342,0,0,1,1.305-.813q2.592-.005,5.184,0h5.569" transform="translate(-4.604 -6.197)"/>
        <path id="Path_182761" data-name="Path 182761" d="M50.759,59.162q5.182,0,10.366,0a1.529,1.529,0,0,1,1.6.81,1.391,1.391,0,0,1-1.019,1.992,5.706,5.706,0,0,1-1.145.082q-9.789.007-19.579,0a5.529,5.529,0,0,1-1.238-.1A1.278,1.278,0,0,1,38.7,60.446a1.239,1.239,0,0,1,1.215-1.252c.668-.054,1.342-.031,2.014-.032q4.416,0,8.83,0" transform="translate(-4.608 -7.046)" fill="#010000"/>
        <path id="Path_182762" data-name="Path 182762" d="M60.3,30.772c-.207.314-.525.163-.788.163-5.566.008-11.132-.011-16.7.016-.7,0-.943-.159-.923-.894.05-1.949.035-3.9.005-5.853-.009-.583.167-.758.759-.757,5.662.018,11.323.006,16.985.01.318,0,.766-.151.751.437-.052,2.3.128,4.595-.1,6.888a1.872,1.872,0,0,1-.318-1.365c-.01-1.471-.026-2.943,0-4.414.017-.792-.308-1.064-1.081-1.06q-5.279.032-10.556,0c-.728,0-1.04.261-1.028,1.007.026,1.471-.007,2.943.013,4.414.013.97.119,1.075,1.143,1.079,3.454.016,6.909,0,10.364.01a2,2,0,0,1,1.461.317" transform="translate(-4.989 -2.792)" fill="#e6b629"/>
        <path id="Path_182763" data-name="Path 182763" d="M60.988,30.8c-4.1-.005-8.192-.033-12.289,0-.815.006-1.033-.25-1.01-1.035.054-1.758.039-3.52.005-5.28-.012-.627.2-.829.824-.825,3.872.023,7.745.028,11.616,0,.725-.005.835.3.83.913-.018,2.08.01,4.16.019,6.239l0-.01" transform="translate(-5.68 -2.817)" fill="#f8c42d"/>
      </g>
    </g>
  </g>
</svg>
