<svg xmlns="http://www.w3.org/2000/svg" xmlns:xlink="http://www.w3.org/1999/xlink" width="89" height="85" viewBox="0 0 89 85">
  <defs>
    <clipPath id="clip-path">
      <rect id="Rectangle_45285" data-name="Rectangle 45285" width="55.636" height="70.365" fill="none"/>
    </clipPath>
  </defs>
  <g id="_30" data-name="30" transform="translate(-698 -4457)">
    <g id="Group_165391" data-name="Group 165391" transform="translate(698 4457)">
      <rect id="Rectangle_40797" data-name="Rectangle 40797" width="89" height="85" rx="15" fill="#ffd947"/>
    </g>
    <g id="Group_174991" data-name="Group 174991" transform="translate(715 4464)">
      <g id="Group_174991-2" data-name="Group 174991" clip-path="url(#clip-path)">
        <path id="Path_183309" data-name="Path 183309" d="M1.192,75.974a2.513,2.513,0,0,1-.423-3.957.663.663,0,0,0,.132-.5c.009-.458,0-.916.005-1.374a2.2,2.2,0,0,1,1.482-2.175c.387-.15.425-.352.421-.7-.007-.586-.208-1.331.305-1.694.937-.662.736-1.554.739-2.43.006-1.787-.006-3.574.009-5.36A.81.81,0,0,0,3.476,57a2.794,2.794,0,0,1-.6-2.851,1.726,1.726,0,0,1,1.868-1.093c2.4,0,4.81-.01,7.215.007a.751.751,0,0,0,.79-.466,4.486,4.486,0,0,1,2.979-2.342q3.713-.958,7.435-1.885a1.428,1.428,0,0,0,1.069-.805,6.679,6.679,0,0,1,1.7-1.679c.512-.457.926-1.127,1.779-.992a.22.22,0,0,0,.161-.087,1.929,1.929,0,0,0-.4-1.892,10.787,10.787,0,0,1-5.006-7.306c-.068-.353-.138-.578-.619-.606a4.923,4.923,0,0,1-2.813-8.61,1.2,1.2,0,0,0,.444-.982,31.031,31.031,0,0,1,.251-5.82,12.186,12.186,0,0,1,10.036-9.466,20.059,20.059,0,0,1,8.511.18c2.317.652,4.2,1.881,4.851,4.362.262.995.347,1.863,1.65,2.173.917.218,1.32,1.263,1.63,2.171a11.619,11.619,0,0,1,.515,3.312,18.624,18.624,0,0,1,.007,2.129,2.942,2.942,0,0,0,.882,2.474,4.458,4.458,0,0,1,.851,4.986,4.727,4.727,0,0,1-4.1,3.1c-.4.046-.569.12-.653.564a10.761,10.761,0,0,1-4.692,7.136,2.322,2.322,0,0,0-.439,2.085.218.218,0,0,0,.23.1c.664-.1,1.073.329,1.465.742.745.784,1.779,1.295,2.213,2.387.065.165.425.246.664.307q3.618.919,7.241,1.816A4.818,4.818,0,0,1,54.528,55c.324,5.945.69,11.888,1.039,17.832.015.252.013.5.044.754a2.043,2.043,0,0,1-1.37,2.388Z" transform="translate(0 -5.609)"/>
        <path id="Path_183310" data-name="Path 183310" d="M32.386,79.3a.852.852,0,0,1-.863-.944c.017-.458-.14-.595-.586-.58a.8.8,0,0,1-.913-.875.774.774,0,0,1,.918-.791c.456.039.587-.141.582-.586a.87.87,0,1,1,1.738-.012c-.009.5.186.631.643.6a.747.747,0,0,1,.854.781.777.777,0,0,1-.839.877c-.512-.02-.67.145-.66.657.011.528-.331.823-.873.873" transform="translate(-17.255 -42.871)" fill="#70d5f8"/>
        <path id="Path_183311" data-name="Path 183311" d="M113.744,17.559a3.392,3.392,0,0,0-2.4-2.5,3.357,3.357,0,0,0,2.388-2.5,3.54,3.54,0,0,0,2.458,2.494,5.429,5.429,0,0,0-1.531.885,4.388,4.388,0,0,0-.915,1.621" transform="translate(-63.993 -7.219)" fill="#f4c74c"/>
        <path id="Path_183312" data-name="Path 183312" d="M117.738,70.381a2.221,2.221,0,0,0-1.578,1.551,2.255,2.255,0,0,0-1.611-1.545,2.281,2.281,0,0,0,1.59-1.607,2.341,2.341,0,0,0,1.6,1.6" transform="translate(-65.835 -39.53)" fill="#88d149"/>
        <path id="Path_183313" data-name="Path 183313" d="M24.677,98.431a.862.862,0,0,1-.9-.908.906.906,0,1,1,1.812.017.862.862,0,0,1-.914.891" transform="translate(-13.667 -55.529)" fill="#f4c84d"/>
        <path id="Path_183314" data-name="Path 183314" d="M105.737.909a.906.906,0,0,1-1.813.02.906.906,0,1,1,1.813-.02" transform="translate(-59.728 0)" fill="#fb667f"/>
        <path id="Path_183315" data-name="Path 183315" d="M74.582,45.916a42.012,42.012,0,0,1-.136,5.209A9.519,9.519,0,0,1,55.6,50.493c-.258-3.265-.085-6.546-.071-9.82a4.2,4.2,0,0,1,.917-2.541c.7-.918,1.249-.991,2.207-.324a10.82,10.82,0,0,0,10.623,1.242,10,10,0,0,0,2.315-1.323,1.239,1.239,0,0,1,1.962.26,4.276,4.276,0,0,1,1.024,2.706c.014,1.58,0,3.161,0,5.224" transform="translate(-31.875 -21.471)" fill="#f8cfb3"/>
        <path id="Path_183316" data-name="Path 183316" d="M99.369,121.925q0-3.47,0-6.94a3.135,3.135,0,0,0-.016-.548.661.661,0,0,0-.714-.6.618.618,0,0,0-.629.6,3.822,3.822,0,0,0-.015.617c0,4.627-.011,9.253.013,13.88,0,.571-.148.73-.721.723-2.542-.031-5.085-.026-7.626,0-.485,0-.616-.141-.614-.619.018-3.55.012-7.1.006-10.65a1.333,1.333,0,0,1,.234-.766q3.794-5.844,7.567-11.7a.63.63,0,0,1,.825-.341c1.343.367,2.706.664,4.052,1.024a3.438,3.438,0,0,1,2.594,3.315c.248,4.428.528,8.855.789,13.283.11,1.872.188,3.746.311,5.617.042.632-.179.854-.815.84-1.557-.033-3.115-.026-4.672,0-.453.007-.582-.135-.578-.583.02-2.382.009-4.764.009-7.146" transform="translate(-51.178 -60.653)" fill="#5b5d60"/>
        <path id="Path_183317" data-name="Path 183317" d="M49.009,27.161c-.041-2.694-.238-5.377,1.048-7.878a10.829,10.829,0,0,1,8.675-6.053,18.641,18.641,0,0,1,6.96.134,7.437,7.437,0,0,1,2.393.994,4.442,4.442,0,0,1,2.076,3.6c.074,1.191.345,1.508,1.542,1.695a1.787,1.787,0,0,1,1.343,1.15,7.05,7.05,0,0,1,.614,2.865c.044,1.141.01,2.286.01,3.456a.577.577,0,0,1-.16.018,3.065,3.065,0,0,1-1.134-.21c-.34-.214-.13-.712-.208-1.08a6.229,6.229,0,0,0-1.333-2.82,2.552,2.552,0,0,0-3.766-.442,9.423,9.423,0,0,1-5.825,1.9,9.3,9.3,0,0,1-5.455-1.77c-1.683-1.2-3.083-.97-4.277.722a5.033,5.033,0,0,0-1.021,2.723c-.022.613-.221.907-.842.9a4.184,4.184,0,0,0-.638.095" transform="translate(-28.146 -7.454)" fill="#c6d6e4"/>
        <path id="Path_183318" data-name="Path 183318" d="M55.647,140.393c0,1.787-.01,3.573.008,5.36,0,.4-.094.563-.532.559q-3.951-.027-7.9,0c-.378,0-.521-.1-.519-.5q.018-5.187,0-10.375c0-.518.25-.532.636-.53,2.176.01,4.351,0,6.527.006a1.967,1.967,0,0,0,1.127-.225c.541-.353.665-.1.662.418-.009,1.764,0,3.527,0,5.291" transform="translate(-26.839 -77.312)" fill="#5b5d60"/>
        <path id="Path_183319" data-name="Path 183319" d="M38.871,113.992c-1.807,0-3.614-.014-5.421.01-.469.006-.663-.117-.623-.61.045-.57-.048-1.07.576-1.529.893-.658.718-2.764-.189-3.446-.308-.232-.31-.347-.088-.62a3.356,3.356,0,0,1,1.8-1.179c1.391-.36,2.791-.686,4.18-1.056a.5.5,0,0,1,.664.253q2.464,3.836,4.958,7.654c.272.417.178.532-.3.528-1.852-.015-3.705-.006-5.558-.006" transform="translate(-18.864 -60.649)" fill="#5b5d60"/>
        <path id="Path_183320" data-name="Path 183320" d="M79.926,121.75c0-1.924.006-3.847-.005-5.77a1.8,1.8,0,0,1,.288-1.035q3.755-5.787,7.49-11.587c.215-.334.377-.407.757-.23a5.73,5.73,0,0,0,1.32.352c.52.1.672.234.324.765-2.433,3.713-4.826,7.452-7.253,11.168a2.738,2.738,0,0,0-.466,1.6c.021,3.526,0,7.052.02,10.579,0,.457-.085.683-.594.623-.606-.071-1.393.256-1.778-.138-.35-.359-.095-1.133-.1-1.724-.012-1.534,0-3.068,0-4.6" transform="translate(-45.889 -59.217)" fill="#808081"/>
        <path id="Path_183321" data-name="Path 183321" d="M52.029,103.665c.763-.222,1.472-.4,2.159-.64.431-.151.459.208.584.4,2.146,3.3,4.221,6.639,6.445,9.882a7.232,7.232,0,0,1,1.363,4.581c-.113,3.222-.041,6.451-.023,9.677,0,.461-.093.682-.6.622-.605-.072-1.416.262-1.767-.144-.3-.347-.106-1.131-.107-1.722q-.007-4.736,0-9.473a1.869,1.869,0,0,0-.353-1.219,2.62,2.62,0,0,1-.552-1.3,1.894,1.894,0,0,0-1.016-1.469,1.687,1.687,0,0,1-.627-.609q-2.638-4.094-5.285-8.182c-.073-.113-.133-.234-.228-.4" transform="translate(-29.903 -59.191)" fill="#808081"/>
        <path id="Path_183322" data-name="Path 183322" d="M12.249,125.3c0-1.054.014-2.108-.007-3.161-.009-.427.1-.613.574-.608,2.107.021,4.214.018,6.321,0,.4,0,.5.138.5.518-.014,2.176-.018,4.352,0,6.527,0,.44-.158.532-.558.529-2.084-.016-4.169-.019-6.252,0-.45,0-.6-.126-.589-.58.028-1.076.009-2.153.009-3.229" transform="translate(-7.034 -69.848)" fill="#9a6b4b"/>
        <path id="Path_183323" data-name="Path 183323" d="M72.609,96.053a.721.721,0,0,1-.708-.3q-1.565-1.686-3.171-3.332c-.307-.313-.469-.605-.248-1.023a.934.934,0,0,0,.041-.2c.108-.415-.1-1.015.224-1.212.241-.146.758.182,1.157.276a10.806,10.806,0,0,0,6.212-.316c.413-.146.592-.139.538.356a1.24,1.24,0,0,0,.043.611c.394.864-.015,1.418-.618,2-.941.9-1.822,1.867-2.7,2.832a.82.82,0,0,1-.77.31" transform="translate(-39.3 -51.648)" fill="#f8cfb3"/>
        <path id="Path_183324" data-name="Path 183324" d="M11.945,151.972c-1.97,0-3.94-.014-5.909.01-.5.006-.719-.076-.711-.659.025-1.853.134-1.9,2.02-1.879,3.25.036,6.5.114,9.752-.05,1.1-.056,1.529.309,1.548,1.4.02,1.181.02,1.181-1.133,1.181H11.945" transform="translate(-3.06 -85.858)" fill="#9a6b4b"/>
        <path id="Path_183325" data-name="Path 183325" d="M37.358,141.111q0,2.577,0,5.153c0,.269.063.552-.382.56-.509.009-.317-.336-.319-.562a2.329,2.329,0,0,0-.671-2c-.209-.171-.145-.418-.156-.641a13.106,13.106,0,0,0-.061-1.575,2.3,2.3,0,0,0-1.433-1.867c-.286-.119-.447-.24-.422-.586.069-.942.023-1.849-.96-2.381a3.971,3.971,0,0,1-.082-1.67c.114-.157.287-.118.441-.119,1.168,0,2.336.014,3.5-.01.42-.009.554.127.549.548-.02,1.717-.008,3.434-.008,5.152" transform="translate(-18.862 -77.824)" fill="#5a5c5f"/>
        <path id="Path_183326" data-name="Path 183326" d="M10.859,160.178c-2.267,0-4.533-.022-6.8.015-.592.01-.682-.224-.662-.722.018-.457-.048-.815.645-.811q6.833.046,13.667,0c.638,0,.641.308.635.759-.006.432.04.785-.618.773-2.289-.04-4.579-.016-6.868-.016" transform="translate(-1.951 -91.187)" fill="#f4c74c"/>
        <path id="Path_183327" data-name="Path 183327" d="M39.663,130.146c-2.082,0-4.165-.023-6.247.014-.611.011-.6-.308-.576-.723.02-.385-.143-.813.561-.809,4.142.027,8.283.011,12.425.016.637,0,1.059.329,1,.784-.076.547-.439.729-.98.725-2.06-.018-4.119-.007-6.178-.007" transform="translate(-18.87 -73.927)" fill="#744d34"/>
        <path id="Path_183328" data-name="Path 183328" d="M103.648,52.756c0-1.053.016-2.107-.008-3.159-.009-.395.132-.455.484-.4a3.593,3.593,0,0,1,.238,7.071c-.472.1-.77.1-.73-.555.06-.981.016-1.968.016-2.953" transform="translate(-59.558 -28.264)" fill="#f8cfb3"/>
        <path id="Path_183329" data-name="Path 183329" d="M47.561,52.729c0,1.027-.013,2.055.007,3.082.007.369-.064.529-.485.484a3.6,3.6,0,0,1,.124-7.128c.361-.02.356.166.355.41,0,1.05,0,2.1,0,3.151" transform="translate(-25.305 -28.257)" fill="#f8cfb3"/>
        <path id="Path_183330" data-name="Path 183330" d="M88.65,97.648c-.08.106-.157.216-.242.319-1.148,1.393-2.3,2.779-3.439,4.182-.224.277-.347.259-.568.007-.51-.586-1.04-1.155-1.581-1.713-.2-.211-.2-.347,0-.559,1.221-1.267,2.429-2.547,3.639-3.824.134-.141.238-.252.435-.065.53.5,1.077.989,1.615,1.483a1.5,1.5,0,0,1,.138.169" transform="translate(-47.512 -55.114)" fill="#ecf3fb"/>
        <path id="Path_183331" data-name="Path 183331" d="M66.165,100.288c-.093.108-.163.2-.239.277-.526.572-1.061,1.135-1.574,1.718-.218.248-.348.268-.571-.006q-1.726-2.128-3.488-4.227c-.188-.225-.207-.375.043-.537a.893.893,0,0,0,.1-.091c.529-.467,1.039-1.272,1.595-1.305s.993.88,1.483,1.376c.786.8,1.547,1.618,2.318,2.43.107.112.208.229.331.365" transform="translate(-34.57 -55.241)" fill="#ecf3fb"/>
        <path id="Path_183332" data-name="Path 183332" d="M14.561,142.526c1.349,0,2.7.024,4.048-.011.578-.015.757.188.745.752-.011.516-.085.789-.71.782q-4.081-.047-8.164,0c-.62.008-.638-.283-.644-.747-.006-.5.025-.815.678-.791,1.347.048,2.7.014,4.047.014" transform="translate(-5.653 -81.905)" fill="#744d34"/>
        <path id="Path_183333" data-name="Path 183333" d="M14.546,116.259c-1.37,0-2.74-.027-4.109.012-.6.017-.594-.3-.59-.726s-.028-.808.611-.8q4.144.033,8.288,0c.647-.005.592.382.606.811.015.458-.068.728-.628.716-1.392-.03-2.785-.01-4.178-.01" transform="translate(-5.659 -65.946)" fill="#744d34"/>
        <path id="Path_183334" data-name="Path 183334" d="M76.811,119.946a3.834,3.834,0,0,1-1.1-4.06,8.806,8.806,0,0,0,.115-1.022c.105-1.253.2-1.325,1.451-1.213.248.023.3.122.323.332.131,1.274.273,2.547.4,3.821a.667.667,0,0,1-.063.393c-.37.6-.76,1.186-1.125,1.749" transform="translate(-43.426 -65.297)" fill="#fb647d"/>
        <path id="Path_183335" data-name="Path 183335" d="M70.714,115.215l-1.4-2.168c.751-.094,1.127-.675,1.749-1.269l-.344,3.437" transform="translate(-39.834 -64.242)" fill="#d6e2ed"/>
        <path id="Path_183336" data-name="Path 183336" d="M85.079,113.065l-1.4,2.157-.361-3.349c.629.456.933,1.138,1.765,1.192" transform="translate(-47.883 -64.297)" fill="#d5e0eb"/>
        <path id="Path_183337" data-name="Path 183337" d="M76.89,107.612c.5-.158.691.322.992.6.178.166.058.27-.095.36a1.786,1.786,0,0,1-.972.266c-.459-.014-.95-.035-1.2-.48-.117-.213.761-.747,1.271-.749" transform="translate(-43.455 -61.83)" fill="#f7637b"/>
        <path id="Path_183338" data-name="Path 183338" d="M73.306,73.168A4.124,4.124,0,0,1,70.6,71.944c-.325-.319-.518-.689-.165-1.074.372-.406.749-.259,1.123.082a3.1,3.1,0,0,0,4.323-.021c.357-.322.715-.445,1.076-.089s.207.737-.11,1.074a4.7,4.7,0,0,1-3.537,1.252" transform="translate(-40.371 -40.59)" fill="#010000"/>
        <path id="Path_183339" data-name="Path 183339" d="M87.4,55.5a1.332,1.332,0,0,1,1.344,1.338,1.363,1.363,0,1,1-2.724-.031A1.349,1.349,0,0,1,87.4,55.5" transform="translate(-49.438 -31.9)" fill="#010101"/>
        <path id="Path_183340" data-name="Path 183340" d="M65.662,55.5a1.326,1.326,0,0,1,1.358,1.321,1.367,1.367,0,0,1-1.358,1.408,1.406,1.406,0,0,1-1.376-1.408A1.364,1.364,0,0,1,65.662,55.5" transform="translate(-36.947 -31.9)" fill="#010101"/>
      </g>
    </g>
  </g>
</svg>
