<svg xmlns="http://www.w3.org/2000/svg" width="189.628" height="390.694" viewBox="0 0 189.628 390.694">
  <g id="_32" data-name="32" transform="translate(-1529.976 -228.021)">
    <path id="Path_124050" data-name="Path 124050" d="M1634.481,310.791a.435.435,0,0,0-.458-.528l-28.14,1.525c-2,.108-5.157-.115-5.257,2.613-.1,2.625,1.834,5.685,3.464,7.581,2.222,2.585,5.075,3.947,8.208,5.123,4.009,1.505,6.687,4.209,10.215,6.448a18.492,18.492,0,0,0,4.352,1.845,13.954,13.954,0,0,1,3.3,1.528c.481.309.862.752,1.5.731,1.911-.065,3.424-4.069,4.024-5.452A24.08,24.08,0,0,0,1634.481,310.791Z" transform="translate(-1.964 -2.287)" fill="#c44c65"/>
    <path id="Path_124051" data-name="Path 124051" d="M1691.681,297.374a1.88,1.88,0,0,0-3.018-.464c-1.475,1.308-1.352,4.364-1.866,6.124-1.5,5.128-4.068,9.861-5.463,15.017a6.844,6.844,0,0,0-.32-1.946c-.572-1.746-2.026-4.562-4.121-4.784-2.255-.24-2.05,2.576-1.713,4.046a54.849,54.849,0,0,0,2.018,5.514c.65,1.875,1.168,3.789,1.632,5.717a.407.407,0,0,0,.793-.056.334.334,0,0,0,.029-.045c2.319-5.766,7.023-9.957,10.178-15.213C1692.07,307.555,1694.255,301.506,1691.681,297.374Z" transform="translate(-4.032 -1.9)" fill="#3f8869"/>
    <path id="Path_124052" data-name="Path 124052" d="M1648.014,264.11a1.281,1.281,0,0,0-.486-.175c-3.471-.525-5.582,2.445-7.431,4.969a49.332,49.332,0,0,0-9.267,25.049c-.259,3.234-.473,6.752,2.132,9.083.609.544.468-8.267,1.4-8.487,5.05-1.2,7.921-7.089,10.4-13.091,2.564-6.214,3.258-12.034,5.026-17.534C1650.143,262.807,1648.875,263.709,1648.014,264.11Z" transform="translate(-2.8 -0.983)" fill="#7d4851"/>
    <path id="Path_124053" data-name="Path 124053" d="M1641.056,257.14c2.023.436,4.013.912,6.049,1.2,3.525.5,6.027-2.591,6.825-5.324,1.114-3.816-1.883-6.056-5.147-8.006-3.994-2.386-5.191-7.812-8.716-10.961a24.029,24.029,0,0,0-11.743-5.6c-7.726-1.4-16.439.572-21.093,6.416-3.423-.075-7.113-1.354-10.511-1.071a12.658,12.658,0,0,0-8.908,4.292c-2.889,3.466-3.29,9.137,1.156,11.268-2.989,5.158,1.145,10.9,7.418,10.995,2.368,1.424,5.172-1.616,6.425-3.277,2.291-3.036,3.129-6.675,4.2-10.2a9.478,9.478,0,0,0,1.7.366c4.422.53,8.245-1.543,11.672-3.816,2.359,4.471,8.416,3.951,13.269,2.542a9.351,9.351,0,0,0,1,6,11.618,11.618,0,0,0,6.195,5.179A.447.447,0,0,1,1641.056,257.14Z" transform="translate(-1.548 0)" fill="#7d4851"/>
    <path id="Path_124054" data-name="Path 124054" d="M1637.236,282.4c-.04.058-.1.1-.14.152a1.135,1.135,0,0,0-.909.761c-1.462.829-3.6.806-5.128.983q-3.653.424-7.32.693c-1.872.135-3.765.156-5.627.391-1.978.251-5.654.851-7.634,1.077a1.278,1.278,0,0,0-.672,2.253c-1.293,10.241-2.9,23.731-10.614,31.068-.075.071,1.711.352,1.661.429a.9.9,0,0,0-.153.8,1.1,1.1,0,0,0,.033.123c.017.056.026.072.032.088s.019.047.03.07c1.417,3.514,5.372,6.531,8.623,8.325,3.584,1.977,11.986,8.966,16.025,8.817,6.941-.256,19.6-8.3,17.311-16.326-.068-.238-8.922-3.52-9.07-3.654a1.775,1.775,0,0,0-.132-.241c-4.283-6.94,2.448-29.16,4.265-34.41.4-.323,1.131.28,1.443-.167C1640.131,282.373,1638.1,281.153,1637.236,282.4Z" transform="translate(-1.925 -1.498)" fill="#faa985"/>
    <path id="Path_124055" data-name="Path 124055" d="M1644.979,255.123a26.934,26.934,0,0,0-17.317-15.426,29.067,29.067,0,0,0-12.079-1.05c-4.491.571-8.964,1.53-11.823,5.348-6.9,9.218-6.022,22.762-4.738,33.525.6,5.05,2.4,12.065,6.486,15.7,7.454,6.633,17.98,2.2,25.721-1.764,3.9-2,7.832-4.941,9.392-9.2a147.118,147.118,0,0,0,4.411-14.928C1646.062,263.217,1646.591,259.169,1644.979,255.123Z" transform="translate(-1.895 -0.289)" fill="#faa985"/>
    <path id="Path_124056" data-name="Path 124056" d="M1631.8,254.894a1.5,1.5,0,0,0-.767-1.174c-.834-.424-1.972.113-2.817.249a10.191,10.191,0,0,0-3.844,1.194c-1.291.808-2.215,2.35-.843,3.581,1.256,1.128,3.312.594,4.713.041,1.343-.53,3.085-1.647,3.5-3.088A1.96,1.96,0,0,0,1631.8,254.894Z" transform="translate(-2.583 -0.71)" fill="#7d4851"/>
    <path id="Path_124057" data-name="Path 124057" d="M1610.625,255.194c-.307-1.407-1.925-1.642-3.15-1.066-1.718.811-3.271,1.93-5.016,2.715a1.226,1.226,0,0,0-.114,2.132c1.807,1.382,5,.45,6.669-.718a3.327,3.327,0,0,0,1.659-2.685A2.249,2.249,0,0,0,1610.625,255.194Z" transform="translate(-1.997 -0.718)" fill="#7d4851"/>
    <path id="Path_124058" data-name="Path 124058" d="M1652.094,254.526c.229-5.227-6.039-7.484-10.347-10.314l.01-.523a1.088,1.088,0,1,0-2.174-.036c0,.243-.016.489-.021.733-.152.317.7.963.851,1.276-.231,7.59-2.917,20.314,3.15,23.177,3.537,1.67,1.906,11.141,3.682,5.822C1651.2,262.827,1651.874,259.579,1652.094,254.526Z" transform="translate(-3.047 -0.403)" fill="#7d4851"/>
    <g id="Group_131419" data-name="Group 131419" transform="translate(1594.135 258.143)">
      <path id="Path_124059" data-name="Path 124059" d="M1601.821,271.176a5.964,5.964,0,0,1-1.765-.222c-2.522-.961-3.838-6.746-4.081-9.4a1.292,1.292,0,0,1,.378-1.026c1.585-1.664,8.808-1.62,12.973-1.446a1.636,1.636,0,0,1,1.551,1.419c.238,1.76.478,6.747-1.25,8.68C1608.338,270.625,1604.313,271.218,1601.821,271.176Zm5.184-11.162c-5.323-.088-9.123.359-9.929,1.206a.3.3,0,0,0-.108.247c.287,3.134,1.735,7.9,3.443,8.556,1.2.458,7.107.024,8.473-1.5s1.265-5.966,1.006-7.881a.643.643,0,0,0-.606-.558C1608.5,260.049,1607.738,260.027,1607.005,260.014Z" transform="translate(-1595.97 -259.005)" fill="#0b0506"/>
    </g>
    <path id="Path_124060" data-name="Path 124060" d="M1649,248.877a44.094,44.094,0,0,0-3.625-4.983c-6.11-7.182-14.447-9.011-23.5-9.443-5.052-.24-9.548,1.545-14.517,1.58-3.218.022-6.62-.315-7.824,3.271a1.125,1.125,0,0,0,.014.823,12.372,12.372,0,0,0-5.041,5.363c-1.665,3.373-6.448,10.934-3.339,13.313,1.573,1.2,5.337,4.778,8.759-5.783a10.958,10.958,0,0,1,3.13-4.321,2.87,2.87,0,0,1,2.708-.62,12.7,12.7,0,0,0,7.609-.378c3.028-1.143,4.368-2.432,7.8-.045a44.422,44.422,0,0,0,5.269,3.59,24.723,24.723,0,0,0,8.677,2.491,1.3,1.3,0,0,1,1.154,1c.169.768.437,1.756.481,1.861a7.837,7.837,0,0,0,1.9,2.7c2.635,2.425,5.78,2.223,8.969,1.187a8.658,8.658,0,0,0,5.586-5.346C1653.761,253.727,1649.752,250.062,1649,248.877Z" transform="translate(-1.673 -0.178)" fill="#7d4851"/>
    <path id="Path_124061" data-name="Path 124061" d="M1647,263.993c-2.129.34-3.932,2.07-5.268,4.133-1.4,3.6-2.19,7.774-1.128,11.347,1.752,1.758,4.4-1.371,5.6-2.666,2-2.166,4.371-5.052,4.757-8.083C1651.291,266.16,1649.893,263.533,1647,263.993Z" transform="translate(-3.063 -0.999)" fill="#faa985"/>
    <path id="Path_124062" data-name="Path 124062" d="M1614.863,270.054c-1.195-.984-2.563-2.074-3.008-3.633-.545-1.906.46-3.78,1.546-5.274.3-.411-.378-.818-.675-.409a7.38,7.38,0,0,0-1.758,5.3c.3,1.992,1.855,3.353,3.328,4.566C1614.684,270.922,1615.255,270.376,1614.863,270.054Z" transform="translate(-2.251 -0.905)" fill="#bf5b46"/>
    <path id="Path_124063" data-name="Path 124063" d="M1619.943,267.784a8.078,8.078,0,0,0-2.926-1.337c-.489-.057-1.349.193-1.03.841a.385.385,0,0,0,.709-.088c.427-.236,2.548,1.08,2.837,1.259A.4.4,0,0,0,1619.943,267.784Z" transform="translate(-2.39 -1.068)" fill="#bf5b46"/>
    <path id="Path_124064" data-name="Path 124064" d="M1678.149,518.538c.486,12.172-5.493,75.423-9.771,102.08-9.2,1.867-19.016,1.876-28.164,3.344-7.875.457-15.759.9-23.634,1.235-.292.01-.574.029-.865.039-10.947.437-21.9.642-32.86.282-11.18-.36-27.435,0-39.344-5.269a128.541,128.541,0,0,1,3.169-20.64,32.514,32.514,0,0,0,.8-9.5c-1.118-17.334,6.63-96.014,12.668-110.645.8-1.915,33.754,14.427,41.532,14.748,26.619,1.128,56.173,4.88,78.009,21.447C1681.279,516.866,1679.772,519.52,1678.149,518.538Z" transform="translate(-0.376 -6.988)" fill="#f2d0b8"/>
    <path id="Path_124065" data-name="Path 124065" d="M1649.313,266.757c-1.265-.471-2.692.824-3.5,1.671a17.147,17.147,0,0,0-2.864,4.689c-.214.456.459.869.675.41a24.065,24.065,0,0,1,1.785-3.338c.6-.877,2.363-3.165,3.68-2.675C1649.568,267.691,1649.786,266.933,1649.313,266.757Z" transform="translate(-3.14 -1.074)" fill="#bf5b46"/>
    <path id="Path_124066" data-name="Path 124066" d="M1592.02,502.83c-1.352-12.514-8.758-22.413-16.081-31.571q-14.208-17.769-28.479-35.478a1.391,1.391,0,0,0-2.292.054c-.912-.225-5.52-18.261-5.564-16.935-.395,11.863.636,23.579,1.275,35.388.673,12.4.523,24.7,2.513,37.014.534,3.309,1.221,6.681,2.979,9.535,4.391,7.131,14.181,6.223,21.331,5.278a120.474,120.474,0,0,1,22.711-1.059C1591.584,505.123,1592.138,503.918,1592.02,502.83Z" transform="translate(-0.265 -5.306)" fill="#acade1"/>
    <path id="Path_124067" data-name="Path 124067" d="M1625.731,275.874c-.218-.744-.924-.886-1.6-.817a20.053,20.053,0,0,0-2.675.827,17.363,17.363,0,0,1-3.906.527c-1.568.031-3.867-.907-5.329-.2-2.372,1.141.23,3.54,1.8,3.769a.343.343,0,0,0,.176-.017c2.753.973,6.375-.178,8.822-1.37C1623.887,278.168,1626.13,277.238,1625.731,275.874Z" transform="translate(-2.26 -1.308)" fill="#fff"/>
    <path id="Path_124068" data-name="Path 124068" d="M1628.942,259.865a1.592,1.592,0,0,0-.786-.1c-1.782.184-1.386,2.438-.584,3.443a1.2,1.2,0,0,0,2.178-.553C1630.023,261.675,1629.9,260.263,1628.942,259.865Z" transform="translate(-2.695 -0.882)" fill="#0b0506"/>
    <path id="Path_124069" data-name="Path 124069" d="M1663.016,537.01q-5.862,4.681-11.705,9.362c-3.548,2.839-7.33,5.542-10.509,8.8-5.862,6.018-6.912,14.447-8.682,22.3q-2.844,12.614-6.261,25.112-3.325,12.191-7.214,24.2c-.292.01-.574.029-.865.039.331-1.011.651-2.022.972-3.033q8.093-25.564,13.747-51.828a53.188,53.188,0,0,1,3.121-10.636,25.338,25.338,0,0,1,6.572-8.584c6.455-5.736,13.5-10.918,20.251-16.323C1662.851,536.1,1663.415,536.68,1663.016,537.01Z" transform="translate(-2.442 -8.573)" fill="#0b0506"/>
    <g id="Group_131420" data-name="Group 131420" transform="translate(1633.97 259.551)">
      <path id="Path_124070" data-name="Path 124070" d="M1643.147,266.156a70.5,70.5,0,0,0-6.2-4.876l.557-.827a71.733,71.733,0,0,1,6.3,4.951Z" transform="translate(-1636.945 -260.453)" fill="#0b0506"/>
    </g>
    <path id="Path_124071" data-name="Path 124071" d="M1709.21,390.691q-.4-5.648-1.247-11.256c-1.417-9.47-3.658-19.284-8.168-27.812-5.422-10.25-17.747-16.068-27.73-21.09a130.793,130.793,0,0,0-35.359-11.831c-1.665,7.074-.257,19.4-6.961,19.189-5.06-.159-14.6-7.411-18.837-9.721-5.359-2.918-10.4-5.46-14.783-9.52-1.055.215-2.007.4-2.545.565-2.727.85-5.444,1.731-8.14,2.675a128.569,128.569,0,0,0-15.828,6.611c-16.876,8.583-33.125,20.018-37.727,41.621-1.669,7.835,4.536,15.422,5.077,23.313.312,4.568.937,9.107,1.665,13.626a129.4,129.4,0,0,0,14.955,42.073c7.831,13.972,10.481,25.545,18.572,39.369,1.389,11.942,11.828,47.005,21.678,49.238a160.922,160.922,0,0,0,23.629,3.146c22.074,1.639,44.192.071,66.22-1.489a10.8,10.8,0,0,0,4.828-1.108c6.7-3.984.986-29.413.183-35.505q-1.367-10.361-3.266-20.647c-.807-4.336-4.185-11.891-3.575-16.166a241.615,241.615,0,0,0,2.1-46.774s22.861-18.5,25.487-24.219C1709.873,394.038,1709.28,391.679,1709.21,390.691Z" transform="translate(-0.045 -2.52)" fill="#acade1"/>
    <path id="Path_124072" data-name="Path 124072" d="M1709.321,367.365c-10.169,5.553-30.073,28.64-30.073,37.966,0,17.093.79,35.014-1.478,51.73-.032.235,0,0,.044.2-1.148,7.288,1.448,9.3.388,16.582a39.3,39.3,0,0,0,2.243,19.526,1.734,1.734,0,0,0,1.677,1.2,1.434,1.434,0,0,0,1.383.91c12-.408,7.225,1.971,18.28-2.431a34.249,34.249,0,0,0,21.6-28.988c1.624-16.811-3.4-46.665-5.222-59.441A199.978,199.978,0,0,0,1709.321,367.365Z" transform="translate(-4.103 -3.875)" fill="#8284d2"/>
    <path id="Path_124073" data-name="Path 124073" d="M1606.191,261.526a1.607,1.607,0,0,0-.786-.1c-1.782.184-1.386,2.438-.584,3.443.747.934,1.873.538,2.177-.553C1607.271,263.337,1607.145,261.924,1606.191,261.526Z" transform="translate(-2.062 -0.929)" fill="#0b0506"/>
    <path id="Path_124074" data-name="Path 124074" d="M1617.546,296.959a15.711,15.711,0,0,1-7.166.165c-.494-.1-.719.654-.222.757a16.687,16.687,0,0,0,7.585-.158A.4.4,0,0,0,1617.546,296.959Z" transform="translate(-2.222 -1.917)" fill="#bf5b46"/>
    <path id="Path_124075" data-name="Path 124075" d="M1677.108,285.926c-.228-.472-.937-.072-.71.4,3.792,7.848,7.082,15.621,5.474,24.5-1.53,8.445-3.5,16.833-5.255,25.234-.107.51.674.743.781.229,1.865-8.909,4.21-17.861,5.527-26.868C1684.153,301.015,1680.676,293.312,1677.108,285.926Z" transform="translate(-4.07 -1.604)" fill="#3f8869"/>
    <path id="Path_124076" data-name="Path 124076" d="M1564.016,375.5c8.963,4.875,18.844,11.235,26.927,18.945a66.16,66.16,0,0,0-10.5-13.463c-10.681-10.7-29.526-39.561-30.138-39.078a50.9,50.9,0,0,0-16.636,23.1C1544.362,366.065,1555.188,370.693,1564.016,375.5Z" transform="translate(-0.103 -3.167)" fill="#8284d2"/>
    <path id="Path_124077" data-name="Path 124077" d="M1606.011,471.936q-1.194-9.81-2.389-19.622c-.991-8.141-5.575-16.731-8.724-24.188-6.835-16.182-15.1-35.538-31.049-44.874-8.654-5.067-20.681-10.849-32.011-11.658-2.478,10.185-2.519,22.009.089,35.418,2.379,12.235,8.812,33.067,12.785,44.881,3.763,11.19,7.857,23.21,14.639,32.977,5.414,7.8,13.656,14.39,23.488,14.882,5.782.29,11.477-1.785,16.733-3.97,3.334-1.385,6.661-3.261,7.693-6.966C1608.671,483.781,1606.629,477.01,1606.011,471.936Z" transform="translate(0 -3.992)" fill="#8284d2"/>
    <path id="Path_124078" data-name="Path 124078" d="M1679.2,351.567c.684-3.237,1.019-7.217-.63-10.042A8.545,8.545,0,0,0,1673.2,332c-3.213-1.095-7.108.058-10.31.649-4.211.777-8.707,1.476-12.71,3.037-6.315,2.463-6.388,9.862-7.4,15.669-1.941,11.152-4.416,22.538-9.211,32.977-4.228,9.2-10.009,17.386-15.362,25.93-.89,1.42,4.933,3.01,6.122,2.363a156.454,156.454,0,0,1,12.033,16.2,1.606,1.606,0,0,0,2.9-.583,1.349,1.349,0,0,0,1.494-.7c8.321-14.522,12.373-27.086,16.894-43.184,3.257-2.176,7.372-7.793,8.767-11.873a2.21,2.21,0,0,1,1.586-1.417c4.6-1.112,9.092-2.772,9.391-8.367.006-.1,0-.209.006-.312a1.316,1.316,0,0,0,.6-.657C1679.421,358.634,1680.843,354.694,1679.2,351.567Z" transform="translate(-2.451 -2.879)" fill="#faa985"/>
    <path id="Path_124079" data-name="Path 124079" d="M1599.3,487.962c-14.356,5.741-27.2-6.022-35.839-16.074a132.185,132.185,0,0,1-21.625-35.132c-.2-.482-.91-.08-.71.4a132.75,132.75,0,0,0,23.151,36.9c8.626,9.709,21.376,20.232,35.226,14.694C1599.986,488.559,1599.79,487.768,1599.3,487.962Z" transform="translate(-0.309 -5.798)" fill="#0b0506"/>
    <g id="Group_131421" data-name="Group 131421" transform="translate(1617.45 256.127)">
      <path id="Path_124080" data-name="Path 124080" d="M1628.382,269.785a10.072,10.072,0,0,1-6.33-2.134c-2.116-1.918-2.158-5.943-2.079-7.585a2.1,2.1,0,0,1,1.556-1.934,33.425,33.425,0,0,1,14.3-.715,1.628,1.628,0,0,1,1.2.928c1.071,2.261-1.9,7.916-2.238,8.552a5.838,5.838,0,0,1-4.359,2.733A11.068,11.068,0,0,1,1628.382,269.785Zm2.693-11.854a34.926,34.926,0,0,0-9.287,1.163,1.106,1.106,0,0,0-.818,1.021c-.057,1.171-.1,5.121,1.753,6.8,1.6,1.455,4.849,2.2,7.543,1.736a4.935,4.935,0,0,0,3.651-2.222c1.5-2.8,2.79-6.438,2.215-7.654a.63.63,0,0,0-.493-.377A25.934,25.934,0,0,0,1631.075,257.931Z" transform="translate(-1619.952 -256.93)" fill="#0b0506"/>
    </g>
    <path id="Path_124081" data-name="Path 124081" d="M1657.064,506.622q-4.238-11.061-8.475-22.122c-1.973-5.148-3.5-10.768-8.151-14.158a1.565,1.565,0,0,0-.635-.287c-.334-.246-.4-1.158-.92-1.031-4.095,1-5.468,3.945-4.977,7.981a77.129,77.129,0,0,0,3.982,16.837c1.633,4.528,3.489,9.851,6.515,13.638,2.668,3.338,7.179,4.023,10.882,2.969.434-.123.283-1.612.471-1.912A1.384,1.384,0,0,0,1657.064,506.622Z" transform="translate(-2.887 -6.701)" fill="#3c3fa7"/>
    <g id="Group_131422" data-name="Group 131422" transform="translate(1608.284 259.104)">
      <path id="Path_124082" data-name="Path 124082" d="M1611.412,262.441l-.889-.45c.079-.158,2.032-3.807,9.738-.838l-.358.93C1613.029,259.434,1611.428,262.411,1611.412,262.441Z" transform="translate(-1610.524 -259.993)" fill="#0b0506"/>
    </g>
    <path id="Path_124083" data-name="Path 124083" d="M1646.658,441.106a22.317,22.317,0,0,0-1.251-6.9,60.746,60.746,0,0,0-21.473-31.719c-.418-.321-.839-.639-1.266-.947-2.244-1.62-9.226,6.309-10.615,7.682a139.33,139.33,0,0,0-15.146,17.307c-.387.535-22.493,2.736-32.741,4.072-11.485,1.5-12.241,11.466-9.783,19.128,3.737,11.654,13,24.421,22.622,32.706,5.864,5.051,16.045,16.848,23.216,14.178C1618.543,489.789,1645.849,456.692,1646.658,441.106Z" transform="translate(-0.647 -4.819)" fill="#8284d2"/>
    <path id="Path_124084" data-name="Path 124084" d="M1662.279,478.231c-2.659-4.457-14.513-7.765-14.688-7.12-4.044.613-8.093,1.2-12.147,1.73-5.763.755-9.556.628-14.626-2.424-7.16-4.31-12.125-11.364-19.226-15.773-6.195-3.846-20.615-2.522-27.818.041-7.339,2.611-7.044,5.557-13.138,10.476a1.431,1.431,0,0,0-.115,2.179,1.893,1.893,0,0,0,.089.188c2.6,4.325,9.091.163,11.994-1.823,4.444-3.041,8.97-4.835,13.739-4.73.049.65.032.438.081,1.089a9.193,9.193,0,0,0-6.847,5.453c-2.162,5.343,1.115,9.838,5.48,11.879-.022,3.9,3.267,6.915,7.048,8.718.375,4.086,5.077,7.283,8.64,8.245a1.462,1.462,0,0,0,1.046-.089c1.916.13,3.314-1.951,2.815-3.978a2.351,2.351,0,0,1,.966-2.616c1.089-.672,2.518,2,3.158,2.672a23.48,23.48,0,0,0,4.036,3.359c4.7,3.094,11.135,4.965,16.65,3.157a9.55,9.55,0,0,1,3.706-.761c11.826.977,35.242-3.591,35.343-4.618C1669.058,487.489,1665.463,483.569,1662.279,478.231Z" transform="translate(-0.837 -6.235)" fill="#faa985"/>
    <path id="Path_124085" data-name="Path 124085" d="M1700.047,457.612a1.566,1.566,0,0,0-.433-.831c-4.553-4.717-10.953-4.114-16.588-1.825-7.34,2.981-26.933,9.636-32.656,10.773-3.266.648-13.861,2.361-15.1,5.491-.414.425,4.181,4.233,5.083,5.848A102.24,102.24,0,0,1,1646.064,491a32.072,32.072,0,0,1,1.248,9.83c.036,2.724-1.594,7.344,1.271,8.982,3.077,1.76,19.334,1.7,27.609-1.977,2.7-1.2,2.218-4.18,2.44-4.238a102.2,102.2,0,0,0,15.893-5.207c5.03-2.179,11.734-5.54,14.83-10.263C1715.5,478.744,1705.368,465.65,1700.047,457.612Z" transform="translate(-2.927 -6.262)" fill="#8284d2"/>
    <path id="Path_124086" data-name="Path 124086" d="M1686.44,283.32c-.333-2.913-1.333-5.247-4.43-5.737a8.52,8.52,0,0,0-3.163.1.2.2,0,0,1-.206-.309,15.11,15.11,0,0,0,1.952-3.7,14.567,14.567,0,0,0,.872-5.378c-.041-1.211-.065-3.061-1.034-3.936-2.26-2.041-6.378.935-7.778,2.7a11.958,11.958,0,0,0-2.364,7.11.2.2,0,0,1-.386.053c-.941-2.908-2.109-5.928-4.324-7.643-1.845-1.428-6.677-2.926-8.8-1.3-1.22.936-.916,2.636-.768,3.976a16.658,16.658,0,0,0,1.5,5.653,9.274,9.274,0,0,0,4.378,4.225.842.842,0,0,1-.1,1.575q-.534.163-1.066.335a22.2,22.2,0,0,0-6.046,2.479c-2.59,1.851-2.8,5.328-2.134,8.189.8,3.457,4.119,2.874,6.838,1.977a17.588,17.588,0,0,0,5.065-2.668.2.2,0,0,1,.31.222,12.219,12.219,0,0,0-.569,2c-.574,2.983.283,5.46,3.334,6.318,1.439.4,3.637,1.33,5.146,1.08,1.352-.225,1.992-1.854,2.517-2.922,1.551-3.157,1.3-6.036.666-9.123.031.154,1.142.367,1.329.4a12.568,12.568,0,0,0,5.683-.191A4.81,4.81,0,0,0,1686.44,283.32Z" transform="translate(-3.399 -0.992)" fill="#f2ecdb"/>
    <path id="Path_124087" data-name="Path 124087" d="M1689.908,501.061c-1.99.82-4,1.589-6.052,2.248-1.006.323-2.022.619-3.047.879-.44.112-2.386.25-2.469.643a15.653,15.653,0,0,1-.556,2.642c-.629,1.522-1.87,1.735-3.269,2.13a32.177,32.177,0,0,1-6.216,1.016c-3.612.284-7.239.247-10.846.6-4.06.4-8.552,1.053-11.725-2.139a23.759,23.759,0,0,1-5.255-9.475,7.74,7.74,0,0,1-.877-.086c1.151,3.732,2.97,7.668,5.8,10.367,3.285,3.137,7.907,2.561,12.047,2.146,4.589-.46,9.232-.258,13.8-.925,1.992-.291,4.556-.637,6.273-1.768,1.206-.793,1.307-2.536,1.54-3.9a78.7,78.7,0,0,0,11.254-3.673C1690.79,501.572,1690.387,500.865,1689.908,501.061Z" transform="translate(-3.048 -7.55)" fill="#0b0506"/>
    <path id="Path_124088" data-name="Path 124088" d="M1676.065,282.41a5.755,5.755,0,0,0-.6-1.145,18.159,18.159,0,0,1-.99-2.692c-.433-1.371-1.307-2.427-2.708-1.788-.653-1.149-1.489-2.188-2.472-2.224-2.4-.087-2.5,3.255-4.1,4.021-1.509.718-2.942,1.244-2.715,3.327.12,1.1.784,1.423,1.369,2.26.872,1.245.343,2.8,1.273,3.928,1.452,1.757,3.432.617,5.038-.107,2.34-1.056,4.374.223,5.588-2.607A4.615,4.615,0,0,0,1676.065,282.41Z" transform="translate(-3.684 -1.294)" fill="#e1a557"/>
    <path id="Path_124089" data-name="Path 124089" d="M1671.119,282.973a2.2,2.2,0,0,1-1.836-1.854c-.079-.481-.76-.332-.785.108a.368.368,0,0,0-.085.252,10.648,10.648,0,0,1-.193,2.284.413.413,0,0,0,.59.469,4.512,4.512,0,0,1,2.29-.311.348.348,0,0,0,.387-.424A.441.441,0,0,0,1671.119,282.973Z" transform="translate(-3.844 -1.468)" fill="#423f21"/>
    <path id="Path_124090" data-name="Path 124090" d="M1594.851,248.032a5.169,5.169,0,0,0-4.828,1.3.4.4,0,0,0,.548.568,4.336,4.336,0,0,1,4.057-1.115C1595.122,248.9,1595.346,248.148,1594.851,248.032Z" transform="translate(-1.666 -0.552)" fill="#0b0506"/>
    <path id="Path_124091" data-name="Path 124091" d="M1636.376,239.36a12.18,12.18,0,0,0-11.24-1.311c-2.311.914-6.287,3.336-5.252,6.352.164.476.93.285.764-.2-1.062-3.095,4.194-5.437,6.459-5.942a11.476,11.476,0,0,1,8.859,1.773C1636.392,240.315,1636.8,239.639,1636.376,239.36Z" transform="translate(-2.495 -0.256)" fill="#0b0506"/>
    <path id="Path_124092" data-name="Path 124092" d="M1638.751,254.177a8.421,8.421,0,0,1-.475-4.527c.086-.5-.671-.722-.757-.223a9.183,9.183,0,0,0,.469,4.947C1638.168,254.842,1638.934,254.652,1638.751,254.177Z" transform="translate(-2.987 -0.587)" fill="#0b0506"/>
    <path id="Path_124093" data-name="Path 124093" d="M1606.624,235.716a2.6,2.6,0,0,0-.356,1.329,8.971,8.971,0,0,0-4.691,3.442c-1.577,2.224-1.291,4.212-.338,6.645.183.467.95.277.764-.2-.889-2.27-1.17-4.147.393-6.218a8.07,8.07,0,0,1,4.276-2.977.373.373,0,0,0,.279-.358.342.342,0,0,0,.1-.267,1.8,1.8,0,0,1,.243-.99C1607.55,235.684,1606.875,235.274,1606.624,235.716Z" transform="translate(-1.96 -0.209)" fill="#0b0506"/>
    <path id="Path_124094" data-name="Path 124094" d="M1679.48,341.3c-4.756-4.6-11.519-3.46-17.38-2.171-.511.112-.309.9.2.788,5.546-1.22,12.065-2.434,16.592,1.948C1679.271,342.231,1679.858,341.666,1679.48,341.3Z" transform="translate(-3.666 -3.058)" fill="#bf5b46"/>
    <path id="Path_124095" data-name="Path 124095" d="M1680.554,353.026c-1.865-6.126-10.684-7.031-15.585-4.6-.47.233-.07.943.4.71,4.4-2.181,12.692-1.51,14.4,4.095C1679.917,353.728,1680.707,353.529,1680.554,353.026Z" transform="translate(-3.748 -3.313)" fill="#bf5b46"/>
    <path id="Path_124096" data-name="Path 124096" d="M1678.348,361.559c-1.017-3.83-6.19-4.8-9.6-4.668-.521.019-.539.833-.014.814,2.97-.112,7.934.692,8.827,4.058A.407.407,0,0,0,1678.348,361.559Z" transform="translate(-3.848 -3.583)" fill="#bf5b46"/>
    <path id="Path_124097" data-name="Path 124097" d="M1672.471,366.649a6.884,6.884,0,0,1-4.423-1.209c-.27-.288-.863-.086-.7.346a8.6,8.6,0,0,1,.224,5.682.408.408,0,0,0,.782.229,9.356,9.356,0,0,0,.111-5.067,7.59,7.59,0,0,0,3.992.832C1672.977,367.429,1672.994,366.615,1672.471,366.649Z" transform="translate(-3.819 -3.818)" fill="#bf5b46"/>
    <g id="Group_131423" data-name="Group 131423" transform="translate(1597.73 426.703)">
      <path id="Path_124098" data-name="Path 124098" d="M1625.658,466.067a.5.5,0,0,1-.439-.278c-10.349-21.079-25.2-32.393-25.352-32.505a.5.5,0,0,1,.6-.8c.151.113,15.19,11.559,25.648,32.863a.5.5,0,0,1-.228.667A.49.49,0,0,1,1625.658,466.067Z" transform="translate(-1599.668 -432.386)" fill="#0b0506"/>
    </g>
    <path id="Path_124099" data-name="Path 124099" d="M1648.034,499.8c-.091-.515-.88-.311-.789.2.463,2.606.706,5.206-.358,7.7-.206.481.578.706.781.229C1648.785,505.319,1648.518,502.533,1648.034,499.8Z" transform="translate(-3.25 -7.549)" fill="#0b0506"/>
    <path id="Path_124100" data-name="Path 124100" d="M1666.845,467.95c-.38-.36-.967.205-.585.566a39.442,39.442,0,0,1,12.126,33.381c-.061.52.754.531.814.015A40.21,40.21,0,0,0,1666.845,467.95Z" transform="translate(-3.786 -6.669)" fill="#0b0506"/>
    <g id="Group_131424" data-name="Group 131424" transform="translate(1569.15 484.97)">
      <path id="Path_124101" data-name="Path 124101" d="M1575.873,506.489a.5.5,0,0,1-.439-.278l-.651-1.32c-2.639-5.336-4.091-8.275-4.508-12.019a.5.5,0,0,1,.44-.55.5.5,0,0,1,.55.44c.4,3.569,1.823,6.452,4.41,11.688l.653,1.321a.5.5,0,0,1-.227.667A.493.493,0,0,1,1575.873,506.489Z" transform="translate(-1570.271 -492.319)" fill="#0b0506"/>
    </g>
    <path id="Path_124102" data-name="Path 124102" d="M1605.711,491.487a31.834,31.834,0,0,0-1.848-4.749c-.229-.472-.938-.072-.71.4a30.573,30.573,0,0,1,1.77,4.554C1605.072,492.19,1605.862,491.992,1605.711,491.487Z" transform="translate(-2.034 -7.188)" fill="#bf5b46"/>
    <path id="Path_124103" data-name="Path 124103" d="M1599.866,469.536c-5.766-1.755-12.551,2.527-13.259,8.65-.06.519.754.53.814.014.319-2.752,2.693-5.662,5-7.083a8.758,8.758,0,0,1,7.213-.8A.407.407,0,0,0,1599.866,469.536Z" transform="translate(-1.575 -6.705)" fill="#bf5b46"/>
    <path id="Path_124104" data-name="Path 124104" d="M1603.822,478.817c-5.3-.542-8.821,4.006-9.22,8.89-.043.523.771.535.814.014.365-4.462,3.551-8.584,8.393-8.09C1604.33,479.684,1604.34,478.87,1603.822,478.817Z" transform="translate(-1.797 -6.973)" fill="#bf5b46"/>
    <path id="Path_124105" data-name="Path 124105" d="M1591.834,461.363a4.441,4.441,0,0,0-2.93.83c-.42.3-.026,1.016.4.709a3.743,3.743,0,0,1,2.518-.725C1592.343,462.212,1592.355,461.4,1591.834,461.363Z" transform="translate(-1.634 -6.488)" fill="#bf5b46"/>
    <path id="Path_124106" data-name="Path 124106" d="M1716.7,452.034c-8.764-4.6-19.381-5.721-27.893.066-.514.349-.028,1.192.491.839,8.239-5.6,18.433-4.518,26.912-.066C1716.767,453.164,1717.259,452.325,1716.7,452.034Z" transform="translate(-4.411 -6.122)" fill="#0b0506"/>
    <path id="Path_124107" data-name="Path 124107" d="M1653.89,321.939a2.067,2.067,0,0,0-.263-.331,59.458,59.458,0,0,0-10.026-8.674c-2.814-1.931-5.922-3.659-9.324-3.932-.87-.07-1.948.087-2.267.9a2.31,2.31,0,0,0-.006,1.242,68.115,68.115,0,0,1,.13,22.957,3.016,3.016,0,0,1-4.319,2.2c-1.307-.647-2.549-1.5-3.709-2.218a80.954,80.954,0,0,1-7.24-4.955c-3.385-2.625-7.491-5.655-9.722-9.453a10.81,10.81,0,0,1-1.6-6.805c.408-3.271-.889-3.732-4.207-2.538-12.52,4.5-18.167,10.381-18.658,11.484-.939,2.112,3.1,3.292,4.249,3.828a147.964,147.964,0,0,0,21.785,8.091q5.778,1.641,11.677,2.809,3.055.6,6.134,1.078a16.077,16.077,0,0,1,3.995,1.578,1.268,1.268,0,0,0,.467.144,1.336,1.336,0,0,0,.6-.178c2.037-.959,4.373-.995,6.392-1.918a27.867,27.867,0,0,0,7.5-5.625q4.28-4.136,8.174-8.648a1.1,1.1,0,0,0,.346-.675A.7.7,0,0,0,1653.89,321.939Z" transform="translate(-1.462 -2.251)" fill="#8284d2"/>
    <path id="Path_124108" data-name="Path 124108" d="M1624.168,345.542l-20.813-8.2a73.812,73.812,0,0,1-9.706-4.2c-3.5-2-5.783-4.893-7.957-8.222-.341-.522-1.183-.035-.84.491a26.141,26.141,0,0,0,6.256,7.257,41.385,41.385,0,0,0,9.332,4.567q11.734,4.629,23.47,9.25C1624.492,346.708,1624.745,345.768,1624.168,345.542Z" transform="translate(-1.524 -2.688)" fill="#0b0506"/>
    <path id="Path_124109" data-name="Path 124109" d="M1652.9,323.519a39.08,39.08,0,0,1-16.913,21.413.487.487,0,0,0,.491.84,40.125,40.125,0,0,0,17.36-21.995C1654.026,323.181,1653.088,322.925,1652.9,323.519Z" transform="translate(-2.941 -2.646)" fill="#0b0506"/>
    <path id="Path_124110" data-name="Path 124110" d="M1634.917,311.735c-.256-.57-1.094-.076-.84.491a8.264,8.264,0,0,1,.71,3.766c-.024.626.948.625.972,0A9.365,9.365,0,0,0,1634.917,311.735Z" transform="translate(-2.893 -2.321)" fill="#0b0506"/>
    <path id="Path_124111" data-name="Path 124111" d="M1594.933,428.142A118.7,118.7,0,0,0,1570.9,446.7a.486.486,0,0,0,.688.687,117.689,117.689,0,0,1,23.838-18.409A.486.486,0,0,0,1594.933,428.142Z" transform="translate(-1.134 -5.563)" fill="#0b0506"/>
  </g>
</svg>
