<svg xmlns="http://www.w3.org/2000/svg" xmlns:xlink="http://www.w3.org/1999/xlink" width="295" height="312.066" viewBox="0 0 295 312.066">
  <defs>
    <clipPath id="clip-path">
      <path id="Trazado_180078" data-name="Trazado 180078" d="M133.447-41.066c9.21,0,50.834,16.043,50.834,16.043s7.273,12.159,8.143,22.434c.58,6.866-6.164,12.358-2.5,13.961A135.6,135.6,0,1,1,43.6,36c2.558-2.375,5.26-4.689,8.322-7.108,2.812-2.222,6-4.534,9.3-6.71,3.235-2.138,6.767-4.251,10.4-6.206,8.349-4.494-9.113-17.334,0-29.217C82.667-27.651,120.526-41.066,133.447-41.066Z" transform="translate(1034 2191)" fill="#6b8dfc"/>
    </clipPath>
    <clipPath id="clip-path-2">
      <rect id="Rectángulo_45011" data-name="Rectángulo 45011" width="103.735" height="75.241" fill="none"/>
    </clipPath>
    <clipPath id="clip-path-3">
      <rect id="Rectángulo_45012" data-name="Rectángulo 45012" width="7.809" height="7.676" fill="none"/>
    </clipPath>
    <clipPath id="clip-path-4">
      <rect id="Rectángulo_45013" data-name="Rectángulo 45013" width="7.548" height="8.673" fill="none"/>
    </clipPath>
    <clipPath id="clip-path-5">
      <rect id="Rectángulo_45014" data-name="Rectángulo 45014" width="6.626" height="7.828" fill="none"/>
    </clipPath>
    <clipPath id="clip-path-6">
      <rect id="Rectángulo_45015" data-name="Rectángulo 45015" width="7.477" height="6.679" fill="none"/>
    </clipPath>
    <clipPath id="clip-path-7">
      <rect id="Rectángulo_45017" data-name="Rectángulo 45017" width="209.87" height="37.138" fill="none"/>
    </clipPath>
    <clipPath id="clip-path-8">
      <path id="Trazado_180075" data-name="Trazado 180075" d="M356.206,1055.749c-1.539,3.847-47.236,4.693-52.756,4.969q-26.347,1.321-52.734,1.547t-52.753-.638c-16.124-.529-35.981-4.908-51.588-2.046-.341,10.327,1.588,21.257,3.015,31.771l41.053-.026,115.21-.073c12.729-.008,25.113,1.645,37.842,1.634a100.78,100.78,0,0,1,10.2,0c-.8-11.049,1.752-23.764,2.514-37.138" transform="translate(-146.335 -1055.749)" fill="none"/>
    </clipPath>
    <linearGradient id="linear-gradient" x1="-0.175" y1="0.906" x2="-0.174" y2="0.906" gradientUnits="objectBoundingBox">
      <stop offset="0" stop-color="#fff"/>
      <stop offset="1" stop-color="#45708e"/>
    </linearGradient>
  </defs>
  <g id="_4" data-name="4" transform="translate(-1020.552 -2149.934)">
    <circle id="Elipse_4864" data-name="Elipse 4864" cx="135.5" cy="135.5" r="135.5" transform="translate(1034 2191)" fill="#6b8dfc"/>
    <g id="Grupo_174380" data-name="Grupo 174380">
      <g id="Grupo_174380-2" data-name="Grupo 174380" transform="translate(1019.415 2115.345)">
        <path id="Trazado_180079" data-name="Trazado 180079" d="M760.552,522.338c-.029,0-.057.007-.086.009a1.018,1.018,0,0,1-1.074-.958c-.542-9.449,2.485-19.467,9.525-31.528,1.851-3.17,3.855-6.316,5.794-9.358,3.837-6.022,7.8-12.249,10.688-18.859,10.126-23.21,6.871-49.908,1.845-75.3a1.018,1.018,0,1,1,2-.395c5.09,25.718,8.374,52.787-1.976,76.511-2.947,6.755-6.958,13.051-10.837,19.138-1.928,3.025-3.922,6.154-5.752,9.291-6.829,11.7-9.768,21.353-9.251,30.385a1.018,1.018,0,0,1-.871,1.066" transform="translate(-561.671 -281.142)" fill="#3c3fa7"/>
        <path id="Trazado_180080" data-name="Trazado 180080" d="M828.492,307.4c-1.058-1.764-2.664-3.553-4.721-3.508a4.313,4.313,0,0,0-3.547,2.466,8.947,8.947,0,0,0-.767,4.42c.128,3.57,6.841,23.56,11.215,20.674,2.635-1.738,1.739-9.573,1.494-12.211a27.957,27.957,0,0,0-3.675-11.841" transform="translate(-603.375 -224.787)" fill="#3c3fa7"/>
        <path id="Trazado_180081" data-name="Trazado 180081" d="M809.874,393.9a8.1,8.1,0,0,0-4.143-.61,3.823,3.823,0,0,0-3.111,2.535,3.885,3.885,0,0,0,1.125,3.6,9.215,9.215,0,0,0,3.372,2c1.647.639,3.345,1.137,5.04,1.634l7.387,2.164a1.231,1.231,0,0,0,.367.068.853.853,0,0,0,.714-.949c-.16-2.185-2.71-4.841-4.2-6.278a19.125,19.125,0,0,0-6.555-4.164" transform="translate(-591.629 -286.75)" fill="#3c3fa7"/>
        <path id="Trazado_180082" data-name="Trazado 180082" d="M868.095,384.921c1.1-1.359,2.485-2.693,4.225-2.879a2.862,2.862,0,0,1,1.368.162,2.733,2.733,0,0,1,1.27,1.117,4.559,4.559,0,0,1-.192,4.534,13.43,13.43,0,0,1-3.238,3.455l-5.8,4.875c-.641.539-1.855,2.062-2.509,1.472a5.72,5.72,0,0,1-.319-2.215c.061-3.614,3-7.828,5.192-10.521" transform="translate(-633.521 -278.989)" fill="#3c3fa7"/>
        <path id="Trazado_180083" data-name="Trazado 180083" d="M811.111,447.851a21.348,21.348,0,0,0-7.524-3.921,4.8,4.8,0,0,0-3.666.318c-1.7,1.086-1.809,3.686-.766,5.416s2.881,2.793,4.641,3.783l16.326,9.188c.2-6.465-4.105-11.2-9.011-14.785" transform="translate(-588.831 -321.79)" fill="#3c3fa7"/>
        <path id="Trazado_180084" data-name="Trazado 180084" d="M874.046,436.876a15.236,15.236,0,0,1,5.629-4.83,6.645,6.645,0,0,1,3.871-.616,3.909,3.909,0,0,1,3,2.341c.7,1.913-.54,3.964-1.865,5.512A70.331,70.331,0,0,1,869.411,452.4a1.436,1.436,0,0,1-.646.278.947.947,0,0,1-.868-.568,2.116,2.116,0,0,1-.146-1.079,14.873,14.873,0,0,1,1.1-3.319c.371-1.227.479-2.49.974-3.718a30.94,30.94,0,0,1,4.218-7.12" transform="translate(-636.878 -313.209)" fill="#3c3fa7"/>
        <path id="Trazado_180085" data-name="Trazado 180085" d="M825.373,512.564a3.611,3.611,0,0,0-2.816-.855,2.72,2.72,0,0,0-1.783,2.776,7.641,7.641,0,0,0,1.174,3.332c2.605,4.772,6.529,13.913,11.258,16.684,4.478-6.651-2.231-18.03-7.833-21.937" transform="translate(-604.295 -368.912)" fill="#3c3fa7"/>
        <path id="Trazado_180086" data-name="Trazado 180086" d="M877.6,510.189c3.35-1.609,7.216-2.836,10.74-1.653a3.888,3.888,0,0,1,1.955,1.266,3.336,3.336,0,0,1-.245,3.82,8.188,8.188,0,0,1-3.286,2.37,45.6,45.6,0,0,1-9.513,3.07c-1.321.291-8.171,2.314-9.016,1.342-1.225-1.409,1.749-4.8,2.528-5.6a23.748,23.748,0,0,1,6.838-4.615" transform="translate(-637.015 -366.426)" fill="#3c3fa7"/>
        <path id="Trazado_180087" data-name="Trazado 180087" d="M806.737,614.242a14.908,14.908,0,0,0-4.22-7.286,4.87,4.87,0,0,0-3.635-1.505,4.008,4.008,0,0,0-3.17,3.279,9.465,9.465,0,0,0,.549,4.786,32.178,32.178,0,0,0,7.41,12.385c.593.616,1.53,1.241,2.218.735,3.065-2.252,1.611-9.548.847-12.394" transform="translate(-586.823 -433.972)" fill="#3c3fa7"/>
        <path id="Trazado_180088" data-name="Trazado 180088" d="M858.028,605.161c2.874-.853,5.888-1.571,8.847-1.095,1.331.214,2.771.8,3.272,2.057a3.194,3.194,0,0,1-.868,3.286,8.307,8.307,0,0,1-3.1,1.77,209.694,209.694,0,0,1-20.561,6.049c-.039-7.3,6.2-10.225,12.407-12.067" transform="translate(-621.533 -432.92)" fill="#3c3fa7"/>
      </g>
      <path id="Trazado_180089" data-name="Trazado 180089" d="M285.833,383.227c1.45-.478,3.179-.707,4.388.224a3.456,3.456,0,0,1,1.189,3.024,6.5,6.5,0,0,1-1.266,3.1c-3.19,4.566-9.05,6.9-13.129,10.58-2.858,2.582-2.672-1.9-2.249-3.972a17.67,17.67,0,0,1,3.5-7.607,16.4,16.4,0,0,1,7.569-5.353" transform="translate(814.886 1860.838)" fill="#3c3fa7"/>
      <path id="Trazado_180111" data-name="Trazado 180111" d="M11.309,17.712c1.45.478,3.179.707,4.388-.224a3.456,3.456,0,0,0,1.189-3.024,6.5,6.5,0,0,0-1.266-3.1C12.429,6.794,6.569,4.465,2.49.78-.368-1.8-.181,2.681.241,4.752a17.671,17.671,0,0,0,3.5,7.607,16.4,16.4,0,0,0,7.57,5.353" transform="matrix(-0.875, -0.485, 0.485, -0.875, 1278.61, 2346.238)" fill="#3c3fa7"/>
      <path id="Trazado_180090" data-name="Trazado 180090" d="M267.517,437.884a.865.865,0,0,1-.786-1.308c9.116-15.217,8.407-33.27,6.207-45.736-2.139-12.123-6.377-23.971-10.475-35.43-1.176-3.288-2.392-6.689-3.541-10.046-4.785-13.982-9.51-30.509-8.272-47.07a.865.865,0,0,1,1.725.129c-1.215,16.249,3.455,32.564,8.184,46.381,1.145,3.346,2.359,6.741,3.533,10.024,4.122,11.526,8.385,23.444,10.55,35.712,2.251,12.756,2.963,31.251-6.427,46.925a.863.863,0,0,1-.7.42" transform="translate(832.694 1923.946)" fill="#3c3fa7"/>
      <path id="Trazado_180112" data-name="Trazado 180112" d="M17.067,0a.865.865,0,0,0-.786,1.308c9.116,15.217,8.407,33.27,6.207,45.736-2.139,12.123-6.377,23.971-10.475,35.43-1.176,3.288-2.392,6.689-3.541,10.046C3.687,106.5-1.038,123.031.2,139.591a.865.865,0,0,0,1.725-.129C.71,123.213,5.38,106.9,10.108,93.081c1.145-3.346,2.359-6.741,3.533-10.024,4.122-11.526,8.385-23.444,10.55-35.712C26.442,34.591,27.155,16.1,17.764.421a.863.863,0,0,0-.7-.42" transform="matrix(-0.875, -0.485, 0.485, -0.875, 1235.583, 2436.785)" fill="#3c3fa7"/>
      <path id="Trazado_180091" data-name="Trazado 180091" d="M236.926,234.465a8.23,8.23,0,0,1,2.172-3.67,3.692,3.692,0,0,1,4-.7,4.838,4.838,0,0,1,2.078,3.1c1.236,4.269.6,8.869-.637,13.136-.853,2.933-1.716,6.561-3.208,9.231-1.813,3.245-3.251-1.446-3.9-3.351-1.931-5.686-2.458-11.99-.507-17.746" transform="translate(843.606 1974.043)" fill="#3c3fa7"/>
      <path id="Trazado_180113" data-name="Trazado 180113" d="M1.228,22.211A8.23,8.23,0,0,0,3.4,25.881a3.692,3.692,0,0,0,4,.7,4.838,4.838,0,0,0,2.078-3.1c1.236-4.269.6-8.869-.637-13.136-.853-2.933-1.716-6.561-3.208-9.23C3.82-2.131,2.382,2.56,1.735,4.465-.2,10.151-.724,16.455,1.228,22.211" transform="matrix(-0.875, -0.485, 0.485, -0.875, 1302.507, 2323.974)" fill="#3c3fa7"/>
      <path id="Trazado_180092" data-name="Trazado 180092" d="M268.2,328.927c1.386-.622,3.115-1.022,4.339-.123a3.3,3.3,0,0,1,.732,3.973,7.708,7.708,0,0,1-3.06,3.043c-3.633,2.3-7.981,3.781-10.569,7.211-.332.44-1.03.915-1.316.444a.82.82,0,0,1-.083-.407c-.154-5.407,4.668-12.519,9.955-14.141" transform="translate(826.934 1901.175)" fill="#3c3fa7"/>
      <path id="Trazado_180114" data-name="Trazado 180114" d="M9.959,14.744c1.386.622,3.115,1.022,4.339.123a3.3,3.3,0,0,0,.732-3.973,7.708,7.708,0,0,0-3.06-3.043C8.338,5.556,3.99,4.07,1.4.639,1.07.2.371-.276.086.2A.82.82,0,0,0,0,.6C-.151,6.009,4.672,13.122,9.959,14.744" transform="matrix(-0.875, -0.485, 0.485, -0.875, 1290.526, 2333.485)" fill="#3c3fa7"/>
      <path id="Trazado_180093" data-name="Trazado 180093" d="M194.235,338.208a9.267,9.267,0,0,0-3.911-.562,4.487,4.487,0,0,0-3.333,1.924,3.661,3.661,0,0,0,1.667,5.1,7.366,7.366,0,0,0,2.956.307c4.5-.118,9.182.186,13.175,2.273.7-1.687-3.021-4.612-4.134-5.516a20.343,20.343,0,0,0-6.421-3.527" transform="translate(879.982 1894.274)" fill="#3c3fa7"/>
      <path id="Trazado_180115" data-name="Trazado 180115" d="M7.715,9.043A9.267,9.267,0,0,1,3.8,9.605,4.487,4.487,0,0,1,.472,7.681a3.661,3.661,0,0,1,1.667-5.1A7.366,7.366,0,0,1,5.1,2.273C9.6,2.392,14.277,2.087,18.27,0c.7,1.687-3.021,4.612-4.134,5.516A20.343,20.343,0,0,1,7.715,9.043" transform="matrix(-0.875, -0.485, 0.485, -0.875, 1308.464, 2339.632)" fill="#3c3fa7"/>
      <path id="Trazado_180094" data-name="Trazado 180094" d="M200.036,404.531c-2.165-.122-4.632.262-5.88,2.035a2.231,2.231,0,0,0-.465,1.524c.124.98,1.1,1.59,2,2,5.676,2.62,12.28,3.17,17.468,6.658a1.522,1.522,0,0,0,.9.363c3.14-.209-2.29-7.55-3.115-8.263a18.39,18.39,0,0,0-10.908-4.32" transform="translate(874.688 1844.787)" fill="#3c3fa7"/>
      <path id="Trazado_180116" data-name="Trazado 180116" d="M6.358,12.585c-2.165.122-4.632-.262-5.88-2.035A2.231,2.231,0,0,1,.012,9.026c.124-.979,1.1-1.59,2-2C7.688,4.4,14.292,3.852,19.48.364a1.522,1.522,0,0,1,.9-.363c3.14.209-2.29,7.55-3.115,8.263a18.39,18.39,0,0,1-10.908,4.32" transform="matrix(-0.875, -0.485, 0.485, -0.875, 1296.955, 2356.551)" fill="#3c3fa7"/>
      <path id="Trazado_180095" data-name="Trazado 180095" d="M310.294,441.617a9.854,9.854,0,0,1,3.8-1.592,4.44,4.44,0,0,1,3.831,1.147c1.182,1.245,1.26,3.18.932,4.865-.739,3.792-3.116,7.06-5.747,9.888a51.51,51.51,0,0,1-9.925,8.282c-.771.494-1.787.969-2.546.457a2.308,2.308,0,0,1-.773-1.269c-2.792-8.587,3.279-17.26,10.425-21.779" transform="translate(796.652 1818.556)" fill="#3c3fa7"/>
      <path id="Trazado_180117" data-name="Trazado 180117" d="M11.119,23.268a9.854,9.854,0,0,0,3.8,1.592,4.44,4.44,0,0,0,3.831-1.147c1.182-1.245,1.26-3.18.932-4.865-.739-3.792-3.116-7.06-5.747-9.888A51.509,51.509,0,0,0,4.013.677C3.242.183,2.227-.291,1.467.22A2.308,2.308,0,0,0,.694,1.489C-2.1,10.076,3.973,18.749,11.119,23.268" transform="matrix(-0.875, -0.485, 0.485, -0.875, 1262.495, 2362.074)" fill="#3c3fa7"/>
      <path id="Trazado_180096" data-name="Trazado 180096" d="M211.16,484.488a22.43,22.43,0,0,0-13.438-2.542c-2.143.3-4.584,1.313-5.007,3.435a3.986,3.986,0,0,0,.621,2.822,8.108,8.108,0,0,0,5.61,3.338,48.7,48.7,0,0,0,6.712.318,31.683,31.683,0,0,1,15.473,4.727.612.612,0,0,0,.546.131.556.556,0,0,0,.254-.408c1.034-4.424-7.518-10.1-10.771-11.82" transform="translate(875.444 1787.648)" fill="#3c3fa7"/>
      <path id="Trazado_180118" data-name="Trazado 180118" d="M18.5,12.256A22.43,22.43,0,0,1,5.066,14.8C2.924,14.5.482,13.485.059,11.364A3.986,3.986,0,0,1,.68,8.542,8.108,8.108,0,0,1,6.29,5.2,48.7,48.7,0,0,1,13,4.886,31.683,31.683,0,0,0,28.475.159a.612.612,0,0,1,.546-.131.556.556,0,0,1,.254.408c1.034,4.424-7.518,10.1-10.771,11.82" transform="matrix(-0.875, -0.485, 0.485, -0.875, 1286.285, 2376.35)" fill="#3c3fa7"/>
      <path id="Trazado_180097" data-name="Trazado 180097" d="M331.54,546.278a17.064,17.064,0,0,1,6.564-7.252,4.485,4.485,0,0,1,4.011-.582,3.36,3.36,0,0,1,1.744,2.857,6.568,6.568,0,0,1-.872,3.358,25.734,25.734,0,0,1-3.367,4.638l-8.2,9.685a2.161,2.161,0,0,1-.828.7c-.878.329-1.762-.6-1.943-1.522-.744-3.78,1.212-8.579,2.889-11.878" transform="translate(774.969 1745.918)" fill="#3c3fa7"/>
      <path id="Trazado_180119" data-name="Trazado 180119" d="M3.051,13.468A17.064,17.064,0,0,0,9.615,20.72a4.485,4.485,0,0,0,4.011.582,3.36,3.36,0,0,0,1.744-2.857,6.568,6.568,0,0,0-.872-3.358,25.731,25.731,0,0,0-3.367-4.638L2.933.764a2.161,2.161,0,0,0-.828-.7C1.227-.261.344.67.162,1.59c-.744,3.78,1.212,8.579,2.889,11.878" transform="matrix(-0.875, -0.485, 0.485, -0.875, 1245.047, 2377.812)" fill="#3c3fa7"/>
      <path id="Trazado_180098" data-name="Trazado 180098" d="M223.111,570.011a10.686,10.686,0,0,0-6.1.387,6.515,6.515,0,0,0-2.5,9.3c1.982,2.775,5.786,3.446,9.194,3.583,7.521.3,15.643-.748,22.054,3.2-.465-.286-1.086-3.037-1.4-3.682a12.14,12.14,0,0,0-1.215-2.162A24.471,24.471,0,0,0,237.5,575.8a35.7,35.7,0,0,0-14.385-5.784" transform="translate(860.052 1722.556)" fill="#3c3fa7"/>
      <g id="Grupo_174382" data-name="Grupo 174382" transform="translate(10.381 1.932)">
        <path id="Trazado_180100" data-name="Trazado 180100" d="M285.833,383.227c1.45-.478,3.179-.707,4.388.224a3.456,3.456,0,0,1,1.189,3.024,6.5,6.5,0,0,1-1.266,3.1c-3.19,4.566-9.05,6.9-13.129,10.58-2.858,2.582-2.672-1.9-2.249-3.972a17.67,17.67,0,0,1,3.5-7.607,16.4,16.4,0,0,1,7.569-5.353" transform="matrix(0.875, -0.485, 0.485, 0.875, 612.631, 2100.207)" fill="#3c3fa7"/>
        <path id="Trazado_180101" data-name="Trazado 180101" d="M267.517,437.884a.865.865,0,0,1-.786-1.308c9.116-15.217,8.407-33.27,6.207-45.736-2.139-12.123-6.377-23.971-10.475-35.43-1.176-3.288-2.392-6.689-3.541-10.046-4.785-13.982-9.51-30.509-8.272-47.07a.865.865,0,0,1,1.725.129c-1.215,16.249,3.455,32.564,8.184,46.381,1.145,3.346,2.359,6.741,3.533,10.024,4.122,11.526,8.385,23.444,10.55,35.712,2.251,12.756,2.963,31.251-6.427,46.925a.863.863,0,0,1-.7.42" transform="matrix(0.875, -0.485, 0.485, 0.875, 658.801, 2146.77)" fill="#3c3fa7"/>
        <path id="Trazado_180102" data-name="Trazado 180102" d="M236.926,234.465a8.23,8.23,0,0,1,2.172-3.67,3.692,3.692,0,0,1,4-.7,4.838,4.838,0,0,1,2.078,3.1c1.236,4.269.6,8.869-.637,13.136-.853,2.933-1.716,6.561-3.208,9.231-1.813,3.245-3.251-1.446-3.9-3.351-1.931-5.686-2.458-11.99-.507-17.746" transform="matrix(0.875, -0.485, 0.485, 0.875, 692.632, 2185.295)" fill="#3c3fa7"/>
        <path id="Trazado_180103" data-name="Trazado 180103" d="M268.2,328.927c1.386-.622,3.115-1.022,4.339-.123a3.3,3.3,0,0,1,.732,3.973,7.708,7.708,0,0,1-3.06,3.043c-3.633,2.3-7.981,3.781-10.569,7.211-.332.44-1.03.915-1.316.444a.82.82,0,0,1-.083-.407c-.154-5.407,4.668-12.519,9.955-14.141" transform="matrix(0.875, -0.485, 0.485, 0.875, 642.723, 2129.646)" fill="#3c3fa7"/>
        <path id="Trazado_180104" data-name="Trazado 180104" d="M194.235,338.208a9.267,9.267,0,0,0-3.911-.562,4.487,4.487,0,0,0-3.333,1.924,3.661,3.661,0,0,0,1.667,5.1,7.366,7.366,0,0,0,2.956.307c4.5-.118,9.182.186,13.175,2.273.7-1.687-3.021-4.612-4.134-5.516a20.343,20.343,0,0,0-6.421-3.527" transform="matrix(0.875, -0.485, 0.485, 0.875, 685.776, 2097.893)" fill="#3c3fa7"/>
        <path id="Trazado_180105" data-name="Trazado 180105" d="M200.036,404.531c-2.165-.122-4.632.262-5.88,2.035a2.231,2.231,0,0,0-.465,1.524c.124.98,1.1,1.59,2,2,5.676,2.62,12.28,3.17,17.468,6.658a1.522,1.522,0,0,0,.9.363c3.14-.209-2.29-7.55-3.115-8.263a18.39,18.39,0,0,0-10.908-4.32" transform="matrix(0.875, -0.485, 0.485, 0.875, 657.152, 2057.177)" fill="#3c3fa7"/>
        <path id="Trazado_180106" data-name="Trazado 180106" d="M310.294,441.617a9.854,9.854,0,0,1,3.8-1.592,4.44,4.44,0,0,1,3.831,1.147c1.182,1.245,1.26,3.18.932,4.865-.739,3.792-3.116,7.06-5.747,9.888a51.51,51.51,0,0,1-9.925,8.282c-.771.494-1.787.969-2.546.457a2.308,2.308,0,0,1-.773-1.269c-2.792-8.587,3.279-17.26,10.425-21.779" transform="matrix(0.875, -0.485, 0.485, 0.875, 576.184, 2072.066)" fill="#3c3fa7"/>
        <path id="Trazado_180107" data-name="Trazado 180107" d="M211.16,484.488a22.43,22.43,0,0,0-13.438-2.542c-2.143.3-4.584,1.313-5.007,3.435a3.986,3.986,0,0,0,.621,2.822,8.108,8.108,0,0,0,5.61,3.338,48.7,48.7,0,0,0,6.712.318,31.683,31.683,0,0,1,15.473,4.727.612.612,0,0,0,.546.131.556.556,0,0,0,.254-.408c1.034-4.424-7.518-10.1-10.771-11.82" transform="matrix(0.875, -0.485, 0.485, 0.875, 630.112, 2006.836)" fill="#3c3fa7"/>
        <path id="Trazado_180108" data-name="Trazado 180108" d="M331.54,546.278a17.064,17.064,0,0,1,6.564-7.252,4.485,4.485,0,0,1,4.011-.582,3.36,3.36,0,0,1,1.744,2.857,6.568,6.568,0,0,1-.872,3.358,25.734,25.734,0,0,1-3.367,4.638l-8.2,9.685a2.161,2.161,0,0,1-.828.7c-.878.329-1.762-.6-1.943-1.522-.744-3.78,1.212-8.579,2.889-11.878" transform="matrix(0.875, -0.485, 0.485, 0.875, 522.004, 2019.049)" fill="#3c3fa7"/>
        <path id="Trazado_180109" data-name="Trazado 180109" d="M223.111,570.011a10.686,10.686,0,0,0-6.1.387,6.515,6.515,0,0,0-2.5,9.3c1.982,2.775,5.786,3.446,9.194,3.583,7.521.3,15.643-.748,22.054,3.2-.465-.286-1.086-3.037-1.4-3.682a12.14,12.14,0,0,0-1.215-2.162A24.471,24.471,0,0,0,237.5,575.8a35.7,35.7,0,0,0-14.385-5.784" transform="matrix(0.875, -0.485, 0.485, 0.875, 585.094, 1957.366)" fill="#3c3fa7"/>
      </g>
      <path id="Trazado_180120" data-name="Trazado 180120" d="M9.647,16.465a10.686,10.686,0,0,1-6.1-.387,6.515,6.515,0,0,1-2.5-9.3C3.025,4,6.828,3.333,10.236,3.2c7.521-.3,15.643.748,22.054-3.2-.465.286-1.086,3.037-1.4,3.682a12.14,12.14,0,0,1-1.215,2.162,24.471,24.471,0,0,1-5.644,4.838A35.7,35.7,0,0,1,9.647,16.465" transform="matrix(-0.875, -0.485, 0.485, -0.875, 1269.602, 2395.274)" fill="#3c3fa7"/>
      <path id="Trazado_180099" data-name="Trazado 180099" d="M343.239,627.512a15.846,15.846,0,0,1,3.942-5.706A11.492,11.492,0,0,1,350.3,619.7a1.9,1.9,0,0,1,1.273-.2,1.669,1.669,0,0,1,.788.6,5.348,5.348,0,0,1,.6,4.986,14.464,14.464,0,0,1-2.771,4.409q-3.254,3.945-6.853,7.588a.9.9,0,0,1-.492.314c-.407.049-.656-.429-.762-.825-.861-3.218-.054-6.049,1.159-9.058" transform="translate(765.181 1685.799)" fill="#3c3fa7"/>
      <path id="Trazado_180110" data-name="Trazado 180110" d="M343.239,627.512a15.846,15.846,0,0,1,3.942-5.706A11.492,11.492,0,0,1,350.3,619.7a1.9,1.9,0,0,1,1.273-.2,1.669,1.669,0,0,1,.788.6,5.348,5.348,0,0,1,.6,4.986,14.464,14.464,0,0,1-2.771,4.409q-3.254,3.945-6.853,7.588a.9.9,0,0,1-.492.314c-.407.049-.656-.429-.762-.825-.861-3.218-.054-6.049,1.159-9.058" transform="matrix(0.875, -0.485, 0.485, 0.875, 484.297, 1971.213)" fill="#3c3fa7"/>
      <path id="Trazado_180121" data-name="Trazado 180121" d="M1.518,9.887A15.846,15.846,0,0,0,5.46,15.593,11.493,11.493,0,0,0,8.582,17.7a1.9,1.9,0,0,0,1.273.2,1.669,1.669,0,0,0,.788-.6,5.348,5.348,0,0,0,.6-4.986A14.464,14.464,0,0,0,8.467,7.906Q5.212,3.96,1.613.317A.9.9,0,0,0,1.121,0C.714-.046.465.432.359.829-.5,4.047.305,6.878,1.518,9.887" transform="matrix(-0.875, -0.485, 0.485, -0.875, 1233.534, 2391.479)" fill="#3c3fa7"/>
    </g>
    <g id="Enmascarar_grupo_283" data-name="Enmascarar grupo 283" clip-path="url(#clip-path)">
      <g id="Grupo_174377" data-name="Grupo 174377" transform="translate(1019.95 2153)">
        <g id="Grupo_174378" data-name="Grupo 174378">
          <g id="Grupo_174375" data-name="Grupo 174375" transform="translate(0 0.001)">
            <g id="Grupo_174379" data-name="Grupo 174379">
              <path id="Trazado_179954" data-name="Trazado 179954" d="M298.136,695.218c-1.391-1.14-3.3-2.116-4.921-1.336a3.57,3.57,0,0,0-1.743,3.581,8.105,8.105,0,0,0,1.707,3.829c3.21,4.451,7.97,7.784,10.355,12.725a.568.568,0,0,0,.226.287c.291.143.542-.257.618-.572a17.994,17.994,0,0,0-6.242-18.514" transform="translate(-215.585 -513.053)" fill="#fff"/>
              <path id="Trazado_179963" data-name="Trazado 179963" d="M168.7,746a12.665,12.665,0,0,1,1.829-6.919,4.138,4.138,0,0,1,2.643-2.048,3.408,3.408,0,0,1,3.333,1.979,8.042,8.042,0,0,1,.621,4.047,27.35,27.35,0,0,1-3.3,11.813c-.348.637-.976,1.36-1.653,1.1-3.018-1.16-3.459-7.467-3.469-9.972" transform="translate(-124.789 -545.159)" fill="#fff"/>
              <path id="Trazado_179964" data-name="Trazado 179964" d="M251.422,854.253c-.285-1.612-.526-3.43.443-4.749a1.075,1.075,0,0,1,.986-.536c.42.083.636.543.763.952a10.213,10.213,0,0,1-.005,6.575c-1.305,3-1.913-.691-2.187-2.242" transform="translate(-185.788 -627.967)" fill="#fff"/>
              <path id="Trazado_179975" data-name="Trazado 179975" d="M803.481,704.779a2.883,2.883,0,0,1,.715,3.789c-.763,1-2.174,1.158-3.423,1.309a32.147,32.147,0,0,0-11.915,3.913,10.338,10.338,0,0,1,.175-2.366A7.043,7.043,0,0,1,790.5,709.2c1.015-1.148,2.181-2.471,3.31-3.515,2.225-2.059,7.175-2.945,9.671-.9" transform="translate(-583.481 -520.463)" fill="#fff"/>
              <path id="Trazado_179976" data-name="Trazado 179976" d="M767.975,736.854c-.15-1.63-.4-3.447-1.678-4.465a1.075,1.075,0,0,0-1.092-.257c-.383.191-.47.691-.485,1.119a10.214,10.214,0,0,0,1.737,6.342c2.051,2.555,1.663-1.171,1.519-2.739" transform="translate(-565.651 -541.503)" fill="#fff"/>
              <path id="Trazado_179978" data-name="Trazado 179978" d="M437.473,451.422s2.516,32.554-8.386,46.571c-.779,0-1.557,38.158,31.149,37.379.779,0,42.83-1.558,37.379-42.052-.779,0-8.82-32.7-7.525-49.059-.525,0-52.618,7.16-52.618,7.16" transform="translate(-317.217 -328.618)" fill="#ffa78b"/>
              <path id="Trazado_179979" data-name="Trazado 179979" d="M461.061,481.5c6.679,3.029,33.623,12.842,47.356-18.514.143-.115-9.777-2.206-21.627-4.653-12.876,1.762-25.491,3.5-25.491,3.5a133.493,133.493,0,0,1-.239,19.671" transform="translate(-341.043 -339.03)" fill="#ff7559"/>
              <path id="Trazado_179980" data-name="Trazado 179980" d="M483.765,157.7c-13.628,59.573-40.1,54.122-44.388,54.511-31.539-.389-35.043-77.095-35.043-77.873,0,0-.389-40.1,49.45-31.539,0,0,45.167,4.673,29.981,54.9" transform="translate(-299.082 -75.152)" fill="#ffa78b"/>
              <path id="Trazado_179981" data-name="Trazado 179981" d="M439.353,83.545a15.911,15.911,0,0,0,11.516-4.719,11.548,11.548,0,0,0,2.5-11.861,5.888,5.888,0,0,1-.7-2.382c.09-2.137,3.029-3.371,2.985-5.509-.044-2.115-3.268-3.464-2.3-5.346a16.3,16.3,0,0,0,2.014-7.612,9.538,9.538,0,0,0-3.07-7.081,4.13,4.13,0,0,1-1.158-1.217c-.542-1.125.311-2.382.61-3.594a4.2,4.2,0,0,0-2.677-4.818,6.154,6.154,0,0,1-1.379-.478c-1.124-.695-1.1-2.326-.807-3.614s.7-2.747-.039-3.843c-.988-1.466-3.375-1.361-4.459-2.757.025-2.3-.61-4.813-2.478-6.156-2.691-1.936-7.276-.835-10.288.548A6.062,6.062,0,0,0,423.1,5.135a11.5,11.5,0,0,0-4.272,1.052A10.119,10.119,0,0,0,409.457.006c-3.981.091-8.559,2.7-9.873,6.46-1.4-1.928-4.458-1.907-6.451-.6a14.43,14.43,0,0,0-4.686,5.39c-1.843-2.152-5.426-1.98-7.73-.332s-2.465,3.9-3.486,6.542a19.365,19.365,0,0,0-20.809.3,16.438,16.438,0,0,0-6.482,8.4c-1.1,3.431-1.613,7.2.228,10.3-2.284-.151-4.328,1.746-5,3.933a11.635,11.635,0,0,0,.4,6.752c.4,1.32,1.005,3.339,2.368,3.123A8.72,8.72,0,0,0,353.8,62.517c1.684.4,3.943.834,4.868-.628a9.972,9.972,0,0,0,11.4-6.985,4.956,4.956,0,0,0,5.5-.85c1.631-1.575,2.273-4.352,4.46-4.952,1.116-.306,2.288.092,3.442.175,3.022.219,6.859-1.384,9.276-3.211a11.139,11.139,0,0,0,7.105,6.738,21.4,21.4,0,0,0,10.039.577,40.575,40.575,0,0,0,20.962-9.718c.4,5.115,1.141,11.925,5.235,15.018,1.6,1.211,3.686,2.051,4.483,3.895a7.093,7.093,0,0,1,.04,4.209c-1.118,5.486-2.606,11.326-1.255,16.76" transform="translate(-255.058 -0.004)" fill="#7a3a26"/>
              <path id="Trazado_179982" data-name="Trazado 179982" d="M388.528,251.481c-1.038-8.4-2.72-15.619-2.712-23.686-1.465-.73-2.916-1.7-4.55-1.6a2.205,2.205,0,0,0-1.1.293,2.089,2.089,0,0,0-.717,1.059,12.571,12.571,0,0,0-.444,4.812c.066,1.757.171,3.634,1.22,5.046a27.486,27.486,0,0,1,2.042,2.332,7.7,7.7,0,0,1,.676,1.981,24.329,24.329,0,0,0,5.58,9.759" transform="translate(-280.324 -167.312)" fill="#7a3a26"/>
              <g id="Grupo_174356" data-name="Grupo 174356" transform="translate(93.595 3.214)" opacity="0.38" style="mix-blend-mode: screen;isolation: isolate">
                <g id="Grupo_174355" data-name="Grupo 174355">
                  <g id="Grupo_174354" data-name="Grupo 174354" clip-path="url(#clip-path-2)">
                    <path id="Trazado_179983" data-name="Trazado 179983" d="M382.968,82.941a9.63,9.63,0,0,0-4.322,6.927c-.133.99,1.426.981,1.557,0a7.936,7.936,0,0,1,3.55-5.582c.835-.547.055-1.9-.786-1.345" transform="translate(-373.67 -64.47)" fill="#7a3a26"/>
                    <path id="Trazado_179984" data-name="Trazado 179984" d="M387.784,119.241a9.99,9.99,0,0,0-2.944,4.617c-.292.961,1.21,1.372,1.5.414a8.48,8.48,0,0,1,2.544-3.929c.752-.666-.353-1.764-1.1-1.1" transform="translate(-378.23 -91.265)" fill="#7a3a26"/>
                    <path id="Trazado_179985" data-name="Trazado 179985" d="M360.521,160.937a3.53,3.53,0,0,0-.967,2.318c-.039,1,1.518,1,1.557,0a1.857,1.857,0,0,1,.51-1.217c.684-.731-.415-1.835-1.1-1.1" transform="translate(-359.554 -122.08)" fill="#7a3a26"/>
                    <path id="Trazado_179986" data-name="Trazado 179986" d="M371.443,187.861a4.019,4.019,0,0,1-3.909-.673c-.766-.636-1.874.46-1.1,1.1a5.611,5.611,0,0,0,5.425,1.074c.946-.316.54-1.821-.414-1.5" transform="translate(-364.448 -141.534)" fill="#7a3a26"/>
                    <path id="Trazado_179987" data-name="Trazado 179987" d="M385.9,161.59A5.2,5.2,0,0,1,382,163.457a.779.779,0,0,0,0,1.557A6.74,6.74,0,0,0,387,162.691c.652-.755-.445-1.861-1.1-1.1" transform="translate(-375.604 -122.553)" fill="#7a3a26"/>
                    <path id="Trazado_179988" data-name="Trazado 179988" d="M379.026,214.859a4.8,4.8,0,0,1-4.095-.9c-.8-.6-1.579.75-.786,1.345a6.3,6.3,0,0,0,5.295,1.053c.975-.233.562-1.735-.414-1.5" transform="translate(-370.102 -161.37)" fill="#7a3a26"/>
                    <path id="Trazado_179989" data-name="Trazado 179989" d="M416.438,199.287a5.429,5.429,0,0,1-3.143,2.142.779.779,0,0,0,.414,1.5,7.078,7.078,0,0,0,4.074-2.858c.576-.823-.774-1.6-1.345-.786" transform="translate(-398.896 -150.37)" fill="#7a3a26"/>
                    <path id="Trazado_179990" data-name="Trazado 179990" d="M424.073,171.284a11.394,11.394,0,0,0-3.484,1.653c-.812.574-.035,1.925.786,1.345a10.109,10.109,0,0,1,3.112-1.5.779.779,0,0,0-.414-1.5" transform="translate(-404.447 -129.887)" fill="#7a3a26"/>
                    <path id="Trazado_179991" data-name="Trazado 179991" d="M414.956,127.923a13.291,13.291,0,0,0-4.418,2.544c-.76.657.346,1.754,1.1,1.1a11.267,11.267,0,0,1,3.731-2.143c.942-.324.537-1.829-.414-1.5" transform="translate(-397.078 -97.804)" fill="#7a3a26"/>
                    <path id="Trazado_179992" data-name="Trazado 179992" d="M431.626,66.753a10.8,10.8,0,0,0-6.855.811c-.908.421-.118,1.764.786,1.345a9.01,9.01,0,0,1,5.655-.654c.978.2,1.4-1.3.414-1.5" transform="translate(-407.496 -52.421)" fill="#7a3a26"/>
                    <path id="Trazado_179993" data-name="Trazado 179993" d="M425.614,86.814a20.489,20.489,0,0,0-4.07,1.027c-.934.34-.531,1.846.414,1.5a20.5,20.5,0,0,1,4.07-1.027c.988-.144.568-1.645-.414-1.5" transform="translate(-405.015 -67.423)" fill="#7a3a26"/>
                    <path id="Trazado_179994" data-name="Trazado 179994" d="M470.659,97.969a27.511,27.511,0,0,0-4.6-1.8.779.779,0,0,0-.414,1.5,25.2,25.2,0,0,1,4.226,1.646c.894.446,1.684-.9.786-1.345" transform="translate(-437.625 -74.322)" fill="#7a3a26"/>
                    <path id="Trazado_179995" data-name="Trazado 179995" d="M456.206,120.974a9.044,9.044,0,0,1-3.51-1.273c-.854-.529-1.637.817-.786,1.345a10.155,10.155,0,0,0,3.882,1.43c.981.145,1.4-1.356.414-1.5" transform="translate(-427.598 -91.667)" fill="#7a3a26"/>
                    <path id="Trazado_179996" data-name="Trazado 179996" d="M451.9,155.841a8.116,8.116,0,0,1-3.884-.253c-.961-.294-1.371,1.209-.414,1.5a9.843,9.843,0,0,0,4.712.253c.985-.179.568-1.68-.414-1.5" transform="translate(-424.283 -118.274)" fill="#7a3a26"/>
                    <path id="Trazado_179997" data-name="Trazado 179997" d="M455.8,184.014a10.935,10.935,0,0,1-3.492.359c-1-.055-1,1.5,0,1.557a12.324,12.324,0,0,0,3.906-.414.779.779,0,0,0-.414-1.5" transform="translate(-427.612 -139.306)" fill="#7a3a26"/>
                    <path id="Trazado_179998" data-name="Trazado 179998" d="M483.145,149.7a8.419,8.419,0,0,1-4.25-.929c-.889-.459-1.678.885-.786,1.345a10.057,10.057,0,0,0,5.036,1.142c1-.037,1-1.595,0-1.557" transform="translate(-446.958 -113.187)" fill="#7a3a26"/>
                    <path id="Trazado_179999" data-name="Trazado 179999" d="M388.578,247.768a7.643,7.643,0,0,1-.743-3.089c-.031-1-1.589-1-1.557,0a9.555,9.555,0,0,0,.956,3.875c.433.9,1.776.115,1.345-.786" transform="translate(-379.32 -183.646)" fill="#7a3a26"/>
                    <path id="Trazado_180000" data-name="Trazado 180000" d="M398.921,269.9c-.194-.982-1.7-.566-1.5.414l.578,2.921c.194.982,1.7.566,1.5-.414l-.578-2.921" transform="translate(-387.55 -202.442)" fill="#7a3a26"/>
                    <path id="Trazado_180001" data-name="Trazado 180001" d="M507.322,165.134q-1.684.818-3.437,1.464c-.932.344-.529,1.85.414,1.5q1.944-.716,3.809-1.622c.9-.438.112-1.781-.786-1.345" transform="translate(-465.923 -125.3)" fill="#7a3a26"/>
                    <path id="Trazado_180002" data-name="Trazado 180002" d="M501.639,127.034a17.583,17.583,0,0,0-5.465.382c-.977.221-.564,1.722.414,1.5a16.236,16.236,0,0,1,5.051-.326c1,.088.992-1.469,0-1.557" transform="translate(-460.198 -97.132)" fill="#7a3a26"/>
                    <path id="Trazado_180003" data-name="Trazado 180003" d="M506.29,107.035a13.155,13.155,0,0,0-4.119.735c-.939.33-.535,1.835.414,1.5a11.766,11.766,0,0,1,3.7-.68.779.779,0,0,0,0-1.557" transform="translate(-464.652 -82.388)" fill="#7a3a26"/>
                    <path id="Trazado_180004" data-name="Trazado 180004" d="M489.366,72.392a10.662,10.662,0,0,0-2.295.939c-.878.484-.093,1.83.786,1.345a8.832,8.832,0,0,1,1.923-.782.779.779,0,0,0-.414-1.5" transform="translate(-453.594 -56.739)" fill="#7a3a26"/>
                    <path id="Trazado_180005" data-name="Trazado 180005" d="M488.823,51.531a6.358,6.358,0,0,0-4.677,1.251c-.787.6-.011,1.953.786,1.345a5.1,5.1,0,0,1,3.891-1.038c.991.129.981-1.43,0-1.557" transform="translate(-451.47 -41.293)" fill="#7a3a26"/>
                    <path id="Trazado_180006" data-name="Trazado 180006" d="M533.522,29.821a10.359,10.359,0,0,0-4.562,2.81c-.688.728.411,1.832,1.1,1.1a8.771,8.771,0,0,1,3.875-2.409c.957-.29.549-1.794-.414-1.5" transform="translate(-484.7 -25.245)" fill="#7a3a26"/>
                    <path id="Trazado_180007" data-name="Trazado 180007" d="M578.463,12.706a7.671,7.671,0,0,0-7.143,1.359c-.789.617.32,1.712,1.1,1.1a6.055,6.055,0,0,1,5.628-.958c.958.3,1.368-1.2.414-1.5" transform="translate(-515.995 -12.347)" fill="#7a3a26"/>
                    <path id="Trazado_180008" data-name="Trazado 180008" d="M578.736,35.485a7.2,7.2,0,0,0-3.912.235c-.939.331-.535,1.836.414,1.5a5.636,5.636,0,0,1,3.084-.235c.978.2,1.4-1.3.414-1.5" transform="translate(-518.393 -29.341)" fill="#7a3a26"/>
                    <path id="Trazado_180009" data-name="Trazado 180009" d="M545.562,60.808l-3.524.424c-.983.118-.994,1.677,0,1.557l3.524-.424c.983-.118.995-1.677,0-1.557" transform="translate(-493.988 -48.189)" fill="#7a3a26"/>
                    <path id="Trazado_180010" data-name="Trazado 180010" d="M525.035,78.309a5.645,5.645,0,0,1-2.818-1.694c-.678-.741-1.777.363-1.1,1.1a7.123,7.123,0,0,0,3.5,2.094.779.779,0,0,0,.414-1.5" transform="translate(-478.904 -59.705)" fill="#7a3a26"/>
                    <path id="Trazado_180011" data-name="Trazado 180011" d="M546.66,117.324a6.093,6.093,0,0,1-4.913-1.891c-.7-.723-1.8.379-1.1,1.1a7.626,7.626,0,0,0,6.014,2.347c1-.064,1-1.621,0-1.557" transform="translate(-493.342 -88.425)" fill="#7a3a26"/>
                    <path id="Trazado_180012" data-name="Trazado 180012" d="M540.208,144.159a9.537,9.537,0,0,1-4.69-.972c-.9-.443-1.685.9-.786,1.345a11.2,11.2,0,0,0,5.476,1.185c1-.041,1-1.6,0-1.557" transform="translate(-488.839 -109.064)" fill="#7a3a26"/>
                    <path id="Trazado_180013" data-name="Trazado 180013" d="M552.018,171.921a5.668,5.668,0,0,1-4.588-1.594c-.719-.7-1.822.4-1.1,1.1a7.189,7.189,0,0,0,5.69,2.05c.99-.089,1-1.647,0-1.557" transform="translate(-497.536 -129.038)" fill="#7a3a26"/>
                    <path id="Trazado_180014" data-name="Trazado 180014" d="M578.537,185.276a13.128,13.128,0,0,1-5.812.98c-1-.056-1,1.5,0,1.558a14.156,14.156,0,0,0,6.226-1.036c.915-.374.515-1.882-.414-1.5" transform="translate(-516.68 -140.217)" fill="#7a3a26"/>
                    <path id="Trazado_180015" data-name="Trazado 180015" d="M581.483,153.953a11.193,11.193,0,0,1-4.248,1.491c-.98.128-.993,1.687,0,1.557a13.126,13.126,0,0,0,5.035-1.7.779.779,0,0,0-.786-1.345" transform="translate(-520.023 -117.009)" fill="#7a3a26"/>
                    <path id="Trazado_180016" data-name="Trazado 180016" d="M583.1,130.191a16.717,16.717,0,0,1-3.885,1.33c-.98.21-.565,1.711.414,1.5a18.4,18.4,0,0,0,4.257-1.487c.9-.441.111-1.784-.786-1.345" transform="translate(-521.621 -99.452)" fill="#7a3a26"/>
                    <path id="Trazado_180017" data-name="Trazado 180017" d="M555.667,96.736l-3.122.318c-.988.1-1,1.659,0,1.557l3.122-.318c.988-.1,1-1.659,0-1.557" transform="translate(-501.757 -74.767)" fill="#7a3a26"/>
                    <path id="Trazado_180018" data-name="Trazado 180018" d="M575.549,69.511a15.446,15.446,0,0,0-4.484.834c-.941.326-.536,1.831.414,1.5a13.98,13.98,0,0,1,4.07-.779c1-.039,1-1.6,0-1.557" transform="translate(-515.612 -54.631)" fill="#7a3a26"/>
                    <path id="Trazado_180019" data-name="Trazado 180019" d="M591.8,100.871l-4.865.112a.779.779,0,0,0,0,1.557l4.865-.112a.779.779,0,0,0,0-1.557" transform="translate(-527.19 -77.828)" fill="#7a3a26"/>
                    <path id="Trazado_180020" data-name="Trazado 180020" d="M614.85,45.824a12.945,12.945,0,0,0-4.7-.33c-.984.113-1,1.672,0,1.557a11.748,11.748,0,0,1,4.284.274.779.779,0,0,0,.414-1.5" transform="translate(-544.37 -36.805)" fill="#7a3a26"/>
                    <path id="Trazado_180021" data-name="Trazado 180021" d="M645.577,34.453a5.758,5.758,0,0,0-4.748-3.4c-.995-.108-.987,1.45,0,1.557a4.239,4.239,0,0,1,3.4,2.627c.394.918,1.737.126,1.345-.786" transform="translate(-567.061 -26.182)" fill="#7a3a26"/>
                    <path id="Trazado_180022" data-name="Trazado 180022" d="M641.24,74.458A4.618,4.618,0,0,1,637.259,73c-.693-.727-1.793.375-1.1,1.1a6.243,6.243,0,0,0,5.5,1.858c.988-.136.568-1.637-.414-1.5" transform="translate(-563.993 -57.036)" fill="#7a3a26"/>
                    <path id="Trazado_180023" data-name="Trazado 180023" d="M610.258,80.491l-3.5-1.948c-.877-.488-1.663.857-.786,1.345l3.5,1.948c.877.488,1.663-.857.786-1.345" transform="translate(-541.541 -61.235)" fill="#7a3a26"/>
                    <path id="Trazado_180024" data-name="Trazado 180024" d="M630.308,118.755l-4.278-.8c-.98-.184-1.4,1.317-.414,1.5l4.278.8c.98.184,1.4-1.317.414-1.5" transform="translate(-555.942 -90.451)" fill="#7a3a26"/>
                    <path id="Trazado_180025" data-name="Trazado 180025" d="M614.057,151.843a6.465,6.465,0,0,1-5.235.189c-.938-.355-1.344,1.15-.414,1.5a8,8,0,0,0,6.435-.346c.9-.439.112-1.783-.786-1.345" transform="translate(-543.241 -115.468)" fill="#7a3a26"/>
                    <path id="Trazado_180026" data-name="Trazado 180026" d="M625.246,171.319a9.98,9.98,0,0,1-4.659,1.3c-1,.031-1,1.589,0,1.558a11.716,11.716,0,0,0,5.445-1.517.779.779,0,0,0-.786-1.345" transform="translate(-552.082 -129.859)" fill="#7a3a26"/>
                    <path id="Trazado_180027" data-name="Trazado 180027" d="M656.286,142.2a7.973,7.973,0,0,1-3.5.311c-.992-.126-.982,1.433,0,1.558a9.047,9.047,0,0,0,3.912-.367c.951-.3.545-1.808-.414-1.5" transform="translate(-575.91 -108.37)" fill="#7a3a26"/>
                    <path id="Trazado_180028" data-name="Trazado 180028" d="M655.993,99.682a33.656,33.656,0,0,1-5.815-2.523c-.879-.484-1.665.861-.786,1.345a35.814,35.814,0,0,0,6.187,2.68c.955.311,1.365-1.192.414-1.5" transform="translate(-573.66 -75.006)" fill="#7a3a26"/>
                    <path id="Trazado_180029" data-name="Trazado 180029" d="M681.464,79.4a9.6,9.6,0,0,0-4.614-2.37c-.979-.2-1.4,1.3-.414,1.5a8.065,8.065,0,0,1,3.926,1.969c.738.676,1.843-.423,1.1-1.1" transform="translate(-593.534 -60.178)" fill="#7a3a26"/>
                    <path id="Trazado_180030" data-name="Trazado 180030" d="M694.27,62.319a10.422,10.422,0,0,0-3.876-3.024c-.906-.41-1.7.932-.786,1.345a9.446,9.446,0,0,1,3.561,2.781c.623.785,1.718-.324,1.1-1.1" transform="translate(-603.393 -47.018)" fill="#7a3a26"/>
                    <path id="Trazado_180031" data-name="Trazado 180031" d="M682.4,151.818l-1.6-5.243c-.292-.956-1.8-.548-1.5.414l1.6,5.243c.292.956,1.8.548,1.5-.414" transform="translate(-596.037 -111.233)" fill="#7a3a26"/>
                    <path id="Trazado_180032" data-name="Trazado 180032" d="M693.111,122.743a21.356,21.356,0,0,0-4.783-3.88.779.779,0,0,0-.786,1.345,19.893,19.893,0,0,1,4.468,3.637c.68.739,1.779-.365,1.1-1.1" transform="translate(-601.888 -91.052)" fill="#7a3a26"/>
                    <path id="Trazado_180033" data-name="Trazado 180033" d="M709.868,105.69a11.679,11.679,0,0,0-2.86-2.486c-.854-.531-1.637.816-.786,1.345a10.394,10.394,0,0,1,2.545,2.243c.638.774,1.734-.333,1.1-1.1" transform="translate(-615.71 -79.464)" fill="#7a3a26"/>
                    <path id="Trazado_180034" data-name="Trazado 180034" d="M721.233,84.636a4.535,4.535,0,0,0-1.649-1.439c-.895-.445-1.684.9-.786,1.345a2.913,2.913,0,0,1,1.091.88.8.8,0,0,0,1.065.279.785.785,0,0,0,.279-1.065" transform="translate(-624.991 -64.689)" fill="#7a3a26"/>
                    <path id="Trazado_180035" data-name="Trazado 180035" d="M668.025,125.337l-2.327-.617a.779.779,0,0,0-.414,1.5l2.327.617a.779.779,0,0,0,.414-1.5" transform="translate(-585.291 -95.448)" fill="#7a3a26"/>
                    <path id="Trazado_180036" data-name="Trazado 180036" d="M735.293,128.511a8.648,8.648,0,0,0-2.851-3.561c-.8-.6-1.58.751-.786,1.345a7.2,7.2,0,0,1,2.292,3c.39.92,1.732.127,1.345-.786" transform="translate(-634.549 -95.528)" fill="#7a3a26"/>
                    <path id="Trazado_180037" data-name="Trazado 180037" d="M717.84,158.6a16.214,16.214,0,0,0-2.322-5.676c-.545-.837-1.894-.057-1.345.786a15.007,15.007,0,0,1,2.165,5.3c.2.982,1.7.566,1.5-.414" transform="translate(-621.768 -116.068)" fill="#7a3a26"/>
                    <path id="Trazado_180038" data-name="Trazado 180038" d="M698,186.205a10.733,10.733,0,0,1-2.062-5.841c-.047-1-1.605-1-1.557,0a12.224,12.224,0,0,0,2.275,6.627c.579.807,1.93.031,1.345-.786" transform="translate(-607.225 -136.074)" fill="#7a3a26"/>
                    <path id="Trazado_180039" data-name="Trazado 180039" d="M719.547,192.678l-1.752-3.894c-.411-.913-1.753-.122-1.345.786l1.752,3.894c.41.912,1.753.121,1.345-.786" transform="translate(-623.491 -142.558)" fill="#7a3a26"/>
                    <path id="Trazado_180040" data-name="Trazado 180040" d="M745.052,157.731c-.6-.785-1.954-.01-1.345.786a9.706,9.706,0,0,1,1.967,7.379c-.131.99,1.427.981,1.557,0a10.961,10.961,0,0,0-2.18-8.165" transform="translate(-643.595 -119.645)" fill="#7a3a26"/>
                    <path id="Trazado_180041" data-name="Trazado 180041" d="M737.97,197.031c-.487-.876-1.833-.092-1.345.786a9.615,9.615,0,0,1,1.229,4.686.779.779,0,0,0,1.557,0,11.305,11.305,0,0,0-1.442-5.472" transform="translate(-638.393 -148.674)" fill="#7a3a26"/>
                    <path id="Trazado_180042" data-name="Trazado 180042" d="M718.071,221.585c-.9-.425-1.693.918-.786,1.345a3.946,3.946,0,0,1,2.334,3.6.779.779,0,0,0,1.557,0,5.479,5.479,0,0,0-3.1-4.948" transform="translate(-623.868 -167.059)" fill="#7a3a26"/>
                    <path id="Trazado_180043" data-name="Trazado 180043" d="M751.074,230.468c-.04-1-1.6-1-1.557,0a14.483,14.483,0,0,1-.359,3.881c-.227.975,1.274,1.391,1.5.414a16.081,16.081,0,0,0,.415-4.3" transform="translate(-647.724 -173.135)" fill="#7a3a26"/>
                    <path id="Trazado_180044" data-name="Trazado 180044" d="M723.267,262.627a15.524,15.524,0,0,1-.409,3.095c-.23.975,1.272,1.391,1.5.414a17.7,17.7,0,0,0,.464-3.509c.032-1-1.526-1-1.557,0" transform="translate(-628.27 -196.922)" fill="#7a3a26"/>
                    <path id="Trazado_180045" data-name="Trazado 180045" d="M748.685,263.176c-.319-.945-1.824-.539-1.5.414a5.244,5.244,0,0,1-.128,3.879c-.4.908.938,1.7,1.345.786a6.855,6.855,0,0,0,.285-5.079" transform="translate(-646.13 -197.487)" fill="#7a3a26"/>
                    <path id="Trazado_180046" data-name="Trazado 180046" d="M734.148,277.337a19.166,19.166,0,0,1-.829,3.494c-.322.951,1.182,1.36,1.5.414a19.2,19.2,0,0,0,.829-3.494c.137-.98-1.363-1.4-1.5-.414" transform="translate(-635.992 -207.941)" fill="#7a3a26"/>
                    <path id="Trazado_180047" data-name="Trazado 180047" d="M710.489,284.1a6.992,6.992,0,0,0-.366,3.331.806.806,0,0,0,.779.779.783.783,0,0,0,.779-.779,5.991,5.991,0,0,1,.31-2.917c.343-.944-1.162-1.35-1.5-.414" transform="translate(-618.822 -212.97)" fill="#7a3a26"/>
                    <path id="Trazado_180048" data-name="Trazado 180048" d="M418.122,105.654a19.548,19.548,0,0,0-3.485,1.974c-.81.576-.033,1.927.786,1.345A19.533,19.533,0,0,1,418.909,107c.916-.4.124-1.744-.786-1.345" transform="translate(-400.046 -81.312)" fill="#7a3a26"/>
                  </g>
                </g>
              </g>
              <path id="Trazado_180049" data-name="Trazado 180049" d="M444.585,343.47a5.074,5.074,0,0,0-2.455,5.08,4.855,4.855,0,0,0,.431,1.68,4.633,4.633,0,0,0,2.279,2.171,5.612,5.612,0,0,0,7.028-2.463c1.736-3.339-.382-7.719-4.281-7.377a7.109,7.109,0,0,0-3,.909" transform="translate(-327.022 -253.377)" fill="#ff7559"/>
              <path id="Trazado_180050" data-name="Trazado 180050" d="M630.064,343.47a5.074,5.074,0,0,0-2.455,5.08,4.854,4.854,0,0,0,.431,1.68,4.633,4.633,0,0,0,2.279,2.171,5.612,5.612,0,0,0,7.027-2.463c1.736-3.339-.382-7.719-4.281-7.377a7.109,7.109,0,0,0-3,.909" transform="translate(-464.219 -253.377)" fill="#ff7559"/>
              <path id="Trazado_180051" data-name="Trazado 180051" d="M522.481,330.181l-.068,0c-2-.173-4.243-.5-5.546-2.176-1.387-1.786-1.037-4.157-.512-6.24.45-1.785.975-3.582,1.482-5.319,1.283-4.393,2.609-8.936,2.784-13.519a.779.779,0,0,1,1.556.059c-.182,4.775-1.536,9.412-2.845,13.9-.5,1.724-1.024,3.507-1.467,5.264-.434,1.719-.745,3.646.232,4.9.918,1.182,2.7,1.428,4.45,1.579a.779.779,0,0,1-.066,1.555" transform="translate(-381.601 -223.517)" fill="#ff7559"/>
              <path id="Trazado_180052" data-name="Trazado 180052" d="M574.489,424.07a.779.779,0,0,1-.292-1.5,19.386,19.386,0,0,0,7.492-5.389.779.779,0,0,1,1.188,1.007,20.948,20.948,0,0,1-8.1,5.826.777.777,0,0,1-.292.057" transform="translate(-424.369 -308.383)" fill="#ff7559"/>
              <path id="Trazado_180053" data-name="Trazado 180053" d="M514.17,435.909a20.852,20.852,0,0,1-11.621-3.534.779.779,0,0,1,.869-1.292,19.572,19.572,0,0,0,12.591,3.181.779.779,0,1,1,.149,1.55c-.663.064-1.327.1-1.988.1" transform="translate(-371.477 -318.772)" fill="#ff7559"/>
              <path id="Trazado_180054" data-name="Trazado 180054" d="M616.568,253.479c.807-.048,1.845-.331,1.888-1.138.029-.542-.445-.964-.882-1.286a34.809,34.809,0,0,0-11.951-5.667,10.922,10.922,0,0,0-4.349-.415c-3.977.615-5.578,5.844-1.3,7.224,5.094,1.643,11.309,1.593,16.593,1.282" transform="translate(-441.918 -181.146)" fill="#7a3a26"/>
              <g id="Grupo_174359" data-name="Grupo 174359" transform="translate(165.64 64.806)" opacity="0.38" style="mix-blend-mode: screen;isolation: isolate">
                <g id="Grupo_174358" data-name="Grupo 174358">
                  <g id="Grupo_174357" data-name="Grupo 174357" clip-path="url(#clip-path-3)">
                    <path id="Trazado_180055" data-name="Trazado 180055" d="M638.281,249.66c-.646-.25-1.3-.483-1.957-.694a18.137,18.137,0,0,0,5.343,7.676q1.255-.027,2.467-.089a16.553,16.553,0,0,1-5.853-6.893" transform="translate(-636.324 -248.966)" fill="#7a3a26"/>
                  </g>
                </g>
              </g>
              <g id="Grupo_174362" data-name="Grupo 174362" transform="translate(158.743 63.752)" opacity="0.38" style="mix-blend-mode: screen;isolation: isolate">
                <g id="Grupo_174361" data-name="Grupo 174361">
                  <g id="Grupo_174360" data-name="Grupo 174360" clip-path="url(#clip-path-4)">
                    <path id="Trazado_180056" data-name="Trazado 180056" d="M611.379,244.913a6.988,6.988,0,0,0-.937.075,4.8,4.8,0,0,0-.613.143,13.564,13.564,0,0,0,4.458,8.167c1.02.129,2.051.232,3.09.288a11.994,11.994,0,0,1-6-8.673" transform="translate(-609.829 -244.913)" fill="#7a3a26"/>
                  </g>
                </g>
              </g>
              <path id="Trazado_180057" data-name="Trazado 180057" d="M458.817,257.625c.782-.207,1.743-.69,1.625-1.49-.079-.537-.627-.857-1.12-1.085a34.8,34.8,0,0,0-12.838-3.183,10.923,10.923,0,0,0-4.345.456c-3.776,1.392-4.307,6.835.16,7.338,5.319.6,11.4-.682,16.517-2.036" transform="translate(-324.818 -186.281)" fill="#7a3a26"/>
              <g id="Grupo_174365" data-name="Grupo 174365" transform="translate(117.256 65.677)" opacity="0.38" style="mix-blend-mode: screen;isolation: isolate">
                <g id="Grupo_174364" data-name="Grupo 174364">
                  <g id="Grupo_174363" data-name="Grupo 174363" clip-path="url(#clip-path-5)">
                    <path id="Trazado_180058" data-name="Trazado 180058" d="M451.972,252.312a7.46,7.46,0,0,0-1.454.363c-.023.009-.042.021-.065.03a11.947,11.947,0,0,0,4.143,7.435q1.234-.043,2.484-.173a10.347,10.347,0,0,1-5.108-7.655" transform="translate(-450.453 -252.312)" fill="#7a3a26"/>
                  </g>
                </g>
              </g>
              <g id="Grupo_174368" data-name="Grupo 174368" transform="translate(123.845 65.775)" opacity="0.38" style="mix-blend-mode: screen;isolation: isolate">
                <g id="Grupo_174367" data-name="Grupo 174367">
                  <g id="Grupo_174366" data-name="Grupo 174366" clip-path="url(#clip-path-6)">
                    <path id="Trazado_180059" data-name="Trazado 180059" d="M481.249,259.366q1.009-.211,1.992-.444a19.773,19.773,0,0,1-5.56-5.959q-.955-.164-1.917-.277a21.4,21.4,0,0,0,5.485,6.68" transform="translate(-475.764 -252.686)" fill="#7a3a26"/>
                  </g>
                </g>
              </g>
              <path id="Trazado_180060" data-name="Trazado 180060" d="M461.448,251.838q-.345,0-.689.012c.23,0,.459-.007.689-.012" transform="translate(-340.82 -186.283)" fill="#9d4d32"/>
              <path id="Trazado_180061" data-name="Trazado 180061" d="M453.285,302.374s9.06,7.055,14.414-2.063c0,.021-7.041-6.306-14.414,2.063" transform="translate(-335.291 -220.458)" fill="#f3e1d9"/>
              <path id="Trazado_180062" data-name="Trazado 180062" d="M450.6,302.647a.779.779,0,0,1-.49-1.385,14.211,14.211,0,0,1,15.15-1.734.779.779,0,1,1-.728,1.377,12.786,12.786,0,0,0-13.443,1.57.777.777,0,0,1-.489.173" transform="translate(-332.73 -220.491)" fill="#7a3a26"/>
              <path id="Trazado_180063" data-name="Trazado 180063" d="M479.309,303.776c0,1.72-1.046,3.115-2.336,3.115s-2.336-1.394-2.336-3.115,1.046-3.115,2.336-3.115,2.336,1.394,2.336,3.115" transform="translate(-351.085 -222.398)" fill="#7a3a26"/>
              <path id="Trazado_180064" data-name="Trazado 180064" d="M610.975,301.134s-8.866,7.3-14.464-1.673c0,.021,6.868-6.493,14.464,1.673" transform="translate(-441.235 -219.704)" fill="#f3e1d9"/>
              <path id="Trazado_180065" data-name="Trazado 180065" d="M609.54,301.419a.775.775,0,0,1-.472-.16,12.788,12.788,0,0,0-13.481-1.205.779.779,0,0,1-.765-1.356,14.21,14.21,0,0,1,15.192,1.324.779.779,0,0,1-.474,1.4" transform="translate(-439.692 -219.751)" fill="#7a3a26"/>
              <path id="Trazado_180066" data-name="Trazado 180066" d="M612.73,302.794c.047,1.72,1.13,3.085,2.42,3.051s2.3-1.457,2.251-3.177-1.13-3.085-2.42-3.051-2.3,1.457-2.251,3.177" transform="translate(-453.23 -221.625)" fill="#7a3a26"/>
              <path id="Trazado_180067" data-name="Trazado 180067" d="M692.731,306.425a4.611,4.611,0,0,1,4.3,1.252,6.119,6.119,0,0,1,1.214,3.086,22.237,22.237,0,0,1-.086,7.8,11.8,11.8,0,0,1-1.366,3.9,11.187,11.187,0,0,1-2.039,2.413,18.642,18.642,0,0,1-11.584,4.878c-.51.026,2.454-13.632,2.855-14.825,1.285-3.814,2.225-7.659,6.706-8.5" transform="translate(-505.292 -226.592)" fill="#ffa78b"/>
              <path id="Trazado_180068" data-name="Trazado 180068" d="M688.409,340.263a.78.78,0,0,1-.769-.9,16.133,16.133,0,0,1,5.163-9.584c2.079-1.856,4.413-2.9,5.554-2.947a.779.779,0,0,1,.059,1.556c-1.314.05-7.914,3.135-9.24,11.227a.779.779,0,0,1-.768.653" transform="translate(-508.634 -241.752)" fill="#ff7559"/>
              <path id="Trazado_180069" data-name="Trazado 180069" d="M703.848,349.669a.779.779,0,0,1-.715-.469,2.7,2.7,0,0,0-3.909-1.207.779.779,0,1,1-.83-1.318,4.253,4.253,0,0,1,6.168,1.9.779.779,0,0,1-.714,1.089" transform="translate(-516.328 -255.953)" fill="#ff7559"/>
              <path id="Trazado_180070" data-name="Trazado 180070" d="M380.794,306.425a4.611,4.611,0,0,0-4.3,1.252,6.117,6.117,0,0,0-1.214,3.086,22.237,22.237,0,0,0,.086,7.8,11.791,11.791,0,0,0,1.366,3.9,11.187,11.187,0,0,0,2.039,2.413,18.642,18.642,0,0,0,11.584,4.878c.51.026-2.454-13.632-2.855-14.825-1.285-3.814-2.225-7.659-6.706-8.5" transform="translate(-277.368 -226.592)" fill="#ffa78b"/>
              <path id="Trazado_180071" data-name="Trazado 180071" d="M396.2,340.263a.779.779,0,0,1-.768-.653c-1.326-8.092-7.925-11.177-9.24-11.227a.779.779,0,0,1,.059-1.556c1.141.044,3.475,1.091,5.554,2.947a16.133,16.133,0,0,1,5.163,9.584.78.78,0,0,1-.769.9" transform="translate(-285.11 -241.752)" fill="#ff7559"/>
              <path id="Trazado_180072" data-name="Trazado 180072" d="M394.8,349.669a.779.779,0,0,1-.714-1.089,4.253,4.253,0,0,1,6.168-1.9.779.779,0,1,1-.83,1.318,2.7,2.7,0,0,0-3.909,1.207.779.779,0,0,1-.715.469" transform="translate(-291.454 -255.953)" fill="#ff7559"/>
              <path id="Trazado_180073" data-name="Trazado 180073" d="M280.107,717.5c-2.834-13.841-7.673-26.765-16.2-36.955-19.893-23.778-53.781-31.655-83.157-34.688,0,0-32.76,42.06-68.882,1.255-1.589-1.795-17.065,2.642-19.074,3.074-14.643,3.15-29.133,7.849-42.395,14.877C7.417,687.841,1.507,731.739.028,776.915c-.094,2.883-.053,6.056,1.825,8.248,5.252,6.13,26.207,3,33.679,3l46.668-.03,115.21-.073q19.094-.012,38.187-.037c8.574-.008,41.935,4.676,47.983-1.606,1.548-1.608,1.537-4.112,1.429-6.341-.912-18.8-.632-41.729-4.9-62.577" transform="translate(0 -477.736)" fill="#45708e"/>
              <path id="Trazado_180074" data-name="Trazado 180074" d="M420.4,681.592a42.837,42.837,0,0,1-6.2-.449c-13.118-1.916-22.866-9.788-28.733-16.053a64.088,64.088,0,0,1-9.681-13.258.765.765,0,0,1,1.363-.7,63.858,63.858,0,0,0,9.468,12.944c5.7,6.075,15.148,13.7,27.816,15.551,18.541,2.7,38.811-7.327,60.248-29.813a.765.765,0,1,1,1.108,1.056c-19.459,20.41-38.058,30.718-55.384,30.718" transform="translate(-277.901 -480.492)" fill="#8aa4b9"/>
              <g id="Grupo_174373" data-name="Grupo 174373" transform="translate(38.092 274.819)" style="mix-blend-mode: multiply;isolation: isolate">
                <g id="Grupo_174372" data-name="Grupo 174372">
                  <g id="Grupo_174371" data-name="Grupo 174371" clip-path="url(#clip-path-7)">
                    <g id="Grupo_174370" data-name="Grupo 174370" transform="translate(0)">
                      <g id="Grupo_174369" data-name="Grupo 174369" clip-path="url(#clip-path-8)">
                        <rect id="Rectángulo_45016" data-name="Rectángulo 45016" width="211.517" height="45.725" transform="translate(-1.822 0.062) rotate(-2.347)" fill="url(#linear-gradient)"/>
                      </g>
                    </g>
                  </g>
                </g>
              </g>
              <path id="Trazado_180076" data-name="Trazado 180076" d="M95.138,917.784a.765.765,0,0,1-.764-.74c-.9-27.081-6.537-51.522-11.107-67.258a239.073,239.073,0,0,0-9.807-27.955.765.765,0,0,1,1.4-.626,240.364,240.364,0,0,1,9.871,28.125c4.6,15.826,10.27,40.413,11.176,67.664a.765.765,0,0,1-.739.79h-.026" transform="translate(-54.288 -607.105)" fill="#8aa4b9"/>
              <path id="Trazado_180077" data-name="Trazado 180077" d="M939.72,914.495a.737.737,0,0,1-.734-.678c-2-24.524,4.539-49.26,10.375-65.693a208.776,208.776,0,0,1,13.275-30.087.738.738,0,1,1,1.282.73,207.306,207.306,0,0,0-13.177,29.879c-5.782,16.289-12.261,40.8-10.284,65.05a.737.737,0,0,1-.675.795l-.061,0" transform="translate(-694.289 -604.821)" fill="#8aa4b9"/>
            </g>
          </g>
        </g>
      </g>
    </g>
  </g>
</svg>
