<svg xmlns="http://www.w3.org/2000/svg" xmlns:xlink="http://www.w3.org/1999/xlink" width="144" height="138" viewBox="0 0 144 138">
  <defs>
    <clipPath id="clip-path">
      <rect id="Rectangle_45263" data-name="Rectangle 45263" width="109.849" height="98.188" fill="none"/>
    </clipPath>
  </defs>
  <g id="_5" data-name="5" transform="translate(-698 -4474.297)">
    <g id="Group_165391" data-name="Group 165391" transform="translate(161 3186.297)">
      <rect id="Rectangle_40797" data-name="Rectangle 40797" width="144" height="138" transform="translate(537 1288)" fill="#ffe891"/>
    </g>
    <g id="Group_174952" data-name="Group 174952" transform="translate(715 4494.296)">
      <g id="Group_174952-2" data-name="Group 174952" clip-path="url(#clip-path)">
        <path id="Path_182727" data-name="Path 182727" d="M27.332,91.489c-.359,1.554-1.3,1.969-2.774,1.217-9-4.6-15.973-11.417-21.529-19.768C2.24,71.751,1.486,70.538.776,69.3a5.525,5.525,0,0,1,.68-6.561q5.892-6.673,12.277-12.877c1.081-1.05,1.888-.993,2.858.169.631.445.408,1,.161,1.523a4.493,4.493,0,0,1-1.031,1.225C12.381,56.058,9.158,59.448,5.9,63.07c2.555-.558,4.943-1.062,7.325-1.589,6.945-1.536,13.865-3.192,20.845-4.566a115.828,115.828,0,0,1,12.951-1.723c2.5-.2,5-.252,7.486-.289,2.728-.04,5.488.1,8.233.292a109.42,109.42,0,0,1,15.794,2.264q11.943,2.613,23.87,5.3a8.16,8.16,0,0,0,1.53.258c-1.2-1.247-2.211-2.368-3.253-3.442A179.253,179.253,0,0,0,84.641,44.566c-.585-.471-1.218-.883-1.785-1.372a1.354,1.354,0,0,0-1.919,0c-1.874,1.373-3.762,2.728-5.648,4.085-.319.23-.643.453-.964.68a3.766,3.766,0,0,1-4.151.337,3.855,3.855,0,0,1-2-3.565c-.056-1.75-.012-3.5-.015-5.255a8.743,8.743,0,0,0-.026-1.072,1.316,1.316,0,0,0-1.782-1.289,14.588,14.588,0,0,0-8.6,5.061,4.087,4.087,0,0,1-2.213,1.771,3.268,3.268,0,0,1-3.48-1.339,13.455,13.455,0,0,0-4.616-3.921c-5.056-2.479-9.972-2.6-14.876.481a85.159,85.159,0,0,0-9.749,7.174,5.073,5.073,0,0,1-1.208.881c-.578.248-1.168.392-1.648-.213-1.029-.956-1.157-1.83-.24-2.625,4.075-3.536,8.262-6.929,13.15-9.313a17.966,17.966,0,0,1,21.343,4.585c.429.512.621.634,1.042.019a9.389,9.389,0,0,1,1.94-1.989c.693-.549,1.41-1.068,2.118-1.6-.143-.283-.466-.3-.709-.428a7.108,7.108,0,0,1-4-6.482c-.059-2.643-.026-5.287-.01-7.931.008-1.274.356-1.673,1.62-2,1.1-.152,1.73.387,1.789,1.641.071,1.463.017,2.928.024,4.392.006,1.107-.033,2.216.013,3.321.119,2.854,1.639,4.314,4.474,4.324,1.25,0,2.5-.009,3.751,0a5.6,5.6,0,0,1,5.7,5.7c.017,1.607,0,3.214.009,4.821,0,.381-.161.9.2,1.1.384.218.7-.233,1-.451,4.5-3.218,8.973-6.484,13.457-9.728A7.283,7.283,0,0,1,91.222,32.9c3.641.071,7.285.024,10.927.02a3.825,3.825,0,0,0,3.474-1.734,4.875,4.875,0,0,0,.675-2.665c0-6.9.008-13.791-.008-20.685-.006-2.688-1.472-4.185-4.146-4.3-.785-.033-1.572-.012-2.358-.012q-18.382,0-36.762-.007a6.108,6.108,0,0,0-3.294.752c-1.344.844-1.611,2.211-1.674,3.623-.076,1.746.017,3.5-.035,5.244-.045,1.531-.712,2.02-2.211,1.693a1.626,1.626,0,0,1-1.216-1.691c-.008-2.073-.088-4.152.04-6.218A7.172,7.172,0,0,1,62.16.012Q79.479,0,96.8.008c1.93,0,3.86-.024,5.79.006a7.246,7.246,0,0,1,7.045,5.511c.046.166.019.362.218.453V30.432c-.747,4.009-3.49,6.266-7.654,6.278-3.538.011-7.078.026-10.616-.012a4.542,4.542,0,0,0-2.993.924c-.874.677-1.756,1.352-2.686,1.956-.549.357-.656.685-.069,1.136,6.285,4.824,11.84,10.439,17.387,16.061,1.882,1.907,3.65,3.92,5.45,5.9a3.846,3.846,0,0,1,1.07,2.934,13.5,13.5,0,0,1-.059,1.984,3.182,3.182,0,0,1-.49,1.512c-5.9,10.108-13.6,18.382-24.16,23.751A50.333,50.333,0,0,1,64.913,98.17c-2.435.143-4.721-.622-7.065-1.054a14.506,14.506,0,0,0-6.9.226c-4.035,1.228-8.054.8-12.087.144a46.2,46.2,0,0,1-5.52-1.267c-1.645-.479-2.01-1.389-1.182-2.884.508-.892,1.31-.741,2.07-.521A49.839,49.839,0,0,0,42.1,94.4a18.717,18.717,0,0,0,7.627-.388,16.317,16.317,0,0,1,9.006-.252c4.849,1.383,9.556.8,14.276-.271A46.983,46.983,0,0,0,93.876,82.613a61.459,61.459,0,0,0,10.795-12.82,2.186,2.186,0,0,1,.446-.527c-2.636,1.089-5.164,2.041-7.715,2.936A117.1,117.1,0,0,1,85.8,75.624a4.528,4.528,0,0,1-.847.125c-1.427.062-2.064-.526-2.168-2,.172-1.161,1.052-1.543,2.02-1.79,2.769-.705,5.542-1.389,8.253-2.3.373-.124.743-.257,1.112-.388,2.507-.8,4.99-1.661,7.59-2.777-7.7-1.691-15.2-3.372-22.722-5a117.654,117.654,0,0,0-16.4-2.474c-2.6-.218-5.218-.284-7.8-.288a85.268,85.268,0,0,0-8.553.335A120.112,120.112,0,0,0,30.848,61.5C23.336,63.122,15.83,64.781,8.087,66.51c2.7,1.089,5.2,2.006,7.745,2.792a122.363,122.363,0,0,0,23.261,5.21c4.07.512,8.16.742,12.264.907a126.348,126.348,0,0,0,24.191-1.59,10.992,10.992,0,0,1,1.488-.162,1.756,1.756,0,0,1,1.835,1.022c.349,1.668-.138,2.472-1.778,2.755a125.4,125.4,0,0,1-13.186,1.578c-2.993.193-6,.39-8.983.364a132.322,132.322,0,0,1-37.607-5.57C13.176,72.555,9.11,71.1,5.086,69.427c-.137.241.095.369.184.508A56.626,56.626,0,0,0,20.229,85.99c1.934,1.363,4,2.491,6.03,3.7.659.392,1.453.764,1.073,1.8" transform="translate(0 0)" fill="#060102"/>
        <path id="Path_182728" data-name="Path 182728" d="M157.687,93.99a1.239,1.239,0,0,1,.188.035V96.17l-.17.055q-.009-1.117-.017-2.234" transform="translate(-48.025 -28.625)" fill="#515151"/>
        <path id="Path_182729" data-name="Path 182729" d="M84.871,103.968c.241,1.525.956,1.948,2.608,1.55a132.254,132.254,0,0,0,18.99-6.215l1-.4c-.3.519-.477.873-.689,1.205-5.511,8.623-12.517,15.645-21.778,20.226a46.959,46.959,0,0,1-18.419,4.741,14.467,14.467,0,0,1-4.539-.638,17.813,17.813,0,0,0-9.635-.154c-4.221,1.226-8.339.657-12.489-.116a38.9,38.9,0,0,1-3.836-.962,2.294,2.294,0,0,0-2.036.257l-4.83-1.845c-.06-.915-.69-1.322-1.422-1.7-9.1-4.724-15.976-11.775-21.335-20.411-.075-.12-.129-.253-.279-.549,1.6.626,3.068,1.206,4.539,1.769a128.171,128.171,0,0,0,30.462,7.5,132.369,132.369,0,0,0,25.987.556c3.951-.3,7.877-.828,11.786-1.476,1.394-.231,1.812-.818,1.663-2.321.022-.068.038-.164.091-.185a8.37,8.37,0,0,1,4.164-.823" transform="translate(-1.882 -30.12)" fill="#d72f3c"/>
        <path id="Path_182730" data-name="Path 182730" d="M22.217,62.964c.984.465,1.7-.03,2.406-.643a71.95,71.95,0,0,1,8.437-6.415,23.34,23.34,0,0,1,7.047-3.289c2.248-.538,4.417.01,6.565.551A13.818,13.818,0,0,1,54.729,58.6a2.75,2.75,0,0,0,4.638-.113A14.732,14.732,0,0,1,68.509,52.8c1.392-.314,2.179.286,2.207,1.743.038,1.965.033,3.931.006,5.9a3.584,3.584,0,0,0,5.97,3.077c2.184-1.611,4.42-3.155,6.58-4.8a1.248,1.248,0,0,1,1.826.042,164.954,164.954,0,0,1,18.636,17.229c.987,1.033,1.946,2.093,2.913,3.144.04.044.034.131.078.319-2.473-.547-4.888-1.1-7.312-1.615-8.021-1.7-15.969-3.751-24.053-5.152a109.924,109.924,0,0,0-25.618-1.275c-8.808.541-17.35,2.543-25.915,4.45q-7.881,1.754-15.762,3.509c-.136.03-.28.029-.649.064.837-.93,1.543-1.735,2.271-2.52q4.155-4.482,8.534-8.746a1.781,1.781,0,0,0,.628-2.175l3.367-3.026" transform="translate(-2.259 -15.958)" fill="#db4955"/>
        <path id="Path_182731" data-name="Path 182731" d="M80.251,16.624c1.495,0,1.979-.471,1.992-1.973.015-1.785-.007-3.57.01-5.354A3.833,3.833,0,0,1,83.884,5.89c.438.483.3,1.082.3,1.638q.016,10.94.007,21.88c0,.429-.013.858.015,1.287a2.147,2.147,0,0,0,2.387,2.291,40.528,40.528,0,0,1,4.818.136c4.109.621,6.515,3.294,6.712,7.486.024.5,0,1,.019,1.5.015.314-.056.709.271.873s.61-.1.865-.291c1.757-1.293,3.568-2.509,5.311-3.819,1.886-1.419,3.836-2.749,5.72-4.17a8.918,8.918,0,0,1,5.436-1.7c4.4-.043,8.795-.017,13.192-.008.455,0,.942-.071,1.309.319a3.831,3.831,0,0,1-3.48,1.694c-3.748,0-7.5.038-11.247-.016a6.785,6.785,0,0,0-4.269,1.4q-6.954,5.087-13.961,10.1c-.294.212-.566.694-.989.455-.341-.193-.156-.653-.159-.992-.015-1.785,0-3.57-.01-5.356a5.318,5.318,0,0,0-5.571-5.589c-1.357-.007-2.714.01-4.07,0a4.031,4.031,0,0,1-4.237-4.245c-.034-2.57,0-5.141-.014-7.712-.008-1.319-.305-1.671-1.591-2.01,0-1.138-.007-2.276.019-3.413a1.014,1.014,0,0,0-.417-1" transform="translate(-24.441 -1.794)" fill="#94cbd3"/>
        <path id="Path_182732" data-name="Path 182732" d="M131.836,32.932c-4.931,0-9.863-.053-14.793.011a8.723,8.723,0,0,0-5.246,1.821c-3.664,2.757-7.4,5.419-11.115,8.109-.277.2-.6.457-.978.234s-.291-.621-.289-.969a11.465,11.465,0,0,0-.65-4.933c-1.351-2.969-3.8-4.178-6.924-4.278-1.249-.04-2.5,0-3.751-.007a2.341,2.341,0,0,1-2.618-2.647q-.014-7.4,0-14.793,0-4.984,0-9.969a3.619,3.619,0,0,1,2.573-.861q20.2-.009,40.4,0a4.013,4.013,0,0,1,4.206,4.273q.013,10.717,0,21.435a3.588,3.588,0,0,1-.824,2.573" transform="translate(-26.029 -1.414)" fill="#a9d7dd"/>
        <path id="Path_182733" data-name="Path 182733" d="M18.867,95.636A51.013,51.013,0,0,1,10.7,92.492q3.86-.865,7.719-1.73,7.4-1.644,14.8-3.276a5.347,5.347,0,0,1,.636-.065,97.793,97.793,0,0,1,11.671-1.31c1.743-.1,3.484-.282,5.233-.28,4.313,0,8.627-.063,12.941,0a135.728,135.728,0,0,1,17.357,1.323c.485.07.967.2,1.457.273,3.79.81,7.583,1.608,11.37,2.435,3.926.857,7.845,1.745,12.061,2.684a65.861,65.861,0,0,1-8.427,3.09c-2.466.554-4.9,1.218-7.391,1.691C84.965,98.3,79.764,99,74.543,99.518a166.058,166.058,0,0,1-22.776.655,168.389,168.389,0,0,1-28.237-3.392c-1.568-.33-3.085-.861-4.664-1.145" transform="translate(-3.26 -26.132)" fill="#f9f7f7"/>
        <path id="Path_182734" data-name="Path 182734" d="M22.442,99.931a28.924,28.924,0,0,1,5.225.953c3.734.675,7.473,1.3,11.232,1.83,4.044.569,8.108.937,12.173,1.227,5.735.408,11.491.328,17.237.22,3.157-.06,6.318-.314,9.461-.637s6.269-.7,9.393-1.16q6.587-.973,13.076-2.428a3.972,3.972,0,0,1,.853-.006,79.636,79.636,0,0,1-9.5,2.764c-.89.221-1.62.558-1.769,1.58l-4.256,1.009c-.577-1.022-1.49-1.022-2.485-.846a121.682,121.682,0,0,1-12.86,1.526,125.236,125.236,0,0,1-20.976-.319,124.138,124.138,0,0,1-26.133-5.424c-.231-.075-.449-.191-.673-.289" transform="translate(-6.835 -30.427)" fill="#efe8e5"/>
        <path id="Path_182735" data-name="Path 182735" d="M92.653,86.876c-1.836-.151-3.685-.211-5.5-.485-1.127-.17-2.266-.207-3.385-.293-4.718-.369-9.446-.577-14.185-.49-3.193.058-6.4-.124-9.581.049-3.465.189-6.934.389-10.393.745a36.247,36.247,0,0,1-5.612.471,73.283,73.283,0,0,1,9.645-1.85,104.762,104.762,0,0,1,19.88-.894,109.343,109.343,0,0,1,18.958,2.631c.064.015.117.076.175.116" transform="translate(-13.399 -25.583)" fill="#efe8e5"/>
        <path id="Path_182736" data-name="Path 182736" d="M112.643,28.885a7.314,7.314,0,0,1-4.833.875,6.686,6.686,0,0,1-5.521-5.035,6.543,6.543,0,0,1,2.134-7.066,6.711,6.711,0,0,1,7.4-1.111c.483.2.886.615,1.09-.356a1.353,1.353,0,0,1,1.613-.94,1.451,1.451,0,0,1,1.351,1.182,4.241,4.241,0,0,1,.092.953c.006,3.677,0,7.354.006,11.032a2.2,2.2,0,0,1-.5,1.692c-.992,1-2.312.441-2.828-1.226" transform="translate(-31.065 -4.641)"/>
        <path id="Path_182737" data-name="Path 182737" d="M95.472,10.086c.464,0,.929-.019,1.392,0a1.566,1.566,0,0,1,1.653,1.581,1.465,1.465,0,0,1-1.527,1.58c-1.44-.165-1.4.594-1.394,1.611q.05,6.8,0,13.6c-.006.741.19.982.949.958,1.3-.04,1.976.541,1.983,1.55.008,1.05-.71,1.631-2.052,1.647-.749.008-1.5.022-2.248,0C93.043,32.571,92.408,32,92.4,30.83q-.034-9.476,0-18.954c0-1.255.6-1.763,1.892-1.793.393-.009.785,0,1.178,0Z" transform="translate(-28.137 -3.069)"/>
        <path id="Path_182738" data-name="Path 182738" d="M141.333,21.369c0,3.038.006,6.075,0,9.112,0,1.567-.565,2.121-2.135,2.135-.786.006-1.574.033-2.358-.011a1.648,1.648,0,0,1-1.675-1.714,1.552,1.552,0,0,1,1.761-1.466c1.015.076,1.222-.287,1.211-1.241-.049-4.645-.038-9.29-.006-13.936,0-.721-.145-.992-.926-.971-1.3.037-2.073-.659-2.03-1.666.04-.966.778-1.517,2.054-1.529.715-.006,1.43-.01,2.144,0,1.383.022,1.949.571,1.956,1.958.014,3.109,0,6.218,0,9.327" transform="translate(-41.164 -3.069)"/>
        <path id="Path_182739" data-name="Path 182739" d="M128.379,9.892a1.615,1.615,0,0,1,1.52,2.1c-.458,1.461-.969,2.908-1.52,4.337a1.565,1.565,0,0,1-2.089.972,1.618,1.618,0,0,1-.889-2.128c.444-1.354.926-2.695,1.4-4.041a1.719,1.719,0,0,1,1.581-1.238" transform="translate(-38.159 -3.013)" fill="#000101"/>
        <path id="Path_182740" data-name="Path 182740" d="M110.442,20.9a3.741,3.741,0,0,1,3.721,3.767,3.815,3.815,0,0,1-3.8,3.725,3.751,3.751,0,0,1-3.69-3.8,3.676,3.676,0,0,1,3.767-3.691" transform="translate(-32.489 -6.365)" fill="#a9d7dd"/>
      </g>
    </g>
  </g>
</svg>
