<svg xmlns="http://www.w3.org/2000/svg" width="1328.359" height="1094" viewBox="0 0 1328.359 1094">
  <g id="bg-3" transform="translate(-136.326 -812)">
    <rect id="Rectángulo_44743" data-name="Rectángulo 44743" width="1328" height="1094" transform="translate(136.326 812)" fill="#3c3fa7"/>
    <g id="Grupo_173953" data-name="Grupo 173953" transform="translate(207.326 1465.86)">
      <path id="Trazado_178656" data-name="Trazado 178656" d="M1485.737,1981.761c-50.505,39.053-91.908,89.736-146.189,123.346-74.556,46.166-165.617,55.543-253.216,59.538s-177.468,4.164-259.475,35.221c-65.54,24.821-125.945,74.847-150.577,138.594H844.528c37.491-58.353,94.111-104.614,160.114-126.22,131.768-43.134,285,6.029,409.141-55.722,87.938-43.743,147.364-137.559,241.514-165.531,68.12-20.237,143.079-1.1,204.068,35.37,26.642,15.933,51.105,34.9,74.275,55.53V1944.979C1793.733,1872.788,1611.066,1884.844,1485.737,1981.761Z" transform="translate(-676.28 -1898.632)" fill="#0d0e41"/>
      <path id="Trazado_178657" data-name="Trazado 178657" d="M1562.963,1944.816c-94.15,27.972-153.576,121.788-241.514,165.531-124.139,61.75-277.374,12.589-409.141,55.722-66,21.607-122.623,67.867-160.114,126.22H1841.306V2035.715c-23.169-20.625-47.633-39.6-74.275-55.53C1706.043,1943.712,1631.083,1924.579,1562.963,1944.816Z" transform="translate(-583.947 -1852.461)" fill="#0d0e41" opacity="0.614"/>
    </g>
    <g id="Grupo_173954" data-name="Grupo 173954" transform="translate(136.326 812)">
      <path id="Trazado_178656-2" data-name="Trazado 178656" d="M1064.99,2352.792c43.831-49.725,79.761-114.254,126.869-157.047,64.7-58.778,143.73-70.718,219.752-75.805s154.014-5.3,225.184-44.845c56.879-31.6,109.3-95.3,130.678-176.461H1621.46c-32.536,74.3-81.673,133.2-138.954,160.707-114.354,54.919-247.337-7.676-355.071,70.946-76.317,55.695-127.888,175.143-209.6,210.758-59.117,25.766-124.17,1.4-177.1-45.034-23.121-20.287-44.352-44.441-64.459-70.7v174.314C797.7,2491.538,956.224,2476.188,1064.99,2352.792Z" transform="translate(-676.28 -1898.633)" fill="#0d0e41"/>
      <path id="Trazado_178657-2" data-name="Trazado 178657" d="M1003.529,2379c85.015-35.614,138.674-155.063,218.08-210.757,112.094-78.623,250.459-16.029,369.441-70.947,59.6-27.511,110.725-86.41,144.578-160.707H752.194v326.676c20.921,26.26,43.011,50.416,67.068,70.7C874.332,2380.409,942.018,2404.77,1003.529,2379Z" transform="translate(-752.194 -1936.592)" fill="#0d0e41" opacity="0.614"/>
    </g>
  </g>
</svg>
