<svg xmlns="http://www.w3.org/2000/svg" xmlns:xlink="http://www.w3.org/1999/xlink" width="399.349" height="358.946" viewBox="0 0 399.349 358.946">
  <defs>
    <clipPath id="clip-path">
      <path id="Rectángulo_44751" data-name="Rectángulo 44751" d="M0,0H399.349a0,0,0,0,1,0,0V241a103,103,0,0,1-103,103H0a0,0,0,0,1,0,0V0A0,0,0,0,1,0,0Z" fill="#3c3fa7"/>
    </clipPath>
  </defs>
  <g id="_2" data-name="2" transform="translate(-391.326 -968)">
    <g id="Grupo_173781" data-name="Grupo 173781" transform="translate(391.326 968)">
      <path id="Rectángulo_44748" data-name="Rectángulo 44748" d="M0,0H399.349a0,0,0,0,1,0,0V241a103,103,0,0,1-103,103H0a0,0,0,0,1,0,0V0A0,0,0,0,1,0,0Z" fill="#a6bbff"/>
      <g id="Enmascarar_grupo_262" data-name="Enmascarar grupo 262" transform="translate(0 0)" clip-path="url(#clip-path)">
        <g id="Grupo_173968" data-name="Grupo 173968" transform="translate(663.99 488.133) rotate(158)">
          <path id="Unión_28" data-name="Unión 28" d="M262.119.157C216.7,2.819,179.355,39.214,149.347,68.451c-5.044,4.919-9.936,9.689-14.7,14.146C96,118.735,57.418,156.161,20.109,192.353l-4.482,4.341C1.9,210.005-3.008,226.821,1.8,244.035c5.237,18.768,21.694,34.639,40.948,39.51,17.534,4.426,34.626-.491,48.08-13.88v.007c27.213-27.058,56.868-55.2,90.017-85.415l-3.944,8.362c-11.141,23.639-22.659,48.074-33.133,72.573-10.52,24.6-20.4,50.914-25.163,76.711-5.259,28.491-4.417,56.391,8.3,81.127,14.8,28.815,36.562,45.4,64.675,49.277,61.2,8.416,137.479-47.13,178.724-86.3-11.141,31.594-18.827,64.711-15.63,99.311,2.723,29.5,16.771,52.009,39.55,63.384,25.872,12.92,59.824,10.04,90.844-7.7,55.9-31.978,100.595-85.985,140.571-139.579,18.04-24.186,7.936-47.856-10.072-60.589-21.776-15.4-55.945-15.786-75.455,10.2q-3.711,4.954-7.566,9.837c11.093-20.337,21.551-40.767,30.875-61.7l3.6-8.056c31.711-70.847,75.133-167.879,34.916-243.285-22.378-41.977-73.9-46.732-113.246-29.751-44.129,19.065-76.362,58.684-104.8,93.643-3.679,4.52-7.318,8.993-10.94,13.373-24.8,29.995-47.735,61.808-69.912,92.566-7.9,10.961-15.8,21.922-23.808,32.836l-2.282,3.115q-3.445,4.708-6.963,9.477c3.831-8.915,7.695-17.534,11.366-25.739,3.872-8.65,7.968-17.394,12.1-26.223,17.268-36.864,35.132-74.993,41.133-114.8,4.6-30.533-2.61-59.309-19.3-76.975C303.268,6.636,286.762,0,267.316,0,265.6,0,263.87.047,262.119.157Z" transform="translate(654.168 575.205) rotate(180)" fill="#7b9aff" stroke="rgba(0,0,0,0)" stroke-miterlimit="10" stroke-width="1"/>
          <path id="Trazado_115699" data-name="Trazado 115699" d="M541.925,284.652c-38.7,38.488-78.691,75.563-119.455,111.974,17.623-38.714,36.627-76.827,53.358-115.947,18.964-44.358,41-104.822,17.1-151.351-54.491-106.056-192.235-2-242.926,51.393-5.406,5.683-10.554,11.624-15.775,17.5,18.1-43.11,34.41-87.406,30.113-133.981C258.421.2,198.019-15.162,146.018,14.59,90.17,46.544,45.326,101.824,7.872,152.03c-31.807,42.641,40.98,83.237,72.539,41.2A559.756,559.756,0,0,1,137.1,128.766q-4.518,8.045-9.124,16.067C107.632,180.158,87.535,215.624,70.957,252.8,39.206,324-7.735,422.553,32.2,497.444c20.129,37.738,67.318,41.572,102.86,26.216,47.767-20.641,80.852-66.21,112.748-104.776,33.293-40.268,62.611-83.026,93.431-125.042,12.883-17.558,25.751-35.365,40.49-51.517.337-.367.7-.711,1.036-1.085l-.37,1.14c-8.185,24.732-18.715,48.465-29.366,72.26-19.832,44.265-45.4,90.864-52.659,139.04-6.426,42.594,11.326,90.333,64.033,87.242,49.543-2.9,89.254-49.293,122.379-80.27C526.9,423.13,566.3,384.861,605.709,346.639,646.85,306.738,582.568,244.236,541.925,284.652Z" transform="translate(8.117 7.826)" fill="#6b8dfc"/>
          <path id="Trazado_115700" data-name="Trazado 115700" d="M367.8,556.687c-19.446,0-35.944-6.628-47.952-19.338-16.691-17.667-23.9-46.443-19.3-76.983,5.992-39.8,23.856-77.928,41.133-114.8,4.128-8.829,8.225-17.565,12.1-26.215,3.671-8.205,7.534-16.824,11.366-25.739-2.345,3.17-4.667,6.339-6.964,9.478L355.9,306.2c-8.008,10.914-15.912,21.883-23.815,32.836-22.169,30.767-45.1,62.58-69.9,92.566q-5.434,6.581-10.94,13.381c-28.442,34.951-60.675,74.571-104.8,93.643-39.35,16.98-90.868,12.218-113.246-29.76-40.217-75.4,3.2-172.43,34.908-243.285l3.607-8.049c9.325-20.93,19.783-41.361,30.868-61.7q-3.843,4.883-7.566,9.829c-19.5,25.989-53.671,25.6-75.446,10.2C1.555,203.13-8.549,179.46,9.491,155.274,49.467,101.68,94.167,47.672,150.055,15.687c31.029-17.737,64.973-20.618,90.852-7.7,22.779,11.375,36.819,33.874,39.55,63.376,3.2,34.6-4.49,67.724-15.638,99.311,41.253-39.16,117.527-94.705,178.724-86.289,28.113,3.88,49.88,20.461,64.683,49.276,24.346,47.388,5.133,106.376-16.868,157.839-10.474,24.49-21.992,48.933-33.133,72.565l-3.944,8.361c33.149-30.2,62.8-58.348,90.017-85.407h0c13.454-13.389,30.546-18.3,48.081-13.873,19.253,4.871,35.711,20.743,40.94,39.51,4.811,17.214-.1,34.022-13.823,47.333l-4.482,4.349C577.7,400.534,539.126,437.952,500.475,474.1c-4.763,4.458-9.655,9.228-14.707,14.146-30,29.237-67.342,65.632-112.764,68.294C371.245,556.64,369.518,556.687,367.8,556.687Zm23.045-315.093a7.739,7.739,0,0,1,3.887,1.015c3.237,1.858,4.956,5.387,3.8,8.861l-.378,1.14c-8.578,25.927-19.767,50.924-29.638,72.971-3.912,8.728-8.049,17.55-12.217,26.457-16.811,35.88-34.193,72.978-39.864,110.592-3.847,25.544,1.992,50.128,15.245,64.157,9.815,10.391,23.382,15.106,40.354,14.169,39.326-2.311,72.82-34.943,102.363-63.743,5.125-5,10.1-9.845,14.94-14.365,38.547-36.044,77.077-73.416,114.339-109.561l4.474-4.348c12.136-11.765,11.96-24,9.671-32.2-3.719-13.318-15.84-25.037-29.486-28.479-8.305-2.108-20.683-2.124-32.538,9.673h0c-35.157,34.951-74.33,71.675-119.768,112.27a8.2,8.2,0,0,1-10.112.593,7.661,7.661,0,0,1-2.667-9.5c6.659-14.638,13.518-29.182,20.37-43.734,11.085-23.507,22.538-47.817,32.908-72.057,20.611-48.2,38.8-103.105,17.333-144.872-12.482-24.287-29.679-37.629-52.571-40.791C384.233,92,303.992,151.737,264.016,193.84c-4.257,4.489-8.362,9.142-12.474,13.787l-3.116,3.529a8.165,8.165,0,0,1-10.273,1.554,7.7,7.7,0,0,1-3.245-9.61c17.253-41.056,33.743-84.954,29.551-130.335-2.249-24.326-12.932-41.923-30.892-50.893-20.956-10.453-49.117-7.729-75.358,7.276C104.849,59.671,61.452,112.211,22.5,164.439c-12.313,16.5-4.707,30.86,6.514,38.792,15.2,10.742,38.94,12.007,53.029-6.769a568.585,568.585,0,0,1,57.494-65.374,8.19,8.19,0,0,1,10.49-.75,7.661,7.661,0,0,1,2.249,9.993q-4.542,8.092-9.173,16.137c-20.6,35.771-40.434,70.894-56.659,107.266l-3.606,8.072C52.415,339.781,10.76,432.878,47.451,501.672c17.823,33.429,60.008,36.692,92.467,22.679,40.506-17.5,70.1-53.883,98.724-89.061q5.554-6.827,11.02-13.474c24.474-29.588,47.245-61.182,69.278-91.739,7.92-10.992,15.847-21.992,23.88-32.945l2.281-3.1c12.088-16.5,24.587-33.554,38.739-49.058l.723-.758A8.882,8.882,0,0,1,390.844,241.594Zm159.2,50.885h0Z" transform="translate(0 0)" fill="#3c3fa7"/>
          <path id="Trazado_115701" data-name="Trazado 115701" d="M33.181,3.972c-29.6,57.8-46.29,125.558-20.3,187.693,3.848,9.181,19.39,5.168,15.494-4.153-24.41-58.34-9.165-121.3,18.675-175.662C51.639,2.879,37.792-5.037,33.181,3.972Z" transform="translate(45.636 296.072)" fill="#3c3fa7"/>
          <path id="Trazado_115702" data-name="Trazado 115702" d="M24.674,42.277c-.136-.016-.265-.055-.394-.078-.225-.429-.434-.882-.506-1.007l-.032-.047c-.016-.062.008-.023-.016-.117-1.036-3.482-1.783-7.018-2.562-10.563Q18.429,18.111,15.71,5.757c-.884-4-5.92-6.7-9.888-5.449A7.962,7.962,0,0,0,.216,9.91L6.385,37.851C8.1,45.611,10.843,55.783,20.4,57.336c4.129.664,8.852-1.054,9.88-5.457C31.164,48.109,29.1,43,24.674,42.277Z" transform="translate(78.536 422.546)" fill="#3c3fa7"/>
          <path id="Trazado_115703" data-name="Trazado 115703" d="M23.572.992c-9.117-4.731-17.245,8.744-8.1,13.482,12.611,6.542,16.45,19.861,16.956,32.937C33,62.268,31.283,77.546,28.8,92.176A291.186,291.186,0,0,1,.921,176.037c-4.594,8.97,9.261,16.886,13.872,7.877A306.384,306.384,0,0,0,45.974,85.15C49.757,57.006,54.287,16.918,23.572.992Z" transform="translate(433.273 130.806)" fill="#3c3fa7"/>
        </g>
        <g id="Grupo_173778" data-name="Grupo 173778" transform="translate(44.97 10.077)">
          <g id="Grupo_173788" data-name="Grupo 173788" transform="translate(0 0)">
            <path id="Trazado_178267" data-name="Trazado 178267" d="M216.251,213.036l25.334,136.2s14.865,25.713,12.454,34.552-18.762,18.481-18.762,18.481l-32.747-44.6L167.4,259.287v-39.02Z" transform="translate(-3.807 7.842)" fill="#f98575"/>
            <path id="Trazado_178268" data-name="Trazado 178268" d="M176.625,125.933l48.663,94L166.222,229.1Z" transform="translate(-3.85 4.635)" fill="#5f8457"/>
            <path id="Trazado_178273" data-name="Trazado 178273" d="M176.95,271.166s58.907,71.482,88.816,191.12,27.916,207.7,27.916,207.7H180.6s-2.967-73.112-15.4-132.93-30.552-103.848-30.552-103.848l-12.18,236.778H9.616s20.711-343.656,40.8-394.973c16.342-41.749,126.534-3.851,126.534-3.851" transform="translate(-9.616 9.402)" fill="#b75542"/>
            <path id="Trazado_178277" data-name="Trazado 178277" d="M276.436,685.276a1.205,1.205,0,0,1-.019-2.411l17.736-.263a1.205,1.205,0,0,1,.037,2.411l-17.736.263Z" transform="translate(0.163 25.131)" fill="#fff"/>
            <path id="Trazado_178279" data-name="Trazado 178279" d="M130.43,102.689s36.882,3.74,50.732,24.128S183.4,287.2,184.608,288.84c8.887,12.022-20.479,11.456-65.261,10.324s-80.79,3.887-75.9-24.7c.526-3.079-1.723-140.86,9.158-153.089s50.834-22.425,77.826-18.686" transform="translate(-8.387 3.751)" fill="#5f8457"/>
            <path id="Trazado_178280" data-name="Trazado 178280" d="M105.112,81.391l.61,27.47s5.129,7.787,21.229,8.736c11.993.707,16.139-2.092,16.139-2.092l-1.978-13.877L139.164,88.1,110,82.359Z" transform="translate(-6.1 2.995)" fill="#ff9583"/>
            <path id="Trazado_178281" data-name="Trazado 178281" d="M109.831,82.326a9.011,9.011,0,0,0,.857,2.632c6.451,13.586,23.322,16.171,30.25,16.637l-1.948-13.53Z" transform="translate(-5.926 3.03)"/>
            <path id="Trazado_178282" data-name="Trazado 178282" d="M144.6,27.687s15.182,34.122,9.923,53.385-22.8,16.353-33.3,12.707-15.413-10.042-15.413-10.042a14.777,14.777,0,0,1-16.378-5.676C82.826,69,86.787,58.52,92.361,56.087s12.249,1.558,12.249,1.558l-5.277-9.911S120.914-2.956,144.6,27.687" transform="translate(-6.804 0.656)" fill="#ff9583"/>
            <path id="Trazado_178283" data-name="Trazado 178283" d="M141.427,69.984a1.332,1.332,0,0,1-.358-.052,1.213,1.213,0,0,1-.8-1.512c1.935-6.247-2.746-13-2.792-13.074a1.2,1.2,0,1,1,1.968-1.384c.221.315,5.41,7.806,3.131,15.174a1.208,1.208,0,0,1-1.154.848" transform="translate(-4.916 1.967)"/>
            <path id="Trazado_178284" data-name="Trazado 178284" d="M102.918,72.262a1.2,1.2,0,0,1-.876-.376l-9.294-9.854A1.206,1.206,0,1,1,94.5,60.373l9.293,9.855a1.2,1.2,0,0,1-.875,2.033" transform="translate(-6.567 2.208)"/>
            <path id="Trazado_178285" data-name="Trazado 178285" d="M93.1,69.4a1.205,1.205,0,0,1-.179-2.4l6.432-.974a1.184,1.184,0,0,1,1.37,1.012,1.2,1.2,0,0,1-1.012,1.37l-6.431.976a1.357,1.357,0,0,1-.179.013" transform="translate(-6.587 2.429)"/>
            <path id="Trazado_178286" data-name="Trazado 178286" d="M126.4,57.4a1.207,1.207,0,0,1-1.2-1.054l-.815-6.375a1.205,1.205,0,0,1,2.392-.3l.815,6.375a1.2,1.2,0,0,1-1.046,1.346c-.052,0-.1.009-.15.009" transform="translate(-5.391 1.789)"/>
            <path id="Trazado_178287" data-name="Trazado 178287" d="M182.932,212.687a1.208,1.208,0,0,1-1.206-1.2V169.16a1.205,1.205,0,0,1,2.411,0v42.323a1.207,1.207,0,0,1-1.2,1.2" transform="translate(-3.279 6.182)" fill="#fff"/>
            <path id="Trazado_178288" data-name="Trazado 178288" d="M144.657,55.93a1.2,1.2,0,0,1-1.191-1.032l-.937-6.36a1.2,1.2,0,0,1,2.383-.348l.937,6.36a1.2,1.2,0,0,1-1.017,1.367,1.242,1.242,0,0,1-.174.013" transform="translate(-4.723 1.735)"/>
            <path id="Trazado_178289" data-name="Trazado 178289" d="M120.929,46.094a1.363,1.363,0,0,1-.358-.052,1.212,1.212,0,0,1-.8-1.512c1.521-4.915,7.387-4.76,7.7-4.751a1.206,1.206,0,0,1-.052,2.411c-.819,0-4.44.137-5.339,3.056a1.214,1.214,0,0,1-1.154.848" transform="translate(-5.562 1.463)"/>
            <path id="Trazado_178290" data-name="Trazado 178290" d="M146.2,42.111a1.216,1.216,0,0,1-.9-.4c-.518-.579-2.223-2.077-3.833-2.077a2.875,2.875,0,0,0-2.185,1.14,1.208,1.208,0,0,1-1.818-1.592,5.233,5.233,0,0,1,3.978-1.96c3.051,0,5.551,2.764,5.655,2.882a1.206,1.206,0,0,1-.9,2.005" transform="translate(-4.92 1.369)"/>
            <path id="Trazado_178291" data-name="Trazado 178291" d="M130.273,117.953a39.6,39.6,0,0,1-25.288-9.087,1.2,1.2,0,1,1,1.516-1.874,37.382,37.382,0,0,0,36.14,6.469,1.226,1.226,0,0,1,1.582.641,1.21,1.21,0,0,1-.641,1.581,37.809,37.809,0,0,1-13.31,2.27" transform="translate(-6.121 3.928)" fill="#fff"/>
            <path id="Trazado_178292" data-name="Trazado 178292" d="M104.827,58.3S102.48,44.292,114,39.889s42.19-10.562,41.853-23.955-21.5-3.749-21.5-3.749,3.3-13.66-9.333-12.053-16.916,12.857-16.916,12.857S97.927,12.5,91.231,18.5s-3.75,18.862-3.75,18.862-8.57,4.855-7.232,12.739a29.133,29.133,0,0,0,6.72,13.583s4.937-11.227,17.858-5.383" transform="translate(-7.021 -0.001)"/>
            <path id="Trazado_178293" data-name="Trazado 178293" d="M70.923,183.93s51.262,64.96,93.232,73.937-7.665,38.277-7.665,38.277S45.36,295.463,32.1,226.914c-8.264-42.737,38.82-42.984,38.82-42.984" transform="translate(-8.824 6.771)" fill="#ff9583"/>
            <path id="Trazado_178294" data-name="Trazado 178294" d="M105.579,102.519s-72.536-.012-83.993,67.891c-8.3,49.169,22.253,95.744,22.253,95.744l68.9-56.393Z" transform="translate(-9.228 3.773)" fill="#5f8457"/>
            <path id="Trazado_178296" data-name="Trazado 178296" d="M52.9,324.907c-.806,0-1.625-.043-2.457-.122a1.206,1.206,0,1,1,.235-2.4c15.109,1.568,25.3-13.424,25.4-13.574a1.205,1.205,0,0,1,2.006,1.336c-.419.631-10,14.761-25.18,14.761" transform="translate(-8.153 11.349)" fill="#ffb255"/>
            <path id="Trazado_178298" data-name="Trazado 178298" d="M93.979,196.08a1.2,1.2,0,0,1-.975-.5c-2.058-2.829-12.213-17.232-9.948-22.528a3.425,3.425,0,0,1,2.885-2.072,4.8,4.8,0,0,1,3.861,1.2c5.212,4.538,5.381,20.843,5.381,22.689a1.2,1.2,0,0,1-.833,1.144,1.138,1.138,0,0,1-.372.061m-7.363-22.735a2.194,2.194,0,0,0-.344.028c-.682.089-.89.367-1,.626-1.074,2.5,3.139,10.439,7.358,16.809-.367-5.816-1.506-14.271-4.412-16.8a2.386,2.386,0,0,0-1.605-.659" transform="translate(-6.924 6.292)" fill="#fff"/>
            <path id="Trazado_178299" data-name="Trazado 178299" d="M142.087,78.535a1.2,1.2,0,0,1-.649-.189c-4.256-2.731-5.858-1.54-5.872-1.525a1.177,1.177,0,0,1-1.681-.019,1.23,1.23,0,0,1,.019-1.728c.273-.273,2.857-2.58,8.833,1.239a1.206,1.206,0,0,1-.65,2.222" transform="translate(-5.053 2.728)"/>
            <path id="Trazado_178300" data-name="Trazado 178300" d="M219.24,293.49s17.778,12.066,7.408,17.722S179.886,303.124,181.581,291s37.659,2.488,37.659,2.488" transform="translate(-3.287 10.536)" fill="#ff9583"/>
            <path id="Trazado_178301" data-name="Trazado 178301" d="M225.146,277.393s17.778,12.066,7.408,17.722-46.763-8.087-45.067-20.211,37.659,2.488,37.659,2.488" transform="translate(-3.069 9.943)" fill="#ff9583"/>
            <path id="Trazado_178302" data-name="Trazado 178302" d="M220.615,259.024a27.269,27.269,0,0,1,13.27,5.771c3.307,2.772,5.591,6.357,1.5,9.605-8.19,6.5-42,0-42.345-10.828-.258-8.008,18.036-6.089,27.579-4.547" transform="translate(-2.863 9.485)" fill="#ff9583"/>
            <path id="Trazado_178303" data-name="Trazado 178303" d="M221.023,277.618a1.176,1.176,0,0,1-.315-.043l-22.562-6.111a1.2,1.2,0,1,1,.631-2.326l22.561,6.111a1.2,1.2,0,0,1-.315,2.368" transform="translate(-2.707 9.906)"/>
            <path id="Trazado_178304" data-name="Trazado 178304" d="M215.286,294.186a1.228,1.228,0,0,1-.382-.061l-20.452-6.808a1.207,1.207,0,1,1,.763-2.289l20.452,6.809a1.206,1.206,0,0,1-.382,2.349" transform="translate(-2.841 10.491)"/>
            <path id="Trazado_178305" data-name="Trazado 178305" d="M92.074,226.653,72.622,253.816c-9.455,13.2-5.39,37.711,10.029,42.8,21.987,7.257,51.994,15.343,76.335,15.257l25.372-.09c11-.038,22.542-13.454,25.229-24.121l3.64-14.457a24.075,24.075,0,0,0-15.582-28.667l-78.232-26.657a24.073,24.073,0,0,0-27.338,8.771" transform="translate(-7.482 7.973)" fill="#e0dfe5"/>
            <path id="Trazado_178306" data-name="Trazado 178306" d="M241.58,381.679c-6.775-.424-9.4-13.729-9.944-16.959l-3.884-2.518c-4.7-3.051-5.631-13.046-5.72-14.176a1.2,1.2,0,0,1,1.106-1.3,1.25,1.25,0,0,1,1.295,1.106c.221,2.74,1.483,10.3,4.628,12.34l4.336,2.811a1.2,1.2,0,0,1,.537.834c.588,3.917,3.276,15.17,7.721,15.453a1.2,1.2,0,0,1-.076,2.405" transform="translate(-1.795 12.764)"/>
            <path id="Trazado_178307" data-name="Trazado 178307" d="M131.939,310.84a1.2,1.2,0,0,1-.881-.382c-29.567-31.644-19.313-93.213-19.2-93.834a1.157,1.157,0,0,1,1.393-.98,1.2,1.2,0,0,1,.979,1.393c-.1.6-10.155,61.009,18.593,91.773a1.2,1.2,0,0,1-.88,2.029" transform="translate(-5.918 7.937)" fill="#bdb2c2"/>
            <path id="Trazado_178308" data-name="Trazado 178308" d="M104.193,303.762a1.2,1.2,0,0,1-.7-.225c-26.709-19.144-21-65.166-20.75-67.115a1.224,1.224,0,0,1,1.352-1.041,1.211,1.211,0,0,1,1.04,1.352c-.061.466-5.768,46.548,19.761,64.846a1.2,1.2,0,0,1-.7,2.184" transform="translate(-6.949 8.665)" fill="#bdb2c2"/>
            <path id="Trazado_178309" data-name="Trazado 178309" d="M119.616,291.7a1.206,1.206,0,0,1-.217-2.392c29.139-5.353,27.078-60.919,27.054-61.479a1.206,1.206,0,0,1,1.153-1.257,1.229,1.229,0,0,1,1.258,1.153c.1,2.373,2.151,58.227-29.031,63.956a1.1,1.1,0,0,1-.217.019" transform="translate(-5.61 8.341)" fill="#bdb2c2"/>
            <path id="Trazado_178310" data-name="Trazado 178310" d="M146.708,312.45a1.205,1.205,0,0,1-.545-2.279c28.568-14.571,20.927-74.549,20.847-75.152a1.207,1.207,0,1,1,2.392-.32c.339,2.538,7.938,62.275-22.147,77.619a1.188,1.188,0,0,1-.546.132" transform="translate(-4.613 8.602)" fill="#bdb2c2"/>
            <path id="Trazado_178311" data-name="Trazado 178311" d="M180.252,312.109a1.207,1.207,0,0,1-.975-1.912C200,281.671,186.735,242.47,186.6,242.08a1.211,1.211,0,0,1,.744-1.535,1.223,1.223,0,0,1,1.534.744c.142.4,13.824,40.769-7.651,70.322a1.2,1.2,0,0,1-.975.5" transform="translate(-3.378 8.853)" fill="#bdb2c2"/>
          </g>
        </g>
      </g>
    </g>
    <g id="Grupo_173798" data-name="Grupo 173798" transform="translate(512.264 1285.273)">
      <rect id="Rectángulo_44603" data-name="Rectángulo 44603" width="155.886" height="41.673" rx="20.836" transform="translate(0 0)" fill="#3c3fa7"/>
    </g>
    <path id="Trazado_178659" data-name="Trazado 178659" d="M-22.734-6.754a2.429,2.429,0,0,1,.078-.666q.078-.269.184-.616a8.728,8.728,0,0,0,.205-.85,9.931,9.931,0,0,0,.142-1.366q.042-.878.071-1.975T-22-14.465q.028-1.14.057-2.237t.085-1.975l.085-1.572a2.207,2.207,0,0,1,.092-.446,1.959,1.959,0,0,1,.227-.5,1.714,1.714,0,0,1,.354-.4.722.722,0,0,1,.474-.17,1.144,1.144,0,0,1,.545.149,2.115,2.115,0,0,1,.5.368,1.83,1.83,0,0,1,.354.5.96.96,0,0,1,.106.531q-.014.1-.028.566t-.028,1.168q-.014.7-.035,1.558t-.035,1.756q-.014.9-.028,1.763t-.014,1.565v1.182q0,.481.014.609a.649.649,0,0,0,.156.418.437.437,0,0,0,.312.12,1.1,1.1,0,0,0,.531-.163,3.648,3.648,0,0,0,.517-.347q.524-.425,1.069-.906t1.034-.9a9,9,0,0,1,.9-.687,1.335,1.335,0,0,1,.666-.269,1.458,1.458,0,0,1,1.048.34,1.291,1.291,0,0,1,.354.977.968.968,0,0,1-.1.439,1.737,1.737,0,0,1-.248.368,3.111,3.111,0,0,1-.333.326q-.184.156-.34.312-.3.3-.864.779t-1.232,1.02q-.666.538-1.338,1.09t-1.182.991a1.144,1.144,0,0,0-.319.425.948.948,0,0,0-.078.425.706.706,0,0,0,.12.354.614.614,0,0,0,.276.227q.354.142.835.319t1.012.368q.531.191,1.076.382t1.005.368q.46.177.8.333a3.362,3.362,0,0,1,.481.255,1.689,1.689,0,0,1,.333.347,4.522,4.522,0,0,1,.333.51,4.4,4.4,0,0,1,.262.545,1.306,1.306,0,0,1,.106.467.894.894,0,0,1-.156.573.679.679,0,0,1-.552.191,2.865,2.865,0,0,1-.616-.12q-.446-.12-1.041-.312t-1.26-.432q-.666-.241-1.26-.46t-1.062-.411q-.467-.191-.651-.29a.754.754,0,0,0-.34-.085.572.572,0,0,0-.361.127.525.525,0,0,0-.177.411q-.014.34-.064.864A5.789,5.789,0,0,1-19.817.262a2.62,2.62,0,0,1-.4.857.828.828,0,0,1-.7.354.791.791,0,0,1-.524-.177A1.452,1.452,0,0,1-21.8.85a3.174,3.174,0,0,1-.234-.581q-.092-.312-.149-.566a3.858,3.858,0,0,1-.092-.835q-.007-.481.014-.991t.05-1.005q.028-.5.028-.85a3.056,3.056,0,0,0-.085-.729q-.085-.347-.191-.687t-.191-.673A2.765,2.765,0,0,1-22.734-6.754ZM-3.08-8.779a4.584,4.584,0,0,1-.227,1.458,5.25,5.25,0,0,1-.6,1.246,5.356,5.356,0,0,1-.857,1.005,7.161,7.161,0,0,1-.97.75,5.238,5.238,0,0,1-.956.489,2.671,2.671,0,0,1-.821.191.676.676,0,0,0-.5.163.5.5,0,0,0-.127.333.872.872,0,0,0,.085.368,2.747,2.747,0,0,0,.156.3,1.663,1.663,0,0,0,.588.538,2.5,2.5,0,0,0,1.182.212,6.737,6.737,0,0,0,.956-.085,5.4,5.4,0,0,0,1.246-.361,6.959,6.959,0,0,0,1.409-.807,6.986,6.986,0,0,0,1.43-1.437.563.563,0,0,1,.212-.17.656.656,0,0,1,.3-.071.661.661,0,0,1,.51.319,2.107,2.107,0,0,1,.241,1.2A2.119,2.119,0,0,1-.106-2.089a3.633,3.633,0,0,1-.772.935,6.235,6.235,0,0,1-1.133.786,8.574,8.574,0,0,1-1.374.6,9.989,9.989,0,0,1-1.5.382A8.774,8.774,0,0,1-6.393.75a5.942,5.942,0,0,1-2.244-.4A4.491,4.491,0,0,1-10.323-.821,5.232,5.232,0,0,1-11.378-2.69,7.908,7.908,0,0,1-11.746-5.2,11.056,11.056,0,0,1-11.6-6.946a10.736,10.736,0,0,1,.425-1.728,8.691,8.691,0,0,1,.708-1.579,5.8,5.8,0,0,1,1-1.289,4.436,4.436,0,0,1,1.3-.871,3.886,3.886,0,0,1,1.586-.319,3.356,3.356,0,0,1,1.678.382,3.226,3.226,0,0,1,1.076.963A3.9,3.9,0,0,1-3.257-10.1,5.416,5.416,0,0,1-3.08-8.779ZM-8.659-6.386q0,.057.007.156a.47.47,0,0,0,.057.191.425.425,0,0,0,.149.156.524.524,0,0,0,.283.064,1.569,1.569,0,0,0,.913-.361,4.436,4.436,0,0,0,.892-.892,5.654,5.654,0,0,0,.673-1.14A2.744,2.744,0,0,0-5.416-9.3a1.865,1.865,0,0,0-.042-.375,1.709,1.709,0,0,0-.135-.4.887.887,0,0,0-.255-.319.658.658,0,0,0-.418-.127,1.2,1.2,0,0,0-.779.4A4.456,4.456,0,0,0-7.823-9.1a7.255,7.255,0,0,0-.595,1.345A4.371,4.371,0,0,0-8.659-6.386Zm7.066-4.744v-.028a.376.376,0,0,1,.113-.262,1.215,1.215,0,0,1,.269-.212,1.688,1.688,0,0,1,.326-.149.96.96,0,0,1,.3-.057,1.146,1.146,0,0,1,.644.191,2.885,2.885,0,0,1,.517.432,2.589,2.589,0,0,1,.5.92q.241.666.467,1.508t.446,1.763Q2.2-6.1,2.4-5.345A12.029,12.029,0,0,0,2.79-4.092q.191.5.347.5t.326-.4a9.737,9.737,0,0,0,.4-1.048q.212-.651.446-1.487t.481-1.706Q5.034-9.1,5.3-9.94t.517-1.487a6.044,6.044,0,0,1,.51-1.048q.255-.4.481-.4a1.628,1.628,0,0,1,1.055.326,1.362,1.362,0,0,1,.4,1.119q-.085.368-.248,1.083t-.4,1.628Q7.37-7.8,7.073-6.754T6.429-4.666q-.347,1.041-.743,2A13.817,13.817,0,0,1,4.857-.977,5.376,5.376,0,0,1,3.965.2a1.357,1.357,0,0,1-.927.439,1.272,1.272,0,0,1-.864-.4A4.818,4.818,0,0,1,1.352-.821,11.071,11.071,0,0,1,.6-2.372Q.248-3.257-.057-4.234T-.623-6.216q-.262-1.005-.46-1.933t-.326-1.7Q-1.536-10.62-1.593-11.13Zm10.8,7.08q0-.5-.021-1.317T9.176-7.123q.007-.935.071-1.89a14.163,14.163,0,0,1,.212-1.728A4.183,4.183,0,0,1,9.884-12a.815.815,0,0,1,.715-.489,1.8,1.8,0,0,1,.843.163,1.041,1.041,0,0,1,.432.743,6.43,6.43,0,0,1,.092.715Q12-10.436,12-9.827q0,.326.014,1.1t.021,1.77q.007.991.014,2.074t-.007,2.046q-.014.963-.057,1.671a4.835,4.835,0,0,1-.113.935.456.456,0,0,1-.227.262A1.676,1.676,0,0,1,11.3.177a1.86,1.86,0,0,1-.34.064Q10.8.255,10.74.255a.851.851,0,0,1-.666-.333A2.7,2.7,0,0,1,9.6-1a7.507,7.507,0,0,1-.29-1.374A13.429,13.429,0,0,1,9.211-4.05Zm.283-14.061a2.723,2.723,0,0,1,.106-.772,1.845,1.845,0,0,1,.319-.63,1.43,1.43,0,0,1,.538-.418,1.79,1.79,0,0,1,.75-.149,2.082,2.082,0,0,1,.588.085,1.352,1.352,0,0,1,.517.283,1.478,1.478,0,0,1,.368.51,1.883,1.883,0,0,1,.142.779,2.165,2.165,0,0,1-.156.85,1.682,1.682,0,0,1-.425.609,1.8,1.8,0,0,1-.616.361,2.167,2.167,0,0,1-.715.12,1.446,1.446,0,0,1-.715-.156,1.237,1.237,0,0,1-.432-.389,1.426,1.426,0,0,1-.212-.524A2.92,2.92,0,0,1,9.494-18.111Zm3.979,8.666a2.287,2.287,0,0,1,.113-.644,2.956,2.956,0,0,1,.326-.715,2.2,2.2,0,0,1,.524-.581,1.127,1.127,0,0,1,.708-.241,1.117,1.117,0,0,1,.588.135.845.845,0,0,1,.333.389,1.9,1.9,0,0,1,.142.623q.028.368.028.821,0,.864.269.864.142,0,.283-.212l.595-.892a6.6,6.6,0,0,1,.793-.97,4.537,4.537,0,0,1,1.041-.786,2.743,2.743,0,0,1,1.352-.326,2.017,2.017,0,0,1,1.232.347,2.162,2.162,0,0,1,.715.991,5.249,5.249,0,0,1,.3,1.551,14.549,14.549,0,0,1-.028,2.011q-.071.949-.085,2.421t.113,3.625a1.717,1.717,0,0,1-.021.4,1.354,1.354,0,0,1-.135.411,1.085,1.085,0,0,1-.255.326.585.585,0,0,1-.4.135,1.612,1.612,0,0,1-1.168-.4,2.534,2.534,0,0,1-.623-.963,4.383,4.383,0,0,1-.255-1.147q-.05-.588-.05-.942,0-.623.05-1.119t.1-.963q.05-.467.1-.927a9.354,9.354,0,0,0,.05-1,6.51,6.51,0,0,0-.035-.758,1.935,1.935,0,0,0-.1-.453.488.488,0,0,0-.142-.219.256.256,0,0,0-.149-.057.963.963,0,0,0-.559.326,7.3,7.3,0,0,0-.743.835q-.4.51-.807,1.126t-.75,1.182a3.28,3.28,0,0,0-.248.566q-.092.283-.12.411a4.664,4.664,0,0,0-.042.7v.913q0,.481-.021.97a4.859,4.859,0,0,1-.113.885,1.892,1.892,0,0,1-.262.644A.55.55,0,0,1,15.64.1h-.283a1.31,1.31,0,0,1-.425-.078,2.183,2.183,0,0,1-.425-.2,2.088,2.088,0,0,1-.361-.276,1.034,1.034,0,0,1-.234-.312,4.181,4.181,0,0,1-.234-.942q-.092-.6-.149-1.352t-.071-1.586q-.014-.835-.014-1.628,0-.991.014-1.834T13.473-9.445Z" transform="translate(589.999 1316.038)" fill="#ffd947"/>
  </g>
</svg>
