<svg xmlns="http://www.w3.org/2000/svg" xmlns:xlink="http://www.w3.org/1999/xlink" width="397" height="358.672" viewBox="0 0 397 358.672">
  <defs>
    <clipPath id="clip-path">
      <path id="Rectángulo_44754" data-name="Rectángulo 44754" d="M103,0H397a0,0,0,0,1,0,0V338a0,0,0,0,1,0,0H0a0,0,0,0,1,0,0V103A103,103,0,0,1,103,0Z" transform="translate(-104.781)" fill="#3c3fa7"/>
    </clipPath>
    <clipPath id="clip-path-2">
      <path id="Rectángulo_44754-2" data-name="Rectángulo 44754" d="M103,0H292a0,0,0,0,1,0,0V338a0,0,0,0,1,0,0H0a0,0,0,0,1,0,0V103A103,103,0,0,1,103,0Z" transform="translate(0.219)" fill="#3c3fa7"/>
    </clipPath>
  </defs>
  <g id="_3" data-name="3" transform="translate(-810.326 -1342)">
    <g id="Grupo_173789" data-name="Grupo 173789" transform="translate(109.78 416)">
      <path id="Trazado_178342" data-name="Trazado 178342" d="M103,0H397V338H0V103A103,103,0,0,1,103,0Z" transform="translate(700.545 926)" fill="#ffe891"/>
      <g id="Grupo_173785" data-name="Grupo 173785" transform="translate(805.326 926)">
        <g id="Enmascarar_grupo_263" data-name="Enmascarar grupo 263" transform="translate(0 0)" clip-path="url(#clip-path)">
          <g id="Grupo_173969" data-name="Grupo 173969" transform="translate(663.083 399.086) rotate(150)">
            <g id="Grupo_162315" data-name="Grupo 162315" transform="translate(21.455 19.734)" style="mix-blend-mode: overlay;isolation: isolate">
              <path id="Trazado_143614" data-name="Trazado 143614" d="M633.49,309.035c-46.581,44.213-94.643,86.877-143.583,128.828,21.813-43.89,45.223-87.126,66-131.446C579.456,256.172,607.087,187.791,580.3,136.3c-61.047-117.357-225.913,3.107-287.013,64.348-6.506,6.529-12.736,13.331-19.04,20.056,22.513-48.821,42.936-98.921,39.2-151C308.3-1.909,237.73-17.452,175.76,17.347,109.215,54.7,54.926,117.908,9.485,175.219c-38.6,48.676,45.8,92.155,84.091,44.169a685,685,0,0,1,68.476-73.824q-5.539,9.142-11.19,18.253c-24.917,40.159-49.546,80.469-70.088,122.606C41.443,367.1-16.538,478.869,28.284,561.691c22.591,41.739,77.963,44.724,120.168,26.526,56.735-24.462,96.918-76.455,135.5-120.566,40.277-46.057,75.961-94.8,113.381-142.745,15.633-20.036,31.263-40.353,49.056-58.857.407-.429.833-.824,1.239-1.245l-.466,1.279c-10.322,27.948-23.364,54.84-36.568,81.806-24.557,50.172-55.941,103.112-65.841,157.3-8.751,47.919,10.752,100.932,72.8,96,58.329-4.631,106.324-57.727,146.14-93.367,48.216-43.167,95.612-87.145,143.017-131.08C756.212,330.875,682.421,262.607,633.49,309.035Z" transform="translate(9.941 9.241)" fill="#3c384f"/>
              <path id="Trazado_143615" data-name="Trazado 143615" d="M421.32,618.99c-22.858.54-42.073-6.439-55.828-20.351-19.119-19.338-26.782-51.39-20.507-85.74,8.181-44.783,30.261-88.015,51.605-129.812,5.113-10.011,10.176-19.925,14.972-29.728,4.548-9.3,9.333-19.066,14.09-29.165q-4.271,5.44-8.455,10.816l-2.77,3.555c-9.723,12.455-19.324,24.959-28.916,37.464-26.941,35.091-54.8,71.384-84.805,105.691-4.382,5.009-8.786,10.124-13.239,15.293-34.424,39.973-73.437,85.274-125.851,107.867-46.727,20.124-107.161,16.226-132.276-30.2C-15.8,491.28,38,381.319,77.281,301.032l4.458-9.13c11.555-23.718,24.428-46.907,38.043-70.009q-4.671,5.58-9.173,11.235C86.939,262.789,46.784,263.3,21.624,246.65.817,232.879-10.39,206.629,11.5,179.021,60.012,117.842,114.087,56.067,180.7,18.674c36.967-20.75,76.959-24.922,107-11.159,26.454,12.116,42.33,36.952,44.695,69.943,2.777,38.692-7.2,76.023-21.189,111.744C360.8,144.158,452.046,79.783,523.744,87.516c32.936,3.568,58.044,21.549,74.628,53.434,27.284,52.437,3.027,119.095-24.3,177.377-13.007,27.749-27.239,55.456-41,82.261l-4.873,9.481c39.823-34.783,75.479-67.151,108.235-98.234v.009c16.194-15.38,36.426-21.367,56.911-16.893,22.494,4.925,41.391,22.257,47.015,43.147,5.158,19.161-1.088,38.144-17.6,53.445l-5.391,4.99c-44.883,41.6-91.293,84.621-137.751,126.2-5.725,5.128-11.611,10.611-17.68,16.263-36.1,33.6-81.029,75.432-134.5,79.677C425.372,618.842,423.331,618.943,421.32,618.99Zm36.02-353.8a9.16,9.16,0,0,1,4.541,1.021c3.743,1.993,5.663,5.909,4.205,9.826l-.476,1.288c-10.819,29.306-24.68,57.626-36.909,82.61-4.846,9.9-9.958,19.9-15.111,29.993C392.822,430.609,371.339,472.672,363.606,515c-5.247,28.737.921,56.129,16.093,71.476,11.253,11.382,27.057,16.282,47.034,14.761,46.292-3.682,86.59-41.187,122.142-74.287,6.165-5.734,12.147-11.306,17.959-16.515C613.167,468.962,659.519,426,704.344,384.457l5.382-4.989c14.609-13.533,14.74-27.239,12.29-36.354-3.994-14.833-17.919-27.621-33.853-31.11-9.713-2.132-24.262-1.805-38.532,11.745v.009c-42.317,40.15-89.406,82.4-143.969,129.152a10.09,10.09,0,0,1-11.9.946,8.1,8.1,0,0,1-2.865-10.575c8.242-16.591,16.718-33.083,25.193-49.575,13.687-26.663,27.849-54.229,40.716-81.686,25.6-54.6,48.526-116.639,24.482-162.848-13.975-26.884-33.811-41.36-60.64-44.259-66.842-7.218-162.85,61.966-211.035,110.274-5.141,5.141-10.1,10.47-15.063,15.8l-3.754,4.033a10.141,10.141,0,0,1-12.13,2.027,8.117,8.117,0,0,1-3.533-10.673c21.435-46.5,42.063-96.155,38.422-146.912-1.955-27.194-14.013-46.62-34.871-56.175-24.328-11.143-57.517-7.307-88.789,10.239C126.313,69.228,73.8,129.312,26.528,188.932c-14.933,18.84-6.408,34.729,6.558,43.307,17.56,11.609,45.433,12.368,62.526-9.068a698.406,698.406,0,0,1,69.437-74.87,10.094,10.094,0,0,1,12.362-1.131,8.146,8.146,0,0,1,2.36,11.146q-5.568,9.182-11.249,18.332c-25.223,40.665-49.539,80.582-69.633,121.8L94.421,307.6C56.728,384.628,5.124,490.129,46.3,566.225c20,36.964,69.5,39.45,108.051,22.842,48.111-20.734,83.935-62.331,118.573-102.562,4.481-5.2,8.924-10.355,13.345-15.4,29.6-33.851,57.262-69.895,84.027-104.755q14.432-18.81,29-37.58l2.77-3.546c14.677-18.825,29.852-38.282,46.938-56.061l.862-.869A11.25,11.25,0,0,1,457.34,265.189Zm185.694,52.6.085,0Z" transform="translate(0.407 0.484)" fill="#3c384f"/>
              <path id="Trazado_143616" data-name="Trazado 143616" d="M42.23,4.527C5.808,70.134-15.742,146.548,13.06,215.46c4.253,10.192,22.636,5.254,18.321-5.085-27.03-64.7-7.326-135.7,26.931-197.4C63.968,2.8,47.905-5.7,42.23,4.527Z" transform="translate(47.066 335.314)" fill="#3c384f"/>
              <path id="Trazado_143617" data-name="Trazado 143617" d="M28.016,46.9c-.16-.014-.31-.054-.46-.076-.253-.466-.475-.977-.557-1.115l-.046-.051c-.017-.069.01-.018-.016-.122-1.119-3.883-1.888-7.817-2.712-11.776Q21.375,19.99,18.515,6.219C17.589,1.763,11.746-1.124,7.056.386,1.918,2.037-.809,6.527.184,11.3q3.23,15.572,6.469,31.154C8.444,51.1,11.375,62.424,22.566,63.9,27.4,64.538,33,62.473,34.335,57.51,35.48,53.259,33.208,47.585,28.016,46.9Z" transform="translate(85.284 476.949)" fill="#3c384f"/>
              <path id="Trazado_143618" data-name="Trazado 143618" d="M32.38.952C21.8-4.1,11.87,11.231,22.471,16.288c14.638,6.982,18.783,21.8,19,36.454.259,16.635-2.195,33.8-5.527,50.265A330.878,330.878,0,0,1,.793,197.775c-5.646,10.181,10.408,18.669,16.083,8.444,19.586-35.3,33.028-72.8,39.453-111.563C61.572,63.015,68.034,17.958,32.38.952Z" transform="translate(506.053 139.818)" fill="#3c384f"/>
            </g>
            <g id="Grupo_162318" data-name="Grupo 162318" transform="translate(-0.407 -0.484)">
              <g id="Grupo_162317" data-name="Grupo 162317" transform="translate(0)">
                <g id="Grupo_162316" data-name="Grupo 162316">
                  <path id="Trazado_143619" data-name="Trazado 143619" d="M633.5,309.038c-46.581,44.212-94.643,86.877-143.592,128.82,21.813-43.881,45.232-87.127,66.008-131.438,23.55-50.245,51.172-118.626,24.392-170.112-61.047-117.357-225.913,3.1-287.014,64.348-6.515,6.52-12.736,13.322-19.04,20.056,22.5-48.821,42.926-98.921,39.2-151-5.143-71.613-75.71-87.155-137.679-52.365C109.215,54.706,54.934,117.91,9.484,175.222c-38.6,48.676,45.813,92.156,84.1,44.169a685.865,685.865,0,0,1,68.467-73.832q-5.539,9.143-11.181,18.261c-24.917,40.159-49.546,80.469-70.088,122.6C41.442,367.1-16.529,478.863,28.292,561.694c22.591,41.739,77.953,44.725,120.168,26.526,56.735-24.462,96.918-76.455,135.5-120.566,40.277-46.057,75.952-94.8,113.371-142.745,15.643-20.037,31.273-40.353,49.056-58.866.407-.421.842-.816,1.249-1.245l-.467,1.288c-10.322,27.948-23.373,54.84-36.568,81.806-24.566,50.164-55.941,103.1-65.841,157.3-8.761,47.919,10.752,100.933,72.8,96,58.319-4.631,106.314-57.727,146.13-93.367,48.225-43.167,95.622-87.154,143.027-131.088C756.211,330.878,682.42,262.61,633.5,309.038Z" transform="translate(9.933 9.239)" fill="#ffd947"/>
                  <path id="Trazado_143620" data-name="Trazado 143620" d="M421.311,618.982c-22.859.54-42.064-6.431-55.819-20.342-19.119-19.338-26.782-51.39-20.507-85.748,8.172-44.774,30.251-88.006,51.605-129.812,5.1-10.011,10.166-19.916,14.972-29.719,4.547-9.3,9.333-19.066,14.09-29.165-2.847,3.618-5.665,7.235-8.455,10.816l-2.769,3.546c-9.723,12.455-19.324,24.968-28.926,37.464-26.932,35.1-54.79,71.393-84.8,105.691q-6.574,7.527-13.239,15.3c-34.424,39.964-73.437,85.265-125.851,107.867C114.881,625.006,54.456,621.1,29.341,574.671-15.8,491.28,38,381.319,77.271,301.024l4.467-9.122c11.555-23.718,24.428-46.907,38.034-70.009q-4.656,5.58-9.173,11.227C86.938,262.79,46.784,263.3,21.624,246.651.817,232.879-10.39,206.63,11.5,179.021,60.012,117.842,114.087,56.068,180.689,18.667,217.666-2.075,257.648-6.247,287.7,7.516,314.158,19.632,330.024,44.46,332.4,77.451c2.777,38.692-7.2,76.031-21.2,111.744C360.8,144.159,452.037,79.784,523.735,87.517c32.936,3.568,58.054,21.549,74.638,53.434,27.275,52.437,3.018,119.086-24.3,177.378-13.006,27.74-27.239,55.456-41,82.252l-4.873,9.481c39.822-34.775,75.479-67.142,108.235-98.226h0c16.195-15.38,36.426-21.358,56.912-16.884,22.494,4.925,41.39,22.257,47,43.147,5.167,19.16-1.078,38.135-17.591,53.436l-5.392,5c-44.883,41.6-91.292,84.612-137.751,126.2-5.726,5.128-11.611,10.61-17.689,16.263-36.094,33.6-81.02,75.432-134.489,79.677C425.363,618.834,423.332,618.934,421.311,618.982Zm36.02-353.8a9.141,9.141,0,0,1,4.541,1.03c3.752,1.992,5.673,5.9,4.215,9.826l-.476,1.288c-10.819,29.3-24.68,57.625-36.909,82.61-4.845,9.891-9.958,19.894-15.111,29.993-20.779,40.682-42.262,82.745-49.994,125.061-5.247,28.737.921,56.129,16.1,71.485,11.243,11.374,27.057,16.282,47.034,14.76,46.292-3.682,86.59-41.187,122.133-74.287,6.166-5.742,12.157-11.314,17.969-16.515,46.333-41.469,92.684-84.426,137.509-125.973l5.383-5c14.6-13.524,14.739-27.23,12.28-36.354-3.994-14.824-17.91-27.622-33.854-31.1-9.7-2.132-24.252-1.806-38.523,11.745h0c-42.317,40.15-89.406,82.4-143.969,129.161a10.091,10.091,0,0,1-11.9.946,8.1,8.1,0,0,1-2.865-10.575c8.242-16.591,16.717-33.083,25.184-49.584,13.7-26.654,27.849-54.22,40.726-81.677,25.594-54.6,48.526-116.639,24.482-162.856-13.984-26.875-33.821-41.351-60.64-44.259C453.8,97.7,357.784,166.879,309.6,215.179c-5.132,5.149-10.088,10.478-15.054,15.8l-3.764,4.042a10.125,10.125,0,0,1-12.12,2.027,8.127,8.127,0,0,1-3.542-10.681c21.445-46.5,42.073-96.155,38.43-146.9-1.954-27.2-14.013-46.629-34.87-56.184-24.337-11.134-57.518-7.3-88.789,10.248C126.3,69.22,73.8,129.313,26.528,188.933c-14.942,18.84-6.408,34.72,6.558,43.3,17.559,11.618,45.433,12.376,62.526-9.059a696.67,696.67,0,0,1,69.437-74.87,10.081,10.081,0,0,1,12.352-1.131,8.129,8.129,0,0,1,2.36,11.138q-5.569,9.2-11.24,18.341c-25.232,40.665-49.539,80.582-69.643,121.8L94.411,307.6C56.728,384.628,5.124,490.13,46.3,566.216c20,36.973,69.5,39.459,108.051,22.851,48.111-20.734,83.935-62.34,118.573-102.562q6.723-7.806,13.336-15.409c29.608-33.843,57.271-69.886,84.036-104.746,9.621-12.54,19.252-25.089,29-37.588l2.769-3.537c14.677-18.825,29.852-38.29,46.928-56.061l.871-.869A11.237,11.237,0,0,1,457.331,265.181Zm185.694,52.612.094,0Z" transform="translate(0.407 0.484)" fill="#deba2c"/>
                </g>
                <path id="Trazado_143621" data-name="Trazado 143621" d="M42.235,4.529C5.8,70.136-15.737,146.541,13.055,215.461c4.262,10.183,22.646,5.254,18.331-5.085-27.04-64.711-7.335-135.7,26.931-197.4C63.963,2.791,47.91-5.7,42.235,4.529Z" transform="translate(47.061 335.313)" fill="#deba2c"/>
                <path id="Trazado_143622" data-name="Trazado 143622" d="M28.016,46.9c-.16-.014-.31-.054-.46-.076-.252-.475-.485-.977-.566-1.115l-.036-.052c-.017-.07.01-.026-.016-.131-1.119-3.874-1.9-7.817-2.712-11.768Q21.361,19.99,18.515,6.219C17.589,1.763,11.746-1.124,7.046.386,1.919,2.028-.809,6.527.184,11.3L6.643,42.449c1.8,8.65,4.732,19.975,15.923,21.451C27.4,64.529,33,62.473,34.335,57.51,35.48,53.259,33.2,47.585,28.016,46.9Z" transform="translate(85.284 476.949)" fill="#deba2c"/>
                <path id="Trazado_143623" data-name="Trazado 143623" d="M32.383.952C21.8-4.1,11.864,11.231,22.474,16.288c14.638,6.983,18.774,21.8,19,36.446.259,16.635-2.195,33.807-5.527,50.273A330.871,330.871,0,0,1,.8,197.775c-5.655,10.181,10.408,18.669,16.083,8.444,19.576-35.311,33.028-72.812,39.453-111.563C61.576,63.007,68.037,17.949,32.383.952Z" transform="translate(506.05 139.819)" fill="#deba2c"/>
              </g>
            </g>
          </g>
          <g id="Grupo_173794" data-name="Grupo 173794" transform="translate(-51 -1)">
            <path id="Trazado_178341" data-name="Trazado 178341" d="M124.508,270.914s-57.965,70.339-87.4,188.063S9.643,663.359,9.643,663.359H120.912s2.92-71.943,15.153-130.8,30.063-102.187,30.063-102.187l11.985,232.991H289.166S268.786,325.2,249.019,274.7c-16.081-41.081-124.511-3.789-124.511-3.789" transform="translate(-29.66 15.082)" fill="#b75542"/>
            <g id="Grupo_173780" data-name="Grupo 173780" transform="translate(15.387 13.834)">
              <g id="Grupo_173787" data-name="Grupo 173787" transform="translate(0 0)">
                <path id="Trazado_178312" data-name="Trazado 178312" d="M58.031,21.935s24.54,8.014,27.2,28.49-11.177,35.91-11.177,35.91,30.481-1.065,34.594,24.576c4.439,27.665-17.069,37.694-17.069,37.694l-45.158-4.258L28.812,98.91,42.567,24.6Z" transform="translate(122.59 0.661)"/>
                <path id="Trazado_178313" data-name="Trazado 178313" d="M226.8,246.357s5.253,44.754-12.36,59.411S170.3,266.59,181.258,246.746s45.538-.388,45.538-.388" transform="translate(-150.074 7.163)" fill="#d69166"/>
                <path id="Trazado_178314" data-name="Trazado 178314" d="M239.407,115.483s-43.231,56.251-56.8,77.686c-9.088,14.353-38.043,58.661-38.043,58.661l60.622,31.575s48.027-36.547,51.581-90.236-17.357-77.686-17.357-77.686" transform="translate(-144.561 3.478)" fill="#8284d2"/>
                <path id="Trazado_178316" data-name="Trazado 178316" d="M72.266,7.423s30.092-19.562,48.34,4.824c17.718,23.677.4,50.534.4,50.534L80.063,30.859Z" transform="translate(58.496 0.001)"/>
                <path id="Trazado_178318" data-name="Trazado 178318" d="M124.545,96.66s53.656,11.289,64.125,38.81-17.745,147.7-28.861,153.3-107.531-1.526-117.015-7.165-10.1-77.622-9.388-87.735,6.236-45.53,15.516-63.884,16.8-19.328,30.544-25.547c10.752-4.864,45.08-7.781,45.08-7.781" transform="translate(36.372 2.912)" fill="#8284d2"/>
                <path id="Trazado_178319" data-name="Trazado 178319" d="M126.26,75.3l1.284,28.137s-4.706,8.32-21.105,10.408c-12.217,1.556-16.651-1.02-16.651-1.02L90.848,98.5,91.9,84.524l29.424-7.894Z" transform="translate(41.489 2.268)" fill="#ffc9a7"/>
                <path id="Trazado_178320" data-name="Trazado 178320" d="M126.3,76.591a9.249,9.249,0,0,1-.693,2.751C119.953,93.685,102.88,97.5,95.826,98.458l1.053-13.974Z" transform="translate(36.51 2.307)"/>
                <path id="Trazado_178321" data-name="Trazado 178321" d="M80.73,22.6S67.573,58.551,74.287,77.885s24.449,15.143,34.94,10.685,15.066-11.34,15.066-11.34a15.148,15.148,0,0,0,16.355-6.941c6.131-9.725,1.352-20.17-4.518-22.271s-12.419,2.443-12.419,2.443l4.709-10.5S102.83-10.384,80.73,22.6" transform="translate(43.459 0.344)" fill="#ffc9a7"/>
                <path id="Trazado_178322" data-name="Trazado 178322" d="M131.822,50.59s-14.833,4.1-26.472-11.905-11.164-22.95-11.164-22.95L84.993,33.759s-3.177-11.822,1.076-19.8,9.343-6.749,9.343-6.749l33.766,5.942L139.8,39.126Z" transform="translate(35.349 0.216)"/>
                <path id="Trazado_178325" data-name="Trazado 178325" d="M102.658,115.561a33.965,33.965,0,0,0,25.887-12.2,1.2,1.2,0,1,0-1.927-1.422c-.524.706-13.063,17.2-36.4,8.971a1.2,1.2,0,1,0-.8,2.255,39.5,39.5,0,0,0,13.231,2.4" transform="translate(41.451 3.056)" fill="#12263f"/>
                <path id="Trazado_178326" data-name="Trazado 178326" d="M218.29,238.311s-15.2-10.4-21.091-12.373c-7.395-2.483-28.288-3.256-28.288-3.256s-17.095.836-15.079,6.293,9.477,5.9,10.953,7.846-11.076,17-8.512,20.667c4.115,5.884,23.965,13.908,35.261,12.759s24.731-10.552,24.731-10.552Z" transform="translate(-121.753 30.051)" fill="#ffc9a7"/>
                <path id="Trazado_178327" data-name="Trazado 178327" d="M12.647,6.811A.909.909,0,0,0,13,5.066L1.265.068A.91.91,0,0,0,.553,1.742l11.738,5a.971.971,0,0,0,.356.071" transform="matrix(0.899, -0.438, 0.438, 0.899, 42.606, 268.326)"/>
                <path id="Trazado_178328" data-name="Trazado 178328" d="M144.421,124.159s59.235,55.1,38.752,135.392C166.55,324.715,99.492,326.4,63.981,320.672A244.156,244.156,0,0,1,0,300.544l18.159-68.486s54.606,1.67,88.128-6.411,38.133-101.487,38.133-101.487" transform="translate(74.045 3.74)" fill="#8284d2"/>
                <path id="Trazado_178329" data-name="Trazado 178329" d="M56.164,232.2c11.491,0,26.257-4.424,29.5-9.023a3.667,3.667,0,0,0-.022-4.674c-4.675-5.941-32.684,7.569-38.249,10.338a1.2,1.2,0,0,0,.151,2.209,27.9,27.9,0,0,0,8.619,1.15m25.18-12.938a3.032,3.032,0,0,1,2.414.72,1.307,1.307,0,0,1-.052,1.815c-3.248,4.613-21.536,9.243-32.2,7.7,11.816-5.628,24.463-10.239,29.837-10.239" transform="translate(126.895 6.536)" fill="#12263f"/>
                <path id="Trazado_178331" data-name="Trazado 178331" d="M154.2,229.6a1.2,1.2,0,0,0,1.193-1.108L156.992,207a1.227,1.227,0,0,0-.159-.692,59.19,59.19,0,0,1-5.735-35.15c3.511-23.983,21.267-39.022,21.447-39.171a1.2,1.2,0,0,0-1.532-1.843c-.76.631-18.638,15.749-22.287,40.668a60.936,60.936,0,0,0,5.849,36.37l-1.57,21.134a1.2,1.2,0,0,0,1.107,1.281.535.535,0,0,0,.091.005" transform="translate(-63.992 3.912)" fill="#12263f"/>
                <path id="Trazado_178332" data-name="Trazado 178332" d="M80,66.349a1.2,1.2,0,0,0,.936-.449l9.091-11.353a1.2,1.2,0,1,0-1.871-1.5L79.066,64.4a1.2,1.2,0,0,0,.187,1.684,1.184,1.184,0,0,0,.748.262" transform="translate(90.058 1.585)"/>
                <path id="Trazado_178333" data-name="Trazado 178333" d="M84.606,62.522a1.2,1.2,0,0,0,.092-2.39l-6.572-.519a1.206,1.206,0,0,0-1.287,1.1A1.192,1.192,0,0,0,77.938,62l6.572.519a.578.578,0,0,0,.1.005" transform="translate(96.575 1.796)"/>
                <path id="Trazado_178334" data-name="Trazado 178334" d="M124.748,34.619a1.2,1.2,0,0,0,.543-2.264l-5.683-2.9a1.2,1.2,0,1,0-1.086,2.133l5.683,2.9a1.184,1.184,0,0,0,.543.131" transform="translate(14.162 0.884)"/>
                <path id="Trazado_178335" data-name="Trazado 178335" d="M132.37,34.3a1.218,1.218,0,0,0,.587-.155l4.862-2.732a1.2,1.2,0,0,0-1.173-2.086l-4.863,2.732a1.2,1.2,0,0,0,.587,2.241" transform="translate(-12.029 0.879)"/>
                <path id="Trazado_178336" data-name="Trazado 178336" d="M117.854,52.1a1.2,1.2,0,0,0,1.186-1.053l.884-7.3a1.2,1.2,0,0,0-.26-.9l-3.47-4.251a1.2,1.2,0,0,0-1.857,1.515l3.151,3.855-.824,6.8a1.2,1.2,0,0,0,1.043,1.333c.049,0,.1.009.147.009" transform="translate(24.09 1.15)"/>
                <path id="Trazado_178337" data-name="Trazado 178337" d="M137.994,50.625a1.2,1.2,0,0,0,1.186-1.053l.884-7.307a1.2,1.2,0,0,0-.26-.9l-3.468-4.248a1.2,1.2,0,0,0-1.857,1.516l3.148,3.85-.823,6.8a1.2,1.2,0,0,0,1.046,1.333c.047,0,.1.009.145.009" transform="translate(-16.798 1.105)"/>
                <path id="Trazado_178338" data-name="Trazado 178338" d="M127.149,63.006a1.078,1.078,0,0,0,.326-.047,1.2,1.2,0,0,0,.827-1.478c-2.944-10.417,3.514-15.749,3.579-15.8a1.2,1.2,0,0,0-1.5-1.871c-.317.257-7.751,6.4-4.382,18.327a1.2,1.2,0,0,0,1.153.87" transform="translate(0.307 1.312)"/>
                <path id="Trazado_178339" data-name="Trazado 178339" d="M120.5,71.174a1.206,1.206,0,0,0,.488-.1c3.09-1.38,7.49.028,7.536.042a1.2,1.2,0,0,0,.751-2.273c-.213-.075-5.309-1.712-9.265.041a1.2,1.2,0,0,0,.489,2.293" transform="translate(8.54 2.051)"/>
                <path id="Trazado_178340" data-name="Trazado 178340" d="M84.2,230.765h49.618a1.2,1.2,0,0,0,0-2.395H84.2a1.2,1.2,0,0,0,0,2.395" transform="translate(41.001 6.878)" fill="#12263f"/>
              </g>
            </g>
          </g>
        </g>
      </g>
    </g>
    <g id="Grupo_173799" data-name="Grupo 173799" transform="translate(931.263 1659)">
      <rect id="Rectángulo_44603" data-name="Rectángulo 44603" width="155.886" height="41.673" rx="20.836" transform="translate(0 0)" fill="#3c3fa7"/>
    </g>
    <path id="Trazado_178658" data-name="Trazado 178658" d="M-36.816-2.648q-.085-.5-.163-1.274t-.149-1.77q-.071-.991-.113-2.152t-.042-2.436q0-.368.007-1t.035-1.416q.028-.786.092-1.664t.163-1.742q.1-.864.262-1.65a9.99,9.99,0,0,1,.382-1.388,3.169,3.169,0,0,1,.517-.956.873.873,0,0,1,.68-.354,1.542,1.542,0,0,1,.4.071,1.455,1.455,0,0,1,.474.241,1.474,1.474,0,0,1,.389.453,1.4,1.4,0,0,1,.163.708,19.738,19.738,0,0,1-.106,2.06q-.106,1.012-.191,1.813a10.087,10.087,0,0,0-.071,1.3q.014.5.255.5.057,0,.156-.354t.241-.927q.142-.573.347-1.31t.474-1.5q.269-.765.6-1.5a7.115,7.115,0,0,1,.758-1.31,4.112,4.112,0,0,1,.927-.927,1.888,1.888,0,0,1,1.112-.354,1.564,1.564,0,0,1,1.076.389,2.933,2.933,0,0,1,.722,1.034,6.779,6.779,0,0,1,.439,1.466q.156.821.241,1.671t.12,1.671q.035.821.064,1.466t.085,1.034q.057.389.2.389.085,0,.276-.517t.5-1.289q.312-.772.736-1.671a11.512,11.512,0,0,1,.963-1.671A6.03,6.03,0,0,1-22.6-18.812a2.213,2.213,0,0,1,1.4-.517,1.686,1.686,0,0,1,1.607,1.3,12.128,12.128,0,0,1,.489,4q0,1.246-.071,2.86t-.1,3.441q-.028,1.827.042,3.8A39.045,39.045,0,0,0-18.89,0a.673.673,0,0,1-.042.375.6.6,0,0,1-.205.241.837.837,0,0,1-.319.127,2.021,2.021,0,0,1-.382.035,1.741,1.741,0,0,1-1.189-.4,2.654,2.654,0,0,1-.708-1.034,5.764,5.764,0,0,1-.354-1.423A14.706,14.706,0,0,1-22.2-3.653q-.014-.793.021-1.5t.035-1.175q0-.779.035-1.635t.078-1.692q.042-.835.071-1.593t.007-1.331a5.713,5.713,0,0,0-.092-.913q-.071-.34-.241-.34-.2,0-.538.5a11.2,11.2,0,0,0-.729,1.267q-.389.772-.807,1.713t-.765,1.841q-.347.9-.6,1.65a8.616,8.616,0,0,0-.326,1.147,2.783,2.783,0,0,1-.078.347,2.581,2.581,0,0,1-.184.474,1.825,1.825,0,0,1-.29.425.539.539,0,0,1-.411.184.68.68,0,0,1-.439-.177,2.267,2.267,0,0,1-.382-.411,3.2,3.2,0,0,1-.276-.446l-.135-.269a4.205,4.205,0,0,1-.241-.857q-.113-.573-.219-1.331t-.212-1.628q-.106-.871-.205-1.735l-.191-1.664q-.092-.8-.184-1.409t-.184-.977q-.092-.368-.191-.368t-.354.5q-.241.5-.559,1.366t-.687,2q-.368,1.14-.736,2.4t-.7,2.584q-.333,1.324-.573,2.542T-33.864-1.9a9.759,9.759,0,0,0-.092,1.77q.014.17.014.425A2.067,2.067,0,0,1-34,.786a.972.972,0,0,1-.191.4.476.476,0,0,1-.389.163,1.1,1.1,0,0,1-.673-.255,2.6,2.6,0,0,1-.63-.765A6.434,6.434,0,0,1-36.42-.927,11.5,11.5,0,0,1-36.816-2.648ZM-8.1-1.713a3.291,3.291,0,0,1,.042.991,1.979,1.979,0,0,1-.205.694,1.038,1.038,0,0,1-.375.4A.928.928,0,0,1-9.119.51.842.842,0,0,1-9.707.283a1.949,1.949,0,0,1-.418-.559A4.106,4.106,0,0,1-10.408-1q-.113-.389-.2-.722t-.149-.559q-.064-.227-.149-.227a.569.569,0,0,0-.375.205,5.446,5.446,0,0,0-.446.517q-.241.312-.531.673a5.147,5.147,0,0,1-.651.673,3.467,3.467,0,0,1-.8.517,2.244,2.244,0,0,1-.963.205,2.323,2.323,0,0,1-1.317-.4,3.544,3.544,0,0,1-1.02-1.062A5.484,5.484,0,0,1-17.665-2.7,6.857,6.857,0,0,1-17.9-4.5a8.938,8.938,0,0,1,.184-1.735,11.462,11.462,0,0,1,.531-1.841,10.2,10.2,0,0,1,.864-1.749,7.5,7.5,0,0,1,1.189-1.48,5.511,5.511,0,0,1,1.494-1.027,4.175,4.175,0,0,1,1.784-.382,3.218,3.218,0,0,1,1.359.262,2.782,2.782,0,0,1,.956.715,3.581,3.581,0,0,1,.623,1.062,7.289,7.289,0,0,1,.361,1.31,11.854,11.854,0,0,1,.17,1.451q.042.75.042,1.487T-8.319-5q.021.708.05,1.338t.078,1.133Q-8.142-2.025-8.1-1.713Zm-6.981-2.237A1.959,1.959,0,0,0-14.847-2.9q.234.368.432.368a1.281,1.281,0,0,0,.765-.283,4.116,4.116,0,0,0,.75-.743,7.415,7.415,0,0,0,.687-1.034,11.246,11.246,0,0,0,.559-1.154,9.29,9.29,0,0,0,.382-1.1,3.4,3.4,0,0,0,.142-.871q0-.014-.007-.156t-.035-.347q-.028-.205-.085-.446a1.867,1.867,0,0,0-.17-.453,1.088,1.088,0,0,0-.283-.347.641.641,0,0,0-.411-.135,1.145,1.145,0,0,0-.729.3,3.58,3.58,0,0,0-.687.786,8.245,8.245,0,0,0-.609,1.1,11.063,11.063,0,0,0-.489,1.239,11.176,11.176,0,0,0-.326,1.218A5.156,5.156,0,0,0-15.081-3.951Zm7.986-5.494a2.287,2.287,0,0,1,.113-.644,2.957,2.957,0,0,1,.326-.715,2.2,2.2,0,0,1,.524-.581,1.127,1.127,0,0,1,.708-.241,1.117,1.117,0,0,1,.588.135A.845.845,0,0,1-4.5-11.1a1.9,1.9,0,0,1,.142.623q.028.368.028.821,0,.864.269.864.142,0,.283-.212l.595-.892a6.6,6.6,0,0,1,.793-.97,4.537,4.537,0,0,1,1.041-.786A2.743,2.743,0,0,1,0-11.979a2.017,2.017,0,0,1,1.232.347,2.162,2.162,0,0,1,.715.991,5.249,5.249,0,0,1,.3,1.551A14.549,14.549,0,0,1,2.223-7.08q-.071.949-.085,2.421t.113,3.625a1.717,1.717,0,0,1-.021.4A1.354,1.354,0,0,1,2.1-.219a1.085,1.085,0,0,1-.255.326.585.585,0,0,1-.4.135,1.612,1.612,0,0,1-1.168-.4,2.534,2.534,0,0,1-.623-.963A4.383,4.383,0,0,1-.6-2.273q-.05-.588-.05-.942,0-.623.05-1.119T-.5-5.3q.05-.467.1-.927a9.355,9.355,0,0,0,.05-1,6.51,6.51,0,0,0-.035-.758,1.935,1.935,0,0,0-.1-.453A.488.488,0,0,0-.63-8.652a.256.256,0,0,0-.149-.057.963.963,0,0,0-.559.326,7.3,7.3,0,0,0-.743.835q-.4.51-.807,1.126t-.75,1.182a3.28,3.28,0,0,0-.248.566q-.092.283-.12.411a4.664,4.664,0,0,0-.042.7v.913q0,.481-.021.97a4.859,4.859,0,0,1-.113.885,1.892,1.892,0,0,1-.262.644A.55.55,0,0,1-4.928.1h-.283A1.31,1.31,0,0,1-5.636.021a2.183,2.183,0,0,1-.425-.2,2.088,2.088,0,0,1-.361-.276,1.034,1.034,0,0,1-.234-.312,4.181,4.181,0,0,1-.234-.942q-.092-.6-.149-1.352t-.071-1.586q-.014-.835-.014-1.628,0-.991.014-1.834T-7.094-9.445ZM6.485.212a2.72,2.72,0,0,1-1.3-.29,2.755,2.755,0,0,1-.927-.807A4.222,4.222,0,0,1,3.653-2.1,9.649,9.649,0,0,1,3.3-3.611a16.227,16.227,0,0,1-.17-1.728q-.042-.906-.042-1.827,0-.227.014-.694T3.172-8.9q.057-.573.17-1.182a6.039,6.039,0,0,1,.312-1.112,2.587,2.587,0,0,1,.5-.828.964.964,0,0,1,.729-.326,1.14,1.14,0,0,1,.5.12,1.391,1.391,0,0,1,.432.326,1.655,1.655,0,0,1,.3.481,1.533,1.533,0,0,1,.113.588q0,.609-.057,1.246T6.053-8.3q-.064.644-.12,1.3T5.876-5.721q0,.212.007.531t.05.68a6.432,6.432,0,0,0,.127.722,2.862,2.862,0,0,0,.234.651,1.379,1.379,0,0,0,.375.467.87.87,0,0,0,.552.177,1.255,1.255,0,0,0,.991-.46,3.668,3.668,0,0,0,.651-1.175,8.68,8.68,0,0,0,.389-1.579q.135-.864.191-1.678t.064-1.473q.007-.658.007-.956a4.582,4.582,0,0,1,.071-.807,2.5,2.5,0,0,1,.227-.7,1.378,1.378,0,0,1,.4-.489.958.958,0,0,1,.588-.184.933.933,0,0,1,.616.205,1.539,1.539,0,0,1,.4.531,2.818,2.818,0,0,1,.227.715,4.232,4.232,0,0,1,.071.758q0,1.147-.042,2.181t-.085,2.053q-.042,1.02-.085,2.06t-.042,2.2A2.931,2.931,0,0,1,11.512.375a1.088,1.088,0,0,1-.92.489,1.732,1.732,0,0,1-.75-.127A.793.793,0,0,1,9.48.411a1.024,1.024,0,0,1-.12-.425q-.014-.227-.014-.425A.909.909,0,0,0,9.3-.765a.209.209,0,0,0-.219-.127.6.6,0,0,0-.382.17q-.2.17-.481.382a3.181,3.181,0,0,1-.694.382A2.72,2.72,0,0,1,6.485.212ZM21.41-8.779a4.584,4.584,0,0,1-.227,1.458,5.25,5.25,0,0,1-.6,1.246,5.356,5.356,0,0,1-.857,1.005,7.161,7.161,0,0,1-.97.75,5.238,5.238,0,0,1-.956.489,2.671,2.671,0,0,1-.821.191.676.676,0,0,0-.5.163.5.5,0,0,0-.127.333.872.872,0,0,0,.085.368,2.747,2.747,0,0,0,.156.3,1.663,1.663,0,0,0,.588.538,2.5,2.5,0,0,0,1.182.212,6.737,6.737,0,0,0,.956-.085,5.4,5.4,0,0,0,1.246-.361,6.959,6.959,0,0,0,1.409-.807,6.986,6.986,0,0,0,1.43-1.437.563.563,0,0,1,.212-.17.656.656,0,0,1,.3-.071.661.661,0,0,1,.51.319,2.107,2.107,0,0,1,.241,1.2,2.119,2.119,0,0,1-.283,1.055,3.633,3.633,0,0,1-.772.935,6.235,6.235,0,0,1-1.133.786,8.574,8.574,0,0,1-1.374.6,9.989,9.989,0,0,1-1.5.382A8.774,8.774,0,0,1,18.1.75a5.942,5.942,0,0,1-2.244-.4A4.491,4.491,0,0,1,14.167-.821,5.232,5.232,0,0,1,13.112-2.69,7.908,7.908,0,0,1,12.744-5.2a11.056,11.056,0,0,1,.142-1.749,10.736,10.736,0,0,1,.425-1.728,8.691,8.691,0,0,1,.708-1.579,5.8,5.8,0,0,1,1-1.289,4.436,4.436,0,0,1,1.3-.871A3.886,3.886,0,0,1,17.9-12.73a3.356,3.356,0,0,1,1.678.382,3.226,3.226,0,0,1,1.076.963,3.9,3.9,0,0,1,.581,1.281A5.416,5.416,0,0,1,21.41-8.779ZM15.831-6.386q0,.057.007.156a.47.47,0,0,0,.057.191.425.425,0,0,0,.149.156.524.524,0,0,0,.283.064,1.569,1.569,0,0,0,.913-.361,4.436,4.436,0,0,0,.892-.892,5.654,5.654,0,0,0,.673-1.14,2.744,2.744,0,0,0,.269-1.09,1.865,1.865,0,0,0-.042-.375,1.709,1.709,0,0,0-.135-.4.887.887,0,0,0-.255-.319.658.658,0,0,0-.418-.127,1.2,1.2,0,0,0-.779.4,4.456,4.456,0,0,0-.779,1.02,7.255,7.255,0,0,0-.595,1.345A4.371,4.371,0,0,0,15.831-6.386Zm7.5-7.392q.028-.538.057-1.466t.092-2q.064-1.069.163-2.174t.262-1.99a7.032,7.032,0,0,1,.4-1.451q.241-.566.581-.566a1.68,1.68,0,0,1,.439.071,1.918,1.918,0,0,1,.5.219,1.533,1.533,0,0,1,.425.4,1.22,1.22,0,0,1,.227.588,9.77,9.77,0,0,1,.014,1.034q-.014.807-.064,2t-.106,2.7q-.057,1.508-.106,3.136T26.14-9.983q-.028,1.657,0,3.172t.106,2.8a16.6,16.6,0,0,0,.248,2.145q.113.552.241,1a5.959,5.959,0,0,1,.177.8,1.269,1.269,0,0,1-.042.609.858.858,0,0,1-.432.439,1.257,1.257,0,0,1-.566.142A1.209,1.209,0,0,1,25.17.9,2.806,2.806,0,0,1,24.6.382a3.921,3.921,0,0,1-.411-.588q-.163-.29-.219-.418a5.507,5.507,0,0,1-.319-1.147q-.135-.722-.219-1.635t-.127-1.961q-.042-1.048-.057-2.1t-.007-2.06q.007-1.005.021-1.855t.035-1.48Q23.322-13.495,23.336-13.778ZM37.454-1.713a3.291,3.291,0,0,1,.042.991,1.979,1.979,0,0,1-.205.694,1.038,1.038,0,0,1-.375.4.928.928,0,0,1-.481.135.842.842,0,0,1-.588-.227,1.949,1.949,0,0,1-.418-.559A4.106,4.106,0,0,1,35.146-1q-.113-.389-.2-.722T34.8-2.28q-.064-.227-.149-.227a.569.569,0,0,0-.375.205,5.446,5.446,0,0,0-.446.517q-.241.312-.531.673a5.147,5.147,0,0,1-.651.673,3.467,3.467,0,0,1-.8.517,2.244,2.244,0,0,1-.963.205,2.323,2.323,0,0,1-1.317-.4,3.544,3.544,0,0,1-1.02-1.062A5.484,5.484,0,0,1,27.888-2.7a6.857,6.857,0,0,1-.234-1.8,8.938,8.938,0,0,1,.184-1.735,11.462,11.462,0,0,1,.531-1.841,10.2,10.2,0,0,1,.864-1.749,7.5,7.5,0,0,1,1.189-1.48,5.511,5.511,0,0,1,1.494-1.027,4.175,4.175,0,0,1,1.784-.382,3.218,3.218,0,0,1,1.359.262,2.782,2.782,0,0,1,.956.715,3.581,3.581,0,0,1,.623,1.062A7.289,7.289,0,0,1,37-9.367a11.854,11.854,0,0,1,.17,1.451q.042.75.042,1.487T37.234-5q.021.708.05,1.338t.078,1.133Q37.411-2.025,37.454-1.713ZM30.473-3.951A1.959,1.959,0,0,0,30.706-2.9q.234.368.432.368a1.281,1.281,0,0,0,.765-.283,4.116,4.116,0,0,0,.75-.743,7.415,7.415,0,0,0,.687-1.034A11.246,11.246,0,0,0,33.9-5.749a9.291,9.291,0,0,0,.382-1.1,3.4,3.4,0,0,0,.142-.871q0-.014-.007-.156t-.035-.347q-.028-.205-.085-.446a1.867,1.867,0,0,0-.17-.453,1.088,1.088,0,0,0-.283-.347.641.641,0,0,0-.411-.135,1.145,1.145,0,0,0-.729.3,3.58,3.58,0,0,0-.687.786,8.245,8.245,0,0,0-.609,1.1,11.062,11.062,0,0,0-.489,1.239,11.176,11.176,0,0,0-.326,1.218A5.157,5.157,0,0,0,30.473-3.951Z" transform="translate(1009.547 1690.421)" fill="#ffd947"/>
  </g>
</svg>
