<svg xmlns="http://www.w3.org/2000/svg" xmlns:xlink="http://www.w3.org/1999/xlink" width="1241" height="658" viewBox="0 0 1241 658">
  <defs>
    <clipPath id="clip-path">
      <rect id="Rect치ngulo_38294" data-name="Rect치ngulo 38294" width="1241" height="658" fill="#ffdfe0"/>
    </clipPath>
  </defs>
  <g id="bg-5" transform="translate(-179.326 -1918)">
    <g id="Grupo_173930" data-name="Grupo 173930">
      <g id="Grupo_173929" data-name="Grupo 173929" transform="translate(179.326 1918)">
        <rect id="Rect치ngulo_38797" data-name="Rect치ngulo 38797" width="1240" height="654" rx="19" transform="translate(1 4)" fill="#fcf2ca"/>
        <g id="Grupo_173927" data-name="Grupo 173927">
          <g id="Grupo_161191" data-name="Grupo 161191" transform="translate(0)">
            <g id="Enmascarar_grupo_164" data-name="Enmascarar grupo 164" transform="translate(0 0)" clip-path="url(#clip-path)">
              <g id="Grupo_169449" data-name="Grupo 169449" transform="translate(1725.266 892.445) rotate(150)">
                <g id="Grupo_162315" data-name="Grupo 162315" transform="translate(31.98 29.467)" style="mix-blend-mode: overlay;isolation: isolate">
                  <path id="Trazado_143614" data-name="Trazado 143614" d="M938.654,458.035c-69.007,65.5-140.206,128.7-212.707,190.849,32.314-65.02,66.994-129.071,97.773-194.728,34.887-74.434,75.821-175.735,36.134-252.008-90.436-173.855-334.673,4.6-425.188,95.326-9.639,9.672-18.868,19.749-28.206,29.711,33.352-72.324,63.606-146.544,58.064-223.7C456.9-2.605,352.366-25.63,260.563,25.922,161.982,81.262,81.555,174.895,14.239,259.8c-57.18,72.11,67.854,136.521,124.575,65.433A1014.777,1014.777,0,0,1,240.256,215.866q-8.206,13.544-16.578,27.04c-36.913,59.492-73.4,119.208-103.83,181.631C61.582,544.048-24.313,709.631,42.087,832.325c33.467,61.833,115.5,66.255,178.02,39.3,84.049-36.238,143.576-113.262,200.739-178.609,59.668-68.23,112.531-140.433,167.964-211.465,23.159-29.682,46.314-59.779,72.672-87.192.6-.636,1.234-1.221,1.836-1.844l-.691,1.895c-15.292,41.4-34.612,81.241-54.172,121.19-36.379,74.326-82.872,152.752-97.539,233.029-12.965,70.988,15.929,149.523,107.842,142.222,86.409-6.86,157.51-85.518,216.495-138.316,71.428-63.948,141.642-129.1,211.868-194.184C1120.456,490.389,1011.14,389.256,938.654,458.035Z" transform="translate(14.539 13.466)" fill="#3c384f"/>
                  <path id="Trazado_143615" data-name="Trazado 143615" d="M624.349,917.219c-33.863.8-62.328-9.539-82.705-30.148-28.324-28.647-39.676-76.131-30.379-127.016,12.12-66.343,44.829-130.387,76.449-192.306,7.574-14.831,15.075-29.518,22.18-44.039,6.737-13.775,13.827-28.244,20.873-43.205q-6.327,8.059-12.525,16.023l-4.1,5.266c-14.4,18.451-28.627,36.975-42.837,55.5-39.911,51.985-81.18,105.751-125.632,156.573-6.492,7.421-13.016,15-19.612,22.655-51,59.216-108.791,126.327-186.438,159.8C170.4,926.13,80.868,920.355,43.663,851.576c-66.868-123.551,12.822-286.448,71.019-405.388l6.6-13.525c17.118-35.136,36.187-69.49,56.358-103.713q-6.919,8.266-13.589,16.644c-35.066,43.942-94.551,44.7-131.824,20.033-30.825-20.4-47.427-59.288-15-100.188C89.1,174.806,169.207,83.292,267.887,27.9,322.651-2.842,381.9-9.022,426.406,11.367c39.19,17.949,62.709,54.742,66.212,103.616,4.114,57.318-10.662,112.622-31.39,165.54,73.469-66.73,208.639-162.1,314.854-150.64,48.792,5.286,85.988,31.923,110.556,79.159,40.42,77.681,4.485,176.429-36,262.771-19.268,41.108-40.352,82.154-60.745,121.863l-7.219,14.045c58.994-51.529,111.817-99.479,160.342-145.526v.013c23.991-22.784,53.962-31.654,84.31-25.025,33.323,7.3,61.317,32.972,69.649,63.919,7.641,28.385-1.611,56.508-26.074,79.174l-7.987,7.392c-66.491,61.629-135.243,125.359-204.067,186.953-8.482,7.6-17.2,15.719-26.191,24.093C779.17,848.49,712.615,910.457,633.405,916.746,630.352,917,627.328,917.148,624.349,917.219ZM677.71,393.089a13.571,13.571,0,0,1,6.727,1.513c5.545,2.952,8.39,8.753,6.23,14.556l-.705,1.908c-16.027,43.414-36.561,85.368-54.677,122.381-7.178,14.666-14.752,29.484-22.385,44.433-30.768,60.267-62.594,122.58-74.049,185.28-7.772,42.572,1.364,83.151,23.84,105.886,16.67,16.862,40.083,24.12,69.677,21.867,68.579-5.455,128.276-61.016,180.944-110.05,9.133-8.494,17.995-16.748,26.606-24.466,68.638-61.434,137.3-125.071,203.709-186.62l7.973-7.391c21.643-20.047,21.835-40.352,18.207-53.856-5.916-21.974-26.545-40.918-50.151-46.087-14.389-3.158-35.942-2.674-57.083,17.4v.013c-62.69,59.479-132.448,122.067-213.278,191.328a14.947,14.947,0,0,1-17.635,1.4,12.005,12.005,0,0,1-4.245-15.666c12.21-24.579,24.766-49.011,37.322-73.441,20.276-39.5,41.256-80.336,60.318-121.011,37.929-80.879,71.888-172.792,36.268-241.246-20.7-39.826-50.089-61.272-89.834-65.567-99.022-10.693-241.249,91.8-312.632,163.362-7.615,7.616-14.958,15.51-22.315,23.405l-5.561,5.974a15.023,15.023,0,0,1-17.969,3,12.024,12.024,0,0,1-5.233-15.811c31.755-68.893,62.314-142.447,56.919-217.638-2.9-40.286-20.759-69.064-51.658-83.219C377,18.221,327.831,23.9,281.5,49.9c-94.186,52.891-171.978,141.9-242.01,230.224C17.374,308.031,30,331.569,49.209,344.277c26.013,17.2,67.306,18.322,92.628-13.433A1034.634,1034.634,0,0,1,244.7,219.93a14.953,14.953,0,0,1,18.313-1.676,12.067,12.067,0,0,1,3.5,16.513q-8.249,13.6-16.665,27.158C212.483,322.167,176.459,381.3,146.692,442.361l-6.619,13.552C84.235,570.03,7.787,726.321,68.792,839.051,98.426,893.81,171.75,897.493,228.861,872.89c71.272-30.715,124.343-92.339,175.657-151.938,6.639-7.7,13.221-15.34,19.77-22.814,43.848-50.147,84.829-103.544,124.479-155.186q21.38-27.866,42.967-55.671l4.1-5.253c21.743-27.887,44.224-56.712,69.534-83.051l1.276-1.287A16.666,16.666,0,0,1,677.71,393.089ZM952.8,471.017l.126,0Z" transform="translate(0.407 0.484)" fill="#3c384f"/>
                  <path id="Trazado_143616" data-name="Trazado 143616" d="M62.7,6.753C8.742,103.945-23.183,217.147,19.485,319.233c6.3,15.1,33.534,7.784,27.142-7.533C6.583,215.848,35.774,110.678,86.523,19.261,94.9,4.191,71.105-8.4,62.7,6.753Z" transform="translate(69.588 496.695)" fill="#3c384f"/>
                  <path id="Trazado_143617" data-name="Trazado 143617" d="M41.513,69.492c-.237-.02-.459-.08-.682-.113-.374-.691-.7-1.447-.825-1.652l-.068-.076c-.025-.1.015-.026-.023-.181-1.658-5.752-2.8-11.58-4.018-17.446q-4.223-20.4-8.46-40.8C26.066,2.621,17.409-1.657,10.461.58,2.851,3.027-1.19,9.678.281,16.755Q5.065,39.825,9.864,62.907c2.654,12.8,7,29.579,23.576,31.765,7.161.945,15.458-2.114,17.433-9.467C52.57,78.908,49.2,70.5,41.513,69.492Z" transform="translate(126.333 706.553)" fill="#3c384f"/>
                  <path id="Trazado_143618" data-name="Trazado 143618" d="M48.158,1.437c-15.677-7.48-30.384,15.227-14.679,22.72,21.685,10.344,27.826,32.3,28.143,54,.383,24.644-3.251,50.069-8.188,74.464A490.17,490.17,0,0,1,1.363,293.015C-7,308.1,16.781,320.672,25.188,305.524c29.015-52.3,48.928-107.852,58.446-165.272C91.4,93.379,100.976,26.63,48.158,1.437Z" transform="translate(749.489 207.104)" fill="#3c384f"/>
                </g>
                <g id="Grupo_162318" data-name="Grupo 162318" transform="translate(-0.407 -0.484)">
                  <g id="Grupo_162317" data-name="Grupo 162317" transform="translate(0)">
                    <g id="Grupo_162316" data-name="Grupo 162316">
                      <path id="Trazado_143619" data-name="Trazado 143619" d="M938.666,458.039c-69.007,65.5-140.206,128.7-212.72,190.836C758.26,583.869,792.954,519.8,823.732,454.16c34.887-74.434,75.807-175.735,36.135-252.008-90.436-173.855-334.673,4.59-425.188,95.326-9.652,9.659-18.867,19.735-28.206,29.711,33.338-72.324,63.592-146.544,58.065-223.7C456.917-2.6,352.379-25.627,260.576,25.913,161.98,81.266,81.568,174.9,14.237,259.8c-57.18,72.11,67.868,136.521,124.589,65.432A1016.056,1016.056,0,0,1,240.255,215.857q-8.206,13.544-16.564,27.052c-36.913,59.493-73.4,119.208-103.829,181.618C61.58,544.052-24.3,709.622,42.1,832.329c33.467,61.833,115.482,66.256,178.02,39.3C304.169,835.388,363.7,758.364,420.859,693.017c59.668-68.23,112.517-140.433,167.95-211.465,23.173-29.683,46.329-59.779,72.673-87.205.6-.623,1.247-1.208,1.85-1.844l-.691,1.908c-15.292,41.4-34.626,81.241-54.172,121.189-36.393,74.314-82.872,152.739-97.539,233.03-12.978,70.988,15.928,149.524,107.843,142.223,86.4-6.86,157.5-85.518,216.48-138.316,71.442-63.948,141.656-129.112,211.883-194.2C1120.455,490.394,1011.139,389.26,938.666,458.039Z" transform="translate(14.527 13.463)" fill="#ffd947"/>
                      <path id="Trazado_143620" data-name="Trazado 143620" d="M624.335,917.207c-33.863.8-62.315-9.527-82.692-30.135-28.324-28.648-39.676-76.131-30.379-127.03,12.106-66.33,44.815-130.373,76.449-192.306,7.56-14.83,15.061-29.5,22.18-44.026,6.737-13.775,13.826-28.245,20.873-43.206-4.218,5.359-8.393,10.718-12.525,16.023l-4.1,5.253c-14.4,18.451-28.628,36.989-42.851,55.5-39.9,52-81.166,105.763-125.618,156.573Q435.931,725,426.057,736.521c-51,59.2-108.791,126.314-186.438,159.8-69.237,29.813-158.751,24.025-195.957-44.754-66.868-123.538,12.822-286.436,71-405.388l6.618-13.513c17.118-35.137,36.187-69.49,56.344-103.713q-6.9,8.266-13.589,16.631C128.988,389.536,69.5,390.293,32.23,365.627c-30.825-20.4-47.427-59.288-15-100.188C89.1,174.807,169.206,83.293,267.873,27.886,322.65-2.841,381.881-9.021,426.406,11.367c39.19,17.949,62.7,54.73,66.212,103.6,4.114,57.319-10.663,112.635-31.4,165.54C534.7,213.793,669.853,118.427,776.068,129.883c48.792,5.286,86,31.923,110.57,79.158,40.406,77.681,4.471,176.417-36,262.771-19.268,41.094-40.352,82.154-60.745,121.85l-7.219,14.045c58.994-51.516,111.817-99.466,160.341-145.514h0c23.991-22.784,53.962-31.64,84.31-25.012,33.323,7.3,61.317,32.972,69.634,63.919,7.655,28.384-1.6,56.495-26.06,79.161l-7.987,7.4c-66.491,61.629-135.242,125.346-204.067,186.953-8.482,7.6-17.2,15.719-26.205,24.093C779.17,848.49,712.615,910.458,633.405,916.747,630.338,916.988,627.329,917.136,624.335,917.207ZM677.7,393.078a13.542,13.542,0,0,1,6.727,1.525c5.559,2.952,8.4,8.74,6.244,14.556l-.705,1.908c-16.027,43.4-36.561,85.368-54.677,122.38-7.178,14.653-14.752,29.471-22.386,44.432-30.782,60.267-62.608,122.581-74.063,185.267-7.773,42.572,1.364,83.151,23.854,105.9,16.656,16.849,40.083,24.121,69.677,21.866,68.579-5.454,128.276-61.016,180.93-110.05,9.134-8.507,18.009-16.761,26.62-24.466,68.638-61.434,137.3-125.071,203.709-186.62l7.974-7.4c21.629-20.034,21.835-40.339,18.192-53.855-5.917-21.961-26.532-40.919-50.151-46.074-14.374-3.158-35.928-2.675-57.068,17.4h0c-62.689,59.48-132.448,122.067-213.279,191.342a14.95,14.95,0,0,1-17.635,1.4,11.992,11.992,0,0,1-4.245-15.666c12.21-24.579,24.766-49.01,37.308-73.454,20.29-39.486,41.256-80.323,60.332-121,37.915-80.879,71.888-172.792,36.268-241.259-20.716-39.813-50.1-61.259-89.834-65.567C672.466,144.961,530.225,247.452,458.843,319c-7.6,7.628-14.945,15.523-22.3,23.405l-5.575,5.987a15,15,0,0,1-17.955,3,12.04,12.04,0,0,1-5.247-15.824c31.769-68.88,62.327-142.447,56.932-217.625-2.895-40.3-20.759-69.077-51.658-83.232C376.985,18.222,327.831,23.9,281.5,49.9c-94.2,52.879-171.978,141.9-242.01,230.224C17.359,308.031,30,331.557,49.209,344.265c26.013,17.211,67.306,18.335,92.628-13.42A1032.062,1032.062,0,0,1,244.7,219.931a14.934,14.934,0,0,1,18.3-1.676,12.042,12.042,0,0,1,3.5,16.5q-8.25,13.623-16.651,27.171c-37.379,60.242-73.389,119.376-103.17,180.436l-6.619,13.551C84.234,570.03,7.787,726.322,68.792,839.038c29.634,54.773,102.958,58.456,160.069,33.853,71.272-30.715,124.343-92.352,175.657-151.938q9.959-11.564,19.757-22.827c43.862-50.135,84.842-103.531,124.492-155.173,14.253-18.577,28.521-37.167,42.968-55.684l4.1-5.24c21.743-27.887,44.224-56.724,69.52-83.05l1.291-1.287A16.647,16.647,0,0,1,677.7,393.078Zm275.091,77.941.14,0Z" transform="translate(0.407 0.484)" fill="#deba2c"/>
                    </g>
                    <path id="Trazado_143621" data-name="Trazado 143621" d="M62.706,6.755C8.735,103.948-23.176,217.136,19.478,319.236c6.314,15.086,33.548,7.784,27.156-7.533C6.576,215.838,35.768,110.681,86.53,19.264,94.894,4.181,71.112-8.393,62.706,6.755Z" transform="translate(69.581 496.693)" fill="#deba2c"/>
                    <path id="Trazado_143622" data-name="Trazado 143622" d="M41.513,69.492c-.237-.02-.459-.08-.682-.113-.374-.7-.718-1.447-.839-1.651l-.054-.077c-.025-.1.015-.039-.023-.193-1.658-5.739-2.81-11.58-4.018-17.433q-4.244-20.4-8.46-40.8C26.066,2.621,17.409-1.657,10.447.58,2.851,3.014-1.189,9.678.281,16.755Q5.066,39.825,9.85,62.894c2.668,12.814,7.01,29.592,23.589,31.778C40.6,95.6,48.9,92.558,50.873,85.205,52.57,78.908,49.19,70.5,41.513,69.492Z" transform="translate(126.333 706.554)" fill="#deba2c"/>
                    <path id="Trazado_143623" data-name="Trazado 143623" d="M48.162,1.437c-15.677-7.48-30.4,15.227-14.679,22.719C55.168,34.5,61.295,56.457,61.627,78.148c.383,24.644-3.251,50.082-8.188,74.476A490.16,490.16,0,0,1,1.368,293.015C-7.01,308.1,16.786,320.672,25.193,305.524c29-52.31,48.928-107.865,58.446-165.272C91.408,93.366,100.981,26.617,48.162,1.437Z" transform="translate(749.484 207.104)" fill="#deba2c"/>
                  </g>
                </g>
              </g>
              <g id="Grupo_173928" data-name="Grupo 173928" transform="translate(-6.961 198.767) rotate(-150)">
                <g id="Grupo_162315-2" data-name="Grupo 162315" transform="translate(10.357 0)" style="mix-blend-mode: overlay;isolation: isolate">
                  <path id="Trazado_143614-2" data-name="Trazado 143614" d="M300.3,138.565c-22.068-20.946-44.838-41.159-68.023-61.033,10.334,20.793,21.425,41.277,31.267,62.274C274.7,163.609,287.795,196,275.1,220.4c-28.921,55.6-107.028-1.472-135.974-30.485-3.082-3.093-6.034-6.316-9.02-9.5,10.666,23.129,20.341,46.865,18.569,71.539-2.437,33.927-35.868,41.29-65.226,24.8-31.526-17.7-57.246-47.641-78.774-74.793-18.286-23.061,21.7-43.659,39.839-20.925a324.525,324.525,0,0,0,32.441,34.975q-2.624-4.331-5.3-8.647c-11.8-19.025-23.473-38.122-33.2-58.085C19.818,111.058-7.651,58.1,13.583,18.867,24.286-.907,50.519-2.321,70.514,6.3c26.879,11.589,45.915,36.221,64.2,57.119,19.082,21.82,35.987,44.91,53.715,67.626,7.406,9.492,14.811,19.117,23.241,27.884.193.2.394.39.587.59l-.221-.606c-4.89-13.24-11.069-25.981-17.324-38.756-11.634-23.769-26.5-48.85-31.193-74.522C159.368,22.933,168.608-2.183,198,.152c27.633,2.194,50.371,27.348,69.234,44.233,22.842,20.45,45.3,41.286,67.755,62.1C358.443,128.218,323.484,160.56,300.3,138.565Z" transform="translate(4.525 4.144)" fill="#3c384f"/>
                  <path id="Trazado_143615-2" data-name="Trazado 143615" d="M199.795.015c-10.829-.256-19.932,3.051-26.449,9.641-9.058,9.161-12.688,24.346-9.715,40.62,3.876,21.216,14.336,41.7,24.448,61.5,2.422,4.743,4.821,9.44,7.093,14.084,2.154,4.405,4.422,9.032,6.675,13.817q-2.023-2.577-4.006-5.124l-1.312-1.684c-4.606-5.9-9.155-11.825-13.7-17.749C170.067,98.494,156.869,81.3,142.654,65.046c-2.076-2.373-4.163-4.8-6.272-7.245C120.073,38.864,101.59,17.4,76.759,6.7,54.622-2.835,25.991-.989,14.093,21.007c-21.384,39.511,4.1,91.606,22.712,129.642l2.112,4.325c5.474,11.236,11.573,22.223,18.023,33.167q-2.213-2.644-4.346-5.323c-11.214-14.053-30.237-14.295-42.157-6.407-9.858,6.524-15.167,18.96-4.8,32.04,22.982,28.984,48.6,58.25,80.158,75.965,17.513,9.831,36.46,11.807,50.694,5.287,12.533-5.74,20.054-17.506,21.174-33.136,1.316-18.33-3.41-36.016-10.038-52.939,23.5,21.34,66.722,51.838,100.69,48.175,15.6-1.69,27.5-10.209,35.355-25.315,12.926-24.842,1.434-56.422-11.513-84.033-6.162-13.146-12.9-26.273-19.426-38.972l-2.309-4.492c18.866,16.479,35.759,31.813,51.277,46.539v0c7.672,7.286,17.257,10.123,26.962,8,10.657-2.333,19.609-10.544,22.273-20.441,2.444-9.077-.515-18.071-8.339-25.32l-2.554-2.364c-21.264-19.709-43.25-40.09-65.26-59.787-2.712-2.43-5.5-5.027-8.376-7.7C249.306,21.994,228.022,2.177,202.691.166,201.714.085,200.748.037,199.795.015ZM216.86,167.63a4.34,4.34,0,0,0,2.151-.484A3.748,3.748,0,0,0,221,162.491l-.226-.61c-5.125-13.884-11.692-27.3-17.486-39.137-2.3-4.69-4.718-9.429-7.159-14.21-9.84-19.273-20.018-39.2-23.681-59.252-2.486-13.614.436-26.591,7.624-33.862,5.331-5.392,12.818-7.714,22.282-6.993,21.931,1.744,41.022,19.513,57.866,35.194,2.921,2.716,5.755,5.356,8.508,7.824,21.95,19.646,43.91,40,65.146,59.681l2.55,2.364c6.921,6.411,6.983,12.9,5.823,17.223-1.892,7.027-8.489,13.086-16.038,14.739-4.6,1.01-11.494.855-18.255-5.564v0C287.91,120.861,265.6,100.846,239.752,78.7a4.78,4.78,0,0,0-5.64-.448,3.839,3.839,0,0,0-1.357,5.01c3.9,7.86,7.92,15.673,11.935,23.486,6.484,12.632,13.194,25.691,19.289,38.7,12.13,25.865,22.99,55.259,11.6,77.15-6.621,12.736-16.018,19.595-28.729,20.968-31.667,3.42-77.151-29.357-99.979-52.243-2.435-2.435-4.784-4.96-7.136-7.485l-1.778-1.91a4.8,4.8,0,0,0-5.746-.96,3.845,3.845,0,0,0-1.674,5.056c10.155,22.032,19.928,45.554,18.2,69.6-.926,12.883-6.639,22.087-16.52,26.613-11.525,5.279-27.249,3.462-42.064-4.851-30.12-16.914-55-45.38-77.394-73.625-7.074-8.925-3.036-16.453,3.107-20.517,8.319-5.5,21.524-5.859,29.622,4.3a330.876,330.876,0,0,0,32.9,35.47,4.782,4.782,0,0,0,5.856.536,3.859,3.859,0,0,0,1.118-5.281q-2.638-4.35-5.329-8.685c-11.949-19.265-23.47-38.176-32.989-57.7l-2.117-4.334c-17.857-36.494-42.3-86.476-22.8-122.527C31.606,7.5,55.055,6.323,73.319,14.191c22.793,9.823,39.765,29.53,56.175,48.59,2.123,2.461,4.228,4.906,6.322,7.3,14.022,16.037,27.128,33.113,39.808,49.628q6.837,8.911,13.741,17.8l1.312,1.68c6.953,8.918,14.143,18.136,22.237,26.559l.408.412A5.33,5.33,0,0,0,216.86,167.63Zm87.973-24.921h0Z" fill="#3c384f"/>
                  <path id="Trazado_143616-2" data-name="Trazado 143616" d="M20.142,102.583C2.887,71.5-7.323,35.3,6.322,2.653,8.337-2.176,17.046.163,15,5.062,2.2,35.715,11.532,69.348,27.761,98.583,30.44,103.4,22.83,107.428,20.142,102.583Z" transform="translate(22.163 29.909)" fill="#3c384f"/>
                  <path id="Trazado_143617-2" data-name="Trazado 143617" d="M13.281,8.106c-.076.006-.147.025-.218.036-.12.221-.225.463-.264.528l-.022.024c-.008.033,0,.008-.007.058-.53,1.839-.894,3.7-1.285,5.579Q10.135,20.856,8.78,27.38c-.438,2.111-3.207,3.479-5.429,2.763A4.441,4.441,0,0,1,.1,24.971q1.53-7.378,3.064-14.759C4.009,6.118,5.4.753,10.7.053c2.29-.3,4.944.676,5.575,3.028C16.817,5.095,15.741,7.783,13.281,8.106Z" transform="translate(40.395 37.21)" fill="#3c384f"/>
                  <path id="Trazado_143618-2" data-name="Trazado 143618" d="M15.526,99.438c-5.013,2.392-9.717-4.87-4.694-7.266,6.935-3.308,8.9-10.329,9-17.271a112.868,112.868,0,0,0-2.618-23.813A156.756,156.756,0,0,0,.561,6.192c-2.675-4.823,4.931-8.845,7.619-4A164.262,164.262,0,0,1,26.871,55.045C29.356,70.035,32.417,91.381,15.526,99.438Z" transform="translate(239.559 127.366)" fill="#3c384f"/>
                </g>
                <g id="Grupo_162318-2" data-name="Grupo 162318" transform="translate(0 9.582)">
                  <g id="Grupo_162317-2" data-name="Grupo 162317" transform="translate(0)">
                    <g id="Grupo_162316-2" data-name="Grupo 162316">
                      <path id="Trazado_143619-2" data-name="Trazado 143619" d="M300.307,138.565c-22.068-20.946-44.838-41.159-68.027-61.029,10.334,20.789,21.429,41.277,31.272,62.269,11.157,23.8,24.243,56.2,11.556,80.592-28.921,55.6-107.027-1.468-135.974-30.485-3.087-3.089-6.034-6.311-9.02-9.5,10.661,23.129,20.337,46.865,18.569,71.539-2.437,33.927-35.868,41.29-65.226,24.808-31.531-17.7-57.246-47.645-78.778-74.8C-13.609,178.9,26.381,158.3,44.52,181.035a324.934,324.934,0,0,0,32.437,34.979q-2.624-4.331-5.3-8.651c-11.8-19.026-23.473-38.123-33.2-58.081C19.817,111.058-7.647,58.109,13.588,18.867,24.29-.907,50.518-2.322,70.518,6.3c26.879,11.589,45.915,36.221,64.2,57.119,19.082,21.82,35.983,44.91,53.71,67.626,7.411,9.492,14.816,19.117,23.241,27.888.193.2.4.386.592.59l-.221-.61c-4.89-13.24-11.073-25.981-17.324-38.756-11.638-23.765-26.5-48.846-31.193-74.522-4.151-22.7,5.094-47.818,34.488-45.482,27.629,2.194,50.367,27.348,69.23,44.233,22.847,20.451,45.3,41.29,67.76,62.1C358.443,128.218,323.484,160.56,300.307,138.565Z" transform="translate(4.521 4.14)" fill="#ffd947"/>
                      <path id="Trazado_143620-2" data-name="Trazado 143620" d="M199.79.015c-10.829-.256-19.928,3.047-26.445,9.637-9.058,9.161-12.688,24.346-9.715,40.624,3.871,21.212,14.332,41.693,24.448,61.5,2.418,4.743,4.816,9.435,7.093,14.079,2.154,4.405,4.422,9.033,6.675,13.817-1.349-1.714-2.684-3.428-4.006-5.124l-1.312-1.68c-4.606-5.9-9.155-11.829-13.7-17.749C170.067,98.49,156.869,81.3,142.654,65.047q-3.115-3.566-6.272-7.249c-16.309-18.933-34.791-40.4-59.622-51.1C54.618-2.839,25.991-.989,14.093,21.007c-21.384,39.507,4.1,91.6,22.707,129.642l2.116,4.321c5.474,11.237,11.573,22.223,18.019,33.167q-2.206-2.643-4.346-5.319c-11.21-14.057-30.233-14.3-42.153-6.411-9.858,6.524-15.167,18.96-4.8,32.04,22.982,28.984,48.6,58.25,80.154,75.969,17.518,9.827,36.46,11.8,50.7,5.283,12.533-5.74,20.05-17.5,21.174-33.132,1.316-18.33-3.41-36.02-10.043-52.939,23.5,21.336,66.722,51.834,100.689,48.171,15.6-1.69,27.5-10.209,35.36-25.315,12.922-24.842,1.43-56.418-11.513-84.034-6.162-13.142-12.9-26.273-19.426-38.967l-2.309-4.492c18.866,16.475,35.759,31.809,51.277,46.535h0c7.672,7.286,17.257,10.119,26.962,8,10.657-2.333,19.609-10.544,22.269-20.441,2.448-9.077-.51-18.067-8.334-25.315l-2.554-2.368c-21.264-19.709-43.25-40.085-65.26-59.787-2.712-2.43-5.5-5.027-8.38-7.7C249.306,21.99,228.022,2.173,202.691.162,201.71.085,200.748.037,199.79.015ZM216.855,167.63a4.331,4.331,0,0,0,2.151-.488,3.744,3.744,0,0,0,2-4.655l-.226-.61c-5.125-13.88-11.692-27.3-17.486-39.137-2.3-4.686-4.718-9.425-7.159-14.209-9.844-19.273-20.022-39.2-23.685-59.248-2.486-13.614.436-26.591,7.628-33.866,5.327-5.388,12.818-7.714,22.283-6.993,21.931,1.744,41.022,19.513,57.861,35.194,2.921,2.72,5.759,5.36,8.513,7.824,21.95,19.646,43.91,40,65.146,59.681l2.55,2.368c6.917,6.407,6.983,12.9,5.818,17.223-1.892,7.023-8.485,13.086-16.038,14.734-4.6,1.01-11.49.855-18.25-5.564h0c-20.048-19.022-42.356-39.037-68.206-61.191a4.781,4.781,0,0,0-5.64-.448,3.835,3.835,0,0,0-1.357,5.01c3.9,7.86,7.92,15.673,11.931,23.491,6.489,12.627,13.194,25.687,19.294,38.695,12.125,25.865,22.99,55.259,11.6,77.154-6.625,12.732-16.023,19.59-28.729,20.968-31.667,3.415-77.155-29.361-99.983-52.243-2.431-2.44-4.779-4.964-7.132-7.485l-1.783-1.915a4.8,4.8,0,0,0-5.742-.96,3.85,3.85,0,0,0-1.678,5.06c10.16,22.028,19.932,45.554,18.207,69.6-.926,12.887-6.639,22.091-16.52,26.617-11.53,5.275-27.249,3.458-42.064-4.855-30.125-16.911-55-45.38-77.394-73.625-7.079-8.925-3.036-16.449,3.107-20.513,8.319-5.5,21.524-5.863,29.622,4.292A330.052,330.052,0,0,0,78.385,223a4.776,4.776,0,0,0,5.852.536,3.851,3.851,0,0,0,1.118-5.277q-2.638-4.356-5.325-8.689c-11.954-19.265-23.47-38.176-32.994-57.7l-2.117-4.334C27.068,111.041,2.62,61.059,22.129,25.013,31.606,7.5,55.055,6.319,73.319,14.187c22.793,9.823,39.765,29.534,56.175,48.59q3.185,3.7,6.318,7.3c14.027,16.033,27.132,33.109,39.812,49.624,4.558,5.941,9.121,11.886,13.741,17.808l1.312,1.676c6.953,8.918,14.143,18.14,22.232,26.559l.413.412A5.323,5.323,0,0,0,216.855,167.63ZM304.828,142.7h0Z" fill="#deba2c"/>
                    </g>
                    <path id="Trazado_143621-2" data-name="Trazado 143621" d="M20.144,102.581C2.885,71.5-7.32,35.3,6.32,2.651,8.339-2.174,17.049.162,15,5.06,2.194,35.717,11.53,69.346,27.763,98.581,30.438,103.4,22.833,107.426,20.144,102.581Z" transform="translate(22.16 29.907)" fill="#deba2c"/>
                    <path id="Trazado_143622-2" data-name="Trazado 143622" d="M13.281,8.1c-.076.006-.147.025-.218.036-.119.225-.23.463-.268.528l-.017.025c-.008.033,0,.012-.007.062-.53,1.835-.9,3.7-1.285,5.575Q10.128,20.855,8.78,27.379c-.438,2.111-3.207,3.479-5.433,2.763A4.439,4.439,0,0,1,.1,24.97l3.06-14.755C4.009,6.117,5.4.751,10.7.052c2.29-.3,4.944.676,5.575,3.027C16.817,5.094,15.737,7.782,13.281,8.1Z" transform="translate(40.395 37.207)" fill="#deba2c"/>
                    <path id="Trazado_143623-2" data-name="Trazado 143623" d="M15.528,99.438c-5.013,2.392-9.721-4.87-4.694-7.266,6.935-3.308,8.894-10.33,9-17.266a112.9,112.9,0,0,0-2.619-23.817A156.753,156.753,0,0,0,.563,6.192c-2.679-4.823,4.931-8.845,7.619-4A164.434,164.434,0,0,1,26.873,55.045C29.358,70.039,32.419,91.385,15.528,99.438Z" transform="translate(239.558 127.362)" fill="#deba2c"/>
                  </g>
                </g>
              </g>
            </g>
          </g>
        </g>
      </g>
    </g>
  </g>
</svg>
