<svg xmlns="http://www.w3.org/2000/svg" width="90" height="90" viewBox="0 0 90 90">
  <g id="kevin" transform="translate(0.082)">
    <circle id="Elipse_4780" data-name="Elipse 4780" cx="45" cy="45" r="45" transform="translate(-0.082 0)" fill="#c4d1ff"/>
    <g id="Grupo_173965" data-name="Grupo 173965" transform="translate(-15161.814 8919.332)">
      <path id="Trazado_178280" data-name="Trazado 178280" d="M105.112,81.391l.38,17.122s3.2,4.853,13.232,5.445c7.475.441,10.059-1.3,10.059-1.3L127.55,94l-1.214-8.433-18.175-3.577Z" transform="translate(15090.166 -8940.163)" fill="#ff9583"/>
      <path id="Trazado_178281" data-name="Trazado 178281" d="M109.831,82.326a5.617,5.617,0,0,0,.534,1.641c4.021,8.468,14.536,10.079,18.855,10.369L128.006,85.9Z" transform="translate(15088.496 -8940.493)"/>
      <path id="Trazado_178282" data-name="Trazado 178282" d="M122.522,23.979s9.463,21.268,6.185,33.274-14.208,10.192-20.756,7.92a21.618,21.618,0,0,1-9.607-6.259,9.21,9.21,0,0,1-10.208-3.537c-4.12-5.646-1.65-12.18,1.824-13.7s7.635.971,7.635.971l-3.289-6.177s13.451-31.594,28.217-12.5" transform="translate(15096.932 -8917.683)" fill="#ff9583"/>
      <path id="Trazado_178283" data-name="Trazado 178283" d="M139.857,63.754a.83.83,0,0,1-.223-.032.756.756,0,0,1-.5-.942c1.206-3.894-1.711-8.105-1.74-8.149a.75.75,0,1,1,1.227-.863c.138.2,3.372,4.866,1.952,9.458a.753.753,0,0,1-.719.529" transform="translate(15078.793 -8930.277)"/>
      <path id="Trazado_178284" data-name="Trazado 178284" d="M98.962,67.641a.748.748,0,0,1-.546-.235l-5.793-6.142a.752.752,0,1,1,1.092-1.033l5.792,6.142a.751.751,0,0,1-.545,1.267" transform="translate(15094.656 -8932.594)"/>
      <path id="Trazado_178285" data-name="Trazado 178285" d="M92.642,68.124a.751.751,0,0,1-.112-1.494l4.009-.607a.738.738,0,0,1,.854.631.751.751,0,0,1-.631.854l-4.009.608a.846.846,0,0,1-.112.008" transform="translate(15094.843 -8934.724)"/>
      <path id="Trazado_178286" data-name="Trazado 178286" d="M125.637,54.09a.752.752,0,0,1-.745-.657l-.508-3.974a.751.751,0,0,1,1.491-.187l.508,3.974a.75.75,0,0,1-.652.839c-.032,0-.064.006-.094.006" transform="translate(15083.351 -8928.568)"/>
      <path id="Trazado_178288" data-name="Trazado 178288" d="M143.85,52.626a.748.748,0,0,1-.743-.643l-.584-3.964a.75.75,0,0,1,1.485-.217l.584,3.964a.749.749,0,0,1-.634.852.774.774,0,0,1-.109.008" transform="translate(15076.935 -8928.053)"/>
      <path id="Trazado_178289" data-name="Trazado 178289" d="M120.474,43.715a.849.849,0,0,1-.223-.032.755.755,0,0,1-.5-.942c.948-3.063,4.6-2.967,4.8-2.961a.752.752,0,0,1-.032,1.5c-.511,0-2.767.085-3.327,1.9a.757.757,0,0,1-.719.529" transform="translate(15084.997 -8925.442)"/>
      <path id="Trazado_178290" data-name="Trazado 178290" d="M142.8,40.269a.758.758,0,0,1-.56-.249,3.909,3.909,0,0,0-2.389-1.294,1.792,1.792,0,0,0-1.362.711.753.753,0,0,1-1.133-.992,3.262,3.262,0,0,1,2.48-1.221,5.463,5.463,0,0,1,3.525,1.8.752.752,0,0,1-.56,1.25" transform="translate(15078.823 -8924.538)"/>
      <path id="Trazado_178291" data-name="Trazado 178291" d="M120.578,113.723a24.683,24.683,0,0,1-15.762-5.664.751.751,0,1,1,.945-1.168,23.3,23.3,0,0,0,22.526,4.032.764.764,0,0,1,.986.4.754.754,0,0,1-.4.985,23.566,23.566,0,0,1-8.3,1.415" transform="translate(15090.369 -8949.126)" fill="#fff"/>
      <path id="Trazado_178292" data-name="Trazado 178292" d="M95.515,36.34s-1.462-8.733,5.716-11.476,26.3-6.583,26.087-14.931-13.4-2.337-13.4-2.337S115.974-.919,108.1.083A13.5,13.5,0,0,0,97.558,8.1s-6.344-.306-10.517,3.435S84.7,23.288,84.7,23.288s-5.342,3.026-4.507,7.94a18.158,18.158,0,0,0,4.188,8.466s3.077-7,11.131-3.355" transform="translate(15099.012 -8911.37)"/>
      <path id="Trazado_178299" data-name="Trazado 178299" d="M138.867,76.878a.75.75,0,0,1-.4-.118c-2.653-1.7-3.651-.96-3.66-.951a.733.733,0,0,1-1.048-.012.766.766,0,0,1,.012-1.077c.17-.17,1.781-1.608,5.505.772a.751.751,0,0,1-.405,1.385" transform="translate(15080.109 -8937.597)"/>
    </g>
  </g>
</svg>
