<svg id="manuela" xmlns="http://www.w3.org/2000/svg" width="90" height="90" viewBox="0 0 90 90">
  <ellipse id="Elipse_4780" data-name="Elipse 4780" cx="45" cy="45" rx="45" ry="45" transform="translate(0 0)" fill="#c4d1ff"/>
  <g id="Grupo_173966" data-name="Grupo 173966" transform="translate(-15651.038 8551.194)">
    <path id="Trazado_178312" data-name="Trazado 178312" d="M44.131,21.935S57,26.137,58.392,36.871,52.532,55.7,52.532,55.7s9.188,32.646-23.72,6.593l7.211-38.96Z" transform="translate(15663.9 -8547.427)"/>
    <path id="Trazado_178316" data-name="Trazado 178316" d="M72.266,3.891S88.041-6.364,97.608,6.42c9.289,12.413.212,26.493.212,26.493L76.353,16.178Z" transform="translate(15609.626 -8537.337)"/>
    <path id="Trazado_178319" data-name="Trazado 178319" d="M108.909,75.3l.673,14.751s-2.467,4.362-11.064,5.457c-6.4.816-8.729-.535-8.729-.535l.556-7.511.551-7.326L106.321,76Z" transform="translate(15592.374 -8571.973)" fill="#ffc9a7"/>
    <path id="Trazado_178320" data-name="Trazado 178320" d="M111.8,76.591a4.849,4.849,0,0,1-.363,1.442c-2.965,7.519-11.916,9.519-15.614,10.022l.552-7.326Z" transform="translate(15586.891 -8572.566)"/>
    <path id="Trazado_178321" data-name="Trazado 178321" d="M76.757,17.269s-6.9,18.848-3.378,28.984S86.2,54.191,91.7,51.855a18.647,18.647,0,0,0,7.9-5.945,7.941,7.941,0,0,0,8.574-3.639c3.214-5.1.709-10.574-2.369-11.676s-6.511,1.281-6.511,1.281l2.469-5.506s-13.416-26.393-25-9.1" transform="translate(15601.689 -8542.579)" fill="#ffc9a7"/>
    <path id="Trazado_178322" data-name="Trazado 178322" d="M109,29.919s-7.776,2.15-13.878-6.241S89.27,11.646,89.27,11.646L84.451,21.1s-1.666-6.2.564-10.381,4.9-3.538,4.9-3.538l17.7,3.115,5.567,13.618Z" transform="translate(15591.979 -8540.621)"/>
    <path id="Trazado_178325" data-name="Trazado 178325" d="M95.983,108.849a17.806,17.806,0,0,0,13.571-6.4.628.628,0,1,0-1.01-.745c-.275.37-6.848,9.017-19.08,4.7a.627.627,0,1,0-.417,1.182,20.709,20.709,0,0,0,6.936,1.256" transform="translate(15592.906 -8584.002)" fill="#12263f"/>
    <path id="Trazado_178332" data-name="Trazado 178332" d="M79.432,59.809a.629.629,0,0,0,.491-.235l4.766-5.952a.628.628,0,1,0-.981-.785l-4.766,5.952a.63.63,0,0,0,.1.883.621.621,0,0,0,.392.137" transform="translate(15623.063 -8561.531)"/>
    <path id="Trazado_178333" data-name="Trazado 178333" d="M80.909,61.136a.627.627,0,0,0,.048-1.253l-3.445-.272a.633.633,0,0,0-.675.576.625.625,0,0,0,.576.674l3.445.272a.3.3,0,0,0,.05,0" transform="translate(15627.415 -8564.755)"/>
    <path id="Trazado_178334" data-name="Trazado 178334" d="M121.474,32.1a.628.628,0,0,0,.285-1.187L118.779,29.4a.627.627,0,1,0-.569,1.118l2.979,1.518a.621.621,0,0,0,.285.069" transform="translate(15564.689 -8550.828)"/>
    <path id="Trazado_178335" data-name="Trazado 178335" d="M131.8,31.857a.638.638,0,0,0,.308-.081l2.549-1.432a.627.627,0,0,0-.615-1.094l-2.55,1.432a.628.628,0,0,0,.308,1.175" transform="translate(15544.628 -8550.754)"/>
    <path id="Trazado_178336" data-name="Trazado 178336" d="M116.052,45.468a.626.626,0,0,0,.622-.552l.463-3.828a.628.628,0,0,0-.136-.474l-1.819-2.229a.628.628,0,0,0-.974.794L115.86,41.2l-.432,3.563a.627.627,0,0,0,.547.7c.026,0,.052,0,.077,0" transform="translate(15571.701 -8554.888)"/>
    <path id="Trazado_178337" data-name="Trazado 178337" d="M136.193,43.989a.626.626,0,0,0,.622-.552l.463-3.831a.627.627,0,0,0-.136-.473l-1.818-2.227a.628.628,0,0,0-.974.795L136,39.719l-.431,3.566a.627.627,0,0,0,.548.7c.025,0,.05,0,.076,0" transform="translate(15540.683 -8554.207)"/>
    <path id="Trazado_178338" data-name="Trazado 178338" d="M126.185,53.748a.565.565,0,0,0,.171-.025.628.628,0,0,0,.434-.775c-1.543-5.461,1.842-8.257,1.876-8.284a.629.629,0,0,0-.787-.981c-.166.134-4.063,3.355-2.3,9.608a.629.629,0,0,0,.6.456" transform="translate(15553.975 -8557.367)"/>
    <path id="Trazado_178339" data-name="Trazado 178339" d="M119.927,69.7a.632.632,0,0,0,.256-.054,6.554,6.554,0,0,1,3.951.022.628.628,0,0,0,.394-1.192,7.73,7.73,0,0,0-4.857.022.629.629,0,0,0,.257,1.2" transform="translate(15561.061 -8568.648)"/>
  </g>
</svg>
