<svg xmlns="http://www.w3.org/2000/svg" xmlns:xlink="http://www.w3.org/1999/xlink" width="106" height="101" viewBox="0 0 106 101">
  <defs>
    <clipPath id="clip-path">
      <rect id="Rect치ngulo_44910" data-name="Rect치ngulo 44910" width="59.348" height="81.25" fill="none"/>
    </clipPath>
  </defs>
  <g id="_1" data-name="1" transform="translate(-697.826 -4473.97)">
    <g id="Grupo_165391" data-name="Grupo 165391" transform="translate(697.826 4474.292)">
      <rect id="Rect치ngulo_40797" data-name="Rect치ngulo 40797" width="106" height="101" rx="50.5" transform="translate(0 -0.321)" fill="#ffe891"/>
    </g>
    <g id="Grupo_174126" data-name="Grupo 174126" transform="translate(-150.674 132.875)">
      <g id="Grupo_174125" data-name="Grupo 174125" transform="translate(871.826 4350.97)">
        <g id="Grupo_174124" data-name="Grupo 174124" clip-path="url(#clip-path)">
          <path id="Trazado_178671" data-name="Trazado 178671" d="M6.991,33.348c-.155-.516-.1-1.01.427-1.238a45.241,45.241,0,0,1,7.346-2.969,2.646,2.646,0,0,0,1.1-.288h2.643c.529.14,1.09.062,1.615.237a5.14,5.14,0,0,1,3.43,3.477.9.9,0,0,0,1.035.739c2.576-.027,5.152-.023,7.728,0a.829.829,0,0,0,.948-.676,5.191,5.191,0,0,1,3.389-3.521c.458-.162.955-.1,1.414-.254H40.71a5.747,5.747,0,0,0,1.5.32,33.058,33.058,0,0,1,5.685,2.235c1.734.742,3.415,1.617,5.175,2.286,3.132,1.189,4.013,3.8,3.691,6.665a23.947,23.947,0,0,1-3.528,9.355,21.979,21.979,0,0,1-3.147,4.3,4.249,4.249,0,0,1-2.311,1.313c-.447.079-.531.319-.6.7-.521,3.008-1.028,6.02-1.6,9.019A16.67,16.67,0,0,1,43.094,71.1c-.16.243-.278.422-.035.733a32.026,32.026,0,0,1,5.7,12.76,49.417,49.417,0,0,1,1.187,10.666c.006.491-.07.924-.587,1.14-.653.273-1.183-.033-1.41-.817a1.063,1.063,0,0,1-.153-.694,55.1,55.1,0,0,0-.764-7.933,35.087,35.087,0,0,0-3.261-9.942,10.313,10.313,0,0,1-1.411,1.7,1.244,1.244,0,0,1-1.646.374,1.179,1.179,0,0,1-.236-.212,1.16,1.16,0,0,1,.148-1.711,18.714,18.714,0,0,0,1.486-1.766,1.345,1.345,0,0,0-.448-1.807c-.279-.149-.4.092-.546.235a20.159,20.159,0,0,1-2.2,1.991,17.721,17.721,0,0,1-21.634-.484,20.458,20.458,0,0,1-1.475-1.418c-.511-.494-.563-.492-.987.1-.23.322-.431.666-.665.984a.766.766,0,0,0,.139,1.149,19.074,19.074,0,0,0,9.138,5.159,19.61,19.61,0,0,0,12.3-.828c.489-.2.946-.471,1.433-.674.806-.336,1.238-.172,1.672.621.11.872,0,1.12-.848,1.572a18.728,18.728,0,0,1-6.324,2,9.814,9.814,0,0,1-1.575.149c-.329-.008-.471.153-.454.492.04.791.007,1.584.02,2.377,0,.243-.006.51.32.567a.621.621,0,0,0,.739-.291c.146-.271.265-.556.42-.823a3.865,3.865,0,0,1,6.9,3.467,1.41,1.41,0,0,0,0,1.254,3.772,3.772,0,0,1-.421,3.878,1.05,1.05,0,0,1-.606.478c-1.821,1.3-3.155,1.3-4.944.024a2.258,2.258,0,0,1-1.192-1.412.922.922,0,0,0-1-.645c-.986.029-1.974.023-2.96,0A.851.851,0,0,0,26,94.1a2.382,2.382,0,0,1-1.223,1.471c-1.789,1.28-3.132,1.274-4.943-.024-.408-.1-.589-.439-.782-.759a3.664,3.664,0,0,1-.267-3.539,1.486,1.486,0,0,0-.007-1.311A3.874,3.874,0,0,1,25.769,86.6c.152.242.241.52.4.757a.618.618,0,0,0,.708.218c.284-.062.293-.3.3-.521.01-.771,0-1.542,0-2.312,0-.41-.184-.578-.6-.606a21.753,21.753,0,0,1-12.689-5.169c-.238-.2-.453-.418-.672-.634-.543-.535-.578-.532-.88.141a32.551,32.551,0,0,0-1.57,4.276A42.352,42.352,0,0,0,9.154,92.7c-.035.789-.125,1.578-.12,2.371a.68.68,0,0,1-.146.495.953.953,0,0,1-1.081.914A.94.94,0,0,1,6.9,95.4c.073-7.013,1.232-13.78,4.577-20.046a21.944,21.944,0,0,1,2.261-3.478c.171-.212.3-.368.087-.673a19.743,19.743,0,0,1-2.971-8.3c-.373-2.344-.808-4.678-1.214-7.018-.047-.271-.1-.456-.457-.519a4.648,4.648,0,0,1-2.8-1.743,28.427,28.427,0,0,1-6.17-12.3,8.091,8.091,0,0,1,.164-4.3,4.877,4.877,0,0,1,2.288-2.784c.774-.44,1.129-.372,1.693.312a.829.829,0,0,1-.225,1.269c-2.159,1.275-2.219,3.238-1.751,5.323A26.822,26.822,0,0,0,8.138,52.369a2.476,2.476,0,0,0,1.327.824,1.661,1.661,0,0,0,2.172-1.272c1.292-4.391,2.619-8.772,3.874-13.174a7.262,7.262,0,0,1,5.01-5.076c.89-.305.965-.482.384-1.267a3.831,3.831,0,0,0-3.214-1.387,11.809,11.809,0,0,0-5.173,1.161c-1.33.583-2.653,1.183-3.982,1.767-.817.359-1.3.156-1.544-.6" transform="translate(0 -15.276)" fill="#060606"/>
          <path id="Trazado_178672" data-name="Trazado 178672" d="M9.225,35.568c.554.7.749.75,1.571.4,1.819-.772,3.572-1.705,5.45-2.331a9.353,9.353,0,0,1,4.806-.448,3.287,3.287,0,0,1,2.582,1.924c.221.5.15.706-.421.84A7.131,7.131,0,0,0,18.436,39.6a15.485,15.485,0,0,0-1.01,3.127c-1.139,3.807-2.311,7.606-3.356,11.44a2,2,0,0,1-3.086,1.146,4.76,4.76,0,0,1-1.312-1.287,27.37,27.37,0,0,1-5.24-10.686,6.872,6.872,0,0,1-.078-3.01A2.949,2.949,0,0,1,5.864,38.2a1.178,1.178,0,0,0,.728-1.439l2.633-1.195" transform="translate(-2.234 -17.496)" fill="#be7645"/>
          <path id="Trazado_178673" data-name="Trazado 178673" d="M18.888,150.312a41.5,41.5,0,0,1,3.694-18.05c.611.546,1.171,1.085,1.769,1.576a21.209,21.209,0,0,0,12.361,4.876c.57.038.76.2.724.777-.052.811,0,1.629-.019,2.443,0,.227.138.621-.3.573-.4-.042-.93.308-1.164-.353a3.867,3.867,0,0,0-2.788-2.656,3.442,3.442,0,0,0-3.7,1.3,3.537,3.537,0,0,0-.425,4.018.955.955,0,0,1,0,1.006,3.755,3.755,0,0,0,.794,4.473l-10.944.017" transform="translate(-10 -70.023)" fill="#f4a16a"/>
          <path id="Trazado_178674" data-name="Trazado 178674" d="M73.67,135l.131.125a7.569,7.569,0,0,1,1.129,2.644,44.045,44.045,0,0,1,1.861,10.082c.058.943.1,1.884.108,2.827.008.72.068.776.8.783.834.008,1.669-.011,2.5.01.261.007.588-.084.718.284l-10.83-.009a3.756,3.756,0,0,0,.672-4.707.546.546,0,0,1,.038-.6,3.74,3.74,0,0,0-2.674-5.563,3.861,3.861,0,0,0-4.1,2.535,1.1,1.1,0,0,1-1.351.549c-.191-.08-.173-.233-.173-.382,0-.991.009-1.981-.011-2.971-.012-.576.418-.41.7-.428A19.694,19.694,0,0,0,71.072,138a1.119,1.119,0,0,0,.711-1.429c-.024-.062-.055-.152-.016-.188A5.686,5.686,0,0,1,73.67,135" transform="translate(-33.086 -71.47)" fill="#f4a16a"/>
          <path id="Trazado_178675" data-name="Trazado 178675" d="M93.644,149.433a16.239,16.239,0,0,0-3.073-.1c-1.333-.043-1.135.172-1.145-1.161a43.794,43.794,0,0,0-2.22-13.46c-.212-.643-.455-1.276-.684-1.913a1.1,1.1,0,0,0,1.517-.318c.52-.618,1.063-1.217,1.635-1.867a41.194,41.194,0,0,1,4.084,18.836.17.17,0,0,1-.113-.021" transform="translate(-45.807 -69.152)" fill="#e58d53"/>
          <path id="Trazado_178676" data-name="Trazado 178676" d="M52.648,168.144a4.5,4.5,0,0,0,1.187-1.859.4.4,0,0,1,.451-.352c1.337.016,2.676.011,4.013,0,.224,0,.361.046.428.288a4.532,4.532,0,0,0,1.209,1.92H52.648" transform="translate(-27.873 -87.849)" fill="#f3a16a"/>
          <path id="Trazado_178677" data-name="Trazado 178677" d="M51.189,75.716a9.507,9.507,0,0,0-5.47-3.667,9.318,9.318,0,0,0-2.358-.226,38.833,38.833,0,0,0-5.539.135,9.124,9.124,0,0,0-7.5,7.53,1.2,1.2,0,0,1-.062.18c-.293-.084-.419-.332-.584-.524a16.271,16.271,0,0,1-3.679-8.125c-.444-2.668-.917-5.33-1.4-7.991-.057-.315-.016-.466.275-.619a3.788,3.788,0,0,0,1.882-2.5c1.265-4.414,2.571-8.815,3.87-13.219a5.214,5.214,0,0,1,4.948-3.767q5.847-.051,11.694,0a4.948,4.948,0,0,1,3.962,1.914,31.139,31.139,0,0,1,.924,4.515c.415,2.159.816,4.323,1.024,6.513a60.137,60.137,0,0,1,.344,6.907,1.7,1.7,0,0,1-.024.328c-.032.146-.032.347-.208.374-.236.036-.224-.217-.315-.35a4.45,4.45,0,0,0-3.445-3.591,4.265,4.265,0,0,0-5.008,3.774,1.094,1.094,0,0,0,.231.928.786.786,0,0,0,1.3-.263,2.686,2.686,0,0,0,.122-.646,2.572,2.572,0,0,1,5.081-.116c.043.193.073.39.126.58a.811.811,0,0,0,1.265.56c.171-.084.307-.266.536-.19a2.647,2.647,0,0,1,.169,1.793c-.157,1.815-.341,3.628-.65,5.426a19.03,19.03,0,0,1-.928,3.5c-.121.322-.213.68-.585.834" transform="translate(-13.009 -22.711)" fill="#f4a16a"/>
          <path id="Trazado_178678" data-name="Trazado 178678" d="M79.179,33.086a12.387,12.387,0,0,1,4.9,1.15c2.625,1.179,5.233,2.4,7.9,3.489,2.063.843,2.868,2.182,2.531,4.755a23.9,23.9,0,0,1-3.815,9.39,19.34,19.34,0,0,1-2,2.7,2.782,2.782,0,0,1-1.956,1.1,1.722,1.722,0,0,1-1.92-1.344q-1.66-5.587-3.305-11.179c-.212-.716-.437-1.427-.636-2.147a6.891,6.891,0,0,0-5.254-5.018c-.624-.168-.656-.386-.427-.889.667-1.462,1.95-1.861,3.387-2.006.2-.02.4,0,.594,0" transform="translate(-39.743 -17.513)" fill="#be7645"/>
          <path id="Trazado_178679" data-name="Trazado 178679" d="M83.029,65.17l.224.459a59.277,59.277,0,0,0-.219-6.072c-.117-1.546-.292-3.08-.558-4.605-.374-2.145-.758-4.288-1.12-6.435a5.114,5.114,0,0,1-.186-1.487,3.177,3.177,0,0,1,.9,1.5c1.352,4.59,2.721,9.176,4.05,13.773a3.686,3.686,0,0,0,1.765,2.274c.207.12.419.181.35.527-.684,3.446-1.081,6.948-1.953,10.355a14.717,14.717,0,0,1-3.329,6.074c-.068.078-.126.189-.308.155A10.291,10.291,0,0,0,81.134,77.9a15.92,15.92,0,0,0,1.441-5.075,42.512,42.512,0,0,0,.557-5.849c0-.21.072-.444-.123-.619a.9.9,0,0,1,.02-1.191" transform="translate(-42.954 -24.899)" fill="#e58d53"/>
          <path id="Trazado_178680" data-name="Trazado 178680" d="M56.054,128.663c-.574.592-1.357.932-1.887,1.575-.56-.7-.818-.75-1.634-.342A19.924,19.924,0,0,1,29.622,126.1c-.49-.5-.534-.837-.128-1.366.426-.554.758-1.179,1.233-1.7a17.552,17.552,0,0,0,26.3.017.577.577,0,0,1,.145.111c1.226,1.809,1.309,1.12-.036,2.939a7.817,7.817,0,0,1-.875.987,1.08,1.08,0,0,0-.211,1.575" transform="translate(-15.469 -65.137)" fill="#f44c5a"/>
          <path id="Trazado_178681" data-name="Trazado 178681" d="M43.853,157.629a1.784,1.784,0,0,1,.465-1.118c.774-.881.769-1.006-.018-1.929a1.689,1.689,0,0,1-.414-1.47,1.775,1.775,0,0,1,1.737-1.513,2.029,2.029,0,0,1,1.752,1.783c.123,1.2.3,1.36,1.516,1.36q2.807,0,5.613,0c1.057,0,1.3-.232,1.389-1.287a1.968,1.968,0,0,1,1.836-1.825,1.918,1.918,0,0,1,1.708,1.933,1.718,1.718,0,0,1-.58,1.143c-.631.653-.628,1.026-.019,1.691a1.781,1.781,0,0,1,.373,2.221,1.756,1.756,0,0,1-1.947.767,1.957,1.957,0,0,1-1.372-1.818c-.052-.872-.352-1.187-1.219-1.193q-3.038-.019-6.076,0c-.883.006-1.157.308-1.221,1.256a1.979,1.979,0,0,1-1.849,1.883,1.837,1.837,0,0,1-1.676-1.884" transform="translate(-23.217 -80.259)" fill="#f2f2fe"/>
          <path id="Trazado_178682" data-name="Trazado 178682" d="M66.506,109.885a7.139,7.139,0,0,1,4.4,6.693.566.566,0,0,1-.3.472,15.649,15.649,0,0,1-7.657,2.932c-.378.041-.512-.068-.485-.453a10.03,10.03,0,0,0,0-1.319c-.054-.867-.074-1.677.939-2.1.35-.144.534-.566.73-.914.583-1.032,1.163-2.065,1.766-3.086a3.449,3.449,0,0,0,.6-2.229" transform="translate(-33.062 -58.176)" fill="#fef2a6"/>
          <path id="Trazado_178683" data-name="Trazado 178683" d="M44.919,110a3.634,3.634,0,0,0,.638,2.219c.6,1,1.167,2.014,1.731,3.032a2.99,2.99,0,0,0,1.323,1.334.523.523,0,0,1,.352.553c-.015.836-.024,1.673,0,2.509.013.395-.171.424-.479.391a15.5,15.5,0,0,1-7.552-2.855.572.572,0,0,1-.256-.489A7.215,7.215,0,0,1,44.919,110" transform="translate(-21.531 -58.239)" fill="#fef2a6"/>
          <path id="Trazado_178684" data-name="Trazado 178684" d="M57.026,108.574c.659,0,1.319-.015,1.978,0a.938.938,0,0,1,.875,1.458c-.633,1.18-1.291,2.348-1.988,3.49a1,1,0,0,1-1.865-.024q-.928-1.593-1.829-3.2c-.586-1.047-.2-1.717.983-1.726.615,0,1.231,0,1.846,0" transform="translate(-28.551 -57.479)" fill="#be7545"/>
          <path id="Trazado_178685" data-name="Trazado 178685" d="M39.968,77.719a4.416,4.416,0,0,1,4.36,4.323.962.962,0,0,1-.905,1.08.986.986,0,0,1-1.072-1,2.432,2.432,0,0,0-2.38-2.42,2.378,2.378,0,0,0-2.439,2.351,1.065,1.065,0,0,1-1.15,1.064c-.609-.086-.9-.525-.834-1.272a4.416,4.416,0,0,1,4.422-4.126" transform="translate(-18.815 -41.146)" fill="#060606"/>
          <path id="Trazado_178686" data-name="Trazado 178686" d="M75.317,81.4l-.02,1.191a1.065,1.065,0,0,1-1.2.472c-.528-.147-.661-.549-.721-1.051a2.416,2.416,0,0,0-4.83.1.985.985,0,0,1-1.075.993.964.964,0,0,1-.9-1.079,4.392,4.392,0,0,1,8.58-1.26c.067.208.114.424.17.635" transform="translate(-35.242 -41.129)" fill="#060606"/>
          <path id="Trazado_178687" data-name="Trazado 178687" d="M82.252,0c1.024.8,1.1,1.276.384,2.415-.894,1.424-1.787,2.849-2.745,4.376.818,0,1.549,0,2.28,0,.75,0,1.195.355,1.206.94.012.6-.456.979-1.238.983-.962,0-1.924-.012-2.885.006-.645.012-1.255-.032-1.615-.668-.376-.664-.064-1.22.293-1.778C78.748,5,79.548,3.714,80.349,2.43c.085-.137.232-.25.216-.5-.675,0-1.349-.014-2.022,0-.543.015-1.049-.038-1.277-.618S77.378.355,77.761,0Z" transform="translate(-40.869)"/>
          <path id="Trazado_178688" data-name="Trazado 178688" d="M91.5,37.922c.845,0,1.567-.006,2.289,0,.75.008,1.169.365,1.165.975s-.4.943-1.182.946c-1.09.006-2.181.011-3.27,0a1.3,1.3,0,0,1-1.152-2.12c.943-1.522,1.9-3.035,2.925-4.665-.889,0-1.686.016-2.481-.005a.948.948,0,0,1-1-1.067.937.937,0,0,1,.976-.842c1.218-.018,2.439-.044,3.655.006a1.278,1.278,0,0,1,1.02,2.049c-.942,1.544-1.914,3.07-2.948,4.722" transform="translate(-47.003 -16.477)"/>
          <path id="Trazado_178689" data-name="Trazado 178689" d="M115.747,20.552c.836,0,1.557-.008,2.278,0,.757.011,1.173.368,1.166.977s-.416.937-1.189.943c-1.089.008-2.179.017-3.268,0a1.3,1.3,0,0,1-1.158-2.118c.84-1.36,1.7-2.708,2.546-4.064a.873.873,0,0,0,.246-.585c-.608,0-1.215,0-1.822,0a4.3,4.3,0,0,1-.7-.036.88.88,0,0,1-.809-.978.831.831,0,0,1,.835-.882c1.323-.03,2.651-.063,3.97.017a1.242,1.242,0,0,1,.846,2c-.831,1.366-1.7,2.711-2.544,4.066-.111.177-.214.36-.4.666" transform="translate(-59.843 -7.293)"/>
        </g>
      </g>
    </g>
  </g>
</svg>
