<svg xmlns="http://www.w3.org/2000/svg" xmlns:xlink="http://www.w3.org/1999/xlink" width="295" height="400" viewBox="0 0 295 400">
  <defs>
    <clipPath id="clip-path">
      <rect id="Rectángulo_44928" data-name="Rectángulo 44928" width="295" height="400" transform="translate(1128.674 965)" fill="#fff" stroke="#707070" stroke-width="1"/>
    </clipPath>
    <clipPath id="clip-path-2">
      <rect id="Rectángulo_45045" data-name="Rectángulo 45045" width="309.734" height="349.417" fill="none"/>
    </clipPath>
  </defs>
  <g id="_4" data-name="4" transform="translate(-1128.674 -965)" clip-path="url(#clip-path)">
    <g id="Grupo_174179" data-name="Grupo 174179" transform="translate(28 401.056)">
      <g id="Grupo_174173" data-name="Grupo 174173" transform="translate(1102.902 742.22)">
        <rect id="Rectángulo_44927" data-name="Rectángulo 44927" width="197.324" height="223.044" transform="translate(90.091)" fill="#6b8dfc"/>
        <path id="Rectángulo_44926" data-name="Rectángulo 44926" d="M127.129,0H287.415a0,0,0,0,1,0,0V127.129a0,0,0,0,1,0,0H0a0,0,0,0,1,0,0v0A127.129,127.129,0,0,1,127.129,0Z" transform="translate(0 95.915)" fill="#3c3fa7"/>
      </g>
      <g id="Grupo_174172" data-name="Grupo 174172" transform="translate(1085.009 524.944)">
        <g id="Grupo_174459" data-name="Grupo 174459" transform="translate(11.391 90.908)">
          <rect id="Rectángulo_45044" data-name="Rectángulo 45044" width="98.369" height="18.641" transform="translate(38.717 330.77)" fill="#ffcc3e"/>
          <g id="Grupo_174460" data-name="Grupo 174460" transform="translate(0 -0.005)">
            <g id="Grupo_174459-2" data-name="Grupo 174459" transform="translate(0 0)" clip-path="url(#clip-path-2)">
              <path id="Trazado_180422" data-name="Trazado 180422" d="M197.237,302.8h0" transform="translate(-140.671 -215.959)" fill="#731437"/>
              <path id="Trazado_180423" data-name="Trazado 180423" d="M289.909,442.359c6.055-1.142,14.7,1.092,18.385,4.274.073-.846.284-1.656,1.139-1.565a.943.943,0,0,1,.87,1.028c-1.147,5.816-1.52,12.167,2.021,17.263,3.508,5.048,10.322,9.8,5.884,18.39-6.794,12.988-34.065-.1-40.771-9.995a15.589,15.589,0,0,1-2.258-5.39c-.145-.515-.431-1.124-.172-1.559a.882.882,0,0,1,.306-.883,19.292,19.292,0,0,0,6.931-11.482l-.005.061.037-.136-.012,0a25.458,25.458,0,0,0,.479-5.992c-.034-.525-.225-1.506.054-1.9.458-.693,1.668-.583,1.753.727a8.836,8.836,0,0,1,5.36-2.844" transform="translate(-196.063 -315.277)" fill="#e7ba8d"/>
              <path id="Trazado_180424" data-name="Trazado 180424" d="M310.365,442.037c-2.616.175-6.043.99-7.445,3.114-.112-1.76-2.089-1.371-1.958,0a24.037,24.037,0,0,1-.34,6.944c9.5,3.884,19.639,1.465,27.825-4.842.127-.724.409-1.439-.01-1.919-.645-.774-1.919-.252-1.783,1.228-3.373-2.88-10.492-4.895-16.289-4.525m9.547,10.063c-.015,0-.024.01-.037.012.014,0,.023-.009.037-.012" transform="translate(-214.406 -315.233)" fill="#d69c60"/>
              <path id="Trazado_180425" data-name="Trazado 180425" d="M235.213,93.481c-5.865.037-13.815,6.88-15.716,12.538-9.022-5.445-22.163,1.5-15.583,11.766-15.85,10.431-14.327,36.313-2.191,48.868,1.054,1.077,9.589,5.415,15.5,7.646,20.225,7.622,43.073,8.506,64.554,7.1.776,1.488,13.139-3.362,11.324-11.725-.6-2.789-1.6-1.106,1.126-2.988,11.246-7.771,12.348-26.949.84-35.591,3.637-6.649-4.091-13.244-11-13.2-2.006.009-1.116.748-2.049-2.144-5.186-16.24-24.9-25.216-40.763-17.041a6.342,6.342,0,0,0-3.738-4.836,6.25,6.25,0,0,0-2.31-.391" transform="translate(-137.166 -66.67)" fill="#4a2424"/>
              <path id="Trazado_180426" data-name="Trazado 180426" d="M233.87,161.456a16.674,16.674,0,0,1,2.714-.069.258.258,0,0,0,.248.221,78.535,78.535,0,0,1,12.892,1.118c-1.841-.611,24.119,4.851,25.456,5.18a42.411,42.411,0,0,1,7.672,2.526,24.375,24.375,0,0,1,5.165,3.1c.077-.014,1.447,1.321,1.5,1.381a20.843,20.843,0,0,1,1.375,1.627c2.927,4.043,5.174,10.724,3.692,21.859a216.461,216.461,0,0,1-6.948,31.965c-22.117.3-44.642-2.472-63.809-13.16-4.92-10.357-7.213-22.536-4.014-33.5a41.778,41.778,0,0,1,1.535-4.17c.683-1.94,4.43-7.584,4.273-6.925l.028-.04h0a33.334,33.334,0,0,1,4.033-4.108c.362-.28-.557-.777-.213-.539-3.276-2.674-1.607-4.151-1.607-4.151a4.57,4.57,0,0,1,.674-.632,12.9,12.9,0,0,1,5.274-1.671c.03,0,.112-.01.052-.007m49,8.983c.04.017.012,0,0,0" transform="translate(-155.722 -115.081)" fill="#3d1d1d"/>
              <path id="Trazado_180427" data-name="Trazado 180427" d="M192.574,270.446c-4.076.025-8.31,3.512-9.7,8.2-2.182,7.285,4.747,17.32,10.123,17.23,2.617-.012,10.46-7.141,8.644-16.392-.884-4.5-4.536-9.083-9.07-9.043" transform="translate(-130.135 -192.883)" fill="#d69c60"/>
              <path id="Trazado_180428" data-name="Trazado 180428" d="M203.409,282.082a8.543,8.543,0,0,1,1-.066c5.552-.038,9.644,5.844,9.181,7.225a.976.976,0,0,1-1.792.124c-1.646-3.4-4.458-6.832-8.206-6.4a.45.45,0,1,1-.188-.88m4.955,2.526.041.038-.041-.038m.1.093h0" transform="translate(-144.817 -201.135)" fill="#4a2424"/>
              <path id="Trazado_180429" data-name="Trazado 180429" d="M238.807,156.985c-.279,0-.235.083-.508.083a.8.8,0,0,0-.531.106c-14.847,9.664-13.913,25.877-19.756,43.9-3.125,9.636-5.82,18.363.56,29.021,13.016,21.734,50.436,23.381,62.971,5.651,1.954-2.76-.6-.673,6.043-.714,5.52-.032,11.424-2.58,14.322-7.239,5.417-8.68-2.458-20.835-13.05-16.178,3.714-6.212,4.471-8.3,5.358-11.4,3.949-13.719.278-25.784-12.558-32.616-12.959-6.885-29.912-3.553-42.575-10.555a.545.545,0,0,0-.275-.06" transform="translate(-153.115 -111.962)" fill="#e7ba8d"/>
              <path id="Trazado_180430" data-name="Trazado 180430" d="M284.631,156.978c-1.2.007-4.358,2.869-5.215,3.7a49.72,49.72,0,0,0,8.258,13.2c-1.187-1.052,7.039,8.959,19.17,13.142-.929-.136,4.711,1.615,9.753,2.006a39.808,39.808,0,0,0,8.457-.268c.155-.017.346.138.264.515a10.594,10.594,0,0,0-.135,4.606s0,0,0,0a4.539,4.539,0,0,0,1.018,2.036h0a3.7,3.7,0,0,0,1.646,1.014h0a5.472,5.472,0,0,0,1.4.213.249.249,0,0,1,.17.108c.086.122-.626,3.24-.657,3.4a13.716,13.716,0,0,0-.094,5.994l0,0c1.2,4.643,3.733,5.5,7.705,2.661,7.223-12.616,8.379-27.679-2.377-37.541-11.21-10.232-27.057-8.194-40.139-11.46-3.154-.558-8.874-3.4-8.874-3.4a.781.781,0,0,0-.345.083" transform="translate(-199.282 -111.898)" fill="#d69c60"/>
              <path id="Trazado_180431" data-name="Trazado 180431" d="M439.015,285.877v0Z" transform="translate(-313.109 -203.885)" fill="#d69c60"/>
              <path id="Trazado_180432" data-name="Trazado 180432" d="M440.665,290.293h0" transform="translate(-314.271 -207.019)" fill="#d69c60"/>
              <path id="Trazado_180433" data-name="Trazado 180433" d="M445.141,295.053c-.017-.008-.029-.02-.045-.028.013.008.028.02.045.028" transform="translate(-317.447 -210.413)" fill="#d69c60"/>
              <path id="Trazado_180434" data-name="Trazado 180434" d="M469.006,361.821a.761.761,0,0,1,.2-.026c1.462-.013,2.307,8.59-3.959,13.45-.519.407-1.005-.307-.608-.617a11.117,11.117,0,0,0,4.083-10.574c-.139-.942-.605-1.986.286-2.233m-.246,5.488c-.011.061-.012.077,0,0m-.791,2.986c.009-.021,0-.011,0,0" transform="translate(-331.28 -258.034)" fill="#4a2424"/>
              <path id="Trazado_180435" data-name="Trazado 180435" d="M300.107,142.187a51.607,51.607,0,0,0-18.964,3.435,7.677,7.677,0,0,0-1.918.962.785.785,0,0,0-.748,1.065c6.381,17.054,25.554,28.728,44.131,27.507,7.853-.5,7.432-2.475,6,.725-2.193,4.856-2.242,9.689,2.969,10.57-.935,2.382-2.095,4.572-2.811,6.856-1.614,5.125.171,10.363,3.576,10.969,6.563,1.262,20.214-17.569,11.958-38.407-6.629-16.691-26.262-23.784-44.2-23.681" transform="translate(-198.577 -101.407)" fill="#4a2424"/>
              <path id="Trazado_180436" data-name="Trazado 180436" d="M301.214,287.133a.942.942,0,0,1,.114.01.309.309,0,0,1,.236.411,75.017,75.017,0,0,1-2.517,7.182c-.207.514-2.959,7.007-3.479,7.106a.373.373,0,0,1-.381-.14c-6.415-7.965-9.663,3.267-4.191,7.074a.747.747,0,0,1,.141,1.038c-1.381,1.787-6.672-5.964-2.81-10.556,1.991-2.35,4.839-1.533,7.145,1.531a74.9,74.9,0,0,0,5.519-13.462.273.273,0,0,1,.223-.194" transform="translate(-204.649 -204.784)" fill="#211010"/>
              <path id="Trazado_180437" data-name="Trazado 180437" d="M383.53,274.917c5.07-.957,12.6,5.853,10.341,9.237-2.894,4.336-15.11-3.738-12.173-8.145a2.719,2.719,0,0,1,1.831-1.092" transform="translate(-271.908 -196.007)" fill="#4a2424"/>
              <path id="Trazado_180438" data-name="Trazado 180438" d="M261.479,241.285c4.319-.815,8.742.817,8.832,3.28.164,4.889-13.522,5.407-13.7.495-.06-1.671,1.943-3.223,4.871-3.775" transform="translate(-183.015 -171.935)" fill="#4a2424"/>
              <path id="Trazado_180439" data-name="Trazado 180439" d="M147.4,506.151a.959.959,0,0,1,1.039.843c1.032,1.081,2.394,6.844,13.482,14.538l-.054-.032a29.6,29.6,0,0,0,6.93,3.777l-.005.011c10.018,3.316,17.052-1.609,15.335-11.709l.072.245a27.625,27.625,0,0,0-1.68-5.47,1.082,1.082,0,0,1,1.379-1.379c8.1,3.274,16.248,6.372,22.68,11.334,10.2,7.851,13.836,20.3,12.142,31.549-1.595,10.653-8.339,18.959-14.7,28.653-1.6,13.4-1.548,20.114-1.65,21.409h.011c-.416,20.993-5.037,61.765,1.77,91.978.733,3.253-24.288,6.653-72.936,2.527-.9-.079-6.251-.466-6.819-1.161-.962-.256-9.144-11.6-9.973-12.794a96.047,96.047,0,0,1-13.563-27.779c-25-77.789,24.347-142.107,46.523-146.533Z" transform="translate(-67.017 -360.982)" fill="#ff6248"/>
              <path id="Trazado_180440" data-name="Trazado 180440" d="M65.519,997.463s7.336,13.967,9.918,13.3c4.331-1.3-5.942-16.7-5.942-16.7s9.7,11.375,12.471,9.587S71.84,987.4,71.84,987.4s7.508,4.468,7.518.453-13.223-11.139-13.223-11.139-12.211-20.594-15.209-52.25c-.112-1.182-4.475.04-7.57-.712-8.679-2.109-26.387-10.07-26.82-10.145,6.976,39.492,32.569,74.01,32.569,74.01,1.469,6.46,9.883,25.341,12.719,24.639s-.844-12.732-.844-12.732,5.516,14.183,8.211,13.316-3.672-15.375-3.672-15.375" transform="translate(-11.794 -651.591)" fill="#e6ac71"/>
              <path id="Trazado_180441" data-name="Trazado 180441" d="M83.521,505.014a33.673,33.673,0,0,1,7.547-.17c.722,1.213,1.068,1.343.458,1.744,2.848,11.36-.411,20.789-7.31,31.425C73.621,554.3,63.95,560.58,55.815,584.6c-10.4,31.169-4.8,55.642-3.654,67.2.194,1.884-11.624,10.411-26.363,9.323a1.47,1.47,0,0,1-1.18-.813c-34.356-86.987,25.152-150.524,58.9-155.3" transform="translate(-10.187 -359.962)" fill="#ff6248"/>
              <path id="Trazado_180442" data-name="Trazado 180442" d="M28.024,661.008q-1.281,0-2.6-.1a1.626,1.626,0,0,1-1.3-.9c-8.337-21.109-11.66-42.136-9.877-62.5a117.614,117.614,0,0,1,15.579-49.279,108.918,108.918,0,0,1,26.126-30.566c9.259-7.31,18.916-11.98,27.189-13.15h0a33.832,33.832,0,0,1,7.58-.171l.073.007.038.063c.164.276.309.5.427.675a1.858,1.858,0,0,1,.363.708.539.539,0,0,1-.292.5c2.562,10.328.428,19.446-7.354,31.442-3.281,5.045-6.472,9.128-9.558,13.076-6.8,8.7-13.218,16.914-18.828,33.481-8.934,26.765-6.056,48.524-4.336,61.525.283,2.141.528,3.99.688,5.614.037.363-.262.876-.89,1.522-2.6,2.677-11.721,8.054-23.031,8.054M83.183,504.8h0c-8.225,1.163-17.832,5.813-27.052,13.091a108.641,108.641,0,0,0-26.056,30.485,117.336,117.336,0,0,0-15.541,49.159c-1.78,20.315,1.537,41.3,9.858,62.367a1.332,1.332,0,0,0,1.057.723c12.4.916,22.632-5.023,25.4-7.872.769-.792.823-1.169.81-1.293-.16-1.62-.4-3.466-.687-5.6-1.723-13.026-4.607-34.826,4.348-61.654,5.627-16.614,12.061-24.848,18.874-33.566,3.082-3.944,6.269-8.022,9.544-13.056,7.757-11.959,9.87-21.031,7.291-31.312l-.025-.1.085-.056c.24-.158.254-.228.249-.286a1.922,1.922,0,0,0-.317-.579c-.111-.168-.245-.371-.4-.623a33.479,33.479,0,0,0-7.442.175" transform="translate(-9.828 -359.607)" fill="#ff3614"/>
              <path id="Trazado_180443" data-name="Trazado 180443" d="M278.832,500.736a1.553,1.553,0,0,0-1.723-.849c-6.087,1.149,12.947,26.425,30.036,22.971,10.323-2.059,9.237-13.813,6.7-20.526a1.569,1.569,0,0,0-2.883.15c-.245.676.078,1.226.316,1.917,7.967,25.022-24.028,17.158-32.444-3.664m14.955,16.437c.367.19.311.165,0,0m6.32,2.336h0" transform="translate(-196.81 -356.503)" fill="#fafafa"/>
              <path id="Trazado_180444" data-name="Trazado 180444" d="M447.749,575.173c.026-.091.015-.066,0,0" transform="translate(-319.339 -410.176)" fill="#d08062"/>
              <path id="Trazado_180445" data-name="Trazado 180445" d="M345.956,381.516c-.246,2.624,3.539,5.124,8.453,5.585s9.1-1.294,9.342-3.918-3.539-5.124-8.453-5.584-9.1,1.294-9.343,3.918" transform="translate(-246.731 -269.253)" fill="#d69c60"/>
              <path id="Trazado_180446" data-name="Trazado 180446" d="M223.136,331.6c-1.274,2.307,1.2,6.111,5.518,8.5s8.856,2.448,10.129.141-1.2-6.112-5.518-8.5-8.857-2.448-10.13-.14" transform="translate(-158.904 -235.296)" fill="#d69c60"/>
              <path id="Trazado_180447" data-name="Trazado 180447" d="M363.072,344.91c-.528,1.774.225,3.563,1.68,4s3.063-.654,3.591-2.428-.225-3.563-1.68-4-3.063.654-3.591,2.429" transform="translate(-258.826 -244.192)" fill="#211010"/>
              <path id="Trazado_180448" data-name="Trazado 180448" d="M262.093,307.475c-.527,1.774.225,3.563,1.681,4s3.063-.654,3.591-2.428-.225-3.563-1.68-4-3.064.654-3.591,2.429" transform="translate(-186.807 -217.493)" fill="#211010"/>
              <path id="Trazado_180449" data-name="Trazado 180449" d="M293.475,399.243c-2.717-.085-4.148-2.074-4.91-4.132a34.2,34.2,0,0,1,12.158-.414c-1.415,2.089-3.847,4.653-7.248,4.547" transform="translate(-205.807 -281.253)" fill="#d14f8e"/>
              <path id="Trazado_180450" data-name="Trazado 180450" d="M300.022,381.384a16.384,16.384,0,0,1-1.454,2.611,34.2,34.2,0,0,0-12.158.415,15.548,15.548,0,0,1-.867-4.6c5.719-1.624,14.48,1.577,14.48,1.577" transform="translate(-203.651 -270.552)" fill="#211010"/>
              <path id="Trazado_180451" data-name="Trazado 180451" d="M131.089,514.325s-10.256,6.468-7.08,12.413,8.93,12.313,11.121,11.358-5.8-14.216-5.8-14.216,9.694,14.129,11.695,12.8-6.062-15.658-6.062-15.658,7.3,12.825,10.308,11.927-5.806-14.844-5.806-14.844,7.992,12.947,10.429,11.236-5.863-14.027-5.863-14.027,4.228,3.364,6.479,1.906-2.109-6.014-6.7-6.99-12.72,4.1-12.72,4.1" transform="translate(-88.009 -363.809)" fill="#e6ac71"/>
              <path id="Trazado_180452" data-name="Trazado 180452" d="M485.271,395.573l.379-.538c-4.9-3.456-5.977-10.235-4.869-15.42,1.242-5.816,4.766-10.889,7.874-15.365,3.353-4.827,6.8-9.786,8.159-15.515,1.207-5.08.669-10.37.149-15.486-.248-2.438-.5-4.958-.568-7.421a48.213,48.213,0,0,1,13.537-34.637c1.753-1.8,3.722-3.566,5.625-5.269,5.77-5.163,11.737-10.5,13-18.069l-.649-.108c-1.226,7.339-7.1,12.6-12.791,17.687-1.912,1.711-3.89,3.48-5.658,5.3a48.873,48.873,0,0,0-13.723,35.112c.064,2.488.322,5.021.571,7.471.514,5.062,1.047,10.3-.135,15.268-1.333,5.607-4.741,10.514-8.037,15.26-3.166,4.557-6.73,9.688-8,15.634-1.152,5.4-.012,12.465,5.134,16.094" transform="translate(-342.146 -190.958)" fill="#211010"/>
              <path id="Trazado_180453" data-name="Trazado 180453" d="M486.745,387.079c6.024-7.855,10.731-17.6,11.5-23.674,1.426-11.257-8.241-26.339,9.129-45.647,12.528-13.927,10.678-18.551,10.678-18.551l108.019,3.455s1.47,17,7.136,26.33,15.716,16.876,8.15,34.9c-6.208,14.787,2.562,30.657,7.3,39.638,4.669,8.847,1.335,17.273-7.5,36.7,0,0-4.993,2.4-9,4.027l-.566-8.763c-1.508.458-3.814,10.226-5.592,10.56a45.678,45.678,0,0,1-5.635.7c3.355-6.5,4.74-13.422,2.683-19.35-7.38-24.1-11.68-47.819-1.341-71.787,7.5-18.008-5.041-34.34-20.05-39.4-21.039-6.878-40.072,3.35-59.606,9.3-6.424,1.293-14.9,2.325-18.77,8.155-7.605,10.622,1.984,25.528-4.726,37.316-4.131,7.9-13.265,14.117-17.527,23.056-4.737,8.881-6.086,18.7-4.992,28.625l-.4.608a19.6,19.6,0,0,1-16.96-7.582c-1.579-2.035-2.489-14.849,8.069-28.616" transform="translate(-340.714 -213.396)" fill="#211010"/>
              <path id="Trazado_180454" data-name="Trazado 180454" d="M545.685,430.642c4.262-8.939,13.4-15.154,17.527-23.056,6.71-11.788-2.879-26.694,4.726-37.316,3.868-5.829,12.346-6.862,18.77-8.155,19.534-5.951,38.566-16.179,59.606-9.3,15.009,5.06,27.547,21.393,20.05,39.4-10.339,23.967-6.039,47.681,1.341,71.786,2.057,5.929.672,12.85-2.683,19.35a45.12,45.12,0,0,1-10.566-.592l-.578-18.935-7.039,18.022s-11.328,4.7-48.318-7.958-44.3-7.226-46.507-14.008,7.569-29.411,7.569-29.411l-18.89,28.8c-1.094-9.93.255-19.744,4.992-28.625" transform="translate(-385.373 -249.994)" fill="#261313"/>
              <path id="Trazado_180455" data-name="Trazado 180455" d="M1009.781,439.971a40.536,40.536,0,0,0,8.624-36.42,82.178,82.178,0,0,0-3.457-9.8c-2.1-5.23-4.267-10.638-4.38-16.3-.094-4.69,1.23-9.43,2.51-14.014,1.733-6.207,3.526-12.626,1.723-18.867-1.481-5.126-5.14-9.166-8.679-13.072a64.441,64.441,0,0,1-5.7-6.909,31.061,31.061,0,0,1-4.57-23.474l-.644-.138a31.731,31.731,0,0,0,4.669,23.981,64.836,64.836,0,0,0,5.757,6.982c3.649,4.028,7.095,7.833,8.534,12.813,1.751,6.061.063,12.107-1.724,18.507-1.293,4.63-2.63,9.418-2.534,14.2.115,5.779,2.308,11.244,4.427,16.528a81.589,81.589,0,0,1,3.431,9.719,39.869,39.869,0,0,1-8.483,35.821Z" transform="translate(-709.322 -214.661)" fill="#211010"/>
              <path id="Trazado_180456" data-name="Trazado 180456" d="M535.109,653.939s-.755,3.041-2.277,7.852a58.561,58.561,0,0,1-21.751-9.405c1.3-3.861,2.383-7.341,3-9.8Z" transform="translate(-364.508 -458.295)" fill="#c78743"/>
              <path id="Trazado_180457" data-name="Trazado 180457" d="M469.106,740.665l1.732-35.6s6.2-16.085,10.306-28.308a58.561,58.561,0,0,0,21.751,9.406c-4.109,12.986-18.167,40.535-33.789,54.5" transform="translate(-334.571 -482.67)" fill="#e6ac71"/>
              <path id="Trazado_180458" data-name="Trazado 180458" d="M545.27,880.132l73.373,3.059s15.462,50.585,25.54,93.943H518.344c6.567-24.728,15.644-78.39,26.926-97" transform="translate(-369.688 -627.717)" fill="#ff6248"/>
              <path id="Trazado_180459" data-name="Trazado 180459" d="M684.428,866.539s-.2,3.71-.424,5.06-62.909,1.095-74.016-2.172l1.124-5.741s30.915,4.766,73.315,2.852" transform="translate(-435.049 -615.988)" fill="#ff3614"/>
              <path id="Trazado_180460" data-name="Trazado 180460" d="M871.575,936.569a.343.343,0,0,0,.324-.449,6.866,6.866,0,0,0-.69-1.095c-2.326-3.408-9.4-13.781-12.954-31.4a.344.344,0,1,0-.674.135,85.835,85.835,0,0,0,13.06,31.654c.294.43.57.835.609.933a.354.354,0,0,0,.326.223" transform="translate(-611.63 -644.274)" fill="#ff3614"/>
              <path id="Trazado_180461" data-name="Trazado 180461" d="M585.27,923.676a.344.344,0,0,0,.3-.173,214.94,214.94,0,0,0,11.448-23.443.344.344,0,0,0-.639-.255,214.153,214.153,0,0,1-11.407,23.358.343.343,0,0,0,.3.513" transform="translate(-417.175 -641.594)" fill="#ff3614"/>
              <path id="Trazado_180462" data-name="Trazado 180462" d="M899.2,674.385l23.923-13.67s1.615,4.678,3.594,11.226c-7.493,5.96-16.092,10.959-25.09,12.607Z" transform="translate(-641.316 -471.227)" fill="#c78743"/>
              <path id="Trazado_180463" data-name="Trazado 180463" d="M875.724,712.464c9-1.647,17.6-6.647,25.09-12.607,3.482,11.525,8.087,28.848,6.987,36.682-1.065,7.585-32.465,54.647-36.189,48.63-5.768-9.32-8.729-22.075-8.729-22.075,5.61-7.628,17.9-29.426,17.9-29.426Z" transform="translate(-615.416 -499.143)" fill="#e6ac71"/>
              <path id="Trazado_180464" data-name="Trazado 180464" d="M601.458,524.985s18.781,3.517,29.912,9.094,18.67,21.982,18.67,21.982-7.842,12-21.441,15.824a199.555,199.555,0,0,0,.757,20.162c.932,8.513,3.4,29.165-6.947,31.565s-32.226,1.753-43.3,2.425-25.134-1.525-32.412-4.988-10.593-6.824-10.708-19.037,4.2-36.4,4.2-36.4-13.379-3-20.881-15.428c0,0,12.828-21.664,29.033-24.134,13.9-2.119,29.5-4.821,53.11-1.066" transform="translate(-370.38 -373.087)" fill="#fff"/>
              <path id="Trazado_180465" data-name="Trazado 180465" d="M710.975,525.44s13.826-1.492,20.282,2.14a22.788,22.788,0,0,1-21.774,10.078c-15.108-1.464-18.024-13.114-18.024-13.114s7.452-1.239,19.515.9" transform="translate(-493.156 -373.853)" fill="#244eff"/>
              <path id="Trazado_180466" data-name="Trazado 180466" d="M899.2,653.14c-.8.272-.338,4.359-.338,4.359s14.027,1.383,25.992-15.2c0,0,.527-4.361-4.973-5.256,0,0-8.6,12.011-20.681,16.1" transform="translate(-640.984 -454.341)" fill="#244eff"/>
              <path id="Trazado_180467" data-name="Trazado 180467" d="M529.907,627.93c.763.257-.806,4.363-.806,4.363s-13.231,1.639-24.841-14.728c0,0-.578-4.35,4.6-5.346,0,0,9.551,11.841,21.043,15.711" transform="translate(-359.629 -436.639)" fill="#244eff"/>
              <path id="Trazado_180468" data-name="Trazado 180468" d="M660.745,714.036c8.154,0,15.154-.4,15.281-.41l-.06-1.016c-.229.015-22.97,1.323-34.16-.807-5.232-1-12.46-1.1-19.451-1.2-8.386-.12-16.306-.234-20.254-1.811a37.48,37.48,0,0,0-13.763-2.411,18.54,18.54,0,0,1-2.27-.119l-.172,1a18.739,18.739,0,0,0,2.422.135,36.547,36.547,0,0,1,13.406,2.339c4.122,1.646,12.133,1.76,20.616,1.883,6.947.1,14.13.2,19.276,1.182,5.079.966,12.487,1.233,19.129,1.233" transform="translate(-417.867 -503.713)" fill="#244eff"/>
              <path id="Trazado_180469" data-name="Trazado 180469" d="M672.715,697.222c3.126,0,5.053-.128,5.1-.132l-.07-1.013a112.277,112.277,0,0,1-20.734-.937c-3.517-.494-6.318-.975-8.791-1.4-5.607-.963-9.315-1.6-15.373-1.411l-1.72.056c-8.012.263-16.3.532-25.63-1.491a114.773,114.773,0,0,0-16.2-2.51l-.054,1.015a113.84,113.84,0,0,1,16.04,2.49c9.457,2.048,17.8,1.777,25.878,1.513l1.718-.055c5.961-.186,9.624.444,15.169,1.4,2.479.425,5.29.908,8.822,1.4a116.2,116.2,0,0,0,15.85,1.076" transform="translate(-420.249 -490.96)" fill="#244eff"/>
              <path id="Trazado_180470" data-name="Trazado 180470" d="M682.436,679.729l.118-.866c-.142-.02-14.347-1.962-24.289-2.806-2.635-.223-6.778-.351-12.023-.513-14.543-.447-36.52-1.124-50.639-4.757l-.218.847c14.213,3.658,36.249,4.336,50.83,4.786,5.231.161,9.364.288,11.975.509,9.919.843,24.1,2.781,24.244,2.8" transform="translate(-424.635 -478.41)" fill="#244eff"/>
              <path id="Trazado_180471" data-name="Trazado 180471" d="M667.261,753.977a.224.224,0,0,0,.128-.409A79.747,79.747,0,0,1,645.122,730.1a.225.225,0,0,0-.383.237,80.219,80.219,0,0,0,22.394,23.6.223.223,0,0,0,.128.04" transform="translate(-459.81 -520.638)" fill="#d175a2"/>
              <path id="Trazado_180472" data-name="Trazado 180472" d="M640.064,769.986a.225.225,0,0,0,.169-.373,72.686,72.686,0,0,1-14.1-24.193.225.225,0,1,0-.425.146A73.138,73.138,0,0,0,639.9,769.91a.223.223,0,0,0,.169.076" transform="translate(-446.249 -531.531)" fill="#d175a2"/>
              <path id="Trazado_180473" data-name="Trazado 180473" d="M718.69,486.729a47.5,47.5,0,0,1-6.16-2.275l.2-10.56,26.895,2.078-.048,10.627a36.318,36.318,0,0,1-20.885.13" transform="translate(-508.183 -337.984)" fill="#c78743"/>
              <path id="Trazado_180474" data-name="Trazado 180474" d="M718.6,512.99a36.318,36.318,0,0,0,20.885-.13l-.03,6.583c-10.152,7.588-22.676,4.865-27.12-3.154l.1-5.573a47.517,47.517,0,0,0,6.16,2.275" transform="translate(-508.042 -364.245)" fill="#e6ac71"/>
              <path id="Trazado_180475" data-name="Trazado 180475" d="M886,389.855l5.116-16.15s15.08-5,15.419,10.333S890.767,399.69,886,389.855" transform="translate(-631.906 -265.972)" fill="#e6ac71"/>
              <path id="Trazado_180476" data-name="Trazado 180476" d="M648.065,189.327s-7.685,14.377-10.479,36.437c-2.18,17.212,9.429,35.8,30.27,39.827,19.589,3.784,41.117-1.569,50.782-28.492s3.738-50.088-20.62-59.428-42.646-4.88-49.953,11.656" transform="translate(-454.547 -123.285)" fill="#e6ac71"/>
              <path id="Trazado_180477" data-name="Trazado 180477" d="M785.721,415.357c.134,2.971,4.754,5.175,10.317,4.924s9.965-2.864,9.83-5.835-4.753-5.175-10.317-4.923-9.965,2.864-9.83,5.834" transform="translate(-560.381 -292.06)" fill="#c78743"/>
              <path id="Trazado_180478" data-name="Trazado 180478" d="M640.208,380.339c-1.064,2.777,2.29,6.643,7.491,8.635s10.279,1.355,11.343-1.422-2.29-6.644-7.491-8.635-10.279-1.355-11.343,1.422" transform="translate(-456.462 -269.418)" fill="#c78743"/>
              <path id="Trazado_180479" data-name="Trazado 180479" d="M817.277,325.88s3.427-2.226-2.449-6.549-8.231-3.925-9.52-2.4c-1.177,1.387-.062,3.9,3.286,6.264,4.02,2.835,6.81,3.984,8.683,2.69" transform="translate(-574.028 -225.28)" fill="#211010"/>
              <path id="Trazado_180480" data-name="Trazado 180480" d="M674.386,299.069s-1.824-3.437,5.63-4.687,9.309.118,9.632,2.011c.3,1.727-2.02,3.452-6.214,4.074-5.034.747-8.093.548-9.049-1.4" transform="translate(-480.838 -209.611)" fill="#211010"/>
              <path id="Trazado_180481" data-name="Trazado 180481" d="M798.887,373.986c-.313,2.065.807,3.947,2.5,4.2s3.322-1.209,3.634-3.274-.807-3.947-2.5-4.2-3.321,1.209-3.634,3.274" transform="translate(-569.737 -264.373)" fill="#211010"/>
              <path id="Trazado_180482" data-name="Trazado 180482" d="M680.2,347.889c-.313,2.065.806,3.947,2.5,4.2s3.321-1.209,3.634-3.274-.806-3.947-2.5-4.2-3.322,1.209-3.635,3.274" transform="translate(-485.09 -245.761)" fill="#211010"/>
              <path id="Trazado_180483" data-name="Trazado 180483" d="M901.082,402.95a.307.307,0,0,0,.292-.426c-.031-.075-3.1-7.53,2.138-10.808a6.8,6.8,0,0,1,5.329-1.1,8.476,8.476,0,0,1,4.644,3.621.307.307,0,0,0,.531-.307,8.948,8.948,0,0,0-5.022-3.908,7.392,7.392,0,0,0-5.808,1.178c-5.678,3.556-2.412,11.487-2.378,11.567a.307.307,0,0,0,.274.187" transform="translate(-641.777 -278.03)" fill="#52180d"/>
              <path id="Trazado_180484" data-name="Trazado 180484" d="M908.94,409.477a.307.307,0,0,0,.2-.548c-.05-.04-5.092-3.945-9.022-.228a.307.307,0,1,0,.421.447c3.547-3.355,8.173.227,8.219.264a.308.308,0,0,0,.182.065" transform="translate(-641.903 -290.345)" fill="#52180d"/>
              <path id="Trazado_180485" data-name="Trazado 180485" d="M723.393,321.058a.307.307,0,0,0,.247-.547,8.3,8.3,0,0,1-2.786-4.023c-.473-1.867.332-4.346,1.688-5.2a2.164,2.164,0,0,1,2.677.408c.03.024.076.067.138.123,3.233,2.94,5.106,2.334,6.11,1.308,1.84-1.884,4.352-19.34,4.633-21.324a.311.311,0,0,0-.262-.347.307.307,0,0,0-.347.262c-.754,5.336-3.026,19.508-4.464,20.98-1.183,1.211-2.953.765-5.258-1.333-.071-.064-.124-.113-.158-.141a2.764,2.764,0,0,0-3.4-.455c-1.581,1-2.5,3.741-1.956,5.871A8.769,8.769,0,0,0,723.275,321a.3.3,0,0,0,.118.054" transform="translate(-513.584 -207.866)" fill="#52180d"/>
              <path id="Trazado_180486" data-name="Trazado 180486" d="M729.779,423.266c-2.081.224-3.384-1.141-4.184-2.629a26.325,26.325,0,0,1,9.227-1.609c-.857,1.744-2.439,3.957-5.044,4.238" transform="translate(-517.501 -298.853)" fill="#d14f8e"/>
              <path id="Trazado_180487" data-name="Trazado 180487" d="M732.792,410.1a12.64,12.64,0,0,1-.831,2.146,26.324,26.324,0,0,0-9.228,1.609,11.967,11.967,0,0,1-1.151-3.418c4.188-1.847,11.209-.337,11.209-.337" transform="translate(-514.64 -292.071)" fill="#211010"/>
              <path id="Trazado_180488" data-name="Trazado 180488" d="M709.7,208.455s-36.953-16.331-41.578-48.8c0,0-38.632,36.79-49.768,23,0,0,.115-36.225,27.1-44.639,14.8-4.616,25.6-.631,25.6-.631,19.443-1.028,29.89.816,48.544,20.448,19.206,20.214,10.471,62.165-9.9,50.623" transform="translate(-441.019 -96.842)" fill="#211010"/>
              <path id="Trazado_180489" data-name="Trazado 180489" d="M845.038,251.8l0-.658A66.485,66.485,0,0,1,778.555,192.1l-.654.074A67.142,67.142,0,0,0,845.038,251.8" transform="translate(-554.806 -137.003)" fill="#211010"/>
              <path id="Trazado_180490" data-name="Trazado 180490" d="M627.528,207.035a73.96,73.96,0,0,0,57.125-43.769l-.606-.256a73.292,73.292,0,0,1-56.608,43.372Z" transform="translate(-447.495 -116.26)" fill="#211010"/>
              <path id="Trazado_180491" data-name="Trazado 180491" d="M724.906,193.411s5.685-40.912-24.46-53.119c-40.273-16.309-57.814,17.13-61.254,28.65a.794.794,0,0,1-1.551-.168c-.377-3.869.949-10.943,5.93-21.748,6.464-14.025,16.163-22.785,39.556-21.732,18.762.845,43.62,13.9,47.753,35.8,3.54,18.752-3.2,37.5-5.974,32.321" transform="translate(-454.729 -89.299)" fill="#244eff"/>
              <path id="Trazado_180492" data-name="Trazado 180492" d="M909.891,199.942a.337.337,0,0,0,.291-.506,49.671,49.671,0,0,0-7.272-9.644.337.337,0,0,0-.485.469,48.974,48.974,0,0,1,7.173,9.513.337.337,0,0,0,.292.169" transform="translate(-643.551 -135.287)" fill="#1b3abf"/>
              <path id="Trazado_180493" data-name="Trazado 180493" d="M920.443,200.087a.342.342,0,0,0,.15-.035.337.337,0,0,0,.152-.453,25.538,25.538,0,0,0-9.64-10.423.337.337,0,1,0-.346.579A24.853,24.853,0,0,1,920.14,199.9a.337.337,0,0,0,.3.187" transform="translate(-649.444 -134.887)" fill="#1b3abf"/>
              <path id="Trazado_180494" data-name="Trazado 180494" d="M849,157.413a.337.337,0,0,0,.152-.639,49.665,49.665,0,0,0-11.366-4.087.337.337,0,0,0-.149.658,48.955,48.955,0,0,1,11.211,4.032.336.336,0,0,0,.152.036" transform="translate(-597.224 -108.891)" fill="#1b3abf"/>
              <path id="Trazado_180495" data-name="Trazado 180495" d="M843.724,144.437a.337.337,0,0,0,.225-.589,25.54,25.54,0,0,0-12.812-6.118.337.337,0,1,0-.108.666,24.862,24.862,0,0,1,12.47,5.954.336.336,0,0,0,.225.086" transform="translate(-592.496 -98.226)" fill="#1b3abf"/>
              <path id="Trazado_180496" data-name="Trazado 180496" d="M878.1,103.037s-11-16.281,1.75-32.3c0,0,13.732,11.308-1.75,32.3" transform="translate(-623.124 -50.449)" fill="#244eff"/>
              <path id="Trazado_180497" data-name="Trazado 180497" d="M889.767,163.122s13.768-14.021,32-4.706c0,0-8.352,15.706-32,4.706" transform="translate(-634.59 -110.704)" fill="#244eff"/>
              <path id="Trazado_180498" data-name="Trazado 180498" d="M885.841,130.165a.325.325,0,0,0,.106-.017.338.338,0,0,0,.214-.426,23.8,23.8,0,0,1-.141-14.436.337.337,0,0,0-.644-.2,24.487,24.487,0,0,0,.145,14.848.338.338,0,0,0,.32.231" transform="translate(-630.687 -81.91)" fill="#1b3abf"/>
              <path id="Trazado_180499" data-name="Trazado 180499" d="M893.774,127.707a.337.337,0,0,0,.332-.281,121.827,121.827,0,0,0,1.519-13.817.337.337,0,0,0-.319-.354.333.333,0,0,0-.354.319,120.937,120.937,0,0,1-1.51,13.74.337.337,0,0,0,.276.389.326.326,0,0,0,.057,0" transform="translate(-637.207 -80.772)" fill="#1b3abf"/>
              <path id="Trazado_180500" data-name="Trazado 180500" d="M913.83,172.546a18.131,18.131,0,0,0,2.585-.237l8.761-1.281a.337.337,0,0,0,.285-.383.341.341,0,0,0-.383-.285l-8.76,1.281c-1.884.275-3.7.454-5.116-.386a.337.337,0,0,0-.344.581,5.7,5.7,0,0,0,2.973.71" transform="translate(-649.514 -121.499)" fill="#1b3abf"/>
              <path id="Trazado_180501" data-name="Trazado 180501" d="M916.243,182.124a24.3,24.3,0,0,0,7.841-1.289.337.337,0,1,0-.218-.638,23.724,23.724,0,0,1-12.894.656.337.337,0,1,0-.153.657,23.994,23.994,0,0,0,5.424.614" transform="translate(-649.418 -128.504)" fill="#1b3abf"/>
              <path id="Trazado_180502" data-name="Trazado 180502" d="M873.324,163.293s-7.389-5.446-2.826-9.778,12.778,2.716,13.966,6.117-5.454,8.506-11.14,3.661" transform="translate(-619.786 -108.512)" fill="#1b3abf"/>
              <path id="Trazado_180503" data-name="Trazado 180503" d="M849.967,537.944s10.88,5.352,8.348,11.6-7.583,13.185-9.863,12.465,4.273-14.748,4.273-14.748-8.152,15.071-10.282,13.958,4.38-16.21,4.38-16.21-5.909,13.523-9,12.947,4.211-15.373,4.211-15.373-6.584,13.716-9.188,12.272,4.354-14.567,4.354-14.567-3.85,3.79-6.242,2.578,1.464-6.2,5.926-7.657,13.08,2.735,13.08,2.735" transform="translate(-592.127 -381.496)" fill="#e6ac71"/>
            </g>
          </g>
        </g>
        <g id="Grupo_174184" data-name="Grupo 174184" transform="translate(36.885 50)">
          <g id="Grupo_174169" data-name="Grupo 174169" transform="translate(197.375 19.753)">
            <g id="Grupo_174170" data-name="Grupo 174170" transform="translate(0 0)">
              <path id="Trazado_178812" data-name="Trazado 178812" d="M39.4,92.769l-9.942-.61L13.6,110.911l7.164-19.286-7.9-.485C6.4,90.745,1.333,86.131,1.1,80.449L.078,55.02a95.705,95.705,0,0,1,.958-17.893L4.741,12.12C5.857,4.59,13.633-.763,22.215.09L40.242,1.881c9.22.916,16.4,7.459,17.113,15.592l1,11.481a148.263,148.263,0,0,1-2.1,40.887L53.772,82.822C52.608,88.894,46.392,93.2,39.4,92.769" transform="translate(-0.001 0)" fill="#fcf2ca"/>
              <path id="Trazado_178813" data-name="Trazado 178813" d="M47.967,105.836l-10.074-.582L21.816,123.167l7.258-18.423-8.007-.463C14.53,103.9,9.392,99.5,9.16,94.067L8.121,69.776a86.27,86.27,0,0,1,.971-17.092l3.754-23.889C13.976,21.6,21.854,16.489,30.551,17.3l18.265,1.711c9.342.875,16.618,7.126,17.339,14.895l1.018,10.967a133.675,133.675,0,0,1-2.127,39.057l-2.522,12.4C61.344,102.134,55.046,106.245,47.967,105.836Z" transform="translate(-6.374 -13.646)" fill="none" stroke="#483644" stroke-miterlimit="10" stroke-width="1"/>
            </g>
          </g>
          <g id="Grupo_174171" data-name="Grupo 174171" transform="translate(0 0)">
            <g id="Grupo_174170-2" data-name="Grupo 174170">
              <path id="Trazado_178812-2" data-name="Trazado 178812" d="M19.52,92.768l9.942-.61,15.867,18.752L38.165,91.625l7.9-.485c6.452-.4,11.523-5.009,11.752-10.691l1.025-25.429a95.7,95.7,0,0,0-.958-17.893L54.183,12.12C53.067,4.59,45.291-.763,36.709.09L18.682,1.881C9.462,2.8,2.281,9.34,1.569,17.473l-1,11.481a148.262,148.262,0,0,0,2.1,40.886L5.153,82.822c1.164,6.072,7.38,10.375,14.367,9.946" transform="translate(2.447 0)" fill="#c4d1ff"/>
              <path id="Trazado_178813-2" data-name="Trazado 178813" d="M27.819,105.835l10.074-.582L53.97,123.166l-7.258-18.423,8.007-.463c6.537-.378,11.676-4.785,11.908-10.213l1.039-24.292a86.268,86.268,0,0,0-.971-17.092L62.941,28.795C61.81,21.6,53.932,16.489,45.235,17.3L26.97,19.015c-9.342.875-16.618,7.126-17.339,14.895L8.613,44.876A133.674,133.674,0,0,0,10.74,83.933l2.522,12.4C14.442,102.134,20.74,106.245,27.819,105.835Z" transform="translate(-8.042 -13.646)" fill="none" stroke="#483644" stroke-miterlimit="10" stroke-width="1"/>
            </g>
          </g>
          <path id="Trazado_178819" data-name="Trazado 178819" d="M-9.939-1.5A4.323,4.323,0,0,1-9.77-2.727a2.929,2.929,0,0,1,.506-1,2.271,2.271,0,0,1,.854-.663,2.842,2.842,0,0,1,1.192-.236,3.306,3.306,0,0,1,.933.135,2.148,2.148,0,0,1,.821.45,2.346,2.346,0,0,1,.585.809A2.99,2.99,0,0,1-4.655-2,3.438,3.438,0,0,1-4.9-.647a2.67,2.67,0,0,1-.675.967,2.854,2.854,0,0,1-.978.573,3.44,3.44,0,0,1-1.135.191A2.3,2.3,0,0,1-8.826.837,1.965,1.965,0,0,1-9.512.218a2.265,2.265,0,0,1-.337-.832A4.637,4.637,0,0,1-9.939-1.5Zm7.577,0a4.323,4.323,0,0,1,.169-1.225,2.929,2.929,0,0,1,.506-1,2.271,2.271,0,0,1,.854-.663A2.842,2.842,0,0,1,.359-4.627a3.306,3.306,0,0,1,.933.135,2.148,2.148,0,0,1,.821.45,2.346,2.346,0,0,1,.585.809A2.99,2.99,0,0,1,2.922-2,3.438,3.438,0,0,1,2.674-.647,2.67,2.67,0,0,1,2,.319a2.854,2.854,0,0,1-.978.573,3.44,3.44,0,0,1-1.135.191A2.3,2.3,0,0,1-1.249.837,1.965,1.965,0,0,1-1.935.218a2.265,2.265,0,0,1-.337-.832A4.637,4.637,0,0,1-2.362-1.5Zm7.577,0a4.323,4.323,0,0,1,.169-1.225,2.929,2.929,0,0,1,.506-1,2.271,2.271,0,0,1,.854-.663,2.842,2.842,0,0,1,1.192-.236,3.306,3.306,0,0,1,.933.135,2.148,2.148,0,0,1,.821.45,2.346,2.346,0,0,1,.585.809A2.99,2.99,0,0,1,10.5-2a3.438,3.438,0,0,1-.247,1.349,2.67,2.67,0,0,1-.675.967A2.854,2.854,0,0,1,8.6.893a3.44,3.44,0,0,1-1.135.191A2.3,2.3,0,0,1,6.328.837,1.965,1.965,0,0,1,5.642.218,2.265,2.265,0,0,1,5.3-.614,4.637,4.637,0,0,1,5.215-1.5Z" transform="translate(25.994 56.752)" fill="#12263f"/>
          <path id="Trazado_178820" data-name="Trazado 178820" d="M-9.939-1.5A4.323,4.323,0,0,1-9.77-2.727a2.929,2.929,0,0,1,.506-1,2.271,2.271,0,0,1,.854-.663,2.842,2.842,0,0,1,1.192-.236,3.306,3.306,0,0,1,.933.135,2.148,2.148,0,0,1,.821.45,2.346,2.346,0,0,1,.585.809A2.99,2.99,0,0,1-4.655-2,3.438,3.438,0,0,1-4.9-.647a2.67,2.67,0,0,1-.675.967,2.854,2.854,0,0,1-.978.573,3.44,3.44,0,0,1-1.135.191A2.3,2.3,0,0,1-8.826.837,1.965,1.965,0,0,1-9.512.218a2.265,2.265,0,0,1-.337-.832A4.637,4.637,0,0,1-9.939-1.5Zm7.577,0a4.323,4.323,0,0,1,.169-1.225,2.929,2.929,0,0,1,.506-1,2.271,2.271,0,0,1,.854-.663A2.842,2.842,0,0,1,.359-4.627a3.306,3.306,0,0,1,.933.135,2.148,2.148,0,0,1,.821.45,2.346,2.346,0,0,1,.585.809A2.99,2.99,0,0,1,2.922-2,3.438,3.438,0,0,1,2.674-.647,2.67,2.67,0,0,1,2,.319a2.854,2.854,0,0,1-.978.573,3.44,3.44,0,0,1-1.135.191A2.3,2.3,0,0,1-1.249.837,1.965,1.965,0,0,1-1.935.218a2.265,2.265,0,0,1-.337-.832A4.637,4.637,0,0,1-2.362-1.5Zm7.577,0a4.323,4.323,0,0,1,.169-1.225,2.929,2.929,0,0,1,.506-1,2.271,2.271,0,0,1,.854-.663,2.842,2.842,0,0,1,1.192-.236,3.306,3.306,0,0,1,.933.135,2.148,2.148,0,0,1,.821.45,2.346,2.346,0,0,1,.585.809A2.99,2.99,0,0,1,10.5-2a3.438,3.438,0,0,1-.247,1.349,2.67,2.67,0,0,1-.675.967A2.854,2.854,0,0,1,8.6.893a3.44,3.44,0,0,1-1.135.191A2.3,2.3,0,0,1,6.328.837,1.965,1.965,0,0,1,5.642.218,2.265,2.265,0,0,1,5.3-.614,4.637,4.637,0,0,1,5.215-1.5Z" transform="translate(228.168 77.271)" fill="#12263f"/>
        </g>
      </g>
      <g id="Grupo_174177" data-name="Grupo 174177" transform="translate(1150.54 795.268)">
        <g id="Grupo_174174" data-name="Grupo 174174" transform="translate(0.46 -0.023)">
          <rect id="Rectángulo_44603" data-name="Rectángulo 44603" width="82.124" height="31.965" rx="15.982" transform="translate(0 0)" fill="#3c3fa7"/>
        </g>
        <path id="Trazado_180504" data-name="Trazado 180504" d="M1.348,17.1a.981.981,0,0,1-.776-.283,1.1,1.1,0,0,1-.249-.752.884.884,0,0,1,.146-.483,1.327,1.327,0,0,1,.4-.4.346.346,0,0,0,.107-.137,1.236,1.236,0,0,0,.083-.22,1.585,1.585,0,0,0,.049-.259.936.936,0,0,0,0-.254q-.068-.547-.1-1.147T.957,11.981q-.01-.591-.01-1.152V9.789q0-2.139.171-4.253t.444-3.979a.988.988,0,0,1,.215-.464.612.612,0,0,1,.508-.22,1.3,1.3,0,0,1,.537.1.571.571,0,0,1,.273.205,1.363,1.363,0,0,1,.093.508q.024.391.024.962T3.188,3.925q-.024.708-.059,1.46t-.073,1.5q-.039.752-.073,1.416T2.925,9.5q-.024.532-.024.835v1.108q0,.4,0,.84t.015.874a2.724,2.724,0,0,0,.127.8.453.453,0,0,0,.479.3,1.013,1.013,0,0,0,.225-.029q.469-.088.967-.146t.952-.093q.454-.034.82-.044t.562-.01a1.66,1.66,0,0,1,.5.073,1.347,1.347,0,0,1,.415.21.989.989,0,0,1,.283.332.91.91,0,0,1,.1.43.582.582,0,0,1-.176.459,1,1,0,0,1-.43.22,2.593,2.593,0,0,1-.542.073q-.288.01-.513.029-.176.02-.571.068t-.9.122q-.5.073-1.05.171t-1.016.215a6.69,6.69,0,0,0-.806.249.786.786,0,0,0-.415.278.408.408,0,0,1-.249.186A1.1,1.1,0,0,1,1.348,17.1Zm10.02-9.795a2.4,2.4,0,0,1,1.343.386A3.479,3.479,0,0,1,13.716,8.71a4.99,4.99,0,0,1,.635,1.421,5.993,5.993,0,0,1,.22,1.611,4.958,4.958,0,0,1-.312,1.8,4.493,4.493,0,0,1-.825,1.387,3.687,3.687,0,0,1-1.182.894,3.168,3.168,0,0,1-1.372.317,2.26,2.26,0,0,1-1.26-.337,2.648,2.648,0,0,1-.835-.864,3.857,3.857,0,0,1-.459-1.177,5.971,5.971,0,0,1-.142-1.274,6.683,6.683,0,0,1,.112-1.2A7.482,7.482,0,0,1,8.613,10.1a6.92,6.92,0,0,1,.493-1.079,4.652,4.652,0,0,1,.645-.889,2.982,2.982,0,0,1,.767-.6A1.777,1.777,0,0,1,11.367,7.309Zm.166,1.855a.67.67,0,0,0-.483.308,3.263,3.263,0,0,0-.454.8,6.331,6.331,0,0,0-.337,1.113,5.972,5.972,0,0,0-.132,1.245q0,.1.01.381a2.919,2.919,0,0,0,.083.586,1.5,1.5,0,0,0,.244.537.563.563,0,0,0,.483.234.955.955,0,0,0,.615-.254,2.549,2.549,0,0,0,.542-.654,3.834,3.834,0,0,0,.386-.908,3.649,3.649,0,0,0,.146-1.016q0-.166-.01-.41a4.769,4.769,0,0,0-.049-.508,4.15,4.15,0,0,0-.112-.522,2.026,2.026,0,0,0-.2-.469,1.047,1.047,0,0,0-.3-.337A.736.736,0,0,0,11.533,9.164ZM15.322,15.5a2.653,2.653,0,0,1-.068-.474q-.029-.347-.044-.82t-.02-1.021q0-.547,0-1.064t0-.962q0-.444,0-.708a5.66,5.66,0,0,1,.049-.693,3.257,3.257,0,0,1,.176-.732,1.843,1.843,0,0,1,.337-.581.688.688,0,0,1,.542-.239.523.523,0,0,1,.386.132,1,1,0,0,1,.205.293q.073.161.122.293t.146.132a.4.4,0,0,0,.234-.146q.137-.137.313-.3a2.942,2.942,0,0,1,.4-.3,2.432,2.432,0,0,1,.488-.239,1.717,1.717,0,0,1,.591-.1,1.8,1.8,0,0,1,.767.161,1.867,1.867,0,0,1,.591.425,1.979,1.979,0,0,1,.381.6,1.756,1.756,0,0,1,.137.674,2.195,2.195,0,0,1-.029.361.988.988,0,0,1-.107.317.618.618,0,0,1-.22.229.706.706,0,0,1-.376.088.636.636,0,0,1-.444-.132,1.367,1.367,0,0,1-.239-.293,2.245,2.245,0,0,0-.21-.293.431.431,0,0,0-.347-.132,1.013,1.013,0,0,0-.723.366,3.4,3.4,0,0,0-.62.957,6.754,6.754,0,0,0-.435,1.348,7.2,7.2,0,0,0-.166,1.548,4.64,4.64,0,0,1-.078.918,2.185,2.185,0,0,1-.215.625.931.931,0,0,1-.312.352.717.717,0,0,1-.381.107.69.69,0,0,1-.312-.068.912.912,0,0,1-.239-.171,1.025,1.025,0,0,1-.171-.225A1.578,1.578,0,0,1,15.322,15.5ZM27.314,9.945a3.161,3.161,0,0,1-.156,1.006,3.62,3.62,0,0,1-.415.859,3.694,3.694,0,0,1-.591.693,4.938,4.938,0,0,1-.669.518,3.613,3.613,0,0,1-.659.337,1.842,1.842,0,0,1-.566.132.466.466,0,0,0-.342.112.344.344,0,0,0-.088.229.6.6,0,0,0,.059.254,1.9,1.9,0,0,0,.107.205,1.147,1.147,0,0,0,.405.371,1.724,1.724,0,0,0,.815.146,4.646,4.646,0,0,0,.659-.059,3.721,3.721,0,0,0,.859-.249,4.719,4.719,0,0,0,1.958-1.548.389.389,0,0,1,.146-.117.409.409,0,0,1,.557.171,1.746,1.746,0,0,1-.029,1.553,2.505,2.505,0,0,1-.532.645,4.3,4.3,0,0,1-.781.542,5.913,5.913,0,0,1-.947.415,6.889,6.889,0,0,1-1.035.264,6.051,6.051,0,0,1-1.04.093,4.1,4.1,0,0,1-1.548-.278,3.1,3.1,0,0,1-1.162-.806,3.608,3.608,0,0,1-.728-1.289,5.454,5.454,0,0,1-.254-1.729,7.625,7.625,0,0,1,.1-1.206,7.4,7.4,0,0,1,.293-1.191,5.994,5.994,0,0,1,.488-1.089,4,4,0,0,1,.688-.889,3.059,3.059,0,0,1,.894-.6,2.68,2.68,0,0,1,1.094-.22,2.314,2.314,0,0,1,1.157.264,2.225,2.225,0,0,1,.742.664,2.688,2.688,0,0,1,.4.884A3.735,3.735,0,0,1,27.314,9.945ZM23.467,11.6q0,.039,0,.107a.324.324,0,0,0,.039.132.293.293,0,0,0,.1.107.362.362,0,0,0,.2.044,1.082,1.082,0,0,0,.63-.249,3.059,3.059,0,0,0,.615-.615,3.9,3.9,0,0,0,.464-.786,1.892,1.892,0,0,0,.186-.752,1.286,1.286,0,0,0-.029-.259,1.179,1.179,0,0,0-.093-.273.612.612,0,0,0-.176-.22.454.454,0,0,0-.288-.088.827.827,0,0,0-.537.278,3.073,3.073,0,0,0-.537.7,5,5,0,0,0-.41.928A3.015,3.015,0,0,0,23.467,11.6Zm5.166-2.109a1.578,1.578,0,0,1,.078-.444,2.039,2.039,0,0,1,.225-.493,1.518,1.518,0,0,1,.361-.4.854.854,0,0,1,.894-.073.583.583,0,0,1,.229.269,1.307,1.307,0,0,1,.1.43q.02.254.02.566,0,.6.186.6.1,0,.2-.146l.41-.615a4.555,4.555,0,0,1,.547-.669,3.129,3.129,0,0,1,.718-.542,1.892,1.892,0,0,1,.933-.225,1.391,1.391,0,0,1,.85.239,1.491,1.491,0,0,1,.493.684,3.62,3.62,0,0,1,.21,1.069,10.034,10.034,0,0,1-.02,1.387q-.049.654-.059,1.67t.078,2.5a1.184,1.184,0,0,1-.015.278.934.934,0,0,1-.093.283.749.749,0,0,1-.176.225.4.4,0,0,1-.273.093,1.112,1.112,0,0,1-.806-.278,1.748,1.748,0,0,1-.43-.664,3.023,3.023,0,0,1-.176-.791q-.034-.405-.034-.649,0-.43.034-.771t.068-.664q.034-.322.068-.64a6.452,6.452,0,0,0,.034-.688,4.489,4.489,0,0,0-.024-.522,1.334,1.334,0,0,0-.068-.312.337.337,0,0,0-.1-.151.176.176,0,0,0-.1-.039.664.664,0,0,0-.386.225,5.031,5.031,0,0,0-.513.576q-.273.352-.557.776t-.518.815a2.262,2.262,0,0,0-.171.391q-.063.2-.083.283a3.216,3.216,0,0,0-.029.483v.63q0,.332-.015.669a3.351,3.351,0,0,1-.078.61,1.3,1.3,0,0,1-.181.444.379.379,0,0,1-.332.171h-.2a.9.9,0,0,1-.293-.054,1.506,1.506,0,0,1-.293-.137,1.44,1.44,0,0,1-.249-.19.713.713,0,0,1-.161-.215,2.884,2.884,0,0,1-.161-.649q-.063-.415-.1-.933T28.623,12.8q-.01-.576-.01-1.123,0-.684.01-1.265T28.633,9.486Zm7.246-.928A.7.7,0,0,1,36.133,8a1.779,1.779,0,0,1,.635-.332,4.212,4.212,0,0,1,.825-.161q.444-.044.825-.044.557,0,1.045.02a3.032,3.032,0,0,1,.859.146,1.215,1.215,0,0,1,.586.405,1.262,1.262,0,0,1,.215.786,2.963,2.963,0,0,1-.308,1.274,8.844,8.844,0,0,1-.752,1.284q-.444.635-.942,1.235t-.869,1.128a.576.576,0,0,0-.122.356q0,.181.239.181H40.6a.422.422,0,0,1,.327.122.758.758,0,0,1,.166.3,1.487,1.487,0,0,1,.059.391q0,.21,0,.4,0,.215-.278.332a3.048,3.048,0,0,1-.811.176q-.532.059-1.313.068t-1.787.01H36.7a.881.881,0,0,1-.381-.088,1.006,1.006,0,0,1-.327-.249,1.29,1.29,0,0,1-.229-.386,1.328,1.328,0,0,1-.088-.488,2.181,2.181,0,0,1,.19-.85,6.314,6.314,0,0,1,.488-.918,10.566,10.566,0,0,1,.669-.933q.371-.464.732-.894t.679-.8q.317-.366.513-.635a1.2,1.2,0,0,0,.225-.425q.029-.156-.176-.156a3.093,3.093,0,0,0-.42.034q-.244.034-.522.078t-.576.078a5.016,5.016,0,0,1-.571.034,2.453,2.453,0,0,1-.527-.054.792.792,0,0,1-.4-.21.268.268,0,0,1-.059-.137,1.943,1.943,0,0,1-.029-.205q-.01-.107-.01-.2Zm8.916-1.25a2.4,2.4,0,0,1,1.343.386A3.479,3.479,0,0,1,47.144,8.71a4.99,4.99,0,0,1,.635,1.421A5.993,5.993,0,0,1,48,11.742a4.958,4.958,0,0,1-.312,1.8,4.493,4.493,0,0,1-.825,1.387,3.687,3.687,0,0,1-1.182.894,3.168,3.168,0,0,1-1.372.317,2.26,2.26,0,0,1-1.26-.337,2.648,2.648,0,0,1-.835-.864,3.857,3.857,0,0,1-.459-1.177,5.971,5.971,0,0,1-.142-1.274,6.683,6.683,0,0,1,.112-1.2,7.482,7.482,0,0,1,.317-1.187,6.92,6.92,0,0,1,.493-1.079,4.652,4.652,0,0,1,.645-.889,2.982,2.982,0,0,1,.767-.6A1.777,1.777,0,0,1,44.795,7.309Zm.166,1.855a.67.67,0,0,0-.483.308,3.263,3.263,0,0,0-.454.8,6.331,6.331,0,0,0-.337,1.113,5.972,5.972,0,0,0-.132,1.245q0,.1.01.381a2.919,2.919,0,0,0,.083.586,1.5,1.5,0,0,0,.244.537.563.563,0,0,0,.483.234.955.955,0,0,0,.615-.254,2.549,2.549,0,0,0,.542-.654,3.834,3.834,0,0,0,.386-.908,3.649,3.649,0,0,0,.146-1.016q0-.166-.01-.41a4.769,4.769,0,0,0-.049-.508,4.15,4.15,0,0,0-.112-.522,2.026,2.026,0,0,0-.2-.469,1.047,1.047,0,0,0-.3-.337A.736.736,0,0,0,44.961,9.164Z" transform="translate(14.459 5.977)" fill="#ffd947"/>
      </g>
      <g id="Grupo_174461" data-name="Grupo 174461" transform="translate(1268.54 905.268)">
        <g id="Grupo_174174-2" data-name="Grupo 174174" transform="translate(0.46 -0.023)">
          <rect id="Rectángulo_44603-2" data-name="Rectángulo 44603" width="82.124" height="31.965" rx="15.982" transform="translate(0 0)" fill="#3c3fa7"/>
        </g>
        <path id="Trazado_180505" data-name="Trazado 180505" d="M7.474,10.453a10.165,10.165,0,0,1,.2-1.88A16.049,16.049,0,0,1,9.08,4.423,10.287,10.287,0,0,1,10.2,2.646,5.672,5.672,0,0,1,11.531,1.4a2.7,2.7,0,0,1,1.5-.469,1.69,1.69,0,0,1,.889.254,2.909,2.909,0,0,1,.742.645,3.184,3.184,0,0,1,.508.859,2.461,2.461,0,0,1,.186.908,2.19,2.19,0,0,1-.083.518,6.9,6.9,0,0,1-.22.688q-.137.366-.312.737a6.655,6.655,0,0,1-.361.669,2.868,2.868,0,0,1-.366.483.5.5,0,0,1-.337.186.7.7,0,0,1-.4-.127,1.226,1.226,0,0,1-.317-.317,1.646,1.646,0,0,1-.278-.884.9.9,0,0,1,.083-.327q.083-.2.2-.43l.229-.469a4.283,4.283,0,0,0,.186-.43.783.783,0,0,0,.059-.312.12.12,0,0,0-.137-.122,1.208,1.208,0,0,0-.688.239,3.408,3.408,0,0,0-.684.649,6.77,6.77,0,0,0-.649.962q-.312.552-.591,1.177t-.508,1.294q-.229.669-.4,1.313t-.259,1.23a6.81,6.81,0,0,0-.093,1.055,4.356,4.356,0,0,0,.1.923,2.568,2.568,0,0,0,.356.864,1.958,1.958,0,0,0,.679.635,2.122,2.122,0,0,0,1.069.244,3.6,3.6,0,0,0,1.211-.215,7.131,7.131,0,0,0,1.167-.537,8.935,8.935,0,0,0,1.05-.7q.488-.381.864-.7t.62-.537q.244-.215.313-.215a.564.564,0,0,1,.425.156.964.964,0,0,1,.225.391,2.044,2.044,0,0,1,.088.5q.015.264.015.479a1,1,0,0,1-.239.493,6.006,6.006,0,0,1-.649.728,9.667,9.667,0,0,1-2.183,1.572,8.059,8.059,0,0,1-1.353.562,4.692,4.692,0,0,1-1.406.22,3.452,3.452,0,0,1-1.348-.254,3.766,3.766,0,0,1-1.084-.688,4.685,4.685,0,0,1-.835-1.011,6.435,6.435,0,0,1-.586-1.216,7.563,7.563,0,0,1-.342-1.313A7.9,7.9,0,0,1,7.474,10.453Zm15.82,4.365a2.27,2.27,0,0,1,.029.684,1.365,1.365,0,0,1-.142.479.716.716,0,0,1-.259.278.64.64,0,0,1-.332.093.58.58,0,0,1-.405-.156,1.344,1.344,0,0,1-.288-.386,2.832,2.832,0,0,1-.2-.5q-.078-.269-.137-.5t-.1-.386q-.044-.156-.1-.156a.393.393,0,0,0-.259.142,3.756,3.756,0,0,0-.308.356q-.166.215-.366.464a3.55,3.55,0,0,1-.449.464,2.391,2.391,0,0,1-.552.356,1.548,1.548,0,0,1-.664.142,1.6,1.6,0,0,1-.908-.273,2.444,2.444,0,0,1-.7-.732,3.782,3.782,0,0,1-.454-1.055,4.729,4.729,0,0,1-.161-1.24,6.164,6.164,0,0,1,.127-1.2,7.9,7.9,0,0,1,.366-1.27,7.037,7.037,0,0,1,.6-1.206,5.174,5.174,0,0,1,.82-1.021,3.8,3.8,0,0,1,1.03-.708,2.879,2.879,0,0,1,1.23-.264,2.22,2.22,0,0,1,.938.181A1.919,1.919,0,0,1,22.3,7.9a2.47,2.47,0,0,1,.43.732,5.027,5.027,0,0,1,.249.9,8.175,8.175,0,0,1,.117,1q.029.518.029,1.025t.015.986q.015.488.034.923t.054.781Q23.265,14.6,23.294,14.818Zm-4.814-1.543a1.351,1.351,0,0,0,.161.723q.161.254.3.254a.883.883,0,0,0,.527-.2,2.839,2.839,0,0,0,.518-.513,5.113,5.113,0,0,0,.474-.713,7.756,7.756,0,0,0,.386-.8,6.407,6.407,0,0,0,.264-.757,2.347,2.347,0,0,0,.1-.6q0-.01,0-.107t-.024-.239q-.02-.142-.059-.308A1.288,1.288,0,0,0,21,9.711a.75.75,0,0,0-.2-.239.442.442,0,0,0-.283-.093.79.79,0,0,0-.5.205,2.469,2.469,0,0,0-.474.542,5.686,5.686,0,0,0-.42.757,7.629,7.629,0,0,0-.337.854,7.708,7.708,0,0,0-.225.84A3.556,3.556,0,0,0,18.479,13.275Zm5.459-2.7q0-.156.015-.435t.054-.6q.039-.317.107-.649a3.133,3.133,0,0,1,.181-.6,1.521,1.521,0,0,1,.269-.435.477.477,0,0,1,.361-.171.446.446,0,0,1,.4.22,2.106,2.106,0,0,1,.229.488q.088.269.151.488t.151.22q.068,0,.166-.176.107-.2.239-.42a3.219,3.219,0,0,1,.293-.42,1.577,1.577,0,0,1,.356-.322.756.756,0,0,1,.42-.127.685.685,0,0,1,.586.322,2.592,2.592,0,0,1,.356.811,7.078,7.078,0,0,1,.2,1.05q.063.562.112,1.05t.1.811q.049.322.156.322t.244-.293q.146-.293.337-.737t.435-.962a7.035,7.035,0,0,1,.547-.962,3.347,3.347,0,0,1,.669-.737,1.248,1.248,0,0,1,.8-.293,1.178,1.178,0,0,1,.43.088.958.958,0,0,1,.41.337,2.1,2.1,0,0,1,.308.679,4.226,4.226,0,0,1,.122,1.123q0,.225-.015.557t-.034.713q-.02.381-.039.781T33,13.08q-.02.371-.034.684t-.015.508a3.621,3.621,0,0,1-.1.908,1.964,1.964,0,0,1-.249.6.988.988,0,0,1-.327.322.673.673,0,0,1-.322.1.833.833,0,0,1-.469-.117.731.731,0,0,1-.269-.347,2.106,2.106,0,0,1-.127-.576q-.034-.347-.034-.815,0-.43.02-.957t.02-.986q0-.459-.029-.767t-.127-.308q-.088,0-.21.269t-.273.674q-.151.405-.342.874a7.025,7.025,0,0,1-.425.874,3.052,3.052,0,0,1-.513.674.863.863,0,0,1-.61.269.736.736,0,0,1-.6-.308,2.887,2.887,0,0,1-.42-.767,6.551,6.551,0,0,1-.288-.991q-.112-.532-.2-.991t-.161-.757q-.078-.3-.166-.288-.146.01-.273.259a3.22,3.22,0,0,0-.22.571,6.59,6.59,0,0,0-.151.645,4.343,4.343,0,0,0-.068.5q-.039.684-.068,1.294t-.093,1.064a2.371,2.371,0,0,1-.2.718.422.422,0,0,1-.4.264h-.186a1.682,1.682,0,0,1-.186-.01.436.436,0,0,1-.146-.039,1.054,1.054,0,0,1-.43-.537,4.226,4.226,0,0,1-.259-.918,9.08,9.08,0,0,1-.122-1.133q-.029-.605-.034-1.172t.01-1.04Q23.938,10.844,23.938,10.58Zm10.039,2.627q0-.342-.015-.908t-.01-1.211q0-.645.049-1.3a9.768,9.768,0,0,1,.146-1.191,2.885,2.885,0,0,1,.293-.869.562.562,0,0,1,.493-.337,1.245,1.245,0,0,1,.581.112.718.718,0,0,1,.3.513,4.434,4.434,0,0,1,.063.493q.024.3.024.718,0,.225.01.762t.015,1.221q0,.684.01,1.431t0,1.411q-.01.664-.039,1.152a3.335,3.335,0,0,1-.078.645.314.314,0,0,1-.156.181,1.156,1.156,0,0,1-.239.1,1.282,1.282,0,0,1-.234.044q-.112.01-.151.01a.587.587,0,0,1-.459-.229,1.864,1.864,0,0,1-.327-.635,5.178,5.178,0,0,1-.2-.947A9.261,9.261,0,0,1,33.978,13.207Zm.2-9.7a1.878,1.878,0,0,1,.073-.532,1.272,1.272,0,0,1,.22-.435.987.987,0,0,1,.371-.288,1.234,1.234,0,0,1,.518-.1,1.436,1.436,0,0,1,.405.059.933.933,0,0,1,.356.2,1.019,1.019,0,0,1,.254.352,1.3,1.3,0,0,1,.1.537,1.493,1.493,0,0,1-.107.586,1.16,1.16,0,0,1-.293.42,1.24,1.24,0,0,1-.425.249,1.494,1.494,0,0,1-.493.083,1,1,0,0,1-.493-.107.853.853,0,0,1-.3-.269.984.984,0,0,1-.146-.361A2.014,2.014,0,0,1,34.173,3.51ZM36.927,6.5q.02-.371.039-1.011t.063-1.377q.044-.737.112-1.5t.181-1.372a4.85,4.85,0,0,1,.278-1q.166-.391.4-.391a1.158,1.158,0,0,1,.3.049,1.323,1.323,0,0,1,.342.151,1.057,1.057,0,0,1,.293.273.841.841,0,0,1,.156.405,6.738,6.738,0,0,1,.01.713q-.01.557-.044,1.382t-.073,1.865q-.039,1.04-.073,2.163T38.86,9.115q-.02,1.143,0,2.188t.073,1.929a11.45,11.45,0,0,0,.171,1.479q.078.381.166.688a4.11,4.11,0,0,1,.122.552.875.875,0,0,1-.029.42.592.592,0,0,1-.3.3.867.867,0,0,1-.391.1.834.834,0,0,1-.483-.151,1.935,1.935,0,0,1-.391-.356,2.7,2.7,0,0,1-.283-.405q-.112-.2-.151-.288a3.8,3.8,0,0,1-.22-.791q-.093-.5-.151-1.128T36.907,12.3q-.029-.723-.039-1.45t0-1.421q0-.693.015-1.279T36.9,7.128Q36.917,6.693,36.927,6.5Zm9.736,8.32a2.27,2.27,0,0,1,.029.684,1.365,1.365,0,0,1-.142.479.716.716,0,0,1-.259.278.64.64,0,0,1-.332.093.58.58,0,0,1-.405-.156,1.344,1.344,0,0,1-.288-.386,2.832,2.832,0,0,1-.2-.5q-.078-.269-.137-.5t-.1-.386q-.044-.156-.1-.156a.393.393,0,0,0-.259.142,3.756,3.756,0,0,0-.308.356q-.166.215-.366.464a3.55,3.55,0,0,1-.449.464,2.391,2.391,0,0,1-.552.356,1.548,1.548,0,0,1-.664.142,1.6,1.6,0,0,1-.908-.273,2.444,2.444,0,0,1-.7-.732,3.782,3.782,0,0,1-.454-1.055,4.729,4.729,0,0,1-.161-1.24,6.164,6.164,0,0,1,.127-1.2,7.905,7.905,0,0,1,.366-1.27,7.037,7.037,0,0,1,.6-1.206,5.173,5.173,0,0,1,.82-1.021,3.8,3.8,0,0,1,1.03-.708,2.879,2.879,0,0,1,1.23-.264,2.22,2.22,0,0,1,.938.181,1.918,1.918,0,0,1,.659.493,2.47,2.47,0,0,1,.43.732,5.027,5.027,0,0,1,.249.9,8.175,8.175,0,0,1,.117,1q.029.518.029,1.025t.015.986q.015.488.034.923t.054.781Q46.634,14.6,46.663,14.818Zm-4.814-1.543A1.351,1.351,0,0,0,42.01,14q.161.254.3.254a.883.883,0,0,0,.527-.2,2.839,2.839,0,0,0,.518-.513,5.114,5.114,0,0,0,.474-.713,7.756,7.756,0,0,0,.386-.8,6.407,6.407,0,0,0,.264-.757,2.347,2.347,0,0,0,.1-.6q0-.01,0-.107t-.024-.239q-.02-.142-.059-.308a1.288,1.288,0,0,0-.117-.312.75.75,0,0,0-.2-.239.442.442,0,0,0-.283-.093.79.79,0,0,0-.5.205,2.469,2.469,0,0,0-.474.542,5.686,5.686,0,0,0-.42.757,7.63,7.63,0,0,0-.337.854,7.708,7.708,0,0,0-.225.84A3.556,3.556,0,0,0,41.849,13.275Z" transform="translate(13.986 8.129)" fill="#ffd947"/>
      </g>
    </g>
  </g>
</svg>
