<svg id="_6" data-name="6" xmlns="http://www.w3.org/2000/svg" xmlns:xlink="http://www.w3.org/1999/xlink" width="400" height="299" viewBox="0 0 400 299">
  <defs>
    <clipPath id="clip-path">
      <rect id="Rectángulo_45057" data-name="Rectángulo 45057" width="243.5" height="294.82" fill="none"/>
    </clipPath>
  </defs>
  <g id="Grupo_174484" data-name="Grupo 174484">
    <rect id="Rectángulo_44902" data-name="Rectángulo 44902" width="400" height="299" rx="15" fill="#fff0f1"/>
    <g id="Grupo_174483" data-name="Grupo 174483" transform="translate(18.25 4)">
      <g id="Grupo_174482" data-name="Grupo 174482" clip-path="url(#clip-path)">
        <path id="Trazado_180597" data-name="Trazado 180597" d="M35.08,130.242c-8.244,6.964-19.379,20.167-11.3,43.964l55.933-51.787c-11.526-9.388-30.8-3.86-44.634,7.823" transform="translate(-6.51 -36.517)" fill="#942f51"/>
        <path id="Trazado_180598" data-name="Trazado 180598" d="M102.249,224.239c-3.771.757-7.779.7-11.639.871-3.943.172-7.527.617-11.439.309-1.17-.092-11.363-.172-11.585-.867l-2.867-8.708a37.755,37.755,0,0,1-10.185-2.018c-.244-.079-.488-.165-.725-.252A37.879,37.879,0,0,1,31.09,190.61l66.682-32.635a2.342,2.342,0,0,1,.283.276c4.359,4.7,15.372,37.128,15.372,37.128l.394,1.112.268.772,1.112,3.146.221.591a17.658,17.658,0,0,1-13.173,23.239" transform="translate(-9.648 -49.026)" fill="#ffa6a6"/>
        <path id="Trazado_180599" data-name="Trazado 180599" d="M135.6,183.2l13.613,7.448a2.6,2.6,0,0,1,.19,4.448l-8.371,5.555a.959.959,0,0,1-1.439-.491l-5.361-15.811a.959.959,0,0,1,1.369-1.15" transform="translate(-41.64 -56.818)" fill="#ffa6a6"/>
        <path id="Trazado_180600" data-name="Trazado 180600" d="M96.783,236.033l-.614,3.146-.26,1.332-1.277,6.559-4.415,22.6-44.633-6.393L57.873,228.9l.434-1.214,4.422-12.361,3.508-9.8.741-2.081.725.788Z" transform="translate(-14.146 -63.137)" fill="#ffa6a6"/>
        <path id="Trazado_180601" data-name="Trazado 180601" d="M113.774,379.244H0S0,313.557,21.442,288.2c11.95-14.134,15.608-16.16,15.608-16.16s25.226,1.285,42.568,14.441,24.595,37.846,29.38,55.976a163.936,163.936,0,0,1,4.738,34.614c.039,1.4.039,2.176.039,2.176" transform="translate(0 -84.424)" fill="#ffc29e"/>
        <path id="Trazado_180602" data-name="Trazado 180602" d="M125.062,390.414h-.016c-7.481-18.643-15.664-37.775-25.249-55.969l-1.159-2.223c-3.09-5.96-6.29-12.116-11.73-16.373a32.96,32.96,0,0,0-19.447-7.023c-15.261-.355-27.819,9.491-29.853,23.4-.961,6.606-.2,13.346.686,19.069a273.24,273.24,0,0,0,9.286,39.115h-.828a272.638,272.638,0,0,1-9.239-39c-.891-5.778-1.663-12.6-.686-19.3,2.089-14.308,14.946-24.445,30.649-24.075a33.766,33.766,0,0,1,19.92,7.189c5.573,4.367,8.813,10.6,11.943,16.633.378.741.764,1.482,1.15,2.215,9.286,17.618,17.24,36.1,24.532,54.163.039,1.4.039,2.176.039,2.176" transform="translate(-11.288 -95.594)" fill="#361524"/>
        <path id="Trazado_180603" data-name="Trazado 180603" d="M54.146,259.3s36.528,13.352,39.944,16.784S99.86,287,99.86,287s-9.453-7.439-36.514-13.364c-12.75-2.792-14.587-2.614-14.587-2.614Z" transform="translate(-15.132 -80.471)" fill="#fff"/>
        <path id="Trazado_180604" data-name="Trazado 180604" d="M95.806,157.975,63.961,173.083l-39.2,13.09c7.263,19.293,26.653,28.613,26.653,28.613a4.824,4.824,0,0,0,1.158-.961,7.807,7.807,0,0,0,1.4-2.3,37.8,37.8,0,0,0,2.295-10.31c.015-.119.031-.229.039-.348.362-3.579,1.048-6.889,3.468-9.452a9.59,9.59,0,0,1,1.308-1.183c.055-.039.1-.079.158-.11,2.7-1.986,5.991-2.3,9.207-2.837,2.917-.489,5.889-1.286,7.852-3.658,2.057-2.483,2.657-5.786,3.815-8.71a35.2,35.2,0,0,1,13.977-16.665,2.406,2.406,0,0,0-.284-.277" transform="translate(-7.683 -49.026)" fill="#942f51"/>
        <path id="Trazado_180605" data-name="Trazado 180605" d="M81.978,208.051c0,6.97-4.279,12.621-9.558,12.621s-9.558-5.651-9.558-12.621,4.279-12.621,9.558-12.621,9.558,5.651,9.558,12.621" transform="translate(-19.509 -60.65)" fill="#ffa6a6"/>
        <path id="Trazado_180606" data-name="Trazado 180606" d="M118.873,181.631a2.579,2.579,0,0,0,1.717.1,20.615,20.615,0,0,0,7.591-3.273,3.947,3.947,0,0,0,1.655-1.757c.908-2.486-3.046-2.728-4.519-2.459a11.259,11.259,0,0,0-3.482,1.359,8.708,8.708,0,0,0-3.243,2.84,3.182,3.182,0,0,0-.539,1.684,1.987,1.987,0,0,0,.018.239,1.688,1.688,0,0,0,.8,1.262" transform="translate(-36.636 -54.049)" fill="#942f51"/>
        <path id="Trazado_180607" data-name="Trazado 180607" d="M130,189.109a4.955,4.955,0,0,1-.219-1.224,2.881,2.881,0,0,1,.339-1.635c.792-1.31,2.2-.8,2.866.288a5.756,5.756,0,0,1,.853,3.086,2.835,2.835,0,0,1-.27,1.28,1.426,1.426,0,0,1-1.006.777,1.866,1.866,0,0,1-1.57-.781,5.008,5.008,0,0,1-.994-1.79" transform="translate(-40.274 -57.559)" fill="#361524"/>
        <path id="Trazado_180608" data-name="Trazado 180608" d="M146.209,214.6c-3.035,2.365-7.323,2.783-11.344,1.561-.489-.142-.276-.906.2-.757,3.847,1.159,8.017.781,10.87-1.577Z" transform="translate(-41.768 -66.358)" fill="#361524"/>
        <path id="Trazado_180609" data-name="Trazado 180609" d="M111.893,254.077l-.26,1.332-1.277,6.558c-8.466-3.294-14.1-10.515-14.1-10.515Z" transform="translate(-29.871 -78.036)" fill="#361524"/>
        <path id="Trazado_180610" data-name="Trazado 180610" d="M192.69,239.777l-7.674,6.644-8.308,7.475,5.961,15.876s6.568-.868,9.624-2.418,10.625-18.888,9.744-19.413-9.347-8.164-9.347-8.164" transform="translate(-54.84 -74.413)" fill="#361524"/>
        <rect id="Rectángulo_45055" data-name="Rectángulo 45055" width="8.687" height="82.352" transform="matrix(0.627, -0.779, 0.779, 0.627, 116.495, 170.323)" fill="#fadacd"/>
        <path id="Trazado_180611" data-name="Trazado 180611" d="M272.585,322.36l-3.588-1.2-7.047-2.368.632-6.053,4.81-.715,3.832,6.141,2.061,3.312a.6.6,0,0,1-.7.884" transform="translate(-81.294 -96.833)" fill="#fadacd"/>
        <path id="Trazado_180612" data-name="Trazado 180612" d="M275.756,325.124l-3.588-1.2a3.182,3.182,0,0,1,2.227-3l2.061,3.312a.6.6,0,0,1-.7.884" transform="translate(-84.465 -99.597)" fill="#361524"/>
        <rect id="Rectángulo_45056" data-name="Rectángulo 45056" width="8.687" height="3.225" transform="matrix(0.627, -0.779, 0.779, 0.627, 113.982, 168.303)" fill="#fff"/>
        <path id="Trazado_180613" data-name="Trazado 180613" d="M158.945,227.262l-3.057,3.8a1.9,1.9,0,0,0,.29,2.679l6.053,4.871,5.446-6.768-6.052-4.87a1.9,1.9,0,0,0-2.679.29" transform="translate(-48.247 -70.308)" fill="#e95a73"/>
        <path id="Trazado_180614" data-name="Trazado 180614" d="M177.426,320.283s-13.275-15.55-12.041-28.877,4.414-21.395,3.749-26.846-3.706-9.233-2.884-11.546,2.906-4.01,6.1-2.15a22.007,22.007,0,0,1,8.352,10c1.452,3.872.964,21.69.964,21.69l19.955,32.519Z" transform="translate(-51.3 -77.607)" fill="#ffa6a6"/>
        <path id="Trazado_180615" data-name="Trazado 180615" d="M186.965,273.629s2.828-14.856,3.671-19.5,1.723-11.977,4.023-14.181c2.428-2.325,7.431-1.951,9.725,1.318a17.434,17.434,0,0,1,2.528,5.95s5.328-1.484,8.461,2.723a16.41,16.41,0,0,1,2.912,8.436,12.515,12.515,0,0,1,6.817,2.381c2.863,2.312,3.152,7.2,3.152,7.2a11.125,11.125,0,0,1,5.685,8.026c1.563,10.5-5.419,40.129-5.419,40.129l-27.259,5.006-15.634-35.133Z" transform="translate(-57.608 -74.006)" fill="#ffa6a6"/>
        <path id="Trazado_180616" data-name="Trazado 180616" d="M225.924,396.969l-1.432-67.819-42.136,4.42-3.222,7.3-6.911,56.1Z" transform="translate(-53.448 -102.149)" fill="#ffa6a6"/>
        <path id="Trazado_180617" data-name="Trazado 180617" d="M186.276,287.657a.4.4,0,0,1-.07-.006.4.4,0,0,1-.319-.457l2.072-11.03a.394.394,0,0,1,.776.139l-2.072,11.03a.393.393,0,0,1-.387.325" transform="translate(-57.686 -85.604)" fill="#361524"/>
        <path id="Trazado_180618" data-name="Trazado 180618" d="M212.629,267.722a.38.38,0,0,1-.062,0,.4.4,0,0,1-.328-.451l2.423-15.366a.4.4,0,0,1,.451-.328.4.4,0,0,1,.328.451l-2.423,15.367a.4.4,0,0,1-.389.332" transform="translate(-65.865 -78.072)" fill="#361524"/>
        <path id="Trazado_180619" data-name="Trazado 180619" d="M230.248,280.782l-.051,0a.4.4,0,0,1-.341-.441l1.567-12.282a.394.394,0,0,1,.782.1l-1.567,12.282a.394.394,0,0,1-.39.344" transform="translate(-71.333 -83.082)" fill="#361524"/>
        <path id="Trazado_180620" data-name="Trazado 180620" d="M245.192,294.828l-.041,0a.394.394,0,0,1-.351-.433l1.262-12.127a.4.4,0,0,1,.433-.351.4.4,0,0,1,.351.433l-1.263,12.127a.394.394,0,0,1-.391.353" transform="translate(-75.971 -87.489)" fill="#361524"/>
        <path id="Trazado_180621" data-name="Trazado 180621" d="M297.193,89.012l-36.986,27-3.681-5.061-7.355,2.041-1.134-12.5-4.976-6.883Z" transform="translate(-75.432 -27.624)" fill="#88cbf7"/>
        <path id="Trazado_180622" data-name="Trazado 180622" d="M258.764,116.116l-7.355,2.041-1.133-12.5Z" transform="translate(-77.671 -32.79)" fill="#361524"/>
        <path id="Trazado_180623" data-name="Trazado 180623" d="M250.671,100.944a.394.394,0,0,1-.089-.778L297.7,89.212a.394.394,0,1,1,.179.768L250.76,100.934a.407.407,0,0,1-.09.01" transform="translate(-77.671 -27.683)" fill="#361524"/>
        <path id="Trazado_180624" data-name="Trazado 180624" d="M252.838,233.555l-10.8,12.416s10.5,11.528,16.417,5.912a11.1,11.1,0,0,0,1.177-3.317c.717-6.17-1.768-17.672-1.768-17.672Z" transform="translate(-75.114 -71.656)" fill="#361524"/>
        <path id="Trazado_180625" data-name="Trazado 180625" d="M288.875,187.529l-3.508,4.281-.552.686-15.584,19.037-.536.67-4.643,5.668-.591.725-9.168,11.2a.126.126,0,0,1,.008-.031c.119-.37,1.159-4.281-2.869-10.95a18.668,18.668,0,0,0-4.9-4.879c-7.008-5.163-17.9-9.459-17.9-9.459s9.247-10,20.835-23.452c7.875-9.128,16.184-21.284,16.184-21.284s12.3,6.7,17.619,12.021c3.595,3.595,9.853,8.766,5.612,15.766" transform="translate(-70.952 -49.574)" fill="#f0dcd8"/>
        <path id="Trazado_180626" data-name="Trazado 180626" d="M270.923,236.1l-.591.725a22.931,22.931,0,0,0-2.491-5.6c-3.768-6-10.4-9.475-16.806-11.95-.473-.181-.268-.946.2-.765,6.614,2.555,13.4,6.133,17.279,12.313a22.81,22.81,0,0,1,2.4,5.274" transform="translate(-77.823 -67.805)" fill="#fff"/>
        <path id="Trazado_180627" data-name="Trazado 180627" d="M278.907,226.925l-.537.67a34.676,34.676,0,0,0-18.3-17.461c-.465-.189-.26-.954.213-.765a35.558,35.558,0,0,1,18.628,17.555" transform="translate(-80.628 -64.967)" fill="#fff"/>
        <path id="Trazado_180628" data-name="Trazado 180628" d="M302.026,197.717l-.552.686a34.69,34.69,0,0,0-18.911-18.832c-.457-.2-.252-.954.212-.765a35.576,35.576,0,0,1,19.251,18.911" transform="translate(-87.611 -55.481)" fill="#fff"/>
        <path id="Trazado_180629" data-name="Trazado 180629" d="M121.35,90.949s8.451-20.962,10.73-42.666c2.277-21.678,0-36.853,0-36.853S151.3,9.657,164.312,6.7A239.839,239.839,0,0,0,187.961,0s.112,21.37-1.577,34.291C182.8,61.684,176.662,74.2,176.662,74.2s-5.8,5.238-23.78,10.149a239.8,239.8,0,0,1-31.532,6.6" transform="translate(-37.66)" fill="#f0dcd8"/>
        <path id="Trazado_180630" data-name="Trazado 180630" d="M158.891,27.491a.394.394,0,0,1-.045-.786c.091-.01,9.13-1.067,16.253-2.621s14.6-4.037,14.675-4.062a.394.394,0,1,1,.249.748c-.075.025-7.592,2.521-14.756,4.084s-16.239,2.623-16.33,2.634a.347.347,0,0,1-.046,0" transform="translate(-49.188 -6.208)" fill="#fff"/>
        <path id="Trazado_180631" data-name="Trazado 180631" d="M149.618,55.928a.394.394,0,0,1-.048-.785c.132-.017,13.226-1.641,20.35-3.2s18.621-5.033,18.735-5.068a.394.394,0,0,1,.23.754c-.117.035-11.638,3.522-18.8,5.083s-20.29,3.191-20.422,3.208a.388.388,0,0,1-.049,0" transform="translate(-46.31 -14.543)" fill="#fff"/>
        <path id="Trazado_180632" data-name="Trazado 180632" d="M148.259,67.643a.394.394,0,0,1-.048-.785c.132-.017,13.226-1.641,20.35-3.2S187.183,58.63,187.3,58.6a.394.394,0,0,1,.23.754c-.116.035-11.637,3.522-18.8,5.083s-20.29,3.191-20.422,3.208a.416.416,0,0,1-.05,0" transform="translate(-45.889 -18.179)" fill="#fff"/>
        <path id="Trazado_180633" data-name="Trazado 180633" d="M147.081,79.645a.394.394,0,0,1-.048-.785c.132-.017,13.225-1.641,20.349-3.2S186,70.632,186.119,70.6a.394.394,0,0,1,.229.754c-.116.035-11.639,3.522-18.8,5.083s-20.289,3.191-20.421,3.208a.4.4,0,0,1-.049,0" transform="translate(-45.523 -21.904)" fill="#fff"/>
        <path id="Trazado_180634" data-name="Trazado 180634" d="M145.41,93.932a.394.394,0,0,1-.048-.785c.132-.017,13.226-1.641,20.35-3.2a.394.394,0,0,1,.168.77c-7.161,1.563-20.29,3.191-20.422,3.208a.4.4,0,0,1-.049,0" transform="translate(-45.004 -27.913)" fill="#fff"/>
        <path id="Trazado_180635" data-name="Trazado 180635" d="M119.963,294.109a.4.4,0,0,1-.389-.328,22.176,22.176,0,0,0-1.958-5.19,14.522,14.522,0,0,0-3.915-5.149.394.394,0,0,1,.458-.641,15.006,15.006,0,0,1,4.166,5.445,22.457,22.457,0,0,1,2.027,5.4.394.394,0,0,1-.323.454.361.361,0,0,1-.066.006" transform="translate(-35.235 -87.742)" fill="#361524"/>
        <path id="Trazado_180636" data-name="Trazado 180636" d="M82.83,131.211a.394.394,0,0,1-.264-.687,58.511,58.511,0,0,0,16.857-26.207c3.013-10.1,4.79-28.468-7.661-33.233-5.932-2.27-14.464-.967-17.9,5.1a12.049,12.049,0,0,0,1.632,14.556,9.163,9.163,0,0,0,10.172,1.9c2.656-1.183,4.241-3.434,4.135-5.873a4.823,4.823,0,0,0-1.6-3.812,5.018,5.018,0,0,0-3.7-.746.394.394,0,1,1-.165-.77,5.756,5.756,0,0,1,4.348.893,5.567,5.567,0,0,1,1.909,4.4c.119,2.77-1.644,5.309-4.6,6.627A9.948,9.948,0,0,1,74.941,91.3,12.835,12.835,0,0,1,73.175,75.79c3.692-6.514,12.494-7.884,18.868-5.443,12.146,4.648,11.975,21.326,8.136,34.195a59.306,59.306,0,0,1-17.085,26.567.4.4,0,0,1-.264.1" transform="translate(-22.149 -21.48)" fill="#5dace1"/>
        <path id="Trazado_180637" data-name="Trazado 180637" d="M171.863,186.735a22.621,22.621,0,0,1-21.885-15.824,43.232,43.232,0,0,1-1.239-8.111c-.808-8.586-1.722-18.317-11.961-21.147-13.9-3.841-29.73,8.669-29.887,8.8a.394.394,0,0,1-.493-.615c.161-.129,16.308-12.89,30.59-8.941,10.764,2.975,11.746,13.431,12.536,21.833a42.818,42.818,0,0,0,1.208,7.953c3.512,11.4,15.629,17.716,27.588,14.372a26.683,26.683,0,0,0,17.05-15.779,18.884,18.884,0,0,0-1.4-17.271c-2.353-3.7-7.066-5.79-12.031-5.31a12.014,12.014,0,0,0-10.327,7.536,9.627,9.627,0,0,0,.97,8.737,9.084,9.084,0,0,0,7.249,4.246c.239.01.482.011.724,0a7.756,7.756,0,0,0,5.046-2.1,7.007,7.007,0,0,0,.941-8.709,4.772,4.772,0,0,0-4.11-1.766,3.733,3.733,0,0,0-3.141,2,.394.394,0,0,1-.7-.362,4.523,4.523,0,0,1,3.782-2.429,5.57,5.57,0,0,1,4.808,2.089,7.831,7.831,0,0,1-1.031,9.736A8.552,8.552,0,0,1,180.587,168c-.265.011-.53.011-.792,0a9.862,9.862,0,0,1-7.875-4.6,10.423,10.423,0,0,1-1.043-9.455,12.792,12.792,0,0,1,10.986-8.033c5.25-.506,10.261,1.721,12.771,5.672a19.655,19.655,0,0,1,1.472,17.977,27.5,27.5,0,0,1-17.574,16.256,24.733,24.733,0,0,1-6.669.924" transform="translate(-32.973 -43.49)" fill="#5dace1"/>
        <path id="Trazado_180638" data-name="Trazado 180638" d="M231.14,170.282a.393.393,0,0,1-.338-.6c.09-.15,9.136-15.115,20.033-26.059,10.793-10.838,24.422-21.813,43.542-21,9.626.4,19.754,5.452,20.682,15.818.688,7.681-5.685,15.364-13.637,16.441a12.645,12.645,0,0,1-10.63-3.107c-3.972-3.847-4.6-10.255-1.392-14.286,2.165-2.723,6.412-5.36,10.619-4.712a7.12,7.12,0,0,1,6.133,7.379,5.6,5.6,0,0,1-4.73,5.487c-1.876.273-4.239-.568-4.937-2.453a.394.394,0,1,1,.739-.274c.552,1.491,2.552,2.17,4.084,1.947a4.822,4.822,0,0,0,4.055-4.737,6.341,6.341,0,0,0-5.465-6.57c-3.9-.6-7.855,1.873-9.882,4.423-2.959,3.723-2.366,9.657,1.323,13.229a11.869,11.869,0,0,0,9.976,2.892c7.555-1.024,13.61-8.309,12.959-15.59-.886-9.891-10.648-14.712-19.929-15.1-18.864-.8-32.281,10.058-42.951,20.774-10.828,10.874-19.826,25.759-19.916,25.908a.4.4,0,0,1-.338.191" transform="translate(-71.609 -38.041)" fill="#5dace1"/>
        <path id="Trazado_180639" data-name="Trazado 180639" d="M165.134,107a51.419,51.419,0,0,1-10.934-1.239c-9.268-2.057-19.676-.02-19.781,0a.394.394,0,0,1-.154-.773c.106-.021,10.677-2.09,20.106,0,8.175,1.814,28.042,4.117,35.947-13.633,1.84-4.13,3.078-7.619,4.389-11.314.539-1.519,1.1-3.094,1.727-4.8A21.307,21.307,0,0,1,208.59,62.623c5.4-2.09,11.259-2.286,16.919-2.475l.526-.017a35.7,35.7,0,0,0,16.157-4c7.6-4.123,10.413-12.408,6.847-20.147a18.732,18.732,0,0,0-1.209-2.219c-2.934-4.588-8.852-7.754-14.724-7.872a14.819,14.819,0,0,0-12.321,6.462,13.6,13.6,0,0,0-1.07,12.445,11.423,11.423,0,0,0,8.2,6.765,9.916,9.916,0,0,0,8.066-1.917,8.632,8.632,0,0,0,3.384-6.6,6.679,6.679,0,0,0-4.711-6.784,5.894,5.894,0,0,0-6.928,2.519.394.394,0,0,1-.663-.427,6.726,6.726,0,0,1,7.826-2.845,7.538,7.538,0,0,1,5.265,7.562,9.409,9.409,0,0,1-3.686,7.194,10.713,10.713,0,0,1-8.716,2.069,12.2,12.2,0,0,1-8.766-7.226,14.392,14.392,0,0,1,1.121-13.167c2.443-4,7.769-6.843,12.745-6.843.089,0,.177,0,.265,0,6.125.125,12.3,3.434,15.373,8.237a19.453,19.453,0,0,1,1.261,2.313c3.748,8.134.793,16.84-7.187,21.17a36.442,36.442,0,0,1-16.507,4.1l-.526.017c-5.6.188-11.381.381-16.661,2.423a20.249,20.249,0,0,0-11.7,12.157c-.628,1.7-1.186,3.272-1.723,4.788-1.317,3.708-2.559,7.212-4.411,11.371C185.505,104.1,174.344,107,165.134,107" transform="translate(-41.569 -7.789)" fill="#5dace1"/>
      </g>
    </g>
  </g>
  <g id="Grupo_174486" data-name="Grupo 174486" transform="translate(191 63.773)">
    <path id="Trazado_180961" data-name="Trazado 180961" d="M15.105,17H12.816l.844-4.875H9.246L8.395,17H6.105L8.082,5.625h2.289l-.8,4.609h4.422l.8-4.609h2.289Zm6.742-8.609a3.39,3.39,0,0,1,1.926.574A3.234,3.234,0,0,1,24.961,10.5a4.762,4.762,0,0,1,.27,2.176,5.143,5.143,0,0,1-1.4,3.262,3.96,3.96,0,0,1-3.02,1.215A3.38,3.38,0,0,1,18.9,16.59a3.222,3.222,0,0,1-1.187-1.527,4.657,4.657,0,0,1-.273-2.156,5.3,5.3,0,0,1,1.422-3.328A3.878,3.878,0,0,1,21.848,8.391Zm-2.227,5.315a1.95,1.95,0,0,0,.352,1.182,1.168,1.168,0,0,0,.945.449,1.712,1.712,0,0,0,1.594-.932,4.647,4.647,0,0,0,.539-2.531,2.122,2.122,0,0,0-.363-1.2,1.149,1.149,0,0,0-.949-.464,1.715,1.715,0,0,0-1.574.924A4.6,4.6,0,0,0,19.621,13.706Zm13.875.216L35.5,8.547h2.2L34.145,17H32.3l-.625-5.289L29.207,17H27.363l-.625-8.453H28.8l.133,5.32,2.414-5.32h1.594ZM46.184,17a2.281,2.281,0,0,1-.086-.766,2.863,2.863,0,0,1-2.156.922,2.594,2.594,0,0,1-1.84-.723,2.186,2.186,0,0,1-.684-1.746,2.527,2.527,0,0,1,1.16-2.121,5.266,5.266,0,0,1,2.965-.738l1.031.016.109-.508a1.764,1.764,0,0,0,.023-.492.846.846,0,0,0-.277-.574.955.955,0,0,0-.629-.215,1.345,1.345,0,0,0-.875.254,1.231,1.231,0,0,0-.461.777l-2.211.008a2.457,2.457,0,0,1,1.113-1.965,4.312,4.312,0,0,1,2.613-.738,3.117,3.117,0,0,1,2.25.855,2.5,2.5,0,0,1,.68,2.121l-.648,4.047-.039.5a2.412,2.412,0,0,0,.133.938L48.348,17Zm-1.7-1.555a2.017,2.017,0,0,0,1.664-.828l.273-1.461-.766-.008a2.139,2.139,0,0,0-1.758.742,1.292,1.292,0,0,0-.242.633.75.75,0,0,0,.176.668A.891.891,0,0,0,44.488,15.445ZM55.48,10.664a4.548,4.548,0,0,0-.742-.078,2.136,2.136,0,0,0-1.867.883L51.895,17h-2.2L51.16,8.547l2.07-.008-.2,1.031A2.325,2.325,0,0,1,55,8.375a3.214,3.214,0,0,1,.766.109Zm3.969,6.492a3.677,3.677,0,0,1-1.965-.543,3.292,3.292,0,0,1-1.277-1.469,4.093,4.093,0,0,1-.328-2.059l.023-.312a5.465,5.465,0,0,1,.719-2.266,4.341,4.341,0,0,1,1.547-1.59,3.827,3.827,0,0,1,2.094-.527,2.924,2.924,0,0,1,2.473,1.2,4.117,4.117,0,0,1,.637,2.962l-.125.962h-5.18a1.814,1.814,0,0,0,.4,1.313,1.521,1.521,0,0,0,1.172.508,2.7,2.7,0,0,0,2.109-.937l1.008,1.25a3.135,3.135,0,0,1-1.375,1.121A4.5,4.5,0,0,1,59.449,17.156Zm.7-6.945a1.565,1.565,0,0,0-1.082.383,3.363,3.363,0,0,0-.848,1.383h3.031l.047-.2a2.071,2.071,0,0,0,.008-.594,1.134,1.134,0,0,0-.383-.707A1.2,1.2,0,0,0,60.152,10.211ZM72.316,6.469l-.367,2.078h1.406L73.066,10.2H71.66l-.719,4.234a1.077,1.077,0,0,0,.063.609q.109.211.531.227.125.008.672-.039l-.156,1.727a3.706,3.706,0,0,1-1.266.18,1.985,1.985,0,0,1-1.617-.68,2.456,2.456,0,0,1-.437-1.8l.727-4.461h-1.2l.289-1.656h1.2l.359-2.078Zm4.211,3.016a2.946,2.946,0,0,1,2.289-1.094,2.143,2.143,0,0,1,1.848.9,3.548,3.548,0,0,1,.441,2.379L80.215,17h-2.2l.9-5.358a2.6,2.6,0,0,0,.016-.563.885.885,0,0,0-.984-.868,1.9,1.9,0,0,0-1.562.766L75.316,17h-2.2L75.191,5H77.4Zm9.422,7.672a3.677,3.677,0,0,1-1.965-.543,3.292,3.292,0,0,1-1.277-1.469,4.093,4.093,0,0,1-.328-2.059l.023-.312a5.465,5.465,0,0,1,.719-2.266,4.341,4.341,0,0,1,1.547-1.59,3.827,3.827,0,0,1,2.094-.527,2.924,2.924,0,0,1,2.473,1.2,4.117,4.117,0,0,1,.637,2.962l-.125.962h-5.18a1.814,1.814,0,0,0,.4,1.313,1.521,1.521,0,0,0,1.172.508,2.7,2.7,0,0,0,2.109-.937l1.008,1.25a3.135,3.135,0,0,1-1.375,1.121A4.5,4.5,0,0,1,85.949,17.156Zm.7-6.945a1.565,1.565,0,0,0-1.082.383,3.363,3.363,0,0,0-.848,1.383h3.031l.047-.2a2.071,2.071,0,0,0,.008-.594,1.134,1.134,0,0,0-.383-.707A1.2,1.2,0,0,0,86.652,10.211Zm7.336,3.57L96.4,8.547h2.453L93.91,18.273a4.231,4.231,0,0,1-1.246,1.641,2.723,2.723,0,0,1-1.652.523,5.035,5.035,0,0,1-1.062-.164l.164-1.719.3.016A1.651,1.651,0,0,0,92,17.781l.484-.9L91.1,8.547h2.281Zm12.422-5.4a2.4,2.4,0,0,1,1.906.945L109.145,5h2.211l-2.078,12h-1.969l.125-.906a2.736,2.736,0,0,1-2.2,1.07,2.433,2.433,0,0,1-1.383-.414,2.607,2.607,0,0,1-.918-1.168,4.7,4.7,0,0,1-.355-1.7,6.4,6.4,0,0,1,.023-.953l.047-.352a6.767,6.767,0,0,1,.723-2.281,3.766,3.766,0,0,1,1.313-1.461A3.094,3.094,0,0,1,106.41,8.383Zm-1.6,4.547a6.327,6.327,0,0,0-.039,1q.078,1.375,1.109,1.4a1.885,1.885,0,0,0,1.617-.875l.6-3.359a1.248,1.248,0,0,0-1.219-.875,1.606,1.606,0,0,0-1.34.621A4.176,4.176,0,0,0,104.809,12.93ZM113.363,17h-2.219l1.469-8.453h2.219Zm-.492-10.6a1.1,1.1,0,0,1,.344-.867,1.323,1.323,0,0,1,1.734-.039,1.1,1.1,0,0,1,.383.828,1.132,1.132,0,0,1-.324.844,1.215,1.215,0,0,1-.887.375,1.235,1.235,0,0,1-.863-.3A1.091,1.091,0,0,1,112.871,6.4ZM115.824,17,117,10.2h-1.219l.289-1.648,1.219-.008L117.4,7.7a3.332,3.332,0,0,1,1.1-2.121,3.334,3.334,0,0,1,2.289-.754,7.33,7.33,0,0,1,1.2.163l-.2,1.751a2.732,2.732,0,0,0-.648-.094,1.615,1.615,0,0,0-1,.3,1.355,1.355,0,0,0-.52.918l-.117.69h1.633l-.289,1.648h-1.625l-1.18,6.8Zm5.641,0,1.18-6.8h-1.219l.289-1.648,1.219-.008.109-.844a3.332,3.332,0,0,1,1.1-2.121,3.334,3.334,0,0,1,2.289-.754,7.33,7.33,0,0,1,1.2.163l-.2,1.751a2.732,2.732,0,0,0-.648-.094,1.615,1.615,0,0,0-1,.3,1.355,1.355,0,0,0-.52.918l-.117.69h1.633l-.289,1.648h-1.625l-1.18,6.8Zm9.063.156a3.677,3.677,0,0,1-1.965-.543,3.292,3.292,0,0,1-1.277-1.469,4.093,4.093,0,0,1-.328-2.059l.023-.312a5.465,5.465,0,0,1,.719-2.266,4.341,4.341,0,0,1,1.547-1.59,3.827,3.827,0,0,1,2.094-.527,2.924,2.924,0,0,1,2.473,1.2,4.117,4.117,0,0,1,.637,2.962l-.125.962h-5.18a1.814,1.814,0,0,0,.4,1.313,1.521,1.521,0,0,0,1.172.508,2.7,2.7,0,0,0,2.109-.937l1.008,1.25a3.135,3.135,0,0,1-1.375,1.121A4.5,4.5,0,0,1,130.527,17.156Zm.7-6.945a1.565,1.565,0,0,0-1.082.383,3.363,3.363,0,0,0-.848,1.383h3.031l.047-.2a2.071,2.071,0,0,0,.008-.594,1.134,1.134,0,0,0-.383-.707A1.2,1.2,0,0,0,131.23,10.211Zm9.539.453a4.548,4.548,0,0,0-.742-.078,2.136,2.136,0,0,0-1.867.883L137.184,17h-2.2l1.469-8.453,2.07-.008-.2,1.031a2.325,2.325,0,0,1,1.969-1.2,3.214,3.214,0,0,1,.766.109Zm3.969,6.492a3.677,3.677,0,0,1-1.965-.543,3.292,3.292,0,0,1-1.277-1.469,4.093,4.093,0,0,1-.328-2.059l.023-.312a5.465,5.465,0,0,1,.719-2.266,4.341,4.341,0,0,1,1.547-1.59,3.827,3.827,0,0,1,2.094-.527,2.924,2.924,0,0,1,2.473,1.2,4.117,4.117,0,0,1,.637,2.962l-.125.962h-5.18a1.814,1.814,0,0,0,.4,1.313,1.521,1.521,0,0,0,1.172.508,2.7,2.7,0,0,0,2.109-.937l1.008,1.25a3.135,3.135,0,0,1-1.375,1.121A4.5,4.5,0,0,1,144.738,17.156Zm.7-6.945a1.565,1.565,0,0,0-1.082.383,3.363,3.363,0,0,0-.848,1.383h3.031l.047-.2a2.071,2.071,0,0,0,.008-.594,1.134,1.134,0,0,0-.383-.707A1.2,1.2,0,0,0,145.441,10.211Zm7.234-1.672-.187,1a3.042,3.042,0,0,1,2.461-1.148,2.028,2.028,0,0,1,1.766.875,3.526,3.526,0,0,1,.414,2.359L156.238,17h-2.2l.906-5.4a2.527,2.527,0,0,0,.016-.555.9.9,0,0,0-1-.82,1.9,1.9,0,0,0-1.555.8L151.348,17h-2.2l1.469-8.453Zm9.758-2.07-.367,2.078h1.406l-.289,1.656h-1.406l-.719,4.234a1.077,1.077,0,0,0,.063.609q.109.211.531.227.125.008.672-.039l-.156,1.727a3.706,3.706,0,0,1-1.266.18,1.985,1.985,0,0,1-1.617-.68,2.456,2.456,0,0,1-.437-1.8l.727-4.461h-1.2l.289-1.656h1.2l.359-2.078Zm3.336,7.047a4.545,4.545,0,0,1,.418-1.715,3.918,3.918,0,0,1,1.078-1.289,10.06,10.06,0,0,0,.98-.864,2,2,0,0,0,.586-1.583.8.8,0,0,0-.883-.784,1.25,1.25,0,0,0-.937.352,1.835,1.835,0,0,0-.508,1l-2.211.016A3.2,3.2,0,0,1,165.438,6.3a3.836,3.836,0,0,1,2.621-.836,3.254,3.254,0,0,1,2.3.844,2.6,2.6,0,0,1,.727,2.164,3.71,3.71,0,0,1-1.516,2.523l-1,.828a2.8,2.8,0,0,0-.875,1.688Zm-.727,2.438a1.161,1.161,0,0,1,.336-.883,1.238,1.238,0,0,1,.883-.375,1.191,1.191,0,0,1,.867.316,1.213,1.213,0,0,1,.055,1.715,1.215,1.215,0,0,1-.891.383,1.265,1.265,0,0,1-.879-.32A1.121,1.121,0,0,1,165.043,15.953Z" transform="translate(3 66.727)" fill="#3c3fa7" opacity="0.8"/>
    <g id="Grupo_174485" data-name="Grupo 174485">
      <rect id="Rectángulo_45058" data-name="Rectángulo 45058" width="183" height="52" rx="12" fill="#3c3fa7"/>
      <path id="Trazado_180960" data-name="Trazado 180960" d="M9.258,12.836H7.4L6.672,17H4.383L6.359,5.625l3.766.008a4.289,4.289,0,0,1,2.91.891A2.817,2.817,0,0,1,13.938,9a3.574,3.574,0,0,1-2.5,3.258l1.6,4.617V17H10.6Zm-1.531-1.9,1.7.016a2.386,2.386,0,0,0,1.5-.488,1.933,1.933,0,0,0,.707-1.285,1.473,1.473,0,0,0-.242-1.187,1.442,1.442,0,0,0-1.117-.461L8.32,7.523Zm10.516,6.219a3.677,3.677,0,0,1-1.965-.543A3.292,3.292,0,0,1,15,15.145a4.093,4.093,0,0,1-.328-2.059l.023-.312a5.465,5.465,0,0,1,.719-2.266,4.341,4.341,0,0,1,1.547-1.59,3.827,3.827,0,0,1,2.094-.527,2.924,2.924,0,0,1,2.473,1.2,4.117,4.117,0,0,1,.637,2.962l-.125.962h-5.18a1.814,1.814,0,0,0,.4,1.313,1.521,1.521,0,0,0,1.172.508,2.7,2.7,0,0,0,2.109-.937l1.008,1.25a3.135,3.135,0,0,1-1.375,1.121A4.5,4.5,0,0,1,18.242,17.156Zm.7-6.945a1.565,1.565,0,0,0-1.082.383,3.363,3.363,0,0,0-.848,1.383h3.031l.047-.2a2.071,2.071,0,0,0,.008-.594,1.134,1.134,0,0,0-.383-.707A1.2,1.2,0,0,0,18.945,10.211Zm4.172,2.555a5.849,5.849,0,0,1,1.277-3.184,3.242,3.242,0,0,1,2.629-1.2,2.37,2.37,0,0,1,2.016.977l.289-.82,2.023.008-1.383,8.164a3.983,3.983,0,0,1-1.437,2.672,4.471,4.471,0,0,1-3,.953,4.168,4.168,0,0,1-1.672-.379,3.575,3.575,0,0,1-1.312-1l1.094-1.344a2.349,2.349,0,0,0,1.844.961,2.166,2.166,0,0,0,1.469-.449,2.4,2.4,0,0,0,.828-1.355l.125-.508a2.749,2.749,0,0,1-2.07.891,2.428,2.428,0,0,1-1.961-.918,3.947,3.947,0,0,1-.8-2.348A7.89,7.89,0,0,1,23.117,12.766Zm2.164.927a2.02,2.02,0,0,0,.309,1.178,1.08,1.08,0,0,0,.895.466,1.972,1.972,0,0,0,1.594-.767l.656-3.583a1.3,1.3,0,0,0-1.242-.767,1.728,1.728,0,0,0-1.43.681,3.561,3.561,0,0,0-.734,1.87A8.214,8.214,0,0,0,25.281,13.693Zm11.586,2.432a2.919,2.919,0,0,1-2.328,1.031,2.172,2.172,0,0,1-1.844-.875,3.2,3.2,0,0,1-.484-2.266l.914-5.469h2.2l-.93,5.5a2.175,2.175,0,0,0-.008.485.8.8,0,0,0,.867.806,2.014,2.014,0,0,0,1.7-.79l1.055-6h2.219L38.758,17H36.7ZM42.727,17H40.508L42.594,5H44.8Zm6.758,0a2.281,2.281,0,0,1-.086-.766,2.863,2.863,0,0,1-2.156.922,2.594,2.594,0,0,1-1.84-.723,2.186,2.186,0,0,1-.684-1.746,2.527,2.527,0,0,1,1.16-2.121,5.266,5.266,0,0,1,2.965-.738l1.031.016.109-.508a1.764,1.764,0,0,0,.023-.492.846.846,0,0,0-.277-.574.955.955,0,0,0-.629-.215,1.345,1.345,0,0,0-.875.254,1.231,1.231,0,0,0-.461.777l-2.211.008a2.457,2.457,0,0,1,1.113-1.965,4.312,4.312,0,0,1,2.613-.738,3.117,3.117,0,0,1,2.25.855,2.5,2.5,0,0,1,.68,2.121l-.648,4.047-.039.5a2.412,2.412,0,0,0,.133.938L51.648,17Zm-1.7-1.555a2.017,2.017,0,0,0,1.664-.828l.273-1.461-.766-.008a2.139,2.139,0,0,0-1.758.742,1.292,1.292,0,0,0-.242.633.75.75,0,0,0,.176.668A.891.891,0,0,0,47.789,15.445Zm10.992-4.781a4.548,4.548,0,0,0-.742-.078,2.136,2.136,0,0,0-1.867.883L55.2,17h-2.2l1.469-8.453,2.07-.008-.2,1.031a2.325,2.325,0,0,1,1.969-1.2,3.214,3.214,0,0,1,.766.109ZM67.57,17a2.281,2.281,0,0,1-.086-.766,2.863,2.863,0,0,1-2.156.922,2.594,2.594,0,0,1-1.84-.723,2.186,2.186,0,0,1-.684-1.746,2.527,2.527,0,0,1,1.16-2.121,5.266,5.266,0,0,1,2.965-.738l1.031.016.109-.508a1.764,1.764,0,0,0,.023-.492.846.846,0,0,0-.277-.574.955.955,0,0,0-.629-.215,1.345,1.345,0,0,0-.875.254,1.231,1.231,0,0,0-.461.777l-2.211.008a2.457,2.457,0,0,1,1.113-1.965,4.312,4.312,0,0,1,2.613-.738,3.117,3.117,0,0,1,2.25.855,2.5,2.5,0,0,1,.68,2.121l-.648,4.047-.039.5a2.412,2.412,0,0,0,.133.938L69.734,17Zm-1.7-1.555a2.017,2.017,0,0,0,1.664-.828l.273-1.461-.766-.008a2.139,2.139,0,0,0-1.758.742,1.292,1.292,0,0,0-.242.633.75.75,0,0,0,.176.668A.891.891,0,0,0,65.875,15.445Zm8.688-6.906-.187,1a3.042,3.042,0,0,1,2.461-1.148,2.028,2.028,0,0,1,1.766.875,3.526,3.526,0,0,1,.414,2.359L78.125,17h-2.2l.906-5.4a2.528,2.528,0,0,0,.016-.555.9.9,0,0,0-1-.82,1.9,1.9,0,0,0-1.555.8L73.234,17h-2.2L72.5,8.547Zm9.484-.156a2.4,2.4,0,0,1,1.906.945L86.781,5h2.211L86.914,17H84.945l.125-.906a2.736,2.736,0,0,1-2.2,1.07,2.433,2.433,0,0,1-1.383-.414,2.607,2.607,0,0,1-.918-1.168,4.7,4.7,0,0,1-.355-1.7,6.4,6.4,0,0,1,.023-.953l.047-.352A6.767,6.767,0,0,1,81,10.3a3.766,3.766,0,0,1,1.313-1.461A3.094,3.094,0,0,1,84.047,8.383Zm-1.6,4.547a6.327,6.327,0,0,0-.039,1q.078,1.375,1.109,1.4a1.885,1.885,0,0,0,1.617-.875l.6-3.359a1.248,1.248,0,0,0-1.219-.875,1.606,1.606,0,0,0-1.34.621A4.176,4.176,0,0,0,82.445,12.93ZM94.945,17H92.727L94.2,8.547h2.219ZM94.453,6.4a1.1,1.1,0,0,1,.344-.867,1.323,1.323,0,0,1,1.734-.039,1.1,1.1,0,0,1,.383.828,1.132,1.132,0,0,1-.324.844,1.215,1.215,0,0,1-.887.375,1.235,1.235,0,0,1-.863-.3A1.091,1.091,0,0,1,94.453,6.4Zm8.148,4.266a4.548,4.548,0,0,0-.742-.078,2.136,2.136,0,0,0-1.867.883L99.016,17h-2.2l1.469-8.453,2.07-.008-.2,1.031a2.325,2.325,0,0,1,1.969-1.2,3.214,3.214,0,0,1,.766.109Zm5.742,0a4.548,4.548,0,0,0-.742-.078,2.136,2.136,0,0,0-1.867.883L104.758,17h-2.2l1.469-8.453,2.07-.008-.2,1.031a2.325,2.325,0,0,1,1.969-1.2,3.214,3.214,0,0,1,.766.109Zm3.969,6.492a3.677,3.677,0,0,1-1.965-.543,3.292,3.292,0,0,1-1.277-1.469,4.093,4.093,0,0,1-.328-2.059l.023-.312a5.465,5.465,0,0,1,.719-2.266,4.341,4.341,0,0,1,1.547-1.59,3.827,3.827,0,0,1,2.094-.527,2.924,2.924,0,0,1,2.473,1.2,4.117,4.117,0,0,1,.637,2.962l-.125.962h-5.18a1.814,1.814,0,0,0,.4,1.313,1.521,1.521,0,0,0,1.172.508,2.7,2.7,0,0,0,2.109-.937l1.008,1.25a3.135,3.135,0,0,1-1.375,1.121A4.5,4.5,0,0,1,112.313,17.156Zm.7-6.945a1.565,1.565,0,0,0-1.082.383,3.363,3.363,0,0,0-.848,1.383h3.031l.047-.2a2.071,2.071,0,0,0,.008-.594,1.134,1.134,0,0,0-.383-.707A1.2,1.2,0,0,0,113.016,10.211Zm4.172,2.555a5.849,5.849,0,0,1,1.277-3.184,3.242,3.242,0,0,1,2.629-1.2,2.37,2.37,0,0,1,2.016.977l.289-.82,2.023.008-1.383,8.164a3.983,3.983,0,0,1-1.437,2.672,4.471,4.471,0,0,1-3,.953,4.168,4.168,0,0,1-1.672-.379,3.575,3.575,0,0,1-1.312-1l1.094-1.344a2.349,2.349,0,0,0,1.844.961,2.166,2.166,0,0,0,1.469-.449,2.4,2.4,0,0,0,.828-1.355l.125-.508a2.749,2.749,0,0,1-2.07.891,2.428,2.428,0,0,1-1.961-.918,3.947,3.947,0,0,1-.8-2.348A7.89,7.89,0,0,1,117.188,12.766Zm2.164.927a2.02,2.02,0,0,0,.309,1.178,1.08,1.08,0,0,0,.895.466,1.972,1.972,0,0,0,1.594-.767l.656-3.583a1.3,1.3,0,0,0-1.242-.767,1.728,1.728,0,0,0-1.43.681,3.561,3.561,0,0,0-.734,1.87A8.213,8.213,0,0,0,119.352,13.693Zm11.586,2.432a2.919,2.919,0,0,1-2.328,1.031,2.172,2.172,0,0,1-1.844-.875,3.2,3.2,0,0,1-.484-2.266l.914-5.469h2.2l-.93,5.5a2.175,2.175,0,0,0-.008.485.8.8,0,0,0,.867.806,2.014,2.014,0,0,0,1.7-.79l1.055-6H134.3L132.828,17h-2.055ZM136.8,17h-2.219l2.086-12h2.211Zm6.758,0a2.281,2.281,0,0,1-.086-.766,2.863,2.863,0,0,1-2.156.922,2.594,2.594,0,0,1-1.84-.723,2.186,2.186,0,0,1-.684-1.746,2.527,2.527,0,0,1,1.16-2.121,5.266,5.266,0,0,1,2.965-.738l1.031.016.109-.508a1.764,1.764,0,0,0,.023-.492.846.846,0,0,0-.277-.574.955.955,0,0,0-.629-.215,1.345,1.345,0,0,0-.875.254,1.231,1.231,0,0,0-.461.777l-2.211.008a2.457,2.457,0,0,1,1.113-1.965,4.312,4.312,0,0,1,2.613-.738,3.117,3.117,0,0,1,2.25.855,2.5,2.5,0,0,1,.68,2.121l-.648,4.047-.039.5a2.412,2.412,0,0,0,.133.938l-.008.148Zm-1.7-1.555a2.017,2.017,0,0,0,1.664-.828l.273-1.461-.766-.008a2.139,2.139,0,0,0-1.758.742,1.292,1.292,0,0,0-.242.633.75.75,0,0,0,.176.668A.891.891,0,0,0,141.859,15.445Zm10.992-4.781a4.548,4.548,0,0,0-.742-.078,2.136,2.136,0,0,0-1.867.883L149.266,17h-2.2l1.469-8.453,2.07-.008-.2,1.031a2.325,2.325,0,0,1,1.969-1.2,3.214,3.214,0,0,1,.766.109ZM55.3,39a2.281,2.281,0,0,1-.086-.766,2.863,2.863,0,0,1-2.156.922,2.594,2.594,0,0,1-1.84-.723,2.186,2.186,0,0,1-.684-1.746,2.527,2.527,0,0,1,1.16-2.121,5.266,5.266,0,0,1,2.965-.738l1.031.016.109-.508a1.764,1.764,0,0,0,.023-.492.846.846,0,0,0-.277-.574.955.955,0,0,0-.629-.215,1.345,1.345,0,0,0-.875.254,1.231,1.231,0,0,0-.461.777l-2.211.008a2.457,2.457,0,0,1,1.113-1.965,4.312,4.312,0,0,1,2.613-.738,3.117,3.117,0,0,1,2.25.855,2.5,2.5,0,0,1,.68,2.121l-.648,4.047-.039.5a2.412,2.412,0,0,0,.133.938L57.469,39Zm-1.7-1.555a2.017,2.017,0,0,0,1.664-.828l.273-1.461-.766-.008a2.139,2.139,0,0,0-1.758.742,1.292,1.292,0,0,0-.242.633.75.75,0,0,0,.176.668A.891.891,0,0,0,53.609,37.445Zm9.4-7.062a2.4,2.4,0,0,1,1.906.945L65.742,27h2.211L65.875,39H63.906l.125-.906a2.736,2.736,0,0,1-2.2,1.07,2.433,2.433,0,0,1-1.383-.414,2.607,2.607,0,0,1-.918-1.168,4.7,4.7,0,0,1-.355-1.7,6.4,6.4,0,0,1,.023-.953l.047-.352a6.767,6.767,0,0,1,.723-2.281,3.766,3.766,0,0,1,1.313-1.461A3.094,3.094,0,0,1,63.008,30.383Zm-1.6,4.547a6.327,6.327,0,0,0-.039,1q.078,1.375,1.109,1.4a1.885,1.885,0,0,0,1.617-.875l.6-3.359a1.248,1.248,0,0,0-1.219-.875,1.606,1.606,0,0,0-1.34.621A4.176,4.176,0,0,0,61.406,34.93Zm9.781,1.281,2.406-5.664h2.375L71.883,39H69.773l-1.445-8.453h2.234Zm8.383,2.945a3.677,3.677,0,0,1-1.965-.543,3.292,3.292,0,0,1-1.277-1.469A4.093,4.093,0,0,1,76,35.086l.023-.312a5.465,5.465,0,0,1,.719-2.266,4.341,4.341,0,0,1,1.547-1.59,3.827,3.827,0,0,1,2.094-.527,2.924,2.924,0,0,1,2.473,1.2,4.117,4.117,0,0,1,.637,2.962l-.125.962h-5.18a1.814,1.814,0,0,0,.4,1.313,1.521,1.521,0,0,0,1.172.508,2.7,2.7,0,0,0,2.109-.937l1.008,1.25A3.135,3.135,0,0,1,81.5,38.77,4.5,4.5,0,0,1,79.57,39.156Zm.7-6.945a1.565,1.565,0,0,0-1.082.383,3.363,3.363,0,0,0-.848,1.383h3.031l.047-.2a2.071,2.071,0,0,0,.008-.594,1.134,1.134,0,0,0-.383-.707A1.2,1.2,0,0,0,80.273,32.211Zm9.539.453a4.549,4.549,0,0,0-.742-.078,2.136,2.136,0,0,0-1.867.883L86.227,39h-2.2l1.469-8.453,2.07-.008-.2,1.031a2.325,2.325,0,0,1,1.969-1.2,3.214,3.214,0,0,1,.766.109ZM97.891,34.8A6.061,6.061,0,0,1,96.672,38a3.033,3.033,0,0,1-2.547,1.164,2.357,2.357,0,0,1-2.031-1.078l-.32.914H89.766l2.078-12h2.211L93.2,31.32a2.634,2.634,0,0,1,2.063-.93,2.385,2.385,0,0,1,1.926.879,3.89,3.89,0,0,1,.746,2.387A9.133,9.133,0,0,1,97.891,34.8ZM95.7,34.632A6.554,6.554,0,0,0,95.75,33.6q-.086-1.364-1.125-1.387a1.833,1.833,0,0,0-1.617.885l-.609,3.37a1.258,1.258,0,0,0,1.266.878q1.625.047,1.992-2.367Zm7.773,1.985q.125-.625-.867-.906l-.711-.18q-2.523-.7-2.453-2.453a2.428,2.428,0,0,1,1.059-1.949,3.942,3.942,0,0,1,2.457-.738,3.536,3.536,0,0,1,2.313.758,2.5,2.5,0,0,1,.9,1.977l-2.187-.008a.963.963,0,0,0-1.078-1.1,1.551,1.551,0,0,0-.895.258,1.061,1.061,0,0,0-.465.7q-.117.625.945.883l.313.07a6.285,6.285,0,0,1,1.648.59,2.488,2.488,0,0,1,.879.824,2.04,2.04,0,0,1,.285,1.18,2.251,2.251,0,0,1-.52,1.406,3.18,3.18,0,0,1-1.359.93,4.736,4.736,0,0,1-1.816.3,3.568,3.568,0,0,1-2.344-.809,2.607,2.607,0,0,1-.953-2.051l2.078.016a1.142,1.142,0,0,0,1.3,1.227,1.845,1.845,0,0,0,1-.25A.988.988,0,0,0,103.477,36.617Z" transform="translate(13 6)" fill="#ffd947"/>
    </g>
  </g>
</svg>
