<svg xmlns="http://www.w3.org/2000/svg" xmlns:xlink="http://www.w3.org/1999/xlink" width="134.453" height="135.099" viewBox="0 0 134.453 135.099">
  <defs>
    <clipPath id="clip-path">
      <rect id="Rectángulo_45062" data-name="Rectángulo 45062" width="98.312" height="99.971" fill="none"/>
    </clipPath>
  </defs>
  <g id="a2" transform="matrix(0.875, -0.485, 0.485, 0.875, 0, 47.663)">
    <g id="Grupo_174494" data-name="Grupo 174494" clip-path="url(#clip-path)">
      <path id="Trazado_180697" data-name="Trazado 180697" d="M66.287,49.43a20.331,20.331,0,0,1-4.8.712c-17.457.4-34.8-.3-51.917-5.42-.481,12.217.814,13.923,12.779,16.763a91.4,91.4,0,0,0,30.779,1.962c1.438-.15,3.243-.789,2.987,1.91-.969,10.213-2.233,20.382-4.158,30.465-.206,1.08-.573,1.6-1.675,1.718-11.126,1.213-22.194,1.6-32.912-2.455-2.3-.869-4.485-2.024-6.89-3.123,0,3.14-.047,5.977.011,8.811a10.522,10.522,0,0,0,6.6,10.023,45.116,45.116,0,0,0,17.32,4.083c4.493.185,9.161.652,13.466-.3,5.369-1.182,8.855-4.928,10.053-10.754,1.045-5.078,1.733-10.207,2.73-15.286C63.1,76.091,66.053,63.738,68.052,51.2c.254-1.59.089-2.267-1.765-1.766m-36.1,62H45.025c-4.953,1.549-9.9.968-14.838,0M55.914,99.619A19.308,19.308,0,0,1,57.525,90.7a23.057,23.057,0,0,1-1.611,8.917m1.836-10.029A32.848,32.848,0,0,1,59.939,78a34.2,34.2,0,0,1-2.19,11.585" transform="translate(-3.718 -17.523)" fill="#fcfcfc"/>
      <path id="Trazado_180698" data-name="Trazado 180698" d="M58.357,154.409H43.52c4.942.968,9.884,1.55,14.837,0" transform="translate(-17.051 -60.498)"/>
      <path id="Trazado_180699" data-name="Trazado 180699" d="M3.315,27.762c-.108,18.34.659,36.665.976,55C4.411,89.641,7.566,94.018,13.8,96.4a38.611,38.611,0,0,0,6.036,1.9c8.026,1.632,15.985,2.408,24.241.712,6.681-1.373,10.5-3.963,11.9-10.574C57.7,80.368,59.4,72.288,61,64.189c2.076-10.515,4.043-21.051,6.057-31.579.147-.77-.08-1.833.848-2.121A4.565,4.565,0,0,0,71.3,26.322a16.891,16.891,0,0,0-.083-6.044,4.264,4.264,0,0,0-1.605-2.459A32.071,32.071,0,0,0,58.166,12.4c2.688-4,6.2-3.445,9.58-2.77,8.029,1.605,16.06,3.223,23.97,5.379,3.632.99,5.741-.035,6.429-2.949s-.733-4.85-4.215-5.691Q78.745,2.7,63.317.258c-5.261-.836-9.662.2-12.336,5.353-.508.979-1.291,1.812-1.9,2.745a2.8,2.8,0,0,1-3.5,1.292A70.326,70.326,0,0,0,33.9,8.058,82.014,82.014,0,0,0,12.711,9c-2.817.523-5.784.73-8.413,2.224C.118,13.6-1.508,20.362,1.668,23.549a5.267,5.267,0,0,1,1.647,4.213M6.509,42.038C18.93,48.3,32.464,49.643,46.365,48.753c3.4-.218,4.218.179,3.458,3.5-1.694,7.388-1.676,15.014-3.461,22.374a5.332,5.332,0,0,1-5.5,4.041c-4.753-.6-9.648.344-14.247-.341-6.777-1.008-13.672-2.574-19.333-7.045a2.548,2.548,0,0,1-.771-2.209q-.006-13.507,0-27.032m57.825-8.364c-2,12.542-4.951,24.894-7.393,37.347-1,5.08-1.685,10.208-2.73,15.286-1.2,5.826-4.684,9.572-10.053,10.754-4.306.948-8.973.48-13.466.3a45.116,45.116,0,0,1-17.32-4.083,10.523,10.523,0,0,1-6.6-10.023c-.058-2.834-.01-5.671-.01-8.811,2.4,1.1,4.592,2.254,6.89,3.123,10.719,4.056,21.787,3.669,32.912,2.455,1.1-.12,1.469-.638,1.674-1.717C50.167,68.217,51.43,58.048,52.4,47.835c.256-2.7-1.55-2.06-2.987-1.91a91.4,91.4,0,0,1-30.779-1.962C6.668,41.123,5.373,39.417,5.855,27.2c17.115,5.117,34.46,5.816,51.917,5.42a20.336,20.336,0,0,0,4.8-.712c1.854-.5,2.018.176,1.765,1.766m3.134-14.365c-1.137,1.845-2.061,2.475-3.742.465-1.6-1.915-4.223-2.226-6.489-3.045-.573-.207-1.744.118-1.514-.956.222-1.037,1.106-1.165,2.166-.838a40.647,40.647,0,0,1,9.58,4.374M60.75,20.517c-2.467.32-4.065-.771-5.773-1.362a6.105,6.105,0,0,1,5.773,1.362m1.236-17.6C72.792,4.088,83.4,6.481,93.975,8.993c1.13.268,2.225.631,1.805,2.2A1.937,1.937,0,0,1,93.06,12.77a61.164,61.164,0,0,0-8.82-2.205c-4.838-.554-9.335-2.585-14.347-2.624-2.6-.02-5.31-1.971-8.107-1.78-2.268.156-3.636-.82-5.165-2.321,1.691-1.668,3.909-1.083,5.364-.925m-8.363,3.6c1.185-1.618,2.126-1.247,3.5-.33,1.669,1.115,1.01,1.932.05,3.048a62,62,0,0,0-7.239,10.429c-1.624,2.94-3.721,4.01-7.216,2.983,3.5-5.659,7.109-10.951,10.9-16.13M5.963,13.379A38.355,38.355,0,0,1,12.94,11.4c8.68-2.087,17.393-.707,26.09-.27,2.323.117,4.759-.068,7,1.312-.549,1.848-1.66,2.054-3.306,1.867a131.08,131.08,0,0,0-22.111-.728c-4.535.249-9.183.085-13.238,2.775-1.286.853-1.779-.445-2.311-1.179-.733-1.013.207-1.482.9-1.8m36.6,4.113c-10.56.08-21.034-1.192-31.92-.111,6.455-2.7,28.354-2.548,31.92.111M2.825,17.046c8.02,6.082,17.447,6.426,26.581,7.545a134.34,134.34,0,0,0,30.88.134,21.708,21.708,0,0,0,8.495-2.434c1.149,4.44-1.745,6.128-4.912,7.016-6.578,1.842-13.337,1.037-20.038.777-4.905-.19-9.791-.674-14.682-1.035-5.979-.439-11.717-1.906-17.53-3.081a16.038,16.038,0,0,1-6.8-3.2,5.125,5.125,0,0,1-1.991-5.72" transform="translate(0 0)"/>
      <path id="Trazado_180700" data-name="Trazado 180700" d="M11.475,98.36c5.661,4.471,12.556,6.037,19.333,7.045,4.6.684,9.494-.26,14.247.34a5.331,5.331,0,0,0,5.5-4.041c1.785-7.359,1.766-14.986,3.461-22.374.761-3.318-.057-3.714-3.458-3.5-13.9.89-27.435-.453-39.856-6.714q0,13.532,0,27.031a2.546,2.546,0,0,0,.771,2.209m4.247-15.821c1.047-4.4,4.679-6.211,8.182-3.378,2.855,2.309,5.32,1.822,8.22,1.07,4.328-1.121,7.459,1.167,7.491,5.387-.645,5.038-1.221,7.58-7.636,10.407-2.213.975-4.6,1.535-6.187,3.622-.715.943-1.678.78-2.191-.254-1.378-2.777-3.828-4.692-5.6-7.152-2.125-2.95-3.136-6.093-2.278-9.7" transform="translate(-4.193 -27.082)" fill="#fcfcfc"/>
      <path id="Trazado_180701" data-name="Trazado 180701" d="M6.5,33.748a16.042,16.042,0,0,0,6.8,3.2c5.813,1.174,11.551,2.641,17.53,3.08,4.891.359,9.777.844,14.681,1.034,6.7.26,13.459,1.066,20.038-.776,3.167-.887,6.062-2.576,4.912-7.016a21.7,21.7,0,0,1-8.495,2.435,134.346,134.346,0,0,1-30.88-.134c-9.134-1.119-18.561-1.463-26.58-7.545A5.125,5.125,0,0,0,6.5,33.748" transform="translate(-1.689 -10.982)" fill="#fff"/>
      <path id="Trazado_180702" data-name="Trazado 180702" d="M98.264,7.894c2.8-.192,5.5,1.76,8.106,1.78,5.012.038,9.51,2.069,14.347,2.624a61.155,61.155,0,0,1,8.819,2.205,1.937,1.937,0,0,0,2.72-1.574c.42-1.573-.676-1.935-1.805-2.2-10.573-2.511-21.183-4.9-31.989-6.076-1.454-.158-3.673-.743-5.363.924,1.528,1.5,2.9,2.477,5.165,2.321" transform="translate(-36.477 -1.731)" fill="#fff"/>
      <path id="Trazado_180703" data-name="Trazado 180703" d="M10.459,22.975c4.055-2.691,8.7-2.526,13.238-2.775a131.082,131.082,0,0,1,22.111.728c1.645.188,2.757-.019,3.306-1.867-2.238-1.38-4.673-1.2-7-1.312-8.7-.437-17.41-1.817-26.09.27A38.349,38.349,0,0,0,9.051,20c-.7.315-1.637.783-.9,1.8.532.733,1.024,2.032,2.311,1.179" transform="translate(-3.088 -6.62)" fill="#fff"/>
      <path id="Trazado_180704" data-name="Trazado 180704" d="M77.452,23.145a61.961,61.961,0,0,1,7.239-10.429c.96-1.116,1.619-1.933-.05-3.048-1.373-.917-2.314-1.288-3.5.33-3.8,5.179-7.41,10.471-10.906,16.13,3.5,1.027,5.592-.043,7.216-2.983" transform="translate(-27.519 -3.48)" fill="#fff"/>
      <path id="Trazado_180705" data-name="Trazado 180705" d="M49.424,27.431c-3.566-2.66-25.465-2.813-31.92-.111,10.887-1.081,21.36.19,31.92.111" transform="translate(-6.858 -9.938)" fill="#fff"/>
      <path id="Trazado_180706" data-name="Trazado 180706" d="M91.6,25.293c-.23,1.074.941.749,1.514.955,2.267.819,4.888,1.129,6.489,3.045,1.68,2.009,2.6,1.38,3.742-.466a40.62,40.62,0,0,0-9.58-4.373c-1.06-.327-1.944-.2-2.166.838" transform="translate(-35.878 -9.519)" fill="#fff"/>
      <path id="Trazado_180707" data-name="Trazado 180707" d="M90.393,31.357c1.708.591,3.306,1.682,5.773,1.362a6.1,6.1,0,0,0-5.773-1.362" transform="translate(-35.417 -12.202)" fill="#fff"/>
      <path id="Trazado_180708" data-name="Trazado 180708" d="M91.028,99.446a32.818,32.818,0,0,0-2.19,11.585,34.23,34.23,0,0,0,2.19-11.585" transform="translate(-34.807 -38.964)"/>
      <path id="Trazado_180709" data-name="Trazado 180709" d="M85.8,129.239a23.069,23.069,0,0,0,1.612-8.917,19.3,19.3,0,0,0-1.612,8.917" transform="translate(-33.609 -47.143)"/>
      <path id="Trazado_180710" data-name="Trazado 180710" d="M26.638,104.984c.513,1.035,1.476,1.2,2.191.254,1.583-2.087,3.974-2.647,6.187-3.622,6.416-2.827,6.992-5.369,7.637-10.407-.032-4.22-3.163-6.508-7.491-5.387-2.9.751-5.365,1.238-8.22-1.07-3.5-2.834-7.135-1.024-8.183,3.378-.858,3.609.153,6.752,2.278,9.7,1.773,2.46,4.222,4.375,5.6,7.152M22.193,87.02c1.038.633-.228,1.806.8,2.386,1.3-.79.163-3.316,1.345-3.171,1.434.175,2.755,1.643,4.019,2.68.657.539,1.036,1.735,2.108,1.055,1.956-1.242.869,1.041,1.565,1.248,1.452-.376.428-3.315,2.024-2.692,1.845.72.059,3.045.841,4.62,1.1-.617.582-1.791.944-2.618s-.227-2.777.963-2.271c1,.426,2.911.366,3.2,2.16a6.636,6.636,0,0,1-1.513,5.6c-.6-1.5.316-2.88-.662-4.273-1.169,1.471-.4,3.085-.653,4.516-.327,1.876-.539,2.082-1.988,1.016-.673-.5-.823-.219-.925.289-.629,3.13-3.668,2.849-5.61,3.34-2.155.545-2.662-2.75-3.882-3.538-2.134-1.379-2.235-2.55-1.606-4.24-.9-1.33-1.193,1.248-1.772.022a5.349,5.349,0,0,1,.8-6.132" transform="translate(-7.23 -32.673)"/>
      <path id="Trazado_180711" data-name="Trazado 180711" d="M24.662,94.958c-.63,1.69-.529,2.861,1.606,4.24,1.22.788,1.726,4.082,3.882,3.538,1.942-.491,4.98-.21,5.609-3.34.1-.508.252-.785.926-.289,1.449,1.066,1.661.861,1.988-1.016.249-1.43-.516-3.045.653-4.516.979,1.393.059,2.774.662,4.273a6.639,6.639,0,0,0,1.513-5.6c-.293-1.794-2.2-1.734-3.2-2.16-1.19-.506-.605,1.454-.963,2.271s.159,2-.944,2.619c-.782-1.575,1-3.9-.841-4.62-1.6-.622-.572,2.317-2.023,2.692-.7-.206.39-2.489-1.565-1.247-1.072.68-1.451-.516-2.107-1.054-1.264-1.038-2.585-2.506-4.02-2.682-1.181-.144-.045,2.381-1.344,3.172-1.027-.58.238-1.754-.8-2.387a5.348,5.348,0,0,0-.8,6.132c.579,1.226.873-1.351,1.772-.022" transform="translate(-8.727 -34.501)" fill="#fff"/>
    </g>
  </g>
</svg>
