<svg xmlns="http://www.w3.org/2000/svg" width="116.999" height="115.738" viewBox="0 0 116.999 115.738">
  <g id="a5" transform="translate(36.456) rotate(25)">
    <path id="Trazado_117335" data-name="Trazado 117335" d="M203.193,934.975a.266.266,0,0,1-.135-.038c-.021-.024-.26-.193-.283-.215q-5.311-5.394-10.645-10.76a4.414,4.414,0,0,0-3.227-1.36,11.481,11.481,0,0,0-3.909.975,20.775,20.775,0,0,1-2.5.813c-1.327.308-2.687.652-4.068,1-4.794,1.215-9.752,2.472-14.455,2.472h0q-.443,0-.882-.015c-12.888-.453-15.265-9.593-18.273-21.163l-.26-1c-.536-2.058-1.278-4.373-2.063-6.825-3.064-9.573-6.878-21.485-2.182-29.165,2.338-3.825,7.607-5.7,11.935-6.909,3.525-.984,7.03-2.034,10.537-3.085,3.734-1.12,7.6-2.277,11.413-3.328,1.12-.308,2.351-.667,3.667-1.051,6.225-1.816,14.75-4.3,22.059-4.3,4.535,0,8.143.967,10.724,2.876,6.509,4.814,8.407,13.983,10.081,22.074.312,1.505.616,2.976.94,4.378.2.85.4,1.71.609,2.576,2.17,9.081,4.413,18.471-.717,26.34-2.214,3.4-6.481,6.1-12.682,8.026a8.8,8.8,0,0,1-2.01.389c-2.037.187-2.114,1.122-2.32,3.618l-.036.433c-.331,3.956-.588,8.089-.786,12.631-.015.049-.026.1-.036.145a.392.392,0,0,1-.168.311A.6.6,0,0,1,203.193,934.975Z" transform="translate(-136.957 -849.867)" fill="#fff"/>
    <path id="Trazado_117336" data-name="Trazado 117336" d="M219.9,877.194c-2.111-9.125-3.358-21.129-11.46-27.12-9.427-6.972-27.681-.393-37.442,2.294-7.351,2.023-14.61,4.365-21.953,6.414-4.446,1.24-10.047,3.228-12.609,7.419-6.22,10.173,1.479,26.787,4.113,36.884,3.166,12.132,5.472,22.526,19.609,23.023,6.5.228,13.464-2.04,19.708-3.488,3.3-.766,6.227-3.078,8.557-.738q5.338,5.36,10.64,10.755a1.419,1.419,0,0,0,.561.424,1.475,1.475,0,0,0,1.63-.164,1.511,1.511,0,0,0,.679-1.064,1.443,1.443,0,0,0,.041-.169c0-.014.009-.024.01-.038.184-4.239.434-8.465.788-12.692.348-4.148.069-2.349,3.558-3.434,4.891-1.521,10.4-4.038,13.306-8.5C225.556,897.926,222.158,886.931,219.9,877.194Zm-.951,24.01c-2.061,7.918-11.042,10.455-17.878,12.484a1.687,1.687,0,0,0-1.2,1.571c-.458,4.075-.742,8.167-.955,12.261-3.963-4.828-8.441-10.9-14.318-9.408-9.042,2.29-26.006,8.945-34.179,1.743-4.372-3.851-5.318-12.347-6.731-17.638-1.7-6.38-3.262-12.8-4.827-19.216-1.107-4.537-2.312-9.473-.356-13.947,2.636-6.027,11.678-7.174,17.243-8.809,10.683-3.138,21.3-6.555,32.274-8.561,5.369-.982,11.253-1.47,16.546.092,5.2,1.535,7.372,7.517,8.683,12.2,2.208,7.888,4.07,15.927,5.664,23.96A29.233,29.233,0,0,1,218.953,901.2ZM195.6,865.15a10.826,10.826,0,0,1,2.265-3.265,12.188,12.188,0,0,1,3.165-3.02.3.3,0,0,1,.431.331,7.1,7.1,0,0,1-2.254,3.428,17.769,17.769,0,0,1-3.176,2.857A.3.3,0,0,1,195.6,865.15Zm5.705-.533c-.067.858-.661,1.223-1.334,1.666a5.061,5.061,0,0,1-1.968.882.322.322,0,0,1-.359-.468,5.281,5.281,0,0,1,1.661-1.743,2.077,2.077,0,0,1,1.756-.656A.326.326,0,0,1,201.309,864.617Zm-37.863,40.571a11.186,11.186,0,0,1-1.851,3.84c-.619.885-1.186,2.124-2.369,2.242a.212.212,0,0,1-.208-.159c-.174-1.184.885-2.012,1.556-2.871.853-1.092,1.709-2.153,2.618-3.2C163.3,904.918,163.481,905.048,163.446,905.188Zm-4.166.475a3.5,3.5,0,0,1,2.1-1.853.336.336,0,0,1,.407.407,3.765,3.765,0,0,1-1.656,2.3A.626.626,0,0,1,159.28,905.663Zm6.843.2a2.528,2.528,0,0,1,.126,1.8,5.972,5.972,0,0,1-.543,1.961c-.245.4-1.015.4-1.1-.143a4.521,4.521,0,0,1,.375-2.167,3.146,3.146,0,0,1,.819-1.5A.207.207,0,0,1,166.123,905.859Zm39.2-6.751a.51.51,0,0,1-.479.629c-1.1.13-2.053-1.133-2.764-1.822a31.038,31.038,0,0,1-2.426-2.446.141.141,0,0,1,.1-.239,5.546,5.546,0,0,1,3.264,1.47C203.8,897.3,205.174,898.062,205.326,899.109ZM201.3,893.9c-.155-.066-.086-.281.042-.325,1.077-.376,2.877-.044,3.3,1.136a.2.2,0,0,1-.142.251,2.143,2.143,0,0,1-1.425-.328C202.482,894.373,201.883,894.148,201.3,893.9Zm-1.431,5.423a.583.583,0,0,1-.089.7c-.038.031-.076.061-.116.09a.582.582,0,0,1-.7-.09,5.175,5.175,0,0,1-1.428-2.351.192.192,0,0,1,.235-.235A3.81,3.81,0,0,1,199.864,899.318ZM156.848,873a3.835,3.835,0,0,1,.562,1.131.23.23,0,0,1-.221.29,2.67,2.67,0,0,1-1.468-.411,14.9,14.9,0,0,1-1.316-1.031c-.811-.689-1.771-1.259-2.016-2.365a.333.333,0,0,1,.231-.407c1.188-.245,2,.576,2.807,1.329A14.32,14.32,0,0,1,156.848,873Zm2.245-.162a1.908,1.908,0,0,1-.866-.4,3.488,3.488,0,0,1-.742-1,4.113,4.113,0,0,1-.77-2.131.809.809,0,0,1,1.2-.69,4.054,4.054,0,0,1,1.456,2.019,5.163,5.163,0,0,1,.4,1.148,1.863,1.863,0,0,1-.05.574A.5.5,0,0,1,159.093,872.835Zm-5.767,15.329c-1.161.683-3.281.937-4.27-.14a.274.274,0,0,1,0-.379,3.9,3.9,0,0,1,4.27-.542A.619.619,0,0,1,153.326,888.165Zm22.136-24.821a4.594,4.594,0,0,1,.223-2.535.284.284,0,0,1,.384-.1c1.591.718,1.7,3.653.613,4.866a.2.2,0,0,1-.247.032A3.073,3.073,0,0,1,175.462,863.344ZM208.1,877.533c-.474,1.38-3.026,1.724-4.213,1.175a.282.282,0,0,1-.057-.44,5.534,5.534,0,0,1,1.811-1.026,3.042,3.042,0,0,1,2.014-.492A.641.641,0,0,1,208.1,877.533Zm-18.075,31.631a.3.3,0,0,1-.4.105c-.8-.406-.9-1.092-1.28-1.85a8.907,8.907,0,0,1-.785-1.964.4.4,0,0,1,.579-.446C189.384,905.651,190.821,907.806,190.029,909.165Zm5.135-37.4c-6.625-6.835-15.986-.25-19.188,7.064-2.678-3.018-6.037-5.167-10.356-4.523-4.42.66-6.527,5.34-7.024,9.235-1.55,12.148,13.133,20.073,23.108,21.219a1.049,1.049,0,0,0,1.063-.469C190.82,897.848,205.513,882.434,195.164,871.761ZM161.4,887.908c-.491-.927-.846-2.879.4-3.385.146-.06.279.064.328.187a4.613,4.613,0,0,1,.19,1.5c.022.481.108.944.1,1.426A.551.551,0,0,1,161.4,887.908Zm16.562,12.657c-3.472.141-6.564-1.955-9.238-3.961-2.3-1.729-4.952-4.111-5.907-6.915a.077.077,0,0,1,.112-.087c2.669,1.8,4.669,4.493,7.377,6.3,2.484,1.659,5.221,2.65,7.811,4.091A.308.308,0,0,1,177.963,900.565Zm10.946-27.713a.1.1,0,0,1,.025-.186c3.761-1.178,9.455,5.364,6.761,8.664a.308.308,0,0,1-.48-.062c-.969-1.57-.94-3.472-2.079-5A16.006,16.006,0,0,0,188.91,872.852ZM195.6,885.6a.246.246,0,0,1-.33-.087c-.313-.465-.123-.87-.009-1.379.1-.446.091-.848.463-1.145a.237.237,0,0,1,.324,0A1.967,1.967,0,0,1,195.6,885.6Z" transform="translate(-134.072 -846.971)"/>
  </g>
</svg>
