<svg xmlns="http://www.w3.org/2000/svg" width="482" height="239" viewBox="0 0 482 239">
  <g id="_12" data-name="12" transform="translate(-135 10542.832)">
    <path id="Path_184739" data-name="Path 184739" d="M188.027,13.7l2.742-8.07h2.336L188.879,17h-2.3l-.6-7.578L183,17h-2.3L180.02,5.625h2.234l.227,8.031,3.063-8.031h1.945Zm6.664,3.3h-2.219l1.469-8.453h2.219ZM194.2,6.4a1.1,1.1,0,0,1,.344-.867,1.323,1.323,0,0,1,1.734-.039,1.1,1.1,0,0,1,.383.828,1.132,1.132,0,0,1-.324.844,1.215,1.215,0,0,1-.887.375,1.235,1.235,0,0,1-.863-.3A1.091,1.091,0,0,1,194.2,6.4Zm6.828.07-.367,2.078h1.406l-.289,1.656h-1.406l-.719,4.234a1.077,1.077,0,0,0,.063.609q.109.211.531.227.125.008.672-.039l-.156,1.727a3.706,3.706,0,0,1-1.266.18,1.985,1.985,0,0,1-1.617-.68,2.456,2.456,0,0,1-.437-1.8l.727-4.461h-1.2l.289-1.656h1.2l.359-2.078Zm4.211,3.016a2.946,2.946,0,0,1,2.289-1.094,2.143,2.143,0,0,1,1.848.9,3.548,3.548,0,0,1,.441,2.379L208.926,17h-2.2l.9-5.358a2.6,2.6,0,0,0,.016-.563.885.885,0,0,0-.984-.868,1.9,1.9,0,0,0-1.562.766L204.027,17h-2.2L203.9,5h2.211ZM219.48,17a2.281,2.281,0,0,1-.086-.766,2.863,2.863,0,0,1-2.156.922,2.594,2.594,0,0,1-1.84-.723,2.186,2.186,0,0,1-.684-1.746,2.527,2.527,0,0,1,1.16-2.121,5.266,5.266,0,0,1,2.965-.738l1.031.016.109-.508a1.764,1.764,0,0,0,.023-.492.846.846,0,0,0-.277-.574.955.955,0,0,0-.629-.215,1.345,1.345,0,0,0-.875.254,1.231,1.231,0,0,0-.461.777l-2.211.008a2.457,2.457,0,0,1,1.113-1.965,4.312,4.312,0,0,1,2.613-.738,3.117,3.117,0,0,1,2.25.855,2.5,2.5,0,0,1,.68,2.121l-.648,4.047-.039.5a2.412,2.412,0,0,0,.133.938l-.008.148Zm-1.7-1.555a2.017,2.017,0,0,0,1.664-.828l.273-1.461-.766-.008a2.139,2.139,0,0,0-1.758.742,1.292,1.292,0,0,0-.242.633.75.75,0,0,0,.176.668A.891.891,0,0,0,217.785,15.445Zm8.688-6.906-.187,1a3.042,3.042,0,0,1,2.461-1.148,2.028,2.028,0,0,1,1.766.875,3.526,3.526,0,0,1,.414,2.359L230.035,17h-2.2l.906-5.4a2.527,2.527,0,0,0,.016-.555.9.9,0,0,0-1-.82,1.9,1.9,0,0,0-1.555.8L225.145,17h-2.2l1.469-8.453ZM240.6,17a2.281,2.281,0,0,1-.086-.766,2.863,2.863,0,0,1-2.156.922,2.594,2.594,0,0,1-1.84-.723,2.186,2.186,0,0,1-.684-1.746,2.527,2.527,0,0,1,1.16-2.121,5.266,5.266,0,0,1,2.965-.738l1.031.016.109-.508a1.764,1.764,0,0,0,.023-.492.846.846,0,0,0-.277-.574.955.955,0,0,0-.629-.215,1.345,1.345,0,0,0-.875.254,1.231,1.231,0,0,0-.461.777l-2.211.008a2.457,2.457,0,0,1,1.113-1.965,4.312,4.312,0,0,1,2.613-.738,3.117,3.117,0,0,1,2.25.855,2.5,2.5,0,0,1,.68,2.121l-.648,4.047-.039.5a2.412,2.412,0,0,0,.133.938l-.008.148Zm-1.7-1.555a2.017,2.017,0,0,0,1.664-.828l.273-1.461-.766-.008a2.139,2.139,0,0,0-1.758.742,1.292,1.292,0,0,0-.242.633.75.75,0,0,0,.176.668A.891.891,0,0,0,238.9,15.445Zm9.4-7.062a2.4,2.4,0,0,1,1.906.945L251.035,5h2.211l-2.078,12H249.2l.125-.906a2.736,2.736,0,0,1-2.2,1.07,2.433,2.433,0,0,1-1.383-.414,2.607,2.607,0,0,1-.918-1.168,4.7,4.7,0,0,1-.355-1.7,6.4,6.4,0,0,1,.023-.953l.047-.352a6.767,6.767,0,0,1,.723-2.281,3.766,3.766,0,0,1,1.313-1.461A3.094,3.094,0,0,1,248.3,8.383Zm-1.6,4.547a6.326,6.326,0,0,0-.039,1q.078,1.375,1.109,1.4a1.885,1.885,0,0,0,1.617-.875l.6-3.359a1.248,1.248,0,0,0-1.219-.875,1.606,1.606,0,0,0-1.34.621A4.176,4.176,0,0,0,246.7,12.93Zm9.781,1.281,2.406-5.664h2.375L257.176,17h-2.109l-1.445-8.453h2.234Zm8.383,2.945a3.677,3.677,0,0,1-1.965-.543,3.292,3.292,0,0,1-1.277-1.469,4.093,4.093,0,0,1-.328-2.059l.023-.312a5.465,5.465,0,0,1,.719-2.266,4.341,4.341,0,0,1,1.547-1.59,3.827,3.827,0,0,1,2.094-.527,2.924,2.924,0,0,1,2.473,1.2,4.117,4.117,0,0,1,.637,2.962l-.125.962h-5.18a1.814,1.814,0,0,0,.4,1.313,1.521,1.521,0,0,0,1.172.508,2.7,2.7,0,0,0,2.109-.937l1.008,1.25a3.135,3.135,0,0,1-1.375,1.121A4.5,4.5,0,0,1,264.863,17.156Zm.7-6.945a1.565,1.565,0,0,0-1.082.383,3.363,3.363,0,0,0-.848,1.383h3.031l.047-.2a2.071,2.071,0,0,0,.008-.594,1.134,1.134,0,0,0-.383-.707A1.2,1.2,0,0,0,265.566,10.211Zm9.539.453a4.548,4.548,0,0,0-.742-.078,2.136,2.136,0,0,0-1.867.883L271.52,17h-2.2l1.469-8.453,2.07-.008-.2,1.031a2.325,2.325,0,0,1,1.969-1.2,3.214,3.214,0,0,1,.766.109Zm8.078,2.133a6.061,6.061,0,0,1-1.219,3.2,3.033,3.033,0,0,1-2.547,1.164,2.357,2.357,0,0,1-2.031-1.078l-.32.914h-2.008l2.078-12h2.211L278.5,9.32a2.634,2.634,0,0,1,2.063-.93,2.385,2.385,0,0,1,1.926.879,3.89,3.89,0,0,1,.746,2.387A9.136,9.136,0,0,1,283.184,12.8ZM281,12.632a6.554,6.554,0,0,0,.047-1.034q-.086-1.364-1.125-1.387a1.833,1.833,0,0,0-1.617.885l-.609,3.37a1.258,1.258,0,0,0,1.266.878q1.625.047,1.992-2.367Zm4.406,2.04A1.22,1.22,0,0,1,286.3,15a1.111,1.111,0,0,1,.371.855,1.151,1.151,0,0,1-.344.879,1.323,1.323,0,0,1-1.766.051,1.149,1.149,0,0,1-.375-.852,1.161,1.161,0,0,1,.336-.883A1.238,1.238,0,0,1,285.4,14.672Zm1.1-6.4a1.22,1.22,0,0,1,.895.324,1.111,1.111,0,0,1,.371.855,1.151,1.151,0,0,1-.344.879,1.323,1.323,0,0,1-1.766.051,1.149,1.149,0,0,1-.375-.852,1.161,1.161,0,0,1,.336-.883A1.238,1.238,0,0,1,286.5,8.273ZM17.742,61.375a4.535,4.535,0,0,1-1.6,2.8,4.476,4.476,0,0,1-3.043.984,3.544,3.544,0,0,1-1.844-.52,3.283,3.283,0,0,1-1.227-1.43,5.34,5.34,0,0,1-.484-2.066,6.623,6.623,0,0,1,.055-1.25l.133-.937a7.076,7.076,0,0,1,1.8-4.043,4.544,4.544,0,0,1,3.488-1.441A3.4,3.4,0,0,1,17.563,54.5a4.117,4.117,0,0,1,.992,2.785H17.094q-.1-2.391-1.875-2.578l-.258-.016a3.019,3.019,0,0,0-2.465,1.1A5.942,5.942,0,0,0,11.219,58.9l-.172,1.18L11,60.766a3.867,3.867,0,0,0,.512,2.285,1.929,1.929,0,0,0,1.66.879,2.924,2.924,0,0,0,1.965-.57A3.8,3.8,0,0,0,16.32,61.4ZM24.2,65a1.893,1.893,0,0,1-.055-.445l.023-.445A3.465,3.465,0,0,1,21.7,65.156a2.526,2.526,0,0,1-1.816-.707,2.14,2.14,0,0,1-.637-1.73,2.6,2.6,0,0,1,1.176-2.1,5.005,5.005,0,0,1,2.887-.754l1.477.008.094-.672A1.545,1.545,0,0,0,24.59,58a1.414,1.414,0,0,0-1.113-.457,2.181,2.181,0,0,0-1.285.355,1.513,1.513,0,0,0-.684.98l-1.422.008a2.266,2.266,0,0,1,.578-1.316,3.363,3.363,0,0,1,1.3-.891,4.215,4.215,0,0,1,1.648-.3,2.8,2.8,0,0,1,2.055.8,2.484,2.484,0,0,1,.617,2.043L25.6,63.414l-.039.6a2.949,2.949,0,0,0,.094.852L25.641,65Zm-2.219-1.094a2.466,2.466,0,0,0,1.285-.324,3.254,3.254,0,0,0,1.043-.941l.3-1.742-1.07-.008a4.054,4.054,0,0,0-2.047.422,1.554,1.554,0,0,0-.8,1.2,1.21,1.21,0,0,0,.277.988A1.321,1.321,0,0,0,21.984,63.906Zm8.359-7.367-.18.945a3.305,3.305,0,0,1,2.57-1.094,2.608,2.608,0,0,1,1.363.367,1.8,1.8,0,0,1,.77.992,3.49,3.49,0,0,1,2.8-1.359,2.235,2.235,0,0,1,1.867.852,3.042,3.042,0,0,1,.445,2.2L39.055,65H37.648l.922-5.57a2.943,2.943,0,0,0,0-.742q-.148-1.062-1.391-1.086a2.136,2.136,0,0,0-1.4.48,2.222,2.222,0,0,0-.809,1.3L34.008,65H32.586l.938-5.562a1.786,1.786,0,0,0-.262-1.336,1.377,1.377,0,0,0-1.129-.484,2.315,2.315,0,0,0-2.1,1.2L28.961,65H27.547l1.469-8.453ZM42.766,65H41.359l1.469-8.453h1.406ZM43.93,53.461a.774.774,0,0,1,.6.215.8.8,0,0,1,.238.605.834.834,0,0,1-.836.852.779.779,0,0,1-.6-.211.764.764,0,0,1-.227-.594.886.886,0,0,1,.234-.609A.826.826,0,0,1,43.93,53.461ZM46.609,65H45.2l2.078-12H48.7Zm7.484,0a1.894,1.894,0,0,1-.055-.445l.023-.445a3.465,3.465,0,0,1-2.469,1.047,2.526,2.526,0,0,1-1.816-.707,2.14,2.14,0,0,1-.637-1.73,2.6,2.6,0,0,1,1.176-2.1,5.005,5.005,0,0,1,2.887-.754l1.477.008.094-.672A1.545,1.545,0,0,0,54.48,58a1.414,1.414,0,0,0-1.113-.457,2.181,2.181,0,0,0-1.285.355,1.513,1.513,0,0,0-.684.98l-1.422.008a2.266,2.266,0,0,1,.578-1.316,3.363,3.363,0,0,1,1.3-.891,4.215,4.215,0,0,1,1.648-.3,2.8,2.8,0,0,1,2.055.8,2.484,2.484,0,0,1,.617,2.043l-.687,4.188-.039.6a2.949,2.949,0,0,0,.094.852L55.531,65Zm-2.219-1.094a2.466,2.466,0,0,0,1.285-.324,3.254,3.254,0,0,0,1.043-.941l.3-1.742-1.07-.008a4.054,4.054,0,0,0-2.047.422,1.554,1.554,0,0,0-.8,1.2,1.21,1.21,0,0,0,.277.988A1.321,1.321,0,0,0,51.875,63.906Zm12.133-6.328a3.275,3.275,0,0,1,2.555-1.18,2.058,2.058,0,0,1,1.762.816,3.217,3.217,0,0,1,.426,2.246L67.828,65H66.414l.93-5.562a2.968,2.968,0,0,0,.008-.711,1.168,1.168,0,0,0-1.289-1.117,2.6,2.6,0,0,0-2.234,1.359L62.781,65H61.367l2.086-12h1.414ZM75.164,65a1.893,1.893,0,0,1-.055-.445l.023-.445a3.465,3.465,0,0,1-2.469,1.047,2.526,2.526,0,0,1-1.816-.707,2.14,2.14,0,0,1-.637-1.73,2.6,2.6,0,0,1,1.176-2.1,5.005,5.005,0,0,1,2.887-.754l1.477.008.094-.672a1.545,1.545,0,0,0-.293-1.2,1.414,1.414,0,0,0-1.113-.457,2.181,2.181,0,0,0-1.285.355,1.513,1.513,0,0,0-.684.98l-1.422.008a2.266,2.266,0,0,1,.578-1.316,3.363,3.363,0,0,1,1.3-.891,4.215,4.215,0,0,1,1.648-.3,2.8,2.8,0,0,1,2.055.8,2.484,2.484,0,0,1,.617,2.043l-.687,4.188-.039.6a2.949,2.949,0,0,0,.094.852L76.6,65Zm-2.219-1.094a2.466,2.466,0,0,0,1.285-.324,3.254,3.254,0,0,0,1.043-.941l.3-1.742-1.07-.008a4.054,4.054,0,0,0-2.047.422,1.554,1.554,0,0,0-.8,1.2,1.21,1.21,0,0,0,.277.988A1.321,1.321,0,0,0,72.945,63.906Zm5.977-3.148a6.578,6.578,0,0,1,.711-2.328A4.03,4.03,0,0,1,81,56.875a3.127,3.127,0,0,1,1.789-.492,2.64,2.64,0,0,1,2.172,1.031L85.773,53h1.414L85.109,65H83.82l.148-.906A3.116,3.116,0,0,1,81.5,65.156a2.335,2.335,0,0,1-1.867-.918,4,4,0,0,1-.75-2.379A7.6,7.6,0,0,1,78.922,60.758Zm1.359.808a2.929,2.929,0,0,0,.4,1.732,1.437,1.437,0,0,0,1.234.632,2.554,2.554,0,0,0,2.18-1.233l.672-3.9a1.754,1.754,0,0,0-1.7-1.186,2.143,2.143,0,0,0-1.473.5,3.256,3.256,0,0,0-.969,1.475A6.082,6.082,0,0,0,80.281,61.565Zm11.391-.808a6.578,6.578,0,0,1,.711-2.328,4.03,4.03,0,0,1,1.367-1.555,3.127,3.127,0,0,1,1.789-.492,2.64,2.64,0,0,1,2.172,1.031L98.523,53h1.414L97.859,65H96.57l.148-.906a3.116,3.116,0,0,1-2.469,1.063,2.335,2.335,0,0,1-1.867-.918,4,4,0,0,1-.75-2.379A7.6,7.6,0,0,1,91.672,60.758Zm1.359.808a2.929,2.929,0,0,0,.4,1.732,1.437,1.437,0,0,0,1.234.632,2.554,2.554,0,0,0,2.18-1.233l.672-3.9a1.754,1.754,0,0,0-1.7-1.186,2.143,2.143,0,0,0-1.473.5,3.256,3.256,0,0,0-.969,1.475A6.082,6.082,0,0,0,93.031,61.565Zm12.32-3.729-.664-.07a2.42,2.42,0,0,0-2.141,1.227L101.508,65h-1.414l1.469-8.453,1.367-.008-.211.984a2.527,2.527,0,0,1,2.117-1.148,2.594,2.594,0,0,1,.672.117Zm1.6,7.164h-1.406l1.469-8.453h1.406Zm1.164-11.539a.774.774,0,0,1,.6.215.8.8,0,0,1,.238.605.834.834,0,0,1-.836.852.779.779,0,0,1-.6-.211.764.764,0,0,1-.227-.594.886.886,0,0,1,.234-.609A.826.826,0,0,1,108.117,53.461Zm4.219,9.563,3.047-6.477h1.492L112.617,65h-1.078l-1.656-8.453h1.391Zm8.078,2.133a3.048,3.048,0,0,1-2.469-1.164,4.006,4.006,0,0,1-.75-2.9l.039-.336a5.624,5.624,0,0,1,.746-2.3,4.339,4.339,0,0,1,1.5-1.566,3.491,3.491,0,0,1,1.906-.5,2.688,2.688,0,0,1,2.047.867,3.566,3.566,0,0,1,.813,2.266,6.62,6.62,0,0,1-.031,1.016l-.086.648H118.6a2.856,2.856,0,0,0,.379,1.953,1.8,1.8,0,0,0,1.551.836,3.007,3.007,0,0,0,2.313-1.125l.813.688a3.718,3.718,0,0,1-1.371,1.2A3.886,3.886,0,0,1,120.414,65.156Zm.9-7.586a2.066,2.066,0,0,0-1.527.594A4.22,4.22,0,0,0,118.75,60l4.109.008.031-.125a2.313,2.313,0,0,0-.316-1.637A1.488,1.488,0,0,0,121.313,57.57Zm6.547-1.031-.2,1.07a3.333,3.333,0,0,1,2.594-1.219,2.1,2.1,0,0,1,1.766.828,3.217,3.217,0,0,1,.422,2.242L131.516,65H130.1l.93-5.557a2.962,2.962,0,0,0,.008-.71,1.168,1.168,0,0,0-1.289-1.116,2.661,2.661,0,0,0-2.234,1.358L126.469,65h-1.414l1.469-8.453Zm12.688.008-1.6,9.461a2.989,2.989,0,0,1-.8,1.82,2.264,2.264,0,0,1-1.684.609,4.171,4.171,0,0,1-.93-.156l.125-1.156a3.372,3.372,0,0,0,.648.086q1.008,0,1.211-1.2l1.617-9.461Zm-1.172-2.219a.9.9,0,0,1,.23-.609.822.822,0,0,1,.6-.258.761.761,0,0,1,.6.223.811.811,0,0,1,.238.6.841.841,0,0,1-.242.6.87.87,0,0,1-.6.25.745.745,0,0,1-.586-.219A.8.8,0,0,1,139.375,54.328Zm7.391,9.836a3.265,3.265,0,0,1-2.523.992,2.107,2.107,0,0,1-1.793-.867,3.317,3.317,0,0,1-.434-2.281l.906-5.461h1.414l-.914,5.484a3.642,3.642,0,0,0-.016.672,1.4,1.4,0,0,0,.336.883,1.146,1.146,0,0,0,.828.344,2.536,2.536,0,0,0,2.344-1.227l1.063-6.156h1.414L147.922,65h-1.336Zm8.5-1.453q.117-.875-.961-1.234l-1.469-.43q-1.859-.641-1.8-2.125a2.341,2.341,0,0,1,1.02-1.832,3.631,3.631,0,0,1,2.27-.7,3.027,3.027,0,0,1,2.082.746,2.363,2.363,0,0,1,.77,1.9l-1.406-.008a1.319,1.319,0,0,0-.4-1.031,1.576,1.576,0,0,0-1.1-.414,2.059,2.059,0,0,0-1.266.359,1.316,1.316,0,0,0-.57.922q-.1.734.9,1.07l.711.2a4.577,4.577,0,0,1,2.063.977,1.865,1.865,0,0,1,.563,1.492,2.37,2.37,0,0,1-.516,1.375,2.948,2.948,0,0,1-1.25.895,4.18,4.18,0,0,1-1.664.285,3.3,3.3,0,0,1-2.219-.785,2.427,2.427,0,0,1-.844-1.98l1.414.008a1.5,1.5,0,0,0,.453,1.141,1.732,1.732,0,0,0,1.242.43,2.436,2.436,0,0,0,1.336-.324A1.247,1.247,0,0,0,155.266,62.711Zm6.578-8.211-.359,2.047h1.539l-.2,1.117H161.3l-.883,5.258a1.833,1.833,0,0,0-.008.375.6.6,0,0,0,.664.609,4.05,4.05,0,0,0,.688-.078l-.109,1.18a3.847,3.847,0,0,1-1.031.141,1.476,1.476,0,0,1-1.266-.621,2.4,2.4,0,0,1-.328-1.629l.859-5.234h-1.492l.2-1.117h1.492l.359-2.047ZM139.947,66h23.069v1H139.947Zm27.921-1,1.281-7.336h-1.3l.2-1.117h1.3l.141-1a3.318,3.318,0,0,1,.984-1.992,2.926,2.926,0,0,1,2.094-.734,4.884,4.884,0,0,1,1.008.134l-.172,1.187a4.637,4.637,0,0,0-.758-.094,1.614,1.614,0,0,0-1.191.456,2.073,2.073,0,0,0-.566,1.211l-.125.833h1.75l-.2,1.117h-1.75L169.281,65Zm9.953,0a1.894,1.894,0,0,1-.055-.445l.023-.445a3.465,3.465,0,0,1-2.469,1.047,2.526,2.526,0,0,1-1.816-.707,2.14,2.14,0,0,1-.637-1.73,2.6,2.6,0,0,1,1.176-2.1,5.005,5.005,0,0,1,2.887-.754l1.477.008.094-.672a1.545,1.545,0,0,0-.293-1.2,1.414,1.414,0,0,0-1.113-.457,2.181,2.181,0,0,0-1.285.355,1.513,1.513,0,0,0-.684.98l-1.422.008a2.266,2.266,0,0,1,.578-1.316,3.363,3.363,0,0,1,1.3-.891,4.215,4.215,0,0,1,1.648-.3,2.8,2.8,0,0,1,2.055.8,2.484,2.484,0,0,1,.617,2.043l-.687,4.188-.039.6a2.949,2.949,0,0,0,.094.852l-.016.133ZM175.6,63.906a2.466,2.466,0,0,0,1.285-.324,3.254,3.254,0,0,0,1.043-.941l.3-1.742-1.07-.008a4.054,4.054,0,0,0-2.047.422,1.554,1.554,0,0,0-.8,1.2,1.21,1.21,0,0,0,.277.988A1.321,1.321,0,0,0,175.6,63.906Zm10.8-1.2q.117-.875-.961-1.234l-1.469-.43q-1.859-.641-1.8-2.125a2.341,2.341,0,0,1,1.02-1.832,3.631,3.631,0,0,1,2.27-.7,3.027,3.027,0,0,1,2.082.746,2.363,2.363,0,0,1,.77,1.9l-1.406-.008a1.319,1.319,0,0,0-.4-1.031,1.576,1.576,0,0,0-1.1-.414,2.059,2.059,0,0,0-1.266.359,1.316,1.316,0,0,0-.57.922q-.1.734.9,1.07l.711.2a4.577,4.577,0,0,1,2.063.977,1.865,1.865,0,0,1,.563,1.492,2.37,2.37,0,0,1-.516,1.375,2.948,2.948,0,0,1-1.25.895,4.18,4.18,0,0,1-1.664.285,3.3,3.3,0,0,1-2.219-.785,2.427,2.427,0,0,1-.844-1.98l1.414.008a1.5,1.5,0,0,0,.453,1.141,1.732,1.732,0,0,0,1.242.43,2.436,2.436,0,0,0,1.336-.324A1.247,1.247,0,0,0,186.406,62.711Zm6.578-8.211-.359,2.047h1.539l-.2,1.117h-1.531l-.883,5.258a1.833,1.833,0,0,0-.008.375.6.6,0,0,0,.664.609,4.05,4.05,0,0,0,.688-.078l-.109,1.18a3.847,3.847,0,0,1-1.031.141,1.476,1.476,0,0,1-1.266-.621,2.4,2.4,0,0,1-.328-1.629l.859-5.234h-1.492l.2-1.117h1.492l.359-2.047Zm1.1,12.773-.812-.586a5.16,5.16,0,0,0,1.125-2.219l.2-1.18h1.383l-.164,1.055A4.521,4.521,0,0,1,194.086,67.273ZM166.938,66h25.336v1H166.938Zm39.742-3.289q.117-.875-.961-1.234l-1.469-.43q-1.859-.641-1.8-2.125a2.341,2.341,0,0,1,1.02-1.832,3.631,3.631,0,0,1,2.27-.7,3.027,3.027,0,0,1,2.082.746,2.363,2.363,0,0,1,.77,1.9l-1.406-.008a1.319,1.319,0,0,0-.4-1.031,1.576,1.576,0,0,0-1.1-.414,2.059,2.059,0,0,0-1.266.359,1.316,1.316,0,0,0-.57.922q-.1.734.9,1.07l.711.2a4.577,4.577,0,0,1,2.063.977,1.865,1.865,0,0,1,.563,1.492,2.37,2.37,0,0,1-.516,1.375,2.948,2.948,0,0,1-1.25.895,4.18,4.18,0,0,1-1.664.285,3.3,3.3,0,0,1-2.219-.785,2.427,2.427,0,0,1-.844-1.98l1.414.008a1.5,1.5,0,0,0,.453,1.141,1.732,1.732,0,0,0,1.242.43,2.436,2.436,0,0,0,1.336-.324A1.247,1.247,0,0,0,206.68,62.711Zm7.539-6.32a3.047,3.047,0,0,1,1.82.578,3.285,3.285,0,0,1,1.121,1.551,4.8,4.8,0,0,1,.246,2.16l-.016.172a5.685,5.685,0,0,1-.734,2.23,4.309,4.309,0,0,1-1.516,1.551,3.7,3.7,0,0,1-2.039.523,3.052,3.052,0,0,1-1.816-.578,3.21,3.21,0,0,1-1.113-1.531,4.931,4.931,0,0,1-.25-2.133,5.76,5.76,0,0,1,.711-2.359,4.409,4.409,0,0,1,1.527-1.621A3.652,3.652,0,0,1,214.219,56.391Zm-2.875,4.531a4.8,4.8,0,0,0,0,1.023,2.507,2.507,0,0,0,.551,1.469,1.653,1.653,0,0,0,1.262.57,2.253,2.253,0,0,0,1.3-.348,2.919,2.919,0,0,0,1-1.121,4.721,4.721,0,0,0,.523-1.664A7.493,7.493,0,0,0,216,59.641a2.6,2.6,0,0,0-.57-1.492,1.69,1.69,0,0,0-1.266-.578,2.3,2.3,0,0,0-1.859.859,4.245,4.245,0,0,0-.945,2.313ZM226.109,54.5l-.359,2.047h1.539l-.2,1.117h-1.531l-.883,5.258a1.833,1.833,0,0,0-.008.375.6.6,0,0,0,.664.609,4.05,4.05,0,0,0,.688-.078l-.109,1.18a3.847,3.847,0,0,1-1.031.141,1.476,1.476,0,0,1-1.266-.621,2.4,2.4,0,0,1-.328-1.629l.859-5.234h-1.492l.2-1.117h1.492L224.7,54.5Zm4.055,3.078a3.275,3.275,0,0,1,2.555-1.18,2.058,2.058,0,0,1,1.762.816,3.217,3.217,0,0,1,.426,2.246L233.984,65H232.57l.93-5.562a2.968,2.968,0,0,0,.008-.711,1.168,1.168,0,0,0-1.289-1.117,2.6,2.6,0,0,0-2.234,1.359L228.938,65h-1.414l2.086-12h1.414Zm9.641,7.578a3.048,3.048,0,0,1-2.469-1.164,4.006,4.006,0,0,1-.75-2.9l.039-.336a5.624,5.624,0,0,1,.746-2.3,4.339,4.339,0,0,1,1.5-1.566,3.491,3.491,0,0,1,1.906-.5,2.688,2.688,0,0,1,2.047.867,3.566,3.566,0,0,1,.813,2.266,6.621,6.621,0,0,1-.031,1.016l-.086.648h-5.523a2.855,2.855,0,0,0,.379,1.953,1.8,1.8,0,0,0,1.551.836,3.007,3.007,0,0,0,2.313-1.125l.813.688a3.718,3.718,0,0,1-1.371,1.2A3.886,3.886,0,0,1,239.8,65.156Zm.9-7.586a2.066,2.066,0,0,0-1.527.594A4.22,4.22,0,0,0,238.141,60l4.109.008.031-.125a2.313,2.313,0,0,0-.316-1.637A1.488,1.488,0,0,0,240.7,57.57Zm11.4-3.07-.359,2.047h1.539l-.2,1.117h-1.531l-.883,5.258a1.833,1.833,0,0,0-.008.375.6.6,0,0,0,.664.609,4.05,4.05,0,0,0,.688-.078l-.109,1.18a3.847,3.847,0,0,1-1.031.141,1.476,1.476,0,0,1-1.266-.621,2.4,2.4,0,0,1-.328-1.629l.859-5.234h-1.492l.2-1.117h1.492L250.7,54.5Zm6.672,3.336-.664-.07a2.42,2.42,0,0,0-2.141,1.227L254.93,65h-1.414l1.469-8.453,1.367-.008-.211.984a2.527,2.527,0,0,1,2.117-1.148,2.594,2.594,0,0,1,.672.117ZM263.7,65a1.893,1.893,0,0,1-.055-.445l.023-.445a3.465,3.465,0,0,1-2.469,1.047,2.526,2.526,0,0,1-1.816-.707,2.14,2.14,0,0,1-.637-1.73,2.6,2.6,0,0,1,1.176-2.1,5.005,5.005,0,0,1,2.887-.754l1.477.008.094-.672a1.545,1.545,0,0,0-.293-1.2,1.414,1.414,0,0,0-1.113-.457,2.181,2.181,0,0,0-1.285.355,1.513,1.513,0,0,0-.684.98l-1.422.008a2.266,2.266,0,0,1,.578-1.316,3.363,3.363,0,0,1,1.3-.891,4.215,4.215,0,0,1,1.648-.3,2.8,2.8,0,0,1,2.055.8,2.484,2.484,0,0,1,.617,2.043l-.687,4.188-.039.6a2.95,2.95,0,0,0,.094.852l-.016.133Zm-2.219-1.094a2.466,2.466,0,0,0,1.285-.324,3.254,3.254,0,0,0,1.043-.941l.3-1.742-1.07-.008a4.054,4.054,0,0,0-2.047.422,1.554,1.554,0,0,0-.8,1.2,1.21,1.21,0,0,0,.277.988A1.321,1.321,0,0,0,261.484,63.906ZM267.742,65l1.281-7.336h-1.3l.2-1.117h1.3l.133-.945a3.273,3.273,0,0,1,1.008-2.062,2.921,2.921,0,0,1,2.078-.734,6.04,6.04,0,0,1,1.008.14l-.172,1.181a4.637,4.637,0,0,0-.758-.094,1.648,1.648,0,0,0-1.152.415,1.974,1.974,0,0,0-.59,1.152l-.148.948h3.023l.109-.789a3.416,3.416,0,0,1,1.105-2.168,3.342,3.342,0,0,1,2.316-.77,4.566,4.566,0,0,1,1.1.164q.535.148,1.066.336l-.367,1.211a4.539,4.539,0,0,0-1.766-.414,1.843,1.843,0,0,0-2.047,1.75l-.1.68h1.688l-.2,1.117h-1.68L273.594,65H272.18l1.273-7.336H270.43L269.156,65Zm10.281,0h-1.414l1.469-8.453h1.414Zm5.93-1.016a2.145,2.145,0,0,0,1.367-.441,2.1,2.1,0,0,0,.8-1.2l1.336-.008a3.014,3.014,0,0,1-.637,1.453,3.68,3.68,0,0,1-2.926,1.367,3.017,3.017,0,0,1-1.785-.551,3.084,3.084,0,0,1-1.074-1.492,4.972,4.972,0,0,1-.234-2.152l.039-.391a5.605,5.605,0,0,1,.711-2.18,4.11,4.11,0,0,1,1.469-1.5,3.648,3.648,0,0,1,2-.5,2.857,2.857,0,0,1,2.125.891,3.08,3.08,0,0,1,.8,2.18l-1.32-.008a2.029,2.029,0,0,0-.461-1.34,1.607,1.607,0,0,0-1.2-.543,2.254,2.254,0,0,0-1.832.82,4.3,4.3,0,0,0-.91,2.359l-.023.2a6.775,6.775,0,0,0-.016,1.031,2.355,2.355,0,0,0,.516,1.445A1.656,1.656,0,0,0,283.953,63.984Zm13.25-7.594a3.047,3.047,0,0,1,1.82.578,3.285,3.285,0,0,1,1.121,1.551,4.8,4.8,0,0,1,.246,2.16l-.016.172a5.685,5.685,0,0,1-.734,2.23,4.309,4.309,0,0,1-1.516,1.551,3.7,3.7,0,0,1-2.039.523,3.052,3.052,0,0,1-1.816-.578,3.21,3.21,0,0,1-1.113-1.531,4.931,4.931,0,0,1-.25-2.133,5.76,5.76,0,0,1,.711-2.359,4.409,4.409,0,0,1,1.527-1.621A3.652,3.652,0,0,1,297.2,56.391Zm-2.875,4.531a4.8,4.8,0,0,0,0,1.023,2.507,2.507,0,0,0,.551,1.469,1.653,1.653,0,0,0,1.262.57,2.253,2.253,0,0,0,1.3-.348,2.919,2.919,0,0,0,1-1.121,4.721,4.721,0,0,0,.523-1.664,7.5,7.5,0,0,0,.023-1.211,2.6,2.6,0,0,0-.57-1.492,1.69,1.69,0,0,0-1.266-.578,2.3,2.3,0,0,0-1.859.859,4.245,4.245,0,0,0-.945,2.313Zm7.8,4.078,1.281-7.336h-1.3l.2-1.117h1.3l.133-.945a3.273,3.273,0,0,1,1.008-2.062,2.921,2.921,0,0,1,2.078-.734,6.04,6.04,0,0,1,1.008.14l-.172,1.181a4.637,4.637,0,0,0-.758-.094,1.648,1.648,0,0,0-1.152.415,1.974,1.974,0,0,0-.59,1.152l-.148.948h3.023l.109-.789a3.416,3.416,0,0,1,1.105-2.168,3.342,3.342,0,0,1,2.316-.77,4.566,4.566,0,0,1,1.1.164q.535.148,1.066.336l-.367,1.211a4.539,4.539,0,0,0-1.766-.414,1.843,1.843,0,0,0-2.047,1.75l-.1.68h1.688l-.2,1.117h-1.68L307.977,65h-1.414l1.273-7.336h-3.023L303.539,65Zm10.281,0h-1.414l1.469-8.453h1.414Zm5.93-1.016a2.145,2.145,0,0,0,1.367-.441,2.1,2.1,0,0,0,.8-1.2l1.336-.008a3.014,3.014,0,0,1-.637,1.453,3.68,3.68,0,0,1-2.926,1.367,3.017,3.017,0,0,1-1.785-.551,3.084,3.084,0,0,1-1.074-1.492,4.972,4.972,0,0,1-.234-2.152l.039-.391a5.605,5.605,0,0,1,.711-2.18,4.11,4.11,0,0,1,1.469-1.5,3.648,3.648,0,0,1,2-.5,2.857,2.857,0,0,1,2.125.891,3.08,3.08,0,0,1,.8,2.18L321,59.453a2.029,2.029,0,0,0-.461-1.34,1.607,1.607,0,0,0-1.2-.543,2.254,2.254,0,0,0-1.832.82,4.3,4.3,0,0,0-.91,2.359l-.023.2a6.775,6.775,0,0,0-.016,1.031,2.355,2.355,0,0,0,.516,1.445A1.656,1.656,0,0,0,318.336,63.984Zm8.289,1.172a3.048,3.048,0,0,1-2.469-1.164,4.006,4.006,0,0,1-.75-2.9l.039-.336a5.624,5.624,0,0,1,.746-2.3,4.339,4.339,0,0,1,1.5-1.566,3.491,3.491,0,0,1,1.906-.5,2.688,2.688,0,0,1,2.047.867,3.566,3.566,0,0,1,.813,2.266,6.619,6.619,0,0,1-.031,1.016l-.086.648h-5.523a2.856,2.856,0,0,0,.379,1.953,1.8,1.8,0,0,0,1.551.836,3.007,3.007,0,0,0,2.313-1.125l.813.688a3.718,3.718,0,0,1-1.371,1.2A3.886,3.886,0,0,1,326.625,65.156Zm.9-7.586a2.066,2.066,0,0,0-1.527.594A4.22,4.22,0,0,0,324.961,60l4.109.008.031-.125a2.313,2.313,0,0,0-.316-1.637A1.488,1.488,0,0,0,327.523,57.57Zm9,.266-.664-.07a2.42,2.42,0,0,0-2.141,1.227L332.68,65h-1.414l1.469-8.453,1.367-.008-.211.984a2.527,2.527,0,0,1,2.117-1.148,2.594,2.594,0,0,1,.672.117Zm4.406,2.922a6.889,6.889,0,0,1,.746-2.4,3.9,3.9,0,0,1,1.359-1.508,3.151,3.151,0,0,1,1.754-.465,2.6,2.6,0,0,1,2.219,1.109l.281-.945h1.3L347.18,64.82a4.113,4.113,0,0,1-1.312,2.59,3.7,3.7,0,0,1-2.68.926,3.805,3.805,0,0,1-1.645-.406,3.127,3.127,0,0,1-1.238-1.07l.8-.867a2.536,2.536,0,0,0,3.73.6,2.9,2.9,0,0,0,.926-1.687l.156-.75a3.2,3.2,0,0,1-2.414,1,2.486,2.486,0,0,1-1.371-.426,2.589,2.589,0,0,1-.9-1.164,4.759,4.759,0,0,1-.352-1.7A8.737,8.737,0,0,1,340.93,60.758Zm1.367.8a2.974,2.974,0,0,0,.387,1.728,1.461,1.461,0,0,0,1.238.644,2.561,2.561,0,0,0,2.18-1.241l.664-3.878a1.776,1.776,0,0,0-1.7-1.2,2.194,2.194,0,0,0-1.887.936,4.878,4.878,0,0,0-.871,2.614ZM354.477,65a1.893,1.893,0,0,1-.055-.445l.023-.445a3.465,3.465,0,0,1-2.469,1.047,2.526,2.526,0,0,1-1.816-.707,2.14,2.14,0,0,1-.637-1.73,2.6,2.6,0,0,1,1.176-2.1,5.005,5.005,0,0,1,2.887-.754l1.477.008.094-.672a1.545,1.545,0,0,0-.293-1.2,1.414,1.414,0,0,0-1.113-.457,2.181,2.181,0,0,0-1.285.355,1.513,1.513,0,0,0-.684.98l-1.422.008a2.266,2.266,0,0,1,.578-1.316,3.363,3.363,0,0,1,1.3-.891,4.215,4.215,0,0,1,1.648-.3,2.8,2.8,0,0,1,2.055.8,2.484,2.484,0,0,1,.617,2.043l-.687,4.188-.039.6a2.95,2.95,0,0,0,.094.852l-.016.133Zm-2.219-1.094a2.466,2.466,0,0,0,1.285-.324,3.254,3.254,0,0,0,1.043-.941l.3-1.742-1.07-.008a4.054,4.054,0,0,0-2.047.422,1.554,1.554,0,0,0-.8,1.2,1.21,1.21,0,0,0,.277.988A1.321,1.321,0,0,0,352.258,63.906Zm8.523-.883,3.047-6.477h1.492L361.063,65h-1.078l-1.656-8.453h1.391Zm8.078,2.133a3.048,3.048,0,0,1-2.469-1.164,4.006,4.006,0,0,1-.75-2.9l.039-.336a5.624,5.624,0,0,1,.746-2.3,4.339,4.339,0,0,1,1.5-1.566,3.491,3.491,0,0,1,1.906-.5,2.688,2.688,0,0,1,2.047.867,3.566,3.566,0,0,1,.813,2.266,6.619,6.619,0,0,1-.031,1.016l-.086.648h-5.523a2.856,2.856,0,0,0,.379,1.953,1.8,1.8,0,0,0,1.551.836,3.007,3.007,0,0,0,2.313-1.125l.813.688a3.718,3.718,0,0,1-1.371,1.2A3.886,3.886,0,0,1,368.859,65.156Zm.9-7.586a2.066,2.066,0,0,0-1.527.594A4.22,4.22,0,0,0,367.2,60l4.109.008.031-.125a2.313,2.313,0,0,0-.316-1.637A1.488,1.488,0,0,0,369.758,57.57Zm10.3.008a3.275,3.275,0,0,1,2.555-1.18,2.058,2.058,0,0,1,1.762.816,3.217,3.217,0,0,1,.426,2.246L383.883,65h-1.414l.93-5.562a2.969,2.969,0,0,0,.008-.711,1.168,1.168,0,0,0-1.289-1.117,2.6,2.6,0,0,0-2.234,1.359L378.836,65h-1.414l2.086-12h1.414Zm9.641,7.578a3.048,3.048,0,0,1-2.469-1.164,4.006,4.006,0,0,1-.75-2.9l.039-.336a5.624,5.624,0,0,1,.746-2.3,4.339,4.339,0,0,1,1.5-1.566,3.491,3.491,0,0,1,1.906-.5,2.688,2.688,0,0,1,2.047.867,3.566,3.566,0,0,1,.813,2.266,6.619,6.619,0,0,1-.031,1.016l-.086.648h-5.523a2.856,2.856,0,0,0,.379,1.953,1.8,1.8,0,0,0,1.551.836,3.007,3.007,0,0,0,2.313-1.125l.813.688a3.718,3.718,0,0,1-1.371,1.2A3.886,3.886,0,0,1,389.7,65.156Zm.9-7.586a2.066,2.066,0,0,0-1.527.594A4.22,4.22,0,0,0,388.039,60l4.109.008.031-.125a2.313,2.313,0,0,0-.316-1.637A1.488,1.488,0,0,0,390.6,57.57Zm9,.266-.664-.07a2.42,2.42,0,0,0-2.141,1.227L395.758,65h-1.414l1.469-8.453,1.367-.008-.211.984a2.527,2.527,0,0,1,2.117-1.148,2.594,2.594,0,0,1,.672.117ZM408.766,65a1.893,1.893,0,0,1-.055-.445l.023-.445a3.465,3.465,0,0,1-2.469,1.047,2.526,2.526,0,0,1-1.816-.707,2.14,2.14,0,0,1-.637-1.73,2.6,2.6,0,0,1,1.176-2.1,5.005,5.005,0,0,1,2.887-.754l1.477.008.094-.672a1.545,1.545,0,0,0-.293-1.2,1.414,1.414,0,0,0-1.113-.457,2.181,2.181,0,0,0-1.285.355,1.513,1.513,0,0,0-.684.98l-1.422.008a2.266,2.266,0,0,1,.578-1.316,3.363,3.363,0,0,1,1.3-.891,4.215,4.215,0,0,1,1.648-.3,2.8,2.8,0,0,1,2.055.8,2.484,2.484,0,0,1,.617,2.043l-.687,4.188-.039.6a2.95,2.95,0,0,0,.094.852L410.2,65Zm-2.219-1.094a2.466,2.466,0,0,0,1.285-.324,3.254,3.254,0,0,0,1.043-.941l.3-1.742-1.07-.008a4.054,4.054,0,0,0-2.047.422,1.554,1.554,0,0,0-.8,1.2,1.21,1.21,0,0,0,.277.988A1.321,1.321,0,0,0,406.547,63.906ZM419.773,54.5l-.359,2.047h1.539l-.2,1.117h-1.531l-.883,5.258a1.834,1.834,0,0,0-.008.375.6.6,0,0,0,.664.609,4.05,4.05,0,0,0,.688-.078l-.109,1.18a3.847,3.847,0,0,1-1.031.141,1.476,1.476,0,0,1-1.266-.621,2.4,2.4,0,0,1-.328-1.629l.859-5.234H416.32l.2-1.117h1.492l.359-2.047ZM422.719,65h-1.406l1.469-8.453h1.406Zm1.164-11.539a.774.774,0,0,1,.6.215.8.8,0,0,1,.238.605.834.834,0,0,1-.836.852.779.779,0,0,1-.6-.211.764.764,0,0,1-.227-.594.886.886,0,0,1,.234-.609A.826.826,0,0,1,423.883,53.461ZM428.6,63.984a2.145,2.145,0,0,0,1.367-.441,2.1,2.1,0,0,0,.8-1.2l1.336-.008a3.014,3.014,0,0,1-.637,1.453,3.68,3.68,0,0,1-2.926,1.367,3.017,3.017,0,0,1-1.785-.551,3.084,3.084,0,0,1-1.074-1.492,4.972,4.972,0,0,1-.234-2.152l.039-.391a5.605,5.605,0,0,1,.711-2.18,4.11,4.11,0,0,1,1.469-1.5,3.648,3.648,0,0,1,2-.5,2.857,2.857,0,0,1,2.125.891,3.08,3.08,0,0,1,.8,2.18l-1.32-.008a2.029,2.029,0,0,0-.461-1.34,1.607,1.607,0,0,0-1.2-.543,2.254,2.254,0,0,0-1.832.82,4.3,4.3,0,0,0-.91,2.359l-.023.2a6.775,6.775,0,0,0-.016,1.031,2.355,2.355,0,0,0,.516,1.445A1.656,1.656,0,0,0,428.6,63.984Zm7.664-2.883-1.109.992-.5,2.906h-1.414l2.086-12h1.414l-1.25,7.172.867-.875,3-2.75H441.2l-3.883,3.6L439.984,65h-1.547Zm8.414,4.055a3.048,3.048,0,0,1-2.469-1.164,4.006,4.006,0,0,1-.75-2.9l.039-.336a5.624,5.624,0,0,1,.746-2.3,4.339,4.339,0,0,1,1.5-1.566,3.491,3.491,0,0,1,1.906-.5,2.688,2.688,0,0,1,2.047.867,3.566,3.566,0,0,1,.813,2.266,6.619,6.619,0,0,1-.031,1.016l-.086.648h-5.523a2.856,2.856,0,0,0,.379,1.953,1.8,1.8,0,0,0,1.551.836,3.007,3.007,0,0,0,2.313-1.125l.813.688a3.718,3.718,0,0,1-1.371,1.2A3.886,3.886,0,0,1,444.68,65.156Zm.9-7.586a2.066,2.066,0,0,0-1.527.594A4.22,4.22,0,0,0,443.016,60l4.109.008.031-.125a2.313,2.313,0,0,0-.316-1.637A1.488,1.488,0,0,0,445.578,57.57Zm7.477-3.07-.359,2.047h1.539l-.2,1.117h-1.531l-.883,5.258a1.834,1.834,0,0,0-.008.375.6.6,0,0,0,.664.609,4.05,4.05,0,0,0,.688-.078l-.109,1.18a3.847,3.847,0,0,1-1.031.141,1.476,1.476,0,0,1-1.266-.621,2.4,2.4,0,0,1-.328-1.629l.859-5.234H449.6l.2-1.117h1.492l.359-2.047Zm2.453,8.859a.846.846,0,0,1,.633.234.807.807,0,0,1,.242.625.844.844,0,0,1-.258.621.929.929,0,0,1-.625.254.788.788,0,0,1-.859-.828.874.874,0,0,1,.867-.906Z" transform="translate(145 -10410.831)" fill="#12263f"/>
    <path id="Path_184740" data-name="Path 184740" d="M4,0H57a4,4,0,0,1,4,4V18a4,4,0,0,1-4,4H4a4,4,0,0,1-4-4V4A4,4,0,0,1,4,0Z" transform="translate(334.057 -10335.662)" fill="#e1e8ff"/>
    <path id="Path_184741" data-name="Path 184741" d="M6.852,14.656H2.883L1.711,17H-.812L5.266,5.625H7.383L9.547,17H7.211Zm-3.031-1.9H6.563L5.922,8.523ZM14.742,8.383a2.4,2.4,0,0,1,1.906.945L17.477,5h2.211L17.609,17H15.641l.125-.906a2.736,2.736,0,0,1-2.2,1.07,2.433,2.433,0,0,1-1.383-.414,2.607,2.607,0,0,1-.918-1.168,4.7,4.7,0,0,1-.355-1.7,6.4,6.4,0,0,1,.023-.953l.047-.352A6.767,6.767,0,0,1,11.7,10.3a3.766,3.766,0,0,1,1.313-1.461A3.094,3.094,0,0,1,14.742,8.383Zm-1.6,4.547a6.327,6.327,0,0,0-.039,1q.078,1.375,1.109,1.4a1.885,1.885,0,0,0,1.617-.875l.6-3.359a1.248,1.248,0,0,0-1.219-.875,1.606,1.606,0,0,0-1.34.621A4.176,4.176,0,0,0,13.141,12.93Zm9.781,1.281,2.406-5.664H27.7L23.617,17H21.508L20.063,8.547H22.3ZM31.3,17.156a3.677,3.677,0,0,1-1.965-.543,3.292,3.292,0,0,1-1.277-1.469,4.093,4.093,0,0,1-.328-2.059l.023-.312a5.465,5.465,0,0,1,.719-2.266,4.341,4.341,0,0,1,1.547-1.59,3.827,3.827,0,0,1,2.094-.527,2.924,2.924,0,0,1,2.473,1.2,4.117,4.117,0,0,1,.637,2.962l-.125.962h-5.18a1.814,1.814,0,0,0,.4,1.313,1.521,1.521,0,0,0,1.172.508A2.7,2.7,0,0,0,33.6,14.4l1.008,1.25a3.135,3.135,0,0,1-1.375,1.121A4.5,4.5,0,0,1,31.3,17.156Zm.7-6.945a1.565,1.565,0,0,0-1.082.383,3.363,3.363,0,0,0-.848,1.383h3.031l.047-.2a2.071,2.071,0,0,0,.008-.594,1.134,1.134,0,0,0-.383-.707A1.2,1.2,0,0,0,32.008,10.211Zm9.539.453a4.548,4.548,0,0,0-.742-.078,2.136,2.136,0,0,0-1.867.883L37.961,17h-2.2l1.469-8.453,2.07-.008-.2,1.031a2.325,2.325,0,0,1,1.969-1.2,3.214,3.214,0,0,1,.766.109ZM49.625,12.8A6.061,6.061,0,0,1,48.406,16a3.033,3.033,0,0,1-2.547,1.164,2.357,2.357,0,0,1-2.031-1.078l-.32.914H41.5L43.578,5h2.211l-.852,4.32A2.634,2.634,0,0,1,47,8.391a2.385,2.385,0,0,1,1.926.879,3.89,3.89,0,0,1,.746,2.387A9.132,9.132,0,0,1,49.625,12.8Zm-2.187-.165a6.554,6.554,0,0,0,.047-1.034q-.086-1.364-1.125-1.387a1.833,1.833,0,0,0-1.617.885l-.609,3.37a1.258,1.258,0,0,0,1.266.878q1.625.047,1.992-2.367ZM0,18H50.289v1H0Z" transform="translate(339.057 -10333.662)" fill="#3c3fa7"/>
    <path id="Path_181497" data-name="Path 181497" d="M-2325.514-10445.425h-7.7v-13.743" transform="translate(2656.57 117.006)" fill="none" stroke="#3c3fa7" stroke-width="2"/>
    <path id="Path_184742" data-name="Path 184742" d="M4,0H132a4,4,0,0,1,4,4V18a4,4,0,0,1-4,4H4a4,4,0,0,1-4-4V4A4,4,0,0,1,4,0Z" transform="translate(141 -10389.662)" fill="#fff0f1"/>
    <path id="Path_184743" data-name="Path 184743" d="M6.852,14.656H2.883L1.711,17H-.812L5.266,5.625H7.383L9.547,17H7.211Zm-3.031-1.9H6.563L5.922,8.523ZM14.742,8.383a2.4,2.4,0,0,1,1.906.945L17.477,5h2.211L17.609,17H15.641l.125-.906a2.736,2.736,0,0,1-2.2,1.07,2.433,2.433,0,0,1-1.383-.414,2.607,2.607,0,0,1-.918-1.168,4.7,4.7,0,0,1-.355-1.7,6.4,6.4,0,0,1,.023-.953l.047-.352A6.767,6.767,0,0,1,11.7,10.3a3.766,3.766,0,0,1,1.313-1.461A3.094,3.094,0,0,1,14.742,8.383Zm-1.6,4.547a6.327,6.327,0,0,0-.039,1q.078,1.375,1.109,1.4a1.885,1.885,0,0,0,1.617-.875l.6-3.359a1.248,1.248,0,0,0-1.219-.875,1.606,1.606,0,0,0-1.34.621A4.176,4.176,0,0,0,13.141,12.93Zm9.781,1.281,2.406-5.664H27.7L23.617,17H21.508L20.063,8.547H22.3ZM31.3,17.156a3.677,3.677,0,0,1-1.965-.543,3.292,3.292,0,0,1-1.277-1.469,4.093,4.093,0,0,1-.328-2.059l.023-.312a5.465,5.465,0,0,1,.719-2.266,4.341,4.341,0,0,1,1.547-1.59,3.827,3.827,0,0,1,2.094-.527,2.924,2.924,0,0,1,2.473,1.2,4.117,4.117,0,0,1,.637,2.962l-.125.962h-5.18a1.814,1.814,0,0,0,.4,1.313,1.521,1.521,0,0,0,1.172.508A2.7,2.7,0,0,0,33.6,14.4l1.008,1.25a3.135,3.135,0,0,1-1.375,1.121A4.5,4.5,0,0,1,31.3,17.156Zm.7-6.945a1.565,1.565,0,0,0-1.082.383,3.363,3.363,0,0,0-.848,1.383h3.031l.047-.2a2.071,2.071,0,0,0,.008-.594,1.134,1.134,0,0,0-.383-.707A1.2,1.2,0,0,0,32.008,10.211Zm9.539.453a4.548,4.548,0,0,0-.742-.078,2.136,2.136,0,0,0-1.867.883L37.961,17h-2.2l1.469-8.453,2.07-.008-.2,1.031a2.325,2.325,0,0,1,1.969-1.2,3.214,3.214,0,0,1,.766.109ZM49.625,12.8A6.061,6.061,0,0,1,48.406,16a3.033,3.033,0,0,1-2.547,1.164,2.357,2.357,0,0,1-2.031-1.078l-.32.914H41.5L43.578,5h2.211l-.852,4.32A2.634,2.634,0,0,1,47,8.391a2.385,2.385,0,0,1,1.926.879,3.89,3.89,0,0,1,.746,2.387A9.132,9.132,0,0,1,49.625,12.8Zm-2.187-.165a6.554,6.554,0,0,0,.047-1.034q-.086-1.364-1.125-1.387a1.833,1.833,0,0,0-1.617.885l-.609,3.37a1.258,1.258,0,0,0,1.266.878q1.625.047,1.992-2.367ZM59.094,8.391a3.39,3.39,0,0,1,1.926.574A3.234,3.234,0,0,1,62.207,10.5a4.762,4.762,0,0,1,.27,2.176,5.143,5.143,0,0,1-1.4,3.262,3.96,3.96,0,0,1-3.02,1.215,3.38,3.38,0,0,1-1.906-.566,3.222,3.222,0,0,1-1.187-1.527,4.657,4.657,0,0,1-.273-2.156,5.3,5.3,0,0,1,1.422-3.328A3.878,3.878,0,0,1,59.094,8.391Zm-2.227,5.315a1.95,1.95,0,0,0,.352,1.182,1.168,1.168,0,0,0,.945.449,1.712,1.712,0,0,0,1.594-.932,4.647,4.647,0,0,0,.539-2.531,2.122,2.122,0,0,0-.363-1.2,1.149,1.149,0,0,0-.949-.464,1.715,1.715,0,0,0-1.574.924A4.6,4.6,0,0,0,56.867,13.706ZM63.7,17l1.18-6.8H63.664l.289-1.648,1.219-.008.109-.844a3.332,3.332,0,0,1,1.1-2.121,3.334,3.334,0,0,1,2.289-.754,7.33,7.33,0,0,1,1.2.163l-.2,1.751a2.732,2.732,0,0,0-.648-.094,1.615,1.615,0,0,0-1,.3,1.355,1.355,0,0,0-.52.918l-.117.69h1.633L68.727,10.2H67.1L65.922,17ZM76.891,8.383a2.4,2.4,0,0,1,1.906.945L79.625,5h2.211L79.758,17H77.789l.125-.906a2.736,2.736,0,0,1-2.2,1.07,2.433,2.433,0,0,1-1.383-.414,2.607,2.607,0,0,1-.918-1.168,4.7,4.7,0,0,1-.355-1.7,6.4,6.4,0,0,1,.023-.953l.047-.352a6.767,6.767,0,0,1,.723-2.281A3.766,3.766,0,0,1,75.16,8.836,3.094,3.094,0,0,1,76.891,8.383Zm-1.6,4.547a6.327,6.327,0,0,0-.039,1q.078,1.375,1.109,1.4a1.885,1.885,0,0,0,1.617-.875l.6-3.359a1.248,1.248,0,0,0-1.219-.875,1.606,1.606,0,0,0-1.34.621A4.176,4.176,0,0,0,75.289,12.93Zm10.242,4.227a3.677,3.677,0,0,1-1.965-.543,3.292,3.292,0,0,1-1.277-1.469,4.093,4.093,0,0,1-.328-2.059l.023-.312a5.465,5.465,0,0,1,.719-2.266,4.341,4.341,0,0,1,1.547-1.59,3.827,3.827,0,0,1,2.094-.527,2.924,2.924,0,0,1,2.473,1.2,4.117,4.117,0,0,1,.637,2.962l-.125.962h-5.18a1.814,1.814,0,0,0,.4,1.313,1.521,1.521,0,0,0,1.172.508,2.7,2.7,0,0,0,2.109-.937l1.008,1.25a3.135,3.135,0,0,1-1.375,1.121A4.5,4.5,0,0,1,85.531,17.156Zm.7-6.945a1.565,1.565,0,0,0-1.082.383,3.363,3.363,0,0,0-.848,1.383h3.031l.047-.2a2.071,2.071,0,0,0,.008-.594,1.134,1.134,0,0,0-.383-.707A1.2,1.2,0,0,0,86.234,10.211Zm4.172,2.555a5.849,5.849,0,0,1,1.277-3.184,3.242,3.242,0,0,1,2.629-1.2,2.37,2.37,0,0,1,2.016.977l.289-.82,2.023.008-1.383,8.164a3.983,3.983,0,0,1-1.437,2.672,4.471,4.471,0,0,1-3,.953,4.168,4.168,0,0,1-1.672-.379,3.575,3.575,0,0,1-1.312-1l1.094-1.344a2.349,2.349,0,0,0,1.844.961,2.166,2.166,0,0,0,1.469-.449,2.4,2.4,0,0,0,.828-1.355l.125-.508a2.749,2.749,0,0,1-2.07.891,2.428,2.428,0,0,1-1.961-.918,3.947,3.947,0,0,1-.8-2.348A7.89,7.89,0,0,1,90.406,12.766Zm2.164.927a2.02,2.02,0,0,0,.309,1.178,1.08,1.08,0,0,0,.895.466,1.972,1.972,0,0,0,1.594-.767l.656-3.583a1.3,1.3,0,0,0-1.242-.767,1.728,1.728,0,0,0-1.43.681,3.561,3.561,0,0,0-.734,1.87A8.213,8.213,0,0,0,92.57,13.693Zm12.141-3.029a4.548,4.548,0,0,0-.742-.078,2.136,2.136,0,0,0-1.867.883L101.125,17h-2.2l1.469-8.453,2.07-.008-.2,1.031a2.325,2.325,0,0,1,1.969-1.2,3.214,3.214,0,0,1,.766.109Zm3.969,6.492a3.677,3.677,0,0,1-1.965-.543,3.292,3.292,0,0,1-1.277-1.469,4.093,4.093,0,0,1-.328-2.059l.023-.312a5.465,5.465,0,0,1,.719-2.266,4.341,4.341,0,0,1,1.547-1.59,3.827,3.827,0,0,1,2.094-.527,2.924,2.924,0,0,1,2.473,1.2,4.117,4.117,0,0,1,.637,2.962l-.125.962H107.3a1.814,1.814,0,0,0,.4,1.313,1.521,1.521,0,0,0,1.172.508,2.7,2.7,0,0,0,2.109-.937l1.008,1.25a3.135,3.135,0,0,1-1.375,1.121A4.5,4.5,0,0,1,108.68,17.156Zm.7-6.945a1.565,1.565,0,0,0-1.082.383,3.363,3.363,0,0,0-.848,1.383h3.031l.047-.2a2.071,2.071,0,0,0,.008-.594,1.134,1.134,0,0,0-.383-.707A1.2,1.2,0,0,0,109.383,10.211Zm7.766,6.945a3.677,3.677,0,0,1-1.965-.543,3.292,3.292,0,0,1-1.277-1.469,4.093,4.093,0,0,1-.328-2.059l.023-.312a5.465,5.465,0,0,1,.719-2.266,4.341,4.341,0,0,1,1.547-1.59,3.827,3.827,0,0,1,2.094-.527,2.924,2.924,0,0,1,2.473,1.2,4.117,4.117,0,0,1,.637,2.962l-.125.962h-5.18a1.814,1.814,0,0,0,.4,1.313,1.521,1.521,0,0,0,1.172.508,2.7,2.7,0,0,0,2.109-.937l1.008,1.25a3.135,3.135,0,0,1-1.375,1.121A4.5,4.5,0,0,1,117.148,17.156Zm.7-6.945a1.565,1.565,0,0,0-1.082.383,3.363,3.363,0,0,0-.848,1.383h3.031l.047-.2a2.071,2.071,0,0,0,.008-.594,1.134,1.134,0,0,0-.383-.707A1.2,1.2,0,0,0,117.852,10.211ZM0,18H88.836v1H0Zm98.031,0h23.547v1H98.031Z" transform="translate(146 -10387.662)" fill="#fc5f65"/>
    <path id="Path_181498" data-name="Path 181498" d="M-2325.514-10442.155h-7.7v-17.013" transform="translate(-2046 -20820.82) rotate(180)" fill="none" stroke="#fc5f65" stroke-width="2"/>
    <path id="Path_184733" data-name="Path 184733" d="M164.172,13.7l2.742-8.07h2.336L165.023,17h-2.3l-.6-7.578L159.141,17h-2.3l-.672-11.375H158.4l.227,8.031,3.063-8.031h1.945Zm6.664,3.3h-2.219l1.469-8.453H172.3Zm-.492-10.6a1.1,1.1,0,0,1,.344-.867,1.323,1.323,0,0,1,1.734-.039,1.1,1.1,0,0,1,.383.828,1.132,1.132,0,0,1-.324.844,1.215,1.215,0,0,1-.887.375,1.235,1.235,0,0,1-.863-.3A1.091,1.091,0,0,1,170.344,6.4Zm6.828.07L176.8,8.547h1.406l-.289,1.656h-1.406l-.719,4.234a1.077,1.077,0,0,0,.063.609q.109.211.531.227.125.008.672-.039l-.156,1.727a3.706,3.706,0,0,1-1.266.18,1.985,1.985,0,0,1-1.617-.68,2.456,2.456,0,0,1-.437-1.8l.727-4.461h-1.2l.289-1.656h1.2l.359-2.078Zm4.211,3.016a2.946,2.946,0,0,1,2.289-1.094,2.143,2.143,0,0,1,1.848.9,3.548,3.548,0,0,1,.441,2.379L185.07,17h-2.2l.9-5.358a2.6,2.6,0,0,0,.016-.563.885.885,0,0,0-.984-.868,1.9,1.9,0,0,0-1.562.766L180.172,17h-2.2l2.078-12h2.211ZM195.625,17a2.281,2.281,0,0,1-.086-.766,2.863,2.863,0,0,1-2.156.922,2.594,2.594,0,0,1-1.84-.723,2.186,2.186,0,0,1-.684-1.746,2.527,2.527,0,0,1,1.16-2.121,5.266,5.266,0,0,1,2.965-.738l1.031.016.109-.508a1.764,1.764,0,0,0,.023-.492.846.846,0,0,0-.277-.574.955.955,0,0,0-.629-.215,1.345,1.345,0,0,0-.875.254,1.231,1.231,0,0,0-.461.777l-2.211.008a2.457,2.457,0,0,1,1.113-1.965,4.312,4.312,0,0,1,2.613-.738,3.117,3.117,0,0,1,2.25.855,2.5,2.5,0,0,1,.68,2.121l-.648,4.047-.039.5a2.412,2.412,0,0,0,.133.938l-.008.148Zm-1.7-1.555a2.017,2.017,0,0,0,1.664-.828l.273-1.461-.766-.008a2.139,2.139,0,0,0-1.758.742,1.292,1.292,0,0,0-.242.633.75.75,0,0,0,.176.668A.891.891,0,0,0,193.93,15.445Zm8.688-6.906-.187,1a3.042,3.042,0,0,1,2.461-1.148,2.028,2.028,0,0,1,1.766.875,3.526,3.526,0,0,1,.414,2.359L206.18,17h-2.2l.906-5.4a2.527,2.527,0,0,0,.016-.555.9.9,0,0,0-1-.82,1.9,1.9,0,0,0-1.555.8L201.289,17h-2.2l1.469-8.453ZM216.742,17a2.281,2.281,0,0,1-.086-.766,2.863,2.863,0,0,1-2.156.922,2.594,2.594,0,0,1-1.84-.723,2.186,2.186,0,0,1-.684-1.746,2.527,2.527,0,0,1,1.16-2.121,5.266,5.266,0,0,1,2.965-.738l1.031.016.109-.508a1.764,1.764,0,0,0,.023-.492.846.846,0,0,0-.277-.574.955.955,0,0,0-.629-.215,1.345,1.345,0,0,0-.875.254,1.231,1.231,0,0,0-.461.777l-2.211.008a2.457,2.457,0,0,1,1.113-1.965,4.312,4.312,0,0,1,2.613-.738,3.117,3.117,0,0,1,2.25.855,2.5,2.5,0,0,1,.68,2.121l-.648,4.047-.039.5a2.412,2.412,0,0,0,.133.938l-.008.148Zm-1.7-1.555a2.017,2.017,0,0,0,1.664-.828l.273-1.461-.766-.008a2.139,2.139,0,0,0-1.758.742,1.292,1.292,0,0,0-.242.633.75.75,0,0,0,.176.668A.891.891,0,0,0,215.047,15.445Zm9.4-7.062a2.4,2.4,0,0,1,1.906.945L227.18,5h2.211l-2.078,12h-1.969l.125-.906a2.736,2.736,0,0,1-2.2,1.07,2.433,2.433,0,0,1-1.383-.414,2.607,2.607,0,0,1-.918-1.168,4.7,4.7,0,0,1-.355-1.7,6.4,6.4,0,0,1,.023-.953l.047-.352A6.767,6.767,0,0,1,221.4,10.3a3.766,3.766,0,0,1,1.313-1.461A3.094,3.094,0,0,1,224.445,8.383Zm-1.6,4.547a6.326,6.326,0,0,0-.039,1q.078,1.375,1.109,1.4a1.885,1.885,0,0,0,1.617-.875l.6-3.359a1.248,1.248,0,0,0-1.219-.875,1.606,1.606,0,0,0-1.34.621A4.176,4.176,0,0,0,222.844,12.93Zm10.031-4.383-1.516,8.914a3.516,3.516,0,0,1-1.02,2.2,2.984,2.984,0,0,1-2.168.773A6.8,6.8,0,0,1,227,20.289l.18-1.8a4.309,4.309,0,0,0,.68.1,1.2,1.2,0,0,0,1.266-1.125l1.531-8.922ZM230.867,6.4a1.1,1.1,0,0,1,.328-.855,1.328,1.328,0,0,1,1.77-.035,1.108,1.108,0,0,1,.363.813,1.113,1.113,0,0,1-.328.863,1.257,1.257,0,0,1-.883.355,1.235,1.235,0,0,1-.863-.3A1.091,1.091,0,0,1,230.867,6.4ZM237.2,17.156a3.677,3.677,0,0,1-1.965-.543,3.292,3.292,0,0,1-1.277-1.469,4.093,4.093,0,0,1-.328-2.059l.023-.312a5.465,5.465,0,0,1,.719-2.266,4.341,4.341,0,0,1,1.547-1.59,3.827,3.827,0,0,1,2.094-.527,2.924,2.924,0,0,1,2.473,1.2,4.117,4.117,0,0,1,.637,2.962l-.125.962h-5.18a1.814,1.814,0,0,0,.4,1.313,1.521,1.521,0,0,0,1.172.508,2.7,2.7,0,0,0,2.109-.937l1.008,1.25a3.135,3.135,0,0,1-1.375,1.121A4.5,4.5,0,0,1,237.2,17.156Zm.7-6.945a1.565,1.565,0,0,0-1.082.383,3.363,3.363,0,0,0-.848,1.383H239l.047-.2a2.071,2.071,0,0,0,.008-.594,1.134,1.134,0,0,0-.383-.707A1.2,1.2,0,0,0,237.9,10.211Zm7.453,5.133a1.447,1.447,0,0,0,1.016-.332,1.632,1.632,0,0,0,.531-.926l2.07-.008a3.036,3.036,0,0,1-.559,1.6,3.394,3.394,0,0,1-1.344,1.109,3.847,3.847,0,0,1-1.77.375,3.123,3.123,0,0,1-2.437-1.062,3.965,3.965,0,0,1-.867-2.766l.023-.43.008-.086a5.284,5.284,0,0,1,1.391-3.27,3.761,3.761,0,0,1,2.914-1.16,3.047,3.047,0,0,1,2.27.934,3.3,3.3,0,0,1,.824,2.379h-2.055a1.73,1.73,0,0,0-.3-1.07,1.128,1.128,0,0,0-.891-.422q-1.578-.047-1.914,2.3a7.783,7.783,0,0,0-.086,1.438Q244.258,15.32,245.352,15.344Zm8.938-8.875-.367,2.078h1.406l-.289,1.656h-1.406l-.719,4.234a1.077,1.077,0,0,0,.063.609q.109.211.531.227.125.008.672-.039l-.156,1.727a3.706,3.706,0,0,1-1.266.18,1.985,1.985,0,0,1-1.617-.68,2.456,2.456,0,0,1-.437-1.8l.727-4.461h-1.2l.289-1.656h1.2l.359-2.078ZM257.469,17H255.25l1.469-8.453h2.219Zm-.492-10.6a1.1,1.1,0,0,1,.344-.867,1.323,1.323,0,0,1,1.734-.039,1.1,1.1,0,0,1,.383.828,1.132,1.132,0,0,1-.324.844,1.215,1.215,0,0,1-.887.375,1.235,1.235,0,0,1-.863-.3A1.091,1.091,0,0,1,256.977,6.4Zm5.914,7.813L265.3,8.547h2.375L263.586,17h-2.109l-1.445-8.453h2.234Zm8.383,2.945a3.677,3.677,0,0,1-1.965-.543,3.292,3.292,0,0,1-1.277-1.469,4.093,4.093,0,0,1-.328-2.059l.023-.312a5.465,5.465,0,0,1,.719-2.266,4.341,4.341,0,0,1,1.547-1.59,3.827,3.827,0,0,1,2.094-.527,2.924,2.924,0,0,1,2.473,1.2,4.117,4.117,0,0,1,.637,2.962l-.125.962h-5.18a1.814,1.814,0,0,0,.4,1.313,1.521,1.521,0,0,0,1.172.508,2.7,2.7,0,0,0,2.109-.937l1.008,1.25A3.135,3.135,0,0,1,273.2,16.77,4.5,4.5,0,0,1,271.273,17.156Zm.7-6.945a1.565,1.565,0,0,0-1.082.383,3.363,3.363,0,0,0-.848,1.383h3.031l.047-.2a2.071,2.071,0,0,0,.008-.594,1.134,1.134,0,0,0-.383-.707A1.2,1.2,0,0,0,271.977,10.211Zm5.281,4.461a1.22,1.22,0,0,1,.895.324,1.111,1.111,0,0,1,.371.855,1.151,1.151,0,0,1-.344.879,1.323,1.323,0,0,1-1.766.051,1.149,1.149,0,0,1-.375-.852,1.161,1.161,0,0,1,.336-.883A1.238,1.238,0,0,1,277.258,14.672Zm1.1-6.4a1.22,1.22,0,0,1,.895.324,1.111,1.111,0,0,1,.371.855,1.151,1.151,0,0,1-.344.879,1.323,1.323,0,0,1-1.766.051,1.149,1.149,0,0,1-.375-.852,1.161,1.161,0,0,1,.336-.883A1.238,1.238,0,0,1,278.359,8.273ZM18.9,62.07q.172-1.25-1.3-1.828L16.25,59.75l-.453-.2q-2.281-1.039-2.133-2.922a3.056,3.056,0,0,1,.648-1.672,3.69,3.69,0,0,1,1.512-1.121,4.849,4.849,0,0,1,2-.371,4,4,0,0,1,1.84.461,2.962,2.962,0,0,1,1.23,1.223,3.333,3.333,0,0,1,.375,1.77L19.8,56.914a2.037,2.037,0,0,0-.469-1.627,2.1,2.1,0,0,0-1.562-.592,2.91,2.91,0,0,0-1.789.5,1.955,1.955,0,0,0-.828,1.409q-.156,1.166,1.43,1.769l1.164.415.586.25a2.941,2.941,0,0,1,2.039,3.016,3.012,3.012,0,0,1-.648,1.66A3.626,3.626,0,0,1,18.191,64.8a5.266,5.266,0,0,1-2.074.359A4.34,4.34,0,0,1,14.16,64.7a3.193,3.193,0,0,1-1.348-1.23,3.078,3.078,0,0,1-.406-1.773l1.469.008a1.935,1.935,0,0,0,.551,1.613,2.479,2.479,0,0,0,1.754.613,3.131,3.131,0,0,0,1.867-.492A1.916,1.916,0,0,0,18.9,62.07Zm5.32-4.492a3.275,3.275,0,0,1,2.555-1.18,2.058,2.058,0,0,1,1.762.816,3.217,3.217,0,0,1,.426,2.246L28.039,65H26.625l.93-5.562a2.968,2.968,0,0,0,.008-.711,1.168,1.168,0,0,0-1.289-1.117,2.6,2.6,0,0,0-2.234,1.359L22.992,65H21.578l2.086-12h1.414Zm9.641,7.578a3.048,3.048,0,0,1-2.469-1.164,4.006,4.006,0,0,1-.75-2.9l.039-.336a5.624,5.624,0,0,1,.746-2.3,4.339,4.339,0,0,1,1.5-1.566,3.491,3.491,0,0,1,1.906-.5,2.688,2.688,0,0,1,2.047.867,3.566,3.566,0,0,1,.813,2.266,6.621,6.621,0,0,1-.031,1.016l-.086.648H32.047a2.856,2.856,0,0,0,.379,1.953,1.8,1.8,0,0,0,1.551.836,3.007,3.007,0,0,0,2.313-1.125l.813.688a3.718,3.718,0,0,1-1.371,1.2A3.886,3.886,0,0,1,33.859,65.156Zm.9-7.586a2.066,2.066,0,0,0-1.527.594A4.22,4.22,0,0,0,32.2,60l4.109.008.031-.125a2.313,2.313,0,0,0-.316-1.637A1.488,1.488,0,0,0,34.758,57.57Zm10.3.008a3.275,3.275,0,0,1,2.555-1.18,2.058,2.058,0,0,1,1.762.816,3.217,3.217,0,0,1,.426,2.246L48.883,65H47.469l.93-5.562a2.968,2.968,0,0,0,.008-.711,1.168,1.168,0,0,0-1.289-1.117,2.6,2.6,0,0,0-2.234,1.359L43.836,65H42.422l2.086-12h1.414ZM56.219,65a1.894,1.894,0,0,1-.055-.445l.023-.445a3.465,3.465,0,0,1-2.469,1.047,2.526,2.526,0,0,1-1.816-.707,2.14,2.14,0,0,1-.637-1.73,2.6,2.6,0,0,1,1.176-2.1,5.005,5.005,0,0,1,2.887-.754l1.477.008L56.9,59.2a1.545,1.545,0,0,0-.293-1.2,1.414,1.414,0,0,0-1.113-.457,2.181,2.181,0,0,0-1.285.355,1.513,1.513,0,0,0-.684.98l-1.422.008a2.266,2.266,0,0,1,.578-1.316,3.363,3.363,0,0,1,1.3-.891,4.215,4.215,0,0,1,1.648-.3,2.8,2.8,0,0,1,2.055.8,2.484,2.484,0,0,1,.617,2.043l-.687,4.188-.039.6a2.949,2.949,0,0,0,.094.852L57.656,65ZM54,63.906a2.466,2.466,0,0,0,1.285-.324,3.254,3.254,0,0,0,1.043-.941l.3-1.742-1.07-.008a4.054,4.054,0,0,0-2.047.422,1.554,1.554,0,0,0-.8,1.2,1.21,1.21,0,0,0,.277.988A1.321,1.321,0,0,0,54,63.906Zm5.977-3.148a6.578,6.578,0,0,1,.711-2.328,4.03,4.03,0,0,1,1.367-1.555,3.127,3.127,0,0,1,1.789-.492,2.64,2.64,0,0,1,2.172,1.031L66.828,53h1.414L66.164,65H64.875l.148-.906a3.116,3.116,0,0,1-2.469,1.063,2.335,2.335,0,0,1-1.867-.918,4,4,0,0,1-.75-2.379A7.6,7.6,0,0,1,59.977,60.758Zm1.359.808a2.929,2.929,0,0,0,.4,1.732,1.437,1.437,0,0,0,1.234.632,2.554,2.554,0,0,0,2.18-1.233l.672-3.9a1.754,1.754,0,0,0-1.7-1.186,2.143,2.143,0,0,0-1.473.5,3.256,3.256,0,0,0-.969,1.475A6.082,6.082,0,0,0,61.336,61.565ZM73.008,65l1.281-7.336h-1.3l.2-1.117h1.3l.141-1a3.318,3.318,0,0,1,.984-1.992A2.926,2.926,0,0,1,77.7,52.82a4.884,4.884,0,0,1,1.008.134l-.172,1.187a4.637,4.637,0,0,0-.758-.094,1.614,1.614,0,0,0-1.191.456,2.073,2.073,0,0,0-.566,1.211l-.125.833h1.75l-.2,1.117H75.7L74.422,65Zm9.477-8.609a3.047,3.047,0,0,1,1.82.578,3.285,3.285,0,0,1,1.121,1.551,4.8,4.8,0,0,1,.246,2.16l-.016.172a5.685,5.685,0,0,1-.734,2.23,4.309,4.309,0,0,1-1.516,1.551,3.7,3.7,0,0,1-2.039.523,3.052,3.052,0,0,1-1.816-.578,3.21,3.21,0,0,1-1.113-1.531,4.931,4.931,0,0,1-.25-2.133,5.76,5.76,0,0,1,.711-2.359,4.409,4.409,0,0,1,1.527-1.621A3.652,3.652,0,0,1,82.484,56.391Zm-2.875,4.531a4.8,4.8,0,0,0,0,1.023,2.507,2.507,0,0,0,.551,1.469,1.653,1.653,0,0,0,1.262.57,2.253,2.253,0,0,0,1.3-.348,2.919,2.919,0,0,0,1-1.121,4.721,4.721,0,0,0,.523-1.664,7.5,7.5,0,0,0,.023-1.211,2.6,2.6,0,0,0-.57-1.492,1.69,1.69,0,0,0-1.266-.578,2.3,2.3,0,0,0-1.859.859,4.245,4.245,0,0,0-.945,2.313Zm12.477,3.242a3.265,3.265,0,0,1-2.523.992,2.107,2.107,0,0,1-1.793-.867,3.317,3.317,0,0,1-.434-2.281l.906-5.461h1.414l-.914,5.484a3.643,3.643,0,0,0-.016.672,1.4,1.4,0,0,0,.336.883,1.146,1.146,0,0,0,.828.344A2.537,2.537,0,0,0,92.234,62.7L93.3,56.547h1.414L93.242,65H91.906Zm6.07-7.625-.2,1.07a3.333,3.333,0,0,1,2.594-1.219,2.1,2.1,0,0,1,1.766.828,3.217,3.217,0,0,1,.422,2.242L101.813,65H100.4l.93-5.557a2.962,2.962,0,0,0,.008-.71,1.168,1.168,0,0,0-1.289-1.116,2.661,2.661,0,0,0-2.234,1.358L96.766,65H95.352l1.469-8.453Zm6.242,4.219a6.578,6.578,0,0,1,.711-2.328,4.03,4.03,0,0,1,1.367-1.555,3.127,3.127,0,0,1,1.789-.492,2.64,2.64,0,0,1,2.172,1.031L111.25,53h1.414l-2.078,12H109.3l.148-.906a3.116,3.116,0,0,1-2.469,1.063,2.335,2.335,0,0,1-1.867-.918,4,4,0,0,1-.75-2.379A7.6,7.6,0,0,1,104.4,60.758Zm1.359.808a2.929,2.929,0,0,0,.4,1.732,1.437,1.437,0,0,0,1.234.632,2.554,2.554,0,0,0,2.18-1.233l.672-3.9a1.754,1.754,0,0,0-1.7-1.186,2.143,2.143,0,0,0-1.473.5,3.256,3.256,0,0,0-.969,1.475A6.082,6.082,0,0,0,105.758,61.565ZM120.477,54.5l-.359,2.047h1.539l-.2,1.117H119.93l-.883,5.258a1.833,1.833,0,0,0-.008.375.6.6,0,0,0,.664.609,4.05,4.05,0,0,0,.688-.078l-.109,1.18a3.847,3.847,0,0,1-1.031.141,1.476,1.476,0,0,1-1.266-.621,2.4,2.4,0,0,1-.328-1.629l.859-5.234h-1.492l.2-1.117h1.492l.359-2.047Zm4.055,3.078a3.275,3.275,0,0,1,2.555-1.18,2.058,2.058,0,0,1,1.762.816,3.217,3.217,0,0,1,.426,2.246L128.352,65h-1.414l.93-5.562a2.968,2.968,0,0,0,.008-.711,1.168,1.168,0,0,0-1.289-1.117,2.6,2.6,0,0,0-2.234,1.359L123.3,65h-1.414l2.086-12h1.414Zm9.641,7.578a3.048,3.048,0,0,1-2.469-1.164,4.006,4.006,0,0,1-.75-2.9l.039-.336a5.624,5.624,0,0,1,.746-2.3,4.339,4.339,0,0,1,1.5-1.566,3.491,3.491,0,0,1,1.906-.5,2.688,2.688,0,0,1,2.047.867A3.566,3.566,0,0,1,138,59.523a6.621,6.621,0,0,1-.031,1.016l-.086.648h-5.523a2.855,2.855,0,0,0,.379,1.953,1.8,1.8,0,0,0,1.551.836,3.007,3.007,0,0,0,2.313-1.125l.813.688a3.718,3.718,0,0,1-1.371,1.2A3.886,3.886,0,0,1,134.172,65.156Zm.9-7.586a2.066,2.066,0,0,0-1.527.594A4.22,4.22,0,0,0,132.508,60l4.109.008.031-.125a2.313,2.313,0,0,0-.316-1.637A1.488,1.488,0,0,0,135.07,57.57Zm15.32,3.242a6.707,6.707,0,0,1-.7,2.32,3.949,3.949,0,0,1-1.336,1.543,3.058,3.058,0,0,1-1.766.488,2.815,2.815,0,0,1-2.25-.992l-.758,4.078h-1.414l2.031-11.7,1.281-.008-.156.945a3.207,3.207,0,0,1,2.508-1.094,2.358,2.358,0,0,1,1.9.9,3.954,3.954,0,0,1,.719,2.391,8.414,8.414,0,0,1-.039.969ZM149,60.652l.039-.655a2.969,2.969,0,0,0-.434-1.744,1.525,1.525,0,0,0-1.254-.636,2.508,2.508,0,0,0-2.117,1.163l-.711,4.05a1.769,1.769,0,0,0,1.711,1.155,2.224,2.224,0,0,0,1.793-.823A4.777,4.777,0,0,0,149,60.652Zm6.18,4.5a3.048,3.048,0,0,1-2.469-1.164,4.006,4.006,0,0,1-.75-2.9l.039-.336a5.624,5.624,0,0,1,.746-2.3,4.339,4.339,0,0,1,1.5-1.566,3.491,3.491,0,0,1,1.906-.5,2.688,2.688,0,0,1,2.047.867,3.566,3.566,0,0,1,.813,2.266,6.621,6.621,0,0,1-.031,1.016l-.086.648h-5.523a2.855,2.855,0,0,0,.379,1.953,1.8,1.8,0,0,0,1.551.836,3.007,3.007,0,0,0,2.313-1.125l.813.688a3.718,3.718,0,0,1-1.371,1.2A3.886,3.886,0,0,1,155.18,65.156Zm.9-7.586a2.066,2.066,0,0,0-1.527.594A4.22,4.22,0,0,0,153.516,60l4.109.008.031-.125a2.313,2.313,0,0,0-.316-1.637A1.488,1.488,0,0,0,156.078,57.57Zm9,.266-.664-.07a2.42,2.42,0,0,0-2.141,1.227L161.234,65H159.82l1.469-8.453,1.367-.008-.211.984a2.527,2.527,0,0,1,2.117-1.148,2.594,2.594,0,0,1,.672.117Zm5.3,4.875q.117-.875-.961-1.234l-1.469-.43q-1.859-.641-1.8-2.125a2.341,2.341,0,0,1,1.02-1.832,3.631,3.631,0,0,1,2.27-.7,3.027,3.027,0,0,1,2.082.746,2.363,2.363,0,0,1,.77,1.9l-1.406-.008a1.319,1.319,0,0,0-.4-1.031,1.576,1.576,0,0,0-1.1-.414,2.059,2.059,0,0,0-1.266.359,1.316,1.316,0,0,0-.57.922q-.1.734.9,1.07l.711.2a4.577,4.577,0,0,1,2.063.977,1.865,1.865,0,0,1,.563,1.492,2.37,2.37,0,0,1-.516,1.375,2.948,2.948,0,0,1-1.25.895,4.18,4.18,0,0,1-1.664.285,3.3,3.3,0,0,1-2.219-.785,2.427,2.427,0,0,1-.844-1.98l1.414.008a1.5,1.5,0,0,0,.453,1.141,1.732,1.732,0,0,0,1.242.43,2.436,2.436,0,0,0,1.336-.324A1.247,1.247,0,0,0,170.383,62.711Zm7.539-6.32a3.047,3.047,0,0,1,1.82.578,3.285,3.285,0,0,1,1.121,1.551,4.8,4.8,0,0,1,.246,2.16l-.016.172a5.685,5.685,0,0,1-.734,2.23,4.309,4.309,0,0,1-1.516,1.551,3.7,3.7,0,0,1-2.039.523,3.052,3.052,0,0,1-1.816-.578,3.21,3.21,0,0,1-1.113-1.531,4.931,4.931,0,0,1-.25-2.133,5.76,5.76,0,0,1,.711-2.359,4.409,4.409,0,0,1,1.527-1.621A3.652,3.652,0,0,1,177.922,56.391Zm-2.875,4.531a4.8,4.8,0,0,0,0,1.023,2.507,2.507,0,0,0,.551,1.469,1.653,1.653,0,0,0,1.262.57,2.253,2.253,0,0,0,1.3-.348,2.919,2.919,0,0,0,1-1.121,4.721,4.721,0,0,0,.523-1.664,7.493,7.493,0,0,0,.023-1.211,2.6,2.6,0,0,0-.57-1.492,1.69,1.69,0,0,0-1.266-.578,2.3,2.3,0,0,0-1.859.859,4.245,4.245,0,0,0-.945,2.313Zm9.914-4.383-.2,1.07a3.333,3.333,0,0,1,2.594-1.219,2.1,2.1,0,0,1,1.766.828,3.217,3.217,0,0,1,.422,2.242L188.617,65H187.2l.93-5.557a2.962,2.962,0,0,0,.008-.71,1.168,1.168,0,0,0-1.289-1.116,2.661,2.661,0,0,0-2.234,1.358L183.57,65h-1.414l1.469-8.453ZM202.3,63l2.7-6.453h1.461L202.609,65h-1.148l-.875-6.391L197.539,65h-1.148l-.914-8.453h1.352l.516,6.3,3-6.3h1.141Zm6.8-5.422a3.275,3.275,0,0,1,2.555-1.18,2.058,2.058,0,0,1,1.762.816,3.217,3.217,0,0,1,.426,2.246L212.922,65h-1.414l.93-5.562a2.968,2.968,0,0,0,.008-.711,1.168,1.168,0,0,0-1.289-1.117,2.6,2.6,0,0,0-2.234,1.359L207.875,65h-1.414l2.086-12h1.414Zm10.68-1.187a3.047,3.047,0,0,1,1.82.578,3.285,3.285,0,0,1,1.121,1.551,4.8,4.8,0,0,1,.246,2.16l-.016.172a5.685,5.685,0,0,1-.734,2.23,4.309,4.309,0,0,1-1.516,1.551,3.7,3.7,0,0,1-2.039.523,3.052,3.052,0,0,1-1.816-.578,3.21,3.21,0,0,1-1.113-1.531,4.931,4.931,0,0,1-.25-2.133,5.76,5.76,0,0,1,.711-2.359,4.409,4.409,0,0,1,1.527-1.621A3.652,3.652,0,0,1,219.781,56.391Zm-2.875,4.531a4.8,4.8,0,0,0,0,1.023,2.507,2.507,0,0,0,.551,1.469,1.653,1.653,0,0,0,1.262.57,2.253,2.253,0,0,0,1.3-.348,2.919,2.919,0,0,0,1-1.121,4.721,4.721,0,0,0,.523-1.664,7.493,7.493,0,0,0,.023-1.211,2.6,2.6,0,0,0-.57-1.492,1.69,1.69,0,0,0-1.266-.578,2.3,2.3,0,0,0-1.859.859,4.245,4.245,0,0,0-.945,2.313ZM235.523,63l2.7-6.453h1.461L235.828,65H234.68l-.875-6.391L230.758,65h-1.148l-.914-8.453h1.352l.516,6.3,3-6.3H234.7Zm9.328,2a1.894,1.894,0,0,1-.055-.445l.023-.445a3.465,3.465,0,0,1-2.469,1.047,2.526,2.526,0,0,1-1.816-.707,2.14,2.14,0,0,1-.637-1.73,2.6,2.6,0,0,1,1.176-2.1,5.005,5.005,0,0,1,2.887-.754l1.477.008.094-.672a1.545,1.545,0,0,0-.293-1.2,1.414,1.414,0,0,0-1.113-.457,2.181,2.181,0,0,0-1.285.355,1.513,1.513,0,0,0-.684.98l-1.422.008a2.266,2.266,0,0,1,.578-1.316,3.363,3.363,0,0,1,1.3-.891,4.215,4.215,0,0,1,1.648-.3,2.8,2.8,0,0,1,2.055.8,2.484,2.484,0,0,1,.617,2.043l-.687,4.188-.039.6a2.949,2.949,0,0,0,.094.852l-.016.133Zm-2.219-1.094a2.466,2.466,0,0,0,1.285-.324,3.254,3.254,0,0,0,1.043-.941l.3-1.742-1.07-.008a4.054,4.054,0,0,0-2.047.422,1.554,1.554,0,0,0-.8,1.2,1.21,1.21,0,0,0,.277.988A1.321,1.321,0,0,0,242.633,63.906Zm10.8-1.2q.117-.875-.961-1.234l-1.469-.43q-1.859-.641-1.8-2.125a2.341,2.341,0,0,1,1.02-1.832,3.631,3.631,0,0,1,2.27-.7,3.027,3.027,0,0,1,2.082.746,2.363,2.363,0,0,1,.77,1.9l-1.406-.008a1.319,1.319,0,0,0-.4-1.031,1.576,1.576,0,0,0-1.1-.414,2.059,2.059,0,0,0-1.266.359,1.316,1.316,0,0,0-.57.922q-.1.734.9,1.07l.711.2a4.577,4.577,0,0,1,2.063.977,1.865,1.865,0,0,1,.563,1.492,2.37,2.37,0,0,1-.516,1.375,2.948,2.948,0,0,1-1.25.895,4.18,4.18,0,0,1-1.664.285,3.3,3.3,0,0,1-2.219-.785,2.427,2.427,0,0,1-.844-1.98l1.414.008a1.5,1.5,0,0,0,.453,1.141,1.732,1.732,0,0,0,1.242.43,2.436,2.436,0,0,0,1.336-.324A1.247,1.247,0,0,0,253.438,62.711Zm9.7-6.164-1.6,9.461a2.989,2.989,0,0,1-.8,1.82,2.264,2.264,0,0,1-1.684.609,4.171,4.171,0,0,1-.93-.156l.125-1.156a3.372,3.372,0,0,0,.648.086q1.008,0,1.211-1.2l1.617-9.461Zm-1.172-2.219a.9.9,0,0,1,.23-.609.822.822,0,0,1,.6-.258.761.761,0,0,1,.6.223.811.811,0,0,1,.238.6.841.841,0,0,1-.242.6.87.87,0,0,1-.6.25.745.745,0,0,1-.586-.219A.8.8,0,0,1,261.961,54.328Zm7.391,9.836a3.265,3.265,0,0,1-2.523.992,2.107,2.107,0,0,1-1.793-.867,3.316,3.316,0,0,1-.434-2.281l.906-5.461h1.414l-.914,5.484a3.643,3.643,0,0,0-.016.672,1.4,1.4,0,0,0,.336.883,1.146,1.146,0,0,0,.828.344A2.537,2.537,0,0,0,269.5,62.7l1.063-6.156h1.414L270.508,65h-1.336Zm8.5-1.453q.117-.875-.961-1.234l-1.469-.43q-1.859-.641-1.8-2.125a2.341,2.341,0,0,1,1.02-1.832,3.631,3.631,0,0,1,2.27-.7,3.027,3.027,0,0,1,2.082.746,2.363,2.363,0,0,1,.77,1.9l-1.406-.008a1.319,1.319,0,0,0-.4-1.031,1.576,1.576,0,0,0-1.1-.414,2.059,2.059,0,0,0-1.266.359,1.316,1.316,0,0,0-.57.922q-.1.734.9,1.07l.711.2a4.577,4.577,0,0,1,2.063.977,1.865,1.865,0,0,1,.563,1.492,2.37,2.37,0,0,1-.516,1.375,2.948,2.948,0,0,1-1.25.895,4.181,4.181,0,0,1-1.664.285,3.3,3.3,0,0,1-2.219-.785,2.427,2.427,0,0,1-.844-1.98l1.414.008a1.5,1.5,0,0,0,.453,1.141,1.732,1.732,0,0,0,1.242.43,2.436,2.436,0,0,0,1.336-.324A1.247,1.247,0,0,0,277.852,62.711ZM284.43,54.5l-.359,2.047h1.539l-.2,1.117h-1.531L283,62.922a1.834,1.834,0,0,0-.008.375.6.6,0,0,0,.664.609,4.05,4.05,0,0,0,.688-.078l-.109,1.18a3.847,3.847,0,0,1-1.031.141,1.476,1.476,0,0,1-1.266-.621,2.4,2.4,0,0,1-.328-1.629l.859-5.234h-1.492l.2-1.117h1.492l.359-2.047ZM262.533,66H285.6v1H262.533Zm34.889-5.187a6.706,6.706,0,0,1-.7,2.32,3.949,3.949,0,0,1-1.336,1.543,3.058,3.058,0,0,1-1.766.488,2.815,2.815,0,0,1-2.25-.992l-.758,4.078H289.2l2.031-11.7,1.281-.008-.156.945a3.207,3.207,0,0,1,2.508-1.094,2.358,2.358,0,0,1,1.9.9,3.954,3.954,0,0,1,.719,2.391,8.41,8.41,0,0,1-.039.969Zm-1.391-.16L296.07,60a2.969,2.969,0,0,0-.434-1.744,1.525,1.525,0,0,0-1.254-.636,2.508,2.508,0,0,0-2.117,1.163l-.711,4.05a1.769,1.769,0,0,0,1.711,1.155,2.224,2.224,0,0,0,1.793-.823A4.777,4.777,0,0,0,296.031,60.652Zm6.18,4.5a3.048,3.048,0,0,1-2.469-1.164,4.006,4.006,0,0,1-.75-2.9l.039-.336a5.624,5.624,0,0,1,.746-2.3,4.339,4.339,0,0,1,1.5-1.566,3.491,3.491,0,0,1,1.906-.5,2.688,2.688,0,0,1,2.047.867,3.566,3.566,0,0,1,.813,2.266,6.619,6.619,0,0,1-.031,1.016l-.086.648H300.4a2.856,2.856,0,0,0,.379,1.953,1.8,1.8,0,0,0,1.551.836,3.007,3.007,0,0,0,2.313-1.125l.813.688a3.718,3.718,0,0,1-1.371,1.2A3.886,3.886,0,0,1,302.211,65.156Zm.9-7.586a2.066,2.066,0,0,0-1.527.594A4.22,4.22,0,0,0,300.547,60l4.109.008.031-.125a2.313,2.313,0,0,0-.316-1.637A1.488,1.488,0,0,0,303.109,57.57Zm9,.266-.664-.07a2.42,2.42,0,0,0-2.141,1.227L308.266,65h-1.414l1.469-8.453,1.367-.008-.211.984a2.527,2.527,0,0,1,2.117-1.148,2.594,2.594,0,0,1,.672.117ZM312.984,65l1.281-7.336h-1.3l.2-1.117h1.3l.141-1a3.318,3.318,0,0,1,.984-1.992,2.926,2.926,0,0,1,2.094-.734,4.884,4.884,0,0,1,1.008.134l-.172,1.187a4.637,4.637,0,0,0-.758-.094,1.614,1.614,0,0,0-1.191.456,2.073,2.073,0,0,0-.566,1.211l-.125.833h1.75l-.2,1.117h-1.75L314.4,65Zm8.25.156a3.048,3.048,0,0,1-2.469-1.164,4.006,4.006,0,0,1-.75-2.9l.039-.336a5.624,5.624,0,0,1,.746-2.3,4.339,4.339,0,0,1,1.5-1.566,3.491,3.491,0,0,1,1.906-.5,2.688,2.688,0,0,1,2.047.867,3.566,3.566,0,0,1,.813,2.266,6.619,6.619,0,0,1-.031,1.016l-.086.648h-5.523a2.856,2.856,0,0,0,.379,1.953,1.8,1.8,0,0,0,1.551.836,3.007,3.007,0,0,0,2.313-1.125l.813.688a3.718,3.718,0,0,1-1.371,1.2A3.886,3.886,0,0,1,321.234,65.156Zm.9-7.586a2.066,2.066,0,0,0-1.527.594A4.22,4.22,0,0,0,319.57,60l4.109.008.031-.125a2.313,2.313,0,0,0-.316-1.637A1.488,1.488,0,0,0,322.133,57.57Zm7.313,6.414a2.145,2.145,0,0,0,1.367-.441,2.1,2.1,0,0,0,.8-1.2l1.336-.008a3.014,3.014,0,0,1-.637,1.453,3.68,3.68,0,0,1-2.926,1.367,3.017,3.017,0,0,1-1.785-.551,3.084,3.084,0,0,1-1.074-1.492,4.972,4.972,0,0,1-.234-2.152l.039-.391a5.605,5.605,0,0,1,.711-2.18,4.11,4.11,0,0,1,1.469-1.5,3.648,3.648,0,0,1,2-.5,2.857,2.857,0,0,1,2.125.891,3.08,3.08,0,0,1,.8,2.18l-1.32-.008a2.029,2.029,0,0,0-.461-1.34,1.607,1.607,0,0,0-1.2-.543,2.254,2.254,0,0,0-1.832.82,4.3,4.3,0,0,0-.91,2.359l-.023.2a6.775,6.775,0,0,0-.016,1.031,2.355,2.355,0,0,0,.516,1.445A1.656,1.656,0,0,0,329.445,63.984Zm8.367-9.484-.359,2.047h1.539l-.2,1.117h-1.531l-.883,5.258a1.834,1.834,0,0,0-.008.375.6.6,0,0,0,.664.609,4.05,4.05,0,0,0,.688-.078l-.109,1.18a3.847,3.847,0,0,1-1.031.141,1.476,1.476,0,0,1-1.266-.621,2.4,2.4,0,0,1-.328-1.629l.859-5.234h-1.492l.2-1.117h1.492l.359-2.047ZM292.035,66h46.949v1H292.035Zm46.949,0h3.922v1h-3.922Zm4.852-1,1.281-7.336h-1.3l.2-1.117h1.3l.141-1a3.318,3.318,0,0,1,.984-1.992,2.926,2.926,0,0,1,2.094-.734,4.884,4.884,0,0,1,1.008.134l-.172,1.187a4.637,4.637,0,0,0-.758-.094,1.614,1.614,0,0,0-1.191.456,2.073,2.073,0,0,0-.566,1.211l-.125.833h1.75l-.2,1.117h-1.75L345.25,65Zm9.477-8.609a3.047,3.047,0,0,1,1.82.578,3.285,3.285,0,0,1,1.121,1.551,4.8,4.8,0,0,1,.246,2.16l-.016.172a5.685,5.685,0,0,1-.734,2.23,4.309,4.309,0,0,1-1.516,1.551,3.7,3.7,0,0,1-2.039.523,3.052,3.052,0,0,1-1.816-.578,3.21,3.21,0,0,1-1.113-1.531,4.931,4.931,0,0,1-.25-2.133,5.76,5.76,0,0,1,.711-2.359,4.409,4.409,0,0,1,1.527-1.621A3.652,3.652,0,0,1,353.313,56.391Zm-2.875,4.531a4.8,4.8,0,0,0,0,1.023,2.507,2.507,0,0,0,.551,1.469,1.653,1.653,0,0,0,1.262.57,2.253,2.253,0,0,0,1.3-.348,2.919,2.919,0,0,0,1-1.121,4.721,4.721,0,0,0,.523-1.664,7.5,7.5,0,0,0,.023-1.211,2.6,2.6,0,0,0-.57-1.492,1.69,1.69,0,0,0-1.266-.578,2.3,2.3,0,0,0-1.859.859,4.245,4.245,0,0,0-.945,2.313ZM362.8,57.836l-.664-.07A2.42,2.42,0,0,0,360,58.992L358.961,65h-1.414l1.469-8.453,1.367-.008-.211.984a2.527,2.527,0,0,1,2.117-1.148,2.594,2.594,0,0,1,.672.117Zm7.727-3.336-.359,2.047h1.539l-.2,1.117h-1.531l-.883,5.258a1.834,1.834,0,0,0-.008.375.6.6,0,0,0,.664.609,4.05,4.05,0,0,0,.688-.078l-.109,1.18a3.847,3.847,0,0,1-1.031.141,1.476,1.476,0,0,1-1.266-.621,2.4,2.4,0,0,1-.328-1.629l.859-5.234h-1.492l.2-1.117h1.492l.359-2.047Zm4.055,3.078a3.275,3.275,0,0,1,2.555-1.18,2.058,2.058,0,0,1,1.762.816,3.217,3.217,0,0,1,.426,2.246L378.406,65h-1.414l.93-5.562a2.969,2.969,0,0,0,.008-.711,1.168,1.168,0,0,0-1.289-1.117,2.6,2.6,0,0,0-2.234,1.359L373.359,65h-1.414l2.086-12h1.414Zm9.641,7.578a3.048,3.048,0,0,1-2.469-1.164,4.006,4.006,0,0,1-.75-2.9l.039-.336a5.624,5.624,0,0,1,.746-2.3,4.339,4.339,0,0,1,1.5-1.566,3.491,3.491,0,0,1,1.906-.5,2.688,2.688,0,0,1,2.047.867,3.566,3.566,0,0,1,.813,2.266,6.619,6.619,0,0,1-.031,1.016l-.086.648h-5.523a2.856,2.856,0,0,0,.379,1.953,1.8,1.8,0,0,0,1.551.836,3.007,3.007,0,0,0,2.313-1.125l.813.688a3.718,3.718,0,0,1-1.371,1.2A3.886,3.886,0,0,1,384.227,65.156Zm.9-7.586a2.066,2.066,0,0,0-1.527.594A4.22,4.22,0,0,0,382.563,60l4.109.008.031-.125a2.313,2.313,0,0,0-.316-1.637A1.488,1.488,0,0,0,385.125,57.57Zm12.922.266-.664-.07a2.42,2.42,0,0,0-2.141,1.227L394.2,65h-1.414l1.469-8.453,1.367-.008-.211.984a2.527,2.527,0,0,1,2.117-1.148,2.594,2.594,0,0,1,.672.117Zm4.609-1.445a3.047,3.047,0,0,1,1.82.578A3.285,3.285,0,0,1,405.6,58.52a4.8,4.8,0,0,1,.246,2.16l-.016.172a5.685,5.685,0,0,1-.734,2.23,4.309,4.309,0,0,1-1.516,1.551,3.7,3.7,0,0,1-2.039.523,3.052,3.052,0,0,1-1.816-.578,3.21,3.21,0,0,1-1.113-1.531,4.931,4.931,0,0,1-.25-2.133,5.76,5.76,0,0,1,.711-2.359,4.409,4.409,0,0,1,1.527-1.621A3.652,3.652,0,0,1,402.656,56.391Zm-2.875,4.531a4.8,4.8,0,0,0,0,1.023,2.507,2.507,0,0,0,.551,1.469,1.653,1.653,0,0,0,1.262.57,2.253,2.253,0,0,0,1.3-.348,2.919,2.919,0,0,0,1-1.121,4.721,4.721,0,0,0,.523-1.664,7.5,7.5,0,0,0,.023-1.211,2.6,2.6,0,0,0-.57-1.492,1.69,1.69,0,0,0-1.266-.578,2.3,2.3,0,0,0-1.859.859,4.245,4.245,0,0,0-.945,2.313ZM408.422,65h-1.406l2.078-12h1.414Zm5.969.156a3.048,3.048,0,0,1-2.469-1.164,4.006,4.006,0,0,1-.75-2.9l.039-.336a5.624,5.624,0,0,1,.746-2.3,4.339,4.339,0,0,1,1.5-1.566,3.491,3.491,0,0,1,1.906-.5,2.688,2.688,0,0,1,2.047.867,3.566,3.566,0,0,1,.813,2.266,6.619,6.619,0,0,1-.031,1.016l-.086.648h-5.523a2.856,2.856,0,0,0,.379,1.953,1.8,1.8,0,0,0,1.551.836,3.007,3.007,0,0,0,2.313-1.125l.813.688a3.718,3.718,0,0,1-1.371,1.2A3.886,3.886,0,0,1,414.391,65.156Zm.9-7.586a2.066,2.066,0,0,0-1.527.594A4.22,4.22,0,0,0,412.727,60l4.109.008.031-.125a2.313,2.313,0,0,0-.316-1.637A1.488,1.488,0,0,0,415.289,57.57Zm4.781,5.789a.846.846,0,0,1,.633.234.807.807,0,0,1,.242.625.844.844,0,0,1-.258.621.929.929,0,0,1-.625.254.788.788,0,0,1-.859-.828.874.874,0,0,1,.867-.906Z" transform="translate(159 -10534.832)" fill="#12263f"/>
    <path id="Path_184734" data-name="Path 184734" d="M4,0H73a4,4,0,0,1,4,4V18a4,4,0,0,1-4,4H4a4,4,0,0,1-4-4V4A4,4,0,0,1,4,0Z" transform="translate(479.5 -10462.662)" fill="#e1e8ff"/>
    <path id="Path_184735" data-name="Path 184735" d="M6.852,14.656H2.883L1.711,17H-.812L5.266,5.625H7.383L9.547,17H7.211Zm-3.031-1.9H6.563L5.922,8.523ZM14.742,8.383a2.4,2.4,0,0,1,1.906.945L17.477,5h2.211L17.609,17H15.641l.125-.906a2.736,2.736,0,0,1-2.2,1.07,2.433,2.433,0,0,1-1.383-.414,2.607,2.607,0,0,1-.918-1.168,4.7,4.7,0,0,1-.355-1.7,6.4,6.4,0,0,1,.023-.953l.047-.352A6.767,6.767,0,0,1,11.7,10.3a3.766,3.766,0,0,1,1.313-1.461A3.094,3.094,0,0,1,14.742,8.383Zm-1.6,4.547a6.327,6.327,0,0,0-.039,1q.078,1.375,1.109,1.4a1.885,1.885,0,0,0,1.617-.875l.6-3.359a1.248,1.248,0,0,0-1.219-.875,1.606,1.606,0,0,0-1.34.621A4.176,4.176,0,0,0,13.141,12.93ZM23.172,8.547l-1.516,8.914a3.516,3.516,0,0,1-1.02,2.2,2.984,2.984,0,0,1-2.168.773,6.8,6.8,0,0,1-1.172-.148l.18-1.8a4.309,4.309,0,0,0,.68.1,1.2,1.2,0,0,0,1.266-1.125l1.531-8.922ZM21.164,6.4a1.1,1.1,0,0,1,.328-.855,1.328,1.328,0,0,1,1.77-.035,1.108,1.108,0,0,1,.363.813,1.113,1.113,0,0,1-.328.863,1.257,1.257,0,0,1-.883.355,1.235,1.235,0,0,1-.863-.3A1.091,1.091,0,0,1,21.164,6.4Zm6.328,10.758a3.677,3.677,0,0,1-1.965-.543,3.292,3.292,0,0,1-1.277-1.469,4.093,4.093,0,0,1-.328-2.059l.023-.312a5.465,5.465,0,0,1,.719-2.266,4.341,4.341,0,0,1,1.547-1.59A3.827,3.827,0,0,1,28.3,8.391a2.924,2.924,0,0,1,2.473,1.2,4.117,4.117,0,0,1,.637,2.962l-.125.962h-5.18a1.814,1.814,0,0,0,.4,1.313,1.521,1.521,0,0,0,1.172.508,2.7,2.7,0,0,0,2.109-.937l1.008,1.25a3.135,3.135,0,0,1-1.375,1.121A4.5,4.5,0,0,1,27.492,17.156Zm.7-6.945a1.565,1.565,0,0,0-1.082.383,3.363,3.363,0,0,0-.848,1.383H29.3l.047-.2a2.071,2.071,0,0,0,.008-.594,1.134,1.134,0,0,0-.383-.707A1.2,1.2,0,0,0,28.2,10.211Zm7.453,5.133a1.447,1.447,0,0,0,1.016-.332,1.632,1.632,0,0,0,.531-.926l2.07-.008a3.037,3.037,0,0,1-.559,1.6,3.394,3.394,0,0,1-1.344,1.109,3.847,3.847,0,0,1-1.77.375A3.123,3.123,0,0,1,33.156,16.1a3.965,3.965,0,0,1-.867-2.766l.023-.43.008-.086a5.284,5.284,0,0,1,1.391-3.27,3.761,3.761,0,0,1,2.914-1.16,3.047,3.047,0,0,1,2.27.934,3.3,3.3,0,0,1,.824,2.379H37.664a1.73,1.73,0,0,0-.3-1.07,1.128,1.128,0,0,0-.891-.422q-1.578-.047-1.914,2.3a7.782,7.782,0,0,0-.086,1.438Q34.555,15.32,35.648,15.344Zm8.938-8.875-.367,2.078h1.406L45.336,10.2H43.93l-.719,4.234a1.077,1.077,0,0,0,.063.609q.109.211.531.227.125.008.672-.039l-.156,1.727a3.706,3.706,0,0,1-1.266.18,1.985,1.985,0,0,1-1.617-.68,2.456,2.456,0,0,1-.437-1.8l.727-4.461h-1.2l.289-1.656h1.2l.359-2.078ZM47.766,17H45.547l1.469-8.453h2.219ZM47.273,6.4a1.1,1.1,0,0,1,.344-.867,1.323,1.323,0,0,1,1.734-.039,1.1,1.1,0,0,1,.383.828,1.132,1.132,0,0,1-.324.844,1.215,1.215,0,0,1-.887.375,1.235,1.235,0,0,1-.863-.3A1.091,1.091,0,0,1,47.273,6.4Zm5.914,7.813,2.406-5.664h2.375L53.883,17H51.773L50.328,8.547h2.234Zm8.383,2.945a3.677,3.677,0,0,1-1.965-.543,3.292,3.292,0,0,1-1.277-1.469A4.093,4.093,0,0,1,58,13.086l.023-.312a5.465,5.465,0,0,1,.719-2.266,4.341,4.341,0,0,1,1.547-1.59,3.827,3.827,0,0,1,2.094-.527,2.924,2.924,0,0,1,2.473,1.2,4.117,4.117,0,0,1,.637,2.962l-.125.962h-5.18a1.814,1.814,0,0,0,.4,1.313,1.521,1.521,0,0,0,1.172.508,2.7,2.7,0,0,0,2.109-.937l1.008,1.25A3.135,3.135,0,0,1,63.5,16.77,4.5,4.5,0,0,1,61.57,17.156Zm.7-6.945a1.565,1.565,0,0,0-1.082.383,3.363,3.363,0,0,0-.848,1.383h3.031l.047-.2a2.071,2.071,0,0,0,.008-.594,1.134,1.134,0,0,0-.383-.707A1.2,1.2,0,0,0,62.273,10.211ZM0,18H16.376v1H0Zm22.558,0H66v1H22.558Z" transform="translate(484.5 -10460.662)" fill="#3c3fa7"/>
    <path id="Path_181495" data-name="Path 181495" d="M-2325.514-10445.425h-7.7v-13.743" transform="translate(2803.5 -8.664)" fill="none" stroke="#3c3fa7" stroke-width="2"/>
    <path id="Path_184736" data-name="Path 184736" d="M4,0H126a4,4,0,0,1,4,4V18a4,4,0,0,1-4,4H4a4,4,0,0,1-4-4V4A4,4,0,0,1,4,0Z" transform="translate(290.5 -10512.662)" fill="#fff0f1"/>
    <path id="Path_184737" data-name="Path 184737" d="M6.852,14.656H2.883L1.711,17H-.812L5.266,5.625H7.383L9.547,17H7.211Zm-3.031-1.9H6.563L5.922,8.523ZM14.742,8.383a2.4,2.4,0,0,1,1.906.945L17.477,5h2.211L17.609,17H15.641l.125-.906a2.736,2.736,0,0,1-2.2,1.07,2.433,2.433,0,0,1-1.383-.414,2.607,2.607,0,0,1-.918-1.168,4.7,4.7,0,0,1-.355-1.7,6.4,6.4,0,0,1,.023-.953l.047-.352A6.767,6.767,0,0,1,11.7,10.3a3.766,3.766,0,0,1,1.313-1.461A3.094,3.094,0,0,1,14.742,8.383Zm-1.6,4.547a6.327,6.327,0,0,0-.039,1q.078,1.375,1.109,1.4a1.885,1.885,0,0,0,1.617-.875l.6-3.359a1.248,1.248,0,0,0-1.219-.875,1.606,1.606,0,0,0-1.34.621A4.176,4.176,0,0,0,13.141,12.93Zm9.781,1.281,2.406-5.664H27.7L23.617,17H21.508L20.063,8.547H22.3ZM31.3,17.156a3.677,3.677,0,0,1-1.965-.543,3.292,3.292,0,0,1-1.277-1.469,4.093,4.093,0,0,1-.328-2.059l.023-.312a5.465,5.465,0,0,1,.719-2.266,4.341,4.341,0,0,1,1.547-1.59,3.827,3.827,0,0,1,2.094-.527,2.924,2.924,0,0,1,2.473,1.2,4.117,4.117,0,0,1,.637,2.962l-.125.962h-5.18a1.814,1.814,0,0,0,.4,1.313,1.521,1.521,0,0,0,1.172.508A2.7,2.7,0,0,0,33.6,14.4l1.008,1.25a3.135,3.135,0,0,1-1.375,1.121A4.5,4.5,0,0,1,31.3,17.156Zm.7-6.945a1.565,1.565,0,0,0-1.082.383,3.363,3.363,0,0,0-.848,1.383h3.031l.047-.2a2.071,2.071,0,0,0,.008-.594,1.134,1.134,0,0,0-.383-.707A1.2,1.2,0,0,0,32.008,10.211Zm9.539.453a4.548,4.548,0,0,0-.742-.078,2.136,2.136,0,0,0-1.867.883L37.961,17h-2.2l1.469-8.453,2.07-.008-.2,1.031a2.325,2.325,0,0,1,1.969-1.2,3.214,3.214,0,0,1,.766.109ZM49.625,12.8A6.061,6.061,0,0,1,48.406,16a3.033,3.033,0,0,1-2.547,1.164,2.357,2.357,0,0,1-2.031-1.078l-.32.914H41.5L43.578,5h2.211l-.852,4.32A2.634,2.634,0,0,1,47,8.391a2.385,2.385,0,0,1,1.926.879,3.89,3.89,0,0,1,.746,2.387A9.132,9.132,0,0,1,49.625,12.8Zm-2.187-.165a6.554,6.554,0,0,0,.047-1.034q-.086-1.364-1.125-1.387a1.833,1.833,0,0,0-1.617.885l-.609,3.37a1.258,1.258,0,0,0,1.266.878q1.625.047,1.992-2.367ZM59.094,8.391a3.39,3.39,0,0,1,1.926.574A3.234,3.234,0,0,1,62.207,10.5a4.762,4.762,0,0,1,.27,2.176,5.143,5.143,0,0,1-1.4,3.262,3.96,3.96,0,0,1-3.02,1.215,3.38,3.38,0,0,1-1.906-.566,3.222,3.222,0,0,1-1.187-1.527,4.657,4.657,0,0,1-.273-2.156,5.3,5.3,0,0,1,1.422-3.328A3.878,3.878,0,0,1,59.094,8.391Zm-2.227,5.315a1.95,1.95,0,0,0,.352,1.182,1.168,1.168,0,0,0,.945.449,1.712,1.712,0,0,0,1.594-.932,4.647,4.647,0,0,0,.539-2.531,2.122,2.122,0,0,0-.363-1.2,1.149,1.149,0,0,0-.949-.464,1.715,1.715,0,0,0-1.574.924A4.6,4.6,0,0,0,56.867,13.706ZM63.7,17l1.18-6.8H63.664l.289-1.648,1.219-.008.109-.844a3.332,3.332,0,0,1,1.1-2.121,3.334,3.334,0,0,1,2.289-.754,7.33,7.33,0,0,1,1.2.163l-.2,1.751a2.732,2.732,0,0,0-.648-.094,1.615,1.615,0,0,0-1,.3,1.355,1.355,0,0,0-.52.918l-.117.69h1.633L68.727,10.2H67.1L65.922,17ZM76.891,8.383a2.4,2.4,0,0,1,1.906.945L79.625,5h2.211L79.758,17H77.789l.125-.906a2.736,2.736,0,0,1-2.2,1.07,2.433,2.433,0,0,1-1.383-.414,2.607,2.607,0,0,1-.918-1.168,4.7,4.7,0,0,1-.355-1.7,6.4,6.4,0,0,1,.023-.953l.047-.352a6.767,6.767,0,0,1,.723-2.281A3.766,3.766,0,0,1,75.16,8.836,3.094,3.094,0,0,1,76.891,8.383Zm-1.6,4.547a6.327,6.327,0,0,0-.039,1q.078,1.375,1.109,1.4a1.885,1.885,0,0,0,1.617-.875l.6-3.359a1.248,1.248,0,0,0-1.219-.875,1.606,1.606,0,0,0-1.34.621A4.176,4.176,0,0,0,75.289,12.93Zm10.242,4.227a3.677,3.677,0,0,1-1.965-.543,3.292,3.292,0,0,1-1.277-1.469,4.093,4.093,0,0,1-.328-2.059l.023-.312a5.465,5.465,0,0,1,.719-2.266,4.341,4.341,0,0,1,1.547-1.59,3.827,3.827,0,0,1,2.094-.527,2.924,2.924,0,0,1,2.473,1.2,4.117,4.117,0,0,1,.637,2.962l-.125.962h-5.18a1.814,1.814,0,0,0,.4,1.313,1.521,1.521,0,0,0,1.172.508,2.7,2.7,0,0,0,2.109-.937l1.008,1.25a3.135,3.135,0,0,1-1.375,1.121A4.5,4.5,0,0,1,85.531,17.156Zm.7-6.945a1.565,1.565,0,0,0-1.082.383,3.363,3.363,0,0,0-.848,1.383h3.031l.047-.2a2.071,2.071,0,0,0,.008-.594,1.134,1.134,0,0,0-.383-.707A1.2,1.2,0,0,0,86.234,10.211Zm4.172,2.555a5.849,5.849,0,0,1,1.277-3.184,3.242,3.242,0,0,1,2.629-1.2,2.37,2.37,0,0,1,2.016.977l.289-.82,2.023.008-1.383,8.164a3.983,3.983,0,0,1-1.437,2.672,4.471,4.471,0,0,1-3,.953,4.168,4.168,0,0,1-1.672-.379,3.575,3.575,0,0,1-1.312-1l1.094-1.344a2.349,2.349,0,0,0,1.844.961,2.166,2.166,0,0,0,1.469-.449,2.4,2.4,0,0,0,.828-1.355l.125-.508a2.749,2.749,0,0,1-2.07.891,2.428,2.428,0,0,1-1.961-.918,3.947,3.947,0,0,1-.8-2.348A7.89,7.89,0,0,1,90.406,12.766Zm2.164.927a2.02,2.02,0,0,0,.309,1.178,1.08,1.08,0,0,0,.895.466,1.972,1.972,0,0,0,1.594-.767l.656-3.583a1.3,1.3,0,0,0-1.242-.767,1.728,1.728,0,0,0-1.43.681,3.561,3.561,0,0,0-.734,1.87A8.213,8.213,0,0,0,92.57,13.693Zm12.141-3.029a4.548,4.548,0,0,0-.742-.078,2.136,2.136,0,0,0-1.867.883L101.125,17h-2.2l1.469-8.453,2.07-.008-.2,1.031a2.325,2.325,0,0,1,1.969-1.2,3.214,3.214,0,0,1,.766.109Zm3.969,6.492a3.677,3.677,0,0,1-1.965-.543,3.292,3.292,0,0,1-1.277-1.469,4.093,4.093,0,0,1-.328-2.059l.023-.312a5.465,5.465,0,0,1,.719-2.266,4.341,4.341,0,0,1,1.547-1.59,3.827,3.827,0,0,1,2.094-.527,2.924,2.924,0,0,1,2.473,1.2,4.117,4.117,0,0,1,.637,2.962l-.125.962H107.3a1.814,1.814,0,0,0,.4,1.313,1.521,1.521,0,0,0,1.172.508,2.7,2.7,0,0,0,2.109-.937l1.008,1.25a3.135,3.135,0,0,1-1.375,1.121A4.5,4.5,0,0,1,108.68,17.156Zm.7-6.945a1.565,1.565,0,0,0-1.082.383,3.363,3.363,0,0,0-.848,1.383h3.031l.047-.2a2.071,2.071,0,0,0,.008-.594,1.134,1.134,0,0,0-.383-.707A1.2,1.2,0,0,0,109.383,10.211Zm7.766,6.945a3.677,3.677,0,0,1-1.965-.543,3.292,3.292,0,0,1-1.277-1.469,4.093,4.093,0,0,1-.328-2.059l.023-.312a5.465,5.465,0,0,1,.719-2.266,4.341,4.341,0,0,1,1.547-1.59,3.827,3.827,0,0,1,2.094-.527,2.924,2.924,0,0,1,2.473,1.2,4.117,4.117,0,0,1,.637,2.962l-.125.962h-5.18a1.814,1.814,0,0,0,.4,1.313,1.521,1.521,0,0,0,1.172.508,2.7,2.7,0,0,0,2.109-.937l1.008,1.25a3.135,3.135,0,0,1-1.375,1.121A4.5,4.5,0,0,1,117.148,17.156Zm.7-6.945a1.565,1.565,0,0,0-1.082.383,3.363,3.363,0,0,0-.848,1.383h3.031l.047-.2a2.071,2.071,0,0,0,.008-.594,1.134,1.134,0,0,0-.383-.707A1.2,1.2,0,0,0,117.852,10.211ZM0,18H88.836v1H0Zm98.031,0h23.547v1H98.031Z" transform="translate(294.5 -10510.662)" fill="#fc5f65"/>
    <path id="Path_181496" data-name="Path 181496" d="M-2325.514-10442.155h-7.7v-17.013" transform="translate(-1905.014 -20943.488) rotate(180)" fill="none" stroke="#fc5f65" stroke-width="2"/>
    <g id="Path_184744" data-name="Path 184744" transform="translate(135 -10420.832)" fill="none">
      <path d="M10,0H472a10,10,0,0,1,10,10v97a10,10,0,0,1-10,10H10A10,10,0,0,1,0,107V10A10,10,0,0,1,10,0Z" stroke="none"/>
      <path d="M 10 1 C 5.037384033203125 1 1 5.037376403808594 1 10 L 1 107 C 1 111.9626235961914 5.037384033203125 116 10 116 L 472 116 C 476.9626159667969 116 481 111.9626235961914 481 107 L 481 10 C 481 5.037376403808594 476.9626159667969 1 472 1 L 10 1 M 10 0 L 472 0 C 477.5228881835938 0 482 4.477127075195312 482 10 L 482 107 C 482 112.5228729248047 477.5228881835938 117 472 117 L 10 117 C 4.47711181640625 117 0 112.5228729248047 0 107 L 0 10 C 0 4.477127075195312 4.47711181640625 0 10 0 Z" stroke="none" fill="#3c3fa7"/>
    </g>
    <g id="Path_184738" data-name="Path 184738" transform="translate(159 -10542.832)" fill="none">
      <path d="M10,0H425a10,10,0,0,1,10,10v91a10,10,0,0,1-10,10H10A10,10,0,0,1,0,101V10A10,10,0,0,1,10,0Z" stroke="none"/>
      <path d="M 10 1 C 5.037384033203125 1 1 5.037391662597656 1 10 L 1 101 C 1 105.9626083374023 5.037384033203125 110 10 110 L 425 110 C 429.9626159667969 110 434 105.9626083374023 434 101 L 434 10 C 434 5.037391662597656 429.9626159667969 1 425 1 L 10 1 M 10 0 L 425 0 C 430.5228271484375 0 435 4.477165222167969 435 10 L 435 101 C 435 106.522834777832 430.5228271484375 111 425 111 L 10 111 C 4.47711181640625 111 0 106.522834777832 0 101 L 0 10 C 0 4.477165222167969 4.47711181640625 0 10 0 Z" stroke="none" fill="#3c3fa7"/>
    </g>
  </g>
</svg>
