<svg xmlns="http://www.w3.org/2000/svg" xmlns:xlink="http://www.w3.org/1999/xlink" width="144" height="138" viewBox="0 0 144 138">
  <defs>
    <clipPath id="clip-path">
      <rect id="Rect치ngulo_44966" data-name="Rect치ngulo 44966" width="80.984" height="109.094" fill="none"/>
    </clipPath>
  </defs>
  <g id="_12" data-name="12" transform="translate(-698 -4474)">
    <g id="Grupo_165391" data-name="Grupo 165391" transform="translate(161 3186)">
      <rect id="Rect치ngulo_40797" data-name="Rect치ngulo 40797" width="144" height="138" transform="translate(537 1288)" fill="#ffe891"/>
    </g>
    <g id="Grupo_174273" data-name="Grupo 174273" transform="translate(729.508 4488.453)">
      <g id="Grupo_174273-2" data-name="Grupo 174273" transform="translate(0 0)" clip-path="url(#clip-path)">
        <path id="Trazado_179300" data-name="Trazado 179300" d="M56.9,109.094a5.519,5.519,0,0,1-3.614-4.226c-.431-1.605-.769-3.24-1.3-4.813C51.3,98,50.248,97.491,48.147,97.939c-2.249.479-4.482,1.089-6.825.747a5.737,5.737,0,0,1-4.9-3.706,1.273,1.273,0,0,0-.817-.859,4.194,4.194,0,0,1-2.8-3.331c-.073-.367-.087-.724-.574-.91a3.91,3.91,0,0,1-2.416-3.017,1.936,1.936,0,0,0-.958-1.307,38.8,38.8,0,0,0-8.916-3.9,1.138,1.138,0,0,0-1.251.256,3.757,3.757,0,0,1-4.25.636,11,11,0,0,1-2.852-1.821c-1.07-.875-2.131-1.762-3.221-2.612a5.125,5.125,0,0,0-2.806-1.148,4.651,4.651,0,0,1-2.736-1.514A8.7,8.7,0,0,1,.154,71.56,2.784,2.784,0,0,1,.5,69.017a2.717,2.717,0,0,0,.558-2.031,3.359,3.359,0,0,1,2.173-3.438,7.586,7.586,0,0,1,2.992-.657,2.656,2.656,0,0,0,2.3-1.293,9.28,9.28,0,0,0,1.556-6.257c-.159-1.707.106-2.164,1.645-2.93a2.871,2.871,0,0,1,1.857-.273q28.86-.011,57.719.026a2.575,2.575,0,0,0,2.823-1.65c.324-.779.82-1.493,1.138-2.284.666-1.655.181-2.676-1.551-3.151a20.909,20.909,0,0,0-4.223-.425c-1.03-.065-2.048-.184-3.067-.319a4.958,4.958,0,0,1-3.659-2.308,19.147,19.147,0,0,0-1.3-1.689,6.252,6.252,0,0,0-4.288-2.31A33.519,33.519,0,0,1,48.853,36.3c-2.807-1.077-4.916-2.811-5.544-5.932a10.837,10.837,0,0,1-.125-2.122A2.354,2.354,0,0,0,42.073,26.2c-2.968-2.081-3.826-4.7-2.665-8.158a17.52,17.52,0,0,1,5.682-7.7,16.567,16.567,0,0,1,7.39-3.829c.779-.161.644-.533.225-.923a3.741,3.741,0,0,0-3.768-.836A10.84,10.84,0,0,0,44.3,7.276a19.669,19.669,0,0,1-7.49,4.125c-2.013.7-4.064,1.27-6.106,1.875a2.4,2.4,0,0,0-1.767,1.772,16.993,16.993,0,0,1-4.18,7.2,2.453,2.453,0,0,1-.993.786,4.5,4.5,0,0,0-2.609,2.324,7.4,7.4,0,0,1-5.367,3.473,3.452,3.452,0,0,0-2.32,1.378,6.369,6.369,0,0,0-1.514,4.735,2.053,2.053,0,0,1-1.735,2.467c-1.732.229-2.578-.43-2.8-2.181-.587-4.594,2.809-10.018,6.974-10.741a4.869,4.869,0,0,0,3.749-2.883,14.225,14.225,0,0,1,.746-1.284c.4-.606.931-1.284,1.622-1.273,1.434.023,1.911-.986,2.511-1.92a11.887,11.887,0,0,0,1.593-3.574,6.041,6.041,0,0,1,4.73-4.634,75.6,75.6,0,0,0,7.775-2.5A13.323,13.323,0,0,0,41.1,4.03,15.534,15.534,0,0,1,48.976.1,7.8,7.8,0,0,1,57.858,5.79c.568,2.478-.732,4.689-3.156,4.988-4.547.56-7.54,3.3-10.045,6.812A7.033,7.033,0,0,0,43.547,20.1a1.789,1.789,0,0,0,.934,2.247c2.314,1.142,3.126,3.135,3.228,5.566.119,2.855.491,3.336,3.178,4.279a23.391,23.391,0,0,0,6.137,1.21A11.391,11.391,0,0,1,66,38.753a2.489,2.489,0,0,0,2.043,1.232c2.05.153,4.112.174,6.148.508,3.9.64,6.246,3.411,5.911,7.029a9.1,9.1,0,0,1-1.67,4.54,3.245,3.245,0,0,0-.215,3.731,13.6,13.6,0,0,1,1.1,2.977,4.049,4.049,0,0,1-.476,3.266,1.429,1.429,0,0,0-.042,1.4c.618,1.806,1.514,3.5,1.984,5.37,1.239,4.917-3.53,7.168-6.693,6.041A19.537,19.537,0,0,1,70.2,72.69a4.831,4.831,0,0,0-1.815-.85c-.6-.092-.955-.01-.665.791A7.712,7.712,0,0,1,68.262,77a4.66,4.66,0,0,1-3.343,3.76c-.27.083-.542.162-.813.245-.858.266-1.125.766-.692,1.608A14.363,14.363,0,0,1,64.88,86.7a7.934,7.934,0,0,1-.292,4.605,16.69,16.69,0,0,0-.986,8.252,18.029,18.029,0,0,1-.03,4.248,5.566,5.566,0,0,1-4.519,5.114c-.087.02-.157.118-.234.18Z" transform="translate(0 0)"/>
        <path id="Trazado_179301" data-name="Trazado 179301" d="M11.08,37.773A2.3,2.3,0,0,0,12.5,35.12a6.619,6.619,0,0,1,2.672-5.735,1.931,1.931,0,0,1,1.065-.447c2.883-.2,4.72-1.919,6.1-4.247a2.3,2.3,0,0,1,1.522-1.274,4.584,4.584,0,0,0,2.376-1.882,17.731,17.731,0,0,0,3.342-6.472A2.151,2.151,0,0,1,31.268,13.4a68.778,68.778,0,0,0,9.749-3.3,13.44,13.44,0,0,0,3.364-2.2,12.6,12.6,0,0,1,5.587-3.156c2.11-.469,3.863.389,4.461,2.132a19.367,19.367,0,0,0-13.294,10.2A8.554,8.554,0,0,0,40.121,20.3a5.711,5.711,0,0,0,3.062,6.046,1.92,1.92,0,0,1,1.105,1.775,21.663,21.663,0,0,0,.121,2.231c.44,3.244,2.576,4.977,5.448,6.05a29.1,29.1,0,0,0,7.783,1.617,6.64,6.64,0,0,1,5.519,3.311c1.458,2.559,3.7,3.206,6.325,3.335a32.783,32.783,0,0,1,4.978.433c2.121.433,2.674,1.5,1.962,3.559-.48,1.388-1.474,2.5-2,3.861-.1.262-.291.265-.506.264-.248,0-.5,0-.745,0H13.214c-.212,0-.425-.01-.637-.016l.241-5.279c.173-.3.5-.375.784-.508a1.691,1.691,0,0,0,1.067-1.672A1.726,1.726,0,0,0,13.488,43.6c-.257-.1-.549-.161-.7-.44a14.521,14.521,0,0,0-.956-4.281,2.246,2.246,0,0,0-.753-1.109" transform="translate(-0.859 -0.358)" fill="#fec044"/>
        <path id="Trazado_179302" data-name="Trazado 179302" d="M12.76,46.4c1.453.242,2.163.921,2.192,2.092.03,1.231-.655,1.937-2.163,2.234-1.383-.366-2.061-1.071-2.07-2.153s.675-1.812,2.041-2.173" transform="translate(-0.831 -3.597)" fill="#010101"/>
        <path id="Trazado_179303" data-name="Trazado 179303" d="M44.728,61.45c9.511,0,19.022.011,28.533-.019.827,0,1.343.153,1.542,1.016a6.176,6.176,0,0,0,.493,1.172,1.463,1.463,0,0,1-.085,1.566,4.674,4.674,0,0,0-.1,4.207c.557,1.6,1.211,3.172,1.794,4.766.149.408.45.9-.029,1.266a1.254,1.254,0,0,1-1.416,0c-1.074-.618-2.109-1.3-3.174-1.936-1.992-1.185-4.055-1.654-6.266-.589a3.71,3.71,0,0,0-2.258,4.783c.2.789.482,1.556.687,2.343s.033,1.377-.886,1.6a5.277,5.277,0,0,0-2.769,1.488,1.147,1.147,0,0,1-.978.277q-17.3,0-34.6.01a5.629,5.629,0,0,1-1.833-.485A22.422,22.422,0,0,0,20,82a3.1,3.1,0,0,0-3.358,1.013c-.338.459-.6.215-.866,0-1.138-.9-2.26-1.83-3.4-2.735a11.142,11.142,0,0,0-5.431-2.735c-.9-.121-1.358-.967-1.891-1.618-.217-.266.092-.439.216-.631A3.342,3.342,0,0,0,5.82,72.76c-.124-.588.1-.814.607-.82a6.787,6.787,0,0,0,5.365-2.374A12.115,12.115,0,0,0,14.65,62.6c.087-1.006.43-1.172,1.331-1.169,9.582.03,19.164.018,28.746.018" transform="translate(-0.386 -4.762)" fill="#60a3fe"/>
        <path id="Trazado_179304" data-name="Trazado 179304" d="M35.171,89.856h1.086c8.163,0,16.326.009,24.489-.016.7,0,1.089.122,1.271.871a10.728,10.728,0,0,0,.779,1.742A6.327,6.327,0,0,1,63,97.8c-1.222,2.825-1.136,5.811-.934,8.8a14.49,14.49,0,0,1-.041,3.817,1.777,1.777,0,0,1-.348.877c-.589.672-1.186.58-1.428-.27-.446-1.566-.8-3.158-1.255-4.721-1.355-4.661-4.734-6.607-9.457-5.477a22.985,22.985,0,0,1-3.872.669c-1.771.113-2.377-.3-2.79-2.008a2.818,2.818,0,0,0-2.356-2.166A1.027,1.027,0,0,1,39.6,96.15c-.035-1.925-.577-2.615-2.384-3.106-.406-.11-.608-.268-.653-.686a4.03,4.03,0,0,0-1.391-2.5" transform="translate(-2.726 -6.965)" fill="#fe5a58"/>
      </g>
    </g>
  </g>
</svg>
