<svg xmlns="http://www.w3.org/2000/svg" xmlns:xlink="http://www.w3.org/1999/xlink" width="144" height="138" viewBox="0 0 144 138">
  <defs>
    <clipPath id="clip-path">
      <rect id="Rect치ngulo_44967" data-name="Rect치ngulo 44967" width="90.247" height="94.142" fill="none"/>
    </clipPath>
  </defs>
  <g id="_13" data-name="13" transform="translate(-698 -4474.297)">
    <g id="Grupo_165391" data-name="Grupo 165391" transform="translate(161 3186.297)">
      <rect id="Rect치ngulo_40797" data-name="Rect치ngulo 40797" width="144" height="138" transform="translate(537 1288)" fill="#ffe891"/>
    </g>
    <g id="Grupo_174277" data-name="Grupo 174277" transform="translate(725 4496.297)">
      <g id="Grupo_174277-2" data-name="Grupo 174277" clip-path="url(#clip-path)">
        <path id="Trazado_179305" data-name="Trazado 179305" d="M66.671,10.889c.879-.781,1.3-.833,2.273-.211,11.272,7.222,18.4,17.39,20.583,30.577,2.738,16.566-2.366,30.691-14.843,41.927A42.775,42.775,0,0,1,50.623,93.79a44.438,44.438,0,0,1-33.695-9.529c-1.023-.8-1.108-1.156-.637-2.356a1.659,1.659,0,0,1,2.379.21,6.677,6.677,0,0,0,.647.51A35.454,35.454,0,0,0,26.9,87.192v-.007c.074.161.223.182.374.2a34.994,34.994,0,0,0,8.016,2.843,41.054,41.054,0,0,0,9.975,1.166c.124-.32-.041-.53-.121-.754-.958-2.719-.36-5.224,1.9-6.779a2.363,2.363,0,0,0,1.032-1.774c.153-1.664.084-3.257-1.4-4.416a8.689,8.689,0,0,1-.883-.934c-2.5-2.651-2.7-4.954-.685-8a2.768,2.768,0,0,0-1.542-4.5c-1.741-.582-3.477-1.181-5.237-1.7a5,5,0,0,1-3.12-2.507c-1.232-2.222-2.531-4.407-3.825-6.594-.566-.955-1.4-.961-2.026-.042-.293.43-.542.889-.823,1.327a3.835,3.835,0,0,1-7-3.045c.689-2.7,1.4-5.39,2.1-8.084A4,4,0,0,1,25.81,40.9c1.313-.658,2.616-1.337,3.919-2.015,1-.52,1.174-1.06.7-2.088a3.792,3.792,0,0,0-3.361-2.041,13.6,13.6,0,0,1-6.2-2.1c-.879-.605-1.839-1.1-2.762-1.637-.461-.3-.9-.632-1.387-.886a9.971,9.971,0,0,1-5.436-6.257c-.01-.038-.081-.058-.158-.109-.1.115-.2.222-.289.344a42.3,42.3,0,0,0,3.224,53.717,1.665,1.665,0,0,1,.292,2.3c-1.18.562-1.5.5-2.389-.482C3.229,69.972-.877,58.594.156,45.627,1.324,30.971,8.26,19.5,20.437,11.242A2.065,2.065,0,0,0,21.5,9.629,10.816,10.816,0,0,1,30.412.162c.067-.009.121-.106.182-.162H33.72c.315.36.781.223,1.169.328A9.906,9.906,0,0,1,39.879,3.25a2.262,2.262,0,0,0,2.148.771A43.778,43.778,0,0,1,62.8,7.478c1.244.526,1.384.77,1.262,2.08a1.628,1.628,0,0,1-2.252.506,36,36,0,0,0-5.263-1.869A43.262,43.262,0,0,0,43.2,6.661c-.7.026-.948.155-.671.951a11.945,11.945,0,0,1,.121,6.7,26.27,26.27,0,0,1-6.2,11.3c-2.567,2.973-5.775,3-8.423.092a43.761,43.761,0,0,1-3.3-4.395,24.533,24.533,0,0,1-2.967-7.053c-.139-.666-.478-.262-.712-.1a40.709,40.709,0,0,0-7.3,6.383c-.18.2-.389.386-.3.716.512,1.991.985,4.011,2.8,5.3a25.906,25.906,0,0,0,3.284,1.986,18.1,18.1,0,0,0,8.757,3.681,5.675,5.675,0,0,1,4.879,3.946,3.854,3.854,0,0,1-1.929,5.05c-1.187.634-2.373,1.278-3.6,1.838a2.324,2.324,0,0,0-1.515,1.887,22.741,22.741,0,0,1-.6,2.307c-.452,1.716-.909,3.43-1.347,5.148a1.089,1.089,0,1,0,1.995.873c.219-.368.45-.73.677-1.093,1.885-3.023,5.247-2.981,7.045.093,1.268,2.167,2.538,4.331,3.78,6.512a2.129,2.129,0,0,0,1.3,1.059c1.983.623,3.97,1.244,5.917,1.966a5.251,5.251,0,0,1,3.607,4.952,5.866,5.866,0,0,1-1.251,3.757c-1.087,1.571-.974,2.708.334,4.116a12.091,12.091,0,0,0,.89.93,7.047,7.047,0,0,1,2.4,6.343,5.112,5.112,0,0,1-1.911,3.919c-1.6,1.18-1.854,2.437-.986,4.523a1.214,1.214,0,0,0,1.51.862,42.546,42.546,0,0,0,21.171-8.36,41.987,41.987,0,0,0,11.763-13.7c.169-.31.533-.623.02-1.009-1.88-1.416-3.739-2.861-5.582-4.277-.247.118-.263.314-.328.483a29.059,29.059,0,0,1-5.867,9.146,4.885,4.885,0,0,1-7.335.185c-3.789-4.094-6.733-8.651-7.212-14.416-.04-.48-.166-.6-.678-.478a3.892,3.892,0,0,1-3.327-.592c-1.1-.786-2.205-1.552-3.271-2.376a3.9,3.9,0,0,1-.815-5.55,33.052,33.052,0,0,1,2.042-2.717,14.933,14.933,0,0,0,3.418-7.473,9.027,9.027,0,0,1,7.18-7.6,8.707,8.707,0,0,1,3.193-.15,3.174,3.174,0,0,0,3.595-1.92c.423-.915.926-1.8,1.428-2.671a5.423,5.423,0,0,1,4.255-2.859,3.291,3.291,0,0,0,2.693-1.8,14.164,14.164,0,0,1,.794-1.446c.316-.44.236-.7-.112-1.084a43.229,43.229,0,0,0-8.931-7.462c-1.084-.684-1.22-1.03-.909-2.185m1.073,39.332a8.008,8.008,0,0,0-8.87,8.541c.278,5.316,3.143,9.419,6.623,13.149a2.044,2.044,0,0,0,2.979-.142,11.746,11.746,0,0,0,1.7-2.039,22.65,22.65,0,0,0,3.819-6.523,13.472,13.472,0,0,0,.937-5.741,8.012,8.012,0,0,0-7.183-7.245M35.4,22.453a20,20,0,0,0,4.833-10.576A8.077,8.077,0,0,0,33.01,2.831c-5.235-.6-9.636,4.232-8.779,9.622.752,4.73,3.27,8.511,6.406,11.949a2.152,2.152,0,0,0,3.2-.037A9.734,9.734,0,0,0,35.4,22.453m43.457.932c-.162.251-.313.444-.422.658a5.953,5.953,0,0,1-5.066,3.578A2.63,2.63,0,0,0,71.276,29.1c-.6,1.1-1.175,2.217-1.807,3.3a5.188,5.188,0,0,1-3.9,2.6c-1.079.168-2.141-.072-3.2.007a6.585,6.585,0,0,0-6.207,5.653c-.481,2.439-.958,4.857-2.616,6.861-1.111,1.343-2.119,2.773-3.153,4.179a1.235,1.235,0,0,0,.156,1.933c1.022.779,2.057,1.544,3.127,2.257a2.206,2.206,0,0,0,2.979-1.044,10.963,10.963,0,0,1,2.543-4.207,10.739,10.739,0,0,1,12.432-2.18A10.934,10.934,0,0,1,77.6,60.039a1.159,1.159,0,0,0,.5,1.307c1.77,1.315,3.526,2.649,5.241,4.034.6.486.762.338,1.017-.3a42.158,42.158,0,0,0,.89-29.628,40.984,40.984,0,0,0-6.393-12.064" transform="translate(0)" fill="#020303"/>
        <path id="Trazado_179306" data-name="Trazado 179306" d="M32.069,23.8a43.746,43.746,0,0,0,3.3,4.395c2.649,2.9,5.856,2.882,8.423-.092a26.266,26.266,0,0,0,6.2-11.3,11.941,11.941,0,0,0-.121-6.7c-.278-.8-.031-.924.671-.951a43.257,43.257,0,0,1,13.345,1.533,36,36,0,0,1,5.263,1.869A1.629,1.629,0,0,0,71.4,12.05l2.611,1.331c-.311,1.156-.175,1.5.91,2.185a43.21,43.21,0,0,1,8.931,7.462c.349.382.428.644.111,1.084a14.017,14.017,0,0,0-.793,1.446,3.294,3.294,0,0,1-2.693,1.8,5.425,5.425,0,0,0-4.256,2.86c-.5.875-1,1.755-1.427,2.67a3.174,3.174,0,0,1-3.595,1.92,8.744,8.744,0,0,0-3.193.15,9.026,9.026,0,0,0-7.179,7.6,14.938,14.938,0,0,1-3.419,7.473,33.215,33.215,0,0,0-2.042,2.717,3.9,3.9,0,0,0,.815,5.55c1.066.823,2.176,1.59,3.271,2.376a3.894,3.894,0,0,0,3.329.592c.512-.126.637,0,.677.478.479,5.765,3.423,10.322,7.211,14.416a4.886,4.886,0,0,0,7.336-.185,29.046,29.046,0,0,0,5.867-9.146c.065-.169.082-.364.328-.483,1.845,1.416,3.7,2.861,5.582,4.277.514.387.149.7-.02,1.009A41.986,41.986,0,0,1,78,85.335,42.553,42.553,0,0,1,56.832,93.7a1.214,1.214,0,0,1-1.51-.862c-.868-2.085-.617-3.343.986-4.523a5.115,5.115,0,0,0,1.911-3.919,7.047,7.047,0,0,0-2.4-6.343,12.089,12.089,0,0,1-.89-.93c-1.308-1.408-1.42-2.545-.334-4.115a5.876,5.876,0,0,0,1.252-3.757,5.251,5.251,0,0,0-3.608-4.952c-1.948-.722-3.935-1.343-5.918-1.966a2.131,2.131,0,0,1-1.3-1.059c-1.241-2.181-2.512-4.345-3.779-6.511-1.8-3.074-5.16-3.117-7.046-.094-.227.364-.457.725-.677,1.093a1.088,1.088,0,1,1-1.994-.873c.439-1.719.9-3.433,1.347-5.148a22.559,22.559,0,0,0,.6-2.308,2.326,2.326,0,0,1,1.515-1.887c1.223-.56,2.409-1.2,3.6-1.838a3.854,3.854,0,0,0,1.929-5.05,5.676,5.676,0,0,0-4.88-3.946,18.107,18.107,0,0,1-8.756-3.681A25.207,25.207,0,0,1,29.566,26.8a13.707,13.707,0,0,1,2.5-3" transform="translate(-7.344 -2.492)" fill="#70d3b3"/>
        <path id="Trazado_179307" data-name="Trazado 179307" d="M27.94,96.127a35.449,35.449,0,0,1-7.583-4.567,6.589,6.589,0,0,1-.648-.509,1.659,1.659,0,0,0-2.379-.211A13.385,13.385,0,0,1,15.4,89.06a1.666,1.666,0,0,0-.293-2.3A42.426,42.426,0,0,1,11.88,33.046c.087-.121.192-.229.289-.344.076.051.148.072.158.109a9.97,9.97,0,0,0,5.436,6.257c.484.254.926.589,1.387.886-.822,1.641-1.511,3.337-2.169,5.05A49.055,49.055,0,0,0,14,60.18a45.85,45.85,0,0,0,.321,7.125,45.666,45.666,0,0,0,2.1,9.713A47.247,47.247,0,0,0,27.487,95.371c.209.214.488.392.453.756" transform="translate(-1.039 -8.935)" fill="#3859c3"/>
        <path id="Trazado_179308" data-name="Trazado 179308" d="M31.758,98.853c.036-.363-.244-.541-.453-.756A47.247,47.247,0,0,1,20.238,79.744a45.666,45.666,0,0,1-2.1-9.713,45.849,45.849,0,0,1-.321-7.125A49.055,49.055,0,0,1,20.8,47.73c.658-1.714,1.347-3.409,2.169-5.05.923.542,1.882,1.031,2.761,1.637a13.583,13.583,0,0,0,6.2,2.1,3.791,3.791,0,0,1,3.361,2.041c.476,1.028.3,1.568-.7,2.089-1.3.677-2.606,1.357-3.919,2.015a4,4,0,0,0-2.185,2.689c-.7,2.694-1.406,5.387-2.1,8.084a3.835,3.835,0,0,0,7,3.045c.281-.438.531-.9.823-1.327.624-.918,1.46-.913,2.026.042,1.294,2.187,2.593,4.372,3.826,6.594A5,5,0,0,0,43.183,74.2c1.76.517,3.5,1.116,5.237,1.7a2.768,2.768,0,0,1,1.542,4.5c-2.018,3.044-1.82,5.346.685,8a8.625,8.625,0,0,0,.884.934c1.483,1.158,1.553,2.752,1.4,4.416A2.362,2.362,0,0,1,51.9,95.522c-2.256,1.555-2.855,4.06-1.9,6.779.079.225.246.435.121.754a41.022,41.022,0,0,1-9.975-1.166,34.993,34.993,0,0,1-8.016-2.843.316.316,0,0,0-.374-.2Z" transform="translate(-4.857 -11.661)" fill="#5776d0"/>
        <path id="Trazado_179309" data-name="Trazado 179309" d="M97.654,32.177a40.984,40.984,0,0,1,6.393,12.064,42.158,42.158,0,0,1-.89,29.628c-.255.64-.415.788-1.017.3-1.714-1.385-3.471-2.719-5.241-4.034a1.159,1.159,0,0,1-.5-1.307,10.934,10.934,0,0,0-5.98-11.578,10.739,10.739,0,0,0-12.432,2.18,10.963,10.963,0,0,0-2.543,4.207,2.206,2.206,0,0,1-2.979,1.044c-1.07-.712-2.105-1.478-3.127-2.257a1.235,1.235,0,0,1-.156-1.933c1.035-1.406,2.042-2.836,3.153-4.179,1.659-2,2.135-4.422,2.616-6.861A6.585,6.585,0,0,1,81.16,43.8c1.063-.078,2.125.161,3.2-.007a5.188,5.188,0,0,0,3.9-2.6c.632-1.084,1.2-2.2,1.807-3.3a2.63,2.63,0,0,1,2.094-1.479,5.953,5.953,0,0,0,5.066-3.578c.108-.214.259-.408.422-.658" transform="translate(-18.797 -8.792)" fill="#5776cf"/>
        <path id="Trazado_179310" data-name="Trazado 179310" d="M44.47,23.5a9.761,9.761,0,0,1-1.563,1.912,2.153,2.153,0,0,1-3.2.036C36.571,22.007,34.052,18.227,33.3,13.5c-.857-5.389,3.544-10.226,8.779-9.621A15.354,15.354,0,0,0,40.4,7.088c-2.563.81-3.946,2.469-3.974,4.762a4.936,4.936,0,0,0,3.556,4.712A12.5,12.5,0,0,0,44.47,23.5" transform="translate(-9.069 -1.045)" fill="#e05a6f"/>
        <path id="Trazado_179311" data-name="Trazado 179311" d="M92.3,88.591a11.746,11.746,0,0,1-1.7,2.039,2.044,2.044,0,0,1-2.979.142c-3.48-3.73-6.345-7.832-6.623-13.149a8.008,8.008,0,0,1,8.87-8.541c-.606,1.026-1.5,1.9-1.653,3.166-2.715.807-4.211,2.668-4.025,5.127a4.93,4.93,0,0,0,3.473,4.391,12.963,12.963,0,0,0,2.871,5.306A3.964,3.964,0,0,0,92.3,88.591" transform="translate(-22.129 -18.861)" fill="#e05a6f"/>
        <path id="Trazado_179312" data-name="Trazado 179312" d="M29.773,26.53a13.707,13.707,0,0,0-2.5,3,25.207,25.207,0,0,0-2.688,4.227A25.958,25.958,0,0,1,21.3,31.77c-1.818-1.286-2.291-3.306-2.8-5.3-.085-.33.124-.515.3-.716a40.684,40.684,0,0,1,7.3-6.383c.233-.16.573-.563.712.1a24.555,24.555,0,0,0,2.967,7.053" transform="translate(-5.048 -5.221)" fill="#31c494"/>
        <path id="Trazado_179313" data-name="Trazado 179313" d="M47.024,23.516a12.5,12.5,0,0,1-4.486-6.935,4.861,4.861,0,0,0,5.9-6.18c-.714-2.243-2.6-3.369-5.481-3.294A15.354,15.354,0,0,1,44.633,3.9a8.076,8.076,0,0,1,7.224,9.046,19.994,19.994,0,0,1-4.833,10.575" transform="translate(-11.623 -1.064)" fill="#f58595"/>
        <path id="Trazado_179314" data-name="Trazado 179314" d="M94.81,88.61a3.964,3.964,0,0,1-1.762-1.518,12.963,12.963,0,0,1-2.871-5.306c.181.02.363.029.543.06a4.818,4.818,0,0,0,5.567-5.571c-.466-2.637-2.576-4.159-5.558-4.007.158-1.261,1.047-2.14,1.653-3.166a8.011,8.011,0,0,1,7.183,7.244,13.476,13.476,0,0,1-.937,5.742A22.649,22.649,0,0,1,94.81,88.61" transform="translate(-24.639 -18.88)" fill="#f68595"/>
        <path id="Trazado_179315" data-name="Trazado 179315" d="M37.013,119.962a.317.317,0,0,1,.375.2c-.152-.017-.3-.038-.375-.2" transform="translate(-10.113 -32.776)" fill="#3859c3"/>
        <path id="Trazado_179316" data-name="Trazado 179316" d="M41.618,8.314c2.876-.075,4.766,1.052,5.481,3.294a4.861,4.861,0,0,1-5.9,6.18,4.937,4.937,0,0,1-3.556-4.712c.028-2.294,1.411-3.951,3.974-4.763m.858,2.735a2.06,2.06,0,1,0,2.087,2.088,2.041,2.041,0,0,0-2.087-2.088" transform="translate(-10.285 -2.271)" fill="#040203"/>
        <path id="Trazado_179317" data-name="Trazado 179317" d="M89.419,73.453c2.981-.151,5.092,1.371,5.558,4.007a4.818,4.818,0,0,1-5.567,5.571c-.179-.031-.362-.041-.543-.06a4.93,4.93,0,0,1-3.473-4.391c-.186-2.459,1.31-4.321,4.026-5.127m.763,2.728a2.09,2.09,0,1,0,.121,4.177,2.09,2.09,0,0,0-.121-4.177" transform="translate(-23.327 -20.067)" fill="#040303"/>
        <path id="Trazado_179318" data-name="Trazado 179318" d="M43.521,12.078a2.06,2.06,0,1,1-2.054,2.032,2.047,2.047,0,0,1,2.054-2.032" transform="translate(-11.33 -3.3)" fill="#e3e2f4"/>
        <path id="Trazado_179319" data-name="Trazado 179319" d="M91.22,77.211a2.09,2.09,0,1,1-2.043,2.148,2.118,2.118,0,0,1,2.043-2.148" transform="translate(-24.365 -21.096)" fill="#e1e0f2"/>
      </g>
    </g>
  </g>
</svg>
