<svg xmlns="http://www.w3.org/2000/svg" xmlns:xlink="http://www.w3.org/1999/xlink" width="155" height="110" viewBox="0 0 155 110">
  <defs>
    <clipPath id="clip-path">
      <rect id="Rectangle_45261" data-name="Rectangle 45261" width="79.377" height="82.13" fill="none"/>
    </clipPath>
  </defs>
  <g id="_16" data-name="16" transform="translate(-963 10241)">
    <g id="Group_174633" data-name="Group 174633" transform="translate(265 -14715.297)">
      <g id="Group_165391" data-name="Group 165391" transform="translate(698 4474.297)">
        <rect id="Rectangle_40797" data-name="Rectangle 40797" width="155" height="110" fill="#ffe891"/>
      </g>
    </g>
    <g id="Group_174946" data-name="Group 174946" transform="translate(1001 -10227)">
      <g id="Group_174945" data-name="Group 174945" clip-path="url(#clip-path)">
        <path id="Path_182694" data-name="Path 182694" d="M67.819,52.585c.872.094,1.145.648,1.142,1.446-.007,2.539,0,5.078-.006,7.617,0,1.089-.41,1.492-1.513,1.5-2.833.009-5.666,0-8.5,0h-.871c-.007.088-.034.161-.012.181,2.423,2.265,3.25,5.246,3.782,8.368C62.067,73,62.092,73,63.4,73q7.136,0,14.272,0c1.348,0,1.67.355,1.709,1.706a7.271,7.271,0,0,1-1.139,4.728,6.227,6.227,0,0,1-5.274,2.693q-8.459.013-16.918,0-22.731,0-45.462,0a6.29,6.29,0,0,1-6.4-4.975,10.482,10.482,0,0,1-.1-3.113C4.138,73.334,4.647,73,5.54,73q5.532-.007,11.065,0c1.39,0,2.779-.015,4.169.009.427.007.61-.106.674-.555.1-.677.161-1.41.941-1.73,1.363-.185,1.953.4,1.742,1.752-.078.5-.181,1-.3,1.491-.3,1.268-.765,1.653-2.063,1.665-1.922.019-3.844,0-5.766.007-1.2,0-1.225.03-1.23,1.193,0,.614.017,1.229,0,1.842-.021.582.229.817.806.81,1.121-.013,2.242,0,3.364,0,2.215,0,4.431.008,6.646,0,1.564-.008,2.1-.535,2.163-2.117.037-.96-.008-1.922.018-2.882s.527-1.6,1.29-1.645A1.6,1.6,0,0,1,30.6,74.373c.092.876,0,1.76.052,2.641a7.345,7.345,0,0,1-.146,1.75c-.082.477.111.708.6.7.187,0,.373.006.56.006h20.17c1.18,0,1.173-.012,1.029-1.16a23.894,23.894,0,0,1-.048-3.836,2.032,2.032,0,0,1,.2-.771,1.429,1.429,0,0,1,1.476-.867A1.4,1.4,0,0,1,55.65,74.1c.082.931.026,1.867.031,2.8a5.511,5.511,0,0,0,.162,1.585,1.544,1.544,0,0,0,1.528.97c3.524.045,7.048.018,10.572.019.513,0,.716-.25.728-.732.021-.828.007-1.655.008-2.483,0-.622-.425-.641-.882-.641-2.189,0-4.379.013-6.567-.006a1.627,1.627,0,0,1-1.554-1.466c-.3-1.411-.608-2.819-.9-4.232a8.788,8.788,0,0,0-8.736-7.139,1.5,1.5,0,0,1-.24,0c-1-.163-1.508.186-1.949,1.2A6.677,6.677,0,0,1,36.99,66.118a5.961,5.961,0,0,1-1.571-2.484,1.05,1.05,0,0,0-1.286-.861,8.793,8.793,0,0,0-7.3,2.777,15.752,15.752,0,0,0-1.6,2.294c-.5.758-1.051.9-1.726.5-.765-.659-.86-1.076-.422-1.944A12.081,12.081,0,0,1,25.5,63.184c-.35-.017-.573-.036-.8-.036q-4.168,0-8.337,0c-1.623,0-1.889-.272-1.89-1.925q0-7.977.009-15.954a1.517,1.517,0,0,0-.525-1.236,7.861,7.861,0,0,1-2.332-8.239,4.083,4.083,0,0,1,2.314-2.714.824.824,0,0,0,.542-.905c-.006-3.02-.054-6.041.034-9.059A24.268,24.268,0,0,1,34.126.445,8.464,8.464,0,0,0,36.345,0h1.123a1.226,1.226,0,0,0,.962,0h6.577a1.226,1.226,0,0,0,.962,0h.962c1.079.211,2.163.4,3.236.635A24.308,24.308,0,0,1,68.616,20.154a46.867,46.867,0,0,1,.341,7.429c.014,1.576.008,3.152,0,4.728,0,.313.031.545.372.692a4.558,4.558,0,0,1,2.758,4.008,7.936,7.936,0,0,1-2.582,7,1.521,1.521,0,0,0-.556,1.3c.042,1.04-.032,2.085.025,3.124a1.481,1.481,0,0,1-1.181,1.77,1.276,1.276,0,0,1-1.426-1.144,11.374,11.374,0,0,1-.1-1.834c-.029-.356.212-.856-.353-1A1.224,1.224,0,0,0,64.576,47a19.077,19.077,0,0,1-1.007,2.354,17.422,17.422,0,0,1-14.126,9.749,2.16,2.16,0,0,0-.318.039c-.25.068-.591.081-.575.433.017.376.371.348.618.335a14.978,14.978,0,0,1,4.827.589,3.575,3.575,0,0,0,.957.063q5.125,0,10.251,0c1.025,0,1.068-.047,1.071-1.1.006-1.682,0-3.364,0-5.046a2.242,2.242,0,0,1,.37-1.448c.294-.372.653-.647,1.172-.391" transform="translate(-1.786)"/>
        <path id="Path_182695" data-name="Path 182695" d="M78.742,0a.729.729,0,0,1-.962,0Z" transform="translate(-34.559)" fill="#212121"/>
        <path id="Path_182696" data-name="Path 182696" d="M65.175,0a.729.729,0,0,1-.962,0Z" transform="translate(-28.531)" fill="#212121"/>
        <path id="Path_182697" data-name="Path 182697" d="M38.825,126.992c-.018-.852-.029-1.7-.056-2.557-.028-.877-.482-1.418-1.185-1.433-.727-.017-1.2.545-1.215,1.468-.013,1.1.012,2.191-.008,3.286a1.744,1.744,0,0,1-1.982,1.962c-3.553.006-7.106-.009-10.659.014-.536,0-.758-.1-.726-.691a24.447,24.447,0,0,0,0-2.8c-.039-.648.128-.868.816-.854,2.19.046,4.381.019,6.572.016,1.058,0,1.363-.251,1.586-1.282.112-.521.217-1.044.322-1.567.274-1.368-.113-1.848-1.473-1.833a1,1,0,0,0,.84-1.057,7.335,7.335,0,0,1,.281-1.318,1.419,1.419,0,0,0,1.779-.922,8.953,8.953,0,0,1,8.812-4.859c.193.3-.014.509-.178.71a11.957,11.957,0,0,0-2.311,6.146c-.313,2.274-.524,4.562-.815,6.839-.036.281.068.675-.4.736" transform="translate(-10.214 -49.997)" fill="#c5cfd9"/>
        <path id="Path_182698" data-name="Path 182698" d="M103.153,89.26c-.985.181-1.284.53-1.29,1.585-.011,1.925-.022,3.85.008,5.775.009.592-.108.845-.783.839-3.769-.032-7.539-.014-11.308-.019a2.453,2.453,0,0,1-.711-.086,14.217,14.217,0,0,0-4.749-.551c-.351.012-.743.123-.776-.5-.032-.6.325-.667.73-.7A16.329,16.329,0,0,0,88.5,94.78,17.348,17.348,0,0,0,99.734,83.431a2.252,2.252,0,0,1,1.932-.856c.244.093.188.3.191.472.009.722-.006,1.444.007,2.165.017,1.017.275,1.349,1.262,1.675q.014,1.186.028,2.373" transform="translate(-37.12 -36.676)" fill="#544f57"/>
        <path id="Path_182699" data-name="Path 182699" d="M123.342,9.5a1.179,1.179,0,0,1-1.178,1.167c-.72.032-1.442.031-2.162.005-.393-.014-.511.126-.5.505.024.667.023,1.335,0,2-.027.86-.515,1.36-1.261,1.334-.714-.026-1.121-.5-1.138-1.355a13.261,13.261,0,0,1,.008-1.6c.068-.672-.1-.987-.851-.892a10.878,10.878,0,0,1-1.76.008,1.189,1.189,0,1,1-.094-2.377,19.332,19.332,0,0,1,2.161-.014c.418.015.562-.118.542-.542-.032-.666-.021-1.335,0-2a1.182,1.182,0,0,1,1.14-1.283A1.224,1.224,0,0,1,119.5,5.731a13.9,13.9,0,0,1,0,1.761c-.048.594.093.869.761.8a11.055,11.055,0,0,1,1.84,0A1.232,1.232,0,0,1,123.342,9.5" transform="translate(-50.327 -1.98)"/>
        <path id="Path_182700" data-name="Path 182700" d="M132.574,99.874c-1.575,0-1.574,0-1.576,1.589a10.033,10.033,0,0,1-.023,1.12,1.144,1.144,0,0,1-1.217,1.12,1.122,1.122,0,0,1-1.151-1.178c-.035-.693-.038-1.39-.006-2.083.022-.471-.159-.6-.6-.577-.666.031-1.336.026-2,0a1.14,1.14,0,0,1-1.229-1.184,1.173,1.173,0,0,1,1.226-1.2,11.708,11.708,0,0,1,1.842,0c.68.072.814-.219.768-.814a14.913,14.913,0,0,1,0-1.762,1.193,1.193,0,1,1,2.383-.038,15.529,15.529,0,0,1,0,2c-.038.522.159.637.635.607.612-.039,1.229-.024,1.843-.006.859.027,1.375.52,1.348,1.252-.026.712-.5,1.12-1.356,1.149-.294.009-.588,0-.882,0" transform="translate(-55.436 -41.606)"/>
        <path id="Path_182701" data-name="Path 182701" d="M6.227,44.536c0,1.48,0,1.48,1.508,1.48.4,0,.8-.023,1.2.013a1.171,1.171,0,0,1,1.117,1.224,1.154,1.154,0,0,1-1.176,1.16c-.693.028-1.39.036-2.083,0-.469-.026-.6.146-.576.59.032.666.027,1.336,0,2a1.193,1.193,0,1,1-2.383.031c-.039-.719-.027-1.443-.008-2.163.009-.343-.1-.469-.452-.457-.693.023-1.389.019-2.083,0A1.186,1.186,0,0,1,0,47.2a1.2,1.2,0,0,1,1.26-1.177c.694-.024,1.39-.03,2.083,0,.4.018.5-.122.486-.5-.029-.64-.022-1.283,0-1.923.023-.871.488-1.413,1.192-1.422s1.179.536,1.207,1.4c.011.321,0,.641,0,.962" transform="translate(0 -18.741)"/>
        <path id="Path_182702" data-name="Path 182702" d="M50.721,46.04c2.683-.682,5.4-1.243,8.043-2.07a47.054,47.054,0,0,0,13-5.828c1.168-.807,1.161-.816,1.934.343a22.329,22.329,0,0,0,7.479,7.442,6.035,6.035,0,0,0,1.368.648c.77.2.908.641.9,1.38-.044,3.312-.015,6.626-.02,9.939a15.047,15.047,0,0,1-12.7,15.193,11.365,11.365,0,0,1-1.194.092c-2.022.128-4.046.021-6.069.056a3.676,3.676,0,0,0-.559,0c-2.568.449-4.555-.769-6.386-2.3A16.218,16.218,0,0,1,51,62.151a1.417,1.417,0,0,1-.059-.785c.138-.288.437-.367.68-.517,1.361-.841,1.336-2.095-.047-2.917-.351-.209-.833-.247-1-.715a1.211,1.211,0,0,1,.071-.873c.257-.281.58-.2.9-.166a5.516,5.516,0,0,0,5.571-2.707,1.713,1.713,0,0,0,.288-.823A.928.928,0,0,0,56.85,51.6a.945.945,0,0,0-1.142.334c-.229.263-.373.585-.575.868a3.629,3.629,0,0,1-3.851,1.3c-.376-.123-.69-.3-.765-.73-.1-2.2-.036-4.394-.039-6.591a1.076,1.076,0,0,1,.243-.738" transform="translate(-22.42 -16.693)" fill="#fecabd"/>
        <path id="Path_182703" data-name="Path 182703" d="M59.876,4.324a79.693,79.693,0,0,1,9.368.16,21.1,21.1,0,0,1,11.03,4.74,21.612,21.612,0,0,1,7.579,12.4,16.527,16.527,0,0,1,.433,3.565c0,2.887.007,5.773.008,8.66a1.028,1.028,0,0,1-1.075,1.046c-.36-.026-.233-.305-.235-.481-.014-.989-.007-1.978-.008-2.967a1.3,1.3,0,0,0-.965-1.4c-3.669-1-6.116-3.571-8.31-6.463a24.777,24.777,0,0,1-2.051-3.248c-.635-1.177-1.328-1.286-2.34-.385a30.137,30.137,0,0,1-9.13,5.218A75.055,75.055,0,0,1,53.7,28.344a2.109,2.109,0,0,1-.4.02,4.723,4.723,0,0,1-.192-2.661c.171-2.177.129-4.365.441-6.536A35.661,35.661,0,0,1,56.888,7.373a18.582,18.582,0,0,1,1.336-2.088,2.017,2.017,0,0,1,1.651-.961" transform="translate(-23.555 -1.895)" fill="#544f57"/>
        <path id="Path_182704" data-name="Path 182704" d="M51.2,126.961a18.5,18.5,0,0,0,.488-3.42c.4-2.824.425-5.716,1.614-8.388a6.821,6.821,0,0,1,1.294-2.085.763.763,0,0,0,.308-.537c.825-.211,1.215.022,1.5.93a6.478,6.478,0,0,0,12.281-.14c.217-.7.518-.839,1.2-.859a9.75,9.75,0,0,1,6.855,2.164,10.144,10.144,0,0,1,3.332,6.466c.172,1.025.438,2.034.616,3.058a1.331,1.331,0,0,0,1.158,1.238c2.294.119,4.589.022,6.883.051.892.011.892,0,.893.918,0,.587-.021,1.176.007,1.762.022.451-.2.628-.6.676a5.993,5.993,0,0,1-.72.031q-5.328,0-10.655,0a1.821,1.821,0,0,1-1.226-.265,17.472,17.472,0,0,1-.136-3.744c-.038-1.24-.372-1.818-1.165-1.845-.834-.028-1.28.587-1.241,1.85a16.594,16.594,0,0,0,.246,4.535c.072.233.012.353-.251.333-.106-.008-.213,0-.32,0H51.378c-.158,0-.317-.018-.547-.031a9.651,9.651,0,0,0,.365-2.7" transform="translate(-22.585 -49.966)" fill="#e6ebf0"/>
        <path id="Path_182705" data-name="Path 182705" d="M48.388,4.371c-1.467.483-2.027,1.82-2.689,3a29.208,29.208,0,0,0-3.073,9.688,49.74,49.74,0,0,0-.688,7.369c-.022,1.325-.108,2.657-.123,3.988A41.046,41.046,0,0,1,36.2,29.524a48.816,48.816,0,0,1-6.426.662,1.21,1.21,0,0,0-1.266,1.343c-.018.907.011,1.817-.016,2.723-.007.232.2.718-.269.637-.37-.064-.976.007-1.026-.652-.006-.08,0-.161,0-.241.007-3.177-.124-6.363.054-9.531a20.61,20.61,0,0,1,4.6-11.8A21.7,21.7,0,0,1,41.971,5.51a20.506,20.506,0,0,1,6.417-1.139" transform="translate(-12.067 -1.942)" fill="#454045"/>
        <path id="Path_182706" data-name="Path 182706" d="M43.7,68.065a16.131,16.131,0,0,0,7.441,10.79,6.712,6.712,0,0,0,4.071,1.089c2.32-.081,4.646,0,6.969.006a3.692,3.692,0,0,1-1.426.118c-3.85.005-7.7.014-11.549-.012A15.021,15.021,0,0,1,34.161,67.541a13.3,13.3,0,0,1-.225-2.389c-.025-3.475-.013-6.951-.011-10.426,0-.3-.118-.648.406-.682,3.042-.2,6.034-.762,9.039-1.233q0,3.78,0,7.56c-.687.171-.877-.461-1.241-.79a7,7,0,0,1-.58-.859.952.952,0,0,0-1.328-.341.962.962,0,0,0-.37,1.33,5.342,5.342,0,0,0,2.527,2.676c.356.176.849.189,1,.678l-.008.989c-.346.3-.752.188-1.144.163a4.674,4.674,0,0,0-2.832.63c-1.216.747-1.229,1.907-.008,2.633a4.953,4.953,0,0,0,3.381.623c.308-.048.614-.207.931-.038" transform="translate(-15.069 -23.465)" fill="#e9ab9c"/>
        <path id="Path_182707" data-name="Path 182707" d="M42.173,96.894a18.388,18.388,0,0,1-3.828.632c-3.443-.059-6.888-.036-10.331-.006-.64.006-.811-.186-.808-.815q.038-6.687,0-13.375c0-.6.107-.718.772-.646,1.005.11,1.288.651,1.615,1.5A17.188,17.188,0,0,0,41.64,95.146a.766.766,0,0,1,.2.129c.353.49.172,1.09.337,1.618" transform="translate(-12.088 -36.731)" fill="#454045"/>
        <path id="Path_182708" data-name="Path 182708" d="M69.328,112.483a4.047,4.047,0,0,1-4.857-3.626c-.045-.719.007-1.444-.031-2.163-.022-.439.15-.532.553-.53q3.567.024,7.134,0c.395,0,.6.074.556.523-.04.37-.028.745-.039,1.119a1.349,1.349,0,0,1-.989.225c-1.256.007-2.511-.006-3.766.006-.876.008-1.034.187-.9,1.064a4.043,4.043,0,0,0,2.337,3.383" transform="translate(-28.632 -47.171)" fill="#e9ab9c"/>
        <path id="Path_182709" data-name="Path 182709" d="M71.139,113.78a1.565,1.565,0,0,1-1.429-.686,5.477,5.477,0,0,1-1.19-3.144c-.043-.646.141-.885.83-.866,1.7.049,3.4.018,5.107.019.162,2.5-1.131,4.321-3.317,4.677" transform="translate(-30.443 -48.468)" fill="#fecabd"/>
        <path id="Path_182710" data-name="Path 182710" d="M26.081,71.595c-3.238-.378-5.6-4.327-4.415-7.266a2.216,2.216,0,0,1,4.223.531,4.193,4.193,0,0,0-2.516-.141c-.827.263-1.252.836-1.074,1.515.188.713.78,1.016,1.643.841a1.521,1.521,0,0,1,1.993,1.564,20.147,20.147,0,0,0,.146,2.956" transform="translate(-9.488 -27.987)" fill="#e9ab9c"/>
        <path id="Path_182711" data-name="Path 182711" d="M114.05,64.85a2.22,2.22,0,0,1,2.265-1.861,2.146,2.146,0,0,1,2.112,1.832,5.773,5.773,0,0,1-3.97,6.708c-.5.144-.628.051-.541-.443a14.169,14.169,0,0,0,.1-2.4,1.518,1.518,0,0,1,2.025-1.6,1.242,1.242,0,0,0,1.47-.515,1.088,1.088,0,0,0-.136-1.4,2.422,2.422,0,0,0-1.693-.6,6,6,0,0,0-1.635.276" transform="translate(-50.605 -27.987)" fill="#e9ab9c"/>
        <path id="Path_182712" data-name="Path 182712" d="M96.9,138.871c4.114,0,8.229-.009,12.343.018.6,0,.829-.17.757-.769-.088-.733.321-1.679-.174-2.155-.453-.435-1.376-.121-2.092-.129-1.549-.018-3.1,0-4.649-.009-.258,0-.539.083-.766-.127,2.43-.009,4.861-.009,7.29-.038.448-.006.535.174.526.567-.024,1.095-.033,2.19-.015,3.285.007.394-.135.494-.51.493-3.713-.012-7.426,0-11.139-.016a1.537,1.537,0,0,1-1.571-1.119" transform="translate(-43.054 -60.277)" fill="#c5cfd9"/>
        <path id="Path_182713" data-name="Path 182713" d="M8.7,137.621a4.339,4.339,0,0,1-.2-.5c-.36-1.323-.275-1.433,1.087-1.433,1.306,0,2.612.017,3.918-.009.441-.009.616.106.592.573-.045.876-.038,1.755-.053,2.633a5.514,5.514,0,0,1-4.984-.951,1.785,1.785,0,0,0-.356-.313" transform="translate(-3.693 -60.285)" fill="#fecabd"/>
        <path id="Path_182714" data-name="Path 182714" d="M125.051,138.891c-.016-.93-.026-1.86-.052-2.789-.009-.311.112-.417.421-.415,1.624.011,3.248.014,4.872,0,.372,0,.453.152.43.477a2.632,2.632,0,0,1-.353,1.444c-.984,1.374-4.05,1.88-5.317,1.284" transform="translate(-55.54 -60.288)" fill="#fecabd"/>
        <path id="Path_182715" data-name="Path 182715" d="M9,139.173c.706.218,1.251.74,1.958.982a11.265,11.265,0,0,0,3.382.283c.1,1.122.1,1.09-1,1.13-1.939.071-3.515-.471-4.342-2.394" transform="translate(-4.001 -61.838)" fill="#e8ab9c"/>
        <path id="Path_182716" data-name="Path 182716" d="M125.058,140.427a7.7,7.7,0,0,0,5.317-1.284,3.635,3.635,0,0,1-3.276,2.39,8.74,8.74,0,0,1-1.039.014c-1.109,0-1.109,0-1-1.12" transform="translate(-55.546 -61.824)" fill="#e8ab9c"/>
        <path id="Path_182717" data-name="Path 182717" d="M53.839,106.976c-.712-.415-.162-1.091-.337-1.618,1.029.108,2.039.368,3.081.383.456.006.62.254.607.726-.016.562-.375.474-.713.478q-1.319.017-2.638.031" transform="translate(-23.754 -46.813)" fill="#524e55"/>
        <path id="Path_182718" data-name="Path 182718" d="M85.707,67.4a5.824,5.824,0,0,1-5.2-3.19c-.439-.82-.283-1.54.356-1.888s1.313-.094,1.751.728a3.381,3.381,0,0,0,6.1-.017c.423-.815,1.11-1.069,1.765-.707a1.249,1.249,0,0,1,.376,1.818A5.824,5.824,0,0,1,85.707,67.4" transform="translate(-35.661 -27.623)"/>
        <path id="Path_182719" data-name="Path 182719" d="M47.863,67.224a6.172,6.172,0,0,1-3.619-3.035c-.412-.833-.269-1.531.38-1.872s1.313-.077,1.75.733a2.933,2.933,0,0,0,1.478,1.48A3.268,3.268,0,0,0,52.2,63.492c.123-.2.228-.42.351-.624a1.218,1.218,0,0,1,1.631-.563,1.2,1.2,0,0,1,.512,1.65,5.725,5.725,0,0,1-4.054,3.3,7.4,7.4,0,0,1-2.773-.028" transform="translate(-19.556 -27.624)"/>
        <path id="Path_182720" data-name="Path 182720" d="M67.5,83.113a5.71,5.71,0,0,1-5.143-3.222,1.234,1.234,0,0,1,.439-1.853c.652-.324,1.255-.077,1.684.728a3.393,3.393,0,0,0,6.1.024c.452-.847,1.079-1.1,1.745-.728a1.257,1.257,0,0,1,.373,1.876,5.726,5.726,0,0,1-5.2,3.175" transform="translate(-27.603 -34.612)"/>
        <path id="Path_182721" data-name="Path 182721" d="M47.145,76.988a5.016,5.016,0,0,1-4.517-.452,1.6,1.6,0,0,1,.106-2.963,4.62,4.62,0,0,1,3.123-.617,6.262,6.262,0,0,0,.959.02c.394.205.806.382,1.178.621a1.684,1.684,0,0,1-.053,3.052,6.209,6.209,0,0,1-.8.339" transform="translate(-18.518 -32.388)" fill="#e38fb6"/>
        <path id="Path_182722" data-name="Path 182722" d="M92.485,77.306a4.665,4.665,0,0,1-2.767-.858,1.6,1.6,0,0,1,.026-2.736,5.312,5.312,0,0,1,5.49-.118c1.347.9,1.324,2.209-.079,3.028a4.972,4.972,0,0,1-2.67.683" transform="translate(-39.526 -32.385)" fill="#e38fb6"/>
        <path id="Path_182723" data-name="Path 182723" d="M69.222,68.074c.694,0,1.389-.018,2.082.005a1.146,1.146,0,0,1,1.227,1.106,1.159,1.159,0,0,1-1.152,1.272q-2.2.063-4.4,0a1.19,1.19,0,1,1,.086-2.378c.72-.023,1.441-.005,2.162-.005" transform="translate(-29.247 -30.244)" fill="#010100"/>
      </g>
    </g>
  </g>
</svg>
