<svg xmlns="http://www.w3.org/2000/svg" xmlns:xlink="http://www.w3.org/1999/xlink" width="155" height="110" viewBox="0 0 155 110">
  <defs>
    <clipPath id="clip-path">
      <rect id="Rectangle_45262" data-name="Rectangle 45262" width="74.549" height="68.683" fill="none"/>
    </clipPath>
  </defs>
  <g id="_17" data-name="17" transform="translate(-1328 10241)">
    <g id="Group_174634" data-name="Group 174634" transform="translate(630 -14715.297)">
      <g id="Group_165391" data-name="Group 165391" transform="translate(698 4474.297)">
        <rect id="Rectangle_40797" data-name="Rectangle 40797" width="155" height="110" fill="#ffe891"/>
      </g>
    </g>
    <g id="Group_174949" data-name="Group 174949" transform="translate(1368 -10220)">
      <g id="Group_174948" data-name="Group 174948" transform="translate(0 0)" clip-path="url(#clip-path)">
        <path id="Path_182724" data-name="Path 182724" d="M74.549,49.63a2.162,2.162,0,0,1-1.812.66q-32.715-.019-65.429-.008c-1.14,0-.983-.145-.984,1.018-.006,4.658-.039,9.317.012,13.974A3.175,3.175,0,0,1,2.444,68.6,3.091,3.091,0,0,1,.018,65.861C0,65.692,0,65.522,0,65.352q0-31,0-62.01A3.11,3.11,0,0,1,4.011.122a2.775,2.775,0,0,1,2.225,2.4c.09.682.358.737.916.736q14.193-.02,28.384-.009,18.631,0,37.263-.009a1.7,1.7,0,0,1,1.75.812ZM16.337,26.772c-.26.891-.548,1.116-1.515,1.12-2.208.008-4.417.032-6.623-.015-.69-.015-.833.206-.831.854q.035,9.245,0,18.49c0,.675.187.83.843.83q31.629-.026,63.258,0c.681,0,.892-.135.889-.86-.033-6.066-.015-12.133-.021-18.2,0-1.247.169-1.1-1.062-1.1q-25.333-.005-50.665,0h-.655a1.238,1.238,0,0,1-1.387-1.1c.229-.957.523-1.164,1.686-1.164q25.661,0,51.323.013c.588,0,.767-.116.764-.741Q72.3,15.55,72.328,6.2c0-.485-.037-.708-.639-.708q-31.85.028-63.7,0c-.533,0-.618.168-.617.653Q7.4,15.57,7.375,25c0,.5.1.655.626.647,2.281-.031,4.562-.018,6.843-.011.955,0,1.261.249,1.493,1.137" transform="translate(0 0)" fill="#040404"/>
        <path id="Path_182725" data-name="Path 182725" d="M21.3,36.746a1.239,1.239,0,0,0,1.388,1.1c.218,0,.437,0,.655,0q25.333,0,50.665,0c1.231,0,1.062-.149,1.063,1.1.005,6.066-.012,12.133.02,18.2,0,.726-.208.861-.889.86q-31.629-.028-63.258,0c-.656,0-.846-.155-.843-.83q.04-9.244,0-18.49c0-.647.141-.869.831-.854,2.207.047,4.416.023,6.623.015.967,0,1.255-.23,1.515-1.121l2.227.025" transform="translate(-2.737 -9.95)" fill="#ec1f34"/>
        <path id="Path_182726" data-name="Path 182726" d="M21.3,28.836l-2.227-.025c-.233-.888-.537-1.133-1.493-1.136-2.28-.008-4.562-.02-6.842.01-.524.007-.628-.152-.627-.647q.026-9.427,0-18.855c0-.484.083-.653.617-.653q31.848.022,63.7,0c.6,0,.64.223.639.707q-.02,9.356.007,18.71c0,.625-.176.741-.764.741q-25.661-.024-51.323-.012c-1.162,0-1.457.206-1.686,1.163" transform="translate(-2.74 -2.04)" fill="#fdfdfd"/>
      </g>
    </g>
  </g>
</svg>
