<svg xmlns="http://www.w3.org/2000/svg" xmlns:xlink="http://www.w3.org/1999/xlink" width="290.629" height="600.881" viewBox="0 0 290.629 600.881">
  <defs>
    <clipPath id="clip-path">
      <rect id="Rect치ngulo_44641" data-name="Rect치ngulo 44641" width="245.801" height="508.489" fill="none"/>
    </clipPath>
  </defs>
  <g id="_18" data-name="18" transform="translate(0 0)">
    <g id="Grupo_172676" data-name="Grupo 172676" transform="translate(0 0)">
      <path id="Trazado_177276" data-name="Trazado 177276" d="M290.629,0H0V550.989H290.629Z" transform="translate(0 0)" fill="none"/>
      <g id="Grupo_172620" data-name="Grupo 172620" transform="translate(19.384 0)">
        <g id="Grupo_157493" data-name="Grupo 157493" transform="translate(0 0)">
          <path id="Trazado_114544" data-name="Trazado 114544" d="M174.7,544.71C139.419,528.659,102.828,507,88.619,470.782c-15.77-40.2.737-85.212.34-128.42-.315-34.229-11.346-67.285-20.026-100.384s-15.055-68.267-6.1-101.292C68.829,118.578,81.563,98.575,98,82.7c28.948-27.95,70.656-43.075,110.285-36.682s75.63,35.519,87.215,74.155c16.414,54.74-15.649,113.173-8.834,169.934,2.666,22.21,11.2,43.213,16.986,64.815a266.9,266.9,0,0,1,9.068,70.518c-.216,36.435-9.4,75.31-36.434,99.573C249.018,549.492,208.438,560.058,174.7,544.71Z" transform="translate(-58.504 -44.565)" fill="#3c3fa7"/>
        </g>
      </g>
    </g>
    <g id="Grupo_173536" data-name="Grupo 173536" transform="translate(23.154 92.392)">
      <g id="Grupo_173535" data-name="Grupo 173535" clip-path="url(#clip-path)">
        <path id="Trazado_177366" data-name="Trazado 177366" d="M130.574,19.706c-1.443-3.594-6.64-5.572-6.64-5.572.937-1.687,8.158-13.513,6.483-14.118s-14.352,16.364-14.352,16.364c-2.628-4.382-10.4-9.088-7.544-2.894s1.544,16.725,1.544,16.725-3.587,31.675-7.78,64.808c-21.342,1.949-41.36,3.546-51.915,3.787a48.979,48.979,0,0,0-12.083,1.6c-10.481,2.963-12.912,16.8-3.855,22.86,3.554,2.38,8.724,4.146,16.268,4.2a385.164,385.164,0,0,0,47.584-2.051c6.6-.744,13.528-1.742,20.631-3.079a13.858,13.858,0,0,0,11.191-12.7c.395-5.607.633-11.408.65-17.345.065-19.8-2.306-41.05-9.295-61.471,6.062-3.057,10.4-7.9,9.114-11.111" transform="translate(20.467 0)" fill="#fa9778"/>
        <path id="Trazado_177367" data-name="Trazado 177367" d="M72.753,56.151l1.8,32.769S26.671,99.077,28.087,71.994c0,0-.8-19.811,44.666-15.843" transform="translate(19.908 39.471)" fill="#b4cbdd"/>
        <path id="Trazado_177368" data-name="Trazado 177368" d="M64.065,86.426c3.164-5.5,1.272-30.222,1.272-30.222S72.086,70.8,70.849,85.8Z" transform="translate(45.459 39.881)" fill="#450d20"/>
        <path id="Trazado_177369" data-name="Trazado 177369" d="M86.8,111.788c-3.351-17.231-2.222-35.573-13.923-38.513-7.681-1.928-12.586-2-16.927-4.884-.732-1.154-2.5-4.012-4.182-7.344A38.622,38.622,0,0,1,48.3,51.968l0-.012a8.408,8.408,0,0,1-.1-3.616L12.695,40.5c.053.1.092.183.145.277,1.335,2.669,11.7,23.647,11.512,36.5a23.045,23.045,0,0,1-7.98,4.517A16.269,16.269,0,0,0,7.45,88.918c-2.725,4.744-3.959,12.465,2.009,24.373,11.936,23.816,22.758,45.429,25.76,61.241L97.35,155.653s-6.874-24.97-10.548-43.864" transform="translate(3.681 28.741)" fill="#fa9778"/>
        <path id="Trazado_177370" data-name="Trazado 177370" d="M45.183,56.961C29.332,64.051,15,46.9,14.472,46.261A20.323,20.323,0,0,0,28.8,51.125a33.733,33.733,0,0,0,12.81-3.188c.031-.021.063-.031.094-.053a38.593,38.593,0,0,0,3.476,9.078" transform="translate(10.269 32.826)" fill="#450d20"/>
        <path id="Trazado_177371" data-name="Trazado 177371" d="M99.726,142.006C90.6,143.636,42.58,152.47,30.979,159.44a1.274,1.274,0,0,1-1.944-.906,122.544,122.544,0,0,0-4.912-22c-.181-.593-.38-1.169-.593-1.763-.115-.33-.231-.66-.362-.973-.2-.576-.412-1.137-.643-1.7a60.4,60.4,0,0,0-3.212-6.92c-6.476-11.815-16.265-30.073-14.5-42.861a14.47,14.47,0,0,1,6.707-10.085l11.716-7.4s19.609,6.442,33.484-7.7c0,0,17.4,3.378,18.621,3.164,1.251-.214,8.057,4.927,11.138,27.8,2.67,19.971,11.914,45.907,14.222,52.2a1.271,1.271,0,0,1-.973,1.7" transform="translate(3.266 40.547)" fill="#b4cbdd"/>
        <path id="Trazado_177372" data-name="Trazado 177372" d="M52.291,69.114A16.724,16.724,0,0,0,41.326,58.931l.373-1.605a18.162,18.162,0,0,1,12.14,11.223Z" transform="translate(29.324 40.677)" fill="#450d20"/>
        <path id="Trazado_177373" data-name="Trazado 177373" d="M34.6,105.975l-.945-1.349c.089-.063,9.1-6.466,12.834-15.1l1.513.653c-3.922,9.069-13.015,15.526-13.4,15.8" transform="translate(23.884 63.525)" fill="#450d20"/>
        <path id="Trazado_177374" data-name="Trazado 177374" d="M38.707,110.05l-1.322-.988c.115-.152,11.5-15.4,13.292-21.471l1.578.467c-1.874,6.353-13.071,21.356-13.548,21.992" transform="translate(26.527 62.153)" fill="#450d20"/>
        <path id="Trazado_177375" data-name="Trazado 177375" d="M23.535,103.687l-.248,1.631-7.02-1.005c-.181-.593-.38-1.169-.593-1.763Z" transform="translate(11.122 72.767)" fill="#450d20"/>
        <path id="Trazado_177376" data-name="Trazado 177376" d="M20.623,99.569l-4.895,4.944c-.2-.578-.412-1.137-.643-1.7l4.368-4.4Z" transform="translate(10.705 69.833)" fill="#450d20"/>
        <path id="Trazado_177377" data-name="Trazado 177377" d="M97.916,38.412c6.031-3.058,10.338-7.881,9.052-11.08-1.443-3.594-6.638-5.572-6.638-5.572.937-1.687,8.156-13.513,6.481-14.118S92.459,24.007,92.459,24.007c-2.628-4.382-10.4-9.088-7.543-2.894S86.46,37.837,86.46,37.837l.036.007C86.3,39.538,82.8,70.36,78.724,102.57c-21.342,1.949-41.36,3.546-51.915,3.787a48.98,48.98,0,0,0-12.083,1.6c-10.481,2.963-12.912,16.8-3.855,22.859,3.554,2.381,8.724,4.147,16.268,4.2a384.751,384.751,0,0,0,47.584-2.05c6.6-.744,13.528-1.742,20.631-3.081a13.856,13.856,0,0,0,11.191-12.7c.395-5.607.633-11.41.65-17.345.065-19.787-2.3-41.018-9.28-61.427" transform="translate(3.749 5.412)" fill="#fa9778"/>
        <path id="Trazado_177378" data-name="Trazado 177378" d="M50.247,64.589V97.408S1.883,104.925,4.781,77.96c0,0,.289-19.824,45.466-13.371" transform="translate(3.304 44.914)" fill="#b4cbdd"/>
        <path id="Trazado_177379" data-name="Trazado 177379" d="M33.958,88.315C18,88.315,7.928,81.275,7.8,81.184l.957-1.34c.157.109,15.841,11.025,39.055,5.024l.41,1.6a56.825,56.825,0,0,1-14.265,1.851" transform="translate(5.535 56.656)" fill="#450d20"/>
        <path id="Trazado_177380" data-name="Trazado 177380" d="M31.324,64.784V94.812l5.761-30.478Z" transform="translate(22.227 45.65)" fill="#450d20"/>
        <path id="Trazado_177381" data-name="Trazado 177381" d="M61.438,52.968C57.844,40.6,53.237,26.261,45.173,16c-7.054-8.98-26.924-7.267-36.5,8C4.227,31.09,5.851,41,8.855,49.595a4.834,4.834,0,0,0-.879-.082c-2.85.145-4.9,2.949-4.941,5.681a7.5,7.5,0,0,0,2.742,5.689,9.444,9.444,0,0,0,5.144,2.18,12.087,12.087,0,0,0,3.636-.723,27.462,27.462,0,0,0,13.15,12.118,24.843,24.843,0,0,0,21.765-1.026c5.277-2.881,12.518-9.023,12.81-15.5a15.459,15.459,0,0,0-.845-4.965" transform="translate(2.153 7.476)" fill="#fa9778"/>
        <path id="Trazado_177382" data-name="Trazado 177382" d="M28.6,28.192c.574,1.889,1.787,3.193,2.71,2.913s1.205-2.04.631-3.929-1.787-3.192-2.71-2.911S28.021,26.3,28.6,28.192" transform="translate(20.08 17.191)" fill="#450d20"/>
        <path id="Trazado_177383" data-name="Trazado 177383" d="M23.473,29.747c.574,1.889.291,3.647-.631,3.927s-2.137-1.022-2.71-2.911-.292-3.648.631-3.927,2.135,1.022,2.71,2.911" transform="translate(14.074 19.015)" fill="#450d20"/>
        <path id="Trazado_177384" data-name="Trazado 177384" d="M35.931,32.472A8.553,8.553,0,0,1,34.283,36.1a6.673,6.673,0,0,1-3.363,2.378,6.761,6.761,0,0,1-4.113-.154,12.8,12.8,0,0,1-1.831-.845c-.547-.386-1.086-.776-1.588-1.2.631.221,1.222.48,1.814.727.624.159,1.212.41,1.826.516a7.21,7.21,0,0,0,3.588-.065,7.044,7.044,0,0,0,3.045-1.9,15.1,15.1,0,0,0,2.27-3.086" transform="translate(16.596 23.041)" fill="#450d20"/>
        <path id="Trazado_177385" data-name="Trazado 177385" d="M30.623,36.821a2.864,2.864,0,0,1-1.578,1.13,3,3,0,0,1-1.94-.062,9.491,9.491,0,0,0,1.821-.337,7.921,7.921,0,0,0,1.7-.732" transform="translate(19.233 26.127)" fill="#450d20"/>
        <path id="Trazado_177386" data-name="Trazado 177386" d="M24.217,21.483a4.147,4.147,0,0,0-2.879-.173A8.327,8.327,0,0,0,18.7,22.539a7.041,7.041,0,0,0-2.005,2.128A7.356,7.356,0,0,0,15.683,27.3a.836.836,0,0,0,1.537.6l.05-.082A10.277,10.277,0,0,1,18.521,26a6.106,6.106,0,0,1,1.593-1.3,7.462,7.462,0,0,1,1.916-.792,7.912,7.912,0,0,0,2.072-.762l.195-.116a.874.874,0,0,0-.08-1.547" transform="translate(11.115 14.996)" fill="#450d20"/>
        <path id="Trazado_177387" data-name="Trazado 177387" d="M25.6,20.765a4.145,4.145,0,0,1,2.3-1.745,8.383,8.383,0,0,1,2.875-.446,7.05,7.05,0,0,1,2.85.653,7.385,7.385,0,0,1,2.3,1.621.836.836,0,0,1-.944,1.354L34.9,22.16a10.274,10.274,0,0,0-2.046-.809,6.01,6.01,0,0,0-2.05-.195,7.344,7.344,0,0,0-2.031.409,7.918,7.918,0,0,1-2.147.518L26.4,22.1a.875.875,0,0,1-.795-1.332" transform="translate(18.077 13.177)" fill="#450d20"/>
        <path id="Trazado_177388" data-name="Trazado 177388" d="M26.261,23.879c.687,1.2,1.294,2.412,1.916,3.607s1.248,2.381,1.971,3.469c.174.275.357.544.552.8a3.316,3.316,0,0,1,.626,1.015,2.325,2.325,0,0,1-.583,2.392,2.819,2.819,0,0,1-2.146.78,5.539,5.539,0,0,1-2.04-.508c1.335.085,2.843.012,3.493-.882a1.374,1.374,0,0,0,.222-1.4,2.564,2.564,0,0,0-.48-.684c-.227-.28-.438-.569-.633-.863a18.931,18.931,0,0,1-1.822-3.744,21.768,21.768,0,0,1-1.077-3.98" transform="translate(18.634 16.944)" fill="#450d20"/>
        <path id="Trazado_177389" data-name="Trazado 177389" d="M4.727,34.83a14.993,14.993,0,0,1,4.047,1.617A11.668,11.668,0,0,1,12,39.136l.732-.9a13.531,13.531,0,0,0-3.458-1.349,5.179,5.179,0,0,0-2-.091,2.257,2.257,0,0,0-1.727,1.4,3.389,3.389,0,0,0,.976,3.717,4.932,4.932,0,0,0,3.347,1.368,5.323,5.323,0,0,1-2.828-1.84,2.665,2.665,0,0,1-.511-2.812c.321-.809,1.4-.788,2.474-.547a15.132,15.132,0,0,1,3.156,1.195l.031.015a.586.586,0,0,0,.7-.918,10.679,10.679,0,0,0-3.761-2.657,10.937,10.937,0,0,0-4.411-.882" transform="translate(3.354 24.713)" fill="#450d20"/>
        <path id="Trazado_177390" data-name="Trazado 177390" d="M6.61,57.563s2.381-3.011,5.214-1.1a52.078,52.078,0,0,0,5.647,3.04,2.251,2.251,0,0,0,3.173-2.511L18.349,46.469a11.706,11.706,0,0,1,1.641-8.909c3.118-4.777,8.772-11.892,15.554-13.458,0,0-.188,3.361-2.248,4.547,0,0,9.527-3.038,12.671-7.929,0,0,2.981,3.535,4,5.141,0,0,6.339-12.634-2.046-24.04,0,0-17.99,10.059-25.645,11.844C14.829,15.4,4.438,24.123,6.321,33.87c0,0-14.413,2.467.289,23.693" transform="translate(0 1.293)" fill="#450d20"/>
        <path id="Trazado_177391" data-name="Trazado 177391" d="M210.743,370.669a2.133,2.133,0,0,0-2.147-.359c-13.164,4.612-32.5-3.467-32.5-3.467l-.39-.029c.074-2.787.925-35.559,1.419-75.787.1-8.953.186-22.91.243-34.79a71.67,71.67,0,0,0-12.577-40.931c-13.275-19.325-26.377-37.939-37.318-52.592-8.572-11.5-15.814-20.566-20.761-25.625-9.338-9.562-17.783-17.792-25.22-24.387-12.557,1.292-24.953,3.592-37.351,6.045l-2.534,18.128,95.9,109.1,14.548,120.7c-.708,5.655-1.706,15.239-.8,17.711A4.147,4.147,0,0,0,156.018,387l53.814-11.379a2.082,2.082,0,0,0,1.443-1.08,2.98,2.98,0,0,0-.532-3.872" transform="translate(29.524 79.971)" fill="#f28e6f"/>
        <path id="Trazado_177392" data-name="Trazado 177392" d="M169.456,271.121l-4.847,1.154-.065.015-.347.082-.231.05-52.118,12.492a5.123,5.123,0,0,1-6.312-5.011l.017-1.268v-2.01l.1-17.2.559-.015,24.273-.99,3.065-.132,1.236,3.857s3.576,7.151,19.081,2.9c9.179-2.5,13.776-.115,15.983,2.258a6.922,6.922,0,0,1,.675.79,1.932,1.932,0,0,1-1.069,3.033" transform="translate(74.886 183.273)" fill="#b4cbdd"/>
        <path id="Trazado_177393" data-name="Trazado 177393" d="M170.644,265.04l-4.515,1.038-58.3,13.579-.956.214a5.05,5.05,0,0,1-1.038-1.45l.395-.1,59.6-13.875,3.806-.891a7.459,7.459,0,0,1,.675.792,1.873,1.873,0,0,1,.33.692" transform="translate(75.099 187.014)" fill="#450d20"/>
        <path id="Trazado_177394" data-name="Trazado 177394" d="M90.439,194.121,126.085,171.7l-4.043-5.84Z" transform="translate(64.173 117.689)" fill="#450d20"/>
        <path id="Trazado_177395" data-name="Trazado 177395" d="M130.394,259.632l-24.255.992-.489-4.062Z" transform="translate(74.966 182.051)" fill="#450d20"/>
        <path id="Trazado_177396" data-name="Trazado 177396" d="M89.19,196.633c-2.361-14.145-4.65-25.522-6.734-32.285-6.3-20.488-12.126-36.925-17.622-47.817l-1.292.256c-8.254,1.645-16.5,3.25-24.7,5.137-1.265.291-2.5.576-3.725.851l-4.447,9.307,5.483,48.056,23.862,95.116-42.3,113.976C14.5,393.936,9.226,402,8.9,404.614a4.147,4.147,0,0,0,3.029,4.508l53.055,14.509a2.082,2.082,0,0,0,1.778-.3,2.98,2.98,0,0,0,1.3-3.686,2.135,2.135,0,0,0-1.745-1.3c-13.813-1.923-27.31-17.956-27.31-17.956l-.333-.2c1.34-2.443,17.1-31.195,35.944-66.737,5.79-10.938,15.918-30.391,21.819-41.748a32.393,32.393,0,0,0,3.407-18.917c-3.4-27.5-7.1-54.941-10.656-76.148" transform="translate(6.295 82.688)" fill="#fa9778"/>
        <path id="Trazado_177397" data-name="Trazado 177397" d="M70.839,312.739a1.9,1.9,0,0,1-.164,1.055,1.918,1.918,0,0,1-2.275,1.021L11.616,298.008a5.126,5.126,0,0,1-3.641-5.455,4.685,4.685,0,0,1,.444-1.581c.067-.149.149-.313.231-.462l10.333-17.68,1.2.626,21.6,11.321,1.927,1.005-.857,3.954s-.181,3.033,3.346,6.312a6.973,6.973,0,0,0,.527.477c2.226,1.9,5.719,3.824,11.222,5.257,9.526,2.5,12.179,7.086,12.771,10.283.05.231.084.462.116.675" transform="translate(5.639 193.594)" fill="#b4cbdd"/>
        <path id="Trazado_177398" data-name="Trazado 177398" d="M70.828,305.209a1.9,1.9,0,0,1-.164,1.055l-3.527-1.2h-.017L9.676,285.6l-1.713-.578a4.684,4.684,0,0,1,.444-1.581l1.862.626,58.218,19.725,2.224.742c.05.231.084.462.116.675" transform="translate(5.65 201.124)" fill="#450d20"/>
        <path id="Trazado_177399" data-name="Trazado 177399" d="M77.79,188.948l1.224,9.2-44.948-6.445Z" transform="translate(24.172 134.074)" fill="#450d20"/>
        <path id="Trazado_177400" data-name="Trazado 177400" d="M36.719,286.054,15.1,274.741l1.38-3.718Z" transform="translate(10.715 192.312)" fill="#450d20"/>
        <path id="Trazado_177401" data-name="Trazado 177401" d="M174.471,199.768l-1.072-1.286-58.958-70.4a.016.016,0,0,0-.017-.015.278.278,0,0,0-.065-.084,10.648,10.648,0,0,0-1.516-1.812l-3.889-3.592-1.286-1.171L92.08,107.061l-5.537,1.45-1.713.444-51.412,13.43-1.6.429-3.954,1.038-1.633.429-7.283,1.894s-5.669,31.49,21.883,117.407c.181.545.347,1.089.528,1.633.494,1.515.988,3.048,1.5,4.6l48.084-2.884-.561-4.5-.214-1.633L82.193,177.72s1.2-.906,3.147-2.5L133.474,232.3l1.07,1.251,4.088,4.862,39-34.869Z" transform="translate(13.104 75.968)" fill="#69ceff"/>
        <path id="Trazado_177402" data-name="Trazado 177402" d="M48.678,158.309l-.395-1.6c.113-.027,11.353-2.917,21.929-14.723l1.226,1.1C60.5,155.3,49.155,158.191,48.678,158.309" transform="translate(34.26 100.75)" fill="#450d20"/>
        <rect id="Rect치ngulo_44640" data-name="Rect치ngulo 44640" width="1.648" height="66.553" transform="translate(103.425 248.669) rotate(-41.099)" fill="#450d20"/>
        <path id="Trazado_177403" data-name="Trazado 177403" d="M44.052,229.693l-1.566.494C24.855,174.145,23.141,129.028,23.009,117.312l1.633-.429c.015,3.559.2,10.76,1.053,20.812.05.544.1,1.087.149,1.646a432.3,432.3,0,0,0,18.209,90.351" transform="translate(16.327 82.938)" fill="#450d20"/>
        <path id="Trazado_177404" data-name="Trazado 177404" d="M81.409,121.982a8.886,8.886,0,0,1-4.582,1.269,10.262,10.262,0,0,1-1.862-.181c-7.859-1.433-15.407-11.468-17.68-14.714L59,107.91c2.539,3.51,9.459,12.292,16.265,13.545a7.39,7.39,0,0,0,4.86-.643Z" transform="translate(40.648 76.571)" fill="#450d20"/>
        <path id="Trazado_177405" data-name="Trazado 177405" d="M29.883,136.59a6.931,6.931,0,0,1-4.977,3.361,2.458,2.458,0,0,1-.345.067l-.231-1.631a3.209,3.209,0,0,0,.427-.084,5.379,5.379,0,0,0,3.725-2.57c3.1-5.125.263-15.721-.824-19.281l1.6-.427c1.169,3.806,4.1,14.846.626,20.564" transform="translate(17.264 82.33)" fill="#450d20"/>
        <path id="Trazado_177406" data-name="Trazado 177406" d="M81.1,186.921l-49.022,2.785c-.181-.544-.347-1.087-.528-1.631l49.337-2.785Z" transform="translate(22.386 131.478)" fill="#450d20"/>
        <path id="Trazado_177407" data-name="Trazado 177407" d="M126.736,161.823,86.809,195.6l-1.07-1.251,39.925-33.814Z" transform="translate(60.838 113.914)" fill="#450d20"/>
      </g>
    </g>
  </g>
</svg>
