<svg xmlns="http://www.w3.org/2000/svg" xmlns:xlink="http://www.w3.org/1999/xlink" width="793" height="206" viewBox="0 0 793 206">
  <defs>
    <clipPath id="clip-path">
      <rect id="Rectángulo_42658" data-name="Rectángulo 42658" width="141.041" height="569.712" fill="none"/>
    </clipPath>
  </defs>
  <g id="_19" data-name="19" transform="translate(-561 -4550)">
    <path id="Trazado_156666" data-name="Trazado 156666" d="M0,0H793V206H0Z" transform="translate(561 4550)" fill="#88d6ff"/>
    <g id="Grupo_169588" data-name="Grupo 169588" transform="translate(1235.083 4582.48) rotate(90)">
      <g id="Grupo_169587" data-name="Grupo 169587" clip-path="url(#clip-path)">
        <path id="Trazado_161013" data-name="Trazado 161013" d="M47.918,73.862s-7.337,4.126-11.433,19.527,1.581,27.434-16.516,47.876-26.063,40.782-14,37.72L11.5,176.97s-15.345,34.14,2.159,19.913l7.446-6.937s1.739,24.637,19.519,5.178c0,0,1.6-28.447,9.8-33.788l14.494-5.325.1-.892c.671-6.855,1.381-14.582-1.708-25.54-4.642-.464-35.091-21.976-15.394-55.717" transform="translate(0.134 46.41)" fill="#722e8e"/>
        <path id="Trazado_161014" data-name="Trazado 161014" d="M53.748,153.6c-1.8-9.15-2.2-24.459-2.2-24.459l.361-.127c21.307-7.455,27.649-34.781,17.855-53.473,7.617,11.9,8.585,26.661,10.351,40.679,1.14,9.044,2.929,18.364,7.277,26.475,4.366,8.145,12.574,13.613,15.976,22.36,2.923,7.52-1.623,10.192-8.664,7.632,0,0,11.273,34.557-10.784,10.539,0,0-1.842,22.033-11.4,11.983l.949-20.657s-1.334-12.134-9.667-18.434Z" transform="translate(32.391 47.463)" fill="#722e8e"/>
        <path id="Trazado_161015" data-name="Trazado 161015" d="M87.3,105.235c-2.941-25-27.016-89.07-33.189-101.465-5.37-10.783-5.668,10.048-2.675,16.912,4.538,10.407,1.229,8.576,1.229,8.576-12.5-6.126,1.446,8.824,1.446,8.824s13.746,15.686,23.059,67.153c7.21,39.845-3.346,75.208-8.484,89.155-1.5,4.068-6.054,19.507.27,28.011,5.25,7.06,7.075,1.22,7.075,1.22,1.241-2.454,3.5-5.416,4.533-8.062,13.9-35.659,9.472-87.051,6.735-110.323" transform="translate(29.825 0.458)" fill="#ef9d89"/>
        <path id="Trazado_161016" data-name="Trazado 161016" d="M64.139,38.083s13.942-14.95,1.446-8.822c0,0-3.309,1.829,1.229-8.578,2.993-6.863,2.7-27.695-2.675-16.912C57.966,16.165,21.048,92.143,13.3,118.143,6.427,141.236-.408,176.4,26.747,215.975c1.974,2.876,7.756,12.854,13.023,13.074,3.846.16,7.394-4.17,7.567-9.2.321-9.295-5.344-16.567-6.541-18.019-8.313-10.081-27.815-39.163-16.381-79.352,13.689-48.127,39.723-84.4,39.723-84.4" transform="translate(4.486 0.458)" fill="#ef9d89"/>
        <path id="Trazado_161017" data-name="Trazado 161017" d="M75.493,303.081c.243.726,15.733,72.132,15.733,72.132s-27.594,10.166-44.053,0l15.976-72.858Z" transform="translate(29.64 189.98)" fill="#1b1bff"/>
        <path id="Trazado_161018" data-name="Trazado 161018" d="M69.838,304.437c.243.726,4.6,55.673,4.6,55.673s-8.956,3.872-20.574,0l9.2-55.43Z" transform="translate(33.843 191.288)" fill="#54dfff"/>
        <path id="Trazado_161019" data-name="Trazado 161019" d="M77.174,180.6c-17.319,1.633-27.776,21.24-29.706,26.247,0,0,.212,2.446.586,6.728,8.282-7.8,17.635-14.251,28.195-18.293.191-8.013.484-13.31.925-14.683" transform="translate(29.826 113.478)" fill="#d38171"/>
        <path id="Trazado_161020" data-name="Trazado 161020" d="M76.023,189.62c-10.56,4.04-19.913,10.495-28.195,18.291,2.744,31.42,14.245,162.8,15.394,170.281,1.308,8.5,9.15,11.763,11.765,0,2.221-10-.041-143.193,1.036-188.573" transform="translate(30.052 119.145)" fill="#ef9d89"/>
        <path id="Trazado_161021" data-name="Trazado 161021" d="M31.74,303.566c-.243.726-13.554,71.647-13.554,71.647s27.594,10.167,44.053,0L46.263,302.356Z" transform="translate(11.427 189.981)" fill="#1b1bff"/>
        <path id="Trazado_161022" data-name="Trazado 161022" d="M28.578,304.828c-.243.726-2.662,55.188-2.662,55.188s8.956,3.874,20.574,0l-9.2-55.43Z" transform="translate(16.284 191.381)" fill="#54dfff"/>
        <path id="Trazado_161023" data-name="Trazado 161023" d="M24.765,189.04c1.011,41.47,4.037,170.724,2.809,184.614-.837,9.475,8.15,18.627,13.869,5.554,4.022-9.2,6.393-119.9,10.806-162.368a47.238,47.238,0,0,0-27.483-27.8" transform="translate(15.561 118.78)" fill="#ef9d89"/>
        <path id="Trazado_161024" data-name="Trazado 161024" d="M24.571,181.2s.12,4.755.316,12.76a47.231,47.231,0,0,1,27.483,27.8c.791-7.609,1.648-13.041,2.591-15.292C49.732,187.05,24.571,181.2,24.571,181.2" transform="translate(15.439 113.857)" fill="#d38171"/>
        <path id="Trazado_161025" data-name="Trazado 161025" d="M64.443,130.063l5.818,1.465s3.266,33.708-16.482,34.747c-23.609-.148-18.858-31.629-18.858-31.629l7.127-2.968c.529-4.9,1.716-13,1.3-18.685,6.349.843,13.084,1.623,19.268,1.091a156.887,156.887,0,0,0,1.824,15.979" transform="translate(21.696 70.997)" fill="#ef9d89"/>
        <path id="Trazado_161026" data-name="Trazado 161026" d="M78.575,72.66c-9.449,3.06-19.346.217-24.046-7.6-.143.016-.283.054-.427.075-2.837,8.624-12.685,12.4-22.3,14.421a38.608,38.608,0,0,0-6.43,21.533c0,20.033,14.7,36.273,32.842,36.273s32.84-16.239,32.84-36.273A37.661,37.661,0,0,0,78.575,72.66" transform="translate(15.943 40.879)" fill="#ef9d89"/>
        <path id="Trazado_161027" data-name="Trazado 161027" d="M59.8,117.054c-.319-4.807-.375-8.48-.375-8.48-11.716,3.612-20.406-.3-20.406-.3a34.056,34.056,0,0,1,1.513,7.692c6.349.843,13.084,1.625,19.268,1.093" transform="translate(24.516 68.029)" fill="#bf6f6b"/>
        <path id="Trazado_161028" data-name="Trazado 161028" d="M37.252,129.3a.813.813,0,0,1-.287-1.575,20.042,20.042,0,0,1,10.513-.975c.428.073.85.164,1.273.252a.814.814,0,1,1-.337,1.593c-.405-.085-.811-.169-1.22-.243a18.47,18.47,0,0,0-9.656.9.768.768,0,0,1-.287.052" transform="translate(22.895 79.448)" fill="#bf6f6b"/>
        <path id="Trazado_161029" data-name="Trazado 161029" d="M48.592,129.348a.814.814,0,0,1-.389-1.529c3.011-1.643,6.9-1.908,11.555-.778a.813.813,0,1,1-.381,1.581c-4.253-1.027-7.749-.817-10.4.627a.818.818,0,0,1-.389.1" transform="translate(30.021 79.392)" fill="#bf6f6b"/>
        <path id="Trazado_161030" data-name="Trazado 161030" d="M46.966,64.909a29.994,29.994,0,0,0-3.687.243c4.7,7.819,14.6,10.661,24.046,7.6a30.794,30.794,0,0,0-20.359-7.844" transform="translate(27.194 40.785)" fill="#722e8e"/>
        <path id="Trazado_161031" data-name="Trazado 161031" d="M51.622,65.1a32.377,32.377,0,0,0-22.3,14.422c9.615-2.026,19.463-5.8,22.3-14.422" transform="translate(18.424 40.907)" fill="#722e8e"/>
        <path id="Trazado_161032" data-name="Trazado 161032" d="M47.168,81.486a29.74,29.74,0,0,1-6.456-.78c-.29-.065-.487-.112-.576-.119a.5.5,0,0,1-.464-.51.481.481,0,0,1,.477-.471,4.225,4.225,0,0,1,.775.143c8.467,1.887,14.417.213,17.677-4.979a.49.49,0,0,1,.83.521c-2.587,4.123-6.7,6.194-12.263,6.194" transform="translate(24.927 46.838)" fill="#ff0dd1"/>
        <path id="Trazado_161033" data-name="Trazado 161033" d="M48.855,92.4a14.608,14.608,0,0,1-5.875-1.451.49.49,0,0,1,.451-.87c.306.161,7.5,3.8,10.488-1.441a.49.49,0,1,1,.852.485A6.389,6.389,0,0,1,48.855,92.4" transform="translate(26.84 55.537)" fill="#bf6f6b"/>
        <path id="Trazado_161034" data-name="Trazado 161034" d="M35.613,77.987a8.673,8.673,0,0,1-5.155-2.032.49.49,0,1,1,.646-.736c.024.021,2.446,2.123,5.183,1.742A6.148,6.148,0,0,0,40.5,73.882a.491.491,0,1,1,.822.536,7.074,7.074,0,0,1-4.908,3.516,5.859,5.859,0,0,1-.8.054" transform="translate(19.033 46.283)" fill="#182ca0"/>
        <path id="Trazado_161035" data-name="Trazado 161035" d="M56.4,75.054c-2.822,0-4.953-2.612-5.045-2.724a.49.49,0,0,1,.764-.616c.02.024,2.006,2.368,4.354,2.358a4.892,4.892,0,0,0,3.716-2.342.489.489,0,1,1,.786.583c-1.327,1.786-2.837,2.708-4.489,2.739l-.086,0" transform="translate(32.201 44.946)" fill="#182ca0"/>
        <path id="Trazado_161036" data-name="Trazado 161036" d="M43.206,77.762a.494.494,0,0,1-.427-.247c-.127-.223-.248-.435,1.628-5.549l.223-.612L49.9,75.2a.49.49,0,0,1-.578.791l-4.211-3.079c-.694,1.917-1.356,3.885-1.413,4.294a.493.493,0,0,1-.244.49.5.5,0,0,1-.243.064" transform="translate(26.84 44.834)" fill="#bf6f6b"/>
        <path id="Trazado_161037" data-name="Trazado 161037" d="M64.771,78.547A4.852,4.852,0,1,0,59.918,83.4a4.852,4.852,0,0,0,4.852-4.852" transform="translate(34.6 46.305)" fill="#dd7662"/>
        <path id="Trazado_161038" data-name="Trazado 161038" d="M39.028,82.651A4.852,4.852,0,1,0,34.174,87.5a4.853,4.853,0,0,0,4.854-4.852" transform="translate(18.425 48.884)" fill="#dd7662"/>
        <path id="Trazado_161039" data-name="Trazado 161039" d="M90.422,146.044s-3.647,3.745-6.916-4.424-2.4-12.34-2.752-16.077l-4.979-1.348c1.8,9.15-.891,33.41-16.334,33.41-11.879,0-19.239-13.538-17.376-30.806l-9.111,3.527c3.165,11.711,4.173,14.732-.728,19.306-4.092,3.818-4.934-.5-7.073-1.552l-.583,68.947s25.163,5.846,30.39,25.265c2.358,2.594,6.544.907,6.893,0,1.931-5.005,12.388-24.612,29.707-26.245Z" transform="translate(15.439 78.036)" fill="#b509a5"/>
        <path id="Trazado_161040" data-name="Trazado 161040" d="M33.792,146.753l.015-.147q-.6,1.439-1.194,2.877c.028-.026.054-.054.081-.08L29.815,150.6l.148-.015a4.374,4.374,0,0,0,2.877-1.192,4.14,4.14,0,0,0,1.194-2.879c-.091-2.031-1.8-4.287-4.071-4.071a4.5,4.5,0,0,0-3.066,1.247,4.822,4.822,0,0,0-1.247,3.066,4.085,4.085,0,0,0,4.071,4.071,4.18,4.18,0,0,0,4.071-4.071" transform="translate(16.109 89.491)" fill="#fff"/>
        <path id="Trazado_161041" data-name="Trazado 161041" d="M36.946,157.415c5.238,0,5.248-8.142,0-8.142s-5.248,8.142,0,8.142" transform="translate(20.744 93.793)" fill="#fff"/>
        <path id="Trazado_161042" data-name="Trazado 161042" d="M36.694,149.3c5.238,0,5.248-8.142,0-8.142s-5.248,8.142,0,8.142" transform="translate(20.585 88.693)" fill="#fff"/>
        <path id="Trazado_161043" data-name="Trazado 161043" d="M29.96,161.725c5.238,0,5.248-8.142,0-8.142s-5.248,8.142,0,8.142" transform="translate(16.354 96.501)" fill="#fff"/>
        <path id="Trazado_161044" data-name="Trazado 161044" d="M35.014,172.874c5.238,0,5.248-8.142,0-8.142s-5.248,8.142,0,8.142" transform="translate(19.53 103.507)" fill="#fff"/>
        <path id="Trazado_161045" data-name="Trazado 161045" d="M43.784,165c5.238,0,5.248-8.142,0-8.142s-5.248,8.142,0,8.142" transform="translate(25.04 98.557)" fill="#fff"/>
        <path id="Trazado_161046" data-name="Trazado 161046" d="M48.24,152.007v.243a4.071,4.071,0,0,0,8.142,0v-.243a4.071,4.071,0,0,0-8.142,0" transform="translate(30.311 92.951)" fill="#fff"/>
        <path id="Trazado_161047" data-name="Trazado 161047" d="M55.082,167.671c5.238,0,5.248-8.142,0-8.142s-5.248,8.142,0,8.142" transform="translate(32.139 100.238)" fill="#fff"/>
        <path id="Trazado_161048" data-name="Trazado 161048" d="M60.879,147.158c5.238,0,5.248-8.142,0-8.142s-5.248,8.142,0,8.142" transform="translate(35.782 87.349)" fill="#fff"/>
        <path id="Trazado_161049" data-name="Trazado 161049" d="M62.663,161.874c5.238,0,5.248-8.142,0-8.142s-5.248,8.142,0,8.142" transform="translate(36.903 96.595)" fill="#fff"/>
        <path id="Trazado_161050" data-name="Trazado 161050" d="M59.092,175.494v.243a4.071,4.071,0,0,0,8.142,0v-.243a4.071,4.071,0,0,0-8.142,0" transform="translate(37.13 107.709)" fill="#fff"/>
        <path id="Trazado_161051" data-name="Trazado 161051" d="M46.311,178.077c5.238,0,5.248-8.142,0-8.142s-5.248,8.142,0,8.142" transform="translate(26.628 106.776)" fill="#fff"/>
        <path id="Trazado_161052" data-name="Trazado 161052" d="M32.487,183.577c5.238,0,5.248-8.142,0-8.142s-5.248,8.142,0,8.142" transform="translate(17.942 110.232)" fill="#fff"/>
        <path id="Trazado_161053" data-name="Trazado 161053" d="M47.054,192.794c5.238,0,5.248-8.142,0-8.142s-5.248,8.142,0,8.142" transform="translate(27.095 116.023)" fill="#fff"/>
        <path id="Trazado_161054" data-name="Trazado 161054" d="M55.975,185.51c5.238,0,5.248-8.142,0-8.142s-5.25,8.142,0,8.142" transform="translate(32.699 111.446)" fill="#fff"/>
        <path id="Trazado_161055" data-name="Trazado 161055" d="M40.811,185.212c5.238,0,5.248-8.142,0-8.142s-5.248,8.142,0,8.142" transform="translate(23.172 111.259)" fill="#fff"/>
        <path id="Trazado_161056" data-name="Trazado 161056" d="M14.533,298.682a.735.735,0,0,1-.414-1.343,13.179,13.179,0,0,0,4.3-16.221,27.321,27.321,0,0,0-3.454-4.908c-2.553-3.136-5.193-6.38-4.883-10.607.179-2.46,1.464-4.888,3.924-7.424.674-.692,1.382-1.352,2.092-2.013a29.449,29.449,0,0,0,3.512-3.649,12.782,12.782,0,0,0,2.793-9.749,13.52,13.52,0,0,0-5.794-8.84.735.735,0,0,1,.857-1.2,14.952,14.952,0,0,1,6.39,9.817,14.21,14.21,0,0,1-3.074,10.859,31.379,31.379,0,0,1-3.682,3.835c-.692.642-1.382,1.285-2.039,1.959-2.21,2.276-3.359,4.4-3.512,6.507-.267,3.644,2.076,6.523,4.558,9.571a28.83,28.83,0,0,1,3.631,5.186,14.692,14.692,0,0,1-4.789,18.088.73.73,0,0,1-.412.127" transform="translate(6.317 146.146)" fill="#1b1bff"/>
        <path id="Trazado_161057" data-name="Trazado 161057" d="M15.094,313.427a.719.719,0,0,1-.368-.1,16.277,16.277,0,0,1-7.788-15.547,32.038,32.038,0,0,1,2.408-8.015c1.36-3.413,2.644-6.635,2.293-10.053-.344-3.319-2.192-6.4-3.822-9.111-5.339-8.887-8.625-18.2,3.363-26.074a.736.736,0,1,1,.809,1.229c-10.379,6.818-8.808,14.271-2.913,24.088,1.71,2.846,3.649,6.072,4.025,9.716.389,3.778-1.023,7.321-2.389,10.75a30.857,30.857,0,0,0-2.312,7.64,14.766,14.766,0,0,0,7.064,14.1.735.735,0,0,1-.37,1.371" transform="translate(1.885 153.569)" fill="#1b1bff"/>
        <path id="Trazado_161058" data-name="Trazado 161058" d="M12.887,172.867a4.119,4.119,0,1,1-4.118-4.116,4.119,4.119,0,0,1,4.118,4.116" transform="translate(2.921 106.032)" fill="#1b1bff"/>
        <path id="Trazado_161059" data-name="Trazado 161059" d="M12.887,187.367a4.119,4.119,0,1,1-4.118-4.116,4.119,4.119,0,0,1,4.118,4.116" transform="translate(2.921 115.143)" fill="#1b1bff"/>
        <path id="Trazado_161060" data-name="Trazado 161060" d="M12.887,201.867a4.119,4.119,0,1,1-4.118-4.116,4.119,4.119,0,0,1,4.118,4.116" transform="translate(2.921 124.254)" fill="#1b1bff"/>
        <path id="Trazado_161061" data-name="Trazado 161061" d="M82.533,216.682a.735.735,0,0,1-.414-1.343,13.179,13.179,0,0,0,4.3-16.221,27.32,27.32,0,0,0-3.454-4.908c-2.553-3.136-5.193-6.38-4.883-10.607.179-2.462,1.464-4.89,3.924-7.424.674-.692,1.382-1.353,2.092-2.013a29.45,29.45,0,0,0,3.512-3.649,12.782,12.782,0,0,0,2.793-9.749,13.52,13.52,0,0,0-5.794-8.84.735.735,0,1,1,.856-1.2,14.952,14.952,0,0,1,6.39,9.817,14.2,14.2,0,0,1-3.074,10.858,31.275,31.275,0,0,1-3.682,3.836c-.692.642-1.382,1.285-2.039,1.959-2.21,2.276-3.359,4.4-3.512,6.507-.267,3.644,2.076,6.523,4.558,9.571a28.83,28.83,0,0,1,3.631,5.186,14.692,14.692,0,0,1-4.789,18.088.73.73,0,0,1-.412.127" transform="translate(49.043 94.623)" fill="#1b1bff"/>
        <path id="Trazado_161062" data-name="Trazado 161062" d="M83.094,231.427a.719.719,0,0,1-.368-.1,16.277,16.277,0,0,1-7.788-15.547,32.038,32.038,0,0,1,2.408-8.015c1.36-3.413,2.644-6.635,2.293-10.053-.344-3.319-2.192-6.4-3.822-9.111-5.339-8.887-8.625-18.2,3.363-26.075a.736.736,0,1,1,.809,1.229c-10.379,6.818-8.808,14.271-2.913,24.09,1.71,2.845,3.649,6.07,4.025,9.715.389,3.778-1.023,7.321-2.389,10.75a30.856,30.856,0,0,0-2.312,7.64,14.764,14.764,0,0,0,7.065,14.1.736.736,0,0,1-.371,1.371" transform="translate(44.612 102.046)" fill="#1b1bff"/>
        <path id="Trazado_161063" data-name="Trazado 161063" d="M83.137,221.089a4.119,4.119,0,1,1-4.118-4.118,4.118,4.118,0,0,1,4.118,4.118" transform="translate(47.062 136.33)" fill="#1b1bff"/>
        <path id="Trazado_161064" data-name="Trazado 161064" d="M83.137,235.589a4.119,4.119,0,1,1-4.118-4.118,4.118,4.118,0,0,1,4.118,4.118" transform="translate(47.062 145.441)" fill="#1b1bff"/>
        <path id="Trazado_161065" data-name="Trazado 161065" d="M83.137,250.089a4.119,4.119,0,1,1-4.118-4.118,4.117,4.117,0,0,1,4.118,4.118" transform="translate(47.062 154.552)" fill="#1b1bff"/>
        <path id="Trazado_161066" data-name="Trazado 161066" d="M11.533,67.182a.735.735,0,0,1-.414-1.343,13.179,13.179,0,0,0,4.3-16.221,27.32,27.32,0,0,0-3.454-4.908C9.408,41.573,6.768,38.33,7.078,34.1c.179-2.462,1.464-4.89,3.924-7.424.674-.692,1.382-1.352,2.092-2.013a29.451,29.451,0,0,0,3.512-3.649A12.782,12.782,0,0,0,19.4,11.268a13.52,13.52,0,0,0-5.794-8.84.735.735,0,1,1,.857-1.2,14.952,14.952,0,0,1,6.39,9.817,14.21,14.21,0,0,1-3.074,10.859A31.38,31.38,0,0,1,14.1,25.744c-.692.642-1.382,1.285-2.039,1.959-2.21,2.276-3.359,4.4-3.512,6.507-.267,3.644,2.076,6.523,4.558,9.571a28.83,28.83,0,0,1,3.631,5.186,14.692,14.692,0,0,1-4.789,18.088.73.73,0,0,1-.412.127" transform="translate(4.432 0.687)" fill="#1b1bff"/>
        <path id="Trazado_161067" data-name="Trazado 161067" d="M12.094,81.927a.719.719,0,0,1-.368-.1A16.277,16.277,0,0,1,3.937,66.281a32.038,32.038,0,0,1,2.408-8.015c1.36-3.413,2.644-6.635,2.293-10.053-.344-3.319-2.192-6.4-3.822-9.111-5.339-8.887-8.625-18.2,3.363-26.075a.736.736,0,1,1,.809,1.229C-1.391,21.075.181,28.528,6.075,38.346c1.71,2.845,3.649,6.07,4.025,9.715.389,3.778-1.023,7.321-2.389,10.75A30.856,30.856,0,0,0,5.4,66.452a14.766,14.766,0,0,0,7.064,14.1.735.735,0,0,1-.37,1.371" transform="translate(0 8.11)" fill="#1b1bff"/>
        <path id="Trazado_161068" data-name="Trazado 161068" d="M77.459,3.269A3.269,3.269,0,1,1,74.191,0a3.268,3.268,0,0,1,3.268,3.268" transform="translate(44.562 0.001)" fill="#1b1bff"/>
        <path id="Trazado_161069" data-name="Trazado 161069" d="M77.459,14.776a3.269,3.269,0,1,1-3.268-3.268,3.269,3.269,0,0,1,3.268,3.268" transform="translate(44.562 7.231)" fill="#1b1bff"/>
        <path id="Trazado_161070" data-name="Trazado 161070" d="M77.459,26.283a3.269,3.269,0,1,1-3.268-3.268,3.268,3.268,0,0,1,3.268,3.268" transform="translate(44.562 14.461)" fill="#1b1bff"/>
      </g>
    </g>
  </g>
</svg>
