<svg xmlns="http://www.w3.org/2000/svg" xmlns:xlink="http://www.w3.org/1999/xlink" width="793" height="206" viewBox="0 0 793 206">
  <defs>
    <clipPath id="clip-path">
      <path id="Trazado_178190" data-name="Trazado 178190" d="M0,0H793V206H0Z" transform="translate(-6173 -10245)" fill="#ffd947"/>
    </clipPath>
    <clipPath id="clip-path-2">
      <rect id="Rectángulo_44735" data-name="Rectángulo 44735" width="804" height="536" transform="translate(-0.107 -0.324)" fill="none"/>
    </clipPath>
  </defs>
  <g id="_20" data-name="20" transform="translate(6173 10245)" clip-path="url(#clip-path)">
    <g id="Grupo_173749" data-name="Grupo 173749" transform="translate(-6157.893 -10350.676)">
      <g id="Grupo_173748" data-name="Grupo 173748" clip-path="url(#clip-path-2)">
        <path id="Trazado_178019" data-name="Trazado 178019" d="M887.22,351.331a6.468,6.468,0,0,0-3.747-1.65,413.5,413.5,0,0,1-68.16-18.941c-3.914-1.809-8.139-2.769-12.095-4.456-1.534-.458-2.986-1.129-4.476-1.7a48.98,48.98,0,0,1-5.493-2.292c-5.875-2.178-11.488-5-17.4-7.088a6.106,6.106,0,0,1-1.783-.583c-24.451-9.866-48.836-19.916-74.244-27.165-2.737-.781-5.42-2.026-8.391-1.32-.562-1.46-2.164-1.576-3.444-1.881a343.22,343.22,0,0,0-54.84-8.48c-4.561.64-9.021-1.31-13.6-.511-4.045.957-2.691,4.077-2.378,6.762-4.572-1.594-4.572-1.594-9.92.164.193-6.941.193-6.941-3.976-7.776-11.184-1.068-22.348.013-33.486.79-4.185.292-8.6-.542-12.622,1.476-2.068,2.215-1.015,4.134,1,5.246,3.167,1.746.765,3.862.016,4.814-.884,1.123-3.659,1.143-4.562.006-.772-.974-3.025-3.13.13-4.823,2-1.072,3.341-2.923.672-4.949a10.371,10.371,0,0,0-4.851-.253c-10.154,1.038-20.3,2.179-30.4,3.625-13.344,1.91-26.708,3.721-39.881,6.656a9.056,9.056,0,0,1-1.949.293c-1.655-.034-3.2.588-4.817.818-20.026,2.85-39.85,6.981-59.94,9.439-1.419.174-3.11.073-3.8,1.86-1,1.21-.647,2.657-.635,4.01.071,8.573,2.138,16.926,2.877,25.427-.046.011-.092.017-.14.03-1.652.828-1.631,2.43-1.765,3.92-.812,8.969-4.475,16.758-9.9,23.788a116.067,116.067,0,0,0-8.792,12.779c-6.057,10.483-11.124,21.548-18.482,31.267-5.943,7.851-12.354,15.348-18.016,23.41-6.877,9.793-10.142,20.263-7.39,32.5,3.048,13.545,5.985,27.123,9.288,40.6C364,530.491,372.7,563.709,381.4,596.923c.451,1.723.864,3.445,2.419,4.575q249.868,0,499.736.075c2.94,0,3.761-.4,3.757-3.611q-.178-123.315-.093-246.631" transform="translate(-83.528 -66.221)" fill="#c5f0f8"/>
        <path id="Trazado_178020" data-name="Trazado 178020" d="M.073,225.221Q.073,114.163,0,3.1C0,.508.51,0,3.105,0Q401.882.115,800.659,0c2.6,0,3.123.506,3.108,3.1-.13,23.247-.076,46.5-.076,69.743-1.646,1.657-3.855,1.77-5.956,2.1-24.323,3.866-48.549,2.885-72.7-1.514-20.382-3.713-40.388-9.113-60.613-13.53a400.459,400.459,0,0,0-68.166-9.362c-40.03-1.741-78.728,4.064-116.142,18.41-7.787,2.986-15.3,6.6-22.926,9.957-1.5.66-2.928,1.514-4.638,1.5-1.6-.1-2.382-1.268-3.115-2.467a5.074,5.074,0,0,0-2.423-2.307c-4.406-1.7-6.047-5.436-7.145-9.608-.9-3.428-.92-7.04-2.016-10.4-.886-2.718-1.661-6.144-4.858-6.716-3.124-.56-4.591,2.648-6.337,4.7-2,2.349-2.927,5.266-3.816,8.183-3.159,10.364-7.709,12.225-18.257,14.361-2.385.483-4.377-.808-6.276-2.151-3.107-2.2-6.277-4.288-10.281-4.431-2.169-.077-4.049.332-4.838,2.714a7.05,7.05,0,0,1-7.2,5.14c-6.644-.127-12.161,4.062-18.625,4.442-1.576.093-1.9,1.453-2.289,2.666-.591,1.823-1.15,3.744-3.385,4.151-2.458.449-3.4-1.586-4.823-3-3.1-3.077-5.812-6.265-6.136-10.892a4.141,4.141,0,0,0-1.346-2.238c-4.119-4.612-5.3-8.133-1.535-12.777,5.194-6.412,3.013-12.124.605-18.269a11.456,11.456,0,0,0-5.952-6.1c-2.647-1.292-4.217-.479-5.256,2.315-.692,1.862-.32,4.089-1.937,5.626-3.546-1.649-6,.09-8.335,2.556a28.662,28.662,0,0,1-4.393,4.068c-.339,4.5-4.5,4.736-7.278,6.527-.828-.13-1.656.1-2.493.036-1.569-.676-3.829-.314-4.2-2.785.663-1.206,1.661-1.44,2.27-1.185-2.45.027-5.517.261-8.585.367-1.547.054-2.225.955-2.141,2.474-.378,3.511-1.777,6.8-2.075,10.343-.462,5.491.829,7.14,6.224,7.37.252.011.506,0,.757.023,1.994.19,4.479,0,4.795,2.63.291,2.435-1.883,3.44-3.826,4.051A19.457,19.457,0,0,0,283.61,90.637c-1.95,4.107-5.934,5.728-10.492,5.259a57.539,57.539,0,0,1-10.395-2.056c-4.286-1.268-6.615-4.4-7.563-8.657-1.209-5.435-3.3-6.439-7.794-2.94-4.57,3.554-8.839,3.768-13.538.669a8.137,8.137,0,0,0-7.911-1.086c-1.58.638-3.063,1.36-3.113,3.361-.043,1.753,1.045,2.756,2.5,3.463a21.731,21.731,0,0,1,2.722,1.324c3.079,2.072,3.367,4.938.77,7.609-.176.181-.369.346-.56.51-4.316,3.664-5.62,4.635-1.147,9.735a7.429,7.429,0,0,1,1.511,3.835,122.426,122.426,0,0,1,1.672,24.515,21.961,21.961,0,0,1-1.583,6.987c-1.332,3.456-.924,7.244-2.322,10.653-1.334.967-2.511.165-3.423-.588-6.263-5.183-13.16-4.565-20.457-2.829-10.656,2.536-16.225,9.491-18.4,19.759-.157.74-.24,1.495-.384,2.238-.929,4.8-1.3,5.124-6.044,5.535-9.592.831-17.184,5.576-23.486,12.481a59.506,59.506,0,0,0-10.055,15.512,43.2,43.2,0,0,1-17.508,19.326c-10.592,6.408-16.641,16.254-20.544,27.653a22.9,22.9,0,0,0-.966,7.1c-.027,1.61.128,3.342-1.47,4.468a41.485,41.485,0,0,1-18.707-2.53c-1.009-2.236-3.65-2.405-5.16-4.036-.522-.566-1.13-.231-1.6.271-1.494,1.611-3.488,1.74-5.492,1.86-25.31-6.629-48.642-17.6-70.387-32.056a4.846,4.846,0,0,1-1.376-1.27,12.468,12.468,0,0,0-.839-1.488" transform="translate(0 0)" fill="#c5f0f8"/>
        <path id="Trazado_178021" data-name="Trazado 178021" d="M137.148,308.405c-.328-17.611,8.418-30.194,22.406-39.609,7.092-4.773,12.811-10.479,16.49-18.287,4.524-9.6,10.324-18.228,19.69-23.909,5.067-3.073,10.435-5.133,16.415-5.05,2.235.031,3.265-.652,3.283-2.945a23.644,23.644,0,0,1,.572-3.74c3.078-18.017,18.347-23.046,32.4-22.007,4.294.318,7.446,3.515,10.671,6.163,1.388.2,1.921,1.57,3.261,2.354,1.552-1.972,2.08-4.444,3.024-6.674a12.475,12.475,0,0,1,8.3-7.7,38.521,38.521,0,0,1,23.116.3,18.273,18.273,0,0,1,11.458,10.816,96.419,96.419,0,0,1,4.347,12.108c1.31,4.745,2.038,5.318,6.972,4.513,6.118-1,12.287-1.329,18.433-1.98a38.356,38.356,0,0,1,7.816,1.182c6.853,1.911,10.723,6.631,12.365,13.391,2.392,10.043,1.64,20.253,1.652,30.424-.536,2.724-.042,5.488-.3,8.223-1.371,3.891-.321,7.839-.251,11.763-.754,6.712.613,13.242,1.546,19.831.478,3.372,1.716,6.878-.13,10.27-.979,5.94-1.558,11.951-4.346,17.476a64.539,64.539,0,0,1-7.443,11.822c-7.145,8.784-11.89,19.023-17.313,28.846-7.37,13.345-17.726,24.52-26.6,36.771-7.032,9.709-10.307,19.964-7.584,32.311,6.22,28.21,13.184,56.226,20.365,84.2q7.807,30.414,15.672,60.813H192.429c-2.621-3.9-2.172-8.488-2.665-12.8q-2.839-24.807-5.825-49.6c-2.424-19.914-5.256-39.771-7.809-59.664-1.974-15.377-6.115-29.751-14.343-43.036-8.18-13.207-15.481-26.922-19.823-41.985a22.125,22.125,0,0,1-.752-2.927c-.243-2.15,1.3-3.165,2.769-4.133a282.755,282.755,0,0,0,35.059-27.588,6.179,6.179,0,0,1,2.911-1.689c3.077-.331,5.493,1.638,8.192,2.539,2.107.7,1.121,2.516-.044,3.622a109.628,109.628,0,0,1-13.745,11.2c9.432-4.3,19.358-8.651,30.184-10.413a10.058,10.058,0,0,0,5.393-2.595,26.515,26.515,0,0,1,18.8-7.515,55.326,55.326,0,0,0,8.264-.9c1.177-.193,2.6-.5,3.182,1.176a5.383,5.383,0,0,1-.811,3.255c-7.427,13.964-7.493,28.459-3.317,43.331,3.234,11.519,8.607,21.693,17.576,29.844a33.065,33.065,0,0,0,17.921,7.913,32.817,32.817,0,0,1-21.63-11.424c-10.785-12.375-15.839-27.071-16.387-43.3-.373-11.063,3.231-21.093,9.266-30.291a41.171,41.171,0,0,0,2.768-4.056,29.775,29.775,0,0,1,5.944-5.514c5.491-3.089,10.481-6.956,16.152-9.82,10.39-5.248,21.369-7.456,32.873-7.794a92.179,92.179,0,0,0,20.23-2.675c.948-.243,2.016-.255,2.9-1.261a23.252,23.252,0,0,0-3.534-3.261c-5.75-5.131-7.6-11.73-7.278-19.129.16-3.642,1.049-4.257,4.476-3.064a30.146,30.146,0,0,0,8.028,2.082,17.737,17.737,0,0,0,10.667-2.5,42.54,42.54,0,0,1-18.5.314c-1.158-.237-2.813-.111-2.991-1.753-.171-1.576,1.334-2.016,2.473-2.456a39.835,39.835,0,0,0,14.461-9.467,17.3,17.3,0,0,0,4.672-10.031c-2.533,1.2-4.3,2.821-6.362,3.949-9.471,5.175-19.163,5.229-28.793.849-11.75-5.345-22.269-12.386-29.535-23.464a34.288,34.288,0,0,0-2.671-3.191,5.079,5.079,0,0,1-.645-1.591c-1.26-5.033-1.921-10.085-.722-14.618a6.284,6.284,0,0,0-.409,1.52c-.153,1.13.479,3.026-1.338,2.938-1.241-.06-1.579-1.784-1.68-3.063a18.945,18.945,0,0,0-.742-2.79,59.089,59.089,0,0,1,2.735,18.593,22.058,22.058,0,0,0,.645,5.609,12.329,12.329,0,0,0,.655,4.748c1.935,9.858,3.846,19.719,5.447,29.638a42.712,42.712,0,0,1,.644,9.74,4.269,4.269,0,0,1-.209,1.242c-3.4,6.7-9.57,9.322-16.371,10.8-7.248,1.573-13.1-.758-17.366-6.9a4.721,4.721,0,0,1-.648-1.014c-3.683-13.755-8.335-27.254-11.113-41.258a41.24,41.24,0,0,0-3.976-10.442c2.352,3.7,3.742,8.911,4.165,14.378a105.685,105.685,0,0,0,3.4,18.208c2.612,10.14,4.535,20.422,6.514,30.7a7.854,7.854,0,0,1-2.494,6.878,34.783,34.783,0,0,1-20.92,8.738,7.624,7.624,0,0,1-4.4-.918,4.948,4.948,0,0,1-2.142-2.131c-4.3-10.227-8.665-20.422-14.508-29.908a47.607,47.607,0,0,0-7.072-8.845,18.92,18.92,0,0,0-14.373-5.786c7.237-.325,11.711,3.637,15.572,9.193,6.262,9.014,9.705,19.361,14.467,29.08,1,2.034,1.909,4.117,2.858,6.179.7,1.51,1.258,3.053.464,4.725a19.311,19.311,0,0,1-15.333,7.632,49.805,49.805,0,0,1-21.764-4.02c-3.948-1.691-5.933-5.363-8.333-8.542-1.838-2.434-3.511-4.931-5.833-6.006a19.925,19.925,0,0,1,3.366,2.7c1.391,1.564,1.206,2.657-.766,3.43-6.078.833-12.169.412-18.253.289a3.2,3.2,0,0,1-3.154-1.6" transform="translate(-33.148 -44.808)" fill="#e29a78"/>
        <path id="Trazado_178022" data-name="Trazado 178022" d="M420.8,197.6c-2.743-9.771-10.176-12.575-19.243-12.953.3-1.984,2.06-2.443,3.47-3.131,20.913-10.2,40.409-22.769,59.761-35.583,22.184-14.69,44.155-29.714,67.445-42.653,3.967-2.2,7.981-4.325,11.945-6.534a9.34,9.34,0,0,1,5.01-1.379c16.09-7.593,32.421-14.552,49.525-19.61,22.395-6.622,45.271-9.953,68.569-11.05,36.544-1.721,72.185,3.887,107.539,12.382,19,4.566,37.968,9.353,57.361,12.122,21.9,3.127,43.752,3.36,65.576-.633a23.383,23.383,0,0,1,3-.168v24.258a6.981,6.981,0,0,1-4.44,1.88c-16.026,2.039-32.048,3.172-48.257,2.084a250.621,250.621,0,0,1-26.511-3.279c10.486,1.835,20.947,3.8,31.585,4.721a215.914,215.914,0,0,0,43.028-.546,5.3,5.3,0,0,1,4.6,1.2v103.1c-4.043,7.171-11.158,10.852-17.7,14.965-16.1,10.128-33.949,15.1-52.836,16.487-1.523.111-2.957.526-4.451.679a13.841,13.841,0,0,1-6.376-1.762q-11.1-4.728-22.47-8.786c-8.263-2.938-16.429-6.181-24.942-8.384-.351-.09-.643-.388-.527-.237,3.526,1.352,7.721,2.238,11.719,3.7,8.739,3.2,17.463,6.433,25.959,10.244a5.23,5.23,0,0,1,2.414,1.755c.327,3.109-2.033,2.775-3.778,2.677a107.14,107.14,0,0,1-44.071-12.1c-11.219-5.813-22.306-11.735-33.019-18.405-7.609-4.736-15.016-9.794-22.845-14.178-2.079-1.164-3.921-2.781-6.592-2.354-2.481.4-2.267-2.355-3.635-3.286-2.434-3.816,1.35-5.111,3.494-7.521-2.6-.687-5.321.085-6.887-2.094a8.324,8.324,0,0,1-1.683-5.972c.911-3.261,3.4-2.95,5.815-2.436,11.477,2.436,22.92,5.022,34.008,8.943,2.847,1.008,5.739,1.895,8.533,3.054-27.751-10.176-56.034-18.02-85.706-20.054a240.52,240.52,0,0,0-35.149-.05c-2.605.2-5.3.343-7.844-.635-2.6-1.914-3.167,1.486-4.9,1.976-1.695.478-.084,1.6.195,2.343.312.836.052,1.76.529,2.543.9.3,1.7-.514,2.552-.264,1.551.458,2.5.4,2.731-1.637.155-1.345,1.536-1.848,2.881-1.975,21.171-.617,42.332-1.26,63.341,2.288,2.606.44,5.28.453,7.829,1.251,1.955.613,3.88,1.261,4.522,3.546.522,2.424-.5,4.344-2,6.106a7.452,7.452,0,0,1-5.9,1.865,8.746,8.746,0,0,0-5.4,1.2,6.757,6.757,0,0,1-5.186-.717c-4.478-2.747-9.657-2.834-14.579-3.367-15.182-1.645-30.413-1.134-45.621-.086a29.694,29.694,0,0,0-7.764,1.511c-6.486,1.336-13.085,1.773-19.656,2.442-4.358-.015-8.551,1.185-12.826,1.765a5.246,5.246,0,0,1-1.19.265,25.869,25.869,0,0,0-7.546,1.349,31.292,31.292,0,0,1-5.791,1.062,27.151,27.151,0,0,0-6.122,1.1,5.4,5.4,0,0,1-1.114.259,16.94,16.94,0,0,0-6.007,1.523c-6.424,1.959-13.149,2.6-19.587,4.49-.974.051-1.906.388-2.878.475a16.435,16.435,0,0,1-3.616.184c-12.925-1.492-25.811-4.146-38.856-.96a48.52,48.52,0,0,1-9.747.842c-1.7.064-3.492-.131-2.746-2.709,2.125-2.45,5.218-3.41,7.852-5.079,5.049-1.7,9.417-4.71,13.985-7.339a5.132,5.132,0,0,1,1.043-.4c12.136-6.355,24.277-12.7,36.813-18.245,2.306-1.021,4.365-1.619,5.391,1.551,1.649.906,3.307-.275,5.072.066,1.711.331.8-2.192,1.725-3.142.563-.58.726-1.383-.323-1.746-1.731-.6-3.076-3.633-5.419-.573-.971,1.268-3.092.64-4.623,1.175-6.43,1.073-11.939,4.5-17.755,7.088-6.637,2.948-13.333,5.828-19.538,9.67a4.463,4.463,0,0,1-2.517.623c-1.58.256-2.725,1.3-3.956,2.194-1.875,1.363-4.26,1.752-6.085,3.214-4.88,2.574-9.951,4.745-14.935,7.1-2.841.722-5.206,2.477-7.851,3.626-3.86,2.2-8.154,3.389-12.165,5.236a7.069,7.069,0,0,1-6.919-.406,55.719,55.719,0,0,0-8.014-4.2c-1.879-.811-3.656-2.143-3.747-4.39-.1-2.418,1.974-3.39,3.813-4.212,30.5-13.626,58.841-31.253,87.969-47.417,7.724-4.286,15.805-7.909,23.267-12.664a10.53,10.53,0,0,1,1.315-.65c.843-.4,2.043-.268,2.375-1.465a.678.678,0,0,0-.437-.878c-1.434-.272-1.774,1.03-2.462,1.823a9.24,9.24,0,0,1-3.26,2.529c-26.147,12.863-51.12,27.883-76.746,41.7-11.539,6.223-23.429,11.757-35.341,17.232-1.746.8-3.5,1.483-5.456.83" transform="translate(-97.06 -15.566)" fill="#009d26"/>
        <path id="Trazado_178023" data-name="Trazado 178023" d="M108.74,427.389c3.216,9.968,6.689,19.835,11.771,29.043,4.2,7.619,8.166,15.392,12.754,22.775,6.8,10.942,9.049,23.154,10.783,35.543,2.5,17.84,4.944,35.69,7.164,53.567,2.36,19,4.435,38.038,6.624,57.06.5,4.377.964,8.758,1.445,13.138q-78.087,0-156.175.073c-2.6.005-3.11-.51-3.106-3.105q.144-84.147.074-168.294a6.172,6.172,0,0,1,2.4-1.57,28.5,28.5,0,0,0,4.515-.843c20.8-3.255,40.74-9.375,60.295-17.114,13.108-5.187,25.336-11.879,37.285-19.213,1.261-.774,2.5-1.834,4.176-1.059" transform="translate(0 -103.24)" fill="#c5f0f8"/>
        <path id="Trazado_178024" data-name="Trazado 178024" d="M960.9,303.1c8.555-1.851,17.341-2.056,25.9-4.268A129.592,129.592,0,0,0,1014,288.187c5.481-2.835,10.146-6.919,15.348-10.177,2.59-1.622,3.474-5.028,6.6-5.991V312.2a11.373,11.373,0,0,1-4.944,3.935c-4.108,1.987-8.522,3.192-12.644,5.09-7.242,3.336-13.8.7-20.4-1.965-3.61-1.644-7.517-2.462-11.178-3.969a27.187,27.187,0,0,0-3.5-1.585c-6.073-2.451-12.166-4.852-18.253-7.27-1.478-.984-3.969-.721-4.13-3.334" transform="translate(-232.26 -65.75)" fill="#009019"/>
        <path id="Trazado_178025" data-name="Trazado 178025" d="M996.871,331.065a42.88,42.88,0,0,1,4.234,1.5c9.2,4.341,17.189-.265,25.332-3.44,2.878-1.121,5.565-2.731,8.339-4.118v38.663c-11.791-1.421-23.277-4.29-34.709-7.39A351.547,351.547,0,0,1,962,343.9c-.972-1.841.416-2.434,1.656-3.053.968-.484,2.174-.471,3.223-1.474-4.585,1.145-7.762.237-9.853-2.662-1.786-2.474-1.141-4.6,1.756-5.535,3.185-1.032,6.239-.148,9.187.963,4.489,1.691,8.917,2.9,13.892,2.589,3.361-.208,6.888.6,10.317,1.125,1.348.207,2.65.817,4.086.356.661-1.247-.7-2.045-.685-3.128.015-.932-.337-2.118,1.3-2.016" transform="translate(-231.083 -78.558)" fill="#00870c"/>
        <path id="Trazado_178026" data-name="Trazado 178026" d="M1033.922,134.124c-10.054.423-20.042,1.789-30.152,1.584-15.267-.309-30.4-1.413-45.151-5.614-1.9-.541-4.061-.222-6.121-1.988,6.128.619,11.791,1.36,17.479,1.73,12.547.815,25.052,1.748,37.7.786,8.78-.668,17.488-1.854,26.25-2.562Z" transform="translate(-230.23 -30.953)" fill="#00841c"/>
        <path id="Trazado_178027" data-name="Trazado 178027" d="M2.458,435.072.1,435.741V297.012l.769.737a9.07,9.07,0,0,1,1.486,4.99q.009,48-.026,95.992A18.007,18.007,0,0,1,2.1,400.6a98.975,98.975,0,0,1-.066,15.217c.5,5.23.165,10.473.212,15.706a8.257,8.257,0,0,0,.207,3.546" transform="translate(-0.023 -71.791)" fill="#0caa47"/>
        <path id="Trazado_178028" data-name="Trazado 178028" d="M776.8,283.718c-9.116-2.922-18.558-4.315-27.938-6.017-10.085-1.831-20.314-2.5-30.448-3.921-4.426-.672-8.792-2.078-13.351-1.1-1.311-1.52.837-2.047.889-3.491-2.172-.579-5.115.444-6.649-2.1-1.051-1.746-1.79-3.637-.893-5.738a1.5,1.5,0,0,1,1.722-.378c3.556,1.081,7.216,1.036,10.869,1a302.42,302.42,0,0,1,39.2,1.807,118.667,118.667,0,0,1,38.643,11.216,37.183,37.183,0,0,1,7.292,5.365,25.469,25.469,0,0,0,9.06,5.32c2.081.628,3.769.38,4.375-2.09.734-1.393,1.82-1.327,2.727-.361,1.225,1.305,2.891,1.4,4.391,1.972a8.138,8.138,0,0,1,1.9,1.106c5.8,3.406,12.308,5.152,18.565,7.283,7.641,2.6,15.154,5.475,22.469,8.79,8.672,3.931,17.92,5.837,26.909,8.656,13.211,4.145,27,4.936,41.039,7.444a29.011,29.011,0,0,1-6.889-2.488c-2-.958-4.122-1.606-6.16-2.465-2.994-1.257-5.816-2.911-8.932-3.891-1.309-.569-2.662-1.038-3.921-1.725-.993-.974-2.742-1.136-3.076-2.829.349-1.834,1.875-2.047,3.3-2.4,6.072,2.517,12.362,4.509,18.205,7.574a2.29,2.29,0,0,0,3.033,1.51,42.666,42.666,0,0,1,11.364,3.8c-1.419,1.287-.136,2.182.4,3.258.419.843,1.713,1.6,1.055,2.583-.754,1.121-2.2,1.139-3.471.879-2.413-.494-4.91-.8-7.251-1.24-6.528-1.219-13.476.432-19.7-3.151a10.8,10.8,0,0,0-9.466-1c-1.026.4-1.79.739-1.489,2.122.673,3.084,6.067,5.367,8.782,3.735.861-.517,1.728-2.737,2.847-.83.9,1.529-.058,3.217-1.812,3.974a6.326,6.326,0,0,1-2.223.288,2.3,2.3,0,0,0-2.549,2.213c-3.878-1.383-7.882-2.436-11.538-4.4-.372-1.185,1.314-2.914-.755-3.59-1.707-.557-2.866.466-3.632,1.953a18.621,18.621,0,0,1-5.457-2.176c1.976-1.62,1.532-5.7,6.134-5.268-2.1-.386-3.126-1.385-4.353-2.007-2.546-1.292-5.2-1.51-7.427.356-2.708,2.27-4.952,1.843-7.243-.42-1.632-1.612-3.159-2.089-4.4.422-13.214-5.179-26.412-10.4-39.645-15.527-13.729-5.322-27.8-9.623-41.9-13.838a11.706,11.706,0,0,0-2.615-.177" transform="translate(-168.717 -63.051)" fill="#00870c"/>
        <path id="Trazado_178029" data-name="Trazado 178029" d="M912.751,328.8a2.092,2.092,0,0,1,.7-3.215c1.395-.965,2.339-.141,3.274.779.807.793,1.582,1.625,2.435,2.365,1.194,1.036,2.706,1.369,3.652.005,2.487-3.587,5.895-2.733,8.892-1.619,2.317.861,4.391,2.556,7.763,3.62-3.613.689-7.484-.466-7.034,4.474.058.642-1.561.346-2.4.507-5.181-1.827-10.425-3.5-15.176-6.366a7.679,7.679,0,0,0-2.109-.551" transform="translate(-220.508 -78.594)" fill="#00870c"/>
        <path id="Trazado_178030" data-name="Trazado 178030" d="M942.683,340.782c-.463-1.116-1.347-3.069.242-3.014,1.851.064,4.184-1.683,5.5.2a2.991,2.991,0,0,1-1.354,4.45,9.922,9.922,0,0,1-4.387-1.636" transform="translate(-227.696 -81.479)" fill="#00870c"/>
        <path id="Trazado_178031" data-name="Trazado 178031" d="M522.642,90.4c-35.694,18.147-68.092,41.6-101.658,63.168a504.993,504.993,0,0,1-45.973,26.112q-10.886,1.2-21.772,2.4c-2.216.245-3.3-.435-3.815-2.928a76.714,76.714,0,0,0-4.782-14.687c-2.907-6.79-8.226-10.127-15.306-11.408a48.053,48.053,0,0,0-15.413.13c-8.776,1.228-10.491,8.376-12.779,15.065-.121.353-.112.749-.2,1.115a8.052,8.052,0,0,1-.413.966c-2.18-1.31-2.856-3.639-4.083-5.524-.391-5.128,1.422-9.831,2.543-14.718,1.351-5.892.773-12.028.187-18.053-.267-2.745-.963-5.46-1.076-8.205a9.135,9.135,0,0,0-2.479-6.107c-3.792-4.217-3.713-4.579.468-8.469a11.623,11.623,0,0,1,1.746-1.439c1.335-.823,2.728-1.7,2.358-3.488a4.357,4.357,0,0,0-3.609-3.434c-2.179-.486-4.063-1.259-4.63-3.8-.422-1.895-.327-3.636,1.408-4.694,2.615-1.595,5.924-3.305,8.488-1.513,6.348,4.44,11.739,4.65,17.852-.611,3.1-2.665,6.544-.39,7.115,3.859.847,6.308,3.1,8.629,9.386,9.777,2.224.406,4.422.952,6.646,1.364,5.031.933,9.128-1.52,11.067-6.235,2.06-5.008,6.234-7.714,11.143-9.456.707-.25,1.495-.3,2.166-.612,1.131-.525,2.583-1.093,2.424-2.553-.187-1.713-1.824-1.366-3.035-1.446a9.919,9.919,0,0,0-1.892,0c-7.585.955-7.893-3.672-7.348-8.9a94.135,94.135,0,0,1,2.111-10.041c2.983-2.321,6.175-3.308,9.8-1.535,1.293,1.182,3.352.684,4.551,2.072.3,2.679-1.934,4.023-3.143,5.893-.847,1.31-2.357,2.186-2.878,4.661,3.6-3.35,4.178-8.057,7.821-10.383,1.845-2.118,4.544-3,6.841-4.4-.591-1.264-1.8.406-1.95-.606-.136-.919.878-1.388,1.716-1.711.934.347,1.54-.674,2.414-.585,2.023.337,3.959-.4,5.946-.543,2.239-.166,3.068-1.892,3.237-3.964.1-.544.325-.992.94-1.1,1.795-1.625,1.1-3.99,1.717-5.971,1.244-3.995,3.706-5.091,7.431-2.988a13.642,13.642,0,0,1,4.57,3.918c2.755,3.94,3.622,8.713,5.042,13.178.55,1.73-.663,4.115-2.292,5.768-2.205,2.235-3.1,5.137-3.669,8.15-.408,2.154-.005,4.522,1.862,5.313,3.324,1.408,3.368,4.273,3.692,6.855.282,2.245.965,3.744,2.944,4.845a8.583,8.583,0,0,1,3.255,4.092,2.39,2.39,0,0,0,2.38,1.537,2.135,2.135,0,0,0,2.226-2.147c.141-4.94,3.02-5.918,7.242-5.4,2.977.362,4.4-3.1,7.5-3.112,3.227-.011,6.438-1.009,9.68-1.323a4.415,4.415,0,0,0,3.9-3.067c1.971-4.592,4.839-5.82,9.636-4.13a32.414,32.414,0,0,1,8.5,4.844,6.1,6.1,0,0,0,2.954,1.527c7.352.911,17.083-5.583,18.683-12.8a24.541,24.541,0,0,1,7.495-13.229c3.226-2.955,5.447-2.555,7.86,1.183,2.572,3.984,2.838,8.538,3.65,12.969a24.778,24.778,0,0,0,2.354,7.535c.553,1.015,1.08,2.208,2.207,2.481,3.62.879,5.441,3.569,7.048,6.546" transform="translate(-70.517 -10.592)" fill="#c5f0f8"/>
        <path id="Trazado_178032" data-name="Trazado 178032" d="M1.135,401.116q-.011-51.565-.024-103.131c11.5,7.019,22.973,14.059,35.266,19.663a209.233,209.233,0,0,0,33.34,12.21,6.378,6.378,0,0,1,3.034,1.451c1.633.425,3.367,1.131,3.6,2.856.315,2.292,1.159,2.518,3.3,2.321,1.586-.146,2.5.038,2.658-1.909.1-1.187.77-2.386,2.426-1.467a95.8,95.8,0,0,0,19.534,2.514,142.92,142.92,0,0,0,22.8.049c3.176,1.5,4.925,4.223,4.579,7.11-1.747,2.716-4.815,3.573-7.477,3.813-8.5.764-16.989,1.884-25.582,1.486a187.8,187.8,0,0,1-27.486-3.15c-.521.146.078.716,0,.229-.042-.249.3-.349.564-.29,12.122,2.687,24.409,3.389,36.789,3.2,4.651-.07,9.174-1.375,13.836-1.162a2.775,2.775,0,0,1,.762,3.173,3.818,3.818,0,0,1-1.827,1.98c-6.279,2.6-13.022,2.983-19.626,3.4-7.4.466-14.889.632-22.294-.58-.849-.139-1.769,0-2.17-.582,2.185,1.132,4.912,1.087,7.451,1.172,9.7.323,19.433.544,29.033-1.433a11.134,11.134,0,0,1,3.007-.281c3.094.211,4.241,1.832,2.818,4.538-4.08,7.754-10.162,13.769-17.138,18.927a2.791,2.791,0,0,1-3.527.091c-.6-.425-.968-1.1-1.581-1.525-.741-.516-1.534-.979-2.322-.208-.951.93-.516,1.759.389,2.461,2.883,1.653,1.2,3.089-.361,4.2-4.989,3.556-10.062,6.992-16.168,8.436a25.516,25.516,0,0,0-5.25,1.967,5.048,5.048,0,0,1-.9.6c-.485.251-.983.477-1.468.733-1.268,1.885-3.01,2.549-5.266,3.1a91.968,91.968,0,0,0-15.359,5.263c-4.477,1.975-9.153,2.662-13.815,3.737-11.842,2.729-22.777-1.471-33.952-3.961a3.785,3.785,0,0,1-1.585-1" transform="translate(-0.269 -72.026)" fill="#009d26"/>
        <path id="Trazado_178033" data-name="Trazado 178033" d="M590.2,69.063c1.546,4.763,3.764,8.23,10,6.9-4.773,2.775-6.086,6.292-3.879,11.328-4.092-3.531-7.845-3.582-11.259-.022a2.046,2.046,0,0,1-.3-2.546c1.532-3.028.786-5.217-2.172-6.8-.6-.319-1.528-.694-1.068-1.658a1.455,1.455,0,0,1,1.256-.541c5.1,1,6.138-2.53,7.427-6.666" transform="translate(-140.53 -16.693)" fill="#fbdf02"/>
        <path id="Trazado_178034" data-name="Trazado 178034" d="M107.569,342.425c-3.8,1.091-.4,3.851-1.48,6.037-2.558-2.409-5.294-2.37-8.3-.033,1.925-3.681.329-5.9-2.2-7.807,2.286-.626,5.079-.378,5.919-3.5.071-.262.588-.4.9-.6.645,2.98,4.21,2.9,5.456,5.241.07.132-.187.439-.292.664" transform="translate(-23.104 -81.341)" fill="#f5e001"/>
        <path id="Trazado_178035" data-name="Trazado 178035" d="M109.692,138.8c-3.079,5.794-6.1,11.622-9.28,17.357-.79,1.425-2.02.46-2.88-.22-1.037-.82-2.543-1.649-1.124-3.3,4.138-4.807,8.314-9.582,12.475-14.369l.809.529" transform="translate(-23.163 -33.421)" fill="#f8e00d"/>
        <path id="Trazado_178036" data-name="Trazado 178036" d="M127.256,135.087h23.061c-.685,5.236-.679,5.212-5.54,4.183-5.785-1.223-11.579-2.4-17.37-3.6-.05-.2-.1-.391-.151-.586" transform="translate(-30.759 -32.652)" fill="#0b1e60"/>
        <path id="Trazado_178037" data-name="Trazado 178037" d="M105.505,133.033c-6.779,2.107-13.28,2.8-19.6,4.273-1.886.44-2.225-.516-2.052-2.013.167-1.445-.634-3.426,2.241-3.23,6.266.427,12.547.641,19.416.97" transform="translate(-20.258 -31.918)" fill="#099a35"/>
        <path id="Trazado_178038" data-name="Trazado 178038" d="M118.091,119.786c-.482-6.064-1-12.126-1.42-18.2-.106-1.549,1.206-1.508,2.141-1.211,1.292.412,3.361.21,2.978,2.556-.92,5.627-1.9,11.245-2.857,16.867Z" transform="translate(-28.199 -24.224)" fill="#fbdf00"/>
        <path id="Trazado_178039" data-name="Trazado 178039" d="M125.894,124.159c4.425-4.139,8.875-8.253,13.261-12.433,1.347-1.284,1.954-.44,2.469.685.536,1.172,2.6,2.369.331,3.683-5.147,2.985-10.358,5.856-15.544,8.773l-.517-.708" transform="translate(-30.43 -26.85)" fill="#059c2d"/>
        <path id="Trazado_178040" data-name="Trazado 178040" d="M105.522,124.079l-18.194-9.41c3.249-4.388,3.262-4.4,6.958-1.222,3.894,3.35,7.759,6.734,11.636,10.1l-.4.529" transform="translate(-21.108 -26.878)" fill="#0c206c"/>
        <path id="Trazado_178041" data-name="Trazado 178041" d="M128.646,144.424c2.752,2.577,5.485,5.174,8.263,7.722,1.2,1.1,1.859,2.265.165,3.334-1.282.81-2.681,2.121-4.125-.095-2.6-3.982-5.36-7.853-8.055-11.771-.491-1.308-.151-2.034,1.255-1.334a11.731,11.731,0,0,1,2.5,2.144" transform="translate(-30.137 -34.325)" fill="#f5e11c"/>
        <path id="Trazado_178042" data-name="Trazado 178042" d="M118.712,143.511c1.065,6.163,2.118,12.327,3.2,18.486.285,1.619-.519,1.84-1.895,1.869-1.627.034-2.192-.5-2.169-2.166.081-6.034.032-12.07.032-18.106l.83-.083" transform="translate(-28.486 -34.688)" fill="#101b6a"/>
        <path id="Trazado_178043" data-name="Trazado 178043" d="M399.338,73.986c-1.809,3.419-3.569,6.866-5.457,10.241-.6,1.064-1.075,2.928-3,1.459-1.636-1.249-1.2-2.4,0-3.771,2.3-2.627,4.444-5.391,6.653-8.1l1.8.17" transform="translate(-94.222 -17.842)" fill="#eae027"/>
        <path id="Trazado_178044" data-name="Trazado 178044" d="M390.8,70.328,381,71.862c-.839-3.224.472-4.193,3.633-3.83,3.416.391,6.912,0,11.018.955L390.8,70.328" transform="translate(-92.031 -16.427)" fill="#20a04b"/>
        <path id="Trazado_178045" data-name="Trazado 178045" d="M406.982,55.5a9.828,9.828,0,0,1-.479,5.089c-2.059-1.8-1.675-4.107-1.907-6.193-.262-2.362-.542-4.728-.651-7.1-.056-1.245-.553-3.148,1.735-2.883,1.648.19,3.164.819,2.915,3.11a26.573,26.573,0,0,1-1.523,7.281c-1.625-1.7-.379-3.816-.67-4.837.406,1.24-1.14,3.578.581,5.532" transform="translate(-97.618 -10.73)" fill="#dbea9a"/>
        <path id="Trazado_178046" data-name="Trazado 178046" d="M423.624,56.147l-.623.607a15.8,15.8,0,0,1-9.726,5.517c-.736-.231-1.423,1.21-2.187.064,2.564-2.335,5.309-4.5,7.642-7.052,2.36-2.576,3.829-2.667,4.894.864" transform="translate(-99.365 -12.911)" fill="#109b36"/>
        <path id="Trazado_178047" data-name="Trazado 178047" d="M396.414,62.141q-5.449-2.834-10.9-5.672c-.948-.5-2.4-.758-.963-2.317.933-1.012,1.636-1.771,3.04-.473,2.95,2.726,6.05,5.288,9.089,7.917l-.268.546" transform="translate(-92.805 -12.809)" fill="#102665"/>
        <path id="Trazado_178048" data-name="Trazado 178048" d="M66.029,313.77c-3.265.89-2.613-2.136-3.036-3.218-.39-1,1.938-1.871,2.975-1.977.96-.1,2.913.941,2.694,2.311-.193,1.214.369,4.289-2.633,2.884" transform="translate(-15.216 -74.585)" fill="#e7e557"/>
        <path id="Trazado_178049" data-name="Trazado 178049" d="M20.349,301.421c-3.151,1.4-2.267-1.5-2.435-2.34-.3-1.519,1.545-2.471,2.5-2.341a2.5,2.5,0,0,1,2.1,2.964c-.258,1.506-.083,3.167-2.174,1.717" transform="translate(-4.322 -71.723)" fill="#f4df1a"/>
        <path id="Trazado_178050" data-name="Trazado 178050" d="M407.309,55.916c-.465.01-1.077,1.381-1.271.249-.486-2.828-.585-5.724-.817-8.6-.071-.88.334-1.473,1.266-1.463,1.042.011,1.7.5,1.415,1.651a24.545,24.545,0,0,0-.5,7.463,2.072,2.072,0,0,0-.089.695" transform="translate(-97.945 -11.145)" fill="#f7df05"/>
        <path id="Trazado_178051" data-name="Trazado 178051" d="M751.867,54.268c-1.7.379-1.912-.727-1.866-1.957.058-1.545,1.018-2.94,2.4-2.7,1.216.208,2,1.721,1.928,3.281-.088,1.818-1.4,1.35-2.458,1.38" transform="translate(-181.283 -11.984)" fill="#f7df07"/>
        <path id="Trazado_178052" data-name="Trazado 178052" d="M128.05,143.58c-1.432.571-1.91-3.277-3.751-.81-.92-1.141-2.141-2.122-2.077-4.254a12.665,12.665,0,0,1,5.828,5.064" transform="translate(-29.542 -33.481)" fill="#dee884"/>
        <path id="Trazado_178053" data-name="Trazado 178053" d="M120.893,366.2l1.5-.779c3.407-2.557,7.908-2.457,11.437-4.718a2.609,2.609,0,0,1,1.074-.143c2.684,1.347,4.055,4,5.993,6.089,2.473,2.661,5.012,5.246,7.7,7.685,1.093.991,2.412,1.878,2.334,3.641-.18,1.046-1.187,1.259-1.844,1.828a348.849,348.849,0,0,1-40.082,31.5c-11.369,7.026-22.8,14.022-35.192,19.082-9.492,3.876-19.018,7.664-28.863,10.762a342.187,342.187,0,0,1-34.51,8.459,16.6,16.6,0,0,1-3.013.068c-2.336.387-4.656.707-6.31-1.6l0-16.685c1.368-1.822,3.285-1.542,5.182-1.364,4.132.388,8.151,1.4,12.337,1.661,11.223.7,22.171-1.171,32.914-3.716,7.39-1.751,14.86-3.932,21.541-7.907a1.4,1.4,0,0,1,1.941-.052c-1.222-4.607-1.168-4.777,1.759-5.525,1.895,4,2.044,4.058,5.725,2.314,10.7-5.069,21.118-10.619,30.593-17.8.946-.717,1.831-1.494,2.78-2.169A164.73,164.73,0,0,1,79.8,414.875c-.942.334-1.931.708-2.845-.114a3.671,3.671,0,0,0-2.342-2.147c-2.411-.809-3.245-2.452-2.218-4.882.023-.185.052-.37.086-.554.124-.027.316-.12.359-.074,3.44,3.729,7.048,2.123,10.806.516A181.144,181.144,0,0,0,126.868,381.6c1.689-1.372,3.151-2.935,3.186-5.321a16.077,16.077,0,0,0-.345-5.937c.5-1.057,2.2-.769,2.534-2.442-2.729-.8-5.026.588-7.437,1.206-3.23.827-4.252.033-3.913-2.9" transform="translate(-0.269 -87.151)" fill="#00870c"/>
        <path id="Trazado_178054" data-name="Trazado 178054" d="M547.592,159.192c-1.084,2.5-3.71,2.966-5.736,3.993-19.836,10.053-38.849,21.583-58.289,32.343-15.565,8.616-31.072,17.307-47.41,24.414-4.274,1.859-4.736,3.409-1.533,5.623,3.235,2.235,6.963,3.771,10.466,5.529,4.509,2.263,8.362-2.178,12.672-3.077a27.5,27.5,0,0,0,4.855-2,17.247,17.247,0,0,0,7.589-3.777l15.152-6.842c1.244-.827,2.42-.732,3.17.576.829,1.444,0,2.574-1.042,3.577-1.515,1.457-4.04,1.389-5.161,3.434-2.587,1.141-4.644,3.34-7.571,3.805-.5.035-1.123.038-1.414.383-3.706,4.4-9.317,5.946-13.743,9.259-4.155-.356-4.155-.356-4.235,4.292a1.326,1.326,0,0,1-2.427.119c-1.476-1.96-2.892-1.4-4.789.089,4.837,1.553,9.572,2.111,14.247,2.957,1.806.327,4.277,0,4.029,3.1-2.266,2.317-5.464,2.406-8.272,3.286-7.654,2.4-15.4,4.494-23.129,6.667a21.4,21.4,0,0,1-3.323.627c-2.066.241-3.052-.5-2.842-2.718a11.136,11.136,0,0,0-.133-3.742c-.442-8.512.434-17.073-.986-25.548-.31-1.85-.541-3.713-.808-5.571,18.727-7.647,36.631-16.955,54.286-26.778,20.556-11.438,40.869-23.324,62.023-33.666,1.459-.714,2.786-1.7,4.174-2.554,2.026.576,1.419,1.366.179,2.207" transform="translate(-103.194 -37.945)" fill="#00880f"/>
        <path id="Trazado_178055" data-name="Trazado 178055" d="M308.414,244.973c1.872.562,2.6,2.305,3.621,3.671,9.471,12.656,21.821,21.248,37.152,24.837,8.661,2.028,16.636-1.26,23.784-6.326,1-.708,1.723-1.9,3.518-1.791,0,6.252-3.066,10.822-7.4,14.912-4.274,4.03-9.56,6.228-15.367,8.7,8.547,2.411,16.494,1.472,24.459.295-7.8,7.116-16.167,5.959-24.763,1.57-1.674,11.562,2.452,20.021,12.873,26.071a68.461,68.461,0,0,1-17.072,3.923c-8.481,1.013-17.124.55-25.492,2.418-9.947,2.22-18.956,6.7-27.4,12.359-1.773,1.188-3.405,2.615-5.489,3.284-1.009-2.8,1.463-3.81,2.882-5.136,9.457-8.836,20.141-15.418,33.055-18.049a32.511,32.511,0,0,0,13.325-6.106c6.6-5.068,8.436-12.336,8.729-20.12.3-8.064.173-8.069,7.987-8.557,5.6-.35,9.672-2.793,14.963-8.841-5.466,4.494-11.631,8.23-19.445,8.241A15.04,15.04,0,0,1,344.7,278.5c-7.144-4.042-14.575-7.539-21.793-11.44a29.357,29.357,0,0,1-14.348-17.727c-.451-1.424-1.021-2.878-.146-4.362" transform="translate(-70.242 -59.213)" fill="#cd7555"/>
        <path id="Trazado_178056" data-name="Trazado 178056" d="M429.024,274.407a2.28,2.28,0,0,1,.354.658c.772,5.167.8,5.29,5.91,3.845,10.5-2.969,20.954-6.081,31.426-9.136,1.844-2.2,4.654-2.41,7.093-3.18,14.6-4.611,29.4-8.578,44.1-12.841a9.96,9.96,0,0,1,2.982-.347c1.872.442,3.833-.424,5.685.354,1.209,2,4.3,2.386,4.506,5.26a4.592,4.592,0,0,1-2.619,1.422c-10.249,2.693-20.226,6.317-30.5,8.889a4.645,4.645,0,0,0-3.509,2.022,2.616,2.616,0,0,1-1.031.456c-8.189,1.057-15.747,4.4-23.641,6.529s-15.747,4.5-23.6,6.825c-1.843.546-3.688.963-5.448-.253-4.035-2.624-4.243,1.067-5.363,3.265-2.045,1.236-4.592,2.017-6.3.482-1.514-1.36-.742-3.945-.319-6.01a31.26,31.26,0,0,1,.276-8.242" transform="translate(-103.494 -61.251)" fill="#007409"/>
        <path id="Trazado_178057" data-name="Trazado 178057" d="M440.754,289.045a3.672,3.672,0,0,0,4.048.773c14.731-4.5,29.51-8.848,44.261-13.286,1.636-.492,3.161-.828,4.654.275a2.325,2.325,0,0,1-.831,3.5c-3.471,1.594-.221,3.706-.583,5.508-.206,1.027,1.12.308,1.753.306,1.863-.007,3.549.207,3.8,2.57-22.96,4.233-45.947,8.3-69.119,11.23-1.1-3.93-.594-7.862-.007-11.793.005.124.014.248.017.372.106,5.937.626,6.267,6.68,4.218,2.368-.365,3.81-2.077,5.331-3.672" transform="translate(-103.472 -66.73)" fill="#00870b"/>
        <path id="Trazado_178058" data-name="Trazado 178058" d="M193,377.965l1.522-1.463c1.649-1.538,3.328-.646,4.916.044,7.177,3.12,13.8,1.2,20.236-2.2a9.454,9.454,0,0,0,4.055-4.848c1.192-2.741,2.91-3.163,5.371-1.58a16.178,16.178,0,0,0,7.558,2.074c7.928.68,12.966-2.565,15.888-9.973.463-1.172.842-2.371,1.21-3.576,1.25-4.092,1.592-4.243,5.392-2.289a11.389,11.389,0,0,0,3.242.923c.956.271,1.911.559,2.855.868,1.4.46,1.743,1.588.883,2.63-4.261,5.171-8.454,10.4-12.647,15.621-.124.155-.456.083-.708.011-6.212.588-12.45.976-18.625,1.831-4.458.616-7.364,4.205-10.743,6.767a12.7,12.7,0,0,1-5.779,2.63c-11.634,1.721-22.118,6.595-32.575,11.584-.416.2-.868.319-2.26.822,3.774-4.692,8.237-7.1,11.867-10.438,1.941-1.784,4.066-3.366,6.089-5.062.692-.579,1.558-1.732.105-1.84-2.891-.215-5-2.492-7.854-2.539" transform="translate(-44.183 -85.309)" fill="#cc7555"/>
        <path id="Trazado_178059" data-name="Trazado 178059" d="M272.666,349.373c3.5-6.226,8.614-11.207,13.058-16.774-.8-1.263-2.534-.146-3.255-1.37.855-1.214,2.21-.993,3.424-1.218,1.934-.358,3.619-1.121,4.418-3.112a26.723,26.723,0,0,1,6.854-5.39c3.143-1,5.754-3.08,8.759-4.367,5.516-2.561,11.383-4.133,17.13-6.016,12-3.932,14.734-12.5,14.2-24.08-.092-2.019-1.654-2.965-3.239-3.871-4.6-2.633-9.308-5.07-13.924-7.678a89.466,89.466,0,0,1-13.717-9.323c-1.6-1.222-1.629-3.581-3.4-4.68-1.917-.637-.78-4.307-3.819-3.831-1.218-1.363-.6-3.027-.752-4.566.828-1.506,1.212-3.646,3.789-2.655,1.994,2.908,2.722,6.419,4.726,9.388,3.559,5.277,8.889,8.1,14.146,11.046,5.72,3.21,11.358,6.58,17.3,9.378a6.152,6.152,0,0,1,3.868,6.33c-.159,3.654-.052,7.324-.8,10.939-1.512,7.283-5.451,12.6-12.287,15.785a65.385,65.385,0,0,1-12.71,4.814c-14.89,3.456-25.524,13.157-35.282,24.1-.649.729-2.2,1.065-1.689,2.6-1.191,3.646-3.97,6.342-5.746,9.673-8.761,16.424-7.029,32.966-.99,49.594a57.9,57.9,0,0,0,10.348,17.47c6.728,8.005,15.488,11.745,25.764,12.38A28.491,28.491,0,0,1,287.27,427.2c-16.769-14.492-22.88-33.531-22.125-55.072.287-8.183,3.547-15.654,7.521-22.759" transform="translate(-64.074 -60.474)" fill="#ba6f4e"/>
        <path id="Trazado_178060" data-name="Trazado 178060" d="M344.633,236.817c-12.393-.079-20.992-3.406-26.514-12.8-1.049-1.786-1.548-3.49-.625-5.325.874-1.738,2.624-1.667,4.306-1.68a82.664,82.664,0,0,1,30.261,5.415c5.063,1.925,5.983,6.5,2.353,10.652a11.72,11.72,0,0,1-9.78,3.736" transform="translate(-76.625 -52.454)" fill="#fec19a"/>
        <path id="Trazado_178061" data-name="Trazado 178061" d="M264.781,343.732c-1.294,3.392-2.125,3.779-8.353,3.882-2.6.309-4.482-1.241-6.557-2.853-.862,2.649-1.545,5.034-2.408,7.351-3.079,8.268-9.4,11.964-18.081,10.465-2.693-.464-5.535-.752-7.769-2.606-1.516-1.258-2.021-.564-2.581.944-2.384,6.419-8.03,8.024-13.906,9.435a19.214,19.214,0,0,1-14.173-1.972,7.4,7.4,0,0,0-2.581-.324c.006-1.012-.7-1.536-1.4-2.073-5.69-4.367-9.936-10.111-14.667-15.392-1.793-.64-2.929-1.774-2.866-3.81a26.548,26.548,0,0,0-4.61-6.273c-1.278-3.375-4.949-4.308-7.484-7.312,8.23,3.22,11.356,11.048,17.243,15.872,4.232,3.026,7.395,7.174,11.182,10.669,6.236,5.756,13.19,7.992,21.51,5,5.766-2.076,8.176-6.561,6.369-12.5-.649-2.134-2.086-4.087-1.551-6.509.062-2.264-.273-4.845,3.388-4.2l1.467,1.57a16.653,16.653,0,0,1,4.3,10.617c.225,2.991,1.827,4.529,4.569,5.189,8.522,2.051,15.393-2.369,17.149-10.921,1.278-6.224.631-12.53,1.008-18.793.281-2.712.214-5.453.638-8.144.2-1.246,0-2.894,1.981-3.036l.036-.017c3.211,6.24,4.23,13.042,4.991,19.886.562,5.054,2.326,6.524,7.368,5.932,1.917-.225,3.851-1.418,5.794-.067" transform="translate(-38.031 -76.86)" fill="#a95335"/>
        <path id="Trazado_178062" data-name="Trazado 178062" d="M293.239,342.757c-3.037.8-6.029,1.873-9.252,1.545-2.868-.293-4.987-1.964-5.049-4.694-.159-7.019-2.066-13.645-3.754-20.343a10.931,10.931,0,0,1-.1-2.258,13.919,13.919,0,0,1,2.245,2c3.757,5.14,9.087,5.585,14.608,4.579,6.371-1.162,11.872-4.089,15.65-9.635a3.267,3.267,0,0,1,1.075,3.421c-.851,5.355-1.894,10.661-4.195,15.641a10.438,10.438,0,0,1-4.426,4.478l-6.8,5.269" transform="translate(-66.489 -75.885)" fill="#cc7555"/>
        <path id="Trazado_178063" data-name="Trazado 178063" d="M217.922,354.908c.878,2.219,1.909,4.393,2.6,6.668,1.84,6.019-1.378,11.059-7.334,13.154-9.59,3.373-17.2.411-23.863-6.425-3.241-3.323-6.944-6.246-9.249-10.4,6.363,1.921,12.678,3.645,19.463,3.971,7.2.346,12.642-2.383,17.59-7.009q.433-.689.789.044" transform="translate(-43.527 -85.694)" fill="#cd7555"/>
        <path id="Trazado_178064" data-name="Trazado 178064" d="M263.316,332.916a65.041,65.041,0,0,1,.03,18.768c-1.632,9.838-12.611,15.716-21.287,11.2-1.975-1.027-3.216-2.306-3.019-4.7.346-4.2-2.329-7.632-3.092-11.558,6.865,1.965,20.891-2.836,25.174-8.5a7.916,7.916,0,0,0,1.548-5.247q.351-.527.646.033" transform="translate(-57.032 -80.4)" fill="#cd7555"/>
        <path id="Trazado_178065" data-name="Trazado 178065" d="M283.6,343.12c-2.491.476-1.014-.748-.535-1.351a105.414,105.414,0,0,1,16.36-16.138c7.628-6.2,16.621-9.034,25.733-12.008,15.171-4.952,19.835-10.355,20.148-27.59.063-3.49-.877-5.492-4.092-6.966-7.3-3.346-14.062-7.72-21.1-11.573-7.515-4.118-11.882-10.245-13.811-18.381-1.525-1.992-3.126-3.984-.03-6q.05.705.1,1.41c1.374,4.839,3,9.455,6.132,13.625,3.508,4.67,8.369,7.115,13.206,9.735,5.643,3.057,11.506,5.726,17.035,8.969,7.005,4.108,16.873,1.012,23.581-4.022,2.1-1.576,4.065-3.332,6.166-5.067-1.157,7.459-11.241,13.946-17.61,13.981-6.835.037-6.658.155-6.894,6.744-.591,16.464-6.777,23.817-23.323,27.91-12.929,3.2-23.638,9.616-33.173,18.5-1.087,1.012-2.388,1.92-2.695,3.549l-5.2,4.67" transform="translate(-68.21 -58.764)" fill="#a85435"/>
        <path id="Trazado_178066" data-name="Trazado 178066" d="M225.652,519.225c1.975-.306,3.428.931,4.975,1.5a30.134,30.134,0,0,0,19.285,1.024c2.2-.638,2.979-.385,3.44,2.159A242.368,242.368,0,0,1,257,573.552a48.276,48.276,0,0,1-2.542,13.526c-.105-8.034-1.373-15.917-1.922-23.855-.808-11.671-2.627-23.276-2.363-35.017.056-2.508-1.59-2.5-3.314-2.373-7.051.511-13.46-1.46-19.474-4.984a12.465,12.465,0,0,1-1.282-.791c-.176-.133-.236-.419-.45-.833" transform="translate(-54.543 -125.491)" fill="#ba6f4e"/>
        <path id="Trazado_178067" data-name="Trazado 178067" d="M218.291,339.281l-.788-.043c-.093-3.581-2.346-6.343-3.779-9.356-4.689-9.864-8.19-20.271-14.5-29.412-3.733-5.408-8.2-8.673-14.613-9.466-.835-.1-1.657-.31-3-.569,10.808-2.328,17.649,2.961,23.016,10.618,7.254,10.35,12.384,21.833,16.723,33.672-2.612.45-2.806,2.521-3.056,4.556" transform="translate(-43.897 -70.068)" fill="#b96f4e"/>
        <path id="Trazado_178068" data-name="Trazado 178068" d="M266.876,311.45c-.216-.008-.432-.019-.647-.033-3.171-14.344-6.467-28.662-9.457-43.044-1.221-5.871-1-12.029-3.462-17.67a58.8,58.8,0,0,1-2.634-6.882,35.141,35.141,0,0,1,8.354,17.249c2.143,12.3,6.969,23.885,9.473,36.083.2.977.431,1.947.648,2.921-1.511,3.641-.3,7.829-2.276,11.377" transform="translate(-60.591 -58.934)" fill="#ba6f4e"/>
        <path id="Trazado_178069" data-name="Trazado 178069" d="M297.489,519.547c-4.693,4.469-9.709,8.227-16.861,6.549-2.071-.486-3.027.217-2.578,2.638a304.643,304.643,0,0,1,4.33,35.862c.1,1.476.45,2.936.8,5.109-3.863-4.483-4.842-9.548-5.8-14.238-2.014-9.823-3.8-19.748-3.486-29.9.087-2.841.617-3.8,3.734-2.985,6.942,1.816,13.755,1.786,19.868-3.038" transform="translate(-66.193 -125.581)" fill="#b96f4e"/>
        <path id="Trazado_178070" data-name="Trazado 178070" d="M310.024,259.378c.1-.929-.118-2.136,1.359-2.09A1.68,1.68,0,0,1,312.976,259c.143,1.339.1,2.728,1.611,3.4,5.049,10.521,6.55,21.839,7.483,33.282-2.318.739-3.967,2.508-5.883,3.873-.541-12.237-3.659-24.067-5.67-36.073-.228-1.357-.331-2.734-.493-4.1" transform="translate(-74.936 -62.189)" fill="#b96f4e"/>
        <path id="Trazado_178071" data-name="Trazado 178071" d="M315.7,311.461c.427-.9.931-1.768,1.268-2.7,1.083-3,2.359-2.8,3.841-.3a2.158,2.158,0,0,1,.87.936c.643,8.078-.8,15.663-5.345,22.514-2.882,1.031-5.057,3.616-8.331,3.786,5.561-6.87,6.915-15.089,7.546-23.54q.066-.351.151-.7" transform="translate(-74.448 -74.097)" fill="#a85236"/>
        <path id="Trazado_178072" data-name="Trazado 178072" d="M311.8,237.178c-1.775,2.009.353,4,.03,6-1.975-.433-2.407,1.686-3.765,2.274-1.513-5.148-.272-10.539-1.453-15.748-.791-3.49-1.024-7.105-1.573-11.151,1.977,2.664,1.727,5.677,3.66,8.752-.084-3.977.9-6.616,4.035-8.1-4.751,5.821-1.417,11.966-.934,17.979" transform="translate(-73.732 -52.826)" fill="#b96f4e"/>
        <path id="Trazado_178073" data-name="Trazado 178073" d="M952.51,191.526a157.592,157.592,0,0,1-20.785,8.5c-23.753,8.167-48.377,12.206-73.2,15.292-4.256.529-8.528.956-12.754,1.664a7.772,7.772,0,0,1-5.974-1.349c-21.384-13.858-42.783-27.7-65.766-38.858a228.823,228.823,0,0,0-30.708-12.488c-.2-1.411.782-1.586,1.557-1.933,22.514-10.067,46.193-16,70.479-19.687,11.349-1.721,22.762-3.024,34.121-4.685a9.523,9.523,0,0,1,7.054,1.725c22.915,14.972,45.953,29.744,70.914,41.194a194.154,194.154,0,0,0,23.21,9.14c.673.209,1.558.218,1.846,1.485" transform="translate(-179.664 -33.324)" fill="#fedf00"/>
        <path id="Trazado_178074" data-name="Trazado 178074" d="M519,263.637c5.243-1.514,10.489-3.015,15.728-4.543q9.286-2.708,18.561-5.453a3.419,3.419,0,0,1,.895-.846c6.081-2.476,12.519-3.739,18.841-5.35,10.227-2.607,20.553-4.82,30.975-6.539,3.79-.625,4.705.028,4.171,2.961-.12.333-.244.67-.335,1.012.08,1.165-.7,2.785,1.528,2.748,1.61-.68,2.159-1.667,1.059-3.237-.678-.968-2-1.765-1-3.27,2.428-2.126,5.5-2.508,8.463-2.888a460.808,460.808,0,0,1,59.488-4.071c10.582.018,21.042,1.573,31.549,2.421,5.849.645,7.288,2.9,6.3,9.887,5.93-2.581,5.93-2.581,11.087.926.1-1.425-.977-2.9.255-4.215,1.128,3.471,4.605,1.909,6.761,3.161,3.691,2.143,7.4,4.27,11.006,6.544,10.522,6.63,20.562,14.194,31.6,19.787,14.495,7.342,28.491,16.291,45.077,18.694,5.2.755,10.447,1.259,15.68,1.794,1.191.121,2.647.354,2.969-1.471,2.079-.871,3.3.99,4.941,1.533a32.166,32.166,0,0,1,4.676,2.736c2.352,3.094,6.508,2.686,9.356,4.814a7.888,7.888,0,0,1,3.791,1.514,18.339,18.339,0,0,1,1.832,1.344c1.96,1.736,1.691,3.521-.687,4.6a5.48,5.48,0,0,1-2.966.447c-2.985-.375-5.924-.994-8.939-1.272-2.83-.261-4.609-2.22-5.178-5.242-.566-3-1.666-3.307-3.989-1.416-2.768,2.254-9.083,2.523-11.865.506-1.849-1.34-1.583-2.4,1.506-5.223-2.44-.284-4.217,1.339-6.325,1.34a26.163,26.163,0,0,1-14.369-4.081c-4.621-2.957-9.232-5.7-14.933-5.811-2.386-.046-3.913-1.52-5.216-3.333-1.257-1.749-2.726-2.62-4.761-1.051a3.529,3.529,0,0,1-3.964.117c-2.56-1.431-5.413-1.9-8.1-2.9l-1.624-.794c-.388-4.01-2.843-4.068-5.854-3.06.937,3.75-1.024,5.571-4.914,4.349a23.366,23.366,0,0,1-9.709-5.645c-4.874-4.921-11.137-7.1-17.284-9.665-8.4-3.51-17.422-4.486-26.111-6.8-3.977-1.059-8.267-.867-12.356-.974-11.071-.289-22.121-1.39-33.218-.97-2.7.1-5.536.146-7.961-1.534-1.808-.609-2.158,1.639-3.572,1.829a8.528,8.528,0,0,1-3.719.533c-14.63-.271-29.262-.146-43.892-.1a341.127,341.127,0,0,0-59.712,5.736c-6.946,1.255-13.979,1.928-20.985,2.762-1.915.228-4.213.707-4.565-2.339" transform="translate(-125.449 -56.599)" fill="#00911b"/>
        <path id="Trazado_178075" data-name="Trazado 178075" d="M526.955,253.313c-5.778.535-11.135,2.775-16.666,4.262-12.7,3.412-25.286,7.233-37.919,10.888-3.321-2.481-7.467-1.48-11.142-2.6-3.124-.953-6.476-1.165-9.663-2.344.7-1.8,2.105-1.913,3.136-2.473,1.912-1.037,3.921-2.107,4.81,1.25.186.7.905.782,1.445.1,2.42-.635,3.354-2.8,4.674-4.559.052-1.531.828-2.247,2.327-2.735,3.443-1.124,6.883-2.287,8.929-5.765a2.277,2.277,0,0,1,3.824-.56c-1.036,2.214-.086,1.958,1.787,1.886,8.626-.331,17.011-2.882,25.684-2.652,8.127.215,16.054,2.009,24.078,3.034-1.017,2.514-3.729,1.06-5.3,2.267" transform="translate(-109.148 -59.938)" fill="#00911b"/>
        <path id="Trazado_178076" data-name="Trazado 178076" d="M720.9,236.261c-3.228.985-6.429-.128-9.583-.381a282.239,282.239,0,0,0-40.576-.783c-9,.572-18.031.949-27.01,1.818-7.212.7-14.477,1.243-21.526,3.135a3.292,3.292,0,0,0-2.164,1.4c.48,2.363-.773,2.087-2.246,1.475-.76-1.145,1.843-.7.9-1.849-.539-.658-1.41-.491-2.117-.344-11.829,2.462-23.753,4.467-35.385,7.857-5.5,1.6-11.136,2.728-16.711,4.07-.779-2.112-.488-4.344-.729-6.517,6.685-2.438,13.811-2.958,20.645-4.747,1.95-.8,4.247-.193,6.07-1.5q.378,0,.754-.01a10.8,10.8,0,0,0,6.068-1.508l6.061-.775a13.629,13.629,0,0,0,7.582-1.5l.758-.011a40.085,40.085,0,0,0,12.892-2.259l19.706-2.288a262.161,262.161,0,0,1,38.41-1.324c8.044.328,16.035.924,24.006,2.031a42.833,42.833,0,0,1,6.574,1.561c1.41.886,2.98.789,4.542.745a2.088,2.088,0,0,1,1.97.071,1.945,1.945,0,0,1,1.11,1.634" transform="translate(-136.265 -55.597)" fill="#007a12"/>
        <path id="Trazado_178077" data-name="Trazado 178077" d="M758.063,222.17c-1.2-3.833-4.808-3.222-7.514-3.7-22.782-4.064-45.812-3.122-68.792-3.126a2.918,2.918,0,0,0-1.795-2.481c-1.125-.463-2.166-1.312-1.194-2.826,2.512,1.273,5.24.9,7.822.678a230.874,230.874,0,0,1,48.906,1.4,262.837,262.837,0,0,1,38.766,7.661c11.381,3.212,22.68,6.735,33.509,11.56,1.238.552,2.782.281,4.3,2.013-4.993-.434-9.027-2.163-13.145-3.43-11.55-3.552-23.285-6.346-35.081-8.929-2.1-.46-3.1,0-3.6,1.952a1.351,1.351,0,0,1-.688-.2c-.485-.219-.429-1.91-1.5-.569" transform="translate(-163.973 -50.756)" fill="#00831b"/>
        <path id="Trazado_178078" data-name="Trazado 178078" d="M516.859,220.677c3.543.362,5.694-2.521,8.542-3.766,9.38-4.1,18.6-8.572,27.935-12.777a3.793,3.793,0,0,1,3.624-.209,3.9,3.9,0,0,1,4.2,3.045c.376,1.382.136,2.787-1.659,3.217.19-3.1-.962-3.158-3.513-1.97-12.067,5.619-24.057,11.381-35.687,17.869a9.487,9.487,0,0,1-1.776.578c-1.645-1.693-1.733-3.818-1.664-5.987" transform="translate(-124.927 -49.197)" fill="#01841a"/>
        <path id="Trazado_178079" data-name="Trazado 178079" d="M779.91,225.723c1.7-2.516,1.543.267,2.186.768.916,2.067.328,5.164,3.138,5.918,2.215.6,4.653.357,7.393.512-1.277,2.251-3.112,3.123-4.642,4.3-1.275.984-2.458,1.937-1.046,3.663q.706,3.035,1.414,6.071c-4.988-4.782-9.78-4.958-14.878.491,1.218-5.2,3.928-10.165-3.022-12.478l-1.378-.993c-1.131-2.685,1.137-1.668,2.083-1.786,2.458-.306,5.26.82,7.085-1.874q.833-2.3,1.667-4.6" transform="translate(-185.82 -54.309)" fill="#f9df00"/>
        <path id="Trazado_178080" data-name="Trazado 178080" d="M933.2,307.091l-4.562-2.263c-8.5-3.37-16.983-6.794-25.513-10.089-5.335-2.062-10.745-3.931-16.028-6.208,5.436.432,10.594,2.141,15.662,3.848,11.055,3.724,21.961,7.891,32.91,11.924.529.194.9.824,1.342,1.25-.905,1.419-2.54,1.031-3.812,1.539" transform="translate(-214.422 -69.741)" fill="#009019"/>
        <path id="Trazado_178081" data-name="Trazado 178081" d="M738.949,233.535c-10.7-.972-21.387-2.25-32.11-2.816a138.521,138.521,0,0,0-24.069.322c-4.217.512-8.537.177-12.81.225,6.5-1.976,13.253-2,19.931-2.209,8.686-.267,17.39-.231,26.078-.009,6.515.165,12.93,1.46,19.323,2.691a5.711,5.711,0,0,1,3.656,1.8" transform="translate(-161.937 -55.32)" fill="#00911b"/>
        <path id="Trazado_178082" data-name="Trazado 178082" d="M701.638,171.621c1.951-3.76.6-6.188-2.577-8.363,3.875.309,6.035-1.41,7.1-5.024.632,3.929,3.135,5.015,7.47,4.793-3.584,2.466-4.783,4.916-2.79,8.866-3.479-2.074-6.211-3.009-9.2-.271" transform="translate(-168.971 -38.247)" fill="#e9dd01"/>
        <path id="Trazado_178083" data-name="Trazado 178083" d="M620.4,116.217c2.483,4.9,2.483,4.9,7.273,5.629-2.389,2.173-4.622,4.328-1.862,8.3-3.411-1.26-6.131-3.977-8.822.161-.036-3.407,1.19-6.706-3.271-8.044,3.484-.629,6.3-1.375,6.681-6.048" transform="translate(-148.344 -28.091)" fill="#ede001"/>
        <path id="Trazado_178084" data-name="Trazado 178084" d="M455.277,212c-2.91,2.4-4.57,4.627-2.306,8.359-3.161-2.329-5.909-2.549-8.843.044,1.342-3.472.687-6.047-3.375-8.34,4.414.023,7.1-.861,7.506-4.979,1.433,3.128,2.516,6.132,7.018,4.915" transform="translate(-106.535 -50.055)" fill="#f0de01"/>
        <path id="Trazado_178085" data-name="Trazado 178085" d="M572.287,208.594c2.85-3.586-.827-4.525-2.539-6.262,5.432-1.918,5.432-1.918,6.946-5.387,1.405,2.828,2.558,5.865,7.246,4.394-2.113,2.954-5.515,4.752-2.59,8.6-3.053-1.7-5.536-2.43-8.1-.143-.56.5-.8-.642-.965-1.2" transform="translate(-137.715 -47.604)" fill="#efdf01"/>
        <path id="Trazado_178086" data-name="Trazado 178086" d="M680.052,89.306c1.557-3.748,1.592-6.527-2.452-8.284,3.843-.008,6.37-1.152,6.926-6.078,1.491,4.1,2.717,6.925,7.873,4.941-2.513,3.115-5.18,4.667-3.982,7.89.259.7-.882,1.134-1.258.642-2.483-3.249-4.324.018-7.107.889" transform="translate(-163.784 -18.115)" fill="#f0df00"/>
        <path id="Trazado_178087" data-name="Trazado 178087" d="M675.963,209.435c.2,3.6,3.235,1.675,4.918,2.559.443,1.619-1.589,1.62-1.929,2.748-2.238,1.521.216,3.38-.337,5.506-2.7-1.981-5.358-2.81-8.194-.055.9-3.345.739-6.075-3.647-7.957,4.055-.478,7.362-.546,6.985-4.7,1.879-.236,1.3,1.536,2.2,1.9" transform="translate(-161.167 -50.158)" fill="#edde01"/>
        <path id="Trazado_178088" data-name="Trazado 178088" d="M754.1,107.255c3.594.4,5.642-1.305,6.743-5.792.909,4.535,2.75,6.327,7.279,5.437-2.938,2.7-4.881,4.929-3,8.662-2.965-2.373-5.7-2.543-8.394.209.341-4.775.341-4.775-2.628-8.516" transform="translate(-182.275 -24.525)" fill="#f1e001"/>
        <path id="Trazado_178089" data-name="Trazado 178089" d="M499.984,240.639c.172-2.39,2.274-2.663,3.829-3.611.909-.554,2.082-1.3,1.895-2.575-.214-1.467-1.579-1.329-2.692-1.4,1.46-2,3.882-2.121,5.907-3.015,2.18.188,3.578,1.514,4.707,3.233a58.625,58.625,0,0,1-13.647,7.369" transform="translate(-120.852 -55.603)" fill="#00911b"/>
        <path id="Trazado_178090" data-name="Trazado 178090" d="M947.9,312.517c.543-2.315,2.457-1.234,3.811-1.539l6.048,1.539c1.15,1.49,3.1,1.383,4.548,2.275l-3.038,2.282a6.29,6.29,0,0,1-6.817-2.276,8.754,8.754,0,0,1-4.552-2.282" transform="translate(-229.118 -75.167)" fill="#00870c"/>
        <path id="Trazado_178091" data-name="Trazado 178091" d="M562.287,251.283c1.843,1.994,1.218,4.263.729,6.517l-.183-.066-.189.046c-2.477-.121-3.891-1.667-4.949-3.69.03-1.672,1.8-1.383,2.541-2.259Z" transform="translate(-134.801 -60.738)" fill="#cdd509"/>
        <path id="Trazado_178092" data-name="Trazado 178092" d="M725.872,101.677c-3.3,1.63-1.6-2.512-3.23-2.885.558-1.534,2.5-1.114,3.286-2.326.654,1.1,3.2,1.535,2.565,2.235-.864.954.821,4.42-2.621,2.976" transform="translate(-174.671 -23.317)" fill="#c2d704"/>
        <path id="Trazado_178093" data-name="Trazado 178093" d="M592.253,117.821c-3.5,1.388-1.173-2.381-2.7-2.659.327-1.406,1.909-1.592,2.584-2.659.82,1.2,2.663,1,3.306,2.434-1.516.553.124,4.727-3.186,2.884" transform="translate(-142.501 -27.193)" fill="#bed706"/>
        <path id="Trazado_178094" data-name="Trazado 178094" d="M551.075,139.517c-3.487,1.254-2.138-2.086-2.486-2.875-.665-1.506,1.94-1.442,2.8-2.485.721,1.09,3.089,1.128,2.7,2.392-.376,1.212.032,4.48-3.01,2.967" transform="translate(-132.574 -32.427)" fill="#b2d10a"/>
        <path id="Trazado_178095" data-name="Trazado 178095" d="M516.481,232.328c-2.068-.351-3.9-1.051-4.707-3.232.732-1.709,2.385-2.216,3.86-2.956,2.8,1.372,1.147,3.982,1.664,5.988l-.817.2" transform="translate(-123.702 -54.661)" fill="#bdd007"/>
        <path id="Trazado_178096" data-name="Trazado 178096" d="M666.057,154.314c-3.2,1.08-2.5-1.872-2.637-2.743-.177-1.112,1.768-1.533,2.726-2.339.746,1,2.916,1.1,2.543,2.494-.283,1.059.49,4.515-2.632,2.589" transform="translate(-160.353 -36.071)" fill="#c3da08"/>
        <path id="Trazado_178097" data-name="Trazado 178097" d="M807.006,84.031l3.384-2.609c.4,1.357,2.912,1.135,2.522,2.6-.368,1.38-.751,3.174-3.5,2.8-2.436-.333-.438-2.524-2.4-2.787" transform="translate(-195.063 -19.681)" fill="#e2e106"/>
        <path id="Trazado_178098" data-name="Trazado 178098" d="M515.012,162.635c-2.99,1.025-1.224-2.175-2.581-2.509a6.421,6.421,0,0,1,2.873-2.467c.557,1.123,2.806,1.131,2.267,2.749-.348,1.043.04,3.9-2.558,2.228" transform="translate(-123.861 -38.108)" fill="#dee206"/>
        <path id="Trazado_178099" data-name="Trazado 178099" d="M585.982,158.2c.115-.749.979-1.558-.178-2.206-.387-2.265,1.709-2.254,2.854-3.115.912,1.3,3.2,2.026,1.689,4.32-1.169,1.771-2.963.45-4.365,1" transform="translate(-141.584 -36.952)" fill="#e0e104"/>
        <path id="Trazado_178100" data-name="Trazado 178100" d="M639.863,235.047c-4.074,2.029-8.226,3.612-12.892,2.259,4.2-1.316,8.573-1.631,12.892-2.259" transform="translate(-151.546 -56.814)" fill="#00911b"/>
        <path id="Trazado_178101" data-name="Trazado 178101" d="M623.554,238.038c-2.113,2.6-4.672,2.941-7.583,1.5a17.225,17.225,0,0,1,7.583-1.5" transform="translate(-148.887 -57.535)" fill="#00911b"/>
        <path id="Trazado_178102" data-name="Trazado 178102" d="M777.8,232.115c-.183,2.34-1.975,1.981-3.558,2.363-1.864.45-4.293-1.387-5.61,1.3l-1.7-.711c.93-1.826,2.645-1.549,4.207-1.482,2.367.1,4.642-.06,6.662-1.467" transform="translate(-185.376 -56.105)" fill="#00911b"/>
        <path id="Trazado_178103" data-name="Trazado 178103" d="M481.582,243.035a7.344,7.344,0,0,1-7.589,3.779,30.558,30.558,0,0,1,7.589-3.779" transform="translate(-114.57 -58.744)" fill="#00911b"/>
        <path id="Trazado_178104" data-name="Trazado 178104" d="M558.614,251.91c.1,1.814-2.024,1.135-2.541,2.259l-5.087.022c1.437-1.53,3.781-.937,5.3-2.267.777.152,1.545-.773,2.325-.014" transform="translate(-133.18 -60.816)" fill="#00880d"/>
        <path id="Trazado_178105" data-name="Trazado 178105" d="M606.045,241.04c-1.655,1.984-3.629,2.678-6.068,1.509,1.868-1.127,4.014-1.132,6.068-1.509" transform="translate(-145.021 -58.262)" fill="#00911b"/>
        <path id="Trazado_178106" data-name="Trazado 178106" d="M597.047,243.042c-1.533,2.486-4.007,1.163-6.07,1.5a11.581,11.581,0,0,1,6.07-1.5" transform="translate(-142.846 -58.746)" fill="#00911b"/>
        <path id="Trazado_178107" data-name="Trazado 178107" d="M115.8,560.831c-.472-3.8-.965-7.6-1.407-11.406-.152-1.315.638-1.83,1.842-1.768,1.017.052,2.337.143,2.176,1.492-.466,3.919-1.155,7.81-1.757,11.713l-.855-.031" transform="translate(-27.646 -132.374)" fill="#f2e12e"/>
        <path id="Trazado_178108" data-name="Trazado 178108" d="M121.837,564.344c2.963-2.79,5.934-5.572,8.884-8.375.824-.783,1.584-.855,2.037.258.347.851,1.906,1.728.1,2.744-3.533,1.987-7.033,4.031-10.547,6.052l-.475-.679" transform="translate(-29.449 -134.243)" fill="#0e9b36"/>
        <path id="Trazado_178109" data-name="Trazado 178109" d="M126.163,581.792c1.007.949,2.041,1.872,3.013,2.857.72.729,2.122,1.359.441,2.589-1.25.914-2.317,1.545-3.443-.169-1.7-2.584-3.481-5.112-5.227-7.664-.682-1.96.093-2.175,1.485-1.1,1.34,1.037,2.479,2.33,3.73,3.486" transform="translate(-29.174 -139.628)" fill="#eee337"/>
        <path id="Trazado_178110" data-name="Trazado 178110" d="M104.376,570.569c-3.659,2.542-7.849,2.615-11.81,3.626-1.25.318-1.506-.3-1.589-1.357-.122-1.554.383-2.322,2.079-2.291,3.772.07,7.546.022,11.32.022" transform="translate(-21.986 -137.908)" fill="#0c9736"/>
        <path id="Trazado_178111" data-name="Trazado 178111" d="M104.953,563.724l-11.068-5.7c1.168-3.166,2.646-3.244,4.814-1.06,2.1,2.11,4.444,3.968,6.681,5.937l-.427.819" transform="translate(-22.693 -134.263)" fill="#112467"/>
        <path id="Trazado_178112" data-name="Trazado 178112" d="M107.494,580.293c-1.263,2.391-2.564,4.763-3.776,7.179-.665,1.325-1.46,2.077-2.845.977-1.241-.986-1.1-2.025-.03-3.148,1.282-1.347,2.443-2.806,3.657-4.218a23.829,23.829,0,0,1,1.841-1.893c.431-.3.881-.528,1.335-.094.475.454.318.864-.182,1.2" transform="translate(-24.169 -139.916)" fill="#f7e10a"/>
        <path id="Trazado_178113" data-name="Trazado 178113" d="M124.854,572.506c3.992,0,7.985-.067,11.973.05.924.027,2.811-1.067,2.55,1.394-.192,1.809-1.125,2.21-2.837,1.812-3.862-.9-7.758-1.652-11.64-2.463-.015-.264-.031-.529-.046-.793" transform="translate(-30.179 -138.341)" fill="#081553"/>
        <path id="Trazado_178114" data-name="Trazado 178114" d="M116.467,580.894c.61,3.55,1.271,7.091,1.787,10.655.113.775.888,2.085-.88,2.28-1.678.184-1.761-.846-1.749-2.1.035-3.617.012-7.234.012-10.851l.83.014" transform="translate(-27.948 -140.405)" fill="#060e57"/>
        <path id="Trazado_178115" data-name="Trazado 178115" d="M125.595,580.925c-1.623-.476-2.47-1.968-3.755-2.89-.82-.588-1.282-.566-1.46.5-1.011-1.077-2.122-2.1-2.031-4.462a21.938,21.938,0,0,1,7.246,6.85" transform="translate(-28.605 -138.761)" fill="#d8e9a0"/>
        <path id="Trazado_178116" data-name="Trazado 178116" d="M108.932,579.012c-.651-.7-.651-.7-2.994.79,1.135-2.57,3.048-4.384,6.038-6.248-.752,2.526-1.428,4.234-3.045,5.457" transform="translate(-25.606 -138.635)" fill="#dee984"/>
        <path id="Trazado_178117" data-name="Trazado 178117" d="M1.107,475.974a15.1,15.1,0,0,0,6.31,1.6,9.891,9.891,0,0,1-4.721.758,1.833,1.833,0,0,1-1.589-2.356" transform="translate(-0.26 -115.048)" fill="#008e14"/>
        <path id="Trazado_178118" data-name="Trazado 178118" d="M993.723,327.5c-.333,1.772-1.69,1.8-2.855,1.316-1.593-.668-.508-1.846-.178-2.827,1.289-.055,2.424.2,3.033,1.51" transform="translate(-239.3 -78.795)" fill="#00870c"/>
        <path id="Trazado_178119" data-name="Trazado 178119" d="M73.876,435.146c-.294,2.409-2.44,2.836-4.1,3.381-10.074,3.314-20.109,6.492-30.716,8.195a105.129,105.129,0,0,1-34.28-.519,12.3,12.3,0,0,0-3.671.239q.01-7.576.022-15.151c7.009-.07,13.319,3.345,20.163,4.055a58.4,58.4,0,0,0,28.2-3.845c5.653-2.254,11.314-5.076,17.5-5.4,2.7-.14,1.925-3.014,3.841-3.278.712,3.223.609,3.409-3.048,5.51-.064.558.492.862.586,1.3.55,2.581,1.473,4.654,4.716,4.356.409-.038.7.635.789,1.154" transform="translate(-0.269 -102.202)" fill="#008e14"/>
        <path id="Trazado_178120" data-name="Trazado 178120" d="M518.036,270.583c2.853,3.277,6.279.767,9.128.409,15.549-1.946,30.989-4.729,46.57-6.514,6.968-.8,13.993-.5,20.939-.938,16.528-1.048,33.037-.1,49.544-.568,2.415-.068,4.839.835,7.242-.075,1.125,4.709-.468,6.216-7.184,6.746-.007,1.244,1.849,1.791,1.244,3.237-14.716-.033-29.412.462-44.084,1.616-1.248.1-2.492.26-3.738.392a2.791,2.791,0,0,1-1.651.218c-14.383.841-28.626,2.9-42.862,4.99-10.982,1.612-21.937,3.4-32.9,5.114-2.817-1.99-2.594-4.171-.117-6.78-3.667-.179-3.981-3.217-5.158-5.536.51-1.426,1.257-2.543,3.03-2.314" transform="translate(-124.483 -63.546)" fill="#00880d"/>
        <path id="Trazado_178121" data-name="Trazado 178121" d="M685.75,272.132l-4.3-3.835c1.265-1.046,2.7-.788,3.875-.612,4.408.663,6.133-1.52,6.365-5.536.919-.611,1.042-4.5,3.023-.736.83,2.159-.009,5.4,3.153,6.06,2.226.463,4.626.09,7.258.09-.833,2.531-3.235,2.846-4.166,4.538-.186.411-.588.425-.947.516-2.644,1.707-.464,3.543-.151,5.335.188,1.074,1.029,2.385-.064,3.167-1.02.729-1.855-.5-2.515-1.147-2.9-2.851-5.559-2.09-8.215.325-.64.582-1.388,1.443-2.287.877-1.122-.707-.331-1.8-.143-2.734.438-2.2,3.042-4.714-.885-6.306" transform="translate(-164.714 -62.795)" fill="#fade01"/>
        <path id="Trazado_178122" data-name="Trazado 178122" d="M513.08,276.08c.488.014,1.2-.153,1.3.444.558,3.358,2.81,4.339,7.107,3.963-3.9,2.385-5.007,4.779-3.134,7.908l-1.419.294c-2.364-3.192-4.721-1.523-7.032.248-.971-1.784.674-3.057.439-4.459-.275-1.637-2.213-1.932-3.3-3.555,2.635-.5,5.489-.727,5.763-4.119l.278-.725" transform="translate(-122.557 -66.729)" fill="#f2de00"/>
        <path id="Trazado_178123" data-name="Trazado 178123" d="M619.92,278.809c.479-.616,1.005-.864,1.651-.218-.165,4.008,2.8,4.1,5.987,4.261-1.388,2.24-4.249,3.553-2.862,6.575.258.562-.732,1.493-1.019,1.047-2.016-3.136-6.289,1.266-6.513-.909a9.287,9.287,0,0,0-3.39-6.5c2.984-.651,6.4-.145,6.146-4.258" transform="translate(-148.356 -67.247)" fill="#f3df0f"/>
        <path id="Trazado_178124" data-name="Trazado 178124" d="M736.215,321.619c-1.96.907-2.084-.4-2.407-1.933a2.369,2.369,0,0,1,2.221-2.8,2.509,2.509,0,0,1,2.236,2.853c-.083,1.222.2,2.812-2.05,1.878" transform="translate(-177.356 -76.596)" fill="#f4e00a"/>
        <path id="Trazado_178125" data-name="Trazado 178125" d="M535.371,299.592c1.3-3.025,2.74-.124,3.639.235,1.868.746.409,2.416-.063,3.467-.76,1.693-2.719,1.246-4,1.126-1.821-.171-.98-2.242-1.412-3.412-.577-1.561.925-1.3,1.842-1.418a7.9,7.9,0,0,1,1.113,1.448,5.891,5.891,0,0,0-1.115-1.446" transform="translate(-128.93 -72.085)" fill="#bce297"/>
        <path id="Trazado_178126" data-name="Trazado 178126" d="M705.928,276.3l.946-.516c4.7-1.573,9.125-.522,13.454,1.423l-14.4-.907" transform="translate(-170.631 -66.475)" fill="#00911b"/>
        <path id="Trazado_178127" data-name="Trazado 178127" d="M597.414,298.279c-1.641.261-1.669-.965-1.967-2.053-.483-1.762.715-2.223,1.941-2.514,1.71-.4,2.138.842,2.266,2.148.152,1.563-.855,2.2-2.24,2.419" transform="translate(-143.9 -70.975)" fill="#f3e00d"/>
        <path id="Trazado_178128" data-name="Trazado 178128" d="M492.567,309.18c.893.711,2.927.064,2.592,1.981-.172.981-.13,2.656-2.125,2.541-1.624-.093-2.115-1.117-2.46-2.349-.484-1.728,1.148-1.541,1.993-2.173" transform="translate(-118.556 -74.732)" fill="#f7e005"/>
        <path id="Trazado_178129" data-name="Trazado 178129" d="M455.055,336.109c1.257.357,2.469.95,2.367,2.415a2.089,2.089,0,0,1-2.05,2.223A2.262,2.262,0,0,1,453,338.4c-.115-1.208.827-1.976,2.055-2.294" transform="translate(-109.493 -81.241)" fill="#f1e113"/>
        <path id="Trazado_178130" data-name="Trazado 178130" d="M855.913,294.987c2.876-.044,5.733-.338,8.137,1.988.78.755,2.641,1.24,3.433-.049,2.39-3.893,4.665-1.326,5.715.532,1.727,3.058,3.927,3.625,7.1,3.681,4.527.079,8.29,2.669,12.022,4.916,6.035,3.632,12.038,6.927,19.23,3.189,1.2-.625,2.193-.111,3.257.2.754.22,1.46.585,1.421,1.5s-.764,1.182-1.523,1.413c-1.207.367-3.268.088-2.875,2.041.276,1.373,2.055,1.747,3.473,1.77,2.991.049,6.433,2.026,8.318-2.493.6-1.45,2.746-1.323,4.451-.582,1.655.719,1.216,1.81,1.068,3.11-.361,3.171,1.791,4.577,4.385,5.164a42.714,42.714,0,0,0,7.461.858c1.813.082,4.157.747,5.137-1.334.866-1.839-1.863-2.376-2.257-3.93,3.3.62,6.131,2.366,9.092,3.8,1.12,3.161,3.492,2.988,6.065,2.277,3.212,1.862,7.208,1.962,10.3,4.375-1,1.378-2.122.814-3.177.651-10.891-1.686-21.855-3-32.647-5.181-8.08-1.63-15.932-4.375-23.891-6.606-10.554-2.959-20.079-8.522-30.45-11.971-7.147-2.377-14.15-5.184-21.234-7.758a3.186,3.186,0,0,1-2.013-1.566" transform="translate(-206.884 -71.279)" fill="#009019"/>
        <path id="Trazado_178131" data-name="Trazado 178131" d="M846.05,289.285c1.5-.637,2.466-2.521,4.5-1.922,3.153.929,1.425,3.18,1.355,4.982-2.045-.26-2.215-.349-5.855-3.06" transform="translate(-204.5 -69.431)" fill="#c0d508"/>
        <path id="Trazado_178132" data-name="Trazado 178132" d="M989.744,331.291c-1.351,2.637-3.688,1.636-5.52,1.144-1.862-.5-1.176-2.13-.545-3.421l6.065,2.277" transform="translate(-237.606 -79.527)" fill="#00911b"/>
        <path id="Trazado_178133" data-name="Trazado 178133" d="M953.9,316.017c2.3.689,4.315,2.207,6.818,2.276.813,1.024,2.586.758,3.042,2.262-2.684-.178-5.023-1.739-7.779-1.831-1.2-.04-1.967-1.344-2.08-2.706" transform="translate(-230.568 -76.385)" fill="#009019"/>
        <path id="Trazado_178134" data-name="Trazado 178134" d="M489.523,114.555c4.39,1.4,5.6-1.369,7.393-4.217.686,3.134,1.7,4.879,4.8,4.683,1.772-.111.874,1.442.161,1.967-1.506,1.111-2.231,2.323-1.412,4.152a.852.852,0,0,1,.049.37c-.033.769-.582,1.989-1.09,1.307-2.13-2.855-6.669.972-6.6-.941.107-2.983-1.6-4.407-3.3-7.321" transform="translate(-118.323 -26.67)" fill="#f2e017"/>
        <path id="Trazado_178135" data-name="Trazado 178135" d="M413.16,70.024c4.7,0,9.4.015,14.1-.011,1.15-.006,2.076.136,1.655,1.613-.281.983-.143,2.365-1.99,1.948-4.6-1.037-9.219-1.958-13.83-2.925Z" transform="translate(-99.849 -16.923)" fill="#071f6e"/>
        <path id="Trazado_178136" data-name="Trazado 178136" d="M413.973,63.336l9.724-5.517c2.42,3.212-.856,5.586-2.307,5.6-2.408.026-5.02,1.465-7.417-.085" transform="translate(-100.062 -13.976)" fill="#c1f3f4"/>
        <path id="Trazado_178137" data-name="Trazado 178137" d="M413.343,77.108c1.937,1.762,3.933,3.465,5.781,5.316.694.7,1.979,1.658.6,2.776-1.034.839-2.475,1.16-3.227-.312-1.3-2.541-4-4.146-4.613-7.107.043-1.181.5-1.474,1.455-.673" transform="translate(-99.558 -18.529)" fill="#f2e013"/>
        <path id="Trazado_178138" data-name="Trazado 178138" d="M406.4,78.257c.616,3.7,1.253,7.4,1.83,11.111.122.789.541,1.874-.928,1.957-1.235.071-1.793-.415-1.765-1.77.079-3.767.027-7.535.027-11.3l.836,0" transform="translate(-98.024 -18.915)" fill="#09155d"/>
        <path id="Trazado_178139" data-name="Trazado 178139" d="M462.673,170.615c-.467,1.434-.929,2.257-2.715,2.533-2.2.338-1.971-1.187-2.206-2.094-.457-1.772,1.4-2.423,2.377-2.606,1.037-.195,1.978,1.144,2.544,2.168" transform="translate(-110.627 -40.711)" fill="#eee111"/>
        <path id="Trazado_178140" data-name="Trazado 178140" d="M409.35,186.656c-.536.954-.538,2.318-2.1,2.279a2.6,2.6,0,0,1-2.765-2.457,2.1,2.1,0,0,1,2.236-2c1.081.146,2.458.632,2.63,2.181" transform="translate(-97.768 -44.586)" fill="#efe214"/>
        <path id="Trazado_178141" data-name="Trazado 178141" d="M412.434,75.979l-1.454.673c-1.6-.881-2.292-2.3-2.854-4.665,2.039,1.391,3.7,2.094,4.309,3.992" transform="translate(-98.649 -17.4)" fill="#c4e180"/>
        <path id="Trazado_178142" data-name="Trazado 178142" d="M154.186,377.531c.229,3.694-2.457,5.554-4.878,7.456A186.63,186.63,0,0,1,109.4,409.165c-2.411,1.066-4.829,2.123-7.275,3.108-3.593,1.446-5.381-.789-6.9-3.493a9.139,9.139,0,0,1,4.705-2.18c6.841-1.187,12.135-5.369,17.768-8.884,1.933-1.206,1.109-1.87-.692-2-.033-.268.033-.678.18-.673,1.956.064,2.912-1.639,4.377-2.427.982,2.066,2.006,1.119,3.2.14,6.125-5.04,11.858-10.43,15.836-17.41.528-.926,1.858-1.73,1.171-2.967-.761-1.371-2.345-.966-3.433-.7-9.311,2.314-18.778,1.286-28.178,1.347a44.755,44.755,0,0,1-11.24-1.724,130.287,130.287,0,0,0,44.727-3.5c-.115,2.242,1.273,2.546,2.957,2.11,2.291-.594,4.535-1.363,6.794-2.077.908-.287,1.9-1.234,2.712-.144a4.049,4.049,0,0,1,.223,3.641c-.384,1.263-1.529.988-2.552.783a3.185,3.185,0,0,0-1.062.161c-.692.485-1.162.067-1.606-.375-1.347.206-.737,1.245-.818,1.978.28,2.312,2.565,2.473,3.9,3.649" transform="translate(-23.017 -88.752)" fill="#00911b"/>
        <path id="Trazado_178143" data-name="Trazado 178143" d="M153.708,355.959c1.078,1.178,2.34,2.216,2.866,3.81l-.124.084c-2.63,1.122-5.46,1.542-8.193,2.3a3.856,3.856,0,0,1-3.826-.851c-8.247.94-16.507,2.112-24.816,1.451-9.209-.732-18.495-1.146-27.342-4.436,3.773.545,7.549,1.073,11.319,1.637a133.974,133.974,0,0,0,42.439-.309,15.908,15.908,0,0,0,7.678-3.682" transform="translate(-22.303 -86.039)" fill="#00870c"/>
        <path id="Trazado_178144" data-name="Trazado 178144" d="M94.063,435.133c-1.551-1.231-3.019-1.422-4.642.015-.738.654-2.458.779-1.721-.714,1.658-3.36-.357-4.964-3.069-7.031,3.353-.457,6.725-.344,6.39-4.591l1.557-.042c.127,3.736,2.542,4.613,5.69,4.325.409,1.482-1.129,1.659-1.291,2.6l.052-.03c-2.624.659-1.52,2.431-1.027,3.838.868,2.48-.668,1.839-1.939,1.633" transform="translate(-20.456 -102.189)" fill="#eddd01"/>
        <path id="Trazado_178145" data-name="Trazado 178145" d="M21.24,365.034c4.218.287,6.715-.638,7.118-5.469,1.677,3.764,3.117,6.411,7.125,5.623-2.593,2.277-4.07,4.657-2.4,8.283-2.976-2.434-5.726-2.507-8.622.047,1.451-3.534.432-6.069-3.217-8.484" transform="translate(-5.134 -86.911)" fill="#eede01"/>
        <path id="Trazado_178146" data-name="Trazado 178146" d="M161.055,362.49c4.1.272,7.862-2.233,12.02-1.445-3.432,3.044-7.7,3.834-12.027,4.461l.007-3.016" transform="translate(-38.927 -87.232)" fill="#00911b"/>
        <path id="Trazado_178147" data-name="Trazado 178147" d="M127.994,399.938c-.552,2.456-2.688,2.583-4.558,3.1-2-1.406-2.162-2.936-.293-4.584,2.414-2.129,3.67-.438,4.852,1.482" transform="translate(-29.449 -96.072)" fill="#d0db07"/>
        <path id="Trazado_178148" data-name="Trazado 178148" d="M83.286,370.886c-2.909,1.427-2.225-1.778-2.364-2.336-.337-1.352,1.521-2.126,2.5-2.213.708-.063,2.806.982,2.39,2.013-.347.857.406,4.019-2.523,2.536" transform="translate(-19.55 -88.548)" fill="#eae404"/>
        <path id="Trazado_178149" data-name="Trazado 178149" d="M100.777,425.332c15.019-4.81,28.818-12.128,42.1-20.594-2.588,4.918-7.369,7.316-11.511,10.351-8,5.86-17.093,9.773-25.952,14.083-1.291.629-2.99,1.906-4.086.736a4.126,4.126,0,0,1-.5-4.606l-.052.03" transform="translate(-24.256 -97.83)" fill="#00911b"/>
        <path id="Trazado_178150" data-name="Trazado 178150" d="M168.445,373.172l1.476.555c2.558,1.171.633,3.6,1.473,5.252-2.516-.346-5.966.355-4.717-4.209a10.316,10.316,0,0,1,1.768-1.6" transform="translate(-40.224 -90.2)" fill="#dbdd06"/>
        <path id="Trazado_178151" data-name="Trazado 178151" d="M468.3,260.555c-.479,2.625-.91,5.3-4.673,4.559-.328-1.53-1.813-2.752-.476-4.682,1.982-2.863,3.452.2,5.15.124" transform="translate(-111.815 -62.653)" fill="#c7d808"/>
        <path id="Trazado_178152" data-name="Trazado 178152" d="M443.011,292.8c-.451,3.148-1.542,5.369-5.331,3.672-.422-1.89-.6-3.5,1.637-4.674,1.821-.954,2.075,2.268,3.694,1" transform="translate(-105.73 -70.489)" fill="#c5d106"/>
        <path id="Trazado_178153" data-name="Trazado 178153" d="M318.988,323.085c2.15-7.469,4.813-14.833,4.64-22.775,2.086-.444,3.13,1.326,4.567,2.2,5.4,3.3,11.171,2.48,14.014-2.085,2.336-3.753,1.779-6.606-2.037-8.825a66.965,66.965,0,0,1-16.792-13.918c-1.834-2.1-4.671-4.061-3.6-7.662,8.782,7.081,18.9,11.959,28.713,17.331,2.156,1.181,3.176,2.627,3.152,5.062-.062,6.337-.465,12.485-4.544,17.876-2.6,3.433-6.226,5.1-9.923,6.534-5.97,2.323-12.115,4.2-18.187,6.259" transform="translate(-77.103 -65.268)" fill="#cc7555"/>
        <path id="Trazado_178154" data-name="Trazado 178154" d="M319.064,268.575c2.262,5.717,6.762,9.59,11.17,13.535a57.332,57.332,0,0,0,12.1,8.31,3.191,3.191,0,0,1,1.788,3.044,10.065,10.065,0,0,1-4.906,9.628c-3.773,2.314-7.834,1.316-11.528-.563-1.758-.895-3.195-2.424-4.776-3.666-.047-.227-.1-.453-.164-.676a249.22,249.22,0,0,0-6.711-34.158c1.963.88,1.693,3.245,3.023,4.547" transform="translate(-76.391 -63.819)" fill="#e29a78"/>
        <path id="Trazado_178155" data-name="Trazado 178155" d="M908.068,202.108c-4.074,6.161-10.449,8.52-17.18,9.821-16.867,3.261-32.485-.933-47.337-8.749-7.216-3.8-13.617-8.65-17.992-15.733-3.28-5.306-4.5-10.9-2.084-16.925a3.456,3.456,0,0,1,1.5-2.091c2.811-1.953,5.674-.13,8.458.068A45.554,45.554,0,0,1,842,169.905c1.67.715,3.512.817,5.213,1.424,3.619,1.208,7.389,1.91,10.975,3.232,1.2.427,2.383.892,3.572,1.347,1.37.369,2.633,1.019,3.955,1.518,3.817,1.275,7.459,2.974,11.138,4.582a6.443,6.443,0,0,1,.912.442,45.6,45.6,0,0,0,4.376,2.248c.883.453,1.765.908,2.67,1.319,2.022.946,3.884,2.179,5.852,3.222,4.818,2.863,9.568,5.832,14.116,9.106,1.351.973,3.144,1.685,3.293,3.763" transform="translate(-198.737 -40.496)" fill="#001b71"/>
        <path id="Trazado_178156" data-name="Trazado 178156" d="M829.961,161.1c4.856-5.5,11.552-7.327,18.3-7.878,22.555-1.843,42.435,4.588,58.613,20.816,4.186,4.2,6.747,9.435,6.5,15.66a8.014,8.014,0,0,1-1.225,4.679c-1.819.316-3.032-.917-4.337-1.789-4.233-2.826-8.472-5.638-12.9-8.148-.767-.381-1.507-.815-2.263-1.219a17.525,17.525,0,0,0-2.232-1.213c-5.508-3.929-11.882-6.006-18.087-8.444A18.541,18.541,0,0,0,869,172.14c-1.493-.509-2.982-1.029-4.441-1.633a29.583,29.583,0,0,0-3.528-1.269c-3.6-1.048-7.166-2.209-10.781-3.208a20.3,20.3,0,0,0-5.136-1.178c-4.522-.637-8.842-2.311-13.444-2.54a1.833,1.833,0,0,1-1.712-1.213" transform="translate(-200.611 -36.961)" fill="#001b71"/>
        <path id="Trazado_178157" data-name="Trazado 178157" d="M914.9,193.208a123.654,123.654,0,0,1,17.046,10.91,4.251,4.251,0,0,1-2.209,4.2L911.849,196.13c-.07-2.107,1.23-2.786,3.049-2.922" transform="translate(-220.404 -46.701)" fill="#bbd2c5"/>
        <path id="Trazado_178158" data-name="Trazado 178158" d="M828.97,163.707a105.871,105.871,0,0,1,15.9,2.719c1.878,2.516,1.544,3.26-1.7,3.785l-17.307-2.706a4.849,4.849,0,0,1,3.11-3.8" transform="translate(-199.62 -39.57)" fill="#d2e2dd"/>
        <path id="Trazado_178159" data-name="Trazado 178159" d="M634.884,246.57c1.2.19,2.2.08,2.246-1.475,1.257.927,3.539.806,3.314,3.245-.186,2.017-1.1,3.2-3.315,2.873-1.015.51-1.765.217-1.842-.905a11.1,11.1,0,0,0-.833-2.816l.43-.922" transform="translate(-153.355 -59.242)" fill="#bfd607"/>
        <path id="Trazado_178160" data-name="Trazado 178160" d="M634.421,248.256c1.83.566.4,3.471,2.675,3.721-.475,1.592-1.433,1.481-1.927.225a6.459,6.459,0,0,1-.748-3.946" transform="translate(-153.322 -60.006)" fill="#00880d"/>
        <path id="Trazado_178161" data-name="Trazado 178161" d="M40.247,446.985c-3.567,1.639-1.6-1.779-2.3-2.588-.946-1.094,2.085-1.163,2.319-2.646l3.206,2.357c-1.384.7.006,4.657-3.229,2.877" transform="translate(-9.129 -106.776)" fill="#c7d806"/>
        <path id="Trazado_178162" data-name="Trazado 178162" d="M535.959,300.027a14.785,14.785,0,0,1,1.768.484,1.768,1.768,0,0,1,1.134,2.373,1.286,1.286,0,0,1-1.376.974c-1.272-.041-1.639-.9-1.648-2-.005-.612.08-1.224.124-1.837l0,0" transform="translate(-129.518 -72.52)" fill="#f6df05"/>
        <path id="Trazado_178163" data-name="Trazado 178163" d="M168.491,372.741c-.237.921-.469,1.849-1.768,1.6-.57-2.054.988-2.583,2.373-2.947.253-.067-.629.776-.605,1.348" transform="translate(-40.27 -89.769)" fill="#00870c"/>
        <path id="Trazado_178164" data-name="Trazado 178164" d="M906.936,189.694l-3.049,2.922-6.049-3.128c.181-2.157-1.3-1.388-2.37-1.348a14.381,14.381,0,0,1-4.508-2.333c.222-.24.429-.494.641-.744-.229.239-.386.532-.594.786l-12.09-4.782a1.189,1.189,0,0,1,.776-1.233c1.467-.567,3.2-.1,4.539-1.165,2.511,1.069,5,2.2,7.548,3.174.864.329,1.809,1.572,2.863.075.4-.567,1.472-.412,1.563.151.638,3.947,4.562,3.615,6.827,5.411-.382,2.019.622,1.467,1.642.886l2.261,1.327" transform="translate(-212.442 -43.187)" fill="#dbe9e8"/>
        <path id="Trazado_178165" data-name="Trazado 178165" d="M856.355,169.025c3.9.62,7.541,2.125,11.289,3.265a3.44,3.44,0,0,1-1.458,3.741L854.9,172.672c-.48-1.6-1.036-3.232,1.455-3.647" transform="translate(-206.539 -40.855)" fill="#dae5e7"/>
        <path id="Trazado_178166" data-name="Trazado 178166" d="M878.261,179.591l-.733.594-3.751-1.566c-1.064-1.864-.861-3.194,1.521-3.6l4.456,1.58c1.263,1.875-.578,2.205-1.493,3" transform="translate(-211.054 -42.303)" fill="#f1f5f6"/>
        <path id="Trazado_178167" data-name="Trazado 178167" d="M854.953,168.606c-1.319.883-.515,2.613-1.455,3.647a12.233,12.233,0,0,1-4.814-1.176c2.138-.557,2.741-1.8,1.7-3.785a9.305,9.305,0,0,1,4.571,1.313" transform="translate(-205.137 -40.437)" fill="#9ebbb0"/>
        <path id="Trazado_178168" data-name="Trazado 178168" d="M874.49,174.608a3.49,3.49,0,0,0-1.52,3.6,5.463,5.463,0,0,1-3.077-1.138c-.328-1.564.57-2.651,1.457-3.741a6.063,6.063,0,0,1,3.14,1.276" transform="translate(-210.247 -41.896)" fill="#a4c2b3"/>
        <path id="Trazado_178169" data-name="Trazado 178169" d="M900.747,190.4c.611-.72-.318-2.422,1.513-2.364.882.028,1.819.109,2.222.993.626,1.376-.882,1.818-1.364,2.719a3.373,3.373,0,0,1-2.37-1.348" transform="translate(-217.721 -45.451)" fill="#9bbba1"/>
        <path id="Trazado_178170" data-name="Trazado 178170" d="M833.771,173.412c-.744-.064-1.585-.089-1.656-1.056-.054-.729.512-1.071,1.206-1.023a1.419,1.419,0,0,1,1.473,1.316c.059.673-.566.658-1.024.762" transform="translate(-201.131 -41.412)" fill="#8393bb"/>
        <path id="Trazado_178171" data-name="Trazado 178171" d="M878.39,204.287a1.578,1.578,0,0,1,1.533,1.175c.144.482-.259.911-.849.88-.7-.037-1.531.032-1.761-.877-.192-.752.3-1.079,1.078-1.178" transform="translate(-212.047 -49.379)" fill="#8f9ccb"/>
        <path id="Trazado_178172" data-name="Trazado 178172" d="M838.044,188.5c-.371.862-1,.768-1.612.582-.654-.2-1.184-.676-.961-1.371s1-.724,1.557-.494c.532.219,1.132.577,1.016,1.282" transform="translate(-201.931 -45.222)" fill="#8795c3"/>
        <path id="Trazado_178173" data-name="Trazado 178173" d="M849.829,194.574a.9.9,0,0,1-1.123.706c-.669-.078-1.3-.431-1.338-1.1-.046-.787.632-1.04,1.306-.868a1.322,1.322,0,0,1,1.155,1.259" transform="translate(-204.818 -46.714)" fill="#6e7db3"/>
        <path id="Trazado_178174" data-name="Trazado 178174" d="M879.886,180.094c.367-1.064,1.634-1.679,1.493-3a4.938,4.938,0,0,1,3.089,1.191c.064,4.643-3.331.5-4.582,1.8" transform="translate(-212.679 -42.806)" fill="#9db7ac"/>
        <path id="Trazado_178175" data-name="Trazado 178175" d="M911.525,191.175c-1.056,2.86-1.056,2.86-4.276.8.353-1.384,1.869-.946,2.633-1.686l1.642.886" transform="translate(-219.293 -45.995)" fill="#98b6a2"/>
        <path id="Trazado_178176" data-name="Trazado 178176" d="M836.96,167.369c.077-1.465.961-1.319,1.676-1.233.99.118,2.134.219,1.955,1.7-.083.689-.752.855-1.007.371-.612-1.163-2.339.556-2.624-.834" transform="translate(-202.303 -40.145)" fill="#8aad8c"/>
        <path id="Trazado_178177" data-name="Trazado 178177" d="M833.2,167.026c-.865-1.629-2.446.3-3.177-.723-.345-.483.279-1.147,1-1.2,1.169-.078,2.185.146,2.18,1.918" transform="translate(-200.603 -39.905)" fill="#91af92"/>
        <path id="Trazado_178178" data-name="Trazado 178178" d="M894.8,187.387c.046-.867-.861-2.15.874-2.306.979-.088,2.3-.191,2.483,1.086.186,1.3-1.075,1.034-1.9,1.1-.5.041-1,.052-1.508.077l.046.042" transform="translate(-216.236 -44.725)" fill="#8faf90"/>
        <path id="Trazado_178179" data-name="Trazado 178179" d="M891.6,183.139c-.381.518-.952,1.371-1.337.842-.7-.957-2.419.03-2.522-1.46-.042-.618.933-1.263,1.248-.931.749.784,2.3.179,2.611,1.549" transform="translate(-214.577 -43.871)" fill="#82a883"/>
        <path id="Trazado_178180" data-name="Trazado 178180" d="M862.474,172.149c-1.542,1.549-2.769,1.451-4.083-.956l4.083.956" transform="translate(-207.483 -41.379)" fill="#639966"/>
        <path id="Trazado_178181" data-name="Trazado 178181" d="M467.374,514.074h22.95c-.571,5.376-.572,5.376-5.522,4.334q-8.768-1.848-17.535-3.7c.036-.212.072-.422.108-.634" transform="translate(-112.944 -124.258)" fill="#081553"/>
        <path id="Trazado_178182" data-name="Trazado 178182" d="M448.064,522.159c-2.3,4.174-4.651,8.324-6.887,12.534-.8,1.509-1.426,2.728-3.321,1.241-1.526-1.2-2.755-2.254-.979-4.243,3.267-3.659,6.442-7.4,9.655-11.107.417-.431.94-.992,1.5-.573.794.6.665,1.419.033,2.147" transform="translate(-105.386 -125.657)" fill="#0e9b36"/>
        <path id="Trazado_178183" data-name="Trazado 178183" d="M466.016,503.2c4.43-4.17,8.87-8.328,13.281-12.519.8-.759,1.542-1.062,1.967.182.456,1.334,3.141,2.646.98,4.034-5.084,3.263-10.458,6.075-15.714,9.069l-.513-.767" transform="translate(-112.642 -118.445)" fill="#0e9b36"/>
        <path id="Trazado_178184" data-name="Trazado 178184" d="M443.823,512.939c-6,1.175-12.012,2.314-18,3.547-1.9.391-2.207-.56-2.026-2.04.159-1.294-.763-3.09,1.987-3,5.99.187,11.989.058,17.984.058q.028.72.058,1.44" transform="translate(-102.425 -123.62)" fill="#f9df03"/>
        <path id="Trazado_178185" data-name="Trazado 178185" d="M464.678,519.912c4.321,4.011,8.671,7.992,12.944,12.053,1.137,1.081.026,1.768-.776,2.348-1.125.816-2.576,1.893-3.619.415-3.257-4.614-6.269-9.4-9.375-14.12l.827-.7" transform="translate(-112.118 -125.669)" fill="#081553"/>
        <path id="Trazado_178186" data-name="Trazado 178186" d="M458.024,498.814c-.422-5.818-.884-11.633-1.246-17.454-.122-1.956,1.387-1.7,2.642-1.634,1.57.079,2.637.473,2.29,2.492-.953,5.541-1.771,11.105-2.642,16.66l-1.044-.064" transform="translate(-110.407 -115.944)" fill="#f9df03"/>
        <path id="Trazado_178187" data-name="Trazado 178187" d="M444.057,502.44l-16.636-8.556c3.2-4.387,3.217-4.4,7.088-1.075,3.413,2.931,6.794,5.9,10.19,8.849l-.642.782" transform="translate(-103.313 -118.545)" fill="#081553"/>
        <path id="Trazado_178188" data-name="Trazado 178188" d="M458.853,523.205q1.53,9.172,3.058,18.344c.224,1.341-.331,1.736-1.671,1.646-1.579-.105-2.508-.374-2.464-2.349.13-5.843.046-11.691.046-17.537l1.03-.1" transform="translate(-110.65 -126.465)" fill="#f9df03"/>
        <path id="Trazado_178189" data-name="Trazado 178189" d="M451.421,520.929c.01-1.031.248-2.283-1.532-1.575.7-1.984,2.139-3.257,4.249-4.581.227,2.931-1.4,4.475-2.718,6.156" transform="translate(-108.743 -124.427)" fill="#f9df03"/>
      </g>
    </g>
  </g>
</svg>
