<svg xmlns="http://www.w3.org/2000/svg" xmlns:xlink="http://www.w3.org/1999/xlink" width="793" height="206" viewBox="0 0 793 206">
  <defs>
    <clipPath id="clip-path">
      <path id="Trazado_178266" data-name="Trazado 178266" d="M0,0H793V206H0Z" transform="translate(-6173 -9608)" fill="#ffd947"/>
    </clipPath>
    <clipPath id="clip-path-2">
      <rect id="Rectángulo_44738" data-name="Rectángulo 44738" width="409.402" height="417.045" fill="none"/>
    </clipPath>
    <clipPath id="clip-path-3">
      <rect id="Rectángulo_44737" data-name="Rectángulo 44737" width="409.402" height="36.832" fill="none"/>
    </clipPath>
  </defs>
  <g id="_22" data-name="22" transform="translate(6173 9608)" clip-path="url(#clip-path)">
    <g id="Grupo_173758" data-name="Grupo 173758" transform="translate(-6983 -14339.597)">
      <rect id="Rectángulo_44736" data-name="Rectángulo 44736" width="807" height="293" transform="translate(803 4723.597)" fill="#b1b1b1"/>
      <g id="Grupo_173757" data-name="Grupo 173757" transform="translate(811.274 4626.074)">
        <g id="Grupo_173756" data-name="Grupo 173756">
          <path id="Trazado_178191" data-name="Trazado 178191" d="M0,150.807,15.417,295.1h373.72L409.4,150.807Z" transform="translate(0 121.943)" fill="#fff"/>
          <g id="Grupo_173755" data-name="Grupo 173755">
            <g id="Grupo_173754" data-name="Grupo 173754" clip-path="url(#clip-path-2)">
              <path id="Trazado_178192" data-name="Trazado 178192" d="M84.972,21.622c-.306,2.632.761,5.661-2.188,7.522-6.54,1.783-13.04.069-19.424-.738-7.046-.888-10.005-6.735-7.026-13.234C58.89,9.6,58.5,1.693,66.917.174c11.6-.047,16.3,4.189,17.108,15.317.15,2.056.624,4.087.948,6.131" transform="translate(44.62 0.141)" fill="#956335"/>
              <path id="Trazado_178193" data-name="Trazado 178193" d="M69.05.315c-6.547,4.554-5.417,12.837-9,18.951-1.859,3.176,1.467,7.459,5.4,7.629,6.589.288,12.763,3.5,19.461,2.391-2.66,2.53-6,1.371-9.076,1.678q-1.81-.079-3.615-.159c-5,.814-9.582-1.622-14.447-1.854-2.235-3.849-8.108-7.026-3.547-12.362C58.991,11.023,55.479-2.2,69.05.315" transform="translate(42.486 0)" fill="#ecd7b1"/>
              <path id="Trazado_178194" data-name="Trazado 178194" d="M194.828,191.432c-12.523-.664-23.053-7.048-34.043-12.085-7.706-3.53-8.086-9.233-.864-14.011a91.693,91.693,0,0,0,10.1-7.488c8.2-7.215,11.351-7.093,19.074.311,1.047,1,1.66,2.465,4.485,3.552-11.394-17.339-17.182-34.924-11.345-54.658,4.127-1.658,4.569,1.792,5.182,4.149,1.295,4.992,4.6,3.8,7.81,2.885,3.717-1.056,4.185-3.775,3.458-7.131-1.525-7.057-6.37-12.932-7.166-20.255,7.922-10.038,10.91-10.758,21.092-5.115a10.112,10.112,0,0,1,2.745,3.076,98.41,98.41,0,0,0,10.106,22.414c.613,1.989,2.337,3.87,1.883,5.927-2.395,10.806-1.584,20.7,6.068,29.574,2.561,2.972.571,6.227-2.51,8.412,1.414.611,2.885.166,4.274.029,7.716-.765,7.862-1.139,3.907-8.236a5.107,5.107,0,0,1-.6-3.465c1.971-3.657,5.578-5.388,9.085-6.784,5.887-2.344,5.692-5.592,2.867-10.327-2.384-3.993-5.739-7.7-5.5-12.886,2.389-7.412,6.956-10.211,14.438-6.822,7.837,9.079,15.57,18.222,16.775,30.924.626,6.6,6.12,10.9,8.124,16.856q-.076,17.316-.154,34.635c-.955,1.517-1.912,3.035-3.749,3.637a15.513,15.513,0,0,1-3.516.443c-16.954.539-16.952.541-22.931-15.4a15.331,15.331,0,0,0-2.154-3.977c-1.127,3.512-.436,7.222-3.049,9.571a3.183,3.183,0,0,1-4.051-.5c-6.352-7.307-15.4-9.173-23.937-12.08-4.446-2.6-8.184-7.553-14.407-4.008-6.647,3.787-6.515,10.685-6.565,16.623-.056,6.439,6.431,2.832,9.757,4.352,9.262-1.192,18.54-.944,27.811-.83,3.908.047,7.857.156,10.636,3.617" transform="translate(125.127 63.118)" fill="#eed8b3"/>
              <path id="Trazado_178195" data-name="Trazado 178195" d="M0,141c2.329-2.416,5.335-2.187,8.356-2.281,14.586-.458,29.319,1.686,43.71-2.467a10.673,10.673,0,0,1,5.357-.125c10.253,2.541,20.551,2.027,30.882.754,2.2.4,4.462.362,6.677.695,8.544,2.15,17.252,1.194,25.874,1.1,19.994-.208,40.006,1.022,59.961-.749,1-.069,2.018-.141,3.019-.277a106.549,106.549,0,0,0,14.132-.136c6.545,1.378,13.067,0,19.62-.2a15.908,15.908,0,0,1,3.116.266,108.347,108.347,0,0,0,37.755.673c20.123-3.346,39.258,1.711,58.814,3.089q24.709.163,49.417.306c2.32.009,4.907.49,6.341-2.2.367-.374.736-.749,1.1-1.13,2.46-1.49,5.319-1.973,7.674-.608,7.788,4.516,15.918,3,24.073,1.98q1.685-.751,3.371-1.5" transform="translate(0 109.842)" fill="#fcfcfc"/>
              <path id="Trazado_178196" data-name="Trazado 178196" d="M139.533,56.657c1.223,10.119-8.021,13.514-12.745,19.813-2.964,2.9-5.936,2.9-8.913.02-2.277-4.666-8.683-4.3-10.953-8.982,2.82-3.131,6.126-1.563,9.224-.8,5.079,1.255,8.907-.6,11.725-4.592,2.53-3.586,1.883-6.652-2.167-8.933-8.956-5.048-12.416-4.543-20.28,3.281a6.072,6.072,0,0,1-3.892,2.018c-1.5-8.7,2.865-14.724,9.072-19.913l3.621-1.825c4.218-2.6,8.428-1.836,12.637.025,10.182,2.834,10.51,11.942,12.671,19.884" transform="translate(81.86 28.362)" fill="#f1e8d4"/>
              <path id="Trazado_178197" data-name="Trazado 178197" d="M163.28,47.286c5.681-4.153,1.64-11.477,5.319-16.283,2.445,1.443,2.53,3.954,2.89,6.332.982,4.536-.5,8.793-1.483,13.13-1.734,7.667-.134,9.913,7.507,10.354,4.14.241,8.349.445,12.2-1.644,6.4-2.993,9.24-8.388,10.181-15.066,1.621-3.614-2.053-7.835,1.266-11.242l5.509,3.567C215.632,54.2,206.7,68.993,187.043,69c-5.39,0-10.935-.611-16.127.445-7.318,1.487-9.11-1.961-9.492-8.019a40.083,40.083,0,0,1,1.856-14.14" transform="translate(130.476 25.069)" fill="#f1e8d4"/>
              <path id="Trazado_178198" data-name="Trazado 178198" d="M197.919,36.657c1.116,4.279,2.6,8.513,1.546,13.049-5.958-1.436-9.848-7.16-16.2-7.77-6.053-6.748-11.754-.986-17.569.5q-.165-3.822-.333-7.647c5.567-9.743,9.4-10.922,18.05-4.38,4.462,3.373,10.808,1.619,14.507,6.245" transform="translate(133.713 21.28)" fill="#ecd7b2"/>
              <path id="Trazado_178199" data-name="Trazado 178199" d="M132.524,72.045l7.29,3.431c3.525-1.358,3.852,2.029,5.388,3.624,6.194-3.6,12.986-3.923,19.893-3.612,11-6.149,23.8.3,26.8,13.557-.528-6.072,2.3-9.94,7.817-11.564,6.547-1.93,13.017-2.478,18.09,3.536-1.615,6.146-8.083,10.685-6.021,18.072-2.174,6.146-.816,12.53-1,18.775-.156,5.187,4.229,7.547,8.5,9.4,6.364,4.091,14.033-1.228,20.392,2.8,3.541,14.25,14.158,22.479,25.612,29.97,7.31,1.651,14.257.982,20.477-3.492,2.192-1.577,4.395-3.65,3.809-6.612-.684-3.444-3.981-1.454-6-2.212-9.144-3.427-18.536-6.484-23.756-15.811a4.788,4.788,0,0,1,.72-2.413c6.417-3.263,11.34,1.986,16.965,3.123,9.678,1.957,16.1-.526,19.3-8.33,2.981-7.285-.043-12.971-7.824-14.69-.875-.192-1.915-.013-2.642-.425-9.85-5.581-18.394-5-25.027,5.115a4.576,4.576,0,0,1-4.679-2.228c-1.082-2.331-.125-4.673-.069-7.017,4.317-11.163,11.36-18.869,24.3-19.065a9.724,9.724,0,0,1,3.682,2.208c11.429,5.017,20.244,1.08,28.357-7.441,9.846-10.336,15.339-9.249,22.023,3.5.693,1.32,1.358,2.655,2.036,3.983-.034.624-.067,1.246-.1,1.87-8.414-7.531-13.668,1.581-20.224,3.836-4.968,5.489-4.475,13.366-8.439,19.294-2.268,11.467,2.577,22.528,1.957,33.949-.2,3.623,2.349,7.113,5.1,9.273,7.271,5.717,5.5,12.888,4.815,20.282-3.565-.393-2.843-3.246-3.883-4.833-7.761-11.836-11.177-12.331-21.363-2.677a23.56,23.56,0,0,1-8.227,5.377c-2.206.794-5.23,1.069-4.856,4.286a5.441,5.441,0,0,0,5.692,4.836c6.124-.2,9.875,2.9,13.6,7.287,4.149,4.878,11.293-.349,16.019,3.744-13.713-.226-27.556-1.255-41.092-.893-16.362.438-32.786.761-49.181,1.185-3.156.081-6.657,1.035-9.323-1.8,3.492-4.145,8.341-3.659,13.008-3.814,5.56-.183,11.148.416,16.657-.64,2-.544,4.1-.445,6.12-1.21,8.171-3.095,8.85-5.844,2.418-11.609-5.822-5.218-10.235-11.694-15.858-17.108-4.37-4.207-8.043-4.134-10.635,1.1-3.029,6.119-10.04,9.643-10.808,17.1-.745,5.339,2.351,10.913-.968,16.095-6.553,1.653-13.105,3.017-19.643-.054a2.087,2.087,0,0,1-.655-1.6c1.66-11.327,1.664-11.325-10.846-11.485-.465,4.314,3.614,9.255-1.239,13.058a12.2,12.2,0,0,1-1.68.168c-.373-.212-.743-.421-1.12-.628-3.666-6.524-7.281-12.859-14.941-15.9-10.439-4.142-16.845-2.53-22.457,7.2-2.868,4.972-5.9,6.569-10.595,2.5a9.564,9.564,0,0,1-1.543-1.979c-2.355-6.424-4.382-13.074-11.287-16.379-5.628-4.878-9.528-3.114-15.194,1.432-8.018,6.433-11.4,15.313-16.538,23.317Q45.229,195.278.749,194.93c.327-4.4-1.237-8.982,1.306-13.158a34,34,0,0,0,26.954,8.254c8.529-.955,11.993-7.256,7.3-14.82-6.992-11.266-16.471-13.771-28.337-7.428-1.854.991-3.6,2.176-5.827,2.053C-1.085,165.214.9,160.108.774,155.2c5.312-1.836,9.982-5.236,15.874-5.742,4.889-.421,3.912-4.72,3.693-7.735-.483-6.648,1.664-12.161,5.466-17.506,4.294-6.039,9.213-10.054,17.138-8.875,7.484,1.114,12.979-.264,12.593-9.761-.087-2.127,1.838-4.337,2.836-6.509-.9-3.248.691-4.769,3.69-5.314q5.4-1.872,10.8-3.742c.68-2.944,3.422-2.707,5.471-3.541l5.372-3.7c1.621-4.145,3.34-8.122,9.061-5.419,1.159.114,2.735-.221,3.415.411,7.108,6.583,11.027,1.765,14.764-3.939,1.264-2.14,3.2-2.263,5.346-1.787l7.211-.165c3.06-2.84,6.064-2.805,9.016.168" transform="translate(0.231 56.425)" fill="#f1e8d4"/>
              <path id="Trazado_178200" data-name="Trazado 178200" d="M221.472,87.522a12.368,12.368,0,0,0,5.393,5.4l1.877,5.411c-7.263-4.263-10.117.742-12.81,6.088-.9,1.186-1.338,2.745-2.433,3.722-7.8,6.963-9.936,14.946-4.641,24.373,1.85,4.144,5.464,5.949,10.427,6.12-9.412,10.884-14.518,11.892-26.482,5.507,3.268-1.662,8.052-.092,9.034-4.162.96-3.984-3.386-5.162-5.155-7.735a24.2,24.2,0,0,1-3.022-22.251c1.2-3.507.6-5.538-1.114-8.032,10.8,4.38,12.608-6.307,18.106-10.8,2.275-5.176,6.082-5.789,10.819-3.632" transform="translate(155.435 69.825)" fill="#f2e8d4"/>
              <path id="Trazado_178201" data-name="Trazado 178201" d="M198.331,125.962c10.75,1.686,21.191,3.9,26.288,15.294,2.59,2.089,2.163,4.283.232,6.531l-.1-.078c-13.783,1.34-27.576.852-41.37.25a40.607,40.607,0,0,1,5.507-17.247c1.991-3.246,4.84-6.082,9.445-4.749" transform="translate(148.281 101.581)" fill="#906137"/>
              <path id="Trazado_178202" data-name="Trazado 178202" d="M170.711,102.43c-.537-7.895-2.1-16.239,8.439-19.294,8.39,5.178,8.093,14.869,11.222,22.633,1.425,3.536-1.286,8.13-6.343,7.665-4.077-.373-7.379,1.669-11.226,2.284-1.366-4.493.749-9.307-2.093-13.288" transform="translate(137.709 67.224)" fill="#a36e39"/>
              <path id="Trazado_178203" data-name="Trazado 178203" d="M203.638,129.073c-5.75,3.653-10.468,7.913-9.56,15.652.467,3.983-3.594,4.227-5.391,6.345-1.5.116-3,.179-4.487.358-6.035.727-9.349-.506-6.128-7.527a16.016,16.016,0,0,0,1.069-7.066c-.293-7.569,4.093-11.682,10.367-14.2,6.753-2.713,10.7,1.467,14.131,6.44" transform="translate(142.975 98.47)" fill="#a26c37"/>
              <path id="Trazado_178204" data-name="Trazado 178204" d="M204.874,124.437c-13.467-9.694-8.175-18.7,7.073-28.1,4.838,3.9,6.372,10.041,9.929,14.85,2.076,2.809,1.139,7.343-2.83,7.936-5.256.785-8.9,5.115-14.172,5.31" transform="translate(159.42 77.901)" fill="#a36d38"/>
              <path id="Trazado_178205" data-name="Trazado 178205" d="M206.637,148.937q-.114-3.266-.23-6.529c.96-5.836.146-11.689-.5-18.207,6.925,2.5,9.62,7.618,10.369,13.2,1.328,9.879,6.5,13.253,15.918,11.707,2.335-.383,4.793-.022,7.193,0-10.937,4.408-21.832.239-32.745-.165" transform="translate(166.495 100.43)" fill="#f2e8d4"/>
              <path id="Trazado_178206" data-name="Trazado 178206" d="M49.785,152.628C47.66,136.282,62.268,130.58,70.606,121.28c4.456-4.97,8.925,1.537,12.743,4.594,4.824,5.352,7.1,12.244,11,18.157l-.061-.087c2.2,3.028,3.321,6.095.34,9.309-14.028,1.61-28.165-.611-42.193,1.158q-1.327-.89-2.651-1.781" transform="translate(40.088 96.603)" fill="#986637"/>
              <path id="Trazado_178207" data-name="Trazado 178207" d="M104.619,145.44c1.977-6.45-2.244-11.24-4.93-16.746,4.022.349,7.547.613,11.063.973,3.865.4,8.71-2.111,10.987,3.237,2.293,5.386-1.237,8.954-4.38,12.561-4.248.948-8.5,2.422-12.74-.025" transform="translate(80.609 104.063)" fill="#a3703e"/>
              <path id="Trazado_178208" data-name="Trazado 178208" d="M51.158,141.178l42.019-1.546c3.214-3.3,7.6-3.29,11.613-3.5,9.464-.5,18.958-.251,28.44-.1a11.978,11.978,0,0,1,8.8,3.594l.154.215c-1.367.517-2.736,1.483-4.107,1.485q-43.458.027-86.914-.141" transform="translate(41.367 109.833)" fill="#f1e8d4"/>
              <path id="Trazado_178209" data-name="Trazado 178209" d="M1.352,129.074c8.7-11.684,21.059-11.286,32.005-2.1,8.24,6.911,6.1,15.037,7.475,22.977.461,2.66-1.821,2.76-3.523,2.778-8.68.1-17.437.77-26.01-.181-5.807-.644-6.8-7.509-10.034-11.523q.043-5.979.087-11.948" transform="translate(1.023 97.182)" fill="#8e5e33"/>
              <path id="Trazado_178210" data-name="Trazado 178210" d="M101.4,54.339c2-3.33,3.9-6.728,6.033-9.974,2.7-4.115,5.961-5.981,10.224-1.81a8.208,8.208,0,0,0,5.536,2.655c6.978.239,10.882,3.668,9.665,10.785-1.161,6.784-10.352,12.085-16.664,10.029-3.109-1.013-5.936-2.923-9.4-2.66-3.418-2.042-4.762-5.319-5.391-9.023" transform="translate(81.993 32.509)" fill="#eed9b3"/>
              <path id="Trazado_178211" data-name="Trazado 178211" d="M128.888,92.7c.93-10.074,8.09-14.574,16.267-18.167,6.07-1.252,10.262-5.775,15.248-8.878,10.144-6.317,15.909-4.635,19.186,6.967,1.995,7.064,2.489,14.552,3.657,21.848l-3.749.013c-4.151-2.892-4.3-7.489-5.314-11.845-1.751-7.544-4.608-8.71-11.439-5.051-2.364,1.268-4.619,2.736-6.954,4.066-13.481,7.665-15.9,15.521-9.117,29.562.975,5.234,4.145,7.437,9.387,6.795q1.772.9,3.541,1.8c2.59,4.822,2.046,9.157-2,12.95-3.746.539-5.073-2.99-7.621-4.484-4.827-2.926-10.881-3.424-15.1-7.567-3.485-3.972-6.676-8.133-8.426-13.219-1.3-5.283-1.7-10.414,2.438-14.793" transform="translate(101.522 50.15)" fill="#f1e8d3"/>
              <path id="Trazado_178212" data-name="Trazado 178212" d="M181.855,34.187c7.462-.414,12.333,3.3,15.512,9.718-1.237,6.818-3.661,12.837-10.655,15.771a5.445,5.445,0,0,1-4.212.942c-5.24-.512-11.817,2.268-14.194-5.516-1.6-5.221,2.545-17.189,6.873-20.258a6.13,6.13,0,0,1,6.676-.657" transform="translate(135.811 27.079)" fill="#8d5d32"/>
              <path id="Trazado_178213" data-name="Trazado 178213" d="M185.553,36.329c-5.71,2.612-12.487,15.784-11.025,21.2a5.065,5.065,0,0,0,5.144,4.091c3.576.152,7.158.137,10.739.194-7.111,3.3-14.776,1.742-21.946,1.318-6.609-.389-5.373-6.938-3.964-11.421,1.342-4.272,3.527-8.249,2.794-12.935,6.8-9.931,9.609-10.309,18.258-2.451" transform="translate(132.113 24.938)" fill="#a5703c"/>
              <path id="Trazado_178214" data-name="Trazado 178214" d="M45.32,141.126c5.95-7.211,11.2-6.8,17.084-.2,2.467,2.764,6.216,4.594,11.188,5.534a30.15,30.15,0,0,0-8.457,17.227c-.946,6.647-5.12,6.535-8.719,2.981A19.6,19.6,0,0,0,45.682,161c-4.321-.866-7.84-4.3-7.484-8.967.506-6.645-3.214-9.7-8.068-12.644a45.725,45.725,0,0,1-9.325-7.017c-4.395-4.563-6.985-9.347.827-13.662,3.872-2.138,5.768-5.838,5.6-10.591-.146-4.082,2.134-7.093,6.176-7.708s8.526-1.63,11.477,2.807a8.6,8.6,0,0,0,.477.763c13.2,15.691,13.178,17.84-.038,37.147" transform="translate(13.436 80.743)" fill="#eed8b3"/>
              <path id="Trazado_178215" data-name="Trazado 178215" d="M94.47,119.2c-.232-10.018,11.32-22,19.623-22.685,3-.25,3.657,1.295,4.236,3.4,3.378,12.257,13.272,16.757,24.163,18.748,7.848,1.436,6.446,4.974,3.312,8.978a98.322,98.322,0,0,1-11.881,12.3c-7.576,6.8-12.494,5.9-17.066-3.085-1.888-3.709-4.569-4.818-8.535-5.319-8.083-1.018-12.147-6.6-13.852-12.333" transform="translate(76.386 78.02)" fill="#eed8b3"/>
              <path id="Trazado_178216" data-name="Trazado 178216" d="M142.922,112.839q1.582-6.286,3.161-12.572c1.407-2.626,2.628-5.373,4.261-7.849,3.451-5.24,7.283-9.517,13.282-2.72,2.123,2.405,4.791,3.218,7.992,3.422,10.9.7,16.334,5.916,15.176,14.2-1.449,10.365-10.68,18.115-20.179,16.053-7.251-1.573-14.228-4.406-21.327-6.677-2.152-.447-4.069-1.04-2.367-3.854" transform="translate(115.039 69.693)" fill="#eed8b3"/>
              <path id="Trazado_178217" data-name="Trazado 178217" d="M102.611,77.126c10.378.177,19.535,11.772,17.021,21.942a34.139,34.139,0,0,1-4.048,9.965c-11.411,18.052-20.567,11.425-31.575-.85-2.747-3.067-.8-7.782,1.154-8.98,8.7-5.317,2.387-22.177,17.448-22.078" transform="translate(66.83 62.364)" fill="#eed8b2"/>
              <path id="Trazado_178218" data-name="Trazado 178218" d="M78.107,94.975c3.568,3.823,6.918,7.616,4.31,13.527-1.318,2.99,1.185,4.9,2.677,7.148,4.867,7.352,3.413,13.4-4.843,15.109-6.8,1.407-7.681,10.551-13.787,9.96-5.283-.514-5.842-9.316-12.915-10.076-4.462-.479-7.81-3.937-7.509-9.6.315-5.945-7.142-8-7.52-13.783,5.873-3.069,12.481-.43,18.488-2.405,9.511,2.013,16.12-2.187,21.1-9.875" transform="translate(31.146 76.797)" fill="#eed8b3"/>
              <path id="Trazado_178219" data-name="Trazado 178219" d="M138.965,108.553c-9.808-11.656-6.865-25.5,6.777-32.445a98.5,98.5,0,0,0,10-6.015c8.057-5.386,14.19-2.872,15.563,6.961.613,4.393.633,8.866,2.017,13.143-10.826,1.639-18.007,7.694-21.739,17.925q-6.02,8.7-12.62.43" transform="translate(107.693 54.432)" fill="#916034"/>
              <path id="Trazado_178220" data-name="Trazado 178220" d="M58.583,89.5c2.906,1.071,3.328-.365,3.784-2.973C64.249,75.736,67.64,74.515,76.3,81.61c2.051,1.68,3.988,2.657,6.455,2.429,8.842-.814,13.626,3.865,15.4,11.845,1.309,5.905-5.191,14.489-12.016,17.3-6.263,2.581-11.633,1.646-16.681-2.841-1.47-1.306-2.415-4.889-5.636-2.346-8.475-4.044-10.045-9.593-5.232-18.5" transform="translate(45.192 62.395)" fill="#eed8b2"/>
              <path id="Trazado_178221" data-name="Trazado 178221" d="M149.962,104.218c6.3,4,12.55,8.066,18.922,11.939a11.733,11.733,0,0,0,6.918,1.451c2.436-.137,5.467-3.433,7.18-.2,1.921,3.626.848,7.753-1.859,10.944-7.385,8.7-16.867,9.2-27.064,6.576-4.574-3.436-7.985-8.037-12.047-11.977-7.858-7.621-6.663-14.3,3.594-18.589a5.565,5.565,0,0,1,4.357-.145" transform="translate(110.695 83.966)" fill="#8c5d33"/>
              <path id="Trazado_178222" data-name="Trazado 178222" d="M121.372,153.254c-1.373-5.4-3.212-10.754-1.908-16.469,3.858-3.813,6.784-8.3,9.633-12.885,3.366-5.411,8.007-6.361,12.765-2.132A70.767,70.767,0,0,1,156.6,139.7c2.458,4.339,2.319,8.654-2.51,11.693-10.618,5.118-21.747,1.709-32.656,1.946Z" transform="translate(96.239 96.327)" fill="#8d5d33"/>
              <path id="Trazado_178223" data-name="Trazado 178223" d="M60.313,116.757c-6.6,3.632-13.2,2.906-19.8.027-8.672-13.7-4.426-26.57,10.618-32.186,7.119-3.453,11.524-.221,14.259,6.137a57.265,57.265,0,0,1,3.733,15.719c.78,6.317-3.037,9.282-8.806,10.3" transform="translate(29.157 67.269)" fill="#8c5d33"/>
              <path id="Trazado_178224" data-name="Trazado 178224" d="M123.313,147.638l-48.849.014q-.081-4.46-.165-8.922c3.879,2.6,6.719,4.339,8.258-2.695,1.479-6.773,7.043-9.842,14.118-10.1,14.254-.525,25.736,8.73,26.637,21.7" transform="translate(60.079 101.814)" fill="#eed8b2"/>
              <path id="Trazado_178225" data-name="Trazado 178225" d="M103.056,124.461c1.512,3.858-.7,5.525-4.426,6.618a80.616,80.616,0,0,0-11.8,4.314c-3.95,1.868-7.585,5.894-11.888,1.009-3.99-4.531-5.952-9.629-3.431-15.71,3.049-7.35,11.537-11.872,19.96-10.492,8.916,1.463,11.344,4.375,11.588,14.261" transform="translate(56.912 88.909)" fill="#eed8b3"/>
              <path id="Trazado_178226" data-name="Trazado 178226" d="M138.012,90.494c3.476,2.915,6.126,6.363,7.041,10.928-2.606,15.131-5.869,17.9-19.663,16.675-10.81-5.372-14.5-21.018-7.374-31.233,7.73-4.648,13.953-1,20,3.63" transform="translate(92.463 68.497)" fill="#a36e39"/>
              <path id="Trazado_178227" data-name="Trazado 178227" d="M153.894,155.546c2.684-4.473,1.917-8.736-1.148-12.582-3.74-4.693-7.739-9.18-11.608-13.769-4.621-5.48-8.466-4.681-11.839,1.327-2.427,4.324-3.548,9.971-10.034,10.412,2.424-10.673,12.264-16.6,16.778-26.033,1.141-2.384,3.628.562,5.079,1.776a85.093,85.093,0,0,1,14.228,15.035c1.955,2.677,3.728,5.657,6.837,7.037,3.737,1.662,7.3,2.966,5.856,8.305-1.264,4.666-3.883,7.225-8.88,7.332a26.744,26.744,0,0,0-5.268,1.159" transform="translate(96.438 92.179)" fill="#a26e39"/>
              <path id="Trazado_178228" data-name="Trazado 178228" d="M53.576,120.176c3.746-2.979,8.488-5.744,5.549-11.613-3.8-7.593.6-21.208-14.735-20.546,1.615-1.228,3.183-2.528,4.856-3.675,11.277-7.73,11.588-7.659,18.634,3.7-.069,6.677.033,13.308,5.232,18.5a2.219,2.219,0,0,0,.248,1.38c-2.666,12.693-3.232,13.042-19.784,12.253" transform="translate(35.894 63.85)" fill="#a36d38"/>
              <path id="Trazado_178229" data-name="Trazado 178229" d="M107.328,109.9c0,5.744-1.107,7.936-7.276,4.189-8.526-5.18-16.771-1.143-24.7,2.843-1.637.823-3.274,3.813-5.3,1.282-2.1-2.63-2.2-6.153-2.416-9.466-.2-3.158,2.062-2.89,4.192-3.243,2.63-.438,6.075-.544,7.611-2.219,8.708-9.5,16.5-4.406,24.756.568,2.7,1.626,4.48,2.847,3.131,6.046" transform="translate(54.682 79.203)" fill="#916136"/>
              <path id="Trazado_178230" data-name="Trazado 178230" d="M154.859,109.738c-1.186.89-2.348,1.819-3.565,2.662-10.472,7.26-10.378,7.822-1.333,16.364,3.543,3.348,8.358,5.992,8.994,11.684-4.055.3-6.84-1.807-9.059-4.871a64.571,64.571,0,0,0-15.19-15.247c-4.784-3.351-5.165-6.706-.933-10.658.8-9.846,2.465-11.3,14.541-12.658q1.926,3.535,3.851,7.072,1.186,1.929,2.369,3.856l.326,1.8" transform="translate(105.798 78.446)" fill="#a36d38"/>
              <path id="Trazado_178231" data-name="Trazado 178231" d="M137.2,96.751c-7.178,1.619-12.9-4.775-20-3.63-3.476-10.834-2.577-12.809,7.354-16.149q6.291,1.815,12.577,3.633l.065,16.145" transform="translate(93.277 62.24)" fill="#edd8b3"/>
              <path id="Trazado_178232" data-name="Trazado 178232" d="M156.713,99.491a22.642,22.642,0,0,0-14.541,12.658c-7.171-1.5-14.693,2-21.72-1.525,7.8.322,13.9-1.261,14.713-10.864.175-2.062,3.225-3.879,4.952-5.809l16.6,5.54" transform="translate(97.398 75.969)" fill="#edd8b3"/>
              <path id="Trazado_178233" data-name="Trazado 178233" d="M136.38,90.308c4.236.713,8.54,3.436,12.62-.43l-1.7,5.6c-6.415,5.149-8.473,4.176-10.922-5.169" transform="translate(110.278 72.676)" fill="#edd8b3"/>
              <path id="Trazado_178234" data-name="Trazado 178234" d="M79.252,141.166c-6.279-4.471-8.98-11.108-11-18.157,7.093,3.979,10.465,10.21,11,18.157" transform="translate(55.187 99.466)" fill="#eed8b3"/>
              <path id="Trazado_178235" data-name="Trazado 178235" d="M0,0H409.25V27.068H0Z" transform="translate(0 245.683)" fill="#fff"/>
              <path id="Trazado_178236" data-name="Trazado 178236" d="M0,0H409.25V13.534H0Z" transform="translate(0 259.217)" fill="#f2efef"/>
              <path id="Trazado_178237" data-name="Trazado 178237" d="M65.516,295.1H24.938L4.649,150.807H45.227Z" transform="translate(3.759 121.944)" fill="#e54253"/>
              <path id="Trazado_178238" data-name="Trazado 178238" d="M100.515,295.1H59.937L39.648,150.807H80.226Z" transform="translate(32.06 121.944)" fill="#e54253"/>
              <path id="Trazado_178239" data-name="Trazado 178239" d="M128.174,295.1H87.6L77.452,150.807H118.03Z" transform="translate(62.628 121.944)" fill="#e54253"/>
              <path id="Trazado_178240" data-name="Trazado 178240" d="M184.518,295.1H225.1l20.289-144.294H204.807Z" transform="translate(149.202 121.944)" fill="#e54253"/>
              <path id="Trazado_178241" data-name="Trazado 178241" d="M149.519,295.1H190.1l20.289-144.294H169.808Z" transform="translate(120.902 121.944)" fill="#e54253"/>
              <path id="Trazado_178242" data-name="Trazado 178242" d="M117.324,295.1H157.9l10.144-144.294H127.469Z" transform="translate(94.869 121.944)" fill="#e54253"/>
              <g id="Grupo_173753" data-name="Grupo 173753" transform="translate(0 272.751)" opacity="0.15">
                <g id="Grupo_173752" data-name="Grupo 173752">
                  <g id="Grupo_173751" data-name="Grupo 173751" clip-path="url(#clip-path-3)">
                    <path id="Trazado_178243" data-name="Trazado 178243" d="M409.4,187.639,199.231,168.591,0,187.639V150.807H409.4Z" transform="translate(0 -150.807)"/>
                  </g>
                </g>
              </g>
            </g>
          </g>
        </g>
      </g>
    </g>
    <g id="Grupo_173764" data-name="Grupo 173764">
      <g id="Grupo_173760" data-name="Grupo 173760" transform="translate(-5733.261 -9625.146) rotate(11)">
        <g id="Grupo_173759" data-name="Grupo 173759" transform="translate(63.539 -0.002)">
          <path id="Trazado_178244" data-name="Trazado 178244" d="M84.911,78.777H68.992v-19.5A59.344,59.344,0,0,1,128.266,0H161.2V15.918H128.266A43.406,43.406,0,0,0,84.911,59.275Z" transform="translate(29.444 0.001)" fill="#db2205"/>
          <path id="Trazado_178245" data-name="Trazado 178245" d="M211.454,395.433H51.429L27.056,53.131H233.708Z" transform="translate(-23.986 67.695)" fill="#db2205"/>
          <path id="Trazado_178246" data-name="Trazado 178246" d="M148.047,395.433H60.034L46.628,53.131h113.66Z" transform="translate(0.951 67.695)" fill="#fa3521"/>
          <path id="Trazado_178247" data-name="Trazado 178247" d="M91.835,395.433H63.523l-4.312-342.3h36.56Z" transform="translate(16.982 67.695)" fill="#fc4c37"/>
          <path id="Trazado_178248" data-name="Trazado 178248" d="M216.36,42.412H50.08A24.373,24.373,0,0,0,25.706,66.786H240.731A24.371,24.371,0,0,0,216.36,42.412" transform="translate(-25.706 54.038)" fill="#e5e6e3"/>
          <path id="Trazado_178249" data-name="Trazado 178249" d="M135.913,42.412H71A24.375,24.375,0,0,0,46.628,66.786H160.286a24.373,24.373,0,0,0-24.374-24.374" transform="translate(0.95 54.038)" fill="#f2f3f0"/>
          <path id="Trazado_178250" data-name="Trazado 178250" d="M145.484,34.641H66.166A17.673,17.673,0,0,0,48.492,52.313H163.155a17.671,17.671,0,0,0-17.672-17.672" transform="translate(3.325 44.137)" fill="#d0d0dc"/>
          <path id="Trazado_178251" data-name="Trazado 178251" d="M114.993,34.641H74.1A17.671,17.671,0,0,0,56.429,52.313h76.236a17.671,17.671,0,0,0-17.672-17.672" transform="translate(13.437 44.137)" fill="#ddddeb"/>
        </g>
      </g>
      <path id="Trazado_178252" data-name="Trazado 178252" d="M57.978,187.641c-.084,0-.166.012-.25.012a20.517,20.517,0,0,0-40.631.3,20.532,20.532,0,1,0,22.162,28.663,20.537,20.537,0,1,0,18.719-28.974" transform="translate(-5788.072 -9622.564) rotate(8)" fill="#fff9de"/>
      <path id="Trazado_178253" data-name="Trazado 178253" d="M36.087,184.885c-.042,0-.084,0-.129.007a10.491,10.491,0,0,0-20.775.151A10.5,10.5,0,1,0,26.517,199.7a10.5,10.5,0,1,0,9.571-14.816" transform="translate(-5779.87 -9612.809) rotate(8)" fill="#a26e39"/>
      <g id="Grupo_173761" data-name="Grupo 173761" transform="translate(-266.659 8.322)">
        <path id="Trazado_178254" data-name="Trazado 178254" d="M44.955,13.56c-.065,0-.128.01-.194.01a15.909,15.909,0,0,0-31.5.232A15.92,15.92,0,1,0,30.441,36.026,15.924,15.924,0,1,0,44.955,13.56" transform="translate(-5476.583 -9566.771) rotate(8)" fill="#fff9de"/>
        <path id="Trazado_178255" data-name="Trazado 178255" d="M22.987,6.934c-.033,0-.065,0-.1.006a8.134,8.134,0,0,0-16.109.117,8.141,8.141,0,1,0,8.787,11.365A8.142,8.142,0,1,0,22.987,6.934" transform="translate(-5465.903 -9554.066) rotate(8)" fill="#a36d38"/>
      </g>
      <path id="Trazado_178256" data-name="Trazado 178256" d="M83.74,172.526c-.1.047-.185.106-.282.153A26.3,26.3,0,0,0,36.71,195.632,26.316,26.316,0,1,0,78.251,216.4a26.322,26.322,0,1,0,5.49-43.871" transform="translate(-5748.895 -9630.436) rotate(8)" fill="#fff9de"/>
      <path id="Trazado_178257" data-name="Trazado 178257" d="M44.738,8.754c-.074.036-.143.082-.217.118A20.241,20.241,0,0,0,8.54,26.539,20.255,20.255,0,1,0,40.513,42.522,20.26,20.26,0,1,0,44.738,8.754" transform="translate(-5793.955 -9492.57) rotate(8)" fill="#fff9de"/>
      <path id="Trazado_178258" data-name="Trazado 178258" d="M62.328,174.7c-.049.025-.094.054-.143.079a13.447,13.447,0,0,0-23.9,11.736,13.455,13.455,0,1,0,21.24,10.616A13.459,13.459,0,1,0,62.328,174.7" transform="translate(-5740.29 -9617.729) rotate(8)" fill="#8c5d33"/>
      <path id="Trazado_178259" data-name="Trazado 178259" d="M22.876,4.476c-.038.019-.072.042-.11.061a10.35,10.35,0,0,0-18.4,9.033,10.357,10.357,0,1,0,16.348,8.171A10.359,10.359,0,1,0,22.876,4.476" transform="translate(-5782.831 -9476.146) rotate(8)" fill="#8c5d33"/>
      <g id="Grupo_173762" data-name="Grupo 173762" transform="translate(-15.046 10.941)">
        <path id="Trazado_178260" data-name="Trazado 178260" d="M45.069,8.819c-.075.036-.144.082-.218.119A20.391,20.391,0,0,0,8.6,26.735a20.405,20.405,0,1,0,32.21,16.1A20.41,20.41,0,1,0,45.069,8.819" transform="translate(-5425.566 -9577.021) rotate(8)" fill="#fff9de"/>
        <path id="Trazado_178261" data-name="Trazado 178261" d="M23.045,4.509c-.038.019-.073.042-.111.061A10.427,10.427,0,0,0,4.4,13.671,10.433,10.433,0,1,0,20.868,21.9,10.436,10.436,0,1,0,23.045,4.509" transform="translate(-5414.361 -9560.475) rotate(8)" fill="#906137"/>
      </g>
      <path id="Trazado_178262" data-name="Trazado 178262" d="M30.221,214.114s-9.791,25.341,0,35.134,28.8,29.372,38.013,14.974S83.208,245.792,83.208,236s-4.031-1.152,5.183-13.822,22.461-20.157,4.607-31.1-20.864-15.552-29.15-11.521-4.256,12.1-12.9,4.034-5.759-19.008-17.854-8.641-22.461,6.911-16.126,19.584,20.733,16.7,13.246,19.581" transform="translate(-5766.247 -9618.66) rotate(8)" fill="#eed8b3"/>
      <path id="Trazado_178263" data-name="Trazado 178263" d="M46.174,182.325s-22.461-5.183-20.733,2.3,10.27,6.335,10.32,14.974-9.84,15.552,0,14.976,13.869,4.031,15.6-2.882-3.456-10.562,5.759-13.632,14.974-5.374,6.911-9.405S60,185.78,53.085,184.052Z" transform="translate(-5753.267 -9602.181) rotate(8)" fill="#8c5d33"/>
      <g id="Grupo_173763" data-name="Grupo 173763" transform="translate(-53.542 109.438)">
        <path id="Trazado_178264" data-name="Trazado 178264" d="M11.76,33.65s-7.592,19.649,0,27.242S34.088,83.667,41.235,72.5s11.611-14.29,11.611-21.883-3.126-.893,4.019-10.717,17.416-15.63,3.572-24.114S44.259,3.728,37.835,6.854s-3.3,9.38-10,3.128S23.37-4.756,13.993,3.282-3.423,8.641,1.489,18.467,17.565,31.417,11.76,33.65" transform="translate(-5448.162 -9561.687) rotate(8)" fill="#eed8b3"/>
        <path id="Trazado_178265" data-name="Trazado 178265" d="M16.15,1.355S-1.266-2.664.074,3.141s7.963,4.912,8,11.611-7.63,12.059,0,11.613S18.829,29.49,20.169,24.13s-2.679-8.19,4.466-10.57,11.611-4.167,5.359-7.293-3.126-2.233-8.485-3.572Z" transform="translate(-5431.26 -9540.227) rotate(8)" fill="#a36e39"/>
      </g>
    </g>
  </g>
</svg>
