<svg xmlns="http://www.w3.org/2000/svg" xmlns:xlink="http://www.w3.org/1999/xlink" width="796.358" height="206.023" viewBox="0 0 796.358 206.023">
  <defs>
    <clipPath id="clip-path">
      <rect id="Rectángulo_42668" data-name="Rectángulo 42668" width="796.358" height="206.023" fill="none"/>
    </clipPath>
  </defs>
  <g id="_23" data-name="23" transform="translate(5239 9875)">
    <g id="Grupo_169601" data-name="Grupo 169601" transform="translate(-5239 -9875)">
      <rect id="Rectángulo_42660" data-name="Rectángulo 42660" width="793" height="206" transform="translate(3.358)" fill="#7b7b7e"/>
      <rect id="Rectángulo_42661" data-name="Rectángulo 42661" width="796.358" height="37.086" transform="translate(0 168.937)" fill="#6f5845"/>
      <g id="Grupo_169600" data-name="Grupo 169600">
        <g id="Grupo_169599" data-name="Grupo 169599" clip-path="url(#clip-path)">
          <path id="Trazado_161328" data-name="Trazado 161328" d="M462,187.893a5.73,5.73,0,0,0-3.4-.949q-3.273-.176-6.554-.063c-1.725.06-4.62-.278-5.993,1a1.026,1.026,0,0,0-.284,1.193,1.413,1.413,0,0,0,.821.555c3.868,1.358,8.113.453,12.212.51a5.061,5.061,0,0,0,3.339-.659,1.028,1.028,0,0,0,.355-.466,1.124,1.124,0,0,0-.5-1.117" fill="#ede2db"/>
          <path id="Trazado_161329" data-name="Trazado 161329" d="M560.1,89.641s.1,18.2,0,18.71-3.176-.511-7.378,0-6.147.922-7.479-1.537,2.766-52.953,4.3-55.27,10.554,38.1,10.554,38.1" fill="#e8a270"/>
          <path id="Trazado_161330" data-name="Trazado 161330" d="M478.383,173.776l-.035,0a.307.307,0,0,1-.271-.34l5.732-50.413a.3.3,0,0,1,.34-.271.308.308,0,0,1,.271.341L478.688,173.5a.308.308,0,0,1-.3.273" fill="#944426"/>
          <path id="Trazado_161331" data-name="Trazado 161331" d="M458.73,173.776l-.034,0a.308.308,0,0,1-.272-.339l6.255-56.308a.313.313,0,0,1,.34-.272.308.308,0,0,1,.271.34L459.035,173.5a.306.306,0,0,1-.3.273" fill="#944426"/>
          <path id="Trazado_161332" data-name="Trazado 161332" d="M538.241,173.776a.308.308,0,0,1-.305-.273L532.2,123.091a.308.308,0,0,1,.271-.341.3.3,0,0,1,.34.271l5.732,50.413a.307.307,0,0,1-.271.34l-.035,0" fill="#944426"/>
          <path id="Trazado_161333" data-name="Trazado 161333" d="M557.894,173.776a.306.306,0,0,1-.3-.273l-6.255-56.308a.307.307,0,1,1,.611-.068l6.255,56.308a.308.308,0,0,1-.272.339l-.034,0" fill="#944426"/>
          <path id="Trazado_161334" data-name="Trazado 161334" d="M540.326,117.267a.323.323,0,0,1-.061-.006.308.308,0,0,1-.241-.362L553.1,51.485a.3.3,0,0,1,.362-.241.307.307,0,0,1,.241.361L540.627,117.02a.308.308,0,0,1-.3.247" fill="#944426"/>
          <path id="Trazado_161335" data-name="Trazado 161335" d="M531.7,115.684a.326.326,0,0,1-.062-.006.306.306,0,0,1-.24-.362l14.4-72.022a.307.307,0,1,1,.6.121L532,115.437a.307.307,0,0,1-.3.247" fill="#944426"/>
          <path id="Trazado_161336" data-name="Trazado 161336" d="M524.26,111.736a.324.324,0,0,1-.061-.006.308.308,0,0,1-.241-.362l14.336-71.7a.3.3,0,0,1,.361-.241.307.307,0,0,1,.241.362l-14.335,71.7a.308.308,0,0,1-.3.247" fill="#944426"/>
          <path id="Trazado_161337" data-name="Trazado 161337" d="M515.94,110.841a.323.323,0,0,1-.061-.006.308.308,0,0,1-.241-.362l14.276-71.409a.307.307,0,0,1,.6.12l-14.276,71.41a.308.308,0,0,1-.3.247" fill="#944426"/>
          <path id="Trazado_161338" data-name="Trazado 161338" d="M553.517,113.987a.312.312,0,0,1-.079-.01.307.307,0,0,1-.218-.376c2.766-10.436,4.756-18.983,6.264-26.9l.385-2.011c1.544-8.038,3.141-16.348,2.915-24.354-.409-14.485-11.459-26.839-25.156-28.125-15.592-1.466-27.559,9.567-31.074,17.869-3.2,7.566-13.075,41.577-13.174,41.919a.307.307,0,1,1-.59-.171c.1-.343,9.981-34.389,13.2-41.987,3.588-8.474,15.794-19.732,31.7-18.243,14,1.315,25.3,13.931,25.712,28.72.229,8.073-1.375,16.418-2.925,24.488l-.385,2.011c-1.511,7.929-3.5,16.49-6.274,26.94a.308.308,0,0,1-.3.229" fill="#944426"/>
          <path id="Trazado_161339" data-name="Trazado 161339" d="M547.231,121.605a.332.332,0,0,1-.083-.011.308.308,0,0,1-.213-.38c2.9-10.339,5.024-18.815,6.686-26.675l.424-2c1.7-7.983,3.456-16.238,3.54-24.25.151-14.49-9.466-27.2-21.9-28.937-14.147-1.979-25.441,8.649-28.945,16.824-3.195,7.456-13.427,41.12-13.53,41.459a.308.308,0,1,1-.589-.179c.1-.339,10.346-34.035,13.554-41.522,3.581-8.355,15.131-19.212,29.6-17.19C548.5,40.527,558.354,53.508,558.2,68.3c-.085,8.073-1.849,16.358-3.554,24.371l-.424,1.994c-1.664,7.873-3.792,16.362-6.7,26.715a.308.308,0,0,1-.3.224" fill="#944426"/>
          <path id="Trazado_161340" data-name="Trazado 161340" d="M554.029,112.961s-1.721,9.326-9.1,11.171c-2.213.553-10,.959-19.815,1.254l-.614.018c-22.883.677-56.211.775-56.211.775s4.507-13.218,6.351-14.239,19.636-6.147,31.231-5.791c7.5.228,16.956,3.006,22.705,4.949.209.062.412.135.6.2,2.8.953,4.586,1.66,4.586,1.66Z" fill="#de8b5b"/>
          <path id="Trazado_161341" data-name="Trazado 161341" d="M525.2,121.973a27.627,27.627,0,0,0-.08,3.412l-.615.019a28.111,28.111,0,0,1,.295-5.214,20.07,20.07,0,0,1,3.781-9.093c.209.062.412.136.6.2a20.356,20.356,0,0,0-3.984,10.673" fill="#ba6838"/>
          <path id="Trazado_161342" data-name="Trazado 161342" d="M439.879,143.539l-5.822,18.932,1.646,5.635,3.5-2.77L449.319,146.4Z" fill="#ff9d87"/>
          <path id="Trazado_161343" data-name="Trazado 161343" d="M499.752,88.712S476.9,82.939,470.015,83.72c-9.53,1.076-11.958,6.455-15.37,12.062-6.382,10.5-20.442,55.331-20.442,55.331s14.743,5.749,22.76,7.839a.312.312,0,0,0,.374-.215c2.2-5.626,10.378-26.965,13.071-31.613.283-.485.559-.977.818-1.463,2.274-4.15,4.051-8.238,7.568-11.269.227-.2.461-.394.707-.578,3.639-2.8,7.273-5.865,9.148-10.181.731-1.672,1.74-4.74.879-6.535a1.467,1.467,0,0,0-.344-.474c-.1-.086-.295-.129-.381-.221-.117-.043-.24-.08-.357-.123-.191-.5-.387-1.014-.584-1.518a5.951,5.951,0,0,1,1.088-2.331,11.568,11.568,0,0,1,1.611-2.01.283.283,0,0,0,.074-.283c.744-.018,1.494-.043,2.237-.067.394-.013,6.88-1.359,6.88-1.359" fill="#464752"/>
          <path id="Trazado_161344" data-name="Trazado 161344" d="M476.07,102.379c-.541-2.029-1.064-4.082-1.746-6.068-.615-1.795-3.025-5.09-.676-6.474a.306.306,0,0,0-.308-.528c-.086.049-.166.1-.239.153a.316.316,0,0,0-.166.006,10.233,10.233,0,0,0-6.173,5.976c-1.316,3.523-.609,7.4.129,10.962q2,9.665,4.334,19.255c2.275-4.15,4.052-8.238,7.569-11.269-.775-4.033-1.673-8.041-2.724-12.013" fill="#242630"/>
          <path id="Trazado_161345" data-name="Trazado 161345" d="M434.527,161.037l6.176,1.636s-1.832,5.306-2.037,6.331.717,5.226.461,6.609-17.675.41-17.675.41l2.357-4.509s6.455-1.619,7.428-3.14a78.823,78.823,0,0,0,3.29-7.337" fill="#ffe1d4"/>
          <path id="Trazado_161346" data-name="Trazado 161346" d="M426.513,170.729s1.471,3.987,1.97,4.41,10.721.077,11.028.5,1.013,1.191-1.592,1.33c-2.119.113-21.27.014-21.77-.293-.665-.409.441-2.364.72-2.779,1.246-1.85,3.555-2.19,5.591-2.564,1.343-.247,2.7-.451,4.053-.6" fill="#e66b3e"/>
          <path id="Trazado_161347" data-name="Trazado 161347" d="M495.528,183.083c-.6-.1-.885-.572-1.143-1.1-.13-.258-.246-.534-.394-.78a2.008,2.008,0,0,0-.424-.535c-1.291-1.094-2.3-.99-3.966-.984-4.076.012-11.226.025-15.3.037q-5.994.018-11.976.031l-5.988.018c-.768,0-1.752-.123-2.084.67a43.221,43.221,0,0,0-6.707,2.976.306.306,0,0,0,0,.529,7.611,7.611,0,0,0,2.551.762,7.473,7.473,0,0,0,.836.049,10.02,10.02,0,0,0,1.414-.067,7.8,7.8,0,0,1,2.33.159c.228.037.455.08.683.117a9.3,9.3,0,0,0,2.317.2,15.807,15.807,0,0,1,1.593-.178,4.525,4.525,0,0,1,1.3.3c.2.055.393.117.6.16h.006a6.208,6.208,0,0,0,1.433.1c.221-.006.436-.024.652-.043.11-.006.221-.018.332-.031,2-.209,3.983-.448,5.981-.6.2-.012.412-.031.615-.043.136-.006.271-.018.406-.025.646-.036,1.3-.073,1.949-.1.209-.012.412-.018.615-.025,1.426-.049,2.846-.061,4.266-.018,1.949.061,6.831.848,8.767.412.554-.123,1.07-.234,1.574-.3a8.1,8.1,0,0,1,.861-.086,7.988,7.988,0,0,1,1.518.061,16.08,16.08,0,0,0,2.367.252c.068,0,.142,0,.209-.006a4.613,4.613,0,0,0,.505-.055,3.632,3.632,0,0,0,2.489-1.408.3.3,0,0,0-.184-.449" fill="#ffe1d4"/>
          <path id="Trazado_161348" data-name="Trazado 161348" d="M455.358,180.7q-2.241,1.992-4.42,4.051a7.463,7.463,0,0,1-.836-.049q2.37-2.259,4.82-4.438c.3-.259.731.172.436.436" fill="#e8b49c"/>
          <path id="Trazado_161349" data-name="Trazado 161349" d="M458.155,181.435q-1.438,1.734-2.791,3.529c-.228-.037-.455-.08-.683-.117q1.476-1.954,3.037-3.848c.259-.3.689.135.437.436" fill="#e8b49c"/>
          <path id="Trazado_161350" data-name="Trazado 161350" d="M462.52,180.691c-.424,1.592-.879,3.178-1.353,4.752-.2-.043-.4-.1-.6-.16.48-1.58.928-3.166,1.359-4.758a.307.307,0,0,1,.59.166" fill="#e8b49c"/>
          <path id="Trazado_161351" data-name="Trazado 161351" d="M464.033,181.312a20.441,20.441,0,0,1-.776,4.187c-.215.018-.43.037-.651.043a19.235,19.235,0,0,0,.811-4.23c.031-.393.646-.4.616,0" fill="#e8b49c"/>
          <path id="Trazado_161352" data-name="Trazado 161352" d="M470.254,181.232q-.047,1.8-.068,3.6c-.2.012-.412.03-.614.043.006-1.218.03-2.429.067-3.64.013-.393.627-.393.615,0" fill="#e8b49c"/>
          <path id="Trazado_161353" data-name="Trazado 161353" d="M473.156,184.681c-.2.006-.406.012-.615.025-.086-1.156-.2-2.312-.362-3.468-.056-.387.534-.553.59-.166.166,1.2.295,2.4.387,3.609" fill="#e8b49c"/>
          <path id="Trazado_161354" data-name="Trazado 161354" d="M488.624,184.687a8.1,8.1,0,0,0-.861.086q-1.668-1.347-3.246-2.822c-.289-.27.148-.7.437-.43q1.77,1.65,3.67,3.166" fill="#e8b49c"/>
          <path id="Trazado_161355" data-name="Trazado 161355" d="M493.223,184.939a4.389,4.389,0,0,1-.5.055c-.068.007-.142.007-.209.007a10.834,10.834,0,0,0-1.488-2.355,7.158,7.158,0,0,0-2.963-1.82c-.369-.123-.209-.713.166-.59a7.707,7.707,0,0,1,3.387,2.145,24.5,24.5,0,0,1,1.611,2.558" fill="#e8b49c"/>
          <path id="Trazado_161356" data-name="Trazado 161356" d="M494.385,181.982c-1.648-.547-3.289-1.1-4.937-1.648-.375-.123-.215-.719.16-.59,1.463.486,2.92.972,4.384,1.457.147.246.264.523.393.781" fill="#e8b49c"/>
          <path id="Trazado_161357" data-name="Trazado 161357" d="M498.59,149.509l8.817,17.109,5.754,3.106-.1-4.763-5.807-20.17Z" fill="#ff9d87"/>
          <path id="Trazado_161358" data-name="Trazado 161358" d="M540.326,57.783a27.06,27.06,0,0,1-2.87,4.794c-1.076,1.076-4.15,1.345-4.15.961s-1.921-5.731-1.845-5.939a7.759,7.759,0,0,1,1.768-.9c.192-.076,7.1,1.085,7.1,1.085" fill="#464752"/>
          <path id="Trazado_161359" data-name="Trazado 161359" d="M537.572,59.644l9.6,16.32s-3.285,1.784-4.548,1.084-11.636-11.779-10.933-13.4,5.885-4,5.885-4" fill="#e6684b"/>
          <path id="Trazado_161360" data-name="Trazado 161360" d="M479.7,67.534s4.726,2.782,5.725,1.987.039-6.828,0-6.905-4-1.576-4.38-1.191-1.345,6.109-1.345,6.109" fill="#464752"/>
          <path id="Trazado_161361" data-name="Trazado 161361" d="M475.912,79.587,483.1,64.678s-9.284-8.453-9.181-8.043-2.81,18.853-2.507,19.724,4.5,3.228,4.5,3.228" fill="#e6684b"/>
          <path id="Trazado_161362" data-name="Trazado 161362" d="M497.36,51.616s-3.873,6.031-7.39,11.367c-.074.117-.147.228-.227.345-.615.94-1.224,1.85-1.789,2.7-.849,1.272-1.617,2.4-2.22,3.258-.135.2-.393.344-.516.135a23.019,23.019,0,0,0-5.1-6.025c-1.967-1.715-4.906-2.723-6.867-4.445-.978-.854-.314-2.963-.455-4.414.547-1.266,7.709-12.64,14.853-16.661a2.507,2.507,0,0,1,.252-.141c.277-.135.554-.27.83-.4.006-.006.013-.006.019-.012l.535-.24c.3.744.688,1.476,1.014,2.226a18.154,18.154,0,0,1,1.168,3.793c.5,2.638,5.9,8.515,5.9,8.515" fill="#ffe1d4"/>
          <path id="Trazado_161363" data-name="Trazado 161363" d="M476.887,41.059c-.708-.816-1.651-.259-2.539-.142l.022-.1c.089-.384-1.4-.35-1.494.036-1.668,7.238-7.853,33.965-5.641,39.744.7,1.822,2.293,4.062,4.566,3.452,2.464-.662,4.105-3.452,4.317-5.492.75-7.248.973-36.017.973-36.017a1.132,1.132,0,0,0-.2-1.486" fill="#ff9d87"/>
          <path id="Trazado_161364" data-name="Trazado 161364" d="M540.349,103.007c-.166-4.4-2.078-8.822-3.295-12.966s-6.794-16.028-6.794-16.028-.264-2.551-2.115-2.864a10.783,10.783,0,0,0-3.031.319c-1.407.2-2.821.4-4.229.6l-16.723,2.36c-.018-.258-.037-.516-.055-.78-.025-.394-.639-.394-.615,0,.381,6.037,1.543,14.515,2.244,20.521a49.541,49.541,0,0,0-2.9,8.435c-.153.615-.289,1.242-.412,1.863-.289,1.377-.51,2.767-.664,4.156-.006.031-.012.068-.018.1-.381,1.623-5.213,4.727-5.213,4.727s3.27.529,7.076,1.15l7.076-.037s14.134.166,17.909-.117c5.908-.449,8.589-.141,10.9-6.037a13.2,13.2,0,0,0,.861-5.4" fill="#464752"/>
          <path id="Trazado_161365" data-name="Trazado 161365" d="M531.961,77.793c-.891.67-16.261,2.539-22.145,1.98-1.783.842-3.387,2.477-5.465,1.715-2.238-.818-3.88-3.744-5.134-5.606-1.893-2.811-2.883-3.339-4.408-6.364-.43-.86-.891-1.733-1.346-2.612-1.205-1.36-2.509-2.625-3.609-4.071a14.357,14.357,0,0,1-2.515-6.332,76.044,76.044,0,0,1-1.272-16.059c.012-.491.356-.952.35-1.586.609-.338.855-.81,1.482-1.125a45.582,45.582,0,0,1,7.218-2.859c.221-.073.442-.135.664-.19a30.489,30.489,0,0,1,6.756-1.144c.922-.048,1.838-.037,2.76,0a42.174,42.174,0,0,1,4.482.634c.2.036.394.073.584.116a33.961,33.961,0,0,1,3.3.879c5.3,1.71,11.078,4.716,12.615,10.477.91,3.393,2.011,6.209,2.718,9.658.651,3.166,1.352,6.867,2.041,10.033a70.462,70.462,0,0,1,1.315,9.42c.068.921.492,2.373-.387,3.036" fill="#ffe1d4"/>
          <path id="Trazado_161366" data-name="Trazado 161366" d="M510.363,34.291c-.984,4.734-3.855,9.671-8.466,11.079a5.537,5.537,0,0,1-6.35-1.986c-1.7-2.545-1.082-5.724-.431-8.509.019-.086.037-.172.056-.252.086-.35.577-.246.608.061a.707.707,0,0,1-.012.105c-.633,2.668-1.353,5.822.313,8.281,1.709,2.533,5.036,2.343,7.39.892,3.375-2.078,5.509-5.884,6.308-9.788.2.037.393.074.584.117" fill="#e8b49c"/>
          <path id="Trazado_161367" data-name="Trazado 161367" d="M511.515,24.332a2.918,2.918,0,0,0-.289-1.137,4.93,4.93,0,0,0-2-1.783c-.406-.246-1.3-.59-1.537-1.021a.64.64,0,0,1-.074-.24,5.96,5.96,0,0,0-1.525-3.387,7.257,7.257,0,0,0-2.176-1.131c-1.3-.615-1.869-1.869-2.637-3.013a13.652,13.652,0,0,0-3.665-3.855c-4.887-4.008-11.478-1.358-16.107,2.57a8.246,8.246,0,0,0-3.812,4.679,8.8,8.8,0,0,0-.233,4.23,8.7,8.7,0,0,1,.368,3.018,10.425,10.425,0,0,1-1.1,2.422,2.867,2.867,0,0,0,.018,2.755,6.271,6.271,0,0,1,1.082,1.881,2.7,2.7,0,0,1-.282,2.189c-.1.252-.216.5-.289.756a3.349,3.349,0,0,0,.479,2.908,15.607,15.607,0,0,0,1.513,1.934,9.46,9.46,0,0,0,2.978,1.669,2.182,2.182,0,0,0,2.108-.29,3.792,3.792,0,0,1,1.043-.78,4.822,4.822,0,0,1,2.06-.443,2.79,2.79,0,0,0,1.807-.227,5.833,5.833,0,0,0,.689-.529,2.878,2.878,0,0,1,2.686-.56,7.181,7.181,0,0,0,2.755.2,9.437,9.437,0,0,0,4.051-1.961c.91-.6,1.144-1.414,2.373-1.789a6.125,6.125,0,0,0,2.213-.984,2.441,2.441,0,0,0,.191-.159,6.254,6.254,0,0,0,1.236-1.673c.067-.141.141-.283.209-.43a1.836,1.836,0,0,1,.442-.627.42.42,0,0,1,.1-.086,2.139,2.139,0,0,1,.99-.3c.442-.062.657-.628.756-1a5.723,5.723,0,0,0,.08-1.856,18.7,18.7,0,0,0-.326-1.943,4.572,4.572,0,0,1,1.555,3.031.541.541,0,0,0,.111.381.4.4,0,0,0,.486-.043,3.915,3.915,0,0,0,1.217-1.279,4.006,4.006,0,0,0,.467-1.74c0-.116,0-.233-.006-.35" fill="#944426"/>
          <path id="Trazado_161368" data-name="Trazado 161368" d="M509.31,78.921c-2.3-.758-4.069-2.589-5.772-4.233-1.668-1.611-3.245-3.308-4.749-5.072-.257-.3-.69.135-.435.435a71.414,71.414,0,0,0,5.556,5.838,14.66,14.66,0,0,0,5.237,3.625c.376.124.538-.469.163-.593" fill="#e8b49c"/>
          <path id="Trazado_161369" data-name="Trazado 161369" d="M513.661,35.168s8.387,1.435,13.92,7.045A153.083,153.083,0,0,1,540.326,57.6c.4.675-4.061,2.212-6.982,5.132s-6.685,7.532-6.685,7.532Z" fill="#ffe1d4"/>
          <path id="Trazado_161370" data-name="Trazado 161370" d="M522.527,39.136a24.051,24.051,0,0,0-1.113,4.3c-.063.387.529.554.593.164a24.034,24.034,0,0,1,1.113-4.3c.134-.372-.46-.533-.593-.163" fill="#e8b49c"/>
          <path id="Trazado_161371" data-name="Trazado 161371" d="M506.376,33.615c-2.115-1.591-6.7.744-9.031,2.159a.305.305,0,0,0-.037.493c0,.007-.008.011-.011.019-.752,2.334-.808,5.672,1.936,6.74,2.52.981,4.866-1.442,6.328-3.165,1.13-1.33,3.629-4.129.815-6.246" fill="#ff9d87"/>
          <path id="Trazado_161372" data-name="Trazado 161372" d="M505.236,30.541c-.492-1.7-2.367-2.09-2.754-3.885-.3-1.378-.486-2.687-1.611-3.671-.584-.516-1.346-.768-1.924-1.3a6.5,6.5,0,0,1-1.63-3.142.307.307,0,0,0-.59.166,13.964,13.964,0,0,0,.455,1.378.3.3,0,0,0-.055.067c-1.322,2.8-.068,6.148,1.475,8.613a17.241,17.241,0,0,0,3.1,3.677,4.687,4.687,0,0,0,1.728,1.168,6.267,6.267,0,0,0,1.235-1.672c.068-.142.142-.283.209-.431a1.848,1.848,0,0,1,.443-.627,2.639,2.639,0,0,0-.08-.344" fill="#6e270d"/>
          <path id="Trazado_161373" data-name="Trazado 161373" d="M507.3,34.721A25.815,25.815,0,0,0,504.3,31.61c-2.239-2.256-3.463-5.072-5.227-7.66a.314.314,0,0,0-.565.074,32.371,32.371,0,0,1-1.654,4.389c-.2.437-.411.867-.634,1.291a28.05,28.05,0,0,0-1.64,3.449c-.025-.037-.056-.074-.086-.11-.154-.2-.309-.394-.461-.6-.235-.313-.77-.006-.529.308.27.362.552.713.829,1.069.007.013.019.019.024.031-.024.086-.048.166-.073.252l-.018.062a.584.584,0,0,0-.012.1.318.318,0,0,0,.552.166c.757.972,1.52,1.931,2.3,2.884.59.731,1.191,1.457,1.806,2.17.013.012.026.012.031.024.178.449.289.916.788,1.119.8.32,2.243-.227,2.974-.51a8.553,8.553,0,0,0,4.754-4.107,1.2,1.2,0,0,0-.154-1.3" fill="#ff9d87"/>
          <path id="Trazado_161374" data-name="Trazado 161374" d="M485.243,30.584a3.383,3.383,0,0,0-3.67-.707,5.8,5.8,0,0,0-1.5.8c-2.527,1.845-8.073,9.487-7.181,11.251.953,1.9,3.135,2.066,4.949,1.34.937-.375,1.385-1.447,1.777-2.3a15.51,15.51,0,0,1,2.081-2.989c.664-.849,1.4-.6,2.487-.853a2.5,2.5,0,0,0,1.715-1.064c.652.486,1.322.738,1.783.2a1.556,1.556,0,0,0,.246-.4c.627-1.432-1.734-4.359-2.687-5.287" fill="#ff9d87"/>
          <path id="Trazado_161375" data-name="Trazado 161375" d="M485.243,30.584a3.383,3.383,0,0,0-3.67-.707,10.285,10.285,0,0,0,.439,1.25,3.553,3.553,0,0,0-1.713.556c-.333.212-.025.744.31.531a3.066,3.066,0,0,1,1.688-.481,10.334,10.334,0,0,0,.669,1.15,6.172,6.172,0,0,0-1.728.312c-.376.12-.215.714.163.592a5.455,5.455,0,0,1,2.025-.282c.129.161.262.319.4.473a10.872,10.872,0,0,0,.846.814A6.217,6.217,0,0,0,481.85,35c-.377.116-.216.71.163.593a5.6,5.6,0,0,1,4.108.275.3.3,0,0,0,.179.024,3.431,3.431,0,0,0,1.384.381,1.556,1.556,0,0,0,.246-.4c.627-1.432-1.734-4.359-2.687-5.287" fill="#e6684b"/>
          <path id="Trazado_161376" data-name="Trazado 161376" d="M500.133,29.668c-.037-.092-.074-.191-.111-.283a2.293,2.293,0,0,0-1.684-1.524,2.018,2.018,0,0,0-1.488.553,4.109,4.109,0,0,0-.578.6,9.826,9.826,0,0,0-1.7,3.689c-.031.111-.055.221-.08.338-.061.258-.11.517-.16.781-.018.092-.03.184-.049.283a1.423,1.423,0,0,1-.031.166.319.319,0,0,0,.554.166c.756.971,1.518,1.93,2.3,2.883a2.973,2.973,0,0,0,.3-.123,6.247,6.247,0,0,0,2.06-1.973,6.542,6.542,0,0,0,.67-5.558" fill="#e6684b"/>
          <path id="Trazado_161377" data-name="Trazado 161377" d="M479.14,17.185a82.5,82.5,0,0,0,4.97,12.04c2.459,4.3,4.75,6.814,9.566,6.711s6.111-8.453,5.752-11.578-7.736-10.862-10.554-12.04-9.734,4.867-9.734,4.867" fill="#ff9d87"/>
          <path id="Trazado_161378" data-name="Trazado 161378" d="M486.757,27.062a2.9,2.9,0,0,0-.58-.631,1.072,1.072,0,0,0-.524-.259c-1.058-.131-.06,1.5.275,1.787a1.094,1.094,0,0,0,.517.277.529.529,0,0,0,.526-.194.735.735,0,0,0-.067-.738,2.828,2.828,0,0,0-.147-.242" fill="#301c15"/>
          <path id="Trazado_161379" data-name="Trazado 161379" d="M492.008,24.68a2.9,2.9,0,0,0-.58-.631,1.072,1.072,0,0,0-.524-.259c-1.058-.131-.06,1.5.275,1.787a1.094,1.094,0,0,0,.517.277.529.529,0,0,0,.526-.194.735.735,0,0,0-.067-.738c-.045-.083-.094-.164-.147-.242" fill="#301c15"/>
          <path id="Trazado_161380" data-name="Trazado 161380" d="M485.258,23.561a.807.807,0,0,0-.137.117,2.661,2.661,0,0,0-.309.453,6.38,6.38,0,0,1-1.069,1.261c-.22.21-1.028.728-.433,1.017a.722.722,0,0,0,.488.018,2.938,2.938,0,0,0,.944-.484A3.436,3.436,0,0,0,486,24.594a1.09,1.09,0,0,0,.093-.688.577.577,0,0,0-.485-.45.562.562,0,0,0-.347.105" fill="#944426"/>
          <path id="Trazado_161381" data-name="Trazado 161381" d="M488.866,22.037a.81.81,0,0,1,.163-.077,2.714,2.714,0,0,1,.54-.095,6.375,6.375,0,0,0,1.589-.454c.282-.115,1.087-.639,1.106.023a.729.729,0,0,1-.185.453,2.937,2.937,0,0,1-.83.661,3.434,3.434,0,0,1-1.746.589,1.1,1.1,0,0,1-.665-.2.579.579,0,0,1-.211-.627.568.568,0,0,1,.239-.274" fill="#944426"/>
          <path id="Trazado_161382" data-name="Trazado 161382" d="M490.075,29.288a2.01,2.01,0,0,1-1.055-.113c-.348-.191-.374-.516-.427-.862-.1-.674-.165-1.354-.209-2.035-.025-.393-.64-.4-.615,0a9.471,9.471,0,0,0,.375,3.1,1.585,1.585,0,0,0,1.931.524c.387-.078.4-.633,0-.615" fill="#e6684b"/>
          <path id="Trazado_161383" data-name="Trazado 161383" d="M496.928,16.985c-.047.05-.1.095-.145.144-.326-.964-1.1-1.119-1.95-1.62-1.178-.694-1.917-1.9-3.171-2.548-1.214-.626-2.391-1.871-3.735-1.8-1.645.092-3.475,1.277-5.1,1.55-1.115.187-1.545,1.087-2.493,1.618a3.663,3.663,0,0,0-2.106,2.128c-.416,1.327.208,2.7.626,3.953a19.666,19.666,0,0,0,2.054,4.489.289.289,0,0,0,.174.127c.046.089.085.179.137.267a.308.308,0,0,0,.531-.31,3.208,3.208,0,0,1,.116-3.542,2.89,2.89,0,0,0,.5-1.271c.059-.751-.232-1.5-.232-2.256,0-.092.008-.183.014-.274-.009.144,1.067.451,1.2.488a5.865,5.865,0,0,0,1.3.185,17.4,17.4,0,0,0,2.146.193,5.824,5.824,0,0,1,2.3.027c1.549.491,2.666,1.157,4.369.934a6.412,6.412,0,0,0,3.9-2.052c.268-.29-.165-.726-.435-.435" fill="#944426"/>
          <path id="Trazado_161384" data-name="Trazado 161384" d="M493.311,30.68a6.284,6.284,0,0,0-3.223.835c-.313.234-.007.768.31.531a5.657,5.657,0,0,1,2.913-.751c.388-.045.393-.66,0-.615" fill="#e6684b"/>
          <path id="Trazado_161385" data-name="Trazado 161385" d="M504.682,31.272a7.009,7.009,0,0,0-.393-2.195,20.838,20.838,0,0,0-2.257-4.26c-.344-.56-.682-1.107-.977-1.66-.049-.086-.1-.179-.142-.265a13.57,13.57,0,0,1-1.112-2.416,7.339,7.339,0,0,0-.412-1.783,1.163,1.163,0,0,0-1.476-.571.314.314,0,0,0-.178.442.24.24,0,0,0-.142.2c-.024.166-.043.326-.061.492a12.392,12.392,0,0,0,1.217,7.34c.646,1.156,1.894,1.556,2.632,2.638a9.947,9.947,0,0,0,3.2,2.656c.2.123.1-.388.1-.615" fill="#944426"/>
          <path id="Trazado_161386" data-name="Trazado 161386" d="M504.682,31.272a7.009,7.009,0,0,0-.393-2.195,4.907,4.907,0,0,1-1.808-2.422,16.614,16.614,0,0,0-.449-1.838,3.991,3.991,0,0,0-.977-1.66c-.062-.062-.123-.117-.185-.172-.584-.517-1.346-.769-1.924-1.3a5.555,5.555,0,0,1-1.414-2.434,12.392,12.392,0,0,0,1.217,7.34c.646,1.156,1.894,1.556,2.632,2.638a9.947,9.947,0,0,0,3.2,2.656c.2.123.1-.388.1-.615" fill="#6e270d"/>
          <path id="Trazado_161387" data-name="Trazado 161387" d="M498.481,20.706c-.092-1.54-.636-3.761-2.421-4.142-2.182-.466-2.28,2.143-1.991,3.568a.3.3,0,0,0,.1.172,14.486,14.486,0,0,0,1.145,3.133c.237.488.5,1.428,1.162,1.516,1.933.257,2.071-3.14,2-4.247" fill="#ff9d87"/>
          <path id="Trazado_161388" data-name="Trazado 161388" d="M495.689,20.116c-.371-.14-.531.454-.164.593.629.239.789.968.834,1.564.03.392.645.4.615,0a2.264,2.264,0,0,0-1.285-2.157" fill="#e6684b"/>
          <path id="Trazado_161389" data-name="Trazado 161389" d="M482.737,11.89a5.535,5.535,0,0,0-.987,2.13,26.723,26.723,0,0,1-.309,2.853.308.308,0,0,0,.593.163,10.2,10.2,0,0,0,.248-2.26,4.942,4.942,0,0,1,.986-2.576c.225-.326-.308-.634-.531-.31" fill="#6e270d"/>
          <path id="Trazado_161390" data-name="Trazado 161390" d="M491.512,18.181a17.464,17.464,0,0,0-7.318-2.6c-.394-.034-.391.581,0,.615a16.766,16.766,0,0,1,7.008,2.512.308.308,0,0,0,.31-.531" fill="#6e270d"/>
          <path id="Trazado_161391" data-name="Trazado 161391" d="M493.381,16.693a4.767,4.767,0,0,1-2.6-.314,9.732,9.732,0,0,1-1.976-1.4c-.3-.252-.738.181-.435.436a9.728,9.728,0,0,0,2.38,1.618,5.361,5.361,0,0,0,2.635.273c.391-.034.395-.649,0-.616" fill="#6e270d"/>
          <path id="Trazado_161392" data-name="Trazado 161392" d="M502.9,19.088c-.359-.155-.673.374-.31.531a5.043,5.043,0,0,1,3.068,4.187c.035.391.65.394.615,0a5.639,5.639,0,0,0-3.373-4.718" fill="#6e270d"/>
          <path id="Trazado_161393" data-name="Trazado 161393" d="M515.254,139.53c-3.03-5.966-5.937-12.014-8.542-18.179-1.148-2.715-2.355-5.26-3.745-7.849-.8-1.5,2.67-8.911,5.642-9.35.417-.227.833-.453,1.24-.7a9.79,9.79,0,0,0,3.222-2.822,4.3,4.3,0,0,0,.789-3.549c-.45-1.26-1.381-1.088-2.477-1.215-1.913-.22-2.191-1.7-2.775-3.192q-.537-1.38-1.075-2.759c-.484-1.24-1.406-3.712-1.383-3.708.386.081.551-.512.163-.592-.164-.034-10.249-1.1-14.795-1.176-3.122-.051-6.248-.041-9.365.169-3,.2-5.893.476-8.523,2.06-2.267,1.365-3.071,3.932-3.3,6.433-.68,7.4,1.628,14.6,4.191,21.433,2.593,6.914,15.99,33.848,19.669,40.563.2.364.391.76.59,1.161.17-.047.341-.1.51-.139,4.081-1.008,8.229-1.72,12.27-2.889A72.215,72.215,0,0,0,519,148.925a1.091,1.091,0,0,0,.361-.238,1.352,1.352,0,0,0,.208-.43l.037-.1c-1.357-2.91-2.891-5.755-4.35-8.628" fill="#464752"/>
          <path id="Trazado_161394" data-name="Trazado 161394" d="M499.7,107.062c-.838-3.076-2.565-5.87-4.141-8.614a39.425,39.425,0,0,0-5.7-7.908c-.275-.285-.71.15-.435.435a38.767,38.767,0,0,1,5.6,7.783c1.548,2.7,3.257,5.449,4.079,8.467a.308.308,0,0,0,.593-.163" fill="#242630"/>
          <path id="Trazado_161395" data-name="Trazado 161395" d="M506.985,110.286a29.54,29.54,0,0,0-2.644-3.178,15.437,15.437,0,0,1-1.918-2.644,18.784,18.784,0,0,1-.947-1.857c-1.561-3.5-3.055-7.027-4.586-10.537-.129-.295-.559-.123-.572.153-.135,4.384,2.785,7.808,4.255,11.724a28.447,28.447,0,0,1,1.168,4.777A17.129,17.129,0,0,0,503.6,114.6l7.076-.037a39.629,39.629,0,0,1-3.7-4.279" fill="#242630"/>
          <path id="Trazado_161396" data-name="Trazado 161396" d="M523.439,46.9c-1.068-.16-1.423.876-2.022,1.542l-.045-.087c-.182-.349-1.341.676-1.112,1,8.985,12.659,16.1,30.922,21.534,33.878,1.714.931,4.382,1.6,5.714-.344,1.443-2.1.878-5.291-.287-6.979-4.138-6-22.661-28.011-22.661-28.011s-.018-.832-1.121-1" fill="#ff9d87"/>
          <path id="Trazado_161397" data-name="Trazado 161397" d="M471.422,180.2a.933.933,0,0,1-.3-.051.922.922,0,0,1-.571-1.173L529.262,8.995a.922.922,0,1,1,1.743.6L472.294,179.576a.924.924,0,0,1-.872.621" fill="#a9b881"/>
          <path id="Trazado_161398" data-name="Trazado 161398" d="M536.879,63.758a21.8,21.8,0,0,1-3.929,2.447,20.775,20.775,0,0,1-1.942.824c-.449.166-1.384.682-1.894.51-.861-.295-1.352-2-1.74-2.724a61.825,61.825,0,0,1-4.02-8.853,10.22,10.22,0,0,1-3.29-2.44c-.627-.72-.787-2.017-1.752-2.4a6.432,6.432,0,0,0-2.3-.074c-.381,0-.756-.055-1.138-.055-.836.012-1.389-.1-1.586-1.027-.006-.018-.006-.043-.012-.068a3,3,0,0,1-.037-.577,5.024,5.024,0,0,0-.031-.535c-.049-.32-.2-.609-.264-.922-.025-.117-.049-.234-.068-.345a3.188,3.188,0,0,1-.03-.633,2.123,2.123,0,0,1,.43-1.187,2.376,2.376,0,0,0,.344-.467,1.867,1.867,0,0,0,.08-.529,4.329,4.329,0,0,0-.024-.756c-.013-.215-.037-.418-.037-.621a1.9,1.9,0,0,1,.522-1.426,2.675,2.675,0,0,1,.6-.516c2.133-1.322,4.832.19,6.6,1.42a38.677,38.677,0,0,1,5.951,5.484c2.563,2.729,4.961,5.607,7.254,8.564.843,1.088,1.672,2.182,2.472,3.307a10.51,10.51,0,0,1,1.119,1.7c.4.9-.634,1.4-1.273,1.9" fill="#fff"/>
          <path id="Trazado_161399" data-name="Trazado 161399" d="M518.319,44.226a7.987,7.987,0,0,0-4.648-.283c-.012-.215-.037-.418-.037-.621a8.572,8.572,0,0,1,4.851.308c.369.135.209.731-.166.6" fill="#ede2db"/>
          <path id="Trazado_161400" data-name="Trazado 161400" d="M518.042,46.955a10.164,10.164,0,0,0-5.17.559,3.173,3.173,0,0,1-.031-.632,10.818,10.818,0,0,1,5.361-.517c.393.056.227.651-.16.59" fill="#ede2db"/>
          <path id="Trazado_161401" data-name="Trazado 161401" d="M517.974,48.9a14.523,14.523,0,0,0-4.691,1.057c-.006-.018-.006-.043-.012-.067a3.005,3.005,0,0,1-.037-.578,16.041,16.041,0,0,1,4.74-1.027c.4-.037.393.578,0,.615" fill="#ede2db"/>
          <path id="Trazado_161402" data-name="Trazado 161402" d="M488.944,61.606a3.609,3.609,0,0,1-.092-.357,12.117,12.117,0,0,1-.166-2.84,21.83,21.83,0,0,0-2.4-9.843c-.049-.11-.105-.215-.16-.319a.309.309,0,0,0-.572.153c.222,4.138.338,8.3.677,12.431a11.413,11.413,0,0,0,1.266,4.083c.172.368.326.737.461,1.112.566-.848,1.174-1.758,1.789-2.7a8.743,8.743,0,0,1-.8-1.721" fill="#e8b49c"/>
          <path id="Trazado_161403" data-name="Trazado 161403" d="M485.565,46.983a37.567,37.567,0,0,0-1.518-4.688c-.145-.364-.739-.2-.593.163a37.625,37.625,0,0,1,1.518,4.688.308.308,0,0,0,.593-.163" fill="#e8b49c"/>
          <path id="Trazado_161404" data-name="Trazado 161404" d="M504.915,161.783l6.49-2.569s2.734,7.972,3.246,8.843,4.611,6.763,4.611,6.763H508.093a78.467,78.467,0,0,0-1.229-8.043c-.462-1.179-1.949-4.994-1.949-4.994" fill="#ffe1d4"/>
          <path id="Trazado_161405" data-name="Trazado 161405" d="M508.093,174.82c2.526-5.442,8.759-4.314,11.514,0,1.029,1.611,2.207,6.185-4.111,6.545-7.4.423-7.275-6.82-7.4-6.545" fill="#e66b3e"/>
          <path id="Trazado_161406" data-name="Trazado 161406" d="M455.386,178.505h35.7a.844.844,0,0,1,.543,1.491l-3.009,2.524a.841.841,0,0,1-.542.2h-35.7a.844.844,0,0,1-.543-1.49l3.008-2.524a.844.844,0,0,1,.543-.2" fill="#a9b881"/>
          <path id="Trazado_161407" data-name="Trazado 161407" d="M470.988,181.655H470.9a1.232,1.232,0,0,1-1.154-1.662l.4-1.074a.307.307,0,0,1,.576.215l-.4,1.073a.617.617,0,0,0,.578.833h.085a.62.62,0,0,0,.578-.4l.643-1.72a.308.308,0,1,1,.576.216l-.643,1.72a1.238,1.238,0,0,1-1.154.8" fill="#7a9136"/>
          <path id="Trazado_161408" data-name="Trazado 161408" d="M476.594,85.574c-2.492.152-4.268,1.8-5.889,3.537-.269.29.165.725.435.435,1.5-1.606,3.136-3.215,5.454-3.357.393-.024.4-.639,0-.615" fill="#242630"/>
          <path id="Trazado_161409" data-name="Trazado 161409" d="M527.208,91a108.088,108.088,0,0,0-21.514-5.968c-.387-.065-.553.527-.163.593A108.125,108.125,0,0,1,527.045,91.6c.368.144.528-.45.163-.593" fill="#242630"/>
          <path id="Trazado_161410" data-name="Trazado 161410" d="M546.667,33.987S545.034,53.75,548.005,60.2s3.279,5.953,2.357,15.218-1.844,17.359-.1,18.077.907-1.511,4.506-.634,6.867,1.845,7.277.778,2.708-30.575,1.069-38.056-3.97-12.3-8.376-16.176a33.355,33.355,0,0,0-8.069-5.419" fill="#ffc799"/>
          <path id="Trazado_161411" data-name="Trazado 161411" d="M549.575,43.385c.026-.395-.589-.393-.615,0-.448,6.894,3.311,13.515,1.846,20.4-.082.386.51.551.593.163,1.481-6.961-2.276-13.6-1.824-20.559" fill="#e8a270"/>
          <path id="Trazado_161412" data-name="Trazado 161412" d="M557.342,75.8c-.578-5.97.345-11.951,1.263-17.838.06-.387-.532-.553-.593-.163-.867,5.559-1.744,11.189-1.379,16.833a41.757,41.757,0,0,0,1.351,7.709c.758,2.949,1.482,5.927.618,8.941a.308.308,0,0,0,.593.163c1.49-5.195-1.354-10.492-1.853-15.645" fill="#e8a270"/>
          <path id="Trazado_161413" data-name="Trazado 161413" d="M556.378,81.224c-.088-.386-.68-.222-.593.163a23.875,23.875,0,0,1,.169,9.884c-.075.386.518.552.592.163a24.689,24.689,0,0,0-.168-10.21" fill="#e8a270"/>
          <path id="Trazado_161414" data-name="Trazado 161414" d="M570.469,184.3H544.43a1.23,1.23,0,0,1-1.22-1.075L538.6,146.8a1.229,1.229,0,0,1,1.219-1.384h35.254a1.229,1.229,0,0,1,1.219,1.384l-4.607,36.427a1.23,1.23,0,0,1-1.219,1.075" fill="#e66b3e"/>
          <path id="Trazado_161415" data-name="Trazado 161415" d="M560.945,161.9a15.457,15.457,0,0,1-2.118-.147c-8.066-1.11-15.731-7.024-19.529-15.066a.615.615,0,1,1,1.112-.525c3.625,7.676,10.92,13.318,18.585,14.373a11.863,11.863,0,0,0,10.6-3.505,21.221,21.221,0,0,0,4.775-10.707.615.615,0,0,1,1.213.2,22.439,22.439,0,0,1-5.08,11.333,12.723,12.723,0,0,1-9.556,4.041" fill="#fff"/>
          <path id="Trazado_161416" data-name="Trazado 161416" d="M560.337,162.7a16.921,16.921,0,0,1-3.175-.3,1.537,1.537,0,0,1,.574-3.02,16.339,16.339,0,0,0,8.115-.687,1.537,1.537,0,1,1,.927,2.931,21.294,21.294,0,0,1-6.441,1.073" fill="#fff"/>
          <path id="Trazado_161417" data-name="Trazado 161417" d="M567.489,150.681c-.237-1.548-.293-3.89-.962-5.3a2.855,2.855,0,0,0-2.077-1.452,14.513,14.513,0,0,0-4.436-.171c-1.471.2-1.419,1.787-.41,1.864-.015,1.669-.023,3.343.059,5.008.035.715.013,2.518.793,2.895.436.211.713,0,.883-.439a10.987,10.987,0,0,0,.731,3.436.972.972,0,0,0,.908.676c.521-.048.725-.473.832-.937.442.635,1.03.774,1.474-.4a9.3,9.3,0,0,0,.323-3.7c.277.754.672,1.2,1.243.928.754-.364.8-1.368.639-2.415" fill="#fff"/>
          <path id="Trazado_161418" data-name="Trazado 161418" d="M566.463,144.648c-2.059-1.442-5.7-1.548-7.693.105-.3.253.133.686.435.435,1.762-1.464,5.162-1.26,6.948-.009.324.227.632-.305.31-.531" fill="#ede2db"/>
          <path id="Trazado_161419" data-name="Trazado 161419" d="M561.682,148.333c-.032-.392-.647-.395-.615,0a18.379,18.379,0,0,1-.05,3.533c-.043.392.572.389.615,0a18.454,18.454,0,0,0,.05-3.533" fill="#ede2db"/>
          <path id="Trazado_161420" data-name="Trazado 161420" d="M563.761,147.587a.308.308,0,0,0-.615,0q.106,3.843.212,7.685a.308.308,0,0,0,.615,0q-.107-3.843-.212-7.685" fill="#ede2db"/>
          <path id="Trazado_161421" data-name="Trazado 161421" d="M565.568,147.868c-.054-.39-.646-.224-.593.163a24.837,24.837,0,0,1,.218,3.912.308.308,0,0,0,.615,0,25.694,25.694,0,0,0-.24-4.075" fill="#ede2db"/>
          <path id="Trazado_161422" data-name="Trazado 161422" d="M577.2,167.4v19a1.078,1.078,0,0,1-1.076,1.076h-6.658a1.078,1.078,0,0,1-1.076-1.076v-19a1.074,1.074,0,0,1,1.076-1.076h6.658A1.074,1.074,0,0,1,577.2,167.4" fill="#5462b3"/>
          <path id="Trazado_161423" data-name="Trazado 161423" d="M572.913,163.039h-.249a1.518,1.518,0,0,0-1.518,1.518v1.767h3.285v-1.767a1.518,1.518,0,0,0-1.518-1.518" fill="#464752"/>
          <rect id="Rectángulo_42662" data-name="Rectángulo 42662" width="5.226" height="3.793" transform="translate(568.385 170.014)" fill="#fff"/>
          <path id="Trazado_161424" data-name="Trazado 161424" d="M428.432,187.983c-3.509-.534-13.023-1.573-12.485,1.195.106.55.73.809,1.27.957a26.025,26.025,0,0,0,9.7.775,8.089,8.089,0,0,0,2.778-.7c.57-.286,1.144-.923.846-1.487a1.378,1.378,0,0,0-1-.553c-.2-.042-.592-.11-1.11-.189" fill="#ede2db"/>
          <path id="Trazado_161425" data-name="Trazado 161425" d="M481.93,196.688a1.627,1.627,0,0,0-.838-.928,4.425,4.425,0,0,0-1.534-.356c-1.7-.186-15.772-1.619-13.847,2.437.434.913,1.617,1.129,2.625,1.2a65.2,65.2,0,0,0,8.127.1,17.6,17.6,0,0,0,3.7-.486c.86-.232,1.839-.79,1.811-1.681a1.135,1.135,0,0,0-.049-.291" fill="#ede2db"/>
          <path id="Trazado_161426" data-name="Trazado 161426" d="M417.605,181.988a5.743,5.743,0,0,0-3.449-.746q-3.279.018-6.547.326c-1.718.162-4.628,0-5.923,1.35a1.027,1.027,0,0,0-.213,1.207,1.414,1.414,0,0,0,.853.506c3.941,1.126,8.125-.029,12.221-.215a5.063,5.063,0,0,0,3.294-.856,1.028,1.028,0,0,0,.326-.487,1.122,1.122,0,0,0-.562-1.085" fill="#ede2db"/>
          <path id="Trazado_161427" data-name="Trazado 161427" d="M504.316,191.575a2.276,2.276,0,0,0-.763-.642,9.981,9.981,0,0,0-5.386-1.023c-1.485.056-12.025-.223-12.015,2.2,0,.441.541.646.977.714a52.557,52.557,0,0,0,8.363.529c2.6-.009,5.684.283,8.219-.342a1.243,1.243,0,0,0,.578-.268.9.9,0,0,0,.1-1.056c-.022-.04-.045-.078-.07-.115" fill="#ede2db"/>
          <path id="Trazado_161428" data-name="Trazado 161428" d="M480.418,23.832a11.512,11.512,0,0,0-.3,5.631.307.307,0,0,0,.592-.163,10.86,10.86,0,0,1,.3-5.3c.089-.385-.5-.549-.593-.163" fill="#6e270d"/>
          <path id="Trazado_161429" data-name="Trazado 161429" d="M509.04,17.151c-1.3-1.518-3.792-.671-4.906-2.279s-1.82-3.145-3.364-4.459A13.093,13.093,0,0,0,495.762,7.8a.308.308,0,0,0-.163.593,12.427,12.427,0,0,1,5.083,2.765,12,12,0,0,1,1.9,2.2c.472.7.752,1.555,1.26,2.226.832,1.1,2.236.787,3.411,1.174,2.6.858,2.159,4.513,2.008,6.706-.028.4.587.393.614,0,.126-1.813.463-4.792-.84-6.314" fill="#944426"/>
          <path id="Trazado_161430" data-name="Trazado 161430" d="M480.091,12.484a8.861,8.861,0,0,0-4.246,5.562c-.449,2.493,1.287,5.113,2.849,6.885.262.3.694-.139.435-.435-1.436-1.629-3.09-4.07-2.646-6.349a8.262,8.262,0,0,1,3.918-5.132c.356-.173.044-.7-.31-.531" fill="#944426"/>
          <path id="Trazado_161431" data-name="Trazado 161431" d="M479.476,162.628c0-2.736-13.737-4.954-30.683-4.954s-30.682,2.218-30.682,4.954a1.007,1.007,0,0,0,.231.6c1.082,2.79,5.685,14.538,7.4,16.836,0,2.056,10.321,3.722,23.052,3.722s23.053-1.666,23.053-3.722c1.714-2.3,6.317-14.046,7.4-16.836a1.014,1.014,0,0,0,.231-.6" fill="#9698b0"/>
          <path id="Trazado_161432" data-name="Trazado 161432" d="M476.58,162.438a.836.836,0,0,1-.39.6c-1.428,1.13-6.727,2.292-14.026,2.961-2.967.279-6.273.474-9.779.552-1.176.032-2.377.045-3.591.045-3.715,0-7.254-.129-10.494-.363q-2.152-.147-4.1-.351c-6.253-.643-10.864-1.649-12.52-2.662-.435-.26-.669-.526-.669-.786,0-1.916,12.442-3.468,27.787-3.468s27.786,1.552,27.786,3.468" fill="#73758c"/>
          <path id="Trazado_161433" data-name="Trazado 161433" d="M464.418,164.263s-.955.773-2.253,1.74c-2.968.28-6.273.474-9.78.552-1.175.033-2.376.046-3.591.046-3.714,0-7.253-.13-10.493-.364q-2.154-.146-4.1-.351l-.663-1.9a129.89,129.89,0,0,1,15.26-.934c7.228.085,13.072.609,13.637.934a5.306,5.306,0,0,0,1.987.279" fill="#ede2db"/>
          <path id="Trazado_161434" data-name="Trazado 161434" d="M470.827,161.2a6.8,6.8,0,0,0-5.546,2.792,1.807,1.807,0,0,0-2.013-1.208c-.941.143-1.194.929-1.909,1.319-.493.266-1.539-.195-2.169-.052a19.881,19.881,0,0,1-2.513.584,8.08,8.08,0,0,0-1.032.182,7.693,7.693,0,0,0-2.663,1.266c-.168.124-.376.286-.6.474,12.117-.272,21.793-1.922,23.806-3.513-1.143-1.48-3.611-1.824-5.364-1.844" fill="#fff"/>
          <path id="Trazado_161435" data-name="Trazado 161435" d="M436.573,164.782a3.531,3.531,0,0,1-1.623-1.357,4.515,4.515,0,0,0-.663-.968,2.871,2.871,0,0,0-2.169-.7,3.718,3.718,0,0,0-1.052.254c-.389.149-.993.753-1.363.8-.767.117-1.344-.825-2.124-1.1a4.707,4.707,0,0,0-2.974.045,9.645,9.645,0,0,0-2.928,1.455c2,1.22,8.3,2.435,16.623,3.013a3.317,3.317,0,0,0-1.727-1.455" fill="#fff"/>
          <path id="Trazado_161436" data-name="Trazado 161436" d="M448.794,168.875c-18.352,0-29.278-3.877-29.386-3.916a.324.324,0,1,1,.221-.61c.107.038,10.938,3.877,29.165,3.877,18.028,0,28.686-3.572,28.792-3.608a.324.324,0,0,1,.21.614c-.107.037-10.867,3.643-29,3.643" fill="#73758c"/>
          <path id="Trazado_161437" data-name="Trazado 161437" d="M457.05,161.081a11.608,11.608,0,0,0-2.945-.468,3.937,3.937,0,0,0-2.755,1.031,2.965,2.965,0,0,1-.526.489,3.387,3.387,0,0,1-1.016.269,1.218,1.218,0,0,0-.078,2.283,2.538,2.538,0,0,0,1.891-.151,8.537,8.537,0,0,1,1.822-.671,19.422,19.422,0,0,1,2.576.135,3.694,3.694,0,0,0,1.828-.528,1.4,1.4,0,0,0,.8-1.158c-.038-.713-.876-1.052-1.568-1.225l-.025-.006" fill="#fff"/>
          <path id="Trazado_161438" data-name="Trazado 161438" d="M429.617,164.667a5.894,5.894,0,0,0-.979-1.576,3.594,3.594,0,0,0-1.51-.864.325.325,0,0,0-.173.626,2.92,2.92,0,0,1,1.318.791,5.82,5.82,0,0,1,.783,1.351c.2.366.762.039.561-.328" fill="#ede2db"/>
          <path id="Trazado_161439" data-name="Trazado 161439" d="M432.256,164.515a2.31,2.31,0,0,0-1.107-1.421.325.325,0,0,0-.327.561,1.653,1.653,0,0,1,.808,1.033.325.325,0,0,0,.626-.173" fill="#ede2db"/>
          <path id="Trazado_161440" data-name="Trazado 161440" d="M454.358,161.015a4.318,4.318,0,0,0-.98,1.719.325.325,0,0,0,.626.173,3.574,3.574,0,0,1,.813-1.433c.284-.306-.174-.767-.459-.459" fill="#ede2db"/>
          <path id="Trazado_161441" data-name="Trazado 161441" d="M472.14,163.275c-1.273-.845-4.076-.9-4.448.975-.081.408.545.582.626.172.281-1.417,2.58-1.193,3.494-.586.349.231.675-.331.328-.561" fill="#ede2db"/>
          <path id="Trazado_161442" data-name="Trazado 161442" d="M464.42,164.264a2.5,2.5,0,0,0-2.4.639c-.3.292.159.751.459.459a1.831,1.831,0,0,1,1.768-.472.325.325,0,0,0,.173-.626" fill="#ede2db"/>
          <path id="Trazado_161443" data-name="Trazado 161443" d="M398.627,152.542a.646.646,0,0,1-.553-.309l-2.779-4.506a.649.649,0,1,1,1.1-.682l2.779,4.507a.648.648,0,0,1-.212.893.642.642,0,0,1-.34.1" fill="#ede2db"/>
          <path id="Trazado_161444" data-name="Trazado 161444" d="M395.72,159.16h-5.763l1.948-11.23h3.815Z" fill="#e66b3e"/>
          <path id="Trazado_161445" data-name="Trazado 161445" d="M397.333,174.425h-8.99a1.421,1.421,0,0,1-1.421-1.42V160.616a5.916,5.916,0,0,1,11.832,0v12.389a1.421,1.421,0,0,1-1.421,1.42" fill="#e66b3e"/>
          <path id="Trazado_161446" data-name="Trazado 161446" d="M399.858,146.1v1.214a.61.61,0,0,1-.61.611h-7.871a.61.61,0,0,1-.61-.611v-3.2a.612.612,0,0,1,.76-.6l7.227,1.831.643.162a.611.611,0,0,1,.461.591" fill="#ede2db"/>
          <path id="Trazado_161447" data-name="Trazado 161447" d="M399.858,146.1v1.214a.61.61,0,0,1-.61.611h-.494v-2.578l.643.162a.611.611,0,0,1,.461.591" fill="#e66b3e"/>
          <path id="Trazado_161448" data-name="Trazado 161448" d="M396.2,159.656c0,1.014-1.507,1.836-3.366,1.836s-3.366-.822-3.366-1.836,1.507-1.836,3.366-1.836,3.366.822,3.366,1.836" fill="#fff"/>
          <path id="Trazado_161449" data-name="Trazado 161449" d="M249.5,99.41h-6.55a1,1,0,0,1-1-1V84.395a1,1,0,0,1,1-1h6.55a1,1,0,0,1,1,1V98.41a1,1,0,0,1-1,1" fill="#ede2db"/>
          <path id="Trazado_161450" data-name="Trazado 161450" d="M261.19,99.41h-6.55a1,1,0,0,1-1-1V95.093a1,1,0,0,1,1-1h6.55a1,1,0,0,1,1,1V98.41a1,1,0,0,1-1,1" fill="#ede2db"/>
          <path id="Trazado_161451" data-name="Trazado 161451" d="M213.634,75.69a13.928,13.928,0,0,0-6.645,3.1c1.394-4.674,4.082-8.933,6.435-13.169.146-.263-.168-.648-.444-.444-3.229,2.379-6.426,5.118-8.494,8.5a31.942,31.942,0,0,1,3.861-12.113.327.327,0,0,0-.444-.444c-5.164,2.641-6.975,8.233-6.949,13.682a16.584,16.584,0,0,0-2.5-3.051c-1.743-1.644-4.772-3.683-7.309-3.121a.328.328,0,0,0-.144.543c3.686,3.5,7.2,7.384,9.164,12.072a16.211,16.211,0,0,0-2.736-1.869,26.675,26.675,0,0,0-4.538-1.959c-1.006-.331-4.835-.5-5.451.467-.512.8,4.8,2.8,5.32,3.153,3.589,2.467,6.939,5.428,8.627,9.541a.3.3,0,0,0,.045.068,13.453,13.453,0,0,0-1.505.343.325.325,0,0,0,.173.626,11.226,11.226,0,0,1,4.159-.4.327.327,0,0,0,.313-.238,23.373,23.373,0,0,1,4.1-8.773,23.666,23.666,0,0,1,3.16-3.386,7.046,7.046,0,0,0,2.2-2.72c.1-.254-.182-.437-.4-.4" fill="#a9b881"/>
          <path id="Trazado_161452" data-name="Trazado 161452" d="M206.864,80.153c.253-.326-.2-.789-.459-.459a17.3,17.3,0,0,0-1.65,2.565,31.3,31.3,0,0,0-1.56-3.891.329.329,0,0,0,.02-.058,10.719,10.719,0,0,1,1.346-3.9.325.325,0,0,0-.561-.328,11.2,11.2,0,0,0-1.271,3.333c-.412-.824-.837-1.626-1.252-2.4-.2-.368-.759-.04-.561.328,1.9,3.522,4.038,7.714,4.032,11.8a.325.325,0,0,0,.649,0,15.306,15.306,0,0,0-.587-4.021.317.317,0,0,0,.075-.1,16.434,16.434,0,0,1,1.779-2.876" fill="#7a9136"/>
          <path id="Trazado_161453" data-name="Trazado 161453" d="M204.655,87.285c-.857-2.01-1.829-4.691-3.8-5.872a.325.325,0,0,0-.328.561c1.831,1.1,2.773,3.767,3.571,5.639.164.383.723.052.561-.328" fill="#7a9136"/>
          <path id="Trazado_161454" data-name="Trazado 161454" d="M222.777,80.73a11.3,11.3,0,0,0-4.092,2.079,56,56,0,0,0,1.485-5.672.329.329,0,0,0-.477-.366c-3.455,1.678-4.23,5.466-4.595,8.965a9.679,9.679,0,0,0-4.237-3.2c-.288-.1-.485.24-.367.477,1.086,2.177,2.5,4.421,3.085,6.812a.364.364,0,0,0-.025.119c0,.223.017.445.037.666a1.35,1.35,0,0,1-.166-.276c-.154-.383-.783-.216-.626.172a2.665,2.665,0,0,0,1.007,1.252.28.28,0,0,0,.2.127,4.983,4.983,0,0,0,.865.394c1.145.406,1.55.327,2.09-.785a44.572,44.572,0,0,1,2.512-4.939c1.174-1.812,2.441-3.568,3.67-5.344a.328.328,0,0,0-.367-.477" fill="#a9b881"/>
          <path id="Trazado_161455" data-name="Trazado 161455" d="M218.086,83.171a24.2,24.2,0,0,0-2.235,4.236,8.19,8.19,0,0,0-.42-1.161c-.173-.38-.732-.05-.561.328a7.074,7.074,0,0,1,.593,2.2c.042.412.692.416.649,0a8.081,8.081,0,0,0-.166-.978.356.356,0,0,0,.509-.167,23.371,23.371,0,0,1,2.192-4.131c.232-.349-.331-.675-.561-.328" fill="#7a9136"/>
          <path id="Trazado_161456" data-name="Trazado 161456" d="M196.457,99.41h23.291c5.606-2.058,6.632-5.99,7.436-10.634H189.021c.8,4.644,1.83,8.576,7.436,10.634" fill="#5462b3"/>
          <path id="Trazado_161457" data-name="Trazado 161457" d="M274.2,153.244l1.84,26.358h-2.165l-4.762-26.427Z" fill="#de8b5b"/>
          <path id="Trazado_161458" data-name="Trazado 161458" d="M185.638,153.244,183.8,179.6h2.165l4.762-26.427Z" fill="#de8b5b"/>
          <path id="Trazado_161459" data-name="Trazado 161459" d="M279.755,153.568h-98.44a2.275,2.275,0,0,1-2.273-2.273V101.389a2.275,2.275,0,0,1,2.273-2.272h98.44a2.275,2.275,0,0,1,2.273,2.272v49.906a2.275,2.275,0,0,1-2.273,2.273m-98.44-53.8a1.625,1.625,0,0,0-1.623,1.623v49.906a1.625,1.625,0,0,0,1.623,1.624h98.44a1.625,1.625,0,0,0,1.623-1.624V101.389a1.625,1.625,0,0,0-1.623-1.623Z" fill="#ffe1d4"/>
          <path id="Trazado_161460" data-name="Trazado 161460" d="M273.12,147.057H187.949a2.276,2.276,0,0,1-2.273-2.273V107.9a2.276,2.276,0,0,1,2.273-2.273H273.12a2.276,2.276,0,0,1,2.273,2.273v36.883a2.276,2.276,0,0,1-2.273,2.273" fill="#ffe1d4"/>
          <rect id="Rectángulo_42663" data-name="Rectángulo 42663" width="92.015" height="0.649" transform="translate(184.527 126.018)" fill="#fff"/>
          <path id="Trazado_161461" data-name="Trazado 161461" d="M237.053,111.746H224.018a1.382,1.382,0,1,1,0-2.764h13.035a1.382,1.382,0,1,1,0,2.764" fill="#de8b5b"/>
          <path id="Trazado_161462" data-name="Trazado 161462" d="M237.053,132.211H224.018a1.382,1.382,0,1,1,0-2.764h13.035a1.382,1.382,0,1,1,0,2.764" fill="#de8b5b"/>
          <path id="Trazado_161463" data-name="Trazado 161463" d="M720.625,51.915c-3.123,1.653-6.1-1.065-8.861-2.214a9.11,9.11,0,0,0-6.932.04c-4.732,1.894-7.062,6.772-7.6,11.582-.022.2.147.278.3.247a.291.291,0,0,0,.354-.248c.37-3.411,1.993-7.167,6-7.088a7.318,7.318,0,0,1,5.248,2.407c1.205,1.4,1.6,3.269,2.034,5.009,1.592,6.364,3.312,12.85,7.3,18.189.2.275.673.007.465-.271a36.9,36.9,0,0,1-5.445-11.4c-.608-1.981-1.127-3.988-1.631-6A16.71,16.71,0,0,0,710.073,57a7.492,7.492,0,0,0-8.527-2.9,5.358,5.358,0,0,0-2.063,1.48c1.624-3.157,4.34-5.633,8.163-5.982,2.868-.262,4.988,1.239,7.442,2.429,1.844.894,3.917,1.359,5.809.357.306-.162.035-.627-.272-.465" fill="#7a9136"/>
          <path id="Trazado_161464" data-name="Trazado 161464" d="M687.513,43.285a13.8,13.8,0,0,0-9.91-.477c-4.043,1.281-7.37,4.645-11.816,4.513-.347-.011-.347.528,0,.538,3.453.1,6.251-1.838,9.2-3.357a14.256,14.256,0,0,1,11.151-1.193c7.278,2.479,9.948,11.584,9.318,18.54-.032.346.507.343.539,0,.612-6.756-1.83-15.491-8.477-18.564" fill="#7a9136"/>
          <path id="Trazado_161465" data-name="Trazado 161465" d="M712.429,35.832a22,22,0,0,0-13.105,9.622c-3.075,5.242-3.132,12.112-2.985,18.017a.27.27,0,0,0,.539,0,65.551,65.551,0,0,1,.356-8.816,22.154,22.154,0,0,1,2.338-8.548c2.751-4.964,7.639-8.195,13-9.755a.27.27,0,0,0-.143-.52" fill="#7a9136"/>
          <path id="Trazado_161466" data-name="Trazado 161466" d="M682.368,51.69c-3.832,4.564-6.294,10.157-6.044,16.178a34.666,34.666,0,0,0-2.332-8.082c-.135-.318-.6-.044-.465.272a33.741,33.741,0,0,1,2.456,9.2c.041.34.58.344.539,0-.033-.274-.074-.546-.113-.818.149.163.484.112.467-.164-.373-6.033,2.044-11.645,5.873-16.206.221-.264-.158-.647-.381-.381" fill="#ffe1d4"/>
          <path id="Trazado_161467" data-name="Trazado 161467" d="M680.584,58.48c-2.4,2.7-3.016,6.217-3.524,9.681-.049.34.47.485.52.144.491-3.355,1.053-6.821,3.385-9.443.23-.258-.15-.641-.381-.382" fill="#ffe1d4"/>
          <path id="Trazado_161468" data-name="Trazado 161468" d="M672.35,56.579a1,1,0,0,0-.287.9,5.85,5.85,0,0,0,.572,2.324c.282.564.937,1.651,1.721,1.256.34-.171.34-.649.275-1.024a7.275,7.275,0,0,0-1.11-2.958,1.551,1.551,0,0,0-.486-.488.668.668,0,0,0-.661-.023l-.024.015" fill="#de8b5b"/>
          <path id="Trazado_161469" data-name="Trazado 161469" d="M683.25,51.86a.455.455,0,0,0-.168-.333.681.681,0,0,0-.608-.02,4.062,4.062,0,0,0-2.413,2.74.7.7,0,0,0,.6.786.878.878,0,0,0,.556-.275,8.391,8.391,0,0,0,1.861-2.316,1.288,1.288,0,0,0,.175-.466.562.562,0,0,0,0-.116" fill="#de8b5b"/>
          <path id="Trazado_161470" data-name="Trazado 161470" d="M682.209,57.875a.382.382,0,0,0-.128-.131.66.66,0,0,0-.524-.018,3.961,3.961,0,0,0-2.5,2.72,1.118,1.118,0,0,0-.064.416c.041.453.447.423.751.239a7.769,7.769,0,0,0,2.264-2.307,1.416,1.416,0,0,0,.263-.526.574.574,0,0,0-.063-.393" fill="#de8b5b"/>
          <path id="Trazado_161471" data-name="Trazado 161471" d="M678.648,74V66.12c0-.016-.005-.03-.005-.045h-3.937c0,.015,0,.029,0,.045V74a8.219,8.219,0,0,0-4.236,6.895c0,3.236,2.78,4.355,6.207,4.355s6.207-1.119,6.207-4.355A8.22,8.22,0,0,0,678.648,74" fill="#ffc799"/>
          <path id="Trazado_161472" data-name="Trazado 161472" d="M683.186,71.682a3.127,3.127,0,0,0-5.215-1.442c-.52.462.245,1.222.762.762a2.035,2.035,0,0,1,3.414.966,1.6,1.6,0,0,1-.98,1.878,6.167,6.167,0,0,1-2.415-.157c-.676-.138-.966.9-.286,1.039,1.15.234,2.788.554,3.794-.237a2.865,2.865,0,0,0,.926-2.809" fill="#ffc799"/>
          <path id="Trazado_161473" data-name="Trazado 161473" d="M670.534,71.682a3.127,3.127,0,0,1,5.215-1.442c.52.462-.245,1.222-.762.762a2.035,2.035,0,0,0-3.414.966,1.6,1.6,0,0,0,.98,1.878,6.167,6.167,0,0,0,2.415-.157c.676-.138.966.9.286,1.039-1.15.234-2.788.554-3.794-.237a2.865,2.865,0,0,1-.926-2.809" fill="#ffc799"/>
          <path id="Trazado_161474" data-name="Trazado 161474" d="M666.99,77.022a.575.575,0,0,1,.559.707c-1.187,4.982-8.245,8.807-16.789,8.807s-15.6-3.825-16.789-8.807a.576.576,0,0,1,.56-.707Z" fill="#9698b0"/>
          <path id="Trazado_161475" data-name="Trazado 161475" d="M662.074,80.9c-.6.194-1.993.431-2.376-.259-.3-.544-.038-1.88-.032-2.462.005-.382.011-.77.011-1.153H661.3c.431.647.841,1.31,1.272,1.951.512.759.485,1.616-.5,1.923" fill="#464752"/>
          <path id="Trazado_161476" data-name="Trazado 161476" d="M657.769,81.839c-.576-.329-1.121.517-1.341.943-.087.161.619.943,1.007.991.431.054,1.261.043,1.374-.512a.826.826,0,0,0-.264-.662,3.332,3.332,0,0,0-.776-.76" fill="#464752"/>
          <path id="Trazado_161477" data-name="Trazado 161477" d="M653.987,78.552c-.77.151-1.131,1.32-1.433,1.923-.151.291,4.547.722,3.367-.792-.409-.522-1.2-1.282-1.934-1.131" fill="#464752"/>
          <path id="Trazado_161478" data-name="Trazado 161478" d="M648.75,80.572c-.905-.3-1.621.762-2.029,1.4-.461.722-1.405,1.866-.007,1.913.932.033,1.869.043,2.807.066.738.015,2.327.167,2.052-1.062-.215-.975-2-2.042-2.823-2.317" fill="#464752"/>
          <path id="Trazado_161479" data-name="Trazado 161479" d="M645.723,79.657c-.587.2-1.746.393-1.767-.506a4.79,4.79,0,0,1,.431-1.622c.065-.172.14-.339.215-.506h1.433a4.487,4.487,0,0,1,.372.818c.3.857.216,1.514-.684,1.816" fill="#464752"/>
          <path id="Trazado_161480" data-name="Trazado 161480" d="M639.045,78.215a.481.481,0,0,0-.353.386,12.025,12.025,0,0,0,.059,2.451,2.833,2.833,0,0,0,.4,1.385c.592.732,1.982.156,2.5-.421.781-.878.178-1.89-.41-2.682a3.778,3.778,0,0,0-1.079-1.133,1.623,1.623,0,0,0-1.116.014" fill="#464752"/>
          <path id="Trazado_161481" data-name="Trazado 161481" d="M734.522,181.712a.269.269,0,0,1-.268-.25l-6.061-85.08a.269.269,0,1,1,.537-.038l6.061,85.08a.268.268,0,0,1-.25.287h-.019" fill="#464752"/>
          <path id="Trazado_161482" data-name="Trazado 161482" d="M618.384,181.712h-.019a.268.268,0,0,1-.25-.287l6.061-85.08a.265.265,0,0,1,.288-.25.268.268,0,0,1,.249.288l-6.061,85.08a.269.269,0,0,1-.268.25" fill="#464752"/>
          <path id="Trazado_161483" data-name="Trazado 161483" d="M731.022,98.278H621.885a2,2,0,0,1-2-2V86.735a2,2,0,0,1,2-2H731.022a2,2,0,0,1,2,2v9.543a2,2,0,0,1-2,2" fill="#ffe1d4"/>
          <path id="Trazado_161484" data-name="Trazado 161484" d="M729.306,107.672H623.361a.269.269,0,0,1,0-.539H729.306a.269.269,0,0,1,0,.539" fill="#464752"/>
          <rect id="Rectángulo_42664" data-name="Rectángulo 42664" width="105.945" height="7.495" transform="translate(623.48 87.759)" fill="#fff"/>
          <rect id="Rectángulo_42665" data-name="Rectángulo 42665" width="1.078" height="10.573" transform="translate(658.539 86.345)" fill="#ffe1d4"/>
          <rect id="Rectángulo_42666" data-name="Rectángulo 42666" width="1.078" height="10.573" transform="translate(693.289 86.345)" fill="#ffe1d4"/>
          <path id="Trazado_161485" data-name="Trazado 161485" d="M703.724,84.737h-13.4l.393-6.314,1.159-18.6a1.079,1.079,0,0,1,1.077-1.013h8.146a1.074,1.074,0,0,1,1.072,1.013l1.164,18.6Z" fill="#ede2db"/>
          <path id="Trazado_161486" data-name="Trazado 161486" d="M720.553,70.422c-.894-1.891-2.16-4.041-4.461-4.315a2.923,2.923,0,0,0-2.823,1.314c-.032.054-.065.113-.092.167-.156-.059-.307-.108-.463-.151-3.2-.862-6.158,1.843-6.352,5.167a8.168,8.168,0,0,0,2.155,5.721c1.514,1.719,3.637,2.457,5.6,3.513a21.108,21.108,0,0,1,3.329,2.36,6.145,6.145,0,0,0,2.662,1.433,3.037,3.037,0,0,0,1.19.005,2.788,2.788,0,0,0,.528-.161,3.62,3.62,0,0,0,1.924-2.1c1.681-4.267-1.439-9.218-3.2-12.957" fill="#a9b881"/>
          <path id="Trazado_161487" data-name="Trazado 161487" d="M721.825,85.474a2.938,2.938,0,0,1-.528.162,19.762,19.762,0,0,0-2.883-8.216,65.117,65.117,0,0,1-3.867-5.436,21.191,21.191,0,0,1-1.833-4.547c.156.043.307.091.463.151.027-.054.06-.114.092-.167a20.2,20.2,0,0,0,2.468,5.5c1.2,1.859,2.786,3.443,3.862,5.377a21.456,21.456,0,0,1,2.226,7.176" fill="#7a9136"/>
          <path id="Trazado_161488" data-name="Trazado 161488" d="M725.748,50.948c-.113-.1-.232-.2-.35-.286a7.208,7.208,0,0,0-2.7-.975,39.424,39.424,0,0,1-5.442-1.4,12.142,12.142,0,0,0-2.015-.652,2.825,2.825,0,0,0-2.052.323c-.582.382-.614.851-.776,1.455-.1.371.021.29-.205.592-.005,0-.005.006-.011.011a1.625,1.625,0,0,1-.425.329,1.37,1.37,0,0,0-.237.188,3.233,3.233,0,0,0-.587,3.265,4.689,4.689,0,0,0,3.674,2.667,10.733,10.733,0,0,0,4.676-.534,33.876,33.876,0,0,1,4.574-1.255,3.775,3.775,0,0,0,2.22-.749,1.453,1.453,0,0,0,.345-.56,1.874,1.874,0,0,0,.1-.625,2.544,2.544,0,0,0-.792-1.794" fill="#a9b881"/>
          <path id="Trazado_161489" data-name="Trazado 161489" d="M726.541,52.742a1.879,1.879,0,0,1-.1.625c-.139-.086-.281-.172-.42-.259-1.859-1.131-3.706-1.2-5.818-1.266a40.506,40.506,0,0,1-5.609-.248,6.92,6.92,0,0,1-2.818-1.249,1.655,1.655,0,0,0,.427-.329s0-.011.009-.011a6.487,6.487,0,0,0,2.043.975,12.636,12.636,0,0,0,2.748.232c1.9.054,3.825.016,5.709.2a9.623,9.623,0,0,1,3.832,1.331" fill="#7a9136"/>
          <path id="Trazado_161490" data-name="Trazado 161490" d="M721.33,38.35a2.858,2.858,0,0,0-.122-.437,3.215,3.215,0,0,0-.3-.6,3.924,3.924,0,0,0-.469-.621,5.509,5.509,0,0,0-.678-.6,10.091,10.091,0,0,0-4.772-1.668,28.586,28.586,0,0,0-8.413.125c-2.478.407-5.987,1.444-6.265,4.472a2.209,2.209,0,0,0,.577,1.771c.374.371.914.576,1.242.966a1.081,1.081,0,0,1,.171.25.943.943,0,0,1,.079.2c.08.285.076.595.127.888.261,1.55,2.015,2.459,3.585,2.4a12.736,12.736,0,0,0,4.447-1.453,44.892,44.892,0,0,1,7.664-2.4,4.381,4.381,0,0,0,2.809-1.457,2.474,2.474,0,0,0,.315-1.83" fill="#a9b881"/>
          <path id="Trazado_161491" data-name="Trazado 161491" d="M720.911,37.313a23.363,23.363,0,0,0-6.844.072,25.735,25.735,0,0,0-7.214,2.042,17.779,17.779,0,0,0-4.47,2.784.943.943,0,0,0-.079-.2.975.975,0,0,0-.171-.248,17.305,17.305,0,0,1,2.976-2.04,24.232,24.232,0,0,1,7.591-2.658,25.6,25.6,0,0,1,7.742-.368,3.756,3.756,0,0,1,.469.62" fill="#7a9136"/>
          <path id="Trazado_161492" data-name="Trazado 161492" d="M687.788,44.822c-.022-.075-.043-.151-.065-.226-.016-.054-.032-.108-.054-.162-.032-.1-.07-.2-.107-.3a4.9,4.9,0,0,0-.227-.523c-.1-.21-.2-.415-.323-.619a11.107,11.107,0,0,0-2.694-3.114,9.427,9.427,0,0,0-6.362-2.058,8.252,8.252,0,0,0-5.91,3.022c-1.207,1.514-1.848,3.486-3.324,4.736-1.3,1.1-5.49,2.6-5.415,4.692a1.551,1.551,0,0,0,.135.6,3.218,3.218,0,0,0,.862,1.115,5.262,5.262,0,0,0,2.931,1.1A13.975,13.975,0,0,0,674.524,52c1.816-.808,3.518-2.02,5.5-2.187a24,24,0,0,1,3.448.242,4.207,4.207,0,0,0,3.237-.916,4.382,4.382,0,0,0,1.078-4.315" fill="#a9b881"/>
          <path id="Trazado_161493" data-name="Trazado 161493" d="M687.336,43.615a8.49,8.49,0,0,0-2.23-.49,9.779,9.779,0,0,0-1.778.021,18.446,18.446,0,0,0-3.12.609q-.661.178-1.309.388a.27.27,0,0,0-.027,0c-.964.307-1.918.652-2.85,1.051a32.768,32.768,0,0,0-3.722,1.81c-.432.243-.857.5-1.272.765-.76.469-1.5.97-2.236,1.492a8.5,8.5,0,0,1-3.168,1.633,6.087,6.087,0,0,1-2.182-.027,1.549,1.549,0,0,1-.134-.6,5.624,5.624,0,0,0,3.922-.609c.652-.382,1.282-.781,1.907-1.191h.005c.717-.468,1.428-.942,2.15-1.4a.029.029,0,0,1,.022-.011,26.559,26.559,0,0,1,3.2-1.8c.474-.221.959-.436,1.449-.636.9-.382,1.832-.732,2.775-1.034a22.608,22.608,0,0,1,4.041-.927,10.268,10.268,0,0,1,4.229.323c.118.205.226.41.323.62" fill="#7a9136"/>
          <path id="Trazado_161494" data-name="Trazado 161494" d="M703.724,84.737h-13.4l.393-6.314h12.618Z" fill="#de8b5b"/>
          <path id="Trazado_161495" data-name="Trazado 161495" d="M288.871,80.006c-.572-2.072-1.943-3.763-3.092-5.539a16.964,16.964,0,0,0-4.089-4.587c-1.4-1.026-3.541-2.194-5.348-1.789-.007,0-.007,0-.013.006a3.057,3.057,0,0,0-.664.222c-3.258,1.58,2.472,7.912,3.714,9.16,1.783,1.789,3.381,3.627,5.035,5.521.731.836,2.693,2.736,3.965,2.14a1.034,1.034,0,0,0,.3-.216,1.5,1.5,0,0,0,.375-.614,8.764,8.764,0,0,0-.184-4.3" fill="#437546"/>
          <path id="Trazado_161496" data-name="Trazado 161496" d="M297.226,104.462c-1.426-3.929-3.117-7.759-4.8-11.589-1.181-2.68-2.386-5.361-3.751-7.949-.387-.75-.793-1.488-1.211-2.219a63.584,63.584,0,0,0-11.8-14.387,3,3,0,0,1,.664-.221A63.756,63.756,0,0,1,288,82.391q.545.95,1.051,1.918c1.562,2.939,2.915,5.988,4.249,9.031,1.58,3.622,3.166,7.243,4.518,10.962.136.369-.461.529-.6.16" fill="#1a451c"/>
          <path id="Trazado_161497" data-name="Trazado 161497" d="M291.725,56.786a36.918,36.918,0,0,0-2-5.711c-.135-.332-.277-.664-.418-1a43.181,43.181,0,0,0-2.73-5.564,17.986,17.986,0,0,0-4.8-5.41,7.707,7.707,0,0,0-2.576-1.279,4.629,4.629,0,0,0-1.7-.117,2.916,2.916,0,0,0-.615.154,1.988,1.988,0,0,0-.959.762,4.526,4.526,0,0,0-.289,3.308c.83,4.2,2.834,8.053,4.74,11.89s3.824,7.844,7.089,10.636a3.115,3.115,0,0,0,2.1.953,1.8,1.8,0,0,0,.615-.154,2.052,2.052,0,0,0,.529-.326,2.54,2.54,0,0,0,.418-.437,4.492,4.492,0,0,0,.731-1.709,13.2,13.2,0,0,0-.141-6" fill="#437546"/>
          <path id="Trazado_161498" data-name="Trazado 161498" d="M297.991,98.013c.043.393-.572.393-.615,0-.535-4.8-5.7-28.292-7.188-32.755-3.191-9.6-8.195-18.555-13.292-27.4a2.977,2.977,0,0,1,.615-.153c5.078,8.8,10.021,17.693,13.206,27.223,1.53,4.568,6.727,28.163,7.274,33.081" fill="#1a451c"/>
          <path id="Trazado_161499" data-name="Trazado 161499" d="M322.778,58.08a1.713,1.713,0,0,0-.424-1.051,1.46,1.46,0,0,0-.7-.394,2.83,2.83,0,0,0-.787-.043,4.846,4.846,0,0,0-.9.185c-4.457,1.321-7.875,5.262-9.972,9.265a15.342,15.342,0,0,0-1.887,7.445,3.128,3.128,0,0,0,.811,2.317,1.688,1.688,0,0,0,.3.2,1.261,1.261,0,0,0,.239.092A2.936,2.936,0,0,0,311.9,75.4a18.481,18.481,0,0,0,3.437-3.351,46.969,46.969,0,0,0,6.222-9.634,11.032,11.032,0,0,0,1.217-3.658,3.171,3.171,0,0,0,.006-.682" fill="#437546"/>
          <path id="Trazado_161500" data-name="Trazado 161500" d="M321.653,56.636a71.274,71.274,0,0,0-12.2,19.458c-1.629,3.861-4.95,22.043-5.879,26.156-.086.388-.682.222-.6-.166.941-4.156,4.281-22.375,5.935-26.279a72.147,72.147,0,0,1,11.951-19.212,2.829,2.829,0,0,1,.787.043" fill="#1a451c"/>
          <path id="Trazado_161501" data-name="Trazado 161501" d="M323.952,18.423a1.3,1.3,0,0,0-.2-.375c-.024-.031-.049-.061-.074-.092a1.239,1.239,0,0,0-.393-.3,2.415,2.415,0,0,0-1.715-.067,9.691,9.691,0,0,0-3.306,1.667,37.146,37.146,0,0,0-6.4,6.988c-2.028,2.668-4.621,7.414-5.02,10.888-.173,1.481-.412,3.05.978,3.85.092.049.178.1.27.141a3.055,3.055,0,0,0,.578.191c2.324.5,4.648-2.121,5.976-3.7a57.833,57.833,0,0,0,6.133-9c1.592-2.858,2.978-5.536,3.28-8.788a3.213,3.213,0,0,0-.105-1.4" fill="#437546"/>
          <path id="Trazado_161502" data-name="Trazado 161502" d="M303.577,30.651c-.123-.781-.277-1.562-.461-2.33a23.581,23.581,0,0,0-2.834-6.941c-1.267-2.047-3.08-3.972-5.441-4.427a3.606,3.606,0,0,0-1.869.093,1.426,1.426,0,0,0-.51.332.607.607,0,0,0-.123.135c-.609.818-.252,2.225.012,3.092a62.7,62.7,0,0,0,3.381,7.581c1.211,2.649,2.17,5.5,4.107,7.678a2.509,2.509,0,0,0,2.232,1.076,1.2,1.2,0,0,0,.338-.123,1.692,1.692,0,0,0,.51-.405,3.323,3.323,0,0,0,.646-1.322,10.9,10.9,0,0,0,.012-4.439" fill="#437546"/>
          <path id="Trazado_161503" data-name="Trazado 161503" d="M323.755,18.048a69.189,69.189,0,0,0-15.087,23.264,110.438,110.438,0,0,0-6.129,22.366c-2.062,12.628-2.648,26.464-3.176,34.483-.024.393-.639.393-.615,0,.166-2.511.416-8.37.909-14.518.6-7.52,1.486-15.492,1.959-18.533a116.148,116.148,0,0,1,3.867-16.765.286.286,0,0,1-.055-.166c-.025-2.926-1.107-5.718-2.023-8.466-.319-.965-.651-1.936-1-2.9-.553-1.574-1.137-3.136-1.764-4.679a61.359,61.359,0,0,0-8.183-14.761,1.444,1.444,0,0,1,.51-.332,61.976,61.976,0,0,1,8.066,14.429c.671,1.629,1.291,3.277,1.882,4.937q.6,1.7,1.162,3.393a34.225,34.225,0,0,1,1.881,7.071q.967-2.915,2.127-5.755a70.308,70.308,0,0,1,15.2-23.466,1.232,1.232,0,0,1,.393.3l.074.092" fill="#1a451c"/>
          <path id="Trazado_161504" data-name="Trazado 161504" d="M289.149,176.963l-.04,0a.308.308,0,0,1-.265-.345c.076-.589,7.623-58.954,7.683-59.716a.291.291,0,0,1,.319-.286.305.305,0,0,1,.295.3c0,.311-6.4,49.85-7.687,59.777a.308.308,0,0,1-.305.268" fill="#593121"/>
          <path id="Trazado_161505" data-name="Trazado 161505" d="M308.361,176.963a.307.307,0,0,1-.3-.268c-1.284-9.928-7.688-59.466-7.688-59.777a.308.308,0,0,1,.615-.015c.077.894,7.606,59.124,7.683,59.713a.308.308,0,0,1-.266.344.27.27,0,0,1-.04,0m-7.377-60.045h0Z" fill="#593121"/>
          <path id="Trazado_161506" data-name="Trazado 161506" d="M300.676,173.352a.308.308,0,0,1-.307-.3l-1.793-55.173a.307.307,0,0,1,.614-.02l1.793,55.174a.307.307,0,0,1-.3.317h-.01" fill="#593121"/>
          <path id="Trazado_161507" data-name="Trazado 161507" d="M313.745,99.808c0,7.814-2.127,16.968-12.966,17.97-.6.056-1.236.086-1.894.093h-.129q-1.061,0-2.028-.093c-9.856-.91-12.511-8.57-12.911-15.824-.012-.209-.019-.425-.025-.634-.024-.51-.03-1.014-.03-1.512a14.577,14.577,0,0,1,.147-2.084,1.146,1.146,0,0,1,1.131-.99h27.426a1.152,1.152,0,0,1,1.138.99c.03.227.055.455.073.688.031.271.05.541.062.818,0,.191.006.387.006.578" fill="#ede2db"/>
          <path id="Trazado_161508" data-name="Trazado 161508" d="M313.739,99.23c-.227.227-.449.455-.67.682-2.988,3.093-6.044,7.157-10.507,8.073a9.757,9.757,0,0,1-5.828-.726c-2.429-1.051-4.1-3.037-6.333-4.359a8.588,8.588,0,0,0-6.584-.946c-.012-.21-.018-.425-.025-.634a10.063,10.063,0,0,1,2.251-.227c5.379.049,8.047,5.287,13.089,6.289,5.889,1.162,9.9-4.18,13.507-7.906.344-.357.688-.713,1.038-1.064.031.271.05.541.062.818" fill="#fff"/>
          <path id="Trazado_161509" data-name="Trazado 161509" d="M48.446,132.216,46.6,141.661l-.143.753-.131.66-.125.623-2.229,11.4-.161.822-.492,2.5-.168.866-.822,4.215-.118.579L40.7,171.795a1.554,1.554,0,0,1-3.07-.467l.536-4.956.118-1.083,1.108-10.279.106-.99,1.37-12.689.068-.6L41.8,132.7Z" fill="#de8b5b"/>
          <path id="Trazado_161510" data-name="Trazado 161510" d="M46.6,141.661l-.143.753a24.474,24.474,0,0,1-5.585-1.083l.068-.6c.318.081.636.162.953.249a17.7,17.7,0,0,0,4.707.679" fill="#ba5e29"/>
          <path id="Trazado_161511" data-name="Trazado 161511" d="M42.762,145.8a6.868,6.868,0,0,0-.573,5.666,11.875,11.875,0,0,0,1.781,3.63l-.162.821a10.736,10.736,0,0,1-2.59-7.11,5.714,5.714,0,0,1,5.105-5.734l-.124.623a4.56,4.56,0,0,0-3.437,2.1" fill="#ba5e29"/>
          <path id="Trazado_161512" data-name="Trazado 161512" d="M43.316,158.422l-.168.865a21.93,21.93,0,0,1-3.754-4.277l.1-.99a24.051,24.051,0,0,0,1.955,2.534,22.938,22.938,0,0,0,1.862,1.868" fill="#ba5e29"/>
          <path id="Trazado_161513" data-name="Trazado 161513" d="M42.326,163.5l-.118.579a3.028,3.028,0,0,0-2.348.859,15.629,15.629,0,0,0-1.693,1.432l.118-1.083a7.368,7.368,0,0,1,2.659-1.687,2.515,2.515,0,0,1,1.382-.1" fill="#ba5e29"/>
          <path id="Trazado_161514" data-name="Trazado 161514" d="M92.857,132.216l-2.073,10.6-.3,1.532L87.3,160.582l-.2,1.04-.772,3.928-.124.66-1.1,5.585a1.554,1.554,0,0,1-3.07-.467l.523-4.869.075-.685.174-1.612.075-.7h.006l1.358-12.62.105-.959.324-3.019.075-.679L86.214,132.7l4.563-.33.567-.037Z" fill="#de8b5b"/>
          <path id="Trazado_161515" data-name="Trazado 161515" d="M86.332,165.55l-.125.66a7.726,7.726,0,0,1-1.786.149,13.071,13.071,0,0,0-1.856.1l.075-.685c.255-.025.5-.037.76-.043a15,15,0,0,0,2.932-.181" fill="#ba5e29"/>
          <path id="Trazado_161516" data-name="Trazado 161516" d="M87.3,160.582l-.2,1.04a15.249,15.249,0,0,1-4.24,2.521c-.019.007-.031.013-.05.019l.075-.7h.006a13.586,13.586,0,0,0,4.408-2.876" fill="#ba5e29"/>
          <path id="Trazado_161517" data-name="Trazado 161517" d="M92.539,128.518a15.1,15.1,0,0,0-1.195,3.81c-.916,4.757-.629,10.174-4.6,13.38a8.42,8.42,0,0,1-2.061,1.152l.074-.679c.162-.074.324-.155.486-.236,4.763-2.46,4.645-8.493,5.535-13.579A15.657,15.657,0,0,1,92,128.2c.174-.361.716-.043.535.318" fill="#ba5e29"/>
          <path id="Trazado_161518" data-name="Trazado 161518" d="M90.783,142.819l-.3,1.532a28.99,28.99,0,0,1-2.633,3.007c-1.171,1.176-2.36,2.359-3.6,3.48l.106-.959c.915-.846,1.812-1.724,2.7-2.6a24.661,24.661,0,0,0,3.729-4.458" fill="#ba5e29"/>
          <path id="Trazado_161519" data-name="Trazado 161519" d="M101.988,132.694l4.172,38.635a1.553,1.553,0,0,1-3.069.465l-7.744-39.58Z" fill="#ba5e29"/>
          <path id="Trazado_161520" data-name="Trazado 161520" d="M145.264,132.693l4.172,38.635a1.553,1.553,0,0,1-3.069.465l-7.745-39.579Z" fill="#ba5e29"/>
          <path id="Trazado_161521" data-name="Trazado 161521" d="M146.052,135.728c-1.208.019-38.184.037-56.514.069q-3.372.009-6.842.037c-.212,0-.424.006-.635.006-.411.006-.828.006-1.246.013-.211-.007-.423,0-.635,0-13.286.1-27.332.211-39.971-1.146a3.553,3.553,0,0,1-1.793-.529,3.594,3.594,0,0,1-1.077-2.167c-2.6-11.282-3.381-23.7-4.67-35.289-1.357-12.253-5.074-45.805-4.981-50.792.075-3.917-1.463-9.545,1.445-12.839,1.93-2.185,6.288-1.967,8.965-2.16,9.545-.685,19.152-.772,28.715-.828,7.689-.05,15.428-.187,23.1.268,2.789.162,10.534-.343,12.6,2.478a1.687,1.687,0,0,1,.15.218c.074.124.149.267.224.423,2.895,6.021,6,34.038,6,34.038s11.207-.467,19.145-.312c6.027.119,13.261.648,17.2,5.9,3.25,4.32,2.229,9.083,2.559,14.046q.963,14.391,1.382,28.808c.125,4.015.225,8.037.212,12.053-.019,3.007.81,7.633-3.337,7.708" fill="#ffc799"/>
          <path id="Trazado_161522" data-name="Trazado 161522" d="M102.887,33.49c-9.476-.367-29.362-1.058-38.141-.76-1.675.057-3.356.106-5.03.156-2.721.081-5.529.162-8.287.28-.959.038-1.912.069-2.871.094-1.6.043-3.25.087-4.868.2l-.642.043a23.839,23.839,0,0,0-6.338.99c-2.123.785-2.534,2.192-2.571,4.695-.062,3.686,1.731,19.842,1.749,20l-.622.069c-.075-.667-1.818-16.356-1.75-20.086.031-2.21.287-4.277,2.983-5.267a24.37,24.37,0,0,1,6.512-1.027l.635-.044c1.631-.112,3.294-.155,4.894-.2.952-.025,1.9-.056,2.864-.093,2.764-.119,5.572-.2,8.293-.28q2.513-.075,5.03-.156c8.673-.3,28.155.373,37.786.741a1.687,1.687,0,0,1,.15.218c.075.124.149.267.224.423" fill="#e8a270"/>
          <path id="Trazado_161523" data-name="Trazado 161523" d="M87.331,120.371s-.32,7.66.774,8.205,20.395.278,20.395.278S94.739,117.8,94.148,117.8s-6.817,2.568-6.817,2.568" fill="#e8a270"/>
          <path id="Trazado_161524" data-name="Trazado 161524" d="M144.326,112.83c-.007-.241-.645-24.232-1.271-31.37-.751-8.562-6.641-9.8-9.806-10.469-.222-.048-.428-.091-.616-.134-2.732-.623-21.063-.237-21.248-.233L111.372,70c.759-.016,18.592-.393,21.4.249.185.042.389.084.606.13,3.086.65,9.507,2,10.3,11.024.628,7.158,1.266,31.168,1.273,31.408Z" fill="#e8a270"/>
          <path id="Trazado_161525" data-name="Trazado 161525" d="M87.157,103.992a150.373,150.373,0,0,0-1.848-20.084c-.88-5.12-2.836-10.085-7.694-12.735C72,68.11,64.893,68.327,58.67,68.165c-7.126-.186-14.254-.087-21.373.249a39.508,39.508,0,0,1,.379-4.94c.054-.384-.545-.549-.6-.162a38.14,38.14,0,0,0-.37,5.13c-.9.044-1.793.076-2.689.128-.4.023-.4.633,0,.61.9-.052,1.793-.09,2.69-.135a42.184,42.184,0,0,0,2.277,12.987,40.364,40.364,0,0,1,1.221,4.162,35.072,35.072,0,0,0,1.2,5.059,28.6,28.6,0,0,0,4.564,7.184,68.176,68.176,0,0,0,25.865,20.6,56.356,56.356,0,0,0,7.781,2.769c1.778.486,7.8,8.541,7.894,7.724.211-1.742-.332-12.943-.291-14.7q.129-5.419-.063-10.841" fill="#ffc799"/>
          <path id="Trazado_161526" data-name="Trazado 161526" d="M82.7,135.833c-.212,0-.423.007-.635.007-.293-16.276-1.413-49.865-5.747-57.175-5.678-9.582-28.434-5.739-28.664-5.7l-.106-.61c.952-.168,23.41-3.953,29.306,6,4.47,7.54,5.572,41.155,5.846,57.485" fill="#e8a270"/>
          <path id="Trazado_161527" data-name="Trazado 161527" d="M133.887,126.484V108.708s-6.132-3.667-20.39-3.162a144.785,144.785,0,0,1-26.34-1.554" fill="none" stroke="#e8a270" stroke-miterlimit="10" stroke-width="1"/>
          <path id="Trazado_161528" data-name="Trazado 161528" d="M95.347,41.175s3.066,51.236,5.266,53.206" fill="none" stroke="#e8a270" stroke-miterlimit="10" stroke-width="1"/>
          <path id="Trazado_161529" data-name="Trazado 161529" d="M112.424,104.362c-.162-1.281-1.764-1.31-2.575-.686a6.124,6.124,0,0,0-1.351,2.034,41.908,41.908,0,0,1-2.488,4.006,42.907,42.907,0,0,1-5.521,6.38.29.29,0,0,0-.042.059l.072-.6a.311.311,0,0,0-.616-.088q-.392,3.243-.782,6.487c-.258,2.137-.7,4.337-.783,6.487-.023.622-.012,1.585.7,1.853.978.37,1.824-1.086,2.266-1.694a55.667,55.667,0,0,0,5.758-11.177c.941-2.214,1.522-4.557,2.4-6.795a19.957,19.957,0,0,1,1.584-3.212c.52-.844,1.516-2,1.383-3.053" fill="#242630"/>
          <path id="Trazado_161530" data-name="Trazado 161530" d="M121.254,112.808a40.738,40.738,0,0,0-7.321,1.946c-.373.138-.211.74.166.6a40.7,40.7,0,0,1,7.321-1.947c.394-.066.227-.666-.166-.6" fill="#fff"/>
          <path id="Trazado_161531" data-name="Trazado 161531" d="M119.729,117.433a47.536,47.536,0,0,0-5.935-1.051c-.4-.045-.394.578,0,.622a46.216,46.216,0,0,1,5.769,1.029c.39.1.556-.5.166-.6" fill="#fff"/>
          <path id="Trazado_161532" data-name="Trazado 161532" d="M100.414,113.361a23.083,23.083,0,0,0-5.222-.371c-.4.017-.4.64,0,.623a22.33,22.33,0,0,1,5.057.348c.391.073.559-.527.165-.6" fill="#fff"/>
          <path id="Trazado_161533" data-name="Trazado 161533" d="M100.323,115.4a35.974,35.974,0,0,0-6.853,1.307.311.311,0,0,0,.165.6,35.069,35.069,0,0,1,6.688-1.284c.4-.037.4-.66,0-.623" fill="#fff"/>
          <path id="Trazado_161534" data-name="Trazado 161534" d="M114.418,122.36C116.087,137.726,103.946,155,91.455,161.3c-.142,1.058-.124,3.648-1.574,4.128-1.47.485-3.438,1.208-4.987.672a4.563,4.563,0,0,1-2.266-2.278c-.741.049-1.488.093-2.23.118q-1.233.047-2.465.056a3.566,3.566,0,0,0-.971,1.494,7.1,7.1,0,0,1-.928,1.974,2.107,2.107,0,0,1-2.485.647,23.827,23.827,0,0,0-1-4.121,6.886,6.886,0,0,0-.511-1.283,17.5,17.5,0,0,1-1.73-4.545,16.67,16.67,0,0,1-.039-5.89c.7-4.588,4.165-7.452,7.7-10.049,4.724-3.468,9.426-6.973,13.373-11.344a54.361,54.361,0,0,0,5.822-7.795,6.274,6.274,0,0,0,.646-1.257,37.026,37.026,0,0,0,.953-5.653c.343-2.012.7-4.022,1.078-6.034.13-.728.173-2.864,1.257-2.845.99.013,1.607,2.1,1.9,3.119a20.843,20.843,0,0,1,8.374.007c.354-1.258,1.544-3.443,2.571-2.273.567.654.679,2.534.784,3.35.012.112.019.224.037.336,1.4,3.487.934,7.116-.354,10.522" fill="#464752"/>
          <path id="Trazado_161535" data-name="Trazado 161535" d="M126.782,111.427v-.006a1.232,1.232,0,0,0-.666-.473,1.851,1.851,0,0,0-.81-.088,1.928,1.928,0,0,0-.8.243,6.185,6.185,0,0,0-1.594,1.849,41.635,41.635,0,0,1-2.976,3.661,42.445,42.445,0,0,1-6.282,5.629c-.018.018-.031.037-.05.056.05-.193.1-.393.15-.586.1-.392-.5-.554-.6-.168q-.8,3.167-1.594,6.338c-.529,2.086-1.245,4.215-1.6,6.339-.1.61-.211,1.569.461,1.923.921.492,1.949-.846,2.459-1.394A55.78,55.78,0,0,0,120,124.39c1.214-2.08,2.086-4.334,3.237-6.438a19.563,19.563,0,0,1,1.974-2.989c.623-.772,1.762-1.786,1.762-2.851v-.062a1.206,1.206,0,0,0-.193-.623" fill="#464752"/>
          <path id="Trazado_161536" data-name="Trazado 161536" d="M94.345,151.679a3.66,3.66,0,0,1-.741.965.325.325,0,0,0-.6.15c-.012.112-.018.224-.031.336-1.643.99-3.978.79-5.84,1.12-2.036.361-5.7.6-6.724,2.4-2.553,4.464,1.532,11.375,3.287,15.752a71.648,71.648,0,0,0,3.45,7.209,20.812,20.812,0,0,0,1.176,2.167,2.742,2.742,0,0,0,3.848.778,1.016,1.016,0,0,0,.442-.766,1.934,1.934,0,0,0-.461-1.22,4.621,4.621,0,0,0-1.681-1.4c-1.276-2.527-2.148-6.051-1.207-8.828.965-2.839,2.384-5.4,3.075-8.355a62.456,62.456,0,0,0,1.227-8.53A4.207,4.207,0,0,0,94.887,152c.186-.355-.349-.673-.542-.318" fill="#464752"/>
          <path id="Trazado_161537" data-name="Trazado 161537" d="M83.791,151.2a4.274,4.274,0,0,1-1.32,1.476,62.731,62.731,0,0,1-1.226,8.529,22.216,22.216,0,0,1-.847,2.74c-.542,1.432-1.165,2.814-1.725,4.246-.18.448-.349.9-.5,1.37-1.183,3.48.037,6.1,1.681,9.139.554,1.028,1.089,2.952-.492,3.425-1.712.51-2.733-2.242-3.306-3.306a61.743,61.743,0,0,1-2.646-6.195,15.969,15.969,0,0,1-.616-3.979,16.261,16.261,0,0,0-.056-3.474,15.533,15.533,0,0,0-.692-2.459c-.2-.548-.423-1.083-.666-1.606a4.211,4.211,0,0,1-.367-2c0-.118,0-.249.006-.374a4.579,4.579,0,0,1,.33-1.961,6.614,6.614,0,0,1,4.695-3.306c1.867-.33,4.2-.131,5.84-1.121.012-.118.024-.23.031-.342a.325.325,0,0,1,.6-.143,3.8,3.8,0,0,0,.748-.965c.186-.355.728-.038.535.311" fill="#464752"/>
          <path id="Trazado_161538" data-name="Trazado 161538" d="M82.308,144.678a6.374,6.374,0,0,1-9.236,1c-2.238-1.972-3.389-5.577-4.254-8.322-1.845-5.849-2.024-12.109-4.462-17.788a28.759,28.759,0,0,0-9.609-12.142,16.4,16.4,0,0,0-7.134-2.969c-1.726-.234-4.06-.287-5.21,1.293-1.4,1.93.09,4.769,1.087,6.536a18.562,18.562,0,0,0,3.029,3.968,21.8,21.8,0,0,0,.863,3.207,9.269,9.269,0,0,0,4.858,5.967,5.217,5.217,0,0,1,2.226,1.689,6.011,6.011,0,0,1,.488,3.163,9.607,9.607,0,0,0,.814,4c1.236,2.7,3.538,4.621,5.891,6.351a7.343,7.343,0,0,0,1.616,3.965c.9,1.055,2.3,1.327,3.2,2.317s.645,2.381,1.333,3.485c1.065,1.709,4.51,1.576,6.1.793a2.5,2.5,0,0,0,1.16-3.753,6.92,6.92,0,0,0,7.682-2.321c.248-.31-.19-.753-.44-.44" fill="#464752"/>
          <path id="Trazado_161539" data-name="Trazado 161539" d="M80.082,162.9a4.858,4.858,0,0,1-1.425-3.213,1.622,1.622,0,0,0-.37-1.152,18.694,18.694,0,0,1-3-5.991.311.311,0,0,0-.6.165,19.4,19.4,0,0,0,2.8,5.82c.711,1.1.449.819.516,1.779a3.283,3.283,0,0,0,.23.956,7.567,7.567,0,0,0,1.407,2.076c.26.306.7-.136.44-.44" fill="#242630"/>
          <path id="Trazado_161540" data-name="Trazado 161540" d="M80.024,179.057c-.056-.127-.114-.248-.173-.358-1.644-3.044-2.864-5.659-1.681-9.139.155-.467.323-.922.5-1.37-.324-.61-.672-1.2-1.052-1.775-.212-.317-.43-.622-.66-.921-1.625-2.1-3.711-3.754-5.448-5.778-.174-.2-.342-.4-.5-.616-.243-.305-.48-.617-.7-.934a17.532,17.532,0,0,0,1.731,4.545,15.424,15.424,0,0,1,.691,2.459,16.132,16.132,0,0,1,.056,3.474,16.016,16.016,0,0,0,.617,3.979,61.743,61.743,0,0,0,2.646,6.195,18.085,18.085,0,0,0,1.244,2.264c.815,1.107,3.557,1.834,4.08.015a1.782,1.782,0,0,0-1.353-2.04" fill="#242630"/>
          <path id="Trazado_161541" data-name="Trazado 161541" d="M57.147,119.808a18.7,18.7,0,0,1-10.478-7.039c-.235-.318-.776-.009-.538.314a19.364,19.364,0,0,0,10.85,7.326.312.312,0,0,0,.166-.6" fill="#242630"/>
          <path id="Trazado_161542" data-name="Trazado 161542" d="M56.834,120.975c-1.859-.814-4.033-1.1-5.546-2.548-.289-.277-.73.163-.44.44,1.574,1.506,3.743,1.8,5.672,2.646.363.159.681-.377.314-.538" fill="#242630"/>
          <path id="Trazado_161543" data-name="Trazado 161543" d="M62.129,133.512A16.062,16.062,0,0,1,58,131.019c-.306-.254-.749.183-.44.441a17.121,17.121,0,0,0,4.4,2.653c.369.154.53-.449.165-.6" fill="#242630"/>
          <path id="Trazado_161544" data-name="Trazado 161544" d="M91.45,152a.311.311,0,0,0-.6.165,26.513,26.513,0,0,1,.954,7.51c-.022.4.6.4.623,0A22.336,22.336,0,0,0,91.45,152" fill="#242630"/>
          <path id="Trazado_161545" data-name="Trazado 161545" d="M113.563,121.539a28.931,28.931,0,0,0-6.734,5.413c-.271.294.168.735.44.44a28.385,28.385,0,0,1,6.608-5.315.312.312,0,0,0-.314-.538" fill="#242630"/>
          <path id="Trazado_161546" data-name="Trazado 161546" d="M126.116,110.948a9.259,9.259,0,0,0-1.351,1.557c-.23.329-.766.018-.542-.312a10.728,10.728,0,0,1,1.084-1.332,1.861,1.861,0,0,1,.809.087" fill="#242630"/>
          <path id="Trazado_161547" data-name="Trazado 161547" d="M126.975,112.05c-.529.367-1.052.735-1.575,1.108-.33.231-.641-.311-.318-.535.567-.4,1.133-.8,1.7-1.2a1.206,1.206,0,0,1,.193.623" fill="#242630"/>
          <path id="Trazado_161548" data-name="Trazado 161548" d="M92.614,181.794c-.037-.056-.068-.112-.106-.162a1.633,1.633,0,0,0-1.675-.573c-.4.031-.392-.591,0-.622a3.062,3.062,0,0,1,1.32.137,1.932,1.932,0,0,1,.461,1.22" fill="#242630"/>
          <path id="Trazado_161549" data-name="Trazado 161549" d="M111.62,132.434a19.989,19.989,0,0,1-.537,3.576c-.094.389.506.555.6.165a20.91,20.91,0,0,0,.559-3.741c.023-.4-.6-.4-.623,0" fill="#242630"/>
          <path id="Trazado_161550" data-name="Trazado 161550" d="M110.91,135.08c-.018-.4-.64-.4-.623,0A9.118,9.118,0,0,1,110,137.8a.311.311,0,0,0,.6.166,9.7,9.7,0,0,0,.305-2.889" fill="#242630"/>
          <rect id="Rectángulo_42667" data-name="Rectángulo 42667" width="0.548" height="17.052" transform="translate(402.412 30.616) rotate(-19.196)" fill="#464752"/>
          <path id="Trazado_161551" data-name="Trazado 161551" d="M388.024,46.452h14.755l1.378-20.823H389.4Z" fill="#ede2db"/>
          <path id="Trazado_161552" data-name="Trazado 161552" d="M391.473,42.432h7.878l.846-12.783h-7.878Z" fill="#fff"/>
          <path id="Trazado_161553" data-name="Trazado 161553" d="M429.7,35.6a7.282,7.282,0,1,0,10.9,0Z" fill="#e66b3e"/>
          <path id="Trazado_161554" data-name="Trazado 161554" d="M444.794,47.733a9.427,9.427,0,0,1-.745-1.255h-6.8a7.058,7.058,0,0,1,1.4,3.287h6.3a5.681,5.681,0,0,0,1.736-.268,9.71,9.71,0,0,1-1.895-1.764M432.725,18.489a3.749,3.749,0,0,0-.592-.942,4.373,4.373,0,0,0-1.046-.871c-.121-.071-.247-.132-.373-.192a2.7,2.7,0,0,0-.378-.142,2.358,2.358,0,0,0-.394-.1c-.115-.022-.236-.044-.351-.055a1.72,1.72,0,0,0-.241-.017,3.5,3.5,0,0,0-.542.006c-.115.011-.225.022-.34.038a5.318,5.318,0,0,0-1.024.258q-.338.123-.674.279c-.219.1-.439.225-.658.351a9.666,9.666,0,0,0-.942.652c-.2.153-.4.323-.592.5-.093.088-.186.175-.279.269s-.181.18-.268.273h8.82c-.039-.1-.082-.2-.126-.3M409.157,15.5c-.23.1-.455.2-.674.3s-.444.2-.658.318c-.164.076-.328.164-.487.257-.093.049-.181.1-.269.148q-.254.149-.509.312a9.15,9.15,0,0,0-1.058.784c-.12.1-.235.208-.35.317a.133.133,0,0,0-.027.022c-.121.115-.236.236-.346.356a5.706,5.706,0,0,0-.4.471h12.447a.133.133,0,0,0,.022-.027c.175-.235.35-.466.537-.7.23-.29.471-.575.717-.854.225-.247.45-.493.685-.729.219-.225.449-.444.68-.663.115-.109.23-.219.35-.318Zm-31.37,12.272c-.328.088-.646.186-.958.3-.148.05-.291.1-.433.159a.165.165,0,0,0-.044.022c-.143.06-.285.121-.427.186v3.5a19.656,19.656,0,0,1,3.287-1.627V27.435c-.477.11-.954.22-1.425.34m67.007,19.958a9.427,9.427,0,0,1-.745-1.255h-6.8a7.058,7.058,0,0,1,1.4,3.287h6.3a5.681,5.681,0,0,0,1.736-.268,9.71,9.71,0,0,1-1.895-1.764M432.725,18.489a3.749,3.749,0,0,0-.592-.942,4.373,4.373,0,0,0-1.046-.871c-.121-.071-.247-.132-.373-.192a2.7,2.7,0,0,0-.378-.142,2.358,2.358,0,0,0-.394-.1c-.115-.022-.236-.044-.351-.055a1.72,1.72,0,0,0-.241-.017,3.5,3.5,0,0,0-.542.006c-.115.011-.225.022-.34.038a5.318,5.318,0,0,0-1.024.258q-.338.123-.674.279c-.219.1-.439.225-.658.351a9.666,9.666,0,0,0-.942.652c-.2.153-.4.323-.592.5-.093.088-.186.175-.279.269s-.181.18-.268.273h8.82c-.039-.1-.082-.2-.126-.3m-54.938,9.286c-.328.088-.646.186-.958.3-.148.05-.291.1-.433.159a.165.165,0,0,0-.044.022c-.143.06-.285.121-.427.186v3.5a19.656,19.656,0,0,1,3.287-1.627V27.435c-.477.11-.954.22-1.425.34m54.938-9.286a3.749,3.749,0,0,0-.592-.942,4.373,4.373,0,0,0-1.046-.871c-.121-.071-.247-.132-.373-.192a2.7,2.7,0,0,0-.378-.142,2.358,2.358,0,0,0-.394-.1c-.115-.022-.236-.044-.351-.055a1.72,1.72,0,0,0-.241-.017,3.5,3.5,0,0,0-.542.006c-.115.011-.225.022-.34.038a5.318,5.318,0,0,0-1.024.258q-.338.123-.674.279c-.219.1-.439.225-.658.351a9.666,9.666,0,0,0-.942.652c-.2.153-.4.323-.592.5-.093.088-.186.175-.279.269s-.181.18-.268.273h8.82c-.039-.1-.082-.2-.126-.3m0,0a3.749,3.749,0,0,0-.592-.942,4.373,4.373,0,0,0-1.046-.871c-.121-.071-.247-.132-.373-.192a2.7,2.7,0,0,0-.378-.142,2.358,2.358,0,0,0-.394-.1c-.115-.022-.236-.044-.351-.055a1.72,1.72,0,0,0-.241-.017,3.5,3.5,0,0,0-.542.006c-.115.011-.225.022-.34.038a5.318,5.318,0,0,0-1.024.258q-.338.123-.674.279c-.219.1-.439.225-.658.351a9.666,9.666,0,0,0-.942.652c-.2.153-.4.323-.592.5-.093.088-.186.175-.279.269s-.181.18-.268.273h8.82c-.039-.1-.082-.2-.126-.3m0,0a3.749,3.749,0,0,0-.592-.942,4.373,4.373,0,0,0-1.046-.871c-.121-.071-.247-.132-.373-.192a2.7,2.7,0,0,0-.378-.142,2.358,2.358,0,0,0-.394-.1c-.115-.022-.236-.044-.351-.055a1.72,1.72,0,0,0-.241-.017,3.5,3.5,0,0,0-.542.006c-.115.011-.225.022-.34.038a5.318,5.318,0,0,0-1.024.258q-.338.123-.674.279c-.219.1-.439.225-.658.351a9.666,9.666,0,0,0-.942.652c-.2.153-.4.323-.592.5-.093.088-.186.175-.279.269s-.181.18-.268.273h8.82c-.039-.1-.082-.2-.126-.3m0,0a3.749,3.749,0,0,0-.592-.942,4.373,4.373,0,0,0-1.046-.871c-.121-.071-.247-.132-.373-.192a2.7,2.7,0,0,0-.378-.142,2.358,2.358,0,0,0-.394-.1c-.115-.022-.236-.044-.351-.055a1.72,1.72,0,0,0-.241-.017,3.5,3.5,0,0,0-.542.006c-.115.011-.225.022-.34.038a5.318,5.318,0,0,0-1.024.258q-.338.123-.674.279c-.219.1-.439.225-.658.351a9.666,9.666,0,0,0-.942.652c-.2.153-.4.323-.592.5-.093.088-.186.175-.279.269s-.181.18-.268.273h8.82c-.039-.1-.082-.2-.126-.3m0,0a3.749,3.749,0,0,0-.592-.942,4.373,4.373,0,0,0-1.046-.871c-.121-.071-.247-.132-.373-.192a2.7,2.7,0,0,0-.378-.142,2.358,2.358,0,0,0-.394-.1c-.115-.022-.236-.044-.351-.055a1.72,1.72,0,0,0-.241-.017,3.5,3.5,0,0,0-.542.006c-.115.011-.225.022-.34.038a5.318,5.318,0,0,0-1.024.258q-.338.123-.674.279c-.219.1-.439.225-.658.351a9.666,9.666,0,0,0-.942.652c-.2.153-.4.323-.592.5-.093.088-.186.175-.279.269s-.181.18-.268.273h8.82c-.039-.1-.082-.2-.126-.3m0,0a3.749,3.749,0,0,0-.592-.942,4.373,4.373,0,0,0-1.046-.871c-.121-.071-.247-.132-.373-.192a2.7,2.7,0,0,0-.378-.142,2.358,2.358,0,0,0-.394-.1c-.115-.022-.236-.044-.351-.055a1.72,1.72,0,0,0-.241-.017,3.5,3.5,0,0,0-.542.006c-.115.011-.225.022-.34.038a5.318,5.318,0,0,0-1.024.258q-.338.123-.674.279c-.219.1-.439.225-.658.351a9.666,9.666,0,0,0-.942.652c-.2.153-.4.323-.592.5-.093.088-.186.175-.279.269s-.181.18-.268.273h8.82c-.039-.1-.082-.2-.126-.3m12.069,29.244a9.427,9.427,0,0,1-.745-1.255h-6.8a7.058,7.058,0,0,1,1.4,3.287h6.3a5.681,5.681,0,0,0,1.736-.268,9.71,9.71,0,0,1-1.895-1.764M377.787,27.775c-.328.088-.646.186-.958.3-.148.05-.291.1-.433.159a.165.165,0,0,0-.044.022c-.143.06-.285.121-.427.186v3.5a19.656,19.656,0,0,1,3.287-1.627V27.435c-.477.11-.954.22-1.425.34M409.157,15.5c-.23.1-.455.2-.674.3s-.444.2-.658.318c-.164.076-.328.164-.487.257-.093.049-.181.1-.269.148q-.254.149-.509.312a9.15,9.15,0,0,0-1.058.784c-.12.1-.235.208-.35.317a.133.133,0,0,0-.027.022c-.121.115-.236.236-.346.356a5.706,5.706,0,0,0-.4.471h12.447a.133.133,0,0,0,.022-.027c.175-.235.356-.466.537-.7.23-.29.471-.575.717-.854.225-.247.45-.493.685-.729.219-.225.449-.444.68-.663.115-.109.23-.219.35-.318Zm23.568,2.986a3.749,3.749,0,0,0-.592-.942,4.373,4.373,0,0,0-1.046-.871c-.121-.071-.247-.132-.373-.192a2.7,2.7,0,0,0-.378-.142,2.358,2.358,0,0,0-.394-.1c-.115-.022-.236-.044-.351-.055a1.72,1.72,0,0,0-.241-.017,3.5,3.5,0,0,0-.542.006c-.115.011-.225.022-.34.038a5.318,5.318,0,0,0-1.024.258q-.338.123-.674.279c-.219.1-.439.225-.658.351a9.666,9.666,0,0,0-.942.652c-.2.153-.4.323-.592.5-.093.088-.186.175-.279.269s-.181.18-.268.273h8.82c-.039-.1-.082-.2-.126-.3m12.069,29.244a9.427,9.427,0,0,1-.745-1.255h-6.8a7.058,7.058,0,0,1,1.4,3.287h6.3a5.681,5.681,0,0,0,1.736-.268,9.71,9.71,0,0,1-1.895-1.764m2.728-31.616a5.121,5.121,0,0,0-.493-.225,5.663,5.663,0,0,0-2.076-.389H381.644a5.731,5.731,0,0,0-5.7,5.2,5.154,5.154,0,0,0-.022.515V44.046a5.733,5.733,0,0,0,3.057,5.062,6.147,6.147,0,0,0,.586.268,5.7,5.7,0,0,0,2.076.389h63.309a5.681,5.681,0,0,0,1.736-.268,5.021,5.021,0,0,0,.5-.186,5.735,5.735,0,0,0,3.369-4.131c.033-.164.06-.329.082-.5a6.052,6.052,0,0,0,.033-.635V21.223a5.713,5.713,0,0,0-3.15-5.106m-.137,27.929c0,.071-.005.137-.011.2a2.432,2.432,0,0,1-2.421,2.229H381.644a2.433,2.433,0,0,1-2.432-2.432V21.223a2.434,2.434,0,0,1,2.432-2.433h63.341a2.4,2.4,0,0,1,.6.088,2.43,2.43,0,0,1,1.8,2.345Z" fill="#ffe1d4"/>
          <path id="Trazado_161555" data-name="Trazado 161555" d="M379.211,30.312v.581c-.241.1-.466.208-.668.3a29.351,29.351,0,0,0-2.619,1.392v-.647a19.693,19.693,0,0,1,3.287-1.627" fill="#e8b49c"/>
          <path id="Trazado_161556" data-name="Trazado 161556" d="M379.211,36.41v.6c-.641.476-1.287.947-1.9,1.424-.466.362-.931.729-1.386,1.1v-.646c1.09-.833,2.208-1.638,3.287-2.482" fill="#e8b49c"/>
          <path id="Trazado_161557" data-name="Trazado 161557" d="M379.211,26.8v.636c-.477.109-.953.219-1.424.339-.329.088-.647.186-.959.3-.148.05-.29.1-.433.159a.2.2,0,0,0-.044.022c-.142.055-.285.121-.427.186V27.77a22.966,22.966,0,0,1,3.287-.97" fill="#e8b49c"/>
          <path id="Trazado_161558" data-name="Trazado 161558" d="M393.2,15.5c-.63,1.112-1.282,2.219-1.989,3.287h-.673c.717-1.079,1.375-2.186,2.016-3.287Z" fill="#e8b49c"/>
          <path id="Trazado_161559" data-name="Trazado 161559" d="M393.083,46.479a13.457,13.457,0,0,1-1.917.871c-3.43,1.227-7.215-.011-10.568,1.49a9.653,9.653,0,0,0-1.03.537,6.405,6.405,0,0,1-.586-.268c2.383-1.523,4.98-1.606,7.823-1.644a12.754,12.754,0,0,0,4.81-.986Z" fill="#e8b49c"/>
          <path id="Trazado_161560" data-name="Trazado 161560" d="M394.962,46.479h1.057a15.16,15.16,0,0,0-3.517,2.756c-.17.169-.339.35-.509.531h-.751c.389-.438.795-.849,1.189-1.233a17.184,17.184,0,0,1,2.531-2.054" fill="#e8b49c"/>
          <path id="Trazado_161561" data-name="Trazado 161561" d="M403.191,49.766h-.548a6.092,6.092,0,0,0-1.7-3.287h.767a7.476,7.476,0,0,1,1.485,3.287" fill="#e8b49c"/>
          <path id="Trazado_161562" data-name="Trazado 161562" d="M418.437,46.479a10.188,10.188,0,0,1-1.5,1.063,7.789,7.789,0,0,1-3.479.789,6.809,6.809,0,0,0-4.1,1.435h-.811a7.415,7.415,0,0,1,4.679-1.972,7.613,7.613,0,0,0,4.229-1.315Z" fill="#e8b49c"/>
          <path id="Trazado_161563" data-name="Trazado 161563" d="M401.049,15.5c-.657,1.057-1.277,2.153-1.841,3.287h-.624c.493-1,1.024-1.978,1.594-2.92.077-.12.148-.246.225-.367Z" fill="#e8b49c"/>
          <path id="Trazado_161564" data-name="Trazado 161564" d="M420.634,15.5A22.685,22.685,0,0,0,418,18.161c-.17.208-.334.416-.5.63h-.685a.106.106,0,0,0,.022-.027c.175-.236.356-.466.537-.7.23-.29.471-.575.717-.855.225-.246.45-.493.685-.728.219-.225.449-.444.68-.663.115-.1.23-.214.35-.318Z" fill="#e8b49c"/>
          <path id="Trazado_161565" data-name="Trazado 161565" d="M433.437,18.791h-.586c-.039-.1-.082-.2-.126-.3a3.754,3.754,0,0,0-.592-.943,4.373,4.373,0,0,0-1.046-.871,3.365,3.365,0,0,0-.373-.191,2.838,2.838,0,0,0-.378-.143,2.459,2.459,0,0,0-.394-.1c-.115-.022-.236-.044-.351-.055a1.722,1.722,0,0,0-.241-.016,3.632,3.632,0,0,0-.542.005,2.459,2.459,0,0,0-.34.039,5.388,5.388,0,0,0-1.024.257,5.759,5.759,0,0,0-.674.28,6.39,6.39,0,0,0-.658.35,8.293,8.293,0,0,0-.942.652c-.2.153-.4.323-.592.5-.093.082-.186.169-.279.268a3.148,3.148,0,0,0-.268.274h-.778a8.338,8.338,0,0,1,5.714-3.2,4.744,4.744,0,0,1,3.8,1.862,6.064,6.064,0,0,1,.674,1.337" fill="#e8b49c"/>
          <path id="Trazado_161566" data-name="Trazado 161566" d="M441.918,15.5c-.483.718-.953,1.441-1.419,2.164-.237.367-.472.745-.707,1.123h-.586c.662-1.024,1.271-2.1,1.918-3.068.048-.071.1-.148.147-.219Z" fill="#e8b49c"/>
          <path id="Trazado_161567" data-name="Trazado 161567" d="M424.874,46.479c-.066.11-.131.225-.2.334a24.8,24.8,0,0,0-1.485,2.953h-.663a26.5,26.5,0,0,1,1.66-3.287Z" fill="#e8b49c"/>
          <path id="Trazado_161568" data-name="Trazado 161568" d="M447.522,16.117c-.438.587-.86,1.179-1.26,1.753-.23.334-.46.668-.679,1.008a2.446,2.446,0,0,0-.6-.088c.646-.991,1.32-1.961,2.043-2.9a5.114,5.114,0,0,1,.493.224" fill="#e8b49c"/>
          <path id="Trazado_161569" data-name="Trazado 161569" d="M432.889,46.479h1.238a10.272,10.272,0,0,0-2.827,2.186,13.366,13.366,0,0,0-.991,1.1h-.7c.006,0,.011-.016.017-.022a16.486,16.486,0,0,1,3.265-3.265" fill="#e8b49c"/>
          <path id="Trazado_161570" data-name="Trazado 161570" d="M438.652,49.766h-.564a5.3,5.3,0,0,0-1.5-3.134,2.012,2.012,0,0,0-.241-.153h.9a7.058,7.058,0,0,1,1.4,3.287" fill="#e8b49c"/>
          <path id="Trazado_161571" data-name="Trazado 161571" d="M447.188,49.311a5.1,5.1,0,0,1-.5.186,9.686,9.686,0,0,1-1.9-1.764,9.59,9.59,0,0,1-.745-1.254h.581a9.355,9.355,0,0,0,1.128,1.594,10.729,10.729,0,0,0,1.43,1.238" fill="#e8b49c"/>
          <path id="Trazado_161572" data-name="Trazado 161572" d="M450.672,30.071v.575l-1.15.345a10.8,10.8,0,0,0-2.137.871v-.641a11.168,11.168,0,0,1,1.764-.69l1.523-.46" fill="#e8b49c"/>
          <path id="Trazado_161573" data-name="Trazado 161573" d="M450.639,44.682c-.022.17-.049.334-.082.5a8.107,8.107,0,0,1-3.183-.932c.005-.066.011-.131.011-.2v-.422c.055.038.109.071.164.1a7.677,7.677,0,0,0,3.09.953" fill="#e8b49c"/>
          <path id="Trazado_161574" data-name="Trazado 161574" d="M450.672,32.881v.564a10.355,10.355,0,0,0-3.287,1.863V34.6a11.14,11.14,0,0,1,3.287-1.715" fill="#e8b49c"/>
          <path id="Trazado_161575" data-name="Trazado 161575" d="M385,15.5a6.659,6.659,0,0,1-1,1.134c-.871.762-1.989.455-3.041.7a7.286,7.286,0,0,0-3.692,2.525c-.482.559-.882,1.228-1.348,1.819v-.455c0-.175.006-.345.022-.515a16.276,16.276,0,0,1,1.359-1.7,7.222,7.222,0,0,1,3.906-2.284c.383-.066.783-.017,1.161-.082a2.36,2.36,0,0,0,1.868-1.14Z" fill="#e8b49c"/>
          <path id="Trazado_161576" data-name="Trazado 161576" d="M431.976,35.6h.626c-1.223-2.825-5.173-2.127-7.267-.489a17.566,17.566,0,0,0-4.228,5.021,67.761,67.761,0,0,0-27.559,33.191c-.127.33.4.472.528.146a67.166,67.166,0,0,1,26.475-32.338,43.785,43.785,0,0,0-2.206,4.962c-3.665,9.591-5.112,19.869-5.4,30.088a.274.274,0,0,0,.548,0,96.726,96.726,0,0,1,3.534-24.442c.543,8.477,1.295,17.11,5.1,24.836.156.316.628.039.473-.277-3.932-7.972-4.554-16.941-5.1-25.67a.266.266,0,0,0-.088-.186,45.936,45.936,0,0,1,4.134-9.945c.14-.086.371-.608.447-.705.112-.175.217-.355.334-.527a13.859,13.859,0,0,1,4.37-4.426c1.7-.951,4.254-.986,5.271.761" fill="#437546"/>
          <path id="Trazado_161577" data-name="Trazado 161577" d="M439.3,35.6h.552a3.357,3.357,0,0,0-.725-2.139,1.861,1.861,0,0,0-2.505-.379c-1.136.752-1.695,2.333-2.158,3.54a29.664,29.664,0,0,0-1.475,5.865,144.981,144.981,0,0,0-1.374,26.116.274.274,0,0,0,.548,0,169.541,169.541,0,0,1,.618-20.31,55.986,55.986,0,0,1,1.6-9.692c.426-1.5.947-3.446,2.045-4.6,1.452-1.533,2.755-.009,2.867,1.493,0,.037,0,.074,0,.111" fill="#437546"/>
          <path id="Trazado_161578" data-name="Trazado 161578" d="M394.883,69.371c-2.213.172-3.084,2.715-3.461,4.547a3.336,3.336,0,0,0-.047,1.443,2.014,2.014,0,0,0,1.985,1.5,2.437,2.437,0,0,0,1.541-.733,5.121,5.121,0,0,0,.972-1.438,9.029,9.029,0,0,0,.9-2.906,2.3,2.3,0,0,0-.535-2.045,1.83,1.83,0,0,0-1.32-.375l-.032,0" fill="#a9b881"/>
          <path id="Trazado_161579" data-name="Trazado 161579" d="M412.831,69.62c-1.966,1.031-1.761,3.712-1.385,5.544a3.335,3.335,0,0,0,.527,1.345,2.012,2.012,0,0,0,2.418.6,2.433,2.433,0,0,0,1.126-1.281,5.144,5.144,0,0,0,.326-1.7,9.048,9.048,0,0,0-.324-3.025,2.3,2.3,0,0,0-1.3-1.667,1.833,1.833,0,0,0-1.362.176l-.028.015" fill="#a9b881"/>
          <path id="Trazado_161580" data-name="Trazado 161580" d="M413.44,59.455c-2.088-.753-3.928,1.208-5.024,2.722a3.336,3.336,0,0,0-.637,1.3,2.013,2.013,0,0,0,1.192,2.188,2.439,2.439,0,0,0,1.706-.035,5.155,5.155,0,0,0,1.477-.911,9.072,9.072,0,0,0,2.013-2.281,2.305,2.305,0,0,0,.352-2.084,1.826,1.826,0,0,0-1.049-.885l-.03-.011" fill="#a9b881"/>
          <path id="Trazado_161581" data-name="Trazado 161581" d="M420.91,75.448c-1.522,1.616-.455,4.084.5,5.692a3.334,3.334,0,0,0,.937,1.1,2.014,2.014,0,0,0,2.481-.222,2.44,2.44,0,0,0,.647-1.579,5.133,5.133,0,0,0-.249-1.718,9.054,9.054,0,0,0-1.291-2.754,2.308,2.308,0,0,0-1.772-1.153,1.832,1.832,0,0,0-1.229.611l-.022.023" fill="#a9b881"/>
          <path id="Trazado_161582" data-name="Trazado 161582" d="M418.585,60.8c-1.017,1.973.69,4.051,2.05,5.333a3.341,3.341,0,0,0,1.2.8,2.012,2.012,0,0,0,2.323-.9,2.432,2.432,0,0,0,.186-1.7,5.115,5.115,0,0,0-.713-1.582,9.045,9.045,0,0,0-2-2.291,2.308,2.308,0,0,0-2.021-.619,1.829,1.829,0,0,0-1.013.927l-.015.028" fill="#a9b881"/>
          <path id="Trazado_161583" data-name="Trazado 161583" d="M431.183,64.442c-1.831,1.255-1.313,3.893-.724,5.668a3.32,3.32,0,0,0,.68,1.274,2.015,2.015,0,0,0,2.472.311,2.436,2.436,0,0,0,.968-1.406,5.133,5.133,0,0,0,.123-1.731,9.047,9.047,0,0,0-.676-2.966,2.3,2.3,0,0,0-1.485-1.5,1.829,1.829,0,0,0-1.332.335l-.026.018" fill="#a9b881"/>
          <path id="Trazado_161584" data-name="Trazado 161584" d="M430.475,53.29c-2.177-.432-3.7,1.782-4.56,3.443a3.331,3.331,0,0,0-.435,1.378,2.014,2.014,0,0,0,1.5,1.985,2.436,2.436,0,0,0,1.682-.29,5.149,5.149,0,0,0,1.324-1.122,9.038,9.038,0,0,0,1.648-2.557,2.3,2.3,0,0,0,.037-2.113,1.832,1.832,0,0,0-1.17-.718l-.031-.006" fill="#a9b881"/>
          <path id="Trazado_161585" data-name="Trazado 161585" d="M432.7,47.423c-1.118,1.918.479,4.081,1.771,5.433a3.345,3.345,0,0,0,1.16.86,2.014,2.014,0,0,0,2.367-.777,2.435,2.435,0,0,0,.274-1.684,5.14,5.14,0,0,0-.63-1.618,9.06,9.06,0,0,0-1.88-2.391,2.305,2.305,0,0,0-1.986-.723,1.828,1.828,0,0,0-1.06.873l-.016.027" fill="#a9b881"/>
          <path id="Trazado_161586" data-name="Trazado 161586" d="M432.534,38.484c-2.112-.684-3.885,1.337-4.931,2.887a3.352,3.352,0,0,0-.593,1.317,2.014,2.014,0,0,0,1.263,2.148,2.434,2.434,0,0,0,1.7-.092,5.122,5.122,0,0,0,1.446-.96,9.041,9.041,0,0,0,1.936-2.346,2.306,2.306,0,0,0,.284-2.1,1.834,1.834,0,0,0-1.079-.849l-.03-.01" fill="#a9b881"/>
          <path id="Trazado_161587" data-name="Trazado 161587" d="M399.526,59.643c-1.34-1.769-3.951-1.127-5.7-.455a3.335,3.335,0,0,0-1.24.741,2.012,2.012,0,0,0-.193,2.483,2.433,2.433,0,0,0,1.449.9,5.1,5.1,0,0,0,1.735.041,9.043,9.043,0,0,0,2.931-.816,2.3,2.3,0,0,0,1.431-1.555,1.827,1.827,0,0,0-.4-1.313l-.019-.026" fill="#a9b881"/>
          <path id="Trazado_161588" data-name="Trazado 161588" d="M412.546,44.358c-1.34-1.769-3.951-1.127-5.7-.454a3.322,3.322,0,0,0-1.24.741,2.012,2.012,0,0,0-.193,2.483,2.436,2.436,0,0,0,1.449.9,5.1,5.1,0,0,0,1.735.041,9.067,9.067,0,0,0,2.931-.815,2.3,2.3,0,0,0,1.431-1.556,1.829,1.829,0,0,0-.4-1.313l-.019-.026" fill="#a9b881"/>
          <path id="Trazado_161589" data-name="Trazado 161589" d="M422.121,37.037c-1.34-1.769-3.951-1.127-5.7-.454a3.321,3.321,0,0,0-1.24.741,2.012,2.012,0,0,0-.193,2.483,2.436,2.436,0,0,0,1.449.9,5.1,5.1,0,0,0,1.735.041,9.066,9.066,0,0,0,2.931-.815,2.3,2.3,0,0,0,1.431-1.556,1.827,1.827,0,0,0-.4-1.313l-.019-.026" fill="#a9b881"/>
          <path id="Trazado_161590" data-name="Trazado 161590" d="M407.481,52.435c-2.125.643-2.429,3.314-2.4,5.184a3.346,3.346,0,0,0,.264,1.42,2.013,2.013,0,0,0,2.262,1.043,2.433,2.433,0,0,0,1.348-1.047,5.146,5.146,0,0,0,.64-1.613,9.03,9.03,0,0,0,.252-3.031,2.3,2.3,0,0,0-.961-1.882,1.828,1.828,0,0,0-1.37-.083l-.031.009" fill="#a9b881"/>
          <path id="Trazado_161591" data-name="Trazado 161591" d="M413.531,46.581c-2.125.643-2.429,3.314-2.4,5.184a3.345,3.345,0,0,0,.264,1.42,2.013,2.013,0,0,0,2.262,1.043A2.433,2.433,0,0,0,415,53.181a5.147,5.147,0,0,0,.64-1.613,9.031,9.031,0,0,0,.252-3.031,2.3,2.3,0,0,0-.961-1.882,1.828,1.828,0,0,0-1.37-.083l-.031.009" fill="#a9b881"/>
          <path id="Trazado_161592" data-name="Trazado 161592" d="M420.379,42.6c-1.519,1.619-.447,4.085.509,5.691a3.336,3.336,0,0,0,.939,1.1,2.013,2.013,0,0,0,2.48-.228,2.429,2.429,0,0,0,.644-1.58,5.154,5.154,0,0,0-.251-1.717,9.071,9.071,0,0,0-1.3-2.752,2.306,2.306,0,0,0-1.774-1.149,1.826,1.826,0,0,0-1.228.613l-.022.023" fill="#a9b881"/>
        </g>
      </g>
    </g>
  </g>
</svg>
