<svg xmlns="http://www.w3.org/2000/svg" xmlns:xlink="http://www.w3.org/1999/xlink" width="793" height="206" viewBox="0 0 793 206">
  <defs>
    <clipPath id="clip-path">
      <path id="Trazado_161169" data-name="Trazado 161169" d="M166.466-7.376H751.591V198.216H166.466Z" transform="translate(-166.466 7.376)" fill="none"/>
    </clipPath>
  </defs>
  <g id="_24" data-name="24" transform="translate(6173 8968)">
    <g id="Grupo_169278" data-name="Grupo 169278" transform="translate(-6734 -13518)">
      <path id="Trazado_156666" data-name="Trazado 156666" d="M0,0H793V206H0Z" transform="translate(561 4550)" fill="#032593"/>
    </g>
    <g id="Grupo_169602" data-name="Grupo 169602" transform="translate(-6610 -13488)">
      <g id="Grupo_167663" data-name="Grupo 167663" transform="translate(541.54 4520.408)">
        <g id="Grupo_165585" data-name="Grupo 165585" transform="translate(0 0)">
          <g id="Enmascarar_grupo_220" data-name="Enmascarar grupo 220" transform="translate(0)" clip-path="url(#clip-path)">
            <path id="Trazado_150476" data-name="Trazado 150476" d="M253.371,258.779V194.49a.676.676,0,0,0-.676-.676H84.982a.675.675,0,0,0-.676.676v64.289Z" transform="translate(-220.2 -54.265)" fill="#d9a389"/>
            <path id="Trazado_150477" data-name="Trazado 150477" d="M260.255,267.1l13.334-46.135a1.15,1.15,0,0,0-1.105-1.469H264.09a1.15,1.15,0,0,0-1.105.831L249.466,267.1Z" transform="translate(-273.726 -62.589)" fill="#8498d9"/>
            <path id="Trazado_150478" data-name="Trazado 150478" d="M132.731,269.733h13.634l-20.584-41.48a1.15,1.15,0,0,0-1.03-.639H113.685a1.151,1.151,0,0,0-1.031,1.662Z" transform="translate(-229.348 -65.219)" fill="#ffeae0"/>
            <path id="Trazado_150479" data-name="Trazado 150479" d="M114.488,266.891h11.377l-23.526-47.408a1.151,1.151,0,0,0-1.031-.639H92.5a1.15,1.15,0,0,0-1.03,1.662Z" transform="translate(-222.483 -62.377)" fill="#8498d9"/>
            <path id="Trazado_150480" data-name="Trazado 150480" d="M154.9,273.895h8.959l-16.344-32.937a.907.907,0,0,0-.812-.5h-6.937a.906.906,0,0,0-.811,1.309Z" transform="translate(-237.879 -69.381)" fill="#2b244a"/>
            <path id="Trazado_150481" data-name="Trazado 150481" d="M300.4,267.1l13.334-46.135a1.15,1.15,0,0,0-1.105-1.469H301.4a1.15,1.15,0,0,0-1.105.831L286.777,267.1Z" transform="translate(-285.818 -62.589)" fill="#ffeae0"/>
            <path id="Trazado_150482" data-name="Trazado 150482" d="M279.857,264.161l15.107-52.27a1.15,1.15,0,0,0-1.105-1.469H281.824a1.15,1.15,0,0,0-1.105.831l-15.292,52.909Z" transform="translate(-278.899 -59.648)" fill="#2b244a"/>
            <path id="Trazado_150483" data-name="Trazado 150483" d="M91.087,260.35V200.387a.576.576,0,0,1,.575-.575h158a.576.576,0,0,1,.575.575V260.35h1.15V200.387a1.727,1.727,0,0,0-1.725-1.725h-158a1.727,1.727,0,0,0-1.726,1.725V260.35Z" transform="translate(-222.025 -55.837)" fill="#2b244a"/>
            <path id="Trazado_150484" data-name="Trazado 150484" d="M231.978,160.828a34.374,34.374,0,0,0,6.906-9.675c2.279-4.593,4.014-10.545,3.324-16.4-.515-4.379-2.287-7.995-3.945-11.487a69.913,69.913,0,0,1-5.415-14.479c-1.229-5.335-1.648-9.193-1.43-16.719h-9.04c.218,7.526-.2,11.384-1.43,16.719a69.915,69.915,0,0,1-5.415,14.479c-1.659,3.492-3.43,7.109-3.945,11.487-.689,5.86,1.045,11.812,3.324,16.4a34.374,34.374,0,0,0,6.906,9.675Z" transform="translate(-261.4 -21.29)" fill="#dec6bd"/>
            <path id="Trazado_150485" data-name="Trazado 150485" d="M218.788,138.29c3.631.051,6.869,2.145,10.492,2.292,3.53.143,6.546-2.234,10.036-2.292a.576.576,0,0,0,0-1.15c-3.5.059-6.533,2.434-10.036,2.293-3.615-.147-6.847-2.242-10.492-2.293a.576.576,0,0,0,0,1.15" transform="translate(-263.604 -35.898)" fill="#2b244a"/>
            <path id="Trazado_150486" data-name="Trazado 150486" d="M169.59,172.155H136.108l-10-44.45a2.047,2.047,0,0,1,2-2.5h29.284a2.036,2.036,0,0,1,2,1.6Zm-32.562-1.15h31.123l-9.887-43.945a.893.893,0,0,0-.875-.7H128.1a.9.9,0,0,0-.875,1.094Z" transform="translate(-233.731 -32.032)" fill="#2b244a"/>
            <path id="Trazado_150487" data-name="Trazado 150487" d="M165.083,169.361h-21.4a.961.961,0,0,1-.937-.748l-7.869-34.5a.962.962,0,0,1,.938-1.176h21.4a.963.963,0,0,1,.938.748l7.869,34.5a.962.962,0,0,1-.938,1.176" transform="translate(-236.581 -34.535)" fill="#dec6bd"/>
            <path id="Trazado_150488" data-name="Trazado 150488" d="M120.274,181.965q4.408-12.244,8.818-24.486c.251-.7-.86-1-1.109-.305q-4.409,12.243-8.818,24.486c-.251.7.86,1,1.109.306" transform="translate(-231.485 -42.263)" fill="#2b244a"/>
            <path id="Trazado_150489" data-name="Trazado 150489" d="M136.436,93.664H109.257l8.237-36.611a1.765,1.765,0,0,1,1.732-1.386h23.54a1.775,1.775,0,0,1,1.731,2.165Zm-25.7-1.184h24.753l7.854-34.908a.592.592,0,0,0-.577-.722h-23.54a.589.589,0,0,0-.577.462Z" transform="translate(-228.287 -9.494)" fill="#2b244a"/>
            <path id="Trazado_150490" data-name="Trazado 150490" d="M118.974,90.708h16.363a1.183,1.183,0,0,0,1.154-.923l5.461-24.271A1.183,1.183,0,0,0,140.8,64.07H124.436a1.184,1.184,0,0,0-1.155.923L117.82,89.265a1.183,1.183,0,0,0,1.154,1.443" transform="translate(-231.052 -12.217)" fill="#d9a389"/>
            <path id="Trazado_150491" data-name="Trazado 150491" d="M161.8,101.753l-6.63-18.411c-.256-.711-1.4-.4-1.141.314l6.63,18.411c.256.711,1.4.4,1.141-.314" transform="translate(-242.786 -18.333)" fill="#2b244a"/>
            <path id="Trazado_150492" data-name="Trazado 150492" d="M129.351,115.573H.939A.939.939,0,0,1,0,114.635v-2.689a.939.939,0,0,1,.939-.939H129.351a.939.939,0,0,1,.939.939v2.689a.939.939,0,0,1-.939.939" transform="translate(-192.878 -27.429)" fill="#b06641"/>
            <path id="Trazado_150493" data-name="Trazado 150493" d="M82.733,88.753H71.793L63.447,43.99a1.4,1.4,0,0,1,1.372-1.651h8.1a1.4,1.4,0,0,1,1.371,1.14Z" transform="translate(-213.432 -5.175)" fill="#2b244a"/>
            <path id="Trazado_150494" data-name="Trazado 150494" d="M67.366,93.137H56.425L49.784,57.518a1.4,1.4,0,0,1,1.371-1.651h8.1a1.4,1.4,0,0,1,1.371,1.14Z" transform="translate(-209.005 -9.559)" fill="#d9a389"/>
            <path id="Trazado_150495" data-name="Trazado 150495" d="M29.83,93.137H18.889l-6.64-35.619a1.4,1.4,0,0,1,1.371-1.651h8.1a1.4,1.4,0,0,1,1.371,1.14Z" transform="translate(-196.84 -9.559)" fill="#d9a389"/>
            <path id="Trazado_150496" data-name="Trazado 150496" d="M52.985,91.063H46.617L39.169,51.117a1.4,1.4,0,0,1,1.372-1.651H44.07A1.4,1.4,0,0,1,45.442,50.6Z" transform="translate(-205.564 -7.485)" fill="#8498d9"/>
            <path id="Trazado_150497" data-name="Trazado 150497" d="M41.817,85.821H33.776L24.37,35.379A1.762,1.762,0,0,1,26.1,33.294h4.456a1.762,1.762,0,0,1,1.732,1.439Z" transform="translate(-200.766 -2.243)" fill="#2b244a"/>
            <path id="Trazado_150498" data-name="Trazado 150498" d="M17.521,106.409H13.577V97.365a.547.547,0,0,1,.546-.547h2.851a.547.547,0,0,1,.547.547Z" transform="translate(-197.278 -22.831)" fill="#b06641"/>
            <path id="Trazado_150499" data-name="Trazado 150499" d="M469.941,138.455H367.486a.939.939,0,0,1-.939-.939v-1.779a.939.939,0,0,1,.939-.939H469.941a.939.939,0,0,1,.939.939v1.779a.939.939,0,0,1-.939.939" transform="translate(-311.67 -35.139)" fill="#b06641"/>
            <path id="Trazado_150500" data-name="Trazado 150500" d="M415.871,73.475s11.418-9.879,12.318-30.952c0,0-14.319,7.9-17.477,30.952Z" transform="translate(-325.983 -5.234)" fill="#ccb16c"/>
            <path id="Trazado_150501" data-name="Trazado 150501" d="M397,64.843S378.342,47,382.605,15.888c0,0,17.6,19.108,14.394,48.955" transform="translate(-316.669 3.398)" fill="#ccb16c"/>
            <path id="Trazado_150502" data-name="Trazado 150502" d="M403.587,59.694h-1.742L399.459,30.7C399.182,15.495,403.587,0,403.587,0s7.422,31.742,0,59.694" transform="translate(-322.332 8.547)" fill="#ccb16c"/>
            <path id="Trazado_150503" data-name="Trazado 150503" d="M414.759,47.075c5.572-13.321,4.657-30.8,4.657-30.8a61.8,61.8,0,0,0-10.545,17.049l-3.3,31.643h3.474Z" transform="translate(-324.317 3.271)" fill="#ccb16c"/>
            <path id="Trazado_150504" data-name="Trazado 150504" d="M392.5,76.857l-9.217-14.112s-5.206-7.786-14.471-9.786c0,0,3.8,17.66,19.722,23.9Z" transform="translate(-312.404 -8.617)" fill="#ccb16c"/>
            <path id="Trazado_150505" data-name="Trazado 150505" d="M409.836,79.343a47.75,47.75,0,0,1,6.294-18.277.474.474,0,0,0-.818-.478,48.9,48.9,0,0,0-6.423,18.755c-.076.6.871.6.948,0" transform="translate(-325.391 -11.015)" fill="#2b244a"/>
            <path id="Trazado_150506" data-name="Trazado 150506" d="M405.628,54.249a45.683,45.683,0,0,1,3.088-12.977c.226-.566-.69-.812-.914-.251a46.516,46.516,0,0,0-3.122,13.228c-.053.608.9.6.948,0" transform="translate(-324.028 -4.645)" fill="#2b244a"/>
            <path id="Trazado_150507" data-name="Trazado 150507" d="M399.3,45.841a146.47,146.47,0,0,1,7.056,23.677c.124.6,1.038.344.914-.252a146.469,146.469,0,0,0-7.056-23.677c-.22-.561-1.137-.316-.914.252" transform="translate(-322.273 -6.125)" fill="#2b244a"/>
            <path id="Trazado_150508" data-name="Trazado 150508" d="M390.606,68.311a41.862,41.862,0,0,0,10.048,13.545c.454.406,1.126-.262.67-.67a41.188,41.188,0,0,1-9.9-13.353c-.256-.552-1.073-.072-.818.479" transform="translate(-319.451 -13.358)" fill="#2b244a"/>
            <path id="Trazado_150509" data-name="Trazado 150509" d="M406.238,119.795s3.58-2.316,5.369-8.949,1.895-22.53,1.895-22.53H387.886s.105,15.9,1.9,22.53,5.369,8.949,5.369,8.949Z" transform="translate(-318.586 -20.075)" fill="#dec6bd"/>
            <path id="Trazado_150510" data-name="Trazado 150510" d="M388.6,94.716h24.32a.474.474,0,0,0,0-.948H388.6a.474.474,0,0,0,0,.948" transform="translate(-318.669 -21.842)" fill="#2b244a"/>
            <path id="Trazado_150511" data-name="Trazado 150511" d="M499.973,64.324a6.928,6.928,0,1,1-4.961-8.448,6.928,6.928,0,0,1,4.961,8.448" transform="translate(-350.492 -9.489)" fill="#ccb16c"/>
            <path id="Trazado_150512" data-name="Trazado 150512" d="M482.044,39.48a6.109,6.109,0,1,0,6.292-5.92,6.109,6.109,0,0,0-6.292,5.92" transform="translate(-349.1 -2.329)" fill="#ccb16c"/>
            <path id="Trazado_150513" data-name="Trazado 150513" d="M467.38,65.378a10.844,10.844,0,1,1-10.844-10.844A10.844,10.844,0,0,1,467.38,65.378" transform="translate(-337.32 -9.127)" fill="#ccb16c"/>
            <path id="Trazado_150514" data-name="Trazado 150514" d="M449.835,60.385a42.055,42.055,0,0,1,12.18,12.259,54.664,54.664,0,0,1,6.3,12.592,25.177,25.177,0,0,1,1.234,4.715c.082.6.995.345.913-.252a35.861,35.861,0,0,0-3.411-10.054,53.342,53.342,0,0,0-9.026-13.6,39.171,39.171,0,0,0-7.712-6.48c-.516-.328-.992.491-.478.818" transform="translate(-338.591 -10.734)" fill="#2b244a"/>
            <path id="Trazado_150515" data-name="Trazado 150515" d="M486.245,104.462a67.04,67.04,0,0,1-1.5,11.55c-1.791,6.633-5.372,8.955-5.372,8.955H468.289s-3.582-2.322-5.372-8.955a67.1,67.1,0,0,1-1.5-11.55Z" transform="translate(-342.417 -25.308)" fill="#dec6bd"/>
            <path id="Trazado_150516" data-name="Trazado 150516" d="M461.553,96.911a6.928,6.928,0,1,1-6.927-6.927,6.927,6.927,0,0,1,6.927,6.927" transform="translate(-337.969 -20.616)" fill="#ccb16c"/>
            <path id="Trazado_150517" data-name="Trazado 150517" d="M450.863,102.277c1.528-3.661,4.067-7.3,8.088-8.4a10.155,10.155,0,0,1,6.556.485,7.281,7.281,0,0,1,3.834,4.653.474.474,0,0,0,.914-.252,8.294,8.294,0,0,0-3.973-5.079,10.146,10.146,0,0,0-2.809-.9,10.752,10.752,0,0,0-8.888,2.386,17.687,17.687,0,0,0-4.635,6.853c-.234.562.682.808.914.252" transform="translate(-338.687 -21.469)" fill="#2b244a"/>
            <path id="Trazado_150518" data-name="Trazado 150518" d="M489.18,34.11c-5.336,10.606-8.783,22.54-8.825,34.475a43.208,43.208,0,0,0,.447,6.594c.091.6,1,.345.914-.252a50.107,50.107,0,0,1-.045-12.765,78.032,78.032,0,0,1,3.83-16.914,85.222,85.222,0,0,1,4.5-10.66c.274-.543-.544-1.024-.818-.479" transform="translate(-348.553 -2.43)" fill="#2b244a"/>
            <path id="Trazado_150519" data-name="Trazado 150519" d="M481.393,74.294A22.91,22.91,0,0,1,484.72,68.5a22.094,22.094,0,0,1,6.417-5.222,38.489,38.489,0,0,1,5.87-2.6c.57-.2.324-1.119-.252-.914-5.842,2.078-11.365,5.26-14.567,10.748a28.84,28.84,0,0,0-1.71,3.53c-.232.563.683.808.914.252" transform="translate(-348.581 -10.812)" fill="#2b244a"/>
            <path id="Trazado_150520" data-name="Trazado 150520" d="M503.054,86.954a11.686,11.686,0,1,1-14.324-8.243,11.686,11.686,0,0,1,14.324,8.243" transform="translate(-348.465 -16.831)" fill="#ccb16c"/>
            <path id="Trazado_150521" data-name="Trazado 150521" d="M478.69,95.032a11.328,11.328,0,0,1,3.686-3.389,14.151,14.151,0,0,1,5.171-1.895,14.705,14.705,0,0,1,9.941,2.039,18.843,18.843,0,0,1,4.3,3.6c.408.455,1.077-.217.67-.67a18.283,18.283,0,0,0-8.967-5.628,15.249,15.249,0,0,0-11.167,1.482,12.561,12.561,0,0,0-4.455,3.987c-.321.521.5,1,.818.479" transform="translate(-347.725 -20.176)" fill="#2b244a"/>
            <path id="Trazado_150522" data-name="Trazado 150522" d="M377.573,131.116h-3.159v-7.133a.547.547,0,0,1,.547-.547h2.065a.547.547,0,0,1,.547.547Z" transform="translate(-314.22 -31.457)" fill="#b06641"/>
            <path id="Trazado_150523" data-name="Trazado 150523" d="M511.522,131.116h-3.159v-7.133a.547.547,0,0,1,.547-.547h2.065a.547.547,0,0,1,.547.547Z" transform="translate(-357.63 -31.457)" fill="#b06641"/>
            <path id="Trazado_150524" data-name="Trazado 150524" d="M852.638,255.52a7.41,7.41,0,0,1,6.94,4.647,24.065,24.065,0,0,1,1.358,6.4q.5,3.6,1,7.2.318,2.281.636,4.56h1.39q-.183-1.312-.366-2.625-.522-3.745-1.044-7.49a50.215,50.215,0,0,0-1.121-6.961,9.527,9.527,0,0,0-5.123-6.395,9.624,9.624,0,0,0-3.674-.725.7.7,0,0,0,0,1.388" transform="translate(-468.987 -73.813)" fill="#2b244a"/>
            <path id="Trazado_150525" data-name="Trazado 150525" d="M697.124,278.327q.82-5.881,1.64-11.762c.5-3.574.873-7.815,4.241-9.947a7.678,7.678,0,0,1,4.056-1.1.7.7,0,0,0,0-1.388,8.657,8.657,0,0,0-6.787,3.1c-2.483,3.076-2.609,7.234-3.13,10.98q-.706,5.058-1.41,10.115Z" transform="translate(-418.354 -73.813)" fill="#2b244a"/>
            <path id="Trazado_150526" data-name="Trazado 150526" d="M1090.38,255.52a7.41,7.41,0,0,1,6.939,4.647,24.064,24.064,0,0,1,1.358,6.4q.5,3.6,1,7.2.316,2.281.635,4.56h1.389q-.182-1.312-.365-2.625-.522-3.745-1.043-7.49a50.262,50.262,0,0,0-1.121-6.961,8.779,8.779,0,0,0-8.8-7.12.7.7,0,0,0,0,1.388" transform="translate(-546.035 -73.813)" fill="#2b244a"/>
            <path id="Trazado_150527" data-name="Trazado 150527" d="M934.867,278.327q.82-5.881,1.64-11.762c.5-3.574.873-7.815,4.241-9.947a7.679,7.679,0,0,1,4.056-1.1.7.7,0,0,0,0-1.388,8.658,8.658,0,0,0-6.787,3.1c-2.483,3.076-2.608,7.234-3.13,10.98q-.705,5.058-1.41,10.115Z" transform="translate(-495.403 -73.813)" fill="#2b244a"/>
            <path id="Trazado_150528" data-name="Trazado 150528" d="M984.489,253.132H677.377a3.451,3.451,0,1,1,0-6.9H984.489a3.451,3.451,0,1,1,0,6.9" transform="translate(-411.286 -71.253)" fill="#d9a389"/>
            <path id="Trazado_150529" data-name="Trazado 150529" d="M891.636,246.343a7.389,7.389,0,0,0,.1,6.531.694.694,0,1,0,1.2-.7,5.908,5.908,0,0,1-.1-5.13.713.713,0,0,0-.249-.949.7.7,0,0,0-.95.249" transform="translate(-481.612 -71.179)" fill="#2b244a"/>
            <path id="Trazado_150530" data-name="Trazado 150530" d="M1099.071,236.765c-1.325-1.968-1.671-5.874-1.671-5.874l-7.99,1.363-7.991-1.363s-.345,3.907-1.67,5.874c-.938,1.392-2.676,2.6-2.676,4.493h24.674c0-1.9-1.738-3.1-2.676-4.493" transform="translate(-541.94 -66.281)" fill="#2b244a"/>
            <path id="Trazado_150531" data-name="Trazado 150531" d="M1104.463,204.434c-1.812,11.072-9.672,19-17.555,17.711s-12.805-11.311-10.993-22.383,9.672-19,17.555-17.711,12.806,11.311,10.994,22.383" transform="translate(-541.443 -50.409)" fill="#2b244a"/>
            <path id="Trazado_150532" data-name="Trazado 150532" d="M1097.457,200.347c-.675,4.125-3.6,7.079-6.54,6.6s-4.77-4.214-4.1-8.339,3.6-7.079,6.54-6.6,4.77,4.214,4.1,8.339" transform="translate(-545.054 -53.664)" fill="#8c75b5"/>
            <path id="Trazado_150533" data-name="Trazado 150533" d="M1092.89,223.83a3.359,3.359,0,1,1-2.772-3.858,3.36,3.36,0,0,1,2.772,3.858" transform="translate(-544.902 -62.728)" fill="#8c75b5"/>
            <path id="Trazado_150534" data-name="Trazado 150534" d="M1082.443,236.579a12.878,12.878,0,0,0,8.539,3.451,13.3,13.3,0,0,0,8.724-3.325c.679-.581-.306-1.559-.982-.982a11.475,11.475,0,0,1-15.3-.126c-.659-.6-1.644.379-.981.981" transform="translate(-543.609 -67.746)" fill="#8c75b5"/>
            <path id="Trazado_150535" data-name="Trazado 150535" d="M950.7,236.765c-1.326-1.968-1.672-5.874-1.672-5.874l-7.99,1.363-7.991-1.363s-.344,3.907-1.67,5.874c-.938,1.392-2.676,2.6-2.676,4.493H953.38c0-1.9-1.739-3.1-2.676-4.493" transform="translate(-493.856 -66.281)" fill="#2b244a"/>
            <path id="Trazado_150536" data-name="Trazado 150536" d="M956.1,204.434c-1.812,11.072-9.672,19-17.555,17.711s-12.805-11.311-10.993-22.383,9.672-19,17.555-17.711,12.806,11.311,10.994,22.383" transform="translate(-493.359 -50.409)" fill="#2b244a"/>
            <path id="Trazado_150537" data-name="Trazado 150537" d="M949.09,200.347c-.675,4.125-3.6,7.079-6.54,6.6s-4.771-4.214-4.1-8.339,3.6-7.079,6.54-6.6,4.77,4.214,4.1,8.339" transform="translate(-496.97 -53.664)" fill="#8c75b5"/>
            <path id="Trazado_150538" data-name="Trazado 150538" d="M944.523,223.83a3.36,3.36,0,1,1-2.773-3.858,3.36,3.36,0,0,1,2.773,3.858" transform="translate(-496.819 -62.728)" fill="#8c75b5"/>
            <path id="Trazado_150539" data-name="Trazado 150539" d="M934.076,236.579a12.878,12.878,0,0,0,8.539,3.451,13.3,13.3,0,0,0,8.723-3.325c.68-.581-.305-1.559-.981-.982a11.475,11.475,0,0,1-15.3-.126c-.66-.6-1.644.379-.981.981" transform="translate(-495.526 -67.746)" fill="#8c75b5"/>
            <path id="Trazado_150540" data-name="Trazado 150540" d="M1024.794,33.046H920.918A5.477,5.477,0,0,0,915.6,37.2l-22.426,89.97a5.476,5.476,0,0,0,5.314,6.8h103.876a5.476,5.476,0,0,0,5.314-4.152l22.427-89.97a5.476,5.476,0,0,0-5.314-6.8" transform="translate(-482.289 -2.163)" fill="#dec6bd"/>
            <path id="Trazado_150541" data-name="Trazado 150541" d="M1026.293,39.961l-19.5,79.463H896.129L916.617,37.2a5.461,5.461,0,0,1,5.311-4.156h98.951a5.577,5.577,0,0,1,5.414,6.915" transform="translate(-483.299 -2.163)" fill="#2b244a"/>
            <path id="Trazado_150542" data-name="Trazado 150542" d="M1048.01,133.965a5.968,5.968,0,0,0,5.9-4.348c.094-.35.176-.7.263-1.055q.76-3.052,1.522-6.1l5.806-23.295q3.588-14.392,7.175-28.784l5.762-23.116,1.482-5.947c.617-2.47.971-5.329-1.345-7.067a7.286,7.286,0,0,0-4.354-1.2.642.642,0,0,0,0,1.283c1.462.016,3.155.258,4.147,1.461a4.388,4.388,0,0,1,.708,3.488c-.071.449-.193.892-.3,1.332l-1.3,5.2L1068.1,67.405l-6.971,27.968q-3,12.03-6,24.06l-1.839,7.378a14.227,14.227,0,0,1-1.088,3.653,4.8,4.8,0,0,1-4.189,2.219.642.642,0,0,0,0,1.283" transform="translate(-532.32 -2.166)" fill="#2b244a"/>
            <path id="Trazado_150543" data-name="Trazado 150543" d="M994.225,168.843H978.97l21.061,52.307h15.255Z" transform="translate(-510.146 -46.173)" fill="#dec6bd"/>
            <path id="Trazado_150544" data-name="Trazado 150544" d="M985.583,183.535H999.41a.642.642,0,0,0,0-1.283H985.583a.642.642,0,0,0,0,1.283" transform="translate(-512.089 -50.518)" fill="#2b244a"/>
            <path id="Trazado_150545" data-name="Trazado 150545" d="M1009.016,241.6H974.3a3.13,3.13,0,0,0-3.13,3.13h37.846Z" transform="translate(-507.618 -69.752)" fill="#dec6bd"/>
            <path id="Trazado_150546" data-name="Trazado 150546" d="M544.438,286.882c-12.153-3.342-22.612-6.158-23.711-6.352a10.359,10.359,0,0,0-2.021,2.647c-.608,1.189-1.194,2.434-1.767,3.7Z" transform="translate(-360.41 -82.369)" fill="#ccb16c"/>
            <path id="Trazado_150547" data-name="Trazado 150547" d="M597.95,131.089l-22.861-12.141,19.194-35.114,18.745,11.288Z" transform="translate(-379.255 -18.623)" fill="#ffa58f"/>
            <path id="Trazado_150548" data-name="Trazado 150548" d="M588.674,107.949l21.188,10.394-1.243,6.817-23.373-11.082Z" transform="translate(-382.547 -26.438)" fill="#2b244a"/>
            <path id="Trazado_150549" data-name="Trazado 150549" d="M796.388,268.156c6.878,1.4,33.425,5.8,33.639,9.213s-2.716,6.5-21.069,4.492-12.57-13.7-12.57-13.7" transform="translate(-450.694 -78.358)" fill="#ffa58f"/>
            <path id="Trazado_150550" data-name="Trazado 150550" d="M800.975,282.735c-6.911-6.871-14.971-13.761-19.629-14.716-9.022-1.851-26.528,5.861-26.528,5.861l-5.71,8.855Z" transform="translate(-435.652 -78.221)" fill="#ffa58f"/>
            <path id="Trazado_150551" data-name="Trazado 150551" d="M803.085,289.352h2.109l-1.175-1.023c-.671-.584-1.657.393-.982.981l.047.041" transform="translate(-453.056 -84.838)" fill="#2b244a"/>
            <path id="Trazado_150552" data-name="Trazado 150552" d="M812.844,277.8l7.785,7.487c.643.619,1.626-.361.981-.981l-7.785-7.487c-.644-.619-1.627.361-.981.981" transform="translate(-456.239 -81.1)" fill="#2b244a"/>
            <path id="Trazado_150553" data-name="Trazado 150553" d="M623.809,212.375c6.443,3.061,20.443,14.129,35.684,19.189h26.54c4.876-2.22,9.483-6.02,13.581-11.94,21.8-31.5,30.661-54.393,36.371-63.271,4.166-1.554,13.057-4.535,22.159-8.33,10.266-4.281,2.911-11.6,2.911-11.6s3.567-3.236,2.121-6.619c-.433-1.012-1.99-2.259-4.917-1.986,2.275-.5,12.68-4.5,13.033-4.627,3.316-1.234,3.971-6.169-1.32-6.054-4.187.092-16.3,1.782-28.1,4.67,3.9-7.446,5.805-13.349,1.566-11.687-4.322,1.7-18.381,14.413-25.593,21.1-.139.114-.292.227-.422.342-1.064.944-2.383,2.2-3.879,3.682l-.059.056h0c-11.968,11.845-40.318,44.621-49.351,53.79-10.179,10.333-20.744-8.745-28.023-19.464-4.615-6.8-14.93-21.253-14.93-21.253s-9.716,58.145,2.622,64.006" transform="translate(-393.017 -27.05)" fill="#ffa58f"/>
            <path id="Trazado_150554" data-name="Trazado 150554" d="M622.929,194.371l14.93-7.549-12.64-23.914Z" transform="translate(-394.759 -44.249)" fill="#2b244a"/>
            <path id="Trazado_150555" data-name="Trazado 150555" d="M580.123,233.6c1.8-24.873,5.872-82.3,5.872-92.217,0-12.724-9.485-26.142-27.068-25.216S528.667,141.152,520.061,163c-8.381,21.284-19.665,61.433-19.665,61.433s4.766,4.156,20.586,9.164Z" transform="translate(-355.049 -29.086)" fill="#2b244a"/>
            <path id="Trazado_150556" data-name="Trazado 150556" d="M540.561,233.51l8.634-2.785c.846-.273.484-1.613-.369-1.338l-8.634,2.785c-.847.273-.485,1.613.369,1.338" transform="translate(-367.789 -65.782)" fill="#8c75b5"/>
            <path id="Trazado_150557" data-name="Trazado 150557" d="M572.208,265.183H684.585c2.751-4.223,4.99-7.758,5.495-8.855-7.993-2.4-57.36-19.074-71.469-24.918a80.74,80.74,0,0,1-9.457-4.307,24.584,24.584,0,0,1-7.1-6.117,30.39,30.39,0,0,1-4.222-7.411,1.838,1.838,0,0,1-.37.182c-20.632,5.015-30.247,5.313-48.118,11.348,0,13.491,5.584,25.607,9.274,29.6a54.119,54.119,0,0,0,13.586,10.477" transform="translate(-370.913 -60.67)" fill="#ffa58f"/>
            <path id="Trazado_150558" data-name="Trazado 150558" d="M790.944,141.277a23.238,23.238,0,0,0,7.436-12.238c.2-.869-1.133-1.24-1.338-.369a21.977,21.977,0,0,1-7.079,11.626c-.678.583.307,1.561.982.981" transform="translate(-448.818 -32.992)" fill="#2b244a"/>
            <path id="Trazado_150559" data-name="Trazado 150559" d="M621.523,213.825c.363,5.917,5.087,9.97,9.924,12.66a159.261,159.261,0,0,0,17.416,8.064c11.411,4.643,23.14,8.44,34.791,12.423,5.7,1.949,11.4,3.909,17.1,5.841.848.287,1.212-1.053.369-1.339q-14.984-5.074-29.947-10.211c-12.029-4.111-24.03-8.431-35.426-14.106-5.476-2.727-12.413-6.4-12.838-13.332-.055-.887-1.443-.894-1.388,0" transform="translate(-394.303 -60.534)" fill="#2b244a"/>
            <path id="Trazado_150560" data-name="Trazado 150560" d="M543.653,166.7q-1.537,17.807-3.116,35.609-.437,5.007-.87,10.016c-.077.89,1.311.885,1.388,0q1.538-17.806,3.116-35.609.438-5.008.871-10.016c.076-.89-1.312-.885-1.388,0" transform="translate(-367.775 -45.261)" fill="#8c75b5"/>
            <path id="Trazado_150561" data-name="Trazado 150561" d="M542.545,210.186c14.051-3.917,28.336-6.972,42.591-10.037q5.825-1.252,11.648-2.5c.873-.189.5-1.528-.369-1.339-14.258,3.087-28.55,6.041-42.717,9.532-3.854.95-7.7,1.943-11.523,3.009a.7.7,0,0,0,.369,1.338" transform="translate(-368.43 -55.067)" fill="#8c75b5"/>
            <path id="Trazado_150562" data-name="Trazado 150562" d="M590.455,78.492a51.115,51.115,0,0,0,23.656,9.525c10.255,1.387,13.374-6.605,12.83-10.083a223.652,223.652,0,0,0-6.812-26.62c-3.458-10.507-7.5-15.283-20.8-16.223S574.606,38.944,575.1,52.744s11.495,22.88,15.35,25.748" transform="translate(-379.255 -2.789)" fill="#ffa58f"/>
            <path id="Trazado_150563" data-name="Trazado 150563" d="M643.088,68.666s4.019,3.174,6.07,5.1c1.17,1.1.982,2.07.384,2.732a40.72,40.72,0,0,1-3.407,3.109l-5.129-3.351Z" transform="translate(-400.618 -13.707)" fill="#ffa58f"/>
            <path id="Trazado_150564" data-name="Trazado 150564" d="M640.6,70.56a1.7,1.7,0,0,0-1.588-.357,1.605,1.605,0,0,0-.965,1.511,5.561,5.561,0,0,0,.356,1.955,3.546,3.546,0,0,0,1.29,1.9c1.118.677,2.121-.2,2.251-1.306A4.92,4.92,0,0,0,640.6,70.56" transform="translate(-399.656 -14.182)" fill="#2b244a"/>
            <path id="Trazado_150565" data-name="Trazado 150565" d="M640.147,64.265c-.035,2.408-2.345,1.393-4.558,2.867-2.034,1.354-3.605,1.624-4,.366-.474-1.52,1.117-4,4.3-5.044,2.981-.973,4.28.055,4.254,1.811" transform="translate(-397.54 -11.572)" fill="#2b244a"/>
            <path id="Trazado_150566" data-name="Trazado 150566" d="M823.627,148.436a32.35,32.35,0,0,0-9.636,4.715,4.2,4.2,0,0,0-1.7,4.21,4.376,4.376,0,0,0,2.606,3.13,10.446,10.446,0,0,0,4.594.715c.887-.057.894-1.445,0-1.388a8.641,8.641,0,0,1-4.313-.715,2.858,2.858,0,0,1-1.271-3.817,6.046,6.046,0,0,1,2.137-1.882,27.085,27.085,0,0,1,2.433-1.378A42.985,42.985,0,0,1,824,149.774c.841-.286.48-1.627-.369-1.338" transform="translate(-456.101 -39.546)" fill="#2b244a"/>
            <path id="Trazado_150567" data-name="Trazado 150567" d="M818.542,135.428a54.351,54.351,0,0,0-9.826,4.76c-1.459.861-3.24,1.782-4.1,3.3a4.242,4.242,0,0,0,1.119,5.247c1.467,1.194,3.857,1.455,5.681,1.34.887-.055.894-1.444,0-1.388a8.4,8.4,0,0,1-4.462-.794,2.813,2.813,0,0,1-.652-4.364,15.445,15.445,0,0,1,3.592-2.424c1.469-.849,2.972-1.642,4.5-2.388a39.367,39.367,0,0,1,4.522-1.954c.84-.287.479-1.629-.369-1.338" transform="translate(-453.484 -35.33)" fill="#2b244a"/>
            <path id="Trazado_150568" data-name="Trazado 150568" d="M612.543,27.27c-.165-2.26-1.632-4.975-7.539-5.456-10.41-.848-21.438,10.929-21.438,10.929C573.9,34.9,569.82,44.881,572,53.468c3.238,12.765,14.667,18.66,14.667,18.66l-.922,4.99c6.648-1.916,11.511-8.281,12.011-11.832s4.337-3.875,4.337-3.875,3.225-3.4,1.01-6.073c-1.809-2.185-2.293-4.378-1.6-6.183,2.978.066,7.467-.09,9.183-1.507a3.091,3.091,0,0,0,1.189-3.078c4.049-.6,4.334-.595,5.9-.769,4.577-5.08,1.959-12.706-5.235-16.531" transform="translate(-378.068 1.491)" fill="#2b244a"/>
            <path id="Trazado_150569" data-name="Trazado 150569" d="M618.159,83.645a7.065,7.065,0,1,1-7.065-7.065,7.065,7.065,0,0,1,7.065,7.065" transform="translate(-388.634 -16.272)" fill="#ffa58f"/>
            <path id="Trazado_150570" data-name="Trazado 150570" d="M646.517,87.033c-2.873.431-5.649.833-6.038.916a11.719,11.719,0,0,0,6.889,2.913c-.206-1.127-.514-2.414-.851-3.828" transform="translate(-400.447 -19.659)" fill="#fff"/>
            <path id="Trazado_150571" data-name="Trazado 150571" d="M614.665,105.731a18.137,18.137,0,0,0,6.692,4.336.7.7,0,0,0,.854-.485.71.71,0,0,0-.485-.854,16.563,16.563,0,0,1-6.08-3.978c-.624-.641-1.605.341-.981.981" transform="translate(-392.016 -25.333)" fill="#37374c"/>
            <path id="Trazado_150572" data-name="Trazado 150572" d="M610.486,86.836a3.509,3.509,0,0,1,2.81-5.04.713.713,0,0,0,.694-.694.7.7,0,0,0-.694-.694,4.888,4.888,0,0,0-4.009,7.128.7.7,0,0,0,.95.249.708.708,0,0,0,.249-.95" transform="translate(-390.166 -17.512)" fill="#37374c"/>
            <path id="Trazado_150573" data-name="Trazado 150573" d="M625.1,164.641c-.558,9.936-1.34,19.858-1.9,29.794-.05.893,1.338.889,1.388,0,.558-9.936,1.34-19.858,1.9-29.794.05-.892-1.338-.889-1.388,0" transform="translate(-394.847 -44.594)" fill="#8c75b5"/>
            <path id="Trazado_150574" data-name="Trazado 150574" d="M585.7,117.678a36.982,36.982,0,0,1,21.772,9.468c.66.6,1.644-.379.982-.981A38.524,38.524,0,0,0,585.7,116.29c-.892-.062-.888,1.326,0,1.388" transform="translate(-382.476 -29.14)" fill="#8c75b5"/>
            <path id="Trazado_150575" data-name="Trazado 150575" d="M575.234,71.716c1.632,1.627,3.385,3.294,5.682,3.884a5.934,5.934,0,0,0,5.914-1.659c1.507-1.54,2.827-4.369,5.3-4.421,1.251-.026,2.4.654,3.668.643a5.9,5.9,0,0,0,3-.915c2.265-1.4,3.278-3.88,4.164-6.274.311-.839-1.031-1.2-1.338-.369-.912,2.466-2.107,5.38-4.956,6.058-1.449.345-2.683-.4-4.1-.516a4.908,4.908,0,0,0-3.424,1.159c-1.933,1.511-3.014,4.477-5.6,5.04-2.966.646-5.422-1.707-7.334-3.611a.694.694,0,0,0-.981.981" transform="translate(-379.236 -11.59)" fill="#8c75b5"/>
            <path id="Trazado_150576" data-name="Trazado 150576" d="M601.2,45.583a9.527,9.527,0,0,0,8.381,2.175,5.386,5.386,0,0,0,3.492-2.13c.892-1.467.407-3.2-.132-4.7l-1.019.784a5.737,5.737,0,0,0,8.39-1.808.7.7,0,0,0-1.2-.7,4.357,4.357,0,0,1-6.491,1.31.7.7,0,0,0-1.019.784c.429,1.188,1.038,2.781.085,3.878a5,5,0,0,1-3.028,1.347,8.092,8.092,0,0,1-6.478-1.923c-.668-.589-1.653.389-.982.981" transform="translate(-387.645 -4.05)" fill="#8c75b5"/>
            <path id="Trazado_150577" data-name="Trazado 150577" d="M616.12,79.413a8.4,8.4,0,1,1-8.4-8.4,8.4,8.4,0,0,1,8.4,8.4" transform="translate(-387.107 -14.467)" fill="#ffeae0"/>
            <path id="Trazado_150578" data-name="Trazado 150578" d="M592.806,33.908q4.446,17.077,10.571,33.651c.307.831,1.649.472,1.338-.368Q598.6,50.638,594.144,33.539a.7.7,0,0,0-1.338.369" transform="translate(-384.989 -2.163)" fill="#ffeae0"/>
            <path id="Trazado_150579" data-name="Trazado 150579" d="M597.266,30.443q4.542,17.447,10.8,34.391c.307.831,1.649.471,1.338-.369q-6.249-16.911-10.8-34.391a.7.7,0,0,0-1.338.369" transform="translate(-386.434 -1.04)" fill="#ffeae0"/>
            <path id="Trazado_150580" data-name="Trazado 150580" d="M611.5,76.231,605.226,78.3l-3.3-9.979a.559.559,0,0,1,.355-.706L607.5,65.9a.559.559,0,0,1,.706.356Z" transform="translate(-387.944 -12.8)" fill="#ffeae0"/>
            <path id="Trazado_150581" data-name="Trazado 150581" d="M604.375,73.243a9.125,9.125,0,0,1,2.066-1.077,9.751,9.751,0,0,1,1.169-.337c.185-.041.371-.076.558-.106s.32-.043.541-.062a.712.712,0,0,0,.694-.693.7.7,0,0,0-.694-.694,10.42,10.42,0,0,0-5.035,1.772.711.711,0,0,0-.249.95.7.7,0,0,0,.95.249" transform="translate(-388.408 -14.227)" fill="#2b244a"/>
            <path id="Trazado_150582" data-name="Trazado 150582" d="M477.113,253.852c-7.712-16.766-14.5-31.349-18.879-39.152-14.806-26.374-22.209-36.09-32.62-36.09-7.4,0-10.41,3.239-15.269,17.12-2.427,6.935-4.083,31.233-5.057,58.122Z" transform="translate(-324.226 -49.338)" fill="#8498d9"/>
            <path id="Trazado_150583" data-name="Trazado 150583" d="M452.819,204.818c4.047,8.032,7.81,16.2,11.515,24.4,2.743,6.067,5.523,12.122,8.251,18.2h1.492c-2.091-4.644-4.21-9.277-6.3-13.922-3.672-8.158-7.356-16.313-11.274-24.357-7.73-15.867-16.434-31.369-27.582-45.113q-2.087-2.573-4.285-5.053c-.593-.67-1.572.315-.981.981,11.886,13.424,21.123,28.907,29.165,44.868" transform="translate(-330.118 -42.9)" fill="#2b244a"/>
            <path id="Trazado_150584" data-name="Trazado 150584" d="M681.882,70.012h55.094a3.942,3.942,0,0,0,3.93-3.93V53.264a3.941,3.941,0,0,0-3.93-3.93H681.882a3.942,3.942,0,0,0-3.93,3.93V66.082a3.942,3.942,0,0,0,3.93,3.93" transform="translate(-412.591 -7.442)" fill="#ffeae0"/>
            <path id="Trazado_150585" data-name="Trazado 150585" d="M677.952,67.986v10.95a1.388,1.388,0,0,0,1.884,1.3l10.905-4.175Z" transform="translate(-412.591 -13.487)" fill="#ffeae0"/>
            <path id="Trazado_150586" data-name="Trazado 150586" d="M742.357,62.734a1.282,1.282,0,0,1,0,2.562,1.282,1.282,0,0,1,0-2.562" transform="translate(-433.063 -11.784)" fill="#2b244a"/>
            <path id="Trazado_150587" data-name="Trazado 150587" d="M723.927,62.734a1.282,1.282,0,0,1,0,2.562,1.282,1.282,0,0,1,0-2.562" transform="translate(-427.09 -11.784)" fill="#2b244a"/>
            <path id="Trazado_150588" data-name="Trazado 150588" d="M705.5,62.734a1.282,1.282,0,0,1,0,2.562,1.282,1.282,0,0,1,0-2.562" transform="translate(-421.117 -11.784)" fill="#2b244a"/>
            <path id="Trazado_150589" data-name="Trazado 150589" d="M884.145,129.188h4.683s7.428,16.174,9.41,16.174c1.469,0,.364-16.174.364-16.174h111.105a1.98,1.98,0,0,0,1.967-2.211l-9.236-78.859a1.981,1.981,0,0,0-1.967-1.751H874.909a1.981,1.981,0,0,0-1.968,2.211l9.237,78.86a1.98,1.98,0,0,0,1.967,1.75" transform="translate(-475.78 -6.48)" fill="#ffc37a"/>
            <path id="Trazado_150590" data-name="Trazado 150590" d="M976.367,143.724H894.958s7.488-26.1,13.21-35.879a29.857,29.857,0,0,1,14.628-12.2c11.542-4.165,25-4.979,37.169-4.1,5.684.408,11.58,1.24,16.8,3.591,6.447,2.9,10.52,7.939,13.006,14.8,3.87,10.676,4.427,19.673,5.085,33.8Z" transform="translate(-482.919 -21.017)" fill="#ffeae0"/>
            <path id="Trazado_150591" data-name="Trazado 150591" d="M951.385,93.334a26.731,26.731,0,0,0-6.361,9.311c-.152.391.286.693.626.625,1.349-.272,2.664-.663,3.982-1.058a12.179,12.179,0,0,1,1.957-.56c.475-.055.582.151.848.484q.274.341.544.682c1.5,1.886,2.963,3.818,4.634,5.557.454.473,1.173-.247.719-.718-1.85-1.927-3.451-4.085-5.119-6.167-.352-.44-.7-.894-1.319-.906a7.13,7.13,0,0,0-2,.487c-1.5.443-2.987.91-4.52,1.219l.625.626a25.55,25.55,0,0,1,6.1-8.863c.467-.46-.253-1.18-.719-.719" transform="translate(-499.135 -21.653)" fill="#2b244a"/>
            <path id="Trazado_150592" data-name="Trazado 150592" d="M975.748,91.609a90.025,90.025,0,0,1,4.628,10.674l.625-.625c-1.793-.361-3.522-.944-5.279-1.438a2.481,2.481,0,0,0-1.964-.043,7.284,7.284,0,0,0-1.316.888c-2.66,2.206-5.58,4.058-8.158,6.373-.488.438.233,1.156.719.719,2.4-2.153,5.07-3.927,7.594-5.918a12,12,0,0,1,1.313-.981,2.206,2.206,0,0,1,.493-.272,3.723,3.723,0,0,1,1.484.338c1.609.467,3.2.983,4.844,1.314.342.069.777-.235.626-.626A92.167,92.167,0,0,0,976.626,91.1c-.312-.575-1.19-.062-.878.514" transform="translate(-505.334 -20.894)" fill="#2b244a"/>
            <path id="Trazado_150593" data-name="Trazado 150593" d="M964.605,95.585q-1.121,19.081-.974,38.21.037,5.375.177,10.747a.509.509,0,0,0,1.017,0q-.5-19.107.27-38.222.212-5.369.527-10.735c.038-.654-.979-.652-1.017,0" transform="translate(-505.17 -22.272)" fill="#2b244a"/>
            <path id="Trazado_150594" data-name="Trazado 150594" d="M941.408,39.082a8.292,8.292,0,0,0-4.752,2.117,7.329,7.329,0,0,0-2.268,4.144,4.783,4.783,0,0,0,.239,2.68c.753,1.762,2.773,2.837,4.671,3.789Z" transform="translate(-495.67 -4.119)" fill="#2b244a"/>
            <path id="Trazado_150595" data-name="Trazado 150595" d="M965.025,42.555c-1.655-8.977-8.666-10.592-16.819-7.983s-9.99,6.3-10.647,13.6a153.4,153.4,0,0,0-.452,18.2c.155,2.326,3.238,7.011,9.43,4.573a32,32,0,0,0,13.208-9.5c1.994-2.431,6.934-9.912,5.279-18.888" transform="translate(-496.547 -2.292)" fill="#e0785e"/>
            <path id="Trazado_150596" data-name="Trazado 150596" d="M955.1,76.849l-.121,6.617s3.85,15.786,6.713,15.785c2.058,0,9.449-17.174,9.449-17.174l-2.472-19.29Z" transform="translate(-502.372 -11.802)" fill="#e0785e"/>
            <path id="Trazado_150597" data-name="Trazado 150597" d="M941.293,57.909c-.6,1.3-1.613.193-3.173.46-1.434.247-2.354.014-2.264-.765.109-.942,1.575-1.911,3.559-1.708,1.857.19,2.316,1.063,1.878,2.013" transform="translate(-496.171 -9.56)" fill="#2b244a"/>
            <path id="Trazado_150598" data-name="Trazado 150598" d="M947.421,58.04c.431,1.367,1.576.394,3.09.857,1.392.426,2.334.312,2.343-.473.011-.948-1.321-2.094-3.315-2.143-1.867-.047-2.432.762-2.117,1.759" transform="translate(-499.895 -9.693)" fill="#2b244a"/>
            <path id="Trazado_150599" data-name="Trazado 150599" d="M942.644,63.356a9.209,9.209,0,0,1-.445,1.789c-.206.575-.506,1.106-.726,1.674a2.315,2.315,0,0,0-.1,1.588,1.568,1.568,0,0,0,1.082,1.053c.636.151.908-.829.27-.981a.647.647,0,0,1-.438-.636,2.648,2.648,0,0,1,.391-1.255,10.3,10.3,0,0,0,.942-2.963A.526.526,0,0,0,943.27,63a.513.513,0,0,0-.626.356" transform="translate(-497.931 -11.866)" fill="#2b244a"/>
            <path id="Trazado_150600" data-name="Trazado 150600" d="M966.579,44.77a9.678,9.678,0,0,0-.419-6.138,5.386,5.386,0,0,0-1.613-1.99c-.392-.285-.859-.458-.977-.971a7.778,7.778,0,0,1,.013-1.451c-.042-1.636-.658-3.572-2.262-4.31a3.359,3.359,0,0,0-2.889.066,7.075,7.075,0,0,0-9.383.694c-2.468-1.551-5.652.214-7.359,2.179a31.648,31.648,0,0,0-2.145,3.491c-.03.02-.271.424-.3.452-1.305,1.273-1.454,1.878-.785,3.743.7,1.943,3.253,1.939,4.9,1.5,1.037-.278,1.893-.892,2.892-1.235.756-.26.932.281,1.315.787a3.221,3.221,0,0,0,.873.8c1.6,1,3.436.526,5.007-.273a3.059,3.059,0,0,1,2.191.727,2.686,2.686,0,0,1,.689,2.673c-.391,2.091-1.888,4.746-1.184,6.968a9.366,9.366,0,0,0,.446,3,6.173,6.173,0,0,0,4.991,3.209c.653,0,2.864-4.666,3.565-5.966a52.894,52.894,0,0,0,2.429-7.955" transform="translate(-496.892 -0.695)" fill="#2b244a"/>
            <path id="Trazado_150601" data-name="Trazado 150601" d="M973.14,64.332l.3,8.8s-6.185-.518-7.5-4.1,7.192-4.7,7.192-4.7" transform="translate(-505.882 -12.302)" fill="#2b244a"/>
            <path id="Trazado_150602" data-name="Trazado 150602" d="M959.645,61.89a4.731,4.731,0,1,0,6.393-1.972,4.73,4.73,0,0,0-6.393,1.972" transform="translate(-503.705 -10.694)" fill="#e0785e"/>
            <path id="Trazado_150603" data-name="Trazado 150603" d="M954.768,58.283s-3.163,11.024-6.133,13.886c-3.713,3.578-9.783,2.9-11.839.611a8.239,8.239,0,0,0,.1,6.136c1.432,2.913,5.822,3.639,10.075,2.091,5.88-2.141,7.371-7.908,8.577-12.02S958.53,57.7,958.53,57.7Z" transform="translate(-496.296 -10.153)" fill="#2b244a"/>
            <path id="Trazado_150604" data-name="Trazado 150604" d="M928.312,139.1q-.429,9.938-.583,19.885a.509.509,0,0,0,1.017,0q.167-9.945.583-19.885c.028-.654-.989-.653-1.017,0" transform="translate(-493.54 -36.375)" fill="#2b244a"/>
            <path id="Trazado_150605" data-name="Trazado 150605" d="M974.419,138.6c4.42.022,8.845-.049,13.262.174.654.033.652-.983,0-1.017-4.417-.224-8.842-.153-13.262-.175a.509.509,0,0,0,0,1.017" transform="translate(-508.512 -36.043)" fill="#2b244a"/>
            <path id="Trazado_150606" data-name="Trazado 150606" d="M973.9,138.1c.032,1.968.049,3.935.081,5.9.032,1.984.131,4.087,1.581,5.6a7.484,7.484,0,0,0,4.73,2.009,7.612,7.612,0,0,0,5.543-1.332c.512-.406-.211-1.121-.72-.719a6.8,6.8,0,0,1-5.006,1.015,5.9,5.9,0,0,1-4.193-2.132c-1.064-1.52-.907-3.56-.931-5.327-.023-1.673-.041-3.346-.068-5.019a.509.509,0,0,0-1.017,0" transform="translate(-508.504 -36.052)" fill="#2b244a"/>
            <path id="Trazado_150607" data-name="Trazado 150607" d="M992.466,138.365a24.471,24.471,0,0,1-.119,5.9c-.229,1.763-.563,4.1-1.927,5.386-.476.451.243,1.169.719.719,1.472-1.39,1.9-3.76,2.167-5.671a25.185,25.185,0,0,0,.177-6.336c-.074-.643-1.092-.65-1.017,0" transform="translate(-513.806 -36.138)" fill="#2b244a"/>
            <path id="Trazado_150608" data-name="Trazado 150608" d="M950.241,63.684c.012-.01.094-.078.035-.031s.012-.008.023-.016c.046-.032.093-.062.141-.089s.1-.051.148-.076-.085.031-.019.007l.087-.032a2.563,2.563,0,0,1,.324-.082c.067-.014,0-.009-.024,0a.351.351,0,0,1,.092-.009c.056,0,.111-.007.168-.007s.1,0,.149.005l.093.008c.072.005-.095-.018-.024,0a2.812,2.812,0,0,1,.325.08l.087.031c.063.022.011-.005-.019-.009a.515.515,0,0,1,.149.075c.049.027.1.057.142.088l.061.043c-.049-.039-.059-.046-.03-.022l.043.036a.509.509,0,1,0,.719-.719,2.614,2.614,0,0,0-3.39,0,.511.511,0,0,0,0,.719.522.522,0,0,0,.719,0" transform="translate(-500.555 -11.657)" fill="#2b244a"/>
            <path id="Trazado_150609" data-name="Trazado 150609" d="M937.812,63.216c.012-.01.094-.078.035-.031s.012-.008.023-.016c.046-.032.093-.062.141-.089s.1-.051.148-.076-.085.031-.019.007l.087-.032a2.542,2.542,0,0,1,.324-.082c.067-.014,0-.009-.025,0a.386.386,0,0,1,.093-.009c.056,0,.112-.007.168-.007s.1,0,.149.005l.093.008c.072.005-.095-.018-.025,0a2.805,2.805,0,0,1,.325.08l.087.031c.063.022.011-.005-.019-.008a.5.5,0,0,1,.149.074c.048.027.1.057.142.088l.061.043c-.049-.039-.059-.046-.03-.022l.043.037a.509.509,0,0,0,.719-.719,2.614,2.614,0,0,0-3.39,0,.511.511,0,0,0,0,.719.522.522,0,0,0,.719,0" transform="translate(-496.527 -11.505)" fill="#2b244a"/>
            <path id="Trazado_150610" data-name="Trazado 150610" d="M947.31,74.581c-.894,3.572-5.378,3.511-6.519-.1Z" transform="translate(-497.773 -15.592)" fill="#fff"/>
            <path id="Trazado_150611" data-name="Trazado 150611" d="M1004.491,118.592a6.173,6.173,0,0,1-2.7,5.116c-.543.362-.034,1.242.513.879a7.228,7.228,0,0,0,3.207-5.995.509.509,0,0,0-1.017,0" transform="translate(-517.466 -29.728)" fill="#8498d9"/>
            <path id="Trazado_150612" data-name="Trazado 150612" d="M997.458,104.69a6.176,6.176,0,0,1,1.266-5.647c.429-.49-.293-1.207-.725-.712a7.227,7.227,0,0,0-1.522,6.626.509.509,0,0,0,.981-.267" transform="translate(-515.738 -23.267)" fill="#8498d9"/>
            <path id="Trazado_150613" data-name="Trazado 150613" d="M941.986,139.34a6.175,6.175,0,0,1-2.89-5.013c-.016-.652-1.033-.691-1.016-.034a7.225,7.225,0,0,0,3.364,5.907.509.509,0,0,0,.542-.86" transform="translate(-496.894 -34.822)" fill="#8498d9"/>
            <path id="Trazado_150614" data-name="Trazado 150614" d="M914.338,150.817a6.172,6.172,0,0,1,3.857,4.314c.15.634,1.153.463,1-.176a7.226,7.226,0,0,0-4.506-5.092.509.509,0,0,0-.353.954" transform="translate(-489.096 -40.011)" fill="#8498d9"/>
            <path id="Trazado_150615" data-name="Trazado 150615" d="M1029.459,144.439a6.175,6.175,0,0,1-5.411-2.051c-.425-.493-1.237.12-.808.617a7.225,7.225,0,0,0,6.345,2.443.509.509,0,0,0-.126-1.009" transform="translate(-524.454 -37.54)" fill="#8498d9"/>
            <path id="Trazado_150616" data-name="Trazado 150616" d="M981.915,122.755A6.174,6.174,0,0,1,976.5,120.7c-.425-.493-1.237.12-.808.618a7.225,7.225,0,0,0,6.344,2.443.509.509,0,0,0-.125-1.009" transform="translate(-509.046 -30.513)" fill="#8498d9"/>
            <path id="Trazado_150617" data-name="Trazado 150617" d="M1023.719,120.321a6.171,6.171,0,0,1,5.33,2.252c.407.509,1.241-.074.83-.587a7.224,7.224,0,0,0-6.249-2.677.509.509,0,0,0,.088,1.013" transform="translate(-524.475 -30.11)" fill="#8498d9"/>
            <path id="Trazado_150618" data-name="Trazado 150618" d="M1003.065,159.588a6.172,6.172,0,0,0-5.33,2.251c-.407.51-1.241-.074-.831-.587a7.226,7.226,0,0,1,6.249-2.677.509.509,0,0,1-.088,1.013" transform="translate(-515.922 -42.836)" fill="#8498d9"/>
            <path id="Trazado_150619" data-name="Trazado 150619" d="M953.045,117.1a6.172,6.172,0,0,1,1.5,5.589c-.152.634.82.934.974.295a7.226,7.226,0,0,0-1.726-6.575.509.509,0,0,0-.746.691" transform="translate(-501.699 -29.126)" fill="#8498d9"/>
            <path id="Trazado_150620" data-name="Trazado 150620" d="M946.031,159.859a6.174,6.174,0,0,1,5.7,1.01c.509.406,1.193-.347.678-.757a7.225,7.225,0,0,0-6.687-1.221.509.509,0,0,0,.311.969" transform="translate(-499.26 -42.835)" fill="#8498d9"/>
            <path id="Trazado_150621" data-name="Trazado 150621" d="M927.807,116.15a6.175,6.175,0,0,1-5.079,2.771c-.652,0-.714,1.017-.058,1.015a7.226,7.226,0,0,0,5.985-3.225.509.509,0,0,0-.848-.562" transform="translate(-491.75 -29.023)" fill="#8498d9"/>
            <path id="Trazado_150622" data-name="Trazado 150622" d="M965.979,51.9a3.251,3.251,0,0,0,5.759.356l-.7.182a2.241,2.241,0,0,0,3.373-1.4c.1-.64-.877-.916-.981-.27a1.222,1.222,0,0,1-1.879.789.515.515,0,0,0-.7.182,2.3,2.3,0,0,1-2.149,1.065,2.343,2.343,0,0,1-1.853-1.42c-.266-.6-1.142-.08-.878.513" transform="translate(-505.92 -7.789)" fill="#8c75b5"/>
            <path id="Trazado_150623" data-name="Trazado 150623" d="M951.779,42.212a7.53,7.53,0,0,1,1.04-2.7,5.492,5.492,0,0,1,.929-1.159c.434-.388.9-.25,1.431-.176,1.968.274,3.552-1.111,4.851-2.4a.509.509,0,0,0-.719-.719A9.058,9.058,0,0,1,957,36.878a2.973,2.973,0,0,1-1.339.324,6.969,6.969,0,0,0-1.708-.095c-.92.21-1.583,1.2-2.05,1.949a8.3,8.3,0,0,0-1.107,2.885c-.117.64.863.915.981.27" transform="translate(-501.013 -2.766)" fill="#8c75b5"/>
            <path id="Trazado_150624" data-name="Trazado 150624" d="M966.6,42.241a5.647,5.647,0,0,1,4.379-2.151.509.509,0,0,0,0-1.017,6.614,6.614,0,0,0-5.1,2.45.525.525,0,0,0,0,.719.512.512,0,0,0,.719,0" transform="translate(-505.857 -4.116)" fill="#8c75b5"/>
            <path id="Trazado_150625" data-name="Trazado 150625" d="M1010.118,139.954q.491,9.6.575,19.205a.509.509,0,0,0,1.017,0q-.085-9.607-.574-19.205c-.034-.652-1.051-.655-1.017,0" transform="translate(-520.241 -36.651)" fill="#2b244a"/>
            <path id="Trazado_150626" data-name="Trazado 150626" d="M1057.444,53.256a3.051,3.051,0,1,1-3.051-3.051,3.051,3.051,0,0,1,3.051,3.051" transform="translate(-533.601 -7.724)" fill="#fff"/>
            <path id="Trazado_150627" data-name="Trazado 150627" d="M1042.4,53.256a3.051,3.051,0,1,1-3.051-3.051,3.052,3.052,0,0,1,3.051,3.051" transform="translate(-528.725 -7.724)" fill="#fff"/>
            <path id="Trazado_150628" data-name="Trazado 150628" d="M891.72,88.231H853.456a3.941,3.941,0,0,0-3.93,3.93v7.29a3.942,3.942,0,0,0,3.93,3.93H891.72a3.942,3.942,0,0,0,3.93-3.93v-7.29a3.941,3.941,0,0,0-3.93-3.93" transform="translate(-468.196 -20.048)" fill="#ffeae0"/>
            <path id="Trazado_150629" data-name="Trazado 150629" d="M913.273,92.645V84.623a1.017,1.017,0,0,0-1.381-.95L903.9,86.732Z" transform="translate(-485.818 -18.548)" fill="#ffeae0"/>
            <path id="Trazado_150630" data-name="Trazado 150630" d="M869.735,98.049a.939.939,0,0,0,0,1.878.939.939,0,0,0,0-1.878" transform="translate(-474.451 -23.23)" fill="#2b244a"/>
            <path id="Trazado_150631" data-name="Trazado 150631" d="M883.238,98.049a.939.939,0,0,0,0,1.878.939.939,0,0,0,0-1.878" transform="translate(-478.827 -23.23)" fill="#2b244a"/>
            <path id="Trazado_150632" data-name="Trazado 150632" d="M896.741,98.049a.939.939,0,0,0,0,1.878.939.939,0,0,0,0-1.878" transform="translate(-483.203 -23.23)" fill="#2b244a"/>
          </g>
        </g>
      </g>
    </g>
  </g>
</svg>
