<svg xmlns="http://www.w3.org/2000/svg" width="196.18" height="524.612" viewBox="0 0 196.18 524.612">
  <g id="_26" data-name="26" transform="translate(-1215 -6323.242)">
    <g id="Grupo_174283" data-name="Grupo 174283" transform="translate(81.213 3893.367)">
      <path id="Trazado_114544" data-name="Trazado 114544" d="M148.172,430.52c-27.227-12.386-55.463-29.1-66.428-57.049-12.17-31.019.569-65.757.263-99.1-.243-26.414-8.756-51.923-15.454-77.465s-11.618-52.681-4.707-78.166C66.472,101.68,76.3,86.244,88.984,74c22.339-21.569,54.525-33.241,85.105-28.307s58.363,27.409,67.3,57.225c12.666,42.242-12.076,87.334-6.817,131.136,2.057,17.139,8.643,33.347,13.108,50.017a205.965,205.965,0,0,1,7,54.418c-.167,28.117-7.254,58.115-28.116,76.839C205.522,434.21,174.207,442.365,148.172,430.52Z" transform="translate(1075.283 2385.31)" fill="#6b8dfc"/>
    </g>
    <g id="Grupo_174544" data-name="Grupo 174544" transform="translate(1230 6366.938)">
      <g id="Grupo_174545" data-name="Grupo 174545">
        <path id="Trazado_180794" data-name="Trazado 180794" d="M273.978,1124.772,261.847,973.822l45.26-6.086s-9.5,115.154-14.521,152.244c0,0,29.075,10.087,29.029,15.533s-33.385,1.759-33.385,1.759-20.283,5.339-14.251-12.5" transform="translate(-178.212 -658.637)" fill="#e6ac71"/>
        <path id="Trazado_180795" data-name="Trazado 180795" d="M307.107,967.736l-45.26,6.086,7.293,90.746a154.049,154.049,0,0,0,29.787-4.172c4.181-44.18,8.18-92.66,8.18-92.66" transform="translate(-178.212 -658.637)" fill="#c78743"/>
        <path id="Trazado_180796" data-name="Trazado 180796" d="M413.273,1464.509c8.9,4.138,11.626,8.066,11.626,8.066s-.458,1.246-12.913,2.514a16.3,16.3,0,0,1,1.286-10.58" transform="translate(-280.154 -996.739)" fill="#777"/>
        <path id="Trazado_180797" data-name="Trazado 180797" d="M296.44,1451.847c11.6,6.362,25.546-.851,25.546-.851a77.833,77.833,0,0,1,11.955,4.316,16.3,16.3,0,0,0-1.286,10.58c-3.209.327-7.2.655-12.205.964-24.414,1.507-25.374-4.839-25.374-4.839a34.823,34.823,0,0,1,1.365-10.17" transform="translate(-200.821 -987.542)" fill="#ada5a5"/>
        <path id="Trazado_180798" data-name="Trazado 180798" d="M295.093,1485.5a36.125,36.125,0,0,0,.451,3.8s7.015,2.467,26.164,2.631c21.4.183,24.163-2.519,24.163-2.519a6.714,6.714,0,0,0-.286-2.553,118.517,118.517,0,0,1-50.492-1.361" transform="translate(-200.839 -1011.026)" fill="#777"/>
        <path id="Trazado_180799" data-name="Trazado 180799" d="M393.56,1457.911a7.792,7.792,0,0,0-3.393,7.33" transform="translate(-265.524 -992.249)" fill="none" stroke="#1c1d27" stroke-linecap="round" stroke-linejoin="round" stroke-width="0.427"/>
        <path id="Trazado_180800" data-name="Trazado 180800" d="M380.348,1453.351s-3.266,1.919-3.3,7.326" transform="translate(-256.619 -989.145)" fill="none" stroke="#1c1d27" stroke-linecap="round" stroke-linejoin="round" stroke-width="0.427"/>
        <path id="Trazado_180801" data-name="Trazado 180801" d="M379.823,1445.089s2.723-6.152.054-6.267S379.823,1445.089,379.823,1445.089Z" transform="translate(-257.725 -979.255)" fill="none" stroke="#1c1d27" stroke-linecap="round" stroke-linejoin="round" stroke-width="0.427"/>
        <path id="Trazado_180802" data-name="Trazado 180802" d="M370.025,1451.291s-4.283-5.187-5.581-2.852S370.025,1451.291,370.025,1451.291Z" transform="translate(-247.928 -985.391)" fill="none" stroke="#1c1d27" stroke-linecap="round" stroke-linejoin="round" stroke-width="0.427"/>
        <path id="Trazado_180803" data-name="Trazado 180803" d="M76.714,1123.108,88.845,972.158l-45.26-6.086s9.5,115.154,14.521,152.245c0,0-29.075,10.087-29.029,15.533s33.385,1.759,33.385,1.759,20.283,5.339,14.251-12.5" transform="translate(-19.79 -657.505)" fill="#e6ac71"/>
        <path id="Trazado_180804" data-name="Trazado 180804" d="M74.5,966.072l45.26,6.086-7.293,90.746a154.049,154.049,0,0,1-29.787-4.171c-4.181-44.18-8.18-92.66-8.18-92.66" transform="translate(-50.704 -657.505)" fill="#c78743"/>
        <path id="Trazado_180805" data-name="Trazado 180805" d="M36.5,1462.846c-8.9,4.138-11.626,8.066-11.626,8.066s.458,1.246,12.913,2.514a16.3,16.3,0,0,0-1.286-10.58" transform="translate(-16.927 -995.607)" fill="#777"/>
        <path id="Trazado_180806" data-name="Trazado 180806" d="M98.772,1450.184c-11.6,6.361-25.546-.851-25.546-.851a77.823,77.823,0,0,0-11.955,4.316,16.3,16.3,0,0,1,1.286,10.58c3.209.327,7.2.655,12.205.964,24.414,1.507,25.374-4.839,25.374-4.839a34.824,34.824,0,0,0-1.365-10.17" transform="translate(-41.701 -986.411)" fill="#ada5a5"/>
        <path id="Trazado_180807" data-name="Trazado 180807" d="M74.7,1483.837a36.125,36.125,0,0,1-.451,3.8s-7.015,2.467-26.164,2.631c-21.4.183-24.163-2.519-24.163-2.519a6.715,6.715,0,0,1,.286-2.553,118.522,118.522,0,0,0,50.492-1.361" transform="translate(-16.265 -1009.894)" fill="#777"/>
        <path id="Trazado_180808" data-name="Trazado 180808" d="M77.189,1456.248a7.792,7.792,0,0,1,3.393,7.33" transform="translate(-52.535 -991.117)" fill="none" stroke="#1c1d27" stroke-linecap="round" stroke-linejoin="round" stroke-width="0.427"/>
        <path id="Trazado_180809" data-name="Trazado 180809" d="M90.675,1451.688s3.266,1.919,3.3,7.325" transform="translate(-61.713 -988.013)" fill="none" stroke="#1c1d27" stroke-linecap="round" stroke-linejoin="round" stroke-width="0.427"/>
        <path id="Trazado_180810" data-name="Trazado 180810" d="M93.168,1443.426s-2.723-6.152-.054-6.267S93.168,1443.426,93.168,1443.426Z" transform="translate(-62.575 -978.124)" fill="none" stroke="#1c1d27" stroke-linecap="round" stroke-linejoin="round" stroke-width="0.427"/>
        <path id="Trazado_180811" data-name="Trazado 180811" d="M95.783,1449.628s4.283-5.187,5.581-2.852S95.783,1449.628,95.783,1449.628Z" transform="translate(-65.19 -984.259)" fill="none" stroke="#1c1d27" stroke-linecap="round" stroke-linejoin="round" stroke-width="0.427"/>
        <path id="Trazado_180812" data-name="Trazado 180812" d="M26.4,622.626S44.871,655,64.008,665.146c0,0-5.883,19.172-20.919,24.939,0,0-31.539-36.226-39.459-53.745-6.39-14.134-3.037-48.172.143-67.021,8.469,6.672,17.834,10.477,27.8,13.074Z" transform="translate(0 -387.476)" fill="#e6a07e"/>
        <path id="Trazado_180813" data-name="Trazado 180813" d="M40.862,550.383l-1.251,9.73c-9.964-2.6-19.33-6.4-27.8-13.074.762-4.515,1.513-8.167,2.119-10.456Z" transform="translate(-8.039 -365.196)" fill="#dc8765"/>
        <path id="Trazado_180814" data-name="Trazado 180814" d="M181.109,105.485s4.977,33.547-5.77,48.182-18.907,19.3-33.448,22.3-55.862-2.816-60.962-11.536-13.881-35.692-9.442-53.943,109.622-5,109.622-5" transform="translate(-47.827 -68.629)" fill="#211010"/>
        <path id="Trazado_180815" data-name="Trazado 180815" d="M186.043,376.7s5.419-2.641,21.567-1.3,18.447,1.686,18.447,1.686L212.49,396.968l-21.856-8.412Z" transform="translate(-126.62 -255.241)" fill="#ff6248"/>
        <path id="Trazado_180816" data-name="Trazado 180816" d="M226.657,335.158l-.336-15.83-33.2,5.69.972,15.1c11.331,1.286,22.221-.834,32.561-4.959" transform="translate(-131.439 -217.333)" fill="#dc8765"/>
        <path id="Trazado_180817" data-name="Trazado 180817" d="M228.729,368.89c-10.34,4.125-21.229,6.245-32.561,4.959l.145,2.244s-.131,24.435,17.091,25.419,15.445-26.932,15.445-26.932Z" transform="translate(-133.511 -251.065)" fill="#e6a07e"/>
        <path id="Trazado_180818" data-name="Trazado 180818" d="M99.616,66.788s.026,19.313,1.09,42.144c.862,18.483,16.489,35.874,39.123,36.271,21.274.372,42.9-9.21,48.106-39.27s-.623-54.19-27.928-59.522-54.19-2.909-60.39,20.377" transform="translate(-67.798 -29.976)" fill="#e6a07e"/>
        <path id="Trazado_180819" data-name="Trazado 180819" d="M196.654,90.322c.108-.166.18-.26.18-.26s-.065.1-.18.26" transform="translate(-133.842 -61.296)" fill="#ff6248"/>
        <path id="Trazado_180820" data-name="Trazado 180820" d="M347.752,237.155l4.136-17.587s15.632-6.538,17.232,9.742-15.507,17.919-21.368,7.845" transform="translate(-236.679 -148.554)" fill="#e6a07e"/>
        <path id="Trazado_180821" data-name="Trazado 180821" d="M292.864,157.406s3.419-4.3-4.469-9.1-10.52-3.539-11.637-.9c-1.019,2.41.9,5.858,5.369,8.442,5.366,3.1,8.887,4.029,10.737,1.562" transform="translate(-188.179 -98.727)" fill="#211010"/>
        <path id="Trazado_180822" data-name="Trazado 180822" d="M128.772,157.186s-2.969-4.625,5.362-8.609,10.822-2.462,11.668.278c.772,2.5-1.484,5.738-6.191,7.858-5.651,2.545-9.247,3.114-10.839.473" transform="translate(-87.292 -99.469)" fill="#211010"/>
        <path id="Trazado_180823" data-name="Trazado 180823" d="M281.338,215.914c.105,2.225,1.671,3.958,3.5,3.872s3.22-1.96,3.114-4.185-1.67-3.958-3.5-3.871-3.22,1.96-3.115,4.185" transform="translate(-191.474 -144.1)" fill="#211010"/>
        <path id="Trazado_180824" data-name="Trazado 180824" d="M155.239,218.509c.105,2.225,1.67,3.958,3.5,3.872s3.22-1.96,3.115-4.185-1.671-3.958-3.5-3.872-3.22,1.96-3.115,4.185" transform="translate(-105.651 -145.866)" fill="#211010"/>
        <path id="Trazado_180825" data-name="Trazado 180825" d="M361.581,248.664a.328.328,0,0,0,.276-.477c-.04-.077-3.9-7.758,1.4-11.666a7.254,7.254,0,0,1,5.578-1.6,9.038,9.038,0,0,1,5.23,3.475.327.327,0,0,0,.54-.37,9.541,9.541,0,0,0-5.656-3.75,7.883,7.883,0,0,0-6.081,1.722c-5.75,4.24-1.637,12.41-1.594,12.493a.327.327,0,0,0,.307.177" transform="translate(-244.885 -159.381)" fill="#632114"/>
        <path id="Trazado_180826" data-name="Trazado 180826" d="M369.322,253.716a.328.328,0,0,0,.168-.6c-.056-.038-5.734-3.784-9.612.487a.328.328,0,0,0,.484.441c3.5-3.854,8.71-.418,8.762-.384a.329.329,0,0,0,.2.055" transform="translate(-244.873 -171.212)" fill="#632114"/>
        <path id="Trazado_180827" data-name="Trazado 180827" d="M205.325,180.9a.327.327,0,0,0,.106-.631,8.848,8.848,0,0,1-3.972-3.385c-1-1.8-.845-4.57.319-5.823a2.308,2.308,0,0,1,2.871-.311c.037.017.1.049.176.089,4.136,2.147,5.9,1.01,6.656-.321,1.382-2.445-.8-21.126-1.051-23.248a.332.332,0,0,0-.364-.286.328.328,0,0,0-.286.364c.681,5.707,2.212,20.937,1.132,22.847-.889,1.572-2.835,1.6-5.785.063-.09-.047-.159-.083-.2-.1a2.947,2.947,0,0,0-3.626.459c-1.358,1.46-1.55,4.538-.412,6.586a9.352,9.352,0,0,0,4.3,3.676.326.326,0,0,0,.136.023" transform="translate(-136.216 -100.036)" fill="#632114"/>
        <path id="Trazado_180828" data-name="Trazado 180828" d="M220.981,270.13a9.025,9.025,0,0,0,5.9-3.74.263.263,0,0,0-.447-.279,8.006,8.006,0,0,1-8.582,3.329.263.263,0,1,0-.123.511,8.641,8.641,0,0,0,3.256.179" transform="translate(-148.045 -181.03)" fill="#632114"/>
        <path id="Trazado_180829" data-name="Trazado 180829" d="M81.616,232.277l-.738-18.052s-14.115-9.374-18.763,6.31,11.842,20.527,19.5,11.742" transform="translate(-41.723 -143.909)" fill="#e6a07e"/>
        <path id="Trazado_180830" data-name="Trazado 180830" d="M84.031,242.351a.331.331,0,0,1-.125-.06.328.328,0,0,1-.056-.46c.054-.069,5.3-6.881.829-11.721a7.255,7.255,0,0,0-5.175-2.629,9.039,9.039,0,0,0-5.793,2.424.327.327,0,0,1-.461-.465,9.542,9.542,0,0,1,6.264-2.614,7.883,7.883,0,0,1,5.646,2.84c4.845,5.251-.738,12.5-.8,12.569a.328.328,0,0,1-.335.116" transform="translate(-49.789 -154.376)" fill="#632114"/>
        <path id="Trazado_180831" data-name="Trazado 180831" d="M86.847,247.168a.327.327,0,0,1-.052-.62c.063-.027,6.345-2.632,9.347,2.295a.327.327,0,1,1-.559.341c-2.709-4.446-8.473-2.057-8.532-2.033a.323.323,0,0,1-.205.017" transform="translate(-58.937 -167.315)" fill="#632114"/>
        <path id="Trazado_180832" data-name="Trazado 180832" d="M273.005,259.935c.763,3.078,6.055,4.415,11.82,2.986s9.819-5.083,9.056-8.161-6.055-4.415-11.82-2.986-9.82,5.083-9.056,8.161" transform="translate(-185.744 -170.966)" fill="#dc8765"/>
        <path id="Trazado_180833" data-name="Trazado 180833" d="M144.359,263.46c-.608,3.113-5.826,4.713-11.655,3.574s-10.062-4.585-9.454-7.7,5.826-4.713,11.655-3.574,10.062,4.585,9.454,7.7" transform="translate(-83.844 -173.822)" fill="#dc8765"/>
        <path id="Trazado_180834" data-name="Trazado 180834" d="M96.275,3.607c21-4.841,41.327,2.655,48.922,6.007-.759-4.4,1.119-9.576,2.6-9.613,1.961-.049,1.765,8.6,1.659,11.239l.236.038c.786-1.985,3.193-7.279,5.891-5.452,1.838,1.245-.263,4.025-2.481,6.244,6.905,2.038,22.929,5.932,25.286,24.786,2.794,22.345-6.726,33.161-6.726,33.161s-2.857.843-13.651-2.887c-3.261-1.127-13.625-44.967-25-33.185-24.158,25.028-36.635,22.822-57.958,27.58-7.5,1.674-4.534,6.531-7.919-7.766S69.72,9.729,96.275,3.607" transform="translate(-45.108 0)" fill="#211010"/>
        <path id="Trazado_180835" data-name="Trazado 180835" d="M73.877,885.323c-3.13,17.257,6.511,167.222,6.517,170.781l38.295-1.931-.72-133.024s13.046.324,14.75,0l2.922,131.743s23.9,1.369,37.37,1.717c0,0,16.11-154.186,12.626-179.141-35.415,14.129-75.366,17.927-111.76,9.856" transform="translate(-49.855 -595.84)" fill="#acade1"/>
        <path id="Trazado_180836" data-name="Trazado 180836" d="M81.576,799.315s-3.2,16.689-6.368,34.18c36.394,8.07,76.345,4.273,111.76-9.857a188.128,188.128,0,0,0-3.989-21.482Z" transform="translate(-51.186 -544.011)" fill="#acade1"/>
        <path id="Trazado_180837" data-name="Trazado 180837" d="M378.936,1018.993a.25.25,0,0,1-.236-.237c-1.976-41.962,9.162-195.793,9.1-196.1a.249.249,0,0,1,.2-.292.244.244,0,0,1,.293.2c.058.3-11.072,154.167-9.094,196.167a.251.251,0,0,1-.238.262h-.026" transform="translate(-257.582 -559.695)" fill="#211010"/>
        <path id="Trazado_180838" data-name="Trazado 180838" d="M367.717,678.173s-8.412,19.968-27.914,29.39a51.155,51.155,0,0,0,22.12,18.542s19.466-16.167,28.035-33.378c6.913-13.885,4.834-48.025,2.36-66.98-8.712,6.351-18.213,9.8-28.268,12.027Z" transform="translate(-231.269 -425.881)" fill="#e6a07e"/>
        <path id="Trazado_180839" data-name="Trazado 180839" d="M412.94,605.571l.887,9.77c10.055-2.223,19.556-5.676,28.268-12.027-.592-4.54-1.207-8.218-1.726-10.528Z" transform="translate(-281.045 -403.449)" fill="#dc8765"/>
        <path id="Trazado_180840" data-name="Trazado 180840" d="M230.948,899.231a.25.25,0,0,1-.236-.256l1-41.463a.25.25,0,0,1,.256-.243.244.244,0,0,1,.244.256l-1,41.463a.25.25,0,0,1-.256.243h-.008" transform="translate(-157.022 -583.454)" fill="#211010"/>
        <path id="Trazado_180841" data-name="Trazado 180841" d="M232.282,915.415a.25.25,0,0,1,.028-.5c.3.017,7.335.322,8.163-7.094.852-7.646.986-20.857.988-20.99a.25.25,0,1,1,.5,0c0,.133-.136,13.37-.991,21.041-.88,7.891-8.61,7.542-8.687,7.537" transform="translate(-157.93 -603.406)" fill="#211010"/>
        <path id="Trazado_180842" data-name="Trazado 180842" d="M358.481,894.678a.236.236,0,0,1-.088-.021c-.179-.08-18.075-8.2-29.868-24.963a.25.25,0,1,1,.409-.287c11.71,16.65,29.485,24.715,29.663,24.795a.25.25,0,0,1-.116.477" transform="translate(-223.562 -591.642)" fill="#211010"/>
        <path id="Trazado_180843" data-name="Trazado 180843" d="M70.875,876.163a.25.25,0,0,1-.235-.263c.015-.259.271-.376,1.35-.862,3.726-1.682,15.066-6.8,23.606-22.473a.25.25,0,0,1,.439.238c-8.621,15.82-20.076,20.991-23.84,22.69a9.8,9.8,0,0,0-1.08.526.249.249,0,0,1-.241.145" transform="translate(-48.077 -580.163)" fill="#211010"/>
        <path id="Trazado_180844" data-name="Trazado 180844" d="M192.165,1015.666c-2.8-.16-4.408-.331-4.459-.336a.25.25,0,0,1-.221-.276.265.265,0,0,1,.276-.222,175.44,175.44,0,0,0,36.014-.679.25.25,0,1,1,.061.5,182.825,182.825,0,0,1-31.67,1.016" transform="translate(-127.6 -690.228)" fill="#211010"/>
        <path id="Trazado_180845" data-name="Trazado 180845" d="M264.971,1022.349a.255.255,0,0,1-.126-.042l-6.085-4.14a.25.25,0,1,1,.281-.414l6.085,4.14a.25.25,0,0,1-.155.456" transform="translate(-176.037 -692.65)" fill="#211010"/>
        <path id="Trazado_180846" data-name="Trazado 180846" d="M98.179,404.736l-3.342,10.556S91.62,405.2,91.26,404.13s-26.781-1.521-26.781-1.521-25.907,13.264-44.807,34.515c0,0-5.533,7.57,27.94,19.175,0,0-1.033,29.144-2.4,38.338s-6.576,41.347-6.576,41.347a67.141,67.141,0,0,0,38.779,22.022s7.357-3.373,10.681-9.926c0,0,6.541,10.91,15.663,13.538s28.492-11.859,36.581-20.668,9.265-14.642,9.265-14.642l-4.467-54.62s15.758-2.893,28.155-20.728c0,0-12.507-31.9-18.616-35.621s-36.066-10.488-36.066-10.488Z" transform="translate(-13.156 -274.014)" fill="#ffcc3e"/>
        <path id="Trazado_180847" data-name="Trazado 180847" d="M413.214,574.709l.061,4.437s20.252-4.111,31.474-16.113c0,0-.012-7.165-3.38-9.052a98.017,98.017,0,0,1-28.155,20.728" transform="translate(-281.232 -377.037)" fill="#ff6248"/>
        <path id="Trazado_180848" data-name="Trazado 180848" d="M39.863,528.74l.109,4.436s-20.4-3.333-32.068-14.9c0,0-.262-7.16,3.031-9.174A98.015,98.015,0,0,0,39.863,528.74" transform="translate(-5.376 -346.495)" fill="#ff6248"/>
        <path id="Trazado_180849" data-name="Trazado 180849" d="M185.1,388.933s-17.271-7.519-18.681-8.653a89.549,89.549,0,0,0-9.211,10.01s13.491,14.678,18.051,15.992Z" transform="translate(-106.992 -258.817)" fill="#ff6248"/>
        <path id="Trazado_180850" data-name="Trazado 180850" d="M266.267,389.947s12.86-7.484,14.39-8.45a54.23,54.23,0,0,1,10.9,12s-12.812,14.018-17.492,14.8Z" transform="translate(-181.22 -259.645)" fill="#ff6248"/>
        <path id="Trazado_180851" data-name="Trazado 180851" d="M240.584,441.77a.25.25,0,0,1,.263-.237h0a.25.25,0,0,1,.235.262l-6.741,132.787a.25.25,0,0,1-.262.237h0a.251.251,0,0,1-.235-.262" transform="translate(-159.153 -300.506)" fill="#ff6248"/>
        <path id="Trazado_180852" data-name="Trazado 180852" d="M280.088,527.575l25.041.039a2.867,2.867,0,0,1,2.853,2.632l1.644,19.907a2.868,2.868,0,0,1-1.164,2.55l-12.085,8.846a2.867,2.867,0,0,1-3.222.112l-16.01-10.09a2.867,2.867,0,0,1-1.33-2.641l1.41-18.7a2.867,2.867,0,0,1,2.864-2.652" transform="translate(-187.713 -359.066)" fill="#ff6248"/>
        <rect id="Rectángulo_45067" data-name="Rectángulo 45067" width="1" height="30.726" transform="translate(89.457 173.205) rotate(-88.298)" fill="#fff"/>
        <path id="Trazado_180853" data-name="Trazado 180853" d="M257.78,435.72a.252.252,0,0,1,.019-.087l2.2-5.248a.25.25,0,0,1,.461.193l-2.178,5.207-5.341,137.774a.25.25,0,0,1-.259.241h0a.25.25,0,0,1-.235-.259" transform="translate(-171.808 -292.814)" fill="#ff6248"/>
        <path id="Trazado_180854" data-name="Trazado 180854" d="M235.526,435.673c-5.274-.3-7.877-2.376-8.029-2.5a.25.25,0,0,1,.317-.386c.052.042,5.28,4.188,15.917,1.5a.25.25,0,0,1,.122.485,27.606,27.606,0,0,1-8.327.9" transform="translate(-154.771 -294.514)" fill="#ff6248"/>
        <path id="Trazado_180855" data-name="Trazado 180855" d="M260.783,452a1.578,1.578,0,1,1-1.485-1.665A1.578,1.578,0,0,1,260.783,452" transform="translate(-175.342 -306.491)" fill="#ff6248"/>
        <path id="Trazado_180856" data-name="Trazado 180856" d="M257.479,509.862a1.578,1.578,0,1,1-1.485-1.665,1.578,1.578,0,0,1,1.485,1.665" transform="translate(-173.093 -345.875)" fill="#ff6248"/>
        <path id="Trazado_180857" data-name="Trazado 180857" d="M254.146,568.714a1.578,1.578,0,1,1,.034-2.231,1.578,1.578,0,0,1-.034,2.231" transform="translate(-171.149 -385.22)" fill="#ff6248"/>
        <path id="Trazado_180858" data-name="Trazado 180858" d="M251.8,636.614a1.578,1.578,0,1,1,.034-2.231,1.577,1.577,0,0,1-.034,2.231" transform="translate(-169.555 -431.433)" fill="#ff6248"/>
        <path id="Trazado_180859" data-name="Trazado 180859" d="M245.71,760.623a1.578,1.578,0,1,1,.034-2.231,1.578,1.578,0,0,1-.034,2.231" transform="translate(-165.407 -515.833)" fill="#ff6248"/>
        <path id="Trazado_180860" data-name="Trazado 180860" d="M248.7,702.409a1.578,1.578,0,1,1,.034-2.231,1.578,1.578,0,0,1-.034,2.231" transform="translate(-167.446 -476.213)" fill="#ff6248"/>
        <path id="Trazado_180861" data-name="Trazado 180861" d="M242.191,834.031a1.578,1.578,0,1,1,.034-2.231,1.578,1.578,0,0,1-.034,2.231" transform="translate(-163.013 -565.794)" fill="#ff6248"/>
      </g>
    </g>
  </g>
</svg>
