<svg xmlns="http://www.w3.org/2000/svg" width="288" height="103" viewBox="0 0 288 103">
  <g id="_27" data-name="27" transform="translate(4378 5087)">
    <path id="Trazado_180924" data-name="Trazado 180924" d="M0,0H288V103H0Z" transform="translate(-4378 -5087)" fill="#ffd947"/>
    <path id="Trazado_165149" data-name="Trazado 165149" d="M10.777,11.008a4.855,4.855,0,0,1-.867,3.016,2.869,2.869,0,0,1-2.422,1.141,2.707,2.707,0,0,1-1.18-.246,2.423,2.423,0,0,1-.883-.723V18.25H3.152V6.547H5.207l.133,1a2.709,2.709,0,0,1,.9-.855,2.441,2.441,0,0,1,1.23-.3A2.813,2.813,0,0,1,9.91,7.617a5.474,5.474,0,0,1,.867,3.227ZM8.5,10.844a4.09,4.09,0,0,0-.4-1.937,1.3,1.3,0,0,0-1.219-.742A1.722,1.722,0,0,0,6,8.375a1.505,1.505,0,0,0-.574.6v3.7A1.4,1.4,0,0,0,6,13.227a1.935,1.935,0,0,0,.895.188,1.312,1.312,0,0,0,1.215-.648A3.423,3.423,0,0,0,8.5,11.008ZM17.168,15a4.8,4.8,0,0,1-.215-.609,4.239,4.239,0,0,1-.129-.656,3.127,3.127,0,0,1-.93,1.023,2.33,2.33,0,0,1-1.375.406,2.855,2.855,0,0,1-2.047-.684,2.449,2.449,0,0,1-.719-1.863,2.229,2.229,0,0,1,.957-1.926,4.78,4.78,0,0,1,2.793-.684h1.281V9.336a1.315,1.315,0,0,0-.32-.945,1.257,1.257,0,0,0-.953-.336,1.239,1.239,0,0,0-.855.27.941.941,0,0,0-.3.738h-2.2l-.016-.047a2.144,2.144,0,0,1,.934-1.848,4.055,4.055,0,0,1,2.582-.777,3.784,3.784,0,0,1,2.465.766,2.667,2.667,0,0,1,.941,2.2v3.492a6.6,6.6,0,0,0,.09,1.117A5.606,5.606,0,0,0,19.441,15Zm-2.086-1.523a1.944,1.944,0,0,0,1.063-.3,1.6,1.6,0,0,0,.641-.687V11.3H15.5a1.519,1.519,0,0,0-1.1.359,1.181,1.181,0,0,0-.371.883.881.881,0,0,0,.277.684A1.1,1.1,0,0,0,15.082,13.477Zm10.266-.82a.787.787,0,0,0-.363-.645,3.69,3.69,0,0,0-1.348-.473,5.375,5.375,0,0,1-2.254-.9,1.962,1.962,0,0,1-.77-1.633,2.329,2.329,0,0,1,.922-1.852,3.717,3.717,0,0,1,2.453-.766,4.011,4.011,0,0,1,2.566.766,2.237,2.237,0,0,1,.926,1.906l-.016.047h-2.2a1.106,1.106,0,0,0-.328-.828,1.534,1.534,0,0,0-1.812-.047.85.85,0,0,0-.32.672.759.759,0,0,0,.332.637,3.7,3.7,0,0,0,1.348.441A5.484,5.484,0,0,1,26.8,10.9a2.014,2.014,0,0,1,.762,1.668,2.231,2.231,0,0,1-.977,1.867A4.215,4.215,0,0,1,24,15.164a3.918,3.918,0,0,1-2.668-.855,2.392,2.392,0,0,1-.934-1.949l.016-.047H22.5a1.186,1.186,0,0,0,.445.984,1.838,1.838,0,0,0,1.1.3,1.567,1.567,0,0,0,.965-.254A.824.824,0,0,0,25.348,12.656Zm6.414-8.18v2.07h1.43v1.6h-1.43v4.3a.982.982,0,0,0,.207.7.727.727,0,0,0,.543.211,2.178,2.178,0,0,0,.313-.02,2.632,2.632,0,0,0,.3-.066l.188,1.648a4.618,4.618,0,0,1-.668.176,3.982,3.982,0,0,1-.707.059,2.431,2.431,0,0,1-1.816-.648,2.843,2.843,0,0,1-.637-2.055V8.148H28.254v-1.6h1.234V4.477Z" transform="translate(-4345 -5014)" fill="#12263f"/>
    <path id="Trazado_165148" data-name="Trazado 165148" d="M8.543,6.547l.1,1.211A3.092,3.092,0,0,1,9.684,6.75a2.7,2.7,0,0,1,1.383-.359,2.513,2.513,0,0,1,2,.824,3.908,3.908,0,0,1,.719,2.605V15H11.5V9.828a2.024,2.024,0,0,0-.316-1.285,1.166,1.166,0,0,0-.949-.379,1.992,1.992,0,0,0-.895.191,1.746,1.746,0,0,0-.637.527V15H6.418V6.547ZM15.137,10.7a4.536,4.536,0,0,1,1.055-3.1,3.676,3.676,0,0,1,2.922-1.207,3.715,3.715,0,0,1,2.938,1.2,4.512,4.512,0,0,1,1.063,3.1v.164a4.519,4.519,0,0,1-1.059,3.105,3.7,3.7,0,0,1-2.926,1.2,3.709,3.709,0,0,1-2.934-1.2,4.519,4.519,0,0,1-1.059-3.105Zm2.273.164a3.677,3.677,0,0,0,.406,1.855,1.561,1.561,0,0,0,2.605,0,3.653,3.653,0,0,0,.41-1.852V10.7a3.616,3.616,0,0,0-.414-1.836,1.4,1.4,0,0,0-1.3-.711,1.384,1.384,0,0,0-1.293.715,3.648,3.648,0,0,0-.41,1.832Zm14.461,1h.047l1.023-5.312H35.16L33.012,15H31.105l-1.57-4.875h-.047L27.918,15h-1.9L23.871,6.547H26.09l1.039,5.289h.047l1.578-5.289h1.523Z" transform="translate(-4228.289 -5014)" fill="#12263f"/>
    <path id="Trazado_180925" data-name="Trazado 180925" d="M0,0H223" transform="translate(-4349.5 -5019.5)" fill="none" stroke="#3c3fa7" stroke-width="1"/>
    <path id="Trazado_165137" data-name="Trazado 165137" d="M0,38.38V53" transform="translate(-4325 -5072.5)" fill="none" stroke="#3c3fa7" stroke-width="1" stroke-dasharray="4"/>
    <path id="Trazado_180926" data-name="Trazado 180926" d="M0,0V53" transform="translate(-4207.5 -5072.5)" fill="none" stroke="#3c3fa7" stroke-width="1"/>
    <path id="Trazado_180927" data-name="Trazado 180927" d="M0,0H104.672" transform="translate(-4319.5 -5026.5)" fill="none" stroke="#3c3fa7" stroke-width="1"/>
    <path id="Trazado_180928" data-name="Trazado 180928" d="M3.5,0,7,5H0Z" transform="translate(-4209.828 -5030) rotate(90)" fill="#3c3fa7"/>
    <path id="Trazado_178662" data-name="Trazado 178662" d="M4.055-5.766H4.1L5.4-8.453H7.977L5.43-4.273,8.063,0H5.492L4.109-2.8,2.727,0H.148L2.781-4.273.227-8.453H2.789Z" transform="translate(-4329.891 -5015.273)" fill="#12263f"/>
  </g>
</svg>
