<svg xmlns="http://www.w3.org/2000/svg" width="505" height="343.755" viewBox="0 0 505 343.755">
  <g id="_31" data-name="31" transform="translate(-915 -7215)">
    <path id="AdobeStock_306171228" d="M0,0H505V343.755H0Z" transform="translate(915 7215)" fill="#fff0f1"/>
    <path id="Trazado_179327" data-name="Trazado 179327" d="M-87.8-2.28A2.109,2.109,0,0,0-86.379-2.8a2.183,2.183,0,0,0,.736-1.359h2.976l.022.067A4.526,4.526,0,0,1-84.47-.971,5.916,5.916,0,0,1-88.17.236,4.445,4.445,0,0,1-92.028-1.51,5.728,5.728,0,0,1-92.887-5.9l.045-.337a7.651,7.651,0,0,1,2.123-4.458,6.016,6.016,0,0,1,4.414-1.685,4.364,4.364,0,0,1,3.352,1.292,3.731,3.731,0,0,1,.848,3.369l-.022.056h-3a2.211,2.211,0,0,0-.253-1.578,1.432,1.432,0,0,0-1.3-.612,2.236,2.236,0,0,0-1.937,1.033,6.1,6.1,0,0,0-.949,2.583l-.045.337a5.217,5.217,0,0,0,.124,2.645A1.608,1.608,0,0,0-87.8-2.28Zm6.873-3.908a7.546,7.546,0,0,1,2.173-4.5,6.19,6.19,0,0,1,4.464-1.685,4.576,4.576,0,0,1,3.908,1.752,5.728,5.728,0,0,1,.921,4.436l-.034.236a7.636,7.636,0,0,1-2.19,4.515A6.208,6.208,0,0,1-76.154.236,4.582,4.582,0,0,1-80.062-1.51a5.666,5.666,0,0,1-.9-4.442Zm3.234.236a4.863,4.863,0,0,0,.168,2.7,1.716,1.716,0,0,0,1.741.977A2.39,2.39,0,0,0-73.8-3.3a5.742,5.742,0,0,0,1.022-2.65l.034-.236a5.016,5.016,0,0,0-.2-2.667,1.691,1.691,0,0,0-1.724-.994,2.388,2.388,0,0,0-2,1.039,5.632,5.632,0,0,0-1,2.622ZM-63.6-10.613a4.874,4.874,0,0,1,1.656-1.308,4.809,4.809,0,0,1,2.106-.455,3.277,3.277,0,0,1,1.87.517,2.607,2.607,0,0,1,1.05,1.55,5.074,5.074,0,0,1,1.69-1.527,4.535,4.535,0,0,1,2.218-.539,2.957,2.957,0,0,1,2.617,1.286,5.45,5.45,0,0,1,.483,3.88L-50.986,0h-3.279l1.078-7.221a3.259,3.259,0,0,0-.129-2.061,1.391,1.391,0,0,0-1.263-.545,2.451,2.451,0,0,0-1.235.32,3.042,3.042,0,0,0-.966.882q-.011.157-.028.314t-.039.326L-58.05,0h-3.268l1.078-7.221a3.2,3.2,0,0,0-.135-2.044,1.389,1.389,0,0,0-1.269-.562,2.67,2.67,0,0,0-1.19.264,2.866,2.866,0,0,0-.943.747L-65.1,0h-3.268l1.819-12.151h3.043Zm26.953,4.874a8.079,8.079,0,0,1-1.9,4.385A4.861,4.861,0,0,1-42.271.236,3.342,3.342,0,0,1-43.894-.14a2.983,2.983,0,0,1-1.129-1.095L-45.9,4.672h-3.268l2.516-16.823H-43.7l-.022,1.438a4.77,4.77,0,0,1,1.482-1.235,3.9,3.9,0,0,1,1.831-.427,3.421,3.421,0,0,1,3.189,1.78,7.087,7.087,0,0,1,.606,4.621Zm-3.246-.236a5.608,5.608,0,0,0-.152-2.808,1.565,1.565,0,0,0-1.6-1.044,2.6,2.6,0,0,0-1.292.32,2.913,2.913,0,0,0-.977.9l-.8,5.256a1.6,1.6,0,0,0,.708.8,2.542,2.542,0,0,0,1.247.27,2.239,2.239,0,0,0,1.864-.943,5.5,5.5,0,0,0,.966-2.516ZM-32.041,0H-35.32l2.628-17.52h3.279Zm7.929.236a4.722,4.722,0,0,1-3.942-1.69,5.279,5.279,0,0,1-.932-4.273l.067-.449a7.68,7.68,0,0,1,2.139-4.52,5.909,5.909,0,0,1,4.341-1.679,4.063,4.063,0,0,1,3.487,1.516A5.2,5.2,0,0,1-18.2-6.839l-.247,1.7h-7.255l-.022.056a2.85,2.85,0,0,0,.427,2.05,2.223,2.223,0,0,0,1.909.758,7.2,7.2,0,0,0,1.9-.23,8.666,8.666,0,0,0,1.707-.679l.584,2.021a7.45,7.45,0,0,1-2.134,1A9.308,9.308,0,0,1-24.112.236Zm1.3-10.085a2.1,2.1,0,0,0-1.589.685,4.07,4.07,0,0,0-.938,1.786l.022.067h3.976l.034-.247a2.622,2.622,0,0,0-.174-1.7A1.4,1.4,0,0,0-22.809-9.849ZM-11.5-8.3l.067.011L-9-12.151H-5.29l-4.56,6.008L-6.985,0H-10.68l-1.381-4.032L-14.656,0h-3.706l4.706-6.143-2.774-6.008h3.684ZM7.255-3.369A.956.956,0,0,0,6.867-4.3,4.949,4.949,0,0,0,5.02-4.975,6.684,6.684,0,0,1,1.965-6.267a2.474,2.474,0,0,1-.786-2.347,3.928,3.928,0,0,1,1.69-2.69,6.082,6.082,0,0,1,3.689-1.073,5.124,5.124,0,0,1,3.487,1.112,2.785,2.785,0,0,1,.994,2.729l-.022.067H7.85a1.426,1.426,0,0,0-.3-1.2,1.674,1.674,0,0,0-1.3-.449,2.108,2.108,0,0,0-1.286.393,1.419,1.419,0,0,0-.612.966.939.939,0,0,0,.343.921,4.973,4.973,0,0,0,1.859.629A6.787,6.787,0,0,1,9.686-5.89a2.564,2.564,0,0,1,.769,2.4A3.8,3.8,0,0,1,8.676-.775,6.869,6.869,0,0,1,4.818.236,4.968,4.968,0,0,1,1.2-1.011,2.984,2.984,0,0,1,.2-3.8l.034-.067h3a1.5,1.5,0,0,0,.444,1.415A2.368,2.368,0,0,0,5.2-2.01a2.484,2.484,0,0,0,1.415-.371A1.4,1.4,0,0,0,7.255-3.369Zm10,3.6a4.722,4.722,0,0,1-3.942-1.69,5.279,5.279,0,0,1-.932-4.273l.067-.449a7.68,7.68,0,0,1,2.139-4.52,5.909,5.909,0,0,1,4.341-1.679A4.063,4.063,0,0,1,22.41-10.86a5.2,5.2,0,0,1,.747,4.021l-.247,1.7H15.655l-.022.056a2.85,2.85,0,0,0,.427,2.05,2.223,2.223,0,0,0,1.909.758,7.2,7.2,0,0,0,1.9-.23,8.666,8.666,0,0,0,1.707-.679l.584,2.021a7.45,7.45,0,0,1-2.134,1A9.308,9.308,0,0,1,17.25.236Zm1.3-10.085a2.1,2.1,0,0,0-1.589.685,4.07,4.07,0,0,0-.938,1.786l.022.067h3.976l.034-.247a2.622,2.622,0,0,0-.174-1.7A1.4,1.4,0,0,0,18.553-9.849Zm10.208-.629a5.208,5.208,0,0,1,1.7-1.4,4.473,4.473,0,0,1,2.066-.494,3.1,3.1,0,0,1,2.662,1.2,5,5,0,0,1,.505,3.729L34.579,0H31.288L32.4-7.435a2.736,2.736,0,0,0-.163-1.87,1.474,1.474,0,0,0-1.3-.522,3.027,3.027,0,0,0-1.32.286,3.16,3.16,0,0,0-1.039.792L27.268,0H23.988l1.819-12.151h3.055Zm14.465-4.649-.449,2.976h2.055l-.337,2.3H42.429l-.921,6.188a1.3,1.3,0,0,0,.135,1.028.926.926,0,0,0,.741.286,3.409,3.409,0,0,0,.455-.028,3.548,3.548,0,0,0,.455-.1L43.2-.1a7.312,7.312,0,0,1-.994.253,5.917,5.917,0,0,1-1.028.084A3.031,3.031,0,0,1,38.74-.708a3.607,3.607,0,0,1-.5-2.942l.921-6.2H37.4l.337-2.3h1.774l.449-2.976ZM50.268.236a4.722,4.722,0,0,1-3.942-1.69,5.279,5.279,0,0,1-.932-4.273l.067-.449A7.68,7.68,0,0,1,47.6-10.7a5.909,5.909,0,0,1,4.341-1.679,4.063,4.063,0,0,1,3.487,1.516,5.2,5.2,0,0,1,.747,4.021l-.247,1.7H48.673l-.022.056a2.85,2.85,0,0,0,.427,2.05,2.223,2.223,0,0,0,1.909.758,7.2,7.2,0,0,0,1.9-.23,8.666,8.666,0,0,0,1.707-.679l.584,2.021a7.45,7.45,0,0,1-2.134,1A9.308,9.308,0,0,1,50.268.236Zm1.3-10.085a2.1,2.1,0,0,0-1.589.685,4.07,4.07,0,0,0-.938,1.786l.022.067h3.976l.034-.247a2.622,2.622,0,0,0-.174-1.7A1.4,1.4,0,0,0,51.57-9.849Zm10.208-.629a5.208,5.208,0,0,1,1.7-1.4,4.473,4.473,0,0,1,2.066-.494,3.1,3.1,0,0,1,2.662,1.2,5,5,0,0,1,.505,3.729L67.6,0H64.306l1.112-7.435a2.736,2.736,0,0,0-.163-1.87,1.474,1.474,0,0,0-1.3-.522,3.027,3.027,0,0,0-1.32.286,3.16,3.16,0,0,0-1.039.792L60.285,0H57.006l1.819-12.151H61.88Zm13.679,8.2A2.109,2.109,0,0,0,76.878-2.8a2.183,2.183,0,0,0,.736-1.359H80.59l.022.067A4.526,4.526,0,0,1,78.787-.971a5.916,5.916,0,0,1-3.7,1.207A4.445,4.445,0,0,1,71.229-1.51,5.728,5.728,0,0,1,70.37-5.9l.045-.337a7.651,7.651,0,0,1,2.123-4.458,6.016,6.016,0,0,1,4.414-1.685A4.364,4.364,0,0,1,80.3-11.084a3.731,3.731,0,0,1,.848,3.369l-.022.056h-3a2.211,2.211,0,0,0-.253-1.578,1.432,1.432,0,0,0-1.3-.612,2.236,2.236,0,0,0-1.937,1.033,6.1,6.1,0,0,0-.949,2.583l-.045.337a5.217,5.217,0,0,0,.124,2.645A1.608,1.608,0,0,0,75.458-2.28ZM87.137.236A4.722,4.722,0,0,1,83.2-1.454a5.279,5.279,0,0,1-.932-4.273l.067-.449A7.68,7.68,0,0,1,84.47-10.7a5.909,5.909,0,0,1,4.341-1.679A4.063,4.063,0,0,1,92.3-10.86a5.2,5.2,0,0,1,.747,4.021l-.247,1.7H85.542l-.022.056a2.85,2.85,0,0,0,.427,2.05,2.223,2.223,0,0,0,1.909.758,7.2,7.2,0,0,0,1.9-.23,8.666,8.666,0,0,0,1.707-.679l.584,2.021a7.45,7.45,0,0,1-2.134,1A9.308,9.308,0,0,1,87.137.236Zm1.3-10.085a2.1,2.1,0,0,0-1.589.685,4.07,4.07,0,0,0-.938,1.786l.022.067h3.976l.034-.247a2.622,2.622,0,0,0-.174-1.7A1.4,1.4,0,0,0,88.44-9.849Z" transform="translate(1168 7272)" fill="#12263f"/>
    <path id="Trazado_179326" data-name="Trazado 179326" d="M-75.7,0h-2.566l1.916-12.8h2.566Zm6.038-8.2a4.076,4.076,0,0,1,1.327-1.1,3.5,3.5,0,0,1,1.617-.387,2.422,2.422,0,0,1,2.083.94,3.917,3.917,0,0,1,.4,2.918L-65.114,0h-2.575l.87-5.818a2.141,2.141,0,0,0-.127-1.463,1.153,1.153,0,0,0-1.015-.409,2.369,2.369,0,0,0-1.033.224,2.473,2.473,0,0,0-.813.62L-70.835,0H-73.4l1.424-9.51h2.391Zm6.776,3.524a7.031,7.031,0,0,1,1.507-3.669,3.737,3.737,0,0,1,2.949-1.34,2.281,2.281,0,0,1,1.217.321,2.662,2.662,0,0,1,.883.918l.791-5.265h2.575L-55.024,0h-2.188l-.044-1.169A3.933,3.933,0,0,1-58.469-.163a3.116,3.116,0,0,1-1.459.347,2.735,2.735,0,0,1-2.492-1.3,4.85,4.85,0,0,1-.5-3.375Zm2.531.185A3.585,3.585,0,0,0-60.245-2.5a1.257,1.257,0,0,0,1.274.694,2.148,2.148,0,0,0,1-.233,2.235,2.235,0,0,0,.778-.672l.606-4.025a1.563,1.563,0,0,0-.567-.7,1.612,1.612,0,0,0-.918-.25,1.743,1.743,0,0,0-1.481.848,5.071,5.071,0,0,0-.778,2.167ZM-48.942.185a3.7,3.7,0,0,1-3.085-1.323,4.132,4.132,0,0,1-.729-3.344l.053-.352a6.01,6.01,0,0,1,1.674-3.538,4.624,4.624,0,0,1,3.4-1.314A3.18,3.18,0,0,1-44.9-8.5a4.065,4.065,0,0,1,.584,3.146l-.193,1.327H-50.19l-.018.044a2.23,2.23,0,0,0,.334,1.6,1.74,1.74,0,0,0,1.494.593,5.638,5.638,0,0,0,1.485-.18A6.782,6.782,0,0,0-45.558-2.5L-45.1-.914a5.83,5.83,0,0,1-1.67.782A7.285,7.285,0,0,1-48.942.185Zm1.02-7.893a1.642,1.642,0,0,0-1.244.536,3.185,3.185,0,0,0-.734,1.4l.018.053h3.111l.026-.193a2.052,2.052,0,0,0-.136-1.327A1.1,1.1,0,0,0-47.922-7.708ZM-34.37-4.491a6.323,6.323,0,0,1-1.485,3.432A3.8,3.8,0,0,1-38.773.185a2.615,2.615,0,0,1-1.27-.294,2.335,2.335,0,0,1-.883-.857l-.686,4.623h-2.558L-42.2-9.51h2.312l-.018,1.125a3.733,3.733,0,0,1,1.16-.967,3.056,3.056,0,0,1,1.433-.334,2.677,2.677,0,0,1,2.5,1.393,5.546,5.546,0,0,1,.475,3.617Zm-2.54-.185a4.389,4.389,0,0,0-.119-2.2,1.225,1.225,0,0,0-1.252-.817,2.036,2.036,0,0,0-1.011.25,2.279,2.279,0,0,0-.765.708l-.624,4.113A1.255,1.255,0,0,0-40.126-2a1.99,1.99,0,0,0,.976.211,1.752,1.752,0,0,0,1.459-.738,4.308,4.308,0,0,0,.756-1.969Zm7.541,4.86a3.7,3.7,0,0,1-3.085-1.323,4.132,4.132,0,0,1-.729-3.344l.053-.352a6.01,6.01,0,0,1,1.674-3.538,4.624,4.624,0,0,1,3.4-1.314A3.18,3.18,0,0,1-25.33-8.5a4.065,4.065,0,0,1,.584,3.146l-.193,1.327h-5.678l-.018.044a2.23,2.23,0,0,0,.334,1.6,1.74,1.74,0,0,0,1.494.593,5.638,5.638,0,0,0,1.485-.18A6.782,6.782,0,0,0-25.985-2.5l.457,1.582a5.83,5.83,0,0,1-1.67.782A7.285,7.285,0,0,1-29.369.185Zm1.02-7.893a1.642,1.642,0,0,0-1.244.536,3.185,3.185,0,0,0-.734,1.4l.018.053H-27.2l.026-.193a2.052,2.052,0,0,0-.136-1.327A1.1,1.1,0,0,0-28.349-7.708ZM-20.36-8.2a4.076,4.076,0,0,1,1.327-1.1,3.5,3.5,0,0,1,1.617-.387,2.422,2.422,0,0,1,2.083.94,3.917,3.917,0,0,1,.4,2.918L-15.807,0h-2.575l.87-5.818a2.141,2.141,0,0,0-.127-1.463,1.153,1.153,0,0,0-1.015-.409,2.369,2.369,0,0,0-1.033.224,2.473,2.473,0,0,0-.813.62L-21.529,0H-24.1l1.424-9.51h2.391Zm6.776,3.524a7.031,7.031,0,0,1,1.507-3.669,3.737,3.737,0,0,1,2.949-1.34,2.281,2.281,0,0,1,1.217.321,2.662,2.662,0,0,1,.883.918l.791-5.265h2.575L-5.717,0H-7.906L-7.95-1.169A3.933,3.933,0,0,1-9.163-.163a3.116,3.116,0,0,1-1.459.347,2.735,2.735,0,0,1-2.492-1.3,4.85,4.85,0,0,1-.5-3.375Zm2.531.185A3.585,3.585,0,0,0-10.938-2.5a1.257,1.257,0,0,0,1.274.694,2.148,2.148,0,0,0,1-.233,2.235,2.235,0,0,0,.778-.672l.606-4.025a1.563,1.563,0,0,0-.567-.7,1.612,1.612,0,0,0-.918-.25,1.743,1.743,0,0,0-1.481.848,5.071,5.071,0,0,0-.778,2.167ZM.365.185A3.7,3.7,0,0,1-2.72-1.138,4.132,4.132,0,0,1-3.45-4.482l.053-.352A6.01,6.01,0,0,1-1.723-8.372a4.624,4.624,0,0,1,3.4-1.314A3.18,3.18,0,0,1,4.4-8.5a4.065,4.065,0,0,1,.584,3.146L4.794-4.025H-.883L-.9-3.981a2.23,2.23,0,0,0,.334,1.6,1.74,1.74,0,0,0,1.494.593,5.638,5.638,0,0,0,1.485-.18A6.782,6.782,0,0,0,3.749-2.5L4.206-.914a5.83,5.83,0,0,1-1.67.782A7.285,7.285,0,0,1,.365.185Zm1.02-7.893a1.642,1.642,0,0,0-1.244.536,3.185,3.185,0,0,0-.734,1.4l.018.053H2.536l.026-.193a2.052,2.052,0,0,0-.136-1.327A1.1,1.1,0,0,0,1.384-7.708ZM9.374-8.2A4.076,4.076,0,0,1,10.7-9.3a3.5,3.5,0,0,1,1.617-.387,2.422,2.422,0,0,1,2.083.94,3.917,3.917,0,0,1,.4,2.918L13.926,0H11.351l.87-5.818a2.141,2.141,0,0,0-.127-1.463,1.153,1.153,0,0,0-1.015-.409,2.369,2.369,0,0,0-1.033.224,2.473,2.473,0,0,0-.813.62L8.2,0H5.638L7.062-9.51H9.453Zm11.32-3.639L20.342-9.51h1.608l-.264,1.8H20.07l-.721,4.843a1.017,1.017,0,0,0,.105.8.725.725,0,0,0,.58.224,2.668,2.668,0,0,0,.356-.022,2.777,2.777,0,0,0,.356-.075l-.07,1.854a5.722,5.722,0,0,1-.778.2,4.631,4.631,0,0,1-.8.066,2.372,2.372,0,0,1-1.912-.738,2.823,2.823,0,0,1-.391-2.3l.721-4.852h-1.38l.264-1.8h1.389l.352-2.329ZM30.828-1.784a1.65,1.65,0,0,0,1.112-.4,1.709,1.709,0,0,0,.576-1.063h2.329l.018.053A3.542,3.542,0,0,1,33.434-.76a4.63,4.63,0,0,1-2.9.945,3.479,3.479,0,0,1-3.019-1.367,4.483,4.483,0,0,1-.672-3.432l.035-.264a5.987,5.987,0,0,1,1.661-3.489A4.708,4.708,0,0,1,32-9.686,3.416,3.416,0,0,1,34.62-8.675a2.92,2.92,0,0,1,.664,2.637l-.018.044H32.919a1.73,1.73,0,0,0-.2-1.235,1.121,1.121,0,0,0-1.015-.479A1.75,1.75,0,0,0,30.19-6.9a4.778,4.778,0,0,0-.743,2.021l-.035.264a4.083,4.083,0,0,0,.1,2.07A1.258,1.258,0,0,0,30.828-1.784ZM38.571,0H36l2.057-13.711h2.566Zm7.717,0a4.167,4.167,0,0,1-.141-.69,5.192,5.192,0,0,1-.035-.743,4.368,4.368,0,0,1-1.217,1.16,2.935,2.935,0,0,1-1.613.457A2.807,2.807,0,0,1,41.12-.593,2.378,2.378,0,0,1,40.6-2.681,2.967,2.967,0,0,1,41.99-4.874a6.113,6.113,0,0,1,3.27-.743H46.7l.114-.756a1.33,1.33,0,0,0-.2-1.077,1.265,1.265,0,0,0-1.024-.365,1.6,1.6,0,0,0-1,.3,1.2,1.2,0,0,0-.47.831h-2.47l-.009-.053A2.894,2.894,0,0,1,43-8.833a5.191,5.191,0,0,1,3.037-.853,3.737,3.737,0,0,1,2.61.87,2.594,2.594,0,0,1,.721,2.461l-.589,3.929A7.041,7.041,0,0,0,48.7-1.16,6.172,6.172,0,0,0,48.845,0ZM44.2-1.714a2.435,2.435,0,0,0,1.23-.338,2.291,2.291,0,0,0,.853-.778l.2-1.336H45.04a1.933,1.933,0,0,0-1.279.413,1.569,1.569,0,0,0-.584.984.857.857,0,0,0,.193.778A1.112,1.112,0,0,0,44.2-1.714Zm12.19.352A3.787,3.787,0,0,1,55.1-.211a3.425,3.425,0,0,1-1.644.4A2.475,2.475,0,0,1,51.289-.844,4.385,4.385,0,0,1,50.884-4L51.71-9.51h2.558l-.826,5.528a2.913,2.913,0,0,0,.075,1.731,1.063,1.063,0,0,0,.989.439,2.644,2.644,0,0,0,1.077-.211,2.3,2.3,0,0,0,.822-.606L57.432-9.51H60L58.575,0H56.448Zm9.677-1.274a.748.748,0,0,0-.3-.729,3.873,3.873,0,0,0-1.446-.527A5.231,5.231,0,0,1,61.923-4.9a1.936,1.936,0,0,1-.615-1.837,3.074,3.074,0,0,1,1.323-2.1,4.76,4.76,0,0,1,2.887-.839,4.01,4.01,0,0,1,2.729.87,2.179,2.179,0,0,1,.778,2.136l-.018.053H66.529a1.116,1.116,0,0,0-.237-.94,1.31,1.31,0,0,0-1.02-.352,1.649,1.649,0,0,0-1.006.308,1.11,1.11,0,0,0-.479.756.735.735,0,0,0,.268.721,3.892,3.892,0,0,0,1.455.492A5.312,5.312,0,0,1,67.966-4.61a2.007,2.007,0,0,1,.6,1.876A2.976,2.976,0,0,1,67.175-.606a5.375,5.375,0,0,1-3.019.791,3.888,3.888,0,0,1-2.83-.976,2.335,2.335,0,0,1-.782-2.18l.026-.053h2.347a1.172,1.172,0,0,0,.347,1.107,1.853,1.853,0,0,0,1.191.343,1.944,1.944,0,0,0,1.107-.29A1.092,1.092,0,0,0,66.063-2.637ZM73.885.185A3.7,3.7,0,0,1,70.8-1.138a4.132,4.132,0,0,1-.729-3.344l.053-.352A6.01,6.01,0,0,1,71.8-8.372a4.624,4.624,0,0,1,3.4-1.314A3.18,3.18,0,0,1,77.924-8.5a4.065,4.065,0,0,1,.584,3.146l-.193,1.327H72.637l-.018.044a2.23,2.23,0,0,0,.334,1.6,1.74,1.74,0,0,0,1.494.593,5.638,5.638,0,0,0,1.485-.18A6.782,6.782,0,0,0,77.269-2.5l.457,1.582a5.83,5.83,0,0,1-1.67.782A7.285,7.285,0,0,1,73.885.185ZM74.9-7.708a1.642,1.642,0,0,0-1.244.536,3.185,3.185,0,0,0-.734,1.4l.018.053h3.111l.026-.193a2.052,2.052,0,0,0-.136-1.327A1.1,1.1,0,0,0,74.9-7.708Z" transform="translate(1290 7317.415)" fill="#fc5f65"/>
    <path id="Trazado_179324" data-name="Trazado 179324" d="M7.2,12.07H2.922L1.906,15H.336l4.1-11.375h1.32L9.773,15H8.2ZM3.367,10.781h3.4L5.109,5.9H5.063ZM16.516,13.75A2.863,2.863,0,0,1,15.492,14.8a2.8,2.8,0,0,1-1.445.367,2.716,2.716,0,0,1-2.156-.883,4.1,4.1,0,0,1-.773-2.75V6.547h1.539v5a3.147,3.147,0,0,0,.4,1.859,1.481,1.481,0,0,0,1.242.508,2.531,2.531,0,0,0,1.355-.332,2.077,2.077,0,0,0,.809-.941V6.547H18V15H16.617Zm5.1-7.2L21.727,7.8a3.069,3.069,0,0,1,1.059-1.043,2.824,2.824,0,0,1,1.449-.371,2.759,2.759,0,0,1,2.117.8,3.515,3.515,0,0,1,.75,2.473V15H25.563V9.7a2.287,2.287,0,0,0-.441-1.586,1.768,1.768,0,0,0-1.348-.469,2.386,2.386,0,0,0-1.207.285,2.072,2.072,0,0,0-.785.8V15H20.242V6.547Zm7.367,4.383a5.641,5.641,0,0,1,.871-3.289A2.807,2.807,0,0,1,32.3,6.391a2.984,2.984,0,0,1,1.352.293,2.8,2.8,0,0,1,1,.848l.219-.984h1.18v11.7H34.508V14.2a2.637,2.637,0,0,1-.961.719,3.135,3.135,0,0,1-1.266.242,2.9,2.9,0,0,1-2.422-1.121,4.659,4.659,0,0,1-.875-2.949Zm1.539.164a3.684,3.684,0,0,0,.527,2.074,1.811,1.811,0,0,0,1.621.793,2,2,0,0,0,1.082-.281,2.312,2.312,0,0,0,.754-.789V8.625a2.329,2.329,0,0,0-.754-.75A2.011,2.011,0,0,0,32.688,7.6a1.754,1.754,0,0,0-1.633.934,4.8,4.8,0,0,0-.531,2.395ZM43.8,13.75A2.863,2.863,0,0,1,42.773,14.8a2.8,2.8,0,0,1-1.445.367,2.716,2.716,0,0,1-2.156-.883,4.1,4.1,0,0,1-.773-2.75V6.547h1.539v5a3.147,3.147,0,0,0,.4,1.859,1.481,1.481,0,0,0,1.242.508,2.531,2.531,0,0,0,1.355-.332,2.077,2.077,0,0,0,.809-.941V6.547h1.539V15H43.9Zm7.227,1.414A3.576,3.576,0,0,1,48.184,14a4.48,4.48,0,0,1-1.02-3.062v-.344a4.386,4.386,0,0,1,1.051-3.012,3.3,3.3,0,0,1,2.566-1.191,3.067,3.067,0,0,1,2.543,1.055,4.345,4.345,0,0,1,.848,2.8v.813H48.766l-.023.039a3.494,3.494,0,0,0,.563,2.066,1.965,1.965,0,0,0,1.719.793,3.872,3.872,0,0,0,1.371-.223,3.061,3.061,0,0,0,1.012-.613l.6,1a3.7,3.7,0,0,1-1.2.738A4.762,4.762,0,0,1,51.023,15.164ZM50.781,7.6a1.673,1.673,0,0,0-1.332.621,2.938,2.938,0,0,0-.645,1.59l.016.039h3.813V9.727A2.462,2.462,0,0,0,52.18,8.2,1.638,1.638,0,0,0,50.781,7.6ZM61.25,6.547l.109,1.109a2.871,2.871,0,0,1,1.051-.934,3.158,3.158,0,0,1,1.48-.332,2.615,2.615,0,0,1,1.449.391,2.363,2.363,0,0,1,.91,1.172,3.162,3.162,0,0,1,1.059-1.145,2.769,2.769,0,0,1,1.527-.418,2.531,2.531,0,0,1,2.039.887,4.051,4.051,0,0,1,.75,2.668V15H70.086V9.93a2.81,2.81,0,0,0-.43-1.77,1.567,1.567,0,0,0-1.281-.52,1.631,1.631,0,0,0-1.277.547,2.381,2.381,0,0,0-.574,1.383V15H64.977V9.93a2.772,2.772,0,0,0-.441-1.738,1.532,1.532,0,0,0-1.27-.551,2.115,2.115,0,0,0-1.156.289,1.867,1.867,0,0,0-.7.813V15H59.875V6.547Zm16.109,8.617A3.576,3.576,0,0,1,74.52,14a4.48,4.48,0,0,1-1.02-3.062v-.344a4.386,4.386,0,0,1,1.051-3.012,3.3,3.3,0,0,1,2.566-1.191A3.067,3.067,0,0,1,79.66,7.445a4.345,4.345,0,0,1,.848,2.8v.813H75.1l-.023.039a3.494,3.494,0,0,0,.563,2.066,1.965,1.965,0,0,0,1.719.793,3.872,3.872,0,0,0,1.371-.223,3.061,3.061,0,0,0,1.012-.613l.6,1a3.7,3.7,0,0,1-1.2.738A4.762,4.762,0,0,1,77.359,15.164ZM77.117,7.6a1.673,1.673,0,0,0-1.332.621,2.938,2.938,0,0,0-.645,1.59l.016.039h3.813V9.727A2.462,2.462,0,0,0,78.516,8.2,1.638,1.638,0,0,0,77.117,7.6Zm8.82,3.328a5.641,5.641,0,0,1,.871-3.289,2.8,2.8,0,0,1,2.434-1.25,2.966,2.966,0,0,1,1.414.324,2.845,2.845,0,0,1,1.023.934l.188-1.1h1.227v8.5a3.225,3.225,0,0,1-.945,2.5,3.884,3.884,0,0,1-2.727.871,5.717,5.717,0,0,1-1.316-.168,5.147,5.147,0,0,1-1.246-.457l.234-1.2a4.45,4.45,0,0,0,1.074.379,5.517,5.517,0,0,0,1.238.145,2.242,2.242,0,0,0,1.637-.512,2.12,2.12,0,0,0,.512-1.559v-.961a2.725,2.725,0,0,1-.992.8,3.091,3.091,0,0,1-1.336.273,2.89,2.89,0,0,1-2.418-1.121,4.674,4.674,0,0,1-.871-2.949Zm1.539.164A3.592,3.592,0,0,0,88,13.141a1.817,1.817,0,0,0,1.617.773,2.034,2.034,0,0,0,1.164-.316,2.4,2.4,0,0,0,.773-.895V8.813a2.388,2.388,0,0,0-.773-.855,2.029,2.029,0,0,0-1.148-.316A1.752,1.752,0,0,0,88,8.555a4.718,4.718,0,0,0-.527,2.375Zm13.2,2.656A2.863,2.863,0,0,1,99.648,14.8a2.8,2.8,0,0,1-1.445.367,2.716,2.716,0,0,1-2.156-.883,4.1,4.1,0,0,1-.773-2.75V6.547h1.539v5a3.147,3.147,0,0,0,.4,1.859,1.481,1.481,0,0,0,1.242.508,2.531,2.531,0,0,0,1.355-.332,2.077,2.077,0,0,0,.809-.941V6.547h1.539V15h-1.383Zm8.641-1.023a1.026,1.026,0,0,0-.387-.828,3.732,3.732,0,0,0-1.465-.562,6.146,6.146,0,0,1-2.293-.9,1.814,1.814,0,0,1-.8-1.547,2.229,2.229,0,0,1,.879-1.766,3.879,3.879,0,0,1,4.605.047,2.239,2.239,0,0,1,.852,1.82l-.016.047h-1.469a1.331,1.331,0,0,0-.48-.992,1.717,1.717,0,0,0-1.215-.445,1.751,1.751,0,0,0-1.215.367,1.146,1.146,0,0,0-.4.875.927.927,0,0,0,.348.773,3.848,3.848,0,0,0,1.434.5,6.058,6.058,0,0,1,2.359.93,1.872,1.872,0,0,1,.8,1.57,2.226,2.226,0,0,1-.91,1.836,3.754,3.754,0,0,1-2.379.711,3.715,3.715,0,0,1-2.547-.82,2.341,2.341,0,0,1-.883-1.914l.016-.047h1.469a1.424,1.424,0,0,0,.609,1.2,2.358,2.358,0,0,0,1.336.379,2.1,2.1,0,0,0,1.285-.348A1.063,1.063,0,0,0,109.313,12.727Zm5.594-8.219V6.547h1.6V7.688h-1.6V12.82a1.149,1.149,0,0,0,.246.836.89.89,0,0,0,.652.242,1.43,1.43,0,0,0,.3-.035,2.2,2.2,0,0,0,.273-.074l.211,1.055a1.36,1.36,0,0,1-.508.23,2.562,2.562,0,0,1-.664.09,1.993,1.993,0,0,1-1.492-.566,2.46,2.46,0,0,1-.555-1.777V7.688h-1.344V6.547h1.344V4.508ZM123.352,15q-.078-.383-.121-.676a4.96,4.96,0,0,1-.051-.59,3.589,3.589,0,0,1-1.121,1.02,2.867,2.867,0,0,1-1.488.41,2.763,2.763,0,0,1-2.012-.676,2.486,2.486,0,0,1-.691-1.863,2.183,2.183,0,0,1,.98-1.895,4.579,4.579,0,0,1,2.66-.684h1.672V9.211a1.551,1.551,0,0,0-.453-1.176,1.779,1.779,0,0,0-1.281-.434,1.859,1.859,0,0,0-1.211.375,1.125,1.125,0,0,0-.461.9l-1.461.016-.016-.047a2.023,2.023,0,0,1,.863-1.687,3.578,3.578,0,0,1,2.371-.766,3.49,3.49,0,0,1,2.313.73,2.588,2.588,0,0,1,.875,2.105V13.3a7.923,7.923,0,0,0,.047.875,4.5,4.5,0,0,0,.172.828ZM120.8,13.875a2.739,2.739,0,0,0,1.508-.43,2.042,2.042,0,0,0,.875-.984V11.086h-1.727a2.24,2.24,0,0,0-1.488.469,1.4,1.4,0,0,0-.559,1.1,1.159,1.159,0,0,0,.352.891A1.472,1.472,0,0,0,120.8,13.875ZM132.594,15h-1.539V6.547h1.539Zm0-10.617h-1.539V2.813h1.539Zm6.367,3.523-.789-.047a1.762,1.762,0,0,0-1.027.289,1.855,1.855,0,0,0-.645.813V15h-1.539V6.547h1.375l.148,1.234a2.934,2.934,0,0,1,.887-1.023,2.073,2.073,0,0,1,1.215-.367,1.9,1.9,0,0,1,.328.027,2.174,2.174,0,0,1,.258.059Zm5.227,3.023a5.641,5.641,0,0,1,.871-3.289,2.807,2.807,0,0,1,2.441-1.25,3.027,3.027,0,0,1,1.316.273,2.7,2.7,0,0,1,.98.8V2.813h1.539V15h-1.18l-.234-1.07a2.743,2.743,0,0,1-1.023.922,3.058,3.058,0,0,1-1.414.313,2.9,2.9,0,0,1-2.422-1.121,4.659,4.659,0,0,1-.875-2.949Zm1.539.164a3.588,3.588,0,0,0,.523,2.051,1.828,1.828,0,0,0,1.625.77,2.039,2.039,0,0,0,1.156-.312,2.334,2.334,0,0,0,.766-.875V8.781a2.37,2.37,0,0,0-.77-.832,2.033,2.033,0,0,0-1.137-.309,1.759,1.759,0,0,0-1.637.914,4.718,4.718,0,0,0-.527,2.375Zm11.406,4.07A3.576,3.576,0,0,1,154.293,14a4.48,4.48,0,0,1-1.02-3.062v-.344a4.386,4.386,0,0,1,1.051-3.012,3.3,3.3,0,0,1,2.566-1.191,3.067,3.067,0,0,1,2.543,1.055,4.345,4.345,0,0,1,.848,2.8v.813h-5.406l-.023.039a3.494,3.494,0,0,0,.563,2.066,1.965,1.965,0,0,0,1.719.793,3.872,3.872,0,0,0,1.371-.223,3.061,3.061,0,0,0,1.012-.613l.6,1a3.7,3.7,0,0,1-1.2.738A4.762,4.762,0,0,1,157.133,15.164ZM156.891,7.6a1.673,1.673,0,0,0-1.332.621,2.938,2.938,0,0,0-.645,1.59l.016.039h3.813V9.727a2.462,2.462,0,0,0-.453-1.523A1.638,1.638,0,0,0,156.891,7.6Zm12.594,7.563A3.576,3.576,0,0,1,166.645,14a4.48,4.48,0,0,1-1.02-3.062v-.344a4.386,4.386,0,0,1,1.051-3.012,3.3,3.3,0,0,1,2.566-1.191,3.067,3.067,0,0,1,2.543,1.055,4.345,4.345,0,0,1,.848,2.8v.813h-5.406l-.023.039a3.494,3.494,0,0,0,.563,2.066,1.965,1.965,0,0,0,1.719.793,3.872,3.872,0,0,0,1.371-.223,3.061,3.061,0,0,0,1.012-.613l.6,1a3.7,3.7,0,0,1-1.2.738A4.762,4.762,0,0,1,169.484,15.164ZM169.242,7.6a1.673,1.673,0,0,0-1.332.621,2.938,2.938,0,0,0-.645,1.59l.016.039h3.813V9.727a2.462,2.462,0,0,0-.453-1.523A1.638,1.638,0,0,0,169.242,7.6Zm7.984,2.063,1.8-3.117h1.8l-2.742,4.18L180.9,15h-1.766l-1.875-3.2L175.383,15H173.6l2.82-4.273-2.742-4.18h1.773Zm8.383,4.3a1.81,1.81,0,0,0,1.242-.473,1.493,1.493,0,0,0,.531-1.16h1.391l.023.047a2.428,2.428,0,0,1-.937,1.941,3.582,3.582,0,0,1-5-.363,4.674,4.674,0,0,1-.969-3.016v-.328a4.654,4.654,0,0,1,.973-3,3.317,3.317,0,0,1,2.746-1.215,3.189,3.189,0,0,1,2.316.875,2.775,2.775,0,0,1,.871,2.148l-.016.047h-1.4a1.865,1.865,0,0,0-.5-1.316,1.658,1.658,0,0,0-1.27-.543,1.777,1.777,0,0,0-1.652.879,4.114,4.114,0,0,0-.52,2.129v.328a4.192,4.192,0,0,0,.512,2.148A1.776,1.776,0,0,0,185.609,13.961Zm10.383-.211a2.863,2.863,0,0,1-1.023,1.047,2.8,2.8,0,0,1-1.445.367,2.716,2.716,0,0,1-2.156-.883,4.1,4.1,0,0,1-.773-2.75V6.547h1.539v5a3.147,3.147,0,0,0,.4,1.859,1.481,1.481,0,0,0,1.242.508,2.531,2.531,0,0,0,1.355-.332,2.077,2.077,0,0,0,.809-.941V6.547h1.539V15h-1.383Zm7.727-5.844-.789-.047a1.762,1.762,0,0,0-1.027.289,1.855,1.855,0,0,0-.645.813V15h-1.539V6.547h1.375l.148,1.234a2.934,2.934,0,0,1,.887-1.023,2.073,2.073,0,0,1,1.215-.367,1.9,1.9,0,0,1,.328.027,2.174,2.174,0,0,1,.258.059Zm6.516,4.82a1.026,1.026,0,0,0-.387-.828,3.732,3.732,0,0,0-1.465-.562,6.146,6.146,0,0,1-2.293-.9,1.814,1.814,0,0,1-.8-1.547,2.229,2.229,0,0,1,.879-1.766,3.879,3.879,0,0,1,4.605.047,2.239,2.239,0,0,1,.852,1.82l-.016.047h-1.469a1.331,1.331,0,0,0-.48-.992,1.717,1.717,0,0,0-1.215-.445,1.751,1.751,0,0,0-1.215.367,1.146,1.146,0,0,0-.4.875.927.927,0,0,0,.348.773,3.848,3.848,0,0,0,1.434.5,6.058,6.058,0,0,1,2.359.93,1.872,1.872,0,0,1,.8,1.57,2.226,2.226,0,0,1-.91,1.836,3.754,3.754,0,0,1-2.379.711,3.715,3.715,0,0,1-2.547-.82,2.341,2.341,0,0,1-.883-1.914l.016-.047h1.469a1.424,1.424,0,0,0,.609,1.2,2.358,2.358,0,0,0,1.336.379,2.1,2.1,0,0,0,1.285-.348A1.063,1.063,0,0,0,210.234,12.727ZM215.352,15h-1.539V6.547h1.539Zm0-10.617h-1.539V2.813h1.539Zm2.008,6.313a4.654,4.654,0,0,1,1.016-3.09,3.764,3.764,0,0,1,5.535,0,4.639,4.639,0,0,1,1.02,3.094v.172a4.631,4.631,0,0,1-1.016,3.094,3.781,3.781,0,0,1-5.535,0,4.623,4.623,0,0,1-1.02-3.09Zm1.539.172a4.009,4.009,0,0,0,.566,2.219,2.046,2.046,0,0,0,3.355,0,3.988,3.988,0,0,0,.57-2.219V10.7a3.976,3.976,0,0,0-.574-2.211,1.882,1.882,0,0,0-1.684-.883,1.856,1.856,0,0,0-1.668.883A4.018,4.018,0,0,0,218.9,10.7Zm2.992-7.906h1.8l.016.047-2.1,2.031h-1.156Zm6.3,3.586L228.3,7.8a3.069,3.069,0,0,1,1.059-1.043,2.824,2.824,0,0,1,1.449-.371,2.759,2.759,0,0,1,2.117.8,3.515,3.515,0,0,1,.75,2.473V15h-1.539V9.7a2.287,2.287,0,0,0-.441-1.586,1.768,1.768,0,0,0-1.348-.469,2.386,2.386,0,0,0-1.207.285,2.072,2.072,0,0,0-.785.8V15h-1.539V6.547Zm9.063,8.078-1.172,2.391h-.914l.547-2.469V13.273h1.539ZM6.484,32.75A2.863,2.863,0,0,1,5.461,33.8a2.8,2.8,0,0,1-1.445.367,2.716,2.716,0,0,1-2.156-.883,4.1,4.1,0,0,1-.773-2.75V25.547H2.625v5a3.147,3.147,0,0,0,.4,1.859,1.481,1.481,0,0,0,1.242.508,2.531,2.531,0,0,0,1.355-.332,2.077,2.077,0,0,0,.809-.941V25.547H7.969V34H6.586ZM5.273,22.125h1.8l.016.047L4.984,24.2H3.828ZM11.875,34H10.336V21.813h1.539Zm4.508-10.492v2.039h1.6v1.141h-1.6V31.82a1.149,1.149,0,0,0,.246.836.89.89,0,0,0,.652.242,1.429,1.429,0,0,0,.3-.035,2.2,2.2,0,0,0,.273-.074l.211,1.055a1.36,1.36,0,0,1-.508.23,2.562,2.562,0,0,1-.664.09A1.993,1.993,0,0,1,15.4,33.6a2.46,2.46,0,0,1-.555-1.777V26.688H13.5V25.547h1.344V23.508ZM21.3,34H19.758V25.547H21.3Zm0-10.617H19.758v-1.57H21.3Zm3.742,2.164.109,1.109a2.871,2.871,0,0,1,1.051-.934,3.158,3.158,0,0,1,1.48-.332,2.615,2.615,0,0,1,1.449.391,2.363,2.363,0,0,1,.91,1.172A3.162,3.162,0,0,1,31.1,25.809a2.769,2.769,0,0,1,1.527-.418,2.531,2.531,0,0,1,2.039.887,4.051,4.051,0,0,1,.75,2.668V34H33.875V28.93a2.81,2.81,0,0,0-.43-1.77,1.567,1.567,0,0,0-1.281-.52,1.631,1.631,0,0,0-1.277.547,2.381,2.381,0,0,0-.574,1.383V34H28.766V28.93a2.772,2.772,0,0,0-.441-1.738,1.532,1.532,0,0,0-1.27-.551,2.115,2.115,0,0,0-1.156.289,1.867,1.867,0,0,0-.7.813V34H23.664V25.547ZM42.844,34q-.078-.383-.121-.676a4.96,4.96,0,0,1-.051-.59,3.589,3.589,0,0,1-1.121,1.02,2.867,2.867,0,0,1-1.488.41,2.763,2.763,0,0,1-2.012-.676,2.486,2.486,0,0,1-.691-1.863,2.183,2.183,0,0,1,.98-1.895A4.579,4.579,0,0,1,41,29.047h1.672v-.836a1.551,1.551,0,0,0-.453-1.176,1.779,1.779,0,0,0-1.281-.434,1.859,1.859,0,0,0-1.211.375,1.125,1.125,0,0,0-.461.9l-1.461.016-.016-.047a2.023,2.023,0,0,1,.863-1.687,3.578,3.578,0,0,1,2.371-.766,3.49,3.49,0,0,1,2.313.73,2.588,2.588,0,0,1,.875,2.105V32.3a7.923,7.923,0,0,0,.047.875A4.5,4.5,0,0,0,44.43,34Zm-2.555-1.125a2.739,2.739,0,0,0,1.508-.43,2.042,2.042,0,0,0,.875-.984V30.086H40.945a2.24,2.24,0,0,0-1.488.469,1.4,1.4,0,0,0-.559,1.1,1.159,1.159,0,0,0,.352.891A1.472,1.472,0,0,0,40.289,32.875Zm7.531-7.328.109,1.109a2.871,2.871,0,0,1,1.051-.934,3.158,3.158,0,0,1,1.48-.332,2.615,2.615,0,0,1,1.449.391,2.363,2.363,0,0,1,.91,1.172,3.162,3.162,0,0,1,1.059-1.145,2.769,2.769,0,0,1,1.527-.418,2.531,2.531,0,0,1,2.039.887,4.051,4.051,0,0,1,.75,2.668V34H56.656V28.93a2.81,2.81,0,0,0-.43-1.77,1.567,1.567,0,0,0-1.281-.52,1.631,1.631,0,0,0-1.277.547,2.381,2.381,0,0,0-.574,1.383V34H51.547V28.93a2.772,2.772,0,0,0-.441-1.738,1.532,1.532,0,0,0-1.27-.551,2.115,2.115,0,0,0-1.156.289,1.867,1.867,0,0,0-.7.813V34H46.445V25.547ZM63.93,34.164A3.576,3.576,0,0,1,61.09,33a4.48,4.48,0,0,1-1.02-3.062v-.344a4.386,4.386,0,0,1,1.051-3.012,3.3,3.3,0,0,1,2.566-1.191,3.067,3.067,0,0,1,2.543,1.055,4.345,4.345,0,0,1,.848,2.8v.813H61.672l-.023.039a3.494,3.494,0,0,0,.563,2.066,1.965,1.965,0,0,0,1.719.793,3.872,3.872,0,0,0,1.371-.223,3.061,3.061,0,0,0,1.012-.613l.6,1a3.7,3.7,0,0,1-1.2.738A4.762,4.762,0,0,1,63.93,34.164ZM63.688,26.6a1.673,1.673,0,0,0-1.332.621,2.938,2.938,0,0,0-.645,1.59l.016.039h3.813v-.125a2.462,2.462,0,0,0-.453-1.523A1.638,1.638,0,0,0,63.688,26.6Zm6.492-1.055.109,1.258a3.069,3.069,0,0,1,1.059-1.043,2.824,2.824,0,0,1,1.449-.371,2.759,2.759,0,0,1,2.117.8,3.515,3.515,0,0,1,.75,2.473V34H74.125V28.7a2.287,2.287,0,0,0-.441-1.586,1.768,1.768,0,0,0-1.348-.469,2.386,2.386,0,0,0-1.207.285,2.072,2.072,0,0,0-.785.8V34H68.8V25.547Zm9.859-2.039v2.039h1.6v1.141h-1.6V31.82a1.149,1.149,0,0,0,.246.836.89.89,0,0,0,.652.242,1.43,1.43,0,0,0,.3-.035,2.2,2.2,0,0,0,.273-.074l.211,1.055a1.36,1.36,0,0,1-.508.23,2.562,2.562,0,0,1-.664.09,1.993,1.993,0,0,1-1.492-.566A2.46,2.46,0,0,1,78.5,31.82V26.688H77.156V25.547H78.5V23.508Zm6.75,10.656A3.576,3.576,0,0,1,83.949,33a4.48,4.48,0,0,1-1.02-3.062v-.344a4.386,4.386,0,0,1,1.051-3.012,3.3,3.3,0,0,1,2.566-1.191,3.067,3.067,0,0,1,2.543,1.055,4.345,4.345,0,0,1,.848,2.8v.813H84.531l-.023.039a3.494,3.494,0,0,0,.563,2.066,1.965,1.965,0,0,0,1.719.793,3.872,3.872,0,0,0,1.371-.223,3.061,3.061,0,0,0,1.012-.613l.6,1a3.7,3.7,0,0,1-1.2.738A4.762,4.762,0,0,1,86.789,34.164ZM86.547,26.6a1.673,1.673,0,0,0-1.332.621,2.938,2.938,0,0,0-.645,1.59l.016.039H88.4v-.125a2.462,2.462,0,0,0-.453-1.523A1.638,1.638,0,0,0,86.547,26.6Zm10.469-1.055.109,1.258a3.069,3.069,0,0,1,1.059-1.043,2.824,2.824,0,0,1,1.449-.371,2.759,2.759,0,0,1,2.117.8,3.515,3.515,0,0,1,.75,2.473V34h-1.539V28.7a2.287,2.287,0,0,0-.441-1.586,1.768,1.768,0,0,0-1.348-.469,2.386,2.386,0,0,0-1.207.285,2.072,2.072,0,0,0-.785.8V34H95.641V25.547Zm7.359,4.148a4.654,4.654,0,0,1,1.016-3.09,3.764,3.764,0,0,1,5.535,0,4.639,4.639,0,0,1,1.02,3.094v.172a4.631,4.631,0,0,1-1.016,3.094,3.781,3.781,0,0,1-5.535,0,4.623,4.623,0,0,1-1.02-3.09Zm1.539.172a4.009,4.009,0,0,0,.566,2.219,2.046,2.046,0,0,0,3.355,0,3.988,3.988,0,0,0,.57-2.219V29.7a3.976,3.976,0,0,0-.574-2.211,1.882,1.882,0,0,0-1.684-.883,1.856,1.856,0,0,0-1.668.883,4.018,4.018,0,0,0-.566,2.211Zm13.43-3.187a3.119,3.119,0,0,1,1.074-.949,2.947,2.947,0,0,1,1.41-.34,2.73,2.73,0,0,1,2.105.813,3.575,3.575,0,0,1,.754,2.5V34h-1.539V28.688a2.263,2.263,0,0,0-.449-1.547,1.709,1.709,0,0,0-1.34-.5,2.514,2.514,0,0,0-1.2.27,2.174,2.174,0,0,0-.82.754V34H117.8V21.813h1.539ZM130.4,34.164A3.576,3.576,0,0,1,127.559,33a4.48,4.48,0,0,1-1.02-3.062v-.344a4.386,4.386,0,0,1,1.051-3.012,3.3,3.3,0,0,1,2.566-1.191,3.067,3.067,0,0,1,2.543,1.055,4.345,4.345,0,0,1,.848,2.8v.813h-5.406l-.023.039a3.494,3.494,0,0,0,.563,2.066,1.965,1.965,0,0,0,1.719.793,3.872,3.872,0,0,0,1.371-.223,3.061,3.061,0,0,0,1.012-.613l.6,1a3.7,3.7,0,0,1-1.2.738A4.762,4.762,0,0,1,130.4,34.164Zm-.242-7.562a1.673,1.673,0,0,0-1.332.621,2.938,2.938,0,0,0-.645,1.59l.016.039h3.813v-.125a2.462,2.462,0,0,0-.453-1.523A1.638,1.638,0,0,0,130.156,26.6Zm11.234-3.094v2.039h1.6v1.141h-1.6V31.82a1.149,1.149,0,0,0,.246.836.89.89,0,0,0,.652.242,1.429,1.429,0,0,0,.3-.035,2.2,2.2,0,0,0,.273-.074l.211,1.055a1.36,1.36,0,0,1-.508.23,2.562,2.562,0,0,1-.664.09,1.993,1.993,0,0,1-1.492-.566,2.46,2.46,0,0,1-.555-1.777V26.688h-1.344V25.547h1.344V23.508Zm6.75,10.656A3.576,3.576,0,0,1,145.3,33a4.48,4.48,0,0,1-1.02-3.062v-.344a4.386,4.386,0,0,1,1.051-3.012,3.3,3.3,0,0,1,2.566-1.191,3.067,3.067,0,0,1,2.543,1.055,4.345,4.345,0,0,1,.848,2.8v.813h-5.406l-.023.039a3.494,3.494,0,0,0,.563,2.066,1.965,1.965,0,0,0,1.719.793,3.872,3.872,0,0,0,1.371-.223,3.061,3.061,0,0,0,1.012-.613l.6,1a3.7,3.7,0,0,1-1.2.738A4.762,4.762,0,0,1,148.141,34.164ZM147.9,26.6a1.673,1.673,0,0,0-1.332.621,2.938,2.938,0,0,0-.645,1.59l.016.039h3.813v-.125A2.462,2.462,0,0,0,149.3,27.2,1.638,1.638,0,0,0,147.9,26.6Zm6.492-1.055L154.5,26.8a3.069,3.069,0,0,1,1.059-1.043,2.824,2.824,0,0,1,1.449-.371,2.759,2.759,0,0,1,2.117.8,3.515,3.515,0,0,1,.75,2.473V34h-1.539V28.7a2.287,2.287,0,0,0-.441-1.586,1.768,1.768,0,0,0-1.348-.469,2.386,2.386,0,0,0-1.207.285,2.072,2.072,0,0,0-.785.8V34h-1.539V25.547ZM163.773,34h-1.539V25.547h1.539Zm0-10.617h-1.539v-1.57h1.539Zm2.016,6.547a5.641,5.641,0,0,1,.871-3.289,2.807,2.807,0,0,1,2.441-1.25,3.027,3.027,0,0,1,1.316.273,2.7,2.7,0,0,1,.98.8V21.813h1.539V34h-1.18l-.234-1.07a2.743,2.743,0,0,1-1.023.922,3.058,3.058,0,0,1-1.414.313,2.9,2.9,0,0,1-2.422-1.121,4.659,4.659,0,0,1-.875-2.949Zm1.539.164a3.588,3.588,0,0,0,.523,2.051,1.828,1.828,0,0,0,1.625.77,2.039,2.039,0,0,0,1.156-.312,2.334,2.334,0,0,0,.766-.875V27.781a2.37,2.37,0,0,0-.77-.832,2.033,2.033,0,0,0-1.137-.309,1.759,1.759,0,0,0-1.637.914,4.718,4.718,0,0,0-.527,2.375Zm7.547-.4a4.654,4.654,0,0,1,1.016-3.09,3.764,3.764,0,0,1,5.535,0,4.639,4.639,0,0,1,1.02,3.094v.172a4.631,4.631,0,0,1-1.016,3.094,3.781,3.781,0,0,1-5.535,0,4.623,4.623,0,0,1-1.02-3.09Zm1.539.172a4.009,4.009,0,0,0,.566,2.219,2.046,2.046,0,0,0,3.355,0,3.988,3.988,0,0,0,.57-2.219V29.7a3.976,3.976,0,0,0-.574-2.211,1.882,1.882,0,0,0-1.684-.883,1.856,1.856,0,0,0-1.668.883,4.018,4.018,0,0,0-.566,2.211Zm14.031-6.359v2.039h1.6v1.141h-1.6V31.82a1.149,1.149,0,0,0,.246.836.89.89,0,0,0,.652.242,1.429,1.429,0,0,0,.3-.035,2.2,2.2,0,0,0,.273-.074l.211,1.055a1.36,1.36,0,0,1-.508.23,2.562,2.562,0,0,1-.664.09,1.993,1.993,0,0,1-1.492-.566,2.46,2.46,0,0,1-.555-1.777V26.688h-1.344V25.547h1.344V23.508ZM195.359,34H193.82V25.547h1.539Zm0-10.617H193.82v-1.57h1.539Zm5.867,10.781A3.576,3.576,0,0,1,198.387,33a4.48,4.48,0,0,1-1.02-3.062v-.344a4.386,4.386,0,0,1,1.051-3.012,3.3,3.3,0,0,1,2.566-1.191,3.067,3.067,0,0,1,2.543,1.055,4.345,4.345,0,0,1,.848,2.8v.813h-5.406l-.023.039a3.494,3.494,0,0,0,.563,2.066,1.965,1.965,0,0,0,1.719.793,3.872,3.872,0,0,0,1.371-.223,3.061,3.061,0,0,0,1.012-.613l.6,1a3.7,3.7,0,0,1-1.2.738A4.762,4.762,0,0,1,201.227,34.164Zm-.242-7.562a1.673,1.673,0,0,0-1.332.621,2.938,2.938,0,0,0-.645,1.59l.016.039h3.813v-.125a2.462,2.462,0,0,0-.453-1.523A1.638,1.638,0,0,0,200.984,26.6Zm6.492-1.055.109,1.109a2.871,2.871,0,0,1,1.051-.934,3.158,3.158,0,0,1,1.48-.332,2.615,2.615,0,0,1,1.449.391,2.363,2.363,0,0,1,.91,1.172,3.162,3.162,0,0,1,1.059-1.145,2.769,2.769,0,0,1,1.527-.418,2.531,2.531,0,0,1,2.039.887,4.051,4.051,0,0,1,.75,2.668V34h-1.539V28.93a2.81,2.81,0,0,0-.43-1.77,1.567,1.567,0,0,0-1.281-.52,1.631,1.631,0,0,0-1.277.547,2.381,2.381,0,0,0-.574,1.383V34H211.2V28.93a2.772,2.772,0,0,0-.441-1.738,1.532,1.532,0,0,0-1.27-.551,2.115,2.115,0,0,0-1.156.289,1.867,1.867,0,0,0-.7.813V34H206.1V25.547Zm19.813,4.547a4.659,4.659,0,0,1-.875,2.949A2.893,2.893,0,0,1,224,34.164a3.354,3.354,0,0,1-1.371-.262,2.622,2.622,0,0,1-1-.785V37.25h-1.539v-11.7h1.18l.242,1.094a2.792,2.792,0,0,1,1.031-.93,3.078,3.078,0,0,1,1.438-.32,2.809,2.809,0,0,1,2.441,1.246,5.637,5.637,0,0,1,.871,3.293Zm-1.539-.164a4.467,4.467,0,0,0-.566-2.363,1.835,1.835,0,0,0-1.668-.926,2.054,2.054,0,0,0-1.133.3,2.25,2.25,0,0,0-.758.824v4.086a2.186,2.186,0,0,0,.758.816,2.126,2.126,0,0,0,1.148.293,1.894,1.894,0,0,0,1.656-.8,3.516,3.516,0,0,0,.563-2.066Zm3.07-.234a4.654,4.654,0,0,1,1.016-3.09,3.764,3.764,0,0,1,5.535,0,4.639,4.639,0,0,1,1.02,3.094v.172a4.631,4.631,0,0,1-1.016,3.094,3.781,3.781,0,0,1-5.535,0,4.623,4.623,0,0,1-1.02-3.09Zm1.539.172a4.009,4.009,0,0,0,.566,2.219,2.046,2.046,0,0,0,3.355,0,3.988,3.988,0,0,0,.57-2.219V29.7a3.976,3.976,0,0,0-.574-2.211,1.882,1.882,0,0,0-1.684-.883,1.856,1.856,0,0,0-1.668.883,4.018,4.018,0,0,0-.566,2.211Zm11.539.063a5.641,5.641,0,0,1,.871-3.289,2.807,2.807,0,0,1,2.441-1.25,3.027,3.027,0,0,1,1.316.273,2.7,2.7,0,0,1,.98.8V21.813h1.539V34h-1.18l-.234-1.07a2.743,2.743,0,0,1-1.023.922,3.058,3.058,0,0,1-1.414.313,2.9,2.9,0,0,1-2.422-1.121,4.659,4.659,0,0,1-.875-2.949Zm1.539.164a3.588,3.588,0,0,0,.523,2.051,1.828,1.828,0,0,0,1.625.77,2.039,2.039,0,0,0,1.156-.312,2.334,2.334,0,0,0,.766-.875V27.781a2.37,2.37,0,0,0-.77-.832,2.033,2.033,0,0,0-1.137-.309,1.759,1.759,0,0,0-1.637.914,4.718,4.718,0,0,0-.527,2.375Zm11.406,4.07A3.576,3.576,0,0,1,252,33a4.48,4.48,0,0,1-1.02-3.062v-.344a4.386,4.386,0,0,1,1.051-3.012,3.3,3.3,0,0,1,2.566-1.191,3.067,3.067,0,0,1,2.543,1.055,4.345,4.345,0,0,1,.848,2.8v.813h-5.406l-.023.039a3.494,3.494,0,0,0,.563,2.066,1.965,1.965,0,0,0,1.719.793,3.872,3.872,0,0,0,1.371-.223,3.061,3.061,0,0,0,1.012-.613l.6,1a3.7,3.7,0,0,1-1.2.738A4.762,4.762,0,0,1,254.844,34.164ZM254.6,26.6a1.673,1.673,0,0,0-1.332.621,2.938,2.938,0,0,0-.645,1.59l.016.039h3.813v-.125A2.461,2.461,0,0,0,256,27.2,1.638,1.638,0,0,0,254.6,26.6ZM265.359,34H263.82V25.547h1.539Zm0-10.617H263.82v-1.57h1.539Zm6.367,3.523-.789-.047a1.762,1.762,0,0,0-1.027.289,1.854,1.854,0,0,0-.645.813V34h-1.539V25.547H269.1l.148,1.234a2.934,2.934,0,0,1,.887-1.023,2.073,2.073,0,0,1,1.215-.367,1.9,1.9,0,0,1,.328.027,2.175,2.175,0,0,1,.258.059ZM3.7,49.867l.273,1.063h.047L6.1,44.547H7.813L4.258,54.3a4.383,4.383,0,0,1-.918,1.484,2.113,2.113,0,0,1-1.613.633,3.363,3.363,0,0,1-.477-.043Q.961,56.328.8,56.289l.156-1.211a2.062,2.062,0,0,1,.277.016q.324.023.41.023a.95.95,0,0,0,.8-.437,4.543,4.543,0,0,0,.523-.969l.367-.883L.2,44.547H1.922Zm10.813-5.32.109,1.258a3.069,3.069,0,0,1,1.059-1.043,2.824,2.824,0,0,1,1.449-.371,2.759,2.759,0,0,1,2.117.8A3.515,3.515,0,0,1,20,47.664V53H18.461V47.7a2.287,2.287,0,0,0-.441-1.586,1.768,1.768,0,0,0-1.348-.469,2.386,2.386,0,0,0-1.207.285,2.072,2.072,0,0,0-.785.8V53H13.141V44.547ZM21.875,48.7a4.654,4.654,0,0,1,1.016-3.09,3.406,3.406,0,0,1,2.758-1.215A3.439,3.439,0,0,1,28.426,45.6a4.639,4.639,0,0,1,1.02,3.094v.172a4.631,4.631,0,0,1-1.016,3.094,3.429,3.429,0,0,1-2.766,1.2,3.436,3.436,0,0,1-2.77-1.207,4.623,4.623,0,0,1-1.02-3.09Zm1.539.172a4.009,4.009,0,0,0,.566,2.219,2.046,2.046,0,0,0,3.355,0,3.988,3.988,0,0,0,.57-2.219V48.7a3.976,3.976,0,0,0-.574-2.211,1.882,1.882,0,0,0-1.684-.883,1.856,1.856,0,0,0-1.668.883,4.018,4.018,0,0,0-.566,2.211Zm13.43-3.187a3.119,3.119,0,0,1,1.074-.949,2.947,2.947,0,0,1,1.41-.34,2.73,2.73,0,0,1,2.105.813,3.574,3.574,0,0,1,.754,2.5V53H40.648V47.688a2.263,2.263,0,0,0-.449-1.547,1.709,1.709,0,0,0-1.34-.5,2.514,2.514,0,0,0-1.2.27,2.174,2.174,0,0,0-.82.754V53H35.3V40.813h1.539ZM47.9,53.164A3.576,3.576,0,0,1,45.059,52a4.48,4.48,0,0,1-1.02-3.062v-.344a4.386,4.386,0,0,1,1.051-3.012,3.3,3.3,0,0,1,2.566-1.191A3.067,3.067,0,0,1,50.2,45.445a4.345,4.345,0,0,1,.848,2.8v.813H45.641l-.023.039a3.494,3.494,0,0,0,.563,2.066,1.965,1.965,0,0,0,1.719.793,3.872,3.872,0,0,0,1.371-.223,3.061,3.061,0,0,0,1.012-.613l.6,1a3.7,3.7,0,0,1-1.2.738A4.762,4.762,0,0,1,47.9,53.164ZM47.656,45.6a1.673,1.673,0,0,0-1.332.621,2.938,2.938,0,0,0-.645,1.59l.016.039h3.813v-.125a2.462,2.462,0,0,0-.453-1.523A1.638,1.638,0,0,0,47.656,45.6ZM60.25,53.164A3.576,3.576,0,0,1,57.41,52a4.48,4.48,0,0,1-1.02-3.062v-.344a4.386,4.386,0,0,1,1.051-3.012,3.3,3.3,0,0,1,2.566-1.191,3.067,3.067,0,0,1,2.543,1.055,4.345,4.345,0,0,1,.848,2.8v.813H57.992l-.023.039a3.494,3.494,0,0,0,.563,2.066,1.965,1.965,0,0,0,1.719.793,3.872,3.872,0,0,0,1.371-.223,3.061,3.061,0,0,0,1.012-.613l.6,1a3.7,3.7,0,0,1-1.2.738A4.762,4.762,0,0,1,60.25,53.164ZM60.008,45.6a1.673,1.673,0,0,0-1.332.621,2.938,2.938,0,0,0-.645,1.59l.016.039h3.813v-.125a2.462,2.462,0,0,0-.453-1.523A1.638,1.638,0,0,0,60.008,45.6ZM66.5,44.547l.109,1.258a3.069,3.069,0,0,1,1.059-1.043,2.824,2.824,0,0,1,1.449-.371,2.759,2.759,0,0,1,2.117.8,3.515,3.515,0,0,1,.75,2.473V53H70.445V47.7A2.287,2.287,0,0,0,70,46.109a1.768,1.768,0,0,0-1.348-.469,2.386,2.386,0,0,0-1.207.285,2.072,2.072,0,0,0-.785.8V53H65.125V44.547Zm11.078,7.414a1.81,1.81,0,0,0,1.242-.473,1.494,1.494,0,0,0,.531-1.16h1.391l.023.047a2.428,2.428,0,0,1-.937,1.941,3.582,3.582,0,0,1-5-.363,4.674,4.674,0,0,1-.969-3.016v-.328a4.654,4.654,0,0,1,.973-3,3.317,3.317,0,0,1,2.746-1.215,3.189,3.189,0,0,1,2.316.875,2.775,2.775,0,0,1,.871,2.148l-.016.047h-1.4a1.865,1.865,0,0,0-.5-1.316,1.658,1.658,0,0,0-1.27-.543,1.777,1.777,0,0,0-1.652.879,4.114,4.114,0,0,0-.52,2.129v.328a4.192,4.192,0,0,0,.512,2.148A1.776,1.776,0,0,0,77.578,51.961ZM82.234,48.7a4.654,4.654,0,0,1,1.016-3.09,3.764,3.764,0,0,1,5.535,0A4.639,4.639,0,0,1,89.8,48.7v.172a4.631,4.631,0,0,1-1.016,3.094,3.781,3.781,0,0,1-5.535,0,4.623,4.623,0,0,1-1.02-3.09Zm1.539.172a4.009,4.009,0,0,0,.566,2.219,2.046,2.046,0,0,0,3.355,0,3.988,3.988,0,0,0,.57-2.219V48.7a3.976,3.976,0,0,0-.574-2.211,1.882,1.882,0,0,0-1.684-.883,1.856,1.856,0,0,0-1.668.883,4.018,4.018,0,0,0-.566,2.211Zm9.289-4.32.109,1.258a3.069,3.069,0,0,1,1.059-1.043,2.824,2.824,0,0,1,1.449-.371,2.759,2.759,0,0,1,2.117.8,3.515,3.515,0,0,1,.75,2.473V53H97.008V47.7a2.287,2.287,0,0,0-.441-1.586,1.768,1.768,0,0,0-1.348-.469,2.386,2.386,0,0,0-1.207.285,2.072,2.072,0,0,0-.785.8V53H91.688V44.547Zm9.859-2.039v2.039h1.6v1.141h-1.6V50.82a1.149,1.149,0,0,0,.246.836.89.89,0,0,0,.652.242,1.43,1.43,0,0,0,.3-.035,2.2,2.2,0,0,0,.273-.074l.211,1.055a1.36,1.36,0,0,1-.508.23,2.562,2.562,0,0,1-.664.09,1.993,1.993,0,0,1-1.492-.566,2.46,2.46,0,0,1-.555-1.777V45.688h-1.344V44.547h1.344V42.508Zm7.25,3.4-.789-.047a1.762,1.762,0,0,0-1.027.289,1.854,1.854,0,0,0-.645.813V53h-1.539V44.547h1.375l.148,1.234a2.934,2.934,0,0,1,.887-1.023,2.073,2.073,0,0,1,1.215-.367,1.9,1.9,0,0,1,.328.027,2.175,2.175,0,0,1,.258.059Zm6.8,7.094q-.078-.383-.121-.676a4.96,4.96,0,0,1-.051-.59,3.589,3.589,0,0,1-1.121,1.02,2.867,2.867,0,0,1-1.488.41,2.763,2.763,0,0,1-2.012-.676,2.486,2.486,0,0,1-.691-1.863,2.183,2.183,0,0,1,.98-1.895,4.579,4.579,0,0,1,2.66-.684H116.8v-.836a1.551,1.551,0,0,0-.453-1.176,1.779,1.779,0,0,0-1.281-.434,1.859,1.859,0,0,0-1.211.375,1.125,1.125,0,0,0-.461.9l-1.461.016-.016-.047a2.023,2.023,0,0,1,.863-1.687,3.578,3.578,0,0,1,2.371-.766,3.49,3.49,0,0,1,2.313.73,2.588,2.588,0,0,1,.875,2.105V51.3a7.923,7.923,0,0,0,.047.875,4.5,4.5,0,0,0,.172.828Zm-2.555-1.125a2.739,2.739,0,0,0,1.508-.43,2.042,2.042,0,0,0,.875-.984V49.086H115.07a2.24,2.24,0,0,0-1.488.469,1.4,1.4,0,0,0-.559,1.1,1.159,1.159,0,0,0,.352.891A1.472,1.472,0,0,0,114.414,51.875Zm5.8-2.945a5.641,5.641,0,0,1,.871-3.289,2.807,2.807,0,0,1,2.441-1.25,3.027,3.027,0,0,1,1.316.273,2.7,2.7,0,0,1,.98.8V40.813h1.539V53h-1.18l-.234-1.07a2.743,2.743,0,0,1-1.023.922,3.058,3.058,0,0,1-1.414.313,2.9,2.9,0,0,1-2.422-1.121,4.659,4.659,0,0,1-.875-2.949Zm1.539.164a3.588,3.588,0,0,0,.523,2.051,1.828,1.828,0,0,0,1.625.77,2.039,2.039,0,0,0,1.156-.312,2.334,2.334,0,0,0,.766-.875V46.781a2.37,2.37,0,0,0-.77-.832,2.033,2.033,0,0,0-1.137-.309,1.759,1.759,0,0,0-1.637.914,4.718,4.718,0,0,0-.527,2.375Zm7.547-.4a4.654,4.654,0,0,1,1.016-3.09,3.764,3.764,0,0,1,5.535,0,4.639,4.639,0,0,1,1.02,3.094v.172a4.631,4.631,0,0,1-1.016,3.094,3.781,3.781,0,0,1-5.535,0,4.623,4.623,0,0,1-1.02-3.09Zm1.539.172a4.009,4.009,0,0,0,.566,2.219,2.046,2.046,0,0,0,3.355,0,3.988,3.988,0,0,0,.57-2.219V48.7a3.976,3.976,0,0,0-.574-2.211,1.882,1.882,0,0,0-1.684-.883,1.856,1.856,0,0,0-1.668.883,4.018,4.018,0,0,0-.566,2.211ZM147.93,53q-.078-.383-.121-.676a4.96,4.96,0,0,1-.051-.59,3.588,3.588,0,0,1-1.121,1.02,2.867,2.867,0,0,1-1.488.41,2.763,2.763,0,0,1-2.012-.676,2.486,2.486,0,0,1-.691-1.863,2.183,2.183,0,0,1,.98-1.895,4.579,4.579,0,0,1,2.66-.684h1.672v-.836a1.551,1.551,0,0,0-.453-1.176,1.779,1.779,0,0,0-1.281-.434,1.859,1.859,0,0,0-1.211.375,1.125,1.125,0,0,0-.461.9l-1.461.016-.016-.047a2.023,2.023,0,0,1,.863-1.687,3.578,3.578,0,0,1,2.371-.766,3.49,3.49,0,0,1,2.313.73,2.588,2.588,0,0,1,.875,2.105V51.3a7.923,7.923,0,0,0,.047.875,4.5,4.5,0,0,0,.172.828Zm-2.555-1.125a2.739,2.739,0,0,0,1.508-.43,2.042,2.042,0,0,0,.875-.984V49.086h-1.727a2.24,2.24,0,0,0-1.488.469,1.4,1.4,0,0,0-.559,1.1,1.159,1.159,0,0,0,.352.891A1.472,1.472,0,0,0,145.375,51.875Zm11.508-7.328.109,1.258a3.069,3.069,0,0,1,1.059-1.043,2.824,2.824,0,0,1,1.449-.371,2.759,2.759,0,0,1,2.117.8,3.515,3.515,0,0,1,.75,2.473V53h-1.539V47.7a2.287,2.287,0,0,0-.441-1.586,1.768,1.768,0,0,0-1.348-.469,2.386,2.386,0,0,0-1.207.285,2.072,2.072,0,0,0-.785.8V53h-1.539V44.547ZM169.8,53q-.078-.383-.121-.676a4.96,4.96,0,0,1-.051-.59,3.588,3.588,0,0,1-1.121,1.02,2.867,2.867,0,0,1-1.488.41A2.763,2.763,0,0,1,165,52.488a2.486,2.486,0,0,1-.691-1.863,2.183,2.183,0,0,1,.98-1.895,4.579,4.579,0,0,1,2.66-.684h1.672v-.836a1.551,1.551,0,0,0-.453-1.176,1.779,1.779,0,0,0-1.281-.434,1.859,1.859,0,0,0-1.211.375,1.125,1.125,0,0,0-.461.9l-1.461.016-.016-.047a2.023,2.023,0,0,1,.863-1.687,3.578,3.578,0,0,1,2.371-.766,3.49,3.49,0,0,1,2.313.73,2.588,2.588,0,0,1,.875,2.105V51.3a7.923,7.923,0,0,0,.047.875,4.5,4.5,0,0,0,.172.828Zm-2.555-1.125a2.739,2.739,0,0,0,1.508-.43,2.042,2.042,0,0,0,.875-.984V49.086H167.9a2.24,2.24,0,0,0-1.488.469,1.4,1.4,0,0,0-.559,1.1,1.159,1.159,0,0,0,.352.891A1.472,1.472,0,0,0,167.242,51.875Zm5.8-2.945a5.641,5.641,0,0,1,.871-3.289,2.807,2.807,0,0,1,2.441-1.25,3.027,3.027,0,0,1,1.316.273,2.7,2.7,0,0,1,.98.8V40.813H180.2V53h-1.18l-.234-1.07a2.743,2.743,0,0,1-1.023.922,3.058,3.058,0,0,1-1.414.313,2.9,2.9,0,0,1-2.422-1.121,4.659,4.659,0,0,1-.875-2.949Zm1.539.164a3.588,3.588,0,0,0,.523,2.051,1.828,1.828,0,0,0,1.625.77,2.039,2.039,0,0,0,1.156-.312,2.334,2.334,0,0,0,.766-.875V46.781a2.37,2.37,0,0,0-.77-.832,2.033,2.033,0,0,0-1.137-.309,1.759,1.759,0,0,0-1.637.914,4.718,4.718,0,0,0-.527,2.375ZM184.156,53h-1.539V44.547h1.539Zm0-10.617h-1.539v-1.57h1.539Zm5.867,10.781A3.576,3.576,0,0,1,187.184,52a4.48,4.48,0,0,1-1.02-3.062v-.344a4.386,4.386,0,0,1,1.051-3.012,3.3,3.3,0,0,1,2.566-1.191,3.067,3.067,0,0,1,2.543,1.055,4.345,4.345,0,0,1,.848,2.8v.813h-5.406l-.023.039a3.494,3.494,0,0,0,.563,2.066,1.965,1.965,0,0,0,1.719.793,3.872,3.872,0,0,0,1.371-.223,3.061,3.061,0,0,0,1.012-.613l.6,1a3.7,3.7,0,0,1-1.2.738A4.762,4.762,0,0,1,190.023,53.164Zm-.242-7.562a1.673,1.673,0,0,0-1.332.621,2.938,2.938,0,0,0-.645,1.59l.016.039h3.813v-.125a2.462,2.462,0,0,0-.453-1.523A1.638,1.638,0,0,0,189.781,45.6Zm12.453,6.359a1.81,1.81,0,0,0,1.242-.473,1.493,1.493,0,0,0,.531-1.16H205.4l.023.047a2.428,2.428,0,0,1-.937,1.941,3.582,3.582,0,0,1-5-.363,4.674,4.674,0,0,1-.969-3.016v-.328a4.654,4.654,0,0,1,.973-3,3.317,3.317,0,0,1,2.746-1.215,3.189,3.189,0,0,1,2.316.875,2.775,2.775,0,0,1,.871,2.148l-.016.047h-1.4a1.865,1.865,0,0,0-.5-1.316,1.658,1.658,0,0,0-1.27-.543,1.777,1.777,0,0,0-1.652.879,4.114,4.114,0,0,0-.52,2.129v.328a4.192,4.192,0,0,0,.512,2.148A1.776,1.776,0,0,0,202.234,51.961Zm4.656-3.266a4.654,4.654,0,0,1,1.016-3.09,3.764,3.764,0,0,1,5.535,0,4.639,4.639,0,0,1,1.02,3.094v.172a4.631,4.631,0,0,1-1.016,3.094,3.781,3.781,0,0,1-5.535,0,4.623,4.623,0,0,1-1.02-3.09Zm1.539.172A4.009,4.009,0,0,0,209,51.086a2.046,2.046,0,0,0,3.355,0,3.988,3.988,0,0,0,.57-2.219V48.7a3.976,3.976,0,0,0-.574-2.211,1.882,1.882,0,0,0-1.684-.883,1.856,1.856,0,0,0-1.668.883,4.018,4.018,0,0,0-.566,2.211Zm9.289-4.32.109,1.258a3.069,3.069,0,0,1,1.059-1.043,2.824,2.824,0,0,1,1.449-.371,2.759,2.759,0,0,1,2.117.8,3.515,3.515,0,0,1,.75,2.473V53h-1.539V47.7a2.287,2.287,0,0,0-.441-1.586,1.768,1.768,0,0,0-1.348-.469,2.386,2.386,0,0,0-1.207.285,2.072,2.072,0,0,0-.785.8V53h-1.539V44.547Zm11.344,4.383a5.641,5.641,0,0,1,.871-3.289,2.807,2.807,0,0,1,2.441-1.25,2.984,2.984,0,0,1,1.352.293,2.8,2.8,0,0,1,1,.848l.219-.984h1.18v11.7h-1.539V52.2a2.637,2.637,0,0,1-.961.719,3.135,3.135,0,0,1-1.266.242,2.9,2.9,0,0,1-2.422-1.121,4.659,4.659,0,0,1-.875-2.949Zm1.539.164a3.684,3.684,0,0,0,.527,2.074,1.811,1.811,0,0,0,1.621.793,2,2,0,0,0,1.082-.281,2.312,2.312,0,0,0,.754-.789V46.625a2.329,2.329,0,0,0-.754-.75,2.011,2.011,0,0,0-1.066-.273,1.754,1.754,0,0,0-1.633.934,4.8,4.8,0,0,0-.531,2.395Zm13.273,2.656a2.863,2.863,0,0,1-1.023,1.047,2.8,2.8,0,0,1-1.445.367,2.716,2.716,0,0,1-2.156-.883,4.1,4.1,0,0,1-.773-2.75V44.547h1.539v5a3.147,3.147,0,0,0,.4,1.859,1.481,1.481,0,0,0,1.242.508,2.531,2.531,0,0,0,1.355-.332,2.077,2.077,0,0,0,.809-.941V44.547h1.539V53h-1.383ZM249.266,53h-1.539V44.547h1.539Zm0-10.617h-1.539v-1.57h1.539Zm5.867,10.781A3.576,3.576,0,0,1,252.293,52a4.48,4.48,0,0,1-1.02-3.062v-.344a4.386,4.386,0,0,1,1.051-3.012,3.3,3.3,0,0,1,2.566-1.191,3.067,3.067,0,0,1,2.543,1.055,4.345,4.345,0,0,1,.848,2.8v.813h-5.406l-.023.039a3.494,3.494,0,0,0,.563,2.066,1.965,1.965,0,0,0,1.719.793,3.872,3.872,0,0,0,1.371-.223,3.061,3.061,0,0,0,1.012-.613l.6,1a3.7,3.7,0,0,1-1.2.738A4.762,4.762,0,0,1,255.133,53.164Zm-.242-7.562a1.673,1.673,0,0,0-1.332.621,2.938,2.938,0,0,0-.645,1.59l.016.039h3.813v-.125a2.461,2.461,0,0,0-.453-1.523A1.638,1.638,0,0,0,254.891,45.6Zm6.492-1.055.109,1.258a3.069,3.069,0,0,1,1.059-1.043A2.824,2.824,0,0,1,264,44.391a2.759,2.759,0,0,1,2.117.8,3.515,3.515,0,0,1,.75,2.473V53h-1.539V47.7a2.287,2.287,0,0,0-.441-1.586,1.768,1.768,0,0,0-1.348-.469,2.386,2.386,0,0,0-1.207.285,2.073,2.073,0,0,0-.785.8V53h-1.539V44.547ZM2.781,72H1.242V63.547H2.781Zm0-10.617H1.242v-1.57H2.781Zm6.367,3.523-.789-.047a1.762,1.762,0,0,0-1.027.289,1.854,1.854,0,0,0-.645.813V72H5.148V63.547H6.523l.148,1.234a2.934,2.934,0,0,1,.887-1.023,2.073,2.073,0,0,1,1.215-.367,1.9,1.9,0,0,1,.328.027,2.175,2.175,0,0,1,.258.059ZM11.469,72H9.93V70.422h1.539Z" transform="translate(959 7422.415)" fill="#777"/>
    <path id="Trazado_179321" data-name="Trazado 179321" d="M-2335.664-4371.5h23.1v50.9h-157.305" transform="translate(3710.867 11686.204)" fill="none" stroke="#fc5f65" stroke-width="2"/>
    <path id="Trazado_180956" data-name="Trazado 180956" d="M5.5,0,11,10H0Z" transform="translate(1236 7371.415) rotate(-90)" fill="#fc5f65"/>
    <path id="Trazado_179320" data-name="Trazado 179320" d="M-2455.036-4371.5h-14.831v54.688h14.831" transform="translate(3407 11682.415)" fill="none" stroke="#3c3fa7" stroke-width="2"/>
    <path id="Trazado_180957" data-name="Trazado 180957" d="M5.5,0,11,10H0Z" transform="translate(955 7360.415) rotate(90)" fill="#3c3fa7"/>
    <path id="Trazado_179322" data-name="Trazado 179322" d="M202.078,15H199.8l1.7-11.375h2.281Zm9.406-7.43A3.609,3.609,0,0,1,212.6,6.7a2.936,2.936,0,0,1,1.324-.309,2.218,2.218,0,0,1,1.918.887,3.66,3.66,0,0,1,.371,2.707L215.461,15H213.18l.758-5.031a2.2,2.2,0,0,0-.105-1.414.985.985,0,0,0-.895-.391,2.285,2.285,0,0,0-.926.18,2.134,2.134,0,0,0-.715.508L210.375,15h-2.281l1.828-12.187H212.2ZM222.164,15a3.7,3.7,0,0,1-.125-.613,4.615,4.615,0,0,1-.031-.66,3.883,3.883,0,0,1-1.082,1.031,2.609,2.609,0,0,1-1.434.406,2.5,2.5,0,0,1-1.922-.691,2.114,2.114,0,0,1-.461-1.855,2.637,2.637,0,0,1,1.234-1.949,5.433,5.433,0,0,1,2.906-.66h1.281l.1-.672a1.182,1.182,0,0,0-.176-.957,1.124,1.124,0,0,0-.91-.324,1.425,1.425,0,0,0-.887.27,1.063,1.063,0,0,0-.418.738h-2.2l-.008-.047a2.573,2.573,0,0,1,1.207-1.867,4.614,4.614,0,0,1,2.7-.758,3.321,3.321,0,0,1,2.32.773,2.306,2.306,0,0,1,.641,2.188l-.523,3.492a6.258,6.258,0,0,0-.078,1.125A5.487,5.487,0,0,0,224.438,15ZM220.3,13.477a2.165,2.165,0,0,0,1.094-.3,2.036,2.036,0,0,0,.758-.691l.18-1.187h-1.281a1.718,1.718,0,0,0-1.137.367,1.4,1.4,0,0,0-.52.875.762.762,0,0,0,.172.691A.989.989,0,0,0,220.3,13.477Zm8.875-1.625.031.773.047.008.273-.781,2.188-5.3H234.1L229.961,15h-2.18l-1.609-8.453h2.383Zm8.188,3.313a3.285,3.285,0,0,1-2.742-1.176,3.672,3.672,0,0,1-.648-2.973l.047-.312a5.343,5.343,0,0,1,1.488-3.145,4.111,4.111,0,0,1,3.02-1.168,2.826,2.826,0,0,1,2.426,1.055,3.614,3.614,0,0,1,.52,2.8l-.172,1.18h-5.047l-.016.039a1.983,1.983,0,0,0,.3,1.426,1.546,1.546,0,0,0,1.328.527,5.011,5.011,0,0,0,1.32-.16,6.029,6.029,0,0,0,1.188-.473l.406,1.406a5.183,5.183,0,0,1-1.484.7A6.475,6.475,0,0,1,237.367,15.164Zm.906-7.016a1.459,1.459,0,0,0-1.105.477,2.831,2.831,0,0,0-.652,1.242l.016.047H239.3l.023-.172a1.824,1.824,0,0,0-.121-1.18A.975.975,0,0,0,238.273,8.148Zm7.1-.437a3.623,3.623,0,0,1,1.18-.977,3.112,3.112,0,0,1,1.438-.344,2.153,2.153,0,0,1,1.852.836A3.482,3.482,0,0,1,250.2,9.82L249.422,15h-2.289l.773-5.172a1.9,1.9,0,0,0-.113-1.3,1.025,1.025,0,0,0-.9-.363,2.106,2.106,0,0,0-.918.2,2.2,2.2,0,0,0-.723.551L244.336,15h-2.281l1.266-8.453h2.125Zm9.32-2.062-1.133,2.227h-1.125l.328-2.219.3-2.031h1.922Zm4.969-1.172-.312,2.07h1.43l-.234,1.6h-1.437l-.641,4.3a.9.9,0,0,0,.094.715.644.644,0,0,0,.516.2,2.371,2.371,0,0,0,.316-.02,2.469,2.469,0,0,0,.316-.066l-.062,1.648a5.087,5.087,0,0,1-.691.176,4.116,4.116,0,0,1-.715.059,2.108,2.108,0,0,1-1.7-.656,2.509,2.509,0,0,1-.348-2.047l.641-4.312h-1.227l.234-1.6h1.234l.313-2.07ZM3.586,26.57A3.609,3.609,0,0,1,4.7,25.7a2.936,2.936,0,0,1,1.324-.309,2.218,2.218,0,0,1,1.918.887,3.66,3.66,0,0,1,.371,2.707L7.563,34H5.281l.758-5.031a2.2,2.2,0,0,0-.105-1.414.985.985,0,0,0-.895-.391,2.285,2.285,0,0,0-.926.18,2.134,2.134,0,0,0-.715.508L2.477,34H.2L2.023,21.813H4.3ZM14.266,34a3.7,3.7,0,0,1-.125-.613,4.615,4.615,0,0,1-.031-.66,3.883,3.883,0,0,1-1.082,1.031,2.609,2.609,0,0,1-1.434.406,2.5,2.5,0,0,1-1.922-.691,2.114,2.114,0,0,1-.461-1.855,2.637,2.637,0,0,1,1.234-1.949,5.433,5.433,0,0,1,2.906-.66h1.281l.1-.672a1.182,1.182,0,0,0-.176-.957,1.124,1.124,0,0,0-.91-.324,1.425,1.425,0,0,0-.887.27,1.063,1.063,0,0,0-.418.738h-2.2l-.008-.047a2.573,2.573,0,0,1,1.207-1.867,4.614,4.614,0,0,1,2.7-.758,3.321,3.321,0,0,1,2.32.773,2.306,2.306,0,0,1,.641,2.188l-.523,3.492a6.259,6.259,0,0,0-.078,1.125A5.486,5.486,0,0,0,16.539,34Zm-1.859-1.523a2.165,2.165,0,0,0,1.094-.3,2.036,2.036,0,0,0,.758-.691l.18-1.187H13.156a1.718,1.718,0,0,0-1.137.367,1.4,1.4,0,0,0-.52.875.762.762,0,0,0,.172.691A.989.989,0,0,0,12.406,32.477Zm5.742-2.633a6.25,6.25,0,0,1,1.34-3.262,3.322,3.322,0,0,1,2.621-1.191,2.027,2.027,0,0,1,1.082.285,2.366,2.366,0,0,1,.785.816l.7-4.68h2.289L25.141,34H23.2l-.039-1.039a3.5,3.5,0,0,1-1.078.895,2.77,2.77,0,0,1-1.3.309,2.431,2.431,0,0,1-2.215-1.156,4.311,4.311,0,0,1-.441-3Zm2.25.164a3.186,3.186,0,0,0,.1,1.766,1.118,1.118,0,0,0,1.133.617,1.909,1.909,0,0,0,.887-.207,1.987,1.987,0,0,0,.691-.6l.539-3.578a1.389,1.389,0,0,0-.5-.621,1.433,1.433,0,0,0-.816-.223,1.549,1.549,0,0,0-1.316.754,4.508,4.508,0,0,0-.691,1.926Zm14.8-6.531-.312,2.07h1.43l-.234,1.6H34.648l-.641,4.3a.9.9,0,0,0,.094.715.644.644,0,0,0,.516.2,2.371,2.371,0,0,0,.316-.02,2.468,2.468,0,0,0,.316-.066l-.062,1.648a5.086,5.086,0,0,1-.691.176,4.116,4.116,0,0,1-.715.059,2.108,2.108,0,0,1-1.7-.656,2.509,2.509,0,0,1-.348-2.047l.641-4.312H31.148l.234-1.6h1.234l.313-2.07ZM39.8,26.57A3.609,3.609,0,0,1,40.91,25.7a2.936,2.936,0,0,1,1.324-.309,2.218,2.218,0,0,1,1.918.887,3.66,3.66,0,0,1,.371,2.707L43.773,34H41.492l.758-5.031a2.2,2.2,0,0,0-.105-1.414.985.985,0,0,0-.895-.391,2.285,2.285,0,0,0-.926.18,2.134,2.134,0,0,0-.715.508L38.688,34H36.406l1.828-12.187h2.281Zm9.336,7.594a3.285,3.285,0,0,1-2.742-1.176,3.672,3.672,0,0,1-.648-2.973l.047-.312a5.343,5.343,0,0,1,1.488-3.145,4.111,4.111,0,0,1,3.02-1.168,2.826,2.826,0,0,1,2.426,1.055,3.614,3.614,0,0,1,.52,2.8l-.172,1.18H48.023l-.016.039a1.983,1.983,0,0,0,.3,1.426,1.546,1.546,0,0,0,1.328.527,5.011,5.011,0,0,0,1.32-.16,6.028,6.028,0,0,0,1.188-.473l.406,1.406a5.183,5.183,0,0,1-1.484.7A6.475,6.475,0,0,1,49.133,34.164Zm.906-7.016a1.459,1.459,0,0,0-1.105.477,2.831,2.831,0,0,0-.652,1.242l.016.047h2.766l.023-.172a1.824,1.824,0,0,0-.121-1.18A.975.975,0,0,0,50.039,27.148Zm12.117-3.672-.312,2.07h1.43l-.234,1.6H61.6l-.641,4.3a.9.9,0,0,0,.094.715.644.644,0,0,0,.516.2,2.371,2.371,0,0,0,.316-.02,2.468,2.468,0,0,0,.316-.066l-.062,1.648a5.086,5.086,0,0,1-.691.176,4.116,4.116,0,0,1-.715.059,2.108,2.108,0,0,1-1.7-.656,2.509,2.509,0,0,1-.348-2.047l.641-4.312H58.1l.234-1.6H59.57l.313-2.07ZM65.813,34H63.531L64.8,25.547h2.281Zm1.57-10.477H65.1l.258-1.711h2.281Zm3.625,3.094a3.39,3.39,0,0,1,1.152-.91,3.345,3.345,0,0,1,1.465-.316,2.279,2.279,0,0,1,1.3.359,1.814,1.814,0,0,1,.73,1.078,3.53,3.53,0,0,1,1.176-1.062,3.155,3.155,0,0,1,1.543-.375,2.057,2.057,0,0,1,1.82.895,3.792,3.792,0,0,1,.336,2.7L79.781,34H77.5l.75-5.023a2.267,2.267,0,0,0-.09-1.434.968.968,0,0,0-.879-.379,1.705,1.705,0,0,0-.859.223A2.116,2.116,0,0,0,75.75,28q-.008.109-.02.219t-.027.227L74.867,34H72.594l.75-5.023a2.225,2.225,0,0,0-.094-1.422.966.966,0,0,0-.883-.391,1.858,1.858,0,0,0-.828.184,1.994,1.994,0,0,0-.656.52L69.961,34H67.688l1.266-8.453H71.07Zm14.164,7.547a3.285,3.285,0,0,1-2.742-1.176,3.672,3.672,0,0,1-.648-2.973l.047-.312a5.343,5.343,0,0,1,1.488-3.145,4.111,4.111,0,0,1,3.02-1.168,2.826,2.826,0,0,1,2.426,1.055,3.614,3.614,0,0,1,.52,2.8l-.172,1.18H84.063l-.016.039a1.983,1.983,0,0,0,.3,1.426,1.546,1.546,0,0,0,1.328.527,5.011,5.011,0,0,0,1.32-.16,6.028,6.028,0,0,0,1.188-.473l.406,1.406a5.183,5.183,0,0,1-1.484.7A6.475,6.475,0,0,1,85.172,34.164Zm.906-7.016a1.459,1.459,0,0,0-1.105.477,2.831,2.831,0,0,0-.652,1.242l.016.047H87.1l.023-.172A1.824,1.824,0,0,0,87,27.563.975.975,0,0,0,86.078,27.148ZM98.2,23.477l-.312,2.07h1.43l-.234,1.6H97.641L97,31.453a.9.9,0,0,0,.094.715.644.644,0,0,0,.516.2,2.371,2.371,0,0,0,.316-.02,2.468,2.468,0,0,0,.316-.066L98.18,33.93a5.087,5.087,0,0,1-.691.176,4.116,4.116,0,0,1-.715.059,2.108,2.108,0,0,1-1.7-.656,2.509,2.509,0,0,1-.348-2.047l.641-4.312H94.141l.234-1.6h1.234l.313-2.07ZM99.75,29.7a5.25,5.25,0,0,1,1.512-3.133,4.306,4.306,0,0,1,3.105-1.172,3.183,3.183,0,0,1,2.719,1.219,3.985,3.985,0,0,1,.641,3.086l-.023.164A5.312,5.312,0,0,1,106.18,33a4.319,4.319,0,0,1-3.109,1.164,3.188,3.188,0,0,1-2.719-1.215,3.942,3.942,0,0,1-.625-3.09Zm2.25.164a3.383,3.383,0,0,0,.117,1.875,1.193,1.193,0,0,0,1.211.68,1.663,1.663,0,0,0,1.383-.711,3.994,3.994,0,0,0,.711-1.844l.023-.164a3.489,3.489,0,0,0-.137-1.855,1.176,1.176,0,0,0-1.2-.691,1.661,1.661,0,0,0-1.391.723,3.918,3.918,0,0,0-.7,1.824Zm10.758-.016a6.217,6.217,0,0,1,1.344-3.266,3.338,3.338,0,0,1,2.625-1.187,2.042,2.042,0,0,1,1.18.336,2.429,2.429,0,0,1,.8.945l.352-1.125h1.961l-1.258,8.414a3.745,3.745,0,0,1-1.461,2.582,5.224,5.224,0,0,1-3.148.871,5.345,5.345,0,0,1-1.32-.18,5.757,5.757,0,0,1-1.266-.477l.641-1.7a4.509,4.509,0,0,0,1.023.379,5.107,5.107,0,0,0,1.188.129,2.292,2.292,0,0,0,1.418-.395,1.786,1.786,0,0,0,.645-1.215l.109-.766a3.153,3.153,0,0,1-.992.73,2.845,2.845,0,0,1-1.2.246,2.44,2.44,0,0,1-2.219-1.156,4.3,4.3,0,0,1-.445-3Zm2.258.164a3.217,3.217,0,0,0,.1,1.766,1.11,1.11,0,0,0,1.129.617,1.906,1.906,0,0,0,1.586-.773l.547-3.633a1.272,1.272,0,0,0-.5-.609,1.6,1.6,0,0,0-2.152.543,4.541,4.541,0,0,0-.687,1.926ZM121.8,29.7a5.25,5.25,0,0,1,1.512-3.133,4.306,4.306,0,0,1,3.105-1.172,3.183,3.183,0,0,1,2.719,1.219,3.985,3.985,0,0,1,.641,3.086l-.023.164A5.312,5.312,0,0,1,128.227,33a4.319,4.319,0,0,1-3.109,1.164,3.188,3.188,0,0,1-2.719-1.215,3.942,3.942,0,0,1-.625-3.09Zm2.25.164a3.383,3.383,0,0,0,.117,1.875,1.193,1.193,0,0,0,1.211.68,1.663,1.663,0,0,0,1.383-.711,3.994,3.994,0,0,0,.711-1.844l.023-.164a3.489,3.489,0,0,0-.137-1.855,1.176,1.176,0,0,0-1.2-.691,1.661,1.661,0,0,0-1.391.723,3.918,3.918,0,0,0-.7,1.824ZM136.914,34h-2.281l1.828-12.187h2.281Zm6.859,0a3.7,3.7,0,0,1-.125-.613,4.615,4.615,0,0,1-.031-.66,3.883,3.883,0,0,1-1.082,1.031,2.609,2.609,0,0,1-1.434.406,2.5,2.5,0,0,1-1.922-.691,2.114,2.114,0,0,1-.461-1.855,2.637,2.637,0,0,1,1.234-1.949,5.433,5.433,0,0,1,2.906-.66h1.281l.1-.672a1.182,1.182,0,0,0-.176-.957,1.124,1.124,0,0,0-.91-.324,1.425,1.425,0,0,0-.887.27,1.063,1.063,0,0,0-.418.738h-2.2l-.008-.047a2.573,2.573,0,0,1,1.207-1.867,4.614,4.614,0,0,1,2.7-.758,3.321,3.321,0,0,1,2.32.773,2.306,2.306,0,0,1,.641,2.188l-.523,3.492a6.258,6.258,0,0,0-.078,1.125A5.487,5.487,0,0,0,146.047,34Zm-1.859-1.523a2.165,2.165,0,0,0,1.094-.3,2.036,2.036,0,0,0,.758-.691l.18-1.187h-1.281a1.718,1.718,0,0,0-1.137.367,1.4,1.4,0,0,0-.52.875.762.762,0,0,0,.172.691A.989.989,0,0,0,141.914,32.477Zm9.781-9-.312,2.07h1.43l-.234,1.6h-1.437l-.641,4.3a.9.9,0,0,0,.094.715.644.644,0,0,0,.516.2,2.371,2.371,0,0,0,.316-.02,2.468,2.468,0,0,0,.316-.066l-.062,1.648a5.086,5.086,0,0,1-.691.176,4.116,4.116,0,0,1-.715.059,2.108,2.108,0,0,1-1.7-.656,2.509,2.509,0,0,1-.348-2.047l.641-4.312h-1.227l.234-1.6h1.234l.313-2.07Zm4.9,10.688a3.285,3.285,0,0,1-2.742-1.176,3.672,3.672,0,0,1-.648-2.973l.047-.312a5.343,5.343,0,0,1,1.488-3.145,4.111,4.111,0,0,1,3.02-1.168,2.826,2.826,0,0,1,2.426,1.055,3.614,3.614,0,0,1,.52,2.8l-.172,1.18h-5.047l-.016.039a1.983,1.983,0,0,0,.3,1.426,1.546,1.546,0,0,0,1.328.527,5.011,5.011,0,0,0,1.32-.16,6.028,6.028,0,0,0,1.188-.473l.406,1.406a5.183,5.183,0,0,1-1.484.7A6.475,6.475,0,0,1,156.594,34.164Zm.906-7.016a1.459,1.459,0,0,0-1.105.477,2.831,2.831,0,0,0-.652,1.242l.016.047h2.766l.023-.172a1.824,1.824,0,0,0-.121-1.18A.975.975,0,0,0,157.5,27.148ZM163.719,34h-2.281l1.828-12.187h2.281Zm5.453-3.547.016.461.047.008,2.43-5.375h2.453l-4.883,9.719a5.432,5.432,0,0,1-1.207,1.527,2.871,2.871,0,0,1-1.949.621,2.773,2.773,0,0,1-.52-.047q-.246-.047-.582-.133l.516-1.664q.094.016.211.031a1.611,1.611,0,0,0,.211.016,1.4,1.4,0,0,0,.9-.285,2.344,2.344,0,0,0,.586-.684l.359-.648-1.734-8.453h2.453ZM182.734,34a3.7,3.7,0,0,1-.125-.613,4.615,4.615,0,0,1-.031-.66,3.883,3.883,0,0,1-1.082,1.031,2.609,2.609,0,0,1-1.434.406,2.5,2.5,0,0,1-1.922-.691,2.114,2.114,0,0,1-.461-1.855,2.637,2.637,0,0,1,1.234-1.949,5.433,5.433,0,0,1,2.906-.66H183.1l.1-.672a1.182,1.182,0,0,0-.176-.957,1.124,1.124,0,0,0-.91-.324,1.425,1.425,0,0,0-.887.27,1.063,1.063,0,0,0-.418.738h-2.2l-.008-.047a2.573,2.573,0,0,1,1.207-1.867,4.614,4.614,0,0,1,2.7-.758,3.321,3.321,0,0,1,2.32.773,2.306,2.306,0,0,1,.641,2.188l-.523,3.492a6.258,6.258,0,0,0-.078,1.125A5.487,5.487,0,0,0,185.008,34Zm-1.859-1.523a2.165,2.165,0,0,0,1.094-.3,2.036,2.036,0,0,0,.758-.691l.18-1.187h-1.281a1.718,1.718,0,0,0-1.137.367,1.4,1.4,0,0,0-.52.875.762.762,0,0,0,.172.691A.989.989,0,0,0,180.875,32.477Zm8.75-5.766a3.623,3.623,0,0,1,1.18-.977,3.112,3.112,0,0,1,1.438-.344,2.153,2.153,0,0,1,1.852.836,3.482,3.482,0,0,1,.352,2.594L193.672,34h-2.289l.773-5.172a1.9,1.9,0,0,0-.113-1.3,1.025,1.025,0,0,0-.9-.363,2.106,2.106,0,0,0-.918.2,2.2,2.2,0,0,0-.723.551L188.586,34H186.3l1.266-8.453H189.7Zm6.023,3.133a6.25,6.25,0,0,1,1.34-3.262,3.322,3.322,0,0,1,2.621-1.191,2.027,2.027,0,0,1,1.082.285,2.367,2.367,0,0,1,.785.816l.7-4.68h2.289L202.641,34H200.7l-.039-1.039a3.5,3.5,0,0,1-1.078.895,2.77,2.77,0,0,1-1.3.309,2.431,2.431,0,0,1-2.215-1.156,4.311,4.311,0,0,1-.441-3Zm2.25.164a3.186,3.186,0,0,0,.1,1.766,1.118,1.118,0,0,0,1.133.617,1.909,1.909,0,0,0,.887-.207,1.987,1.987,0,0,0,.691-.6l.539-3.578a1.389,1.389,0,0,0-.5-.621,1.433,1.433,0,0,0-.816-.223,1.549,1.549,0,0,0-1.316.754,4.507,4.507,0,0,0-.691,1.926ZM211,34h-2.281l1.7-11.375H212.7Zm9.406-7.43a3.609,3.609,0,0,1,1.113-.871,2.936,2.936,0,0,1,1.324-.309,2.218,2.218,0,0,1,1.918.887,3.66,3.66,0,0,1,.371,2.707L224.383,34H222.1l.758-5.031a2.2,2.2,0,0,0-.105-1.414.985.985,0,0,0-.895-.391,2.285,2.285,0,0,0-.926.18,2.134,2.134,0,0,0-.715.508L219.3,34h-2.281l1.828-12.187h2.281ZM231.086,34a3.7,3.7,0,0,1-.125-.613,4.615,4.615,0,0,1-.031-.66,3.883,3.883,0,0,1-1.082,1.031,2.609,2.609,0,0,1-1.434.406,2.5,2.5,0,0,1-1.922-.691,2.114,2.114,0,0,1-.461-1.855,2.637,2.637,0,0,1,1.234-1.949,5.433,5.433,0,0,1,2.906-.66h1.281l.1-.672a1.182,1.182,0,0,0-.176-.957,1.124,1.124,0,0,0-.91-.324,1.425,1.425,0,0,0-.887.27,1.063,1.063,0,0,0-.418.738h-2.2l-.008-.047a2.573,2.573,0,0,1,1.207-1.867,4.614,4.614,0,0,1,2.7-.758,3.321,3.321,0,0,1,2.32.773,2.306,2.306,0,0,1,.641,2.188l-.523,3.492a6.258,6.258,0,0,0-.078,1.125A5.487,5.487,0,0,0,233.359,34Zm-1.859-1.523a2.165,2.165,0,0,0,1.094-.3,2.036,2.036,0,0,0,.758-.691l.18-1.187h-1.281a1.718,1.718,0,0,0-1.137.367,1.4,1.4,0,0,0-.52.875.762.762,0,0,0,.172.691A.989.989,0,0,0,229.227,32.477Zm8.875-1.625.031.773.047.008.273-.781,2.188-5.3h2.383L238.883,34H236.7l-1.609-8.453h2.383Zm8.188,3.313a3.285,3.285,0,0,1-2.742-1.176,3.672,3.672,0,0,1-.648-2.973l.047-.312a5.343,5.343,0,0,1,1.488-3.145,4.111,4.111,0,0,1,3.02-1.168,2.826,2.826,0,0,1,2.426,1.055,3.614,3.614,0,0,1,.52,2.8l-.172,1.18H245.18l-.016.039a1.983,1.983,0,0,0,.3,1.426,1.546,1.546,0,0,0,1.328.527,5.011,5.011,0,0,0,1.32-.16,6.028,6.028,0,0,0,1.188-.473l.406,1.406a5.183,5.183,0,0,1-1.484.7A6.475,6.475,0,0,1,246.289,34.164Zm.906-7.016a1.459,1.459,0,0,0-1.105.477,2.831,2.831,0,0,0-.652,1.242l.016.047h2.766l.023-.172a1.824,1.824,0,0,0-.121-1.18A.975.975,0,0,0,247.2,27.148Zm7.1-.437a3.623,3.623,0,0,1,1.18-.977,3.112,3.112,0,0,1,1.438-.344,2.153,2.153,0,0,1,1.852.836,3.482,3.482,0,0,1,.352,2.594L258.344,34h-2.289l.773-5.172a1.9,1.9,0,0,0-.113-1.3,1.025,1.025,0,0,0-.9-.363,2.106,2.106,0,0,0-.918.2,2.2,2.2,0,0,0-.723.551L253.258,34h-2.281l1.266-8.453h2.125Zm9.32-2.062-1.133,2.227h-1.125l.328-2.219.3-2.031h1.922Zm4.969-1.172-.312,2.07h1.43l-.234,1.6h-1.437l-.641,4.3a.9.9,0,0,0,.094.715.644.644,0,0,0,.516.2,2.371,2.371,0,0,0,.316-.02,2.469,2.469,0,0,0,.316-.066l-.062,1.648a5.087,5.087,0,0,1-.691.176,4.116,4.116,0,0,1-.715.059,2.108,2.108,0,0,1-1.7-.656,2.509,2.509,0,0,1-.348-2.047l.641-4.312h-1.227l.234-1.6H266l.313-2.07ZM.844,53l1.023-6.852H.617l.234-1.6H2.109l.141-.937a3.345,3.345,0,0,1,1.141-2.219,3.757,3.757,0,0,1,2.43-.742A3.884,3.884,0,0,1,6.4,40.7q.309.047.645.117l-.453,1.7q-.18-.031-.352-.055a3.053,3.053,0,0,0-.406-.023,1.26,1.26,0,0,0-.875.309,1.412,1.412,0,0,0-.43.871l-.141.938H6.016l-.234,1.6H4.148L3.125,53Zm5.281-4.3a5.25,5.25,0,0,1,1.512-3.133,4.306,4.306,0,0,1,3.105-1.172,3.183,3.183,0,0,1,2.719,1.219A3.985,3.985,0,0,1,14.1,48.7l-.023.164A5.312,5.312,0,0,1,12.555,52a4.319,4.319,0,0,1-3.109,1.164,3.188,3.188,0,0,1-2.719-1.215,3.942,3.942,0,0,1-.625-3.09Zm2.25.164a3.383,3.383,0,0,0,.117,1.875,1.193,1.193,0,0,0,1.211.68,1.663,1.663,0,0,0,1.383-.711,3.994,3.994,0,0,0,.711-1.844l.023-.164a3.489,3.489,0,0,0-.137-1.855,1.176,1.176,0,0,0-1.2-.691,1.661,1.661,0,0,0-1.391.723A3.918,3.918,0,0,0,8.4,48.7Zm11.852,2.93a3.366,3.366,0,0,1-1.141,1.023,3.044,3.044,0,0,1-1.461.352,2.2,2.2,0,0,1-1.93-.914,3.9,3.9,0,0,1-.359-2.8l.734-4.9h2.273l-.734,4.914A2.589,2.589,0,0,0,17.676,51a.945.945,0,0,0,.879.391,2.351,2.351,0,0,0,.957-.187,2.046,2.046,0,0,0,.73-.539l.914-6.117h2.281L22.172,53H20.281Zm6.945-6.078a3.623,3.623,0,0,1,1.18-.977,3.112,3.112,0,0,1,1.438-.344,2.153,2.153,0,0,1,1.852.836,3.482,3.482,0,0,1,.352,2.594L31.219,53H28.93l.773-5.172a1.9,1.9,0,0,0-.113-1.3,1.025,1.025,0,0,0-.9-.363,2.106,2.106,0,0,0-.918.2,2.2,2.2,0,0,0-.723.551L26.133,53H23.852l1.266-8.453h2.125ZM33.2,48.844a6.25,6.25,0,0,1,1.34-3.262,3.322,3.322,0,0,1,2.621-1.191,2.027,2.027,0,0,1,1.082.285,2.366,2.366,0,0,1,.785.816l.7-4.68h2.289L40.188,53H38.242L38.2,51.961a3.5,3.5,0,0,1-1.078.895,2.77,2.77,0,0,1-1.3.309,2.431,2.431,0,0,1-2.215-1.156,4.311,4.311,0,0,1-.441-3Zm2.25.164a3.186,3.186,0,0,0,.1,1.766,1.118,1.118,0,0,0,1.133.617,1.909,1.909,0,0,0,.887-.207,1.987,1.987,0,0,0,.691-.6l.539-3.578a1.389,1.389,0,0,0-.5-.621,1.433,1.433,0,0,0-.816-.223,1.549,1.549,0,0,0-1.316.754,4.507,4.507,0,0,0-.691,1.926ZM50.922,53a3.7,3.7,0,0,1-.125-.613,4.615,4.615,0,0,1-.031-.66,3.883,3.883,0,0,1-1.082,1.031,2.609,2.609,0,0,1-1.434.406,2.5,2.5,0,0,1-1.922-.691,2.114,2.114,0,0,1-.461-1.855A2.637,2.637,0,0,1,47.1,48.668a5.433,5.433,0,0,1,2.906-.66h1.281l.1-.672a1.182,1.182,0,0,0-.176-.957,1.124,1.124,0,0,0-.91-.324,1.425,1.425,0,0,0-.887.27,1.063,1.063,0,0,0-.418.738H46.8l-.008-.047A2.573,2.573,0,0,1,48,45.148a4.614,4.614,0,0,1,2.7-.758,3.321,3.321,0,0,1,2.32.773,2.306,2.306,0,0,1,.641,2.188l-.523,3.492a6.258,6.258,0,0,0-.078,1.125A5.486,5.486,0,0,0,53.2,53Zm-1.859-1.523a2.165,2.165,0,0,0,1.094-.3,2.036,2.036,0,0,0,.758-.691l.18-1.187H49.813a1.718,1.718,0,0,0-1.137.367,1.4,1.4,0,0,0-.52.875.762.762,0,0,0,.172.691A.989.989,0,0,0,49.063,51.477Zm8.75-5.766a3.623,3.623,0,0,1,1.18-.977,3.112,3.112,0,0,1,1.438-.344,2.153,2.153,0,0,1,1.852.836,3.482,3.482,0,0,1,.352,2.594L61.859,53H59.57l.773-5.172a1.9,1.9,0,0,0-.113-1.3,1.025,1.025,0,0,0-.9-.363,2.106,2.106,0,0,0-.918.2,2.2,2.2,0,0,0-.723.551L56.773,53H54.492l1.266-8.453h2.125Zm9.328,3.742.016.461.047.008,2.43-5.375h2.453L67.2,54.266A5.432,5.432,0,0,1,66,55.793a2.871,2.871,0,0,1-1.949.621,2.773,2.773,0,0,1-.52-.047q-.246-.047-.582-.133l.516-1.664q.094.016.211.031a1.611,1.611,0,0,0,.211.016,1.4,1.4,0,0,0,.9-.285,2.344,2.344,0,0,0,.586-.684L65.727,53l-1.734-8.453h2.453Zm8.875-.758a5.25,5.25,0,0,1,1.512-3.133,4.306,4.306,0,0,1,3.105-1.172,3.183,3.183,0,0,1,2.719,1.219,3.985,3.985,0,0,1,.641,3.086l-.023.164A5.312,5.312,0,0,1,82.445,52a4.319,4.319,0,0,1-3.109,1.164,3.188,3.188,0,0,1-2.719-1.215,3.942,3.942,0,0,1-.625-3.09Zm2.25.164a3.383,3.383,0,0,0,.117,1.875,1.193,1.193,0,0,0,1.211.68,1.663,1.663,0,0,0,1.383-.711,3.994,3.994,0,0,0,.711-1.844l.023-.164a3.489,3.489,0,0,0-.137-1.855,1.176,1.176,0,0,0-1.2-.691,1.661,1.661,0,0,0-1.391.723,3.918,3.918,0,0,0-.7,1.824Zm9.766-3.148a3.623,3.623,0,0,1,1.18-.977,3.112,3.112,0,0,1,1.438-.344,2.153,2.153,0,0,1,1.852.836,3.482,3.482,0,0,1,.352,2.594L92.078,53H89.789l.773-5.172a1.9,1.9,0,0,0-.113-1.3,1.025,1.025,0,0,0-.9-.363,2.106,2.106,0,0,0-.918.2,2.2,2.2,0,0,0-.723.551L86.992,53H84.711l1.266-8.453H88.1Zm9.391,7.453a3.285,3.285,0,0,1-2.742-1.176,3.672,3.672,0,0,1-.648-2.973l.047-.312a5.343,5.343,0,0,1,1.488-3.145,4.111,4.111,0,0,1,3.02-1.168,2.826,2.826,0,0,1,2.426,1.055,3.614,3.614,0,0,1,.52,2.8l-.172,1.18H96.313l-.016.039a1.983,1.983,0,0,0,.3,1.426,1.546,1.546,0,0,0,1.328.527,5.011,5.011,0,0,0,1.32-.16,6.028,6.028,0,0,0,1.188-.473l.406,1.406a5.183,5.183,0,0,1-1.484.7A6.475,6.475,0,0,1,97.422,53.164Zm.906-7.016a1.459,1.459,0,0,0-1.105.477,2.831,2.831,0,0,0-.652,1.242l.016.047h2.766l.023-.172a1.824,1.824,0,0,0-.121-1.18A.975.975,0,0,0,98.328,46.148Zm12.117-3.672-.312,2.07h1.43l-.234,1.6h-1.437l-.641,4.3a.9.9,0,0,0,.094.715.644.644,0,0,0,.516.2,2.371,2.371,0,0,0,.316-.02,2.468,2.468,0,0,0,.316-.066l-.062,1.648a5.087,5.087,0,0,1-.691.176,4.116,4.116,0,0,1-.715.059,2.108,2.108,0,0,1-1.7-.656,2.509,2.509,0,0,1-.348-2.047l.641-4.312h-1.227l.234-1.6h1.234l.313-2.07ZM112,48.7a5.25,5.25,0,0,1,1.512-3.133,4.306,4.306,0,0,1,3.105-1.172,3.183,3.183,0,0,1,2.719,1.219,3.985,3.985,0,0,1,.641,3.086l-.023.164A5.312,5.312,0,0,1,118.43,52a4.319,4.319,0,0,1-3.109,1.164,3.188,3.188,0,0,1-2.719-1.215,3.942,3.942,0,0,1-.625-3.09Zm2.25.164a3.383,3.383,0,0,0,.117,1.875,1.193,1.193,0,0,0,1.211.68,1.663,1.663,0,0,0,1.383-.711,3.994,3.994,0,0,0,.711-1.844l.023-.164a3.489,3.489,0,0,0-.137-1.855,1.176,1.176,0,0,0-1.2-.691,1.661,1.661,0,0,0-1.391.723,3.918,3.918,0,0,0-.7,1.824Zm10.758-.016a6.217,6.217,0,0,1,1.344-3.266,3.338,3.338,0,0,1,2.625-1.187,2.042,2.042,0,0,1,1.18.336,2.428,2.428,0,0,1,.8.945l.352-1.125h1.961l-1.258,8.414a3.745,3.745,0,0,1-1.461,2.582,5.224,5.224,0,0,1-3.148.871,5.345,5.345,0,0,1-1.32-.18,5.757,5.757,0,0,1-1.266-.477l.641-1.7a4.509,4.509,0,0,0,1.023.379,5.107,5.107,0,0,0,1.188.129,2.292,2.292,0,0,0,1.418-.395,1.786,1.786,0,0,0,.645-1.215l.109-.766a3.153,3.153,0,0,1-.992.73,2.845,2.845,0,0,1-1.2.246,2.44,2.44,0,0,1-2.219-1.156,4.3,4.3,0,0,1-.445-3Zm2.258.164a3.217,3.217,0,0,0,.1,1.766,1.11,1.11,0,0,0,1.129.617,1.906,1.906,0,0,0,1.586-.773l.547-3.633a1.272,1.272,0,0,0-.5-.609,1.6,1.6,0,0,0-2.152.543,4.541,4.541,0,0,0-.687,1.926Zm6.781-.312a5.249,5.249,0,0,1,1.512-3.133,4.306,4.306,0,0,1,3.105-1.172,3.183,3.183,0,0,1,2.719,1.219,3.985,3.985,0,0,1,.641,3.086l-.023.164A5.312,5.312,0,0,1,140.477,52a4.319,4.319,0,0,1-3.109,1.164,3.188,3.188,0,0,1-2.719-1.215,3.942,3.942,0,0,1-.625-3.09Zm2.25.164a3.383,3.383,0,0,0,.117,1.875,1.193,1.193,0,0,0,1.211.68,1.663,1.663,0,0,0,1.383-.711,3.994,3.994,0,0,0,.711-1.844l.023-.164a3.489,3.489,0,0,0-.137-1.855,1.176,1.176,0,0,0-1.2-.691,1.661,1.661,0,0,0-1.391.723,3.918,3.918,0,0,0-.7,1.824Zm18.3.984h.047l1.813-5.3h2.219L155.258,53h-1.906l-.836-4.867-.047-.008L150.164,53h-1.9l-.883-8.453H149.6l.242,5.273.047.008,2.375-5.281h1.523ZM160.938,53h-2.281l1.266-8.453H162.2Zm1.57-10.477h-2.281l.258-1.711h2.281Zm4.617-.047-.312,2.07h1.43l-.234,1.6H166.57l-.641,4.3a.9.9,0,0,0,.094.715.644.644,0,0,0,.516.2,2.371,2.371,0,0,0,.316-.02,2.468,2.468,0,0,0,.316-.066l-.062,1.648a5.086,5.086,0,0,1-.691.176,4.116,4.116,0,0,1-.715.059,2.108,2.108,0,0,1-1.7-.656,2.509,2.509,0,0,1-.348-2.047l.641-4.312H163.07l.234-1.6h1.234l.313-2.07Zm4.594,3.094a3.609,3.609,0,0,1,1.113-.871,2.936,2.936,0,0,1,1.324-.309,2.218,2.218,0,0,1,1.918.887,3.66,3.66,0,0,1,.371,2.707L175.7,53h-2.281l.758-5.031a2.2,2.2,0,0,0-.105-1.414.985.985,0,0,0-.895-.391,2.285,2.285,0,0,0-.926.18,2.134,2.134,0,0,0-.715.508L170.609,53h-2.281l1.828-12.187h2.281ZM179.945,53h-2.281l.3-2h2.281Z" transform="translate(960 7356.415)" fill="#fc5f65"/>
    <path id="Trazado_179325" data-name="Trazado 179325" d="M-71.6,0l1.916-12.8h4.465a4.556,4.556,0,0,1,3.595,1.512,4.507,4.507,0,0,1,.993,3.832l-.316,2.118A6.062,6.062,0,0,1-63.04-1.446,6.167,6.167,0,0,1-67.135,0Zm4.184-10.819-1.327,8.851h1.907a2.944,2.944,0,0,0,2.153-.954,4.232,4.232,0,0,0,1.16-2.413l.325-2.136a3.344,3.344,0,0,0-.409-2.435,2.153,2.153,0,0,0-1.9-.914Zm11.628,11a3.7,3.7,0,0,1-3.085-1.323A4.132,4.132,0,0,1-59.6-4.482l.053-.352a6.01,6.01,0,0,1,1.674-3.538,4.624,4.624,0,0,1,3.4-1.314A3.18,3.18,0,0,1-51.75-8.5a4.065,4.065,0,0,1,.584,3.146l-.193,1.327h-5.678l-.018.044a2.23,2.23,0,0,0,.334,1.6,1.74,1.74,0,0,0,1.494.593,5.638,5.638,0,0,0,1.485-.18A6.782,6.782,0,0,0-52.4-2.5l.457,1.582a5.83,5.83,0,0,1-1.67.782A7.285,7.285,0,0,1-55.789.185Zm1.02-7.893a1.642,1.642,0,0,0-1.244.536,3.185,3.185,0,0,0-.734,1.4l.018.053h3.111l.026-.193a2.052,2.052,0,0,0-.136-1.327A1.1,1.1,0,0,0-54.769-7.708Zm13.553,3.217A6.323,6.323,0,0,1-42.7-1.059,3.8,3.8,0,0,1-45.62.185,2.615,2.615,0,0,1-46.89-.11a2.335,2.335,0,0,1-.883-.857l-.686,4.623h-2.558L-49.047-9.51h2.312l-.018,1.125a3.733,3.733,0,0,1,1.16-.967,3.056,3.056,0,0,1,1.433-.334,2.677,2.677,0,0,1,2.5,1.393,5.546,5.546,0,0,1,.475,3.617Zm-2.54-.185a4.389,4.389,0,0,0-.119-2.2,1.225,1.225,0,0,0-1.252-.817,2.036,2.036,0,0,0-1.011.25,2.279,2.279,0,0,0-.765.708l-.624,4.113A1.255,1.255,0,0,0-46.973-2,1.99,1.99,0,0,0-46-1.784a1.752,1.752,0,0,0,1.459-.738,4.308,4.308,0,0,0,.756-1.969Zm7.541,4.86A3.7,3.7,0,0,1-39.3-1.138a4.132,4.132,0,0,1-.729-3.344l.053-.352A6.01,6.01,0,0,1-38.3-8.372a4.624,4.624,0,0,1,3.4-1.314A3.18,3.18,0,0,1-32.177-8.5a4.065,4.065,0,0,1,.584,3.146l-.193,1.327h-5.678l-.018.044a2.23,2.23,0,0,0,.334,1.6,1.74,1.74,0,0,0,1.494.593,5.638,5.638,0,0,0,1.485-.18A6.782,6.782,0,0,0-32.832-2.5l.457,1.582a5.83,5.83,0,0,1-1.67.782A7.285,7.285,0,0,1-36.215.185Zm1.02-7.893a1.642,1.642,0,0,0-1.244.536,3.185,3.185,0,0,0-.734,1.4l.018.053h3.111l.026-.193a2.052,2.052,0,0,0-.136-1.327A1.1,1.1,0,0,0-35.2-7.708Zm7.989-.492a4.076,4.076,0,0,1,1.327-1.1,3.5,3.5,0,0,1,1.617-.387,2.422,2.422,0,0,1,2.083.94,3.917,3.917,0,0,1,.4,2.918L-22.654,0h-2.575l.87-5.818a2.141,2.141,0,0,0-.127-1.463A1.153,1.153,0,0,0-25.5-7.69a2.369,2.369,0,0,0-1.033.224,2.473,2.473,0,0,0-.813.62L-28.375,0h-2.566l1.424-9.51h2.391Zm6.776,3.524a7.031,7.031,0,0,1,1.507-3.669,3.737,3.737,0,0,1,2.949-1.34,2.281,2.281,0,0,1,1.217.321,2.662,2.662,0,0,1,.883.918l.791-5.265h2.575L-12.564,0h-2.188L-14.8-1.169A3.933,3.933,0,0,1-16.009-.163a3.116,3.116,0,0,1-1.459.347,2.735,2.735,0,0,1-2.492-1.3,4.85,4.85,0,0,1-.5-3.375Zm2.531.185A3.585,3.585,0,0,0-17.785-2.5a1.257,1.257,0,0,0,1.274.694,2.148,2.148,0,0,0,1-.233,2.235,2.235,0,0,0,.778-.672l.606-4.025a1.563,1.563,0,0,0-.567-.7,1.612,1.612,0,0,0-.918-.25,1.743,1.743,0,0,0-1.481.848,5.071,5.071,0,0,0-.778,2.167ZM-6.482.185A3.7,3.7,0,0,1-9.567-1.138,4.132,4.132,0,0,1-10.3-4.482l.053-.352A6.01,6.01,0,0,1-8.569-8.372a4.624,4.624,0,0,1,3.4-1.314A3.18,3.18,0,0,1-2.443-8.5a4.065,4.065,0,0,1,.584,3.146l-.193,1.327H-7.73l-.018.044a2.23,2.23,0,0,0,.334,1.6,1.74,1.74,0,0,0,1.494.593,5.638,5.638,0,0,0,1.485-.18A6.782,6.782,0,0,0-3.1-2.5l.457,1.582a5.83,5.83,0,0,1-1.67.782A7.285,7.285,0,0,1-6.482.185Zm1.02-7.893a1.642,1.642,0,0,0-1.244.536,3.185,3.185,0,0,0-.734,1.4l.018.053h3.111l.026-.193a2.052,2.052,0,0,0-.136-1.327A1.1,1.1,0,0,0-5.462-7.708ZM2.527-8.2A4.076,4.076,0,0,1,3.854-9.3a3.5,3.5,0,0,1,1.617-.387,2.422,2.422,0,0,1,2.083.94,3.917,3.917,0,0,1,.4,2.918L7.08,0H4.5l.87-5.818a2.141,2.141,0,0,0-.127-1.463A1.153,1.153,0,0,0,4.232-7.69,2.369,2.369,0,0,0,3.2-7.466a2.473,2.473,0,0,0-.813.62L1.358,0H-1.208L.215-9.51H2.606Zm11.32-3.639L13.5-9.51H15.1l-.264,1.8H13.223L12.5-2.865a1.017,1.017,0,0,0,.105.8.725.725,0,0,0,.58.224,2.668,2.668,0,0,0,.356-.022,2.777,2.777,0,0,0,.356-.075L13.83-.079a5.722,5.722,0,0,1-.778.2,4.631,4.631,0,0,1-.8.066,2.372,2.372,0,0,1-1.912-.738,2.823,2.823,0,0,1-.391-2.3l.721-4.852H9.286l.264-1.8h1.389l.352-2.329ZM23.981-1.784a1.65,1.65,0,0,0,1.112-.4,1.709,1.709,0,0,0,.576-1.063H28l.018.053A3.542,3.542,0,0,1,26.587-.76a4.63,4.63,0,0,1-2.9.945,3.479,3.479,0,0,1-3.019-1.367A4.483,4.483,0,0,1,20-4.614l.035-.264A5.987,5.987,0,0,1,21.7-8.367,4.708,4.708,0,0,1,25.15-9.686a3.416,3.416,0,0,1,2.624,1.011,2.92,2.92,0,0,1,.664,2.637l-.018.044H26.073a1.73,1.73,0,0,0-.2-1.235,1.121,1.121,0,0,0-1.015-.479,1.75,1.75,0,0,0-1.516.809A4.778,4.778,0,0,0,22.6-4.878l-.035.264a4.083,4.083,0,0,0,.1,2.07A1.258,1.258,0,0,0,23.981-1.784ZM31.724,0H29.158l2.057-13.711h2.566Zm7.717,0A4.167,4.167,0,0,1,39.3-.69a5.192,5.192,0,0,1-.035-.743,4.368,4.368,0,0,1-1.217,1.16,2.935,2.935,0,0,1-1.613.457,2.807,2.807,0,0,1-2.162-.778,2.378,2.378,0,0,1-.519-2.087,2.967,2.967,0,0,1,1.389-2.193,6.113,6.113,0,0,1,3.27-.743h1.441l.114-.756a1.33,1.33,0,0,0-.2-1.077,1.265,1.265,0,0,0-1.024-.365,1.6,1.6,0,0,0-1,.3,1.2,1.2,0,0,0-.47.831h-2.47L34.8-6.732a2.894,2.894,0,0,1,1.358-2.1,5.191,5.191,0,0,1,3.037-.853,3.737,3.737,0,0,1,2.61.87,2.594,2.594,0,0,1,.721,2.461l-.589,3.929a7.041,7.041,0,0,0-.088,1.266A6.172,6.172,0,0,0,42,0ZM37.349-1.714a2.435,2.435,0,0,0,1.23-.338,2.291,2.291,0,0,0,.853-.778l.2-1.336H38.193a1.933,1.933,0,0,0-1.279.413,1.569,1.569,0,0,0-.584.984.857.857,0,0,0,.193.778A1.112,1.112,0,0,0,37.349-1.714Zm12.19.352A3.787,3.787,0,0,1,48.256-.211a3.425,3.425,0,0,1-1.644.4A2.475,2.475,0,0,1,44.442-.844,4.385,4.385,0,0,1,44.038-4l.826-5.511h2.558L46.6-3.981A2.913,2.913,0,0,0,46.67-2.25a1.063,1.063,0,0,0,.989.439,2.644,2.644,0,0,0,1.077-.211,2.3,2.3,0,0,0,.822-.606L50.585-9.51h2.566L51.728,0H49.6Zm9.677-1.274a.748.748,0,0,0-.3-.729,3.873,3.873,0,0,0-1.446-.527A5.231,5.231,0,0,1,55.077-4.9a1.936,1.936,0,0,1-.615-1.837,3.074,3.074,0,0,1,1.323-2.1,4.76,4.76,0,0,1,2.887-.839,4.01,4.01,0,0,1,2.729.87,2.179,2.179,0,0,1,.778,2.136l-.018.053H59.682a1.116,1.116,0,0,0-.237-.94,1.31,1.31,0,0,0-1.02-.352,1.649,1.649,0,0,0-1.006.308,1.11,1.11,0,0,0-.479.756.735.735,0,0,0,.268.721,3.892,3.892,0,0,0,1.455.492A5.312,5.312,0,0,1,61.119-4.61a2.007,2.007,0,0,1,.6,1.876A2.976,2.976,0,0,1,60.328-.606a5.375,5.375,0,0,1-3.019.791,3.888,3.888,0,0,1-2.83-.976,2.335,2.335,0,0,1-.782-2.18l.026-.053H56.07a1.172,1.172,0,0,0,.347,1.107,1.853,1.853,0,0,0,1.191.343,1.944,1.944,0,0,0,1.107-.29A1.092,1.092,0,0,0,59.216-2.637ZM67.039.185a3.7,3.7,0,0,1-3.085-1.323,4.132,4.132,0,0,1-.729-3.344l.053-.352a6.01,6.01,0,0,1,1.674-3.538,4.624,4.624,0,0,1,3.4-1.314A3.18,3.18,0,0,1,71.077-8.5a4.065,4.065,0,0,1,.584,3.146l-.193,1.327H65.791l-.018.044a2.23,2.23,0,0,0,.334,1.6,1.74,1.74,0,0,0,1.494.593,5.638,5.638,0,0,0,1.485-.18A6.782,6.782,0,0,0,70.422-2.5l.457,1.582a5.83,5.83,0,0,1-1.67.782A7.285,7.285,0,0,1,67.039.185Zm1.02-7.893a1.642,1.642,0,0,0-1.244.536,3.185,3.185,0,0,0-.734,1.4l.018.053h3.111l.026-.193A2.052,2.052,0,0,0,69.1-7.242,1.1,1.1,0,0,0,68.058-7.708Z" transform="translate(1027 7317.415)" fill="#3c3fa7"/>
    <path id="Trazado_179323" data-name="Trazado 179323" d="M6.727,12.547h-3.7L1.9,15H-.484L5.055,3.625H7.391L9.508,15H7.125ZM3.867,10.758H6.43L5.781,6.742l-.047-.008ZM12.828,15H10.547L12.375,2.813h2.281ZM19.016,4.477,18.7,6.547h1.43l-.234,1.6H18.461l-.641,4.3a.9.9,0,0,0,.094.715.644.644,0,0,0,.516.2,2.371,2.371,0,0,0,.316-.02,2.468,2.468,0,0,0,.316-.066L19,14.93a5.086,5.086,0,0,1-.691.176,4.116,4.116,0,0,1-.715.059,2.108,2.108,0,0,1-1.7-.656,2.509,2.509,0,0,1-.348-2.047l.641-4.312H14.961l.234-1.6H16.43l.313-2.07ZM23.609,7.57A3.609,3.609,0,0,1,24.723,6.7a2.936,2.936,0,0,1,1.324-.309,2.218,2.218,0,0,1,1.918.887,3.66,3.66,0,0,1,.371,2.707L27.586,15H25.3l.758-5.031a2.2,2.2,0,0,0-.105-1.414.985.985,0,0,0-.895-.391,2.285,2.285,0,0,0-.926.18,2.134,2.134,0,0,0-.715.508L22.5,15H20.219L22.047,2.813h2.281ZM29.6,10.7a5.25,5.25,0,0,1,1.512-3.133,4.306,4.306,0,0,1,3.105-1.172,3.183,3.183,0,0,1,2.719,1.219,3.985,3.985,0,0,1,.641,3.086l-.023.164A5.312,5.312,0,0,1,36.031,14a4.319,4.319,0,0,1-3.109,1.164A3.188,3.188,0,0,1,30.2,13.949a3.942,3.942,0,0,1-.625-3.09Zm2.25.164a3.383,3.383,0,0,0,.117,1.875,1.193,1.193,0,0,0,1.211.68,1.663,1.663,0,0,0,1.383-.711,3.994,3.994,0,0,0,.711-1.844L35.3,10.7A3.489,3.489,0,0,0,35.16,8.84a1.176,1.176,0,0,0-1.2-.691,1.661,1.661,0,0,0-1.391.723,3.918,3.918,0,0,0-.7,1.824ZM43.7,13.789a3.366,3.366,0,0,1-1.141,1.023,3.044,3.044,0,0,1-1.461.352,2.2,2.2,0,0,1-1.93-.914,3.9,3.9,0,0,1-.359-2.8l.734-4.9H41.82l-.734,4.914A2.589,2.589,0,0,0,41.152,13a.945.945,0,0,0,.879.391,2.351,2.351,0,0,0,.957-.187,2.046,2.046,0,0,0,.73-.539l.914-6.117h2.281L45.648,15H43.758Zm3.953-2.945A6.217,6.217,0,0,1,49,7.578a3.338,3.338,0,0,1,2.625-1.187,2.042,2.042,0,0,1,1.18.336,2.428,2.428,0,0,1,.8.945l.352-1.125h1.961l-1.258,8.414A3.745,3.745,0,0,1,53.2,17.543a5.224,5.224,0,0,1-3.148.871,5.345,5.345,0,0,1-1.32-.18,5.757,5.757,0,0,1-1.266-.477l.641-1.7a4.509,4.509,0,0,0,1.023.379,5.107,5.107,0,0,0,1.188.129,2.292,2.292,0,0,0,1.418-.395,1.786,1.786,0,0,0,.645-1.215l.109-.766a3.153,3.153,0,0,1-.992.73,2.845,2.845,0,0,1-1.2.246,2.44,2.44,0,0,1-2.219-1.156,4.3,4.3,0,0,1-.445-3Zm2.258.164a3.217,3.217,0,0,0,.1,1.766,1.11,1.11,0,0,0,1.129.617,1.906,1.906,0,0,0,1.586-.773l.547-3.633a1.272,1.272,0,0,0-.5-.609,1.6,1.6,0,0,0-2.152.543,4.541,4.541,0,0,0-.687,1.926Zm9.82-3.437A3.609,3.609,0,0,1,60.848,6.7a2.936,2.936,0,0,1,1.324-.309,2.218,2.218,0,0,1,1.918.887,3.66,3.66,0,0,1,.371,2.707L63.711,15H61.43l.758-5.031a2.2,2.2,0,0,0-.105-1.414.985.985,0,0,0-.895-.391,2.285,2.285,0,0,0-.926.18,2.134,2.134,0,0,0-.715.508L58.625,15H56.344L58.172,2.813h2.281ZM72.023,15H69.742l1.7-11.375h2.281Zm8.469,0H78.211L80.039,2.813H82.32Zm4.273,0H82.484L83.75,6.547h2.281Zm1.57-10.477H84.055l.258-1.711h2.281Zm3.7,6.938h-.578L88.922,15H86.641L88.469,2.813H90.75L89.711,9.727h.508l2.5-3.18H95.3l.016.039L92.031,10.4,94.469,15H91.844Zm8.664,3.7a3.285,3.285,0,0,1-2.742-1.176,3.672,3.672,0,0,1-.648-2.973l.047-.312A5.343,5.343,0,0,1,96.84,7.559a4.111,4.111,0,0,1,3.02-1.168,2.826,2.826,0,0,1,2.426,1.055,3.614,3.614,0,0,1,.52,2.8l-.172,1.18H97.586l-.016.039a1.983,1.983,0,0,0,.3,1.426,1.546,1.546,0,0,0,1.328.527,5.011,5.011,0,0,0,1.32-.16,6.028,6.028,0,0,0,1.188-.473l.406,1.406a5.183,5.183,0,0,1-1.484.7A6.475,6.475,0,0,1,98.7,15.164ZM99.6,8.148a1.459,1.459,0,0,0-1.105.477,2.831,2.831,0,0,0-.652,1.242l.016.047h2.766l.023-.172a1.824,1.824,0,0,0-.121-1.18A.975.975,0,0,0,99.6,8.148Zm12.117-3.672-.312,2.07h1.43l-.234,1.6h-1.437l-.641,4.3a.9.9,0,0,0,.094.715.644.644,0,0,0,.516.2,2.371,2.371,0,0,0,.316-.02,2.468,2.468,0,0,0,.316-.066L111.7,14.93a5.087,5.087,0,0,1-.691.176,4.116,4.116,0,0,1-.715.059,2.108,2.108,0,0,1-1.7-.656,2.509,2.509,0,0,1-.348-2.047l.641-4.312h-1.227l.234-1.6h1.234l.313-2.07Zm1.555,6.219a5.25,5.25,0,0,1,1.512-3.133,4.306,4.306,0,0,1,3.105-1.172,3.183,3.183,0,0,1,2.719,1.219,3.985,3.985,0,0,1,.641,3.086l-.023.164A5.312,5.312,0,0,1,119.7,14a4.319,4.319,0,0,1-3.109,1.164,3.188,3.188,0,0,1-2.719-1.215,3.942,3.942,0,0,1-.625-3.09Zm2.25.164a3.383,3.383,0,0,0,.117,1.875,1.193,1.193,0,0,0,1.211.68,1.663,1.663,0,0,0,1.383-.711,3.994,3.994,0,0,0,.711-1.844l.023-.164a3.489,3.489,0,0,0-.137-1.855,1.176,1.176,0,0,0-1.2-.691,1.661,1.661,0,0,0-1.391.723,3.918,3.918,0,0,0-.7,1.824Zm10.758-.016a6.217,6.217,0,0,1,1.344-3.266,3.338,3.338,0,0,1,2.625-1.187,2.042,2.042,0,0,1,1.18.336,2.428,2.428,0,0,1,.8.945l.352-1.125h1.961l-1.258,8.414a3.745,3.745,0,0,1-1.461,2.582,5.224,5.224,0,0,1-3.148.871,5.345,5.345,0,0,1-1.32-.18,5.757,5.757,0,0,1-1.266-.477l.641-1.7a4.509,4.509,0,0,0,1.023.379,5.107,5.107,0,0,0,1.188.129,2.292,2.292,0,0,0,1.418-.395A1.786,1.786,0,0,0,131,14.953l.109-.766a3.153,3.153,0,0,1-.992.73,2.845,2.845,0,0,1-1.2.246,2.44,2.44,0,0,1-2.219-1.156,4.3,4.3,0,0,1-.445-3Zm2.258.164a3.217,3.217,0,0,0,.1,1.766,1.11,1.11,0,0,0,1.129.617,1.906,1.906,0,0,0,1.586-.773l.547-3.633a1.272,1.272,0,0,0-.5-.609,1.6,1.6,0,0,0-2.152.543,4.541,4.541,0,0,0-.687,1.926Zm6.781-.312a5.249,5.249,0,0,1,1.512-3.133,4.306,4.306,0,0,1,3.105-1.172,3.183,3.183,0,0,1,2.719,1.219A3.985,3.985,0,0,1,143.3,10.7l-.023.164A5.312,5.312,0,0,1,141.75,14a4.319,4.319,0,0,1-3.109,1.164,3.188,3.188,0,0,1-2.719-1.215,3.942,3.942,0,0,1-.625-3.09Zm2.25.164a3.383,3.383,0,0,0,.117,1.875,1.193,1.193,0,0,0,1.211.68,1.663,1.663,0,0,0,1.383-.711,3.994,3.994,0,0,0,.711-1.844l.023-.164a3.489,3.489,0,0,0-.137-1.855,1.176,1.176,0,0,0-1.2-.691,1.661,1.661,0,0,0-1.391.723,3.918,3.918,0,0,0-.7,1.824Zm13.8-3.289a3.609,3.609,0,0,1,1.113-.871,2.936,2.936,0,0,1,1.324-.309,2.218,2.218,0,0,1,1.918.887,3.66,3.66,0,0,1,.371,2.707L155.352,15H153.07l.758-5.031a2.2,2.2,0,0,0-.105-1.414.985.985,0,0,0-.895-.391,2.285,2.285,0,0,0-.926.18,2.134,2.134,0,0,0-.715.508L150.266,15h-2.281l1.828-12.187h2.281ZM159.469,15h-2.281l1.266-8.453h2.281Zm1.57-10.477h-2.281l.258-1.711H161.3Zm3.7,6.938h-.578L163.625,15h-2.281l1.828-12.187h2.281l-1.039,6.914h.508l2.5-3.18h2.586l.016.039L166.734,10.4l2.438,4.6h-2.625ZM172.313,15h-2.281L171.3,6.547h2.281Zm1.57-10.477H171.6l.258-1.711h2.281Zm3.586,3.188a3.623,3.623,0,0,1,1.18-.977,3.112,3.112,0,0,1,1.438-.344,2.153,2.153,0,0,1,1.852.836,3.482,3.482,0,0,1,.352,2.594L181.516,15h-2.289L180,9.828a1.9,1.9,0,0,0-.113-1.3,1.025,1.025,0,0,0-.9-.363,2.106,2.106,0,0,0-.918.2,2.2,2.2,0,0,0-.723.551L176.43,15h-2.281l1.266-8.453h2.125Zm6.039,3.133a6.217,6.217,0,0,1,1.344-3.266,3.338,3.338,0,0,1,2.625-1.187,2.042,2.042,0,0,1,1.18.336,2.428,2.428,0,0,1,.8.945l.352-1.125h1.961l-1.258,8.414a3.745,3.745,0,0,1-1.461,2.582,5.224,5.224,0,0,1-3.148.871,5.345,5.345,0,0,1-1.32-.18,5.757,5.757,0,0,1-1.266-.477l.641-1.7a4.509,4.509,0,0,0,1.023.379,5.107,5.107,0,0,0,1.188.129,2.292,2.292,0,0,0,1.418-.395,1.786,1.786,0,0,0,.645-1.215l.109-.766a3.153,3.153,0,0,1-.992.73,2.845,2.845,0,0,1-1.2.246,2.44,2.44,0,0,1-2.219-1.156,4.3,4.3,0,0,1-.445-3Zm2.258.164a3.217,3.217,0,0,0,.1,1.766,1.11,1.11,0,0,0,1.129.617,1.906,1.906,0,0,0,1.586-.773l.547-3.633a1.272,1.272,0,0,0-.5-.609,1.6,1.6,0,0,0-2.152.543,4.541,4.541,0,0,0-.687,1.926Zm8.883,3.891-1.609,2.461h-1.523l.922-2.531.273-1.781h2.219Z" transform="translate(960 7356.415)" fill="#3c3fa7"/>
  </g>
</svg>
