<svg xmlns="http://www.w3.org/2000/svg" xmlns:xlink="http://www.w3.org/1999/xlink" width="89" height="85" viewBox="0 0 89 85">
  <defs>
    <clipPath id="clip-path">
      <rect id="Rect치ngulo_44972" data-name="Rect치ngulo 44972" width="63.527" height="63.525" fill="none"/>
    </clipPath>
  </defs>
  <g id="_35" data-name="35" transform="translate(-698 -4457)">
    <g id="Grupo_165391" data-name="Grupo 165391" transform="translate(698 4457)">
      <rect id="Rect치ngulo_40797" data-name="Rect치ngulo 40797" width="89" height="85" rx="15" fill="#ffd947"/>
    </g>
    <g id="Grupo_174293" data-name="Grupo 174293" transform="translate(711 4468)">
      <g id="Grupo_174293-2" data-name="Grupo 174293" clip-path="url(#clip-path)">
        <path id="Trazado_179328" data-name="Trazado 179328" d="M29.4,63.525a14.661,14.661,0,0,0-2.286-.343C15.322,61.149,7.067,54.595,2.31,43.651A29.658,29.658,0,0,1,0,32.191c-.02-1.248.4-1.67,1.669-1.671q2.079,0,4.156,0c1.183,0,1.586.413,1.62,1.608a24.021,24.021,0,0,0,7.122,16.787A23.614,23.614,0,0,0,28.256,55.8,23.563,23.563,0,0,0,45.4,51.853,23.727,23.727,0,0,0,55.456,37.131,23.574,23.574,0,0,0,53.9,21.77,24.039,24.039,0,0,0,43.453,10.456a23.772,23.772,0,0,0-8.1-2.734,24.279,24.279,0,0,0-10.521.731c.153.277.3.515.421.77a1.218,1.218,0,0,1-1.087,1.807q-4.931.04-9.862.016a1.217,1.217,0,0,1-1-1.961c1.239-2.19,2.5-4.367,3.752-6.549.328-.573.645-1.152.985-1.717a1.253,1.253,0,0,1,2.31-.036c.672,1.073.673,1.076,1.894.695a31.718,31.718,0,0,1,38.83,18.031,30.587,30.587,0,0,1,2.335,9.7c.008.112-.044.256.115.317V29.9a3.091,3.091,0,0,0,0,1.365v.993a3.091,3.091,0,0,0,0,1.365v.5c-.158,1.076-.13,2.168-.325,3.244a31.529,31.529,0,0,1-6.909,14.821,31.958,31.958,0,0,1-9.81,7.931A30.928,30.928,0,0,1,36.137,63.38c-.749.1-1.515.038-2.267.146H33.5a2.476,2.476,0,0,0-1.241,0h-.993a3.091,3.091,0,0,0-1.365,0Z" transform="translate(0 0)"/>
        <path id="Trazado_179329" data-name="Trazado 179329" d="M106.709,51.638a1.588,1.588,0,0,1,0-1.365Z" transform="translate(-43.183 -20.374)" fill="#343434"/>
        <path id="Trazado_179330" data-name="Trazado 179330" d="M106.709,55.6a1.588,1.588,0,0,1,0-1.365Z" transform="translate(-43.183 -21.98)" fill="#343434"/>
        <path id="Trazado_179331" data-name="Trazado 179331" d="M50.273,106.707a1.588,1.588,0,0,1,1.365,0Z" transform="translate(-20.374 -43.182)" fill="#343434"/>
        <path id="Trazado_179332" data-name="Trazado 179332" d="M54.238,106.712a1.381,1.381,0,0,1,1.241,0Z" transform="translate(-21.981 -43.187)" fill="#343434"/>
        <path id="Trazado_179333" data-name="Trazado 179333" d="M52.833,24.842c.892.35,1.781.707,2.679,1.043a2,2,0,0,1,.531.295c.131.2-.049.346-.1.51a1.056,1.056,0,0,0,1.247,1.389c.2-.039.379-.182.6-.081l1.545,1.929a2.26,2.26,0,0,0,.208,2.474,18.407,18.407,0,0,1,2.273,9.845,19.33,19.33,0,0,1-11.656,16.9,19.667,19.667,0,0,1-5.809,1.461,19.174,19.174,0,0,1-8.7-1.181A17.3,17.3,0,0,1,30.7,56.614a1.282,1.282,0,0,1-.329-.368A21.773,21.773,0,0,1,27.933,51.6a20.43,20.43,0,0,1-1.311-7.953,2.018,2.018,0,0,1,.225-.955c.214-.215.5-.156.76-.2.777-.12,1.128-.457,1.117-1.079s-.363-.96-1.126-1.058a.9.9,0,0,1-.415-.111c-.172-.249.006-.478.059-.7a19.866,19.866,0,0,1,3.841-7.856c.171-.216.327-.494.683-.437a2.94,2.94,0,0,0,1.115,2.108q4.122,4.08,8.2,8.2a2.912,2.912,0,0,0,2.357.973c1.568-.067,3.142-.018,4.714-.018a4.481,4.481,0,0,0,.619-.017A1.064,1.064,0,0,0,48.8,40.38a3.919,3.919,0,0,0-.62-.021c-1.447,0-2.9-.016-4.342.008a1.762,1.762,0,0,1-1.371-.572c-2.622-2.642-5.267-5.26-7.884-7.906a2.933,2.933,0,0,0-2.312-1.2c-.138-.249.063-.388.194-.527a19.074,19.074,0,0,1,5.565-4.083,22.417,22.417,0,0,1,2.744-1.142c.267-.089.548-.231.816.012a6.6,6.6,0,0,0-.061,1.775,1.007,1.007,0,0,0,1.317.864,1,1,0,0,0,.557-.368,2.13,2.13,0,0,0-.312-2.429c-.133-.1-.433-.145-.215-.432a19.629,19.629,0,0,1,7.76-.154.959.959,0,0,0,.243.027c.671.146,1.289.464,1.96.614" transform="translate(-10.785 -9.679)" fill="#ace4fe"/>
        <path id="Trazado_179334" data-name="Trazado 179334" d="M48.968,22.1c-.709.179-1.241-.282-1.839-.507-.935-.19-1.774-.656-2.683-.924a18.57,18.57,0,0,0-17.3,3.052,17.967,17.967,0,0,0-7.24,12.734,18.455,18.455,0,0,0,5.3,15.521A15.306,15.306,0,0,1,26.642,53.5a19.091,19.091,0,0,0,21.871,1.554A19.086,19.086,0,0,0,55.538,29.72c-.105-.2-.223-.395-.328-.6a1.355,1.355,0,0,1,.255-1.938c1.033-.312,1.42-.136,1.961.816a21.527,21.527,0,0,1-2.483,24.873,21.155,21.155,0,0,1-9.7,6.388,20.87,20.87,0,0,1-10.04.722A21.153,21.153,0,0,1,19.687,48.92,20.44,20.44,0,0,1,17.406,35.2,21.12,21.12,0,0,1,29.025,19.4,20.489,20.489,0,0,1,40.24,17.189a21.892,21.892,0,0,1,8.672,2.5,1.376,1.376,0,0,1,.9,1.225,1.261,1.261,0,0,1-.84,1.187" transform="translate(-6.92 -6.939)"/>
        <path id="Trazado_179335" data-name="Trazado 179335" d="M77.622,29.325a1.283,1.283,0,0,1-1.636-.012c-.529-.438-.561-1.051-.105-1.806.743-.472,1.31-.463,1.784.029s.454,1.03-.042,1.789" transform="translate(-30.623 -11.007)" fill="#020202"/>
        <path id="Trazado_179336" data-name="Trazado 179336" d="M23.637,10.23H18.185l2.73-4.764c.616,1.033,1.408.9,2.3.563a28.318,28.318,0,0,1,11.6-1.84A29.139,29.139,0,0,1,61.987,26.958C64.332,37.9,61.3,47.334,53.2,55.024A27.777,27.777,0,0,1,37,62.5,29.289,29.289,0,0,1,5,40.283a32.518,32.518,0,0,1-.771-5.2c-.023-.3.044-.416.356-.4.434.019.868,0,1.3,0,.836,0,.836,0,.9.812A26.762,26.762,0,0,0,59.02,41.43c2.858-9.328,1.057-17.916-5.231-25.418a25.78,25.78,0,0,0-16.377-9.08,26.407,26.407,0,0,0-13,1.3c-.881.313-1.079.833-.779,2" transform="translate(-1.712 -1.684)" fill="#36d18e"/>
        <path id="Trazado_179337" data-name="Trazado 179337" d="M35.171,35.8l.519-.561a1.462,1.462,0,0,1,1.771.466c2.873,2.886,5.759,5.758,8.629,8.647a1.225,1.225,0,0,0,.969.406c1.653-.023,3.307-.021,4.961,0a1.236,1.236,0,0,1,1.307,1.672,1.215,1.215,0,0,1-1.211.8c-2.026.01-4.051,0-6.077,0a1.524,1.524,0,0,1-1.089-.517q-4.669-4.67-9.341-9.338a1.464,1.464,0,0,1-.437-1.571" transform="translate(-14.223 -14.223)"/>
        <path id="Trazado_179338" data-name="Trazado 179338" d="M26.182,53.8a1.791,1.791,0,0,1-.9-.343,1.176,1.176,0,0,1-.4-1.213,1.191,1.191,0,0,1,.962-.918,4.8,4.8,0,0,1,.61-.053c.2.01.409.009.611.03a1.206,1.206,0,0,1,1.145,1.147,1.161,1.161,0,0,1-.994,1.267,8.4,8.4,0,0,1-1.034.083" transform="translate(-10.067 -20.777)" fill="#010101"/>
        <path id="Trazado_179339" data-name="Trazado 179339" d="M78.131,53.808c-1.247,0-1.788-.378-1.826-1.157a1.409,1.409,0,0,1,.052-.486c.2-.63.806-.889,1.926-.839a1.3,1.3,0,0,1,1.361,1.016,1.218,1.218,0,0,1-1.017,1.439,3.193,3.193,0,0,1-.5.028" transform="translate(-30.922 -20.798)" fill="#000101"/>
        <path id="Trazado_179340" data-name="Trazado 179340" d="M51.3,77.949c0-1.068.375-1.6,1.153-1.652s1.3.5,1.329,1.422c.038,1.283-.4,1.958-1.255,1.952-.8-.006-1.228-.6-1.226-1.722" transform="translate(-20.79 -30.919)" fill="#000101"/>
        <path id="Trazado_179341" data-name="Trazado 179341" d="M51.557,25.31a1.509,1.509,0,0,1,1.25-.475,2.055,2.055,0,0,1,.743,2.871,1.15,1.15,0,0,1-1.185.48,1.079,1.079,0,0,1-.954-.837,2.919,2.919,0,0,1,.146-2.04" transform="translate(-20.788 -10.061)" fill="#000101"/>
      </g>
    </g>
  </g>
</svg>
