<svg xmlns="http://www.w3.org/2000/svg" xmlns:xlink="http://www.w3.org/1999/xlink" width="89" height="85" viewBox="0 0 89 85">
  <defs>
    <clipPath id="clip-path">
      <rect id="Rect치ngulo_44973" data-name="Rect치ngulo 44973" width="53.173" height="53.198" fill="none"/>
    </clipPath>
  </defs>
  <g id="_36" data-name="36" transform="translate(-698 -4457)">
    <g id="Grupo_165391" data-name="Grupo 165391" transform="translate(698 4457)">
      <rect id="Rect치ngulo_40797" data-name="Rect치ngulo 40797" width="89" height="85" rx="15" fill="#ffd947"/>
    </g>
    <g id="Grupo_174294" data-name="Grupo 174294" transform="translate(716 4473)">
      <g id="Grupo_174294-2" data-name="Grupo 174294" clip-path="url(#clip-path)">
        <path id="Trazado_179342" data-name="Trazado 179342" d="M54.157,8.334c.641.211.755.367.749,1.085a8.944,8.944,0,0,1-.147,2.322,4.312,4.312,0,0,1-4.169,3.2c-.761.018-1.524.024-2.284-.005-.374-.015-.417.116-.355.438.237,1.238.453,2.481.681,3.721a1.237,1.237,0,0,1-.577,1.424,1.169,1.169,0,0,1-1.465-.264q-2.624-2.477-5.229-4.973a1.134,1.134,0,0,0-.865-.344q-10.41.015-20.82,0a1.192,1.192,0,0,0-.905.375q-2.564,2.464-5.153,4.9a1.191,1.191,0,0,1-1.828.058A1.278,1.278,0,0,1,11.52,19.1c.232-1.222.437-2.449.682-3.669.083-.416-.028-.508-.441-.506a19.11,19.11,0,0,1-2.851-.057,4.227,4.227,0,0,1-3.644-4.039q-.066-3.373,0-6.749A4.249,4.249,0,0,1,8.615.1c.093-.02.214.023.268-.1H51.275a9.767,9.767,0,0,1,1.047.36,4.235,4.235,0,0,1,2.578,3.8c.025.395,0,.792.008,1.188a.813.813,0,0,1-.721.911.752.752,0,0,1-.962-.7A7.89,7.89,0,0,1,53.2,4.521a2.615,2.615,0,0,0-2.823-2.809c-1.381,0-2.761-.01-4.143.006q-17.974.008-35.946,0c-.225,0-.45,0-.675,0a2.533,2.533,0,0,0-2.62,2.483q-.109,3.27,0,6.543a2.579,2.579,0,0,0,2.694,2.483c.848.031,1.7.011,2.545.007a1.7,1.7,0,0,1,1.446.674,2.016,2.016,0,0,1,.246,1.441c-.161.866-.328,1.73-.486,2.685,1.474-1.406,2.927-2.727,4.317-4.118a2.051,2.051,0,0,1,1.661-.689q10.657.015,21.314,0a2.107,2.107,0,0,1,1.7.713c.9.932,1.868,1.8,2.809,2.687.464.439.918.89,1.433,1.368a16.983,16.983,0,0,0-.277-1.692c-.058-.376-.14-.748-.2-1.124a1.607,1.607,0,0,1,1.6-1.915c.778-.02,1.557,0,2.335-.005A2.737,2.737,0,0,0,53.215,10.2a7.817,7.817,0,0,1,.027-1.192.712.712,0,0,1,.915-.675" transform="translate(-3.48)"/>
        <path id="Trazado_179343" data-name="Trazado 179343" d="M.089,76.319A9.8,9.8,0,0,1,8.408,67.7a14.88,14.88,0,0,1,1.76-.1H20.45c1.19,0,1.7.61,1.518,1.779a4.164,4.164,0,0,1-1.394,2.588c-.157.138-.247.235-.138.472a12.187,12.187,0,0,1,1,5.561,4.734,4.734,0,0,0,.609,2.575c.288.509.524,1.049.766,1.583a2.037,2.037,0,0,1-1.73,3.008.586.586,0,0,0-.614.668q.007,1.662,0,3.324A2.933,2.933,0,0,1,17.4,92.224c-1.177,0-2.354.011-3.531,0-.905-.01-1.165.607-.957,1.47.058.242.264.176.424.2a1.978,1.978,0,0,1,1.808,1.939A2.029,2.029,0,0,1,13.6,98.093a2.731,2.731,0,0,1-.617.051q-5.323,0-10.646,0a1.965,1.965,0,0,1-2.151-2.16c0-.4-.007-.8,0-1.194A1.888,1.888,0,0,1,1.7,92.881c.291-.068.347-.174.345-.438-.011-1.4.025-2.8-.016-4.206a18.593,18.593,0,0,0-.5-2.7c-.127-.708-.07-.869.547-1.214.5-.156.858.042,1.04.607a10.4,10.4,0,0,1,.325,1.522A.551.551,0,0,0,4.1,87c.414-.024.832.014,1.246-.014a1.542,1.542,0,0,0,1.5-1.329,8.729,8.729,0,0,0,.068-1.813,3.422,3.422,0,0,1,1.345-2.8c.819-.666,1.662-1.3,2.5-1.95a3.527,3.527,0,0,0,1.482-2.779,4.894,4.894,0,0,1,1.528-3.53,5.059,5.059,0,0,1,3.85-1.493A2.469,2.469,0,0,0,20.078,69.8c.209-.434.166-.494-.323-.494q-3.165,0-6.329,0c-1.331-.013-2.662-.02-3.992,0A8.155,8.155,0,0,0,1.8,76.263a10.835,10.835,0,0,0,.289,3.642c.088.405.18.81.254,1.218.164.9-.157,1.244-1.082,1.15A.773.773,0,0,1,.707,81.6c-.195-1-.4-1.991-.6-2.986-.016-.081,0-.176-.109-.2v-.52a4.167,4.167,0,0,0,.054-1.041,1.651,1.651,0,0,1,.037-.527" transform="translate(0.001 -44.952)"/>
        <path id="Trazado_179344" data-name="Trazado 179344" d="M.087,95.133c-.024.35.132.716-.087,1.05V95.143c.024-.041.053-.047.087-.011" transform="translate(0 -63.248)" fill="#4c4c4c"/>
        <path id="Trazado_179345" data-name="Trazado 179345" d="M.087,94.151,0,94.161v-.52l.09-.01,0,.519" transform="translate(0 -62.266)" fill="#888"/>
        <path id="Trazado_179346" data-name="Trazado 179346" d="M98.086,67.6c1.8,0,3.6-.023,5.4,0A9.738,9.738,0,0,1,112.8,78.988c-.533,2.816-1.141,5.619-1.738,8.423a14.011,14.011,0,0,0-.115,2.636c-.019.813,0,1.627-.007,2.44,0,.218.041.313.291.375a1.908,1.908,0,0,1,1.565,2.026c0,.415.007.831,0,1.246a1.941,1.941,0,0,1-2.046,2q-4.336.01-8.672,0c-.761,0-1.524.012-2.285,0a2.136,2.136,0,0,1-.3-4.212c.632-.053.632-.384.642-.8a.839.839,0,0,0-.708-.887,2.471,2.471,0,0,0-.414-.015c-1.16,0-2.32,0-3.479,0A2.927,2.927,0,0,1,92.519,89.2c-.008-1.108-.011-2.216,0-3.323.006-.473-.194-.684-.668-.727a1.972,1.972,0,0,1-1.7-2.893,11.615,11.615,0,0,0,1.466-6.135,8.2,8.2,0,0,1,.89-3.6.429.429,0,0,0-.131-.606,4.044,4.044,0,0,1-1.391-2.8,1.273,1.273,0,0,1,1.384-1.526c1.9-.006,3.808,0,5.712,0Z" transform="translate(-59.791 -44.945)"/>
        <path id="Trazado_179347" data-name="Trazado 179347" d="M3.76,85.334c.867-.013,1.088-.294.932-1.156-.18-1-.444-1.985-.565-3a8.222,8.222,0,0,1,6.853-8.853,37.587,37.587,0,0,1,4.918-.09,11.73,11.73,0,0,0,.527,3.074.7.7,0,0,1-.111.637,5.533,5.533,0,0,0-1.453,3.772A2.993,2.993,0,0,1,13.683,82c-.9.73-1.817,1.433-2.731,2.142a3.427,3.427,0,0,0-1.415,2.805c0,.484.01.968-.006,1.451A1.7,1.7,0,0,1,7.7,90.19c-.432,0-.867-.034-1.295.011-.4.042-.5-.15-.56-.479-.09-.509-.222-1.011-.307-1.521a.869.869,0,0,0-.957-.813c-.1-.481-.232-.959-.3-1.446a.608.608,0,0,0-.517-.609" transform="translate(-2.5 -48.013)" fill="#6b63ae"/>
        <path id="Trazado_179348" data-name="Trazado 179348" d="M66.958,11.424c-.65.149-.8.333-.807.989,0,.415,0,.83,0,1.245a2.743,2.743,0,0,1-2.774,2.812c-.864.019-1.729,0-2.593.005a1.491,1.491,0,0,0-1.611,1.916c.174,1,.352,2,.551,3.133l-4.483-4.3a.744.744,0,0,1,.581-.164c.381-.011.762,0,1.143-.006a3.252,3.252,0,0,0,3.2-3.183c.028-1.3.012-2.6,0-3.895,0-.528-.065-.575-.613-.589-.173,0-.346,0-.519,0H25.64a5.2,5.2,0,0,1-.726-.015c-.174-.024-.4.01-.43-.266a1.41,1.41,0,0,1,.952-.15q12.067-.007,24.133,0h10.8a5.671,5.671,0,0,0,.622-.017A.518.518,0,0,0,61.5,8.5a.559.559,0,0,0-.33-.638,3.755,3.755,0,0,0-.7-.191.393.393,0,0,1-.258-.4,3.221,3.221,0,0,0-.977-2.243.369.369,0,0,1-.145-.362c1.485,0,2.97-.035,4.454-.005a2.7,2.7,0,0,1,2.6,2.6c.018.379,0,.76.008,1.14.008.633.2.854.837.951q-.016,1.038-.03,2.076" transform="translate(-16.281 -3.09)" fill="#7ac0a4"/>
        <path id="Trazado_179349" data-name="Trazado 179349" d="M49.406,4.668a4.12,4.12,0,0,1,1.119,1.69,4.286,4.286,0,0,1,.129,1.216,1.412,1.412,0,0,1-.953.149q-14.492.007-28.985,0-2.389,0-4.779,0a3.116,3.116,0,0,0-.775.062c-.569.145-.726.469-.479,1a.889.889,0,0,1,.124.338c.21.184.465.1.7.1q17.191.007,34.384.005c.865,0,.759-.1.762.787.005,1.247,0,2.493,0,3.74a3.408,3.408,0,0,1-3.487,3.466l-1.61,0a2.594,2.594,0,0,0-2.153-.762q-10.206.036-20.413,0a2.59,2.59,0,0,0-2.153.762,10.15,10.15,0,0,1-4.047,0,1.721,1.721,0,0,0-1.606-.753c-.795.032-1.593.015-2.389.006a2.746,2.746,0,0,1-2.868-2.88c-.005-2.06-.011-4.119,0-6.179a2.707,2.707,0,0,1,2.765-2.761q18.252-.009,36.5,0c.069,0,.138.01.207.015" transform="translate(-6.597 -3.093)" fill="#96d4a5"/>
        <path id="Trazado_179350" data-name="Trazado 179350" d="M29.557,42.178l4.047,0-4.483,4.306c.2-1.106.349-2.083.548-3.051a2.12,2.12,0,0,0-.112-1.259" transform="translate(-19.366 -28.049)" fill="#79c0a4"/>
        <path id="Trazado_179351" data-name="Trazado 179351" d="M26.276,87.369a3.443,3.443,0,0,1,2.852-3.807c.647-.115,1.316.02,1.963-.143.216-.054.249.141.307.278a9.708,9.708,0,0,1,.777,3.21,18.513,18.513,0,0,1,.049,2.076,4.8,4.8,0,0,0,.659,2.572c.3.563.564,1.148.829,1.73.239.524.084.782-.482.847a2.09,2.09,0,0,0-1.983,2.234c0,1.091,0,2.181,0,3.272A1.4,1.4,0,0,1,29.7,101.18c-1.16.005-2.32,0-3.48,0a2.4,2.4,0,0,0-2.583,2.641c0,.181.089.4-.244.366q-2.423-.256-4.845-.5a4.621,4.621,0,0,1,4.1-2.964,3.9,3.9,0,0,0,3.564-3.916q.027-4,0-8a8.4,8.4,0,0,0,.071-1.441" transform="translate(-12.334 -55.468)" fill="#c1885d"/>
        <path id="Trazado_179352" data-name="Trazado 179352" d="M21.087,95.229c.136.147.082.329.082.5q0,4.54,0,9.08a4.11,4.11,0,0,1-3.731,3.933,4.215,4.215,0,0,0-3.715,2.413c-.081.166-.128.371-.365.394-.775-.067-1.548-.142-2.324-.2-.226-.016-.289-.107-.288-.321.007-1.211.011-2.422,0-3.633,0-.288.111-.346.367-.341a15.854,15.854,0,0,0,1.66-.011,3.211,3.211,0,0,0,2.956-3.29c.016-.466.008-.934,0-1.4a1.99,1.99,0,0,1,.842-1.693c.812-.617,1.606-1.258,2.423-1.868a5.144,5.144,0,0,0,2.092-3.563" transform="translate(-7.145 -63.328)" fill="#d39761"/>
        <path id="Trazado_179353" data-name="Trazado 179353" d="M40.181,75.967a8.414,8.414,0,0,0-.451-2.247,2.761,2.761,0,0,1,.035-1.463c2.228-.006,4.456,0,6.683-.026.382,0,.328.179.267.412A2.586,2.586,0,0,1,44.2,74.518a5.754,5.754,0,0,0-2.9.626,9.021,9.021,0,0,0-1.123.824" transform="translate(-26.367 -48.033)" fill="#5e57a9"/>
        <path id="Trazado_179354" data-name="Trazado 179354" d="M11.259,149.764q-2.751.009-5.5.019c-.364,0-.549-.151-.543-.525.006-.4,0-.8,0-1.194,0-.353.177-.508.522-.473q2.656.265,5.312.534a1.417,1.417,0,0,1,.209,1.639" transform="translate(-3.468 -98.145)" fill="#df8086"/>
        <path id="Trazado_179355" data-name="Trazado 179355" d="M22.843,150.832a3.725,3.725,0,0,0-.209-1.639q2.784.254,5.568.509c.395.036.451.318.441.636a.459.459,0,0,1-.513.512q-2.643-.011-5.287-.017" transform="translate(-15.052 -99.214)" fill="#da646f"/>
        <path id="Trazado_179356" data-name="Trazado 179356" d="M106.756,103.988c-.565.067-1.132.127-1.7.2-.249.034-.3-.065-.263-.287a2.45,2.45,0,0,0-2.648-2.732c-1.14.051-2.284.014-3.427.008A1.392,1.392,0,0,1,97.2,99.676c-.008-1.09,0-2.18,0-3.271a2.085,2.085,0,0,0-2-2.27c-.558-.072-.758-.366-.462-.85a11,11,0,0,0,1.549-6.429,7.6,7.6,0,0,1,.747-3.157c.092-.227.2-.339.461-.264a4.3,4.3,0,0,0,1.187.085,3.318,3.318,0,0,1,3.458,3.267,5.254,5.254,0,0,0,2.314,4.3c.687.495,1.323,1.063,2.018,1.545a2.289,2.289,0,0,1,1.022,2.423,27.119,27.119,0,0,0-.583,6.495c.04.6.009,1.2,0,1.807a.888.888,0,0,1-.158.635" transform="translate(-62.91 -55.469)" fill="#fddcce"/>
        <path id="Trazado_179357" data-name="Trazado 179357" d="M121.277,72.249a17.318,17.318,0,0,1,5.2.344,8.248,8.248,0,0,1,5.57,9.739q-.779,3.674-1.53,7.353c-.076.378-.19.571-.621.529-.463-.044-.934,0-1.4-.014a1.633,1.633,0,0,1-1.655-1.535,7.906,7.906,0,0,1-.019-1.244,3.855,3.855,0,0,0-1.092-3.024c.111-.916.393-1.8.535-2.708a2.044,2.044,0,0,0,.054-.755q0-.432,0-.864a2.833,2.833,0,0,0-.036-.817,9,9,0,0,0-4.673-6.658c-.142-.078-.337-.121-.334-.346" transform="translate(-80.65 -48.026)" fill="#df7d4d"/>
        <path id="Trazado_179358" data-name="Trazado 179358" d="M110.926,80.032q0,.468,0,.937c-.139.227.031.5-.1.727a9.157,9.157,0,0,1-.635,2.709c-.931-.718-1.858-1.441-2.794-2.152a3.592,3.592,0,0,1-1.488-2.83,4.914,4.914,0,0,0-5.21-4.9,2.665,2.665,0,0,1-2.736-1.872c-.055-.206-.166-.428.245-.424,2.51.02,5.02.019,7.529.025a10.311,10.311,0,0,1,2.145,1.431,8.928,8.928,0,0,1,2.944,5.513c.138.264-.039.568.1.832" transform="translate(-65.107 -48.033)" fill="#e1934a"/>
        <path id="Trazado_179359" data-name="Trazado 179359" d="M130.853,127.093c0-1.778-.045-3.557.015-5.333a15.176,15.176,0,0,1,.722-3.6c.02.413.022.828.063,1.239a3.181,3.181,0,0,0,3.1,2.908c.5.018,1,.02,1.5,0,.274-.01.35.078.347.349-.013,1.192-.009,2.385,0,3.577,0,.21-.008.345-.285.368-1.823.154-3.644.328-5.466.5" transform="translate(-87.007 -78.574)" fill="#fdcabe"/>
        <path id="Trazado_179360" data-name="Trazado 179360" d="M133.606,148.2c1.235-.131,2.47-.266,3.705-.392.791-.081,1.584-.139,2.374-.224.456-.049.64.137.617.586-.018.345-.012.692,0,1.037.012.388-.151.572-.551.569-1.729-.012-3.458-.015-5.187-.021a.528.528,0,0,1-.138-.372,1.166,1.166,0,0,0-.819-1.184" transform="translate(-88.849 -98.139)" fill="#92d7f6"/>
        <path id="Trazado_179361" data-name="Trazado 179361" d="M123.378,149.44c.679.04.855.228.951,1.039a4.573,4.573,0,0,1,.005.516c-1.852.006-3.7.009-5.555.02-.366,0-.547-.16-.553-.524-.006-.322.052-.59.451-.625q2.351-.21,4.7-.426" transform="translate(-78.621 -99.378)" fill="#b2e3f7"/>
        <path id="Trazado_179362" data-name="Trazado 179362" d="M23.555,14.931a.8.8,0,0,1-.443-.95c.136-.47.5-.574.932-.574h2.025q16.331,0,32.661,0c.224,0,.448-.018.672-.027.224.013.449.014.671.042a.785.785,0,0,1,.743.786.764.764,0,0,1-.774.748c-.38.02-.761,0-1.142,0H24.436c-.294,0-.587-.016-.881-.024" transform="translate(-15.345 -8.896)" fill="#000100"/>
        <path id="Trazado_179363" data-name="Trazado 179363" d="M32.846,26.714q-4.385,0-8.771,0a.915.915,0,0,1-.871-.341.768.768,0,0,1,.47-1.186,2.14,2.14,0,0,1,.515-.033q8.693,0,17.386,0a3.11,3.11,0,0,1,.415.009.772.772,0,0,1,.713.808.728.728,0,0,1-.775.735c-1.09.015-2.179.007-3.27.007H32.846" transform="translate(-15.341 -16.727)"/>
        <path id="Trazado_179364" data-name="Trazado 179364" d="M136.552,93.868c-.206-.256-.059-.556-.1-.832.208.256.059.556.1.832" transform="translate(-90.732 -61.869)" fill="#e59660"/>
        <path id="Trazado_179365" data-name="Trazado 179365" d="M136.453,99.043c.039-.242-.1-.508.1-.727-.039.242.1.508-.1.727" transform="translate(-90.736 -65.381)" fill="#e69263"/>
      </g>
    </g>
  </g>
</svg>
