<svg xmlns="http://www.w3.org/2000/svg" xmlns:xlink="http://www.w3.org/1999/xlink" width="89" height="85" viewBox="0 0 89 85">
  <defs>
    <clipPath id="clip-path">
      <rect id="Rect치ngulo_44974" data-name="Rect치ngulo 44974" width="52.049" height="52" fill="none"/>
    </clipPath>
  </defs>
  <g id="_37" data-name="37" transform="translate(-698 -4457)">
    <g id="Grupo_165391" data-name="Grupo 165391" transform="translate(698 4457)">
      <rect id="Rect치ngulo_40797" data-name="Rect치ngulo 40797" width="89" height="85" rx="15" fill="#ffd947"/>
    </g>
    <g id="Grupo_174295" data-name="Grupo 174295" transform="translate(716 4474)">
      <g id="Grupo_174295-2" data-name="Grupo 174295" transform="translate(0 0)" clip-path="url(#clip-path)">
        <path id="Trazado_179366" data-name="Trazado 179366" d="M0,49.1V2.84A3.251,3.251,0,0,1,2.84,0h35.2a3.4,3.4,0,0,1,3.089,3.714q0,6.873,0,13.745a1.464,1.464,0,0,0,.04.546c.228-.041.321-.217.447-.342,1.307-1.3,2.6-2.609,3.912-3.906a3.826,3.826,0,0,1,5.846,4.884,6.829,6.829,0,0,1-.86,1q-4.413,4.409-8.829,8.815a1.79,1.79,0,0,0-.567,1.388q.022,9.256.01,18.513a3.632,3.632,0,0,1-1.644,3.139,3.108,3.108,0,0,1-1.875.5q-9.28,0-18.561,0c-5.224,0-10.447-.013-15.67.01a3.425,3.425,0,0,1-3-1.657A3.511,3.511,0,0,1,0,49.1" transform="translate(0 0)"/>
        <path id="Trazado_179367" data-name="Trazado 179367" d="M23.132,52.538c-.169-.768-.469-1.012-1.264-1.012-3.211,0-6.423-.009-9.634.01-.406,0-.486-.113-.486-.5q.016-19.4,0-38.794c0-.386.082-.5.487-.5,1.622.026,3.245.017,4.867.005.3,0,.424.037.45.394a3.089,3.089,0,0,0,2.982,2.844q5.627.045,11.256,0a3.1,3.1,0,0,0,2.981-2.847c.024-.3.084-.4.4-.393q2.509.026,5.02,0c.328,0,.38.1.38.4q-.013,8.875,0,17.749a.713.713,0,0,1-.274.61,5.83,5.83,0,0,0-1.645,2.382c-.766,1.816-1.584,3.61-2.394,5.407a1.1,1.1,0,0,0,.108,1.357,1.08,1.08,0,0,0,1.352.124c.926-.43,1.867-.831,2.846-1.264v1.068c0,3.837-.005,7.674.009,11.512,0,.349-.074.446-.437.445-3.228-.016-6.456-.01-9.684-.009-.8,0-1.1.245-1.263,1.012a3.7,3.7,0,0,1-1.9.106c-.22-.076-.257-.291-.346-.465a.864.864,0,0,0-1.562-.012c-.091.173-.126.388-.343.472a3.65,3.65,0,0,1-1.908-.1" transform="translate(-5.671 -5.67)" fill="#fefefe"/>
        <path id="Trazado_179368" data-name="Trazado 179368" d="M23.412,48.752h2a1.07,1.07,0,0,0,1.263,1.015q5.426,0,10.852,0c.937,0,1.289-.35,1.289-1.281,0-4.717.006-9.433-.009-14.149a.643.643,0,0,1,.483-.741c.518-.182,1.008-.442,1.556-.689v.545q0,8.292,0,16.584c0,1.242-.513,1.76-1.744,1.76H5.683c-1.243,0-1.761-.512-1.761-1.743q0-22.188,0-44.376c0-1.246.511-1.763,1.74-1.763,2.535,0,5.071.01,7.606-.011.411,0,.529.118.487.506-.053.5.21,1.167-.109,1.452-.277.247-.931.079-1.418.08-1.673,0-3.347,0-5.02,0-.906,0-1.256.351-1.256,1.261q0,20.641,0,41.283c0,.931.352,1.28,1.289,1.28q5.426,0,10.852,0a1.07,1.07,0,0,0,1.263-1.015h2c.146.082.173.242.241.373a.874.874,0,0,0,1.577,0c.067-.132.1-.292.241-.374" transform="translate(-1.893 -1.884)" fill="#79b1fe"/>
        <path id="Trazado_179369" data-name="Trazado 179369" d="M33.439,3.916c2.044,0,4.087.008,6.13-.008.354,0,.495.05.483.455-.032,1.181-.006,2.365-.013,3.547a1.147,1.147,0,0,1-1.283,1.28q-5.32.005-10.64,0a1.146,1.146,0,0,1-1.281-1.283c-.006-1.2.014-2.4-.011-3.6-.007-.36.13-.4.433-.4,2.06.011,4.121.006,6.181.006" transform="translate(-12.948 -1.886)" fill="#bcd8fe"/>
        <path id="Trazado_179370" data-name="Trazado 179370" d="M64.087,24.448V7.471c0-1.265-.256-1.525-1.5-1.525-1.961,0-3.921-.007-5.881.007-.321,0-.452-.068-.426-.414a11.769,11.769,0,0,0,0-1.267c-.008-.242.032-.362.322-.361,2.7.011,5.408,0,8.112.014a1.4,1.4,0,0,1,1.4,1.386c.007.135,0,.271,0,.406q0,8.087.009,16.175a1.092,1.092,0,0,1-.373.878c-.537.509-1.045,1.05-1.665,1.678" transform="translate(-27.165 -1.888)" fill="#79b1fe"/>
        <path id="Trazado_179371" data-name="Trazado 179371" d="M80.937,35.847c-.08.085-.146.16-.217.231q-4.334,4.335-8.664,8.673c-.19.19-.3.188-.483,0-.622-.643-1.259-1.273-1.9-1.9-.153-.15-.217-.237-.023-.43q4.363-4.341,8.71-8.7c.114-.114.2-.279.4-.078.674.687,1.36,1.363,2.04,2.044.044.044.081.1.131.16" transform="translate(-33.565 -16.194)" fill="#fec05a"/>
        <path id="Trazado_179372" data-name="Trazado 179372" d="M93.318,29.959a2.336,2.336,0,0,1-.963,1.95c-.136.13-.212,0-.289-.078q-1.006-1-2.005-2c-.067-.067-.144-.116-.084-.251a1.918,1.918,0,0,1,2.46-.8,1.568,1.568,0,0,1,.88,1.176" transform="translate(-43.423 -13.808)" fill="#fe6876"/>
        <path id="Trazado_179373" data-name="Trazado 179373" d="M64.6,57.667c.45-1.01.856-1.91,1.25-2.816.1-.229.2-.174.327-.041.429.432.857.864,1.292,1.29.147.144.16.233-.048.323-.9.394-1.806.8-2.822,1.244" transform="translate(-31.183 -26.402)" fill="#97a0b2"/>
        <path id="Trazado_179374" data-name="Trazado 179374" d="M21.537,23.533c1.013,0,2.027,0,3.04,0,.805,0,1.193.378,1.195,1.166q.007,3.091,0,6.183c0,.793-.386,1.169-1.192,1.17q-3.065.006-6.131,0c-.825,0-1.194-.379-1.195-1.218q0-3.04,0-6.081c0-.862.366-1.219,1.243-1.221,1.013,0,2.027,0,3.04,0" transform="translate(-8.328 -11.359)"/>
        <path id="Trazado_179375" data-name="Trazado 179375" d="M25.775,49.39c0,1.013,0,2.027,0,3.041,0,.8-.379,1.193-1.168,1.194q-3.091.007-6.182,0c-.791,0-1.168-.388-1.169-1.193q-.005-3.066,0-6.132c0-.825.378-1.193,1.218-1.194q3.04,0,6.08,0c.862,0,1.218.366,1.221,1.244,0,1.013,0,2.027,0,3.041" transform="translate(-8.328 -21.772)"/>
        <path id="Trazado_179376" data-name="Trazado 179376" d="M17.254,70.887c0-1.013,0-2.027,0-3.041A1.027,1.027,0,0,1,18.4,66.68q3.116-.009,6.232,0a1.025,1.025,0,0,1,1.141,1.168q.007,3.091,0,6.183c0,.79-.388,1.166-1.194,1.168q-3.066.005-6.131,0c-.823,0-1.19-.38-1.193-1.22,0-1.03,0-2.061,0-3.091" transform="translate(-8.328 -32.185)"/>
        <path id="Trazado_179377" data-name="Trazado 179377" d="M44.079,68.537a1.14,1.14,0,0,1,.8.392c.413.423.841.831,1.248,1.259.168.176.276.176.445,0,.405-.43.827-.845,1.25-1.256a1.021,1.021,0,1,1,1.438,1.428c-.386.4-.775.8-1.184,1.179-.231.214-.282.353-.014.591.429.38.825.8,1.221,1.214a1.015,1.015,0,0,1,.079,1.49,1.027,1.027,0,0,1-1.527-.072c-.413-.4-.828-.8-1.213-1.222-.217-.24-.347-.217-.554.009-.387.423-.8.822-1.216,1.219a1.018,1.018,0,1,1-1.434-1.431c.4-.413.793-.833,1.223-1.211.278-.245.193-.384-.026-.591-.442-.417-.87-.849-1.288-1.29a.964.964,0,0,1-.178-1.126.981.981,0,0,1,.925-.578" transform="translate(-20.78 -33.083)"/>
        <path id="Trazado_179378" data-name="Trazado 179378" d="M49.735,26.4a1.233,1.233,0,0,1-.384.806c-1.472,1.469-2.936,2.943-4.412,4.407a1.022,1.022,0,0,1-1.6,0q-1.051-1.029-2.081-2.078A1.021,1.021,0,1,1,42.691,28.1c.4.387.809.771,1.178,1.187.222.25.342.194.548-.014,1.161-1.181,2.339-2.345,3.508-3.52a1.025,1.025,0,0,1,1.2-.275,1.011,1.011,0,0,1,.61.917" transform="translate(-19.726 -12.256)"/>
        <path id="Trazado_179379" data-name="Trazado 179379" d="M49.734,47.968a1.2,1.2,0,0,1-.355.781c-1.494,1.493-2.983,2.993-4.485,4.478a1,1,0,0,1-1.527-.008q-1.089-1.061-2.151-2.151a1.015,1.015,0,1,1,1.443-1.419c.392.373.785.747,1.144,1.15.242.272.382.3.659.014,1.139-1.178,2.311-2.326,3.468-3.487a1.031,1.031,0,0,1,1.107-.3.979.979,0,0,1,.668.761c.016.065.022.133.029.184" transform="translate(-19.724 -22.672)"/>
        <path id="Trazado_179380" data-name="Trazado 179380" d="M39.678,89.66c-.152.686-.507,1.027-1.055,1.013-.529-.014-.856-.344-1-1.013.147-.665.476-1,1-1.01.548-.014.9.325,1.055,1.01" transform="translate(-18.159 -42.792)" fill="#010101"/>
        <path id="Trazado_179381" data-name="Trazado 179381" d="M23.4,31.916c-.641,0-1.282-.01-1.923.005-.242.005-.317-.069-.315-.313q.016-1.924,0-3.847c0-.242.069-.316.313-.314q1.923.016,3.846,0c.242,0,.316.069.314.312q-.016,1.924,0,3.847c0,.242-.069.32-.313.315-.64-.015-1.282-.005-1.923-.005" transform="translate(-10.218 -13.249)" fill="#cae458"/>
        <path id="Trazado_179382" data-name="Trazado 179382" d="M23.353,53.488c-.624,0-1.249-.01-1.873.005-.243.006-.315-.072-.313-.314q.016-1.924,0-3.847c0-.243.072-.315.314-.313q1.923.016,3.846,0c.243,0,.315.072.313.313q-.016,1.924,0,3.847c0,.243-.071.318-.314.313-.657-.015-1.315-.005-1.973-.005" transform="translate(-10.218 -23.663)" fill="#cae458"/>
        <path id="Trazado_179383" data-name="Trazado 179383" d="M25.635,72.839c0,.624-.009,1.248,0,1.872.005.243-.036.36-.324.356-1.281-.015-2.563-.013-3.844,0-.255,0-.305-.095-.3-.324.009-1.282.011-2.564,0-3.845,0-.256.1-.305.324-.3q1.922.013,3.844,0c.256,0,.308.094.3.324-.012.641,0,1.282,0,1.923" transform="translate(-10.218 -34.076)" fill="#fe6977"/>
      </g>
    </g>
  </g>
</svg>
