<svg xmlns="http://www.w3.org/2000/svg" xmlns:xlink="http://www.w3.org/1999/xlink" width="89" height="85" viewBox="0 0 89 85">
  <defs>
    <clipPath id="clip-path">
      <rect id="Rect치ngulo_44975" data-name="Rect치ngulo 44975" width="59.3" height="48.191" transform="translate(0 0)" fill="none"/>
    </clipPath>
  </defs>
  <g id="_38" data-name="38" transform="translate(-698 -4457)">
    <g id="Grupo_165391" data-name="Grupo 165391" transform="translate(698 4457)">
      <rect id="Rect치ngulo_40797" data-name="Rect치ngulo 40797" width="89" height="85" rx="15" fill="#ffd947"/>
    </g>
    <g id="Grupo_174296" data-name="Grupo 174296" transform="translate(713 4475)">
      <g id="Grupo_174296-2" data-name="Grupo 174296" transform="translate(0 0)" clip-path="url(#clip-path)">
        <path id="Trazado_179384" data-name="Trazado 179384" d="M59.3,43.554a2.76,2.76,0,0,0-.3.908,5.442,5.442,0,0,1-5.08,3.713c-7.332.022-14.664.011-22,.008a2.981,2.981,0,0,1-2.009-.761c-.2-.175-.317-.189-.523-.008a3.309,3.309,0,0,1-2.3.777q-10.68-.011-21.36-.006A5.5,5.5,0,0,1,0,42.427Q0,25.293,0,8.159a2.621,2.621,0,0,1,2.921-2.93c.445,0,.572-.1.566-.558A2.618,2.618,0,0,1,6.41,1.744c.366,0,.733.006,1.1,0,.6-.011,1.27.237,1.328-.823.031-.577.645-.9,1.257-.9q2.634-.027,5.267,0a1.417,1.417,0,0,1,1.429,1.44c.018.4.017.809.024,1.214a.987.987,0,0,1,.155.662q.005,3.474,0,6.948a1.894,1.894,0,0,1-.28,1.048,1.549,1.549,0,0,1-2.172.51,8.536,8.536,0,0,1-1.13-.9c-.573-.5-.711-.505-1.274-.015-.306.267-.614.53-.937.774A1.524,1.524,0,0,1,9.5,11.94a1.628,1.628,0,0,1-.978-1.521C8.492,9.3,8.513,8.18,8.51,7.061c0-.926-.009-1.853,0-2.779.006-.428-.134-.648-.6-.628-.5.022-1-.008-1.5.01-.739.026-.984.281-1.016,1.035-.007.174,0,.347,0,.521V41.233c0,1.443.12,1.565,1.537,1.565H27.191c1.214,0,1.35-.127,1.454-1.332.018-.212.009-.424.015-.636a.526.526,0,0,0-.473-.6c-.64-.154-.9-.491-.891-1.033a.958.958,0,0,1,.869-.993.559.559,0,0,0,.5-.645q-.008-1.534,0-3.068a.559.559,0,0,0-.505-.639.956.956,0,0,1-.861-1c0-.541.254-.872.9-1.026a.531.531,0,0,0,.466-.608q0-1.563,0-3.126a.533.533,0,0,0-.473-.6c-.641-.157-.9-.493-.892-1.033s.26-.837.926-1.007a.505.505,0,0,0,.438-.569q0-1.592,0-3.184a.514.514,0,0,0-.443-.569c-.669-.178-.915-.477-.921-1.011-.006-.552.239-.844.952-1.043a.486.486,0,0,0,.409-.533q.01-1.621,0-3.242c0-.326-.162-.464-.472-.547-.64-.17-.9-.5-.887-1.038a.957.957,0,0,1,.871-.991.559.559,0,0,0,.493-.648c0-.984-.007-1.969,0-2.953a.577.577,0,0,0-.5-.653A.939.939,0,0,1,27.41,7.5a.94.94,0,0,1,.777-1.008.568.568,0,0,0,.477-.664,11.045,11.045,0,0,0-.039-1.214c-.106-.708-.352-.941-1.068-.946-1.988-.015-3.976,0-5.963-.007a14.039,14.039,0,0,1-1.62-.027c-.622-.074-.9-.4-.881-.962.151-.72.38-.923,1.086-.924,2.545,0,5.091,0,7.637,0a2.521,2.521,0,0,1,1.525.444.431.431,0,0,0,.605.009,2.563,2.563,0,0,1,1.58-.453q10.761.006,21.522,0a2.582,2.582,0,0,1,2.763,2.793c-.009.531.08.727.667.695A2.681,2.681,0,0,1,59.3,7.3v29.3a.89.89,0,0,1-.98.71,1.1,1.1,0,0,1-.932-1.152c-.02-.27-.011-.54-.011-.81q0-13.282,0-26.564a6.29,6.29,0,0,0-.031-.924.751.751,0,0,0-.612-.682c-.485-.113-.684.032-.716.53-.015.231-.006.463-.006.695q0,16.639.009,33.277a3.049,3.049,0,0,1-1.537,2.9,3.566,3.566,0,0,1-1.746.314q-10.538,0-21.077,0a1.479,1.479,0,0,0-.173,0c-.233.028-.549-.1-.655.207a.755.755,0,0,0,.288.772,1.359,1.359,0,0,0,.834.364,8.025,8.025,0,0,0,.926.025c6.678,0,13.356-.008,20.033,0A3.983,3.983,0,0,0,56.4,45.14a3.622,3.622,0,0,0,1-2.451c.024-.731-.018-1.464.016-2.194.031-.678.31-.973,1-1.127a.887.887,0,0,1,.883.713Z" transform="translate(0 0)"/>
        <path id="Trazado_179385" data-name="Trazado 179385" d="M26.173,6.293a1,1,0,0,0,1.141.818c2.471-.016,4.942-.008,7.412-.006.83,0,1.121.282,1.134,1.1.008.54-.008,1.081.006,1.621.007.267-.02.409-.359.42a.832.832,0,0,0-.909.838c-.009.506.311.839.934.873.305.017.336.138.334.386-.008,1.255-.014,2.509,0,3.764,0,.307-.089.384-.391.389-.65.011-1,.346-1,.871s.352.834,1.02.845c.335.006.366.144.364.415-.01,1.274-.016,2.548,0,3.822.005.333-.1.414-.422.417a.852.852,0,0,0-.965.843.843.843,0,0,0,.935.873c.35,0,.462.078.455.446q-.037,1.881,0,3.764c.007.367-.1.447-.454.446a.859.859,0,1,0-.028,1.714c.373,0,.491.09.483.477-.025,1.235-.018,2.471,0,3.706,0,.319-.028.483-.424.476a.841.841,0,0,0-.963.842c-.007.525.345.86,1,.872.3.006.4.081.392.388q-.024,1.94,0,3.88c0,.317-.1.377-.4.383-.648.014-1,.349-.99.876.01.506.356.836.967.842.325,0,.439.088.42.419-.027.462,0,.926-.009,1.39-.014.82-.3,1.1-1.129,1.1q-6.833,0-13.666,0-3.793,0-7.586,0c-.909,0-1.186-.269-1.186-1.156q0-18.588,0-37.177c0-.892.277-1.163,1.179-1.166.6,0,1.2.026,1.795-.009.4-.024.516.081.511.5-.024,2.084,0,4.169-.017,6.254a1.527,1.527,0,0,0,.847,1.572,1.475,1.475,0,0,0,1.743-.374c.368-.341.778-.638,1.126-1,.276-.285.456-.221.706.019.39.374.812.713,1.217,1.07a1.4,1.4,0,0,0,1.6.295,1.443,1.443,0,0,0,.873-1.437q0-3.85.018-7.7h2.278" transform="translate(-7.08 -3.625)" fill="#f1f1f1"/>
        <path id="Trazado_179386" data-name="Trazado 179386" d="M92.749,47.691c-.173.007-.346.021-.519.021q-9.525,0-19.051,0c-.95,0-1.209-.253-1.217-1.186,0-.27,0-.541,0-.811,0-.469-.154-.983.665-.975.4,0,.624-.425.588-.864a.766.766,0,0,0-.776-.78c-.426,0-.493-.158-.486-.538.024-1.216.017-2.432,0-3.648,0-.311.016-.488.416-.483a.8.8,0,0,0,.848-.836.825.825,0,0,0-.87-.875c-.283-.017-.4-.066-.4-.384q.028-1.939,0-3.879c0-.308.092-.377.389-.392a.857.857,0,1,0-.023-1.712c-.33-.013-.366-.143-.363-.416.011-1.274.016-2.548,0-3.822-.005-.333.1-.413.42-.42a.855.855,0,1,0-.025-1.711c-.357-.01-.4-.148-.393-.448q.022-1.881,0-3.764c0-.295.027-.441.389-.451a.856.856,0,1,0-.027-1.709c-.333-.013-.364-.147-.362-.419.011-1.235.017-2.471,0-3.706-.006-.334.1-.412.42-.416.609-.007.957-.339.966-.843.01-.526-.344-.86-.992-.876-.29-.007-.407-.068-.394-.383.025-.617-.01-1.236.016-1.852a.837.837,0,0,1,.918-.9q9.93,0,19.86.016a.754.754,0,0,1,.293.6c.016.212.014.424.014.636q0,18.489,0,36.978c0,.43.109.9-.3,1.24" transform="translate(-41.443 -4.734)" fill="#fefefe"/>
        <path id="Trazado_179387" data-name="Trazado 179387" d="M4.1,34.815v-17.2c0-1.047.445-1.415,1.489-1.271.21.029.257.112.249.291-.006.154,0,.309,0,.463V51.089c0,2.025,1,3.025,3.012,3.025H29.925a2.575,2.575,0,0,0,.748-.034c.432-.134.494.03.455.407a1.443,1.443,0,0,1-1.341,1.353c-.173.015-.347.008-.521.008H8.248A3.794,3.794,0,0,1,4.1,51.722q0-8.454,0-16.908" transform="translate(-2.361 -9.398)" fill="#cbac76"/>
        <path id="Trazado_179388" data-name="Trazado 179388" d="M121,47.686a2.7,2.7,0,0,0,.123-.851q-.006-18.878,0-37.755A2.64,2.64,0,0,0,121,8.23c.617-.007,1.233-.028,1.85-.016a.866.866,0,0,1,.931.945c.005.115,0,.231,0,.347V46.413c0,1.06-.232,1.3-1.279,1.293-.5,0-1-.013-1.5-.02" transform="translate(-69.692 -4.729)" fill="#e7e7e7"/>
        <path id="Trazado_179389" data-name="Trazado 179389" d="M130.539,46.617q0,1.147,0,2.294c-.709.142-.913.379-.919,1.086s.008,1.424,0,2.136a3.766,3.766,0,0,1-3.706,3.735c-.268.006-.538-.008-.807-.012.02-.311.318-.4.482-.6a4.225,4.225,0,0,0,.88-1.381,2.953,2.953,0,0,0,1.428-2.766q-.031-16.985,0-33.969c0-.249-.293-.7.283-.764.822-.094,1.325.16,1.423.736a3.818,3.818,0,0,1,.017.635q0,13.831,0,27.662c0,.826.179,1.056.919,1.206" transform="translate(-72.057 -9.422)" fill="#b4874d"/>
        <path id="Trazado_179390" data-name="Trazado 179390" d="M95.877,104.841c.228.155.059.313-.019.441a4.8,4.8,0,0,1-1.344,1.538q-5.876.008-11.752.015-4.574,0-9.147,0a1.457,1.457,0,0,1-1.62-1.491c0-.206-.018-.378.306-.309a4.714,4.714,0,0,0,.977.066q10.509.005,21.017.008a4.072,4.072,0,0,0,1.582-.266" transform="translate(-41.467 -60.386)" fill="#cbac75"/>
        <path id="Trazado_179391" data-name="Trazado 179391" d="M29.2,12.2c-.49-.427-.876-.772-1.272-1.106a1.469,1.469,0,0,0-2.088,0c-.394.336-.781.679-1.164,1.013-.151-.058-.106-.169-.106-.254,0-2.429.006-4.859-.011-7.288,0-.375.093-.487.475-.479,1.253.025,2.506.009,3.759.009.209,0,.414-.048.413.3C29.2,6.955,29.2,9.516,29.2,12.2" transform="translate(-14.148 -2.354)" fill="#f6a974"/>
        <path id="Trazado_179392" data-name="Trazado 179392" d="M24.18,34.971a2.69,2.69,0,0,1,1.839.733c.443.43.9.849,1.305,1.314.306.35.486.38.836.018,1.546-1.592,3.123-3.153,4.7-4.714a2.6,2.6,0,0,1,4.429,1.518,2.369,2.369,0,0,1-.676,2.072c-2.362,2.386-4.723,4.773-7.125,7.119A2.5,2.5,0,0,1,25.978,43q-1.855-1.786-3.643-3.643a2.432,2.432,0,0,1-.477-2.839,2.551,2.551,0,0,1,2.322-1.551" transform="translate(-12.442 -18.167)"/>
        <path id="Trazado_179393" data-name="Trazado 179393" d="M31.183,67.206q2.749,0,5.5,0c.691,0,1.074.3,1.09.841.017.565-.379.894-1.1.894q-5.555,0-11.111,0c-.691,0-1.074-.3-1.09-.842-.017-.566.378-.892,1.1-.893q2.806,0,5.613,0" transform="translate(-14.096 -38.709)"/>
        <path id="Trazado_179394" data-name="Trazado 179394" d="M34.235,77.137c-1.08,0-2.16,0-3.24,0-.672,0-1.064-.33-1.063-.87S30.325,75.4,31,75.4q3.269-.005,6.537,0c.672,0,1.065.33,1.063.869s-.4.863-1.068.865c-1.1,0-2.2,0-3.3,0" transform="translate(-17.24 -43.427)"/>
        <path id="Trazado_179395" data-name="Trazado 179395" d="M88.67,31.658A2.538,2.538,0,0,1,90.5,32.4c.4.387.811.773,1.185,1.188.3.331.532.367.844.015.357-.4.748-.78,1.143-1.147a2.608,2.608,0,0,1,3.607.008,2.574,2.574,0,0,1,.13,3.6c-.395.448-.826.866-1.261,1.275-.277.26-.268.46.005.714.4.367.776.752,1.146,1.145a2.59,2.59,0,0,1,.017,3.69,2.62,2.62,0,0,1-3.734-.041c-.347-.335-.7-.664-1.018-1.027s-.555-.4-.885-.017a16.109,16.109,0,0,1-1.141,1.149,2.6,2.6,0,1,1-3.672-3.7c.388-.4.777-.806,1.188-1.184.3-.276.285-.491-.006-.763-.45-.422-.9-.851-1.3-1.315a2.464,2.464,0,0,1-.446-2.8,2.511,2.511,0,0,1,2.375-1.545" transform="translate(-49.56 -18.234)"/>
        <path id="Trazado_179396" data-name="Trazado 179396" d="M91.156,68.943q-2.749,0-5.5,0c-.715,0-1.109-.331-1.091-.9.017-.539.4-.838,1.092-.838q5.556,0,11.112,0c.692,0,1.075.3,1.092.839.017.566-.378.9-1.093.9q-2.807,0-5.614,0" transform="translate(-48.708 -38.709)"/>
        <path id="Trazado_179397" data-name="Trazado 179397" d="M94.313,77.136c-1.08,0-2.16,0-3.24,0-.67,0-1.057-.337-1.046-.885.01-.524.388-.848,1.023-.849q3.3-.007,6.6,0c.67,0,1.058.337,1.046.884-.01.523-.389.846-1.023.85-1.119.006-2.237,0-3.356,0" transform="translate(-51.853 -43.427)"/>
        <path id="Trazado_179398" data-name="Trazado 179398" d="M30.139,44.344a.973.973,0,0,1-.712-.324c-1.115-1.121-2.238-2.232-3.349-3.357A.87.87,0,1,1,27.3,39.438c.527.509,1.037,1.034,1.557,1.551A1.519,1.519,0,0,0,31.384,41q2.456-2.451,4.9-4.909a1,1,0,0,1,1.074-.376.858.858,0,0,1,.265,1.489c-.888.911-1.8,1.8-2.7,2.7q-2,2-4,4.01a1.062,1.062,0,0,1-.789.426" transform="translate(-14.821 -20.546)" fill="#8fd298"/>
        <path id="Trazado_179399" data-name="Trazado 179399" d="M98.715,36.644a1.025,1.025,0,0,1-.336.749c-.4.395-.8.783-1.183,1.188a2,2,0,0,0-.016,2.942c.357.379.736.736,1.1,1.108.518.528.57,1.007.16,1.4-.389.377-.9.307-1.413-.2-.37-.366-.729-.744-1.107-1.1a1.991,1.991,0,0,0-2.856-.014c-.438.406-.845.845-1.274,1.261-.478.464-1,.5-1.367.114s-.33-.855.123-1.324c.388-.4.793-.788,1.183-1.188a2.016,2.016,0,0,0,.016-3.026c-.39-.4-.795-.787-1.184-1.188-.477-.491-.513-.981-.114-1.366a.894.894,0,0,1,1.325.123c.416.4.811.825,1.231,1.223a2.012,2.012,0,0,0,2.984-.024c.416-.4.818-.818,1.231-1.222a.879.879,0,0,1,1.5.542" transform="translate(-51.938 -20.597)" fill="#f39494"/>
      </g>
    </g>
  </g>
</svg>
