<svg id="_4" data-name="4" xmlns="http://www.w3.org/2000/svg" xmlns:xlink="http://www.w3.org/1999/xlink" width="610" height="293.331" viewBox="0 0 610 293.331">
  <defs>
    <clipPath id="clip-path">
      <path id="Trazado_161169" data-name="Trazado 161169" d="M763.848-7.376H166.466v287.6H763.848Z" transform="translate(-166.466 7.376)" fill="none"/>
    </clipPath>
  </defs>
  <path id="Trazado_156666" data-name="Trazado 156666" d="M609.437,0H0V293.331H609.437Z" transform="translate(0.563 0)" fill="#fff0f1"/>
  <g id="Grupo_167663" data-name="Grupo 167663" transform="translate(0 0)">
    <g id="Grupo_165585" data-name="Grupo 165585" transform="translate(0 0)">
      <g id="Enmascarar_grupo_220" data-name="Enmascarar grupo 220" clip-path="url(#clip-path)">
        <g id="Grupo_174225" data-name="Grupo 174225" transform="translate(-272.064 9.792)">
          <path id="Trazado_150499" data-name="Trazado 150499" d="M367.867,139.94H511.945a1.32,1.32,0,0,0,1.32-1.32v-2.5a1.32,1.32,0,0,0-1.32-1.32H367.867a1.32,1.32,0,0,0-1.32,1.32v2.5a1.321,1.321,0,0,0,1.32,1.32" transform="translate(232.394 5.347)" fill="#b06641"/>
          <path id="Trazado_150500" data-name="Trazado 150500" d="M428.034,86.05s-16.056-13.893-17.322-43.527c0,0,20.135,11.1,24.577,43.527Z" transform="translate(268.391 9.913)" fill="#ccb16c"/>
          <path id="Trazado_150501" data-name="Trazado 150501" d="M382.522,84.731s26.237-25.094,20.241-68.843c0,0-24.757,26.871-20.241,68.843" transform="translate(327.343 11.23)" fill="#ccb16c"/>
          <path id="Trazado_150502" data-name="Trazado 150502" d="M404.085,83.945h2.45l3.354-40.772c.39-21.384-5.8-43.173-5.8-43.173s-10.438,44.638,0,83.945" transform="translate(304.48 12.017)" fill="#ccb16c"/>
          <path id="Trazado_150503" data-name="Trazado 150503" d="M412.2,59.587c-7.835-18.733-6.549-43.31-6.549-43.31a86.91,86.91,0,0,1,14.829,23.976l4.639,44.5h-4.886Z" transform="translate(283.447 11.212)" fill="#ccb16c"/>
          <path id="Trazado_150504" data-name="Trazado 150504" d="M368.813,86.566,381.775,66.72s7.321-10.949,20.349-13.761c0,0-5.341,24.835-27.734,33.607Z" transform="translate(341.381 9.396)" fill="#ccb16c"/>
          <path id="Trazado_150505" data-name="Trazado 150505" d="M417.833,87.055a67.146,67.146,0,0,0-8.851-25.7.667.667,0,0,1,1.151-.672,68.762,68.762,0,0,1,9.033,26.374c.107.849-1.225.84-1.333,0" transform="translate(286.245 9.03)" fill="#2b244a"/>
          <path id="Trazado_150506" data-name="Trazado 150506" d="M409.071,59.752A64.246,64.246,0,0,0,404.728,41.5c-.318-.8.97-1.143,1.285-.354a65.408,65.408,0,0,1,4.39,18.6c.074.855-1.259.85-1.333,0" transform="translate(299.009 10.003)" fill="#2b244a"/>
          <path id="Trazado_150507" data-name="Trazado 150507" d="M410.487,46.072a205.966,205.966,0,0,0-9.922,33.3c-.175.839-1.459.484-1.285-.355a205.984,205.984,0,0,1,9.922-33.3c.31-.789,1.6-.445,1.285.355" transform="translate(304.025 9.777)" fill="#2b244a"/>
          <path id="Trazado_150508" data-name="Trazado 150508" d="M405.843,68.605a58.868,58.868,0,0,1-14.13,19.047c-.638.57-1.583-.369-.943-.942a57.924,57.924,0,0,0,13.923-18.778c.36-.777,1.509-.1,1.15.673" transform="translate(316.926 8.673)" fill="#2b244a"/>
          <path id="Trazado_150509" data-name="Trazado 150509" d="M398.1,132.583s-5.034-3.257-7.551-12.585-2.664-31.682-2.664-31.682h36.023s-.148,22.356-2.665,31.682-7.55,12.585-7.55,12.585Z" transform="translate(301.467 7.646)" fill="#dec6bd"/>
          <path id="Trazado_150510" data-name="Trazado 150510" d="M422.986,95.1h-34.2a.667.667,0,0,1,0-1.333h34.2a.667.667,0,0,1,0,1.333" transform="translate(301.502 7.377)" fill="#2b244a"/>
          <path id="Trazado_150511" data-name="Trazado 150511" d="M486.654,67.847a9.742,9.742,0,1,0,6.977-11.88,9.743,9.743,0,0,0-6.977,11.88" transform="translate(125.969 9.264)" fill="#ccb16c"/>
          <path id="Trazado_150512" data-name="Trazado 150512" d="M499.218,41.886a8.59,8.59,0,1,1-8.848-8.325,8.591,8.591,0,0,1,8.848,8.325" transform="translate(136.66 10.357)" fill="#ccb16c"/>
          <path id="Trazado_150513" data-name="Trazado 150513" d="M445.692,69.783a15.249,15.249,0,1,0,15.249-15.249,15.249,15.249,0,0,0-15.249,15.249" transform="translate(194.24 9.318)" fill="#ccb16c"/>
          <path id="Trazado_150514" data-name="Trazado 150514" d="M478.629,60.749A59.143,59.143,0,0,0,461.5,77.988a76.872,76.872,0,0,0-8.86,17.708,35.419,35.419,0,0,0-1.736,6.631c-.115.846-1.4.486-1.284-.355.667-4.885,2.72-9.712,4.8-14.138a75.013,75.013,0,0,1,12.693-19.123A55.082,55.082,0,0,1,477.956,59.6c.726-.461,1.4.691.673,1.15" transform="translate(187.763 9.073)" fill="#2b244a"/>
          <path id="Trazado_150515" data-name="Trazado 150515" d="M461.42,104.462c.386,5.956,1.026,12.272,2.105,16.242,2.518,9.327,7.555,12.592,7.555,12.592h15.59s5.037-3.265,7.555-12.592c1.08-3.97,1.719-10.286,2.105-16.242Z" transform="translate(159.151 6.848)" fill="#dec6bd"/>
          <path id="Trazado_150516" data-name="Trazado 150516" d="M447.7,99.726a9.742,9.742,0,1,0,9.742-9.742,9.742,9.742,0,0,0-9.742,9.742" transform="translate(201.344 7.563)" fill="#ccb16c"/>
          <path id="Trazado_150517" data-name="Trazado 150517" d="M477.211,106.2c-2.148-5.149-5.719-10.27-11.374-11.808a14.281,14.281,0,0,0-9.219.682,10.239,10.239,0,0,0-5.392,6.543.667.667,0,0,1-1.285-.355,11.664,11.664,0,0,1,5.587-7.142,14.267,14.267,0,0,1,3.95-1.268,15.12,15.12,0,0,1,12.5,3.355,24.873,24.873,0,0,1,6.519,9.637c.33.791-.959,1.136-1.285.355" transform="translate(187.87 7.434)" fill="#2b244a"/>
          <path id="Trazado_150518" data-name="Trazado 150518" d="M481.583,34.207c7.5,14.915,12.351,31.7,12.41,48.481a60.76,60.76,0,0,1-.628,9.273c-.127.845-1.412.486-1.285-.355a70.461,70.461,0,0,0,.063-17.95,109.741,109.741,0,0,0-5.386-23.785,119.849,119.849,0,0,0-6.323-14.99c-.385-.764.764-1.44,1.15-.673" transform="translate(143.491 10.341)" fill="#2b244a"/>
          <path id="Trazado_150519" data-name="Trazado 150519" d="M502.855,80.209a32.213,32.213,0,0,0-4.679-8.148,31.07,31.07,0,0,0-9.024-7.344,54.128,54.128,0,0,0-8.255-3.657c-.8-.285-.456-1.573.354-1.285,8.215,2.923,15.982,7.4,20.484,15.114a40.553,40.553,0,0,1,2.4,4.964c.327.792-.961,1.137-1.285.355" transform="translate(133.208 9.062)" fill="#2b244a"/>
          <path id="Trazado_150520" data-name="Trazado 150520" d="M480.651,90.468a16.434,16.434,0,1,0,20.143-11.591,16.434,16.434,0,0,0-20.143,11.591" transform="translate(124.787 8.143)" fill="#ccb16c"/>
          <path id="Trazado_150521" data-name="Trazado 150521" d="M511.4,97.634a15.931,15.931,0,0,0-5.184-4.766,19.9,19.9,0,0,0-7.272-2.664,20.68,20.68,0,0,0-13.98,2.867,26.5,26.5,0,0,0-6.049,5.056c-.574.64-1.514-.305-.943-.942a25.71,25.71,0,0,1,12.609-7.914,21.443,21.443,0,0,1,15.7,2.084,17.663,17.663,0,0,1,6.265,5.606c.452.733-.7,1.4-1.15.673" transform="translate(127.256 7.631)" fill="#2b244a"/>
          <path id="Trazado_150522" data-name="Trazado 150522" d="M374.414,134.236h4.442V124.2a.769.769,0,0,0-.769-.769h-2.9a.769.769,0,0,0-.769.769Z" transform="translate(359.325 5.909)" fill="#b06641"/>
          <path id="Trazado_150523" data-name="Trazado 150523" d="M508.364,134.236h4.442V124.2a.769.769,0,0,0-.769-.769h-2.9a.769.769,0,0,0-.769.769Z" transform="translate(98.055 5.909)" fill="#b06641"/>
        </g>
        <path id="Trazado_150524" data-name="Trazado 150524" d="M867.9,256.084a10.42,10.42,0,0,0-9.759,6.535c-1.238,2.842-1.486,5.961-1.91,9q-.705,5.064-1.411,10.128-.448,3.208-.895,6.413h-1.955q.258-1.845.515-3.691.734-5.266,1.469-10.533a70.586,70.586,0,0,1,1.576-9.788c1.105-3.843,3.43-7.372,7.2-8.993a13.535,13.535,0,0,1,5.166-1.02.977.977,0,0,1,0,1.952" transform="translate(-584.576 -0.559)" fill="#2b244a"/>
        <path id="Trazado_150525" data-name="Trazado 150525" d="M710.651,288.156q-1.153-8.271-2.306-16.541c-.7-5.026-1.227-10.99-5.964-13.989a10.8,10.8,0,0,0-5.7-1.543.977.977,0,0,1,0-1.952,12.175,12.175,0,0,1,9.544,4.359c3.491,4.326,3.668,10.173,4.4,15.441q.992,7.113,1.983,14.224Z" transform="translate(-279.84 -0.559)" fill="#2b244a"/>
        <path id="Trazado_150526" data-name="Trazado 150526" d="M1105.637,256.084a10.421,10.421,0,0,0-9.759,6.535c-1.238,2.842-1.486,5.961-1.909,9q-.707,5.064-1.413,10.128-.444,3.208-.893,6.413h-1.954q.256-1.845.514-3.691.734-5.266,1.468-10.533a70.679,70.679,0,0,1,1.577-9.788c1.106-3.843,3.431-7.372,7.2-8.993a13.53,13.53,0,0,1,5.165-1.02.977.977,0,0,1,0,1.952" transform="translate(-1048.292 -0.559)" fill="#2b244a"/>
        <path id="Trazado_150527" data-name="Trazado 150527" d="M948.393,288.156q-1.153-8.271-2.306-16.541c-.7-5.026-1.227-10.99-5.964-13.989a10.8,10.8,0,0,0-5.7-1.543.977.977,0,0,1,0-1.952,12.175,12.175,0,0,1,9.544,4.359c3.492,4.326,3.668,10.173,4.4,15.441q.992,7.113,1.983,14.224Z" transform="translate(-743.559 -0.559)" fill="#2b244a"/>
        <path id="Trazado_150528" data-name="Trazado 150528" d="M678.779,255.936h431.875a4.853,4.853,0,1,0,0-9.706H678.779a4.853,4.853,0,1,0,0,9.706" transform="translate(-662.014 -0.169)" fill="#d9a389"/>
        <path id="Trazado_150529" data-name="Trazado 150529" d="M892.874,246.48a10.39,10.39,0,0,1-.142,9.185.976.976,0,1,1-1.685-.986,8.308,8.308,0,0,0,.141-7.214,1,1,0,0,1,.35-1.335.984.984,0,0,1,1.336.35" transform="translate(-646.639 -0.157)" fill="#2b244a"/>
        <path id="Trazado_150530" data-name="Trazado 150530" d="M1080.836,239.152c1.864-2.767,2.35-8.261,2.35-8.261l11.235,1.917,11.237-1.917s.485,5.494,2.349,8.261c1.319,1.957,3.763,3.652,3.763,6.319h-34.7c0-2.667,2.445-4.362,3.763-6.319" transform="translate(-1041.471 0.591)" fill="#2b244a"/>
        <path id="Trazado_150531" data-name="Trazado 150531" d="M1076.067,213.583c2.548,15.569,13.6,26.721,24.687,24.906s18.008-15.907,15.459-31.476-13.6-26.721-24.686-24.906-18.009,15.907-15.46,31.476" transform="translate(-1044.984 3.016)" fill="#2b244a"/>
        <path id="Trazado_150532" data-name="Trazado 150532" d="M1086.879,203.756c.949,5.8,5.068,9.955,9.2,9.279s6.708-5.926,5.759-11.726-5.066-9.955-9.2-9.279-6.708,5.926-5.759,11.726" transform="translate(-1040.865 2.518)" fill="#8c75b5"/>
        <path id="Trazado_150533" data-name="Trazado 150533" d="M1086.277,225.415a4.724,4.724,0,1,0,3.9-5.426,4.725,4.725,0,0,0-3.9,5.426" transform="translate(-1034.054 1.134)" fill="#8c75b5"/>
        <path id="Trazado_150534" data-name="Trazado 150534" d="M1106.821,237.053a18.109,18.109,0,0,1-12.008,4.853,18.7,18.7,0,0,1-12.268-4.676c-.955-.817.431-2.193,1.381-1.381a16.137,16.137,0,0,0,21.516-.177c.926-.843,2.311.533,1.379,1.38" transform="translate(-1041.726 0.366)" fill="#8c75b5"/>
        <path id="Trazado_150535" data-name="Trazado 150535" d="M932.469,239.152c1.865-2.767,2.351-8.261,2.351-8.261l11.236,1.917,11.237-1.917s.484,5.494,2.349,8.261c1.319,1.957,3.763,3.652,3.763,6.319h-34.7c0-2.667,2.446-4.362,3.763-6.319" transform="translate(-752.081 0.591)" fill="#2b244a"/>
        <path id="Trazado_150536" data-name="Trazado 150536" d="M927.7,213.583c2.548,15.569,13.6,26.721,24.688,24.906s18.007-15.907,15.459-31.476-13.6-26.721-24.686-24.906-18.008,15.907-15.46,31.476" transform="translate(-755.594 3.016)" fill="#2b244a"/>
        <path id="Trazado_150537" data-name="Trazado 150537" d="M938.512,203.756c.95,5.8,5.067,9.955,9.2,9.279s6.709-5.926,5.759-11.726-5.066-9.955-9.2-9.279-6.708,5.926-5.759,11.726" transform="translate(-751.474 2.518)" fill="#8c75b5"/>
        <path id="Trazado_150538" data-name="Trazado 150538" d="M937.91,225.415a4.724,4.724,0,1,0,3.9-5.426,4.725,4.725,0,0,0-3.9,5.426" transform="translate(-744.664 1.134)" fill="#8c75b5"/>
        <path id="Trazado_150539" data-name="Trazado 150539" d="M958.453,237.053a18.11,18.11,0,0,1-12.008,4.853,18.7,18.7,0,0,1-12.267-4.676c-.956-.817.43-2.193,1.38-1.381a16.137,16.137,0,0,0,21.516-.177c.928-.843,2.312.533,1.379,1.38" transform="translate(-752.334 0.366)" fill="#8c75b5"/>
        <path id="Trazado_150540" data-name="Trazado 150540" d="M900.718,33.046h146.076a7.7,7.7,0,0,1,7.473,5.838L1085.8,165.4a7.7,7.7,0,0,1-7.473,9.563H932.255a7.7,7.7,0,0,1-7.472-5.838L893.245,42.609a7.7,7.7,0,0,1,7.473-9.563" transform="translate(-840.785 10.383)" fill="#dec6bd"/>
        <path id="Trazado_150541" data-name="Trazado 150541" d="M896.363,42.77l27.422,111.745h155.621L1050.594,38.891a7.679,7.679,0,0,0-7.468-5.845H903.976a7.843,7.843,0,0,0-7.613,9.724" transform="translate(-837.117 10.383)" fill="#2b244a"/>
        <path id="Trazado_150542" data-name="Trazado 150542" d="M1087.286,174.96a8.392,8.392,0,0,1-8.3-6.114c-.132-.492-.247-.99-.37-1.484q-1.069-4.292-2.14-8.582-4.082-16.379-8.165-32.758-5.045-20.239-10.09-40.477-4.052-16.254-8.1-32.507-1.042-4.182-2.084-8.364c-.867-3.474-1.365-7.494,1.893-9.939a10.244,10.244,0,0,1,6.123-1.68.9.9,0,0,1,0,1.8c-2.056.023-4.437.362-5.831,2.055a6.171,6.171,0,0,0-1,4.906c.1.631.271,1.254.425,1.873L1051.473,51q3.784,15.177,7.567,30.355l9.8,39.33q4.217,16.917,8.434,33.834,1.293,5.188,2.586,10.375c.409,1.639.668,3.659,1.531,5.137a6.748,6.748,0,0,0,5.892,3.121.9.9,0,0,1,0,1.8" transform="translate(-989.643 10.382)" fill="#2b244a"/>
        <path id="Trazado_150543" data-name="Trazado 150543" d="M1008.586,168.843h21.452L1000.422,242.4H978.97Z" transform="translate(-866.491 3.662)" fill="#dec6bd"/>
        <path id="Trazado_150544" data-name="Trazado 150544" d="M1005.279,184.056H985.834a.9.9,0,0,1,0-1.8h19.445a.9.9,0,0,1,0,1.8" transform="translate(-848.299 2.999)" fill="#2b244a"/>
        <path id="Trazado_150545" data-name="Trazado 150545" d="M971.17,241.6h48.819a4.4,4.4,0,0,1,4.4,4.4H971.17Z" transform="translate(-853.43 0.06)" fill="#dec6bd"/>
        <path id="Trazado_150546" data-name="Trazado 150546" d="M516.94,289.463c17.09-4.7,31.8-8.66,33.343-8.933a14.568,14.568,0,0,1,2.842,3.723c.856,1.672,1.68,3.423,2.485,5.21Z" transform="translate(47.1 -1.866)" fill="#ccb16c"/>
        <path id="Trazado_150547" data-name="Trazado 150547" d="M596.293,150.286l32.148-17.073L601.45,83.834l-26.36,15.874Z" transform="translate(-81.003 7.868)" fill="#ffa58f"/>
        <path id="Trazado_150548" data-name="Trazado 150548" d="M615.041,107.949l-29.8,14.616,1.748,9.586,32.868-15.584Z" transform="translate(-82.078 6.676)" fill="#2b244a"/>
        <path id="Trazado_150549" data-name="Trazado 150549" d="M842.843,268.156c-9.671,1.965-47,8.156-47.3,12.955s3.819,9.136,29.628,6.317,17.677-19.273,17.677-19.273" transform="translate(-506.146 -1.253)" fill="#ffa58f"/>
        <path id="Trazado_150550" data-name="Trazado 150550" d="M749.108,288.829c9.719-9.663,21.054-19.351,27.6-20.694,12.687-2.6,37.3,8.242,37.3,8.242l8.03,12.453Z" transform="translate(-440.013 -1.233)" fill="#ffa58f"/>
        <path id="Trazado_150551" data-name="Trazado 150551" d="M805.776,289.84h-2.966l1.652-1.438c.943-.821,2.33.553,1.38,1.38l-.067.058" transform="translate(-475.174 -2.243)" fill="#2b244a"/>
        <path id="Trazado_150552" data-name="Trazado 150552" d="M825.257,278.275,814.309,288.8c-.9.871-2.287-.508-1.38-1.38l10.948-10.529c.906-.871,2.288.507,1.38,1.38" transform="translate(-503.902 -1.672)" fill="#2b244a"/>
        <path id="Trazado_150553" data-name="Trazado 150553" d="M828.568,254.031c-9.061,4.3-28.747,19.868-50.18,26.984H741.065c-6.857-3.122-13.336-8.466-19.1-16.791-30.663-44.295-43.117-76.49-51.147-88.975-5.858-2.185-18.361-6.378-31.161-11.714-14.436-6.02-4.094-16.313-4.094-16.313s-5.016-4.55-2.983-9.307c.608-1.424,2.8-3.177,6.914-2.793-3.2-.705-17.831-6.322-18.328-6.507-4.663-1.735-5.584-8.675,1.856-8.513,5.888.129,22.928,2.506,39.511,6.567-5.482-10.471-8.164-18.773-2.2-16.435,6.078,2.384,25.848,20.269,35.99,29.666.2.161.411.319.593.481,1.5,1.328,3.351,3.1,5.455,5.177l.083.079h0c16.83,16.658,56.7,62.749,69.4,75.642,14.315,14.531,29.171-12.3,39.408-27.372,6.49-9.556,20.995-29.887,20.995-29.887s13.663,81.766-3.687,90.008" transform="translate(-330.289 6.582)" fill="#ffa58f"/>
        <path id="Trazado_150554" data-name="Trazado 150554" d="M643.924,207.152l-20.995-10.616L640.7,162.907Z" transform="translate(-141.958 3.955)" fill="#2b244a"/>
        <path id="Trazado_150555" data-name="Trazado 150555" d="M508.655,281.326c-2.529-34.978-8.258-115.737-8.258-129.681,0-17.893,13.338-36.762,38.064-35.461s42.554,35.136,54.655,65.864c11.786,29.931,27.653,86.391,27.653,86.391s-6.7,5.845-28.95,12.887Z" transform="translate(-2.335 6.271)" fill="#2b244a"/>
        <path id="Trazado_150556" data-name="Trazado 150556" d="M552.529,235.2l-12.142-3.917c-1.19-.384-.681-2.269.519-1.882l12.142,3.917c1.191.384.682,2.269-.519,1.882" transform="translate(27.341 0.667)" fill="#8c75b5"/>
        <path id="Trazado_150557" data-name="Trazado 150557" d="M715.1,286.149H557.075c-3.869-5.939-7.018-10.909-7.727-12.453,11.241-3.372,80.662-26.822,100.5-35.041a113.559,113.559,0,0,0,13.3-6.057,34.573,34.573,0,0,0,9.977-8.6,42.73,42.73,0,0,0,5.938-10.421,2.59,2.59,0,0,0,.52.257c29.014,7.053,42.534,7.471,67.666,15.958,0,18.972-7.853,36.01-13.042,41.626A76.1,76.1,0,0,1,715.1,286.149" transform="translate(-175.345 1.448)" fill="#ffa58f"/>
        <path id="Trazado_150558" data-name="Trazado 150558" d="M800.221,146.6a32.68,32.68,0,0,1-10.457-17.21c-.288-1.222,1.594-1.743,1.882-.519A30.906,30.906,0,0,0,801.6,145.22c.954.819-.432,2.195-1.38,1.38" transform="translate(-458.505 5.674)" fill="#2b244a"/>
        <path id="Trazado_150559" data-name="Trazado 150559" d="M734.131,214.1c-.511,8.321-7.153,14.021-13.956,17.8a223.946,223.946,0,0,1-24.491,11.34c-16.046,6.529-32.541,11.869-48.924,17.47-8.015,2.74-16.025,5.5-24.047,8.214-1.193.4-1.7-1.481-.519-1.883q21.071-7.136,42.113-14.359c16.917-5.781,33.793-11.857,49.818-19.836,7.7-3.834,17.455-8.994,18.053-18.749.077-1.248,2.029-1.257,1.952,0" transform="translate(-230.829 1.468)" fill="#2b244a"/>
        <path id="Trazado_150560" data-name="Trazado 150560" d="M541.621,166.966q2.161,25.041,4.382,50.075.615,7.042,1.223,14.085c.109,1.252-1.844,1.244-1.951,0q-2.163-25.039-4.382-50.075-.616-7.042-1.224-14.085c-.107-1.252,1.845-1.244,1.952,0" transform="translate(33.879 3.801)" fill="#8c75b5"/>
        <path id="Trazado_150561" data-name="Trazado 150561" d="M618.661,215.832c-19.759-5.508-39.848-9.8-59.894-14.114q-8.191-1.761-16.38-3.522c-1.227-.266-.707-2.148.519-1.883,20.051,4.341,40.148,8.495,60.071,13.4,5.42,1.336,10.825,2.733,16.2,4.232a.977.977,0,0,1-.519,1.882" transform="translate(-40.681 2.303)" fill="#8c75b5"/>
        <path id="Trazado_150562" data-name="Trazado 150562" d="M626.48,96.17a71.881,71.881,0,0,1-33.267,13.395c-14.421,1.95-18.808-9.288-18.042-14.18a314.492,314.492,0,0,1,9.579-37.434C589.614,43.175,595.292,36.459,614,35.137s34.772,5.42,34.071,24.825S631.9,92.137,626.48,96.17" transform="translate(-100.649 10.287)" fill="#ffa58f"/>
        <path id="Trazado_150563" data-name="Trazado 150563" d="M650.747,68.666s-5.652,4.464-8.536,7.172c-1.645,1.545-1.381,2.91-.54,3.842a57.263,57.263,0,0,0,4.791,4.372l7.213-4.713Z" transform="translate(-168.891 8.62)" fill="#ffa58f"/>
        <path id="Trazado_150564" data-name="Trazado 150564" d="M639.959,70.735a2.389,2.389,0,0,1,2.233-.5,2.258,2.258,0,0,1,1.357,2.124,7.82,7.82,0,0,1-.5,2.749,4.986,4.986,0,0,1-1.813,2.678c-1.572.951-2.983-.278-3.165-1.836a6.919,6.919,0,0,1,1.89-5.213" transform="translate(-155.95 8.547)" fill="#2b244a"/>
        <path id="Trazado_150565" data-name="Trazado 150565" d="M631.511,65.154c.049,3.386,3.3,1.959,6.409,4.031,2.86,1.9,5.07,2.284,5.62.515.666-2.138-1.57-5.632-6.047-7.094-4.193-1.368-6.019.078-5.982,2.547" transform="translate(-149.846 8.946)" fill="#2b244a"/>
        <path id="Trazado_150566" data-name="Trazado 150566" d="M813.4,148.452c4.713,1.6,9.6,3.532,13.551,6.63A5.908,5.908,0,0,1,829.337,161a6.154,6.154,0,0,1-3.665,4.4,14.691,14.691,0,0,1-6.46,1.006c-1.247-.08-1.256-2.032,0-1.951a12.15,12.15,0,0,0,6.065-1.006,4.019,4.019,0,0,0,1.788-5.367,8.5,8.5,0,0,0-3.006-2.647,38.1,38.1,0,0,0-3.421-1.937,60.45,60.45,0,0,0-7.759-3.167c-1.182-.4-.675-2.288.519-1.882" transform="translate(-507.401 4.673)" fill="#2b244a"/>
        <path id="Trazado_150567" data-name="Trazado 150567" d="M805.322,135.445a76.444,76.444,0,0,1,13.818,6.693c2.051,1.211,4.557,2.506,5.767,4.644a5.965,5.965,0,0,1-1.573,7.379c-2.063,1.679-5.424,2.046-7.989,1.885-1.247-.077-1.257-2.03,0-1.951a11.811,11.811,0,0,0,6.274-1.117,3.956,3.956,0,0,0,.916-6.136,21.715,21.715,0,0,0-5.051-3.408q-3.1-1.791-6.323-3.358a55.356,55.356,0,0,0-6.359-2.748c-1.181-.4-.674-2.291.519-1.882" transform="translate(-495.854 5.317)" fill="#2b244a"/>
        <path id="Trazado_150568" data-name="Trazado 150568" d="M581.99,29.5c.232-3.178,2.294-7,10.6-7.673C607.23,20.639,622.738,37.2,622.738,37.2c13.59,3.036,19.33,17.069,16.266,29.144-4.554,17.95-20.626,26.241-20.626,26.241l1.3,7.017c-9.348-2.695-16.187-11.646-16.891-16.639s-6.1-5.449-6.1-5.449-4.535-4.78-1.421-8.54c2.545-3.073,3.225-6.156,2.243-8.694-4.188.093-10.5-.126-12.914-2.12a4.346,4.346,0,0,1-1.672-4.329c-5.694-.846-6.095-.836-8.293-1.081-6.437-7.144-2.755-17.868,7.362-23.247" transform="translate(-88.89 10.94)" fill="#2b244a"/>
        <path id="Trazado_150569" data-name="Trazado 150569" d="M604.029,86.516a9.935,9.935,0,1,0,9.935-9.936,9.935,9.935,0,0,0-9.935,9.936" transform="translate(-103.969 8.229)" fill="#ffa58f"/>
        <path id="Trazado_150570" data-name="Trazado 150570" d="M641.675,87.033c4.041.605,7.944,1.171,8.491,1.288a16.481,16.481,0,0,1-9.687,4.1c.29-1.584.723-3.4,1.2-5.384" transform="translate(-164.881 7.71)" fill="#fff"/>
        <path id="Trazado_150571" data-name="Trazado 150571" d="M625.113,106.215a25.506,25.506,0,0,1-9.411,6.1.985.985,0,0,1-1.2-.682,1,1,0,0,1,.682-1.2,23.289,23.289,0,0,0,8.55-5.595c.878-.9,2.257.479,1.38,1.38" transform="translate(-115.382 6.844)" fill="#37374c"/>
        <path id="Trazado_150572" data-name="Trazado 150572" d="M613.684,89.448a4.934,4.934,0,0,0-3.952-7.087,1,1,0,0,1-.976-.976.984.984,0,0,1,.976-.976,6.874,6.874,0,0,1,5.637,10.024.986.986,0,0,1-1.335.351,1,1,0,0,1-.35-1.335" transform="translate(-100.679 8.039)" fill="#37374c"/>
        <path id="Trazado_150573" data-name="Trazado 150573" d="M625.155,164.912c.784,13.972,1.884,27.925,2.668,41.9.07,1.256-1.882,1.251-1.953,0-.784-13.972-1.884-27.925-2.668-41.9-.07-1.255,1.882-1.251,1.953,0" transform="translate(-126.117 3.903)" fill="#8c75b5"/>
        <path id="Trazado_150574" data-name="Trazado 150574" d="M617.335,118.243a52.006,52.006,0,0,0-30.617,13.315c-.928.844-2.312-.532-1.381-1.38a54.173,54.173,0,0,1,32-13.887c1.254-.087,1.248,1.865,0,1.952" transform="translate(-80.281 6.262)" fill="#8c75b5"/>
        <path id="Trazado_150575" data-name="Trazado 150575" d="M614.088,75.608c-2.3,2.288-4.76,4.632-7.991,5.462a8.345,8.345,0,0,1-8.316-2.333c-2.12-2.165-3.975-6.144-7.449-6.217-1.759-.037-3.382.92-5.157.9a8.292,8.292,0,0,1-4.225-1.287c-3.186-1.972-4.61-5.457-5.855-8.823-.437-1.181,1.449-1.689,1.882-.519,1.283,3.468,2.962,7.565,6.97,8.519,2.038.486,3.774-.564,5.765-.726a6.9,6.9,0,0,1,4.815,1.629c2.718,2.125,4.239,6.3,7.869,7.087,4.171.909,7.625-2.4,10.313-5.078a.976.976,0,0,1,1.38,1.38" transform="translate(-66.88 8.943)" fill="#8c75b5"/>
        <path id="Trazado_150576" data-name="Trazado 150576" d="M627.989,48.311A13.4,13.4,0,0,1,616.2,51.37a7.573,7.573,0,0,1-4.911-3c-1.254-2.064-.572-4.5.186-6.605l1.433,1.1a8.068,8.068,0,0,1-11.8-2.543.977.977,0,0,1,1.685-.986,6.127,6.127,0,0,0,9.129,1.842.985.985,0,0,1,1.433,1.1c-.6,1.671-1.459,3.911-.12,5.453a7.026,7.026,0,0,0,4.258,1.894,11.38,11.38,0,0,0,9.11-2.7c.939-.828,2.325.548,1.38,1.38" transform="translate(-105.472 10.095)" fill="#8c75b5"/>
        <path id="Trazado_150577" data-name="Trazado 150577" d="M599.318,82.826a11.814,11.814,0,1,0,11.814-11.814,11.814,11.814,0,0,0-11.814,11.814" transform="translate(-98.537 8.504)" fill="#ffeae0"/>
        <path id="Trazado_150578" data-name="Trazado 150578" d="M609.592,34.258Q603.34,58.272,594.727,81.58c-.432,1.169-2.319.663-1.882-.518q8.6-23.277,14.865-47.323a.977.977,0,0,1,1.882.519" transform="translate(-79.005 10.383)" fill="#ffeae0"/>
        <path id="Trazado_150579" data-name="Trazado 150579" d="M614.378,30.793q-6.387,24.534-15.191,48.363c-.431,1.168-2.319.663-1.882-.519q8.789-23.782,15.191-48.363a.977.977,0,0,1,1.882.519" transform="translate(-88.031 10.554)" fill="#ffeae0"/>
        <path id="Trazado_150580" data-name="Trazado 150580" d="M601.9,80.44l8.827,2.917,4.636-14.032a.786.786,0,0,0-.5-.993l-7.334-2.424a.786.786,0,0,0-.993.5Z" transform="translate(-93.451 8.758)" fill="#ffeae0"/>
        <path id="Trazado_150581" data-name="Trazado 150581" d="M610.4,74.45a12.825,12.825,0,0,0-2.906-1.514,13.7,13.7,0,0,0-1.644-.474c-.26-.057-.522-.107-.785-.149-.243-.038-.45-.061-.76-.087a1,1,0,0,1-.976-.975.984.984,0,0,1,.976-.976,14.652,14.652,0,0,1,7.081,2.491,1,1,0,0,1,.35,1.335.985.985,0,0,1-1.336.35" transform="translate(-91.277 8.541)" fill="#2b244a"/>
        <path id="Trazado_150582" data-name="Trazado 150582" d="M405.289,284.419c10.845-23.577,20.388-44.085,26.549-55.057,20.821-37.088,31.232-50.751,45.871-50.751,10.411,0,14.64,4.555,21.472,24.074,3.413,9.752,5.742,43.922,7.111,81.734Z" transform="translate(202.542 3.178)" fill="#8498d9"/>
        <path id="Trazado_150583" data-name="Trazado 150583" d="M453.365,223.535c-5.692,11.295-10.983,22.786-16.193,34.31-3.858,8.532-7.767,17.046-11.6,25.59h-2.1c2.941-6.531,5.92-13.046,8.859-19.578,5.164-11.473,10.344-22.941,15.855-34.252,10.87-22.312,23.111-44.112,38.787-63.441q2.934-3.619,6.026-7.106c.835-.942,2.211.443,1.38,1.38-16.715,18.878-29.7,40.65-41.013,63.1" transform="translate(196.916 4.161)" fill="#2b244a"/>
        <path id="Trazado_150584" data-name="Trazado 150584" d="M760.954,78.412H683.478a5.543,5.543,0,0,1-5.526-5.526V54.86a5.542,5.542,0,0,1,5.526-5.526h77.476a5.543,5.543,0,0,1,5.527,5.526V72.886a5.543,5.543,0,0,1-5.527,5.526" transform="translate(-316.814 9.576)" fill="#3c3fa7"/>
        <path id="Trazado_150585" data-name="Trazado 150585" d="M695.937,67.986v15.4a1.952,1.952,0,0,1-2.65,1.823l-15.336-5.871Z" transform="translate(-246.271 8.653)" fill="#3c3fa7"/>
        <path id="Trazado_150586" data-name="Trazado 150586" d="M742.861,62.734a1.8,1.8,0,0,0,0,3.6,1.8,1.8,0,0,0,0-3.6" transform="translate(-354.976 8.914)" fill="#2b244a"/>
        <path id="Trazado_150587" data-name="Trazado 150587" d="M724.431,62.734a1.8,1.8,0,0,0,0,3.6,1.8,1.8,0,0,0,0-3.6" transform="translate(-319.028 8.914)" fill="#2b244a"/>
        <path id="Trazado_150588" data-name="Trazado 150588" d="M706,62.734a1.8,1.8,0,0,0,0,3.6,1.8,1.8,0,0,0,0-3.6" transform="translate(-283.08 8.914)" fill="#2b244a"/>
        <path id="Trazado_150589" data-name="Trazado 150589" d="M1052.284,162.834H1045.7s-10.445,22.745-13.233,22.745c-2.065,0-.512-22.745-.512-22.745H875.713a2.784,2.784,0,0,1-2.766-3.109l12.988-110.9a2.786,2.786,0,0,1,2.766-2.462h176.572a2.786,2.786,0,0,1,2.767,3.109l-12.99,110.9a2.785,2.785,0,0,1-2.766,2.461" transform="translate(-803.718 9.723)" fill="#ffc37a"/>
        <path id="Trazado_150590" data-name="Trazado 150590" d="M920.959,165.054h114.482s-10.53-36.7-18.577-50.455a41.985,41.985,0,0,0-20.571-17.162c-16.231-5.857-35.15-7-52.269-5.771-7.993.574-16.285,1.744-23.627,5.05-9.066,4.083-14.793,11.164-18.289,20.808-5.442,15.013-6.226,27.665-7.151,47.53Z" transform="translate(-792.04 7.503)" fill="#ffeae0"/>
        <path id="Trazado_150591" data-name="Trazado 150591" d="M954.968,93.394a37.589,37.589,0,0,1,8.945,13.094c.214.549-.4.975-.88.879-1.9-.382-3.747-.932-5.6-1.488a17.127,17.127,0,0,0-2.753-.788c-.667-.078-.818.213-1.193.681q-.385.479-.765.959c-2.107,2.652-4.167,5.369-6.516,7.815-.639.665-1.649-.347-1.011-1.01,2.6-2.71,4.853-5.744,7.2-8.672.495-.619.987-1.258,1.854-1.275a10.023,10.023,0,0,1,2.808.685c2.107.623,4.2,1.279,6.357,1.714l-.879.88a35.926,35.926,0,0,0-8.577-12.463c-.657-.647.355-1.659,1.011-1.011" transform="translate(-768.115 7.406)" fill="#2b244a"/>
        <path id="Trazado_150592" data-name="Trazado 150592" d="M972.053,91.92a126.613,126.613,0,0,0-6.509,15.01l-.88-.879c2.521-.508,4.952-1.328,7.423-2.023a3.488,3.488,0,0,1,2.762-.06,10.243,10.243,0,0,1,1.851,1.249c3.74,3.1,7.847,5.706,11.472,8.962.686.616-.328,1.625-1.011,1.011-3.37-3.027-7.13-5.522-10.678-8.322a16.867,16.867,0,0,0-1.847-1.38,3.107,3.107,0,0,0-.693-.382,5.237,5.237,0,0,0-2.087.475c-2.262.657-4.5,1.382-6.812,1.848-.482.1-1.092-.33-.88-.88A129.594,129.594,0,0,1,970.819,91.2c.439-.809,1.674-.087,1.234.722" transform="translate(-810.742 7.522)" fill="#2b244a"/>
        <path id="Trazado_150593" data-name="Trazado 150593" d="M965.049,95.784q1.577,26.833,1.37,53.733-.051,7.558-.249,15.113a.715.715,0,0,1-1.429,0q.7-26.87-.38-53.75-.3-7.551-.741-15.1c-.054-.919,1.376-.916,1.431,0" transform="translate(-788.298 7.311)" fill="#2b244a"/>
        <path id="Trazado_150594" data-name="Trazado 150594" d="M934.3,39.082a11.66,11.66,0,0,1,6.682,2.977,10.3,10.3,0,0,1,3.189,5.828,6.723,6.723,0,0,1-.337,3.769c-1.059,2.478-3.9,3.989-6.568,5.328Z" transform="translate(-738.291 10.083)" fill="#2b244a"/>
        <path id="Trazado_150595" data-name="Trazado 150595" d="M937.477,46.257c2.327-12.624,12.187-14.9,23.652-11.225s14.048,8.857,14.972,19.12a215.8,215.8,0,0,1,.635,25.591c-.219,3.271-4.554,9.86-13.262,6.43A45.006,45.006,0,0,1,944.9,72.819c-2.8-3.418-9.751-13.938-7.423-26.562" transform="translate(-773.443 10.364)" fill="#e0785e"/>
        <path id="Trazado_150596" data-name="Trazado 150596" d="M977.539,82.562l.17,9.3s-5.414,22.2-9.44,22.2c-2.893,0-13.287-24.151-13.287-24.151l3.476-27.127Z" transform="translate(-791.362 8.911)" fill="#e0785e"/>
        <path id="Trazado_150597" data-name="Trazado 150597" d="M936.065,58.738c.844,1.832,2.267.271,4.463.647,2.016.347,3.311.02,3.184-1.076-.153-1.325-2.215-2.687-5.005-2.4-2.612.267-3.258,1.5-2.641,2.831" transform="translate(-739.187 9.252)" fill="#2b244a"/>
        <path id="Trazado_150598" data-name="Trazado 150598" d="M954.978,58.756c-.607,1.923-2.216.554-4.344,1.205-1.957.6-3.282.438-3.295-.665-.015-1.334,1.858-2.945,4.661-3.014,2.625-.066,3.42,1.071,2.978,2.474" transform="translate(-761.48 9.232)" fill="#2b244a"/>
        <path id="Trazado_150599" data-name="Trazado 150599" d="M942.667,63.507a12.967,12.967,0,0,0,.625,2.516c.289.808.712,1.555,1.021,2.354a3.257,3.257,0,0,1,.134,2.234,2.2,2.2,0,0,1-1.522,1.481c-.895.213-1.276-1.166-.38-1.379a.91.91,0,0,0,.616-.894,3.725,3.725,0,0,0-.549-1.764,14.483,14.483,0,0,1-1.324-4.167.739.739,0,0,1,.5-.88.721.721,0,0,1,.88.5" transform="translate(-745.216 8.901)" fill="#2b244a"/>
        <path id="Trazado_150600" data-name="Trazado 150600" d="M938.49,51.373c-.547-2.856-.738-5.952.589-8.632a7.575,7.575,0,0,1,2.269-2.8c.551-.4,1.208-.644,1.373-1.365a10.953,10.953,0,0,0-.018-2.041c.06-2.3.926-5.023,3.18-6.061a4.723,4.723,0,0,1,4.062.092,9.949,9.949,0,0,1,13.2.976c3.47-2.181,7.948.3,10.348,3.064a44.544,44.544,0,0,1,3.016,4.909c.042.028.381.6.42.635,1.835,1.791,2.045,2.641,1.1,5.264-.981,2.733-4.575,2.726-6.9,2.1-1.458-.392-2.662-1.255-4.066-1.737-1.064-.365-1.311.394-1.849,1.106a4.527,4.527,0,0,1-1.227,1.125c-2.256,1.407-4.832.739-7.04-.384a4.3,4.3,0,0,0-3.081,1.023,3.778,3.778,0,0,0-.969,3.758c.55,2.941,2.656,6.674,1.665,9.8a13.164,13.164,0,0,1-.628,4.224c-.944,2.324-4.425,4.515-7.018,4.513-.918,0-4.027-6.561-5.013-8.39a74.342,74.342,0,0,1-3.416-11.187" transform="translate(-776.156 10.608)" fill="#2b244a"/>
        <path id="Trazado_150601" data-name="Trazado 150601" d="M966.238,64.332l-.427,12.375s8.7-.729,10.54-5.771-10.113-6.6-10.113-6.6" transform="translate(-800.489 8.834)" fill="#2b244a"/>
        <path id="Trazado_150602" data-name="Trazado 150602" d="M971.631,62.914a6.653,6.653,0,1,1-8.99-2.774,6.652,6.652,0,0,1,8.99,2.774" transform="translate(-789.965 9.079)" fill="#e0785e"/>
        <path id="Trazado_150603" data-name="Trazado 150603" d="M941.524,58.519s4.448,15.5,8.625,19.527c5.221,5.032,13.757,4.081,16.648.859,0,0,1.87,4.532-.145,8.629s-8.187,5.118-14.168,2.94c-8.269-3.011-10.365-11.121-12.062-16.9S936.234,57.7,936.234,57.7Z" transform="translate(-763.419 9.162)" fill="#2b244a"/>
        <path id="Trazado_150604" data-name="Trazado 150604" d="M929.16,139.3q.6,13.975.819,27.963a.716.716,0,0,1-1.431,0q-.235-13.985-.819-27.963c-.039-.92,1.391-.918,1.431,0" transform="translate(-717.727 5.159)" fill="#2b244a"/>
        <path id="Trazado_150605" data-name="Trazado 150605" d="M993.266,139.018c-6.215.031-12.438-.068-18.649.245-.92.047-.917-1.383,0-1.43,6.211-.315,12.434-.215,18.649-.246a.716.716,0,0,1,0,1.431" transform="translate(-825.617 5.208)" fill="#2b244a"/>
        <path id="Trazado_150606" data-name="Trazado 150606" d="M990.932,138.3c-.045,2.767-.069,5.534-.114,8.3-.045,2.79-.184,5.747-2.223,7.878a10.524,10.524,0,0,1-6.651,2.826,10.7,10.7,0,0,1-7.795-1.872c-.72-.57.3-1.577,1.012-1.011,1.938,1.532,4.673,1.713,7.039,1.427,2.189-.265,4.582-1.123,5.9-3,1.5-2.138,1.276-5.006,1.31-7.491.032-2.352.057-4.7.1-7.058a.715.715,0,0,1,1.43,0" transform="translate(-822.569 5.208)" fill="#2b244a"/>
        <path id="Trazado_150607" data-name="Trazado 150607" d="M991.873,138.562a34.4,34.4,0,0,0,.167,8.3c.321,2.479.792,5.763,2.71,7.574.67.634-.343,1.643-1.011,1.011-2.07-1.955-2.669-5.288-3.047-7.975a35.42,35.42,0,0,1-.249-8.91c.1-.9,1.536-.914,1.431,0" transform="translate(-842.157 5.194)" fill="#2b244a"/>
        <path id="Trazado_150608" data-name="Trazado 150608" d="M953.336,64.23c-.016-.014-.132-.11-.049-.044s-.017-.011-.032-.022c-.065-.045-.13-.087-.2-.125s-.14-.071-.208-.107c-.087-.047.12.044.026.01-.04-.015-.081-.031-.122-.046a3.6,3.6,0,0,0-.455-.116c-.094-.02-.006-.012.034,0a.5.5,0,0,0-.13-.013c-.079-.006-.157-.01-.236-.01s-.141,0-.21.008l-.13.011c-.1.008.133-.025.034,0a3.978,3.978,0,0,0-.457.112c-.041.013-.082.029-.122.044-.088.031-.015-.008.026-.012a.725.725,0,0,0-.21.106c-.068.038-.135.08-.2.124l-.086.061q.1-.081.042-.031l-.06.051a.715.715,0,0,1-1.011-1.011,3.676,3.676,0,0,1,4.767,0,.719.719,0,0,1,0,1.011.734.734,0,0,1-1.011,0" transform="translate(-762.877 8.933)" fill="#2b244a"/>
        <path id="Trazado_150609" data-name="Trazado 150609" d="M940.907,63.762c-.017-.014-.132-.11-.05-.044s-.017-.011-.032-.022a2.344,2.344,0,0,0-.2-.125c-.068-.039-.14-.071-.208-.107-.087-.047.12.044.027.01-.041-.015-.081-.031-.123-.046a3.58,3.58,0,0,0-.455-.116c-.094-.02-.006-.012.034,0a.54.54,0,0,0-.13-.012c-.079-.006-.157-.01-.235-.01s-.141,0-.21.008l-.13.011c-.1.008.133-.025.034,0a3.949,3.949,0,0,0-.457.112c-.041.013-.082.029-.123.044-.089.031-.015-.008.027-.011a.7.7,0,0,0-.21.1c-.068.038-.135.08-.2.124l-.086.061q.1-.081.042-.031c-.02.017-.04.033-.06.051a.715.715,0,0,1-1.011-1.011,3.676,3.676,0,0,1,4.767,0,.719.719,0,0,1,0,1.011.733.733,0,0,1-1.011,0" transform="translate(-738.634 8.955)" fill="#2b244a"/>
        <path id="Trazado_150610" data-name="Trazado 150610" d="M940.791,74.622c1.257,5.023,7.563,4.937,9.168-.141Z" transform="translate(-750.122 8.332)" fill="#fff"/>
        <path id="Trazado_150611" data-name="Trazado 150611" d="M1002.986,118.792a8.679,8.679,0,0,0,3.8,7.194c.763.509.047,1.747-.721,1.236a10.165,10.165,0,0,1-4.51-8.43.716.716,0,0,1,1.431,0" transform="translate(-865.034 6.173)" fill="#8498d9"/>
        <path id="Trazado_150612" data-name="Trazado 150612" d="M998.188,107.341a8.685,8.685,0,0,0-1.78-7.941c-.6-.689.412-1.7,1.02-1a10.163,10.163,0,0,1,2.14,9.318.715.715,0,0,1-1.38-.375" transform="translate(-852.776 7.16)" fill="#8498d9"/>
        <path id="Trazado_150613" data-name="Trazado 150613" d="M938.408,141.583a8.683,8.683,0,0,0,4.063-7.05c.023-.916,1.452-.971,1.43-.048a10.162,10.162,0,0,1-4.731,8.307.715.715,0,0,1-.762-1.21" transform="translate(-741.488 5.395)" fill="#8498d9"/>
        <path id="Trazado_150614" data-name="Trazado 150614" d="M920.872,151.218a8.679,8.679,0,0,0-5.423,6.066c-.211.892-1.622.651-1.41-.247a10.163,10.163,0,0,1,6.336-7.16.716.716,0,0,1,.5,1.341" transform="translate(-696.038 4.602)" fill="#8498d9"/>
        <path id="Trazado_150615" data-name="Trazado 150615" d="M1023.9,145.346a8.684,8.684,0,0,0,7.609-2.885c.6-.694,1.739.168,1.137.868a10.161,10.161,0,0,1-8.923,3.436.715.715,0,0,1,.177-1.419" transform="translate(-911.23 4.98)" fill="#8498d9"/>
        <path id="Trazado_150616" data-name="Trazado 150616" d="M976.354,123.662a8.682,8.682,0,0,0,7.609-2.885c.6-.694,1.739.168,1.137.869a10.161,10.161,0,0,1-8.921,3.435.715.715,0,0,1,.176-1.419" transform="translate(-818.495 6.054)" fill="#8498d9"/>
        <path id="Trazado_150617" data-name="Trazado 150617" d="M1032,120.745a8.68,8.68,0,0,0-7.5,3.166c-.572.716-1.745-.1-1.167-.826a10.158,10.158,0,0,1,8.787-3.765.715.715,0,0,1-.124,1.425" transform="translate(-911.234 6.115)" fill="#8498d9"/>
        <path id="Trazado_150618" data-name="Trazado 150618" d="M997.546,160.012a8.68,8.68,0,0,1,7.5,3.165c.572.717,1.745-.1,1.168-.825a10.161,10.161,0,0,0-8.787-3.765.716.716,0,0,0,.124,1.425" transform="translate(-859.759 4.172)" fill="#8498d9"/>
        <path id="Trazado_150619" data-name="Trazado 150619" d="M956.657,117.442a8.681,8.681,0,0,0-2.107,7.86c.214.892-1.153,1.314-1.369.414a10.162,10.162,0,0,1,2.427-9.247.715.715,0,0,1,1.049.972" transform="translate(-768.531 6.266)" fill="#8498d9"/>
        <path id="Trazado_150620" data-name="Trazado 150620" d="M954.605,160.393a8.682,8.682,0,0,0-8.013,1.42c-.716.571-1.678-.489-.954-1.065a10.16,10.16,0,0,1,9.4-1.718.716.716,0,0,1-.437,1.362" transform="translate(-760.045 4.171)" fill="#8498d9"/>
        <path id="Trazado_150621" data-name="Trazado 150621" d="M923.52,116.242a8.684,8.684,0,0,0,7.143,3.9c.916,0,1,1.43.081,1.428a10.161,10.161,0,0,1-8.416-4.535.715.715,0,0,1,1.192-.79" transform="translate(-713.894 6.281)" fill="#8498d9"/>
        <path id="Trazado_150622" data-name="Trazado 150622" d="M977.8,52.51a4.572,4.572,0,0,1-8.1.5l.978.257a3.151,3.151,0,0,1-4.743-1.964c-.145-.9,1.233-1.288,1.379-.38a1.718,1.718,0,0,0,2.642,1.109.725.725,0,0,1,.978.256,3.237,3.237,0,0,0,3.022,1.5,3.3,3.3,0,0,0,2.606-2c.374-.839,1.606-.113,1.235.721" transform="translate(-801.932 9.524)" fill="#8c75b5"/>
        <path id="Trazado_150623" data-name="Trazado 150623" d="M962.6,45.179a10.589,10.589,0,0,0-1.463-3.8,7.733,7.733,0,0,0-1.307-1.63c-.61-.546-1.27-.352-2.012-.248-2.767.385-4.995-1.562-6.822-3.376a.715.715,0,0,1,1.011-1.011,12.741,12.741,0,0,0,3.248,2.563,4.18,4.18,0,0,0,1.883.456,9.8,9.8,0,0,1,2.4-.133c1.294.3,2.226,1.684,2.883,2.74a11.681,11.681,0,0,1,1.556,4.057c.164.9-1.214,1.286-1.379.38" transform="translate(-773.663 10.29)" fill="#8c75b5"/>
        <path id="Trazado_150624" data-name="Trazado 150624" d="M972.583,43.528a7.941,7.941,0,0,0-6.159-3.025.716.716,0,0,1,0-1.43,9.3,9.3,0,0,1,7.17,3.445.739.739,0,0,1,0,1.011.72.72,0,0,1-1.011,0" transform="translate(-797.666 10.084)" fill="#8c75b5"/>
        <path id="Trazado_150625" data-name="Trazado 150625" d="M1012.356,140.153q-.69,13.493-.809,27.008a.715.715,0,0,1-1.43,0q.119-13.511.808-27.008c.048-.916,1.479-.921,1.431,0" transform="translate(-878.416 5.116)" fill="#2b244a"/>
        <path id="Trazado_150626" data-name="Trazado 150626" d="M1051.342,54.5a4.291,4.291,0,1,0,4.291-4.291,4.291,4.291,0,0,0-4.291,4.291" transform="translate(-965.166 9.533)" fill="#fff"/>
        <path id="Trazado_150627" data-name="Trazado 150627" d="M1036.3,54.5a4.29,4.29,0,1,0,4.291-4.291A4.291,4.291,0,0,0,1036.3,54.5" transform="translate(-935.818 9.533)" fill="#fff"/>
        <path id="Trazado_150628" data-name="Trazado 150628" d="M855.052,88.231h53.809a5.543,5.543,0,0,1,5.526,5.526v10.251a5.543,5.543,0,0,1-5.526,5.527H855.052a5.543,5.543,0,0,1-5.526-5.527V93.757a5.543,5.543,0,0,1,5.526-5.526" transform="translate(-627.803 7.652)" fill="#ffd947"/>
        <path id="Trazado_150629" data-name="Trazado 150629" d="M903.9,96.318V85.036a1.43,1.43,0,0,1,1.942-1.335L917.08,88Z" transform="translate(-682.181 7.88)" fill="#ffd947"/>
        <path id="Trazado_150630" data-name="Trazado 150630" d="M870.1,98.049a1.321,1.321,0,0,1,0,2.641,1.321,1.321,0,0,1,0-2.641" transform="translate(-603.141 7.166)" fill="#2b244a"/>
        <path id="Trazado_150631" data-name="Trazado 150631" d="M883.606,98.049a1.321,1.321,0,0,1,0,2.641,1.321,1.321,0,0,1,0-2.641" transform="translate(-629.478 7.166)" fill="#2b244a"/>
        <path id="Trazado_150632" data-name="Trazado 150632" d="M897.109,98.049a1.321,1.321,0,0,1,0,2.641,1.321,1.321,0,0,1,0-2.641" transform="translate(-655.816 7.166)" fill="#2b244a"/>
      </g>
    </g>
  </g>
</svg>
