<svg xmlns="http://www.w3.org/2000/svg" xmlns:xlink="http://www.w3.org/1999/xlink" width="155" height="110" viewBox="0 0 155 110">
  <defs>
    <clipPath id="clip-path">
      <rect id="Rectangle_45253" data-name="Rectangle 45253" width="74.546" height="98.086" fill="none"/>
    </clipPath>
  </defs>
  <g id="_4" data-name="4" transform="translate(-758 -1466)">
    <g id="Group_174278" data-name="Group 174278" transform="translate(60 -3008.297)">
      <g id="Group_165391" data-name="Group 165391" transform="translate(698 4474.297)">
        <rect id="Rectangle_40797" data-name="Rectangle 40797" width="155" height="110" fill="#ffe891"/>
      </g>
    </g>
    <g id="Group_174922" data-name="Group 174922" transform="translate(798 1472)">
      <g id="Group_174921" data-name="Group 174921" clip-path="url(#clip-path)">
        <path id="Path_182467" data-name="Path 182467" d="M27.724,61.569c-.846-1.045-.889-1.475,0-2.5.526-.608.491-.9-.107-1.49a6.4,6.4,0,0,1-1.6-7.283,6.488,6.488,0,0,1,5.965-4.355c.667-.049,1.339-.034,2.009-.031.331,0,.526-.1.33-.438-2.2-3.833-1.86-8.05-1.858-12.216,0-.032,0-.064,0-.1a4.881,4.881,0,0,0-.047-1.706c-.22-.543-.992-.349-1.489-.589a4.354,4.354,0,0,1-2.709-3.945c-.038-.86-.018-1.723,0-2.584a3.991,3.991,0,0,1,1.81-3.4,1.947,1.947,0,0,0,.873-1.55A16.985,16.985,0,0,1,35.94,9.538c.912-.9,1.329-.931,2.426-.256a1.711,1.711,0,0,1-.44,2.364,14.085,14.085,0,0,0-4,7.138c-.283,1.232-.288,1.237.923,1.239q8.168.016,16.337.023c2.579,0,5.157-.028,7.736-.043.987.02,1.976.014,2.962.068.675.038.8-.192.667-.837a14.414,14.414,0,0,0-6.036-9.2,12.05,12.05,0,0,0-6.067-2.357,12.84,12.84,0,0,0-6.838.5,1.644,1.644,0,0,1-2.2-.713c-.16-1.169.114-1.646,1.219-2.018a16.848,16.848,0,0,1,7.927-.717c.659.1.906-.022,1.123-.7A5.854,5.854,0,0,1,56.881.009a5.734,5.734,0,0,1,5.726,3.243,5.635,5.635,0,0,1-.717,6.524c-.443.546-.485.823-.029,1.378a16.982,16.982,0,0,1,3.671,8.583,1.292,1.292,0,0,0,.63,1.053,4.079,4.079,0,0,1,1.96,3.327,24.609,24.609,0,0,1,.018,2.869,4.28,4.28,0,0,1-3.512,4.1c-.617.136-.765.361-.773.984a70.577,70.577,0,0,1-.164,8.416,13.883,13.883,0,0,1-1.462,4.62c-.33.633-.342.858.473.821a9.407,9.407,0,0,1,2.855.175,6.554,6.554,0,0,1,5,4.883A6.45,6.45,0,0,1,68.636,57.7c-.543.511-.478.749-.08,1.261A25.362,25.362,0,0,1,74,74.74c.034,4.852.01,9.7.006,14.557,0,1.091-.465,1.715-1.306,1.8-.793.082-1.319-.389-1.6-1.429.01-2.584.017-5.168.036-7.751,0-.393-.018-.667-.543-.653-1.18.032-2.361.024-3.541,0-.417-.007-.556.145-.552.554.026,2.614.035,5.23.05,7.845-.015,2.1-.06,4.2-.029,6.3a2.226,2.226,0,0,1-.94,2.12h-.958a1.883,1.883,0,0,1-1-1.969c.055-1.012,0-2.031.019-3.045.007-.387-.078-.573-.518-.572s-.417.259-.416.553c0,1.015-.047,2.034.016,3.045a1.958,1.958,0,0,1-.975,1.989h-.766a1.675,1.675,0,0,1-1.148-1.844c.036-1.019.021-2.04,0-3.06-.006-.26.2-.661-.371-.682-.527-.018-.547.262-.541.654.015.988-.036,1.979.016,2.965a1.858,1.858,0,0,1-1.021,1.967h-.958a2.218,2.218,0,0,1-.912-2.13c.047-.952.013-1.908.009-2.862,0-.271.08-.569-.387-.588-.489-.02-.482.254-.478.6.009.954-.037,1.91.015,2.861a2.2,2.2,0,0,1-.929,2.122H53.132a2.569,2.569,0,0,1-.827-2.243c.04-2.055-.013-4.112-.028-6.168.016-2.615.026-5.229.052-7.844,0-.406-.132-.577-.551-.562-.637.022-1.276.006-1.914.006q-6.22,0-12.44,0c-.383,0-.865-.158-.855.542.034,2.613.044,5.227.063,7.841-.193.794-.58,1.431-1.491,1.435s-1.312-.613-1.5-1.417c.02-2.609.034-5.216.067-7.824.006-.466-.178-.594-.623-.591q-3.629.024-7.257,0c-.43,0-.635.1-.629.58.03,2.609.035,5.218.049,7.828-.275,1.031-.8,1.5-1.6,1.424a1.488,1.488,0,0,1-1.312-1.7c.057-5.607-.172-11.215.126-16.819a22.589,22.589,0,0,1,1.472-6.683c.426-1.145.878-1.394,2.114-1.2a1.609,1.609,0,0,1,.649,2A28,28,0,0,0,25.2,77.7c.009.546.17.711.71.705,2.36-.024,4.721-.034,7.08,0,.65.01.716-.275.71-.8-.023-1.722-.01-3.445-.007-5.167,0-.829-.021-1.661.031-2.487a1.356,1.356,0,0,1,1.353-1.351,1.415,1.415,0,0,1,1.475,1.328,6.26,6.26,0,0,1,.031.859c0,2.264.019,4.529-.011,6.794-.007.6.127.827.782.823q7.08-.041,14.161,0c.707,0,.835-.249.826-.883-.034-2.232,0-4.466-.019-6.7a1.508,1.508,0,0,1,1.4-1.718c1.117.269,1.455.659,1.477,1.767.018.925.019,1.851,0,2.776-.01.444.135.625.6.622q3.59-.024,7.181,0c.493,0,.668-.164.666-.665q-.021-6.7,0-13.405c0-.518-.184-.644-.667-.639-2.361.019-4.723.023-7.085,0-.537-.005-.718.151-.7.7.035,1.244.026,2.489.006,3.734-.017,1.11-.36,1.5-1.477,1.767a1.5,1.5,0,0,1-1.4-1.715c.023-1.178-.039-2.359.021-3.534.038-.739-.164-.96-.934-.955-6.242.034-12.485.066-18.727-.021a2.658,2.658,0,0,0-2.741,1.309,1.621,1.621,0,0,1-2.215.722m40.134-8.9a2.2,2.2,0,0,0-.138-1.217c-.613-1.753-2.01-2.659-4.189-2.66q-15.318-.007-30.635,0a9.407,9.407,0,0,0-1.147.05,3.814,3.814,0,0,0-3.283,3.823c-.1,2.317,1.674,4.028,4.214,4.03q15.494.009,30.989,0c.223,0,.448,0,.669-.017a3.826,3.826,0,0,0,3.52-4.01M55.791,45.836a13.088,13.088,0,0,1,1.514.088,1.571,1.571,0,0,0,1.744-.975,12.61,12.61,0,0,0,1.781-4.788c.368-2.821.088-5.658.178-8.486.013-.4-.173-.477-.516-.467-.858.024-1.717.027-2.575.038Q46.953,31.23,35.989,31.2c-.571,0-.676.2-.669.714.027,2.171-.019,4.342.028,6.512a12.775,12.775,0,0,0,2.11,6.754,1.448,1.448,0,0,0,1.393.744c5.331-.03,10.662-.016,15.993-.02.316,0,.632-.045.948-.07M66.685,61.242c-.091.05-.138.063-.138.076q-.02,8.278-.042,16.556c0,.438.187.533.573.527,1.149-.016,2.3-.019,3.446,0,.432.008.621-.092.62-.578a35.274,35.274,0,0,0-.576-8.092,22.746,22.746,0,0,0-3.882-8.492m-7.23,15.9c-1.212,0-2.424.024-3.634-.012-.516-.015-.642.166-.633.653q.042,2.1,0,4.208c-.009.455.119.6.585.594q3.634-.033,7.269,0c.45,0,.611-.12.6-.589q-.042-2.1,0-4.209c.011-.5-.15-.666-.65-.653-1.179.029-2.359.009-3.539.009m0,8.308c-1.212,0-2.424.013-3.635-.006-.426-.007-.644.089-.63.575q.042,1.53,0,3.062c-.013.492.222.571.64.569,2.392-.012,4.784-.019,7.175,0,.529.005.647-.205.634-.679-.026-.924-.039-1.851,0-2.774.027-.579-.14-.788-.744-.764-1.146.046-2.3.013-3.444.013m.795-59.8v.86a1.641,1.641,0,0,0,1.272,1.783c1.578.407,3.162.032,3.578-.822a1.619,1.619,0,0,0,.167-.64c.021-.794.059-1.593,0-2.384a1.51,1.51,0,0,0-1.617-1.523c-2.327-.138-3.111.163-3.361,1.3a1.909,1.909,0,0,0-.04.379c-.005.35,0,.7,0,1.05M50.1,28.337a9.008,9.008,0,0,1-.285-2.567c-.092-.947.537-2.278-.158-2.737s-1.967-.133-2.983-.1A1.51,1.51,0,0,0,45.1,24.5c-.036.729-.033,1.464,0,2.193a1.568,1.568,0,0,0,1.623,1.635c1.077.034,2.156.008,3.377.008m-7.676,0a14.766,14.766,0,0,1-.048-4.914c.072-.4-.081-.5-.444-.5-.986.014-1.974-.02-2.958.026a1.4,1.4,0,0,0-1.423,1.393,17.7,17.7,0,0,0,0,2.572,1.419,1.419,0,0,0,1.424,1.406c1.135.067,2.278.017,3.447.017M55.6,28.34c.477,0,.955-.027,1.429.007s.592-.115.507-.591a12.492,12.492,0,0,1-.006-4.263c.066-.4,0-.587-.454-.576-.953.023-1.908-.019-2.859.023a1.453,1.453,0,0,0-1.5,1.518c-.035.7-.026,1.4-.01,2.1.027,1.224.591,1.762,1.843,1.784.35.006.7,0,1.049,0M60.411,6.033a3.1,3.1,0,0,0-5.98-1.219c-.235.553-.171.845.434,1.068a14.8,14.8,0,0,1,3.415,1.862c1.045.737,1.39.64,1.882-.558a2.59,2.59,0,0,0,.248-1.153M34.9,28.338a16.222,16.222,0,0,1-.264-3.516c-.044-.628.5-1.478-.061-1.808a3.965,3.965,0,0,0-2.056-.067,1.419,1.419,0,0,0-1.431,1.481c-.037.761-.032,1.526-.006,2.287A1.534,1.534,0,0,0,32.7,28.333c.695.028,1.392.005,2.2.005" transform="translate(-10.617 0)" fill="#020303"/>
        <path id="Path_182468" data-name="Path 182468" d="M56.331,123.184a1.508,1.508,0,0,0-1.4,1.718c.02,2.232-.015,4.466.019,6.7.01.634-.118.888-.826.883q-7.08-.046-14.161,0c-.656,0-.79-.225-.782-.823.03-2.264.013-4.529.01-6.794a6.26,6.26,0,0,0-.03-.859,1.414,1.414,0,0,0-1.476-1.328,1.355,1.355,0,0,0-1.353,1.35c-.052.826-.029,1.658-.031,2.487,0,1.723-.015,3.445.007,5.167.007.526-.06.811-.71.8-2.36-.038-4.72-.028-7.08,0-.54.006-.7-.159-.711-.705a27.99,27.99,0,0,1,1.5-11.005,1.607,1.607,0,0,0-.649-2,12.086,12.086,0,0,1,1.675-3.128,1.62,1.62,0,0,0,2.214-.722,2.658,2.658,0,0,1,2.741-1.31c6.241.086,12.485.054,18.727.021.77,0,.972.216.933.955-.061,1.175,0,2.357-.021,3.535a1.5,1.5,0,0,0,1.4,1.715q0,1.675,0,3.351" transform="translate(-13.228 -54.071)" fill="#38a8fd"/>
        <path id="Path_182469" data-name="Path 182469" d="M51.809,14.194a1.645,1.645,0,0,0,2.2.713,12.841,12.841,0,0,1,6.838-.5c.027.363.353.415.586.559a16.475,16.475,0,0,1,4.715,4.244,14.4,14.4,0,0,1,3.173,7.527c-2.579.016-5.158.043-7.736.043q-8.169,0-16.338-.023c-1.211,0-1.205-.007-.922-1.239a14.083,14.083,0,0,1,4-7.138,1.711,1.711,0,0,0,.44-2.363,21.363,21.363,0,0,1,3.037-1.822" transform="translate(-21.024 -6.734)" fill="#00de96"/>
        <path id="Path_182470" data-name="Path 182470" d="M49.582,163.462c-.019-2.613-.029-5.227-.063-7.841-.009-.7.473-.541.855-.542q6.22-.008,12.441,0c.638,0,1.277.017,1.913-.006.42-.015.555.157.551.563-.026,2.615-.037,5.229-.052,7.844l-15.646-.015" transform="translate(-23.568 -73.802)" fill="#9ee8fa"/>
        <path id="Path_182471" data-name="Path 182471" d="M117.485,14.007c1.759-.217,2.237.184,2.144,1.813-.018.326.088.384.354.387a8.48,8.48,0,0,1,1.144.045,1.285,1.285,0,0,1,1.193,1.37,1.3,1.3,0,0,1-1.153,1.409,3.8,3.8,0,0,1-.76.052c-.484,0-.918-.133-.7.718a1.325,1.325,0,0,1-1.655,1.526c-.614-.122-.622.109-.6.555a3.61,3.61,0,0,1-.059.949,1.32,1.32,0,0,1-1.521,1.134,1.3,1.3,0,0,1-1.274-1.3,4.619,4.619,0,0,1-.011-.859c.041-.462-.061-.581-.577-.49-1.147.2-1.828-.47-1.683-1.654.061-.495-.036-.572-.5-.587-1.559-.049-2.156-.459-2.174-1.406s.567-1.355,2.219-1.452c.408-.024.511-.088.462-.542-.136-1.269.461-1.854,1.724-1.693.455.058.562-.04.527-.459a5.174,5.174,0,0,1,.007-.859A1.415,1.415,0,0,1,117.4,12.5a11.637,11.637,0,0,1,.086,1.5" transform="translate(-52.187 -5.383)" fill="#040404"/>
        <path id="Path_182472" data-name="Path 182472" d="M2.693,46.87c-.192-1.881.329-2.4,2.228-2.141,0-.44-.021-.87,0-1.3a1.377,1.377,0,0,1,1.369-1.422A1.423,1.423,0,0,1,7.773,43.34a1.553,1.553,0,0,1,.016.382c-.065.658-.078,1.106.89.932a1.283,1.283,0,0,1,1.35,1.643c-.143.617.082.644.54.618a4.717,4.717,0,0,1,.765.02,1.328,1.328,0,0,1,1.328,1.358,1.363,1.363,0,0,1-1.314,1.474,2.359,2.359,0,0,1-.573.02c-.609-.066-.881-.017-.725.788.2,1.044-.717,1.585-2.265,1.424,0,.419.029.833-.006,1.241a1.413,1.413,0,0,1-1.468,1.441,1.39,1.39,0,0,1-1.393-1.5,5.832,5.832,0,0,1,0-.766c.029-.373-.064-.473-.479-.42-1.335.17-1.884-.364-1.762-1.732.038-.424-.071-.485-.428-.481a5.388,5.388,0,0,1-1.142-.069,1.4,1.4,0,0,1,.07-2.753,14.967,14.967,0,0,1,1.515-.094" transform="translate(0 -19.994)" fill="#040404"/>
        <path id="Path_182473" data-name="Path 182473" d="M128.01,71.539c2.093.086,2.7.413,2.719,1.435.023,1.064-.573,1.4-2.67,1.5.166,1.9-.461,2.529-2.155,2.112-.146,1.126.262,2.759-1.537,2.732-1.751-.026-1.3-1.61-1.42-2.709-1.813.367-2.567-.4-2.086-2.109-.832-.205-1.832.257-2.5-.606a1.4,1.4,0,0,1-.311-.979c.069-.981.635-1.271,2.793-1.387a1.66,1.66,0,0,1,.215-1.816,1.621,1.621,0,0,1,1.926-.237c0-.518-.024-.961,0-1.4a1.381,1.381,0,0,1,1.386-1.411,1.4,1.4,0,0,1,1.445,1.267,2.179,2.179,0,0,1,.027.667c-.08.625.014.838.774.708,1.106-.188,1.662.765,1.388,2.231" transform="translate(-56.185 -31.729)" fill="#030303"/>
        <path id="Path_182474" data-name="Path 182474" d="M27.872,163.476c-.014-2.609-.02-5.219-.05-7.827,0-.481.2-.583.629-.58q3.629.021,7.257,0c.444,0,.629.124.623.591-.034,2.608-.046,5.215-.067,7.824l-8.392-.006" transform="translate(-13.242 -73.804)" fill="#9ce5f8"/>
        <path id="Path_182475" data-name="Path 182475" d="M106.692,163.469c-.015-2.615-.024-5.23-.05-7.845,0-.409.135-.561.551-.554,1.18.02,2.362.029,3.541,0,.525-.014.546.26.543.654-.018,2.584-.025,5.167-.036,7.751l-4.55,0" transform="translate(-50.756 -73.804)" fill="#9ee8fa"/>
        <path id="Path_182476" data-name="Path 182476" d="M131.364,33.846a1.437,1.437,0,0,1,1.487,1.4,1.456,1.456,0,0,1-1.458,1.445,1.413,1.413,0,0,1-1.42-1.369,1.393,1.393,0,0,1,1.391-1.481" transform="translate(-61.86 -16.109)" fill="#080808"/>
        <path id="Path_182477" data-name="Path 182477" d="M16.293,106.852a1.472,1.472,0,0,1,1.376,1.532,1.41,1.41,0,0,1-1.555,1.322,1.393,1.393,0,0,1-1.324-1.453,1.457,1.457,0,0,1,1.5-1.4" transform="translate(-7.039 -50.855)" fill="#080808"/>
        <path id="Path_182478" data-name="Path 182478" d="M24.528,23.581a1.424,1.424,0,0,1,.064,2.847,1.425,1.425,0,1,1-.064-2.847" transform="translate(-10.986 -11.223)" fill="#080808"/>
        <path id="Path_182479" data-name="Path 182479" d="M120.432,106.854A1.486,1.486,0,0,1,121.9,108.3a1.43,1.43,0,0,1-1.384,1.412,1.379,1.379,0,0,1-1.495-1.371,1.431,1.431,0,0,1,1.407-1.486" transform="translate(-56.65 -50.857)" fill="#080808"/>
        <path id="Path_182480" data-name="Path 182480" d="M10.818,119.013A1.433,1.433,0,0,1,9.4,117.541a1.362,1.362,0,0,1,1.381-1.386,1.439,1.439,0,0,1,1.5,1.4,1.5,1.5,0,0,1-1.457,1.464" transform="translate(-4.472 -55.283)" fill="#080808"/>
        <path id="Path_182481" data-name="Path 182481" d="M67.608,74.173c-.316.024-.632.069-.948.069-5.331,0-10.662-.01-15.993.02a1.448,1.448,0,0,1-1.393-.744,12.777,12.777,0,0,1-2.11-6.754c-.047-2.17,0-4.342-.028-6.512-.007-.513.1-.716.669-.714q10.963.044,21.928.043c0,2.1.018,4.209,0,6.314a16.056,16.056,0,0,1-.082,2.477,18.817,18.817,0,0,1-2.045,5.8M57.073,67.1c0,1.434-.01,2.868,0,4.3.011,1.127.494,1.624,1.624,1.671.668.028,1.338.007,2.007.006,1.505,0,2.158-.416,2.193-1.39.037-1.028-.6-1.5-2.173-1.475-.629.008-.8-.172-.792-.8.037-2.2.027-4.4.008-6.6A1.457,1.457,0,0,0,58.462,61.2c-.844.021-1.374.614-1.384,1.6-.015,1.434,0,2.868,0,4.3m11.078-4.441A1.448,1.448,0,0,0,66.8,61.2a1.42,1.42,0,0,0-.179,2.834,1.442,1.442,0,0,0,1.533-1.372M53.264,64.034a1.421,1.421,0,1,0,.052-2.84,1.42,1.42,0,0,0-.052,2.84" transform="translate(-22.434 -28.337)" fill="#f8d9b5"/>
        <path id="Path_182482" data-name="Path 182482" d="M34.053,96.98a3.814,3.814,0,0,1,3.283-3.823,9.4,9.4,0,0,1,1.147-.05q15.318,0,30.635,0c2.178,0,3.577.907,4.189,2.661a2.2,2.2,0,0,1,.138,1.217c-1.905,1.462-4.122,1.374-6.36,1.365Q53.9,98.295,40.71,98.343c-2.292.006-4.6.191-6.564-1.348-.021-.017-.062-.01-.093-.015" transform="translate(-16.204 -44.312)" fill="#00de96"/>
        <path id="Path_182483" data-name="Path 182483" d="M82.248,123.211q0-1.675,0-3.351c1.117-.268,1.46-.657,1.477-1.766.019-1.245.029-2.49-.006-3.734-.015-.546.167-.7.7-.7,2.361.025,4.723.021,7.085,0,.483,0,.669.122.667.64q-.026,6.7,0,13.405c0,.5-.173.668-.666.664q-3.59-.024-7.181,0c-.466,0-.612-.177-.6-.621.021-.925.02-1.851,0-2.776-.021-1.108-.36-1.5-1.477-1.767" transform="translate(-39.145 -54.097)" fill="#00dc95"/>
        <path id="Path_182484" data-name="Path 182484" d="M34.054,100.5c.031,0,.072,0,.093.015,1.965,1.539,4.272,1.354,6.564,1.348q13.187-.034,26.375.006c2.239.009,4.455.1,6.36-1.365a3.827,3.827,0,0,1-3.52,4.01c-.222.021-.446.017-.669.017q-15.494,0-30.989,0c-2.541,0-4.314-1.714-4.214-4.03" transform="translate(-16.206 -47.833)" fill="#00b479"/>
        <path id="Path_182485" data-name="Path 182485" d="M106.825,116.861a22.755,22.755,0,0,1,3.882,8.493,35.292,35.292,0,0,1,.576,8.091c0,.486-.189.586-.62.578-1.148-.021-2.3-.017-3.446,0-.387.005-.575-.09-.573-.528q.031-8.277.042-16.556c0-.013.047-.027.138-.077" transform="translate(-50.757 -55.62)" fill="#38a8fd"/>
        <path id="Path_182486" data-name="Path 182486" d="M89.316,147.187c1.18,0,2.36.02,3.539-.009.5-.012.661.151.65.654q-.044,2.1,0,4.209c.009.47-.152.592-.6.589q-3.634-.027-7.269,0c-.465,0-.594-.139-.585-.594q.04-2.1,0-4.208c-.01-.487.117-.668.633-.653,1.211.036,2.423.012,3.634.012" transform="translate(-40.479 -70.047)" fill="#eef3f5"/>
        <path id="Path_182487" data-name="Path 182487" d="M86.2,74.178a18.831,18.831,0,0,0,2.044-5.8,16.132,16.132,0,0,0,.082-2.477c.017-2.1,0-4.209,0-6.313.858-.012,1.717-.014,2.575-.038.344-.01.529.068.517.467-.091,2.828.191,5.665-.179,8.486a12.6,12.6,0,0,1-1.781,4.789,1.57,1.57,0,0,1-1.744.974,13.1,13.1,0,0,0-1.514-.088" transform="translate(-41.027 -28.342)" fill="#ebb68a"/>
        <path id="Path_182488" data-name="Path 182488" d="M84.472,26.969A14.391,14.391,0,0,0,81.3,19.442,16.489,16.489,0,0,0,76.585,15.2c-.234-.144-.56-.2-.587-.559A12.055,12.055,0,0,1,82.065,17,14.412,14.412,0,0,1,88.1,26.2c.133.645.008.875-.667.837-.986-.055-1.975-.049-2.962-.069" transform="translate(-36.171 -6.967)" fill="#00ad74"/>
        <path id="Path_182489" data-name="Path 182489" d="M89.326,163.039c1.148,0,2.3.033,3.444-.014.6-.024.771.185.744.764-.043.923-.03,1.85,0,2.774.014.473-.1.684-.634.679-2.391-.024-4.783-.017-7.175,0-.418,0-.653-.077-.64-.569q.04-1.53,0-3.061c-.013-.486.2-.582.63-.575,1.212.019,2.424.007,3.635.007" transform="translate(-40.484 -77.59)" fill="#00dc95"/>
        <path id="Path_182490" data-name="Path 182490" d="M94.718,46.443c0-.35,0-.7,0-1.051a1.909,1.909,0,0,1,.04-.378c.251-1.135,1.034-1.436,3.361-1.3a1.51,1.51,0,0,1,1.617,1.523c.055.791.018,1.59,0,2.384a1.615,1.615,0,0,1-.167.64c-.416.855-2,1.229-3.578.822A1.64,1.64,0,0,1,94.717,47.3q0-.43,0-.859" transform="translate(-45.08 -20.791)" fill="#00f6a6"/>
        <path id="Path_182491" data-name="Path 182491" d="M70.782,49.031c-1.221,0-2.3.026-3.377-.008a1.567,1.567,0,0,1-1.623-1.635c-.031-.73-.034-1.464,0-2.193a1.51,1.51,0,0,1,1.573-1.564c1.016-.037,2.275-.372,2.983.1s.066,1.789.158,2.737a8.987,8.987,0,0,0,.285,2.566" transform="translate(-31.297 -20.695)" fill="#00f6a6"/>
        <path id="Path_182492" data-name="Path 182492" d="M56.231,49.147c-1.17,0-2.312.05-3.447-.017a1.418,1.418,0,0,1-1.424-1.406,17.623,17.623,0,0,1,0-2.572,1.4,1.4,0,0,1,1.423-1.392c.984-.047,1.972-.012,2.958-.026.363-.005.516.1.444.5a14.738,14.738,0,0,0,.048,4.914" transform="translate(-24.422 -20.815)" fill="#00f6a6"/>
        <path id="Path_182493" data-name="Path 182493" d="M83.2,49.151c-.35,0-.7.005-1.049,0-1.252-.022-1.816-.561-1.843-1.784-.015-.7-.025-1.4.01-2.1a1.454,1.454,0,0,1,1.5-1.518c.951-.042,1.906,0,2.859-.023.45-.01.52.177.454.576a12.5,12.5,0,0,0,.006,4.263c.085.475-.031.625-.507.59s-.953-.007-1.429-.007" transform="translate(-38.215 -20.812)" fill="#00f6a6"/>
        <path id="Path_182494" data-name="Path 182494" d="M89.47,8.625a2.586,2.586,0,0,1-.248,1.153c-.493,1.2-.837,1.3-1.882.558a14.815,14.815,0,0,0-3.415-1.862c-.606-.222-.67-.515-.434-1.067a3.1,3.1,0,0,1,5.98,1.219" transform="translate(-39.676 -2.592)" fill="#00f6a6"/>
        <path id="Path_182495" data-name="Path 182495" d="M42.848,49.084c-.807,0-1.5.023-2.2-.005a1.534,1.534,0,0,1-1.619-1.616C39,46.7,39,45.936,39.036,45.175a1.419,1.419,0,0,1,1.431-1.482,3.965,3.965,0,0,1,2.056.067c.56.33.017,1.18.061,1.808a16.222,16.222,0,0,0,.264,3.516" transform="translate(-18.566 -20.747)" fill="#00f6a6"/>
        <path id="Path_182496" data-name="Path 182496" d="M66.094,68.606c0-1.434-.012-2.868,0-4.3.01-.989.54-1.582,1.383-1.6a1.457,1.457,0,0,1,1.482,1.626c.019,2.2.029,4.4-.008,6.6-.01.625.164.8.792.8,1.577-.019,2.21.447,2.173,1.475-.035.974-.688,1.388-2.193,1.39-.669,0-1.339.021-2.008-.006-1.129-.047-1.613-.544-1.624-1.67-.014-1.434,0-2.868,0-4.3" transform="translate(-31.455 -29.842)" fill="#040404"/>
        <path id="Path_182497" data-name="Path 182497" d="M84.64,64.164a1.442,1.442,0,0,1-1.534,1.372,1.42,1.42,0,0,1,.179-2.834,1.449,1.449,0,0,1,1.355,1.461" transform="translate(-38.923 -29.842)" fill="#040404"/>
        <path id="Path_182498" data-name="Path 182498" d="M57.566,65.537a1.42,1.42,0,0,1,.052-2.84,1.421,1.421,0,1,1-.052,2.84" transform="translate(-26.736 -29.84)" fill="#040404"/>
      </g>
    </g>
  </g>
</svg>
