<svg xmlns="http://www.w3.org/2000/svg" xmlns:xlink="http://www.w3.org/1999/xlink" width="120" height="117" viewBox="0 0 120 117">
  <defs>
    <clipPath id="clip-path">
      <rect id="Rect치ngulo_44992" data-name="Rect치ngulo 44992" width="102.846" height="84.786" fill="none"/>
    </clipPath>
  </defs>
  <g id="_40" data-name="40" transform="translate(-352 -4319)">
    <g id="Grupo_158812" data-name="Grupo 158812" transform="translate(352 4319)">
      <g id="Grupo_158146" data-name="Grupo 158146">
        <rect id="Rect치ngulo_36141" data-name="Rect치ngulo 36141" width="120" height="117" fill="#ffe891"/>
      </g>
      <g id="Grupo_174307" data-name="Grupo 174307" transform="translate(8.577 18.214)">
        <g id="Grupo_174307-2" data-name="Grupo 174307" clip-path="url(#clip-path)">
          <path id="Trazado_179519" data-name="Trazado 179519" d="M135.914,79.71a4.33,4.33,0,0,1,1.738,4.455c-.084.4.142.655.321.949,2.52,4.159,2.73,8.437.307,12.654s-6.238,6.192-11.095,6.113a5.667,5.667,0,0,1-2.153-.316c-1.569-.695-3.008-.368-4.588.026A16.484,16.484,0,0,1,100.2,89.429a1.645,1.645,0,0,1-.033-.311c.1-1.14-.349-1.59-1.56-1.789a4.182,4.182,0,0,1,.78-8.228c.217-.017.668.236.612-.255-.06-.533-.5-.2-.74-.163-.514.068-1.012.243-1.524.332a1.224,1.224,0,0,1-1.59-.963,1.143,1.143,0,0,1,1.091-1.473c1.039-.084,1.141-.6,1.147-1.492a79.679,79.679,0,0,1,.16-8.759,19.365,19.365,0,0,1,38.139-1.419A23.548,23.548,0,0,1,137.1,70.1c0,2.61-.009,5.22.013,7.83.007.85-.2,1.522-1.2,1.783" transform="translate(-37.14 -19.288)"/>
          <path id="Trazado_179520" data-name="Trazado 179520" d="M37.875,78.47a10.465,10.465,0,0,1,2.182.4,4.232,4.232,0,0,1,2.5,4.2,4.079,4.079,0,0,1-3.339,3.774c-1.006.142-1.2.53-1.3,1.464-.858,7.812-5.887,13.387-13.391,14.948A16.581,16.581,0,0,1,5,89c-.011-.1-.032-.207-.034-.311C4.955,87.636,4.8,86.936,3.4,86.781,1.657,86.589.376,84.774.256,82.959a4.069,4.069,0,0,1,2.634-4.1c.829-.282.685-.614.436-1.18A38.286,38.286,0,0,1,.117,67.05a10.073,10.073,0,0,1,.5-5.132,4.688,4.688,0,0,1,2.3-2.6,4.99,4.99,0,0,0,1.7-1.456A12.9,12.9,0,0,1,16.1,52.956a2.02,2.02,0,0,0,1.1-.173,7.335,7.335,0,0,1,6.444-.147,1.338,1.338,0,0,0,1.083.023,7.555,7.555,0,0,1,8.632,2.14,7.858,7.858,0,0,0,3.121,2.271,5.473,5.473,0,0,1,3.59,5.166c.037.592.186.8.755.963a4.209,4.209,0,0,1,2.912,5.719C42.527,72.5,41,75.883,37.875,78.47" transform="translate(0 -20.218)"/>
          <path id="Trazado_179521" data-name="Trazado 179521" d="M70.656,0Q78.329,0,86,.006a5.5,5.5,0,0,1,5.791,5.747q.018,8.3,0,16.6a5.449,5.449,0,0,1-5.667,5.645c-5.01.012-10.021.024-15.031-.016-.892-.007-1.2.164-1.258,1.15a10.713,10.713,0,0,1-6.906,9.7c-.6.265-1.249.527-1.871.033-.637-.506-.449-1.189-.329-1.835a15.107,15.107,0,0,0,.151-5.6c-.447-2.384-1.675-3.419-4.075-3.444a12.2,12.2,0,0,1-3.114-.181A5.416,5.416,0,0,1,49.6,22.633c-.026-5.74-.037-11.481,0-17.222A5.438,5.438,0,0,1,55.1.01C60.287-.01,65.471,0,70.656,0" transform="translate(-19.291 0)"/>
          <path id="Trazado_179522" data-name="Trazado 179522" d="M99.288,51.409c-1.566,0-3.133.008-4.7,0-1.039-.007-1.572-.445-1.572-1.251s.533-1.247,1.572-1.25c3.133-.008,6.266,0,9.4-.009.856,0,1.431.329,1.532,1.207.087.763-.555,1.293-1.531,1.3-1.566.013-3.133,0-4.7,0" transform="translate(-36.191 -19.025)"/>
          <path id="Trazado_179523" data-name="Trazado 179523" d="M86.761,51.413c-1.114,0-1.687-.411-1.7-1.231-.014-.836.551-1.273,1.654-1.277,1.087,0,1.706.438,1.723,1.23s-.6,1.274-1.676,1.278" transform="translate(-33.096 -19.028)" fill="#294369"/>
          <path id="Trazado_179524" data-name="Trazado 179524" d="M107.047,95.919c0-1.948.023-3.584-.013-5.218a.806.806,0,0,1,.67-.952,40.511,40.511,0,0,0,16.182-8.729c.668-.612.789-.021,1.035.344,2.228,3.293,4.8,6.3,8.4,8.088a3.072,3.072,0,0,1,1.962,3.49c-.2,2.945.2,5.914-.221,8.856a14.1,14.1,0,0,1-27.592,1.285c-.615-2.475-.338-4.981-.42-7.164" transform="translate(-41.645 -31.421)" fill="#fed7b6"/>
          <path id="Trazado_179525" data-name="Trazado 179525" d="M137.968,78.481a16.874,16.874,0,0,1-7.859-4.123,25.51,25.51,0,0,1-4.618-5.614.851.851,0,0,1,.1-1.174,25.347,25.347,0,0,0,3.686-6.14,1.419,1.419,0,0,0-.585-2.02c-.66-.31-1.344.084-1.737,1.048a22.824,22.824,0,0,1-6.022,8.4A36.252,36.252,0,0,1,109.5,75.593q-2.188.84-4.437,1.5c-.642.187-.772,0-.761-.608.031-1.636.026-3.273,0-4.909-.007-.506.156-.7.668-.833,1.343-.34,2.668-.758,3.988-1.181.985-.316,1.4-.946,1.111-1.66-.358-.9-1.025-1.008-1.877-.715-.984.338-2,.591-2.979.927-.606.207-.781-.007-.665-.564a16.935,16.935,0,0,1,7.942-11.477,16.762,16.762,0,0,1,9.55-2.414c.815.03.972.223.614.97a23.311,23.311,0,0,1-9.826,10.461,6.1,6.1,0,0,0-.9.521c-.543.446-.929.977-.473,1.707a1.21,1.21,0,0,0,1.734.4,24.228,24.228,0,0,0,4.548-2.923,24.5,24.5,0,0,0,7.521-9.948c.2-.492.455-.562.965-.389a16.339,16.339,0,0,1,11.5,13.17c.566,2.955.133,5.969.234,8.955.021.618,0,1.236,0,1.9" transform="translate(-40.583 -20.873)" fill="#6d7485"/>
          <path id="Trazado_179526" data-name="Trazado 179526" d="M147.428,125.179c-.427-.1-1.183.276-1.372-.23-.178-.477.6-.725.965-1.029a16.309,16.309,0,0,0,5.547-9.493,11.349,11.349,0,0,0,.326-2.141c.006-.669.269-.933.878-1.007a1.729,1.729,0,0,0,.8-.206c1.058-.786,1.447-.164,1.822.753a9.721,9.721,0,0,1-8.963,13.355" transform="translate(-56.818 -43.077)" fill="#4a5160"/>
          <path id="Trazado_179527" data-name="Trazado 179527" d="M101.642,103.754a5.767,5.767,0,0,1-.006.727c-.04.32.2.77-.2.929a1.217,1.217,0,0,1-1.152-.319,1.7,1.7,0,0,1-.473-2.226,1.255,1.255,0,0,1,1.443-.756c.673.158.3.737.382,1.127a2.489,2.489,0,0,1,.006.519" transform="translate(-38.746 -39.715)" fill="#ecc396"/>
          <path id="Trazado_179528" data-name="Trazado 179528" d="M157.315,103.777a5.93,5.93,0,0,1,.005-.722c.043-.339-.2-.8.338-.954a1.127,1.127,0,0,1,1.128.336,1.755,1.755,0,0,1-.369,2.806c-.811.431-1.089.27-1.1-.64,0-.275,0-.55,0-.826" transform="translate(-61.204 -39.71)" fill="#ebc296"/>
          <path id="Trazado_179529" data-name="Trazado 179529" d="M19.988,76.125a3.742,3.742,0,0,0,.855-.588c1.2-1.462,2.548-1.423,4.266-.886a11.287,11.287,0,0,0,8.49-1.021c1-.488,1.956-1.06,2.957-1.539,3.267-1.566,6.064.267,6.292,3.881.4,6.258.331,12.516.312,18.776A14.107,14.107,0,0,1,31.5,108.433a8.178,8.178,0,0,1-.832.055c-2.25.54-3.877-.682-5.408-2.007A15.32,15.32,0,0,1,19.7,94.311a36.949,36.949,0,0,1,.1-4.982,16.569,16.569,0,0,0,.663-1.524,1.606,1.606,0,0,1,1.588-1.266,1.624,1.624,0,0,1,1.564,1.3,3,3,0,0,0,.218.585.88.88,0,0,0,1,.563.9.9,0,0,0,.706-.909,3.467,3.467,0,0,0-4.177-3.47c-.488.1-.987.437-1.477-.013a1.972,1.972,0,0,1-.234-1.1q-.021-3.1,0-6.2a1.836,1.836,0,0,1,.334-1.169" transform="translate(-7.644 -27.83)" fill="#fed7b6"/>
          <path id="Trazado_179530" data-name="Trazado 179530" d="M20.5,57.078a4.408,4.408,0,0,0,2.59-.541,4.489,4.489,0,0,1,4.491.149,2.228,2.228,0,0,0,2.34.025,5.058,5.058,0,0,1,5.79.946c.451.431.847.92,1.265,1.385A4.9,4.9,0,0,0,39.687,60.8a3.3,3.3,0,0,1,2.325,4.239c-.361,1.328.1,1.978,1.48,2.062a11.132,11.132,0,0,1,1.145.053c.891.148,1.7,1.072,1.464,1.855a19.742,19.742,0,0,1-3.216,6.917,5.927,5.927,0,0,1-.435-2.3c-.141-1.346-.183-2.7-.213-4.058a6.538,6.538,0,0,0-9.156-6.066,17.165,17.165,0,0,0-2.5,1.284c-4.047,2.427-8.056,2.156-12.049-.126-.362-.207-.728-.409-1.092-.612a1.178,1.178,0,0,0-1.713.436,1.157,1.157,0,0,0,.422,1.709c1.026.765,1.056.813-.106,1.435-1.215.651-2.475,1.269-3.931.756A5.75,5.75,0,0,1,14.49,61.61a4.37,4.37,0,0,0,1.485-1.241,14.567,14.567,0,0,1,3.086-2.916,1.48,1.48,0,0,1,1.435-.376" transform="translate(-4.579 -21.791)" fill="#c1684f"/>
          <path id="Trazado_179531" data-name="Trazado 179531" d="M16.987,92.2c0,1.771-.04,3.543,0,5.312.155,6.236,3.1,10.758,8.527,13.722.677.37,1.44.048,2.152.185a12.292,12.292,0,0,1-8.048-1.45,13.575,13.575,0,0,1-7.63-12.4c-.1-5.568-.009-11.139-.038-16.709,0-.723.141-.933.911-.878a8.562,8.562,0,0,0,4.126-.923c0,2.522-.009,5.045,0,7.567,0,.331-.114.7.211.968.062.434-.323.573-.553.794a4.051,4.051,0,0,0-1.13,1.813c-.317,1.087-.013,1.594,1.108,1.835a.59.59,0,0,1,.362.166" transform="translate(-4.648 -30.759)" fill="#e4bca0"/>
          <path id="Trazado_179532" data-name="Trazado 179532" d="M17.5,57.664A4.92,4.92,0,0,0,15,59.245,10.811,10.811,0,0,0,12.763,61.7a1.046,1.046,0,0,1-.528.48c-2.394.88-3.063,2.811-3.115,5.114-.013.557,0,1.113,0,1.67a5.212,5.212,0,0,1-2.677-.744,1.656,1.656,0,0,0-2.183.182c-.564-2.516.151-4.018,2.406-5.121a3.781,3.781,0,0,0,1.244-1.374,10.821,10.821,0,0,1,9-4.394,2.242,2.242,0,0,1,.589.153" transform="translate(-1.585 -22.377)" fill="#9f5847"/>
          <path id="Trazado_179533" data-name="Trazado 179533" d="M4.354,77.773c.7.353,1.233.65,1.79.9.429.19.364.542.365.88,0,1.6,0,3.192-.086,4.81a35.2,35.2,0,0,1-2.07-6.586" transform="translate(-1.694 -30.261)" fill="#9e5747"/>
          <path id="Trazado_179534" data-name="Trazado 179534" d="M6.57,101.454a2.471,2.471,0,0,1,0,.415c-.068.384.233.957-.214,1.117a1.329,1.329,0,0,1-1.437-.608,1.629,1.629,0,0,1-.17-1.935,1.273,1.273,0,0,1,1.343-.774c.753.107.412.737.477,1.163a4.138,4.138,0,0,1,.005.622" transform="translate(-1.753 -38.775)" fill="#ebc296"/>
          <path id="Trazado_179535" data-name="Trazado 179535" d="M62.23,101.392a5.935,5.935,0,0,1,.005-.73c.043-.344-.207-.811.334-.971a1.112,1.112,0,0,1,1.208.417,1.632,1.632,0,0,1,.192,2.107A1.384,1.384,0,0,1,62.5,103c-.552-.144-.177-.78-.266-1.186a1.974,1.974,0,0,1,0-.417" transform="translate(-24.198 -38.77)" fill="#ebc296"/>
          <path id="Trazado_179536" data-name="Trazado 179536" d="M65.134,37.08a17.021,17.021,0,0,0-.337-5.136,5.959,5.959,0,0,0-6.173-4.855c-.661-.005-1.324.021-1.984-.007a2.919,2.919,0,0,1-2.924-2.935q-.044-8.51,0-17.021a2.933,2.933,0,0,1,3.066-3.011q15.508-.016,31.016,0a2.93,2.93,0,0,1,3.073,3q.052,8.51,0,17.02a2.927,2.927,0,0,1-3.226,2.945q-8.041.014-16.082,0c-1.91,0-2.587.654-2.576,2.565a8.666,8.666,0,0,1-2.945,6.964,6.35,6.35,0,0,1-.58.438c-.046.031-.128.012-.332.024" transform="translate(-20.891 -1.598)" fill="#f2cd7d"/>
          <path id="Trazado_179537" data-name="Trazado 179537" d="M126.5,119.588a7.652,7.652,0,0,1-5-1.974c-.623-.565-.893-1.2-.31-1.9s1.234-.566,1.912-.029c2.365,1.875,4.468,1.87,6.87-.013.685-.537,1.335-.64,1.91.057a1.22,1.22,0,0,1-.263,1.83,7.615,7.615,0,0,1-5.118,2.029" transform="translate(-47.028 -44.837)"/>
          <path id="Trazado_179538" data-name="Trazado 179538" d="M116.155,94.728a3.876,3.876,0,0,1,3.83,3.64c.025.811-.276,1.39-1.112,1.477a1.178,1.178,0,0,1-1.355-1.14c-.12-.874-.513-1.469-1.44-1.452a1.332,1.332,0,0,0-1.348,1.325c-.1.875-.56,1.342-1.442,1.255-.769-.076-1.18-.82-1.038-1.746a3.935,3.935,0,0,1,3.906-3.359" transform="translate(-43.664 -36.857)"/>
          <path id="Trazado_179539" data-name="Trazado 179539" d="M139.222,94.759a3.956,3.956,0,0,1,3.871,3.527c.073.793-.215,1.412-1.04,1.547a1.152,1.152,0,0,1-1.436-1.126c-.109-.82-.511-1.405-1.373-1.43s-1.3.515-1.422,1.354c-.112.794-.553,1.318-1.39,1.221-.9-.106-1.142-.762-1.081-1.6a3.893,3.893,0,0,1,3.871-3.5" transform="translate(-52.66 -36.87)"/>
          <path id="Trazado_179540" data-name="Trazado 179540" d="M31.468,117.182a7.637,7.637,0,0,1-5.027-1.991c-.628-.579-.833-1.232-.243-1.91.561-.645,1.2-.514,1.841-.018,2.446,1.882,4.476,1.888,6.875.015.683-.533,1.339-.647,1.915.053a1.22,1.22,0,0,1-.261,1.83,7.625,7.625,0,0,1-5.1,2.022" transform="translate(-10.057 -43.905)"/>
          <path id="Trazado_179541" data-name="Trazado 179541" d="M44.174,92.332a3.933,3.933,0,0,1,3.865,3.515,1.313,1.313,0,0,1-1.116,1.593,1.212,1.212,0,0,1-1.379-1.222,1.342,1.342,0,0,0-1.412-1.364,1.3,1.3,0,0,0-1.35,1.3c-.112.827-.535,1.392-1.443,1.268s-1.1-.808-1.043-1.624a3.861,3.861,0,0,1,3.878-3.468" transform="translate(-15.675 -35.925)"/>
          <path id="Trazado_179542" data-name="Trazado 179542" d="M19.022,97.415c-1.47.214-2.083-.47-1.767-1.915a4.355,4.355,0,0,1,1.979-2.692c2.39-.8,4.3-.18,5.289,1.707a3.461,3.461,0,0,1,.4,1.809,1.22,1.22,0,0,1-2.38.325,6.013,6.013,0,0,1-.14-.61,1.363,1.363,0,0,0-2.692.035,1.959,1.959,0,0,1-.69,1.342" transform="translate(-6.682 -35.977)"/>
          <path id="Trazado_179543" data-name="Trazado 179543" d="M93.429,10.947c1.7,0,3.405.01,5.108,0,.87-.007,1.529.241,1.585,1.232.046.817-.5,1.273-1.535,1.275q-5.264.014-10.528,0c-1.031,0-1.582-.46-1.534-1.276.058-.99.719-1.237,1.587-1.23,1.772.013,3.545,0,5.317,0" transform="translate(-33.665 -4.258)"/>
          <path id="Trazado_179544" data-name="Trazado 179544" d="M93.39,23.37c-1.772,0-3.545.008-5.317,0-1.035-.007-1.563-.448-1.558-1.26s.535-1.239,1.576-1.241c3.475-.008,6.95,0,10.425-.007.865,0,1.535.223,1.6,1.214.058.842-.515,1.289-1.621,1.295-1.7.008-3.405,0-5.108,0" transform="translate(-33.662 -8.116)"/>
          <path id="Trazado_179545" data-name="Trazado 179545" d="M93.314,30.78c1.737,0,3.475.01,5.212,0,.867-.007,1.532.234,1.592,1.225.051.842-.517,1.282-1.631,1.284q-5.16.008-10.321,0c-1.125,0-1.664-.428-1.652-1.271s.547-1.229,1.692-1.232c1.7-.005,3.405,0,5.108,0" transform="translate(-33.662 -11.974)"/>
          <path id="Trazado_179546" data-name="Trazado 179546" d="M73.226,30.779c.729,0,1.461-.027,2.188.007a1.179,1.179,0,0,1,1.273,1.227,1.155,1.155,0,0,1-1.237,1.256q-2.186.062-4.377,0A1.162,1.162,0,0,1,69.847,32a1.193,1.193,0,0,1,1.295-1.213c.694-.023,1.39,0,2.084,0" transform="translate(-27.177 -11.972)"/>
          <path id="Trazado_179547" data-name="Trazado 179547" d="M73.27,23.371H71.29c-.862,0-1.448-.4-1.435-1.283.011-.821.573-1.22,1.39-1.222,1.354,0,2.709-.009,4.064,0,.8.007,1.369.379,1.377,1.227.008.909-.589,1.268-1.437,1.274-.66.006-1.32,0-1.98,0" transform="translate(-27.18 -8.117)"/>
          <path id="Trazado_179548" data-name="Trazado 179548" d="M73.225,13.451c-.66,0-1.32,0-1.98,0-.817,0-1.373-.4-1.393-1.222a1.19,1.19,0,0,1,1.331-1.277c1.389-.018,2.779-.021,4.168,0,.808.013,1.349.419,1.335,1.267s-.573,1.214-1.376,1.229c-.695.013-1.39,0-2.084,0" transform="translate(-27.179 -4.255)"/>
          <path id="Trazado_179549" data-name="Trazado 179549" d="M61.074,10.949c.958.009,1.566.516,1.544,1.287s-.634,1.229-1.61,1.221c-1-.008-1.538-.468-1.519-1.287.019-.8.574-1.23,1.585-1.221" transform="translate(-23.147 -4.26)" fill="#2a4368"/>
          <path id="Trazado_179550" data-name="Trazado 179550" d="M61.061,30.781c.962.005,1.571.5,1.558,1.274s-.612,1.239-1.6,1.234-1.544-.457-1.532-1.274.563-1.24,1.571-1.234" transform="translate(-23.147 -11.976)" fill="#2a4368"/>
          <path id="Trazado_179551" data-name="Trazado 179551" d="M60.992,23.373c-.99-.012-1.532-.481-1.5-1.3.028-.8.586-1.219,1.6-1.2.951.013,1.561.534,1.529,1.3s-.649,1.217-1.626,1.205" transform="translate(-23.146 -8.118)" fill="#2a4368"/>
        </g>
      </g>
    </g>
  </g>
</svg>
