<svg xmlns="http://www.w3.org/2000/svg" xmlns:xlink="http://www.w3.org/1999/xlink" width="120" height="117" viewBox="0 0 120 117">
  <defs>
    <clipPath id="clip-path">
      <rect id="Rect치ngulo_44991" data-name="Rect치ngulo 44991" width="88" height="88" fill="none"/>
    </clipPath>
  </defs>
  <g id="_41" data-name="41" transform="translate(4068.5 1667.137)">
    <g id="Grupo_174064" data-name="Grupo 174064" transform="translate(-4420.5 -5986.137)">
      <g id="Grupo_158812" data-name="Grupo 158812" transform="translate(352 4319)">
        <g id="Grupo_158146" data-name="Grupo 158146">
          <rect id="Rect치ngulo_36141" data-name="Rect치ngulo 36141" width="120" height="117" fill="#ffe891"/>
        </g>
      </g>
    </g>
    <g id="Grupo_174305" data-name="Grupo 174305" transform="translate(-4052.5 -1652.137)">
      <g id="Grupo_174304" data-name="Grupo 174304" clip-path="url(#clip-path)">
        <path id="Trazado_179498" data-name="Trazado 179498" d="M43.484,0H49.5c1.236.182,2.5.112,3.727.352a44.234,44.234,0,0,1,4.664,1.129,22.567,22.567,0,0,0,3.574.321A22.023,22.023,0,0,1,72.674,6.789a12.538,12.538,0,0,1,1.833,1.676,1.741,1.741,0,0,1,.052,2.339c-.944.6-1.515.559-2.428-.337a19.341,19.341,0,0,0-3.583-2.927C64.954,5.4,61.134,4.2,56.907,4.894a9.861,9.861,0,0,0-7.778,5.855,7.569,7.569,0,0,1,4.906-.336c2.691.721,5.726,3.634,5.522,7.128-.141,2.427-.063,4.868-.02,7.3a31.335,31.335,0,0,0,8.1,20.915A32.081,32.081,0,0,0,81.02,54.632a.559.559,0,0,0,.081.027c.405.1.905.464,1.2.1.328-.4-.2-.765-.416-1.1A26.544,26.544,0,0,1,77.482,41.42c-.035-.372-.028-.744-.028-1.116,0-5.127-.01-10.254,0-15.381a21.668,21.668,0,0,0-2.125-10.068,1.507,1.507,0,1,1,2.633-1.387,19.491,19.491,0,0,1,2.179,6.476,40.453,40.453,0,0,1,.361,7.1c-.011,1.093.013,1.085,1.077,1.405a9.272,9.272,0,0,1,6.069,5.639,18.5,18.5,0,0,1,.35,2v2.75a8.654,8.654,0,0,1-5.667,7.141c-.6.244-.67.537-.457,1.115a25.836,25.836,0,0,0,3.009,5.574,3.16,3.16,0,0,1,.3,3.622,2.888,2.888,0,0,1-2.608,1.669c-.711-.014-.824.285-.67.9a19.41,19.41,0,0,0,1.546,4.083,4.934,4.934,0,0,1-2.3,7.079,73.2,73.2,0,0,1-16.282,6.321c-.609.152-.81.366-.563,1,1.177,3.037,1.13,6.218,1.049,9.4A1.273,1.273,0,0,1,64.281,88H28.875A1.621,1.621,0,0,1,27.8,86.319a25.157,25.157,0,0,1,1.084-8.782c.314-.911.314-.909-.6-1.17-.659-.188-1.332-.332-1.977-.556-.754-.262-1.414-.655-1.382-1.613.419-1.229.934-1.544,2.2-1.288.926.188,1.823.494,2.741.721a.946.946,0,0,0,1.17-.43,18.3,18.3,0,0,1,3.22-3.671c.557-.5.3-.612-.2-.817a34.823,34.823,0,0,1-8.965-5.349A32.7,32.7,0,0,1,16.764,53.1a5.066,5.066,0,0,0-.454-.827,1.011,1.011,0,0,0-1.1-.269c-.418.087-.367.457-.375.766-.035,1.343,0,2.683-.144,4.029a20.1,20.1,0,0,1-1.986,6.98c-.129.256-.264.509-.38.77a1.877,1.877,0,0,0,.909,2.668,67.915,67.915,0,0,0,8.344,3.83c1.176.455,1.54,1.044,1.32,2.135a1.531,1.531,0,0,1-2.082.8A60.6,60.6,0,0,1,11.462,69.7a4.638,4.638,0,0,1-1.886-6.307,21.452,21.452,0,0,0,2.239-10.962c-.025-.629-.325-.815-.858-.952a14.581,14.581,0,0,1-9.322-7.03A13.044,13.044,0,0,1,0,39.36V35.406a12.811,12.811,0,0,1,2.772-6.8,14.538,14.538,0,0,1,8.339-5.4,1.6,1.6,0,0,0,1.217-1.041A36.8,36.8,0,0,1,27.964,4.768,36.431,36.431,0,0,1,40.946.241C41.788.115,42.648.18,43.484,0"/>
        <path id="Trazado_179499" data-name="Trazado 179499" d="M92.452,63.182c1.088.785,2.164,1.587,3.27,2.345.313.215.322.342.137.655C92.513,71.857,85.086,77.4,78.631,78.991a25.621,25.621,0,0,0,.189-5.021,5.2,5.2,0,0,0-5.474-5.514c-2.4-.025-4.81.017-7.214-.013a6.033,6.033,0,0,0-3.53,1.113c-.237.09-.384-.06-.508-.215a26.739,26.739,0,0,1-4.138-7.052,4.321,4.321,0,0,1,.331-1.142,4.014,4.014,0,0,0-.975-4.037c-.291-.3-.67-.555-.683-1.042a7.5,7.5,0,0,0,.342-3.769c-.028-.782-.695-.957-1.316-1.118-.537-.17-.521-.626-.528-1.055a33.5,33.5,0,0,1,1.343-9.993,31.533,31.533,0,0,1,5.064-10.158,2.1,2.1,0,0,1,.87-.8,35.658,35.658,0,0,1,10.749-.636,41.716,41.716,0,0,1,6,1c.607.137.8.388.8,1.026.019,3-.138,6.008.123,9.01a34.165,34.165,0,0,0,2.811,10.9c.185.42.349.737-.134,1.084a1.023,1.023,0,0,0-.27.872c.008.773.028,1.547-.006,2.318a1.709,1.709,0,0,0,.567,1.37c.082.287-.155.405-.307.557-2.781,2.789-1.413,6.081,1.461,7.407a7.307,7.307,0,0,0,7.419-.535c.258-.166.481-.423.838-.362" transform="translate(-23.214 -11.96)" fill="#fed3bc"/>
        <path id="Trazado_179500" data-name="Trazado 179500" d="M109.866,13.918l1.509,2.054A1.41,1.41,0,0,0,110.959,18a19.842,19.842,0,0,1,2.132,9.437c-.013,4.838.046,9.676-.016,14.514a25.941,25.941,0,0,0,4.576,15.018c.245.369.844.734.461,1.251-.407.55-.971.1-1.41-.055Q98.721,51.643,95.128,32.846a36.916,36.916,0,0,1-.4-7.275c.017-1.6-.091-3.213.023-4.808.255-3.593-3.04-6.532-6.051-7.061a7.7,7.7,0,0,0-4.557.7,9.811,9.811,0,0,1,3.806-4.836c3.21-2.087,6.714-2.258,10.32-1.427a18.775,18.775,0,0,1,9.487,5.39c.629.654,1.274.964,2.107.387" transform="translate(-35.439 -3.233)" fill="#c67464"/>
        <path id="Trazado_179501" data-name="Trazado 179501" d="M21.782,53.18a32.353,32.353,0,0,0,1.025,10.545,26.456,26.456,0,0,0,16.922,17.64c1.407.518,2,.118,2.2-1.388a2.56,2.56,0,0,1,2.42-2.27q4.037-.069,8.075-.006a2.444,2.444,0,0,1,2.408,2.161,19.585,19.585,0,0,1-.013,4.711,2.528,2.528,0,0,1-2.294,2.105A30.957,30.957,0,0,1,21.6,71.306c-.476-.846-.922-1.712-1.323-2.6a1.574,1.574,0,0,0-1.605-1.026,20.435,20.435,0,0,1-5.545-.415A11.789,11.789,0,0,1,4.464,55.23,11.943,11.943,0,0,1,14.3,44.366a18.631,18.631,0,0,1,4.111-.141,3.753,3.753,0,0,1,3.375,3.8c0,.057,0,.115,0,.172V53.18" transform="translate(-1.874 -18.605)" fill="#53a2eb"/>
        <path id="Trazado_179502" data-name="Trazado 179502" d="M63.793,5.044a14.454,14.454,0,0,0-4.332,3.4,12.648,12.648,0,0,0-2.929,6.478c-.094.7-.375.86-1.033.887a37.183,37.183,0,0,0-12.352,2.643,12.241,12.241,0,0,0-6.43,5.922A10.923,10.923,0,0,1,33.5,28.23c-.39.287-.6.369-.907-.152A6.15,6.15,0,0,0,26.9,24.887c-.96.009-.979-.013-.559-.9a33.521,33.521,0,0,1,14.9-15.408A34.276,34.276,0,0,1,59.179,4.486a24.919,24.919,0,0,1,4.614.558" transform="translate(-10.984 -1.876)" fill="#ab6757"/>
        <path id="Trazado_179503" data-name="Trazado 179503" d="M33.749,111.633c-.682-.614-1.615-.611-2.4-.973.134-1.012-.1-1.387-1.143-1.789a75.947,75.947,0,0,1-8.271-3.753c-1.522-.806-1.882-1.8-1.084-3.3a22.4,22.4,0,0,0,2.373-11.371c-.01-.382-.355-1.029.311-1.152s1.309-.179,1.759.713a33.118,33.118,0,0,0,17.951,16.277c.182.072.4.08.513.322a18.833,18.833,0,0,0-4.141,4.644c-.215.347-.43.356-.776.258-1.044-.3-2.1-.558-3.149-.827s-1.541-.031-1.944.953" transform="translate(-8.608 -37.577)" fill="#ab6757"/>
        <path id="Trazado_179504" data-name="Trazado 179504" d="M55.538,29.734a32.455,32.455,0,0,0-6.248,13.15,34.55,34.55,0,0,0-.8,8.035c.006.3,0,.585.386.648a3.138,3.138,0,0,0-.836,2.809,2.288,2.288,0,0,1-.15,1.259c-.322.317-.7.159-1.05.1a7.1,7.1,0,0,0-6.194,1.637c-.188.161-.386.361-.677.193a19.5,19.5,0,0,1-1.1-6.049c-.047-3-.009-6.011-.043-9.017a.94.94,0,0,1,.588-.919,11,11,0,0,0,4.455-4.531,11.788,11.788,0,0,1,8.182-6.465,33.1,33.1,0,0,1,3.489-.845" transform="translate(-16.351 -12.523)" fill="#febe9c"/>
        <path id="Trazado_179505" data-name="Trazado 179505" d="M100.257,109.156a35.5,35.5,0,0,0,6.59-3.236,33.168,33.168,0,0,0,10.061-9.935c.329-.5.57-.671,1.133-.318a7.365,7.365,0,0,0,1.862.864,1.513,1.513,0,0,1,1.2,1.5,18.945,18.945,0,0,0,2.069,6.409c.766,1.488.459,2.485-1,3.268a72.052,72.052,0,0,1-16.686,6.383.9.9,0,0,1-1.176-.466,18.161,18.161,0,0,0-4.05-4.465" transform="translate(-42.224 -40.211)" fill="#ab6757"/>
        <path id="Trazado_179506" data-name="Trazado 179506" d="M82.812,127.793c3.58,1.323,7.536-.425,8.587-4.924a11.674,11.674,0,0,1,2.557,2.509,16.415,16.415,0,0,1,3.514,11.279c-.014.326-.032.53-.45.521-1.115-.025-2.232-.028-3.347,0-.464.012-.494-.219-.491-.579q.018-2.1,0-4.206c-.008-1-.5-1.584-1.291-1.572s-1.272.6-1.28,1.605c-.012,1.373-.022,2.747.007,4.12.01.468-.093.643-.6.636-2.2-.028-4.406-.013-6.609-.011-.316,0-.607.063-.6-.448.02-2.968.01-5.937.01-8.93" transform="translate(-34.873 -51.747)" fill="#acd7fe"/>
        <path id="Trazado_179507" data-name="Trazado 179507" d="M40.8,76.2a11.973,11.973,0,0,1,2.707-1.724,8.568,8.568,0,0,1,5.1-.174,2.086,2.086,0,0,0,2.053.99c.306.334.615.665.916,1a4.225,4.225,0,0,1,.79,4.432c-.088.267-.2.526-.309.788A4.981,4.981,0,0,1,49.5,83.775a7.976,7.976,0,0,1-3.98.684A22.059,22.059,0,0,1,40.8,76.2" transform="translate(-17.184 -31.166)" fill="#fe8d9d"/>
        <path id="Trazado_179508" data-name="Trazado 179508" d="M65.593,129.406a6.284,6.284,0,0,0,6.53,1.055v.959c0,2.6-.012,5.2.011,7.8,0,.5-.083.694-.644.685-2.2-.035-4.4-.028-6.6,0-.493.005-.629-.15-.619-.629.028-1.371-.007-2.744.017-4.115a1.745,1.745,0,0,0-.576-1.45.685.685,0,0,1-.138-.644,12.5,12.5,0,0,1,1.462-3.458c.117-.195.284-.381.557-.2" transform="translate(-26.764 -54.47)" fill="#acd7fe"/>
        <path id="Trazado_179509" data-name="Trazado 179509" d="M111.286,82.348a7.563,7.563,0,0,1-9.345.51,4.458,4.458,0,0,1-.317-7.351c.087-.071.167-.151.251-.226,1.239.354,1.719.063,2.1-1.374a36.913,36.913,0,0,0,7.307,8.442" transform="translate(-42.048 -31.126)" fill="#fe8d9d"/>
        <path id="Trazado_179510" data-name="Trazado 179510" d="M61.129,126.718c-.487.1-.506.569-.681.9a9.153,9.153,0,0,0-1.2,3.405c-1.287-.384-1.992.119-2.006,1.46-.014,1.373-.025,2.747.008,4.12.012.5-.153.628-.629.613-1.029-.032-2.06-.021-3.09,0-.373.006-.558-.057-.572-.5a16.455,16.455,0,0,1,5.469-13.342c.148-.134.307-.258.468-.377.038-.028.1-.019.222-.036a6.956,6.956,0,0,0,2.013,3.768" transform="translate(-22.299 -51.781)" fill="#87c4fc"/>
        <path id="Trazado_179511" data-name="Trazado 179511" d="M139.033,66.165a23.288,23.288,0,0,1-.451-5.475c0-2.145.014-4.291-.009-6.436-.005-.493.095-.655.614-.517a6.593,6.593,0,0,1,4.594,6.091,6.465,6.465,0,0,1-4.413,6.283,2.7,2.7,0,0,1-.335.054" transform="translate(-58.361 -22.612)" fill="#febe9c"/>
        <path id="Trazado_179512" data-name="Trazado 179512" d="M48.958,89.929a13.521,13.521,0,0,1,2.488-.394,7.933,7.933,0,0,0,4.05-2.548,34.284,34.284,0,0,0,4.15,6.9,3.844,3.844,0,0,0,.361.346,5.117,5.117,0,0,0-1.343,1.742c-.232.714-.579.544-1.058.335a24.037,24.037,0,0,1-6.832-4.461,13.578,13.578,0,0,1-1.815-1.918" transform="translate(-20.619 -36.635)" fill="#febe9c"/>
        <path id="Trazado_179513" data-name="Trazado 179513" d="M73.952,123c.267.919-.291,1.32-.985,1.643a3.612,3.612,0,0,1-4.98-2.872c-.047-.522.085-.608.6-.488a20.57,20.57,0,0,0,4.311.579c.836.012,1.36.168,1.051,1.137" transform="translate(-28.629 -51.061)" fill="#87c4fb"/>
        <path id="Trazado_179514" data-name="Trazado 179514" d="M82.829,122.992c-.255-.909.168-1.119,1.007-1.121a22.743,22.743,0,0,0,4.5-.588c.445-.091.48.054.451.417A3.636,3.636,0,0,1,84,124.747c-.779-.306-1.491-.706-1.173-1.756" transform="translate(-34.852 -51.068)" fill="#87c4fb"/>
        <path id="Trazado_179515" data-name="Trazado 179515" d="M91.755,24.345a45.177,45.177,0,0,0-6.382-1c1.712-1.63,4.825-1.171,6.382,1" transform="translate(-35.956 -9.422)" fill="#aa6656"/>
        <path id="Trazado_179516" data-name="Trazado 179516" d="M76.949,76.221a6.09,6.09,0,0,1-4.412-1.906,1.313,1.313,0,0,1-.113-1.966,1.279,1.279,0,0,1,1.9.116q2.634,2.4,5.315-.01a1.291,1.291,0,1,1,1.831,1.807,6.1,6.1,0,0,1-4.52,1.959" transform="translate(-30.337 -30.314)"/>
        <path id="Trazado_179517" data-name="Trazado 179517" d="M56.344,72.536c-1.161.375-1.625.15-2.053-.99.009-.8.056-1.595.016-2.389a1.527,1.527,0,0,1,1.083-1.706c1.193.178,1.5.531,1.506,1.74,0,.629-.024,1.258.008,1.885a1.787,1.787,0,0,1-.559,1.46" transform="translate(-22.865 -28.408)" fill="#010101"/>
        <path id="Trazado_179518" data-name="Trazado 179518" d="M89.887,139.476a1.248,1.248,0,0,1-1.352,1.232,1.284,1.284,0,0,1-1.212-1.3,1.327,1.327,0,0,1,1.282-1.257,1.3,1.3,0,0,1,1.282,1.326" transform="translate(-36.777 -58.183)" fill="#020303"/>
      </g>
    </g>
  </g>
</svg>
