<svg xmlns="http://www.w3.org/2000/svg" xmlns:xlink="http://www.w3.org/1999/xlink" width="120" height="117" viewBox="0 0 120 117">
  <defs>
    <clipPath id="clip-path">
      <rect id="Rect치ngulo_44990" data-name="Rect치ngulo 44990" width="93.449" height="93.48" fill="none"/>
    </clipPath>
  </defs>
  <g id="_42" data-name="42" transform="translate(-352 -4319)">
    <g id="Grupo_158812" data-name="Grupo 158812" transform="translate(352 4319)">
      <g id="Grupo_158146" data-name="Grupo 158146">
        <rect id="Rect치ngulo_36141" data-name="Rect치ngulo 36141" width="120" height="117" fill="#ffe891"/>
      </g>
      <g id="Grupo_174303" data-name="Grupo 174303" transform="translate(13.275 15)">
        <g id="Grupo_174303-2" data-name="Grupo 174303" clip-path="url(#clip-path)">
          <path id="Trazado_179471" data-name="Trazado 179471" d="M93.449,50.353a17.88,17.88,0,0,0-.513,3.267c-3.307,18.452-13.713,31.21-31.369,37.3A46.213,46.213,0,0,1,4.695,67.02,46.676,46.676,0,0,1,34.133,1.711,43.685,43.685,0,0,1,42.633.18c.168-.014.376.052.463-.18h4.561a4.553,4.553,0,0,0,2.007,0h.548c1.014.165,2.048.086,3.06.224A45.955,45.955,0,0,1,74.558,8.888c1.346.988,1.508,1.566.946,2.832a1.715,1.715,0,0,1-2.53-.01,43.142,43.142,0,0,0-7.717-4.641A42.237,42.237,0,0,0,52.266,3.334,43.4,43.4,0,0,0,29.542,6.492,43.745,43.745,0,0,0,14.381,17.31,38.162,38.162,0,0,0,9.29,24.176,41.715,41.715,0,0,0,4.176,36.7,42.617,42.617,0,0,0,3.044,48.544,44.093,44.093,0,0,0,6.5,63.842,43.241,43.241,0,0,0,17.387,79.085a42.738,42.738,0,0,0,24.065,11A43.469,43.469,0,0,0,67.3,85.316a19.109,19.109,0,0,0,1.965-1.15A43.449,43.449,0,0,0,86.2,65.573a42.87,42.87,0,0,0,4.124-15.485,43.38,43.38,0,0,0-1.711-16.018,42.449,42.449,0,0,0-8.59-15.713c-.895-1.038-1.884-1.979-2.8-2.988a1.745,1.745,0,0,1-.12-2.527c.938-.59,1.321-.62,2.12.076a36.17,36.17,0,0,1,5.813,6.625A46.273,46.273,0,0,1,93.2,40c.148,1.076.061,2.169.253,3.241Z" transform="translate(0)"/>
          <path id="Trazado_179472" data-name="Trazado 179472" d="M82.152,0a2.418,2.418,0,0,1-2.007,0Z" transform="translate(-32.488)" fill="#434343"/>
          <path id="Trazado_179473" data-name="Trazado 179473" d="M78.623,13.518c.791.192,1.083,1.094,1.862,1.3-.633,1.006-.579,1.465.344,2.375A41.927,41.927,0,0,1,92.779,38.372c3.49,16.052-.584,30.016-12.135,41.734a35.328,35.328,0,0,1-7.918,6.075,38.477,38.477,0,0,1-15.466,4.181,44.836,44.836,0,0,1-22.55-4.007A45.512,45.512,0,0,1,10.257,58.807a45.265,45.265,0,0,1-2.01-17.278,38.264,38.264,0,0,1,4.186-15.647A41.489,41.489,0,0,1,22.48,14.328a42.385,42.385,0,0,1,21.35-9.273A43.3,43.3,0,0,1,75.74,12.9c.223.159.456.306.661.485a1.594,1.594,0,0,0,2.223.129" transform="translate(-3.296 -1.87)" fill="#c0e3f9"/>
          <path id="Trazado_179474" data-name="Trazado 179474" d="M10.982,40.382c-.5,1.328-1,2.653-1.487,3.985A46,46,0,0,0,7.33,53.328a49,49,0,0,0-.294,9.438,39.756,39.756,0,0,0,1.847,9.948A45.518,45.518,0,0,0,44.135,104.05a47.1,47.1,0,0,0,12.392.466,42.376,42.376,0,0,0,9.911-2.043c1.349-.443,2.661-1,3.988-1.513.279-.108.521-.322.85-.279a39.01,39.01,0,0,1-11.387,4.888A43.889,43.889,0,0,1,6.563,75.933c-3.725-12.26-2.232-24.056,4.142-35.2a2.9,2.9,0,0,1,.277-.349" transform="translate(-1.846 -16.37)" fill="#90b4f8"/>
          <path id="Trazado_179475" data-name="Trazado 179475" d="M37.857,20.393c-.2-1.19.1-1.656,1.258-2a10.127,10.127,0,0,1,3.875-.38,1.273,1.273,0,0,0,1.12-.4,11.114,11.114,0,0,1,13.583-1.669,1.209,1.209,0,0,0,1.093.095,11.124,11.124,0,0,1,12.889,4.4,1.37,1.37,0,0,0,1.008.639,11.135,11.135,0,0,1,9.66,9.712,1.019,1.019,0,0,0,.454.815c4.626,2.968,6.078,8.582,4.117,13.933a2.031,2.031,0,0,0-.026,1.619,5.392,5.392,0,0,1,.309,3.392c-.131.517.082.666.493.854a6.549,6.549,0,0,1,.046,12.033c-.446.21-.632.353-.532.913a6.374,6.374,0,0,1-6.735,7.511c-.714-.045-1.071.079-1.344.772A5.4,5.4,0,0,1,77.034,75.1c-.352.237-.464.4-.286.853a6.223,6.223,0,0,1-1.388,7.137,6.289,6.289,0,0,1-7.134,1.447c-.4-.147-.589-.143-.871.229a6.41,6.41,0,0,1-9.908.921c-.253-.234-.41-.345-.758-.138a6.159,6.159,0,0,1-4.636.785c-.591-.132-.554.32-.686.609a6.556,6.556,0,0,1-9.122,3.139,6.271,6.271,0,0,1-2.927-3.248c-.175-.44-.347-.544-.853-.452a6.443,6.443,0,0,1-6.952-3.539,1.33,1.33,0,0,0-1.045-.818A9.908,9.908,0,0,1,24.216,77.5a17.407,17.407,0,0,1-2.129-4.9,1.5,1.5,0,0,1,.847-1.805,1.305,1.305,0,0,1,1.851.687,13.293,13.293,0,0,1,.628,1.709,10.993,10.993,0,0,0,2.2,3.847,6.775,6.775,0,0,0,10.1-.012,11.455,11.455,0,0,0,2.361-4.381,29.108,29.108,0,0,1,3.5-7.293,40.869,40.869,0,0,0,3.144-6.166,20.628,20.628,0,0,0,1.053-4.144,1.456,1.456,0,0,0-.308-1.2,7.093,7.093,0,0,1-1.281-6.037,1.763,1.763,0,0,0-.407-1.432A14.8,14.8,0,0,0,38.166,40.7a16.791,16.791,0,0,0-12.12.448A14.027,14.027,0,0,0,20.3,45.51a12.334,12.334,0,0,0-2.511,10.342,28.923,28.923,0,0,0,3.807,9.1c.328.58.689,1.146.981,1.745a1.354,1.354,0,0,1-.722,2.054,1.394,1.394,0,0,1-1.777-.5c-2.044-3.444-4.1-6.885-5.009-10.854a15.823,15.823,0,0,1,8.079-18.1,1.136,1.136,0,0,0,.7-1.318,11.1,11.1,0,0,1,7-11.687,1.175,1.175,0,0,0,.754-.8,10.6,10.6,0,0,1,2.064-3.612c.787-.918,1.3-.994,2.362-.366a1.231,1.231,0,0,1,.238,1.809c-.385.683-1,1.2-1.339,1.924a7.724,7.724,0,0,0-.708,1.868,2.3,2.3,0,0,1-1.761,1.76,8.063,8.063,0,0,0-5.243,5.07,7.261,7.261,0,0,0-.416,2.773c.012.542.216.714.734.557.348-.106.7-.192,1.06-.27a19.769,19.769,0,0,1,16.052,3.569,15.073,15.073,0,0,1,3.1,3.071c.422.559.793.73,1.429.3A6.2,6.2,0,0,1,53.362,43a1.072,1.072,0,0,0,1.222-.661,6.824,6.824,0,0,1,12.145-.064,1.166,1.166,0,0,0,1.291.713A6.436,6.436,0,0,1,74.008,45.6c.469.611.762.5,1.182,0a7.762,7.762,0,0,1,5.123-2.862,5.713,5.713,0,0,1,3.271.551c.6.287.9.184,1-.492.53-3.6-.187-6.822-3.947-9.02a2.126,2.126,0,0,1-1.2-1.888,8.294,8.294,0,0,0-8-7.944,2.046,2.046,0,0,1-1.815-1.159,8.166,8.166,0,0,0-10.408-3.725,2.7,2.7,0,0,1-2.726-.337A8.223,8.223,0,0,0,45.741,20.2a2.331,2.331,0,0,1-2.158.89,10.893,10.893,0,0,0-3.8.184c-1.1.275-1.651-.02-1.922-.877" transform="translate(-5.916 -5.822)"/>
          <path id="Trazado_179476" data-name="Trazado 179476" d="M44.115,27.01a4.049,4.049,0,0,1,.984-1.5,1.619,1.619,0,0,0,.266-2.141,5.8,5.8,0,0,1,1.827-1.114,1.566,1.566,0,0,0,1.979.634,7.755,7.755,0,0,1,3.788-.207,1.811,1.811,0,0,0,1.849-.654A8.382,8.382,0,0,1,66.28,20.58a1.894,1.894,0,0,0,1.958.212A8.382,8.382,0,0,1,79.17,24.543a1.831,1.831,0,0,0,1.672,1.029,8.4,8.4,0,0,1,8.149,8.1,2.022,2.022,0,0,0,1.231,1.837,8.371,8.371,0,0,1,3.6,10.314c-4.137-2.234-7.262-.617-9.977,2.73a6.742,6.742,0,0,0-4.35-3.347,6.088,6.088,0,0,0-2.622-.069c-.531.108-.651-.079-.84-.486a6.556,6.556,0,0,0-12.07.045c-.169.372-.283.536-.777.452a6.361,6.361,0,0,0-5.081,1.19c-.272.205-.433.334-.716-.032-4.932-6.395-11.5-8.466-19.292-7.244a.853.853,0,0,1-.181-.011,2.478,2.478,0,0,1-.187-1.94,7.98,7.98,0,0,1,4.959-6.4A1.335,1.335,0,0,0,43.7,29.228a7,7,0,0,1,.416-2.218" transform="translate(-15.251 -7.68)" fill="#feefae"/>
          <path id="Trazado_179477" data-name="Trazado 179477" d="M23.694,89.878c.869-.819.931-1.242.321-2.3a39.067,39.067,0,0,1-4.258-8.925,13.046,13.046,0,0,1,1.6-11.4c.186-.272.422-.511.634-.765.257.225.158.507.1.764-1.02,4.336-.024,8.367,1.85,12.264.936,1.945,2.053,3.79,3.134,5.656a23.789,23.789,0,0,1,2.247,5.064,11.656,11.656,0,0,0,3.955,6.29,7.069,7.069,0,0,0,4.567,1.534,2.742,2.742,0,0,1,1.853.221,6.933,6.933,0,0,1-10.041.45,12.241,12.241,0,0,1-3.037-5.5c-.34-1.1-.681-1.324-1.848-1.3l-1.08-2.047" transform="translate(-7.756 -26.95)" fill="#b0705b"/>
          <path id="Trazado_179478" data-name="Trazado 179478" d="M41.265,94.331c-1.443-.055-2.9.184-4.319-.329a8.465,8.465,0,0,1-5.433-5.494C30.006,83.67,27.154,79.541,25,75.053a18.943,18.943,0,0,1-1.938-9.946,23.612,23.612,0,0,1,.5-2.569,14.217,14.217,0,0,1,8.551-5.307c6.093-1.316,11.491.039,15.957,4.541a10.4,10.4,0,0,1,.878,1.045,3.005,3.005,0,0,1,.79,2.86,5.872,5.872,0,0,0,1.329,5.2,1.769,1.769,0,0,1,.35,1.5,23.869,23.869,0,0,1-3.134,8.381c-.683,1.216-1.388,2.421-2.1,3.62a23.623,23.623,0,0,0-2.444,5.461,10.148,10.148,0,0,1-2.471,4.492" transform="translate(-9.322 -23.005)" fill="#c28678"/>
          <path id="Trazado_179479" data-name="Trazado 179479" d="M103.077,83.112a15.439,15.439,0,0,1,4.582-6.141,8.349,8.349,0,0,0,3.328-5.446.742.742,0,0,1,.189-.4c.96-1.015,1.874-2.084,2.911-3.014a3.676,3.676,0,0,1,4.91-.34,3.837,3.837,0,0,1,.929,4.922c-.589,1.223-.1,2.13,1.225,2.254a3.826,3.826,0,0,1,3.681,3.781,3.871,3.871,0,0,1-3.625,3.859c-1.46.156-1.885.974-1.219,2.344a3.833,3.833,0,0,1-.882,4.718,3.706,3.706,0,0,1-4.709.018,10.222,10.222,0,0,1-1.679-1.664,20.7,20.7,0,0,0-5.229-4.353,1.542,1.542,0,0,0-2.195.241,1.972,1.972,0,0,1-2.216-.782" transform="translate(-41.784 -27.155)" fill="#97c990"/>
          <path id="Trazado_179480" data-name="Trazado 179480" d="M88.305,78.551a32.3,32.3,0,0,0-1.218,3.574,2.945,2.945,0,0,1-1.337,1.852,4.745,4.745,0,0,0-1.476,1.672c-.971.422-1.581.3-2.044-.4a1.583,1.583,0,0,0-.425-1.825,2.948,2.948,0,0,1-.816-1.5,19.161,19.161,0,0,0-6.508-10.081,6.708,6.708,0,0,1-1.7-2,3.536,3.536,0,0,1,.518-4.217,3.848,3.848,0,0,1,4.27-.916c.112.048.219.105.328.159,1.413.695,2.228.25,2.36-1.29a3.818,3.818,0,0,1,6.988-1.845A4.1,4.1,0,0,1,87.9,63.7c.125,1.359.994,1.847,2.211,1.254a3.815,3.815,0,0,1,4.928.9,3.757,3.757,0,0,1-.309,4.922c-.173.21-.372.4-.554.6-.462.519-.784.714-1.312-.058a3.89,3.89,0,0,0-4.381-1.412,4.113,4.113,0,0,0-2.92,3.687c-.017.243-.018.486-.027.729a6.011,6.011,0,0,0-.114,1.171,2.451,2.451,0,0,0,2.072,2.59c.305.065.771-.087.806.466" transform="translate(-29.314 -24.336)" fill="#c1e3a0"/>
          <path id="Trazado_179481" data-name="Trazado 179481" d="M99.049,103.363a3.163,3.163,0,0,1-1.563.862,1.375,1.375,0,0,0-.656,2.361c1.44,1.832,1.42,3.856-.052,5.337a3.837,3.837,0,0,1-5.34.079c-1.074-.843-1.983-.518-2.458.878a3.784,3.784,0,0,1-5.657,2.136c-.67-.447-1.051-.863-.616-1.833a6.856,6.856,0,0,0-2.383-7.956,1.484,1.484,0,0,0-1.919.165c-.545-.314-1.111-.609-1.135-1.358a1.654,1.654,0,0,0-.159-2.153,14.087,14.087,0,0,1-2.6-5.344,5.99,5.99,0,0,0-2.025-3.36.6.6,0,0,1-.2-.846c.313-.687.571-1.4.853-2.1.455-.052.617.322.837.593a16.034,16.034,0,0,1,2.985,5.87,4.718,4.718,0,0,0,5.579,3.736c.6-.067,1.067-.021,1.177.747.316,2.2.959,2.723,3.165,2.631a1.14,1.14,0,0,0,.62-.074c2.446-.093,3.919-1.117,4.453-3.112a4.293,4.293,0,0,0-.638-3.463c.34-.3.347-.312.743-.1a11.674,11.674,0,0,1,2.425,1.764,23.442,23.442,0,0,1,2.837,2.952c.476.641,1.3.891,1.727,1.586" transform="translate(-29.263 -36.574)" fill="#97c990"/>
          <path id="Trazado_179482" data-name="Trazado 179482" d="M67.438,107.552l1.135,1.358a1.591,1.591,0,0,0,.42,2.185,5.441,5.441,0,0,1,.94,1.107,3.639,3.639,0,0,1-.232,4.548,3.834,3.834,0,0,1-4.58.853c-.109-.052-.212-.119-.322-.17a1.363,1.363,0,0,0-2.1,1.164c-.254,2.34-1.74,3.8-3.861,3.79a3.817,3.817,0,0,1-3.8-3.755c-.128-1.251-1.052-1.721-2.235-1.139a3.791,3.791,0,0,1-4.679-.65.436.436,0,0,1-.182-.45,10.447,10.447,0,0,0,6.924-4.961,9.556,9.556,0,0,0,2.775-.037c2.888-.168,4.623-1.849,4.514-4.372-.082-1.905-1.338-3.268-3.653-3.911l2.445-4.2a2.977,2.977,0,0,1,1.058,1.842,17.649,17.649,0,0,0,3.04,6.256c.806,1.059,1.207,1.152,2.384.546" transform="translate(-19.433 -40.094)" fill="#c1e3a0"/>
          <path id="Trazado_179483" data-name="Trazado 179483" d="M88.149,101.892a2.619,2.619,0,0,1-4.005-2.241c.058-.751-.209-.98-.934-.852a4.9,4.9,0,0,1-5.741-3.533,16.666,16.666,0,0,0-3.285-6.509,3.3,3.3,0,0,0-.4-.368c.254-.9.508-1.8.764-2.7.337-.04.465.25.634.435A15.255,15.255,0,0,1,78.868,92.8,6.267,6.267,0,0,0,80.3,95.6c.889.972,1.571.984,2.522.051a2.946,2.946,0,0,0,2.044.4,4.2,4.2,0,0,0,3.279,5.846" transform="translate(-29.91 -34.735)" fill="#68b080"/>
          <path id="Trazado_179484" data-name="Trazado 179484" d="M110.951,104.936a7.867,7.867,0,0,1-2.139-1.748,20.294,20.294,0,0,0-5.138-4.495c-.182-.1-.317-.162-.454.036-.215-.208-.394-.5-.651-.61-1.425-.579-1.055-1.576-.656-2.6.184-.472.365-.946.548-1.419a4.872,4.872,0,0,0,2.216.781A1.42,1.42,0,0,0,105.3,96.9a19.065,19.065,0,0,1,5.286,4.514,9.907,9.907,0,0,0,.753.787c.979.935,1,1.29.087,2.329a4.3,4.3,0,0,1-.475.409" transform="translate(-41.166 -38.147)" fill="#68b080"/>
          <path id="Trazado_179485" data-name="Trazado 179485" d="M42.864,32.508c.056,1.03-.294,2.035-.191,3.071.036.363-.213.5-.538.615a7.844,7.844,0,0,0-5.384,6.181,13.832,13.832,0,0,0-.086,2.172c-2.168.728-2.331.649-1.995-1.608a8.152,8.152,0,0,1,5.781-6.923,2.124,2.124,0,0,0,1.652-1.69,4.163,4.163,0,0,1,.761-1.818" transform="translate(-13.999 -13.178)" fill="#fedf7c"/>
          <path id="Trazado_179486" data-name="Trazado 179486" d="M97.819,103.705a1.366,1.366,0,0,1,0,2.732,1.366,1.366,0,1,1,0-2.732" transform="translate(-39.097 -42.039)" fill="#fbbf4f"/>
          <path id="Trazado_179487" data-name="Trazado 179487" d="M100.609,83.681A1.4,1.4,0,0,1,99.2,82.3a1.351,1.351,0,0,1,1.331-1.337,1.322,1.322,0,0,1,1.387,1.262,1.373,1.373,0,0,1-1.312,1.453" transform="translate(-40.214 -32.821)" fill="#fbbf4f"/>
          <path id="Trazado_179488" data-name="Trazado 179488" d="M65.4,112.06a1.37,1.37,0,0,1-1.335,1.34,1.4,1.4,0,0,1-1.388-1.388,1.354,1.354,0,0,1,1.436-1.317A1.325,1.325,0,0,1,65.4,112.06" transform="translate(-25.408 -44.872)" fill="#fcc04f"/>
          <path id="Trazado_179489" data-name="Trazado 179489" d="M97.049,88.293c-.216-.305-.542-.189-.83-.213a2.67,2.67,0,0,1-1.936-4.013,4.457,4.457,0,0,0,2.821,3.405c.642.246,0,.545-.056.821" transform="translate(-38.058 -34.078)" fill="#97c890"/>
          <path id="Trazado_179490" data-name="Trazado 179490" d="M62.377,119.367a2.571,2.571,0,0,1-2.775.037c.225-.875.634-1.077,1.428-.508a5,5,0,0,0,1.347.471" transform="translate(-24.161 -48.067)" fill="#95c68e"/>
          <path id="Trazado_179491" data-name="Trazado 179491" d="M71.626,53.7a4.045,4.045,0,0,1-4.077-4.118A4.094,4.094,0,0,1,71.6,45.508a4.14,4.14,0,0,1,4.146,4.1A4.1,4.1,0,0,1,71.626,53.7" transform="translate(-27.382 -18.447)"/>
          <path id="Trazado_179492" data-name="Trazado 179492" d="M116.059,51.77a4.041,4.041,0,0,1-4.086,4.108,4.093,4.093,0,1,1,4.086-4.108" transform="translate(-43.726 -19.333)"/>
          <path id="Trazado_179493" data-name="Trazado 179493" d="M37.775,87.791q-4.47,0-8.939,0c-1.147,0-1.779-.5-1.766-1.365s.645-1.366,1.792-1.367q8.939-.007,17.878,0c1.344,0,2.1.9,1.649,1.924A1.428,1.428,0,0,1,46.9,87.8c-3.04-.011-6.081-.005-9.122,0" transform="translate(-10.973 -34.478)"/>
          <path id="Trazado_179494" data-name="Trazado 179494" d="M38.523,71.882q-3.872,0-7.744,0a1.34,1.34,0,0,1-1.438-1.013,1.277,1.277,0,0,1,.6-1.488,1.639,1.639,0,0,1,.96-.232c5.1,0,10.2-.011,15.305,0,1.088,0,1.665.53,1.657,1.394s-.571,1.328-1.691,1.332c-2.551.008-5.1,0-7.653,0" transform="translate(-11.87 -28.029)" fill="#010000"/>
          <path id="Trazado_179495" data-name="Trazado 179495" d="M42.047,101.806c1.336,0,2.673-.01,4.009,0,1.032.01,1.579.493,1.575,1.351,0,.836-.577,1.369-1.582,1.375q-4.055.026-8.11,0a1.435,1.435,0,0,1-1.6-1.383c0-.8.623-1.336,1.607-1.344,1.366-.011,2.734,0,4.1,0" transform="translate(-14.731 -41.267)"/>
          <path id="Trazado_179496" data-name="Trazado 179496" d="M73.527,52.828a1.317,1.317,0,0,1-1.372-1.275,1.365,1.365,0,0,1,1.328-1.432,1.4,1.4,0,0,1,1.393,1.389,1.361,1.361,0,0,1-1.349,1.319" transform="translate(-29.249 -20.317)" fill="#fcbf4f"/>
          <path id="Trazado_179497" data-name="Trazado 179497" d="M113.873,55a1.348,1.348,0,0,1-1.393-1.358,1.372,1.372,0,0,1,1.334-1.342,1.337,1.337,0,0,1,1.372,1.372A1.3,1.3,0,0,1,113.873,55" transform="translate(-45.596 -21.202)" fill="#fcc04f"/>
        </g>
      </g>
    </g>
  </g>
</svg>
