<svg xmlns="http://www.w3.org/2000/svg" xmlns:xlink="http://www.w3.org/1999/xlink" width="120" height="117" viewBox="0 0 120 117">
  <defs>
    <clipPath id="clip-path">
      <rect id="Rect치ngulo_44993" data-name="Rect치ngulo 44993" width="76.322" height="76.321" fill="none"/>
    </clipPath>
  </defs>
  <g id="_44" data-name="44" transform="translate(-352 -4318.942)">
    <g id="Grupo_158812" data-name="Grupo 158812" transform="translate(352 4319)">
      <g id="Grupo_158146" data-name="Grupo 158146" transform="translate(0 -0.058)">
        <rect id="Rect치ngulo_36141" data-name="Rect치ngulo 36141" width="120" height="117" fill="#ffe891"/>
      </g>
      <g id="Grupo_174308" data-name="Grupo 174308" transform="translate(22 19.942)">
        <g id="Grupo_174308-2" data-name="Grupo 174308" clip-path="url(#clip-path)">
          <path id="Trazado_179552" data-name="Trazado 179552" d="M35.325,76.321a17.613,17.613,0,0,0-2.746-.412C18.408,73.465,8.49,65.591,2.775,52.443A35.632,35.632,0,0,1,0,38.674c-.024-1.5.484-2.006,2.006-2.008q2.5,0,4.993,0c1.421,0,1.906.5,1.946,1.932A28.859,28.859,0,0,0,17.5,58.768a28.371,28.371,0,0,0,16.446,8.276A28.309,28.309,0,0,0,54.54,62.3,28.506,28.506,0,0,0,66.626,44.61a28.322,28.322,0,0,0-1.868-18.455A28.881,28.881,0,0,0,52.205,12.562a28.56,28.56,0,0,0-9.731-3.285,29.169,29.169,0,0,0-12.641.878c.184.332.364.619.506.925a1.463,1.463,0,0,1-1.305,2.171q-5.924.048-11.849.019a1.462,1.462,0,0,1-1.2-2.357c1.488-2.631,3-5.246,4.508-7.868.394-.688.775-1.384,1.183-2.063A1.506,1.506,0,0,1,24.453.94c.807,1.289.809,1.293,2.275.835A38.106,38.106,0,0,1,73.379,23.437a36.747,36.747,0,0,1,2.805,11.656c.01.135-.053.307.138.381v.447a3.714,3.714,0,0,0,0,1.64v1.193a3.714,3.714,0,0,0,0,1.64v.6c-.19,1.293-.156,2.6-.391,3.9a37.88,37.88,0,0,1-8.3,17.806,38.4,38.4,0,0,1-11.786,9.529,37.158,37.158,0,0,1-12.428,3.923c-.9.119-1.82.046-2.724.175h-.447a2.975,2.975,0,0,0-1.491,0H37.562a3.714,3.714,0,0,0-1.64,0Z" transform="translate(0 0)"/>
          <path id="Trazado_179553" data-name="Trazado 179553" d="M106.741,51.913a1.908,1.908,0,0,1,0-1.64Z" transform="translate(-30.418 -14.352)" fill="#343434"/>
          <path id="Trazado_179554" data-name="Trazado 179554" d="M106.741,55.877a1.908,1.908,0,0,1,0-1.64Z" transform="translate(-30.418 -15.483)" fill="#343434"/>
          <path id="Trazado_179555" data-name="Trazado 179555" d="M50.273,106.739a1.908,1.908,0,0,1,1.64,0Z" transform="translate(-14.352 -30.418)" fill="#343434"/>
          <path id="Trazado_179556" data-name="Trazado 179556" d="M54.238,106.742a1.659,1.659,0,0,1,1.491,0Z" transform="translate(-15.484 -30.421)" fill="#343434"/>
          <path id="Trazado_179557" data-name="Trazado 179557" d="M58.115,25.035c1.072.42,2.14.85,3.218,1.253a2.4,2.4,0,0,1,.638.354c.158.242-.059.416-.121.613a1.269,1.269,0,0,0,1.5,1.668c.237-.047.456-.219.715-.1l1.856,2.318c-.647,1.054-.292,1.979.249,2.972A22.114,22.114,0,0,1,68.9,45.945a23.224,23.224,0,0,1-14,20.3A23.629,23.629,0,0,1,47.917,68,23.036,23.036,0,0,1,37.46,66.585a20.789,20.789,0,0,1-5.931-3.378,1.54,1.54,0,0,1-.4-.442A26.159,26.159,0,0,1,28.2,57.184a24.544,24.544,0,0,1-1.576-9.555,2.425,2.425,0,0,1,.27-1.148c.257-.259.6-.187.913-.235.933-.144,1.355-.549,1.342-1.3S28.712,43.8,27.8,43.679a1.082,1.082,0,0,1-.5-.133c-.207-.3.007-.574.071-.845a23.867,23.867,0,0,1,4.615-9.438c.206-.259.393-.593.821-.525a3.533,3.533,0,0,0,1.34,2.532Q39.1,40.172,44,45.127A3.5,3.5,0,0,0,46.829,46.3c1.884-.081,3.775-.021,5.663-.022a5.384,5.384,0,0,0,.744-.021,1.278,1.278,0,0,0,.028-2.551,4.709,4.709,0,0,0-.745-.026c-1.738,0-3.478-.019-5.217.009A2.117,2.117,0,0,1,45.655,43c-3.15-3.174-6.328-6.32-9.472-9.5A3.523,3.523,0,0,0,33.4,32.055c-.166-.3.076-.466.234-.633a22.916,22.916,0,0,1,6.686-4.905,26.931,26.931,0,0,1,3.3-1.373c.321-.106.659-.278.98.014a7.924,7.924,0,0,0-.073,2.133,1.21,1.21,0,0,0,1.582,1.037,1.2,1.2,0,0,0,.669-.442,2.559,2.559,0,0,0-.375-2.918c-.159-.125-.52-.174-.259-.519a23.582,23.582,0,0,1,9.323-.185,1.152,1.152,0,0,0,.292.033c.806.175,1.548.558,2.354.738" transform="translate(-7.597 -6.818)" fill="#ace4fe"/>
          <path id="Trazado_179558" data-name="Trazado 179558" d="M55.392,23.1c-.852.215-1.491-.339-2.209-.609-1.123-.229-2.131-.788-3.224-1.11a22.311,22.311,0,0,0-20.783,3.666,21.586,21.586,0,0,0-8.7,15.3A22.172,22.172,0,0,0,26.84,59a18.39,18.39,0,0,1,1.729,1.833,22.176,22.176,0,0,0,11.135,4.9,22.942,22.942,0,0,0,25.67-17.467,22.381,22.381,0,0,0-2.089-16c-.126-.241-.268-.474-.394-.715a1.627,1.627,0,0,1,.306-2.328c1.241-.374,1.706-.163,2.357.98A25.863,25.863,0,0,1,62.57,60.077a25.416,25.416,0,0,1-11.657,7.675,25.073,25.073,0,0,1-12.063.867A25.413,25.413,0,0,1,20.213,55.325a24.557,24.557,0,0,1-2.739-16.489A25.374,25.374,0,0,1,31.431,19.861,24.616,24.616,0,0,1,44.906,17.2a26.3,26.3,0,0,1,10.419,3A1.653,1.653,0,0,1,56.4,21.679,1.515,1.515,0,0,1,55.392,23.1" transform="translate(-4.875 -4.888)"/>
          <path id="Trazado_179559" data-name="Trazado 179559" d="M78.037,29.762a1.541,1.541,0,0,1-1.966-.014c-.635-.527-.675-1.263-.126-2.17.893-.567,1.574-.557,2.143.035s.545,1.238-.051,2.149" transform="translate(-21.571 -7.753)" fill="#020202"/>
          <path id="Trazado_179560" data-name="Trazado 179560" d="M27.547,11.454H21l3.28-5.723c.74,1.241,1.692,1.085,2.76.676A34.022,34.022,0,0,1,40.977,4.2,35.008,35.008,0,0,1,73.621,31.551C76.439,44.7,72.8,56.032,63.066,65.27A33.371,33.371,0,0,1,43.6,74.248,35.189,35.189,0,0,1,5.155,47.56a39.067,39.067,0,0,1-.927-6.248c-.027-.355.053-.5.427-.484.521.023,1.043.005,1.565.005,1,0,1,0,1.077.976a32.153,32.153,0,0,0,62.76,7.128c3.434-11.207,1.27-21.525-6.284-30.537A30.973,30.973,0,0,0,44.1,7.492,31.726,31.726,0,0,0,28.483,9.052c-1.058.377-1.3,1-.936,2.4" transform="translate(-1.206 -1.186)" fill="#36d18e"/>
          <path id="Trazado_179561" data-name="Trazado 179561" d="M35.186,35.936l.624-.675a1.757,1.757,0,0,1,2.128.559c3.451,3.467,6.919,6.918,10.367,10.388a1.472,1.472,0,0,0,1.164.487c1.986-.027,3.973-.025,5.96-.006A1.485,1.485,0,0,1,57,48.7a1.46,1.46,0,0,1-1.455.96c-2.434.011-4.867.006-7.3,0a1.83,1.83,0,0,1-1.308-.622q-5.61-5.611-11.222-11.219a1.759,1.759,0,0,1-.525-1.887" transform="translate(-10.019 -10.019)"/>
          <path id="Trazado_179562" data-name="Trazado 179562" d="M26.452,54.3a2.152,2.152,0,0,1-1.085-.412,1.413,1.413,0,0,1-.476-1.458,1.431,1.431,0,0,1,1.155-1.1,5.763,5.763,0,0,1,.732-.064c.245.011.491.011.735.036a1.448,1.448,0,0,1,1.375,1.378A1.4,1.4,0,0,1,27.695,54.2a10.093,10.093,0,0,1-1.243.1" transform="translate(-7.091 -14.636)" fill="#010101"/>
          <path id="Trazado_179563" data-name="Trazado 179563" d="M78.5,54.31c-1.5,0-2.149-.454-2.194-1.39a1.692,1.692,0,0,1,.062-.584c.239-.757.969-1.068,2.314-1.008a1.562,1.562,0,0,1,1.635,1.22,1.464,1.464,0,0,1-1.222,1.728,3.836,3.836,0,0,1-.6.034" transform="translate(-21.782 -14.65)" fill="#000101"/>
          <path id="Trazado_179564" data-name="Trazado 179564" d="M51.3,78.283c0-1.283.45-1.926,1.385-1.985s1.564.6,1.6,1.708c.046,1.542-.476,2.353-1.508,2.345-.962-.007-1.475-.726-1.473-2.069" transform="translate(-14.645 -21.78)" fill="#000101"/>
          <path id="Trazado_179565" data-name="Trazado 179565" d="M51.61,25.407a1.813,1.813,0,0,1,1.5-.57A2.469,2.469,0,0,1,54,28.287a1.382,1.382,0,0,1-1.423.577,1.3,1.3,0,0,1-1.146-1.005,3.507,3.507,0,0,1,.176-2.451" transform="translate(-14.643 -7.087)" fill="#000101"/>
        </g>
      </g>
    </g>
  </g>
</svg>
