<svg xmlns="http://www.w3.org/2000/svg" xmlns:xlink="http://www.w3.org/1999/xlink" width="120" height="117" viewBox="0 0 120 117">
  <defs>
    <clipPath id="clip-path">
      <rect id="Rect치ngulo_44994" data-name="Rect치ngulo 44994" width="98.568" height="95.775" fill="none"/>
    </clipPath>
  </defs>
  <g id="_45" data-name="45" transform="translate(-351.661 -4319.465)">
    <g id="Grupo_158812" data-name="Grupo 158812" transform="translate(352 4319)">
      <g id="Grupo_158146" data-name="Grupo 158146" transform="translate(-0.339 0.465)">
        <rect id="Rect치ngulo_36141" data-name="Rect치ngulo 36141" width="120" height="117" fill="#ffe891"/>
      </g>
      <g id="Grupo_174309" data-name="Grupo 174309" transform="translate(10.661 10.465)">
        <g id="Grupo_174309-2" data-name="Grupo 174309" clip-path="url(#clip-path)">
          <path id="Trazado_179566" data-name="Trazado 179566" d="M34.652,87.951c1.225.406,1.51.748,1.492,2-.048,3.267.152,6.537-.126,9.8A16.514,16.514,0,0,1,3.53,101.706c-.068-.266,0-.6-.309-.768A7.181,7.181,0,0,1,0,96.609v-2.5c.226-.509.435-1.028.682-1.526A6.683,6.683,0,0,1,4.6,89.287a3.525,3.525,0,0,1,2.768-.37,4.637,4.637,0,0,1,2.146.787,1.737,1.737,0,0,0,2.28-.163,3.326,3.326,0,0,0,1.42-2.8c0-.224,0-.448,0-.672.04-1.586.6-2.147,2.221-2.243,4.359-.014,8.72.056,13.078-.025a11.339,11.339,0,0,0,11-8.416,1.341,1.341,0,0,0,.055-1.024c-.286-.311-.662-.2-1-.2-6.6,0-13.207-.036-19.811.019-3.621.031-6.916.956-9.429,3.778A10.8,10.8,0,0,0,6.44,84.713a3.538,3.538,0,0,1-.393,1.667c-.335.564-.775.953-1.5.668-1.162-.308-1.474-.74-1.44-2A14.493,14.493,0,0,1,17.026,71.056c8.141-.144,16.287-.046,24.43-.04a1.476,1.476,0,0,1,1.678,1.734,14.308,14.308,0,0,1-7.593,12.525l-.9.523a1.727,1.727,0,0,1-.949.61,14.143,14.143,0,0,1-4.888.865c-3.617-.042-7.236.006-10.853-.027a1.231,1.231,0,0,0-1.442,1.117,6.884,6.884,0,0,1-4.947,5.143,3.749,3.749,0,0,1-3.519-.613,2.91,2.91,0,0,0-4.277.864,3.022,3.022,0,0,0,.755,4.181,3.5,3.5,0,0,0,.653.4A2.243,2.243,0,0,1,6.487,100.1a13.762,13.762,0,0,0,3.864,7.377A11.522,11.522,0,0,0,12.325,109,13.233,13.233,0,0,0,32.783,99.49a63.7,63.7,0,0,0,.064-6.441c.012-1.122-.049-2.246.028-3.366.08-1.169.8-1.836,1.778-1.733" transform="translate(0 -21.755)"/>
          <path id="Trazado_179567" data-name="Trazado 179567" d="M102.6,2.177h1.7a3.478,3.478,0,0,0,3.418,1.243,10.179,10.179,0,0,1,1.155,0,3.141,3.141,0,0,1,3.421,3.417c.034,1.8.008,3.592.009,5.389,0,4.01.007,8.02,0,12.03-.006,2.805-1.187,4-3.976,4.009-6.223.012-12.446,0-18.67,0-.384,0-.77-.017-1.154.021a1.318,1.318,0,0,0-1.395,1.4c-.07.9.01,1.8-.046,2.694-.018.287-.028.644-.32.755s-.524-.171-.721-.378q-1.6-1.671-3.074-3.444a2.71,2.71,0,0,0-2.251-1.056q-3.9.033-7.795,0c-2.619-.017-3.908-1.282-3.92-3.916-.024-5.678-.009-11.356-.007-17.034a5.382,5.382,0,0,1,.318-1.888,2.826,2.826,0,0,1,2.673-1.995c.417-.024.834-.015,1.251-.015,8.758,0,17.514-.015,26.272.016,1.251,0,2.359-.132,3.115-1.254" transform="translate(-21.138 -0.667)" fill="#00c6a8"/>
          <path id="Trazado_179568" data-name="Trazado 179568" d="M47.712,15.8H49.76c.436.411.309.954.311,1.451.014,4.008-.023,8.017.018,12.025a5.405,5.405,0,0,0,5.506,5.47c.9.006,1.8-.013,2.694.009.376.009.784-.04,1.052.331a9.575,9.575,0,0,0-.1,2.227,4.011,4.011,0,0,0-1.4,2.421,3.062,3.062,0,0,1-3,2.129c-2.662.038-5.325.053-7.986-.006a3.286,3.286,0,0,0-2.9,1.339A38.854,38.854,0,0,1,41.2,46.276c-.222.226-.458.586-.776.475-.372-.13-.338-.58-.353-.929-.031-.673,0-1.347-.018-2.02-.044-1.414-.51-1.9-1.943-1.919-3.176-.033-6.351-.01-9.526-.012-3.336,0-6.672.011-10.007,0-2.563-.012-3.727-1.16-3.733-3.7q-.021-8.66,0-17.32c0-2.691,1.122-3.819,3.8-3.822,8.66-.009,17.32-.02,25.979.016,1.252.006,2.351-.107,3.09-1.248" transform="translate(-4.547 -4.841)" fill="#3fabc8"/>
          <path id="Trazado_179569" data-name="Trazado 179569" d="M74.776,30.24c-1.342-.01-2.685.007-4.026-.035a5.66,5.66,0,0,1-5.517-5.633c-.04-4.538-.028-9.078-.038-13.617.009-1.6.021-3.205.027-4.808A5.76,5.76,0,0,1,71.278.019c3.977-.031,7.953-.007,11.93-.007q8.082,0,16.163,0c1.369,0,1.743.279,2.074,1.5-.328,1.212-.716,1.5-2.073,1.5-9.208,0-18.417.051-27.625-.03-2.771-.024-3.627,1.554-3.606,3.623.059,5.711.019,11.423.021,17.134,0,2.547,1.008,3.549,3.561,3.549,2.695,0,5.391.023,8.086-.013a2.3,2.3,0,0,1,1.918.87c1.228,1.425,2.5,2.816,3.914,4.406,0-1.268,0-2.309,0-3.348.008-1.418.5-1.912,1.9-1.913q9.914-.005,19.829,0c2.414,0,3.456-1.041,3.456-3.45q0-8.76,0-17.519c0-2.257-1.035-3.3-3.282-3.306-.8,0-1.6,0-2.406,0-1.242-.01-1.605-.286-2-1.5.4-1.219.742-1.5,2-1.492a26.39,26.39,0,0,1,3.746.1,5.6,5.6,0,0,1,4.858,5.47q.059,9.522,0,19.046a5.564,5.564,0,0,1-5.576,5.57c-6.187.051-12.376.036-18.564.006-.782,0-1.052.164-1.016.988.069,1.6.009,3.206.024,4.809.008.788-.127,1.506-.949,1.816a1.648,1.648,0,0,1-1.927-.691c-1.863-2.119-3.762-4.205-5.615-6.332a1.508,1.508,0,0,0-1.311-.583c-1.345.044-2.692.023-4.039.028" transform="translate(-19.982 0)"/>
          <path id="Trazado_179570" data-name="Trazado 179570" d="M15.767,99.885c2.806-.955,4.644-2.76,5.029-5.8.076-.6.463-.5.834-.5,3.046,0,6.092-.046,9.137.011a19.686,19.686,0,0,0,8.284-1.244q.007,1.076.014,2.151c-1.249.415-1.492.749-1.494,2.1,0,2.565.012,5.129,0,7.694a13.466,13.466,0,0,1-14.623,13.684,11.709,11.709,0,0,1-6.407-2.291,7.874,7.874,0,0,1-1.384-3.322,21.617,21.617,0,0,1,.024-11.431c.107-.4.172-.822.592-1.045" transform="translate(-4.412 -28.305)" fill="#fbd1bd"/>
          <path id="Trazado_179571" data-name="Trazado 179571" d="M85.8,81.17a1.711,1.711,0,0,1-1.435-1.458c-1.639-6.264,1.544-11.7,7.894-12.76A40.864,40.864,0,0,1,111.6,68.259c.922.3,1.509.838,1.295,1.912-.117,1.107-.859,1.574-2.057,1.2a32.2,32.2,0,0,0-4.454-1.123,26.749,26.749,0,0,0-4.763-.41,26.907,26.907,0,0,0-9.176.353A6.3,6.3,0,0,0,87.2,76.914c.021.712.251.965.972.9a10.144,10.144,0,0,0,5.083-1.565c1.107-.768,1.637-.677,2.626.267a16.631,16.631,0,0,0,3.348,2.868,12.178,12.178,0,0,0,8.411,1.018,5.791,5.791,0,0,1,1.227-.222,1.667,1.667,0,0,1,1.619,1.785c.028.751.259,1.074,1.044.881a2.587,2.587,0,0,1,1.147.029,6.154,6.154,0,0,1,4.6,2.961,5.963,5.963,0,0,1-1.07,7.7,4.014,4.014,0,0,0-1.592,2.392,14.86,14.86,0,0,1-5.084,7.524,1.252,1.252,0,0,1-.834.42,17.4,17.4,0,0,1-7.269,2.75A15.383,15.383,0,0,1,84.653,94.136c-.508-3.179-.178-6.392-.217-9.59-.009-.736.51-1.13,1.18-1.329a1.449,1.449,0,0,1,1.954,1.43c.081,1.087,0,2.18.031,3.269a38.136,38.136,0,0,0,.174,5.278,11.976,11.976,0,0,0,9.891,10.088,11.247,11.247,0,0,0,7.812-1.293,11.544,11.544,0,0,0,6.092-8.068,3.634,3.634,0,0,1,1.786-2.556,2.609,2.609,0,0,0,.931-3.735,2.737,2.737,0,0,0-3.88-.759c-.215.138-.41.308-.639.425a1.735,1.735,0,0,1-2.635-1.375,5.7,5.7,0,0,1-.031-.671c-.028-1.224-.1-1.277-1.376-1.034A13.844,13.844,0,0,1,95.2,80.747a1.923,1.923,0,0,0-2.294-.39A16.6,16.6,0,0,1,86.8,81.4a1.5,1.5,0,0,1-1.006-.23" transform="translate(-25.726 -20.338)"/>
          <path id="Trazado_179572" data-name="Trazado 179572" d="M46.538,15.163c-.264,1.2-.66,1.516-1.934,1.516q-13.572,0-27.144,0c-2.524,0-3.5.968-3.5,3.471q0,8.759,0,17.518c0,2.245,1.046,3.28,3.3,3.281H36.993c1.7,0,2.146.454,2.15,2.182,0,.947,0,1.895,0,3.092,1.379-1.544,2.615-2.874,3.782-4.261a2.628,2.628,0,0,1,2.239-1.031c2.759.049,5.518.021,8.278.016a2.763,2.763,0,0,0,3.124-2.672,1.637,1.637,0,0,1,1.5-1.6c1.243.321,1.637.9,1.457,2.153A5.644,5.644,0,0,1,54,43.879c-2.594.089-5.194.054-7.791.022a2,2,0,0,0-1.724.755c-1.777,2.066-3.625,4.07-5.421,6.119a1.679,1.679,0,0,1-2.008.7c-.807-.327-.927-1.058-.918-1.843.017-1.571-.059-3.146.03-4.712.052-.906-.276-1.031-1.076-1.026q-9,.049-17.99.012a5.751,5.751,0,0,1-5.934-4.339,7.03,7.03,0,0,1-.162-1.814q-.005-8.947,0-17.894c.007-3.779,2.349-6.124,6.106-6.126q13.71-.009,27.418,0c1.363,0,1.682.234,2,1.427" transform="translate(-3.373 -4.209)"/>
          <path id="Trazado_179573" data-name="Trazado 179573" d="M106.384,108.017c-3.6,2.336-9.274,2.049-13.029-.692a12.246,12.246,0,0,1-5.261-10.25c-.025-2.048,0-4.1-.006-6.144,0-1.345-.414-1.781-1.728-1.872.355-.656.125-1.364.179-2.047a17.863,17.863,0,0,0,8.1-1.529c.3-.152.472-.006.66.187a14.285,14.285,0,0,0,11.221,4.171c.517.006.487.45.551.755a43.065,43.065,0,0,1,.931,7.307,26.778,26.778,0,0,1-.584,7.983,4.919,4.919,0,0,1-1.039,2.13" transform="translate(-26.469 -26.181)" fill="#fbd1bd"/>
          <path id="Trazado_179574" data-name="Trazado 179574" d="M109.365,71a26.756,26.756,0,0,1,9.106,1.486c1.184.408,1.694.192,2.21-.9.406.7,1.32.714,1.784,1.334.006,1.46,1.04,2.282,1.928,3.233a17.512,17.512,0,0,1,3.858,7.536,32.121,32.121,0,0,1,1.167,8.83,45.443,45.443,0,0,1-3.065,16.139c-.359.925-.712,1.856-1.159,2.741-.13.26-.158.871-.755.486a5.093,5.093,0,0,1-.135-2.28,61.329,61.329,0,0,0-.5-13.483,2.751,2.751,0,0,1,.021-1.233,6.422,6.422,0,0,0,1.913-4.456,5.891,5.891,0,0,0-4.9-5.782,1.637,1.637,0,0,1-.343-.15.931.931,0,0,0-.08-.653,26.871,26.871,0,0,0-9.584-11.635c-.374-.245-.776-.452-1.143-.71-.17-.119-.422-.209-.326-.508" transform="translate(-33.513 -21.762)" fill="#5b3d2d"/>
          <path id="Trazado_179575" data-name="Trazado 179575" d="M127.33,112.615a37.571,37.571,0,0,0,2.7-6.955,40.5,40.5,0,0,0,1.852-11.8c.016-5.119-.638-10.156-3.287-14.711a11.892,11.892,0,0,0-2.54-3.115,2.042,2.042,0,0,1-.834-2.5c1.323-.81,1.678-.779,2.845.3a20.213,20.213,0,0,1,5.794,10.828c2.212,9.957.509,19.453-3.538,28.642-.578,1.313-1.277,2.576-1.972,3.834a1.488,1.488,0,0,1-2.319.706,14.852,14.852,0,0,1-7.53-8.576c-.366-1.045-.131-1.553.884-2.094.562-.524,1.042-.235,1.508.157a3.66,3.66,0,0,1,.921,1.653,11.885,11.885,0,0,0,3.714,4.781c.569.484.938.392,1.224-.291a1.653,1.653,0,0,1,.575-.861" transform="translate(-36.271 -22.364)"/>
          <path id="Trazado_179576" data-name="Trazado 179576" d="M6.556,88.343c1.207-.246,1.467-.583,1.556-2.013A11.5,11.5,0,0,1,17.66,75.463a40.035,40.035,0,0,1,7-.211c5.54-.039,11.079-.014,16.619-.008.241,0,.515-.106.721.126-.428.4-.966.281-1.465.282-4.71.009-9.424.135-14.126-.048-2.461-.1-4.069,1.071-5.553,2.672a12.683,12.683,0,0,0-3.127,6.289,1.344,1.344,0,0,1-.319.786c-1.531.118-1.907.537-1.913,2.129q-.012,3.306-2.585,4.137a.906.906,0,0,1-.906-.037,6.553,6.553,0,0,0-5.4-1l-.05-2.239" transform="translate(-2.009 -23.05)" fill="#e1a01e"/>
          <path id="Trazado_179577" data-name="Trazado 179577" d="M127.729,122.574c-1.048,2.461-.759,2.352-2.686.7a11.053,11.053,0,0,1-3.317-4.934,1.509,1.509,0,0,0-1.939-1.2,4.583,4.583,0,0,0-.146-1.277,15.4,15.4,0,0,0,5.768-8.307,3.055,3.055,0,0,1,1.571-2.093,22.814,22.814,0,0,1,.716,4.775,56.571,56.571,0,0,1,.2,8.425c-.07,1.305-.16,2.608-.164,3.916" transform="translate(-36.67 -32.323)" fill="#6b4b3d"/>
          <path id="Trazado_179578" data-name="Trazado 179578" d="M22.208,85.415a11.664,11.664,0,0,1,2.648-6.549,15.2,15.2,0,0,1,1.465-1.639,6.846,6.846,0,0,1,5.309-1.816c5.052.128,10.111.029,15.166.021a10.4,10.4,0,0,1-3.517,6.9A10.659,10.659,0,0,1,36.025,85.4c-4.6.089-9.211.017-13.817.014" transform="translate(-6.807 -23.112)" fill="#f8cd55"/>
          <path id="Trazado_179579" data-name="Trazado 179579" d="M12.661,102.634a27.247,27.247,0,0,0-.985,4.861,23.371,23.371,0,0,0,1.754,10.937,12.739,12.739,0,0,1-5.737-8.405,2.975,2.975,0,0,0-1.7-2.422,3.232,3.232,0,0,1-1.273-4.549A3.212,3.212,0,0,1,9.358,101.9a3.809,3.809,0,0,0,3.3.737" transform="translate(-1.305 -31.054)" fill="#f9b897"/>
          <path id="Trazado_179580" data-name="Trazado 179580" d="M88.312,31.336q-5.048,0-10.1,0a1.665,1.665,0,0,1-1.746-.922,1.408,1.408,0,0,1,.859-1.94,3.765,3.765,0,0,1,1.136-.127q9.856-.011,19.713,0a5.723,5.723,0,0,1,.673.015,1.482,1.482,0,0,1-.058,2.963c-.9.044-1.794.013-2.692.013H88.312" transform="translate(-23.398 -8.687)" fill="#000101"/>
          <path id="Trazado_179581" data-name="Trazado 179581" d="M87.9,19.638q4.948,0,9.9,0a1.484,1.484,0,0,1,1.474.867,1.353,1.353,0,0,1-.144,1.45,1.492,1.492,0,0,1-1.334.612q-9.944-.008-19.888-.01a1.459,1.459,0,1,1,0-2.911c3.331-.016,6.661-.006,9.992-.006" transform="translate(-23.399 -6.018)"/>
          <path id="Trazado_179582" data-name="Trazado 179582" d="M105.6,10.835h7.6a7.478,7.478,0,0,1,.769.011,1.463,1.463,0,0,1,1.465,1.476,1.446,1.446,0,0,1-1.444,1.492c-.477.044-.961.015-1.442.015H98.213c-.193,0-.385,0-.578,0-1.146-.026-1.854-.62-1.828-1.532.024-.865.723-1.452,1.807-1.458,2.662-.012,5.325,0,7.987,0" transform="translate(-29.365 -3.32)" fill="#000101"/>
          <path id="Trazado_179583" data-name="Trazado 179583" d="M82.069,13.829c-1.313,0-2.625.012-3.936,0-1.108-.014-1.764-.564-1.787-1.456-.023-.93.653-1.525,1.809-1.531q3.936-.02,7.871,0c1.145,0,1.854.6,1.845,1.506S87.162,13.817,86,13.826c-1.311.011-2.623,0-3.935,0" transform="translate(-23.4 -3.319)" fill="#000101"/>
          <path id="Trazado_179584" data-name="Trazado 179584" d="M116.493,22.555c-.834,0-1.668.021-2.5,0a1.456,1.456,0,1,1-.01-2.909q2.548-.036,5.1,0a1.452,1.452,0,1,1,.01,2.9c-.865.031-1.731.007-2.6.008" transform="translate(-34.469 -6.015)"/>
          <path id="Trazado_179585" data-name="Trazado 179585" d="M35.917,32.427q6.3,0,12.609,0c1.11,0,1.761.556,1.75,1.467a1.355,1.355,0,0,1-1.169,1.426,4.693,4.693,0,0,1-.959.048q-12.321,0-24.641,0c-.1,0-.192,0-.288,0-1.154-.026-1.851-.608-1.819-1.516.031-.885.7-1.425,1.812-1.427q6.352-.008,12.7,0" transform="translate(-6.559 -9.939)"/>
          <path id="Trazado_179586" data-name="Trazado 179586" d="M42.051,44.151c-1.861,0-3.721.006-5.581,0-1.185-.006-1.825-.549-1.812-1.508.013-.934.6-1.43,1.771-1.433q5.63-.015,11.259,0c1.1,0,1.763.593,1.741,1.485s-.709,1.449-1.8,1.455c-1.861.01-3.721,0-5.582,0" transform="translate(-10.622 -12.628)"/>
          <path id="Trazado_179587" data-name="Trazado 179587" d="M27.106,26.639c-1.311,0-2.624.013-3.935,0-1.09-.015-1.764-.592-1.773-1.476s.668-1.5,1.745-1.5q4.031-.033,8.062,0a1.53,1.53,0,0,1,1.721,1.524c-.022.888-.684,1.442-1.789,1.456-1.344.015-2.687,0-4.031,0" transform="translate(-6.559 -7.245)" fill="#000101"/>
          <path id="Trazado_179588" data-name="Trazado 179588" d="M48.018,26.638c-1.316,0-2.631.014-3.946,0a1.545,1.545,0,0,1-1.732-1.421c-.042-.906.592-1.542,1.687-1.554q4.09-.044,8.181,0a1.437,1.437,0,0,1,1.62,1.509c-.013.885-.626,1.446-1.672,1.463-1.379.022-2.759.006-4.139.006" transform="translate(-12.977 -7.245)" fill="#000101"/>
          <path id="Trazado_179589" data-name="Trazado 179589" d="M24.909,44.146c-.673,0-1.347.028-2.018-.008A1.486,1.486,0,0,1,21.4,42.683a1.441,1.441,0,0,1,1.461-1.464c1.441-.036,2.884-.04,4.325.006a1.343,1.343,0,0,1,1.373,1.425,1.461,1.461,0,0,1-1.342,1.488,1.36,1.36,0,0,1-.192.009H24.909" transform="translate(-6.559 -12.625)"/>
          <path id="Trazado_179590" data-name="Trazado 179590" d="M29.179,120.277c-3.232-.252-5.649-1.347-7.279-3.854-.637-.979-.547-1.837.221-2.353s1.567-.3,2.24.711a5.56,5.56,0,0,0,4.236,2.463c.191.021.385.02.573.054a1.5,1.5,0,0,1,1.379,1.649,1.45,1.45,0,0,1-1.369,1.331" transform="translate(-6.583 -34.878)"/>
          <path id="Trazado_179591" data-name="Trazado 179591" d="M38.637,101.82a10.731,10.731,0,0,1,.01-1.345A1.415,1.415,0,0,1,40.1,99.093a1.365,1.365,0,0,1,1.478,1.341,16.876,16.876,0,0,1,.008,2.687,1.386,1.386,0,0,1-1.537,1.372,1.42,1.42,0,0,1-1.407-1.425,11.028,11.028,0,0,1-.008-1.249h0" transform="translate(-11.836 -30.372)" fill="#020101"/>
          <path id="Trazado_179592" data-name="Trazado 179592" d="M32.282,101.849a13.155,13.155,0,0,1-.009,1.344,1.407,1.407,0,0,1-1.509,1.3,1.311,1.311,0,0,1-1.382-1.308,23.3,23.3,0,0,1,0-2.784,1.347,1.347,0,0,1,1.395-1.313,1.427,1.427,0,0,1,1.5,1.324c.047.476.009.96.008,1.44" transform="translate(-8.993 -30.368)"/>
          <path id="Trazado_179593" data-name="Trazado 179593" d="M102.9,70.9a26.378,26.378,0,0,1,6.316,5.067,30.556,30.556,0,0,1,4.951,7.7c.1.2.456.6-.133.738-.1,0-.193-.007-.289,0-.635.046-1.379.324-1.877.086-.626-.3-.135-1.162-.315-1.755a1.448,1.448,0,0,0-1.846-.916,13.6,13.6,0,0,1-6.469.2,10.914,10.914,0,0,1-5.934-3.7c-1.174-1.332-1.452-1.34-2.89-.343-1.713,1.188-3.712,1.318-5.687,1.5-.528.047-.427-.463-.447-.79-.25-3.932,1.6-6.5,5.455-7.441A26.859,26.859,0,0,1,102.9,70.9" transform="translate(-27.051 -21.662)" fill="#6b4b3d"/>
          <path id="Trazado_179594" data-name="Trazado 179594" d="M115.234,109.892a22.817,22.817,0,0,0,1.206-4.5,38.124,38.124,0,0,0,.06-7.237,37.07,37.07,0,0,0-.895-5.936c-.044-.191-.057-.378-.23-.5a1.513,1.513,0,0,1,.27-.091c1.3-.189,1.3-.188,1.3,1.087a8.01,8.01,0,0,0,.017,1.057,1.468,1.468,0,0,0,2.248,1.073,6.067,6.067,0,0,0,.53-.412,3,3,0,0,1,4.37.745,2.9,2.9,0,0,1-1.116,4.2,2.635,2.635,0,0,0-1.544,2.1,11.755,11.755,0,0,1-6.22,8.415" transform="translate(-35.319 -28.056)" fill="#f9b897"/>
          <path id="Trazado_179595" data-name="Trazado 179595" d="M102.368,112.106a1.509,1.509,0,0,1-1.6-1.339,1.458,1.458,0,0,1,1.31-1.6c.406-.083.828-.087,1.232-.176a4.982,4.982,0,0,0,3.292-2.273,1.464,1.464,0,0,1,2.142-.525,1.481,1.481,0,0,1,.335,2.115,8,8,0,0,1-6.716,3.8" transform="translate(-30.884 -32.464)"/>
          <path id="Trazado_179596" data-name="Trazado 179596" d="M95.986,94.959a8.572,8.572,0,0,1-.012,1.342,1.371,1.371,0,0,1-1.445,1.267A1.343,1.343,0,0,1,93.081,96.3a12.6,12.6,0,0,1,0-2.686,1.333,1.333,0,0,1,1.446-1.258,1.356,1.356,0,0,1,1.448,1.256,8.572,8.572,0,0,1,.012,1.342" transform="translate(-28.507 -28.308)" fill="#020101"/>
          <path id="Trazado_179597" data-name="Trazado 179597" d="M101.651,94.848a7.332,7.332,0,0,1,.01-1.152,1.4,1.4,0,0,1,1.485-1.334,1.318,1.318,0,0,1,1.425,1.273,14.539,14.539,0,0,1,.012,2.589,1.356,1.356,0,0,1-1.47,1.343,1.407,1.407,0,0,1-1.457-1.374,10.107,10.107,0,0,1-.01-1.345Z" transform="translate(-31.148 -28.309)" fill="#020101"/>
        </g>
      </g>
    </g>
  </g>
</svg>
