<svg xmlns="http://www.w3.org/2000/svg" xmlns:xlink="http://www.w3.org/1999/xlink" width="120" height="117" viewBox="0 0 120 117">
  <defs>
    <clipPath id="clip-path">
      <rect id="Rect치ngulo_44995" data-name="Rect치ngulo 44995" width="99.583" height="82.096" fill="none"/>
    </clipPath>
  </defs>
  <g id="_46" data-name="46" transform="translate(-352.161 -4319)">
    <g id="Grupo_158812" data-name="Grupo 158812" transform="translate(352 4319)">
      <g id="Grupo_158146" data-name="Grupo 158146" transform="translate(0.161)">
        <rect id="Rect치ngulo_36141" data-name="Rect치ngulo 36141" width="120" height="117" fill="#ffe891"/>
      </g>
      <g id="Grupo_174311" data-name="Grupo 174311" transform="translate(10.161 17)">
        <g id="Grupo_174310" data-name="Grupo 174310" clip-path="url(#clip-path)">
          <path id="Trazado_179598" data-name="Trazado 179598" d="M134.631,78.754a4.193,4.193,0,0,1,1.683,4.314c-.081.384.138.634.311.919a11.811,11.811,0,0,1-10.445,18.172,5.488,5.488,0,0,1-2.085-.306,6.439,6.439,0,0,0-4.442.025,15.961,15.961,0,0,1-19.6-13.713,1.592,1.592,0,0,1-.032-.3c.093-1.1-.338-1.54-1.51-1.733a4.049,4.049,0,0,1,.755-7.967c.211-.017.647.229.592-.247-.059-.516-.482-.189-.717-.158-.5.066-.98.235-1.476.322a1.185,1.185,0,0,1-1.54-.932,1.107,1.107,0,0,1,1.056-1.426c1.006-.082,1.1-.583,1.111-1.445a77.151,77.151,0,0,1,.155-8.481,18.75,18.75,0,0,1,36.929-1.374,22.8,22.8,0,0,1,.405,5.024c0,2.527-.008,5.054.012,7.582.007.823-.19,1.474-1.165,1.727" transform="translate(-38.99 -20.249)"/>
          <path id="Trazado_179599" data-name="Trazado 179599" d="M36.673,77.629a10.133,10.133,0,0,1,2.113.386A4.1,4.1,0,0,1,41.2,82.083a3.949,3.949,0,0,1-3.233,3.654c-.974.137-1.164.513-1.263,1.418-.831,7.564-5.7,12.962-12.966,14.474a16.055,16.055,0,0,1-18.9-13.8c-.011-.1-.031-.2-.033-.3-.013-1.02-.166-1.7-1.519-1.849C1.6,85.491.364,83.733.248,81.975A3.94,3.94,0,0,1,2.8,78.007c.8-.273.664-.594.422-1.142A37.071,37.071,0,0,1,.114,66.572,9.754,9.754,0,0,1,.6,61.6a4.539,4.539,0,0,1,2.225-2.514,4.831,4.831,0,0,0,1.647-1.41,12.5,12.5,0,0,1,11.122-4.754,1.956,1.956,0,0,0,1.068-.167,7.1,7.1,0,0,1,6.239-.142,1.3,1.3,0,0,0,1.048.022A7.316,7.316,0,0,1,32.3,54.709a7.608,7.608,0,0,0,3.022,2.2,5.3,5.3,0,0,1,3.476,5c.036.573.18.778.731.933a4.075,4.075,0,0,1,2.819,5.537c-1.175,3.466-2.657,6.743-5.68,9.248" transform="translate(0 -21.225)"/>
          <path id="Trazado_179600" data-name="Trazado 179600" d="M69.987,0q7.429,0,14.858,0A5.325,5.325,0,0,1,90.453,5.57q.018,8.034,0,16.07a5.276,5.276,0,0,1-5.487,5.466c-4.851.011-9.7.023-14.555-.015-.864-.007-1.158.159-1.218,1.114a10.373,10.373,0,0,1-6.687,9.4c-.586.257-1.21.51-1.812.032s-.435-1.151-.319-1.776a14.628,14.628,0,0,0,.146-5.418c-.433-2.308-1.622-3.31-3.946-3.335a11.813,11.813,0,0,1-3.015-.176A5.245,5.245,0,0,1,49.6,21.915c-.025-5.558-.036-11.117,0-16.676A5.266,5.266,0,0,1,54.927.01C59.947-.01,64.967,0,69.987,0" transform="translate(-20.252 0)"/>
          <path id="Trazado_179601" data-name="Trazado 179601" d="M99.089,51.329c-1.517,0-3.033.008-4.55,0-1.006-.007-1.523-.431-1.523-1.211s.516-1.208,1.523-1.21c3.033-.008,6.067,0,9.1-.008.829,0,1.386.318,1.483,1.169.085.739-.538,1.252-1.482,1.26-1.517.013-3.033,0-4.55,0" transform="translate(-37.994 -19.973)"/>
          <path id="Trazado_179602" data-name="Trazado 179602" d="M86.707,51.333c-1.079,0-1.633-.4-1.647-1.192-.014-.81.534-1.233,1.6-1.236,1.052,0,1.652.424,1.668,1.191s-.586,1.234-1.623,1.237" transform="translate(-34.744 -19.976)" fill="#294369"/>
          <path id="Trazado_179603" data-name="Trazado 179603" d="M107.047,95.438c0-1.886.022-3.47-.013-5.053a.781.781,0,0,1,.648-.922,39.226,39.226,0,0,0,15.668-8.452c.647-.592.764-.02,1,.333,2.157,3.189,4.652,6.1,8.131,7.832a2.975,2.975,0,0,1,1.9,3.379c-.193,2.852.191,5.726-.214,8.575a13.65,13.65,0,0,1-26.716,1.244c-.6-2.4-.328-4.823-.407-6.936" transform="translate(-43.72 -32.986)" fill="#fed7b6"/>
          <path id="Trazado_179604" data-name="Trazado 179604" d="M136.9,77.693a16.339,16.339,0,0,1-7.61-3.992,24.7,24.7,0,0,1-4.472-5.436.824.824,0,0,1,.092-1.136,24.543,24.543,0,0,0,3.569-5.945,1.374,1.374,0,0,0-.566-1.956c-.639-.3-1.3.081-1.682,1.015a22.1,22.1,0,0,1-5.831,8.135A35.1,35.1,0,0,1,109.335,74.9q-2.119.814-4.3,1.452c-.622.181-.747,0-.736-.589.03-1.584.025-3.169,0-4.753-.007-.49.151-.681.647-.807,1.3-.329,2.583-.734,3.862-1.143.954-.306,1.351-.916,1.076-1.607-.347-.874-.992-.976-1.817-.692-.952.328-1.932.572-2.885.9-.587.2-.756-.007-.644-.546A16.4,16.4,0,0,1,112.233,56a16.23,16.23,0,0,1,9.247-2.338c.789.029.941.216.594.939a22.572,22.572,0,0,1-9.514,10.129,5.908,5.908,0,0,0-.871.5c-.526.432-.9.946-.458,1.653a1.172,1.172,0,0,0,1.679.387,23.461,23.461,0,0,0,4.4-2.83,23.725,23.725,0,0,0,7.282-9.632c.2-.476.441-.544.934-.376a15.821,15.821,0,0,1,11.14,12.752c.548,2.861.128,5.78.227,8.671.02.6,0,1.2,0,1.838" transform="translate(-42.604 -21.912)" fill="#6d7485"/>
          <path id="Trazado_179605" data-name="Trazado 179605" d="M147.383,124.72c-.413-.1-1.146.267-1.329-.223-.172-.462.586-.7.934-1a15.792,15.792,0,0,0,5.371-9.192,10.99,10.99,0,0,0,.316-2.073c.005-.648.261-.9.85-.975a1.674,1.674,0,0,0,.771-.2c1.025-.761,1.4-.159,1.765.729a9.413,9.413,0,0,1-8.678,12.931" transform="translate(-59.649 -45.223)" fill="#4a5160"/>
          <path id="Trazado_179606" data-name="Trazado 179606" d="M101.577,103.7a5.584,5.584,0,0,1-.006.7c-.039.309.192.746-.194.9a1.178,1.178,0,0,1-1.115-.309,1.645,1.645,0,0,1-.458-2.156,1.216,1.216,0,0,1,1.4-.732c.651.153.288.713.37,1.091a2.41,2.41,0,0,1,.006.5" transform="translate(-40.677 -41.693)" fill="#ecc396"/>
          <path id="Trazado_179607" data-name="Trazado 179607" d="M157.314,103.723a5.739,5.739,0,0,1,.005-.7c.041-.328-.2-.774.328-.923a1.092,1.092,0,0,1,1.092.325,1.7,1.7,0,0,1-.357,2.717c-.785.418-1.055.261-1.067-.62,0-.266,0-.533,0-.8" transform="translate(-64.252 -41.688)" fill="#ebc296"/>
          <path id="Trazado_179608" data-name="Trazado 179608" d="M19.978,75.979a3.623,3.623,0,0,0,.828-.57c1.159-1.416,2.467-1.378,4.131-.858a10.929,10.929,0,0,0,8.221-.988c.967-.473,1.893-1.026,2.864-1.491,3.164-1.517,5.872.258,6.093,3.758.383,6.059.32,12.119.3,18.181a13.66,13.66,0,0,1-11.293,13.251,7.921,7.921,0,0,1-.806.053c-2.179.523-3.754-.66-5.236-1.944A14.834,14.834,0,0,1,19.7,93.588a35.777,35.777,0,0,1,.1-4.824,16.045,16.045,0,0,0,.642-1.476,1.555,1.555,0,0,1,1.538-1.226,1.573,1.573,0,0,1,1.514,1.259,2.908,2.908,0,0,0,.211.566.852.852,0,0,0,.972.545.866.866,0,0,0,.684-.88,3.357,3.357,0,0,0-4.045-3.36c-.472.095-.955.423-1.43-.012a1.91,1.91,0,0,1-.227-1.064q-.02-3,0-6.005a1.778,1.778,0,0,1,.324-1.132" transform="translate(-8.025 -29.216)" fill="#fed7b6"/>
          <path id="Trazado_179609" data-name="Trazado 179609" d="M20.219,57.044a4.268,4.268,0,0,0,2.507-.524,4.347,4.347,0,0,1,4.348.144,2.157,2.157,0,0,0,2.266.024,4.9,4.9,0,0,1,5.607.916c.437.418.82.891,1.225,1.341a4.748,4.748,0,0,0,2.628,1.7,3.2,3.2,0,0,1,2.251,4.1c-.35,1.286.1,1.915,1.433,2a10.78,10.78,0,0,1,1.109.051c.862.144,1.649,1.038,1.418,1.8a19.116,19.116,0,0,1-3.114,6.7,5.739,5.739,0,0,1-.421-2.231c-.137-1.3-.177-2.618-.206-3.93A6.33,6.33,0,0,0,32.4,63.257,16.62,16.62,0,0,0,29.984,64.5c-3.918,2.35-7.8,2.088-11.667-.122-.351-.2-.7-.4-1.057-.592a1.141,1.141,0,0,0-1.659.422,1.12,1.12,0,0,0,.408,1.655c.993.741,1.022.787-.1,1.39-1.177.631-2.4,1.229-3.806.732a5.568,5.568,0,0,1,2.3-6.552,4.231,4.231,0,0,0,1.437-1.2,14.1,14.1,0,0,1,2.988-2.823,1.433,1.433,0,0,1,1.39-.364" transform="translate(-4.807 -22.876)" fill="#c1684f"/>
          <path id="Trazado_179610" data-name="Trazado 179610" d="M16.827,91.78c0,1.715-.039,3.43,0,5.144.15,6.038,3,10.416,8.257,13.287.655.358,1.394.046,2.083.179a11.9,11.9,0,0,1-7.792-1.4A13.144,13.144,0,0,1,11.99,96.977c-.095-5.392-.008-10.786-.037-16.179,0-.7.137-.9.882-.85a8.29,8.29,0,0,0,4-.894c0,2.442-.008,4.885,0,7.327,0,.321-.11.679.2.937.06.42-.312.555-.535.768A3.923,3.923,0,0,0,15.4,89.842c-.307,1.052-.013,1.543,1.073,1.777a.572.572,0,0,1,.351.16" transform="translate(-4.879 -32.291)" fill="#e4bca0"/>
          <path id="Trazado_179611" data-name="Trazado 179611" d="M17.076,57.659a4.764,4.764,0,0,0-2.419,1.531,10.468,10.468,0,0,0-2.17,2.376,1.012,1.012,0,0,1-.512.464c-2.318.852-2.965,2.722-3.016,4.952-.012.539,0,1.078,0,1.617a5.047,5.047,0,0,1-2.592-.72,1.6,1.6,0,0,0-2.114.176c-.547-2.437.146-3.89,2.33-4.959a3.661,3.661,0,0,0,1.2-1.33,10.477,10.477,0,0,1,8.719-4.255,2.17,2.17,0,0,1,.57.148" transform="translate(-1.664 -23.491)" fill="#9f5847"/>
          <path id="Trazado_179612" data-name="Trazado 179612" d="M4.354,77.773c.676.342,1.194.629,1.733.867.415.184.353.525.354.852,0,1.546,0,3.091-.083,4.658a34.085,34.085,0,0,1-2-6.377" transform="translate(-1.778 -31.768)" fill="#9e5747"/>
          <path id="Trazado_179613" data-name="Trazado 179613" d="M6.5,101.4a2.393,2.393,0,0,1,0,.4c-.066.371.226.927-.208,1.082a1.287,1.287,0,0,1-1.392-.589,1.578,1.578,0,0,1-.164-1.873,1.233,1.233,0,0,1,1.3-.749c.729.1.4.713.461,1.126a4.007,4.007,0,0,1,.005.6" transform="translate(-1.84 -40.706)" fill="#ebc296"/>
          <path id="Trazado_179614" data-name="Trazado 179614" d="M62.229,101.337a5.745,5.745,0,0,1,.005-.707c.042-.333-.2-.786.324-.941a1.077,1.077,0,0,1,1.169.4,1.58,1.58,0,0,1,.186,2.04,1.34,1.34,0,0,1-1.423.756c-.534-.14-.171-.755-.257-1.149a1.911,1.911,0,0,1,0-.4" transform="translate(-25.404 -40.701)" fill="#ebc296"/>
          <path id="Trazado_179615" data-name="Trazado 179615" d="M64.771,36.034a16.481,16.481,0,0,0-.327-4.973,5.77,5.77,0,0,0-5.977-4.7c-.64-.005-1.282.02-1.921-.007a2.827,2.827,0,0,1-2.832-2.842q-.043-8.24,0-16.481a2.84,2.84,0,0,1,2.969-2.916q15.016-.015,30.032,0a2.837,2.837,0,0,1,2.975,2.909q.051,8.24,0,16.48a2.834,2.834,0,0,1-3.123,2.852q-7.786.013-15.572,0c-1.849,0-2.505.633-2.494,2.484a8.391,8.391,0,0,1-2.852,6.743,6.148,6.148,0,0,1-.561.424c-.044.03-.124.012-.321.024" transform="translate(-21.932 -1.678)" fill="#f2cd7d"/>
          <path id="Trazado_179616" data-name="Trazado 179616" d="M126.322,119.45a7.409,7.409,0,0,1-4.843-1.912c-.6-.547-.864-1.164-.3-1.839s1.195-.548,1.851-.028c2.29,1.815,4.326,1.811,6.652-.012.663-.52,1.293-.619,1.85.055a1.182,1.182,0,0,1-.254,1.772,7.374,7.374,0,0,1-4.955,1.964" transform="translate(-49.37 -47.071)"/>
          <path id="Trazado_179617" data-name="Trazado 179617" d="M116.03,94.728a3.753,3.753,0,0,1,3.708,3.525c.024.786-.267,1.346-1.077,1.43a1.14,1.14,0,0,1-1.312-1.1c-.117-.846-.5-1.423-1.394-1.406a1.289,1.289,0,0,0-1.3,1.283c-.1.848-.542,1.3-1.4,1.215-.745-.073-1.143-.794-1.005-1.691a3.81,3.81,0,0,1,3.782-3.252" transform="translate(-45.839 -38.693)"/>
          <path id="Trazado_179618" data-name="Trazado 179618" d="M139.1,94.759a3.83,3.83,0,0,1,3.749,3.415c.07.768-.208,1.367-1.007,1.5a1.116,1.116,0,0,1-1.391-1.09c-.106-.794-.495-1.361-1.329-1.384s-1.263.5-1.377,1.311c-.108.769-.535,1.277-1.346,1.182-.876-.1-1.106-.738-1.047-1.549a3.77,3.77,0,0,1,3.749-3.385" transform="translate(-55.283 -38.706)"/>
          <path id="Trazado_179619" data-name="Trazado 179619" d="M31.29,117.044a7.394,7.394,0,0,1-4.868-1.928c-.608-.561-.806-1.193-.235-1.849.544-.625,1.158-.5,1.782-.018,2.368,1.823,4.334,1.828,6.657.014.661-.516,1.3-.626,1.854.051a1.181,1.181,0,0,1-.253,1.772,7.383,7.383,0,0,1-4.938,1.957" transform="translate(-10.558 -46.092)"/>
          <path id="Trazado_179620" data-name="Trazado 179620" d="M44.05,92.332a3.808,3.808,0,0,1,3.743,3.4,1.271,1.271,0,0,1-1.08,1.543,1.174,1.174,0,0,1-1.335-1.184,1.3,1.3,0,0,0-1.368-1.32,1.262,1.262,0,0,0-1.307,1.26c-.108.8-.518,1.348-1.4,1.228s-1.068-.782-1.01-1.573a3.739,3.739,0,0,1,3.755-3.358" transform="translate(-16.455 -37.715)"/>
          <path id="Trazado_179621" data-name="Trazado 179621" d="M18.963,97.258c-1.423.208-2.017-.455-1.711-1.854A4.217,4.217,0,0,1,19.169,92.8c2.314-.775,4.166-.174,5.121,1.653a3.351,3.351,0,0,1,.387,1.752,1.181,1.181,0,0,1-2.3.315,5.823,5.823,0,0,1-.135-.591,1.32,1.32,0,0,0-2.606.034,1.9,1.9,0,0,1-.668,1.3" transform="translate(-7.015 -37.769)"/>
          <path id="Trazado_179622" data-name="Trazado 179622" d="M93.21,10.947c1.649,0,3.3.009,4.946,0,.842-.007,1.481.234,1.535,1.193.045.791-.487,1.232-1.486,1.235q-5.1.013-10.194,0c-1,0-1.531-.445-1.485-1.236.056-.959.7-1.2,1.537-1.191,1.716.012,3.432,0,5.148,0" transform="translate(-35.342 -4.47)"/>
          <path id="Trazado_179623" data-name="Trazado 179623" d="M93.172,23.29c-1.716,0-3.432.008-5.148,0-1-.007-1.514-.434-1.509-1.22s.518-1.2,1.526-1.2c3.365-.008,6.729,0,10.094-.007.838,0,1.487.216,1.552,1.176.056.815-.5,1.248-1.569,1.253-1.649.008-3.3,0-4.946,0" transform="translate(-35.339 -8.52)"/>
          <path id="Trazado_179624" data-name="Trazado 179624" d="M93.1,30.78c1.682,0,3.365.009,5.047,0,.84-.007,1.484.227,1.542,1.186.05.815-.5,1.242-1.579,1.243q-5,.008-9.993,0c-1.089,0-1.611-.414-1.6-1.231s.529-1.19,1.638-1.193c1.649-.005,3.3,0,4.946,0" transform="translate(-35.339 -12.571)"/>
          <path id="Trazado_179625" data-name="Trazado 179625" d="M73.119,30.778c.706,0,1.414-.026,2.119.007a1.141,1.141,0,0,1,1.232,1.188,1.118,1.118,0,0,1-1.2,1.216q-2.117.06-4.238,0a1.125,1.125,0,0,1-1.187-1.233A1.155,1.155,0,0,1,71.1,30.783c.672-.022,1.346,0,2.018,0" transform="translate(-28.53 -12.568)"/>
          <path id="Trazado_179626" data-name="Trazado 179626" d="M73.162,23.291H71.244c-.835,0-1.4-.389-1.389-1.242.011-.8.555-1.181,1.346-1.184,1.311,0,2.623-.009,3.935,0,.778.007,1.326.367,1.333,1.188.008.88-.57,1.227-1.391,1.234-.639.005-1.278,0-1.917,0" transform="translate(-28.533 -8.521)"/>
          <path id="Trazado_179627" data-name="Trazado 179627" d="M73.118,13.371c-.639,0-1.278,0-1.917,0-.791,0-1.329-.387-1.349-1.183a1.152,1.152,0,0,1,1.288-1.237c1.345-.018,2.691-.02,4.036,0,.782.012,1.306.406,1.293,1.227s-.555,1.175-1.333,1.19c-.673.013-1.346,0-2.018,0" transform="translate(-28.532 -4.467)"/>
          <path id="Trazado_179628" data-name="Trazado 179628" d="M61.024,10.949c.928.009,1.517.5,1.5,1.246s-.614,1.19-1.559,1.182c-.964-.008-1.489-.453-1.471-1.246.018-.777.556-1.191,1.534-1.182" transform="translate(-24.3 -4.472)" fill="#2a4368"/>
          <path id="Trazado_179629" data-name="Trazado 179629" d="M61.011,30.781c.931.005,1.521.488,1.508,1.233s-.592,1.2-1.546,1.195-1.495-.442-1.484-1.233.545-1.2,1.521-1.195" transform="translate(-24.3 -12.573)" fill="#2a4368"/>
          <path id="Trazado_179630" data-name="Trazado 179630" d="M60.944,23.293c-.958-.011-1.483-.466-1.455-1.262.027-.773.567-1.18,1.549-1.166.92.013,1.512.517,1.48,1.261s-.629,1.178-1.574,1.167" transform="translate(-24.299 -8.522)" fill="#2a4368"/>
        </g>
      </g>
    </g>
  </g>
</svg>
