<svg xmlns="http://www.w3.org/2000/svg" xmlns:xlink="http://www.w3.org/1999/xlink" width="400" height="454.346" viewBox="0 0 400 454.346">
  <defs>
    <clipPath id="clip-path">
      <rect id="Rectángulo_44952" data-name="Rectángulo 44952" width="400" height="439" fill="#fff" stroke="#707070" stroke-width="1"/>
    </clipPath>
    <clipPath id="clip-path-2">
      <rect id="Rectángulo_45065" data-name="Rectángulo 45065" width="212.6" height="429.011" fill="none"/>
    </clipPath>
  </defs>
  <g id="Grupo_174271" data-name="Grupo 174271" transform="translate(-390 -2108)">
    <g id="Grupo_174265" data-name="Grupo 174265" transform="translate(-60 0.353)">
      <g id="Grupo_174262" data-name="Grupo 174262">
        <g id="Enmascarar_grupo_279" data-name="Enmascarar grupo 279" transform="translate(450 2107.647)" clip-path="url(#clip-path)">
          <g id="Grupo_174244" data-name="Grupo 174244" transform="translate(-118.61 0)">
            <g id="Grupo_174231" data-name="Grupo 174231" transform="translate(100.61 217.276)">
              <rect id="Rectángulo_44947" data-name="Rectángulo 44947" width="303.153" height="221.224" transform="translate(0)" fill="#c4d1ff"/>
              <path id="Rectángulo_44948" data-name="Rectángulo 44948" d="M0,0H266.116A127.129,127.129,0,0,1,393.244,127.129v0a0,0,0,0,1,0,0H0a0,0,0,0,1,0,0V0A0,0,0,0,1,0,0Z" transform="translate(0 94.095)" fill="#a6bbff"/>
            </g>
            <g id="Grupo_174535" data-name="Grupo 174535" transform="translate(196.61 33)">
              <g id="Grupo_174535-2" data-name="Grupo 174535" clip-path="url(#clip-path-2)">
                <path id="Trazado_180713" data-name="Trazado 180713" d="M189.71,97.061s-25.687,10.478-37.117,56.865c-8.822,35.8-14.479,77.344-.126,92.266,17.717,18.42,60.885,6.953,60.123,1.619s-22.88-150.75-22.88-150.75" transform="translate(-143.708 0)" fill="#361524"/>
                <path id="Trazado_180714" data-name="Trazado 180714" d="M34.315,93.536s22.861,6.287,33.91,34.481,25.146,76.963,20.193,95.251-19.431,25.528-34.671,22.1S2.034,217.934.077,209.933s34.238-116.4,34.238-116.4" transform="translate(123.161 0)" fill="#361524"/>
                <path id="Trazado_180715" data-name="Trazado 180715" d="M27.537,341.761,6.58,97.663l5.525-8.889s25.717,4.572,33.337,24c6.112,15.584,22.76,168.882,29.113,228.984Z" transform="translate(131.465 0)" fill="#361524"/>
                <path id="Trazado_180716" data-name="Trazado 180716" d="M32.835,311.852s23.432-40.006,25.146-40.006L175.14,302.994V429.011H114.561l-9.423-66.295L91.7,429.011H30.549Z" transform="translate(6.911 0)" fill="#942f51"/>
                <path id="Trazado_180717" data-name="Trazado 180717" d="M89.922,349.882a7.617,7.617,0,0,0,4.755-1.814c3.461-2.8,5.462-8.34,5.947-16.464a327.972,327.972,0,0,0,0-36.363.572.572,0,0,0-1.141.075,326.534,326.534,0,0,1,0,36.219c-.579,9.7-3.324,13.863-5.525,15.645a6.154,6.154,0,0,1-4.392,1.541.571.571,0,0,0-.171,1.13,3.79,3.79,0,0,0,.527.031" transform="translate(22.561 0)" fill="#361524"/>
                <path id="Trazado_180718" data-name="Trazado 180718" d="M100.558,362.145a.572.572,0,0,0,.572-.572v-57.15a.572.572,0,0,0-1.144,0v57.15a.572.572,0,0,0,.572.572" transform="translate(11.484 0)" fill="#361524"/>
                <path id="Trazado_180719" data-name="Trazado 180719" d="M75.934,14.791c3.932-6,12.342-7.764,19.249-7.05C96.547,3.278,102.035.522,106.606.074a15.83,15.83,0,0,1,12.88,4.8,8.6,8.6,0,0,1,3.014-.545c4.466,0,8.086,3.363,8.086,7.511a7.174,7.174,0,0,1-1.985,4.919c-.058.343,2.8,5.913-2.783,11.547-5.137,4.14-11.686.978-16.1-2.567a.482.482,0,0,1-.162-.6c-5.245-2.6-11.465-3.308-16.936-.949C86.5,26.832,84.408,33.62,79.34,37.535q.728,2.469,1.471,4.932c.229.757-1.857,5.225-2.085,4.471-1.617-5.35-3.795-14.05-4.363-19.613-.5-4.9-.79-8.929,1.571-12.534" transform="translate(7.997 0)" fill="#942f51"/>
                <path id="Trazado_180720" data-name="Trazado 180720" d="M95.481,88.049l13.93,9.614,16.677-9.087-.834-9.221-.784-8.743-.27-2.968L101.49,45.326l-.282,2-1.4,9.957-.074.552Z" transform="translate(-8.968 0)" fill="#ffa6a6"/>
                <path id="Trazado_180721" data-name="Trazado 180721" d="M86.344,57.282a3.465,3.465,0,0,0,.135.38,31.07,31.07,0,0,0,3.237,6.56c4.918,7.383,13.44,9.627,21.288,6.389.5-.208,1-.429,1.5-.686,6.843-3.483,10.08-9.97,11.466-17.389a87.221,87.221,0,0,0,.392-23.789c-.012-.135-.037-.27-.061-.405-1.043-6.192-12.177-14.874-20.467-13S86.712,23.572,84.664,25.3c-1.7,1.435-2.992,18.848,1.68,31.981" transform="translate(4.497 0)" fill="#ffa6a6"/>
                <path id="Trazado_180722" data-name="Trazado 180722" d="M96.315,66.319a24.456,24.456,0,0,0,11.134,10.215,37.939,37.939,0,0,0,7.664,2.82l-.784-8.743a26.518,26.518,0,0,1-10.865-1.079c-5.138-1.741-6.965-3.078-7.149-3.213" transform="translate(1.172 0)" fill="#361524"/>
                <path id="Trazado_180723" data-name="Trazado 180723" d="M90.911,40.814a1.253,1.253,0,0,1,.378-.332.877.877,0,0,1,.809-.019,1.4,1.4,0,0,1,.649,1.042,4.186,4.186,0,0,1-.55,2.9,1.053,1.053,0,0,1-2-.24A2.866,2.866,0,0,1,90.128,43a5.4,5.4,0,0,1,.467-1.658,2.7,2.7,0,0,1,.316-.533" transform="translate(29.696 0)" fill="#361524"/>
                <path id="Trazado_180724" data-name="Trazado 180724" d="M104.783,40.536a1.236,1.236,0,0,1,.384-.325.873.873,0,0,1,.809,0,1.4,1.4,0,0,1,.63,1.053,4.182,4.182,0,0,1-.6,2.892,1.053,1.053,0,0,1-2-.275,2.855,2.855,0,0,1-.049-1.163,5.389,5.389,0,0,1,.5-1.649,2.674,2.674,0,0,1,.325-.528" transform="translate(2.023 0)" fill="#361524"/>
                <path id="Trazado_180725" data-name="Trazado 180725" d="M97.61,51.693A.566.566,0,0,0,98,51.538,5.793,5.793,0,0,0,99.628,49c.208-1.12-1.092-4.2-1.5-5.123a.571.571,0,1,0-1.046.459A15.339,15.339,0,0,1,98.5,48.794,4.809,4.809,0,0,1,97.219,50.7a.572.572,0,0,0,.391.988" transform="translate(15.911 0)" fill="#361524"/>
                <path id="Trazado_180726" data-name="Trazado 180726" d="M102.1,35.251a1.738,1.738,0,0,1,.067-.174,2.493,2.493,0,0,1,.941-1.016,6.808,6.808,0,0,1,3.241-.939,8.811,8.811,0,0,1,2.92.19c1.134.3,3.858,1.78,2.39,3.241a3.086,3.086,0,0,1-1.756.7,16.128,16.128,0,0,1-6.47-.195,2.025,2.025,0,0,1-1.182-.643,1.325,1.325,0,0,1-.151-1.162" transform="translate(-1.525 0)" fill="#942f51"/>
                <path id="Trazado_180727" data-name="Trazado 180727" d="M95.442,36.6a2.019,2.019,0,0,1-1.183.643,16.141,16.141,0,0,1-6.469.2,3.093,3.093,0,0,1-1.756-.7c-1.468-1.461,1.256-2.944,2.39-3.242a8.811,8.811,0,0,1,2.92-.19,6.818,6.818,0,0,1,3.242.939,2.491,2.491,0,0,1,.94,1.016,1.424,1.424,0,0,1-.084,1.336" transform="translate(31.329 0)" fill="#942f51"/>
                <path id="Trazado_180728" data-name="Trazado 180728" d="M104.95,56.446c2.54,0,3.5-.848,3.623-.968a.572.572,0,0,0-.79-.826c-.041.035-1.288,1.055-4.967.466A10.394,10.394,0,0,1,96.761,51.8a.572.572,0,0,0-.9.711,11.437,11.437,0,0,0,6.769,3.734,14.577,14.577,0,0,0,2.315.2" transform="translate(8.113 0)" fill="#361524"/>
                <path id="Trazado_180729" data-name="Trazado 180729" d="M86.578,23.511c1.542-2.192,11.4-8.271,19.706-10.135s19.9,6.683,20.941,12.876c.025.134-.446,3.851-.434,3.986a29.46,29.46,0,0,1-8.245-.767,21.828,21.828,0,0,1-9.528-5.58,12.842,12.842,0,0,1-6.437.209c-3.777-.712-8.229-1.73-10.448,2.378-1.8,3.336-3.556,31.307-3.63,31.356,0,0-10.725-21.807-1.925-34.323" transform="translate(2.264 0)" fill="#942f51"/>
                <path id="Trazado_180730" data-name="Trazado 180730" d="M25.783,92.256s.092,1.52.263,4.229c.024.366.047.743.069,1.143.046.732.092,1.532.149,2.389.023.366.046.755.08,1.143.343,5.51.812,13.179,1.349,21.98.034.378.057.755.08,1.143.3,4.961.628,10.253.96,15.694.034.377.057.766.08,1.143.1,1.7.205,3.406.309,5.132.021.377.045.754.068,1.143.446,7.35.892,14.825,1.315,21.98.034.389.056.766.068,1.143.274,4.492.537,8.847.777,12.951.012.388.035.765.058,1.143.16,2.754.308,5.4.444,7.886.024.389.047.766.069,1.143.607,10.8,1.007,18.6,1.007,20.483,0,.355,0,.858.011,1.5,0,.343.012.72.012,1.143.022,2.354.08,5.886.16,10.207.011.377.011.754.022,1.143.058,3.2.115,6.789.2,10.63,0,.377.011.766.023,1.143.114,6.869.263,14.459.411,21.98,0,.389.012.766.012,1.143.045,2.5.1,5.006.147,7.453.013.377.013.765.024,1.143.091,4.709.183,9.235.263,13.384.011.389.011.766.023,1.143.24,11.819.411,20.289.411,20.289H151.423l-2.811-20.289-.161-1.143-1.85-13.384-.161-1.143-1.029-7.453-.159-1.143-3.053-21.98-.16-1.143-1.475-10.63-.159-1.143-1.417-10.207-.161-1.143-3.04-21.981-.159-1.143-1.1-7.886-.161-1.143-1.794-12.951-.092-.651s-.045-.172-.147-.492c-.63-2.126-3.259-10.927-6.574-21.98-.114-.377-.228-.754-.342-1.143q-.738-2.5-1.531-5.132c-.115-.377-.23-.755-.343-1.143-1.521-5.109-3.121-10.459-4.687-15.694-.115-.377-.229-.765-.342-1.143-2.436-8.115-4.767-15.888-6.6-21.98-.114-.388-.229-.766-.332-1.143-.251-.834-.49-1.634-.72-2.389-.126-.388-.239-.766-.343-1.143-1.417-4.7-2.309-7.624-2.355-7.715-.57-1.143-28.621-4.664-28.621-4.664S72.5,87.958,65.285,87.387s-13.246-5.932-13.246-5.932Z" transform="translate(35.394 0)" fill="#fff"/>
                <path id="Trazado_180731" data-name="Trazado 180731" d="M65.286,100.017c.024.366.047.754.08,1.143h85.577c-.114-.389-.228-.766-.331-1.143Z" transform="translate(-3.629 0)" fill="#ffc29e"/>
                <path id="Trazado_180732" data-name="Trazado 180732" d="M58.347,123.14c.034.377.057.754.08,1.143h91.087c-.115-.377-.229-.766-.343-1.143Z" transform="translate(4.739 0)" fill="#ffc29e"/>
                <path id="Trazado_180733" data-name="Trazado 180733" d="M51.443,146.252c.023.377.046.754.068,1.143h96.574c-.115-.377-.229-.754-.343-1.143Z" transform="translate(13.072 0)" fill="#ffc29e"/>
                <path id="Trazado_180734" data-name="Trazado 180734" d="M44.631,169.375c.034.389.057.766.069,1.143h102l-.091-.651s-.046-.172-.149-.492Z" transform="translate(21.267 0)" fill="#ffc29e"/>
                <path id="Trazado_180735" data-name="Trazado 180735" d="M41.419,192.5c.023.389.046.766.069,1.143H145.353l-.16-1.143Z" transform="translate(25.828 0)" fill="#ffc29e"/>
                <path id="Trazado_180736" data-name="Trazado 180736" d="M38.218,215.622c0,.343.011.72.011,1.143H144.267l-.16-1.143Z" transform="translate(30.115 0)" fill="#ffc29e"/>
                <path id="Trazado_180737" data-name="Trazado 180737" d="M35.007,238.745c0,.377.011.766.023,1.143H143.879l-.16-1.143Z" transform="translate(33.714 0)" fill="#ffc29e"/>
                <path id="Trazado_180738" data-name="Trazado 180738" d="M31.794,261.868c0,.389.011.766.011,1.143H143.444l-.16-1.143Z" transform="translate(37.362 0)" fill="#ffc29e"/>
                <path id="Trazado_180739" data-name="Trazado 180739" d="M28.6,284.991c.011.389.011.766.024,1.143H143l-.16-1.143Z" transform="translate(41.006 0)" fill="#ffc29e"/>
                <path id="Trazado_180740" data-name="Trazado 180740" d="M127.9,341.761c3.57-61.366,13-219.993,15.761-231.651C147.085,95.632,191.1,84.686,191.1,84.686s.182,42.188,3.611,96.672c2.511,39.9,1.344,120.239.54,160.4Z" transform="translate(-111.53 0)" fill="#361524"/>
                <path id="Trazado_180741" data-name="Trazado 180741" d="M167.015,137.041l-.267-.192.091-.068c.059.087.118.173.176.26m-.089-7.465-.512.151q-.057-.792-.113-1.583.312.717.625,1.432m-.673-1.54h0l.034-.086q-.354-1.045-.707-2.091l3.871-.725c.068.263.136.525.2.788l-3.363,2.09c0,.044.007.088.01.132Zm-.224-8.139h0l-.125.154.125-.154m-5.705,32.366a1.476,1.476,0,0,1-.048.275,4.261,4.261,0,0,1-.515-.053,1.417,1.417,0,0,1,.049-.272,4.238,4.238,0,0,1,.514.05m6.035-13.093c-.077.445-.211.88-.331,1.317l-.577-.144q.157-.694.313-1.387a3.325,3.325,0,0,1,.6.214m-.33-19.273h0c-.028.257-.046.413,0,0M160.265,134a3.445,3.445,0,0,1,.384.42c.023.033-.12.25-.16.242a2.824,2.824,0,0,1-.5-.185l.279-.477m13.426-5.178,2.327,1.713q-2.1,3.816-4.187,7.61L170,134.5c4.692.795,3.37-2.99,3.694-5.671m-3.915,5.581H167.64l.564-1.243,1.572,1.243m.221.09c-.045-.007-.082-.008-.129-.017l-.092-.073h.176l.045.09m8.575-3.9c.662,2.881,2.315,2,4.837.775-3.1,2.729-3.974,2.59-5.372.3-.335-.549-1.212-.765-1.886-1.106.82-1.719,2.13-1.242,2.421.028m-2.421-.028c-.009.019-.02.03-.03.05l-.1-.076.016-.029c.036.02.079.036.117.055M163.7,123.517q-.091.483-.184.964l-.018.023-.391.2c-.012-.078-.023-.155-.035-.232l.431.009c.066-.321.131-.642.2-.964m.24-1.169.08-.019-.1.1q-.111.543-.223,1.084.1-.531.2-1.063Zm-2.409,22.1-.645-1.062.555-.211.09,1.273m.246.122-.135.061h0l-.1,0c0-.061-.008-.121-.013-.181.033.053.065.106.1.16Zm1.579-17.864c-.027-.069.048-.178.077-.268.1,0,.2,0,.3,0-.048.149-.1.3-.145.446-.081-.058-.2-.1-.233-.18m.636,14.984-.628.375q-.129-.256-.257-.514c.16-.1.342-.3.475-.269.159.034.275.263.41.408m2.866-24.974a10.279,10.279,0,0,1-.785,2.931l-.7-1.878-1.3-.06c.51-1.165,1.021-2.332,1.587-3.623.513,1.057,1.19,1.839,1.2,2.63m-2.89.988h0l.1,0c-.01.022-.02.044-.029.066l-.2.132c.044-.067.087-.135.131-.2m-.795.636.664-.433q-.21.327-.422.654l-.242-.221m2.857,1.554c.007-.058.013-.118.021-.181.006-.022.015-.044.022-.066.017.044.033.089.05.133l-.093.114m-2.273,33.309c.028.091.056.182.085.272l-.391.038c.014-.094,0-.214.051-.275s.166-.026.255-.035m2.107-7.95c.039.242.07.442.1.641a1.6,1.6,0,0,1-.4.031.36.36,0,0,1-.045-.287,2.392,2.392,0,0,1,.348-.385m27.166-48.373-2.381,2.151,0,.088c-1.648-3.535,1.122-2.022,2.378-2.239m1.952-1.783.063.062-1.588,1.5a.683.683,0,0,1-.427.216l.332-.3,1.62-1.483m-7.694,8.921.295-.013-.211.234-.084-.221m7.763-8.98-.006.121-.063-.062.069-.059m-7.508,20.615.1-.021a.116.116,0,0,0-.006.02l-.275.034Zm1.238-9.945q-.534-.854-1.067-1.709l-.131.006.081-.09,2.113.146.136.161-.208-.106-.924,1.592m1.131,9.478-2.265.446q.186-.576.371-1.152l1.894.706m1.808-2.49-.3-.495,1.362-.469-1.062.964m3.413-21.64.122-.1.091-.021,2.218-2.605c.6,1.58.946,2.5,1.3,3.432l-3.815,3.271q.1-2.023.2-4.047l-.12.065m-.889,15.974c-.5.369-1.044.681-1.577,1.005l-.493-.7,1.624-1.085a6.908,6.908,0,0,1,.446.784m-.688,3.813-.425.525.144-.6.281.071m-2.764,20.75c-.05.2-.119.4-.185.591l-.375-.174c.1-.172.2-.344.309-.513a2.073,2.073,0,0,1,.251.1m2.339-20.225-.064.266-.285.1.206-.187.143-.177M174.4,150.506l-.364.027-.1-.985.413-.03c.016.329.032.659.047.988m-5.31-3.318.631-.745.1-.026-.037.094-.616.746-1.028.9-.356.415.287-.469Zm6.057-3.453q-.375-.375-.748-.751l.063-.062.751.735.949.886-.024.039-.041.012q-.476-.429-.95-.859m-.639-4.682a2.719,2.719,0,0,1-.479.178c-.028.006-.163-.217-.133-.277a2.536,2.536,0,0,1,.344-.452c.091.184.179.368.268.551m-2.994,14.426-.247-.074.207-.13Zm6.65-9.5-2.3,2.859-.759-.553q.516-.852,1.034-1.7l2.026-.6m-7.81,2.291-.536.146.2-.521.335.375m17.136-3.189c-.243.357-.767.522-1.171.77l-.4-.416,1.472-2.4c.085,1.268.277,1.781.1,2.043m-4.528-21.473,1.875.452-.256,0,.175.056c.071.09.178.17.2.272a.515.515,0,0,1-.049.324c-.7.053-1.4.083-2.1.118q.078-.609.155-1.218m-2.4,20.44-.129-.289h.266Zm-.582,9.682-.2.009.1-.2Zm-.745-11.77-.32.222-.165.144c.038-.055.075-.11.113-.164l.372-.2m-.635-3.475-.01-.2.213.1Zm-29.447-25.743-.077.05,1.031.662,1.035-.455-1.108.544-1.04-.7Zm-4.069,14.68-.083.017.047-.072.036,0Zm2.588-3.646-.135.036-.081-.032,0,0Zm-2.624,3.591-3.514.436-.168-.509,5.22-2.344q-.77,1.209-1.538,2.417m3.689-3.591h-1.065l1.018-.274Zm-7.509,23.143-.191.023.072-.2Zm5.479-22.149c.013.036.025.072.038.109l-.159.071.08-.125.041-.055m.749-.99-.749.99q-.264-.752-.526-1.5l1.275.513m-2.8,17.719a3.2,3.2,0,0,1-.389.363c-.058-.084-.115-.169-.174-.255l.408-.363c.055.088.176.228.155.255m-1.4-5.921a.869.869,0,0,1,.588.616c.021.185-.353.572-.568.584s-.475-.311-.812-.56c.335-.289.572-.65.792-.64m6.084-2.521a.442.442,0,0,1,.1-.209c.026.125.051.251.076.377-.061-.056-.171-.111-.172-.168m-.058-4.2h.021l.156,3.956c-.006.012-.015.024-.023.037,0-.02-.008-.039-.011-.059L147.26,127.7q-.738,1.072-1.488,2.158l-.694-.222v-4.216a21.4,21.4,0,0,1,2.962-.528c1.529-.076,2.232.493,1.24,1.961M141.989,153c.16-.045.376.111.568.18l-.32.489c-.2-.068-.392-.137-.588-.206.111-.163.195-.422.34-.463m-9.367-5.884,0,0v-.007q-.131-.849-.262-1.7c.16,0,.321-.005.481-.006q-.108.852-.217,1.705v0M137,132.108l.12.031-.121-.01-.016.384-.006-.385Zm-.326,13.49-.066-.215.119.134c-.359,1.457-.717,2.914-1.331,5.413l-2.77-3.808,4.048-1.524m.249-11.669.06-1.416q.009.735.02,1.469l.139.094-.139-.09-.08-.057h0Zm-4.14,17.164c-.019.081-.118.142-.181.213l-.156-.4.265-.076c.027.089.09.187.072.265m61.943-47.872-.28.132c.049-.137.1-.274.146-.411l.134.279m-49.379,48.116c-.058-.073-.162-.146-.163-.22s.091-.164.163-.278Zm-6.293-.33-.144.075.032-.239Zm.42,3.679c-.1.018-.221.077-.289.04s-.087-.173-.127-.265l.218-.2.2.428m1.3-22.841c.171.019.318.257.473.4-.141.138-.314.414-.407.389-.194-.051-.344-.263-.512-.408.15-.136.313-.393.446-.378m-.271,6.01.021-.024.568-.2-.571.237q-.056.71-.11,1.42l.242.051-.245-.008-.03-.05q.053-.7.1-1.4l.021-.025m-2.329-5.45-1.055-.266,1.085.085-.03.181m.247,8.757c-.035.276-.069.551-.1.827l-.06.026-.172-.194.184.132.153-.791m12.824-1.9c-.08.181-.118.45-.257.52-.121.061-.355-.1-.539-.167l.36-.727.436.374m4.663-2.26c-.024.087-.138.148-.212.221-.064-.118-.127-.236-.191-.353l.282-.115c.044.083.139.181.121.247m1.451-17.4.3.176a.379.379,0,0,1-.117-.006c-.072-.021-.124-.111-.184-.17m3.253-5.936,1.709,2.186-2.428,2.709V113.8l.719-.143m-2.952,6.112c.06,0,.122-.012.182-.016-.011.028-.021.055-.031.083-.015,0-.028-.007-.043-.005l-.108-.062m-.474,13.933.755,1.114-1.221-.326q.232-.395.466-.788m-4.767-16.882h3.6c-1.767,2.9-2.646,1.938-3.6,0m5.76,3.055.006,0,1.708-1.17-.066-.084.066-.073v.12l3.412,2.43-6.736,2.032c.379-1,.81-2.151,1.242-3.3a.712.712,0,0,1,.368.039m.963.644c.051-.122.1-.245.151-.368l-.939-.159.788.527m2.588,11.8-2.866-3.3c2.554-.135,2.816,1.5,2.866,3.3m.654.823-.646-.613c0-.07-.006-.139-.008-.21.034.039.068.079.1.117l.552.706m-5.354-7.713,2.444-.837.44,1.006c-.881.16-1.761.329-2.646.455a3.027,3.027,0,0,1-.238-.624m1.518,13.955a2.131,2.131,0,0,1-.174.225,5.072,5.072,0,0,1-.437-.309,1.738,1.738,0,0,1,.176-.222,4.942,4.942,0,0,1,.435.306m-.6-4.571h0l.013.032q.056.657.112,1.316l-.21-.007.084-1.331-.008-.012.009,0m-9.54,3.743-.258.1.05-.229Zm.32,15.823c.027.059-.047.165-.077.251-.086-.033-.213-.045-.245-.106s.05-.164.081-.249c.084.033.213.045.241.1m-2.049-13.276-.523.055-.09-.3a2.912,2.912,0,0,1,.524-.04c.037,0,.059.184.089.283m5.389-30.523-.932.41.862-.424Zm.973,29.784-.155.369c-.072-.048-.189-.086-.2-.148s.064-.157.1-.237l.255.016m-3.369-5.823.147.071-.207-.076-.041,0,.009-.008Zm-.1-.009c-2.093,1.83-2.247,1.811-3.393-.276l3.393.276m1.243,16.784-.215-.091.206-.1Zm-.169-30.5c.124.129.362.276.344.378-.029.166-.227.3-.353.45-.13-.127-.38-.276-.362-.376.029-.164.233-.3.371-.452m2.823,12-.2.843-1.713-.614q.083-.283.163-.567l1.748.338m-2.884-2.885.258.079-.225.139Zm9.829,11.251c-.028.214.015.55-.1.616a3.158,3.158,0,0,1-.915.22c.048-.354.023-.716.114-.749a3.411,3.411,0,0,1,.9-.087M170,94.959l2.244,2.75c-2.78-.623-2.78-.623-2.244-2.75m-13.041,19.067.264-.451q.564.311,1.129.62l-.3.517-1.092-.686m13.205-.4-.075,0c.009-.022.019-.043.028-.064l.071-.009-.024.069m-7.79-1.372-3.2-2.4,1.829-2.664c.451,1.669.822,3.045,1.369,5.068m35.692,19.96-1.392,1.081-.335-.323,1.225-1.084.5.326m-38.988-22.438.084.1-.253.122.169-.218m-4.624,13.38c.191-.074.432-.254.559-.193.143.068.183.352.268.542-.185.074-.431.257-.541.2-.15-.084-.2-.354-.286-.545m3.227-12.566,1.228-.6q-.409.531-.818,1.063c-.137-.156-.273-.312-.41-.467m-4.871,19.027c-.173-1.734-.323-3.233-.524-5.242l3.436,2.634-2.912,2.608m-8.438-8.208-2.117,1.252q-.342-.608-.685-1.216l2.346-.943Zm4.027-3.925.045.068,0,.125-.027-.107h0c-.007-.028-.013-.057-.019-.087m-.943.809q.48-.361.962-.721.14.66.281,1.321l-.105-.039-1.138-.561m1.138.561.105.039c.02.026.039.053.058.079l-.163-.118m10.582-9-.014.022-.084-.1.1.074m15.238-5.817c-.2.039-.476-.315-.811-.562.276-.311.561-.764.666-.725a3.486,3.486,0,0,1,.878.661c-.241.223-.458.573-.733.626m-4.425-4,.2-.62,3.6,1.135-.332,1.016-3.459-1.531m3.083-5.177c.064-.061.122-.163.192-.171s.157.071.237.112l-.192.183-.237-.124m1.243,16.454c.059.091.188.239.167.264a3.291,3.291,0,0,1-.4.368l-.195-.247.431-.385m-11.4,1.819.289,0-.168.249Zm8.848-6.1-.747.228L169.54,103.4l.932-.428q.646,2.027,1.292,4.052m-4.148,6.256,2.746-1.923.51.514q-.375.845-.751,1.689l-2.287.3c-.072-.193-.145-.385-.218-.578m-1.742-1.807a.422.422,0,0,1,.083-.092c-.014.1-.028.193-.043.289-.015-.067-.063-.149-.04-.2m1.5-3.016c.056-.145.33-.2.51-.3q.112.288.227.578l-.532.269c-.077-.185-.257-.41-.205-.545m-1.421,2.924c.009-.064.019-.129.029-.193l.108-.029-.029.1c-.037.039-.07.081-.108.12m1.328-.539-1.191.317q.193-.674.388-1.346l.8,1.029m-.82-11.617q.039-.395.076-.789l1.526.348c-.023.147-.047.294-.07.441Zm-10.679,12.527a29.783,29.783,0,0,1-3.491,2.4c.845-1.536,1.376-2.65,2.064-3.658.207-.3.852-.311,1.295-.453.061.587.392,1.469.132,1.708m42.153,10.073q.036.579.071,1.157l-.437.052q-.109-.582-.22-1.164l.586-.045m-52.8-6.018.83.708-1.606,1.145.776-1.853m10.718-8.384c.077-2.693.823-3.008,5.2-1.8l-5.2,1.8m-11.665,10.43c-.006-.02-.012-.038-.019-.058l.19-.135c-.033.077-.065.155-.1.233l-.073-.04m11.613-10.412-1.476.422h.078l-3.766.717c1.366-1.493,2.691-2.806,3.952-3.966l-.108.436-.091.012,1.427,2.374.036-.013,0,.068Zm9.682-.231c.042.59-1.044,1.26-1.708,2-.781-2.451-1.38-4.331-1.976-6.2,2.46.3,3.527,1.983,3.684,4.2m-17.359,7.339a2.745,2.745,0,0,0-1.165-1.611c.152-.2.3-.385.456-.575.57.592,1.148,1.2,1.78,1.853-.485.152-1.063.353-1.071.333M133.6,136.942c.208-.532.42-1.051.632-1.569.524.514.547,1.374.077,2.576l-.709-1.007m.772,1.237-.1-.133c.014-.035.02-.063.033-.1l.016.023Zm3.277-10.337.023.009-.057.057c.011-.022.022-.044.034-.066m4.945-8.715q.518-.8,1.035-1.574l.568.305.273.858-1.876.411m-3.1,5.217a8.209,8.209,0,0,1,.082,5.581l-1.492-2.938c.466-.908.936-1.786,1.41-2.643m22.319-21.333c-.034-.005-.062-.015-.1-.018l.036-.057.035-.006c.009.027.018.054.026.081m37.743,13.027v0l-2.479-.2.039-.047-.039.047-.048-.116.135.011,2.392.3m.057,1.888-.428.22c.144-.479.271-.905.4-1.317.011.362.022.73.033,1.1M198.547,99l-.39-.654.757-.525c.052.112.142.242.2.358,0,.1,0,.184,0,.281a3.3,3.3,0,0,1-.575.54m-2.487,16.616.66-.619c.1.241.2.483.3.724l-1.02-.083-.161.062.12-.065Zm2.662-6.895-.175-.189.252-.046ZM164.289,97.812c.052-.076.092-.2.159-.215s.179.049.27.08c0,.09-.009.18-.013.271l-.416-.136M185.62,88.65c.373-.125.74-.247,1.1-.367l.382.173-.2.549-1.282-.355m-3.136,1.08c.346-.123.69-.245,1.031-.363q-.19.435-.382.872-.324-.255-.649-.509m-7.068,6.353q-.2-.421-.391-.844l1.921-3.441q1.281-.505,2.548-.98l3.883.716q.092.767.181,1.533c-4.2-2.706-5.939.736-8.142,3.016m15.72-8.049q.217.185.434.37l-.678.342q.123-.357.244-.712m-29.391,14.9-3.86.612,1.051-2.54c.179-.134.346-.253.519-.378l1.332-.217q-.167-.248-.331-.5c.956-.658,1.793-1.183,2.5-1.6l2.938,3.079-.324,1.013c-2.02-2.162-2.938-.868-3.825.523M190.78,88.8l-1.824,1.47V87.563l.741-.233,1.1,1.465.1-.049c-.013.04-.027.081-.041.122Zm6.712,16.487-.007.053c-.032.1-.064.193-.1.29-.026.081-.05.162-.075.243l.168-.555,0-.031h.013m-13.5-4.574.875.855-1.334-.067.459-.788m-5.421,4.831.137.592a2.772,2.772,0,0,1-.471.034.373.373,0,0,1-.043-.283,2.164,2.164,0,0,1,.377-.343m4.367-8.839-.061-.058.18-.179c-.03.087-.059.175-.088.262l-.031-.025m2.284,5.02c.2.153.148.113,0,0m.616,6.581,2.617,1.545-4.531,1.328c.926-1.391,1.436-2.156,1.914-2.873m-.659-6.614Zm-4.422,1.788-2.271-2.42,3.532-.553-3.167-4.462,1.919-1.04,2.168,1.7c.53.506,1.047,1,1.182,1.129-1.258,2.112-2.281,3.831-3.363,5.646m-2.288,5c0,.046-.13.078-.2.117l-.128-.223.222-.118c.041.075.116.154.108.224m-2.3-7.178c-.014-.075.082-.172.131-.259.027.156.053.312.079.468-.074-.069-.194-.129-.21-.209M178.818,96l.035.049-.081.044Zm-3,9.611,2.666-4.546v-.006l0,0h0c.723,2.417-.771,3.593-2.668,4.546m7.892-11.082.772.527-1.422,1.416q.324-.972.65-1.943m1.16,7.043.159.008.153.116-.23-.043-.082-.081m8.287,16.742-.135-.172-.04-.08h.063l.112.252m2.066-7.772.4-.006q.078.582.155,1.165l-.639-.023q.042-.567.083-1.136m2.036-7.338c.116,1.095.17,1.6.221,2.087l-1.163-.032.942-2.055m-2.642,18.411q-.729-1.65-1.46-3.3l2.245,2.863-.785.438m-3.993-3.551c-.021.025-.042.049-.062.074l.318,1.46-.038.047.038-.047q.066.3.13.592l-.207-.5q-.143-.814-.283-1.628Zm2.358,0-2.358,0,1.478-1.753q.439.876.88,1.751m-6.262,1.683-.094-.069-.062-.079.156.148m.837-24.561c-.023-.244.272-.517.572-1.019a4.415,4.415,0,0,1,.385,1.069c.007.177-.222.363-.344.546-.218-.2-.593-.38-.613-.6m-.993,24.413.062.079-.239-.125Zm11.089-32.33c-.067.013-.152-.069-.274-.132l.463-.049c-.062.064-.117.168-.189.181m-9.025,15.224c-.061-.084-.188-.226-.173-.243a3.753,3.753,0,0,1,.4-.357l.184.252c-.135.117-.271.232-.408.348m4.6-13.117.189-.011-.084.189Zm-22.21,38.45.9.578-.313.408c-.135-.225-.269-.451-.59-.986m8.563-15.65c-1.064,2.133-2.712,1.887-4.477,1.167,1.237-1.351,2.495-2.625,4.477-1.167m-4.477,1.167-.025.027-.122.006.04-.074c.036.015.071.027.107.041m-6.021,5.374.225.543-.543.255c-.074-.185-.246-.407-.193-.542s.332-.174.511-.256m.823,3.538c.062-.034.179.033.272.056l-.114.273-.269-.071c.035-.091.046-.223.111-.258m3.879-1.846-1.791.24-2.927-3.806c.373-1.085.74-2.15,1.106-3.214l4.784-.253c-1.181,2.215-2.64,4.385-1.172,7.033m5.391,4.064a5.077,5.077,0,0,1,.3-.889l.747.321c-.138.285-.276.572-.413.857-.274-.122-.641-.237-.632-.289m-9.254,5.364.179.164-.058.137c.008-.033.016-.064.025-.1l-.2.144.051-.346m5.345-5.1c.284-1.028.52-1.879.755-2.724l.711.006c.106,1.159,1.326,2.93-1.466,2.718m-1.344-4.347h0c0,.023.009.047.013.071l-.113.03c-.017-.028-.022-.055-.038-.083Zm1.593-1.579q.24.5.479,1.006l-1.073-.473.594-.533m.479,1.006.131.058-.073.063q.318.645.637,1.289l.05-.018h0c0,.27,0,.54.007.81h-.014l0-.019c-.013-.248-.025-.5-.038-.744l-.669.671-1.792.37-.039-.007.07-.057q-.164-.887-.326-1.772l2.1-.561-.039-.083m.027,2.2h-.083l.084-.084.024-.005-.025.091m-5.979,8.124-.065.153.065-.153c-.051.205-.087.347,0,0M183,115.949c.011.169-.185.35-.291.526l-.576-.587.484-.388c.141.155.374.295.383.449m-.74,3,.165.581h-1.282l1.117-.581m-1.438.826.146-.245h.175l-.165.086Zm-.613-10.945.314-.521c.13.128.392.3.367.378a3.1,3.1,0,0,1-.4.681c-.091-.178-.182-.356-.276-.538m2.2,18.9-.589-1.1c.192-.078.515-.264.555-.215a8.658,8.658,0,0,1,.645,1q-.306.159-.611.319m.38-15.792-.99.044c-.009-.117-.018-.234-.026-.351h1c.006.1.011.2.017.307m-9.618,13.422c.058.137-.353.666-.46.641a6.225,6.225,0,0,1-1.293-.691c.559-.342.848-.655,1.035-.6a1.246,1.246,0,0,1,.718.653m2.517,1.079c-.028.137-.057.274-.085.411l-.259-.124c.014-.09,0-.224.05-.259.072-.048.194-.022.294-.028m1.947-8.994c-.163-.117-.48-.276-.462-.342a3.706,3.706,0,0,1,.4-.761l.585.377-.518.726m-3.835,4.774.39.066-.292.238c-.032-.1-.065-.2-.1-.3m8.065-16.928.008.237-.256-.111Z" transform="translate(-119.363 0)" fill="#612e45"/>
                <path id="Trazado_180742" data-name="Trazado 180742" d="M121.817,71.07a.572.572,0,0,0,.337-1.034l-14.731-9.671a.572.572,0,1,0-.673.924l14.731,9.672a.575.575,0,0,0,.336.109" transform="translate(-16.304 0)" fill="#361524"/>
                <path id="Trazado_180743" data-name="Trazado 180743" d="M6.866,245.465H6.9a48.913,48.913,0,0,0,20.077-6.657c9.611-5.959,11.421-12.789,11.492-13.077a.571.571,0,0,0-.414-.693.579.579,0,0,0-.694.413c-.017.067-1.8,6.691-10.987,12.386a47.684,47.684,0,0,1-19.548,6.487.572.572,0,0,0,.037,1.142" transform="translate(167.816 0)" fill="#361524"/>
                <path id="Trazado_180744" data-name="Trazado 180744" d="M85.157,71.259c2.542,2.961,10.27,9.223,10.27,9.223s-.8,1.372-1.737,3.418c-.116.256-.232.527-.356.806a39.026,39.026,0,0,0-1.775,4.976c-.085.334-.171.659-.248.992a13.5,13.5,0,0,0-.1,6.929c2.039,6.387,15.571,12.859,15.571,12.859l16.183-15.44s-.589-5.913-1.774-11.339c-.783-3.542-1.725-6.4-1.895-11.564-.157-4.748-.4-9.388-1.841-10.1-1.7-.835-3.585-.92-4.554,5.53-.394,2.628-1,8.851-2.3,10.448s-7.789-1.93-11.416-3.6-11.487-8.937-13.5-8.588-3.069,2.488-.527,5.441" transform="translate(5.972 0)" fill="#ffa6a6"/>
                <path id="Trazado_180745" data-name="Trazado 180745" d="M118.475,80.873a.388.388,0,0,0,.252-.682l-7.272-6.24a.388.388,0,1,0-.5.588l7.273,6.241a.387.387,0,0,0,.252.093" transform="translate(-17.077 0)" fill="#361524"/>
                <path id="Trazado_180746" data-name="Trazado 180746" d="M109.324,84.707l3.271,4.387a.392.392,0,0,0,.31.155.375.375,0,0,0,.232-.078.384.384,0,0,0,.078-.542L109.681,83.9c-.117.256-.233.527-.357.806" transform="translate(-10.018 0)" fill="#361524"/>
                <path id="Trazado_180747" data-name="Trazado 180747" d="M111.911,90.675l2.705,3.775a.407.407,0,0,0,.318.162.363.363,0,0,0,.225-.077.384.384,0,0,0,.085-.535l-3.085-4.317c-.085.333-.171.659-.248.992" transform="translate(-14.628 0)" fill="#361524"/>
                <path id="Trazado_180748" data-name="Trazado 180748" d="M8.618,110.462,23.941,92.24s1.922,2.806,4.953,7.286c1.271,1.883,2.743,4.061,4.348,6.448,11.052,16.463,59.884,92.379,63.8,101.013,3.091,6.813,3.553,13.827,1.743,19.161l.026.041a1.581,1.581,0,0,1,.851,2.125,8.986,8.986,0,0,1-1.01,6.227c-2.731,5.258-9.917,7.79-15.258,8.563s-29.628.226-29.628.226l-.2-18.308a13.237,13.237,0,0,1,5.885-6.2c-.92-1.879-8.572-15.59-20.31-37.958-15.379-29.3-30.521-70.406-30.521-70.406" transform="translate(104.135 0)" fill="#ffa6a6"/>
                <path id="Trazado_180749" data-name="Trazado 180749" d="M75.223,111.136c.543,1.519,1.473,4.154,2.643,7.425l21.787-12.587c-1.6-2.387-3.077-4.565-4.348-6.448Z" transform="translate(37.724 0)" fill="#e95a73"/>
                <path id="Trazado_180750" data-name="Trazado 180750" d="M82.716,108.819a5.167,5.167,0,1,1,5.167,5.167,5.167,5.167,0,0,1-5.167-5.167" transform="translate(36.834 0)" fill="#fff"/>
                <path id="Trazado_180751" data-name="Trazado 180751" d="M189.444,225.021S87.931,212.6,80.116,211.929s-25.609.366-29.743,11.217c-3.591,9.428-2.171,24.027,31.1,22.993,43.678-1.356,108.188-2.664,108.188-2.664s6.593-8.445,5.559-9.478-5.775-8.976-5.775-8.976" transform="translate(-31.745 0)" fill="#ffa6a6"/>
                <path id="Trazado_180752" data-name="Trazado 180752" d="M31.454,232.885a12.221,12.221,0,0,0,8.121-2.622c.481-.4.939-.808,1.38-1.2,2.329-2.047,4.011-3.528,5.912-2.769a.388.388,0,0,0,.287-.721c-2.345-.932-4.367.848-6.711,2.908-.437.385-.891.784-1.367,1.185-2.154,1.813-5.1,2.618-8.761,2.406-2.128-.126-7.248-.787-8.827-4.2l-.053-.113c-.536-1.148-.7-1.832-.5-2.032a3.485,3.485,0,0,1,1.8-.692c.227-.045.45-.089.66-.141,1.12-.282,2.117-.55,3.047-.819l.347-.1c3.429-.959,8.092-2.483,9-4.66a1.9,1.9,0,0,0-.111-1.733c-1.287-2.321-5.209-2.068-7.092-1.946a28,28,0,0,1-5.993-.178,19.75,19.75,0,0,1-3.894-1.089,14.5,14.5,0,0,0-9.224-.733.388.388,0,0,0,.153.76,13.85,13.85,0,0,1,8.808.7,20.4,20.4,0,0,0,4.039,1.126,28.838,28.838,0,0,0,6.161.186c1.59-.1,5.316-.343,6.365,1.547a1.15,1.15,0,0,1,.073,1.059c-.577,1.382-3.436,2.8-8.5,4.212l-.353.1c-.922.267-1.91.533-3.021.813-.2.049-.407.09-.62.131a4.1,4.1,0,0,0-2.2.9c-.692.686-.042,2.079.346,2.911l.051.11c1.692,3.656,6.669,4.482,9.485,4.648.4.025.8.036,1.185.036" transform="translate(156.039 0)" fill="#361524"/>
                <path id="Trazado_180753" data-name="Trazado 180753" d="M89.777,49.757a6.6,6.6,0,1,0-6.8-6.6,6.706,6.706,0,0,0,6.8,6.6m0-12.051a5.458,5.458,0,1,1-5.654,5.455,5.563,5.563,0,0,1,5.654-5.455" transform="translate(33.046 0)" fill="#fff"/>
                <path id="Trazado_180754" data-name="Trazado 180754" d="M107.19,49.757a6.6,6.6,0,1,0-6.8-6.6,6.706,6.706,0,0,0,6.8,6.6m0-12.051a5.458,5.458,0,1,1-5.654,5.455,5.563,5.563,0,0,1,5.654-5.455" transform="translate(-1.78 0)" fill="#fff"/>
                <rect id="Rectángulo_45063" data-name="Rectángulo 45063" width="4.962" height="1.143" transform="translate(111.635 42.589)" fill="#fff"/>
                <rect id="Rectángulo_45064" data-name="Rectángulo 45064" width="9.909" height="1.143" transform="matrix(-0.835, -0.55, 0.55, -0.835, 99.151, 41.841)" fill="#fff"/>
                <path id="Trazado_180755" data-name="Trazado 180755" d="M115.838,42.435c0,4.174,2.493,7.557,5.568,7.557s5.567-3.383,5.567-7.557-2.493-7.557-5.567-7.557-5.568,3.383-5.568,7.557" transform="translate(-30.211 0)" fill="#ffa6a6"/>
              </g>
            </g>
          </g>
        </g>
        <g id="Grupo_174259" data-name="Grupo 174259" transform="translate(570.911 2520.191)">
          <g id="Grupo_174226" data-name="Grupo 174226">
            <rect id="Rectángulo_44603" data-name="Rectángulo 44603" width="81.886" height="41.673" rx="20.836" transform="translate(38.089 0.13)" fill="#3c3fa7"/>
            <path id="Trazado_179939" data-name="Trazado 179939" d="M-14.016-1.968a1.3,1.3,0,0,1,.089-.489.4.4,0,0,1,.419-.222.9.9,0,0,1,.6.209q.248.209.552.457a3.719,3.719,0,0,0,.743.457,2.752,2.752,0,0,0,1.174.209,3.654,3.654,0,0,0,1.549-.311A3.973,3.973,0,0,0-7.75-2.425a3.364,3.364,0,0,0,.7-.978A2.269,2.269,0,0,0-6.8-4.342a1.818,1.818,0,0,0-.489-1.193A9.688,9.688,0,0,0-8.519-6.709q-.736-.6-1.587-1.27a12.5,12.5,0,0,1-1.587-1.485,7.859,7.859,0,0,1-1.225-1.822,5.121,5.121,0,0,1-.489-2.272,5.279,5.279,0,0,1,.54-2.406,6.132,6.132,0,0,1,1.39-1.834,6.27,6.27,0,0,1,1.9-1.174,5.6,5.6,0,0,1,2.063-.413,2.582,2.582,0,0,1,1.085.235,3.085,3.085,0,0,1,.908.628,3.112,3.112,0,0,1,.628.9,2.455,2.455,0,0,1,.235,1.041,3.227,3.227,0,0,1-.051.489,3.559,3.559,0,0,1-.159.616,1.794,1.794,0,0,1-.286.527.536.536,0,0,1-.432.222.658.658,0,0,1-.336-.1,1.09,1.09,0,0,1-.3-.273,1.65,1.65,0,0,1-.222-.387,1.189,1.189,0,0,1-.089-.457,1.76,1.76,0,0,0-.019-.229,1.232,1.232,0,0,0-.07-.273.662.662,0,0,0-.152-.235.36.36,0,0,0-.267-.1,2.431,2.431,0,0,0-.6.1,4.889,4.889,0,0,0-.793.3,6.012,6.012,0,0,0-.844.489,4.133,4.133,0,0,0-.762.673,3.457,3.457,0,0,0-.552.851,2.4,2.4,0,0,0-.216,1.016,2.5,2.5,0,0,0,.273,1.155,4.386,4.386,0,0,0,.73,1.016,9.784,9.784,0,0,0,1.035.939l1.174.927q.6.47,1.174.971A8.226,8.226,0,0,1-5.4-7.274a5.015,5.015,0,0,1,.73,1.238A3.833,3.833,0,0,1-4.393-4.57a4.538,4.538,0,0,1-.26,1.523A5.434,5.434,0,0,1-5.37-1.676,6.674,6.674,0,0,1-6.43-.521a7.506,7.506,0,0,1-1.282.9,6.583,6.583,0,0,1-1.4.578,5.2,5.2,0,0,1-1.409.2A4.073,4.073,0,0,1-11.9.927,3.325,3.325,0,0,1-13.013.279a3.03,3.03,0,0,1-.736-.99A2.935,2.935,0,0,1-14.016-1.968ZM.622-11.3a3.122,3.122,0,0,1,1.746.5,4.523,4.523,0,0,1,1.308,1.32A6.487,6.487,0,0,1,4.5-7.63a7.791,7.791,0,0,1,.286,2.095A6.445,6.445,0,0,1,4.38-3.2,5.841,5.841,0,0,1,3.307-1.4,4.793,4.793,0,0,1,1.771-.235,4.119,4.119,0,0,1-.013.178,2.938,2.938,0,0,1-1.65-.26,3.442,3.442,0,0,1-2.736-1.384a5.015,5.015,0,0,1-.6-1.53A7.763,7.763,0,0,1-3.517-4.57a8.687,8.687,0,0,1,.146-1.562,9.727,9.727,0,0,1,.413-1.542,9,9,0,0,1,.641-1.4,6.048,6.048,0,0,1,.838-1.155,3.876,3.876,0,0,1,1-.781A2.31,2.31,0,0,1,.622-11.3ZM.838-8.887a.87.87,0,0,0-.628.4,4.242,4.242,0,0,0-.59,1.041A8.23,8.23,0,0,0-.819-6,7.763,7.763,0,0,0-.99-4.38q0,.127.013.5a3.8,3.8,0,0,0,.108.762,1.949,1.949,0,0,0,.317.7.732.732,0,0,0,.628.3,1.241,1.241,0,0,0,.8-.33,3.314,3.314,0,0,0,.7-.851,4.984,4.984,0,0,0,.5-1.181,4.744,4.744,0,0,0,.19-1.32q0-.216-.013-.533A6.2,6.2,0,0,0,2.2-7a5.4,5.4,0,0,0-.146-.679A2.634,2.634,0,0,0,1.8-8.284,1.361,1.361,0,0,0,1.4-8.722.957.957,0,0,0,.838-8.887Zm4.8.419a2.051,2.051,0,0,1,.1-.578,2.651,2.651,0,0,1,.292-.641,1.974,1.974,0,0,1,.47-.521,1.011,1.011,0,0,1,.635-.216,1,1,0,0,1,.527.121.757.757,0,0,1,.3.349,1.7,1.7,0,0,1,.127.559q.025.33.025.736,0,.774.241.774.127,0,.254-.19l.533-.8a5.922,5.922,0,0,1,.711-.87,4.067,4.067,0,0,1,.933-.7A2.46,2.46,0,0,1,12-10.74a1.808,1.808,0,0,1,1.1.311,1.938,1.938,0,0,1,.641.889,4.706,4.706,0,0,1,.273,1.39,13.044,13.044,0,0,1-.025,1.8q-.063.851-.076,2.171t.1,3.25A1.539,1.539,0,0,1,14-.565a1.214,1.214,0,0,1-.121.368A.973.973,0,0,1,13.647.1a.524.524,0,0,1-.355.121,1.445,1.445,0,0,1-1.047-.362,2.272,2.272,0,0,1-.559-.863,3.93,3.93,0,0,1-.229-1.028q-.044-.527-.044-.844,0-.559.044-1t.089-.863q.044-.419.089-.832a8.387,8.387,0,0,0,.044-.9,5.836,5.836,0,0,0-.032-.679,1.734,1.734,0,0,0-.089-.406.438.438,0,0,0-.127-.2.229.229,0,0,0-.133-.051.864.864,0,0,0-.5.292,6.541,6.541,0,0,0-.667.749q-.355.457-.724,1.009T8.734-4.7a2.94,2.94,0,0,0-.222.508q-.083.254-.108.368a4.181,4.181,0,0,0-.038.628v.819q0,.432-.019.87a4.357,4.357,0,0,1-.1.793,1.7,1.7,0,0,1-.235.578.493.493,0,0,1-.432.222H7.325a1.175,1.175,0,0,1-.381-.07,1.957,1.957,0,0,1-.381-.178A1.872,1.872,0,0,1,6.24-.406.927.927,0,0,1,6.03-.686a3.749,3.749,0,0,1-.209-.844q-.083-.54-.133-1.212T5.624-4.164q-.013-.749-.013-1.46,0-.889.013-1.644T5.637-8.468Z" transform="translate(79.089 28.13)" fill="#ffd947"/>
          </g>
        </g>
      </g>
      <g id="Grupo_174263" data-name="Grupo 174263" transform="translate(1755 11321.669)">
        <g id="Grupo_174251" data-name="Grupo 174251" transform="translate(-1250.749 -9210.579)">
          <g id="Grupo_174250" data-name="Grupo 174250" transform="translate(0)">
            <path id="Trazado_179216" data-name="Trazado 179216" d="M23.483,111.606l11.961-.734,19.089,22.56-8.618-23.2,9.507-.583c7.762-.476,13.863-6.026,14.139-12.862L70.8,66.191a115.138,115.138,0,0,0-1.153-21.526L65.185,14.58C63.843,5.522,54.488-.918,44.163.108L22.476,2.263C11.383,3.365,2.744,11.237,1.888,21.022L.679,34.833A178.368,178.368,0,0,0,3.2,84.022L6.2,99.64c1.4,7.3,8.879,12.482,17.284,11.966" transform="translate(2.944 0)" fill="#c4d1ff"/>
            <path id="Trazado_179217" data-name="Trazado 179217" d="M31.835,123.83l12.12-.7L63.3,144.68l-8.732-22.164,9.633-.557c7.865-.455,14.047-5.757,14.326-12.287l1.25-29.224A103.786,103.786,0,0,0,78.6,59.885L74.089,31.146c-1.36-8.653-10.838-14.805-21.3-13.825L30.814,19.379C19.575,20.432,10.821,27.952,9.954,37.3L8.729,50.492a160.818,160.818,0,0,0,2.559,46.988L14.322,112.4C15.741,119.377,23.318,124.322,31.835,123.83Z" transform="translate(-8.042 -12.921)" fill="none" stroke="#483644" stroke-miterlimit="10" stroke-width="1"/>
          </g>
        </g>
        <path id="Trazado_179218" data-name="Trazado 179218" d="M-9.939-.867a5.2,5.2,0,0,1,.2-1.474,3.524,3.524,0,0,1,.609-1.2,2.733,2.733,0,0,1,1.028-.8,3.419,3.419,0,0,1,1.434-.284,3.977,3.977,0,0,1,1.123.162,2.584,2.584,0,0,1,.987.541,2.823,2.823,0,0,1,.7.974,3.6,3.6,0,0,1,.27,1.488A4.136,4.136,0,0,1-3.88.161a3.212,3.212,0,0,1-.811,1.163,3.434,3.434,0,0,1-1.177.69,4.139,4.139,0,0,1-1.366.23,2.763,2.763,0,0,1-1.366-.3A2.364,2.364,0,0,1-9.425,1.2a2.725,2.725,0,0,1-.406-1A5.578,5.578,0,0,1-9.939-.867Zm9.116,0a5.2,5.2,0,0,1,.2-1.474,3.524,3.524,0,0,1,.609-1.2,2.733,2.733,0,0,1,1.028-.8A3.419,3.419,0,0,1,2.45-4.627a3.977,3.977,0,0,1,1.123.162,2.584,2.584,0,0,1,.987.541,2.823,2.823,0,0,1,.7.974,3.6,3.6,0,0,1,.27,1.488,4.136,4.136,0,0,1-.3,1.623,3.212,3.212,0,0,1-.811,1.163,3.434,3.434,0,0,1-1.177.69,4.139,4.139,0,0,1-1.366.23,2.763,2.763,0,0,1-1.366-.3A2.364,2.364,0,0,1-.309,1.2,2.725,2.725,0,0,1-.715.2,5.578,5.578,0,0,1-.823-.867Zm9.116,0a5.2,5.2,0,0,1,.2-1.474,3.524,3.524,0,0,1,.609-1.2,2.733,2.733,0,0,1,1.028-.8,3.419,3.419,0,0,1,1.434-.284,3.977,3.977,0,0,1,1.123.162,2.584,2.584,0,0,1,.987.541,2.823,2.823,0,0,1,.7.974,3.6,3.6,0,0,1,.27,1.488,4.136,4.136,0,0,1-.3,1.623,3.212,3.212,0,0,1-.811,1.163,3.434,3.434,0,0,1-1.177.69A4.139,4.139,0,0,1,11,2.244a2.763,2.763,0,0,1-1.366-.3A2.364,2.364,0,0,1,8.806,1.2,2.725,2.725,0,0,1,8.4.2,5.578,5.578,0,0,1,8.292-.867Z" transform="translate(-1221.495 -9143.242)" fill="#12263f"/>
      </g>
    </g>
    <rect id="Rectángulo_44964" data-name="Rectángulo 44964" width="9" height="439" transform="translate(390 2108)" fill="#6b8dfc"/>
  </g>
</svg>
