<svg xmlns="http://www.w3.org/2000/svg" xmlns:xlink="http://www.w3.org/1999/xlink" width="155" height="110" viewBox="0 0 155 110">
  <defs>
    <clipPath id="clip-path">
      <rect id="Rectangle_45254" data-name="Rectangle 45254" width="91.787" height="87.472" fill="none"/>
    </clipPath>
  </defs>
  <g id="_5" data-name="5" transform="translate(-1130 -1466)">
    <g id="Group_174920" data-name="Group 174920" transform="translate(432 -3008.297)">
      <g id="Group_165391" data-name="Group 165391" transform="translate(698 4474.297)">
        <rect id="Rectangle_40797" data-name="Rectangle 40797" width="155" height="110" fill="#ffe891"/>
      </g>
    </g>
    <g id="Group_174925" data-name="Group 174925" transform="translate(1162 1477)">
      <g id="Group_174924" data-name="Group 174924" clip-path="url(#clip-path)">
        <path id="Path_182499" data-name="Path 182499" d="M0,52.038c.33-.207.236-.58.315-.871a4.261,4.261,0,0,1,5.154-3.124q2.3.522,4.593,1.114A4.294,4.294,0,0,1,13.269,54.5a4.3,4.3,0,0,1-4.827,3.516c-1.333-.143-2.664-.314-4-.4a4.443,4.443,0,0,1-4.233-3c-.043-.112-.067-.226-.208-.251Zm9.019,3.338c.84.026,1.467-.545,1.66-1.627a1.562,1.562,0,0,0-1.141-1.937c-1.572-.435-3.16-.821-4.752-1.174a1.517,1.517,0,0,0-1.815,1.077,6.6,6.6,0,0,0-.264,1.4,1.563,1.563,0,0,0,1.4,1.759c1.593.2,3.194.331,4.912.5" transform="translate(0 -23.183)" fill="#030303"/>
        <path id="Path_182500" data-name="Path 182500" d="M37.625,22.92a1.6,1.6,0,0,1,.4-2.149c1.987-1.94,3.93-3.925,5.9-5.88a6.278,6.278,0,0,1,9.312.025q3.847,3.817,7.664,7.666a4.838,4.838,0,0,1,.492.686c.465-.257.323-.524.327-.732.017-.955-.04-1.914.02-2.865a2.065,2.065,0,0,0-1.258-2.421A3.631,3.631,0,0,1,58.8,12.927c.124-.5-.005-.594-.406-.715A11.19,11.19,0,0,1,50.049,1.877C49.955.524,50.429.006,51.78.006c7.048,0,14.1-.014,21.144,0A11.19,11.19,0,0,1,84.062,9.249a1.245,1.245,0,0,0,.87,1.038,3.778,3.778,0,0,1,2.414,3.656,3.7,3.7,0,0,1-2.329,3.611,1.063,1.063,0,0,0-.748,1.188c.017,2.627.094,5.26-.038,7.881a11.143,11.143,0,0,1-11.7,10.682c-.3-.01-.593,0-.927,0a2.549,2.549,0,0,0,.853,2.335c1.2,1.068,2.318,2.241,3.429,3.409.387.407.59.377.971-.008,2.539-2.571,5.058-5.164,7.673-7.655a6.244,6.244,0,0,1,10.283,2.654,5.829,5.829,0,0,1-1.373,6.145q-6.353,6.5-12.861,12.856a6.11,6.11,0,0,1-8.512-.072c-1.8-1.706-3.537-3.474-5.26-5.254-.452-.467-.686-.429-1.1.019-.894.962-1.835,1.881-2.785,2.787-.342.326-.3.522.014.83q4.705,4.669,9.382,9.366a1.048,1.048,0,0,0,.936.353,3.926,3.926,0,0,1,3.3,1.283c.647.662,1.321,1.3,1.957,1.97.253.267.434.258.752.09q5.414-2.86,9.767,1.49c.3.295.6.585.885.889a3.624,3.624,0,0,1-.01,5.286Q84.83,81.2,79.7,86.275a3.8,3.8,0,0,1-5.919-.486c-.409-.55-.817-1.1-1.191-1.678a38.138,38.138,0,0,0-6.62-7.95,1.539,1.539,0,0,1-.4-2.141,1.462,1.462,0,0,1,2.27.208c.575.565,1.141,1.138,1.711,1.708.969.969.969.969,1.918-.132.451-.429.891-.87,1.357-1.281.33-.291.368-.509.018-.833-.677-.627-1.323-1.288-1.964-1.952a3.781,3.781,0,0,1-.714-4.592c.182-.365.233-.578-.1-.905q-3.754-3.7-7.462-7.449c-.266-.268-.434-.389-.762-.045-1.272,1.334-2.577,2.637-3.871,3.952-.9.763-.9.763-.066,1.593q2.807,2.807,5.612,5.615c.811.815.843,1.288.191,2.26a1.594,1.594,0,0,1-2.146-.4c-4.081-4.111-8.2-8.187-12.268-12.31-.544-.551-.8-.486-1.3.026-2.867,2.918-5.772,5.8-8.668,8.688-2.993,2.985-6.654,2.992-9.629.025-1.311-1.307-2.623-2.613-3.922-3.932a1.175,1.175,0,0,0-1.077-.44,3.628,3.628,0,0,1-3.081-1.126c-.68-.671-1.37-1.334-2.025-2.028a.619.619,0,0,0-.907-.119,7.6,7.6,0,0,1-9.562-1.413c-.382-.378-.771-.75-1.133-1.147A3.55,3.55,0,0,1,8,52.975q5.185-5.267,10.453-10.451a3.764,3.764,0,0,1,5.731.518c.126.166.253.333.364.51A55.485,55.485,0,0,0,33.93,54.659c.419.39.609.521,1.084.042q9.76-9.814,19.576-19.571c.459-.457.41-.689-.021-1.109q-2.759-2.688-5.447-5.447c-.431-.443-.663-.455-1.1-.007C45.528,31.1,43.042,33.641,40.48,36.1a6.248,6.248,0,0,1-10.471-3.022,5.934,5.934,0,0,1,1.361-5.59c.789-.894,1.669-1.707,2.513-2.553a1.452,1.452,0,0,1,1.884-.165c.645.965.609,1.45-.186,2.258-.686.7-1.4,1.367-2.069,2.084a3.6,3.6,0,1,0,5.256,4.915c2.862-2.838,5.7-5.7,8.556-8.545.937-.935,1.551-.932,2.5.005.809.8,1.618,1.592,2.4,2.409.278.289.463.371.786.041q2.163-2.207,4.37-4.369c.267-.264.3-.419.013-.7-2.111-2.065-4.205-4.146-6.3-6.223a3.488,3.488,0,0,0-5.148.031c-2.034,2-4.037,4.033-6.06,6.046a1.457,1.457,0,0,1-2.263.2M25.245,60.779a1.118,1.118,0,0,0-.029-1.726c-.526-.569-1.138-1.064-1.626-1.662-.587-.721-1.017-.622-1.441.116-.235.219-.464.448-.709.655s-.2.37.016.575c.72.7,1.4,1.448,2.149,2.111a1.079,1.079,0,0,0,1.64-.068M75.775,71.5c1.133-.982,1.133-.982.083-2.034-.441-.441-.868-.9-1.328-1.319-.658-.6-1.137-.57-1.832.075a1.09,1.09,0,0,0,.113,1.642c.54.587,1.162,1.1,1.676,1.706s.9.656,1.289-.071M41.727,54.8c.809.827,1.613,1.658,2.427,2.479,1.219,1.23,1.217,1.223,2.349-.081.2-.229.3-.385.087-.676a12.278,12.278,0,0,1-1.958-4.72V49.113l-.257-.055c-.932.956-1.859,1.918-2.8,2.866-1.455,1.467-1.46,1.463.15,2.877M68.258,12.657c-1.87-.14-3.744-.074-5.614-.038a1.329,1.329,0,0,0-1.314,1.407,1.306,1.306,0,0,0,1.384,1.227c1.843.01,3.687-.016,5.53-.027,1.7.01,3.4.026,5.1.028q4.881.007,9.762,0c.932,0,1.447-.413,1.524-1.165.089-.878-.517-1.465-1.6-1.477-1.881-.021-3.762-.012-5.642-.005q-4.565.019-9.13.052M56.123,60.611c1.272-1.251,2.538-2.509,3.82-3.75.272-.263.3-.437.014-.718q-4.824-4.768-9.629-9.556c-.3-.324-.627-.63-.9-.976-.411-.519-.656-.475-1,.1a8.522,8.522,0,0,0,1.107,10.166c1.565,1.672,3.224,3.256,4.842,4.879.85.852.851.852,1.654,0a.875.875,0,0,0,.094-.149M23.9,51.83c.516-.493,1.022-1,1.552-1.474a.464.464,0,0,0,.084-.742c-1.167-1.621-2.291-3.273-3.465-4.888a1.126,1.126,0,0,0-1.9-.142c-.434.405-.827.853-1.239,1.282-.512.494-1.032.981-1.535,1.484q-3.612,3.6-7.214,7.217c-.7.706-.7,1.106-.011,1.813a19.214,19.214,0,0,0,1.412,1.371,4.825,4.825,0,0,0,4.084,1.105c.423-.073.627-.173.44-.673a14.743,14.743,0,0,1-.563-1.972,1.341,1.341,0,0,1,.9-1.7,1.371,1.371,0,0,1,1.659.986,7.8,7.8,0,0,0,.542,1.578,1.173,1.173,0,0,0,.569-1.7,12.838,12.838,0,0,1-.606-2.052,1.388,1.388,0,0,1,.905-1.857c.733-.191,1.362.235,1.673,1.1a4.959,4.959,0,0,0,.458,1.356L23.9,51.83M74.331,76.866c-.6.577-1.185,1.162-1.792,1.727a.423.423,0,0,0-.07.669c1.177,1.643,2.315,3.315,3.5,4.951a1.1,1.1,0,0,0,1.833.154c.481-.436.909-.932,1.361-1.4q3.841-3.811,7.681-7.623C88.8,73.4,88.792,73.4,86.813,71.49a5.08,5.08,0,0,0-4.324-1.459c-.634.072-.743.293-.525.862a16.017,16.017,0,0,1,.488,1.716,1.34,1.34,0,1,1-2.566.726c-.162-.49-.307-.986-.462-1.485a1.123,1.123,0,0,0-.636,1.644,19.652,19.652,0,0,1,.646,2.227,1.339,1.339,0,1,1-2.568.756c-.18-.516-.324-1.044-.493-1.6l-2.042,1.983M35.479,58.076c-1,.553-1.4.507-2.2-.294Q31,55.514,28.726,53.234c-1.179-1.179-1.191-1.19-2.34-.007-.51.526-1.466.989-1.4,1.6.062.584.9,1.114,1.444,1.612a4.81,4.81,0,0,1,1.906,3.585,4.214,4.214,0,0,1-.543,1.86.46.46,0,0,0,.076.681c1.442,1.413,2.82,2.9,4.31,4.256a3.429,3.429,0,0,0,4.933-.318q2.974-2.939,5.951-5.874c.235-.231.284-.372.017-.628-1.178-1.127-2.334-2.275-3.5-3.416-.259-.282-.537-.549-.773-.85-.347-.444-.623-.495-1.036-.03-.73.821-1.527,1.582-2.3,2.368M60.542,2.718c-2.329-.008-4.659,0-6.988-.033-.551-.008-.707.089-.574.69a8.673,8.673,0,0,0,6.415,6.316,28.4,28.4,0,0,0,5.266.162c5.34.011,10.68.014,16.02.043.673,0,.734-.287.61-.827a8.544,8.544,0,0,0-7.772-6.35c-4.324-.072-8.651-.008-12.977,0m8.781,15.268c-1.43-.013-2.86-.011-4.289-.047-.459-.011-.625.121-.62.6.025,2.623-.048,5.249.044,7.869A8.548,8.548,0,0,0,81.5,26.94c.148-2.8.06-5.608.089-8.412,0-.4-.085-.591-.542-.587-3.909.027-7.818.033-11.727.045m.263,29.3a16.96,16.96,0,0,1-1.048,1.438c-.358.4-.33.641.058,1.019,1.688,1.642,3.334,3.325,5,4.985,1.829,1.817,4.029,1.715,5.734-.255Q85.418,48.414,91.5,42.35a3.3,3.3,0,0,0,.937-2.262A3.588,3.588,0,0,0,90.3,36.656a3.544,3.544,0,0,0-4.036.773c-2.691,2.666-5.363,5.352-8.042,8.029-1.767,1.766-1.942,1.766-3.7.006l-3.087-3.087a16.836,16.836,0,0,1-1.85,4.908m-11.331-9.5c-.177-.2-.37-.384-.526-.6-.462-.631-.834-.661-1.416-.04-1.461,1.56-3.008,3.04-4.521,4.553-1.318,1.317-1.318,1.317.138,2.563,2.772,2.793,5.552,5.579,8.309,8.387.372.379.562.219.843-.067,1.467-1.486,2.977-2.931,4.415-4.444A12.135,12.135,0,0,0,68.777,37.2a1.32,1.32,0,0,0-.791-1.059,10.554,10.554,0,0,1-5.848-7.275,6.4,6.4,0,0,0-2.044-3.305c-.376-.369-.583-.328-.925.023-1.333,1.367-2.672,2.73-4.057,4.043-.484.458-.486.7,0,1.168,2.285,2.229,4.533,4.5,6.778,6.765a1.343,1.343,0,0,1,.092,1.988,1.325,1.325,0,0,1-1.986-.085c-.589-.546-1.159-1.113-1.737-1.67" transform="translate(-3.366 0)" fill="#030303"/>
        <path id="Path_182501" data-name="Path 182501" d="M41.478,18.2a3.979,3.979,0,0,1-3.446-2.321c-.783-1.567-1.481-3.178-2.158-4.794a4.187,4.187,0,0,1,0-3.058c.742-2.153,3.528-3.141,5.212-3.109a4.3,4.3,0,0,1,4.032,3.349c.411,1.366.8,2.739,1.186,4.112.874,3.093-1.308,5.9-4.826,5.821m.35-2.687a1.8,1.8,0,0,0,1.9-2.347c-.39-1.437-.812-2.866-1.254-4.288a1.587,1.587,0,0,0-2.225-1.136c-.283.091-.567.186-.84.3a1.578,1.578,0,0,0-.958,2.25c.6,1.428,1.25,2.834,1.9,4.242a1.537,1.537,0,0,0,1.477.975" transform="translate(-17.213 -2.376)" fill="#030303"/>
        <path id="Path_182502" data-name="Path 182502" d="M24.905,29.25a4.676,4.676,0,0,1-2.586,4.059,4.1,4.1,0,0,1-4.549-.332c-1.267-.887-2.527-1.787-3.764-2.716a4.262,4.262,0,0,1-.768-6.358c1.677-2.089,3.444-2.92,5.3-2a15.8,15.8,0,0,1,6.018,5.661,2.444,2.444,0,0,1,.275.843,7.426,7.426,0,0,1,.08.848m-2.7-.058A1.552,1.552,0,0,0,21.673,28c-1.117-1.078-2.223-2.167-3.37-3.213a1.59,1.59,0,0,0-2.439.164c-.2.22-.392.451-.573.688a1.565,1.565,0,0,0,.272,2.423c1.235.938,2.505,1.829,3.766,2.732a1.517,1.517,0,0,0,1.765.129A2.07,2.07,0,0,0,22.2,29.192" transform="translate(-5.88 -10.414)" fill="#030303"/>
        <path id="Path_182503" data-name="Path 182503" d="M57.586,48.739a3.513,3.513,0,0,1-.144-5.076c.665-.717,1.382-1.386,2.068-2.084.8-.808.832-1.293.186-2.258a10.246,10.246,0,0,0,1.858-1.853,1.457,1.457,0,0,0,2.263-.2c2.022-2.012,4.025-4.045,6.06-6.046a3.487,3.487,0,0,1,5.148-.031,5.981,5.981,0,0,0-4,1.907q-5.881,5.87-11.746,11.756a5.08,5.08,0,0,0-1.695,3.881" transform="translate(-27.295 -14.548)" fill="#fbc8bb"/>
        <path id="Path_182504" data-name="Path 182504" d="M110.871,130.911c.652-.973.62-1.446-.191-2.26q-2.8-2.813-5.613-5.615c-.83-.83-.83-.83.066-1.593.27.23.557.443.807.693q5.887,5.876,11.77,11.756c.266.265.471.637.918.655-.949,1.1-.949,1.1-1.917.132-.57-.57-1.137-1.144-1.711-1.709a1.461,1.461,0,0,0-2.269-.208,10.3,10.3,0,0,0-1.861-1.852" transform="translate(-50.526 -58.744)" fill="#fbc8bb"/>
        <path id="Path_182505" data-name="Path 182505" d="M11.548,57.878c-1.718-.173-3.319-.308-4.912-.5a1.563,1.563,0,0,1-1.4-1.759,6.6,6.6,0,0,1,.264-1.4,1.517,1.517,0,0,1,1.815-1.077c1.593.353,3.18.739,4.752,1.174a1.562,1.562,0,0,1,1.141,1.937c-.193,1.082-.82,1.654-1.66,1.627" transform="translate(-2.529 -25.686)" fill="#f1dd64"/>
        <path id="Path_182506" data-name="Path 182506" d="M100.39,61.49c.578.558,1.148,1.124,1.737,1.67a1.325,1.325,0,0,0,1.986.085,1.343,1.343,0,0,0-.092-1.988c-2.245-2.27-4.493-4.536-6.778-6.765-.482-.47-.48-.709,0-1.168,1.385-1.313,2.724-2.676,4.057-4.043.342-.351.549-.391.925-.023a6.4,6.4,0,0,1,2.044,3.305,10.554,10.554,0,0,0,5.848,7.275,1.32,1.32,0,0,1,.791,1.059,12.135,12.135,0,0,1-3.279,10.948c-1.438,1.513-2.948,2.958-4.415,4.444-.281.286-.471.446-.843.067-2.757-2.808-5.536-5.594-8.309-8.387.033-.113.03-.261.1-.334,2.058-2.064,4.04-4.206,6.221-6.146" transform="translate(-45.501 -23.702)" fill="#e5a460"/>
        <path id="Path_182507" data-name="Path 182507" d="M128.263,81.326a16.836,16.836,0,0,0,1.85-4.908L133.2,79.5c1.761,1.76,1.936,1.759,3.7-.006,2.679-2.678,5.35-5.364,8.042-8.029a3.544,3.544,0,0,1,4.036-.773,3.588,3.588,0,0,1,2.129,3.432,3.3,3.3,0,0,1-.937,2.262q-6.067,6.075-12.161,12.122a4.961,4.961,0,0,1-3.754-1.543c-1.709-1.652-3.369-3.355-5.053-5.033-.268-.268-.5-.609-.942-.61" transform="translate(-62.043 -34.041)" fill="#fcdacc"/>
        <path id="Path_182508" data-name="Path 182508" d="M127.745,34.794c3.909-.012,7.818-.019,11.727-.046.457,0,.545.191.541.588-.029,2.8.059,5.615-.089,8.412a8.388,8.388,0,0,1-7.525,7.614,1.928,1.928,0,0,0-.293-.334c-3.1-2.2-4.331-5.309-4.361-8.99-.02-2.415,0-4.83,0-7.245" transform="translate(-61.788 -16.808)" fill="#fddbcd"/>
        <path id="Path_182509" data-name="Path 182509" d="M58.666,49.787a5.08,5.08,0,0,1,1.695-3.881Q66.209,40,72.107,34.15a5.981,5.981,0,0,1,4-1.907c2.1,2.076,4.193,4.159,6.3,6.223.289.283.255.439-.013.7q-2.2,2.167-4.37,4.369c-.323.33-.509.248-.786-.041-.786-.817-1.6-1.613-2.4-2.409-.951-.937-1.565-.94-2.5,0-2.854,2.847-5.693,5.707-8.556,8.545a3.506,3.506,0,0,1-5.112.161" transform="translate(-28.375 -15.596)" fill="#fddbcd"/>
        <path id="Path_182510" data-name="Path 182510" d="M110.745,5.236c4.325-.005,8.652-.07,12.977,0a8.544,8.544,0,0,1,7.772,6.35c.123.541.063.831-.61.827-5.34-.029-10.68-.031-16.02-.043-.022-.378-.32-.522-.571-.736a8.942,8.942,0,0,1-3.547-6.4" transform="translate(-53.569 -2.517)" fill="#26457c"/>
        <path id="Path_182511" data-name="Path 182511" d="M56.47,105.631c1.164,1.141,2.32,2.29,3.5,3.416.267.256.218.4-.017.627Q56.967,112.6,54,115.549a5.434,5.434,0,0,1-3.788-1.7c-1.41-1.4-2.81-2.813-4.221-4.213-.226-.224-.4-.529-.767-.569a4.813,4.813,0,0,0-1.906-3.585c-.546-.5-1.381-1.028-1.444-1.612-.066-.614.89-1.077,1.4-1.6,1.148-1.183,1.161-1.171,2.34.007q2.275,2.274,4.552,4.548c.806.8,1.2.848,2.2.294.326.3.665.59.972.909.27.279.5.388.807.046a31.4,31.4,0,0,0,2.325-2.444" transform="translate(-20.253 -49.043)" fill="#fddbcd"/>
        <path id="Path_182512" data-name="Path 182512" d="M119.268,130.648c-.448-.019-.653-.39-.918-.655q-5.89-5.874-11.77-11.756c-.25-.25-.537-.463-.807-.694,1.293-1.314,2.6-2.618,3.871-3.952.328-.344.5-.223.762.045q3.718,3.738,7.462,7.449c.332.327.281.54.1.905a3.781,3.781,0,0,0,.714,4.593c.641.664,1.288,1.325,1.964,1.952.349.324.312.543-.019.833-.467.411-.906.852-1.357,1.281" transform="translate(-51.164 -54.843)" fill="#fcdacc"/>
        <path id="Path_182513" data-name="Path 182513" d="M137.454,142.441l2.042-1.983c.169.552.313,1.081.492,1.6a1.34,1.34,0,1,0,2.569-.756,19.838,19.838,0,0,0-.646-2.227,1.123,1.123,0,0,1,.636-1.644c.154.5.3.995.462,1.484a1.339,1.339,0,1,0,2.566-.726,15.776,15.776,0,0,0-.487-1.716c-.218-.569-.109-.79.525-.862a5.078,5.078,0,0,1,4.324,1.459c1.979,1.909,1.99,1.906.034,3.852q-3.836,3.816-7.681,7.623a2.477,2.477,0,0,1-1.6-1.322,55.552,55.552,0,0,1-3.239-4.778" transform="translate(-66.489 -65.575)" fill="#f4f2f2"/>
        <path id="Path_182514" data-name="Path 182514" d="M26.434,94.8l-2.25,2.087a4.956,4.956,0,0,1-.458-1.357c-.311-.864-.94-1.289-1.673-1.1a1.388,1.388,0,0,0-.9,1.857,12.837,12.837,0,0,0,.605,2.052,1.173,1.173,0,0,1-.568,1.7,7.8,7.8,0,0,1-.542-1.578,1.37,1.37,0,0,0-1.659-.986,1.342,1.342,0,0,0-.905,1.7,14.842,14.842,0,0,0,.563,1.972c.187.5-.017.6-.439.672a4.822,4.822,0,0,1-4.084-1.105,19.207,19.207,0,0,1-1.412-1.371c-.689-.706-.692-1.107.011-1.813q3.6-3.616,7.214-7.216c.5-.5,1.023-.99,1.535-1.484A2.886,2.886,0,0,1,22.737,89.9c.707,1.013,1.39,2.046,2.15,3.019.5.639.763,1.479,1.547,1.883" transform="translate(-5.896 -42.972)" fill="#f4f2f2"/>
        <path id="Path_182515" data-name="Path 182515" d="M123.151,34.792c0,2.415-.02,4.83,0,7.244.03,3.681,1.261,6.79,4.361,8.99a1.928,1.928,0,0,1,.293.334,8.462,8.462,0,0,1-9.519-8.148c-.092-2.62-.019-5.245-.044-7.869,0-.477.161-.609.62-.6,1.429.036,2.859.034,4.289.047" transform="translate(-57.193 -16.807)" fill="#fbc8bb"/>
        <path id="Path_182516" data-name="Path 182516" d="M90.231,90.235q4.812,4.781,9.629,9.556c.284.28.259.454-.013.718-1.282,1.241-2.548,2.5-3.82,3.75A38.742,38.742,0,0,1,91.355,99.6a9.513,9.513,0,0,1-1.809-7.415,2.6,2.6,0,0,1,.684-1.948" transform="translate(-43.269 -43.648)" fill="#9cc4f9"/>
        <path id="Path_182517" data-name="Path 182517" d="M103.618,5.234a8.942,8.942,0,0,0,3.547,6.4c.251.213.549.358.571.736a28.411,28.411,0,0,1-5.266-.162,8.674,8.674,0,0,1-6.415-6.316c-.133-.6.023-.7.575-.691,2.329.031,4.658.025,6.988.033" transform="translate(-46.442 -2.515)" fill="#21386a"/>
        <path id="Path_182518" data-name="Path 182518" d="M125.339,24.46q4.565-.026,9.13-.051c1.881-.008,3.762-.016,5.642.005,1.086.012,1.692.6,1.6,1.477-.076.752-.592,1.162-1.524,1.165q-4.881.011-9.762,0c-1.7,0-3.4-.019-5.1-.028a2.423,2.423,0,0,1,.014-2.57" transform="translate(-60.446 -11.803)" fill="#dc626d"/>
        <path id="Path_182519" data-name="Path 182519" d="M88.063,88.982a2.6,2.6,0,0,0-.684,1.948,9.513,9.513,0,0,0,1.809,7.415,38.741,38.741,0,0,0,4.671,4.661.936.936,0,0,1-.094.149c-.8.852-.8.853-1.655,0-1.618-1.622-3.277-3.207-4.841-4.878a8.522,8.522,0,0,1-1.107-10.166c.345-.58.59-.624,1-.1.274.346.6.652.9.976" transform="translate(-41.101 -42.395)" fill="#7eb1f7"/>
        <path id="Path_182520" data-name="Path 182520" d="M127.045,91.588c.445,0,.673.342.942.61,1.684,1.678,3.343,3.381,5.053,5.033a4.961,4.961,0,0,0,3.754,1.543c-1.705,1.97-3.905,2.072-5.734.255-1.67-1.659-3.317-3.343-5-4.985-.388-.377-.416-.617-.058-1.019a16.962,16.962,0,0,0,1.048-1.438" transform="translate(-60.825 -44.303)" fill="#fbc8bb"/>
        <path id="Path_182521" data-name="Path 182521" d="M47.747,116.269c.366.04.542.345.767.569,1.412,1.4,2.812,2.811,4.222,4.213a5.433,5.433,0,0,0,3.788,1.7,3.429,3.429,0,0,1-4.933.318c-1.49-1.359-2.867-2.843-4.31-4.256a.46.46,0,0,1-.077-.682,4.208,4.208,0,0,0,.543-1.86" transform="translate(-22.777 -56.241)" fill="#fbc8bb"/>
        <path id="Path_182522" data-name="Path 182522" d="M35.124,93.175c-.784-.4-1.048-1.244-1.547-1.883-.76-.973-1.443-2.005-2.15-3.019a2.886,2.886,0,0,0-1.271-1.063c.411-.429.805-.877,1.239-1.282a1.125,1.125,0,0,1,1.9.143c1.174,1.615,2.3,3.268,3.465,4.888a.464.464,0,0,1-.084.742c-.53.477-1.036.981-1.551,1.474" transform="translate(-14.587 -41.345)" fill="#d9d6e7"/>
        <path id="Path_182523" data-name="Path 182523" d="M135.586,148.883a55.56,55.56,0,0,0,3.239,4.778,2.477,2.477,0,0,0,1.6,1.322c-.452.469-.879.965-1.361,1.4a1.1,1.1,0,0,1-1.834-.154c-1.186-1.636-2.324-3.307-3.5-4.951a.423.423,0,0,1,.07-.669c.606-.566,1.2-1.15,1.792-1.728" transform="translate(-64.621 -72.017)" fill="#d9d6e7"/>
        <path id="Path_182524" data-name="Path 182524" d="M119.2,24.436a2.423,2.423,0,0,0-.014,2.57c-1.843.011-3.687.038-5.53.027a1.307,1.307,0,0,1-1.384-1.227,1.329,1.329,0,0,1,1.314-1.406c1.871-.037,3.744-.1,5.614.037" transform="translate(-54.304 -11.779)" fill="#c8464f"/>
        <path id="Path_182525" data-name="Path 182525" d="M99.351,72.175c-2.181,1.94-4.163,4.082-6.221,6.146-.073.073-.071.221-.1.334-1.455-1.246-1.455-1.246-.138-2.563,1.513-1.512,3.059-2.992,4.521-4.553.582-.621.954-.592,1.416.04.156.213.35.4.526.6" transform="translate(-44.462 -34.386)" fill="#db8d67"/>
        <path id="Path_182526" data-name="Path 182526" d="M77.208,100.335a12.271,12.271,0,0,0,1.958,4.72c.215.292.112.448-.087.677-1.133,1.3-1.13,1.311-2.349.081-.814-.821-1.619-1.652-2.428-2.479a12.985,12.985,0,0,1,2.906-3" transform="translate(-35.941 -48.534)" fill="#9cc4f9"/>
        <path id="Path_182527" data-name="Path 182527" d="M76.06,97.765a12.985,12.985,0,0,0-2.906,3c-1.61-1.414-1.606-1.409-.15-2.877.94-.948,1.866-1.91,2.8-2.866l.257.055Z" transform="translate(-34.793 -45.963)" fill="#7eb1f7"/>
        <path id="Path_182528" data-name="Path 182528" d="M66.3,108.476a31.4,31.4,0,0,1-2.325,2.444c-.307.342-.537.233-.807-.046-.307-.319-.646-.608-.972-.909.769-.786,1.566-1.548,2.3-2.369.413-.465.688-.414,1.036.03.235.3.514.568.773.851" transform="translate(-30.087 -51.888)" fill="#fbc8bb"/>
        <path id="Path_182529" data-name="Path 182529" d="M134.29,131.676c.694-.645,1.173-.677,1.832-.075.46.42.886.877,1.328,1.319,1.051,1.052,1.051,1.052-.083,2.034a9.357,9.357,0,0,1-3.077-3.277" transform="translate(-64.958 -63.449)" fill="#f4f2f2"/>
        <path id="Path_182530" data-name="Path 182530" d="M38.657,114.658a1.079,1.079,0,0,1-1.641.068c-.752-.662-1.429-1.411-2.149-2.111-.211-.2-.264-.366-.015-.575s.473-.436.709-.655a12.664,12.664,0,0,1,3.027,2.84c.083.088.049.286.069.433" transform="translate(-16.778 -53.879)" fill="#f4f2f2"/>
        <path id="Path_182531" data-name="Path 182531" d="M39.477,114.088c-.02-.147.014-.345-.069-.433a12.664,12.664,0,0,0-3.027-2.84c.424-.738.853-.836,1.441-.116.487.6,1.1,1.093,1.626,1.663a1.118,1.118,0,0,1,.029,1.726" transform="translate(-17.598 -53.309)" fill="#d9d6e7"/>
        <path id="Path_182532" data-name="Path 182532" d="M133.984,132.15a9.357,9.357,0,0,0,3.077,3.277c-.392.726-.781.669-1.288.071s-1.136-1.12-1.676-1.706a1.089,1.089,0,0,1-.113-1.642" transform="translate(-64.652 -63.923)" fill="#d9d6e7"/>
        <path id="Path_182533" data-name="Path 182533" d="M44.355,18.039a1.536,1.536,0,0,1-1.478-.975c-.645-1.408-1.295-2.815-1.9-4.242a1.577,1.577,0,0,1,.958-2.25c.273-.117.557-.212.84-.3a1.587,1.587,0,0,1,2.225,1.136c.442,1.422.865,2.85,1.254,4.288a1.8,1.8,0,0,1-1.9,2.347" transform="translate(-19.74 -4.908)" fill="#f1dd64"/>
        <path id="Path_182534" data-name="Path 182534" d="M24.719,31.779a2.07,2.07,0,0,1-1.107,1.727,1.517,1.517,0,0,1-1.765-.129c-1.261-.9-2.531-1.794-3.766-2.732a1.565,1.565,0,0,1-.272-2.423c.181-.237.372-.467.573-.688a1.59,1.59,0,0,1,2.439-.164c1.147,1.045,2.253,2.135,3.37,3.213a1.552,1.552,0,0,1,.528,1.195" transform="translate(-8.397 -13)" fill="#f1dd64"/>
      </g>
    </g>
  </g>
</svg>
