<svg xmlns="http://www.w3.org/2000/svg" xmlns:xlink="http://www.w3.org/1999/xlink" width="400" height="453.296" viewBox="0 0 400 453.296">
  <defs>
    <clipPath id="clip-path">
      <rect id="Rectángulo_44958" data-name="Rectángulo 44958" width="400" height="439" transform="translate(-105 -0.421)" fill="#fff" stroke="#707070" stroke-width="1"/>
    </clipPath>
    <clipPath id="clip-path-2">
      <rect id="Rectángulo_45066" data-name="Rectángulo 45066" width="243.35" height="423.629" fill="none"/>
    </clipPath>
  </defs>
  <g id="_6" data-name="6" transform="translate(-810 -2585)">
    <g id="Grupo_174268" data-name="Grupo 174268" transform="translate(61 80)">
      <g id="Grupo_174267" data-name="Grupo 174267">
        <g id="Enmascarar_grupo_280" data-name="Enmascarar grupo 280" transform="translate(854 2505.421)" clip-path="url(#clip-path)">
          <g id="Grupo_174258" data-name="Grupo 174258" transform="translate(-115 -23.051)">
            <g id="Grupo_174245" data-name="Grupo 174245" transform="translate(0 217.276)">
              <rect id="Rectángulo_44953" data-name="Rectángulo 44953" width="328.839" height="244.274" transform="translate(99.478)" fill="#fff7da"/>
              <path id="Trazado_179299" data-name="Trazado 179299" d="M139,0H428.317V140.375H0V139A139,139,0,0,1,139,0Z" transform="translate(0 103.9)" fill="#fff0b5"/>
            </g>
          </g>
          <g id="Grupo_174537" data-name="Grupo 174537" transform="translate(-22.516 23.579)">
            <g id="Grupo_174536" data-name="Grupo 174536" clip-path="url(#clip-path-2)">
              <path id="Trazado_180756" data-name="Trazado 180756" d="M81.742,123.5s-22.493,2.977-47.808,36.852C15.512,185-1.342,219.21.085,226.25s43.079-11.317,43.079-11.317l38.1-29.413Z" transform="translate(0 -18.785)" fill="#ffa6a6"/>
              <path id="Trazado_180757" data-name="Trazado 180757" d="M191.094,195.171,175.866,258.7l-77.683,4.212L82.142,199.2l-3.186-24.5s-18.815-34.267-12.734-40.777,17.5-10.527,31.474-14.964c.1-.039.233-.079.345-.118,1.131-.352,2.289-.684,3.457-.987.309-.088.627-.166.934-.235.141-.039.281-.078.421-.107,3.27-.811,6.605-1.437,9.791-1.916.308-.048.616-.1.934-.137a157.146,157.146,0,0,1,15.715-1.466.025.025,0,0,0,.018-.01h.01a87.141,87.141,0,0,1,22.935-1.349c.346.02.672.049,1.028.079l.672.059c1.43.137,2.878.322,4.3.527.906.137,1.813.284,2.709.44.309.049.617.108.925.166,1.374.254,2.738.547,4.083.85,23.1,5.248,32.484,9.7,39.164,17.485s-14.042,62.934-14.042,62.934" transform="translate(-9.889 -17.097)" fill="#ffa6a6"/>
              <path id="Trazado_180758" data-name="Trazado 180758" d="M159.777,67.182c-1.077-2.878-.921-5.947-.545-9.053-.226-3.324-.233-6.664-1.075-9.864-1.4-5.315-7.013-7.346-8.515-12.6-1.006-3.514-.622-7.366-2.267-10.713a15.648,15.648,0,0,0-5.838-5.9c-3.925-2.585-7.171-4.624-9.824-8.562C128.545,5.8,124.8,1.875,119.486.245c-5.727-.768-11.178.341-16.67,2.347C97.992,4.352,93.7,7.314,88.984,9.349c-3.3,1.423-6.811,2.4-9.9,4.234-6.663,3.961-10.824,11.77-11.923,19.3-1.2,8.2,3.678,16.14,1.881,24.342-1.508,6.885-7.718,12.751-6.761,19.732.507,3.7,3.035,7.032,2.849,10.759-.153,3.1-2.131,6.478-.42,9.072l.216,0c5.115-1,10.267-1.843,15.378-2.849q12.236-2.408,24.458-4.886,30.158-6.119,60.259-12.509a14.712,14.712,0,0,0-1.233-2.589c-1.348-2.26-3.091-4.314-4.013-6.779" transform="translate(-9.459 0)" fill="#fadacd"/>
              <path id="Trazado_180759" data-name="Trazado 180759" d="M94.509,92.9H83.334a.677.677,0,0,1-.67-.778L85.6,72.539a.677.677,0,1,1,1.339.2l-2.819,18.8h10.39a.677.677,0,1,1,0,1.355" transform="translate(-12.573 -10.946)" fill="#fff"/>
              <path id="Trazado_180760" data-name="Trazado 180760" d="M137.351,60.012a26.458,26.458,0,0,1-1.591,3.072.019.019,0,0,0,0,.027,31.325,31.325,0,0,1-4.6,5.9A30.6,30.6,0,0,1,80.136,56.205l-.013-.014c-.087-.274-.148-.546-.221-.82-.048-.191-.084-.368-.133-.559-.025-.1-.036-.164-.048-.205s-.025-.054-.025-.054a29.57,29.57,0,0,1-.632-3.542c-.043-.381-.086-.761-.116-1.142a30.637,30.637,0,0,1,1.036-10.73,30.3,30.3,0,0,1,7.779-13.318,30.607,30.607,0,0,1,49.59,34.19" transform="translate(-11.994 -2.556)" fill="#ffa6a6"/>
              <path id="Trazado_180761" data-name="Trazado 180761" d="M113.511,97.1a25.474,25.474,0,0,0,15.4-10.464,40.781,40.781,0,0,0,4.835-10.085c.32-.957,2.883-7.708,2.163-8.446,1.595-8.18-20.774-18.281-20.774-18.281L87.741,57.4l-7.9,2.173a.157.157,0,0,0,.02.061c.052.172.226.731.492,1.563.265.792.6,1.837,1.023,3.085A130.558,130.558,0,0,0,91.91,87.412c3.773,6.287,9.367,10.425,16.968,10.254a23.876,23.876,0,0,0,4.633-.564" transform="translate(-12.145 -7.579)" fill="#ffa6a6"/>
              <path id="Trazado_180762" data-name="Trazado 180762" d="M159.261,118.421l-25.448,11.84s-13.378-6.6-13.408-6.94c-.011-.081-1.335-6.448-2.815-13.483-.715-3.462-1.48-7.088-2.136-10.21-.989-4.771-1.742-8.343-1.742-8.343L141.4,63.151Z" transform="translate(-17.297 -9.606)" fill="#ffa6a6"/>
              <path id="Trazado_180763" data-name="Trazado 180763" d="M84.708,28.152s15.717,10.6,29.553,12.519L128.1,42.589l17.711,38.926,11.758-2.464s-5.366-36.173-8.4-42.527S138.519,18.944,130.208,16s-6.2-18.245-18.137-13.5S87.744,13.323,85.079,15.11s-.371,13.041-.371,13.041" transform="translate(-12.745 -0.242)" fill="#fadacd"/>
              <path id="Trazado_180764" data-name="Trazado 180764" d="M108.124,59.973a4.232,4.232,0,0,1-.364-.994,2.451,2.451,0,0,1,.044-1.419c.471-1.214,1.724-.99,2.444-.181a4.891,4.891,0,0,1,1.168,2.461,2.411,2.411,0,0,1-.038,1.112,1.213,1.213,0,0,1-.729.8,1.588,1.588,0,0,1-1.43-.425,4.258,4.258,0,0,1-1.1-1.353" transform="translate(-16.379 -8.626)" fill="#361524"/>
              <path id="Trazado_180765" data-name="Trazado 180765" d="M89.859,67.64a4.233,4.233,0,0,1-.364-.994,2.45,2.45,0,0,1,.044-1.419c.471-1.214,1.724-.99,2.444-.181a4.9,4.9,0,0,1,1.168,2.461,2.411,2.411,0,0,1-.038,1.112,1.213,1.213,0,0,1-.729.8,1.588,1.588,0,0,1-1.43-.425,4.247,4.247,0,0,1-1.1-1.353" transform="translate(-13.601 -9.793)" fill="#361524"/>
              <path id="Trazado_180766" data-name="Trazado 180766" d="M99.981,51.767a2.532,2.532,0,0,0,1.666.27,20.241,20.241,0,0,0,7.738-2.45,3.88,3.88,0,0,0,1.79-1.554c1.132-2.338-2.707-2.964-4.172-2.846a11.036,11.036,0,0,0-3.535.985,8.541,8.541,0,0,0-3.448,2.455,3.124,3.124,0,0,0-.694,1.592,1.806,1.806,0,0,0,.655,1.547" transform="translate(-15.108 -6.872)" fill="#fadacd"/>
              <path id="Trazado_180767" data-name="Trazado 180767" d="M86.161,55.606A2.148,2.148,0,0,0,86,55.425a3.247,3.247,0,0,0-1.579-.722,8.609,8.609,0,0,0-4.213.449c-.424.137-.835.288-1.246.466.03.38.073.761.116,1.141a29.571,29.571,0,0,0,.632,3.542s0,.014.025.055.024.109.048.2c.049.191.084.368.133.56a19.453,19.453,0,0,0,5.555-2.8,2.539,2.539,0,0,0,1.067-1.3,1.645,1.645,0,0,0-.38-1.42" transform="translate(-12.012 -8.305)" fill="#fadacd"/>
              <path id="Trazado_180768" data-name="Trazado 180768" d="M102.508,75.322c-1.99,0-3.2-.194-3.6-.579-.181-.173-.733-.7-1.532-9.016a.678.678,0,0,1,1.35-.13,62.142,62.142,0,0,0,1.146,8.159,18.75,18.75,0,0,0,4.167.178.657.657,0,0,1,.7.649.677.677,0,0,1-.65.7c-.571.024-1.1.035-1.58.035" transform="translate(-14.811 -9.885)" fill="#361524"/>
              <path id="Trazado_180769" data-name="Trazado 180769" d="M126.71,109.108a24.3,24.3,0,0,1-8.808,4.764c-.716-3.463-1.48-7.089-2.136-10.211l.014-.014s8.006-2.754,12.89-7.7a70,70,0,0,0,5.816-6.272s.506,12.225-7.775,19.429" transform="translate(-17.609 -13.641)" fill="#361524"/>
              <path id="Trazado_180770" data-name="Trazado 180770" d="M103.973,81.971a11.092,11.092,0,0,1-2.2-.216.677.677,0,1,1,.27-1.327c3.23.657,7.475-.332,9.352-3.5a15.549,15.549,0,0,0,.945-2.337.677.677,0,0,1,1.289.415,17.023,17.023,0,0,1-1.069,2.612c-1.781,3.007-5.334,4.351-8.584,4.351" transform="translate(-15.398 -11.275)" fill="#361524"/>
              <path id="Trazado_180771" data-name="Trazado 180771" d="M143.23,50.573c1.165,6.325-1.857,12.183-6.751,13.085s-9.8-3.495-10.97-9.821,1.857-12.183,6.75-13.085,9.806,3.495,10.971,9.82" transform="translate(-19.054 -6.181)" fill="#ffa6a6"/>
              <path id="Trazado_180772" data-name="Trazado 180772" d="M83.221,32.53a.676.676,0,0,1-.4-.13L78.4,29.183a.677.677,0,1,1,.8-1.095L83.618,31.3a.677.677,0,0,1-.4,1.225" transform="translate(-11.884 -4.253)" fill="#361524"/>
              <path id="Trazado_180773" data-name="Trazado 180773" d="M159.21,114.248q-1.338,2.951-2.588,5.95c-4.225,10.109-11.446,23.928-24.685,22.213-5.494-.717-9.759-4.826-12.094-9.663-2.345-4.865-2.772-10.292-2.791-15.642.329-.048.649-.1.969-.136.038,6.939.766,14.159,5.446,19.6,5.525,6.4,14.062,6.056,20.556,1.269,6.687-4.942,9.663-13.18,12.783-20.555.437-1.047.892-2.084,1.347-3.111.349.02.7.048,1.056.077" transform="translate(-17.805 -17.367)" fill="#fff"/>
              <path id="Trazado_180774" data-name="Trazado 180774" d="M186.8,196.8c-1.925-2.216-27.85-42.667-27.85-42.667s-32.379,32-33.151,33.013c-.638-1.812-26.815-31.439-26.815-31.439S80.238,181.838,79.9,182.431c-.8,1.393-2.964,9.628-2.745,11.226.362,2.647.454-.331.816,2.316l1.384,10.116,16.636,63.173,80.581-4.178L192.358,202.1a62.582,62.582,0,0,1-5.56-5.3" transform="translate(-11.734 -23.445)" fill="#361524"/>
              <path id="Trazado_180775" data-name="Trazado 180775" d="M79.239,187.508s-8,10.287-6.164,22.565c2.445,16.309,16.6,64.105,16.6,64.105l45.851,1.3,40.692-1.7,15.484-66.6-51.456,10.319Z" transform="translate(-11.074 -28.522)" fill="#361524"/>
              <path id="Trazado_180776" data-name="Trazado 180776" d="M222.445,467.629c-1.548-15.877-3.99-39.043-7.079-62.277-.038-.32-.087-.639-.125-.969-2.9-21.68-6.357-43.33-10.186-59.04q-.479-1.978-.969-3.828c-.059-.223-.116-.446-.175-.659-.087-.33-.175-.649-.262-.969-.7-2.53-1.4-4.846-2.122-6.92-10.225-29.578-20.72-39.144-26.312-42.235-.339-.194-.668-.359-.969-.5a8.946,8.946,0,0,0-3.12-.969l-25.75.116-.969.009-28.871.126-.969.009-28.871.126-.969.009H84.58a129.551,129.551,0,0,0-27.427,50.231c-.1.32-.184.649-.271.969-.077.281-.145.552-.223.833-.261,1.007-.532,2.1-.8,3.275q-.479,2.107-.969,4.535c-2.723,13.414-5.641,33.824-8.306,54.883-.039.32-.077.64-.116.969-2.873,22.789-5.429,46.2-7.109,62.277Z" transform="translate(-5.986 -44)" fill="#942f51"/>
              <path id="Trazado_180777" data-name="Trazado 180777" d="M139.4,270.967s-24.323.5-27.191,1.625-5.736,1.587-6.768,5.352a5.036,5.036,0,0,0,.894,4.639c-.142-.159-1.148,1.228-1.216,1.368-1.2,2.468.694,6.062,3.4,6.556-.248-.046.084,2.07.137,2.241a6.5,6.5,0,0,0,6.06,4.53s1.128,3.961,5.1,3.893,24.506-3.431,24.506-3.431Z" transform="translate(-15.934 -41.218)" fill="#ffa6a6"/>
              <path id="Trazado_180778" data-name="Trazado 180778" d="M139.774,265.626l85.605-32.646,37.059,24.867s-.815,15.095-26.2,20.95c-17.429,4.021-88.407,13.163-88.407,13.163l-19.976-15.8Z" transform="translate(-19.449 -35.439)" fill="#ffa6a6"/>
              <path id="Trazado_180779" data-name="Trazado 180779" d="M106.467,284.173a.307.307,0,0,1-.087-.6l6.607-1.947a.308.308,0,1,1,.175.59l-6.607,1.946a.315.315,0,0,1-.087.013" transform="translate(-16.148 -42.837)" fill="#361524"/>
              <path id="Trazado_180780" data-name="Trazado 180780" d="M108.929,293.8a.307.307,0,0,1-.076-.6l7.631-1.952a.307.307,0,1,1,.153.6l-7.631,1.952a.3.3,0,0,1-.076.009" transform="translate(-16.523 -44.3)" fill="#361524"/>
              <path id="Trazado_180781" data-name="Trazado 180781" d="M116.811,301.635a.307.307,0,0,1-.081-.6l6.3-1.741a.307.307,0,1,1,.164.592l-6.3,1.742a.3.3,0,0,1-.081.011" transform="translate(-17.722 -45.524)" fill="#361524"/>
              <path id="Trazado_180782" data-name="Trazado 180782" d="M216.042,127.936s21.328,7.74,38.773,46.264c12.695,28.034,21.8,65.068,18.9,71.636s-39.641-20.309-39.641-20.309l-30.889-36.914Z" transform="translate(-30.907 -19.461)" fill="#ffa6a6"/>
              <path id="Trazado_180783" data-name="Trazado 180783" d="M224.747,239.927a.485.485,0,0,1-.119-.955l11.872-2.989a.485.485,0,1,1,.237.94l-11.872,2.989a.509.509,0,0,1-.118.014" transform="translate(-34.113 -35.894)" fill="#361524"/>
              <path id="Trazado_180784" data-name="Trazado 180784" d="M148.9,82.426H137.729a.677.677,0,0,1-.67-.778l2.935-19.58a.677.677,0,1,1,1.339.2l-2.819,18.8H148.9a.677.677,0,1,1,0,1.355" transform="translate(-20.847 -9.354)" fill="#fff"/>
              <path id="Trazado_180785" data-name="Trazado 180785" d="M110.771,297.186a.3.3,0,0,1-.17-.053,7.376,7.376,0,0,1-1.818-2.431,8.085,8.085,0,0,1-1.042-3.374,6.986,6.986,0,0,1-3.111-3.408,4.879,4.879,0,0,1,.961-4.9,6.213,6.213,0,0,1-.72-3.293,7.382,7.382,0,0,1,1.653-3.872.308.308,0,1,1,.467.4,6.862,6.862,0,0,0-1.507,3.507,5.522,5.522,0,0,0,.739,3.119.309.309,0,0,1-.031.382c-.02.022-1.984,2.16-1,4.415a6.322,6.322,0,0,0,2.968,3.174.3.3,0,0,1,.188.287,9.038,9.038,0,0,0,2.6,5.489.308.308,0,0,1-.176.56" transform="translate(-15.865 -41.944)" fill="#361524"/>
              <path id="Trazado_180786" data-name="Trazado 180786" d="M139.76,483.12V391.1l-21.628,92.02Z" transform="translate(-17.969 -59.491)" fill="#361524"/>
              <path id="Trazado_180787" data-name="Trazado 180787" d="M134.816,278.814s23.648,5.713,26.206,7.43,5.261,2.783,5.46,6.681a5.036,5.036,0,0,1-1.87,4.339c.173-.125.858,1.446.894,1.6.641,2.668-1.98,5.771-4.731,5.672.252.009-.527,2-.616,2.159a6.5,6.5,0,0,1-6.892,3.123s-1.952,3.626-5.813,2.706-23.2-8.617-23.2-8.617Z" transform="translate(-18.901 -42.411)" fill="#ffa6a6"/>
              <path id="Trazado_180788" data-name="Trazado 180788" d="M119.008,271.094l-76.59-50.278L.88,237.139s-2.448,14.918,21.084,26.09c16.158,7.672,83.513,31.853,83.513,31.853l22.9-11.134Z" transform="translate(-0.123 -33.589)" fill="#ffa6a6"/>
              <path id="Trazado_180789" data-name="Trazado 180789" d="M170.825,299.855a.307.307,0,0,0,.215-.569l-6.034-3.321a.307.307,0,0,0-.3.538l6.034,3.32a.288.288,0,0,0,.082.031" transform="translate(-25.03 -45.014)" fill="#361524"/>
              <path id="Trazado_180790" data-name="Trazado 180790" d="M166.174,308.687a.307.307,0,0,0,.2-.574l-7.033-3.546a.307.307,0,1,0-.276.549l7.033,3.546a.291.291,0,0,0,.072.025" transform="translate(-24.171 -46.323)" fill="#361524"/>
              <path id="Trazado_180791" data-name="Trazado 180791" d="M157.025,314.7a.308.308,0,0,0,.209-.572l-5.779-3.053a.307.307,0,0,0-.286.543l5.778,3.055a.309.309,0,0,0,.077.028" transform="translate(-22.97 -47.313)" fill="#361524"/>
              <path id="Trazado_180792" data-name="Trazado 180792" d="M63.824,231.017a.485.485,0,0,0,.32-.907l-10.952-5.47a.485.485,0,1,0-.433.867l10.952,5.471a.523.523,0,0,0,.113.039" transform="translate(-7.985 -34.163)" fill="#361524"/>
              <path id="Trazado_180793" data-name="Trazado 180793" d="M163.1,311.811a.3.3,0,0,0,.177-.014,7.421,7.421,0,0,0,2.3-1.984,8.1,8.1,0,0,0,1.742-3.071,6.98,6.98,0,0,0,3.771-2.66c1.442-1.987.469-4.3.114-5a6.207,6.207,0,0,0,1.41-3.061,7.367,7.367,0,0,0-.783-4.137.307.307,0,1,0-.542.29,6.861,6.861,0,0,1,.718,3.749,5.534,5.534,0,0,1-1.391,2.888.31.31,0,0,0-.053.38c.015.025,1.474,2.535.029,4.526a6.318,6.318,0,0,1-3.581,2.462.307.307,0,0,0-.246.241,9.033,9.033,0,0,1-3.716,4.8.308.308,0,0,0,.052.585" transform="translate(-24.773 -44.375)" fill="#361524"/>
            </g>
          </g>
        </g>
        <g id="Grupo_174229" data-name="Grupo 174229" transform="translate(869.911 2916.493)">
          <rect id="Rectángulo_44603" data-name="Rectángulo 44603" width="81.886" height="41.673" rx="20.836" transform="translate(38.089 0.13)" fill="#3c3fa7"/>
          <path id="Trazado_179940" data-name="Trazado 179940" d="M-16.986-2.374q-.076-.444-.146-1.143T-17.266-5.1q-.063-.889-.1-1.93t-.038-2.184q0-.33.006-.9t.032-1.27q.025-.7.083-1.492t.146-1.562q.089-.774.235-1.479a8.957,8.957,0,0,1,.343-1.244,2.841,2.841,0,0,1,.463-.857.783.783,0,0,1,.609-.317,1.382,1.382,0,0,1,.362.063,1.3,1.3,0,0,1,.425.216,1.322,1.322,0,0,1,.349.406,1.258,1.258,0,0,1,.146.635,17.7,17.7,0,0,1-.1,1.847q-.1.908-.171,1.625a9.043,9.043,0,0,0-.063,1.162q.013.444.229.444.051,0,.14-.317t.216-.832q.127-.514.311-1.174t.425-1.346q.241-.686.54-1.346A6.379,6.379,0,0,1-12-18.123a3.686,3.686,0,0,1,.832-.832,1.692,1.692,0,0,1,1-.317,1.4,1.4,0,0,1,.965.349A2.63,2.63,0,0,1-8.557-18a6.078,6.078,0,0,1,.394,1.314q.14.736.216,1.5t.108,1.5q.032.736.057,1.314t.076.927q.051.349.178.349.076,0,.248-.463t.451-1.155q.279-.692.66-1.5a10.321,10.321,0,0,1,.863-1.5A5.406,5.406,0,0,1-4.24-16.866a1.984,1.984,0,0,1,1.257-.463,1.511,1.511,0,0,1,1.441,1.162A10.874,10.874,0,0,1-1.1-12.581q0,1.117-.063,2.564t-.089,3.085q-.025,1.638.038,3.409A35.006,35.006,0,0,0-.914,0,.6.6,0,0,1-.952.336a.536.536,0,0,1-.184.216.75.75,0,0,1-.286.114A1.812,1.812,0,0,1-1.765.7,1.561,1.561,0,0,1-2.831.343a2.38,2.38,0,0,1-.635-.927A5.168,5.168,0,0,1-3.783-1.86a13.185,13.185,0,0,1-.1-1.416q-.013-.711.019-1.346t.032-1.054q0-.7.032-1.466t.07-1.517q.038-.749.063-1.428t.006-1.193a5.122,5.122,0,0,0-.083-.819q-.063-.3-.216-.3-.178,0-.482.444A10.042,10.042,0,0,0-5.1-10.823q-.349.692-.724,1.536t-.686,1.65q-.311.806-.54,1.479a7.724,7.724,0,0,0-.292,1.028,2.5,2.5,0,0,1-.07.311,2.314,2.314,0,0,1-.165.425,1.636,1.636,0,0,1-.26.381.483.483,0,0,1-.368.165.61.61,0,0,1-.394-.159,2.033,2.033,0,0,1-.343-.368,2.867,2.867,0,0,1-.248-.4l-.121-.241a3.77,3.77,0,0,1-.216-.768q-.1-.514-.2-1.193t-.19-1.46q-.1-.781-.184-1.555l-.171-1.492q-.083-.717-.165-1.263t-.165-.876q-.083-.33-.171-.33t-.317.451q-.216.451-.5,1.225t-.616,1.8q-.33,1.022-.66,2.152t-.628,2.317q-.3,1.187-.514,2.279T-14.339-1.7a8.75,8.75,0,0,0-.083,1.587q.013.152.013.381A1.853,1.853,0,0,1-14.46.7a.871.871,0,0,1-.171.355.427.427,0,0,1-.349.146.987.987,0,0,1-.6-.229,2.327,2.327,0,0,1-.565-.686,5.769,5.769,0,0,1-.482-1.124A10.31,10.31,0,0,1-16.986-2.374ZM4.126-11.3a3.122,3.122,0,0,1,1.746.5,4.523,4.523,0,0,1,1.308,1.32A6.487,6.487,0,0,1,8-7.63,7.791,7.791,0,0,1,8.29-5.535,6.445,6.445,0,0,1,7.884-3.2,5.841,5.841,0,0,1,6.811-1.4,4.793,4.793,0,0,1,5.275-.235,4.119,4.119,0,0,1,3.491.178,2.938,2.938,0,0,1,1.854-.26,3.442,3.442,0,0,1,.768-1.384a5.015,5.015,0,0,1-.6-1.53A7.763,7.763,0,0,1-.013-4.57,8.687,8.687,0,0,1,.133-6.132,9.727,9.727,0,0,1,.546-7.674a9,9,0,0,1,.641-1.4,6.048,6.048,0,0,1,.838-1.155,3.876,3.876,0,0,1,1-.781A2.31,2.31,0,0,1,4.126-11.3Zm.216,2.412a.87.87,0,0,0-.628.4,4.242,4.242,0,0,0-.59,1.041A8.23,8.23,0,0,0,2.685-6,7.763,7.763,0,0,0,2.514-4.38q0,.127.013.5a3.8,3.8,0,0,0,.108.762,1.949,1.949,0,0,0,.317.7.732.732,0,0,0,.628.3,1.241,1.241,0,0,0,.8-.33,3.314,3.314,0,0,0,.7-.851,4.984,4.984,0,0,0,.5-1.181,4.744,4.744,0,0,0,.19-1.32q0-.216-.013-.533A6.2,6.2,0,0,0,5.7-7a5.4,5.4,0,0,0-.146-.679A2.634,2.634,0,0,0,5.3-8.284a1.361,1.361,0,0,0-.394-.438A.957.957,0,0,0,4.342-8.887Zm5.42.738a2.051,2.051,0,0,1,.1-.578,2.651,2.651,0,0,1,.292-.641,1.974,1.974,0,0,1,.47-.521,1.011,1.011,0,0,1,.635-.216,1,1,0,0,1,.527.121.757.757,0,0,1,.3.349,1.7,1.7,0,0,1,.127.559q.025.33.025.736,0,.774.241.774.127,0,.254-.19l.533-.8a5.922,5.922,0,0,1,.711-.87,4.067,4.067,0,0,1,.933-.7,2.46,2.46,0,0,1,1.212-.292,1.808,1.808,0,0,1,1.1.311,1.938,1.938,0,0,1,.641.889,4.706,4.706,0,0,1,.273,1.39,13.044,13.044,0,0,1-.025,1.8q-.063.851-.076,2.171t.1,3.25a1.539,1.539,0,0,1-.019.362A1.214,1.214,0,0,1,18,.123a.973.973,0,0,1-.229.292.524.524,0,0,1-.355.121A1.445,1.445,0,0,1,16.37.173a2.272,2.272,0,0,1-.559-.863,3.93,3.93,0,0,1-.229-1.028q-.044-.527-.044-.844,0-.559.044-1t.089-.863q.044-.419.089-.832a8.387,8.387,0,0,0,.044-.9,5.836,5.836,0,0,0-.032-.679,1.735,1.735,0,0,0-.089-.406.438.438,0,0,0-.127-.2.229.229,0,0,0-.133-.051.864.864,0,0,0-.5.292,6.541,6.541,0,0,0-.667.749q-.355.457-.724,1.009t-.673,1.06a2.94,2.94,0,0,0-.222.508q-.083.254-.108.368a4.181,4.181,0,0,0-.038.628v.819q0,.432-.019.87a4.357,4.357,0,0,1-.1.793,1.7,1.7,0,0,1-.235.578A.493.493,0,0,1,11.7.408H11.45a1.175,1.175,0,0,1-.381-.07,1.957,1.957,0,0,1-.381-.178,1.872,1.872,0,0,1-.324-.248.927.927,0,0,1-.209-.279,3.749,3.749,0,0,1-.209-.844q-.083-.54-.133-1.212T9.749-3.845q-.013-.749-.013-1.46,0-.889.013-1.644T9.762-8.148Z" transform="translate(79.089 28.13)" fill="#ffd947"/>
          <path id="Trazado_180870" data-name="Trazado 180870" d="M-23.34-7.972a2.051,2.051,0,0,1,.1-.578,2.651,2.651,0,0,1,.292-.641,1.974,1.974,0,0,1,.47-.521c.186-.144.017-.006.254-.006A1,1,0,0,1-21.7-9.6a.757.757,0,0,1,.3.349,1.7,1.7,0,0,1,.127.559q.025.33.025.736a.559.559,0,0,0,.622.565q.127,0,.254-.19l.533-.8a5.922,5.922,0,0,1,.711-.87,4.067,4.067,0,0,1,.933-.7,2.46,2.46,0,0,1,1.212-.292,1.808,1.808,0,0,1,1.1.311,1.938,1.938,0,0,1,.641.889,4.706,4.706,0,0,1,.273,1.39,13.044,13.044,0,0,1-.025,1.8q-.063.851-.076,2.171t.1,3.25a1.539,1.539,0,0,1-.019.362A1.214,1.214,0,0,1-15.1.3a.973.973,0,0,1-.229.292.524.524,0,0,1-.355.121A1.445,1.445,0,0,1-16.732.35a2.272,2.272,0,0,1-.559-.863,3.93,3.93,0,0,1-.229-1.028q-.044-.527-.044-.844,0-.559.044-1t.089-.863q.044-.419.089-.832a8.387,8.387,0,0,0,.044-.9,5.836,5.836,0,0,0-.032-.679,1.735,1.735,0,0,0-.089-.406.438.438,0,0,0-.127-.2.229.229,0,0,0-.133-.051.864.864,0,0,0-.5.292,6.541,6.541,0,0,0-.667.749q-.355.457-.724,1.009t-.673,1.06a2.94,2.94,0,0,0-.222.508q-.083.254-.108.368a4.181,4.181,0,0,0-.038.628v.819q0,.432-.019.87a4.357,4.357,0,0,1-.1.793,1.7,1.7,0,0,1-.235.578A.493.493,0,0,1-21.4.585h-.254a1.175,1.175,0,0,1-.381-.07,1.957,1.957,0,0,1-.381-.178A1.872,1.872,0,0,1-22.737.09a.927.927,0,0,1-.209-.279,3.749,3.749,0,0,1-.209-.844q-.083-.54-.133-1.212t-.063-1.422q-.013-.749-.013-1.46,0-.889.013-1.644T-23.34-7.972Z" transform="translate(118.089 28.13)" fill="#ffd947"/>
        </g>
      </g>
      <g id="Grupo_174264" data-name="Grupo 174264" transform="translate(809 2529.174)">
        <g id="Grupo_174249" data-name="Grupo 174249" transform="translate(0 0)">
          <g id="Grupo_174248" data-name="Grupo 174248" transform="translate(0)">
            <path id="Trazado_179214" data-name="Trazado 179214" d="M18.876,89.707l9.614-.59L43.833,107.25,36.906,88.6l7.642-.469c6.239-.383,11.143-4.844,11.365-10.339L56.9,53.2a92.546,92.546,0,0,0-.926-17.3L52.395,11.72C51.316,4.439,43.8-.738,35.5.087L18.066,1.819C9.15,2.705,2.206,9.032,1.517,16.9L.546,28a143.369,143.369,0,0,0,2.03,39.537L4.983,80.089c1.126,5.871,7.136,10.033,13.893,9.618" transform="translate(2.366 0)" fill="#fcf2ca"/>
            <path id="Trazado_179215" data-name="Trazado 179215" d="M27.166,102.911l9.741-.563L52.454,119.67l-7.019-17.815,7.743-.448c6.322-.366,11.29-4.627,11.515-9.876l1-23.49a83.42,83.42,0,0,0-.939-16.528l-3.63-23.1c-1.093-6.955-8.712-11.9-17.121-11.112L26.346,18.955c-9.034.846-16.07,6.89-16.767,14.4l-.984,10.6a129.262,129.262,0,0,0,2.057,37.768L13.09,93.723C14.231,99.332,20.321,103.307,27.166,102.911Z" transform="translate(-8.042 -13.764)" fill="none" stroke="#483644" stroke-miterlimit="10" stroke-width="1"/>
          </g>
        </g>
        <path id="Trazado_179219" data-name="Trazado 179219" d="M9.824-1.6A4.18,4.18,0,0,0,9.661-2.79a2.833,2.833,0,0,0-.489-.968A2.2,2.2,0,0,0,8.346-4.4a2.748,2.748,0,0,0-1.152-.228,3.2,3.2,0,0,0-.9.13,2.077,2.077,0,0,0-.794.435,2.269,2.269,0,0,0-.565.783,2.891,2.891,0,0,0-.217,1.2,3.325,3.325,0,0,0,.239,1.3,2.582,2.582,0,0,0,.652.935,2.76,2.76,0,0,0,.946.554A3.327,3.327,0,0,0,7.65.9a2.221,2.221,0,0,0,1.1-.239,1.9,1.9,0,0,0,.663-.6,2.19,2.19,0,0,0,.326-.8A4.484,4.484,0,0,0,9.824-1.6ZM2.5-1.6A4.18,4.18,0,0,0,2.334-2.79a2.833,2.833,0,0,0-.489-.968A2.2,2.2,0,0,0,1.019-4.4,2.748,2.748,0,0,0-.133-4.627a3.2,3.2,0,0,0-.9.13,2.077,2.077,0,0,0-.794.435,2.269,2.269,0,0,0-.565.783,2.891,2.891,0,0,0-.217,1.2,3.325,3.325,0,0,0,.239,1.3,2.582,2.582,0,0,0,.652.935A2.76,2.76,0,0,0-.775.711,3.327,3.327,0,0,0,.323.9a2.221,2.221,0,0,0,1.1-.239,1.9,1.9,0,0,0,.663-.6,2.19,2.19,0,0,0,.326-.8A4.484,4.484,0,0,0,2.5-1.6Zm-7.327,0A4.18,4.18,0,0,0-4.993-2.79a2.833,2.833,0,0,0-.489-.968A2.2,2.2,0,0,0-6.308-4.4,2.748,2.748,0,0,0-7.46-4.627a3.2,3.2,0,0,0-.9.13,2.077,2.077,0,0,0-.794.435,2.269,2.269,0,0,0-.565.783,2.891,2.891,0,0,0-.217,1.2A3.325,3.325,0,0,0-9.7-.779a2.582,2.582,0,0,0,.652.935A2.76,2.76,0,0,0-8.1.711,3.327,3.327,0,0,0-7,.9a2.221,2.221,0,0,0,1.1-.239,1.9,1.9,0,0,0,.663-.6,2.19,2.19,0,0,0,.326-.8A4.484,4.484,0,0,0-4.83-1.6Z" transform="translate(29.354 55.772)" fill="#12263f"/>
      </g>
    </g>
    <rect id="Rectángulo_44963" data-name="Rectángulo 44963" width="9" height="439" transform="translate(1201 2585)" fill="#ffd947"/>
  </g>
</svg>
