<svg xmlns="http://www.w3.org/2000/svg" xmlns:xlink="http://www.w3.org/1999/xlink" width="155" height="110" viewBox="0 0 155 110">
  <defs>
    <clipPath id="clip-path">
      <rect id="Rectangle_45255" data-name="Rectangle 45255" width="82.586" height="88.466" fill="none"/>
    </clipPath>
  </defs>
  <g id="_7" data-name="7" transform="translate(1606 10269)">
    <g id="Group_174603" data-name="Group 174603" transform="translate(-2304 -14743.297)">
      <g id="Group_165391" data-name="Group 165391" transform="translate(698 4474.297)">
        <rect id="Rectangle_40797" data-name="Rectangle 40797" width="155" height="110" fill="#ffe891"/>
      </g>
    </g>
    <g id="Group_174928" data-name="Group 174928" transform="translate(-1570 -10258)">
      <g id="Group_174927" data-name="Group 174927" clip-path="url(#clip-path)">
        <path id="Path_182535" data-name="Path 182535" d="M11.249,88.466c-.083-.26-.335-.184-.509-.24a6.625,6.625,0,0,1-4.822-6.6Q5.9,70.054,5.928,58.479c0-.684,0-1.008-.9-1.006A5.022,5.022,0,0,1,.047,52.518C.005,45.177-.04,37.833.06,30.492a10.192,10.192,0,0,1,9.4-9.774c.1-.008.208-.02.314-.031,0-.332-.25-.424-.4-.58A11.4,11.4,0,0,1,6.432,8.49,11.358,11.358,0,0,1,15.161.3,11.6,11.6,0,0,1,17.986,0Q30.94.007,43.894,0a2.967,2.967,0,0,1,3.3,3.307c0,.834.014,1.67,0,2.5a1.468,1.468,0,1,1-2.932.037,19.042,19.042,0,0,1,.006-2.158c.045-.6-.129-.767-.744-.762-4.087.03-8.175.015-12.263.015H25.7c5.172,5.913,5.146,11.8-.019,17.725a10.19,10.19,0,0,1,6.593,2.907A9.931,9.931,0,0,1,35.4,30.824c.046,7.14.031,14.281.01,21.422a5.111,5.111,0,0,1-5.328,5.238c-.708-.013-.555.36-.555.731q0,11.186.007,22.372a8.194,8.194,0,0,1-1.048,4.766c.187.267.406.163.585.164,4.808.007,9.615,0,14.422.019.583,0,.821-.105.767-.738a18.181,18.181,0,0,1-.008-2.158,1.494,1.494,0,0,1,1.51-1.548,1.475,1.475,0,0,1,1.422,1.54c.021,1.007.028,2.016,0,3.023a3.124,3.124,0,0,1-2.248,2.813H21.613A8.532,8.532,0,0,1,17.9,86.158a.2.2,0,0,0-.346-.006,7.471,7.471,0,0,1-4.058,2.314Zm8.123-68.055a4.145,4.145,0,0,0,.593-.062A8.882,8.882,0,0,0,26.38,9.99c-.8-3.628-3.894-6.573-7.189-6.85A9.872,9.872,0,0,0,18,2.963,8.854,8.854,0,0,0,9.24,14.312c1.283,4.355,6.058,7.23,10.132,6.1m9.633,33.693a2.174,2.174,0,0,0,3.464-1.856c.017-1.352,0-2.7,0-4.057,0-5.7.021-11.394-.008-17.091-.02-4-3.068-7.332-6.708-7.419a5.239,5.239,0,0,0-.6-.067c-4.979,0-9.96-.067-14.937.02a7.256,7.256,0,0,0-7.246,7.448c-.025,6.967-.01,13.934-.006,20.9a2.309,2.309,0,0,0,2.2,2.575,2.312,2.312,0,0,0,2.248-2.531c0-.23,0-.46,0-.691q0-10.018,0-20.037c0-1.155.49-1.758,1.413-1.782.955-.025,1.529.621,1.53,1.778q.007,10.45,0,20.9A4.9,4.9,0,0,1,9.305,55.41a2.028,2.028,0,0,0-.449,1.421c.012,4.318.007,8.636.007,12.955,0,3.944-.016,7.889.006,11.832a3.7,3.7,0,0,0,4.837,3.717,3.746,3.746,0,0,0,2.545-3.8q0-15.33,0-30.66a8.491,8.491,0,0,1,.013-.863A1.414,1.414,0,0,1,17.7,48.684a1.429,1.429,0,0,1,1.481,1.283,6.721,6.721,0,0,1,.017.864q0,11.183,0,22.368c0,2.879-.015,5.758.007,8.636a3.545,3.545,0,0,0,3.084,3.582,1.532,1.532,0,0,0,.324.093A3.721,3.721,0,0,0,26.58,81.5q.014-12.431,0-24.863c0-.223.067-.463-.1-.665a7.362,7.362,0,0,1-1.425-5c.054-6.446.02-12.895.023-19.343a4.735,4.735,0,0,1,.044-.946,1.427,1.427,0,0,1,1.579-1.16,1.4,1.4,0,0,1,1.309,1.355c.024.286.012.575.012.863q0,10.06,0,20.121a2.313,2.313,0,0,0,.982,2.243" transform="translate(0 0)" fill="#030202"/>
        <path id="Path_182536" data-name="Path 182536" d="M105.017,88.467c-.076-.25-.33-.2-.5-.272a4.436,4.436,0,0,1-2.912-4.2c-.009-.172,0-.345,0-.518q0-39.255,0-78.51c0-2.63,1.3-4.4,3.594-4.879a5.531,5.531,0,0,1,1.114-.086q8.549-.007,17.1,0a4.433,4.433,0,0,1,4.746,4.745q0,39.471,0,78.942c0,2.456-.964,3.716-3.621,4.776Zm17.274-36.8a15.888,15.888,0,0,1-1.787-.111,1.365,1.365,0,0,1-1.165-1.544,1.339,1.339,0,0,1,1.322-1.316c.538-.05,1.079-.053,1.619-.077.8.019,1.6.027,2.4.063.408.019.553-.13.544-.544-.023-1.031-.06-2.066.01-3.093.049-.722-.234-.889-.869-.813a1.878,1.878,0,0,1-2.05-.915q0-.551,0-1.1a1.764,1.764,0,0,1,1.358-.921c.5-.034,1.182.248,1.455-.157.243-.359.076-.994.089-1.508a.749.749,0,0,0,0-.086c-.063-.875.392-2.085-.184-2.541-.639-.505-1.809-.167-2.749-.11-.484-.015-.968-.021-1.451-.046a1.416,1.416,0,0,1-1.5-1.417,1.453,1.453,0,0,1,1.421-1.514c.51-.046,1.025-.036,1.537-.051.8.013,1.6.009,2.4.045.42.018.539-.146.531-.548-.023-1-.048-2.007.007-3.006.036-.663-.142-.939-.839-.853a1.939,1.939,0,0,1-2.068-.9q.006-.593.012-1.185a1.792,1.792,0,0,1,1.4-.859c1.482-.081,1.5-.1,1.473-1.658-.017-.907.4-2.147-.17-2.631-.6-.508-1.807-.149-2.748-.118-.513-.01-1.028,0-1.54-.036a1.465,1.465,0,0,1,0-2.928c.512-.032,1.027-.026,1.54-.037.8.01,1.609.01,2.413.034.346.01.52-.069.519-.47-.013-4.775,0-9.55-.025-14.325a1.431,1.431,0,0,0-1.53-1.431c-.573-.021-1.148.014-1.723.024-5.266-.009-10.531-.027-15.8-.022a1.462,1.462,0,0,0-1.58,1.652c-.019,4.664,0,9.326-.018,13.989,0,.452.136.6.589.588,1.208-.027,2.417-.018,3.626-.007,1.034.009,1.671.566,1.686,1.441.014.91-.64,1.489-1.721,1.5-1.18.009-2.36.023-3.54-.008-.478-.012-.671.114-.641.62.04.688,0,1.381.014,2.071.015.542-.217,1.192.1,1.6s.974.1,1.478.167a1.432,1.432,0,0,1,1.346,1.326,1.408,1.408,0,0,1-1.184,1.556,4.314,4.314,0,0,1-1.116.052c-.485-.034-.658.133-.641.632.034,1.006.047,2.017,0,3.021-.031.621.189.779.779.759,1.207-.041,2.418-.04,3.625,0a1.449,1.449,0,0,1,1.5,1.461,1.431,1.431,0,0,1-1.476,1.466c-.6.027-1.209-.008-1.813.014-.828.03-1.911-.354-2.418.14-.553.538-.149,1.636-.174,2.489-.017.567-.235,1.255.1,1.676.3.369.974.082,1.479.141a1.467,1.467,0,0,1-.014,2.924,6.121,6.121,0,0,1-1.035.007c-.4-.029-.562.1-.552.53.025,1.094.029,2.188,0,3.281-.013.495.16.65.646.639,1.15-.028,2.3-.016,3.453-.007,1.126.009,1.777.524,1.806,1.407.03.928-.65,1.528-1.783,1.541-1.151.014-2.3.03-3.453-.008-.545-.018-.7.178-.669.694.038.66-.007,1.324.014,1.985.018.541-.219,1.188.108,1.594.29.359.924.068,1.4.137.085.013.172.02.255.041a1.441,1.441,0,0,1,1.159,1.583,1.4,1.4,0,0,1-1.36,1.3,5.293,5.293,0,0,1-.948.009c-.51-.051-.639.178-.628.65.026,1.064.034,2.131,0,3.195-.017.516.185.624.652.613,1.18-.028,2.36-.017,3.54-.007,1.08.009,1.733.591,1.71,1.5-.022.876-.66,1.427-1.695,1.437-1.18.011-2.361.031-3.54-.01-.544-.019-.7.159-.667.684.043.63,0,1.266.012,1.9.008.573-.155,1.26.1,1.687.275.457,1.012.1,1.542.192a1.365,1.365,0,0,1,1.274,1.3,1.332,1.332,0,0,1-1.068,1.546,3.236,3.236,0,0,1-1.109.082c-.628-.063-.784.2-.755.783a26.677,26.677,0,0,1,0,2.762c-.037.655.126.912.84.876,1.205-.062,2.418-.049,3.624,0A1.46,1.46,0,0,1,109,81.069c-.6.03-1.208.011-1.813.012-2.93,0-2.93,0-2.619,2.952a1.474,1.474,0,0,0,1.58,1.482c5.266,0,10.532-.012,15.8-.021.571.01,1.144.045,1.714.024a1.5,1.5,0,0,0,1.557-1.5c.245-2.982.078-3.149-2.93-2.9-.484-.015-.968-.022-1.451-.047a1.416,1.416,0,0,1-1.5-1.417,1.453,1.453,0,0,1,1.421-1.514c.51-.046,1.025-.036,1.537-.051.8.013,1.6.009,2.4.045.42.019.539-.146.531-.548-.023-1-.048-2.007.007-3.006.036-.663-.143-.939-.839-.853a1.938,1.938,0,0,1-2.068-.9q.006-.593.012-1.185a1.793,1.793,0,0,1,1.4-.859c1.482-.081,1.5-.1,1.473-1.658-.017-.907.4-2.147-.17-2.631-.6-.508-1.807-.149-2.748-.118-.513-.01-1.028,0-1.54-.036a1.465,1.465,0,0,1,0-2.928c.512-.032,1.026-.026,1.54-.037.8.01,1.606,0,2.408.037.427.019.535-.153.527-.55-.022-1.033-.047-2.068.008-3.1.034-.641-.146-.889-.805-.811a1.876,1.876,0,0,1-2.12-.927q.008-.55.016-1.1a1.876,1.876,0,0,1,1.55-.918c1.345-.052,1.344-.068,1.344-1.433,0-.086,0-.173,0-.258-.056-.877.388-2.1-.174-2.545-.631-.5-1.808-.164-2.748-.109" transform="translate(-45.574 -0.001)" fill="#030302"/>
        <path id="Path_182537" data-name="Path 182537" d="M78.423,29.528V78.255c.339-.036.342-.353.441-.546.861-1.686,1.692-3.387,2.548-5.076a1.5,1.5,0,1,1,2.633,1.333q-2.821,5.664-5.653,11.321a1.57,1.57,0,0,1-1.46,1.028,1.554,1.554,0,0,1-1.391-1c-1.893-3.8-3.8-7.6-5.693-11.4a1.5,1.5,0,0,1,.525-2.161,1.521,1.521,0,0,1,2.123.856c.954,1.885,1.888,3.78,2.925,5.865V29.282c-1.038,2.077-1.985,3.962-2.925,5.851a1.515,1.515,0,0,1-1.706,1.01c-1.074-.185-1.487-1.223-.925-2.353q2.415-4.857,4.85-9.7c.282-.565.54-1.144.849-1.693a1.514,1.514,0,0,1,2.761,0c1.95,3.837,3.863,7.693,5.774,11.55a1.47,1.47,0,1,1-2.612,1.331c-.868-1.682-1.7-3.383-2.549-5.076-.123-.245-.26-.483-.39-.725l-.124.056" transform="translate(-31.223 -9.644)" fill="#020202"/>
        <path id="Path_182538" data-name="Path 182538" d="M24.7,104.6a3.545,3.545,0,0,1-3.084-3.582c-.023-2.879-.007-5.758-.007-8.637q0-11.184,0-22.369a6.706,6.706,0,0,0-.017-.862,1.43,1.43,0,0,0-1.48-1.283A1.415,1.415,0,0,0,18.677,69.2c-.029.286-.013.575-.013.863q0,15.33,0,30.66a3.744,3.744,0,0,1-2.545,3.8A3.7,3.7,0,0,1,11.28,100.8c-.022-3.944-.006-7.888-.006-11.832,0-4.318.006-8.637-.007-12.955a2.03,2.03,0,0,1,.45-1.422,4.9,4.9,0,0,0,1.058-3.213q.006-10.45,0-20.9c0-1.156-.575-1.8-1.529-1.777-.923.024-1.413.627-1.413,1.782q-.006,10.019,0,20.037c0,.23,0,.46,0,.691a2.311,2.311,0,0,1-2.248,2.531,2.309,2.309,0,0,1-2.2-2.576c0-6.967-.02-13.934,0-20.9a7.258,7.258,0,0,1,7.246-7.448c4.978-.087,9.958-.023,14.937-.02a5.142,5.142,0,0,1,.6.067,8.987,8.987,0,0,1,3.779,7.193c.062,7.068.023,14.137.016,21.206a3.353,3.353,0,0,1-.549,2.025,2.314,2.314,0,0,1-.981-2.243q0-10.06,0-20.121c0-.287.012-.577-.012-.863a1.4,1.4,0,0,0-1.309-1.355,1.427,1.427,0,0,0-1.579,1.16,4.774,4.774,0,0,0-.044.946c0,6.448.032,12.9-.023,19.343a7.366,7.366,0,0,0,1.425,5c-.23,0-.46.007-.689.008-1.8,0-2.109.309-2.11,2.088,0,7.1-.021,14.2.013,21.3.01,2.143.006,4.246-1.412,6.039" transform="translate(-2.412 -19.187)" fill="#fd9701"/>
        <path id="Path_182539" data-name="Path 182539" d="M26.592,22.818c-4.075,1.129-8.849-1.745-10.133-6.1A8.854,8.854,0,0,1,25.222,5.369a10.094,10.094,0,0,1,1.188.176c.012.2.159.28.294.392a10.213,10.213,0,0,1,4.047,8.854,9.8,9.8,0,0,1-3.706,7.348c-.224.185-.47.341-.453.68" transform="translate(-7.218 -2.406)" fill="#fddeb1"/>
        <path id="Path_182540" data-name="Path 182540" d="M49.959,73.367a3.345,3.345,0,0,0,.549-2.025c.007-7.069.046-14.137-.015-21.2a8.99,8.99,0,0,0-3.78-7.193c3.64.088,6.687,3.421,6.708,7.419.029,5.7.008,11.394.008,17.091,0,1.352.012,2.705,0,4.057a2.174,2.174,0,0,1-3.464,1.856" transform="translate(-20.953 -19.262)" fill="#f17a00"/>
        <path id="Path_182541" data-name="Path 182541" d="M40.415,130.948c1.418-1.793,1.423-3.9,1.412-6.039-.034-7.1-.013-14.2-.013-21.3,0-1.78.309-2.084,2.11-2.088.229,0,.459,0,.689-.008.163.2.1.442.1.665q0,12.432,0,24.863a3.72,3.72,0,0,1-3.969,4,1.533,1.533,0,0,1-.325-.093" transform="translate(-18.128 -45.531)" fill="#ef7900"/>
        <path id="Path_182542" data-name="Path 182542" d="M34.984,22.965c-.017-.339.229-.5.453-.68a9.8,9.8,0,0,0,3.706-7.348A10.213,10.213,0,0,0,35.1,6.084c-.135-.112-.283-.195-.294-.392,3.294.278,6.385,3.223,7.189,6.851A8.882,8.882,0,0,1,35.577,22.9a4.309,4.309,0,0,1-.593.062" transform="translate(-15.61 -2.553)" fill="#dcc19a"/>
        <path id="Path_182543" data-name="Path 182543" d="M124.242,87.9c-5.265.009-10.532.026-15.8.022a1.475,1.475,0,0,1-1.58-1.482c-.312-2.952-.312-2.952,2.619-2.952.6,0,1.21.019,1.813-.011a1.46,1.46,0,0,0,.012-2.919c-1.207-.05-2.419-.063-3.625,0-.714.037-.877-.22-.84-.876a26.821,26.821,0,0,0,0-2.762c-.029-.586.128-.846.755-.783a3.225,3.225,0,0,0,1.11-.083,1.331,1.331,0,0,0,1.067-1.546,1.364,1.364,0,0,0-1.274-1.3c-.529-.089-1.267.265-1.542-.192-.258-.428-.094-1.114-.1-1.687-.009-.633.031-1.269-.012-1.9-.036-.525.122-.7.667-.684,1.178.041,2.36.021,3.539.01,1.036-.01,1.673-.561,1.7-1.438.023-.911-.63-1.493-1.71-1.5-1.18-.01-2.36-.021-3.54.007-.467.011-.67-.1-.652-.613.036-1.064.029-2.13,0-3.195-.012-.472.118-.7.627-.65a5.192,5.192,0,0,0,.948-.009,1.4,1.4,0,0,0,1.36-1.3,1.441,1.441,0,0,0-1.159-1.583c-.083-.02-.17-.029-.255-.041-.476-.069-1.111.222-1.4-.138-.327-.405-.09-1.052-.108-1.593-.022-.662.024-1.326-.014-1.986-.03-.516.124-.712.669-.694,1.15.038,2.3.022,3.453.009,1.133-.014,1.813-.613,1.782-1.541-.029-.883-.68-1.4-1.806-1.407-1.151-.009-2.3-.021-3.453.007-.486.012-.66-.144-.646-.639.03-1.093.026-2.188,0-3.281-.01-.427.149-.56.552-.53a6.238,6.238,0,0,0,1.035-.007,1.467,1.467,0,0,0,.014-2.925c-.505-.058-1.182.228-1.479-.141-.339-.421-.12-1.109-.1-1.676.025-.853-.379-1.95.174-2.489.507-.494,1.589-.11,2.418-.14.6-.022,1.209.013,1.812-.014a1.43,1.43,0,0,0,1.476-1.465,1.447,1.447,0,0,0-1.5-1.461q-1.812-.06-3.625,0c-.591.02-.811-.138-.779-.759.05-1,.037-2.015,0-3.021-.017-.5.156-.666.642-.632a4.34,4.34,0,0,0,1.116-.052,1.409,1.409,0,0,0,1.184-1.556,1.431,1.431,0,0,0-1.346-1.326c-.5-.067-1.162.233-1.478-.168s-.087-1.054-.1-1.6c-.019-.69.025-1.383-.014-2.072-.029-.506.163-.633.641-.62,1.179.03,2.36.018,3.539.008,1.081-.009,1.736-.588,1.721-1.5-.014-.876-.652-1.432-1.686-1.441-1.208-.011-2.418-.02-3.626.006-.452.01-.59-.136-.589-.587.014-4.663,0-9.326.018-13.989a1.463,1.463,0,0,1,1.581-1.652c5.265-.006,10.531.012,15.8.022a6.494,6.494,0,0,1,.36,1.756c-.022,4.8-.013,9.607-.014,14.411-.513.012-1.028.006-1.54.038a1.465,1.465,0,0,0,0,2.928c.512.036,1.027.026,1.54.037q.022,2.633.045,5.266L124.622,31l-.031,5.262c-.513.015-1.027,0-1.537.051a1.452,1.452,0,0,0-1.421,1.514,1.416,1.416,0,0,0,1.5,1.417c.484.025.968.031,1.451.046q.015,2.661.03,5.323,0,.551,0,1.1-.017,2.651-.035,5.3c-.54.024-1.082.026-1.619.077a1.34,1.34,0,0,0-1.322,1.316,1.365,1.365,0,0,0,1.165,1.544,16,16,0,0,0,1.787.111q.015,2.63.03,5.262-.008.551-.015,1.1-.009,2.674-.017,5.349c-.513.011-1.028.006-1.54.037a1.465,1.465,0,0,0,0,2.928c.512.036,1.027.026,1.54.037q.022,2.633.045,5.266l-.012,1.185q-.016,2.631-.031,5.262c-.513.015-1.027,0-1.537.051a1.453,1.453,0,0,0-1.421,1.514,1.416,1.416,0,0,0,1.5,1.417c.483.025.967.031,1.451.046-.062,1.461.247,2.952-.341,4.372M112.78,14.108a4.419,4.419,0,0,0,4.357,4.524,4.47,4.47,0,0,0,4.481-4.335,4.417,4.417,0,0,0-4.292-4.5,4.367,4.367,0,0,0-4.546,4.308" transform="translate(-47.873 -2.403)" fill="#fdda00"/>
        <path id="Path_182544" data-name="Path 182544" d="M138.834,21.542c0-4.8-.008-9.607.014-14.411a6.491,6.491,0,0,0-.36-1.756c.575-.009,1.15-.044,1.723-.024a1.43,1.43,0,0,1,1.53,1.431c.028,4.775.013,9.55.025,14.325,0,.4-.174.48-.519.47-.8-.024-1.609-.025-2.413-.035" transform="translate(-62.119 -2.397)" fill="#fabf07"/>
        <path id="Path_182545" data-name="Path 182545" d="M139.1,83.848q.017-2.651.035-5.3a1.879,1.879,0,0,0,2.05.915c.634-.076.918.091.869.813-.07,1.027-.034,2.062-.01,3.093.009.414-.136.562-.544.544-.8-.037-1.6-.044-2.4-.063" transform="translate(-62.394 -35.232)" fill="#f5ba08"/>
        <path id="Path_182546" data-name="Path 182546" d="M139.136,72.083q-.015-2.661-.03-5.323c.94-.057,2.11-.4,2.748.11.576.456.121,1.666.185,2.541,0,.029,0,.057,0,.086-.014.513.153,1.149-.089,1.507-.274.406-.955.124-1.455.157a1.764,1.764,0,0,0-1.358.921" transform="translate(-62.396 -29.872)" fill="#f5ba08"/>
        <path id="Path_182547" data-name="Path 182547" d="M139.115,110.576q.007-2.675.017-5.35a1.875,1.875,0,0,0,2.12.927c.658-.078.838.17.8.811-.055,1.031-.029,2.066-.008,3.1.008.4-.1.57-.526.551-.8-.036-1.605-.028-2.407-.038" transform="translate(-62.4 -47.199)" fill="#f8bd08"/>
        <path id="Path_182548" data-name="Path 182548" d="M139.16,45.3q-.023-2.633-.045-5.266c.942-.031,2.145-.391,2.749.117.574.485.153,1.724.17,2.632.028,1.556.009,1.577-1.473,1.658a1.791,1.791,0,0,0-1.4.859" transform="translate(-62.4 -17.89)" fill="#f8bd08"/>
        <path id="Path_182549" data-name="Path 182549" d="M139.16,125.513q-.023-2.633-.045-5.266c.941-.031,2.145-.391,2.749.117.574.485.153,1.724.17,2.632.028,1.556.009,1.577-1.473,1.658a1.79,1.79,0,0,0-1.4.859" transform="translate(-62.4 -53.868)" fill="#f8bd08"/>
        <path id="Path_182550" data-name="Path 182550" d="M139.118,57.122q.016-2.63.032-5.262a1.939,1.939,0,0,0,2.068.9c.7-.087.875.19.839.852-.055,1-.03,2-.007,3.006.009.4-.11.566-.531.548-.8-.035-1.6-.031-2.4-.044" transform="translate(-62.401 -23.262)" fill="#fabf07"/>
        <path id="Path_182551" data-name="Path 182551" d="M139.118,137.331q.016-2.63.032-5.262a1.939,1.939,0,0,0,2.068.9c.7-.087.875.19.839.852-.055,1-.03,2-.007,3.006.009.4-.11.566-.531.548-.8-.035-1.6-.031-2.4-.044" transform="translate(-62.401 -59.239)" fill="#fabf07"/>
        <path id="Path_182552" data-name="Path 182552" d="M139.149,98.818l-.03-5.263c.94-.055,2.117-.392,2.748.109.562.446.118,1.668.174,2.546.006.085,0,.171,0,.258,0,1.365,0,1.381-1.344,1.433a1.878,1.878,0,0,0-1.55.918" transform="translate(-62.402 -41.892)" fill="#fabf07"/>
        <path id="Path_182553" data-name="Path 182553" d="M138.486,151.411c.588-1.42.279-2.911.341-4.372,3.008-.249,3.176-.082,2.93,2.9a1.5,1.5,0,0,1-1.557,1.5c-.57.021-1.143-.014-1.714-.024" transform="translate(-62.118 -65.918)" fill="#f3be06"/>
        <path id="Path_182554" data-name="Path 182554" d="M117.7,17.721a4.367,4.367,0,0,1,4.546-4.308,4.417,4.417,0,0,1,4.292,4.5,4.47,4.47,0,0,1-4.481,4.335,4.419,4.419,0,0,1-4.356-4.524m5.885.1a1.474,1.474,0,0,0-1.494-1.46,1.409,1.409,0,0,0-1.435,1.406,1.466,1.466,0,0,0,1.424,1.526,1.526,1.526,0,0,0,1.5-1.472" transform="translate(-52.794 -6.016)" fill="#040301"/>
      </g>
    </g>
  </g>
</svg>
