<svg xmlns="http://www.w3.org/2000/svg" xmlns:xlink="http://www.w3.org/1999/xlink" width="90" height="90" viewBox="0 0 90 90">
  <defs>
    <clipPath id="clip-path">
      <rect id="Rectángulo_43332" data-name="Rectángulo 43332" width="46.725" height="72.996" fill="none"/>
    </clipPath>
  </defs>
  <g id="son" transform="translate(0.082)">
    <circle id="Elipse_4780" data-name="Elipse 4780" cx="45" cy="45" r="45" transform="translate(-0.082 0)" fill="#c4d1ff"/>
    <g id="Grupo_170967" data-name="Grupo 170967" transform="matrix(0.966, 0.259, -0.259, 0.966, 31.798, 3.699)" clip-path="url(#clip-path)">
      <path id="Trazado_166745" data-name="Trazado 166745" d="M17.982,63.731a96.643,96.643,0,0,0,21.771-6.788c-.554-.947-1.2-2.107-1.842-3.368a28,28,0,0,1-2.52-6.582l0-.009a6.077,6.077,0,0,1-.071-2.622L9.578,38.682c.038.069.067.133.107.2.914,1.827,7.66,15.484,8.3,24.848" transform="translate(2.294 9.265)" fill="#fa9778"/>
      <path id="Trazado_166746" data-name="Trazado 166746" d="M36.739,52.2c-11.493,5.14-21.882-7.293-22.267-7.758a14.729,14.729,0,0,0,10.391,3.526,24.486,24.486,0,0,0,9.288-2.31c.022-.016.046-.024.068-.04a27.982,27.982,0,0,0,2.52,6.582" transform="translate(3.466 10.644)" fill="#450d20"/>
      <path id="Trazado_166747" data-name="Trazado 166747" d="M45.379,39.479c-2.605-8.967-5.946-19.364-11.793-26.806-5.114-6.51-19.521-5.269-26.462,5.8C3.9,23.617,5.077,30.8,7.254,37.033a3.506,3.506,0,0,0-.637-.06,4.1,4.1,0,0,0-3.582,4.119,5.437,5.437,0,0,0,1.988,4.125,6.847,6.847,0,0,0,3.73,1.58,8.764,8.764,0,0,0,2.636-.524,19.911,19.911,0,0,0,9.534,8.786,18.008,18.008,0,0,0,15.78-.744c3.826-2.089,9.076-6.542,9.288-11.237a11.209,11.209,0,0,0-.612-3.6" transform="translate(0.727 2.087)" fill="#fa9778"/>
      <path id="Trazado_166748" data-name="Trazado 166748" d="M28.514,25.278c.416,1.37,1.3,2.315,1.965,2.112s.874-1.479.457-2.848-1.3-2.314-1.965-2.111-.874,1.477-.457,2.847" transform="translate(6.778 5.366)" fill="#450d20"/>
      <path id="Trazado_166749" data-name="Trazado 166749" d="M22.473,27.114c.416,1.37.211,2.644-.457,2.847s-1.549-.741-1.965-2.111-.212-2.645.457-2.847,1.548.741,1.965,2.111" transform="translate(4.751 5.982)" fill="#450d20"/>
      <path id="Trazado_166750" data-name="Trazado 166750" d="M32.482,30.65a6.2,6.2,0,0,1-1.195,2.63A4.838,4.838,0,0,1,28.849,35a4.9,4.9,0,0,1-2.982-.112,9.282,9.282,0,0,1-1.328-.612c-.4-.28-.787-.563-1.152-.868.457.16.886.348,1.315.527.452.115.879.3,1.324.374a5.228,5.228,0,0,0,2.6-.047,5.107,5.107,0,0,0,2.208-1.38,10.95,10.95,0,0,0,1.646-2.237" transform="translate(5.602 7.341)" fill="#450d20"/>
      <path id="Trazado_166751" data-name="Trazado 166751" d="M29.656,35a2.077,2.077,0,0,1-1.144.819,2.177,2.177,0,0,1-1.407-.045,6.881,6.881,0,0,0,1.32-.244A5.743,5.743,0,0,0,29.656,35" transform="translate(6.492 8.382)" fill="#450d20"/>
      <path id="Trazado_166752" data-name="Trazado 166752" d="M21.865,19.565a3.007,3.007,0,0,0-2.087-.125,6.037,6.037,0,0,0-1.913.891,5.105,5.105,0,0,0-1.454,1.543,5.334,5.334,0,0,0-.734,1.905.606.606,0,0,0,1.114.435l.036-.059a7.451,7.451,0,0,1,.907-1.314A4.378,4.378,0,0,1,18.89,21.9a5.41,5.41,0,0,1,1.389-.574,5.737,5.737,0,0,0,1.5-.553l.141-.084a.633.633,0,0,0-.058-1.122" transform="translate(3.752 4.625)" fill="#efba2a"/>
      <path id="Trazado_166753" data-name="Trazado 166753" d="M25.569,18.34a3.005,3.005,0,0,1,1.666-1.266,6.078,6.078,0,0,1,2.085-.324,5.111,5.111,0,0,1,2.066.473,5.354,5.354,0,0,1,1.67,1.175.606.606,0,0,1-.684.982l-.063-.03a7.449,7.449,0,0,0-1.484-.586,4.357,4.357,0,0,0-1.486-.141,5.324,5.324,0,0,0-1.473.3,5.741,5.741,0,0,1-1.557.376l-.164.009a.633.633,0,0,1-.576-.964" transform="translate(6.102 4.011)" fill="#efba2a"/>
      <path id="Trazado_166754" data-name="Trazado 166754" d="M26.261,22.057c.5.869.938,1.749,1.389,2.615s.9,1.727,1.429,2.515c.126.2.259.394.4.578a2.4,2.4,0,0,1,.454.736,1.686,1.686,0,0,1-.423,1.734,2.044,2.044,0,0,1-1.556.565,4.04,4.04,0,0,1-1.479-.368c.968.062,2.061.009,2.532-.64a1,1,0,0,0,.161-1.014,1.859,1.859,0,0,0-.348-.5c-.165-.2-.317-.413-.459-.626a13.726,13.726,0,0,1-1.321-2.715,15.783,15.783,0,0,1-.781-2.886" transform="translate(6.29 5.283)" fill="#450d20"/>
      <path id="Trazado_166755" data-name="Trazado 166755" d="M4.727,33.007A10.87,10.87,0,0,1,7.661,34.18,8.459,8.459,0,0,1,10,36.13l.531-.653A9.811,9.811,0,0,0,8.025,34.5a3.755,3.755,0,0,0-1.447-.066,1.636,1.636,0,0,0-1.252,1.011,2.457,2.457,0,0,0,.708,2.695,3.576,3.576,0,0,0,2.427.992A3.86,3.86,0,0,1,6.411,37.8a1.932,1.932,0,0,1-.371-2.039c.233-.586,1.013-.571,1.794-.4a10.971,10.971,0,0,1,2.288.866l.022.011a.425.425,0,0,0,.507-.666,7.742,7.742,0,0,0-2.727-1.926,7.93,7.93,0,0,0-3.2-.64" transform="translate(1.132 7.905)" fill="#450d20"/>
      <path id="Trazado_166756" data-name="Trazado 166756" d="M4.792,40.414s1.727-2.183,3.781-.8a37.76,37.76,0,0,0,4.094,2.2A1.632,1.632,0,0,0,14.967,40L13.3,32.371a8.487,8.487,0,0,1,1.19-6.459c2.261-3.463,6.36-8.622,11.277-9.757,0,0-.136,2.437-1.63,3.3,0,0,6.908-2.2,9.187-5.749,0,0,2.162,2.563,2.9,3.727,0,0,4.6-9.16-1.484-17.43,0,0-13.043,7.293-18.594,8.587-5.4,1.259-12.933,7.582-11.568,14.649,0,0-10.45,1.789.209,17.178" transform="translate(0 0)" fill="#efba09"/>
    </g>
  </g>
</svg>
