<svg xmlns="http://www.w3.org/2000/svg" xmlns:xlink="http://www.w3.org/1999/xlink" width="292.3" height="313.517" viewBox="0 0 292.3 313.517">
  <defs>
    <clipPath id="clip-path">
      <rect id="Rectangle_40910" data-name="Rectangle 40910" width="292.3" height="240.121" fill="none"/>
    </clipPath>
  </defs>
  <g id="_1" data-name="1" transform="translate(4.581 -0.001)">
    <path id="Path_141266" data-name="Path 141266" d="M313.5,74.668C311.112,37.754,282.8,2.509,244.449.323,200.4-3.051,159.976,21.1,116.1,21.359c-22.372,1.918-43.353-6.648-65.156-9.414C1.7,10.137-5.8,68,3.385,105.3,42.115,281.146,316.179,257.221,313.5,74.668Z" transform="translate(251.514 0.001) rotate(90)" fill="#a6bbff"/>
    <path id="Path_114646" data-name="Path 114646" d="M71.033,169.621c1.8,27.839,23.153,54.42,52.074,56.069,33.217,2.545,63.707-15.672,96.8-15.864,16.872-1.446,32.7,5.014,49.138,7.1,37.137,1.363,42.8-42.278,35.869-70.408C275.7,13.9,69.011,31.944,71.033,169.621Z" transform="translate(-32.131 -29.677)" fill="#6b8dff"/>
    <g id="Group_165562" data-name="Group 165562" transform="translate(-4.581 54.082)">
      <g id="Group_165562-2" data-name="Group 165562" clip-path="url(#clip-path)">
        <path id="Path_150188" data-name="Path 150188" d="M169.544,24.952c.3-.074,1.791,1.076,2.086,1.267,2.21,1.434,4.547,3.28,5.131,6,.217,1.011.279,2.052.517,3.059.6,2.523,2.915,4.549,2.768,7.188a4.663,4.663,0,0,1-2.094,3.473c-2.814,2.057-6.761,2.562-10.132,2.906-1.649.168-3.3.255-4.96.311-2,.067-5.839.393-7.229-1.481-2.365-3.187,2.475-16.136,5.446-18.558s8.467-4.163,8.468-4.163" transform="translate(6.873 1.106)" fill="#2b244a"/>
        <path id="Path_150189" data-name="Path 150189" d="M168.231,34.622a6.384,6.384,0,0,0,1.211,6.237,23.831,23.831,0,0,0,2.831,2.291,6.061,6.061,0,0,1,1.934,3.385c.16.653,1.167.377,1.008-.278a7.437,7.437,0,0,0-1.47-3.126,19.582,19.582,0,0,0-2.764-2.252,5.373,5.373,0,0,1-1.743-5.98c.222-.636-.786-.91-1.007-.278" transform="translate(7.445 1.519)" fill="#8c75b5"/>
        <path id="Path_150190" data-name="Path 150190" d="M146.632,26.392,140.978,46.84s6.676,4.754,18.5,1.394l2.769-11.488Z" transform="translate(6.251 1.17)" fill="#ffa58f"/>
        <path id="Path_150191" data-name="Path 150191" d="M291.955,177.109a25.668,25.668,0,0,0-8.55-15.127c-4.706-4.163-10.582-6.975-16.577-9.153a127.322,127.322,0,0,0-21.166-5.555c-14.606-2.6-29.525-3.106-44.356-3.224-15.11-.12-30.24.173-45.326-.809-.719-.047-.713,1,0,1.044.264.018,1.076,1.178,2.261,3.119h-24.1c1.184-1.941,2-3.1,2.261-3.119.713-.046.719-1.091,0-1.044-15.086.983-30.216.689-45.326.809-14.833.118-29.75.625-44.356,3.224a127.308,127.308,0,0,0-21.167,5.555c-5.993,2.177-11.871,4.99-16.577,9.153A25.667,25.667,0,0,0,.431,177.109c-.921,5.7-.441,14.041,2.165,19.264,5.276,10.575,18.988,14.978,33.265,15.793,1.546.088,71.755-.512,73.6-.548h73.46c1.846.037,75.268.194,76.814.113,12.214-.649,24.326-7.213,29.6-17.788a27.851,27.851,0,0,0,2.616-16.833" transform="translate(0 6.352)" fill="#2b244a"/>
        <path id="Path_150192" data-name="Path 150192" d="M153.016,171.238a272.008,272.008,0,0,0-1.723,30.4q-.016,4.126.113,8.251c.022.67,1.066.674,1.044,0a271.863,271.863,0,0,1,.813-30.438q.327-4.114.8-8.214c.077-.666-.967-.661-1.044,0" transform="translate(6.709 7.571)" fill="#8c75b5"/>
        <path id="Path_150193" data-name="Path 150193" d="M130.077,171.376a151.234,151.234,0,0,1,7.986,24.72c.151.655,1.158.378,1.007-.277a151.208,151.208,0,0,0-7.986-24.721c-.257-.61-1.268-.341-1.007.278" transform="translate(5.766 7.572)" fill="#8c75b5"/>
        <path id="Path_150194" data-name="Path 150194" d="M118.753,170.086a151.232,151.232,0,0,1,7.986,24.72c.151.655,1.158.378,1.008-.278a151.337,151.337,0,0,0-7.987-24.72c-.257-.61-1.268-.342-1.007.278" transform="translate(5.264 7.515)" fill="#8c75b5"/>
        <path id="Path_150195" data-name="Path 150195" d="M45.242,160.672,80.115,165.2l34.615,4.5,19.633,2.551c.664.087.658-.959,0-1.044l-34.873-4.532-34.615-4.5-19.633-2.551c-.664-.087-.658.959,0,1.044" transform="translate(1.984 7.078)" fill="#8c75b5"/>
        <path id="Path_150196" data-name="Path 150196" d="M242.033,122.243a103.571,103.571,0,0,0-3.027-9.966q-1.778-4.935-3.933-9.773a152.264,152.264,0,0,0-9.683-18.28,154.788,154.788,0,0,0-12.369-17.253,64.648,64.648,0,0,0-14.216-13.265,38.6,38.6,0,0,0-8.879-4.328,47.261,47.261,0,0,0-11.566-2.053c-8.418-.6-16.881-.746-25.3-1.046-8.3-.3-16.741-.858-24.986-.263A52.349,52.349,0,0,0,108.1,51.429c-12.079,6.1-21.1,15.818-29.584,25.244q-7.381,8.2-14.154,16.806c-4.441,5.642-8.862,11.373-12.692,17.365-3.377,5.285-5.855,11.126-4.893,17.434a24.065,24.065,0,0,0,8.83,14.838c5.195,4.184,12.112,6.36,18.948,6.646,7.1.3,18.6-1.129,27.349-2.712,9-1.628,17.983-3.8,28.258-3.322q17.124.793,34.248,1.7,8.591.456,17.18.944a107.3,107.3,0,0,0,42.358,9.709c13.325.2,24.912-6.537,18.083-33.84" transform="translate(2.065 2.029)" fill="#ffeae0"/>
        <path id="Path_150197" data-name="Path 150197" d="M131.583,46.57c-3.08,3.034-2.329,7.7-2.36,11.608a11.7,11.7,0,0,1-1.364,6.158c-1.333,2.17-3.312,3.787-3.974,6.343a17.6,17.6,0,0,0,.172,7.282,21.924,21.924,0,0,1,.373,7.946c-.514,2.6-1.6,5.038-2.2,7.614a14.045,14.045,0,0,0-.408,3.772,21.084,21.084,0,0,0,.649,3.965,26.174,26.174,0,0,1,.876,4.723,15.079,15.079,0,0,1-.581,4.5c-.731,2.837-1.811,5.645-1.608,8.625.045.666,1.09.672,1.044,0-.181-2.657.7-5.173,1.4-7.7a16.542,16.542,0,0,0,.507-7.66c-.5-2.672-1.457-5.261-1.2-8.023.248-2.622,1.319-5.087,2.048-7.6a17.819,17.819,0,0,0,.583-7.448c-.328-2.524-.99-5.039-.924-7.6a8.41,8.41,0,0,1,.867-3.676,19.751,19.751,0,0,1,2.216-3.061,11.038,11.038,0,0,0,2.435-5.73c.286-2.355.04-4.731.094-7.094.051-2.26.421-4.562,2.1-6.213.479-.472-.259-1.21-.738-.738" transform="translate(5.371 2.058)" fill="#dec6bd"/>
        <path id="Path_150198" data-name="Path 150198" d="M107.349,50.6c-6.867,4.124-3.439,14.223-8.877,19.413-1.737,1.658-3.9,2.818-5.33,4.792a12.409,12.409,0,0,0-2.033,5.938c-.268,2.315-.2,4.652-.363,6.974a17.432,17.432,0,0,1-1.739,6.647c-1.187,2.386-2.748,4.567-3.922,6.962a16.506,16.506,0,0,0-1.309,3.52,18.653,18.653,0,0,0-.355,4.716.522.522,0,0,0,1.044,0,15.873,15.873,0,0,1,1.433-7.528c.989-2.067,2.282-3.967,3.39-5.969a18.6,18.6,0,0,0,2.284-6.33,66.088,66.088,0,0,0,.4-6.635,16.149,16.149,0,0,1,1.284-6.467c1.054-2.136,2.957-3.42,4.765-4.864a11.672,11.672,0,0,0,3.605-4.556,25.079,25.079,0,0,0,1.463-5.278c.713-3.743,1.19-8.277,4.783-10.436a.522.522,0,0,0-.527-.9" transform="translate(3.699 2.24)" fill="#dec6bd"/>
        <path id="Path_150199" data-name="Path 150199" d="M75.55,77.43c-2.47,3.118-2,7.159-2.2,10.884a14.269,14.269,0,0,1-1.431,5.7c-.9,1.8-2.04,3.475-2.93,5.282a13.987,13.987,0,0,0-1.4,6.977c.026.669,1.07.674,1.044,0A12.78,12.78,0,0,1,69.76,100.1c.833-1.76,1.928-3.378,2.83-5.1a15.009,15.009,0,0,0,1.679-5.19c.232-1.893.155-3.8.248-5.706a10.074,10.074,0,0,1,1.772-5.931c.413-.521-.322-1.266-.738-.738" transform="translate(2.997 3.426)" fill="#dec6bd"/>
        <path id="Path_150200" data-name="Path 150200" d="M48.057,131.355c2.468,2.154,5.744,2.057,8.818,1.773,3.369-.31,6.872-.825,9.906,1.035,1.608.987,3.039,2.249,4.868,2.83a11.646,11.646,0,0,0,5.478.161c1.927-.329,3.8-.9,5.715-1.294a15.971,15.971,0,0,1,6.173-.116c2.277.415,4.487,1.147,6.78,1.477a15.456,15.456,0,0,0,6.88-.644c.642-.2.369-1.2-.277-1.008a14.42,14.42,0,0,1-6.125.673c-2.02-.254-3.976-.866-5.961-1.3a17.32,17.32,0,0,0-5.762-.416,49.083,49.083,0,0,0-5.559,1.17,16.449,16.449,0,0,1-5.569.609,11.078,11.078,0,0,1-5.05-2.342,11.126,11.126,0,0,0-4.564-2.025,19.434,19.434,0,0,0-4.763-.057c-3.346.282-7.461,1.169-10.248-1.265-.5-.441-1.246.3-.738.738" transform="translate(2.123 5.786)" fill="#dec6bd"/>
        <path id="Path_150201" data-name="Path 150201" d="M49.5,112.581c2.469,2.154,5.744,2.057,8.818,1.773,3.369-.311,6.872-.825,9.906,1.035,1.608.987,3.039,2.25,4.868,2.83a11.646,11.646,0,0,0,5.478.161c1.927-.329,3.8-.9,5.715-1.294a15.971,15.971,0,0,1,6.173-.116c2.277.415,4.486,1.147,6.78,1.477a15.461,15.461,0,0,0,6.881-.644c.641-.2.368-1.2-.278-1.008a14.419,14.419,0,0,1-6.125.673c-2.02-.254-3.976-.866-5.961-1.3a17.319,17.319,0,0,0-5.762-.416,48.855,48.855,0,0,0-5.559,1.17,16.45,16.45,0,0,1-5.569.609,11.079,11.079,0,0,1-5.05-2.342,11.126,11.126,0,0,0-4.564-2.025,19.488,19.488,0,0,0-4.763-.058c-3.346.283-7.461,1.17-10.248-1.264-.5-.441-1.246.3-.738.738" transform="translate(2.187 4.954)" fill="#dec6bd"/>
        <path id="Path_150202" data-name="Path 150202" d="M237.08,134.495c-2.448,2.137-5.942,1.675-8.926,1.387-3.213-.31-6.516-.562-9.405,1.149-1.6.945-3,2.263-4.8,2.833a11.187,11.187,0,0,1-5.563.043c-1.885-.372-3.728-.933-5.619-1.281a16.549,16.549,0,0,0-5.616-.105c-2.252.349-4.426,1.067-6.668,1.463a14.581,14.581,0,0,1-7.005-.536c-.644-.2-.919.812-.277,1.008a15.2,15.2,0,0,0,6.175.735,51.1,51.1,0,0,0,5.9-1.233,17.259,17.259,0,0,1,6.2-.487c1.958.255,3.857.83,5.779,1.262a15.611,15.611,0,0,0,5.546.454,11.674,11.674,0,0,0,5.058-2.322,10.65,10.65,0,0,1,4.778-2.081,22.857,22.857,0,0,1,5.047.1c3.462.329,7.3.826,10.136-1.648.508-.443-.234-1.179-.738-.738" transform="translate(8.108 5.958)" fill="#dec6bd"/>
        <path id="Path_150203" data-name="Path 150203" d="M234.3,115.72c-2.448,2.138-5.942,1.675-8.927,1.387-3.212-.31-6.515-.562-9.4,1.149-1.6.945-3,2.264-4.8,2.834a11.2,11.2,0,0,1-5.563.042c-1.885-.372-3.728-.933-5.619-1.281a16.548,16.548,0,0,0-5.616-.105c-2.252.349-4.426,1.067-6.668,1.464a14.606,14.606,0,0,1-7.005-.536c-.644-.2-.919.811-.277,1.007a15.2,15.2,0,0,0,6.175.735,51.1,51.1,0,0,0,5.9-1.233,17.257,17.257,0,0,1,6.2-.487c1.958.255,3.857.83,5.779,1.262a15.611,15.611,0,0,0,5.546.454,11.674,11.674,0,0,0,5.058-2.322,10.65,10.65,0,0,1,4.778-2.081,22.921,22.921,0,0,1,5.047.1c3.462.329,7.3.826,10.136-1.648.508-.443-.234-1.179-.738-.738" transform="translate(7.984 5.125)" fill="#dec6bd"/>
        <path id="Path_150204" data-name="Path 150204" d="M115.765,47.56c-3.153,3.083-2.294,7.857-2.363,11.829a10.933,10.933,0,0,1-1.709,6.331c-.73,1.036-1.612,1.956-2.333,3a8.75,8.75,0,0,0-1.458,3.554c-.514,3.1.373,6.223.79,9.284.091.663,1.1.381,1.008-.278-.364-2.676-1.1-5.374-.868-8.095a7.974,7.974,0,0,1,1.312-3.765c.662-1,1.487-1.875,2.2-2.833,2.683-3.59,1.961-7.947,2.059-12.141.052-2.242.428-4.516,2.1-6.148.481-.471-.257-1.208-.738-.738" transform="translate(4.778 2.102)" fill="#dec6bd"/>
        <path id="Path_150205" data-name="Path 150205" d="M144.065,58.442c-2.987,3.236-1.953,7.911-1.819,11.888a11.282,11.282,0,0,1-1.277,6.4c-1.282,2.115-3.042,3.833-3.5,6.36-.933,5.1,2.088,9.992,1.282,15.125-.411,2.624-1.394,5.117-1.848,7.732a13.692,13.692,0,0,0-.185,3.84,22.565,22.565,0,0,0,.843,3.837,25.5,25.5,0,0,1,1.07,4.562,14.719,14.719,0,0,1-.331,4.36c-.593,2.919-1.585,5.824-1.237,8.841.076.659,1.122.667,1.044,0-.307-2.657.456-5.218,1.031-7.782a16.483,16.483,0,0,0,.166-7.589c-.612-2.594-1.686-5.1-1.6-7.813.08-2.645,1.021-5.166,1.646-7.712a17.908,17.908,0,0,0,.335-7.345c-.414-2.511-1.21-4.976-1.328-7.53a9.075,9.075,0,0,1,.514-3.663,13.633,13.633,0,0,1,1.925-3.126,13.551,13.551,0,0,0,1.775-2.958,10.715,10.715,0,0,0,.677-3.029,59.791,59.791,0,0,0-.216-7.209c-.068-2.294.152-4.685,1.78-6.449.455-.493-.281-1.233-.738-.738" transform="translate(6.06 2.584)" fill="#dec6bd"/>
        <path id="Path_150206" data-name="Path 150206" d="M157.633,56.507c-2.412,3.7-.543,8.227.242,12.13a11.046,11.046,0,0,1-.312,6.594c-.969,2.309-2.338,4.307-2.31,6.911A19.31,19.31,0,0,0,157.075,89a21.247,21.247,0,0,1,1.959,7.457c.056,2.75-.535,5.465-.534,8.213a16.617,16.617,0,0,0,1.962,7.349,27.2,27.2,0,0,1,1.711,4.013,14.224,14.224,0,0,1,.475,4.493c-.087,3.036-.6,6.105.263,9.082a.523.523,0,0,0,1.007-.278c-.769-2.649-.381-5.4-.253-8.107a16.085,16.085,0,0,0-1.179-7.336c-1.027-2.391-2.454-4.648-2.821-7.27-.374-2.676.16-5.38.348-8.048a17.969,17.969,0,0,0-1.041-7.556,57.031,57.031,0,0,1-2.408-6.733,8.992,8.992,0,0,1-.151-3.6,13.663,13.663,0,0,1,1.424-3.6,11.431,11.431,0,0,0,1.406-6.289,63.465,63.465,0,0,0-1.427-7.119c-.45-2.263-.594-4.631.717-6.643.369-.565-.535-1.089-.9-.527" transform="translate(6.884 2.495)" fill="#dec6bd"/>
        <path id="Path_150207" data-name="Path 150207" d="M174.56,47.9c-2.491,3.641-.715,8.219-.018,12.133a10.982,10.982,0,0,1-.482,6.623c-1.031,2.266-2.411,4.236-2.441,6.822a19.333,19.333,0,0,0,1.673,6.9,21.222,21.222,0,0,1,1.79,7.5c0,2.752-.655,5.453-.714,8.2a16.609,16.609,0,0,0,1.8,7.389,27.272,27.272,0,0,1,1.619,4.052,14.251,14.251,0,0,1,.373,4.5c-.155,3.035-.733,6.089.065,9.085a.523.523,0,0,0,1.007-.278c-.709-2.663-.258-5.411-.07-8.111a16.015,16.015,0,0,0-1.053-7.438c-.991-2.406-2.355-4.711-2.633-7.345-.282-2.658.291-5.311.536-7.946a17.969,17.969,0,0,0-.877-7.577,57.211,57.211,0,0,1-2.259-6.785,8.974,8.974,0,0,1-.065-3.6,13.724,13.724,0,0,1,1.506-3.564A11.433,11.433,0,0,0,175.86,62.2a63.714,63.714,0,0,0-1.272-7.149c-.4-2.275-.482-4.642.874-6.624.38-.557-.524-1.079-.9-.527" transform="translate(7.61 2.114)" fill="#dec6bd"/>
        <path id="Path_150208" data-name="Path 150208" d="M187.573,51.124c-1.422,3.477.4,7.036,1.826,10.184a18.739,18.739,0,0,1,1.791,5.413c.267,2.289-.695,4.324-1.108,6.524-.762,4.059,1.528,7.412,3.6,10.671a19.413,19.413,0,0,1,2.681,5.572,54.562,54.562,0,0,1,.893,6.957,16.147,16.147,0,0,0,2.432,7.056c1.378,2.127,3.074,4.068,4.119,6.4.275.612,1.175.081.9-.527a36.315,36.315,0,0,0-3.569-5.579,15.22,15.22,0,0,1-2.663-6.144c-.392-2.242-.416-4.53-.771-6.778a16.722,16.722,0,0,0-2.105-5.822c-1.85-3.2-4.789-6.427-4.649-10.355.08-2.251,1.215-4.315,1.327-6.568a12.691,12.691,0,0,0-1.086-5.261c-1.4-3.529-4.216-7.553-2.616-11.463.255-.621-.755-.893-1.007-.278" transform="translate(8.295 2.252)" fill="#dec6bd"/>
        <path id="Path_150209" data-name="Path 150209" d="M200.671,61.428a7.573,7.573,0,0,0,1.746,4.3,38.156,38.156,0,0,0,3.249,3.1,8.625,8.625,0,0,1,2.543,4.022c.62,2.385-.085,4.885.5,7.282.9,3.706,4.187,6.11,6.78,8.629a16.629,16.629,0,0,1,3.552,4.721c.963,2.006,1.55,4.166,2.4,6.22a15.668,15.668,0,0,0,3.991,5.774c1.846,1.686,3.941,3.128,5.513,5.094.42.525,1.154-.218.738-.738a35.592,35.592,0,0,0-4.8-4.467,15.175,15.175,0,0,1-3.986-4.946c-.948-1.974-1.53-4.1-2.357-6.12a16.8,16.8,0,0,0-3.052-4.986c-2.406-2.672-5.794-4.763-7.314-8.134-1.014-2.251-.485-4.645-.685-7.017a8.751,8.751,0,0,0-1.854-4.742,37.385,37.385,0,0,0-3.573-3.471,7.017,7.017,0,0,1-2.336-4.527c-.054-.665-1.1-.672-1.044,0" transform="translate(8.898 2.702)" fill="#dec6bd"/>
        <path id="Path_150210" data-name="Path 150210" d="M140.977,46.074s1.184,6.935,9.655,6.935c7.717,0,9.03-6.291,9.03-6.291l-8.109-3.043Z" transform="translate(6.251 1.937)" fill="#ffa58f"/>
        <path id="Path_150211" data-name="Path 150211" d="M65.346,105.586a253.669,253.669,0,0,1,32.619,5.322c2.776.635,5.539,1.325,8.272,2.124a.522.522,0,0,0,.278-1.007c-5.128-1.5-10.358-2.646-15.6-3.671q-8.5-1.662-17.085-2.824c-2.822-.381-5.65-.722-8.485-.989-.668-.063-.664.982,0,1.044" transform="translate(2.876 4.636)" fill="#2b244a"/>
        <path id="Path_150212" data-name="Path 150212" d="M212.388,106.143a184.826,184.826,0,0,0-27.16,3.284q-3.885.764-7.735,1.7c-.653.157-.377,1.164.278,1.007a183.819,183.819,0,0,1,26.889-4.426q3.858-.342,7.729-.518c.669-.031.673-1.076,0-1.044" transform="translate(7.854 4.707)" fill="#2b244a"/>
        <path id="Path_150213" data-name="Path 150213" d="M184.517,81.63q1.96,14.268,3.088,28.632c.052.665,1.1.672,1.044,0q-1.142-14.5-3.126-28.91c-.091-.663-1.1-.38-1.007.278" transform="translate(8.182 3.591)" fill="#2b244a"/>
        <path id="Path_150214" data-name="Path 150214" d="M108.333,79.858q-1.979,14.407-3.125,28.91c-.053.669.992.666,1.044,0q1.131-14.357,3.087-28.632c.091-.658-.916-.942-1.007-.278" transform="translate(4.665 3.524)" fill="#2b244a"/>
        <path id="Path_150215" data-name="Path 150215" d="M88.109,102.7l5.1,72.253H193.865l5.089-72.261a1.208,1.208,0,0,0-1.205-1.293H89.313a1.208,1.208,0,0,0-1.2,1.3" transform="translate(3.907 4.496)" fill="#d9a389"/>
        <path id="Path_150216" data-name="Path 150216" d="M141.7,145.122c-5.707,0-10.352-3.663-10.352-8.163S135.99,128.8,141.7,128.8s10.352,3.661,10.352,8.163-4.644,8.163-10.352,8.163m0-15.281c-5.132,0-9.307,3.194-9.307,7.118s4.175,7.118,9.307,7.118S151,140.884,151,136.96s-4.175-7.118-9.307-7.118" transform="translate(5.824 5.711)" fill="#2b244a"/>
        <path id="Path_150217" data-name="Path 150217" d="M155.237,184.374c-2.589-.049-13.622-.1-16.184.16a9.3,9.3,0,0,0-5.4,2.369c-3.988,3.53-14.375,14.538-18.117,18.324-3.335,3.372-6.694,6.735-9.707,10.4-2.871,3.5-6.454,7.462-5.443,12.336a4.6,4.6,0,0,0,3.8,3.951,11.669,11.669,0,0,0,4.456-.854c1.482-.441,31.61-17.656,38.335-21.152,2.434-.036,5.222-.057,7.844-.115,0,0-.168-8.3-.14-11.974.02-2.682.556-13.447.556-13.447" transform="translate(4.444 8.174)" fill="#ffeae0"/>
        <path id="Path_150218" data-name="Path 150218" d="M137.956,184.536a9.252,9.252,0,0,0-5.4,2.371c-1.692,1.5-4.543,4.355-7.551,7.425a16.9,16.9,0,0,0,20.584-7.6,16.662,16.662,0,0,0,1.128-2.392c-3.613.01-7.394.063-8.762.2" transform="translate(5.543 8.174)" fill="#dec6bd"/>
        <path id="Path_150219" data-name="Path 150219" d="M117.427,222.122a20.611,20.611,0,0,0-8.407-10.329c-.2-.125-.4-.251-.606-.355-.877.971-1.744,1.974-2.58,2.987-2.872,3.5-6.454,7.467-5.441,12.344a4.6,4.6,0,0,0,3.791,3.948,11.757,11.757,0,0,0,4.459-.856c.512-.146,4.386-2.277,9.535-5.138v-.01a18.805,18.805,0,0,0-.752-2.59" transform="translate(4.444 9.376)" fill="#dec6bd"/>
        <path id="Path_150220" data-name="Path 150220" d="M163.955,169.78a287.92,287.92,0,0,0-1.809,32.018c-.013,2.889.019,5.777.114,8.665.022.67,1.066.674,1.044,0a288.068,288.068,0,0,1,.861-32.057c.229-2.88.5-5.756.834-8.625.077-.666-.967-.661-1.044,0" transform="translate(7.19 7.507)" fill="#8c75b5"/>
        <path id="Path_150221" data-name="Path 150221" d="M242.584,159.627l-34.873,4.532-34.615,4.5-19.633,2.551c-.657.086-.665,1.131,0,1.044l34.873-4.532,34.615-4.5,19.633-2.551c.657-.086.665-1.131,0-1.044" transform="translate(6.783 7.078)" fill="#8c75b5"/>
        <path id="Path_150222" data-name="Path 150222" d="M130.858,15.778C129.769,4.551,138.571.265,149.145.589s14.01,4.082,17.274,12.529,6.367,18.606,6.731,21.463c.452,3.549-1.645,9.633-9.83,8.843A39.866,39.866,0,0,1,144.3,36.247c-3.2-2.209-12.356-9.242-13.445-20.469" transform="translate(5.799 0.025)" fill="#ffa58f"/>
        <path id="Path_150223" data-name="Path 150223" d="M165.913,11.778s-.089-5.543-6.379-9.171c-4.775-2.754-15.566-3.763-23.175.231s-8.948,15.783-1.277,24.971c5.744,6.879,6.3,7.5,6.3,7.5s8.614-3.01,6.7-13.937a6.394,6.394,0,0,0,5.618-4.7c.912-4.514,1.719-7.517,4.431-8.4,1.881-.611,3.605-.71,4.912.326a21.375,21.375,0,0,1,2.865,3.174" transform="translate(5.762 0.008)" fill="#2b244a"/>
        <path id="Path_150224" data-name="Path 150224" d="M131.006,17.035c.754-1.766,3.077-1.89,4.591-2.694a8.919,8.919,0,0,0,3.637-3.636c.467-.865.821-1.786,1.337-2.623a11.5,11.5,0,0,1,1.74-2.147,13.41,13.41,0,0,1,4.669-3.01c.625-.233.354-1.243-.278-1.008A14.656,14.656,0,0,0,141.881,4.9a14.857,14.857,0,0,0-3.229,4.646,8.328,8.328,0,0,1-3.946,4.074c-1.652.773-3.793.992-4.6,2.886-.261.611.638,1.145.9.527" transform="translate(5.767 0.083)" fill="#8c75b5"/>
        <path id="Path_150225" data-name="Path 150225" d="M147.915,20.571s6.256,14.305-6.48,16.862c0,0-8.082-6.165-7.556-7.388s7.066-11.689,7.066-11.689Z" transform="translate(5.936 0.814)" fill="#2b244a"/>
        <path id="Path_150226" data-name="Path 150226" d="M124.345,45.264a4.955,4.955,0,0,0,3.324,4.344,11.188,11.188,0,0,0,4.587.356c2.475-.192,4.841-.561,7.244.236,2.16.716,4.229,1.952,6.563,1.964a6.515,6.515,0,0,0,6.259-5.223c.568-3.3-1.571-6.42-1.672-9.7-.086-2.752.268-6.105-2.492-7.734,0,0-10.908-8.638-12.174-6.594-.792,1.28-.7,2.881-1.677,4.07-1.357,1.644-3.258,2.35-4.191,4.389-.888,1.944-1.044,4.138-1.977,6.067-1.245,2.573-4.046,4.7-3.793,7.821" transform="translate(5.513 1.002)" fill="#2b244a"/>
        <path id="Path_150227" data-name="Path 150227" d="M142.464,51.18c2.7-2.494,2.881-6.479,2.987-9.9a23.262,23.262,0,0,1,.791-6.152,17.369,17.369,0,0,0,1.229-5.643c-.023-.67-1.068-.674-1.044,0a16.6,16.6,0,0,1-1.192,5.365,21.952,21.952,0,0,0-.8,5.7c-.117,3.351-.027,7.424-2.7,9.9-.5.457.245,1.194.738.738" transform="translate(6.277 1.285)" fill="#8c75b5"/>
        <path id="Path_150228" data-name="Path 150228" d="M135.047,27.138a11.723,11.723,0,0,0,4.478-4.255c1.052-2.039.95-4.457,2.169-6.429a6.788,6.788,0,0,1,2.278-2.271,19.668,19.668,0,0,1,3.3-1.328,17.6,17.6,0,0,0,4.256-2.345,14.29,14.29,0,0,0,4.334-4.8c.309-.6-.592-1.124-.9-.526a15.085,15.085,0,0,1-8.072,6.706c-2,.734-3.948,1.341-5.366,3.038a8.584,8.584,0,0,0-1.446,2.48,35.09,35.09,0,0,0-.882,3.4c-.682,2.533-2.522,4.091-4.672,5.431-.569.355-.045,1.259.527.9" transform="translate(5.954 0.218)" fill="#8c75b5"/>
        <path id="Path_150229" data-name="Path 150229" d="M128.548,49.109a20.451,20.451,0,0,1,1.233-6.316,10.965,10.965,0,0,1,3.721-4.341,40.238,40.238,0,0,0,4.4-3.443,16.667,16.667,0,0,0,2.944-4.44c.928-1.836,1.85-3.8,3.543-5.066.533-.4.013-1.3-.527-.9-3.168,2.358-3.772,6.509-6.363,9.321-2.672,2.9-6.721,4.317-8.489,8.051a20.713,20.713,0,0,0-1.509,7.136c-.06.669.986.665,1.044,0" transform="translate(5.654 1.086)" fill="#8c75b5"/>
        <path id="Path_150230" data-name="Path 150230" d="M153.916,25.6a5.94,5.94,0,1,1-6.625-5.164,5.94,5.94,0,0,1,6.625,5.164" transform="translate(6.3 0.904)" fill="#ffa58f"/>
        <path id="Path_150231" data-name="Path 150231" d="M122.571.285A8.288,8.288,0,0,0,116.7,6.251a8.537,8.537,0,0,0,4.09,8.978c2.807,1.592,6.572,1.484,9.813.126a6.728,6.728,0,0,0,3.823-5.192,8.559,8.559,0,0,0-1.175-6.117A9.277,9.277,0,0,0,128.336.667a9.587,9.587,0,0,0-5.765-.382" transform="translate(5.166 0)" fill="#2b244a"/>
        <path id="Path_150232" data-name="Path 150232" d="M130.147,14.744a11.788,11.788,0,0,1,3.072-9.1c.464-.487-.274-1.226-.738-.738a12.8,12.8,0,0,0-3.378,9.836c.05.666,1.094.672,1.044,0" transform="translate(5.723 0.211)" fill="#8c75b5"/>
        <path id="Path_150233" data-name="Path 150233" d="M166.971,17.684a4.682,4.682,0,0,1-.534.046c-1.88.078-2.775,1.635-3.812.274-.749-1-.441-2.125,1.677-2.823a5.725,5.725,0,0,1,1.633-.3h.009a2.018,2.018,0,0,1,1.026,2.8" transform="translate(7.195 0.66)" fill="#2b244a"/>
        <path id="Path_150234" data-name="Path 150234" d="M158.879,19.014c.093,1.706-1.593,1.1-3.086,2.253-1.374,1.058-2.473,1.326-2.812.454-.409-1.053.6-2.889,2.8-3.781,2.064-.835,3.033-.171,3.1,1.074" transform="translate(6.78 0.779)" fill="#2b244a"/>
        <path id="Path_150235" data-name="Path 150235" d="M153.686,40.345a16.864,16.864,0,0,0,2.973,1.375,23.086,23.086,0,0,0,3.269.795.537.537,0,0,0,.642-.364.528.528,0,0,0-.366-.642,23.288,23.288,0,0,1-3.184-.768,15.366,15.366,0,0,1-2.807-1.3.522.522,0,0,0-.527.9" transform="translate(6.804 1.746)" fill="#2b244a"/>
        <path id="Path_150236" data-name="Path 150236" d="M147.393,28.952a3.112,3.112,0,0,1-1.71-2.549,2.576,2.576,0,0,1,1.391-2.574.539.539,0,0,0,.365-.642.525.525,0,0,0-.642-.364,3.6,3.6,0,0,0-2.164,3.5,4.172,4.172,0,0,0,2.233,3.535c.6.3,1.129-.6.527-.9" transform="translate(6.413 1.011)" fill="#2b244a"/>
        <path id="Path_150237" data-name="Path 150237" d="M134.834,45.993A16.867,16.867,0,0,0,143.9,59.372a14.488,14.488,0,0,0,16.352-2.544,21.438,21.438,0,0,0,5.274-9.325.523.523,0,0,0-1.008-.278,20.884,20.884,0,0,1-4.153,7.957,13.067,13.067,0,0,1-7.378,4.346,14.047,14.047,0,0,1-13.614-5.074,16.326,16.326,0,0,1-3.492-8.46c-.077-.66-1.122-.667-1.044,0" transform="translate(5.979 2.017)" fill="#2b244a"/>
        <path id="Path_150238" data-name="Path 150238" d="M163.811,27.183a3.185,3.185,0,0,0,2.12-1.078,1.345,1.345,0,0,0,.357-1.252,2.253,2.253,0,0,0-.791-.986,19.943,19.943,0,0,1-2.808-2.746.539.539,0,0,0-.714-.188.525.525,0,0,0-.187.714,13.706,13.706,0,0,0,1.2,1.4c.366.362.761.693,1.153,1.027q.381.324.755.653c.144.127.469.324.357.542a1.959,1.959,0,0,1-1.444.869.539.539,0,0,0-.522.522.524.524,0,0,0,.522.522" transform="translate(7.171 0.925)" fill="#2b244a"/>
        <path id="Path_150239" data-name="Path 150239" d="M194.11,172.234H93.37l-8.306-7.388a1.233,1.233,0,0,1,.793-2.178H202.265a1.233,1.233,0,0,1,.785,2.185Z" transform="translate(3.752 7.213)" fill="#d9a389"/>
        <path id="Path_150240" data-name="Path 150240" d="M190.037,162.932q-.274,4.4-.55,8.792c-.042.67,1,.668,1.044,0q.276-4.4.55-8.792c.042-.671-1-.668-1.044,0" transform="translate(8.402 7.203)" fill="#2b244a"/>
        <path id="Path_150241" data-name="Path 150241" d="M91.319,162.932q.276,4.4.55,8.792c.041.667,1.086.672,1.044,0q-.276-4.4-.55-8.792c-.042-.667-1.086-.673-1.044,0" transform="translate(4.049 7.203)" fill="#2b244a"/>
        <path id="Path_150242" data-name="Path 150242" d="M162.451,30.517a4.876,4.876,0,0,0,5.483-1.737.527.527,0,0,0-.187-.714.534.534,0,0,0-.714.188,3.829,3.829,0,0,1-4.3,1.256.526.526,0,0,0-.642.364.533.533,0,0,0,.364.642" transform="translate(7.187 1.241)" fill="#2b244a"/>
        <path id="Path_150243" data-name="Path 150243" d="M158.664,22.333a1.253,1.253,0,0,0-1.182-.207,1.185,1.185,0,0,0-.658,1.148,4.117,4.117,0,0,0,.332,1.428,2.624,2.624,0,0,0,1.018,1.358c.847.458,1.556-.221,1.612-1.042a3.632,3.632,0,0,0-1.123-2.684" transform="translate(6.954 0.978)" fill="#2b244a"/>
        <path id="Path_150244" data-name="Path 150244" d="M166.722,19.523a1.253,1.253,0,0,0-1.182-.207,1.184,1.184,0,0,0-.658,1.148,4.118,4.118,0,0,0,.332,1.428,2.624,2.624,0,0,0,1.018,1.358c.847.458,1.556-.221,1.612-1.042a3.632,3.632,0,0,0-1.123-2.684" transform="translate(7.311 0.853)" fill="#2b244a"/>
        <path id="Path_150245" data-name="Path 150245" d="M140.069,2.119A52.54,52.54,0,0,1,150.542,3.7a16.785,16.785,0,0,1,8,4.269c.461.492,1.2-.248.738-.738a17.62,17.62,0,0,0-8.268-4.483,53.387,53.387,0,0,0-10.947-1.668c-.672-.044-.668,1,0,1.044" transform="translate(6.189 0.048)" fill="#8c75b5"/>
      </g>
    </g>
  </g>
</svg>
