<svg xmlns="http://www.w3.org/2000/svg" xmlns:xlink="http://www.w3.org/1999/xlink" width="505" height="383.463" viewBox="0 0 505 383.463">
  <defs>
    <clipPath id="clip-path">
      <rect id="Rectangle_45251" data-name="Rectangle 45251" width="401.903" height="366.02" fill="none"/>
    </clipPath>
  </defs>
  <g id="_1" data-name="1" transform="translate(-0.563)">
    <path id="Rectangle_45252" data-name="Rectangle 45252" d="M147,0H358A147,147,0,0,1,505,147V294a0,0,0,0,1,0,0H0a0,0,0,0,1,0,0V147A147,147,0,0,1,147,0Z" transform="translate(0.563)" fill="#f0f4ff"/>
    <path id="Path_156666" data-name="Path 156666" d="M505,0H0V89.817H505Z" transform="translate(0.563 293.646)" fill="#fff0f1"/>
    <g id="Group_174919" data-name="Group 174919" transform="translate(46.5)">
      <g id="Group_174919-2" data-name="Group 174919" clip-path="url(#clip-path)">
        <path id="Path_182360" data-name="Path 182360" d="M99.306,275.6S83.046,286.181,74.522,299.6c-9.628,15.156-8.194,34.742,4.42,42.78,17.838,11.366,41.2-5.21,45.779-7.894s13.26-8.681,13.26-8.681Z" transform="translate(-11.695 -47.229)" fill="#ffa6a6"/>
        <path id="Path_182361" data-name="Path 182361" d="M361.791,275.6s16.259,10.577,24.784,23.994c9.628,15.156,8.194,34.742-4.42,42.78-17.838,11.366-41.2-5.21-45.779-7.894s-13.26-8.681-13.26-8.681Z" transform="translate(-55.371 -47.229)" fill="#ffa6a6"/>
        <path id="Path_182362" data-name="Path 182362" d="M188.977,129.531s-1.6,7.794-6.161,11.425-11.489,4.576-13.063,14.176,2.99,13.534-5.036,19.2-11.017,6.925-11.489,14.48-.787,8.656-8.341,16.525-7.555,11.017-7.555,11.017h85.773V108.46Z" transform="translate(-23.534 -18.586)" fill="#361524"/>
        <path id="Path_182363" data-name="Path 182363" d="M266.186,128.872s1.918,8.453,6.482,12.085,10.229,4.576,11.8,14.176-1.732,13.535,6.3,19.2,11.017,6.925,11.488,14.48.787,8.656,8.342,16.525,7.554,11.017,7.554,11.017H232.379V108.46Z" transform="translate(-39.822 -18.586)" fill="#361524"/>
        <path id="Path_182364" data-name="Path 182364" d="M253.312,211.693,230.928,223.53,210.8,212l3.169-20.434,2.386-15.553h.018l.2-1.348,30.815-5.773Z" transform="translate(-36.125 -28.943)" fill="#ffa6a6"/>
        <path id="Path_182365" data-name="Path 182365" d="M216.164,207.472c-.474,0-22.376,3.67-22.376,3.67l3.315,5.21s26.52,22.613,27.585,22.85S259.5,224.52,259.5,224.52l.71-12.431-21.547-5.209Z" transform="translate(-33.209 -35.452)" fill="#ffa6a6"/>
        <path id="Path_182366" data-name="Path 182366" d="M242.457,183.424s-9.635,8.433-21.472,9.672a24.218,24.218,0,0,1-6.356-.055l2.386-15.553h17.757Z" transform="translate(-36.78 -30.416)" fill="#361524"/>
        <path id="Path_182367" data-name="Path 182367" d="M214.987,164.555c6.181,9.055,17.2,11.428,26.984,6.632,8.113-3.978,11.972-11.418,13.647-19.942a64.279,64.279,0,0,0,.721-22.643c-1.214-7.133-14.625-22.31-24.463-20.186s-20.309,9.41-22.738,11.383-4.213,30.014,5.848,44.755" transform="translate(-35.515 -18.545)" fill="#ffa6a6"/>
        <path id="Path_182368" data-name="Path 182368" d="M250.981,108.945a25.538,25.538,0,0,0-5.549-3.473,36.562,36.562,0,0,0-21.3-3.2,35.113,35.113,0,0,0-11.555,4.172c-7.972,4.539-11.963,13.176-12.915,21.954l6.61,7.24a35.264,35.264,0,0,0,4.092-2.551c3.148-2.131,1.566-7.67,4.512-11.089s9.128-2.1,12.8-5.246a9.073,9.073,0,0,0,2.425-3.208,9.086,9.086,0,0,0,2.425,3.208c3.673,3.148,9.863,1.836,12.8,5.246s1.569,8.683,4.512,11.089c3.152,2.577,4.857,2.892,4.857,2.892l5.844-7.58c.267-.293-.328-2.4-.39-2.747-1.2-6.76-4.168-12.577-9.165-16.7" transform="translate(-34.215 -17.45)" fill="#361524"/>
        <path id="Path_182369" data-name="Path 182369" d="M237.743,154.937a.63.63,0,0,1-.464-1.056,5.956,5.956,0,0,0,1.579-2.988,22.157,22.157,0,0,0-1.144-4.766.63.63,0,1,1,1.192-.407,23.778,23.778,0,0,1,1.212,5.173c0,1.714-1.716,3.628-1.912,3.84a.625.625,0,0,1-.463.2" transform="translate(-40.633 -24.898)" fill="#361524"/>
        <path id="Path_182370" data-name="Path 182370" d="M236.65,162.557c-2.338,0-4.856-1.086-5.624-3.634a.63.63,0,1,1,1.206-.363c.628,2.088,2.914,2.869,4.891,2.721,1.669-.128,3.721-1.011,4.013-3.083a.629.629,0,1,1,1.246.176c-.326,2.314-2.353,3.948-5.163,4.162q-.282.021-.569.021" transform="translate(-39.586 -27.017)" fill="#361524"/>
        <path id="Path_182371" data-name="Path 182371" d="M226.044,147.187H226a4.157,4.157,0,0,1-3.564-2.009.629.629,0,0,1,1.1-.6,2.9,2.9,0,0,0,2.471,1.353,2.141,2.141,0,0,0,2.39-1.577.629.629,0,1,1,1.24.215,3.406,3.406,0,0,1-3.6,2.621" transform="translate(-38.105 -24.647)" fill="#361524"/>
        <path id="Path_182372" data-name="Path 182372" d="M247.418,147.187a3.406,3.406,0,0,1-3.6-2.621.629.629,0,1,1,1.24-.215,2.137,2.137,0,0,0,2.356,1.577h.035a2.9,2.9,0,0,0,2.47-1.353.63.63,0,0,1,1.105.6,4.16,4.16,0,0,1-3.564,2.009Z" transform="translate(-41.781 -24.647)" fill="#361524"/>
        <path id="Path_182373" data-name="Path 182373" d="M207.975,142.2s-4.092-4.722-7.24-1.574,1.376,13.363,3.62,15.738c3.567,3.777,6.924,2.456,6.924,2.456Z" transform="translate(-34.214 -23.914)" fill="#ffa6a6"/>
        <path id="Path_182374" data-name="Path 182374" d="M263.627,142.2s4.092-4.722,7.24-1.574-1.376,13.363-3.62,15.738c-3.567,3.777-6.924,2.456-6.924,2.456Z" transform="translate(-44.611 -23.914)" fill="#ffa6a6"/>
        <path id="Path_182375" data-name="Path 182375" d="M252.749,134.859a1.572,1.572,0,0,0-.054-.185,2.564,2.564,0,0,0-.883-1.114,7,7,0,0,0-3.245-1.215,9.032,9.032,0,0,0-3-.034c-1.184.215-4.089,1.521-2.7,3.131a3.171,3.171,0,0,0,1.743.852,16.581,16.581,0,0,0,6.638.307,2.073,2.073,0,0,0,1.261-.566,1.356,1.356,0,0,0,.244-1.177" transform="translate(-41.555 -22.655)" fill="#361524"/>
        <path id="Path_182376" data-name="Path 182376" d="M220.239,136.036a2.068,2.068,0,0,0,1.261.566,16.552,16.552,0,0,0,6.638-.307,3.172,3.172,0,0,0,1.743-.851c1.389-1.612-1.516-2.916-2.7-3.132a9.05,9.05,0,0,0-3,.035,6.991,6.991,0,0,0-3.245,1.214,2.566,2.566,0,0,0-.883,1.115,1.531,1.531,0,0,0-.054.185,1.352,1.352,0,0,0,.244,1.176" transform="translate(-37.693 -22.655)" fill="#361524"/>
        <path id="Path_182377" data-name="Path 182377" d="M331.243,255.711l-12.332,15.562-16.263,20.505-6.45,8.136-23.138-8.941-9.851,39.8H164.944l-8.875-33.386-28.536,7.464-8.241-11.271-14.87-20.355L92.488,256.9c-.5-.776,31.208-20.667,46.571-29.807h.009c3.656-2.178,6.394-3.75,7.54-4.3,2.178-1.052,4.376-2.074,6.611-3,.3-.133.616-.265.928-.388,8.667-3.467,22.286-7.369,22.286-7.369s15.211,9.718,25.8,15.8c4.83,2.775,8.695,4.792,9.717,4.792,1.364,0,7.038-3.457,13.146-7.482,8.449-5.551,17.75-12.162,17.75-12.162s17.758,2.482,29.834,7.454c.1.037.181.075.275.114a173.5,173.5,0,0,1,17.5,8.5c14.188,7.851,27.3,17.3,40.784,26.671" transform="translate(-15.848 -36.335)" fill="#fff"/>
        <path id="Path_182378" data-name="Path 182378" d="M263.475,331.14h-99l-8.847-33.283-28.392,7.425-35.363-48.39.046-.25c.412-1.756,37.653-24.629,46.793-30.067l.122-.066c3.857-2.3,6.369-3.728,7.465-4.253,2.647-1.278,4.694-2.207,6.634-3.013.3-.132.618-.266.936-.391,8.587-3.435,22.192-7.345,22.329-7.383l.206-.06.18.115c.152.1,15.323,9.781,25.781,15.787,7.163,4.113,9.016,4.729,9.481,4.729.5,0,2.744-.722,12.887-7.4,8.344-5.482,17.642-12.086,17.735-12.152l.153-.109.186.027c.178.025,17.956,2.546,29.949,7.485l.27.111a173.085,173.085,0,0,1,17.557,8.522c12.377,6.849,24.191,15.094,35.616,23.068q2.6,1.813,5.209,3.629l.414.288-35.574,44.872L273.286,291.5Zm-98.272-.948h97.531l9.891-39.96,23.314,9.009,34.514-43.534q-2.4-1.672-4.8-3.344c-11.93-8.325-23.2-16.19-35.533-23.015a172.2,172.2,0,0,0-17.455-8.473l-.269-.111c-11.23-4.625-27.616-7.116-29.539-7.4-1.252.886-9.842,6.959-17.609,12.062-11.473,7.56-12.928,7.56-13.406,7.56-.645,0-2.377-.5-9.953-4.856-9.858-5.66-23.887-14.578-25.639-15.694-1.736.5-14.068,4.107-22.037,7.294-.308.122-.616.252-.913.382-1.932.8-3.963,1.725-6.6,3-1.067.512-3.661,1.991-7.5,4.281l-.122.066c-15.039,8.951-43.552,26.866-46.123,29.322L127.619,304.2l28.682-7.5Z" transform="translate(-15.744 -36.228)" fill="#361524"/>
        <path id="Path_182379" data-name="Path 182379" d="M173.623,234.781a13.09,13.09,0,1,1-24.939-5.578h.01c3.656-2.178,6.393-3.751,7.539-4.3,2.178-1.051,4.376-2.074,6.612-3a13.085,13.085,0,0,1,10.778,12.881" transform="translate(-25.267 -38.026)" fill="#ffe3b5"/>
        <path id="Path_182380" data-name="Path 182380" d="M249.989,234.225A13.09,13.09,0,1,0,236.9,247.314a13.089,13.089,0,0,0,13.089-13.089" transform="translate(-38.354 -37.895)" fill="#ffe3b5"/>
        <path id="Path_182381" data-name="Path 182381" d="M249.989,344.335A13.09,13.09,0,1,0,236.9,357.424a13.089,13.089,0,0,0,13.089-13.089" transform="translate(-38.354 -56.764)" fill="#ffe3b5"/>
        <path id="Path_182382" data-name="Path 182382" d="M326.391,234.924A13.09,13.09,0,1,1,308.377,222.8a173.86,173.86,0,0,1,17.5,8.5,13.118,13.118,0,0,1,.511,3.628" transform="translate(-51.446 -38.18)" fill="#ffe3b5"/>
        <path id="Path_182383" data-name="Path 182383" d="M130.776,292.695a13.1,13.1,0,0,1-8.515,12.265l-14.87-20.354a13.092,13.092,0,0,1,23.385,8.088" transform="translate(-18.403 -47.915)" fill="#ffe3b5"/>
        <path id="Path_182384" data-name="Path 182384" d="M206.311,292.929a13.09,13.09,0,1,0-13.089,13.089,13.089,13.089,0,0,0,13.089-13.089" transform="translate(-30.869 -47.955)" fill="#ffe3b5"/>
        <path id="Path_182385" data-name="Path 182385" d="M282.927,292.929a13.09,13.09,0,1,0-13.09,13.089,13.089,13.089,0,0,0,13.09-13.089" transform="translate(-43.998 -47.955)" fill="#ffe3b5"/>
        <path id="Path_182386" data-name="Path 182386" d="M360.816,282.555l-16.262,20.505a13.09,13.09,0,1,1,16.262-20.505" transform="translate(-58.149 -47.898)" fill="#ffe3b5"/>
        <path id="Path_182387" data-name="Path 182387" d="M0,353.043H401.9s-21.468,23.758-66.3,36.738c-41.906,12.134-50.829,26.167-83.664,33.744s-78.06-.947-99.647-6.63-44.279-2.526-60.873-8.84-28.839-19.192-41.22-26.2C31.254,371.122,0,353.043,0,353.043" transform="translate(0 -60.5)" fill="#f0dcd8"/>
        <path id="Path_182388" data-name="Path 182388" d="M101.538,294.973,179.2,250.457l19.574,25.258s-50.6,42.727-55.092,45.778-12.944,4.578-13.576,4.578-15.47-13.1-16.259-14.049-12.313-17.048-12.313-17.048" transform="translate(-17.4 -42.92)" fill="#ffa6a6"/>
        <path id="Path_182389" data-name="Path 182389" d="M353.321,295.56l-80.507-41.674L253.24,279.144s53.442,39.885,57.933,42.936,12.944,4.578,13.576,4.578,15.47-13.1,16.259-14.049,12.313-17.048,12.313-17.048" transform="translate(-43.397 -43.508)" fill="#ffa6a6"/>
        <path id="Path_182390" data-name="Path 182390" d="M213.729,267.145A119.691,119.691,0,0,0,223,257.4c4.262-5.446,3.67-12.076,3.137-16.811-.317-2.824,0-40.135,0-40.135s-18.962,6.985-22.751,17.758-7.42,19.061-9.234,23.679a16.929,16.929,0,0,1-5.367,7.1Z" transform="translate(-32.352 -34.351)" fill="#ffa6a6"/>
        <path id="Path_182391" data-name="Path 182391" d="M249.721,269.927s-10.248-8.762-13.242-12.589c-4.262-5.446-3.671-12.076-3.138-16.811.318-2.824-.635-39.824-.635-39.824s8.547-2.851,18.807,3.875c3.5,2.3,4.9,5.274,6.085,8.641,3.789,10.773,6.152,21.863,7.967,26.48s10.744,8.6,10.744,8.6Z" transform="translate(-39.878 -34.291)" fill="#ffa6a6"/>
        <path id="Path_182392" data-name="Path 182392" d="M263.257,217.982c-.013-.035-1.308-3.556-1.968-5.063a47.551,47.551,0,0,0-2.328-4.485l.813-.486a47.363,47.363,0,0,1,2.382,4.591c.672,1.533,1.937,4.97,1.99,5.116Z" transform="translate(-44.377 -35.635)" fill="#361524"/>
        <path id="Path_182393" data-name="Path 182393" d="M230.949,250.83a.474.474,0,0,1-.474-.472q-.01-5.259-.043-10.518c0-.552-.022-1.119-.042-1.694-.092-2.7-.187-5.486,1.23-7.864,2.1-3.523,6.728-3.594,10.446-3.651.73-.012,1.434-.022,2.091-.057a2.89,2.89,0,0,0,2.417-1.385,1.618,1.618,0,0,0-.23-1.724,7.924,7.924,0,0,0-4.592-2.537,18.136,18.136,0,0,0-9.04.521,30.13,30.13,0,0,0-4.508,1.733c-1.376.665-3.089,1.492-4.813.882a2.935,2.935,0,0,1-1.7-1.647c-.646-1.492-.418-3.74,4.326-5.97a25.915,25.915,0,0,1,10.092-2.41,24.359,24.359,0,0,1,4.634.287,29.381,29.381,0,0,1,6.679,1.912l.268.115a2.372,2.372,0,0,0,1.721.315,2.039,2.039,0,0,0,1.07-1.46c.182-.858-.326-1.821-1.513-2.86-3.587-3.145-10.6-4.328-18.754-3.162a21.2,21.2,0,0,0-4.451,1.148c-.883.336-1.761.742-2.609,1.134l-.839.385a4.447,4.447,0,0,1-3.8.319,2.542,2.542,0,0,1-1.235-1.022,2.832,2.832,0,0,1-.265-2.338c.713-2.244,3.981-4,6.377-5.123a27.606,27.606,0,0,1,12.484-2.795c8.171.259,12.84,2.643,12.979,2.753a.473.473,0,0,1-.583.746c-.032-.025-4.6-2.3-12.425-2.552a26.782,26.782,0,0,0-12.052,2.706c-1.288.6-5.206,2.444-5.876,4.553a1.9,1.9,0,0,0,.185,1.584,1.674,1.674,0,0,0,.79.621,3.542,3.542,0,0,0,3.027-.313l.832-.383c.863-.4,1.757-.811,2.67-1.158a21.787,21.787,0,0,1,4.654-1.2c8.427-1.2,15.721.062,19.513,3.387,1.464,1.284,2.074,2.552,1.816,3.77a2.963,2.963,0,0,1-1.639,2.14,3.131,3.131,0,0,1-2.455-.324l-.256-.109a28.449,28.449,0,0,0-6.463-1.85,23.721,23.721,0,0,0-4.454-.276,24.958,24.958,0,0,0-9.721,2.321c-2.241,1.052-4.728,2.729-3.859,4.737a1.988,1.988,0,0,0,1.144,1.13c1.35.481,2.8-.222,4.083-.842a31.086,31.086,0,0,1,4.65-1.789A19.086,19.086,0,0,1,241.95,220c.861.186,3.776.943,5.167,2.918a2.564,2.564,0,0,1,.309,2.682,3.813,3.813,0,0,1-3.219,1.919c-.668.036-1.384.046-2.126.057-3.664.056-7.817.12-9.647,3.189-1.275,2.139-1.185,4.786-1.1,7.347.02.584.039,1.16.042,1.72q.03,5.261.043,10.522a.472.472,0,0,1-.472.474Z" transform="translate(-37.166 -34.424)" fill="#361524"/>
        <path id="Path_182394" data-name="Path 182394" d="M92.159,306.9a.474.474,0,0,1-.234-.886l18.292-10.335a.474.474,0,0,1,.467.825L92.392,306.844a.475.475,0,0,1-.233.061" transform="translate(-15.712 -50.66)" fill="#361524"/>
        <path id="Path_182395" data-name="Path 182395" d="M377.635,307.189a.473.473,0,0,1-.239-.065l-20.609-12.052a.474.474,0,0,1,.479-.818l20.608,12.052a.474.474,0,0,1-.239.883" transform="translate(-61.101 -50.414)" fill="#361524"/>
        <path id="Path_182396" data-name="Path 182396" d="M415.247,77.015a28.726,28.726,0,0,1-11.925,11.119A53.08,53.08,0,0,1,376.9,94.177a61.4,61.4,0,0,1-14.131-2.226A96.451,96.451,0,0,1,351.4,88.03c-13.866-5.655-27.211-13.828-41.6-18.222-6.374-1.951-13.677-3.921-20.4-4.158-4.983-.162-10.334.133-15.031,2.046a19.931,19.931,0,0,0-3.561,1.865c-8.761,5.8-14.311,18.1-14.311,18.1a90.364,90.364,0,0,0-1.43-19.17c-.2-1.09-.435-2.2-.7-3.305-.758-3.239-1.7-6.554-2.539-9.765a79.31,79.31,0,0,1-1.79-8.05,25.727,25.727,0,0,1-.341-5.731c.037-.473.075-.937.142-1.392a28.549,28.549,0,0,1,2.377-8.411,35.274,35.274,0,0,1,7.823-10.7,48.574,48.574,0,0,1,4.831-4.054,71.39,71.39,0,0,1,18.374-9.443A137.922,137.922,0,0,1,316.29.581a143.112,143.112,0,0,1,37.82,1.6c16.925,3.022,33.339,10.665,45.832,22.305q1.8,1.663,3.476,3.448,1.235,1.293,2.386,2.643c.834.966,1.639,1.961,2.415,2.974a69.475,69.475,0,0,1,5.418,8.136c6.052,10.684,7.937,24.815,1.61,35.329" transform="translate(-42.782 0)" fill="#434194"/>
        <path id="Path_182397" data-name="Path 182397" d="M427.293,41.687a69.372,69.372,0,0,0-5.418-8.136q-1.165-1.521-2.415-2.975-1.151-1.349-2.386-2.642-1.677-1.791-3.476-3.448C401.105,12.846,384.691,5.2,367.766,2.182a143.148,143.148,0,0,0-37.82-1.6A21.075,21.075,0,0,0,342.43,25.188c3.164,1.269,7.056,1.317,9.4,4.063,1.951,2.292,2.965,4.7,5.578,6.422,5.276,3.5,11.868,3.5,17.9,4.4,3.116.454,10.239,1.458,10.713,5.36.18,1.42-.909,3.116-1.108,4.509a4.949,4.949,0,0,0,.341,2.643c.607,1.563,1.411,2.585.786,4.328a6.028,6.028,0,0,1-1.753,2.425,37.417,37.417,0,0,1-4.736,3.031,7.779,7.779,0,0,0-3.836,5.408c-.4,2.7.682,5.408,1.477,7.937a21.286,21.286,0,0,1,1.1,4.954,16.263,16.263,0,0,1-1.137,5.911,14.132,14.132,0,0,0-.738,5.379,61.4,61.4,0,0,0,14.131,2.226,53.086,53.086,0,0,0,26.426-6.043A28.722,28.722,0,0,0,428.9,77.016c6.327-10.514,4.442-24.645-1.61-35.329" transform="translate(-56.439 0)" fill="#361524"/>
        <path id="Path_182398" data-name="Path 182398" d="M303.665,16.863a36.885,36.885,0,0,0-6.677.786,51.731,51.731,0,0,1-9.453.435c-5.379-.037-9.707,3.808-15.126,3.268-2.538-.256-5.048-1-7.539-1.383-8.117,5.986-14.406,14.093-15.173,24.559-.464,6.413,2.728,15.211,4.669,23.546a37.036,37.036,0,0,0,6.791-4.272c3.732-2.974,6.176-6.914,9.548-10.2,6.621-6.441,17.475-6.6,22.835-14.426,1.165-1.7,2.093-3.542,3.3-5.2a12.828,12.828,0,0,1,5.787-4.3c3.22-1.4,6.686-4.1,7.018-7.908.322-3.656-2.831-4.859-5.976-4.906" transform="translate(-42.782 -2.889)" fill="#fff"/>
        <path id="Path_182399" data-name="Path 182399" d="M302.055,22.846a.422.422,0,0,0-.483-.114.984.984,0,0,0-.133.028c-2.14.682-4.186,1.724-6.412,2.075-2.974.464-6-.341-9.007-.369-5.21-.038-10.22,2.254-15.429,2.244a45.633,45.633,0,0,1-10.1-1.6c-.142-.029-.274-.067-.416-.085a35.256,35.256,0,0,0-7.824,10.7,30.271,30.271,0,0,0,8.089-1.961c3.977-1.439,7.928-3.2,12.142-3.5a37.778,37.778,0,0,0-4.338,3.523,12.011,12.011,0,0,1-4.47,2.993c-4.082,1.306-8.373,1.032-12.512,1.686a27.527,27.527,0,0,0-1.289,5.663c.237-.094.483-.179.729-.265a33.893,33.893,0,0,1,4.641-1.051c3.315-.588,6.356-1.3,9.112-3.324,2.87-2.112,5.4-4.622,8.372-6.593a13.739,13.739,0,0,1,7.35-2.623c7.814-.237,14.671-3.391,21.576-6.83.246-.114.53-.37.4-.607" transform="translate(-42.821 -3.891)" fill="#434194"/>
        <path id="Path_182400" data-name="Path 182400" d="M296.735,29.1a.477.477,0,0,0-.8-.207A24.941,24.941,0,0,1,282.4,37.92c-2.264.578-4.746.824-6.914,1.828-3.769,1.762-6.431,5.228-10.1,7.216a55.171,55.171,0,0,1-12.559,4.707c-.8.2-1.733.4-2.709.625a79.337,79.337,0,0,0,1.79,8.052c8.344-4.13,15.818-9.794,23.783-14.662,2.415-1.468,4.973-2.188,7.53-3.3a19.045,19.045,0,0,0,5.465-3.846c1.791-1.714,3.4-3.609,5.21-5.3,1.288-1.2,3.211-2.159,2.841-4.14" transform="translate(-42.862 -4.927)" fill="#434194"/>
        <path id="Path_182401" data-name="Path 182401" d="M315.769,21.215a4.294,4.294,0,0,0-.607-.689,6.9,6.9,0,0,0-5.074-1.617,14.305,14.305,0,0,0-5.22,1.525,7.8,7.8,0,0,0-3.286,2.473c-.9,1.355-.787,3.32-.682,4.877a2.409,2.409,0,0,0,.268,1.1,2.309,2.309,0,0,0,2.085.814,17.833,17.833,0,0,0,5.877-1.441,20.871,20.871,0,0,0,5.355-2.618,3.812,3.812,0,0,0,1.815-2.976,2.775,2.775,0,0,0-.533-1.45" transform="translate(-51.552 -3.238)" fill="#5dace1"/>
        <path id="Path_182402" data-name="Path 182402" d="M415.87,39.308a13.874,13.874,0,0,1-1.6,6.469,13.819,13.819,0,0,1-3.391,4.186s.01.009,0,.009a13.865,13.865,0,0,1-15.826,1.374,13.56,13.56,0,0,1-3.155-2.482,13.81,13.81,0,0,1-3.76-8.449c-.029-.36-.048-.738-.048-1.108,0-.426.019-.853.057-1.269.028-.283.066-.568.1-.843a13.892,13.892,0,0,1,13.724-11.782,13.305,13.305,0,0,1,1.743.114,13.822,13.822,0,0,1,9.074,5.067c.028.038.066.085.094.123a13.28,13.28,0,0,1,1.592,2.519,14,14,0,0,1,1.392,6.071" transform="translate(-66.506 -4.355)" fill="#ffa6a6"/>
        <path id="Path_182403" data-name="Path 182403" d="M420.241,38.838a7.058,7.058,0,0,0-3.447.152,2.022,2.022,0,0,0-1.507,2.566c.455,1.705,2.159,2.028,1.535,4.177a18.69,18.69,0,0,0-.9,2.671c-.21,1.269-.21,2.558-.4,3.837a13.862,13.862,0,0,0,3.392-4.187,13.884,13.884,0,0,0,1.6-6.468,13.924,13.924,0,0,0-.274-2.747" transform="translate(-71.151 -6.632)" fill="#eb7a7a"/>
        <path id="Path_182404" data-name="Path 182404" d="M419.586,33.945A13.438,13.438,0,0,0,417.9,31.3c2.87-.607,5.768-1.1,8.676-1.487.73-.094,1.468-.189,2.2-.265q1.8,1.663,3.476,3.448a51.976,51.976,0,0,0-12.663.947" transform="translate(-71.614 -5.064)" fill="#fff"/>
        <path id="Path_182405" data-name="Path 182405" d="M427.306,39.874c-.682.474-1.392.909-2.112,1.317a83.509,83.509,0,0,1-14.576,6.222c-.331.114-.654.228-.985.331a199.5,199.5,0,0,1-19.217,5.569c-4.594,1.071-9.225,1.941-13.895,2.548a52.531,52.531,0,0,1-7,.53,28.924,28.924,0,0,1-3.382-.2,7.836,7.836,0,0,1-3.571-1.155c-4.631-3.277,2.425-7.909,5.114-9.415a81.144,81.144,0,0,1,15.931-6.459,14,14,0,0,0-.162,2.112c0,.369.019.748.048,1.108a71.058,71.058,0,0,0-10.655,4.272,10.882,10.882,0,0,0-4.026,3.04,1.949,1.949,0,0,0-.455,1.108c-.019,1.175,1.5,1.639,2.672,1.7a60.574,60.574,0,0,0,16.224-1.666c3.324-.739,6.612-1.639,9.879-2.548,4.631-1.3,9.32-2.662,13.837-4.357A63.1,63.1,0,0,0,424.891,36.9c.834.966,1.639,1.961,2.415,2.974" transform="translate(-61.869 -6.323)" fill="#fff"/>
        <path id="Path_182406" data-name="Path 182406" d="M402.982,38.8c-1.25-2.264-4.12-2.652-6.384-3.135-.805-.181-2.046-.247-2.3-1.289-.113-.464.645-1.743.73-2.358a4.84,4.84,0,0,0-.54-3.078,5.232,5.232,0,0,0-.388-.559,13.863,13.863,0,0,0-5.835,9.32c-.037.275-.075.559-.1.843a6.1,6.1,0,0,1,1.847.711,31.751,31.751,0,0,0,4,2.339c2.207.9,5.21,1.6,7.54.757a2.343,2.343,0,0,0,1.439-3.552" transform="translate(-66.517 -4.864)" fill="#eb7a7a"/>
        <path id="Path_182407" data-name="Path 182407" d="M415.385,30.617a13.822,13.822,0,0,0-9.074-5.067,6.323,6.323,0,0,0-.9.331,4.294,4.294,0,0,0-1.458,1.032,2.473,2.473,0,0,0-.616,2.434,2.888,2.888,0,0,0,2.6,1.686,59.736,59.736,0,0,0,7.019,0,15.013,15.013,0,0,0,2.519-.293c-.028-.038-.066-.085-.094-.123" transform="translate(-69.099 -4.378)" fill="#eb7a7a"/>
        <path id="Path_182408" data-name="Path 182408" d="M355.811,96.188q-1.96-5.725-3.921-11.432c-2.018-5.882-3.846-11.944-9.736-15.05-2.86-1.506-5.967-1.364-8.988-2.264-3.486-1.023-5.56-4.186-8.363-6.3a15.1,15.1,0,0,0-15.78-2.017c-3.277,1.364-6.317,3.305-9.7,4.432s-7.057.436-10.343,1.894c-5.067,2.236-7.653,7.141-9.5,12.143,4.7-1.913,10.05-2.207,15.031-2.046a48.359,48.359,0,0,1,5.152.473,104.427,104.427,0,0,1,15.249,3.685c9.262,2.831,18.1,7.227,26.927,11.507,4.868,2.368,9.736,4.7,14.671,6.715-.256-.644-.53-1.25-.7-1.743" transform="translate(-47.894 -9.9)" fill="#5dace1"/>
        <path id="Path_182409" data-name="Path 182409" d="M345.078,89.528a32.635,32.635,0,0,0-2.841-4.915c-1.222-1.894-2.037-4.111-3.382-5.9-1.837-2.435-4.849-3.164-7.757-3.2a7.772,7.772,0,0,1-3.959-.682,8,8,0,0,1-2.2-1.989,8.025,8.025,0,0,0-3.684-2.747,6.976,6.976,0,0,0-4.717.3,55.9,55.9,0,0,1-6.356,2.2,8.746,8.746,0,0,0-6.346,5.493,104.534,104.534,0,0,1,15.249,3.685c9.262,2.831,18.1,7.227,26.927,11.507a12.825,12.825,0,0,0-.938-3.75" transform="translate(-52.068 -11.963)" fill="#88cbf7"/>
        <path id="Path_182410" data-name="Path 182410" d="M408.515,73.25a32.887,32.887,0,0,1-1.5,6.427c-.947,2.257-3.793,2.638-3.793,2.638s3.6.737,4.451,3.527a32.284,32.284,0,0,1,1.074,5.176,19.894,19.894,0,0,1,1.735-5.853c1.25-2.207,4.345-3.043,4.345-3.043s-3.675-.178-4.535-2.5a65.5,65.5,0,0,1-1.777-6.378" transform="translate(-69.099 -12.553)" fill="#ffc29e"/>
        <path id="Path_182411" data-name="Path 182411" d="M419.193,88.737a16.593,16.593,0,0,1-.758,3.247,2.581,2.581,0,0,1-1.916,1.332s1.821.374,2.249,1.782a16.324,16.324,0,0,1,.542,2.617,10.034,10.034,0,0,1,.878-2.957,4.019,4.019,0,0,1,2.2-1.539s-1.858-.09-2.292-1.26a32.971,32.971,0,0,1-.9-3.223" transform="translate(-71.377 -15.207)" fill="#ffc29e"/>
        <path id="Path_182412" data-name="Path 182412" d="M435.481,57.773a16.607,16.607,0,0,1-.758,3.247,2.584,2.584,0,0,1-1.916,1.332s1.821.373,2.249,1.782a16.329,16.329,0,0,1,.542,2.616,10.062,10.062,0,0,1,.878-2.957,4.016,4.016,0,0,1,2.2-1.538s-1.857-.089-2.292-1.26a33.032,33.032,0,0,1-.9-3.223" transform="translate(-74.169 -9.9)" fill="#ffc29e"/>
        <path id="Path_182413" data-name="Path 182413" d="M441.006,69.812a16.606,16.606,0,0,1-.758,3.247,2.584,2.584,0,0,1-1.916,1.332s1.821.373,2.249,1.782a16.331,16.331,0,0,1,.542,2.616A10.034,10.034,0,0,1,442,75.833a4.013,4.013,0,0,1,2.2-1.537s-1.857-.09-2.292-1.261a33.3,33.3,0,0,1-.9-3.223" transform="translate(-75.115 -11.963)" fill="#ffc29e"/>
        <path id="Path_182414" data-name="Path 182414" d="M369,12.661a16.607,16.607,0,0,1-.758,3.247,2.584,2.584,0,0,1-1.916,1.332s1.821.373,2.249,1.782a16.333,16.333,0,0,1,.542,2.616,10.049,10.049,0,0,1,.877-2.957,4.016,4.016,0,0,1,2.2-1.537s-1.857-.09-2.292-1.261a33.292,33.292,0,0,1-.9-3.223" transform="translate(-62.775 -2.17)" fill="#ffc29e"/>
        <path id="Path_182415" data-name="Path 182415" d="M72.524,347.042a21.591,21.591,0,0,0,7.151,7.577c17.242,10.987,39.644-4.132,45.255-7.577Z" transform="translate(-12.428 -59.471)" fill="#ffa6a6"/>
        <path id="Path_182416" data-name="Path 182416" d="M339.75,347.042c5.611,3.445,28.013,18.564,45.255,7.577a21.591,21.591,0,0,0,7.151-7.577Z" transform="translate(-58.222 -59.471)" fill="#ffa6a6"/>
        <path id="Path_182417" data-name="Path 182417" d="M179.109,63.576a22.787,22.787,0,0,1-3.968,10.134,30.6,30.6,0,0,1-5.8,6.062c-.776.634-1.572,1.25-2.386,1.837-1.743,1.279-3.561,2.472-5.351,3.656-1.477.975-2.936,1.941-4.329,2.946-.217.152-.435.3-.644.464-.18.123-.351.256-.53.388-1.052.8-2.065,1.611-3,2.463a22.338,22.338,0,0,0-4.319,5.2c-7.1,12.152,13.733,24.939,13.733,24.939s-8.477-3.419-12.512-5.152c-1.013-.436-2.018-.9-3.012-1.373-2.064-.976-4.091-2-6.137-2.956a61.434,61.434,0,0,0-6.659-2.727,31.317,31.317,0,0,0-7.861-1.592,52.076,52.076,0,0,0-9.642.331c-.606.066-1.2.152-1.809.237-.426.057-.852.123-1.269.19-2.841.436-5.664,1.023-8.476,1.648-1.9.426-3.808.862-5.693,1.288-.057.01-.1.028-.161.038-11.9,2.652-25.014,4.565-36.21-1.582-8.865-4.859-15.627-13.638-16.584-23.868a37.224,37.224,0,0,1,4.3-20.505,46.2,46.2,0,0,1,4.291-6.762A57.384,57.384,0,0,1,67.811,46.7c1.62-1.156,3.305-2.255,5.03-3.277a92.232,92.232,0,0,1,20.95-8.96,135.369,135.369,0,0,1,20.979-4.47,92.842,92.842,0,0,1,31.975.994c.909.2,1.819.417,2.719.654a66.7,66.7,0,0,1,9.054,3.1,44.477,44.477,0,0,1,7.047,3.769c.72.474,1.43.976,2.121,1.5,7.435,5.6,12.825,13.762,11.423,23.575" transform="translate(-7.943 -4.982)" fill="#ffc29e"/>
        <path id="Path_182418" data-name="Path 182418" d="M176.283,71.409c-5.939-5.873-7.483-14.747-15.77-18.232-2.368-1-4.9-1.657-7.094-3.04a21.683,21.683,0,0,1-5.323-5.36c-2.5-3.23-4.954-6.327-8.922-7.795-4.746-1.753-10.04-1.317-14.7-3.392a24.127,24.127,0,0,1-5.266-3.409,135.348,135.348,0,0,0-20.979,4.47,92.216,92.216,0,0,0-20.95,8.96c-1.724,1.023-3.41,2.121-5.03,3.276a42.517,42.517,0,0,1,10.58,7.976c3.286,3.419,5.645,8.2,9.9,10.56a13.682,13.682,0,0,0,6.659,1.392,57.366,57.366,0,0,1,9.358.7A32.387,32.387,0,0,1,124.3,74.847c3.884,3.315,7.426,7.256,12.152,9.415,4.7,2.14,10.05,2.367,14.88,4.214a29.348,29.348,0,0,1,6.2,3.239c.937-.852,1.951-1.666,3-2.463,1.743-1.307,3.609-2.547,5.5-3.8,4.963-3.277,10.068-6.63,13.535-11.555a26.681,26.681,0,0,1-3.3-2.491" transform="translate(-12.381 -5.172)" fill="#ffe3b5"/>
        <path id="Path_182419" data-name="Path 182419" d="M87.47,61.912c-.71,2.652-2.415,4.565-3.978,4.556a1.636,1.636,0,0,1-.473-.066,1.541,1.541,0,0,1-.445-.19c-1.346-.776-1.876-3.267-1.165-5.92.682-2.538,2.264-4.385,3.769-4.546a1.845,1.845,0,0,1,.682.047,1.288,1.288,0,0,1,.265.1c1.477.653,2.083,3.248,1.345,6.014" transform="translate(-13.897 -9.551)" fill="#257878"/>
        <path id="Path_182420" data-name="Path 182420" d="M98.65,71.009a2.546,2.546,0,0,1-.464.094,1.657,1.657,0,0,1-.483-.009c-2.264-.18-4.329-3.3-4.746-7.284s.985-7.464,3.164-8.107a2.545,2.545,0,0,1,.464-.094,1.656,1.656,0,0,1,.483.009c2.264.18,4.338,3.286,4.746,7.284s-.985,7.473-3.164,8.107" transform="translate(-15.918 -9.527)" fill="#257878"/>
        <path id="Path_182421" data-name="Path 182421" d="M113.959,79.949c-2.245,3.9-5.787,6.138-8.174,5.276a2.108,2.108,0,0,1-.493-.218,2.354,2.354,0,0,1-.351-.247c-2.027-1.591-1.884-5.834.4-9.784s5.9-6.2,8.288-5.238a2.776,2.776,0,0,1,.379.18,2.565,2.565,0,0,1,.445.322c1.923,1.648,1.753,5.815-.492,9.708" transform="translate(-17.74 -11.913)" fill="#257878"/>
        <path id="Path_182422" data-name="Path 182422" d="M114.156,70.287A63.639,63.639,0,0,0,105.49,85.27c-.492,1.147-.8,3.327-1.269,4.6l-2.427-.978c.492-1.317,2.351-2.9,2.853-4.083a63.748,63.748,0,0,1,8.686-15.021,2.776,2.776,0,0,1,.379.18,2.564,2.564,0,0,1,.445.322" transform="translate(-17.444 -11.959)" fill="#257878"/>
        <path id="Path_182423" data-name="Path 182423" d="M99.87,89.2H97.324A109.606,109.606,0,0,0,98.39,71.682c-.009-.2-.009-.4-.019-.587A117.351,117.351,0,0,0,96.789,55.7a2.545,2.545,0,0,1,.464-.094,1.656,1.656,0,0,1,.483.009,119.532,119.532,0,0,1,1.582,15.391c.01.218.01.427.019.644.237,9.3.533,17.475.533,17.55" transform="translate(-16.586 -9.527)" fill="#257878"/>
        <path id="Path_182424" data-name="Path 182424" d="M85.535,55.9c-.492,1.676-1.506,5.314-2.633,10.571,0,.009-.009.027-.009.037a83.153,83.153,0,0,0-1.785,12.607l-3.46-.3a52.464,52.464,0,0,0,4.316-12.51c.009-.029.009-.065.019-.094,1.108-5.134,2.1-8.744,2.6-10.466a1.863,1.863,0,0,1,.682.047,1.387,1.387,0,0,1,.265.1" transform="translate(-13.306 -9.551)" fill="#257878"/>
        <path id="Path_182425" data-name="Path 182425" d="M164.2,111.6c-1.894-15.893-2.178-30-3.145-45.756,0-.047-.028-.805-.047-.805a25.733,25.733,0,0,0-4.83.152c-.312.038-.985,16.992-1.563,26.046-.607,9.377-1.544,18.337-2.255,24.37,4.4,1.458,8.515,3.656,12.8,5.683-.218-2.756-.531-6.1-.957-9.689" transform="translate(-26.11 -11.138)" fill="#942f51"/>
        <path id="Path_182426" data-name="Path 182426" d="M154.373,64.819a1.755,1.755,0,0,0-1.794-.729.442.442,0,0,0-.552-.3,15.228,15.228,0,0,0-8.468,5.766c-1.348,1.86-2.338,3.948-4.5,5-1.71.828-3.658.947-5.327,1.9a9.966,9.966,0,0,0-3.189,2.982c-.549.781-.978,1.64-1.507,2.434a9.376,9.376,0,0,1-3.319,2.889,7.924,7.924,0,0,0-3.861,7.424c.159,2.967.99,5.729,4.161,6.5,3.148.766,5.994-1.1,8.127-3.235a15.043,15.043,0,0,0,3.165-4.309c.874-1.933,1.2-3.811,2.773-5.37,2.441-2.413,5.6-3.773,6.816-7.209.865-2.438.977-4.915,2.795-6.934,1.14-1.266,2.558-2.265,3.593-3.629.539-.711,1.588-2.2,1.09-3.178" transform="translate(-20.879 -10.928)" fill="#e95a73"/>
        <path id="Path_182427" data-name="Path 182427" d="M150.948,62.089a.438.438,0,0,0,.19-.36c.094-3.21-1.82-4.7-4.238-6.385a12.29,12.29,0,0,1-3.768-4.769,8.29,8.29,0,0,0-2.323-2.939,11.986,11.986,0,0,0-4.166-1.5c-2.44-.617-3.441-1.941-4.976-3.8-2.044-2.47-5.736-3.615-8.8-4.019a13.569,13.569,0,0,0-9.409,2.024c-1.9,1.3-3.969,3.387-3.066,5.87.933,2.563,4,3.77,6.511,3.938,2.409.161,5.035-.737,6.987,1.183a31.35,31.35,0,0,0,3.5,3.532,9.25,9.25,0,0,0,4.266,1.825c2.622.288,4.937-.9,7.125,1.229a6.1,6.1,0,0,0,3.364,2.115c3.141.536,5.906-.7,8.024,2.584.33.51,1.15.036.818-.478-.012-.018-.026-.033-.037-.051" transform="translate(-18.881 -6.543)" fill="#e95a73"/>
        <path id="Path_182428" data-name="Path 182428" d="M184.409,39.035a44.373,44.373,0,0,0-7.047-3.769,66.7,66.7,0,0,0-9.054-3.1,17.883,17.883,0,0,1-1.7,2.557,36.553,36.553,0,0,1-3.353,2.794,8.627,8.627,0,0,0-2.85,6.119c-.114,2.273-.133,3.968-1.24,6.061-.6,1.146-1.374,2.2-1.866,3.4a6.955,6.955,0,0,0-.568,3.571c-.389.066-.625.635-.189.862,1.07.568.729,2.188,2.111,2.548l.143.028a2.554,2.554,0,0,0,2.292-1.052c.085-.094.161-.189.237-.284.871-1.08,1.42-2.348,2.4-3.362a16.062,16.062,0,0,1,3.107-2.245,8.383,8.383,0,0,0,3.229-3.789c1.2-2.482,2.719-4.186,5.56-4.641,1.913-.312,3.968-.009,5.815-.71,2.027-.758,3.012-2.832,5.1-3.5-.691-.521-1.4-1.023-2.121-1.5" transform="translate(-26.786 -5.513)" fill="#e95a73"/>
        <path id="Path_182429" data-name="Path 182429" d="M195.47,61.423c-1.225-2.6-5.093-3.767-7.656-4.374a19.866,19.866,0,0,0-9.933.066c-2.106.613-3.974,2.705-6.156,2.835-1.854.109-3.638-.816-5.54-.664a9.949,9.949,0,0,0-3.8,1.1.46.46,0,0,0-.672-.274c-1.171.665-4.011,2.355-3.079,4.171.424.829,1.256.765,2.065.671,2.02-.234,3.477-1.441,5.62-.825,3.263.938,5.7,3.6,9.291,3.061,1.853-.276,3.643-1.1,5.542-1.032,2.028.075,3.832,1.218,5.68,1.922,2.411.917,4.971.984,7.031-.776a5.126,5.126,0,0,0,1.607-5.882" transform="translate(-27.153 -9.674)" fill="#e95a73"/>
        <path id="Path_182430" data-name="Path 182430" d="M179.82,79.832c-1.373-2.86-3.078-5.74-6.061-7.16-2.274-1.08-4.016-1.193-5.38-3.59a9.717,9.717,0,0,0-3.286-3.666,6.513,6.513,0,0,0-3.628-1.052,3.6,3.6,0,0,0-1.146.237c.047-.284.114-.578.19-.871a.472.472,0,0,0-.909-.256,9.727,9.727,0,0,0-.3,1.8,1.559,1.559,0,0,0-.123.142,3.59,3.59,0,0,0-.645,1.052c-.18.483.436.729.767.455a8.508,8.508,0,0,0,2.008,4.821c1.137,1.307,2.709,2.083,3.931,3.3,1.922,1.894,2.112,4.149,2.927,6.545a7.161,7.161,0,0,0,2.481,3.305c2,1.7,2.217,3.438,2.785,5.834a6.261,6.261,0,0,0,2.425,3.789c.208-.162.426-.313.644-.464,1.392-1,2.85-1.97,4.329-2.946,1.79-1.184,3.608-2.377,5.351-3.656.815-.588,1.61-1.2,2.386-1.838-2.5-2.614-7.066-2.3-8.742-5.777" transform="translate(-27.161 -10.82)" fill="#e95a73"/>
        <path id="Path_182431" data-name="Path 182431" d="M116.692,114.346c-.606.066-1.2.152-1.809.237-5.191.729-10.352,1.98-15.438,3.126-.057.009-.1.028-.162.038-11.9,2.652-25.014,4.565-36.209-1.582-8.866-4.859-15.628-13.639-16.584-23.868a37.228,37.228,0,0,1,4.3-20.506,46.176,46.176,0,0,1,4.291-6.762c.237-.019.483-.038.72-.047a10.051,10.051,0,0,1,7.406,2.264c1.838,1.648,2.557,3.789,3.59,5.939.947,1.951,2.567,1.591,4.4,1.828a24.807,24.807,0,0,1,5.437,1.345c2.4.89,4.954,2.112,6.516,4.224a10.362,10.362,0,0,1,1.762,6.487c4.063-1.7,9.282-1.629,12.416.881,3.116,2.5,4.064,6.166,3.656,9.8A12.676,12.676,0,0,1,114.022,104a19.418,19.418,0,0,1,2.671,10.343" transform="translate(-7.943 -11.133)" fill="#52a1a1"/>
        <path id="Path_182432" data-name="Path 182432" d="M69.229,88a1.042,1.042,0,0,0-.185-.136,1.78,1.78,0,0,0-.754-.183,7.509,7.509,0,0,0-2.759.307,10.481,10.481,0,0,0,1.2-2.727,2.254,2.254,0,0,0-.035-1.719,1.7,1.7,0,0,0-2.19-.466,12.291,12.291,0,0,0-2.174,1.98s.393-1.956-.178-2.551a1.3,1.3,0,0,0-1.1-.38c-.994.142-1.6,1.5-1.988,2.291a19.468,19.468,0,0,0-1.229,3.309,8.142,8.142,0,0,0-.412,3.4c.612,4.109,5.343,2.43,7.835,1.394A15.565,15.565,0,0,0,67.7,91.292a3.793,3.793,0,0,0,1.869-2,1.378,1.378,0,0,0-.344-1.3" transform="translate(-9.832 -14.071)" fill="#fff"/>
        <path id="Path_182433" data-name="Path 182433" d="M76.2,107.65a1.009,1.009,0,0,0-.184.137,1.8,1.8,0,0,0-.4.667,7.537,7.537,0,0,0-.513,2.73,10.443,10.443,0,0,0-2.256-1.946,2.253,2.253,0,0,0-1.655-.47,1.7,1.7,0,0,0-1.085,1.959,12.291,12.291,0,0,0,1.258,2.657s-1.756-.947-2.492-.575a1.3,1.3,0,0,0-.686.941c-.156.993.969,1.966,1.609,2.571a19.4,19.4,0,0,0,2.8,2.142,8.137,8.137,0,0,0,3.129,1.388c4.109.617,3.887-4.4,3.624-7.085a15.586,15.586,0,0,0-.452-2.693,3.793,3.793,0,0,0-1.366-2.372,1.377,1.377,0,0,0-1.341-.051" transform="translate(-11.684 -18.422)" fill="#fff"/>
        <path id="Path_182434" data-name="Path 182434" d="M103.433,106.368a1.01,1.01,0,0,0-.23,0,1.78,1.78,0,0,0-.722.284,7.547,7.547,0,0,0-2.08,1.84,10.469,10.469,0,0,0-.587-2.921A2.253,2.253,0,0,0,98.8,104.18a1.7,1.7,0,0,0-2.058.881,12.277,12.277,0,0,0-.637,2.87s-.8-1.825-1.614-1.984a1.3,1.3,0,0,0-1.119.323c-.732.688-.442,2.146-.307,3.017a19.373,19.373,0,0,0,.9,3.413,8.13,8.13,0,0,0,1.619,3.015c2.865,3.009,5.768-1.088,7.208-3.37a15.527,15.527,0,0,0,1.3-2.4,3.792,3.792,0,0,0,.377-2.71,1.375,1.375,0,0,0-1.028-.863" transform="translate(-15.918 -17.834)" fill="#fff"/>
        <path id="Path_182435" data-name="Path 182435" d="M149.768,167.033s-22.608,10.769-32.553,19.18q-3.126,2.643-6.024,5.55c-4.442,4.4-8.571,9.121-12.682,13.856-2.576,2.956-5.142,5.911-7.785,8.79-1.336,1.458-2.7,2.9-4.083,4.3-1.847,1.884-3.75,3.7-5.73,5.456-1.875,1.647-3.817,3.239-5.853,4.726-6.393,4.679-14.917,7.151-22.959,5.152a21.164,21.164,0,0,1-11.811-7.8,31.981,31.981,0,0,1-2.245-3.23c-.256-.417-.5-.843-.748-1.279-.417-.748-.815-1.506-1.2-2.283a45.774,45.774,0,0,1-2.406-5.91c-.265-.805-.5-1.61-.729-2.435-.1-.407-.218-.824-.312-1.24a42.873,42.873,0,0,1-1.212-10.087,37.1,37.1,0,0,1,.18-3.713,36.584,36.584,0,0,1,1.468-7.425,32.978,32.978,0,0,1,4.963-9.926c.389-.53.8-1.042,1.222-1.544a29.308,29.308,0,0,1,5.626-5.1,36.7,36.7,0,0,1,10.352-4.982c1.6-.493,3.059-.863,4.4-1.147a35.953,35.953,0,0,1,3.865-.625c4.915-.511,8.325.237,12.578.549,1.032.075,2.1.123,3.258.123.862,0,1.724-.029,2.585-.1q.8-.056,1.592-.17c.369-.057.729-.114,1.1-.181a62.78,62.78,0,0,0,10.3-3.182c1-.379,2.008-.748,3.021-1.1,9.206-3.2,18.668-3.164,26.587,3.173,6.99,5.578,16.963,3.76,25.241,2.6" transform="translate(-5.387 -27.277)" fill="#361524"/>
        <path id="Path_182436" data-name="Path 182436" d="M51.73,182.289a18.453,18.453,0,0,1-3.5-4.727,10.629,10.629,0,0,0-1.714-2.822,29.286,29.286,0,0,0-5.626,5.1c.748.71,1.392,1.6,2,2.292a7.418,7.418,0,0,0,3.382,2.311c1.7.559,3.476.738,5.172,1.326a42.2,42.2,0,0,1,6.061,2.87.475.475,0,0,0,.691-.53c-.483-3.324-4.309-3.855-6.459-5.815" transform="translate(-7.006 -29.945)" fill="#434194"/>
        <path id="Path_182437" data-name="Path 182437" d="M89.361,167q-.8.114-1.591.171c-.862.066-1.724.094-2.586.094-1.155,0-2.226-.047-3.258-.123a20.225,20.225,0,0,1-4.64,3.144,18.642,18.642,0,0,1-2.605,1.468c-1.685.607-1.856-.123-2.974-1.6a38.591,38.591,0,0,1-2.358-3.561,35.5,35.5,0,0,0-3.864.625c.473,1.856-.455,4,.587,5.873a11.659,11.659,0,0,1,1.526,4.925,11.061,11.061,0,0,0,.7,3.457c.54,1.194,1.714,2.444,3.173,2.188a2.013,2.013,0,0,0,1.231-.767,9.126,9.126,0,0,0,.758-1.449,3.62,3.62,0,0,1,2.472-1.7,13.415,13.415,0,0,0,5.683-2.918,49.545,49.545,0,0,0,8.846-10c-.37.066-.729.123-1.1.18" transform="translate(-11.222 -28.548)" fill="#434194"/>
        <path id="Path_182438" data-name="Path 182438" d="M102.858,216.12a7.518,7.518,0,0,1-2.065.54A3.879,3.879,0,0,1,98,216.187a9.145,9.145,0,0,0-2.566-.625,8.834,8.834,0,0,0-4.755.928,1.6,1.6,0,0,1-.256-.947.474.474,0,0,0-.947,0,2.7,2.7,0,0,0,.351,1.525.471.471,0,0,0,.578.625c1.194.9,3.277.834,4.688,1.355,2.738,1.023,2.557,4.556,5.579,4.944,2.643-2.879,5.209-5.834,7.785-8.789a14.676,14.676,0,0,0-5.6.919" transform="translate(-15.333 -36.859)" fill="#434194"/>
        <path id="Path_182439" data-name="Path 182439" d="M80.707,223.218l1.374,9.986H65.288L69,211.922Z" transform="translate(-11.188 -36.316)" fill="#ffa6a6"/>
        <path id="Path_182440" data-name="Path 182440" d="M82.743,237.606c-1.875,1.648-3.817,3.239-5.853,4.727-6.393,4.678-14.917,7.15-22.959,5.152a21.17,21.17,0,0,1-11.811-7.8,25.965,25.965,0,0,1,10.191-2.074Z" transform="translate(-7.218 -40.718)" fill="#e95a73"/>
        <path id="Path_182441" data-name="Path 182441" d="M149.768,167.034s-22.608,10.769-32.553,19.18c-.559.474-1.118.956-1.667,1.449-1.5,1.317-2.946,2.69-4.357,4.1a26.688,26.688,0,0,0-8.373.028c-4.329.881-7.842,3.969-12.228,4.688A18.634,18.634,0,0,1,80.3,194.975s-3.04,1.591-5.72,2.813c-.73.331-1.468.653-2.207.956a49.08,49.08,0,0,1-8.629,2.728c-.909.208-1.828.37-2.765.511-1.525.228-3.069.4-4.205,1.582-.549.578-.853-1.582-1.193-2.018-.066-.094-.143-.1-.218.019a.17.17,0,0,0-.038.047,56.907,56.907,0,0,1-4.537,6.659c-2.121,2.444-4.565,3.391-7.7,4.1-4.129.938-5.834,3.7-7,7.075a45.174,45.174,0,0,1-1.961-4.622c-.151-.426-.3-.852-.445-1.288-.265-.805-.5-1.61-.729-2.435-.1-.407-.218-.824-.312-1.24a42.843,42.843,0,0,1-1.2-10.087h-.009a37.1,37.1,0,0,1,.18-3.713c.038-.426.085-.852.142-1.269a35.77,35.77,0,0,1,1.327-6.157,8.016,8.016,0,0,1,1.183.256c3.155.947,2.918,1.818,6.706,3.239a6.44,6.44,0,0,0,4.4.133,8.3,8.3,0,0,1,5.559.028c.142.047,2.236,1.165,2.236,1.193,2.149-1.061,7.075-4.035,9.367-4.726a42.627,42.627,0,0,1,6.5-1.165c.748-.085,1.5-.162,2.226-.237,3.684-.351,6.9-.5,6.9-.5a29.947,29.947,0,0,1,2.6-3.135,16.151,16.151,0,0,1,6.441-3.126c2.188-.607,4.319-1.638,5.332-3.8,1.25-2.671,1.26-5.938,1.619-8.827.228-1.791.389-3.741.786-5.607,1-.379,2.008-.748,3.021-1.1a36.086,36.086,0,0,1,9.2-2,23.926,23.926,0,0,1,17.39,5.172c6.99,5.578,16.963,3.76,25.241,2.6" transform="translate(-5.387 -27.278)" fill="#5dace1"/>
        <path id="Path_182442" data-name="Path 182442" d="M124.529,164.439a23.925,23.925,0,0,0-17.39-5.172,8.886,8.886,0,0,0-.815,1.989c-.426,1.582-.075,3.324-.815,4.821A8.98,8.98,0,0,1,102.5,169a10.856,10.856,0,0,0-3.912,4.31c-1.127,2.51-1.174,5.428-2.614,7.814-1.875,3.107-5.351,2.709-8.315,3.921-2.359.975-4.452,2.747-6.914,3.476a6.2,6.2,0,0,1-4.234-.275,15.857,15.857,0,0,0-2.245-.719,8.344,8.344,0,0,0-1.544-.085c-.492,0-.975-.085-1.468-.085a11.4,11.4,0,0,0-1.592.114c-.218.028-.426.076-.635.123-2.008.483-3.6,1.714-5.568,2.406a31.868,31.868,0,0,0-6.138,2.415A28.828,28.828,0,0,0,54.83,194.5a6.382,6.382,0,0,1-4.688,1.269,17.81,17.81,0,0,0-5.873.975,11.087,11.087,0,0,1-8.069-.255,33.2,33.2,0,0,0-4.442-1.7c-.057.417-.1.843-.143,1.269a34.57,34.57,0,0,0-.17,3.713,41.917,41.917,0,0,0,.881,8.609c.094.492.208.985.322,1.477.019.094.047.2.066.293.085.322.171.635.246.947.228.824.464,1.629.73,2.435.142.436.293.862.445,1.288.568-.322,1.165-.634,1.781-1.023,2.4-1.544,2.945-4.547,5.02-6.356,1.534-1.335,3.513-1.307,5.389-1.762a10.747,10.747,0,0,0,3.884-1.922,10,10,0,0,1,5.162-2.2,1.774,1.774,0,0,1,.218-.019.126.126,0,0,1,.057-.009c1.8-.123,3.618.019,5.418.019.89-.01,1.79-.029,2.69-.085a19.037,19.037,0,0,0,6-1.184,10.936,10.936,0,0,0,2.633-1.544c1.591-1.222,3.192-2.055,4.935-3.23,3.277-2.2,6.914-1.364,10.513-2.339a24.191,24.191,0,0,0,7.227-3.864c3.41-2.33,6.791-4.367,11.082-4.234a24.487,24.487,0,0,1,9.414,2.586c.549-.493,1.109-.976,1.667-1.449,9.945-8.411,32.553-19.18,32.553-19.18-8.278,1.165-18.251,2.983-25.241-2.6" transform="translate(-5.388 -27.278)" fill="#88cbf7"/>
        <path id="Path_182443" data-name="Path 182443" d="M78.57,217.239a12.666,12.666,0,0,1-2.491.947,12.913,12.913,0,0,1-15.808-9.168l23.612-6.279,1.364-.36a12.918,12.918,0,0,1-6.677,14.861" transform="translate(-10.328 -34.681)" fill="#ffa6a6"/>
        <path id="Path_182444" data-name="Path 182444" d="M85.29,222.382l-10.816,1.25-3.5-10.76,16.11-10.495,2.794,10.533.464,1.752.057.209a6,6,0,0,1-5.105,7.511" transform="translate(-12.162 -34.681)" fill="#ffa6a6"/>
        <path id="Path_182445" data-name="Path 182445" d="M93.644,216.841a5.872,5.872,0,0,1-3.391-.975l2.927-.777Z" transform="translate(-15.466 -36.859)" fill="#fff"/>
        <path id="Path_182446" data-name="Path 182446" d="M90.05,205.729l4.381,3.8a1.073,1.073,0,0,1-.314,1.81l-3.286,1.282Z" transform="translate(-15.432 -35.255)" fill="#ffa6a6"/>
        <path id="Path_182447" data-name="Path 182447" d="M68.048,187.351c-5.446.947-10.261,5.071-10.4,10.885L82.635,191.6c-1.406-4.489-7.555-5.475-14.587-4.252" transform="translate(-9.88 -32.023)" fill="#942f51"/>
        <path id="Path_182448" data-name="Path 182448" d="M75.743,200.732a3.018,3.018,0,0,0-1.811-2.855,3.128,3.128,0,1,0-.689,5.932,3.155,3.155,0,0,0,2.5-3.077" transform="translate(-11.919 -33.866)" fill="#fff"/>
        <path id="Path_182449" data-name="Path 182449" d="M82.286,202.813a6.972,6.972,0,0,1-.985,4.045c-1.3,2.036-3.3,3.552-4.148,5.863a10.181,10.181,0,0,0-.18,4.593,8.046,8.046,0,0,1-.181,3.078c-.634,2.112-2.027,3.656-2.045,5.683l-23.8-.154a2.211,2.211,0,0,1,.162-.246c.757-.948,1.439-1.127,1.98-2.284.653-1.381.1-2.291.227-3.711a7.966,7.966,0,0,1,1.809-3.827c.786-1.127,1.614-1.4,1.555-3.451a6.771,6.771,0,0,1,.493-3.078Z" transform="translate(-8.73 -34.755)" fill="#942f51"/>
        <path id="Path_182450" data-name="Path 182450" d="M424.772,187.576c-17.693,16.8-39.3,19.644-55.512,17.8a71.048,71.048,0,0,1-10.627-2.008,69.634,69.634,0,0,1-18.053-7.691,51.1,51.1,0,0,1-10.4-8.316c-.274-.274-.539-.559-.8-.843-.445-.492-.862-.985-1.259-1.5a29.244,29.244,0,0,1-4.793-8.581,31.553,31.553,0,0,1-1.771-10.239,40.892,40.892,0,0,1,.8-8.43c.094-.511.237-1.07.4-1.666a86.574,86.574,0,0,0,2.377-8.941c.056-.294.094-.6.133-.891.4-3.211-.01-6.175-2.472-7.947-6.5-4.688-21.841-.388-23.12-.028,1.146-.407,2.68-2.358,3.608-3.078a58.714,58.714,0,0,1,9.7-6.128c9.253-4.6,18.232-5.086,27.552-.389a48.569,48.569,0,0,1,9.225,6.5c3.675,3.069,7.275,6.176,11.773,8a21.607,21.607,0,0,0,3.1,1.013,38.765,38.765,0,0,0,5.171.881c7.739.786,15.647-.511,23.395-1.364,1.411-.152,2.813-.293,4.214-.408,8.259-.644,16.849-.189,24.114,3.779a26.554,26.554,0,0,1,4.026,2.69c4.982,4.035,8.771,9.775,9.3,16.282.682,8.42-4.205,15.93-10.078,21.5" transform="translate(-51.354 -21.489)" fill="#e95a73"/>
        <path id="Path_182451" data-name="Path 182451" d="M378.288,213.733a7.341,7.341,0,0,1-.568,2.719,71.01,71.01,0,0,1-10.626-2.009,69.61,69.61,0,0,1-18.053-7.691,18.025,18.025,0,0,1,.464-1.885c.483-1.619,1.279-4.565,3.438-4.5A2.284,2.284,0,0,1,355,201.959c.389,1.336-.436,3.078.578,4.035a1.931,1.931,0,0,0,2.661-.36,5.026,5.026,0,0,0,.985-2.784c.379-3.154.294-6.4,1.3-9.415a6.186,6.186,0,0,1,1.421-2.482,2.892,2.892,0,0,1,2.623-.843,2.968,2.968,0,0,1,1.97,1.913,6.966,6.966,0,0,1,.265,2.832c-.284,3.911-1.733,7.851-.767,11.65a2.553,2.553,0,0,0,4.376,1.676,9.78,9.78,0,0,1,2.6-1.525,3.644,3.644,0,0,1,3.069.682,4.585,4.585,0,0,1,1.288,1.383,8.722,8.722,0,0,1,.919,5.01" transform="translate(-59.814 -32.568)" fill="#434194"/>
        <path id="Path_182452" data-name="Path 182452" d="M411.408,168.773a4.5,4.5,0,0,0-1.156-2.074,2.137,2.137,0,0,0-.607-.389,2.879,2.879,0,0,0-2.4.18,9.1,9.1,0,0,0-1.961,1.487,65.6,65.6,0,0,1-9.112,7.056c-3.892,2.444-8.561,4.386-13.023,3.239a.964.964,0,0,0-.2-.71c-.674-.644-1.308,2.993-1.384,3.438a21.8,21.8,0,0,0-.293,4.831,6.744,6.744,0,0,0,.672,2.964,2.885,2.885,0,0,0,2.435,1.61c1.856-.018,3.419-2.32,5.162-1.657,1.241.464,1.5,2.084,1.477,3.41-.028,3.4-.511,6.971.911,10.068a3.419,3.419,0,0,0,1.3,1.62,2.785,2.785,0,0,0,3.182-.587,5.96,5.96,0,0,0,1.5-3.078c.625-2.775.445-5.692,1.231-8.42.322-1.118,1.222-2.841,2.728-2.377.9.274,1.326,1.345,2.169,1.743a2.23,2.23,0,0,0,2.529-.757,5.541,5.541,0,0,0,.994-2.623,23.5,23.5,0,0,0,.322-3.552,3.434,3.434,0,0,1,.511-2.226,5.827,5.827,0,0,1,1.127-.834c1.6-1.117,2.037-3.267,2.236-5.2a18.769,18.769,0,0,0-.35-7.16" transform="translate(-65.334 -28.468)" fill="#434194"/>
        <path id="Path_182453" data-name="Path 182453" d="M401.936,146.982c-1.4.114-2.8.256-4.214.408a82.071,82.071,0,0,0-7.739,6.743c-3.173,3-14.084,13.459-17.9,6.886-2.207-3.8-.047-8.827,2.245-12.266a38.779,38.779,0,0,1-5.171-.881,21.464,21.464,0,0,1-3.1-1.013,28.387,28.387,0,0,0-2.975,6.98c-1.183,4.243-1.108,8.932-5.446,11.337-6.753,3.751-15.571,2.3-22.958,2.889a29.238,29.238,0,0,0-8.591,1.79,30,30,0,0,0,6.564,18.82c3.988-5.21,10.249-8.648,16.727-10.031a53.984,53.984,0,0,1,17.105-.436c5.162.568,10.722,2.349,15.94,1.563,4.376-.663,7.577-3.817,10.731-6.668,3.865-3.485,7.587-7.122,11.574-10.466a63.365,63.365,0,0,1,21.32-11.877c-7.265-3.969-15.855-4.423-24.114-3.779" transform="translate(-55.881 -25.147)" fill="#ffc29e"/>
        <path id="Path_182454" data-name="Path 182454" d="M349.759,135.2a58.69,58.69,0,0,0-7.331-5.456c-.616-.369-1.24-.719-1.894-1.042a27.985,27.985,0,0,0-21.576-2.008,38.137,38.137,0,0,0-5.976,2.4,58.716,58.716,0,0,0-9.7,6.128c-.928.72-2.463,2.671-3.609,3.078.919-.256,9.169-2.567,16.121-2.084a13.754,13.754,0,0,1,7,2.112c2.037,1.468,2.672,3.75,2.6,6.318-.094,3.8-1.743,8.2-2.633,11.46a24.815,24.815,0,0,1,2.329-1.193,25.317,25.317,0,0,1,8.525-2.169c2.993-.218,6.071.085,8.9-1.109,6.706-2.85,8.571-9.963,7.246-16.433" transform="translate(-51.354 -21.49)" fill="#ffc29e"/>
        <path id="Path_182455" data-name="Path 182455" d="M341.082,160.479a2.585,2.585,0,0,0-1.5-1.317,11.984,11.984,0,0,0-3.324-.919,17.947,17.947,0,0,1-2.681-.351,3.148,3.148,0,0,1-2.112-1.544c-.558-1.193.01-2.727-.7-3.826a2.178,2.178,0,0,0-1.109-.863,86.593,86.593,0,0,1-2.377,8.942c-.161.6-.3,1.155-.4,1.666a40.951,40.951,0,0,0-.8,8.43,31.575,31.575,0,0,0,1.771,10.239,29.244,29.244,0,0,0,4.793,8.581c.4.511.815,1,1.259,1.5.256.284.521.568.8.843.066-.274.114-.559.171-.834.493-2.529,1.013-5.863-.056-8.363-.427-.994-1.09-2.046-.758-3.068.483-1.487,2.738-1.847,3.116-3.363a2.4,2.4,0,0,0-1.582-2.538,16.049,16.049,0,0,0-3.164-.682,3.385,3.385,0,0,1-2.576-1.762,2.68,2.68,0,0,1,.5-2.567,3.644,3.644,0,0,1,.492-.52,7.22,7.22,0,0,1,1.705-1.071c2.88-1.364,6.421-2.017,8.126-4.717a2.258,2.258,0,0,0,.4-1.894" transform="translate(-55.88 -25.99)" fill="#434194"/>
        <path id="Path_182456" data-name="Path 182456" d="M449.135,168.989a5.712,5.712,0,0,0-.217-1.291,11.872,11.872,0,0,0-2.5-5.422,1.7,1.7,0,0,0-.893-.571c-2.068-.353.412,6.737.81,7.639.276.626.7,1.317,1.375,1.384a1.4,1.4,0,0,0,1.356-1.131,2.352,2.352,0,0,0,.065-.608" transform="translate(-76.209 -27.709)" fill="#fff"/>
        <path id="Path_182457" data-name="Path 182457" d="M445.933,179.044a1.986,1.986,0,0,0-.783-1.092c-2.212-1.218-1.124,7.309-1.157,8.246a6.085,6.085,0,0,0,.062,1.763,1.523,1.523,0,0,0,1.168,1.19,1.477,1.477,0,0,0,1.414-.94,4.289,4.289,0,0,0,.249-1.787,20.75,20.75,0,0,0-.954-7.379" transform="translate(-76.045 -30.475)" fill="#fff"/>
        <path id="Path_182458" data-name="Path 182458" d="M435.933,173.157c-.039-.085-.079-.168-.119-.252a1.819,1.819,0,0,0-.749-.9c-2.113-1.023-.7,6.611-.538,7.459a3.821,3.821,0,0,0,.536,1.535,1.306,1.306,0,0,0,1.42.559c.752-.27.856-1.278.805-2.075a17.8,17.8,0,0,0-1.356-6.324" transform="translate(-74.358 -29.46)" fill="#fff"/>
        <path id="Path_182459" data-name="Path 182459" d="M432.245,193.113a2.264,2.264,0,0,0-.2-.9,1.217,1.217,0,0,0-1.478-.691,1.627,1.627,0,0,0-.674.714c-1.284,2.181-1.472,4.92-1.538,7.394a1.8,1.8,0,0,0,.321,1.308,1.249,1.249,0,0,0,1.68-.079,3.374,3.374,0,0,0,.837-1.637,30.943,30.943,0,0,0,1.012-5.232,6.067,6.067,0,0,0,.044-.876" transform="translate(-73.405 -32.807)" fill="#fff"/>
        <path id="Path_182460" data-name="Path 182460" d="M343.437,133.973a4.262,4.262,0,1,0-4.263,4.262,4.262,4.262,0,0,0,4.263-4.262" transform="translate(-57.393 -22.228)" fill="#361524"/>
        <path id="Path_182461" data-name="Path 182461" d="M427.775,161.069a4.262,4.262,0,1,0-4.262,4.262,4.262,4.262,0,0,0,4.262-4.262" transform="translate(-71.846 -26.871)" fill="#361524"/>
        <path id="Path_182462" data-name="Path 182462" d="M342.091,146.848a2.565,2.565,0,1,0-2.565,2.565,2.565,2.565,0,0,0,2.565-2.565" transform="translate(-57.744 -24.725)" fill="#361524"/>
        <path id="Path_182463" data-name="Path 182463" d="M361.38,151.539a2.565,2.565,0,1,0-2.565,2.565,2.565,2.565,0,0,0,2.565-2.565" transform="translate(-61.049 -25.529)" fill="#361524"/>
        <path id="Path_182464" data-name="Path 182464" d="M358.076,184.27a2.565,2.565,0,1,0-2.565,2.565,2.565,2.565,0,0,0,2.565-2.565" transform="translate(-60.483 -31.138)" fill="#361524"/>
        <path id="Path_182465" data-name="Path 182465" d="M405.291,164.761a2.565,2.565,0,1,0-2.565,2.565,2.565,2.565,0,0,0,2.565-2.565" transform="translate(-68.574 -27.795)" fill="#361524"/>
        <path id="Path_182466" data-name="Path 182466" d="M206.885,217.959l-.859-.4a24.116,24.116,0,0,1,5.071-7.086c2.081-1.787,4.625-3.547,4.65-3.565l.538.78c-.025.017-2.53,1.75-4.571,3.5a23.633,23.633,0,0,0-4.829,6.766" transform="translate(-35.306 -35.457)" fill="#361524"/>
      </g>
    </g>
  </g>
</svg>
