<svg xmlns="http://www.w3.org/2000/svg" xmlns:xlink="http://www.w3.org/1999/xlink" width="155" height="110" viewBox="0 0 155 110">
  <defs>
    <clipPath id="clip-path">
      <rect id="Rectangle_45257" data-name="Rectangle 45257" width="94.601" height="77.989" fill="none"/>
    </clipPath>
  </defs>
  <g id="_10" data-name="10" transform="translate(745 10269)">
    <g id="Group_174615" data-name="Group 174615" transform="translate(-1443 -14743.297)">
      <g id="Group_165391" data-name="Group 165391" transform="translate(698 4474.297)">
        <rect id="Rectangle_40797" data-name="Rectangle 40797" width="155" height="110" fill="#ffe891"/>
      </g>
    </g>
    <g id="Group_174934" data-name="Group 174934" transform="translate(-715 -10253)">
      <g id="Group_174933" data-name="Group 174933" clip-path="url(#clip-path)">
        <path id="Path_182586" data-name="Path 182586" d="M132.671,77.294a3.983,3.983,0,0,1,1.6,4.1c-.077.365.131.6.3.873a11.22,11.22,0,0,1-9.923,17.263,5.213,5.213,0,0,1-1.98-.291,6.117,6.117,0,0,0-4.22.024A15.163,15.163,0,0,1,99.824,86.234a1.514,1.514,0,0,1-.03-.286c.088-1.049-.321-1.463-1.435-1.646a3.846,3.846,0,0,1,.718-7.569c.2-.016.614.217.563-.235-.056-.491-.457-.18-.681-.15-.473.062-.931.224-1.4.306a1.125,1.125,0,0,1-1.463-.886,1.052,1.052,0,0,1,1-1.355c.955-.078,1.05-.554,1.055-1.373a73.293,73.293,0,0,1,.147-8.057,17.812,17.812,0,0,1,35.081-1.3,21.661,21.661,0,0,1,.385,4.773c0,2.4-.008,4.8.012,7.2.007.782-.181,1.4-1.106,1.64" transform="translate(-41.814 -21.716)"/>
        <path id="Path_182587" data-name="Path 182587" d="M34.839,76.345a9.626,9.626,0,0,1,2.007.366,3.893,3.893,0,0,1,2.3,3.865,3.752,3.752,0,0,1-3.071,3.472c-.925.13-1.105.488-1.2,1.347-.789,7.186-5.415,12.314-12.318,13.75A15.252,15.252,0,0,1,4.6,86.032c-.01-.1-.03-.19-.031-.286-.012-.969-.157-1.614-1.443-1.756A3.678,3.678,0,0,1,.235,80.474,3.743,3.743,0,0,1,2.658,76.7c.763-.259.63-.565.4-1.085A35.217,35.217,0,0,1,.108,65.841a9.266,9.266,0,0,1,.46-4.72,4.312,4.312,0,0,1,2.114-2.388,4.59,4.59,0,0,0,1.564-1.34,11.87,11.87,0,0,1,10.566-4.516,1.858,1.858,0,0,0,1.014-.159,6.747,6.747,0,0,1,5.927-.135,1.231,1.231,0,0,0,1,.021,6.95,6.95,0,0,1,7.94,1.968A7.228,7.228,0,0,0,33.56,56.66a5.034,5.034,0,0,1,3.3,4.752c.034.545.171.74.695.886a3.871,3.871,0,0,1,2.678,5.26c-1.116,3.293-2.524,6.406-5.4,8.785" transform="translate(0 -22.763)"/>
        <path id="Path_182588" data-name="Path 182588" d="M68.967,0q7.058,0,14.115,0a5.058,5.058,0,0,1,5.327,5.286q.017,7.633,0,15.266A5.012,5.012,0,0,1,83.2,25.749c-4.608.011-9.217.022-13.826-.015-.82-.007-1.1.151-1.157,1.058A9.854,9.854,0,0,1,61.86,35.72c-.556.244-1.149.484-1.721.03s-.413-1.094-.3-1.687a13.9,13.9,0,0,0,.139-5.147c-.411-2.193-1.541-3.145-3.749-3.168a11.222,11.222,0,0,1-2.864-.167A4.982,4.982,0,0,1,49.6,20.818c-.024-5.28-.034-10.561,0-15.842A5,5,0,0,1,54.66.009C59.429-.009,64.2,0,68.967,0" transform="translate(-21.719 0)"/>
        <path id="Path_182589" data-name="Path 182589" d="M98.785,51.208c-1.441,0-2.882.007-4.322,0-.955-.007-1.446-.409-1.446-1.151s.491-1.147,1.446-1.15c2.882-.007,5.763,0,8.644-.008.788,0,1.317.3,1.409,1.11.08.7-.511,1.19-1.408,1.2-1.441.012-2.882,0-4.322,0" transform="translate(-40.747 -21.42)"/>
        <path id="Path_182590" data-name="Path 182590" d="M86.625,51.212c-1.025,0-1.552-.378-1.565-1.132s.507-1.171,1.522-1.174c1,0,1.569.4,1.585,1.131s-.556,1.172-1.541,1.176" transform="translate(-37.261 -21.423)" fill="#294369"/>
        <path id="Path_182591" data-name="Path 182591" d="M107.046,94.7c0-1.792.021-3.3-.012-4.8a.742.742,0,0,1,.616-.876A37.264,37.264,0,0,0,122.534,81c.614-.562.726-.019.952.316,2.049,3.029,4.42,5.8,7.724,7.44a2.826,2.826,0,0,1,1.8,3.21c-.183,2.709.182,5.44-.2,8.146a12.967,12.967,0,0,1-25.38,1.182c-.566-2.276-.311-4.582-.387-6.589" transform="translate(-46.887 -35.376)" fill="#fed7b6"/>
        <path id="Path_182592" data-name="Path 182592" d="M135.269,76.49A15.521,15.521,0,0,1,128.04,72.7a23.466,23.466,0,0,1-4.248-5.164.782.782,0,0,1,.088-1.079,23.315,23.315,0,0,0,3.39-5.647,1.305,1.305,0,0,0-.538-1.858c-.607-.285-1.236.077-1.6.964a20.994,20.994,0,0,1-5.539,7.728,33.346,33.346,0,0,1-10.512,6.192q-2.013.773-4.081,1.38c-.591.172-.71,0-.7-.559.028-1.5.024-3.01,0-4.515-.007-.465.144-.647.615-.766,1.236-.312,2.454-.7,3.668-1.086.906-.291,1.283-.87,1.022-1.527-.329-.83-.942-.927-1.726-.657-.9.311-1.835.543-2.741.852-.557.19-.718-.007-.611-.519a15.577,15.577,0,0,1,7.305-10.557,15.418,15.418,0,0,1,8.784-2.221c.75.028.894.205.565.892a21.443,21.443,0,0,1-9.038,9.623,5.611,5.611,0,0,0-.828.479c-.5.41-.855.9-.435,1.571a1.113,1.113,0,0,0,1.6.368,22.286,22.286,0,0,0,4.184-2.688,22.538,22.538,0,0,0,6.918-9.151c.186-.452.419-.517.887-.357a15.029,15.029,0,0,1,10.582,12.114c.521,2.718.122,5.491.215,8.237.019.568,0,1.137,0,1.747" transform="translate(-45.691 -23.5)" fill="#6d7485"/>
        <path id="Path_182593" data-name="Path 182593" d="M147.316,124.019c-.393-.093-1.088.254-1.262-.212-.164-.439.556-.666.887-.946a15,15,0,0,0,5.1-8.732,10.439,10.439,0,0,0,.3-1.97c.005-.615.248-.859.807-.927a1.59,1.59,0,0,0,.733-.19c.973-.723,1.331-.151,1.676.692a8.942,8.942,0,0,1-8.244,12.284" transform="translate(-63.97 -48.499)" fill="#4a5160"/>
        <path id="Path_182594" data-name="Path 182594" d="M101.477,103.619a5.3,5.3,0,0,1-.006.669c-.037.294.183.709-.184.854a1.119,1.119,0,0,1-1.059-.293,1.563,1.563,0,0,1-.436-2.048,1.155,1.155,0,0,1,1.327-.7c.619.145.274.678.352,1.037a2.289,2.289,0,0,1,.006.477" transform="translate(-43.623 -44.713)" fill="#ecc396"/>
        <path id="Path_182595" data-name="Path 182595" d="M157.314,103.64a5.454,5.454,0,0,1,.005-.664c.039-.312-.188-.735.311-.877a1.037,1.037,0,0,1,1.037.309,1.614,1.614,0,0,1-.339,2.581c-.746.4-1,.248-1.014-.589,0-.253,0-.506,0-.76" transform="translate(-68.907 -44.708)" fill="#ebc296"/>
        <path id="Path_182596" data-name="Path 182596" d="M19.961,75.756a3.442,3.442,0,0,0,.786-.541c1.1-1.345,2.343-1.309,3.924-.815a10.382,10.382,0,0,0,7.81-.939c.918-.449,1.8-.975,2.72-1.416,3.005-1.441,5.578.246,5.788,3.57.364,5.756.3,11.513.287,17.271a12.976,12.976,0,0,1-10.728,12.589,7.524,7.524,0,0,1-.765.051c-2.07.5-3.567-.627-4.974-1.847A14.092,14.092,0,0,1,19.7,92.484a33.987,33.987,0,0,1,.092-4.583,15.241,15.241,0,0,0,.61-1.4,1.477,1.477,0,0,1,1.461-1.165,1.494,1.494,0,0,1,1.439,1.2,2.763,2.763,0,0,0,.2.538.81.81,0,0,0,.924.518.823.823,0,0,0,.65-.836,3.189,3.189,0,0,0-3.843-3.192c-.448.09-.908.4-1.359-.012a1.814,1.814,0,0,1-.215-1.01q-.019-2.852,0-5.7a1.689,1.689,0,0,1,.307-1.076" transform="translate(-8.606 -31.333)" fill="#fed7b6"/>
        <path id="Path_182597" data-name="Path 182597" d="M19.8,56.992a4.055,4.055,0,0,0,2.382-.5,4.13,4.13,0,0,1,4.131.137,2.05,2.05,0,0,0,2.153.023,4.652,4.652,0,0,1,5.326.87c.415.4.779.846,1.164,1.274a4.51,4.51,0,0,0,2.5,1.614,3.038,3.038,0,0,1,2.139,3.9c-.332,1.222.095,1.82,1.361,1.9A10.24,10.24,0,0,1,42,66.257c.819.137,1.567.986,1.347,1.706a18.16,18.16,0,0,1-2.959,6.363,5.452,5.452,0,0,1-.4-2.119c-.13-1.238-.168-2.487-.2-3.733a6.014,6.014,0,0,0-8.422-5.58,15.789,15.789,0,0,0-2.3,1.181c-3.722,2.233-7.41,1.983-11.083-.116-.333-.19-.669-.376-1-.562a1.084,1.084,0,0,0-1.576.4A1.064,1.064,0,0,0,15.8,65.37c.943.7.971.748-.1,1.32-1.118.6-2.276,1.167-3.616.7a5.289,5.289,0,0,1,2.187-6.224,4.02,4.02,0,0,0,1.366-1.141,13.4,13.4,0,0,1,2.839-2.682,1.361,1.361,0,0,1,1.32-.346" transform="translate(-5.156 -24.534)" fill="#c1684f"/>
        <path id="Path_182598" data-name="Path 182598" d="M16.583,91.143c0,1.629-.037,3.259,0,4.887.142,5.736,2.851,9.9,7.844,12.622.623.34,1.324.044,1.979.17a11.307,11.307,0,0,1-7.4-1.334A12.487,12.487,0,0,1,11.988,96.08c-.09-5.122-.008-10.246-.035-15.37,0-.665.13-.859.838-.808a7.876,7.876,0,0,0,3.8-.849c0,2.32-.008,4.64,0,6.961,0,.3-.1.645.194.89.057.4-.3.527-.509.73A3.726,3.726,0,0,0,15.231,89.3c-.292,1-.012,1.466,1.019,1.688a.543.543,0,0,1,.333.152" transform="translate(-5.233 -34.631)" fill="#e4bca0"/>
        <path id="Path_182599" data-name="Path 182599" d="M16.426,57.651a4.526,4.526,0,0,0-2.3,1.455,9.944,9.944,0,0,0-2.061,2.257.962.962,0,0,1-.486.441c-2.2.809-2.817,2.585-2.865,4.7-.012.512,0,1.024,0,1.536a4.794,4.794,0,0,1-2.462-.684,1.523,1.523,0,0,0-2.008.167c-.519-2.315.139-3.7,2.213-4.711A3.478,3.478,0,0,0,7.6,61.553a9.953,9.953,0,0,1,8.282-4.042,2.062,2.062,0,0,1,.542.14" transform="translate(-1.785 -25.193)" fill="#9f5847"/>
        <path id="Path_182600" data-name="Path 182600" d="M4.354,77.773C5,78.1,5.488,78.371,6,78.6c.394.175.335.5.336.809,0,1.468,0,2.936-.079,4.425a32.38,32.38,0,0,1-1.9-6.058" transform="translate(-1.907 -34.069)" fill="#9e5747"/>
        <path id="Path_182601" data-name="Path 182601" d="M6.4,101.31a2.273,2.273,0,0,1,0,.382c-.062.353.215.881-.2,1.028a1.222,1.222,0,0,1-1.322-.559,1.5,1.5,0,0,1-.156-1.78,1.171,1.171,0,0,1,1.236-.712c.692.1.379.678.438,1.069a3.807,3.807,0,0,1,.005.572" transform="translate(-1.973 -43.655)" fill="#ebc296"/>
        <path id="Path_182602" data-name="Path 182602" d="M62.227,101.252a5.459,5.459,0,0,1,.005-.672c.04-.316-.19-.746.307-.893a1.023,1.023,0,0,1,1.111.383,1.5,1.5,0,0,1,.177,1.938,1.273,1.273,0,0,1-1.351.718c-.507-.133-.162-.717-.244-1.091a1.815,1.815,0,0,1,0-.383" transform="translate(-27.244 -43.65)" fill="#ebc296"/>
        <path id="Path_182603" data-name="Path 182603" d="M64.217,34.437a15.657,15.657,0,0,0-.31-4.724,5.481,5.481,0,0,0-5.678-4.466c-.608-.005-1.218.019-1.825-.007a2.685,2.685,0,0,1-2.69-2.7q-.04-7.828,0-15.657a2.7,2.7,0,0,1,2.82-2.77q14.265-.014,28.53,0a2.7,2.7,0,0,1,2.827,2.764q.048,7.828,0,15.656a2.692,2.692,0,0,1-2.967,2.709q-7.4.013-14.793,0c-1.757,0-2.38.6-2.37,2.36a7.971,7.971,0,0,1-2.709,6.406,5.84,5.84,0,0,1-.533.4c-.042.029-.117.011-.305.022" transform="translate(-23.521 -1.799)" fill="#f2cd7d"/>
        <path id="Path_182604" data-name="Path 182604" d="M126.049,119.239a7.039,7.039,0,0,1-4.6-1.816c-.573-.52-.821-1.105-.285-1.747s1.135-.521,1.759-.026c2.175,1.725,4.11,1.72,6.319-.012.63-.494,1.228-.588,1.757.052a1.122,1.122,0,0,1-.242,1.683,7,7,0,0,1-4.707,1.866" transform="translate(-52.947 -50.481)"/>
        <path id="Path_182605" data-name="Path 182605" d="M115.839,94.728a3.566,3.566,0,0,1,3.523,3.349c.023.746-.253,1.278-1.023,1.358a1.083,1.083,0,0,1-1.246-1.049c-.111-.8-.471-1.351-1.324-1.336a1.225,1.225,0,0,0-1.24,1.219c-.095.805-.515,1.235-1.327,1.154-.707-.07-1.086-.754-.955-1.606a3.62,3.62,0,0,1,3.592-3.09" transform="translate(-49.16 -41.497)"/>
        <path id="Path_182606" data-name="Path 182606" d="M138.911,94.759A3.639,3.639,0,0,1,142.472,98c.067.729-.2,1.3-.956,1.423a1.06,1.06,0,0,1-1.321-1.036c-.1-.754-.47-1.292-1.263-1.315s-1.2.474-1.308,1.246c-.1.731-.509,1.213-1.279,1.123-.832-.1-1.05-.7-.995-1.471a3.581,3.581,0,0,1,3.561-3.215" transform="translate(-59.288 -41.51)"/>
        <path id="Path_182607" data-name="Path 182607" d="M31.018,116.834A7.024,7.024,0,0,1,26.394,115c-.578-.533-.766-1.133-.223-1.757.516-.593,1.1-.473,1.693-.017,2.25,1.731,4.117,1.737,6.324.013.628-.49,1.231-.6,1.761.049a1.122,1.122,0,0,1-.241,1.683,7.014,7.014,0,0,1-4.69,1.859" transform="translate(-11.323 -49.431)"/>
        <path id="Path_182608" data-name="Path 182608" d="M43.862,92.332a3.617,3.617,0,0,1,3.555,3.233,1.208,1.208,0,0,1-1.026,1.466,1.115,1.115,0,0,1-1.268-1.124,1.235,1.235,0,0,0-1.3-1.254,1.2,1.2,0,0,0-1.242,1.2c-.1.76-.492,1.281-1.327,1.167s-1.014-.743-.96-1.494a3.552,3.552,0,0,1,3.567-3.19" transform="translate(-17.647 -40.447)"/>
        <path id="Path_182609" data-name="Path 182609" d="M18.874,97.018c-1.352.2-1.916-.432-1.625-1.762a4.006,4.006,0,0,1,1.82-2.476c2.2-.737,3.958-.166,4.865,1.57a3.183,3.183,0,0,1,.368,1.664,1.122,1.122,0,0,1-2.189.3,5.531,5.531,0,0,1-.129-.561,1.254,1.254,0,0,0-2.476.032,1.8,1.8,0,0,1-.634,1.235" transform="translate(-7.523 -40.506)"/>
        <path id="Path_182610" data-name="Path 182610" d="M92.875,10.947c1.566,0,3.132.009,4.7,0,.8-.006,1.407.222,1.458,1.133.043.751-.463,1.171-1.412,1.173q-4.842.013-9.684,0c-.948,0-1.455-.423-1.411-1.174.053-.911.661-1.138,1.46-1.132,1.63.012,3.26,0,4.891,0" transform="translate(-37.902 -4.794)"/>
        <path id="Path_182611" data-name="Path 182611" d="M92.839,23.169c-1.63,0-3.26.007-4.891,0-.952-.006-1.438-.412-1.434-1.159s.492-1.14,1.45-1.141c3.2-.007,6.393,0,9.589-.007.8,0,1.412.205,1.475,1.117.053.774-.474,1.186-1.491,1.191-1.566.007-3.132,0-4.7,0" transform="translate(-37.899 -9.138)"/>
        <path id="Path_182612" data-name="Path 182612" d="M92.769,30.78c1.6,0,3.2.009,4.794,0,.8-.006,1.409.215,1.464,1.127.047.774-.476,1.18-1.5,1.181q-4.746.008-9.493,0c-1.035,0-1.53-.393-1.519-1.169s.5-1.13,1.556-1.133c1.566-.005,3.132,0,4.7,0" transform="translate(-37.899 -13.482)"/>
        <path id="Path_182613" data-name="Path 182613" d="M72.956,30.778c.671,0,1.344-.025,2.013.007a1.084,1.084,0,0,1,1.171,1.128A1.062,1.062,0,0,1,75,33.068q-2.011.057-4.026,0A1.069,1.069,0,0,1,69.847,31.9a1.1,1.1,0,0,1,1.191-1.115c.638-.021,1.278,0,1.917,0" transform="translate(-30.597 -13.479)"/>
        <path id="Path_182614" data-name="Path 182614" d="M73,23.169H71.175c-.793,0-1.332-.369-1.32-1.18.01-.755.527-1.122,1.279-1.124,1.246,0,2.492-.008,3.739,0,.74.006,1.259.348,1.267,1.128.007.836-.542,1.166-1.322,1.172-.607.005-1.214,0-1.821,0" transform="translate(-30.601 -9.138)"/>
        <path id="Path_182615" data-name="Path 182615" d="M72.955,13.249c-.607,0-1.214,0-1.821,0-.751,0-1.263-.368-1.281-1.124a1.094,1.094,0,0,1,1.224-1.175c1.278-.017,2.556-.019,3.834,0,.743.012,1.241.385,1.228,1.165s-.527,1.117-1.266,1.131c-.639.012-1.278,0-1.917,0" transform="translate(-30.6 -4.791)"/>
        <path id="Path_182616" data-name="Path 182616" d="M60.947,10.949c.881.008,1.441.475,1.421,1.183s-.583,1.131-1.481,1.123c-.916-.007-1.415-.43-1.4-1.184.017-.738.528-1.132,1.458-1.123" transform="translate(-26.06 -4.796)" fill="#2a4368"/>
        <path id="Path_182617" data-name="Path 182617" d="M60.935,30.781c.884.005,1.445.464,1.433,1.172s-.562,1.14-1.469,1.135-1.42-.42-1.409-1.172.518-1.141,1.445-1.135" transform="translate(-26.06 -13.484)" fill="#2a4368"/>
        <path id="Path_182618" data-name="Path 182618" d="M60.872,23.172c-.91-.011-1.409-.443-1.382-1.2.026-.734.539-1.121,1.472-1.108.874.012,1.436.491,1.406,1.2s-.6,1.119-1.5,1.109" transform="translate(-26.06 -9.14)" fill="#2a4368"/>
      </g>
    </g>
  </g>
</svg>
