<svg xmlns="http://www.w3.org/2000/svg" xmlns:xlink="http://www.w3.org/1999/xlink" width="505" height="242.183" viewBox="0 0 505 242.183">
  <defs>
    <clipPath id="clip-path">
      <rect id="Rectangle_45319" data-name="Rectangle 45319" width="505" height="242" rx="16" transform="translate(338 3178)" fill="#c4d1ff"/>
    </clipPath>
    <clipPath id="clip-path-2">
      <rect id="Rectangle_37565" data-name="Rectangle 37565" width="328.377" height="234.683" fill="none"/>
    </clipPath>
    <clipPath id="clip-path-4">
      <rect id="Rectangle_37562" data-name="Rectangle 37562" width="5.886" height="3.816" fill="none"/>
    </clipPath>
    <clipPath id="clip-path-5">
      <rect id="Rectangle_37563" data-name="Rectangle 37563" width="5.455" height="3.608" fill="none"/>
    </clipPath>
  </defs>
  <g id="_10" data-name="10" transform="translate(-338 -3178)">
    <rect id="Rectangle_45198" data-name="Rectangle 45198" width="505" height="209" rx="16" transform="translate(338 3211)" fill="#c4d1ff"/>
    <g id="Mask_Group_303" data-name="Mask Group 303" clip-path="url(#clip-path)">
      <g id="Group_175096" data-name="Group 175096" transform="translate(54.338 52.505)">
        <circle id="Ellipse_4876" data-name="Ellipse 4876" cx="104.5" cy="104.5" r="104.5" transform="translate(258.662 3225.995)" fill="#6984dd"/>
        <circle id="Ellipse_4878" data-name="Ellipse 4878" cx="104.5" cy="104.5" r="104.5" transform="translate(656.662 3193.995)" fill="#6984dd"/>
        <circle id="Ellipse_4877" data-name="Ellipse 4877" cx="133.5" cy="133.5" r="133.5" transform="translate(428.662 3201.995)" fill="#6984dd"/>
      </g>
    </g>
    <g id="Group_175094" data-name="Group 175094" transform="translate(8644 7429.5)">
      <g id="Group_158028" data-name="Group 158028" transform="translate(-8218 -4244)">
        <g id="Group_158027" data-name="Group 158027" clip-path="url(#clip-path-2)">
          <g id="Group_158026" data-name="Group 158026">
            <g id="Group_158025" data-name="Group 158025" clip-path="url(#clip-path-2)">
              <path id="Path_131493" data-name="Path 131493" d="M176.461,202.04h68.033a3.079,3.079,0,0,0,.761-1.138c6.246-17.866,1.02-36.734,1.02-36.734-28.5,9.9-53,8.876-75.094,1.681,0,0-1.428,24.251,2.207,33.515a5.945,5.945,0,0,0,3.074,2.676" transform="translate(31.757 32.643)" fill="#19251f"/>
              <path id="Path_131494" data-name="Path 131494" d="M207.612,167.014c.025.445.052.9.079,1.365.532,9.4,1.234,22.714,1.117,25.888a1.868,1.868,0,0,1-.768,1.592,5.579,5.579,0,0,1-3.434.583,16.771,16.771,0,0,1-1.671-.21,18.975,18.975,0,0,1-2.37-.569.822.822,0,0,0-1.035.539.835.835,0,0,0,.535,1.047,20.863,20.863,0,0,0,3.014.7,16.131,16.131,0,0,0,1.671.175,11.273,11.273,0,0,0,1.572-.029,5.471,5.471,0,0,0,2.666-.874,3.548,3.548,0,0,0,1.468-2.893c.122-3.274-.579-16.608-1.117-26.033-.027-.5-.055-.979-.082-1.455Z" transform="translate(37.069 33.174)" fill="#5b413c"/>
              <path id="Path_131495" data-name="Path 131495" d="M240.228,184.967s6.252.33,8.084-2.588,2.164-10.436-7.216-10.661-.868,13.25-.868,13.25" transform="translate(43.982 34.143)" fill="#32251d"/>
              <path id="Path_131496" data-name="Path 131496" d="M196,83.838a48.3,48.3,0,0,1-18.647,4.347c-10.434.224-8.436,6.4-8.436,6.4s12.322,56.547,13.465,71.475-5.252,25.949-4.586,26.328,76.366-2.314,81.694,1.951.06,8.916-5.993,9.365c0,0,9.768,1.392,10.656-5.108s-6.635-11.354-11.3-22.66-17.114-67.1-17.114-67.1-6.881-30.522-13.1-31.869S204.436,86,196,83.838" transform="translate(31.36 15.279)" fill="#cb4a00"/>
              <path id="Path_131497" data-name="Path 131497" d="M182.377,90.673a6.751,6.751,0,0,0,7.9,7.945c3.067-.541,6.044-2.313,8.761-3.768a93.478,93.478,0,0,0,8.973-5.5c.524-.362.028-1.231-.5-.866a92.013,92.013,0,0,1-13.272,7.657c-2.411,1.129-5.451,2.435-8.013.993a5.92,5.92,0,0,1-2.89-6.2c.121-.631-.835-.9-.956-.266" transform="translate(33.865 17.577)" fill="#861900"/>
              <path id="Path_131498" data-name="Path 131498" d="M176.382,168.168c15.058-9.561,33.531-.03,49.806-2.681.628-.1.362-1.069-.263-.967-16.435,2.678-34.793-6.9-50.043,2.783-.54.342-.043,1.21.5.866" transform="translate(32.639 32.383)" fill="#861900"/>
              <path id="Path_131499" data-name="Path 131499" d="M220.774,109.142c8.549,19.858,5.712,42.647,14.639,62.4a45.287,45.287,0,0,0,8.9,13.218c.452.458,1.153-.251.7-.708-14.957-15.192-14.58-38.231-18.269-57.894a82.574,82.574,0,0,0-5.114-17.525c-.254-.59-1.109-.08-.856.506" transform="translate(41.016 21.549)" fill="#861900"/>
              <path id="Path_131500" data-name="Path 131500" d="M184.05,36.768s-5.056,5.3-5.864,9.743a18.271,18.271,0,0,0,.831,8.717s10.095-12.008,5.033-18.46" transform="translate(33.069 7.311)" fill="#32251d"/>
              <path id="Path_131501" data-name="Path 131501" d="M182.785,42.766a12.377,12.377,0,0,1-4.8-10.947c.419-7.535,14.824.223,14.824.223s-1.99-6.461,5.636-6.253,21.564,8.25,23.195,12.225c0,0,4.35-.044,6.049,1.357s-3.607,2.934-3.607,2.934,4.142.709,4.487,3.063-3.946.4-3.946.4,2.967,4.313,1.5,11.138-6.035,14.084-6.035,14.084,2.872,5.03-2.584,7.02-9.6-2.572-9.6-2.572,4.369-26.406-1.39-31.344-23.729-1.331-23.729-1.331" transform="translate(33.069 5.127)" fill="#32251d"/>
              <path id="Path_131502" data-name="Path 131502" d="M210.465,85.811C182.813,108.7,185.68,91.2,185.68,91.2a40.536,40.536,0,0,0,1.346-9.851c.166-4.063.043-8.1-.074-10.557-.07-1.475-.136-2.38-.136-2.38L207.565,61.7l.779,6.491.084.677Z" transform="translate(34.487 12.268)" fill="#ff8763"/>
              <path id="Path_131503" data-name="Path 131503" d="M205.036,65.7a9.437,9.437,0,0,1,1.054,1.964c.611,2.3-8.527,10.311-15.94,12.456a14.519,14.519,0,0,1-3.337.586c.166-4.064.044-8.1-.074-10.558l17.726-5.225Z" transform="translate(34.7 12.909)" fill="#32251d"/>
              <path id="Path_131504" data-name="Path 131504" d="M215.252,70.163c-3.53,4.84-14.123,10.686-21.65,11.486s-12.532.712-15.784-7.882a22.881,22.881,0,0,1-.754-10.965c.231-1.128.483-2.274.754-3.425,1.029-4.383,2.29-8.838,3.395-12.5,4.964-16.422,25.442-22.083,37.638-10.129a21.2,21.2,0,0,1,2.846,3.427c7.579,11.451-2.915,25.147-6.445,29.987" transform="translate(32.837 6.038)" fill="#ff8763"/>
              <path id="Path_131505" data-name="Path 131505" d="M185.849,52.668l-1.562,1.615a7.155,7.155,0,0,0-1.314,1.434c-.6,1.15,1.395,2.124,2.086,2.661.491.38.971-.464.485-.84-.39-.3-.832-.586-1.193-.927a1.157,1.157,0,0,1-.439-.548c.084-.089.17-.176.255-.265a3.276,3.276,0,0,1,.529-.547l1.833-1.9c.433-.448-.247-1.136-.681-.688" transform="translate(33.98 10.443)" fill="#32251d"/>
              <path id="Path_131506" data-name="Path 131506" d="M191.915,54.254c-.28.814-1,1.3-1.6,1.091a1.415,1.415,0,0,1-.588-1.858c.28-.815,1-1.3,1.6-1.091a1.415,1.415,0,0,1,.588,1.858" transform="translate(35.234 10.408)" fill="#32251d"/>
              <path id="Path_131507" data-name="Path 131507" d="M183.515,51.759c-.28.814-1,1.3-1.6,1.091a1.415,1.415,0,0,1-.588-1.858c.28-.814,1-1.3,1.6-1.091a1.416,1.416,0,0,1,.587,1.858" transform="translate(33.673 9.912)" fill="#32251d"/>
              <path id="Path_131508" data-name="Path 131508" d="M180.157,59.118s3.668,2.061,11.237,2.654c0,0-2.8,6.323-8.03,4.454-4.433-1.585-3.206-7.108-3.206-7.108" transform="translate(33.448 11.755)" fill="#fff"/>
              <path id="Path_131509" data-name="Path 131509" d="M180.926,67.217a3.579,3.579,0,0,0,3.767.635c.666-.32.143-1.349-.522-1.03a2.5,2.5,0,0,1-2.618-.572c-.6-.44-1.219.529-.627.966" transform="translate(33.575 13.151)" fill="#ca582f"/>
              <path id="Path_131510" data-name="Path 131510" d="M196.865,59.924c-.293.921-1.946,1.206-3.694.638s-2.925-1.775-2.633-2.7,1.947-1.2,3.694-.637,2.925,1.774,2.633,2.695" transform="translate(35.398 11.321)" fill="#ca582f"/>
              <path id="Path_131511" data-name="Path 131511" d="M180.929,56.243c-.291.921-1.944,1.2-3.693.637.231-1.127.483-2.273.754-3.425.1.03.205.059.306.091,1.749.572,2.927,1.777,2.632,2.7" transform="translate(32.934 10.629)" fill="#ca582f"/>
              <path id="Path_131512" data-name="Path 131512" d="M192.242,49.886c1.387-.076,2.966.675,3.057,2.25.085,1.47,2.373,1.587,2.286.1a4.928,4.928,0,0,0-5.246-4.659c-1.456.079-1.571,2.392-.1,2.311" transform="translate(35.527 9.458)" fill="#32251d"/>
              <path id="Path_131513" data-name="Path 131513" d="M181.436,47.867c1.157-.554,2.691-1.421,3.853-.453,1.042.867,2.421-.73,1.379-1.6-1.851-1.541-3.973-.885-5.926.05-1.21.579-.526,2.586.694,2" transform="translate(33.468 8.927)" fill="#32251d"/>
              <path id="Path_131514" data-name="Path 131514" d="M182.689,41.4a7.587,7.587,0,0,0,9.325,3.574c6.555-2.063,7.035-.854,11.349,1.072s-2.573,1.152,1.97,5.817-1.41,1.693-2.627,6.446,1.69,3.9,5.765,4.355,4.794,5.5,2.338,10.021-1.042,1.857-1.042,1.857a26.066,26.066,0,0,0,13.964-17.5c1.763-7.565,1.553-16.712-6.491-22.8-15.928-12.046-32.762.348-34.552,7.153" transform="translate(33.947 5.805)" fill="#32251d"/>
              <path id="Path_131515" data-name="Path 131515" d="M201.762,61.17a7.851,7.851,0,0,1,2.14-6.457c2.11-2.237,5.864-5.585,8.71-4.637,4.182,1.393,3.995,5.346,2.864,9.2s-4.614,8.525-9.82,6.707a5.638,5.638,0,0,1-3.894-4.81" transform="translate(37.478 9.924)" fill="#ff8763"/>
              <path id="Path_131516" data-name="Path 131516" d="M206.788,60.911a10.036,10.036,0,0,1,1.044-4.8c.747-1.3,2.592-3.061,4.256-2.2.557.289,1.1-.539.537-.831-1.6-.832-3.37-.083-4.584,1.134-1.751,1.756-2.168,4.265-2.234,6.657a.491.491,0,0,0,.982.041" transform="translate(38.243 10.484)" fill="#32251d"/>
              <path id="Path_131517" data-name="Path 131517" d="M227.559,86.936s2.748,13.55,7.076,13.886,5.245-8.921,4.5-13.886Z" transform="translate(42.285 17.286)" fill="#32251d"/>
              <path id="Path_131518" data-name="Path 131518" d="M220.676,86.746s18.744-10.1,25.681-18.236l19.471-47.542,7.991,1.122s-4,49.888-17.537,65.862c-9.561,11.279-30.04,18.984-30.04,18.984Z" transform="translate(41.006 4.169)" fill="#ff8763"/>
              <path id="Path_131519" data-name="Path 131519" d="M242.376,61.641a29.839,29.839,0,0,1,5.025,3.9c.346.334.873-.2.527-.531a30.767,30.767,0,0,0-5.176-4.022c-.41-.254-.784.4-.376.649" transform="translate(45.006 12.116)" fill="#ca582f"/>
              <path id="Path_131520" data-name="Path 131520" d="M279.986,18.661c.275,3.273-2.534,3.816-6.527,7.013-2.623,2.1-6.111,7.135-9.387,5.283a27.478,27.478,0,0,1-5.366-3.937,8.076,8.076,0,0,1-1.756-7.112s1.249-6.059,2.731-6.938,3.585.851,3.585.851c1.427-.589,7.94-13.236,9.989-13.79,0,0,2.338-.523,1.451,2.606s-4.372,9.086-4.372,9.086,7.212-9.52,9.421-9.449c.633.02,1.07.647.87,1.593-.288,1.368-1.7,2.727-2.53,3.842a67.137,67.137,0,0,0-4.039,5.975,4.329,4.329,0,0,1,3.192.246c1.323.839.179,2.667.179,2.667s2.388.042,2.558,2.062" transform="translate(47.702 0)" fill="#ff8763"/>
              <path id="Path_131521" data-name="Path 131521" d="M258.224,22.9a10.275,10.275,0,0,0,5.259,4.123c.453.158.647-.568.2-.725a9.453,9.453,0,0,1-4.816-3.776c-.262-.4-.907-.026-.642.379" transform="translate(47.971 4.444)" fill="#ca582f"/>
              <path id="Path_131522" data-name="Path 131522" d="M264.211,18.756a4.991,4.991,0,0,0,.659.115,1.972,1.972,0,0,0,1.5-.358,1.535,1.535,0,0,0,.518-1.108,3.47,3.47,0,0,0-.291-1.58,4.752,4.752,0,0,0-.318-.661,12.13,12.13,0,0,0-2.832-3.178.313.313,0,0,0-.435.06.316.316,0,0,0,.059.441,11.673,11.673,0,0,1,2.665,2.986,4.082,4.082,0,0,1,.282.583,2.885,2.885,0,0,1,.249,1.3.933.933,0,0,1-.3.671,1.383,1.383,0,0,1-1.041.216,4.366,4.366,0,0,1-.575-.1,11.292,11.292,0,0,1-5.318-3.932.309.309,0,0,0-.438-.052.315.315,0,0,0-.05.441,11.751,11.751,0,0,0,5.658,4.154h0" transform="translate(48.032 2.371)" fill="#ca582f"/>
              <path id="Path_131523" data-name="Path 131523" d="M271.041,22.011a5.048,5.048,0,0,0,2.96-.659.316.316,0,0,0,.128-.426.311.311,0,0,0-.422-.128c-.6.322-2.286,1.019-2.95.379-.944-.909,1.071-3.551,1.852-4.4a.318.318,0,0,0,.006-.42.307.307,0,0,0-.411-.053c-.76.532-2.934,1.74-3.852.946a.63.63,0,0,1-.222-.511c0-1.347,2.549-3.864,3.534-4.72a.317.317,0,0,0,.032-.444.309.309,0,0,0-.439-.032c-.384.334-3.753,3.318-3.75,5.2a1.267,1.267,0,0,0,.44.988c.835.719,2.163.36,3.18-.1-.874,1.232-1.819,3.031-.8,4.011a1.519,1.519,0,0,0,.714.379" transform="translate(49.708 2.279)" fill="#ca582f"/>
              <path id="Path_131524" data-name="Path 131524" d="M269.269,11.783a.3.3,0,0,0,.211-.025.316.316,0,0,0,.138-.422,5.368,5.368,0,0,0-2.905-2.364.307.307,0,0,0-.4.186.314.314,0,0,0,.185.4,4.847,4.847,0,0,1,2.565,2.057.308.308,0,0,0,.206.164" transform="translate(49.483 1.78)" fill="#ca582f"/>
              <path id="Path_131525" data-name="Path 131525" d="M267.993,11.909a14.752,14.752,0,0,0-3.16,3.424,4.386,4.386,0,0,1,.3.627,14.848,14.848,0,0,1,3.223-3.526.333.333,0,0,0,.078-.446.326.326,0,0,0-.442-.079" transform="translate(49.211 2.357)" fill="#ca582f"/>
              <path id="Path_131526" data-name="Path 131526" d="M262.258,23.851a.31.31,0,0,0,.237.3l.072.017a.321.321,0,0,0,.3-.315,16.117,16.117,0,0,1,1.328-6.379,4.879,4.879,0,0,1-.614-.108,16.893,16.893,0,0,0-1.327,6.483" transform="translate(48.733 3.453)" fill="#ca582f"/>
              <path id="Path_131527" data-name="Path 131527" d="M208.306,79.346l21.555-7.591s1.617,27.541,7.611,30.907,5.5-11.592,5.5-11.592,2.017,9.394-3.237,13.439-11.581,9.262-11.581,9.262-24.033,7.062-19.842-34.426" transform="translate(38.616 14.268)" fill="#cb4a00"/>
              <path id="Path_131528" data-name="Path 131528" d="M227.775,106a65.174,65.174,0,0,1-15.324,7.1c-.612.193-.351,1.168.266.975a66.249,66.249,0,0,0,15.563-7.2c.544-.343.044-1.217-.5-.872" transform="translate(39.413 21.061)" fill="#861900"/>
              <path id="Path_131529" data-name="Path 131529" d="M107.522,66.052S95.8,62.184,88.413,67.46s-10.228,19.5-10.228,19.5l22.944-.446Z" transform="translate(14.528 12.862)" fill="#5b413c"/>
              <path id="Path_131530" data-name="Path 131530" d="M92.444,97.364S73.484,82.9,68.616,100.271c-5.246,18.71,4.927,29.947,4.927,29.947l12.508-12.391Z" transform="translate(12.471 18.237)" fill="#5b413c"/>
              <path id="Path_131531" data-name="Path 131531" d="M130.633,64.077S103.071,49.151,81.1,85.419s-8.7,79.809,10.671,90.8,41.563-2.853,41.563-2.853Z" transform="translate(12.953 12.136)" fill="#36251f"/>
              <path id="Path_131532" data-name="Path 131532" d="M136.408,202.126c-.189-2.883-.343-5.588-.465-8.03l41.242-30.361s2.325,17.444,3.924,38.39Z" transform="translate(25.261 32.557)" fill="#36251f"/>
              <path id="Path_131533" data-name="Path 131533" d="M102.442,200.3c.331-15.529.843-27.395.843-27.395l45.474,19.316c-.1,2.549-.229,5.261-.394,8.079Z" transform="translate(19.036 34.381)" fill="#36251f"/>
              <path id="Path_131534" data-name="Path 131534" d="M149.957,88.664c.02.065.037.127.057.189l.049.158,1,3.177,1,3.218,1.955,6.459q1.937,6.467,3.77,12.946.7,2.482,1.38,4.962.774,2.829,1.523,5.654.306,1.163.607,2.328c1.112,4.305,2.165,8.605,3.083,12.84.451,2.109.886,4.217,1.234,6.247.1.515.167,1,.251,1.507l.117.74.094.681.1.679c.03.229.05.465.077.7.046.465.108.923.138,1.4a75.884,75.884,0,0,1-.032,11.89,117.568,117.568,0,0,1-1.614,12.4c-.377,2.074-.805,4.148-1.272,6.205-.238,1.027-.481,2.052-.74,3.062l-.394,1.5-.375,1.34-.11.4a10.773,10.773,0,0,0,7.353,13.275,10.64,10.64,0,0,0,13.02-7.068l.321-1.015.281-.915.527-1.8c.339-1.189.657-2.372.964-3.559q.92-3.555,1.678-7.149a140.954,140.954,0,0,0,2.319-14.662c.254-2.5.436-5.029.522-7.6s.077-5.179-.074-7.843c-.027-.662-.089-1.336-.14-2-.027-.338-.05-.671-.084-1.009l-.11-1.018-.114-1.017c-.039-.331-.085-.632-.13-.951-.088-.625-.17-1.266-.27-1.873-.371-2.472-.809-4.841-1.264-7.2-.915-4.7-1.936-9.28-3.008-13.825q-.384-1.622-.776-3.236c-.254-1.037-.506-2.074-.767-3.109q-.893-3.6-1.824-7.179-1.745-6.718-3.592-13.386l-1.866-6.666-.955-3.333-.979-3.365a11.927,11.927,0,0,0-14.837-8.172,12.1,12.1,0,0,0-8.085,15" transform="translate(27.774 14.549)" fill="#ff9568"/>
              <path id="Path_131535" data-name="Path 131535" d="M157.643,112.709q.775,2.829,1.523,5.654l22.177-6.552c-.254-1.037-.508-2.074-.768-3.109Z" transform="translate(29.293 21.614)" fill="#e0693e"/>
              <path id="Path_131536" data-name="Path 131536" d="M149.414,90.349l7.671,32.741,28.475-6.42s-6.387-34.515-14.973-40.993c-4.754-3.587-8.972-4.366-13.9-1.779a14.751,14.751,0,0,0-7.274,16.45" transform="translate(27.69 14.391)" fill="#236676"/>
              <path id="Path_131537" data-name="Path 131537" d="M171.568,202.842H107.429c-7.133-17.459-4-36.1-4-36.1,31.105,7.246,56.808,3.437,79.3-6.608,0,0,4.15,25.39,1.333,35.555-.708,2.556-5.558,5.029-12.489,7.151" transform="translate(19.092 31.841)" fill="#36251f"/>
              <path id="Path_131538" data-name="Path 131538" d="M138.877,201.773q-.023-1.9-.052-3.808c-.009-.6-.019-1.192-.032-1.789-.2-11.071-.6-21.95-.925-29.632-.015-.351-.03-.7-.044-1.035h1.748q.018.423.036.857c.319,7.616.716,18.4.923,29.4.014.608.024,1.218.037,1.825q.034,2.091.057,4.178Z" transform="translate(25.61 32.91)" fill="#5b413c"/>
              <path id="Path_131539" data-name="Path 131539" d="M133.536,165.511c.021.471.044.952.065,1.447.466,9.965,1.179,24.068,1.649,27.4a1.972,1.972,0,0,0,.983,1.592,5.9,5.9,0,0,0,3.682.229,17.358,17.358,0,0,0,1.737-.406,20.334,20.334,0,0,0,2.434-.864.868.868,0,0,1,1.149.453.885.885,0,0,1-.448,1.162,22.12,22.12,0,0,1-3.1,1.074,17.234,17.234,0,0,1-1.741.37,11.93,11.93,0,0,1-1.66.145,5.8,5.8,0,0,1-2.9-.622,3.75,3.75,0,0,1-1.862-2.886c-.485-3.435-1.2-17.561-1.665-27.549-.026-.527-.05-1.038-.072-1.543Z" transform="translate(24.488 32.91)" fill="#5b413c"/>
              <path id="Path_131540" data-name="Path 131540" d="M99.413,125.118c.178,1.515.33,3.386.47,5.546q.071,1.113.142,2.317c.391,6.723.73,15.566,1.36,24.738.056.821.117,1.651.183,2.477,1.463,19.745-4.3,26.621,3.957,28.52,50.174,11.541,70.665-.031,76.771-4.862,6.744-5.335,2.2-26.71-.287-51.912-.082-.852-.16-1.69-.243-2.512-.664-6.859-1.16-12.488-1.173-15.777-.052-15.289-2.032-31.587-4.3-38.573s-27.47-12.53-27.47-12.53l-27.947,1.2a98.737,98.737,0,0,0-18.8,15.752c-10,10.525-4.545,29.566-2.669,45.618" transform="translate(17.882 12.438)" fill="#236676"/>
              <path id="Path_131541" data-name="Path 131541" d="M146.657,96.269l11.806,21-10.834.767,9.181,15.286L129.2,111.9l13.624-2.268L129.688,97.6Z" transform="translate(24.007 19.142)" fill="#104151"/>
              <path id="Path_131542" data-name="Path 131542" d="M145.807,63.951s4.881,31.314,7.806,44.922a92.123,92.123,0,0,0,13.076,31.157,96.52,96.52,0,0,0,8.23,10.4c.714.076,2.648-8.278-2.232-19.814-8.992-21.258-15.949-59.3-18.756-64.092s-8.124-2.573-8.124-2.573" transform="translate(27.094 12.614)" fill="#36251f"/>
              <path id="Path_131543" data-name="Path 131543" d="M159.717,85.376a26.627,26.627,0,0,0-9-.147,2.785,2.785,0,0,0-2.227,3.166,119.1,119.1,0,0,0,3.269,15.736,2.755,2.755,0,0,0,3.119,1.877l7.529-1.389a2.788,2.788,0,0,0,2.15-3.534A61.871,61.871,0,0,1,162,87.974a2.769,2.769,0,0,0-2.282-2.6" transform="translate(27.586 16.882)" fill="#5b413c"/>
              <path id="Path_131544" data-name="Path 131544" d="M122.142,82.677a35.085,35.085,0,0,0,19.142-5.734,36.766,36.766,0,0,0,9.413-8.588.844.844,0,0,0-.191-1.17.824.824,0,0,0-1.157.192c-.123.175-12.679,17.429-34.518,12.848a.829.829,0,0,0-.981.651.838.838,0,0,0,.643.991,37.211,37.211,0,0,0,7.65.81" transform="translate(21.152 13.327)" fill="#104151"/>
              <path id="Path_131545" data-name="Path 131545" d="M106.665,71.658a40.948,40.948,0,0,1,16.56,26.109c3.263,17.809-8.919,42.324-22.825,49.3a18.241,18.241,0,0,0,.611,12.965s30.018-9.242,32.764-47.747-18.641-44.662-18.641-44.662c-2.7-.788-6.924,1.78-8.469,4.032" transform="translate(18.49 13.418)" fill="#36251f"/>
              <path id="Path_131546" data-name="Path 131546" d="M119.906,88.408a25.177,25.177,0,0,1,8.215-2.2,2.611,2.611,0,0,1,2.75,2.39,112.476,112.476,0,0,1,.53,15.168,2.615,2.615,0,0,1-2.436,2.435l-7.211.452a2.618,2.618,0,0,1-2.762-2.747,58.483,58.483,0,0,0-.6-12.6,2.63,2.63,0,0,1,1.508-2.9" transform="translate(21.992 17.141)" fill="#5b413c"/>
              <path id="Path_131547" data-name="Path 131547" d="M168.352,117.811h.026a.58.58,0,0,0,.549-.607c-.009-.2-.924-20.673-3.28-32.782a.575.575,0,0,0-.675-.458.581.581,0,0,0-.453.682c2.34,12.024,3.249,32.4,3.259,32.608a.577.577,0,0,0,.574.556" transform="translate(30.569 16.693)" fill="#104151"/>
              <path id="Path_131548" data-name="Path 131548" d="M166.179,91.863a.575.575,0,0,0,.547-.4l1.448-4.457a.584.584,0,0,0-.368-.734.573.573,0,0,0-.726.372L165.632,91.1a.578.578,0,0,0,.547.762" transform="translate(30.773 17.148)" fill="#104151"/>
              <path id="Path_131549" data-name="Path 131549" d="M123.319,169.082c10.9.691,22.227-3.588,33.225-12.636a94.062,94.062,0,0,0,17.1-18.713.808.808,0,0,0-.225-1.114.79.79,0,0,0-1.1.229,92.515,92.515,0,0,1-16.811,18.375c-9.409,7.732-24.046,15.865-40.345,10.7a.8.8,0,0,0-1,.526.807.807,0,0,0,.522,1.009,36.071,36.071,0,0,0,8.63,1.623" transform="translate(21.208 27.139)" fill="#104151"/>
              <path id="Path_131550" data-name="Path 131550" d="M130.76,157.9a.787.787,0,0,0,.175-.008c13.337-2.151,24.743-18.5,25.222-19.191a.81.81,0,0,0-.2-1.12.79.79,0,0,0-1.108.2c-.114.164-11.5,16.479-24.167,18.522a.805.805,0,0,0,.075,1.6" transform="translate(24.159 27.327)" fill="#104151"/>
              <path id="Path_131551" data-name="Path 131551" d="M151.209,30.461s-1.494-7.691.455-14.072c1.919-6.28,1.919-10.033.722-11.146-3.766-3.509-7.308,5.026-7.308,5.026s.994-7.933-2.265-8.156-5.538,7.464-5.538,7.464.607-11.259-3.659-8.8-5.839,9.968-5.839,9.968-14.652,2.467-20.042,12.4c0,0-4.41-4.75-7.281-1.948s3.093,7.438,3.093,7.438-4.582,3.047-3.874,7.424,6.15,1.377,6.15,1.377S104.907,60.86,124.585,67.3s26.624-36.835,26.624-36.835" transform="translate(18.508 0.084)" fill="#d65900"/>
              <path id="Path_131552" data-name="Path 131552" d="M142.933,59.984l.944,7.09a20.931,20.931,0,0,1-2.093,2.074c-10.428,8.945-23.957,1.467-23.957,1.467l-3.27-24.58,24.992,12.286Z" transform="translate(21.287 9.154)" fill="#ff9568"/>
              <path id="Path_131553" data-name="Path 131553" d="M141.613,58.285l.944,7.09a20.932,20.932,0,0,1-2.093,2.074c-10.268-2.828-18.8-12.864-18.8-12.864l16.569,2.037Z" transform="translate(22.607 10.854)" fill="#36251f"/>
              <path id="Path_131554" data-name="Path 131554" d="M141.986,35.2s3.139-4.966,5.843-.794,2.28,13.415-3.6,12.711Z" transform="translate(26.384 6.51)" fill="#e0693e"/>
              <path id="Path_131555" data-name="Path 131555" d="M153.379,50.857s1.529,13.889-12.609,15.779a37.034,37.034,0,0,1-24.852-5.525L115.9,61.1l-.537-2.866-2.793-14.876-1.493-7.951s-3.713-14.177,9.494-18.652c9.649-3.269,19.158-2.869,24.541,1.718.174.147.344.3.505.459a12.463,12.463,0,0,1,3.561,6.354l2.353,14.326.576,3.511Z" transform="translate(20.551 2.906)" fill="#ff9568"/>
              <path id="Path_131556" data-name="Path 131556" d="M129.082,42.262s2.037,5.962,6.942,6.777c5.582.928,6.6-6.128,6.6-6.128Z" transform="translate(23.986 8.403)" fill="#f4ece1"/>
              <path id="Path_131557" data-name="Path 131557" d="M137.266,49.89a2.943,2.943,0,0,0,.326-.12.462.462,0,0,0,.227-.608.45.45,0,0,0-.6-.229,2.881,2.881,0,0,1-2.865-.367.451.451,0,0,0-.638.072.461.461,0,0,0,.071.645,3.713,3.713,0,0,0,3.479.607" transform="translate(24.829 9.637)" fill="#e0693e"/>
              <path id="Path_131558" data-name="Path 131558" d="M129.449,34.729c.183,1.374-.286,2.57-1.046,2.675s-1.524-.927-1.708-2.3.286-2.57,1.046-2.675,1.525.927,1.708,2.3" transform="translate(23.535 6.447)" fill="#36251f"/>
              <path id="Path_131559" data-name="Path 131559" d="M140.785,33.2c.183,1.374-.286,2.572-1.046,2.675s-1.524-.927-1.708-2.3.286-2.57,1.046-2.673,1.525.926,1.708,2.3" transform="translate(25.642 6.143)" fill="#36251f"/>
              <path id="Path_131560" data-name="Path 131560" d="M135.756,41.609a4.835,4.835,0,0,0,4.153-3.047.577.577,0,0,0-.069-.484c-2.9-4.424-5.85-8.974-5.878-9.02a.562.562,0,0,0-.781-.164.573.573,0,0,0-.162.789c.028.046,2.867,4.426,5.716,8.771a3.87,3.87,0,0,1-3.128,2.026.57.57,0,0,0,.151,1.131" transform="translate(24.7 5.726)" fill="#36251f"/>
              <path id="Path_131561" data-name="Path 131561" d="M126.318,22.043a3.335,3.335,0,0,0-2.777,3.137,5.427,5.427,0,0,1-2.248,3.956c-3.976,3.382-2.687,7.113-1.27,10.16s-4.1,9.785-9,2.4-3.569-24.537,7.918-26.907,27.317-.649,29.3,4.479a27,27,0,0,1,1.8,9.775,6.326,6.326,0,0,1-2.385-4.713c-.294-3.351-2.751-4.353-6.654-4.353-2.662,0-10.173,1.262-14.682,2.066" transform="translate(20.13 2.732)" fill="#d65900"/>
              <g id="Group_158021" data-name="Group 158021" transform="translate(166.774 42.519)" opacity="0.8">
                <g id="Group_158020" data-name="Group 158020">
                  <g id="Group_158019" data-name="Group 158019" clip-path="url(#clip-path-4)">
                    <path id="Path_131562" data-name="Path 131562" d="M146.526,38.978c-.346.083-.713.151-1.09.2-2.51.342-4.657-.193-4.79-1.193s1.8-2.09,4.308-2.431q.51-.068.995-.09Z" transform="translate(-140.64 -35.467)" fill="#e0693e"/>
                  </g>
                </g>
              </g>
              <path id="Path_131563" data-name="Path 131563" d="M131.2,39.247c.133,1-1.8,2.088-4.31,2.43s-4.658-.192-4.792-1.192,1.8-2.088,4.31-2.43,4.659.192,4.792,1.192" transform="translate(22.687 7.546)" fill="#e0693e"/>
              <path id="Path_131564" data-name="Path 131564" d="M121.949,30.134h0a3.2,3.2,0,0,0,4.392,1.073,17.957,17.957,0,0,1,3.059-1.5,3.006,3.006,0,0,0,1.731-3.985s-6.662.285-9.183,4.409" transform="translate(22.661 5.115)" fill="#d65900"/>
              <path id="Path_131565" data-name="Path 131565" d="M145.075,26.859h0a3.219,3.219,0,0,1-3.957,2.208,17.808,17.808,0,0,0-3.34-.627,2.987,2.987,0,0,1-2.711-3.381s6.5-1.5,10.008,1.8" transform="translate(25.093 4.915)" fill="#d65900"/>
              <path id="Path_131566" data-name="Path 131566" d="M118.854,48.249c-.044.161-1.275,4.6-3.683,6.175l-.015-.012-.537-2.866a9.843,9.843,0,0,0,4.236-3.3" transform="translate(21.298 9.594)" fill="#36251f"/>
              <path id="Path_131567" data-name="Path 131567" d="M116.612,41.077s-6.414-6.639-9.623-.3C104.344,46,112.2,57.607,118.126,52.459Z" transform="translate(19.783 7.563)" fill="#ff9568"/>
              <path id="Path_131568" data-name="Path 131568" d="M116.6,49.7c.02,0,.04-.007.062-.011a.572.572,0,0,0,.411-.692,10.6,10.6,0,0,0-7.26-7.7.563.563,0,0,0-.684.415.572.572,0,0,0,.409.692,9.462,9.462,0,0,1,6.44,6.872.564.564,0,0,0,.621.428" transform="translate(20.274 8.206)" fill="#36251f"/>
              <path id="Path_131569" data-name="Path 131569" d="M110.739,46.5a.556.556,0,0,0,.336-.174c.433-.465,1.776-1.644,2.774-1.525a.57.57,0,0,0,.132-1.133c-1.736-.206-3.529,1.663-3.727,1.876a.573.573,0,0,0,.025.806.555.555,0,0,0,.461.15" transform="translate(20.459 8.681)" fill="#36251f"/>
              <path id="Path_131570" data-name="Path 131570" d="M83.456,152.069l.012.535c.011.717.047,1.423.089,2.127.089,1.407.238,2.789.43,4.146a64.1,64.1,0,0,0,4.185,15.11,85.758,85.758,0,0,0,6.751,13.066c1.268,2.044,2.633,4.009,4.042,5.939q1.071,1.44,2.2,2.85c.376.474.767.939,1.163,1.411l.611.713.7.806a8.907,8.907,0,0,0,12.606,1.5,9.14,9.14,0,0,0,1.483-12.745c.012,0-.013-.035-.034-.078l-.075-.128-.165-.284-.341-.6-.7-1.254c-.467-.843-.923-1.706-1.366-2.576-.9-1.734-1.727-3.507-2.514-5.277a76.264,76.264,0,0,1-3.837-10.671,49.987,49.987,0,0,1-1.157-5.221q-.2-1.286-.346-2.534c-.089-.831-.148-1.651-.177-2.452s-.034-1.592,0-2.356c.019-.384.039-.761.074-1.132l.1-1.319c.153-1.861.362-3.8.634-5.782s.579-3.99.918-6.019.694-4.071,1.076-6.119q.594-3.127,1.227-6.272.384-1.919.79-3.843c.155-.746.313-1.495.474-2.243l1.354-6.205,1.406-6.211,1.44-6.205,1.451-6.116.046-.194a13.264,13.264,0,0,0-9.691-15.985,13.108,13.108,0,0,0-15.812,9.8l0,.013-.783,3.308c-.253,1.087-.49,2.171-.73,3.256-.479,2.169-.927,4.34-1.37,6.515s-.867,4.352-1.272,6.538-.812,4.372-1.176,6.573q-.21,1.235-.413,2.478-.425,2.593-.817,5.205-.418,2.8-.785,5.619c-.288,2.243-.566,4.494-.8,6.775s-.436,4.582-.6,6.924-.269,4.733-.3,7.211l-.009.935Z" transform="translate(15.508 15.923)" fill="#ff9568"/>
              <path id="Path_131571" data-name="Path 131571" d="M85.562,117.691l25.1,3.318q.384-1.919.79-3.843l-25.077-4.68q-.425,2.593-.817,5.205" transform="translate(15.899 22.366)" fill="#e0693e"/>
              <path id="Path_131572" data-name="Path 131572" d="M119.914,94.509,112,127.19l-28.425-6.636s6.642-34.465,15.277-40.879c4.779-3.55,9-4.3,13.911-1.672a14.751,14.751,0,0,1,7.152,16.506" transform="translate(15.53 15.198)" fill="#236676"/>
              <path id="Path_131573" data-name="Path 131573" d="M107.36,121.786a.574.574,0,0,0,.559-.447l5.829-24.815a.582.582,0,0,0-.426-.7.571.571,0,0,0-.693.43L106.8,121.07a.582.582,0,0,0,.427.7.558.558,0,0,0,.133.016" transform="translate(19.843 19.05)" fill="#104151"/>
              <path id="Path_131574" data-name="Path 131574" d="M111.075,102.437a.566.566,0,0,0,.325-.1l3.563-2.467a.585.585,0,0,0,.149-.808.573.573,0,0,0-.8-.151l-3.563,2.467a.584.584,0,0,0-.149.808.572.572,0,0,0,.474.253" transform="translate(20.533 19.647)" fill="#104151"/>
              <path id="Path_131575" data-name="Path 131575" d="M106.841,199.524a184.514,184.514,0,0,0,13.945-12.643c-.018-.037-.028-.058-.028-.058l.053.031a63.788,63.788,0,0,0,4.6-5.38c-.4-.761-.755-1.418-1.044-1.923a26.454,26.454,0,0,0-6.936-7.213c-1.859-1.255-3.567-3.676-5.258-3.784-5.354-.338-12.233,4.225-12.223,7.07.015,4.19,2.18,12.573,2.725,15.731.221,1.276,1.316,5.269,2.654,9.472q.756-.653,1.514-1.3" transform="translate(18.572 33.511)" fill="#ff9568"/>
              <path id="Path_131576" data-name="Path 131576" d="M106.824,199.212H103.57l21.737-20.518a1.086,1.086,0,0,1,1.493-.006l.017.014a1.121,1.121,0,0,1,.006,1.63Z" transform="translate(19.245 35.471)" fill="#5b413c"/>
              <path id="Path_131577" data-name="Path 131577" d="M165.551,166.263s3.049,20.163,6.875,25.077c0,0,9.179-9.651,4.835-25.013-2.915-10.308-11.71-.065-11.71-.065" transform="translate(30.763 32.158)" fill="#ff9568"/>
              <path id="Path_131578" data-name="Path 131578" d="M130.611,143.378a11.623,11.623,0,0,1-6.084-1.1c-9.895-4.726-20.961-13.833-32.889-27.069A228.412,228.412,0,0,1,76.957,97.191a12.014,12.014,0,0,1,2.636-16.66,11.718,11.718,0,0,1,16.476,2.661c5.8,8.085,24.044,30.587,38.542,37.513a11.985,11.985,0,0,1,5.628,15.883,11.8,11.8,0,0,1-9.626,6.789" transform="translate(13.883 15.562)" fill="#b5591d"/>
              <path id="Path_131579" data-name="Path 131579" d="M92.368,78.658l19.9,23.785-11.827,27.238L87.325,114.542S85.43,84.329,92.368,78.658" transform="translate(16.183 15.64)" fill="#7f7134"/>
              <path id="Path_131580" data-name="Path 131580" d="M139.763,77.176a9.156,9.156,0,0,0-11.257,6.5l-.047.176-1.032,3.823-1.085,3.87q-1.1,3.866-2.277,7.709c-1.563,5.117-3.212,10.188-4.988,15.134-.888,2.471-1.81,4.909-2.771,7.283s-1.967,4.683-3.019,6.83c-.525,1.071-1.062,2.1-1.6,3.039l-.02.032c.706,1.162,1.464,2.3,2.247,3.414h20.11c.758-2,1.444-3.979,2.091-5.946.908-2.768,1.736-5.516,2.517-8.256,1.556-5.481,2.928-10.935,4.2-16.394q.953-4.093,1.827-8.193l.859-4.11.415-2.066.413-2.112a9.306,9.306,0,0,0-6.582-10.736" transform="translate(20.75 15.28)" fill="#b5591d"/>
              <path id="Path_131581" data-name="Path 131581" d="M125.827,83s2.245,10.581,16.784,10.4a10.4,10.4,0,0,1-1.019,4.746s-11.875,0-17.009-10.028c0,0-.72-2.08,1.244-5.12" transform="translate(23.126 16.503)" fill="#36251f"/>
              <path id="Path_131582" data-name="Path 131582" d="M118.491,109.713a.671.671,0,0,1-.108.171c-1.8,2.061-3.055,6.554-3.067,6.6a.64.64,0,0,1-.79.451.65.65,0,0,1-.445-.8c.055-.2,1.348-4.827,3.34-7.108a.636.636,0,0,1,.9-.056.653.653,0,0,1,.165.742" transform="translate(21.194 21.635)" fill="#8f2d00"/>
              <path id="Path_131583" data-name="Path 131583" d="M118.286,110a.635.635,0,0,1-.165.117c-2.437,1.218-5.279,4.9-5.308,4.934a.636.636,0,0,1-.9.115.652.652,0,0,1-.114-.909c.125-.161,3.055-3.953,5.754-5.3a.636.636,0,0,1,.857.294.654.654,0,0,1-.126.749" transform="translate(20.75 21.651)" fill="#8f2d00"/>
              <path id="Path_131584" data-name="Path 131584" d="M136.436,95.643s9.982-.388,13.765-5.361c4.244-5.578-3.463-18.449-6.924-20.965-4.331-3.149-10.082,3.29-10.082,3.29s-4.325-9.105-6.651-7.874c-3.032,1.6,2.337,8.453-1.058,16.292-.762,1.754-.375,3.815.229,5.63,1.141,3.432,3.951,8.419,10.721,8.989" transform="translate(23.239 12.848)" fill="#b5591d"/>
              <path id="Path_131585" data-name="Path 131585" d="M137.55,84.727a.6.6,0,0,1,.161-.553c.152-.151,3.755-3.709,7.153-4.6a.588.588,0,0,1,.716.427.6.6,0,0,1-.423.725c-3.093.807-6.585,4.257-6.62,4.292a.583.583,0,0,1-.831-.006.59.59,0,0,1-.155-.289" transform="translate(25.557 15.819)" fill="#8f2d00"/>
              <path id="Path_131586" data-name="Path 131586" d="M134.667,81.223a.6.6,0,0,1,.132-.519,16.327,16.327,0,0,1,8.058-4.71.588.588,0,0,1,.7.447v0a.594.594,0,0,1-.443.707,15.413,15.413,0,0,0-7.433,4.334.583.583,0,0,1-.83.055.589.589,0,0,1-.187-.319" transform="translate(25.021 15.107)" fill="#8f2d00"/>
              <path id="Path_131587" data-name="Path 131587" d="M132.93,76.8a.6.6,0,0,1,.127-.514,14.548,14.548,0,0,1,7.333-4.233.594.594,0,0,1,.267,1.158,13.617,13.617,0,0,0-6.706,3.848.585.585,0,0,1-.83.065.6.6,0,0,1-.191-.324" transform="translate(24.699 14.323)" fill="#8f2d00"/>
              <path id="Path_131588" data-name="Path 131588" d="M130.1,86.024a.6.6,0,0,1,.277-.641c3.508-2.073,4.06-6.409,4.066-6.452a.588.588,0,1,1,1.168.139c-.023.2-.617,4.962-4.64,7.34a.586.586,0,0,1-.805-.213.605.605,0,0,1-.066-.173" transform="translate(24.172 15.59)" fill="#8f2d00"/>
              <path id="Path_131589" data-name="Path 131589" d="M133.078,77.639a16.266,16.266,0,0,1-.326-4.9.588.588,0,1,1,1.172.1c-.8,9.29,7.728,16.293,7.815,16.364a.6.6,0,0,1,.092.836.584.584,0,0,1-.827.094c-.307-.248-6.33-5.185-7.926-12.5" transform="translate(24.657 14.355)" fill="#8f2d00"/>
              <path id="Path_131590" data-name="Path 131590" d="M50.605,66.111S40.06,59.646,31.681,63.083,17.329,79.717,17.329,79.717l22.443,4.848Z" transform="translate(3.22 12.343)" fill="#5b413c"/>
              <path id="Path_131591" data-name="Path 131591" d="M28.829,93.45s-15.2-18.444-23.858-2.655c-9.322,17.012-1.948,30.295-1.948,30.295L17.995,111.9Z" transform="translate(0.047 16.783)" fill="#5b413c"/>
              <path id="Path_131592" data-name="Path 131592" d="M75.4,68.547S51.927,47.668,22.363,77.925-4.089,153.633,12.3,168.794s41.114,6.79,41.114,6.79Z" transform="translate(0 12.234)" fill="#36251f"/>
              <path id="Path_131593" data-name="Path 131593" d="M95.517,199.726,94,175.807l-40.139,4.914s1.072,8,2.445,19.005Z" transform="translate(10.009 34.957)" fill="#632627"/>
              <path id="Path_131594" data-name="Path 131594" d="M62.2,197.042c-.511-4.194-.837-6.859-.851-6.972a.861.861,0,1,0-1.709.213c.014.113.328,2.689.825,6.759Z" transform="translate(11.081 37.641)" fill="#915054"/>
              <path id="Path_131595" data-name="Path 131595" d="M24.772,161.135s-3.682,20.057-.811,32.367c0,0,56.268,5.129,76.564-2.706,0,0-.261-20.015-2.475-29.732Z" transform="translate(4.249 32.026)" fill="#632627"/>
              <path id="Path_131596" data-name="Path 131596" d="M60.629,198.325c.585-6.654.94-10.785.94-10.785l-38.214-4.689-.478,15.473Z" transform="translate(4.251 36.358)" fill="#632627"/>
              <path id="Path_131597" data-name="Path 131597" d="M54.758,159.164c-.009.216-.018.434-.027.657-.244,5.829-.549,14.084-.707,22.507-.011.464-.018.932-.028,1.4-.043,2.687-.074,5.379-.082,8a.674.674,0,0,0,.662.677h0a.672.672,0,0,0,.67-.674c.007-2.534.037-5.13.079-7.723.007-.456.014-.912.024-1.369.157-8.475.461-16.8.709-22.683.011-.269.023-.531.033-.791Z" transform="translate(10.018 31.648)" fill="#915054"/>
              <path id="Path_131598" data-name="Path 131598" d="M60.658,159.164c-.017.361-.033.729-.05,1.108-.356,7.627-.9,18.424-1.263,20.972a1.513,1.513,0,0,1-.752,1.219,4.52,4.52,0,0,1-2.819.175,13.487,13.487,0,0,1-1.33-.311,15.441,15.441,0,0,1-1.863-.663.666.666,0,0,0-.88.348.678.678,0,0,0,.344.889,16.853,16.853,0,0,0,2.372.822,13.159,13.159,0,0,0,1.333.283,9.1,9.1,0,0,0,1.271.111,4.432,4.432,0,0,0,2.222-.477,2.865,2.865,0,0,0,1.425-2.208c.372-2.629.921-13.443,1.275-21.089.02-.4.038-.795.056-1.181Z" transform="translate(9.597 31.648)" fill="#915054"/>
              <path id="Path_131599" data-name="Path 131599" d="M50.7,197.149c.283-4.517.457-7.332.464-7.453a.861.861,0,1,0-1.719-.108c-.007.122-.183,2.98-.47,7.561Z" transform="translate(9.1 37.535)" fill="#915054"/>
              <path id="Path_131600" data-name="Path 131600" d="M103.083,126.225c-.282,1.355-.569,3.033-.867,4.975q-.153,1-.314,2.084c-.891,6.046-1.9,14.012-3.2,22.252-.117.739-.238,1.483-.363,2.224-2.9,17.731,2.672,18.071,1.523,23.815-4.424,22.105-69.538,14.761-75.869,6.632-2.97-3.814-.376-39.972,3.882-62.553.142-.762.28-1.515.42-2.25,1.149-6.146,2.046-11.194,2.319-14.167,1.268-13.817,4.359-28.388,6.963-34.518s25.833-9.087,25.833-9.087l24.255,4.1s11.923,5.15,20.126,15.481-1.727,26.655-4.7,41.013" transform="translate(4.22 13.05)" fill="#7f7134"/>
              <path id="Path_131601" data-name="Path 131601" d="M95.185,72.843s2.763,17.2-8.273,32.634-44.059,23.723-59.4,18.088a17.026,17.026,0,0,0-1.887,11.393S56.41,145.837,83.64,124.132c27.963-22.291,19.874-44.544,19.874-44.544C102.147,76.937,98,72.4,95.185,72.843" transform="translate(4.707 14.478)" fill="#36251f"/>
              <path id="Path_131602" data-name="Path 131602" d="M82.29,96.8a27.185,27.185,0,0,1,7.252,4.4,3.217,3.217,0,0,1,.277,4.505,114.068,114.068,0,0,1-10.751,11.09,2.713,2.713,0,0,1-3.6-.108l-5.573-5.22a2.788,2.788,0,0,1,.063-4.118,60.505,60.505,0,0,0,9.051-9.6,2.711,2.711,0,0,1,3.28-.947" transform="translate(12.825 19.205)" fill="#5b413c"/>
              <path id="Path_131603" data-name="Path 131603" d="M50.211,136.578a.864.864,0,0,0,.179.029c13.854.658,28.7-13.365,29.329-13.962a.833.833,0,0,0,.033-1.169.812.812,0,0,0-1.155-.034c-.148.141-14.975,14.138-28.131,13.513a.827.827,0,0,0-.255,1.622" transform="translate(9.219 24.103)" fill="#594e1e"/>
              <path id="Path_131604" data-name="Path 131604" d="M72.406,83.051c-9.873-.891-18.1-13.368-18.45-13.9a.8.8,0,0,1,.225-1.1.783.783,0,0,1,1.091.227c.081.125,8.163,12.367,17.274,13.19h.011c6.459.577,9.585-5.976,9.715-6.254a.785.785,0,0,1,1.048-.384.8.8,0,0,1,.379,1.059c-.148.32-3.713,7.843-11.282,7.167h-.012" transform="translate(10.002 13.504)" fill="#594e1e"/>
              <path id="Path_131605" data-name="Path 131605" d="M88.526,125.586a.618.618,0,0,1-.122-.02.655.655,0,0,1-.458-.8c2.062-7.78,7.753-25.634,7.81-25.812a.645.645,0,0,1,.813-.422.655.655,0,0,1,.417.822c-.057.18-5.738,18-7.792,25.75a.646.646,0,0,1-.669.483" transform="translate(16.338 19.585)" fill="#594e1e"/>
              <path id="Path_131606" data-name="Path 131606" d="M93.833,47.974s9.6,2.567,9.8-6.246a7.5,7.5,0,0,0,4.62-8.407c-.754-4.581-5.48-3.791-5.48-3.791s4.393-8.383-2.408-10.756c0,0,3.094-6.7-1.475-9.308s-9.666,2.7-9.666,2.7.05-5.825-5.238-5.657-6.839,6.528-6.839,6.528-3.621-5.548-8.079-3.465-4.481,8.58-4.481,8.58-6.473-1.923-11.079,3.077a5.99,5.99,0,0,0,.281,9.051s-6.006,1.15-7.007,4.99,5.933,5.537,5.933,5.537-3.093,5.979,1.663,8.4,10.037.141,10.037.141Z" transform="translate(8.675 1.294)" fill="#36251f"/>
              <path id="Path_131607" data-name="Path 131607" d="M82.115,66.711l-.9,6.688A19.458,19.458,0,0,1,78.8,74.756c-11.7,5.5-22.158-4.731-22.158-4.731l1.5-15,21.312,9.315Z" transform="translate(10.525 10.941)" fill="#b5591d"/>
              <path id="Path_131608" data-name="Path 131608" d="M80.824,66.169l-.9,6.688a19.457,19.457,0,0,1-2.417,1.357c-8.641-5.172-13.92-16.464-13.92-16.464L78.157,63.8Z" transform="translate(11.816 11.483)" fill="#36251f"/>
              <path id="Path_131609" data-name="Path 131609" d="M87.178,45.08s4.086-3.722,5.512.756S91.441,58.619,86.27,56.49Z" transform="translate(16.031 8.675)" fill="#8f2d00"/>
              <path id="Path_131610" data-name="Path 131610" d="M94.525,61.69s-2.05,13.022-15.38,11.162A35.156,35.156,0,0,1,57.9,61.533l-.013-.014.222-2.744,1.144-14.24.612-7.613S60,23.084,73.126,22.359c9.589-.531,18.141,2.241,21.9,7.777.121.179.238.361.346.545a11.84,11.84,0,0,1,1.665,6.682L95.63,50.993l-.345,3.34Z" transform="translate(10.757 4.433)" fill="#b5591d"/>
              <path id="Path_131611" data-name="Path 131611" d="M73.427,48.4s.376,5.94,4.637,7.923c4.848,2.257,7.523-3.9,7.523-3.9Z" transform="translate(13.644 9.624)" fill="#f4ece1"/>
              <path id="Path_131612" data-name="Path 131612" d="M78.985,57.382a3.122,3.122,0,0,0,.327-.026.434.434,0,0,0,.356-.5.427.427,0,0,0-.489-.36,2.726,2.726,0,0,1-2.516-1.059.426.426,0,0,0-.6-.1.438.438,0,0,0-.095.605,3.521,3.521,0,0,0,3.016,1.433" transform="translate(14.102 10.988)" fill="#8f2d00"/>
              <path id="Path_131613" data-name="Path 131613" d="M75.757,41.6c-.174,1.3-.9,2.267-1.614,2.168s-1.157-1.229-.983-2.525.9-2.266,1.614-2.167,1.157,1.229.983,2.525" transform="translate(13.588 7.768)" fill="#36251f"/>
              <path id="Path_131614" data-name="Path 131614" d="M86.452,43.052c-.174,1.3-.9,2.267-1.614,2.169s-1.157-1.229-.983-2.525.9-2.267,1.613-2.169,1.159,1.229.984,2.525" transform="translate(15.575 8.057)" fill="#36251f"/>
              <path id="Path_131615" data-name="Path 131615" d="M79.861,49.463a4.529,4.529,0,0,0,4.532-1.72.545.545,0,0,0,.058-.459c-1.543-4.758-3.1-9.645-3.114-9.694a.53.53,0,0,0-.67-.348.54.54,0,0,0-.343.677c.015.048,1.512,4.752,3.027,9.426A3.632,3.632,0,0,1,80,48.4a.538.538,0,0,0-.143,1.066" transform="translate(14.754 7.4)" fill="#36251f"/>
              <path id="Path_131616" data-name="Path 131616" d="M76.8,28.762a3.123,3.123,0,0,0-3.3,2.151,5.082,5.082,0,0,1-3.026,3.029c-4.455,2.07-4.206,5.79-3.672,8.923s-6.152,7.863-8.785-.1,2.831-23.226,13.868-22.473S96.9,26.62,97.434,31.788a25.5,25.5,0,0,1-.786,9.349,6,6,0,0,1-1-4.891c.562-3.123-1.425-4.656-4.976-5.645-2.421-.674-9.567-1.427-13.868-1.838" transform="translate(10.659 4.03)" fill="#36251f"/>
              <g id="Group_158024" data-name="Group 158024" transform="translate(100.933 55.157)" opacity="0.8">
                <g id="Group_158023" data-name="Group 158023">
                  <g id="Group_158022" data-name="Group 158022" clip-path="url(#clip-path-5)">
                    <path id="Path_131617" data-name="Path 131617" d="M90.227,49.618a10.341,10.341,0,0,1-1.041-.092c-2.369-.325-4.188-1.355-4.061-2.3s2.151-1.445,4.52-1.12c.321.044.631.1.927.17Z" transform="translate(-85.117 -46.009)" fill="#8f2d00"/>
                  </g>
                </g>
              </g>
              <path id="Path_131618" data-name="Path 131618" d="M76.209,46.031c-.127.943-2.152,1.445-4.523,1.12s-4.191-1.355-4.065-2.3,2.152-1.445,4.524-1.12,4.191,1.355,4.064,2.3" transform="translate(12.564 8.676)" fill="#8f2d00"/>
              <path id="Path_131619" data-name="Path 131619" d="M70.158,35.248h0a3.038,3.038,0,0,0,3.731,2.088,16.788,16.788,0,0,1,3.154-.587A2.82,2.82,0,0,0,79.6,33.561s-6.131-1.427-9.446,1.687" transform="translate(13.037 6.608)" fill="#36251f"/>
              <path id="Path_131620" data-name="Path 131620" d="M91.884,38.367h0a3.024,3.024,0,0,1-4.147,1.007,16.843,16.843,0,0,0-2.885-1.416,2.837,2.837,0,0,1-1.627-3.763s6.284.277,8.659,4.172" transform="translate(15.423 6.799)" fill="#36251f"/>
              <path id="Path_131621" data-name="Path 131621" d="M62.785,51.117c-.079.135-2.3,3.86-4.881,4.686l-.011-.016.221-2.744a9.225,9.225,0,0,0,4.671-1.927" transform="translate(10.758 10.164)" fill="#36251f"/>
              <path id="Path_131622" data-name="Path 131622" d="M62.632,44.067s-4.191-7.664-8.68-2.709c-3.7,4.082.573,16.63,7.238,13.446Z" transform="translate(9.771 7.892)" fill="#b5591d"/>
              <path id="Path_131623" data-name="Path 131623" d="M60.253,52.034l.058,0a.534.534,0,0,0,.545-.524,10.082,10.082,0,0,0-4.695-8.847.531.531,0,0,0-.726.2.54.54,0,0,0,.2.732,9.007,9.007,0,0,1,4.155,7.884.537.537,0,0,0,.46.547" transform="translate(10.288 8.47)" fill="#36251f"/>
              <path id="Path_131624" data-name="Path 131624" d="M55.775,47.529a.529.529,0,0,0,.349-.074c.509-.312,2.023-1.044,2.9-.685a.53.53,0,0,0,.694-.3.541.541,0,0,0-.293-.7c-1.529-.627-3.623.62-3.856.764a.542.542,0,0,0-.177.74.532.532,0,0,0,.383.253" transform="translate(10.279 9.067)" fill="#36251f"/>
              <path id="Path_131625" data-name="Path 131625" d="M13.525,204.863H40.334L75.165,193.5a1.228,1.228,0,0,0,.783-1.544L62.819,150.824a1.21,1.21,0,0,0-1.527-.79L3.334,168.941a1.229,1.229,0,0,0-.781,1.544Z" transform="translate(0.463 29.821)" fill="#ff9918"/>
              <path id="Path_131626" data-name="Path 131626" d="M48.191,184.081l-6.636-20.789a.962.962,0,0,1,.611-1.207l4.953-1.616a.946.946,0,0,1,1.194.619l6.636,20.789a.96.96,0,0,1-.612,1.207L49.385,184.7a.946.946,0,0,1-1.194-.619" transform="translate(7.713 31.898)" fill="#f4ece1"/>
              <path id="Path_131627" data-name="Path 131627" d="M37.625,198.714l34.832-11.363a1.229,1.229,0,0,0,.781-1.544L71.673,180.9l-54.6,17.814Z" transform="translate(3.172 35.97)" fill="#dd6a18"/>
              <path id="Path_131628" data-name="Path 131628" d="M46.535,104.779l-.057.167-1.815,5.249-1.22,3.588-.593,1.74-.664,1.984-1.119,3.348-1.735,5.335c-1.149,3.555-2.234,7.11-3.281,10.643-.515,1.766-1.019,3.532-1.481,5.282-.48,1.754-.931,3.492-1.339,5.211s-.77,3.4-1.065,5.029l-.21,1.146c-.064.324-.113.657-.162.99-.1.669-.165,1.361-.211,2.069s-.064,1.435-.059,2.173.037,1.493.082,2.259a43.166,43.166,0,0,0,.559,4.7,67.073,67.073,0,0,0,2.432,9.727c.54,1.627,1.11,3.261,1.747,4.865.315.807.64,1.608.975,2.39l.5,1.164.249.557.117.264.055.121c.018.038.034.078.025.071a8.073,8.073,0,0,1-2.426,11.072,7.877,7.877,0,0,1-10.952-2.453l-.547-.773-.474-.681c-.308-.451-.611-.893-.9-1.344-.58-.9-1.138-1.795-1.683-2.7-1.07-1.826-2.1-3.676-3.031-5.587a75.927,75.927,0,0,1-4.785-12.1,56.627,56.627,0,0,1-2.349-13.662c-.05-1.212-.062-2.437-.013-3.684.025-.621.055-1.246.106-1.877l.038-.47.044-.416.091-.818c.248-2.18.548-4.276.9-6.315s.721-4.054,1.131-6.034.851-3.937,1.3-5.885c.9-3.888,1.9-7.718,2.942-11.516.515-1.9,1.064-3.787,1.612-5.673l.206-.7c.485-1.65.977-3.293,1.489-4.932.032-.1.062-.2.092-.3.551-1.772,1.1-3.54,1.686-5.3.307-.933.61-1.865.927-2.8l.979-2.84,0-.01A11.556,11.556,0,0,1,39.42,89.853a11.749,11.749,0,0,1,7.115,14.926" transform="translate(2.057 17.735)" fill="#b5591d"/>
              <path id="Path_131629" data-name="Path 131629" d="M42.125,110.664l-.593,1.738-.664,1.985c-3.693.51-10.714.248-22.708-4.276.485-1.648.977-3.293,1.489-4.932.032-.1.062-.2.092-.3Z" transform="translate(3.374 20.853)" fill="#8f2d00"/>
              <path id="Path_131630" data-name="Path 131630" d="M30.463,139.645c-.269-.142-4.211-2.2-8.965-4.063a.645.645,0,0,0-.875.64.652.652,0,0,0,.41.571c4.782,1.879,8.776,3.962,8.843,4a.634.634,0,0,0,.86-.276.648.648,0,0,0-.273-.869" transform="translate(3.832 26.95)" fill="#8f2d00"/>
              <path id="Path_131631" data-name="Path 131631" d="M27.637,140.049a.664.664,0,0,1-.106-.173c-1.045-2.525-4.484-5.612-4.518-5.643a.649.649,0,0,1-.056-.91.633.633,0,0,1,.9-.058c.151.134,3.694,3.317,4.85,6.113a.647.647,0,0,1-.342.844.635.635,0,0,1-.729-.174" transform="translate(4.236 26.466)" fill="#8f2d00"/>
              <path id="Path_131632" data-name="Path 131632" d="M34.857,166.512c.391.656,1.845,4.238,2.017,4.464,2.975,3.931,8.785,3.158,10.694,5.7,0,0,14.555,12.4,10.966,13.849-1.977.8-4.9-.848-7.116-2.483.078.212.157.405.235.589,1.634,3.839,7.593,8.224,5.347,10.8s-5.818-1.393-5.818-1.393-1.464,3.075-6.089,1.041a4.021,4.021,0,0,1-4.833,1.079s-2.775,2.525-5.539.462c-2.348-1.755-6.795-10.021-12.182-23.974,2.557-4.581,5.758-7.745,12.318-10.131" transform="translate(4.188 33.109)" fill="#b5591d"/>
              <path id="Path_131633" data-name="Path 131633" d="M41.254,71.069S26.7,77.415,18,111.365c0,0,11.367,8.616,25.955,8.208,0,0,9.238-19.289,11.529-30.482s-2.3-22.875-14.231-18.022" transform="translate(3.345 13.907)" fill="#7f7134"/>
              <path id="Path_131634" data-name="Path 131634" d="M42.105,114.1a.738.738,0,0,1-.122-.025.655.655,0,0,1-.426-.818c2.357-7.694,8.726-25.312,8.79-25.489a.645.645,0,0,1,.829-.39.655.655,0,0,1,.385.838c-.064.177-6.422,17.764-8.769,25.426a.647.647,0,0,1-.688.457" transform="translate(7.717 17.366)" fill="#594e1e"/>
            </g>
          </g>
        </g>
      </g>
    </g>
  </g>
</svg>
