<svg xmlns="http://www.w3.org/2000/svg" xmlns:xlink="http://www.w3.org/1999/xlink" width="155" height="110" viewBox="0 0 155 110">
  <defs>
    <clipPath id="clip-path">
      <rect id="Rectangle_45258" data-name="Rectangle 45258" width="101.196" height="80.089" fill="none"/>
    </clipPath>
  </defs>
  <g id="_11" data-name="11" transform="translate(380 10241)">
    <g id="Group_174616" data-name="Group 174616" transform="translate(-1078 -14715.297)">
      <g id="Group_165391" data-name="Group 165391" transform="translate(698 4474.297)">
        <rect id="Rectangle_40797" data-name="Rectangle 40797" width="155" height="110" fill="#ffe891"/>
      </g>
    </g>
    <g id="Group_174937" data-name="Group 174937" transform="translate(-353 -10226)">
      <g id="Group_174936" data-name="Group 174936" clip-path="url(#clip-path)">
        <path id="Path_182619" data-name="Path 182619" d="M64.871,62.969c.224,1.227-.024,1.657-1.253,2.179A33.948,33.948,0,0,1,26.6,57.772c-.249-.255-.458-.55-.78-.94-1.808,5.21-3.538,10.193-5.268,15.176q-1.13,3.255-2.263,6.509c-.43,1.229-.992,1.7-1.831,1.544-.881-.161-1.245-.764-1.231-2.041a6.406,6.406,0,0,0,.336-.695q2.4-6.891,4.785-13.787,1.905-5.5,3.8-11c.115-.335.468-.74-.167-.955l-9.146-3.1c-.607-.238-1.232-.439-1.818-.722-.723-.349-1.057-.2-1.328.6-1.612,4.763-3.288,9.5-4.927,14.258-1.285,3.726-2.548,7.46-3.821,11.19-1,1.344-1.907,1.343-2.945,0V72.628c.37-.144.317-.518.414-.8Q4.771,59.324,9.1,46.808c.433-1.254,1-2.308,2.489-2.443.379-.034.358-.351.425-.573.342-1.131.639-2.276.99-3.4a1.65,1.65,0,0,0-.236-1.308q-2.107-4.232-4.2-8.47C5.733,24.882,7.392,19.433,12.89,16.139a27.654,27.654,0,0,0,3.842-3.389,5.049,5.049,0,0,1,6.023-.771c.436.251.768.931,1.253.75.431-.161.7-.753,1.044-1.148A34,34,0,0,1,35.8,3.359c1.02-.5,1.462-.378,2.294.575a1.757,1.757,0,0,1-1.177,2.19,30.312,30.312,0,0,0-10.883,8.957c-.226.295-.65.56-.462,1.016.543,1.317,1.121,2.619,1.688,3.934,5.69-8.3,13.287-13.1,23.355-13.1s17.692,4.825,23.347,13.1c.524-1.2.995-2.357,1.527-3.48a1.1,1.1,0,0,0-.181-1.329c-8.063-9.94-18.386-13.858-31-11.618a2.373,2.373,0,0,1-2.611-.751C41.8,1.237,42.017.988,43.753.672,56.329-1.612,67,1.93,75.795,11.175c.475.5.808,1.279,1.376,1.507.63.253,1.054-.668,1.678-.914a4.959,4.959,0,0,1,5.128.579c.6.454,1.137,1,1.693,1.511a27.785,27.785,0,0,0,3.761,3,10.1,10.1,0,0,1,3.709,12.6c-1.463,3.261-3.123,6.435-4.714,9.638a1.73,1.73,0,0,0-.141,1.5c.233.611.358,1.262.54,1.893.278.968.339,2.018,1.762,2.186.71.084,1.086.886,1.333,1.6q4.547,13.11,9.105,26.217a1.549,1.549,0,0,1-.536,2.078c-.938.582-1.607.022-2.226-.625A1.79,1.79,0,0,0,98.047,73q-1.674-4.835-3.356-9.665C92.948,58.315,91.2,53.3,89.478,48.273c-.21-.616-.431-.876-1.1-.56-.645.307-1.334.52-2,.774-2.916.99-5.825,2-8.755,2.954-.715.232-.8.494-.556,1.179,2.049,5.814,4.042,11.648,6.083,17.465.932,2.653,1.734,5.354,2.844,7.943,0,.065-.012.131-.012.2,0,1.095-.394,1.686-1.229,1.837-.8.144-1.378-.3-1.751-1.36q-1.574-4.5-3.135-9C78.4,65.5,76.941,61.29,75.457,57.016c-1.088.99-2.134,1.962-3.205,2.905-.517.455-1.081.856-1.625,1.279a1.532,1.532,0,0,1-2.212-.063c-.594-1.09-.525-1.573.494-2.345a50.339,50.339,0,0,0,4.471-4,1.689,1.689,0,0,0,.355-2.527c-.017-.72-.211-1.56.346-2.082,1.066-1,.278-1.773-.088-2.774-5.53,8.567-13.2,13.307-23.335,13.322-10.178.016-17.881-4.721-23.5-13.427-.082.924-1,1.558-.467,2.219a3.617,3.617,0,0,1,.791,2.741c-.15.61-.879,1.126-.224,1.859A30.532,30.532,0,0,0,49.179,64.72a29.923,29.923,0,0,0,13.374-2.353,1.669,1.669,0,0,1,2.318.6M41.491,39.631a5.445,5.445,0,0,0,4.878,3.94q4.236.119,8.478,0a5.431,5.431,0,0,0,4.876-3.94,4.938,4.938,0,0,0,.472-2.091,23.911,23.911,0,0,0,.525-5.083,3.925,3.925,0,0,0-3.961-3.928,62.724,62.724,0,0,0-12.3,0c-2.369.233-3.788,1.452-3.928,3.831a23.158,23.158,0,0,0,.964,7.272M16.216,45.712c2.291.806,4.589,1.587,6.865,2.433.556.207.666-.052.822-.445q4.445-11.21,8.892-22.419a3.317,3.317,0,0,0-1.721-4.469c-.472-.245-.666-.17-.888.286-.4.826-.884,1.613-1.3,2.432a1.862,1.862,0,0,1-1.741,1.234,1.887,1.887,0,0,1-1.71-1.4q-1.6-3.813-3.265-7.6c-.72-1.646-2.14-1.964-3.468-.781a32.814,32.814,0,0,1-5.452,4.5,7.252,7.252,0,0,0-2.3,9.212A68.9,68.9,0,0,0,14.4,35.564a8.211,8.211,0,0,1,.728,8.241c-.613,1.38-.457,1.449,1.092,1.906m68.784,0c1.55-.45,1.55-.45,1.123-1.923-.284-.978-.527-1.971-.866-2.929a3.007,3.007,0,0,1,.238-2.538q2.416-4.744,4.729-9.539a7.258,7.258,0,0,0-2.258-9.3,29.912,29.912,0,0,1-5.23-4.307c-1.593-1.459-2.969-1.15-3.825.85Q77.3,19.784,75.7,23.545a1.753,1.753,0,0,1-3.282.158c-.466-.868-.961-1.721-1.394-2.606-.225-.459-.422-.525-.889-.282a3.348,3.348,0,0,0-1.691,4.564c1.442,3.665,2.905,7.321,4.361,10.98q2.239,5.625,4.478,11.251c.155.391.188.79.849.542,2.272-.853,4.574-1.63,6.864-2.437M65.916,27.159c-1.442-4.463-.85-6.343,2.754-9C58.877,6.647,41.156,7.6,32.563,18.211c3.437,2.27,3.957,3.909,2.8,8.934a61.989,61.989,0,0,1,30.549.015m-21.283,29.9c-.589-2.75-1.15-5.31-1.682-7.877-.425-2.055-.512-4.229-2.564-5.57a3,3,0,0,0-1.3-.709c-3-.389-5.986-.829-8.979-1.245a1.012,1.012,0,0,0-.571.019,3.507,3.507,0,0,0-.552,2.518,23.223,23.223,0,0,0,5.19,7.123,23.774,23.774,0,0,0,10.459,5.741m12-.181a.518.518,0,0,0,.544.026A24.07,24.07,0,0,0,71.926,44.916a2.883,2.883,0,0,0-.053-2.929c-.166-.348-.357-.378-.687-.331q-4.642.661-9.288,1.3a1.136,1.136,0,0,0-.711.257c-2.091,1.95-2.095,1.944-2.69,4.871-.092.451-.2.9-.3,1.348-.525,2.5-1.047,4.991-1.563,7.452M50.669,46.553v-.005c-1.546,0-3.092.027-4.638-.015-.528-.015-.6.117-.492.6q1.077,4.955,2.1,9.922c.086.416.242.635.685.672a28.116,28.116,0,0,0,4.534,0,.688.688,0,0,0,.708-.649c.682-3.311,1.374-6.621,2.1-9.923.13-.591-.046-.631-.561-.618-1.479.039-2.96.014-4.441.014M63.063,29.585a9.93,9.93,0,0,1,.614,4.592c-.265,1.655-.44,3.325-.721,4.976-.1.6.03.659.583.573,2.046-.317,4.1-.617,6.153-.85.706-.08.832-.271.567-.916-.9-2.19-1.759-4.4-2.625-6.6-.137-.348-.278-.654-.684-.768a36.719,36.719,0,0,0-3.886-1.006m-24.772-.1c-1.516.416-2.743.757-3.973,1.091a.968.968,0,0,0-.684.639Q32.28,34.656,30.9,38.088c-.187.47-.124.7.463.764q2.5.287,4.978.691c2.042.33,1.972.361,1.7-1.692-.358-2.712-1.194-5.445.245-8.367" transform="translate(0 0)" fill="#030303"/>
        <path id="Path_182620" data-name="Path 182620" d="M125.666,103.031c-1.11-2.59-1.912-5.29-2.844-7.943-2.042-5.817-4.035-11.651-6.083-17.465-.241-.685-.16-.947.556-1.179,2.93-.949,5.838-1.964,8.755-2.954a2.905,2.905,0,0,0,.248,1.244c.751,2.132,1.524,4.256,2.271,6.389q2.3,6.584,4.587,13.179c.628,1.823,1.2,3.664,1.8,5.5-3.06,1.185-6.164,2.246-9.294,3.231" transform="translate(-39.674 -25.002)" fill="#dd636d"/>
        <path id="Path_182621" data-name="Path 182621" d="M17.9,73.491l9.146,3.1c.635.215.282.62.167.955q-1.893,5.5-3.8,11-2.389,6.894-4.785,13.786a6.531,6.531,0,0,1-.336.695q-4.7-1.478-9.3-3.227c.717-2.1,1.428-4.209,2.15-6.312q3.08-8.968,6.169-17.932a5.513,5.513,0,0,0,.591-2.061" transform="translate(-3.057 -25.002)" fill="#dd636d"/>
        <path id="Path_182622" data-name="Path 182622" d="M54.851,4.328a2.377,2.377,0,0,0,2.611.751c12.616-2.241,22.94,1.678,31,11.618a1.1,1.1,0,0,1,.181,1.329c-.532,1.124-1,2.276-1.527,3.481C81.463,13.228,73.851,8.4,63.772,8.4s-17.665,4.807-23.355,13.1c-.567-1.316-1.145-2.618-1.688-3.934-.188-.457.236-.721.462-1.016A30.311,30.311,0,0,1,50.073,7.6a1.756,1.756,0,0,0,1.177-2.19c1.2-.364,2.287-1.1,3.6-1.079" transform="translate(-13.16 -1.472)" fill="#8a7f8d"/>
        <path id="Path_182623" data-name="Path 182623" d="M78.787,89.922a1.669,1.669,0,0,0-2.318-.6A29.914,29.914,0,0,1,63.1,91.672,30.533,30.533,0,0,1,41.173,81.081c-.655-.732.075-1.249.224-1.859a.9.9,0,0,1,.664.376,30.136,30.136,0,0,0,6.756,5.039,32.111,32.111,0,0,0,13.928,4.052,29.389,29.389,0,0,0,8.016-.577,32.637,32.637,0,0,0,14.129-6.576c.94-.752,1.6-1.836,2.759-2.314a1.689,1.689,0,0,1-.355,2.527,50.339,50.339,0,0,1-4.471,4c-1.018.772-1.088,1.255-.494,2.346l-3.544,1.832" transform="translate(-13.916 -26.952)" fill="#756c77"/>
        <path id="Path_182624" data-name="Path 182624" d="M139.82,99.331c-.6-1.833-1.175-3.674-1.8-5.5q-2.273-6.6-4.588-13.179c-.746-2.133-1.52-4.257-2.27-6.388a2.889,2.889,0,0,1-.248-1.245c.67-.254,1.359-.466,2-.773.667-.317.887-.057,1.1.559,1.721,5.026,3.47,10.043,5.212,15.061q1.677,4.833,3.357,9.665a1.8,1.8,0,0,1,.215.947c-1.037.128-1.929.761-2.977.851" transform="translate(-44.535 -24.533)" fill="#d94854"/>
        <path id="Path_182625" data-name="Path 182625" d="M16.357,73.027a5.513,5.513,0,0,1-.591,2.061Q12.675,84.051,9.6,93.02c-.722,2.1-1.434,4.208-2.15,6.312a15.815,15.815,0,0,1-2.984-.976C5.736,94.625,7,90.89,8.283,87.165c1.64-4.754,3.316-9.5,4.927-14.258.271-.8.606-.95,1.328-.6.586.282,1.211.484,1.818.722" transform="translate(-1.518 -24.539)" fill="#d94854"/>
        <path id="Path_182626" data-name="Path 182626" d="M120.126,53.073c-2.29.806-4.591,1.584-6.864,2.437-.66.247-.693-.151-.848-.542q-2.236-5.627-4.478-11.251c-1.456-3.659-2.92-7.315-4.362-10.98a3.35,3.35,0,0,1,1.691-4.564c.468-.242.665-.176.889.282.433.884.928,1.738,1.395,2.606a1.752,1.752,0,0,0,3.282-.158q1.6-3.76,3.206-7.517c.856-2,2.231-2.309,3.825-.85a29.883,29.883,0,0,0,5.231,4.307,10.859,10.859,0,0,1-1.479,7.731c-1.327,2.457-2.522,4.987-3.757,7.493a2.435,2.435,0,0,0-.39,1.964c.3.867.559,1.748.815,2.629.622,2.136,1.231,4.276,1.845,6.414" transform="translate(-35.127 -7.358)" fill="#fdcbbc"/>
        <path id="Path_182627" data-name="Path 182627" d="M19.969,26.845a32.749,32.749,0,0,0,5.452-4.5c1.327-1.184,2.747-.864,3.468.781q1.66,3.788,3.265,7.6a1.889,1.889,0,0,0,1.71,1.4A1.862,1.862,0,0,0,35.6,30.89c.417-.819.9-1.606,1.3-2.431.222-.456.416-.531.887-.286a3.317,3.317,0,0,1,1.721,4.469Q35.087,43.859,30.622,55.06c-.156.393-.265.651-.821.445-2.276-.845-4.575-1.628-6.865-2.433.812-2.8,1.566-5.613,2.465-8.381a3.293,3.293,0,0,0-.229-2.718c-1.253-2.46-2.412-4.971-3.724-7.4a10.852,10.852,0,0,1-1.479-7.729" transform="translate(-6.72 -7.36)" fill="#fdcbbc"/>
        <path id="Path_182628" data-name="Path 182628" d="M62.374,54.187a23.16,23.16,0,0,1-.964-7.272c.141-2.379,1.56-3.6,3.928-3.831a62.622,62.622,0,0,1,12.3,0A3.924,3.924,0,0,1,81.6,47.012a23.906,23.906,0,0,1-.525,5.083,4.947,4.947,0,0,1-.472,2.091,1.242,1.242,0,0,0-.812.317,7.822,7.822,0,0,1-5,1.457c-2.336-.015-4.671-.007-7.008,0a9.443,9.443,0,0,1-3.156-.63c-.815-.285-1.37-1.039-2.259-1.14m9.064.4a4.535,4.535,0,0,0,4.6-4.527,4.545,4.545,0,1,0-9.09-.006,4.531,4.531,0,0,0,4.493,4.533" transform="translate(-20.884 -14.555)" fill="#a098a3"/>
        <path id="Path_182629" data-name="Path 182629" d="M74.13,70.546c1.481,0,2.961.025,4.44-.014.515-.014.691.027.561.618-.727,3.3-1.419,6.612-2.1,9.923a.687.687,0,0,1-.707.649,28.117,28.117,0,0,1-4.534,0c-.443-.036-.6-.256-.685-.672q-1.028-4.966-2.1-9.922c-.1-.482-.036-.614.492-.6,1.545.042,3.092.015,4.638.015v.005" transform="translate(-23.461 -23.994)" fill="#d9e7f9"/>
        <path id="Path_182630" data-name="Path 182630" d="M87.412,76.664c-1.161.478-1.818,1.562-2.759,2.314a32.637,32.637,0,0,1-14.129,6.576,29.387,29.387,0,0,1-8.016.577A32.12,32.12,0,0,1,48.58,82.079a30.151,30.151,0,0,1-6.756-5.039.9.9,0,0,0-.664-.376,3.617,3.617,0,0,0-.791-2.741c-.528-.661.385-1.295.467-2.22,5.619,8.707,13.322,13.443,23.5,13.427,10.138-.016,17.806-4.756,23.335-13.322.367,1,1.155,1.778.088,2.774-.558.521-.364,1.361-.346,2.082" transform="translate(-13.678 -24.395)" fill="#897e8c"/>
        <path id="Path_182631" data-name="Path 182631" d="M127.41,55.763c-.614-2.138-1.223-4.278-1.845-6.414-.256-.881-.517-1.762-.815-2.629a2.435,2.435,0,0,1,.39-1.964c1.235-2.507,2.43-5.036,3.757-7.493a10.859,10.859,0,0,0,1.479-7.731,7.26,7.26,0,0,1,2.258,9.3q-2.309,4.8-4.729,9.538a3.008,3.008,0,0,0-.238,2.539c.34.958.582,1.951.866,2.929.428,1.473.427,1.473-1.123,1.923" transform="translate(-42.411 -10.047)" fill="#e8ac9b"/>
        <path id="Path_182632" data-name="Path 182632" d="M18.5,29.533a10.852,10.852,0,0,0,1.479,7.729c1.312,2.428,2.471,4.939,3.724,7.4a3.293,3.293,0,0,1,.229,2.718c-.9,2.768-1.653,5.584-2.465,8.381-1.549-.457-1.7-.527-1.092-1.906a8.21,8.21,0,0,0-.728-8.242,68.957,68.957,0,0,1-3.45-6.866,7.252,7.252,0,0,1,2.3-9.213" transform="translate(-5.249 -10.047)" fill="#e8ac9b"/>
        <path id="Path_182633" data-name="Path 182633" d="M95.509,44.84A36.718,36.718,0,0,1,99.4,45.847c.405.113.547.42.684.768.866,2.2,1.727,4.41,2.625,6.6.265.645.139.836-.567.916-2.057.234-4.107.533-6.153.85-.552.084-.684.027-.583-.573.281-1.652.456-3.321.721-4.976a9.933,9.933,0,0,0-.614-4.593" transform="translate(-32.446 -15.255)" fill="#746b76"/>
        <path id="Path_182634" data-name="Path 182634" d="M54.178,44.688c-1.439,2.922-.6,5.654-.245,8.367.271,2.053.341,2.022-1.7,1.692q-2.48-.4-4.978-.691c-.587-.067-.65-.294-.463-.764q1.37-3.434,2.729-6.874a.968.968,0,0,1,.684-.639c1.23-.334,2.458-.674,3.973-1.091" transform="translate(-15.887 -15.203)" fill="#746b76"/>
        <path id="Path_182635" data-name="Path 182635" d="M62.885,60.066c.889.1,1.444.856,2.259,1.14a9.446,9.446,0,0,0,3.156.63c2.336-.005,4.672-.013,7.008,0a7.82,7.82,0,0,0,5-1.457,1.242,1.242,0,0,1,.812-.316,5.432,5.432,0,0,1-4.876,3.94q-4.236.119-8.478,0a5.446,5.446,0,0,1-4.878-3.94" transform="translate(-21.394 -20.435)" fill="#8a7f8d"/>
        <path id="Path_182636" data-name="Path 182636" d="M74.306,55.99a4.531,4.531,0,0,1-4.493-4.532,4.545,4.545,0,1,1,9.091.005,4.534,4.534,0,0,1-4.6,4.527m1.63-4.481a1.579,1.579,0,0,0-3.154-.144,1.579,1.579,0,1,0,3.154.144" transform="translate(-23.751 -15.958)" fill="#030303"/>
        <path id="Path_182637" data-name="Path 182637" d="M77.466,53.04a1.579,1.579,0,1,1-3.154-.144,1.579,1.579,0,0,1,3.154.144" transform="translate(-25.281 -17.489)" fill="#b7d1f3"/>
      </g>
    </g>
  </g>
</svg>
