<svg xmlns="http://www.w3.org/2000/svg" xmlns:xlink="http://www.w3.org/1999/xlink" width="155" height="110" viewBox="0 0 155 110">
  <defs>
    <clipPath id="clip-path">
      <rect id="Rectangle_45259" data-name="Rectangle 45259" width="63.772" height="90.312" fill="none"/>
    </clipPath>
  </defs>
  <g id="_13" data-name="13" transform="translate(-116 10241)">
    <g id="Group_174625" data-name="Group 174625" transform="translate(-582 -14715.297)">
      <g id="Group_165391" data-name="Group 165391" transform="translate(698 4474.297)">
        <rect id="Rectangle_40797" data-name="Rectangle 40797" width="155" height="110" fill="#ffe891"/>
      </g>
    </g>
    <g id="Group_174940" data-name="Group 174940" transform="translate(162 -10231)">
      <g id="Group_174939" data-name="Group 174939" clip-path="url(#clip-path)">
        <path id="Path_182638" data-name="Path 182638" d="M52,116.166H13.927c-.4-.46-.276-1.022-.276-1.547q-.014-13.1-.007-26.2a8.16,8.16,0,0,0-.039-1.254c-.055-.358-.122-.765-.587-.773-.481-.008-.529.4-.573.763a8.423,8.423,0,0,0-.026.986c-.012,3.353.264,3.008-3.066,3.01a8.847,8.847,0,0,1-2.674-.135c-.4-.25-.36-.665-.361-1.044-.013-3.679-.043-7.358.008-11.037a5.479,5.479,0,0,1,4.24-4.981q4.345-1.109,8.72-2.108a6.1,6.1,0,0,0,1.035-.292c.348-.147.673-.362.574-.793-.108-.466-.516-.429-.878-.378-.415.058-.82.171-1.227.268-2.792.671-5.589,1.317-8.372,2.025a6.787,6.787,0,0,0-5.249,5.212,13.724,13.724,0,0,0-.321,3.3c0,2.811,0,5.623-.005,8.434a2.068,2.068,0,0,1-.214,1.3c-1.417.5-1.908.188-1.913-1.27q-.015-5.16,0-10.321a9.033,9.033,0,0,1,6.516-8.707c4.755-1.321,9.59-2.337,14.38-3.526.875-.217,1.082-.02,1.373.943a8.23,8.23,0,0,0,15.808.47c.06-.2.1-.407.166-.606.271-.842.519-1,1.4-.8,1.4.315,2.793.667,4.187,1.007,3.225.789,6.472,1.5,9.675,2.371a9.179,9.179,0,0,1,6.759,6.664,6.249,6.249,0,0,1,.242,1.771c0,3.56,0,7.12,0,10.68,0,1.4-.143,1.535-1.548,1.539-2.244.007-4.487.011-6.731,0-1.23-.007-1.38-.171-1.4-1.412-.012-.837.019-1.676-.016-2.512-.017-.4-.09-.842-.588-.865s-.593.42-.644.816a9.073,9.073,0,0,0-.027,1.165q0,13.192-.007,26.385c0,.494.129,1.026-.253,1.461" transform="translate(-1.08 -26.695)" fill="#72c1e8"/>
        <path id="Path_182639" data-name="Path 182639" d="M50.922,89.47q.015-5.877.029-11.753.008-8.436,0-16.872a6.785,6.785,0,0,1,.01-.717c.058-.546.354-.922.917-.9a.844.844,0,0,1,.865.942c0,1.137.026,2.274-.006,3.41-.014.51.148.671.66.667q3.948-.032,7.9,0c.493,0,.676-.127.673-.649-.024-3.649.052-7.3-.043-10.948a8.833,8.833,0,0,0-6.908-8.631c-4.654-1.191-9.343-2.247-14-3.412-.635-.159-.74.031-.86.559a8.465,8.465,0,0,1-16.517.108c-.152-.686-.35-.809-1.041-.637-4.546,1.132-9.112,2.185-13.66,3.308a8.969,8.969,0,0,0-7.1,8.776c-.082,3.618-.014,7.239-.034,10.858,0,.5.135.722.654.662.354-.041.712-.042,1.069-.06a1.757,1.757,0,0,1,1.946,0c1.672.018,3.344.027,5.015.062.456.01.546-.2.54-.6-.017-1.106.005-2.212-.009-3.317-.01-.634.231-1.1.892-1.1s.9.486.905,1.1c0,1.614,0,3.228,0,4.843q.014,12.15.029,24.3c-.162.467-.415.864-.971.84a.909.909,0,0,1-.88-.82,2.464,2.464,0,0,1-.226-1.481q-.008-9.866,0-19.731c0-.269,0-.538,0-.807-.026-1.075-.129-1.181-1.183-1.21-2.122-.058-4.245-.031-6.367-.036-.33,0-.665-.021-.894.289a3.088,3.088,0,0,0-.132,1.329q-.006,10,0,20a2.554,2.554,0,0,1-.4,1.791.871.871,0,0,1-1.115.631c-.535-.138-.652-.558-.657-1.04,0-.149,0-.3,0-.448Q.008,71.1,0,53.425A11.15,11.15,0,0,1,4.144,44.3,12.7,12.7,0,0,1,9.5,41.945c4.355-1.028,8.7-2.09,13.06-3.106.668-.156.967-.425.856-1.135a4.881,4.881,0,0,1,0-1.253,1.218,1.218,0,0,0-.588-1.283,1.021,1.021,0,0,1-.43-1.392c.605-.667,1.047-.7,1.909-.01a13.065,13.065,0,0,0,3.554,2.056A11.6,11.6,0,0,0,43.481,25.058c0-.748-.005-1.5,0-2.244a1.123,1.123,0,0,0-.723-1.117,4.78,4.78,0,0,1-2.872-4.757c.025-1.106-.01-2.213.008-3.319.011-.639-.234-.916-.9-.914q-7.133.015-14.266,0c-.611,0-.863.243-.857.853.013,1.256.019,2.512,0,3.768a4.589,4.589,0,0,1-2.651,4.255,1.462,1.462,0,0,0-.946,1.528,25.155,25.155,0,0,0,.27,4.646c.187.833-.048,1.108-.863,1.367a1.055,1.055,0,0,1-1.121-1.038c-.093-.68-.268-1.352-.307-2.034-.026-.457-.14-.647-.609-.771A5.926,5.926,0,0,1,17.632,13.7c.5-.129.575-.366.571-.809-.019-2.095.054-4.192-.02-6.284C18.051,2.845,21.138-.815,26.5.159a4.084,4.084,0,0,1,2.358,1.378c.254.289.389.336.674.019A4.667,4.667,0,0,1,33.308.035c1.945.038,3.89,0,5.835.012a6.212,6.212,0,0,1,6.424,6.377c.025,2.124.019,4.249,0,6.374-.005.511.081.779.661.918a5.921,5.921,0,0,1,.069,11.517.857.857,0,0,0-.789.911,13.04,13.04,0,0,1-4.391,8.846,2.045,2.045,0,0,0-.757,1.757c.04,1.86.015,1.853,1.852,2.3,4.411,1.066,8.824,2.121,13.228,3.213a10.609,10.609,0,0,1,8.247,9.964c.15,6.341.058,12.687.08,19.032a1.091,1.091,0,0,1-.869,1.153c-.845-.008-1.177-.321-1.254-1.315-.091-1.179-.017-2.364-.038-3.546a1.7,1.7,0,0,0-.2-1.109c-.3-.286-.674-.209-1.025-.209-2,0-4.006-.02-6.009.029-1.282.032-1.364.092-1.365,1.39Q53,77.828,53,88.009a2.459,2.459,0,0,1-.226,1.481.914.914,0,0,1-.881.821c-.557.023-.809-.372-.97-.841" transform="translate(0 0)"/>
        <path id="Path_182640" data-name="Path 182640" d="M32.718,37.355a1.082,1.082,0,0,0,.627-1.463,23.57,23.57,0,0,1-.325-5.444c-.014-.409.242-.475.529-.588a4.524,4.524,0,0,0,3.141-4.608c.008-1.286.022-2.573-.008-3.858-.011-.508.067-.738.668-.735q7.583.038,15.164,0c.524,0,.654.17.643.667-.03,1.375-.021,2.751-.006,4.127a4.521,4.521,0,0,0,3.072,4.391c.267.1.593.1.592.534a20.174,20.174,0,0,1-.664,6.654A11.9,11.9,0,0,1,37.207,42.2c-.581-.489-1.111-.831-1.783-.2-.1-.679-.652-1.014-1.1-1.431-.005-.029-.024-.064-.015-.087.5-1.279.168-1.227-.874-1.525a6.286,6.286,0,0,0-.721-1.609" transform="translate(-13.033 -8.23)" fill="#fdb59e"/>
        <path id="Path_182641" data-name="Path 182641" d="M96.9,109.876a42.709,42.709,0,0,1,.087,4.972c.012.692.239,1.144.945,1.286.133.587-.123,1.217.2,1.783-1.035.792-1.039.834-.2,1.81.128.587-.122,1.216.2,1.781a2.624,2.624,0,0,0-.957,2.435c.042,2.651.019,5.3.01,7.956a1.8,1.8,0,0,1-.248,1.284l-8.983.036c.137-.6.647-.419,1.017-.45,1.149-.1,1.182-.1,1.183-1.279q.009-9.956,0-19.911c0-1.787,0-1.808,1.738-1.781a49.8,49.8,0,0,1,5.006.078" transform="translate(-35.036 -43.728)" fill="#fdb59e"/>
        <path id="Path_182642" data-name="Path 182642" d="M2.963,133.364q.014-10.542.034-21.083a9.508,9.508,0,0,1,.09-2.4,3.39,3.39,0,0,1,1.658.006,2.2,2.2,0,0,1,.226,1.389q.012,5.92,0,11.841a5.9,5.9,0,0,0,.164,1.69c.087.3.2.6.571.585.316-.016.425-.289.5-.557a5.9,5.9,0,0,0,.171-1.689c0-3.977,0-7.954.005-11.931a1.848,1.848,0,0,1,.272-1.369c.8-.1,1.612-.007,2.417-.054.466-.026.648.211.706.62a8.917,8.917,0,0,1,.044,1.254q0,9.646,0,19.292c0,.3.014.6,0,.9-.023.643.271.894.914.921.448.019,1.046-.223,1.286.449q-4.016,0-8.031-.009a1.8,1.8,0,0,0-1.04.151" transform="translate(-1.18 -43.731)" fill="#fdb59e"/>
        <path id="Path_182643" data-name="Path 182643" d="M12.117,133.2c-.489-.351-1.048-.176-1.56-.147-.759.043-.951-.229-.949-.966.026-6.791.016-13.582.016-20.373,0-1.839,0-1.841-1.827-1.836-.359,0-.717.024-1.075.037a2.09,2.09,0,0,1-1.919,0l-1.633-.057c.091-.161.248-.138.393-.138,2.692,0,5.384.022,8.076.008.518,0,.656.18.655.679q-.032,11.4-.035,22.794l-.071.022Z" transform="translate(-1.262 -43.705)" fill="#e88e7b"/>
        <path id="Path_182644" data-name="Path 182644" d="M96.785,109.861c-1.822.006-3.646.052-5.467,0-.781-.022-1.01.183-1.006.989.033,6.992.019,13.985.019,20.976,0,1.209,0,1.191-1.2,1.22-.43.01-.9-.174-1.291.158l-.071.022L87.7,133.2q-.013-11.4-.03-22.794c0-.409.035-.679.561-.677,2.782.013,5.564,0,8.345,0,.072,0,.143.082.214.126" transform="translate(-34.922 -43.713)" fill="#e88e7b"/>
        <path id="Path_182645" data-name="Path 182645" d="M12.119,55.128c-.333-.008-.626-.27-.76-.774a8.675,8.675,0,0,0-.615-1.862,3.778,3.778,0,0,0-2.289-1.741c-.483-.171-.852-.466-.812-1.04a.988.988,0,0,1,.85-.912,3.716,3.716,0,0,0,2.686-2.95c.078-.288.137-.582.241-.86a.884.884,0,0,1,.913-.592.869.869,0,0,1,.836.573c.114.306.182.63.27.946a3.691,3.691,0,0,0,2.648,2.878.993.993,0,0,1,.869.989.955.955,0,0,1-.8.952A3.838,3.838,0,0,0,13.35,54c-.131.56-.286,1.133-1.23,1.131" transform="translate(-3.043 -17.685)"/>
        <path id="Path_182646" data-name="Path 182646" d="M87.553,55.132a.866.866,0,0,1-.91-.584,4.177,4.177,0,0,1-.188-.69,3.725,3.725,0,0,0-2.669-3.068c-.514-.162-.946-.436-.918-1.053.025-.561.411-.813.916-.956a3.5,3.5,0,0,0,2.523-2.654c.094-.345.207-.684.305-1.028a.947.947,0,0,1,1.832.025c.051.2.119.4.171.6a3.793,3.793,0,0,0,2.764,3.094.951.951,0,0,1,.8.947.94.94,0,0,1-.783.963,3.848,3.848,0,0,0-2.819,3.252c-.131.555-.268,1.14-1.026,1.152" transform="translate(-33.011 -17.688)"/>
        <path id="Path_182647" data-name="Path 182647" d="M102.883,140.95c.019-3.458.045-6.915.053-10.372,0-.792.188-1.371,1.142-1.3.585.209.672.682.671,1.223q-.008,5.043,0,10.087c0,.535-.068,1.038-.7,1.185-.678.16-.956-.293-1.168-.82" transform="translate(-40.984 -51.495)" fill="#040303"/>
        <path id="Path_182648" data-name="Path 182648" d="M33.651,51a.9.9,0,0,1,1.248.309c.354.551.046.948-.359,1.3a.935.935,0,0,1-1.166-.412.918.918,0,0,1,.277-1.2" transform="translate(-13.246 -20.266)" fill="#060505"/>
        <path id="Path_182649" data-name="Path 182649" d="M103.94,125.117c-.555-.145-.992-.406-.893-1.075.091-.623.54-.768,1.091-.735a.911.911,0,0,1,.644.945c-.011.558-.47.666-.842.865" transform="translate(-41.044 -49.118)" fill="#030303"/>
        <path id="Path_182650" data-name="Path 182650" d="M7.8,92.867a6.762,6.762,0,0,1-1.946,0c0-3.379-.035-6.758.022-10.136a10.559,10.559,0,0,1,.53-3.781,7.2,7.2,0,0,1,5.248-4.562c3.147-.776,6.3-1.517,9.457-2.272.582-.139,1.209-.229,1.391.519.177.732-.3,1.058-.976,1.217-3.183.759-6.353,1.569-9.543,2.3a5.584,5.584,0,0,0-4.209,5.325c.094,3.8.026,7.594.027,11.392" transform="translate(-2.328 -28.69)" fill="#c4e4fd"/>
        <path id="Path_182651" data-name="Path 182651" d="M50.129,5.531a2.578,2.578,0,0,1,2.426-2.445c2.392-.054,4.788-.082,7.177.007A4.3,4.3,0,0,1,63.65,7.005c.083,1.431.02,2.87.046,4.306.008.442-.177.554-.586.553q-6.282-.015-12.564,0c-.455,0-.557-.188-.542-.59.023-.627,0-1.256.009-1.884a2.821,2.821,0,0,1,2.9-2.888c2.6-.023,5.2-.013,7.808,0,.6,0,1.043-.241,1.069-.837.027-.64-.409-.954-1.047-.96h-.09c-2.662,0-5.325,0-7.987.008a5.4,5.4,0,0,0-2.538.821" transform="translate(-19.919 -1.209)" fill="#868686"/>
        <path id="Path_182652" data-name="Path 182652" d="M55.222,63.956a6.693,6.693,0,1,1-13.282,0c.315-.137.581.037.851.147a14.962,14.962,0,0,0,11.5.035c.3-.116.583-.325.934-.181" transform="translate(-16.697 -25.457)" fill="#fdb59e"/>
        <path id="Path_182653" data-name="Path 182653" d="M41.463,5.621c-1.765-1.248-3.663-.868-5.5-.888a.821.821,0,0,0-.843.878.84.84,0,0,0,.919.886c.866.014,1.734-.006,2.6.013a2.793,2.793,0,0,1,2.872,2.9c0,.794.353,1.817-.164,2.322-.472.461-1.479.124-2.25.132-1.7.018-3.408-.014-5.112.017-.561.01-.8-.122-.774-.737.047-1.254-.007-2.511.025-3.766A4.4,4.4,0,0,1,37.535,3.07c.418-.013.837-.015,1.256,0a2.737,2.737,0,0,1,2.673,2.548" transform="translate(-13.231 -1.219)" fill="#868686"/>
        <path id="Path_182654" data-name="Path 182654" d="M27.969,29.783c0,1.164-.016,2.328.008,3.493.009.456-.091.555-.555.422a4.177,4.177,0,0,1-.131-7.9c.484-.154.706-.091.688.494-.035,1.163-.01,2.328-.01,3.492" transform="translate(-9.774 -10.248)" fill="#fcb49e"/>
        <path id="Path_182655" data-name="Path 182655" d="M75.747,33.766c0-2.564.007-5.068,0-7.572,0-.827.478-.477.824-.346a4.133,4.133,0,0,1-.82,7.918" transform="translate(-30.173 -10.223)" fill="#fcb49e"/>
        <path id="Path_182656" data-name="Path 182656" d="M55.211,62.959a14.7,14.7,0,0,1-13.282,0c-.015-.387-.034-.774-.041-1.161a2.5,2.5,0,0,1,.063-.394,13.935,13.935,0,0,0,13.241,0,4.668,4.668,0,0,1,.019,1.555" transform="translate(-16.686 -24.46)" fill="#e98e7b"/>
        <path id="Path_182657" data-name="Path 182657" d="M33.226,24.337c0-.985.048-1.973-.016-2.954-.048-.745.36-.757.878-.708.448.042,1.049-.239,1.013.659-.057,1.431-.01,2.865-.026,4.3A2.634,2.634,0,0,1,33.8,27.866c-.38.258-.584.22-.576-.305.016-1.075,0-2.149,0-3.224" transform="translate(-13.228 -8.229)" fill="#868686"/>
        <path id="Path_182658" data-name="Path 182658" d="M71.515,24.407c0,.985.009,1.97-.007,2.955,0,.215.14.525-.151.631-.24.087-.44-.135-.621-.28a2.534,2.534,0,0,1-1.063-1.982c-.022-1.492.01-2.985-.026-4.477-.021-.866.594-.544.993-.573s.923-.176.887.593c-.049,1.043-.012,2.089-.012,3.134" transform="translate(-27.744 -8.224)" fill="#868686"/>
        <path id="Path_182659" data-name="Path 182659" d="M49.527,47.962a5.283,5.283,0,0,1-5.27-4.864c-.037-.608-.007-1.2.762-1.28.748-.08.945.434,1.028,1.069a3.468,3.468,0,0,0,6.924.033c.078-.624.245-1.162,1-1.106s.832.631.8,1.251a5.284,5.284,0,0,1-5.24,4.9" transform="translate(-17.626 -16.655)"/>
        <path id="Path_182660" data-name="Path 182660" d="M51.5,31.935q0-1.343,0-2.685c0-.6.31-1,.9-1s.892.406.892,1.01q0,2.73,0,5.459c0,.582-.226,1.01-.86,1.029-.682.02-.936-.413-.934-1.041V31.935" transform="translate(-20.517 -11.255)"/>
        <path id="Path_182661" data-name="Path 182661" d="M62.922,30.024a2.393,2.393,0,0,1-.051.585.868.868,0,0,1-1.684-.053,6.68,6.68,0,0,1-.055-1.331c.019-.585.327-1,.928-.98s.877.432.863,1.029c0,.179,0,.357,0,.75" transform="translate(-24.349 -11.251)" fill="#050303"/>
        <path id="Path_182662" data-name="Path 182662" d="M44.892,29.949a2.01,2.01,0,0,1-.037.556.851.851,0,0,1-.969.73.814.814,0,0,1-.78-.828c-.019-.386-.007-.774-.011-1.161-.008-.607.294-1,.892-1s.877.427.9,1.01c.007.148,0,.3,0,.69" transform="translate(-17.167 -11.253)" fill="#040302"/>
        <path id="Path_182663" data-name="Path 182663" d="M5.876,110a7.678,7.678,0,0,1,1.92,0q.007,7,.008,14a7.619,7.619,0,0,1-.165,1.238.747.747,0,0,1-.847.633.734.734,0,0,1-.762-.632A8.995,8.995,0,0,1,5.869,124q-.01-7,.008-14" transform="translate(-2.337 -43.795)" fill="#f9dedf"/>
        <path id="Path_182664" data-name="Path 182664" d="M6.034,140.789a4.445,4.445,0,0,1,.079-.7.735.735,0,0,1,.788-.593.733.733,0,0,1,.791.589,3.959,3.959,0,0,1-.01,1.685.723.723,0,0,1-.821.55.736.736,0,0,1-.761-.632c-.031-.236-.037-.476-.066-.9" transform="translate(-2.404 -55.568)" fill="#f9dfe0"/>
        <path id="Path_182665" data-name="Path 182665" d="M15.824,52.487A5.3,5.3,0,0,0,14.492,54a6.582,6.582,0,0,0-1.412-1.5c.042-.075.062-.17.118-.2.565-.329.8-1.343,1.337-1.242.494.092.852.913,1.289,1.436" transform="translate(-5.211 -20.334)" fill="#ecbc1f"/>
        <path id="Path_182666" data-name="Path 182666" d="M89.717,53.907a7.228,7.228,0,0,0-1.451-1.482,1.389,1.389,0,0,1,.12-.173q.673-.686,1.349-1.368l1.294,1.527a5.673,5.673,0,0,0-1.312,1.5" transform="translate(-35.161 -20.27)" fill="#ebbc1f"/>
      </g>
    </g>
  </g>
</svg>
