<svg xmlns="http://www.w3.org/2000/svg" xmlns:xlink="http://www.w3.org/1999/xlink" width="144" height="138" viewBox="0 0 144 138">
  <defs>
    <clipPath id="clip-path">
      <rect id="Rectangle_45268" data-name="Rectangle 45268" width="86.288" height="86.285" fill="none"/>
    </clipPath>
  </defs>
  <g id="_13" data-name="13" transform="translate(-698 -4474.297)">
    <g id="Group_165391" data-name="Group 165391" transform="translate(161 3186.297)">
      <rect id="Rectangle_40797" data-name="Rectangle 40797" width="144" height="138" transform="translate(537 1288)" fill="#ffe891"/>
    </g>
    <g id="Group_174959" data-name="Group 174959" transform="translate(727 4500.297)">
      <g id="Group_174959-2" data-name="Group 174959" transform="translate(0 0)" clip-path="url(#clip-path)">
        <path id="Path_182838" data-name="Path 182838" d="M10.186,0H59.518c1.926.469,2.6,1.341,2.606,3.407q.008,13.17,0,26.341c0,.252,0,.5,0,.757.018.9.038.939.973.9a21.552,21.552,0,0,1,15.4,4.689c.947.792,1.064,1.3.616,2.243-.894.86-1.445.907-2.408.133a18.287,18.287,0,0,0-8.146-3.779c-6.33-1.03-11.88.469-16.535,5.011a18.4,18.4,0,0,0-1.1,25.22,18.1,18.1,0,0,0,10.133,6.06,18.839,18.839,0,0,0,7.515.056,17.182,17.182,0,0,0,8-3.695,18.557,18.557,0,0,0,4-24.5c-.151-.236-.323-.46-.451-.709a1.7,1.7,0,0,1,.225-2.162,1.53,1.53,0,0,1,2.24.55,21.768,21.768,0,0,1,3.26,6.945c.281,1,.229,2.039.442,3.044v4.714a17.194,17.194,0,0,1-1.646,6.466C80.833,69.431,74.7,73.76,66.014,74.346c-.983.067-1.961-.009-2.941-.017-.9-.008-.924.013-.939.944-.008.56.006,1.122-.005,1.683a3.259,3.259,0,0,1-3.215,3.411c-1.146.095-2.3.017-3.448.035-.987.015-1.059.086-1.076,1.046-.011.617.026,1.235-.022,1.85a2.988,2.988,0,0,1-3.189,2.983q-24.066.01-48.131,0C1.018,86.279,0,85.206,0,83.1Q0,62.615,0,42.126q0-10.854,0-21.71c0-1.161.187-1.443,1.139-1.775A1.549,1.549,0,0,1,2.852,20.2a12.756,12.756,0,0,1,.03,1.429q0,29.908,0,59.818c0,1.96,0,1.961,1.936,1.961H49.662c1.678,0,1.678,0,1.67-1.674-.006-1.281-.033-1.314-1.322-1.316-5.329,0-10.657.006-15.985-.006-1.38,0-1.835-.306-2.272-1.426.012-.982.323-1.327,1.433-1.589,7.65-.029,15.3-.007,22.951-.012.673,0,1.345-.04,2.017-.036.616,0,.949-.266.927-.909,0-.111,0,.028,0-.084.132-2.606.132-2.606-2.342-3.576a19.129,19.129,0,0,1-2.918-1.5,4.159,4.159,0,0,0-2.385-.646q-16.837.023-33.674.009a7.753,7.753,0,0,1-1.511-.07,1.55,1.55,0,0,1-1.389-1.626c.043-.8.574-1.274,1.535-1.345.392-.029.785-.016,1.178-.016q15.2,0,30.39,0a1.994,1.994,0,0,0,1.109-.15c-.748-.861-1.355-1.794-2.118-2.6-.331-.349-.845-.247-1.289-.247q-5.3-.009-10.607,0-8.838,0-17.678,0a5.638,5.638,0,0,1-1.258-.07,1.55,1.55,0,0,1-1.263-1.565,1.5,1.5,0,0,1,1.353-1.383,8.5,8.5,0,0,1,1.261-.038H43.486c.225,0,.449,0,.674,0,.949-.02,1-.09.685-.951C44.1,58.52,44.1,58.52,41.938,58.52q-12.206,0-24.413,0a6.916,6.916,0,0,1-1.343-.061,1.513,1.513,0,0,1-1.34-1.49A1.532,1.532,0,0,1,16.29,55.49a9.911,9.911,0,0,1,1.177-.028H41.88q.463,0,.926-.008c.519-.006.794-.205.69-.774a7.469,7.469,0,0,1-.073-1.175c-.023-.972-.082-1.041-1.076-1.043q-6.061-.012-12.122,0-6.482,0-12.964,0a5.631,5.631,0,0,1-1.175-.06,1.513,1.513,0,0,1-1.237-1.4,1.456,1.456,0,0,1,1.05-1.459,4.472,4.472,0,0,1,1.5-.132q12.459,0,24.918,0c1.338,0,1.338,0,1.661-1.306.419-1.7.419-1.7-1.319-1.7H17.405a7.13,7.13,0,0,1-1.261-.048,1.5,1.5,0,0,1-1.283-1.358,1.537,1.537,0,0,1,1.087-1.532,4.747,4.747,0,0,1,1.5-.119c8.9,0,17.791-.017,26.686.02a2.031,2.031,0,0,0,2.2-1.261,8.8,8.8,0,0,1,.8-1.286c.2-.3.12-.465-.249-.475-.224-.006-.449,0-.673,0H17.422a8.032,8.032,0,0,1-1.345-.05,1.325,1.325,0,0,1-1.206-1.213,1.48,1.48,0,0,1,.886-1.569,3.86,3.86,0,0,1,1.655-.225c10.3,0,20.6-.016,30.9.019a4.266,4.266,0,0,0,3.116-1.121,17.515,17.515,0,0,1,5.467-3.257,9.671,9.671,0,0,1,1.255-.481,1.168,1.168,0,0,0,.947-1.352c-.026-2.384-.01-4.768-.01-7.153q0-9.761,0-19.522c0-.308,0-.617-.017-.925a.625.625,0,0,0-.681-.68c-.532-.017-1.064-.029-1.6-.021-3.171.029-6.342.011-9.513.012q-17.13,0-34.262,0c-.281,0-.561,0-.842,0-1.464.008-1.532.075-1.542,1.5,0,.14,0,.281,0,.42V75.434c0,1.907,0,1.908,1.89,1.908q7.618,0,15.236,0c.845,0,1.657.068,1.972,1.058.1,1.312-.427,1.944-1.756,1.99-1.626.056-3.254.017-4.881.017q-5.68,0-11.361,0c-2.828-.006-4.167-1.351-4.167-4.2q-.007-32.822,0-65.644c0-1.708,0-1.709-1.687-1.709-.645,0-1.291-.019-1.935.009-.876.038-1.031.18-1.047,1.054-.032,1.627.013,3.254-.02,4.881-.024,1.2-.387,1.644-1.477,1.905C.3,16.5.011,16.175.005,15.079,0,13.116,0,11.152,0,9.188A3.081,3.081,0,0,1,3.188,5.833c1.12-.065,2.244-.008,3.366-.023.94-.013,1.01-.085,1.026-1,.009-.533-.014-1.067.011-1.6A3.065,3.065,0,0,1,10.186,0" transform="translate(0 0)"/>
        <path id="Path_182839" data-name="Path 182839" d="M32.991,79.285a1.541,1.541,0,0,0-1.65-.873c-5.471.017-10.942.011-16.413.009-1.072,0-1.137-.066-1.137-1.152q0-36.4-.007-72.8c0-.664.053-1.125.924-1.124q22.642.026,45.283.014a2.355,2.355,0,0,1,.25.026c.493.269.428.753.433,1.19.018,1.6.008,3.2.008,4.793q0,11.521,0,23.042a2.308,2.308,0,0,1-.274,1.54,21.666,21.666,0,0,0-6.464,4.164,1.464,1.464,0,0,1-1.162.32q-16.161,0-32.323,0a4.845,4.845,0,0,0-1,.061,1.235,1.235,0,0,0,.114,2.435,7.561,7.561,0,0,0,.924.026q14.9,0,29.8,0h1.028a33.069,33.069,0,0,0-2.01,3.314c-.184.364-.555.188-.836.188q-11.911.016-23.821.008c-1.627,0-3.255-.019-4.882.011a1.221,1.221,0,0,0-1.3,1.249c-.008.76.494,1.227,1.362,1.263.224.01.449,0,.673,0H38.348c3.03,0,6.061.016,9.091-.013.633-.006.769.125.542.739a6.687,6.687,0,0,0-.47,1.952c-.038.8-.427.846-1.07.845q-13-.026-26.009-.011a6.379,6.379,0,0,0-.84.018,1.219,1.219,0,0,0-1.117,1.334,1.18,1.18,0,0,0,1.2,1.167c.25.022.5.007.757.007,8.614,0,17.228.01,25.842-.018.709,0,.912.173.86.867a8.371,8.371,0,0,0,.112,1.842c.092.614,0,.855-.728.852-6.369-.032-12.738-.019-19.107-.019q-3.661,0-7.324,0c-1.068,0-1.623.442-1.616,1.267s.564,1.256,1.637,1.257q13.426,0,26.851-.016c.643,0,.924.151,1.086.8.229.909.61,1.78.952,2.74H20.4a6.809,6.809,0,0,0-.841.014,1.144,1.144,0,0,0-1.085,1.09,1.179,1.179,0,0,0,.814,1.317,2.769,2.769,0,0,0,1.08.1q14.647,0,29.292-.009a1.219,1.219,0,0,1,1.217.639,22.406,22.406,0,0,0,2.3,2.873H52.159q-15.824,0-31.649,0a8.228,8.228,0,0,0-.924.025A1.137,1.137,0,0,0,18.475,69.8a1.163,1.163,0,0,0,1.041,1.306,4.761,4.761,0,0,0,.922.04q17.424,0,34.847-.008a2.631,2.631,0,0,1,1.642.474,25,25,0,0,0,3.314,1.8,1.052,1.052,0,0,1,.433,1.03c.017.981.028,1.962,0,2.942-.029.894-.131.976-1.053.976q-11.1,0-22.2,0a3.037,3.037,0,0,0-.918.048c-.584.219-1.162.443-1.167,1.216-1,.48-1.969.341-2.345-.338" transform="translate(-3.415 -0.828)" fill="#f9f6f7"/>
        <path id="Path_182840" data-name="Path 182840" d="M83.833,82.452a14.565,14.565,0,0,1-5.83.287,18.758,18.758,0,0,1-.518-37.185,16.251,16.251,0,0,1,6.339.2,17.171,17.171,0,0,1,7.882,6.062,19.344,19.344,0,0,1,4.084,10.44,19.941,19.941,0,0,1-4.274,14.408,20.252,20.252,0,0,1-5.466,4.808,13.224,13.224,0,0,1-2.218.985" transform="translate(-15.223 -11.234)" fill="#6ce699"/>
        <path id="Path_182841" data-name="Path 182841" d="M29.936,81.29c.349.525.888.3,1.355.332.328.025.66.005.99.005.338,1.11.623,1.324,1.8,1.324,5.7,0,11.391.012,17.086-.015.654,0,.887.153.82.821a12.342,12.342,0,0,0-.006,1.85c.033.636-.195.967-.867.9-.139-.013-.28,0-.42,0H4.236c-1.265,0-1.266,0-1.266-1.26V23.47c0-1.352-.32-1.731-1.516-1.8a6.478,6.478,0,0,0,.169-2.329c1.09-.265,1.344-.574,1.346-1.673,0-1.766.023-3.533-.01-5.3-.012-.7.263-.95.945-.934,1.261.029,2.524.023,3.785,0,.4-.008.566.115.524.521a6.466,6.466,0,0,0,0,.672v66.54c0,2.661,1.119,3.787,3.768,3.787q8.16,0,16.32,0c1.254,0,1.652-.412,1.638-1.661" transform="translate(-0.36 -2.832)" fill="#e6e1e5"/>
        <path id="Path_182842" data-name="Path 182842" d="M91.207,82.588a30.53,30.53,0,0,0,4.576-2.927,19.5,19.5,0,0,0,6.852-11.513A19.694,19.694,0,0,0,98.86,52a18.94,18.94,0,0,0-6.5-5.465c-.394-.2-.776-.434-1.164-.651a17.214,17.214,0,0,1,8.18,3.769,1.494,1.494,0,0,0,2.1.129l1.555,1.687a1.549,1.549,0,0,0,0,2.122A18.756,18.756,0,0,1,92.6,82.325a3.78,3.78,0,0,1-1.39.263" transform="translate(-22.597 -11.37)" fill="#00d7a1"/>
        <path id="Path_182843" data-name="Path 182843" d="M75.709,33.95l0-29.589a1.6,1.6,0,0,0-.165-.976c.616-.009,1.233-.012,1.849-.029.5-.014.727.219.713.709,0,.168,0,.337,0,.505q0,13.89.011,27.779c0,.582-.09.926-.746,1.043a11.27,11.27,0,0,0-1.665.558" transform="translate(-18.719 -0.831)" fill="#efedef"/>
        <path id="Path_182844" data-name="Path 182844" d="M43.985,101.488c.3-.242.648-.131.973-.132q10.848-.01,21.7-.007c1.4,0,1.262.144,1.225-1.277a13.007,13.007,0,0,0-.154-3.584c.714.233,1.425.477,2.143.7a.524.524,0,0,1,.428.6q-.033,1.471,0,2.943c.011.592-.278.8-.828.778s-1.122,0-1.682,0l-23.8-.017" transform="translate(-10.899 -23.909)" fill="#efedef"/>
        <path id="Path_182845" data-name="Path 182845" d="M41.063,17.506q-6.519,0-13.04,0a2.982,2.982,0,0,1-3.306-3.335c0-1.234-.009-2.468,0-3.7a2.934,2.934,0,0,1,3.047-3.086q13.249-.012,26.5,0a2.944,2.944,0,0,1,3.065,3q.067,2.059,0,4.121a2.95,2.95,0,0,1-3.144,3q-6.563.014-13.124,0" transform="translate(-6.124 -1.828)"/>
        <path id="Path_182846" data-name="Path 182846" d="M39.839,36.505q-8.961,0-17.923,0A3.881,3.881,0,0,1,21,36.44a1.16,1.16,0,0,1-.975-1.356,1.146,1.146,0,0,1,1.167-1.1c.223-.017.448-.007.672-.007H57.877a6.173,6.173,0,0,1,.756.018,1.158,1.158,0,0,1,1.07,1.116,1.185,1.185,0,0,1-.78,1.264,2.592,2.592,0,0,1-1.076.126H39.839" transform="translate(-4.959 -8.419)"/>
        <path id="Path_182847" data-name="Path 182847" d="M39.9,28.47q-9.047,0-18.093,0a2.265,2.265,0,0,1-1.073-.136,1.192,1.192,0,0,1-.71-1.3,1.159,1.159,0,0,1,1.025-1.063,4.8,4.8,0,0,1,.839-.023H57.82c1.29,0,1.9.4,1.9,1.251s-.63,1.274-1.9,1.274H39.9" transform="translate(-4.958 -6.427)"/>
        <path id="Path_182848" data-name="Path 182848" d="M39.811,41.981H57.9c1.2.006,1.819.433,1.82,1.258S59.1,44.506,57.9,44.506q-18.049,0-36.1,0a3.4,3.4,0,0,1-.915-.082,1.133,1.133,0,0,1-.876-1.263,1.114,1.114,0,0,1,.953-1.118,5.073,5.073,0,0,1,1-.058q8.919,0,17.838,0" transform="translate(-4.959 -10.402)" fill="#010101"/>
        <path id="Path_182849" data-name="Path 182849" d="M72.76,62.977A3.936,3.936,0,0,1,75.7,64.2c.858.848,1.735,1.679,2.551,2.567.439.477.7.493,1.169.011q4.428-4.5,8.92-8.933A4.042,4.042,0,0,1,95.1,59.393a3.752,3.752,0,0,1-.87,4.054q-6.3,6.378-12.676,12.675a3.91,3.91,0,0,1-5.424.008q-3.252-3.113-6.368-6.366a3.826,3.826,0,0,1-.726-4.376,3.971,3.971,0,0,1,3.727-2.411" transform="translate(-17.012 -14.028)"/>
        <path id="Path_182850" data-name="Path 182850" d="M53.63,15.772c-1.765.012-3.531.034-5.3.035-6.393,0-12.786-.012-19.179.019-.833,0-1.164-.2-1.1-1.078a23.618,23.618,0,0,0,0-3.026c-.046-.782.229-1.006,1-1,7.011.026,14.021.014,21.03.017,1.149,0,2.3.017,3.447.026a.807.807,0,0,1,.372.7c.044,1.242.047,2.485,0,3.727a.753.753,0,0,1-.277.581" transform="translate(-6.949 -2.656)" fill="#6ce699"/>
        <path id="Path_182851" data-name="Path 182851" d="M62.027,15.775a35.046,35.046,0,0,0-.094-5.011c2.49-.075,2.074-.205,2.109,1.96.012.727-.026,1.456.01,2.182.035.7-.245.983-.937.911-.36-.038-.726-.029-1.088-.041" transform="translate(-15.346 -2.659)" fill="#00d6a0"/>
        <path id="Path_182852" data-name="Path 182852" d="M93.64,61.544a1.809,1.809,0,0,1-.557,1.186q-6.1,6.091-12.193,12.185a1.529,1.529,0,0,1-2.429,0q-2.929-2.9-5.828-5.826a1.547,1.547,0,0,1-.129-2.312,1.575,1.575,0,0,1,2.312.12c1.26,1.237,2.5,2.5,3.751,3.74a1.33,1.33,0,0,0,2.229-.019q4.912-4.9,9.816-9.806a3.631,3.631,0,0,1,.765-.645,1.542,1.542,0,0,1,2.263,1.375" transform="translate(-17.851 -14.863)" fill="#f9f6f7"/>
      </g>
    </g>
  </g>
</svg>
