<svg xmlns="http://www.w3.org/2000/svg" xmlns:xlink="http://www.w3.org/1999/xlink" width="155" height="110" viewBox="0 0 155 110">
  <defs>
    <clipPath id="clip-path">
      <rect id="Rectangle_45260" data-name="Rectangle 45260" width="74.984" height="74.999" fill="none"/>
    </clipPath>
  </defs>
  <g id="_14" data-name="14" transform="translate(-481 10241)">
    <g id="Group_174626" data-name="Group 174626" transform="translate(-217 -14715.297)">
      <g id="Group_165391" data-name="Group 165391" transform="translate(698 4474.297)">
        <rect id="Rectangle_40797" data-name="Rectangle 40797" width="155" height="110" fill="#ffe891"/>
      </g>
    </g>
    <g id="Group_174943" data-name="Group 174943" transform="translate(521 -10223)">
      <g id="Group_174942" data-name="Group 174942" clip-path="url(#clip-path)">
        <path id="Path_182667" data-name="Path 182667" d="M74.145,51.993q-2.945-7.82-5.871-15.649c-.128-.34-.25-.564.179-.852a3.437,3.437,0,0,0,.224-5.785c-1.449-1.17-2.9-2.338-4.366-3.486a3.072,3.072,0,0,1-.811-.968q-2.334-4.22-4.682-8.432A3.676,3.676,0,0,0,58,15.656a.854.854,0,0,1-.3-1.029A11.8,11.8,0,0,0,46.261.021C43.516,0,40.77-.018,38.025.031A11.808,11.808,0,0,0,26.84,14.1c.152.717.3,1.318-.422,1.835a2.785,2.785,0,0,0-.609.939q-2.347,4.213-4.683,8.432a2.927,2.927,0,0,1-.77.907q-2.254,1.775-4.481,3.585a3.424,3.424,0,0,0,.239,5.646.6.6,0,0,1,.277.885q-2.181,5.735-4.3,11.495a.756.756,0,0,1-.865.578c-2.871-.025-5.742-.018-8.613-.011a2.42,2.42,0,0,0-2.607,2.58Q0,61.13.008,71.292a3.586,3.586,0,0,0,3.67,3.691Q29.366,75,55.055,75c.459,0,.59-.1.584-.574-.028-2.241-.013-4.483-.013-6.724V59.479c1.481,1.269,2.827,2.442,4.2,3.589a9.089,9.089,0,0,0,13.428-1.6c2.122-2.96,2.143-6.167.9-9.478M63.079,28.319c1.387,1.123,2.8,2.219,4.17,3.359a1.015,1.015,0,0,1-.128,1.8c-2.727,1.549-5.475,3.06-8.283,4.623-.58-2.32-1.138-4.577-1.711-6.83-.08-.312.031-.445.3-.575,1.644-.807,3.286-1.618,4.916-2.454a.584.584,0,0,1,.74.075M42.7,41.771a.518.518,0,0,1-.772-.023q-1.308-1.023-2.659-1.992a.616.616,0,0,1-.3-.8c.225-.718.388-1.457.546-2.194a.5.5,0,0,1,.6-.477c1.486.025,2.972.007,4.458.015.177,0,.411-.1.486.2.227.928.467,1.852.709,2.8.025.2-.159.273-.293.374-.925.7-1.864,1.375-2.771,2.093m1.03,4.736c-.285.527-.552,1.064-.8,1.61-.138.3-.38.274-.652.268A.5.5,0,0,1,41.668,48c-.08-.21-.2-.4-.3-.605-.592-1.184-.577-1.165.439-1.962.377-.3.652-.371,1.014-.01a5.625,5.625,0,0,0,.778.586.327.327,0,0,1,.129.5M31.442,53.138a4.414,4.414,0,0,1,.73-2.268c.307-.517.324-.8-.324-1.1-1.565-.711-1.523-.74-2.269.863a7.582,7.582,0,0,0-.53,3.991,2.619,2.619,0,0,1-1.288,2.77,11,11,0,0,0-1.156.962c0-2.52-.01-4.884.005-7.248a2.546,2.546,0,0,0-.723-1.99.608.608,0,0,1-.173-.676c.02-.073.041-.145.061-.218.249-.919.254-2.049.816-2.7.539-.621,1.653-.746,2.517-1.08,1.194-.462,2.413-.867,3.578-1.393.636-.287.887-.107,1.2.436.948,1.658,1.968,3.274,2.927,4.926.25.431.417.489.833.173,1.165-.886,1.155-.852,1.85.446a2.146,2.146,0,0,1,.23,1.506q-1.578,8.3-3.121,16.6c-.087.472-.24.618-.716.606-1.283-.034-2.568-.027-3.851,0-.426.008-.61-.051-.608-.557.023-4.683.016-9.365.013-14.048m-4.735,8.344c.741-.643,1.487-1.279,2.317-1.989,0,2.686-.012,5.2.01,7.722,0,.444-.142.525-.551.529-1.878.019-1.878.032-1.878-1.836,0-1.284,0-2.569,0-3.853,0-.193-.081-.417.1-.572m7.156-44.155a4.958,4.958,0,0,1,4.823-5.011c.271-.014.348.11.45.288a3.731,3.731,0,0,0,3.578,1.931c1.812-.027,3.625-.011,5.438,0a2.424,2.424,0,0,1,2.636,2.63c.007,3.524.016,7.049,0,10.574a6.008,6.008,0,0,1-6.111,6.13,34.806,34.806,0,0,1-5.879-.122A5.941,5.941,0,0,1,33.867,27.9c-.024-1.787,0-3.575-.005-5.362,0-1.737-.01-3.475,0-5.212m2.816,18.3c.5.2.47.408.437.88-.136,2-1.211,2.955-3.1,3.494-2.135.611-4.174,1.558-6.255,2.356-.155.059-.316.1-.566.186.643-2.583,1.264-5.08,1.887-7.577.255-1.022.522-2.041.764-3.066.072-.3.158-.518.529-.458a1.792,1.792,0,0,0,.375-.025c.465-.027.926-.528,1.306-.292.331.206.426.769.663,1.15a8.148,8.148,0,0,0,3.955,3.351m1.339,9.638a1.393,1.393,0,0,1-.164.088c-.081-.113-.173-.224-.247-.346-.545-.9-1.072-1.813-1.636-2.7-.211-.332-.123-.43.2-.593a1.521,1.521,0,0,1,2.007.2,18.073,18.073,0,0,0,1.792,1.371c.148.113.393.225.1.446q-1.023.767-2.047,1.535M44.8,43.191c.747-.505,1.453-1.071,2.17-1.621a.7.7,0,0,1,.739-.155c1.246.421,1.253.4.578,1.53q-.619,1.032-1.243,2.06c-.074.123-.165.235-.257.364-.131-.091-.235-.16-.335-.235-.542-.406-1.069-.834-1.63-1.213-.39-.263-.476-.423-.022-.73m3.747-4.029a.675.675,0,0,1-.475-.521q-.269-1.173-.588-2.334c-.091-.335.013-.489.332-.613a8.28,8.28,0,0,0,4.6-4.331c.164-.349.3-.373.609-.213a1.407,1.407,0,0,0,.712.215c.9-.086,1.064.479,1.234,1.18.8,3.308,1.635,6.606,2.491,10.037-3.065-1.178-5.986-2.3-8.91-3.42M56.5,17.636c1.577,2.8,3.129,5.621,4.712,8.473-1.919.955-3.766,1.994-5.709,2.8-1.229.51-2.343.018-2.312-1.467.06-2.971.028-5.944.01-8.916,0-.726.165-1.312.924-1.537a2.026,2.026,0,0,1,2.375.647M38.272,2.441q4.04-.033,8.08,0a9.445,9.445,0,0,1,9.087,11.345c-.116.546-.322.853-.935.751a1.138,1.138,0,0,0-.67.046c-.8.428-1.214.117-1.7-.586a4.387,4.387,0,0,0-3.76-1.883c-1.888-.015-3.776,0-5.664,0-1.036,0-1.579-.412-1.591-1.193s.539-1.261,1.557-1.21c.682.035.986-.158.857-.859a.467.467,0,0,1,0-.076c0-1.63-.152-1.765-1.784-1.462a3.553,3.553,0,0,0-2.669,2.011.976.976,0,0,1-.826.639A7.272,7.272,0,0,0,32,14.5c-.124.283-.261.384-.572.249a3.035,3.035,0,0,0-1.479-.219.525.525,0,0,1-.663-.506,10.493,10.493,0,0,1-.255-2.241,9.425,9.425,0,0,1,9.246-9.345M23.663,25.686c1.494-2.649,2.956-5.316,4.443-7.969a2.007,2.007,0,0,1,2.4-.739c.652.17.93.645.93,1.606q0,2.229,0,4.458c0,1.436-.074,2.876.02,4.306.1,1.574-1.112,2.088-2.443,1.515-1.749-.753-3.42-1.691-5.132-2.535-.316-.156-.432-.274-.225-.643m-6.321,6.048c1.409-1.176,2.86-2.3,4.286-3.455a.542.542,0,0,1,.68-.042q2.45,1.246,4.917,2.457c.259.128.382.256.3.574-.575,2.255-1.133,4.514-1.711,6.829-2.8-1.558-5.553-3.068-8.282-4.614a1,1,0,0,1-.19-1.749m-.914,11.378c.7-1.856,1.4-3.709,2.073-5.572.158-.435.272-.618.769-.331,1.8,1.041,3.629,2.047,5.462,3.036a.61.61,0,0,1,.354.828c-.582,2.26-1.137,4.527-1.713,6.789-.061.238-.039.536-.47.533-2.786-.019-5.572-.01-8.459-.01.681-1.811,1.334-3.542,1.984-5.273M21.164,72.57q-8.54,0-17.08,0a1.58,1.58,0,0,1-1.665-2.191.272.272,0,0,1,.317-.225h.529c5.9,0,11.79.01,17.685-.014.623,0,.938.088.829.8a3.672,3.672,0,0,0,.2,1.634Zm-7.858-4.837c-3.4,0-6.8-.014-10.2.014-.559,0-.7-.125-.7-.7q.037-7.781,0-15.562c0-.561.128-.7.7-.7q10.2.033,20.4,0c.559,0,.7.125.7.695q-.037,7.781,0,15.562c0,.561-.128.706-.7.7-3.4-.03-6.8-.015-10.2-.015m26.458,4.833c-2.367.011-4.734,0-7.1,0-2.342,0-4.684.007-7.026,0A1.591,1.591,0,0,1,24.2,70.319c.1-.229.288-.163.446-.163q7.592-.005,15.184,0a1.19,1.19,0,0,1,1.283,1.2,1.21,1.21,0,0,1-1.346,1.212m-.318-4.819c-.451-.017-.486-.173-.417-.537q1.5-7.966,3-15.935c.035-.185-.005-.442.282-.456s.271.243.306.429q1.582,8.413,3.16,16.826a.683.683,0,0,1-.145.7c-.676.67-1.332,1.361-2.071,2.121-.8-2.347-1.741-3.056-4.114-3.144m28.629-5.258a6.36,6.36,0,0,1-6.4-1.054c-1.966-1.571-3.836-3.262-5.761-4.885a.818.818,0,0,1-.29-.72c.009-.932,0-1.864,0-2.8a8.017,8.017,0,0,0-1.189-3.692c-.1-.2-.22-.26-.417-.152-.044.024-.086.052-.131.074-.54.269-1.292.405-1.564.841-.309.5.391,1.032.579,1.58a4.7,4.7,0,0,1,.31,1.543q0,9.369,0,18.738c0,.324.078.624-.464.618-2.437-.03-4.874-.013-7.548-.013,1.036-1.016,1.9-1.9,2.8-2.732a1.076,1.076,0,0,0,.369-1.12q-1.339-7-2.644-14.008c-.27-1.433-.516-2.871-.822-4.3-.218-1.02.523-1.679.835-2.5.077-.2.226-.134.358-.03s.243.18.364.27c1.056.787,1.056.787,1.751-.371.906-1.509,1.827-3.009,2.707-4.533.22-.382.4-.46.818-.3q2.94,1.167,5.906,2.271a1,1,0,0,1,.695.782c.442,1.832.944,3.65,1.354,5.489a7.549,7.549,0,0,0,4.395,5.494c.091.043.178.093.268.138,1.714.853,1.7.847,2.5-.947.157-.35.093-.482-.219-.629-.636-.3-1.258-.628-1.888-.943a4.794,4.794,0,0,1-2.6-3.251c-.865-3.41-1.707-6.825-2.571-10.236a.654.654,0,0,1,.369-.891c1.84-.983,3.66-2,5.474-3.033.375-.213.524-.2.688.244,1.978,5.32,4.032,10.612,5.954,15.953,1.418,3.939-.335,7.81-3.988,9.094" transform="translate(0 0)"/>
        <path id="Path_182668" data-name="Path 182668" d="M28.08,8.682q1.761,4.721,3.526,9.442c.679,1.817.672,1.8,2.47,1.046.382-.161.412-.3.27-.663-.568-1.447-1.1-2.907-1.645-4.363-.316-.848-.627-1.7-.981-2.659l4.612,1.13c-.851-2.972-1.668-5.815-2.478-8.66-.545-1.912-.537-1.9-2.406-1.269-.337.115-.419.246-.315.582.3.959.568,1.924.843,2.889.285,1,.563,2.007.868,3.1l-4.98-1.229c.095.291.148.476.215.656" transform="translate(-15.249 -1.26)"/>
        <path id="Path_182669" data-name="Path 182669" d="M1.785,40.378q2.363,1.546,4.7,3.131c.173.116.431.164.476.451L3.595,46.228l6.549,5.244c.777.622.778.621,1.426-.194.857-1.078.855-1.075-.244-1.955-1.2-.963-2.4-1.932-3.639-2.925l3.754-2.505c-2.466-1.644-4.841-3.231-7.22-4.812-.5-.332-1.073-.959-1.51-.879C2.194,38.3,2,39.16,1.6,39.639c-.306.366-.138.528.184.739" transform="translate(-0.788 -20.902)"/>
        <path id="Path_182670" data-name="Path 182670" d="M135.712,28.038c.335.343.55.332.861-.07,1.168-1.511,2.375-2.991,3.582-4.5l2.364,2.485c1.636-2.045,3.159-3.947,4.68-5.851.344-.431.963-.88.946-1.3-.02-.5-.8-.738-1.2-1.143-.384-.389-.613-.387-.972.084-1.148,1.507-2.357,2.967-3.609,4.529l-2.342-2.5c-1.566,1.955-3.074,3.836-4.581,5.72-.36.451-1.007.92-.99,1.36.02.522.846.763,1.263,1.189" transform="translate(-73.575 -9.509)"/>
        <path id="Path_182671" data-name="Path 182671" d="M120.332,82.239c-.164-.441-.312-.456-.688-.244-1.815,1.029-3.634,2.05-5.474,3.033a.654.654,0,0,0-.369.891c.863,3.41,1.706,6.826,2.571,10.236a4.793,4.793,0,0,0,2.6,3.251c.629.315,1.251.642,1.887.943.312.147.376.279.219.629-.8,1.794-.789,1.8-2.5.947-.09-.044-.177-.1-.268-.138a7.549,7.549,0,0,1-4.395-5.493c-.41-1.839-.912-3.657-1.354-5.489a1,1,0,0,0-.695-.781q-2.964-1.107-5.906-2.272c-.413-.164-.6-.086-.818.3-.88,1.524-1.8,3.024-2.707,4.533-.7,1.159-.695,1.159-1.751.371-.121-.09-.245-.177-.364-.27s-.281-.174-.358.03c-.312.82-1.054,1.48-.835,2.5.306,1.425.551,2.864.821,4.3q1.319,7,2.644,14.008a1.076,1.076,0,0,1-.369,1.12c-.9.836-1.765,1.716-2.8,2.732,2.674,0,5.111-.017,7.548.013.543.007.464-.294.464-.618q0-9.369,0-18.738a4.714,4.714,0,0,0-.311-1.543c-.188-.548-.888-1.085-.579-1.58.273-.436,1.025-.572,1.564-.841.045-.022.087-.05.131-.074.2-.108.314-.045.417.152a8.007,8.007,0,0,1,1.189,3.693c0,.932.01,1.864,0,2.8a.818.818,0,0,0,.291.72c1.924,1.623,3.794,3.314,5.76,4.885a6.36,6.36,0,0,0,6.4,1.054c3.653-1.285,5.406-5.155,3.988-9.094-1.922-5.34-3.976-10.633-5.954-15.953" transform="translate(-54.222 -44.798)" fill="#fbd670"/>
        <path id="Path_182672" data-name="Path 182672" d="M27.11,128.433q-.036-7.781,0-15.562c0-.57-.143-.7-.7-.695q-10.2.032-20.4,0c-.568,0-.7.139-.7.7q.035,7.781,0,15.562c0,.571.143.7.7.7,3.4-.029,6.8-.014,10.2-.014s6.8-.015,10.2.015c.569,0,.7-.14.7-.7M16.19,124.28a3.626,3.626,0,1,1,3.647-3.566,3.642,3.642,0,0,1-3.647,3.566" transform="translate(-2.909 -61.387)" fill="#cbd0d8"/>
        <path id="Path_182673" data-name="Path 182673" d="M65.024,17.461a3.038,3.038,0,0,1,1.48.219c.311.136.447.035.571-.248a7.272,7.272,0,0,1,6.26-4.544.975.975,0,0,0,.826-.639,3.555,3.555,0,0,1,2.669-2.011c1.632-.3,1.785-.169,1.784,1.462a.416.416,0,0,0,0,.075c.129.7-.175.894-.857.86-1.018-.052-1.568.424-1.557,1.21s.554,1.191,1.591,1.192c1.888,0,3.776-.01,5.663,0a4.386,4.386,0,0,1,3.76,1.884c.484.7.9,1.014,1.7.586a1.133,1.133,0,0,1,.669-.046c.613.1.819-.206.935-.752A9.445,9.445,0,0,0,81.431,5.37q-4.039-.032-8.079,0A9.425,9.425,0,0,0,64.1,14.715a10.5,10.5,0,0,0,.255,2.241.525.525,0,0,0,.663.505" transform="translate(-35.079 -2.93)" fill="#656d78"/>
        <path id="Path_182674" data-name="Path 182674" d="M74.786,42.785a5.941,5.941,0,0,0,4.928,5.84,34.807,34.807,0,0,0,5.879.122,6.008,6.008,0,0,0,6.111-6.13c.019-3.525.009-7.05,0-10.574a2.424,2.424,0,0,0-2.636-2.629c-1.812-.007-3.626-.023-5.438,0a3.731,3.731,0,0,1-3.578-1.931c-.1-.177-.179-.3-.45-.287a4.958,4.958,0,0,0-4.823,5.011c-.011,1.737,0,3.474,0,5.211,0,1.788-.019,3.575.005,5.363m10.681-8.856c.9-.871,1.788-1.764,2.665-2.661.224-.229.4-.273.6,0,.045.059.107.105.158.161.393.418,1.04.8,1.1,1.264.058.435-.654.817-1.055,1.187-.345.319-.259.511.039.77s.574.562.856.848c.086.088.164.184.236.266-.039.25-.231.35-.364.487-1.254,1.291-1.256,1.289-2.51.036-.568-.568-1.126-1.148-1.71-1.7-.252-.238-.3-.39-.019-.656m-2.176,5.157c.806,0,1.612-.015,2.417,0a3.622,3.622,0,0,1-.02,7.244q-2.454.037-4.909,0a3.622,3.622,0,0,1,.02-7.244c.83-.017,1.662,0,2.492,0M77.639,31.38c.285-.351.489-.374.821-.019.806.861,1.661,1.676,2.494,2.512.119.12.224.253.343.388-.119.127-.2.22-.288.307-.869.871-1.751,1.73-2.6,2.618-.284.3-.482.283-.708-.024a.589.589,0,0,0-.053-.053c-.4-.413-1.059-.783-1.139-1.251-.086-.509.666-.846,1.056-1.249.278-.286.283-.451-.006-.72-.4-.373-1.067-.8-1.058-1.194.012-.525.762-.852,1.139-1.314" transform="translate(-40.919 -14.884)" fill="#efcfb3"/>
        <path id="Path_182675" data-name="Path 182675" d="M63.076,119.615c1.283-.024,2.568-.031,3.851,0,.476.013.629-.134.716-.606q1.534-8.3,3.121-16.6a2.148,2.148,0,0,0-.23-1.506c-.695-1.3-.686-1.332-1.851-.446-.415.316-.582.258-.833-.173-.959-1.651-1.979-3.268-2.927-4.926-.311-.543-.562-.724-1.2-.436-1.165.526-2.384.931-3.578,1.393-.864.335-1.978.46-2.517,1.08-.562.647-.567,1.778-.816,2.7-.019.072-.041.145-.061.218a.609.609,0,0,0,.173.676,2.544,2.544,0,0,1,.723,1.99c-.015,2.364-.005,4.728-.005,7.248a11,11,0,0,1,1.156-.962,2.618,2.618,0,0,0,1.288-2.77,7.582,7.582,0,0,1,.53-3.991c.746-1.6.7-1.574,2.269-.863.647.295.631.583.324,1.1a4.41,4.41,0,0,0-.73,2.268c0,4.683.01,9.365-.013,14.048,0,.506.182.565.608.557" transform="translate(-31.038 -51.873)" fill="#fbd670"/>
        <path id="Path_182676" data-name="Path 182676" d="M40.365,93.2c.431,0,.41-.3.47-.533.575-2.262,1.131-4.529,1.712-6.789a.61.61,0,0,0-.353-.828c-1.834-.989-3.658-1.995-5.462-3.037-.5-.287-.612-.1-.77.331-.675,1.864-1.377,3.716-2.073,5.572-.649,1.732-1.3,3.462-1.984,5.273,2.886,0,5.672-.01,8.459.01" transform="translate(-17.46 -44.805)" fill="#fbd670"/>
        <path id="Path_182677" data-name="Path 182677" d="M92.917,129.5q-1.578-8.413-3.16-16.826c-.035-.186-.01-.443-.306-.429s-.247.271-.282.456q-1.5,7.968-3,15.935c-.069.364-.034.52.417.537,2.373.088,3.317.8,4.114,3.144.74-.761,1.4-1.451,2.071-2.121a.683.683,0,0,0,.145-.7" transform="translate(-47.14 -61.422)" fill="#fe816e"/>
        <path id="Path_182678" data-name="Path 182678" d="M52.363,46.719c1.711.844,3.382,1.781,5.131,2.535,1.331.573,2.546.058,2.443-1.515-.094-1.429-.02-2.87-.02-4.306q0-2.23,0-4.458c0-.961-.278-1.436-.931-1.606a2.007,2.007,0,0,0-2.4.739c-1.488,2.652-2.949,5.32-4.443,7.969-.208.369-.092.487.225.643" transform="translate(-28.474 -20.391)" fill="#efcfb3"/>
        <path id="Path_182679" data-name="Path 182679" d="M118.412,37.376c-.758.225-.927.811-.923,1.537.017,2.972.05,5.945-.011,8.916-.03,1.485,1.083,1.977,2.313,1.467,1.943-.806,3.79-1.844,5.709-2.8-1.583-2.852-3.135-5.67-4.712-8.473a2.028,2.028,0,0,0-2.376-.647" transform="translate(-64.288 -20.388)" fill="#efcfb3"/>
        <path id="Path_182680" data-name="Path 182680" d="M37.971,67.49c2.729,1.545,5.478,3.056,8.282,4.614.578-2.315,1.136-4.574,1.711-6.829.081-.318-.042-.446-.3-.574q-2.465-1.215-4.916-2.456a.543.543,0,0,0-.68.042c-1.427,1.155-2.878,2.279-4.286,3.455a1,1,0,0,0,.189,1.749" transform="translate(-20.438 -34.008)" fill="#fec629"/>
        <path id="Path_182681" data-name="Path 182681" d="M126.142,65.291c.574,2.253,1.132,4.51,1.711,6.83,2.808-1.563,5.556-3.074,8.283-4.623a1.015,1.015,0,0,0,.128-1.8c-1.374-1.139-2.783-2.235-4.17-3.359a.584.584,0,0,0-.74-.075c-1.63.835-3.272,1.647-4.916,2.453-.265.13-.376.263-.3.575" transform="translate(-69.016 -34.018)" fill="#fec629"/>
        <path id="Path_182682" data-name="Path 182682" d="M24.583,155.708c.109-.71-.206-.8-.829-.8-5.9.024-11.79.014-17.685.014H5.539a.271.271,0,0,0-.317.225,1.58,1.58,0,0,0,1.665,2.191q8.54,0,17.08,0h.811a3.664,3.664,0,0,1-.2-1.634" transform="translate(-2.803 -84.771)" fill="#a9b1bc"/>
        <path id="Path_182683" data-name="Path 182683" d="M68.9,154.94q-7.592-.016-15.184,0c-.158,0-.342-.066-.446.163a1.592,1.592,0,0,0,1.44,2.249c2.342.009,4.683,0,7.026,0,2.367,0,4.734.007,7.1,0a1.21,1.21,0,0,0,1.346-1.212,1.19,1.19,0,0,0-1.283-1.2" transform="translate(-29.073 -84.782)" fill="#959ea9"/>
        <path id="Path_182684" data-name="Path 182684" d="M92.808,83.156c-.241-.95-.482-1.874-.709-2.8-.075-.307-.31-.2-.486-.2-1.486-.008-2.972.01-4.458-.015a.5.5,0,0,0-.6.477c-.158.737-.321,1.476-.546,2.194a.616.616,0,0,0,.3.8q1.349.97,2.659,1.992a.518.518,0,0,0,.772.023c.907-.718,1.847-1.4,2.771-2.093.134-.1.318-.174.293-.374" transform="translate(-47.042 -43.852)" fill="#efcfb3"/>
        <path id="Path_182685" data-name="Path 182685" d="M83.3,93.366A18.143,18.143,0,0,1,81.512,92a1.521,1.521,0,0,0-2.007-.2c-.321.163-.409.26-.2.592.565.889,1.091,1.8,1.636,2.7.074.122.166.234.247.346a1.463,1.463,0,0,0,.164-.088q1.025-.767,2.047-1.536c.295-.22.049-.332-.1-.445" transform="translate(-43.337 -50.079)" fill="#fdc629"/>
        <path id="Path_182686" data-name="Path 182686" d="M98.608,93.92c.561.379,1.088.807,1.63,1.213.1.075.2.144.335.235.091-.129.182-.241.257-.364q.625-1.028,1.243-2.06c.675-1.126.669-1.109-.578-1.53a.7.7,0,0,0-.739.155c-.716.55-1.423,1.115-2.17,1.62-.454.307-.368.467.022.73" transform="translate(-53.782 -49.999)" fill="#fdc629"/>
        <path id="Path_182687" data-name="Path 182687" d="M92.348,100.031c-.362-.361-.637-.286-1.013.01-1.016.8-1.031.778-.44,1.961.1.2.218.4.3.605a.5.5,0,0,0,.609.383c.273.007.514.036.653-.267q.374-.818.8-1.61a.326.326,0,0,0-.129-.5,5.689,5.689,0,0,1-.778-.586" transform="translate(-49.525 -54.607)" fill="#fa6d50"/>
        <path id="Path_182688" data-name="Path 182688" d="M25.023,122.9a3.625,3.625,0,1,0,3.6,3.684,3.641,3.641,0,0,0-3.6-3.684m-.038,4.831a1.205,1.205,0,1,1,1.221-1.171,1.215,1.215,0,0,1-1.221,1.171" transform="translate(-11.698 -67.253)"/>
        <path id="Path_182689" data-name="Path 182689" d="M80.133,57.064A3.621,3.621,0,0,0,83.712,60.7q2.454.041,4.909,0a3.622,3.622,0,0,0,.02-7.244c-.805-.018-1.611,0-2.417,0-.83,0-1.662-.014-2.492,0a3.629,3.629,0,0,0-3.6,3.612m6.036-1.2c.778,0,1.556-.014,2.333,0a1.208,1.208,0,1,1-.022,2.408q-2.3.024-4.591,0a1.213,1.213,0,1,1,.022-2.411c.752-.013,1.505,0,2.258,0" transform="translate(-43.852 -29.246)"/>
        <path id="Path_182690" data-name="Path 182690" d="M99.892,40.974c1.254,1.253,1.256,1.255,2.51-.036.134-.138.325-.237.364-.487-.072-.081-.149-.178-.236-.266-.282-.286-.553-.585-.855-.848s-.385-.451-.039-.77c.4-.37,1.113-.752,1.055-1.187-.062-.462-.709-.846-1.1-1.264-.052-.055-.114-.1-.159-.161-.2-.27-.378-.226-.6,0-.877.9-1.76,1.791-2.665,2.661-.276.266-.232.417.019.656.584.551,1.141,1.131,1.71,1.7" transform="translate(-53.615 -19.574)" fill="#010000"/>
        <path id="Path_182691" data-name="Path 182691" d="M79.645,38.61c.29.269.284.434.007.72-.391.4-1.143.74-1.057,1.249.08.468.736.838,1.139,1.251a.656.656,0,0,1,.053.053c.226.307.423.321.708.024.852-.888,1.734-1.747,2.6-2.618.087-.087.169-.18.288-.307-.119-.136-.225-.269-.343-.388-.833-.836-1.688-1.652-2.494-2.512-.332-.355-.536-.331-.821.019-.376.462-1.126.789-1.138,1.314-.009.392.656.821,1.057,1.194" transform="translate(-43.006 -19.606)"/>
        <path id="Path_182692" data-name="Path 182692" d="M27.906,128.241a1.205,1.205,0,1,0,1.227,1.24,1.214,1.214,0,0,0-1.227-1.24" transform="translate(-14.624 -70.178)" fill="#68d3f1"/>
        <path id="Path_182693" data-name="Path 182693" d="M85.481,59.986A1.21,1.21,0,0,0,86.815,61.2q2.3.022,4.592,0a1.208,1.208,0,1,0,.022-2.408c-.777-.018-1.556,0-2.334,0-.753,0-1.505-.01-2.258,0a1.219,1.219,0,0,0-1.356,1.195" transform="translate(-46.778 -32.168)" fill="#fe816d"/>
      </g>
    </g>
  </g>
</svg>
