<svg xmlns="http://www.w3.org/2000/svg" xmlns:xlink="http://www.w3.org/1999/xlink" width="89" height="85" viewBox="0 0 89 85">
  <defs>
    <clipPath id="clip-path">
      <rect id="Rectangle_45270" data-name="Rectangle 45270" width="56.466" height="66.951" fill="none"/>
    </clipPath>
  </defs>
  <g id="_15" data-name="15" transform="translate(-698 -4457)">
    <g id="Group_165391" data-name="Group 165391" transform="translate(698 4457)">
      <rect id="Rectangle_40797" data-name="Rectangle 40797" width="89" height="85" rx="15" fill="#ffd947"/>
    </g>
    <g id="Group_174960" data-name="Group 174960" transform="translate(714 4466)">
      <g id="Group_174960-2" data-name="Group 174960" clip-path="url(#clip-path)">
        <path id="Path_182853" data-name="Path 182853" d="M26.539,66.951c-.179-.256-.5-.221-.739-.346a3.742,3.742,0,0,1-2.153-3.588q.006-6.242,0-12.484v-.747c-.669.071-1.263.288-1.89.356a6.742,6.742,0,0,1-3.321-.473,1.925,1.925,0,0,0-1.19-.092A8.568,8.568,0,0,1,6.955,41a1.245,1.245,0,0,0-.545-1.128,8.653,8.653,0,0,1-3.3-6.141,1.775,1.775,0,0,0-.692-1.421A6.64,6.64,0,0,1,7.11,20.569c.765.076.759-.178.742-.762a10.432,10.432,0,0,1,5.654-9.984,8.962,8.962,0,0,1,3.45-1.115.7.7,0,0,0,.733-.681,10.053,10.053,0,0,1,19.563-.555,11.027,11.027,0,0,1,.335,2.778.793.793,0,0,0,1.135.822,9.99,9.99,0,0,1,12.092,4.515,9.544,9.544,0,0,1,1.144,6.8.631.631,0,0,0,.406.844,7.183,7.183,0,0,1,3.855,8.4,7.274,7.274,0,0,1-7.5,5.352A5.306,5.306,0,0,1,47,36.632c-.393-.165-.54-.071-.676.337a11.61,11.61,0,0,1-3.694,5.348c-.7.582-.994.589-1.716.038a.879.879,0,0,1-.046-1.263,8.753,8.753,0,0,1,.956-.983,9.568,9.568,0,0,0,2.741-4.815,2.994,2.994,0,0,1,.26-.806,1.2,1.2,0,0,1,1.35-.541,4.56,4.56,0,0,1,.781.332,5.08,5.08,0,1,0,3.99-9.329c-.122-.048-.247-.086-.37-.13a1.316,1.316,0,0,1-.988-1.859,13.619,13.619,0,0,0,.324-1.661,7.816,7.816,0,0,0-5.277-8.175c-.166-.052-.327-.12-.49-.182a8.345,8.345,0,0,0-3.169-.2c-.146.013-.334,0-.4.159s.107.263.2.375A12.178,12.178,0,0,1,40.2,29.506a11.758,11.758,0,0,1-8.1,3.746c-.371.022-.689.01-.631.561a9.7,9.7,0,0,1-1.667,6.311c-.572.906-.585.9.339,1.47a8.816,8.816,0,0,0,1.729.765,8.507,8.507,0,0,0,2.69.487,1.957,1.957,0,0,1,1.008.238c.335.2.612.446.406.9-.072.78-.4,1.089-1.167,1.067a10.486,10.486,0,0,1-3.146-.49c-.515-.179-.613-.073-.612.451.016,5.922,0,11.844.014,17.766a3.842,3.842,0,0,1-2.133,3.8c-.305.153-.638.253-.959.378Z" transform="translate(0 0)"/>
        <path id="Path_182854" data-name="Path 182854" d="M59.847,105.077c-.991-.7-.981-1.8-.968-2.813a5.107,5.107,0,0,1,2.239-4.215.909.909,0,0,0,.421-.742A7.988,7.988,0,0,1,75.9,93.189,7.4,7.4,0,0,1,77.192,95.8a1.019,1.019,0,0,0,.686.765,5.547,5.547,0,0,1,2.844,7.518,2.126,2.126,0,0,1-.872,1Z" transform="translate(-24.942 -38.126)"/>
        <path id="Path_182855" data-name="Path 182855" d="M22.067,115.776l0,.13H5.2a.162.162,0,0,0-.018-.116,1.032,1.032,0,0,1,.852-.224q7.587-.01,15.174,0a1.1,1.1,0,0,1,.859.211" transform="translate(-2.195 -48.955)" fill="#4f4f4f"/>
        <path id="Path_182856" data-name="Path 182856" d="M59.311,53.4c-.178-.731-.448-.927-1.448-.946A6.982,6.982,0,0,1,55.1,51.9c-.108-.35.145-.575.305-.819a12.434,12.434,0,0,0,1.959-5.006,1.2,1.2,0,0,1,1-1.112A14.915,14.915,0,0,0,69.433,32.877a14.9,14.9,0,0,0-1.886-10.051c-.193-.33-.182-.336-.021-.6a7.976,7.976,0,0,1,5.96,7.574,7.825,7.825,0,0,1-.365,2.568c-.317,1.035-.092,1.411.937,1.75A5.166,5.166,0,0,1,77.809,39a5.228,5.228,0,0,1-4.553,5.346,5.351,5.351,0,0,1-3.323-.633c-1-.527-1.548-.279-1.8.829a10.076,10.076,0,0,1-3.417,5.64,1.191,1.191,0,0,0-.463,1.586l-.81.5a1.849,1.849,0,0,0-1.609-.285c-.71.254-1.306.533-1.485,1.333l-1.035.078" transform="translate(-23.333 -9.415)" fill="#4e8f1e"/>
        <path id="Path_182857" data-name="Path 182857" d="M20.661,106.967l-16.885.013c-.35-.015-.531-.266-.7-.52a7.623,7.623,0,0,1,.585-9.039c.432-.5.841-.552,1.489-.176a.829.829,0,0,1,.371,1.194,7.961,7.961,0,0,1-.564.873,5.447,5.447,0,0,0-.628,4.848.854.854,0,0,0,.962.672c.563-.025,1.127-.008,1.69-.009,3.833-.014,7.666,0,11.5-.007.959,0,1.1-.2.816-1.137a2.94,2.94,0,0,0-2.934-2.252,1.888,1.888,0,0,1-2.072-1.39A5.25,5.25,0,0,0,12.766,98.1a5.036,5.036,0,0,0-2.842-1.157,2.875,2.875,0,0,1-.89-.163.851.851,0,0,1-.569-1.129A.957.957,0,0,1,9.6,94.767a7.377,7.377,0,0,1,6.428,3.893,1.046,1.046,0,0,0,.949.606,5.317,5.317,0,0,1,4.266,7.135.881.881,0,0,1-.586.565" transform="translate(-0.789 -40.146)"/>
        <path id="Path_182858" data-name="Path 182858" d="M8.379,105.673c-.609.007-1.22-.022-1.824.034-.5.047-.7-.19-.854-.6a5.505,5.505,0,0,1,.661-5.38c.7-.99.733-1.15.237-1.832a7.93,7.93,0,0,1,3.14-1.416c.066-.011.118-.115.176-.175.089.8.4,1.062,1.285,1.111a5.06,5.06,0,0,1,3.078,1.172c-.254.247-.6.222-.908.306a6.355,6.355,0,0,0-4.7,4.747,4.67,4.67,0,0,0-.121,1.226,1.056,1.056,0,0,1-.173.8" transform="translate(-2.24 -40.799)" fill="#5eab24"/>
        <path id="Path_182859" data-name="Path 182859" d="M64.215,74.962c-.036-.591.123-1.111.755-1.247.786-.167,1.654-.922,2.339.2.105.85-.064,1.134-.855,1.422-.183.066-.369.123-.554.185-.9.3-1.172.212-1.685-.559" transform="translate(-27.201 -31.057)" fill="#010101"/>
        <path id="Path_182860" data-name="Path 182860" d="M44.743,11.576a6.713,6.713,0,0,1,.625,3.741,1.679,1.679,0,0,0,.94,1.8,10.031,10.031,0,1,1-12.432,15.49c-.074-.08-.148-.16-.22-.241-.823-.911-.96-.929-2.081-.488a8.517,8.517,0,0,1-7.931-.689,2.341,2.341,0,0,1-.25-.205,6.813,6.813,0,0,1-.078-3.037A9.771,9.771,0,0,1,31.544,19.7c.419-.072.936.133,1.242-.233.263-.315.172-.793.259-1.195a9.308,9.308,0,0,1,10.813-7.077,1.645,1.645,0,0,1,.884.384" transform="translate(-9.821 -4.656)" fill="#6dc72a"/>
        <path id="Path_182861" data-name="Path 182861" d="M42.128,8.375a8.808,8.808,0,0,0-6.283.383,8.938,8.938,0,0,0-5.237,6.4c-.1.437-.033.971-.266,1.307-.252.365-.815.1-1.236.167a9.63,9.63,0,0,0-7.413,5.428,8.1,8.1,0,0,0-.9,3.764c.012.653-.012,1.306-.019,1.96a8.627,8.627,0,0,1,2.965-15.524,6.513,6.513,0,0,1,1.61-.218c.918-.013,1.255-.335,1.337-1.236A8.043,8.043,0,0,1,42.128,8.375" transform="translate(-7.206 -1.454)" fill="#5eab24"/>
        <path id="Path_182862" data-name="Path 182862" d="M13.231,56.407a7.046,7.046,0,0,1-6.539-5.335,5.761,5.761,0,0,1-.15-1.75,1.567,1.567,0,0,0-.855-1.608,4.481,4.481,0,0,1-2.155-3.195,4.7,4.7,0,0,1,3.731-5.367,4.688,4.688,0,0,1,.9-.106,2.186,2.186,0,0,1,2.222,1.34,10.278,10.278,0,0,0,9.495,6.028A8.684,8.684,0,0,0,23.4,45.82a.636.636,0,0,1,.8.167,11.737,11.737,0,0,0,6.058,3.387c.214.047.451.076.473.361a7.884,7.884,0,0,1-.107,2.9,6.587,6.587,0,0,1-2.664-.531A14.087,14.087,0,0,1,23.6,49.791a1.689,1.689,0,0,0-1.4-.337,13.479,13.479,0,0,1-11.443-3.281,1.364,1.364,0,0,0-.2-.164c-.26-.147-.45-.581-.724-.472-.341.135-.281.6-.312.931a5.325,5.325,0,0,0,2.284,5.1,1.47,1.47,0,0,1,.7,1.227,8.85,8.85,0,0,0,.6,2.926.927.927,0,0,1,.124.688" transform="translate(-1.466 -16.541)" fill="#4e8f1e"/>
        <path id="Path_182863" data-name="Path 182863" d="M17.506,60.906a8.509,8.509,0,0,1-.9-3.688.97.97,0,0,0-.523-.945,5.611,5.611,0,0,1-2.436-5.516c.084-.373,0-.923.342-1.067s.553.38.821.6a17.059,17.059,0,0,0,3.258,2.243,13.964,13.964,0,0,0,4.256,1.323,12.238,12.238,0,0,0,4.391-.119,1.462,1.462,0,0,1,1.237.386,14.114,14.114,0,0,0,6.737,2.885c.076.01.145.082.217.125a8.149,8.149,0,0,1-6.574,6.4,8.041,8.041,0,0,1-7.235-2.4,1.43,1.43,0,0,0-1.526-.426,5.543,5.543,0,0,1-2.06.2" transform="translate(-5.741 -21.04)" fill="#5eab24"/>
        <path id="Path_182864" data-name="Path 182864" d="M65.571,21.988c-.15.2.04.314.118.45a15.119,15.119,0,0,1,2.12,7.021A14.912,14.912,0,0,1,66.425,36.7a15.064,15.064,0,0,1-6.013,6.578,14.679,14.679,0,0,1-4.09,1.64c-.6.144-.652.542-.742,1.049a12.8,12.8,0,0,1-2.21,5.3,3.761,3.761,0,0,0-.22.4,8.413,8.413,0,0,1-2.439-1.207c-.311-.206-.315-.363-.084-.665a10.108,10.108,0,0,0,2.113-6.112,3.409,3.409,0,0,0-.01-.391c-.1-1.016-.093-.962.883-1.039A12.063,12.063,0,0,0,64.758,29.4a11.727,11.727,0,0,0-2.885-6.983c-.113-.13-.224-.262-.414-.485a7.416,7.416,0,0,1,4.112.061" transform="translate(-21.378 -9.179)" fill="#47821c"/>
        <path id="Path_182865" data-name="Path 182865" d="M30.254,76.494v.392c0,1.3.005,1.323-1.278,1.645a5.026,5.026,0,0,1-3.549-.361,2.059,2.059,0,0,0-1.516-.148,6.62,6.62,0,0,1-8.216-4.9,2.894,2.894,0,0,1-.068-.318c-.114-.867-.061-.922.757-.707a9.013,9.013,0,0,0,3.812.139.972.972,0,0,1,.881.265,9.822,9.822,0,0,0,8.588,2.4c.5-.089.629,0,.594.478-.027.368-.005.74-.005,1.11" transform="translate(-6.601 -30.499)" fill="#47811c"/>
        <path id="Path_182866" data-name="Path 182866" d="M46.667,96.152a1.713,1.713,0,0,1-2.211-1.474c-.021-.216-.01-.435-.01-.653,0-6.123.011-12.246-.018-18.368a1.068,1.068,0,0,1,.7-1.146,9.184,9.184,0,0,0,1-.606c.318.323.221.736.222,1.116q.01,9.019,0,18.037a7.515,7.515,0,0,0,.315,2.709.521.521,0,0,1,0,.384" transform="translate(-18.821 -31.308)" fill="#a96100"/>
        <path id="Path_182867" data-name="Path 182867" d="M47.916,96.056a3.916,3.916,0,0,1-.525-2.116q0-10.065-.014-20.13c.175-.248.323-.086.488.022,1.256.824,1.256.823,1.256,2.362q0,8.973,0,17.946a1.682,1.682,0,0,1-1.2,1.916" transform="translate(-20.07 -31.213)" fill="#cb7400"/>
        <path id="Path_182868" data-name="Path 182868" d="M77.269,95.452a5.378,5.378,0,0,1,2.343,3.62,1.644,1.644,0,0,0,1.326,1.463,3.459,3.459,0,0,1,2.337,4.59c-.123.266-.366.191-.572.191q-6.667.005-13.334,0c-.524,0-.62-.143-.394-.623a3.855,3.855,0,0,1,1.5-1.685,1.187,1.187,0,0,0,.616-1.06,7.17,7.17,0,0,1,5.293-6.5,1.1,1.1,0,0,1,.885,0" transform="translate(-29.171 -40.395)" fill="#6dc72a"/>
        <path id="Path_182869" data-name="Path 182869" d="M74.5,94.641a6.989,6.989,0,0,0-6,6.794.746.746,0,0,1-.461.764,4.191,4.191,0,0,0-1.7,1.746c-.159.282-.21.506.281.5q6.658-.021,13.316-.006a1,1,0,0,0,.562-.13c-.032.348-.3.251-.5.251q-8.589,0-17.178,0c-.368,0-.486-.12-.5-.481a3.1,3.1,0,0,1,1.551-3.032,2,2,0,0,0,1.108-1.927,6.01,6.01,0,0,1,9.163-4.771,3.83,3.83,0,0,1,.35.286" transform="translate(-26.403 -39.585)" fill="#5eab24"/>
        <path id="Path_182870" data-name="Path 182870" d="M63.382,65.31a1.014,1.014,0,0,1-.98-.791.883.883,0,0,1,.493-1.038c.441-.232.916-.4,1.359-.629a5.746,5.746,0,0,0,2.958-3.7c.053-.187.094-.38.163-.561a1.011,1.011,0,0,1,1.161-.719,1.058,1.058,0,0,1,.744,1.276,7.9,7.9,0,0,1-1.513,3.286A7.755,7.755,0,0,1,63.775,65.2c-.144.042-.289.082-.393.112" transform="translate(-26.423 -24.505)" fill="#47821c"/>
        <path id="Path_182871" data-name="Path 182871" d="M10.631,107.351a6.339,6.339,0,0,1,1.965-5.3,6.034,6.034,0,0,1,3.935-1.787,4.282,4.282,0,0,1,1.65,2.054,1.625,1.625,0,0,0,1.843,1.235,3.238,3.238,0,0,1,3.3,3.318c-.009.341-.088.512-.477.511q-6.106-.029-12.213-.035" transform="translate(-4.492 -42.477)" fill="#6dc72a"/>
        <path id="Path_182872" data-name="Path 182872" d="M54.015,43.944c-.921,0-1.5-.661-1.186-1.429.242-.588.842-.62,1.331-.644A6.08,6.08,0,0,0,59.7,36.914a9.67,9.67,0,0,1,.115-1.163,1.022,1.022,0,0,1,1.242-.827,1.08,1.08,0,0,1,.737,1.164,8.162,8.162,0,0,1-7.783,7.855" transform="translate(-22.343 -14.785)" fill="#5eab24"/>
        <path id="Path_182873" data-name="Path 182873" d="M31.277,40.479a2.485,2.485,0,1,1-2.465-2.564,2.455,2.455,0,0,1,2.465,2.564" transform="translate(-11.145 -16.061)" fill="#5eab24"/>
        <path id="Path_182874" data-name="Path 182874" d="M53.283,23.7a2.483,2.483,0,1,1-4.965-.087,2.484,2.484,0,1,1,4.965.087" transform="translate(-20.469 -8.934)" fill="#5eab24"/>
        <path id="Path_182875" data-name="Path 182875" d="M40.89,36.085a.917.917,0,1,1,.988-.917,1.006,1.006,0,0,1-.988.917" transform="translate(-16.916 -14.511)" fill="#5eac24"/>
        <path id="Path_182876" data-name="Path 182876" d="M45.815,44.705a1.013,1.013,0,0,1-.9-1,.971.971,0,1,1,.9,1" transform="translate(-19.026 -18.163)" fill="#5eac24"/>
        <path id="Path_182877" data-name="Path 182877" d="M56.347,33.347a.984.984,0,0,1,.946.958.97.97,0,1,1-.946-.958" transform="translate(-23.45 -14.127)" fill="#5eac24"/>
        <path id="Path_182878" data-name="Path 182878" d="M37.856,64.666a2.488,2.488,0,0,1-2.517,2.582,2.527,2.527,0,0,1-2.452-2.538A2.577,2.577,0,0,1,35.4,62.152c1.114-.008,2.7,1.234,2.458,2.514" transform="translate(-13.932 -26.329)" fill="#4e8f1e"/>
        <path id="Path_182879" data-name="Path 182879" d="M24.827,61.447a1.013,1.013,0,0,1-1-.92,1.069,1.069,0,0,1,.964-.971,1.143,1.143,0,0,1,.975.905,1,1,0,0,1-.937.986" transform="translate(-10.093 -25.23)" fill="#4e901e"/>
        <path id="Path_182880" data-name="Path 182880" d="M79.819,106.376a2.458,2.458,0,0,1-2.49-2.442,2.569,2.569,0,0,1,2.507-2.535,2.438,2.438,0,0,1,2.485,2.514,2.374,2.374,0,0,1-2.5,2.463" transform="translate(-32.758 -42.956)" fill="#5eab24"/>
        <path id="Path_182881" data-name="Path 182881" d="M90.969,106.731a1,1,0,0,1-.987.942.974.974,0,0,1,.122-1.938,1.025,1.025,0,0,1,.865,1" transform="translate(-37.762 -44.792)" fill="#5eac24"/>
        <path id="Path_182882" data-name="Path 182882" d="M25.644,109.465a.917.917,0,1,1-.9-1.006,1.012,1.012,0,0,1,.9,1.006" transform="translate(-10.088 -45.946)" fill="#5eac24"/>
        <path id="Path_182883" data-name="Path 182883" d="M17.481,106.739a.916.916,0,1,1-1.828-.066,1.013,1.013,0,0,1,.923-.938,1,1,0,0,1,.9,1" transform="translate(-6.631 -44.793)" fill="#5eac24"/>
      </g>
    </g>
  </g>
</svg>
