<svg xmlns="http://www.w3.org/2000/svg" xmlns:xlink="http://www.w3.org/1999/xlink" width="293" height="248.024" viewBox="0 0 293 248.024">
  <defs>
    <clipPath id="clip-path">
      <rect id="Rectangle_45327" data-name="Rectangle 45327" width="293" height="232.092" fill="#ff9fa3"/>
    </clipPath>
    <clipPath id="clip-path-2">
      <path id="Path_184714" data-name="Path 184714" d="M81.944,17.833S91,29.943,95.211,30.306s15.23-2.594,15.23-7.794S102.553,1.036,89.549,1.036s-7.605,16.8-7.605,16.8" transform="translate(-80.832 -1.036)" fill="none"/>
    </clipPath>
    <clipPath id="clip-path-3">
      <rect id="Rectangle_45372" data-name="Rectangle 45372" width="21.206" height="19.184" fill="none"/>
    </clipPath>
    <clipPath id="clip-path-4">
      <rect id="Rectangle_45373" data-name="Rectangle 45373" width="3.635" height="2.723" fill="none"/>
    </clipPath>
  </defs>
  <g id="_16-1" data-name="16-1" transform="translate(-548 -4598)">
    <g id="Group_175249" data-name="Group 175249" transform="translate(0 -2)">
      <path id="Path_184680" data-name="Path 184680" d="M11,0H282a11,11,0,0,1,11,11V237a11,11,0,0,1-11,11H11A11,11,0,0,1,0,237V11A11,11,0,0,1,11,0Z" transform="translate(548 4600)" fill="#ffd947"/>
      <g id="Group_175135" data-name="Group 175135" transform="translate(521.866 4600)">
        <g id="Group_175118" data-name="Group 175118" transform="translate(26.134)" clip-path="url(#clip-path)">
          <path id="Path_184134" data-name="Path 184134" d="M651.389,573.808h-78c5.409-5.822,11.761-8.727,18.482-7.685,2.78-3.987,6.849-5.995,10.729-5.11,5.638-6.137,12.791-9.167,19.836-8.217s13.8,5.811,18.543,13.347C644.867,564.79,649.313,568.9,651.389,573.808Z" transform="translate(-424.92 -406.976)" fill="#ffe891" stroke="#fff" stroke-miterlimit="10" stroke-width="2"/>
          <path id="Path_184135" data-name="Path 184135" d="M581.846,111.941h70.786c-4.909-6.006-10.673-9-16.773-7.928-2.522-4.113-6.215-6.184-9.737-5.271-5.117-6.331-11.608-9.456-18-8.477S595.6,96.26,591.294,104.034C587.764,102.638,583.73,106.874,581.846,111.941Z" transform="translate(-431.084 -66.345)" fill="#ffe891" stroke="#fff" stroke-miterlimit="10" stroke-width="2"/>
          <path id="Path_184136" data-name="Path 184136" d="M1001.451,806.61H944.272c3.965-4.268,8.622-6.4,13.549-5.634,2.038-2.923,5.02-4.395,7.865-3.746,4.133-4.5,9.377-6.72,14.541-6.024s10.114,4.26,13.593,9.784C996.67,800,999.929,803.009,1001.451,806.61Z" transform="translate(-695.185 -582.585)" fill="#ffe891" stroke="#fff" stroke-miterlimit="10" stroke-width="2"/>
          <path id="Path_184137" data-name="Path 184137" d="M835.259,356.186h49.972c-2.892-5.041-7.84-7.7-12.246-6.069-4.095-5.409-9.542-8.565-15.106-8.538s-11.092,3.171-15.161,8.621C839.909,348.709,836.5,352.272,835.259,356.186Z" transform="translate(-615.746 -251.553)" fill="#ffe891" stroke="#fff" stroke-miterlimit="10" stroke-width="2"/>
          <path id="Path_184138" data-name="Path 184138" d="M33.915,821.525H2.142c4.09-4.743,9.667-7.208,14.8-5.584,2.31-2.671,5.606-4.1,8.522-3.323S32.425,817.842,33.915,821.525Z" transform="translate(-8.651 -598.29)" fill="#ffe891" stroke="#fff" stroke-miterlimit="10" stroke-width="2"/>
          <path id="Path_184139" data-name="Path 184139" d="M141.721,593.787H75.343c3.842-6.7,10.414-10.223,16.266-8.061,5.439-7.185,12.674-11.377,20.065-11.34s14.734,4.212,20.138,11.451C135.544,583.855,140.073,588.588,141.721,593.787Z" transform="translate(-61.993 -423.001)" fill="#ffe891" stroke="#fff" stroke-miterlimit="10" stroke-width="2"/>
        </g>
      </g>
    </g>
    <g id="Group_175269" data-name="Group 175269" transform="translate(8721.469 11729.024)">
      <path id="Path_184682" data-name="Path 184682" d="M61.422,59.332l17.415-3.8V31.861h22.58V54.418L121.534,60.1,90.127,95.229Z" transform="translate(-8106.287 -7096.1)" fill="#a9543d"/>
      <g id="Group_175268" data-name="Group 175268" transform="translate(-8162 -7125)">
        <path id="Path_184683" data-name="Path 184683" d="M93.134,44.558V34.994H70.554V49.322c7.436,5.786,17.278-.439,22.58-4.764" transform="translate(63.997 31.742)"/>
        <path id="Path_184684" data-name="Path 184684" d="M156.173,158.048c-7.512-25.362-15.2-46.359-22.612-58.795-9.078-15.22-66.223.256-66.223.256-5.624,12.329-11.6,31.989-17.56,55.551,35.347,2.662,70.9,2.99,106.395,2.988" transform="translate(45.152 83.952)"/>
        <path id="Path_184685" data-name="Path 184685" d="M72.557,146.149V105.9H86.392v40.117a.528.528,0,0,0,.433.5c.072,0,.145,0,.215,0a.528.528,0,0,0,.448-.505V105.355a.549.549,0,0,0-.549-.547H72.009a.549.549,0,0,0-.549.547v40.758l1.1.036" transform="translate(64.818 95.067)" fill="#fff"/>
        <path id="Path_184686" data-name="Path 184686" d="M54.81,116.3h84.382a180.116,180.116,0,0,0-7.964-17.976H61.2c-2.094,5.1-4.228,11.147-6.389,17.976" transform="translate(49.716 89.182)" fill="#a9543d"/>
        <path id="Path_184687" data-name="Path 184687" d="M60.168,38.151C60.168,20.839,73.319,6.8,89.542,6.8s29.374,14.036,29.374,31.348S105.766,69.5,89.542,69.5,60.168,55.464,60.168,38.151" transform="translate(54.576 6.171)" fill="#a9543d"/>
        <path id="Path_184688" data-name="Path 184688" d="M81.944,17.833s-5.4-16.8,7.605-16.8,20.892,16.277,20.892,21.477-11.023,8.155-15.23,7.794S81.944,17.833,81.944,17.833" transform="translate(73.319 0.94)" fill="#fea419"/>
        <path id="Path_184689" data-name="Path 184689" d="M65.176,23.318s-6.423-5.214-8.862,2.857c-2.329,7.706,6.78,11.076,9.118,10.008,4.335-1.981,4.777-6.442-.256-12.865" transform="translate(50.737 19.648)" fill="#a9543d"/>
        <path id="Path_184690" data-name="Path 184690" d="M64.23,28.933a.653.653,0,0,1-.568-.324A8.937,8.937,0,0,0,57.476,24.5a.657.657,0,0,1,.141-1.306,10.111,10.111,0,0,1,7.182,4.75.66.66,0,0,1-.238.9.644.644,0,0,1-.33.088" transform="translate(51.602 21.036)"/>
        <path id="Path_184691" data-name="Path 184691" d="M59.775,98.32c-1.121,2.731-2.254,5.738-3.4,8.988h77.7c-1.43-3.271-2.855-6.278-4.27-8.988Z" transform="translate(51.137 89.182)"/>
        <path id="Path_184692" data-name="Path 184692" d="M59.312,30.215a.657.657,0,0,1-.563-1l2.308-3.847a.657.657,0,0,1,1.127.677L59.877,29.9a.661.661,0,0,1-.564.318" transform="translate(53.204 22.725)"/>
        <path id="Path_184693" data-name="Path 184693" d="M190.433,145.166l4.6,11.713a4,4,0,0,0,1.552,1.844c.9.6,2,1.672,2.683,1.682,7.54.107,12.772-.078,17.8-1.287,1.516-.364,3.034-.77,4.512-1.266.4-.135,1.081-.437,1.524-.635,1.19-.637,2.3-1.394,3.482-2.048-1.583.879-.521.259.278-.456.389-.574,1.545-2.151,1.718-2.559.055-.13.1-.221.141-.326a16.5,16.5,0,0,1,.484-1.68,60.334,60.334,0,0,0,1.936-7.792,3.8,3.8,0,0,0-.156-1.88c-12.712-37.352-25.741-73.227-30.347-77.833C192.607,54.6,170.89,48.85,162.685,46.9a3.8,3.8,0,0,0-4.237,1.962c-2.092,3.972-8.128,10.947-24.71,10.947-16.019,0-20.951-7.056-22.471-11.416a3.745,3.745,0,0,0-4.495-2.382c-9.234,2.409-32.328,8.7-36.614,12.371C63.848,63.8,49.69,87.509,49.69,87.509S18.918,134.56,14.207,152.452c-2.147,8.158,7.9,17.789,14.532,20.053,6.6,2.248,20.1.734,25.158-8.124,5.5-9.629,11.379-21.311,15.71-30.2a3.771,3.771,0,0,1,7.155,1.5l.486,11.578a3.772,3.772,0,0,0,3.789,3.612l98.362-.549a3.771,3.771,0,0,0,3.749-3.774,3.772,3.772,0,0,1,7.283-1.383" transform="translate(12.619 41.625)" fill="#5774cd"/>
        <path id="Path_184694" data-name="Path 184694" d="M74.611,143.461l-1.07-34.949a.657.657,0,0,0-1.314.04l1.066,34.865c.441.013.879.031,1.318.044" transform="translate(65.514 97.849)"/>
        <path id="Path_184695" data-name="Path 184695" d="M59.095,134.008c.315-.544.626-1.1.925-1.674a58.48,58.48,0,0,0,5.195-14.721.548.548,0,1,0-1.077-.2,57.359,57.359,0,0,1-5.1,14.431c-.383.734-.8,1.406-1.2,2.086.421.025.841.051,1.261.074" transform="translate(52.459 106.096)" fill="#fff"/>
        <path id="Path_184696" data-name="Path 184696" d="M101.837,136.122l1.415.006a36.274,36.274,0,0,1-3.717-5.372,53.121,53.121,0,0,1-5.313-13.622.547.547,0,1,0-1.072.223,54.029,54.029,0,0,0,5.42,13.92,38,38,0,0,0,3.267,4.846" transform="translate(84.482 105.851)" fill="#fff"/>
        <path id="Path_184697" data-name="Path 184697" d="M51.9,118.308a.548.548,0,0,1,0-1.1l96.93-.515h0a.548.548,0,0,1,0,1.1l-96.93.515Z" transform="translate(46.582 105.851)" fill="#fff"/>
        <path id="Path_184698" data-name="Path 184698" d="M89.54,6.8c-15.167,0-32.26,13.174-28.955,34.9l9.707-12.039c2.229,9.2,5.008-9.284,5.008-9.284,26.68,20.3,26.56,5.128,26.56,5.128s8.574,18.268,13.075,10.718c0,0,2.582,2.325,3.98,1.926C119.856,16.094,102.378,6.8,89.54,6.8" transform="translate(54.578 6.171)" fill="#fea419"/>
        <path id="Path_184699" data-name="Path 184699" d="M92.236,23.318s6.423-5.214,8.862,2.857c2.329,7.706-6.78,11.076-9.118,10.008-4.335-1.981-4.777-6.442.256-12.865" transform="translate(80.361 19.648)" fill="#a9543d"/>
        <path id="Path_184700" data-name="Path 184700" d="M90.858,28.933a.644.644,0,0,1-.33-.088.66.66,0,0,1-.238-.9,10.114,10.114,0,0,1,7.182-4.75.658.658,0,0,1,.141,1.308,8.928,8.928,0,0,0-6.186,4.106.653.653,0,0,1-.568.324" transform="translate(81.818 21.036)"/>
        <path id="Path_184701" data-name="Path 184701" d="M93.7,30.215a.661.661,0,0,1-.564-.318L90.824,26.05a.657.657,0,0,1,1.127-.677l2.308,3.847a.657.657,0,0,1-.563,1" transform="translate(82.297 22.725)"/>
        <path id="Path_184702" data-name="Path 184702" d="M74.741,33.256a.658.658,0,0,1-.559-1l2.433-3.936a.658.658,0,0,1,1.015-.13l3.58,3.437a.658.658,0,1,1-.912.948L77.306,29.7l-2,3.244a.658.658,0,0,1-.561.313" transform="translate(67.199 25.402)"/>
        <path id="Path_184703" data-name="Path 184703" d="M85.81,37.56C76.753,41.879,70.353,34.5,70.353,34.5Z" transform="translate(63.814 31.293)"/>
        <path id="Path_184704" data-name="Path 184704" d="M80.737,33.595S74.766,16.183,62.7,29.908c0,0,6.467,13.227,18.037,3.686" transform="translate(56.873 22.347)" fill="#fff"/>
        <path id="Path_184705" data-name="Path 184705" d="M79,33.6s5.839-17.455,18.008-3.822c0,0-6.368,13.277-18.008,3.822" transform="translate(71.656 22.291)" fill="#fff"/>
        <path id="Path_184706" data-name="Path 184706" d="M79.463,25.235a.658.658,0,0,1-.482-1.106c.185-.2,4.619-4.813,13.614-.9a.658.658,0,0,1-.526,1.205c-8.149-3.547-12.085.545-12.123.587a.659.659,0,0,1-.482.21" transform="translate(71.481 19.648)"/>
        <path id="Path_184707" data-name="Path 184707" d="M78.342,25.235a.661.661,0,0,1-.481-.208c-.166-.175-4.035-4.112-12.125-.589a.658.658,0,1,1-.526-1.205c9-3.917,13.43.7,13.613.9a.657.657,0,0,1-.481,1.106" transform="translate(58.791 19.648)"/>
        <path id="Path_184708" data-name="Path 184708" d="M77.269,30.845a6.5,6.5,0,0,0-.261-1.829c-1.953-2.794-5.107-5.534-9.48-3.875A6.54,6.54,0,0,0,65.85,35.2a9.023,9.023,0,0,0,7.6,1.589,6.54,6.54,0,0,0,3.816-5.946" transform="translate(58.221 22.348)"/>
        <path id="Path_184709" data-name="Path 184709" d="M93.179,30.739A6.541,6.541,0,0,0,89.8,25.059c-4.384-1.627-7.52,1.139-9.451,3.946a6.537,6.537,0,0,0,3.614,7.748,9.017,9.017,0,0,0,7.59-1.646,6.508,6.508,0,0,0,1.631-4.369" transform="translate(72.653 22.291)"/>
        <path id="Path_184710" data-name="Path 184710" d="M81.1,114.733a3.683,3.683,0,1,1-3.683-3.683,3.682,3.682,0,0,1,3.683,3.683" transform="translate(66.878 100.729)"/>
        <path id="Path_184711" data-name="Path 184711" d="M77.675,119.224a4.231,4.231,0,1,1,4.232-4.23,4.236,4.236,0,0,1-4.232,4.23m0-7.365a3.135,3.135,0,1,0,3.135,3.135,3.139,3.139,0,0,0-3.135-3.135" transform="translate(66.617 100.468)" fill="#fff"/>
      </g>
      <g id="Group_175257" data-name="Group 175257" transform="translate(-8007.849 -7123.024)">
        <g id="Group_175256" data-name="Group 175256" clip-path="url(#clip-path-2)">
          <path id="Path_184712" data-name="Path 184712" d="M88.123,25.823c-.265,0-.538-.008-.814-.023a.658.658,0,0,1,.074-1.314c2.962.168,5.126-.66,6.433-2.456,4.232-5.822-1.144-19.881-1.2-20.022a.657.657,0,0,1,1.226-.475,51.359,51.359,0,0,1,2.277,8.118c1.154,6.009.736,10.434-1.24,13.151-1.459,2.006-3.728,3.021-6.757,3.021" transform="translate(-75.521 -0.967)"/>
          <path id="Path_184713" data-name="Path 184713" d="M98.515,22.922a.82.82,0,0,1-.116-.01c-3.976-.711-7.884-4.665-11.614-11.753A73.1,73.1,0,0,1,82.4.858a.658.658,0,0,1,1.253-.4c.063.2,6.385,19.626,14.972,21.161a.657.657,0,0,1-.114,1.3" transform="translate(-79.435 -1.975)"/>
        </g>
      </g>
      <g id="Group_175265" data-name="Group 175265" transform="translate(-8162 -7125)">
        <g id="Group_175267" data-name="Group 175267">
          <path id="Path_184715" data-name="Path 184715" d="M99.811,107.177a.338.338,0,0,1-.061,0,.63.63,0,0,1-.559-.69A139.542,139.542,0,0,1,103.137,85.8c2.8-10.313,8.017-24.227,17.022-31.936a.614.614,0,0,1,.877.076.641.641,0,0,1-.076.893c-8.757,7.5-13.87,21.151-16.618,31.283a138.163,138.163,0,0,0-3.913,20.491.625.625,0,0,1-.618.572" transform="translate(89.97 48.72)"/>
          <path id="Path_184716" data-name="Path 184716" d="M49.754,93.285a.624.624,0,0,1-.61-.519L42.631,56.639a.633.633,0,0,1,.5-.738.623.623,0,0,1,.725.509l6.513,36.127a.631.631,0,0,1-.5.736.576.576,0,0,1-.113.011" transform="translate(38.659 50.696)"/>
          <path id="Path_184717" data-name="Path 184717" d="M110.417,94.7a12.193,12.193,0,0,1-4.342-4.728C103.664,85.817,100.561,75,90.4,68.613s-7.445,11-7.445,11L77.28,97.141l28.278,14.332s7.186-5.426,4.859-16.771" transform="translate(70.097 60.958)" fill="#a9543d"/>
          <path id="Path_184718" data-name="Path 184718" d="M97.809,92.737A41.22,41.22,0,0,1,79.467,89.18c-4.987-2.264-7.867-3.763-9.472-4.67a2.675,2.675,0,0,1-1.158-3.17A2.12,2.12,0,0,1,71.5,79.935a60.612,60.612,0,0,0,12.1,2.821c5.731.467,14.211,9.982,14.211,9.982" transform="translate(62.309 72.412)" fill="#a9543d"/>
          <path id="Path_184719" data-name="Path 184719" d="M98.934,90.041s-12.39-.551-21.779-4.718c-5.294-2.351-8.3-3.541-9.839-4.409a2.615,2.615,0,0,1-.877-2.958,2.649,2.649,0,0,1,3.129-1.764c4.709,1.156,15.323,3.673,19.715,4.016,5.729.444,9.65,9.833,9.65,9.833" transform="translate(60.14 69.042)" fill="#a9543d"/>
          <path id="Path_184720" data-name="Path 184720" d="M99.121,87.381s-13.143-1-22.942-5.6c-5.557-2.609-8.679-4.016-10.268-4.955a2.557,2.557,0,0,1-.79-3,2.72,2.72,0,0,1,3.225-1.711c4.869,1.327,16.235,4.339,20.938,4.846,6.066.656,9.837,10.416,9.837,10.416" transform="translate(58.903 65.332)" fill="#a9543d"/>
          <path id="Path_184721" data-name="Path 184721" d="M101.339,83.906S88.373,82.95,78.706,78.48c-5.746-2.658-8.778-4.049-10.279-4.939a2.256,2.256,0,0,1-.711-2.6v0a2.9,2.9,0,0,1,3.417-1.833c4.88,1.306,15.916,4.175,20.51,4.659,5.986.633,9.7,10.138,9.7,10.138" transform="translate(61.287 62.6)" fill="#a9543d"/>
          <path id="Path_184722" data-name="Path 184722" d="M84.132,100.127,96.8,103.5,94.6,72.482a56.075,56.075,0,0,1-11.877-.9c-6.749-1.2-5.767,26.63,1.407,28.541" transform="translate(70.904 64.898)" fill="#a9543d"/>
          <path id="Path_184723" data-name="Path 184723" d="M89.5,78.788a.369.369,0,0,1-.065,0A62.72,62.72,0,0,1,71.1,73.507a.31.31,0,0,1,.259-.563,62.022,62.022,0,0,0,18.127,5.227.31.31,0,0,1,.01.616" transform="translate(64.331 66.139)"/>
          <path id="Path_184724" data-name="Path 184724" d="M88.408,83.5a.307.307,0,0,1-.093,0,82.375,82.375,0,0,1-19.82-6.873.309.309,0,1,1,.284-.549,81.674,81.674,0,0,0,19.65,6.814.31.31,0,0,1-.021.612" transform="translate(61.977 68.971)"/>
          <path id="Path_184725" data-name="Path 184725" d="M86.3,86.4a.367.367,0,0,1-.092,0,56.17,56.17,0,0,1-16.942-6.093.31.31,0,0,1,.305-.54A55.5,55.5,0,0,0,86.318,85.79a.31.31,0,0,1-.017.612" transform="translate(62.686 72.318)"/>
          <path id="Path_184726" data-name="Path 184726" d="M96.13,79.331a11.925,11.925,0,0,0,4.129,4.371c2.327,11.345-4.861,16.771-4.861,16.771l-6.919-3.507Z" transform="translate(80.256 71.958)"/>
          <path id="Path_184727" data-name="Path 184727" d="M73.029,72.615c-.33,1.03-1.825,1.472-3.337.986s-2.475-1.711-2.145-2.74,1.825-1.472,3.339-.988,2.473,1.713,2.144,2.742" transform="translate(61.209 63.2)"/>
          <path id="Path_184728" data-name="Path 184728" d="M70.794,75.757c-.372,1.165-1.985,1.69-3.6,1.173s-2.624-1.88-2.25-3.046,1.985-1.69,3.6-1.173,2.622,1.88,2.25,3.046" transform="translate(58.837 65.773)"/>
          <path id="Path_184729" data-name="Path 184729" d="M71.55,79.58c-.324,1.013-1.724,1.468-3.128,1.018s-2.279-1.634-1.955-2.645,1.724-1.468,3.128-1.018,2.279,1.632,1.955,2.645" transform="translate(60.229 69.627)"/>
          <path id="Path_184730" data-name="Path 184730" d="M73.2,83.394c-.41.854-1.7,1.085-2.891.517s-1.814-1.724-1.4-2.58,1.7-1.085,2.889-.515,1.814,1.724,1.4,2.578" transform="translate(62.389 73.021)"/>
          <path id="Path_184731" data-name="Path 184731" d="M69.933,123.089a.547.547,0,0,1-.307-1l23.23-15.728L77.1,78.452,22.974,110.495a.548.548,0,0,1-.559-.944L77.025,77.224a.544.544,0,0,1,.755.2l16.279,28.835a.549.549,0,0,1-.17.723L70.24,123a.557.557,0,0,1-.307.093" transform="translate(20.088 69.976)"/>
          <path id="Path_184732" data-name="Path 184732" d="M27.892,95.637a.55.55,0,0,1-.4-.175l-4.422-4.779a.549.549,0,1,1,.8-.746l4.422,4.781a.547.547,0,0,1-.4.919" transform="translate(20.791 81.419)"/>
          <path id="Path_184735" data-name="Path 184735" d="M163.194,117.277l-67.4-44.324L79.514,101.788l55.244,31.238a8.539,8.539,0,0,0,9.512-.742Z" transform="translate(72.124 66.173)" fill="#5774cd"/>
          <path id="Path_184736" data-name="Path 184736" d="M103.423,118.608a.547.547,0,0,0,.307-1L80.5,101.879,96.254,73.971l54.128,32.042a.548.548,0,0,0,.559-.944L96.33,72.743a.544.544,0,0,0-.755.2L79.3,101.78a.549.549,0,0,0,.17.723l23.649,16.012a.548.548,0,0,0,.307.093" transform="translate(71.863 65.912)"/>
          <path id="Path_184737" data-name="Path 184737" d="M113.852,91.154a.55.55,0,0,0,.4-.175l4.422-4.779a.549.549,0,0,0-.8-.746l-4.422,4.781a.547.547,0,0,0,.4.919" transform="translate(102.773 77.353)"/>
          <path id="Path_184738" data-name="Path 184738" d="M52.028,95.075a12.193,12.193,0,0,0,4.342-4.728c2.411-4.157,5.513-14.978,15.67-21.361s7.445,11,7.445,11l5.679,17.532L56.887,111.845S49.7,106.42,52.028,95.075" transform="translate(46.771 61.297)" fill="#a9543d"/>
          <path id="Path_184739" data-name="Path 184739" d="M65.007,108.279l29.706,1.4a1.014,1.014,0,0,0,1.016-1.016l1.831-46.54a1.029,1.029,0,0,0-.929-1.106l-29.71-1.4a1.014,1.014,0,0,0-1.015,1.016l-1.833,46.54a1.032,1.032,0,0,0,.933,1.108" transform="translate(58.118 54.073)"/>
          <path id="Path_184740" data-name="Path 184740" d="M64.926,109.636l29.708,1.4a1.01,1.01,0,0,0,1.015-1.016l1.835-46.593a1.031,1.031,0,0,0-.931-1.108l-29.708-1.4a1.011,1.011,0,0,0-1.013,1.016L64,108.528a1.031,1.031,0,0,0,.931,1.108" transform="translate(58.047 55.256)" fill="#ffd4de"/>
          <g id="Group_175260" data-name="Group 175260" transform="translate(127.383 131.64)" opacity="0.7">
            <g id="Group_175259" data-name="Group 175259">
              <g id="Group_175258" data-name="Group 175258" clip-path="url(#clip-path-3)">
                <path id="Path_184741" data-name="Path 184741" d="M75.288,69.087c-1.917.225-4.554.257-6.413,4.3s-3.278,4.207-.587,6.545,6.963,9.192,9.871,8.179S88.123,82.519,88,78.217s-6.8-9.825-12.712-9.129" transform="translate(-66.795 -69.028)" fill="#fff"/>
              </g>
            </g>
          </g>
          <path id="Path_184742" data-name="Path 184742" d="M72.24,64.648c-.135,1.324-1.686,2.25-3.463,2.069s-3.11-1.4-2.977-2.725,1.686-2.25,3.465-2.067,3.11,1.4,2.975,2.723" transform="translate(59.676 56.149)"/>
          <g id="Group_175263" data-name="Group 175263" transform="translate(126.838 119.057)" opacity="0.7">
            <g id="Group_175262" data-name="Group 175262">
              <g id="Group_175261" data-name="Group 175261" clip-path="url(#clip-path-4)">
                <path id="Path_184743" data-name="Path 184743" d="M70.139,63.975a1.639,1.639,0,0,1-1.949,1.163c-1-.1-1.751-.788-1.674-1.533a1.642,1.642,0,0,1,1.949-1.163c1,.1,1.751.788,1.674,1.533" transform="translate(-66.509 -62.43)" fill="#fff"/>
              </g>
            </g>
          </g>
          <path id="Path_184744" data-name="Path 184744" d="M72.738,63.523a1.4,1.4,0,0,1-1.659.99c-.851-.086-1.489-.669-1.425-1.3a1.4,1.4,0,0,1,1.659-.99c.851.086,1.489.671,1.425,1.3" transform="translate(63.176 56.427)"/>
          <path id="Path_184745" data-name="Path 184745" d="M62.5,93.11a41.221,41.221,0,0,0,18.342-3.557c4.987-2.264,7.867-3.763,9.472-4.67a2.675,2.675,0,0,0,1.158-3.17,2.12,2.12,0,0,0-2.662-1.406,60.612,60.612,0,0,1-12.1,2.821C70.983,83.6,62.5,93.11,62.5,93.11" transform="translate(56.693 72.751)" fill="#a9543d"/>
          <path id="Path_184746" data-name="Path 184746" d="M63.05,90.415s12.39-.551,21.779-4.718c5.294-2.351,8.3-3.541,9.839-4.409a2.615,2.615,0,0,0,.877-2.958,2.649,2.649,0,0,0-3.129-1.764C87.706,77.722,77.092,80.239,72.7,80.58c-5.729.446-9.65,9.835-9.65,9.835" transform="translate(57.19 69.381)" fill="#a9543d"/>
          <path id="Path_184747" data-name="Path 184747" d="M63.6,87.754s13.142-1,22.94-5.593C92.1,79.55,95.221,78.145,96.81,77.2a2.559,2.559,0,0,0,.79-3,2.72,2.72,0,0,0-3.225-1.711c-4.869,1.327-16.235,4.339-20.939,4.846-6.066.656-9.835,10.416-9.835,10.416" transform="translate(57.689 65.671)" fill="#a9543d"/>
          <path id="Path_184748" data-name="Path 184748" d="M61.187,84.28s12.966-.955,22.633-5.426C89.566,76.2,92.6,74.805,94.1,73.915a2.256,2.256,0,0,0,.711-2.6v0a2.9,2.9,0,0,0-3.417-1.833c-4.88,1.306-15.916,4.175-20.51,4.659-5.986.633-9.7,10.138-9.7,10.138" transform="translate(55.5 62.939)" fill="#a9543d"/>
          <path id="Path_184749" data-name="Path 184749" d="M71.192,100.5l-12.667,3.374,2.2-31.018a56.09,56.09,0,0,0,11.879-.9c6.749-1.2,5.767,26.63-1.407,28.541" transform="translate(53.086 65.237)" fill="#a9543d"/>
          <path id="Path_184750" data-name="Path 184750" d="M65.929,79.161a.245.245,0,0,0,.065,0A62.606,62.606,0,0,0,84.325,73.88a.31.31,0,0,0-.259-.563,62.021,62.021,0,0,1-18.127,5.227.31.31,0,0,0-.01.616" transform="translate(59.555 66.477)"/>
          <path id="Path_184751" data-name="Path 184751" d="M67.735,83.873a.308.308,0,0,0,.093,0A82.347,82.347,0,0,0,87.648,77a.309.309,0,1,0-.284-.549,81.675,81.675,0,0,1-19.65,6.814.31.31,0,0,0,.021.612" transform="translate(61.192 69.31)"/>
          <path id="Path_184752" data-name="Path 184752" d="M68.468,86.776a.368.368,0,0,0,.092,0A56.17,56.17,0,0,0,85.5,80.681a.31.31,0,0,0-.305-.54,55.5,55.5,0,0,1-16.746,6.022.31.31,0,0,0,.017.612" transform="translate(61.858 72.656)"/>
          <path id="Path_184753" data-name="Path 184753" d="M56.157,79.7a11.92,11.92,0,0,1-4.131,4.371c-2.327,11.345,4.861,16.771,4.861,16.771l6.921-3.507Z" transform="translate(46.771 72.296)"/>
          <path id="Path_184754" data-name="Path 184754" d="M76.1,72.988c.33,1.03,1.823,1.472,3.337.986s2.475-1.711,2.145-2.74-1.825-1.472-3.339-.988-2.473,1.713-2.144,2.742" transform="translate(68.972 63.539)"/>
          <path id="Path_184755" data-name="Path 184755" d="M78.526,76.131c.374,1.165,1.985,1.69,3.6,1.173s2.624-1.88,2.25-3.046-1.985-1.69-3.6-1.173-2.622,1.88-2.25,3.046" transform="translate(71.157 66.112)"/>
          <path id="Path_184756" data-name="Path 184756" d="M77.394,79.953c.324,1.013,1.724,1.468,3.128,1.018s2.279-1.634,1.955-2.645-1.724-1.468-3.128-1.018-2.279,1.632-1.955,2.645" transform="translate(70.14 69.965)"/>
          <path id="Path_184757" data-name="Path 184757" d="M75.424,83.767c.41.854,1.7,1.085,2.891.517s1.814-1.724,1.4-2.58-1.7-1.085-2.889-.515-1.814,1.724-1.4,2.578" transform="translate(68.3 73.359)"/>
          <path id="Path_184758" data-name="Path 184758" d="M15.726,121.759l67.4-44.326L99.406,106.27,45.391,142.089Z" transform="translate(14.265 70.237)" fill="#5774cd"/>
        </g>
      </g>
      <g id="Ellipse_4879" data-name="Ellipse 4879" transform="translate(-8051 -7012)" fill="none" stroke="red" stroke-width="3">
        <circle cx="29.5" cy="29.5" r="29.5" stroke="none"/>
        <circle cx="29.5" cy="29.5" r="28" fill="none"/>
      </g>
      <line id="Line_1471" data-name="Line 1471" x2="14" y2="14" transform="translate(-8040.5 -7003.5)" fill="none" stroke="red" stroke-width="3"/>
      <line id="Line_1472" data-name="Line 1472" x2="11" y2="11" transform="translate(-8013.5 -6973.5)" fill="none" stroke="red" stroke-width="3"/>
    </g>
  </g>
</svg>
