<svg xmlns="http://www.w3.org/2000/svg" xmlns:xlink="http://www.w3.org/1999/xlink" width="293.255" height="323.072" viewBox="0 0 293.255 323.072">
  <defs>
    <clipPath id="clip-path">
      <path id="Path_180078" data-name="Path 180078" d="M134.71-65.145c4.5,0,27.358,4.549,39.123,15.453,11,10.2,2.366,23.108,2.366,23.108s6.99,11.686,7.826,21.561c.557,6.6-5.925,11.878-2.405,13.419A130.249,130.249,0,1,1,17,193.688c-1.34-2.27-3.111-.805-5.558,0-3.656,1.194-8.484,3.39-11.451,0-8.163-9.328-21.4-25.213-21.827-41.655-.018-.663-1.729-23.467-1.729-24.336,0-20.215,3.011-105.488,3.011-105.488S-4.013,19.542,7.993,8.4c2.458-2.282,38.049,19.163,40.991,16.838,2.7-2.136,5.77-4.358,8.935-6.449,3.109-2.055,6.5-4.086,10-5.965,8.025-4.319-8.759-16.66,0-28.08,4.418-5.761,6.824-24.232,16.528-34.431C97.58-63.5,127.457-65.145,134.71-65.145Z" transform="translate(23.568 65.145)" fill="#6b8dfc"/>
    </clipPath>
    <clipPath id="clip-path-2">
      <rect id="Rectangle_45338" data-name="Rectangle 45338" width="272.393" height="536.825" fill="none"/>
    </clipPath>
    <clipPath id="clip-path-3">
      <rect id="Rectangle_45337" data-name="Rectangle 45337" width="272.392" height="536.826" fill="none"/>
    </clipPath>
    <clipPath id="clip-path-4">
      <rect id="Rectangle_45334" data-name="Rectangle 45334" width="7.579" height="8.031" fill="none"/>
    </clipPath>
    <clipPath id="clip-path-5">
      <rect id="Rectangle_45335" data-name="Rectangle 45335" width="3.589" height="9.887" fill="none"/>
    </clipPath>
    <clipPath id="clip-path-6">
      <rect id="Rectangle_45336" data-name="Rectangle 45336" width="3.795" height="9.07" fill="none"/>
    </clipPath>
  </defs>
  <g id="_17" data-name="17" transform="translate(-1010.432 -2125.855)">
    <circle id="Ellipse_4864" data-name="Ellipse 4864" cx="130.231" cy="130.231" r="130.231" transform="translate(1033.083 2188.467)" fill="#6b8dfc"/>
    <g id="Group_174380" data-name="Group 174380" transform="translate(1020.159 2191.781)">
      <g id="Group_174380-2" data-name="Group 174380" transform="translate(188.88 0)">
        <path id="Path_180079" data-name="Path 180079" d="M760.5,517c-.027,0-.055.006-.083.008a.978.978,0,0,1-1.033-.92c-.52-9.082,2.389-18.71,9.154-30.3,1.779-3.047,3.705-6.07,5.568-8.994,3.688-5.788,7.5-11.772,10.272-18.125,9.733-22.307,6.6-47.967,1.773-72.374a.978.978,0,1,1,1.919-.379c4.892,24.718,8.049,50.735-1.9,73.535-2.833,6.493-6.688,12.543-10.416,18.394-1.853,2.908-3.769,5.915-5.528,8.929-6.563,11.243-9.388,20.523-8.891,29.2A.978.978,0,0,1,760.5,517" transform="translate(-759.331 -361.214)" fill="#3c3fa7"/>
        <path id="Path_180080" data-name="Path 180080" d="M828.141,307.264c-1.017-1.7-2.56-3.415-4.537-3.372a4.145,4.145,0,0,0-3.409,2.37,8.6,8.6,0,0,0-.737,4.248c.123,3.431,6.575,22.644,10.779,19.87,2.532-1.671,1.671-9.2,1.436-11.736a26.869,26.869,0,0,0-3.532-11.38" transform="translate(-801.751 -303.891)" fill="#3c3fa7"/>
        <path id="Path_180081" data-name="Path 180081" d="M809.588,393.869a7.783,7.783,0,0,0-3.982-.586,3.675,3.675,0,0,0-2.99,2.436,3.734,3.734,0,0,0,1.081,3.463,8.857,8.857,0,0,0,3.241,1.92c1.583.614,3.215,1.093,4.844,1.57l7.1,2.08a1.183,1.183,0,0,0,.352.065.82.82,0,0,0,.686-.912c-.153-2.1-2.6-4.652-4.032-6.034a18.381,18.381,0,0,0-6.3-4" transform="translate(-789.803 -366.918)" fill="#3c3fa7"/>
        <path id="Path_180082" data-name="Path 180082" d="M867.893,384.808c1.06-1.306,2.388-2.589,4.061-2.767a2.751,2.751,0,0,1,1.315.156,2.627,2.627,0,0,1,1.221,1.074,4.382,4.382,0,0,1-.185,4.357,12.907,12.907,0,0,1-3.112,3.32l-5.571,4.686c-.616.518-1.783,1.982-2.411,1.415a5.5,5.5,0,0,1-.307-2.129c.059-3.473,2.887-7.523,4.99-10.112" transform="translate(-832.414 -359.023)" fill="#3c3fa7"/>
        <path id="Path_180083" data-name="Path 180083" d="M810.62,447.691a20.518,20.518,0,0,0-7.232-3.768,4.617,4.617,0,0,0-3.523.306c-1.637,1.044-1.739,3.543-.736,5.2a11.383,11.383,0,0,0,4.46,3.636L819.28,461.9c.192-6.213-3.946-10.76-8.66-14.21" transform="translate(-786.957 -402.56)" fill="#3c3fa7"/>
        <path id="Path_180084" data-name="Path 180084" d="M873.8,436.661a14.643,14.643,0,0,1,5.41-4.642,6.387,6.387,0,0,1,3.72-.592,3.757,3.757,0,0,1,2.88,2.25c.674,1.839-.519,3.81-1.793,5.3a67.6,67.6,0,0,1-14.673,12.607,1.381,1.381,0,0,1-.621.267.91.91,0,0,1-.835-.545,2.034,2.034,0,0,1-.14-1.037,14.293,14.293,0,0,1,1.06-3.19c.357-1.179.461-2.394.936-3.573a29.735,29.735,0,0,1,4.054-6.843" transform="translate(-835.828 -393.831)" fill="#3c3fa7"/>
        <path id="Path_180085" data-name="Path 180085" d="M825.194,512.529a3.471,3.471,0,0,0-2.706-.822,2.614,2.614,0,0,0-1.714,2.668,7.343,7.343,0,0,0,1.128,3.2c2.5,4.587,6.276,13.372,10.82,16.035,4.3-6.392-2.144-17.329-7.528-21.084" transform="translate(-802.686 -450.491)" fill="#3c3fa7"/>
        <path id="Path_180086" data-name="Path 180086" d="M877.221,510.106c3.22-1.546,6.936-2.726,10.322-1.589a3.737,3.737,0,0,1,1.879,1.217,3.206,3.206,0,0,1-.236,3.672,7.871,7.871,0,0,1-3.158,2.278,43.829,43.829,0,0,1-9.143,2.951c-1.27.28-7.853,2.224-8.666,1.29-1.178-1.354,1.681-4.614,2.43-5.383a22.825,22.825,0,0,1,6.572-4.435" transform="translate(-835.968 -447.962)" fill="#3c3fa7"/>
        <path id="Path_180087" data-name="Path 180087" d="M806.3,613.9a14.328,14.328,0,0,0-4.056-7,4.681,4.681,0,0,0-3.493-1.447,3.852,3.852,0,0,0-3.046,3.152,9.1,9.1,0,0,0,.528,4.6,30.927,30.927,0,0,0,7.122,11.9c.57.592,1.47,1.193,2.132.707,2.946-2.165,1.548-9.177.814-11.912" transform="translate(-784.915 -516.668)" fill="#3c3fa7"/>
        <path id="Path_180088" data-name="Path 180088" d="M857.546,605.112a19.378,19.378,0,0,1,8.5-1.052,3.857,3.857,0,0,1,3.144,1.977,3.07,3.07,0,0,1-.834,3.159,7.984,7.984,0,0,1-2.977,1.7,201.536,201.536,0,0,1-19.761,5.813c-.037-7.018,5.963-9.827,11.924-11.6" transform="translate(-820.22 -515.598)" fill="#3c3fa7"/>
      </g>
      <path id="Path_180089" data-name="Path 180089" d="M285.393,383.211c1.393-.459,3.055-.68,4.217.216a3.322,3.322,0,0,1,1.142,2.907,6.249,6.249,0,0,1-1.216,2.982c-3.066,4.388-8.7,6.627-12.619,10.169-2.747,2.482-2.568-1.827-2.162-3.817a16.983,16.983,0,0,1,3.362-7.311,15.758,15.758,0,0,1,7.275-5.145" transform="translate(-208.344 -335.524)" fill="#3c3fa7"/>
      <path id="Path_180111" data-name="Path 180111" d="M10.869,17.023c1.393.459,3.055.68,4.217-.216A3.322,3.322,0,0,0,16.228,13.9a6.249,6.249,0,0,0-1.216-2.982C11.946,6.53,6.314,4.292,2.394.75-.353-1.732-.174,2.577.232,4.567a16.984,16.984,0,0,0,3.362,7.311,15.758,15.758,0,0,0,7.275,5.145" transform="matrix(-0.875, -0.485, 0.485, -0.875, 248.022, 145.886)" fill="#3c3fa7"/>
      <path id="Path_180090" data-name="Path 180090" d="M266.854,432.425a.831.831,0,0,1-.756-1.257c8.761-14.625,8.08-31.977,5.966-43.957-2.056-11.652-6.129-23.039-10.067-34.052-1.13-3.161-2.3-6.429-3.4-9.656-4.6-13.439-9.14-29.323-7.95-45.239a.831.831,0,0,1,1.658.124c-1.168,15.617,3.321,31.3,7.865,44.577,1.1,3.216,2.267,6.479,3.4,9.634,3.962,11.078,8.059,22.532,10.14,34.323,2.163,12.26,2.848,30.036-6.177,45.1a.83.83,0,0,1-.67.4" transform="translate(-190.293 -271.552)" fill="#3c3fa7"/>
      <path id="Path_180112" data-name="Path 180112" d="M16.4,0a.831.831,0,0,0-.756,1.257c8.761,14.625,8.08,31.977,5.966,43.957-2.056,11.652-6.129,23.039-10.067,34.052-1.13,3.161-2.3,6.429-3.4,9.656C3.543,102.362-1,118.246.192,134.163a.831.831,0,0,0,1.658-.124c-1.168-15.617,3.321-31.3,7.865-44.577,1.1-3.216,2.267-6.478,3.4-9.634C17.073,68.75,21.17,57.3,23.251,45.5,25.414,33.245,26.1,15.469,17.073.4A.83.83,0,0,0,16.4,0" transform="matrix(-0.875, -0.485, 0.485, -0.875, 206.669, 232.912)" fill="#3c3fa7"/>
      <path id="Path_180091" data-name="Path 180091" d="M236.878,234.282a7.91,7.91,0,0,1,2.088-3.527,3.548,3.548,0,0,1,3.843-.675,4.65,4.65,0,0,1,2,2.982c1.188,4.1.581,8.524-.612,12.625-.82,2.819-1.649,6.306-3.083,8.872-1.743,3.119-3.125-1.39-3.746-3.22-1.856-5.465-2.363-11.524-.487-17.056" transform="translate(-179.231 -220.77)" fill="#3c3fa7"/>
      <path id="Path_180113" data-name="Path 180113" d="M1.18,21.347a7.91,7.91,0,0,0,2.088,3.527,3.548,3.548,0,0,0,3.843.675,4.65,4.65,0,0,0,2-2.982c1.188-4.1.581-8.524-.612-12.625-.82-2.819-1.649-6.306-3.083-8.872C3.671-2.049,2.289,2.46,1.667,4.291-.188,9.756-.7,15.815,1.18,21.347" transform="matrix(-0.875, -0.485, 0.485, -0.875, 270.99, 124.488)" fill="#3c3fa7"/>
      <path id="Path_180092" data-name="Path 180092" d="M267.809,328.9c1.332-.6,2.994-.982,4.171-.118a3.166,3.166,0,0,1,.7,3.819,7.408,7.408,0,0,1-2.941,2.925c-3.492,2.206-7.67,3.634-10.158,6.931-.319.423-.99.88-1.264.427a.788.788,0,0,1-.079-.391c-.148-5.2,4.487-12.032,9.568-13.591" transform="translate(-196.132 -294.635)" fill="#3c3fa7"/>
      <path id="Path_180114" data-name="Path 180114" d="M9.571,14.17c1.332.6,2.994.982,4.171.118a3.166,3.166,0,0,0,.7-3.819A7.408,7.408,0,0,0,11.5,7.545C8.013,5.339,3.834,3.911,1.347.614,1.028.191.357-.265.083.188A.788.788,0,0,0,0,.579C-.145,5.776,4.49,12.611,9.571,14.17" transform="matrix(-0.875, -0.485, 0.485, -0.875, 259.475, 133.629)" fill="#3c3fa7"/>
      <path id="Path_180093" data-name="Path 180093" d="M193.935,338.185a8.906,8.906,0,0,0-3.759-.54,4.313,4.313,0,0,0-3.2,1.849,3.518,3.518,0,0,0,1.6,4.9,7.08,7.08,0,0,0,2.841.295c4.329-.114,8.825.179,12.663,2.185.676-1.621-2.9-4.433-3.973-5.3a19.551,19.551,0,0,0-6.171-3.39" transform="translate(-142.357 -301.63)" fill="#3c3fa7"/>
      <path id="Path_180115" data-name="Path 180115" d="M7.415,8.692a8.906,8.906,0,0,1-3.759.54,4.313,4.313,0,0,1-3.2-1.849,3.518,3.518,0,0,1,1.6-4.9A7.079,7.079,0,0,1,4.9,2.185C9.227,2.3,13.722,2.006,17.56,0c.676,1.621-2.9,4.433-3.973,5.3a19.552,19.552,0,0,1-6.171,3.39" transform="matrix(-0.875, -0.485, 0.485, -0.875, 276.715, 139.537)" fill="#3c3fa7"/>
      <path id="Path_180094" data-name="Path 180094" d="M199.789,404.53c-2.081-.118-4.452.252-5.652,1.956a2.144,2.144,0,0,0-.447,1.465c.119.941,1.06,1.528,1.922,1.926,5.455,2.518,11.8,3.047,16.789,6.4a1.463,1.463,0,0,0,.866.349c3.018-.2-2.2-7.257-2.994-7.942a17.674,17.674,0,0,0-10.483-4.152" transform="translate(-147.724 -351.795)" fill="#3c3fa7"/>
      <path id="Path_180116" data-name="Path 180116" d="M6.111,12.1c-2.081.118-4.452-.252-5.652-1.956A2.145,2.145,0,0,1,.012,8.675c.119-.941,1.06-1.528,1.922-1.926C7.389,4.231,13.736,3.7,18.722.35A1.463,1.463,0,0,1,19.589,0c3.018.2-2.2,7.257-2.994,7.942A17.675,17.675,0,0,1,6.111,12.1" transform="matrix(-0.875, -0.485, 0.485, -0.875, 265.654, 155.798)" fill="#3c3fa7"/>
      <path id="Path_180095" data-name="Path 180095" d="M309.862,441.553a9.471,9.471,0,0,1,3.656-1.53,4.268,4.268,0,0,1,3.682,1.1c1.136,1.2,1.211,3.057.9,4.676-.71,3.644-2.994,6.785-5.524,9.5a49.507,49.507,0,0,1-9.539,7.96c-.741.475-1.717.931-2.447.439a2.218,2.218,0,0,1-.743-1.219c-2.683-8.253,3.152-16.589,10.02-20.932" transform="translate(-226.827 -378.385)" fill="#3c3fa7"/>
      <path id="Path_180117" data-name="Path 180117" d="M10.687,22.363a9.471,9.471,0,0,0,3.656,1.53,4.268,4.268,0,0,0,3.682-1.1c1.136-1.2,1.211-3.057.9-4.676-.71-3.644-2.994-6.786-5.524-9.5A49.506,49.506,0,0,0,3.857.651C3.116.176,2.14-.28,1.41.212A2.218,2.218,0,0,0,.667,1.431C-2.017,9.684,3.818,18.02,10.687,22.363" transform="matrix(-0.875, -0.485, 0.485, -0.875, 232.533, 161.107)" fill="#3c3fa7"/>
      <path id="Path_180096" data-name="Path 180096" d="M210.441,484.382a21.558,21.558,0,0,0-12.916-2.444c-2.059.287-4.406,1.262-4.812,3.3a3.831,3.831,0,0,0,.6,2.712,7.792,7.792,0,0,0,5.392,3.208,46.8,46.8,0,0,0,6.451.306,30.451,30.451,0,0,1,14.872,4.543.588.588,0,0,0,.525.126.534.534,0,0,0,.244-.392c.994-4.252-7.226-9.709-10.352-11.36" transform="translate(-146.958 -409.715)" fill="#3c3fa7"/>
      <path id="Path_180118" data-name="Path 180118" d="M17.785,11.779A21.558,21.558,0,0,1,4.869,14.223C2.81,13.935.464,12.961.057,10.922a3.831,3.831,0,0,1,.6-2.712A7.792,7.792,0,0,1,6.046,5,46.8,46.8,0,0,1,12.5,4.7,30.451,30.451,0,0,0,27.368.153a.588.588,0,0,1,.525-.126.534.534,0,0,1,.244.392c.994,4.252-7.226,9.709-10.352,11.36" transform="matrix(-0.875, -0.485, 0.485, -0.875, 255.399, 174.827)" fill="#3c3fa7"/>
      <path id="Path_180097" data-name="Path 180097" d="M331.422,545.963a16.4,16.4,0,0,1,6.309-6.97,4.311,4.311,0,0,1,3.855-.559,3.229,3.229,0,0,1,1.676,2.746,6.312,6.312,0,0,1-.838,3.227,24.734,24.734,0,0,1-3.236,4.458l-7.879,9.308a2.077,2.077,0,0,1-.8.669c-.844.316-1.693-.579-1.867-1.463-.715-3.633,1.165-8.245,2.777-11.416" transform="translate(-248.807 -452.017)" fill="#3c3fa7"/>
      <path id="Path_180119" data-name="Path 180119" d="M2.933,12.944a16.4,16.4,0,0,0,6.309,6.97,4.311,4.311,0,0,0,3.855.559,3.229,3.229,0,0,0,1.676-2.746,6.312,6.312,0,0,0-.838-3.227A24.73,24.73,0,0,0,10.7,10.042L2.819.734a2.077,2.077,0,0,0-.8-.669C1.18-.251.33.644.156,1.528-.559,5.161,1.321,9.773,2.933,12.944" transform="matrix(-0.875, -0.485, 0.485, -0.875, 215.765, 176.232)" fill="#3c3fa7"/>
      <path id="Path_180098" data-name="Path 180098" d="M222.736,570a10.27,10.27,0,0,0-5.867.372,6.262,6.262,0,0,0-2.4,8.938c1.905,2.667,5.561,3.312,8.836,3.443,7.228.289,15.035-.719,21.2,3.072-.447-.275-1.044-2.919-1.343-3.539a11.667,11.667,0,0,0-1.168-2.078,23.519,23.519,0,0,0-5.425-4.649A34.314,34.314,0,0,0,222.736,570" transform="translate(-162.56 -475.699)" fill="#3c3fa7"/>
      <g id="Group_174382" data-name="Group 174382" transform="translate(0 71.651)">
        <path id="Path_180100" data-name="Path 180100" d="M10.869.4c1.393-.459,3.055-.68,4.217.216a3.322,3.322,0,0,1,1.142,2.907A6.249,6.249,0,0,1,15.012,6.5c-3.066,4.388-8.7,6.627-12.619,10.169C-.353,19.155-.174,14.846.232,12.856A16.983,16.983,0,0,1,3.594,5.545,15.758,15.758,0,0,1,10.869.4" transform="matrix(0.875, -0.485, 0.485, 0.875, 27.059, 33.506)" fill="#3c3fa7"/>
        <path id="Path_180101" data-name="Path 180101" d="M16.4,134.931a.831.831,0,0,1-.756-1.257c8.761-14.625,8.08-31.977,5.966-43.957-2.056-11.652-6.129-23.039-10.067-34.052-1.13-3.161-2.3-6.429-3.4-9.656C3.543,32.57-1,16.685.192.769A.831.831,0,0,1,1.85.893C.683,16.51,5.171,32.191,9.715,45.47c1.1,3.216,2.267,6.479,3.4,9.634,3.962,11.078,8.059,22.532,10.14,34.323,2.163,12.26,2.848,30.036-6.177,45.1a.83.83,0,0,1-.67.4" transform="matrix(0.875, -0.485, 0.485, 0.875, 11.443, 17.757)" fill="#3c3fa7"/>
        <path id="Path_180102" data-name="Path 180102" d="M1.18,4.514A7.91,7.91,0,0,1,3.268.987,3.548,3.548,0,0,1,7.111.312a4.65,4.65,0,0,1,2,2.982C10.3,7.4,9.689,11.818,8.5,15.92c-.82,2.819-1.649,6.306-3.083,8.872-1.743,3.119-3.125-1.39-3.746-3.22C-.188,16.106-.7,10.047,1.18,4.514" transform="matrix(0.875, -0.485, 0.485, 0.875, 0, 4.728)" fill="#3c3fa7"/>
        <path id="Path_180103" data-name="Path 180103" d="M9.572.623C10.9.025,12.565-.359,13.742.5a3.166,3.166,0,0,1,.7,3.819A7.408,7.408,0,0,1,11.5,7.248c-3.492,2.206-7.67,3.634-10.158,6.931-.319.423-.99.88-1.264.427A.788.788,0,0,1,0,14.214C-.145,9.018,4.49,2.182,9.572.623" transform="matrix(0.875, -0.485, 0.485, 0.875, 16.881, 23.55)" fill="#3c3fa7"/>
        <path id="Path_180104" data-name="Path 180104" d="M7.415.578A8.906,8.906,0,0,0,3.657.038a4.313,4.313,0,0,0-3.2,1.849,3.518,3.518,0,0,0,1.6,4.9A7.08,7.08,0,0,0,4.9,7.084c4.329-.114,8.825.179,12.663,2.185.676-1.621-2.9-4.433-3.973-5.3A19.551,19.551,0,0,0,7.415.578" transform="matrix(0.875, -0.485, 0.485, 0.875, 2.319, 34.289)" fill="#3c3fa7"/>
        <path id="Path_180105" data-name="Path 180105" d="M6.111.02C4.03-.1,1.659.272.459,1.976A2.144,2.144,0,0,0,.012,3.441c.119.941,1.06,1.528,1.922,1.926,5.455,2.518,11.8,3.047,16.789,6.4a1.463,1.463,0,0,0,.866.349c3.018-.2-2.2-7.257-2.994-7.942A17.674,17.674,0,0,0,6.111.02" transform="matrix(0.875, -0.485, 0.485, 0.875, 12, 48.06)" fill="#3c3fa7"/>
        <path id="Path_180106" data-name="Path 180106" d="M10.687,1.581A9.471,9.471,0,0,1,14.343.05a4.268,4.268,0,0,1,3.682,1.1c1.136,1.2,1.211,3.057.9,4.676-.71,3.644-2.994,6.785-5.524,9.5a49.507,49.507,0,0,1-9.539,7.96c-.741.475-1.717.931-2.447.439a2.218,2.218,0,0,1-.743-1.219C-2.017,14.259,3.818,5.924,10.687,1.581" transform="matrix(0.875, -0.485, 0.485, 0.875, 39.387, 43.024)" fill="#3c3fa7"/>
        <path id="Path_180107" data-name="Path 180107" d="M17.785,2.626A21.558,21.558,0,0,0,4.869.182C2.81.469.464,1.444.057,3.483A3.831,3.831,0,0,0,.654,6.2,7.792,7.792,0,0,0,6.046,9.4a46.8,46.8,0,0,0,6.451.306,30.451,30.451,0,0,1,14.872,4.543.588.588,0,0,0,.525.126.534.534,0,0,0,.244-.392c.994-4.252-7.226-9.709-10.352-11.36" transform="matrix(0.875, -0.485, 0.485, 0.875, 21.146, 65.088)" fill="#3c3fa7"/>
        <path id="Path_180108" data-name="Path 180108" d="M2.933,7.79A16.4,16.4,0,0,1,9.241.82,4.311,4.311,0,0,1,13.1.262a3.229,3.229,0,0,1,1.676,2.746,6.312,6.312,0,0,1-.838,3.227A24.734,24.734,0,0,1,10.7,10.692L2.819,20a2.077,2.077,0,0,1-.8.669C1.18,20.985.33,20.091.156,19.206-.559,15.573,1.321,10.961,2.933,7.79" transform="matrix(0.875, -0.485, 0.485, 0.875, 57.711, 60.957)" fill="#3c3fa7"/>
        <path id="Path_180109" data-name="Path 180109" d="M9.272.246A10.27,10.27,0,0,0,3.406.618,6.262,6.262,0,0,0,1,9.556C2.907,12.223,6.563,12.868,9.838,13c7.228.289,15.035-.719,21.2,3.072-.447-.275-1.044-2.919-1.343-3.539a11.667,11.667,0,0,0-1.168-2.078A23.519,23.519,0,0,0,23.1,5.8,34.314,34.314,0,0,0,9.272.246" transform="matrix(0.875, -0.485, 0.485, 0.875, 36.373, 81.819)" fill="#3c3fa7"/>
      </g>
      <path id="Path_180120" data-name="Path 180120" d="M9.272,15.825a10.27,10.27,0,0,1-5.867-.372A6.262,6.262,0,0,1,1,6.515C2.907,3.848,6.563,3.2,9.838,3.072c7.228-.289,15.035.719,21.2-3.072-.447.275-1.044,2.919-1.343,3.539a11.668,11.668,0,0,1-1.168,2.078A23.519,23.519,0,0,1,23.1,10.266,34.314,34.314,0,0,1,9.272,15.825" transform="matrix(-0.875, -0.485, 0.485, -0.875, 239.364, 193.016)" fill="#3c3fa7"/>
      <path id="Path_180099" data-name="Path 180099" d="M343.18,627.2a15.23,15.23,0,0,1,3.789-5.484,11.044,11.044,0,0,1,3-2.029,1.821,1.821,0,0,1,1.223-.192,1.6,1.6,0,0,1,.757.581,5.14,5.14,0,0,1,.572,4.792,13.9,13.9,0,0,1-2.663,4.237q-3.128,3.792-6.587,7.293a.862.862,0,0,1-.473.3c-.391.047-.631-.412-.733-.793-.827-3.093-.052-5.814,1.114-8.706" transform="translate(-258.729 -512.959)" fill="#3c3fa7"/>
      <path id="Path_180110" data-name="Path 180110" d="M1.459,7.75A15.23,15.23,0,0,1,5.248,2.266a11.044,11.044,0,0,1,3-2.029A1.821,1.821,0,0,1,9.472.045a1.6,1.6,0,0,1,.757.581A5.14,5.14,0,0,1,10.8,5.417,13.9,13.9,0,0,1,8.137,9.654Q5.009,13.446,1.55,16.948a.862.862,0,0,1-.473.3c-.391.047-.631-.412-.733-.793C-.482,13.363.293,10.642,1.459,7.75" transform="matrix(0.875, -0.485, 0.485, 0.875, 60.487, 146.931)" fill="#3c3fa7"/>
      <path id="Path_180121" data-name="Path 180121" d="M1.459,9.5a15.23,15.23,0,0,0,3.789,5.484,11.046,11.046,0,0,0,3,2.029,1.821,1.821,0,0,0,1.223.192,1.6,1.6,0,0,0,.757-.58,5.14,5.14,0,0,0,.572-4.792A13.9,13.9,0,0,0,8.137,7.6Q5.009,3.806,1.55.305A.862.862,0,0,0,1.077,0C.686-.044.447.415.345.8-.482,3.889.293,6.61,1.459,9.5" transform="matrix(-0.875, -0.485, 0.485, -0.875, 204.699, 189.367)" fill="#3c3fa7"/>
    </g>
    <g id="Mask_Group_283" data-name="Mask Group 283" transform="translate(1010.432 2125.855)" clip-path="url(#clip-path)">
      <g id="Group_175149" data-name="Group 175149" transform="translate(1.022 3.974)">
        <g id="Group_175148" data-name="Group 175148" clip-path="url(#clip-path-2)">
          <rect id="Rectangle_45333" data-name="Rectangle 45333" width="26.363" height="26.363" transform="translate(142.512 82.926)" fill="#ea8271"/>
          <g id="Group_175147" data-name="Group 175147" transform="translate(0 -0.001)">
            <g id="Group_175146" data-name="Group 175146" clip-path="url(#clip-path-3)">
              <path id="Path_184227" data-name="Path 184227" d="M607.574,364.15a31.915,31.915,0,0,0,26.363-1.384V353.54H607.574Z" transform="translate(-465.062 -270.613)"/>
              <path id="Path_184228" data-name="Path 184228" d="M821.59,2235.323l-30.409,5.159.289,6.612,30.063-.654Z" transform="translate(-605.603 -1711.008)"/>
              <path id="Path_184229" data-name="Path 184229" d="M518.592,2246.693l32.388,1.57c-.159-6.562-.168-11.29-.168-11.29l-1.176-1.089-32.487,1.894Z" transform="translate(-395.846 -1711.437)"/>
              <path id="Path_184230" data-name="Path 184230" d="M373.65,966.395s-14.993,51.448-16.1,84.165,28.7,221.127,28.7,221.127l45.992-2.575.736-211.133,21.708,213.341,41.208-1.84s23.906-177.933,15.821-215.608-25.893-88.856-25.893-88.856Z" transform="translate(-273.663 -738.661)" fill="#5774cd"/>
              <path id="Path_184231" data-name="Path 184231" d="M551.129,26.118c4.207-2.893,6.551-6.8,5.751-10.489-1.267-5.837-9.924-8.913-19.337-6.87a25.136,25.136,0,0,0-9.6,4.211C525.716,5.5,518.208,0,509.282,0S492.827,5.512,490.614,13c-8.065.422-14.454,6.118-14.454,13.086,0,7.242,6.9,13.114,15.412,13.114a16.526,16.526,0,0,0,11.961-4.846,21.113,21.113,0,0,0,5.75.79,19.865,19.865,0,0,0,16.157-7.927,11.458,11.458,0,0,0,2.128,1.405,5.272,5.272,0,0,0-1.995,3.862c0,4.405,7.142,7.976,15.953,7.976s15.953-3.571,15.953-7.976c0-2.6-2.493-4.913-6.35-6.369" transform="translate(-364.473 0.004)" fill="#9fa8c1"/>
              <path id="Path_184232" data-name="Path 184232" d="M45.688,486.586l-2-13.533a17.779,17.779,0,0,1-3.581-5.545c-1.318-3.321-5.483-17.127-5.483-17.127L63.27,443.8s3.02,19.874,2.047,24.569.85,13.189.85,13.189Z" transform="translate(-26.501 -339.699)" fill="#ea8271"/>
              <path id="Path_184233" data-name="Path 184233" d="M140.041,456.437s12.262-9.5,14.6-16.226c2-5.736,2.568-10.262,3.56-13.153.272-.792-.27-1.552-1.3-1.8h0a5.2,5.2,0,0,0-5.177,1.6,25.317,25.317,0,0,0-3.936,7.241c-.717,2.518-8.665,6.275-8.665,6.275Z" transform="translate(-106.493 -325.395)" fill="#ea8271"/>
              <path id="Path_184234" data-name="Path 184234" d="M127.748,366.862l-1.967-22.673c-.109-1.533-1.87-2.589-3.884-2.33-1.9.245-3.337,1.582-3.252,3.033L120,367.921Z" transform="translate(-90.813 -261.642)" fill="#ea8271"/>
              <path id="Path_184235" data-name="Path 184235" d="M84.563,369.309l-5.14-23.674c-.351-1.618-2.289-2.615-4.273-2.2-1.876.394-3.106,1.912-2.792,3.444l4.99,24.327Z" transform="translate(-55.348 -262.807)" fill="#ea8271"/>
              <path id="Path_184236" data-name="Path 184236" d="M52.247,385.824l-5.275-20.637c-.361-1.41-2.294-2.217-4.265-1.78-1.863.414-3.076,1.793-2.753,3.13l5.13,21.216Z" transform="translate(-30.543 -278.075)" fill="#ea8271"/>
              <path id="Path_184237" data-name="Path 184237" d="M14.452,420.6,5.337,406.541c-.623-.961-2.32-1.211-3.744-.553-1.346.623-1.952,1.833-1.376,2.747l9.144,14.5Z" transform="translate(0 -310.478)" fill="#ea8271"/>
              <path id="Path_184238" data-name="Path 184238" d="M102.281,503.268a.625.625,0,0,1-.6-.463c-.947-3.528-.2-7.313,2.15-10.946a20.882,20.882,0,0,1,3.85-4.439.625.625,0,0,1,.792.967c-.077.063-7.652,6.389-5.584,14.094a.626.626,0,0,1-.6.787" transform="translate(-77.522 -372.981)"/>
              <path id="Path_184239" data-name="Path 184239" d="M1049.886,1361.077s1.529,18.053-6.5,33.384c-6.059,11.567-14.328,13.693-18.023,14.04a2.151,2.151,0,0,1-2.321-1.489,3.3,3.3,0,0,1,1.621-3.671,30.015,30.015,0,0,0,6.266-5.138c4.673-4.927-1.512-16.731-1.512-26.185,0-15.077,10.678-8.792,10.678-8.792Z" transform="translate(-782.999 -1041.824)" fill="#ea8271"/>
              <path id="Path_184240" data-name="Path 184240" d="M1049.453,1381.672s1.529,18.054-6.5,33.384c-5.651,10.788-13.224,13.364-17.216,13.943a2.918,2.918,0,0,1-3.287-1.994,2.464,2.464,0,0,1,1.267-2.772,29.257,29.257,0,0,0,6.778-5.435c4.673-4.927,6.98-16.1,6.98-16.1l2.186-18.881Z" transform="translate(-782.566 -1057.588)" fill="#ea8271"/>
              <path id="Path_184241" data-name="Path 184241" d="M1049.829,1371.285s7.11,19.258,1.2,37.434c-4.619,14.21-15.17,17.9-19.554,18.84a2.677,2.677,0,0,1-2.846-1.15,3.3,3.3,0,0,1,.931-4.392,32.987,32.987,0,0,0,6.583-6.81c4.578-6.25,4.345-18.8,4.345-18.8l-2.589-20.88Z" transform="translate(-786.994 -1049.637)" fill="#ea8271"/>
              <path id="Path_184242" data-name="Path 184242" d="M1068.473,1367.33s7.11,19.258,1.2,37.435c-4.634,14.257-15.239,17.928-19.6,18.849a2.621,2.621,0,0,1-2.782-1.124,3.348,3.348,0,0,1,.944-4.452,33.023,33.023,0,0,0,6.549-6.784c4.578-6.25,4.345-18.8,4.345-18.8l-2.589-20.88Z" transform="translate(-801.276 -1046.61)" fill="#ea8271"/>
              <path id="Path_184243" data-name="Path 184243" d="M1059.526,1367.523s2.311,16.676,2.311,25.455,2.645,9.374,5.732,9.234c4.9-.222,5.162-8.615,5.162-13.872s2.6-5.844,2.6-5.844l-7.951-20.131Z" transform="translate(-811.005 -1042.809)" fill="#ea8271"/>
              <path id="Path_184244" data-name="Path 184244" d="M1065.023,1417.733a4.837,4.837,0,0,1-3.541-1.179c-1.464-1.4-2.146-4.15-2.146-8.657,0-8.639-2.282-25.209-2.306-25.375a.586.586,0,1,1,1.162-.161c.023.167,2.317,16.818,2.317,25.536,0,4.108.584,6.662,1.784,7.809a4.245,4.245,0,0,0,3.336.839c4.08-.185,4.891-6.443,5.542-11.471.047-.364.093-.72.14-1.066.693-5.16,1.559-6.8,1.6-6.872a.586.586,0,1,1,1.031.559c-.006.012-.809,1.588-1.464,6.469-.046.344-.092.7-.139,1.061-.67,5.175-1.588,12.263-6.652,12.492-.219.01-.438.016-.658.016" transform="translate(-809.091 -1057.728)"/>
              <path id="Path_184245" data-name="Path 184245" d="M1047.606,1548.165a3.172,3.172,0,0,1-2.718-1.467,3.941,3.941,0,0,1,1.091-5.222,32.557,32.557,0,0,0,6.432-6.664,17.713,17.713,0,0,0,2.46-5.2.586.586,0,1,1,1.12.348,18.858,18.858,0,0,1-2.634,5.54,33.749,33.749,0,0,1-6.667,6.9,2.752,2.752,0,0,0-.8,3.683,2.033,2.033,0,0,0,2.158.853.586.586,0,0,1,.243,1.147,3.328,3.328,0,0,1-.687.072" transform="translate(-799.371 -1170.516)"/>
              <path id="Path_184246" data-name="Path 184246" d="M1029.64,1540.608a.586.586,0,0,1-.355-1.053c.285-.216.6-.448.95-.7a26.123,26.123,0,0,0,6.124-5.707,24.275,24.275,0,0,0,3.639-6.892.586.586,0,0,1,1.134.3,24.9,24.9,0,0,1-3.826,7.286,27.147,27.147,0,0,1-6.381,5.963c-.338.245-.65.472-.93.684a.583.583,0,0,1-.354.119" transform="translate(-787.68 -1167.924)"/>
              <path id="Path_184247" data-name="Path 184247" d="M1021.024,1523.357a.587.587,0,0,1-.244-1.12,33.462,33.462,0,0,0,6.626-4.158c2.781-2.359,4.3-7.265,4.311-7.315a.586.586,0,0,1,1.122.341c-.065.215-1.633,5.289-4.674,7.868a34.011,34.011,0,0,1-6.9,4.33.581.581,0,0,1-.244.054" transform="translate(-781.085 -1156.082)"/>
              <g id="Group_175139" data-name="Group 175139" transform="translate(252.298 350.78)" style="mix-blend-mode: overlay;isolation: isolate">
                <g id="Group_175138" data-name="Group 175138">
                  <g id="Group_175137" data-name="Group 175137" clip-path="url(#clip-path-4)">
                    <path id="Path_184248" data-name="Path 184248" d="M1079.418,1503.513a4.022,4.022,0,1,1,3.789-4.016,3.912,3.912,0,0,1-3.789,4.016m0-6.858a2.853,2.853,0,1,0,2.616,2.843,2.74,2.74,0,0,0-2.616-2.843" transform="translate(-1075.629 -1495.482)"/>
                  </g>
                </g>
              </g>
              <path id="Path_184249" data-name="Path 184249" d="M70.118,574.936l1.258,8.5L94.515,579a51.938,51.938,0,0,1-.716-8.528Z" transform="translate(-53.671 -436.664)"/>
              <path id="Path_184250" data-name="Path 184250" d="M1074.536,1384.061s-17.2,11.183-21.854,10.713l-.879-5.349,22.05-12.87Z" transform="translate(-805.094 -1053.671)"/>
              <path id="Path_184251" data-name="Path 184251" d="M510.858,112.238c0-20.608,15.374-37.314,34.339-37.314s34.339,16.706,34.339,37.314-15.374,37.314-34.339,37.314-34.339-16.706-34.339-37.314" transform="translate(-391.032 -57.349)" fill="#ea8271"/>
              <path id="Path_184252" data-name="Path 184252" d="M568.929,165.447c-.319-1.305,1.949-2.982,5.068-3.746s5.906-.324,6.225.982-1.949,2.982-5.068,3.746-5.906.324-6.225-.982" transform="translate(-435.459 -123.484)" fill="#70798c"/>
              <path id="Path_184253" data-name="Path 184253" d="M681.248,147.178c.054-1.343,2.7-2.327,5.907-2.2s5.765,1.322,5.711,2.666-2.7,2.327-5.907,2.2-5.765-1.322-5.711-2.666" transform="translate(-521.455 -110.964)" fill="#70798c"/>
              <path id="Path_184254" data-name="Path 184254" d="M628.407,288.569a22.5,22.5,0,0,1-7.186-1.2.676.676,0,1,1,.429-1.282,21.415,21.415,0,0,0,20.226-3.687.676.676,0,0,1,.911,1,23.133,23.133,0,0,1-14.38,5.167" transform="translate(-475.155 -216.027)"/>
              <path id="Path_184255" data-name="Path 184255" d="M472.309,233.171s-7.448-4.439-11.564,2.313,2.61,14.163,9.4,12.207c3.4-.979,5.474-6.377,5.474-6.377Z" transform="translate(-351.709 -177.381)" fill="#ea8271"/>
              <path id="Path_184256" data-name="Path 184256" d="M594.111,1066.535l-53.047,3.973.41-94.231,46.467.241Z" transform="translate(-414.152 -747.281)" fill="#5774cd"/>
              <path id="Path_184257" data-name="Path 184257" d="M483.781,253.176a.675.675,0,0,1-.516-.238c-.051-.06-4-4.614-7.775-3.009a.676.676,0,1,1-.528-1.244c1.972-.837,4.225-.5,6.517.966a13.848,13.848,0,0,1,2.817,2.412.676.676,0,0,1-.515,1.113" transform="translate(-363.24 -190.007)"/>
              <path id="Path_184258" data-name="Path 184258" d="M491.547,264.2a.676.676,0,0,1-.585-1.014l2.951-5.1a.676.676,0,0,1,1.171.677l-2.951,5.1a.676.676,0,0,1-.586.338" transform="translate(-375.733 -197.287)"/>
              <path id="Path_184259" data-name="Path 184259" d="M638.841,236.708a.676.676,0,0,1-.609-.969l2.486-5.165a.676.676,0,0,1,1.016-.247l4.776,3.606a.676.676,0,1,1-.815,1.079l-4.117-3.109-2.127,4.422a.676.676,0,0,1-.61.383" transform="translate(-488.478 -176.196)"/>
              <g id="Group_175142" data-name="Group 175142" transform="translate(138.435 69.177)" style="mix-blend-mode: overlay;isolation: isolate">
                <g id="Group_175141" data-name="Group 175141">
                  <g id="Group_175140" data-name="Group 175140" clip-path="url(#clip-path-5)">
                    <path id="Path_184260" data-name="Path 184260" d="M593.107,304.8a.673.673,0,0,1-.433-.158c-3.741-3.133-2.156-8.987-2.087-9.235a.676.676,0,0,1,1.3.364c-.016.057-1.414,5.267,1.653,7.835a.676.676,0,0,1-.434,1.194" transform="translate(-590.194 -294.917)"/>
                  </g>
                </g>
              </g>
              <path id="Path_184261" data-name="Path 184261" d="M761.4,2196.845a.586.586,0,0,1-.038-1.172l45.9-3.012a.592.592,0,0,1,.623.546.586.586,0,0,1-.547.624l-45.9,3.012-.039,0" transform="translate(-582.357 -1678.352)" fill="#fff"/>
              <path id="Path_184262" data-name="Path 184262" d="M469.545,2197.8a.586.586,0,0,1-.034-1.172l47.846-2.835a.586.586,0,0,1,.069,1.171l-47.846,2.835h-.035" transform="translate(-358.961 -1679.217)" fill="#fff"/>
              <path id="Path_184263" data-name="Path 184263" d="M621.315,1364.3a.586.586,0,0,1-.054-1.17l22.325-2.084a.586.586,0,0,1,.109,1.168l-22.325,2.084-.055,0" transform="translate(-475.132 -1041.796)" fill="#fff"/>
              <path id="Path_184264" data-name="Path 184264" d="M541.332,1053.79H464.838a.586.586,0,1,1,0-1.173h76.494a.586.586,0,1,1,0,1.173" transform="translate(-355.358 -805.715)" fill="#fff"/>
              <path id="Path_184265" data-name="Path 184265" d="M615.381,1014.421a.586.586,0,0,1-.586-.586V946.878a.586.586,0,0,1,.586-.586h17.286a.586.586,0,0,1,.586.586V989.2a.586.586,0,1,1-1.173,0V947.464H615.968v66.37a.586.586,0,0,1-.586.586" transform="translate(-470.59 -724.329)" fill="#fff"/>
              <path id="Path_184266" data-name="Path 184266" d="M637.228,999.856a5.183,5.183,0,1,1,5.183-5.183,5.189,5.189,0,0,1-5.183,5.183m0-9.193a4.01,4.01,0,1,0,4.01,4.01,4.015,4.015,0,0,0-4.01-4.01" transform="translate(-483.793 -757.395)" fill="#fff"/>
              <g id="Group_175145" data-name="Group 175145" transform="translate(170.501 63.423)" style="mix-blend-mode: overlay;isolation: isolate">
                <g id="Group_175144" data-name="Group 175144">
                  <g id="Group_175143" data-name="Group 175143" clip-path="url(#clip-path-6)">
                    <path id="Path_184267" data-name="Path 184267" d="M729.971,279.459l-.051,0a.676.676,0,0,1-.623-.725c.419-5.574-2.03-7.065-2.055-7.08a.68.68,0,0,1-.253-.918.671.671,0,0,1,.908-.264c.132.072,3.239,1.842,2.748,8.364a.676.676,0,0,1-.673.625" transform="translate(-726.902 -270.389)"/>
                  </g>
                </g>
              </g>
              <path id="Path_184268" data-name="Path 184268" d="M550,208.9s-4.711-7.717-12.109-7.717c-5.722,0-9.337,7.316-9.337,7.316s4.662,5.732,10.61,5.732S550,208.9,550,208.9" transform="translate(-404.579 -153.993)" fill="#fff"/>
              <path id="Path_184269" data-name="Path 184269" d="M291.773,650.863c-4.867-77.563-22.952-148.869-32.845-183.153a37.552,37.552,0,0,0-27.76-26.215l-43.346-9.844-.387-5.953-23.038.232.422,5.809c-8.242.55-33.225,6.276-49.1,10.066a39.055,39.055,0,0,0-24.133,17.44C86.321,467.755,80.046,479,73.882,490.5l-3.468-23.541a5.837,5.837,0,0,0-6.625-4.923L32.175,466.69a5.836,5.836,0,0,0-4.923,6.624l13,88.223a20.743,20.743,0,0,0,23.545,17.5l2.119-.312c15.569-4.435,50.339-42.964,50.339-42.964s-1.194,24.563-7.246,43.957S92.824,698.062,92.824,698.062c28.452,11.9,52.41,11.11,52.41,11.11l2.9-154.331,52.651.241,15.66,156.144,51.265-15.4a170.829,170.829,0,0,0-1.416-31.528c9.675-1.363,19.39-6.978,23.539-9.626a4.213,4.213,0,0,0,1.941-3.814" transform="translate(-20.812 -325.846)" fill="#fea419"/>
              <path id="Path_184270" data-name="Path 184270" d="M579.336,106.076c-2.7-17.675-16.837-31.152-33.87-31.152-17.141,0-31.348,13.648-33.922,31.488l-.335,3.226s8.719-16.8,13.617-21.242,8.77-.21,18.19.367c16.02.981,14.371-6.463,21.9-.691,5.752,4.407,12.268,8.176,14.416,18" transform="translate(-391.3 -57.349)" fill="#9199b0"/>
              <path id="Path_184271" data-name="Path 184271" d="M685.659,195.343s2.669-8.639,9.84-10.457c5.547-1.407,10.849,4.8,10.849,4.8s-3.11,6.7-8.876,8.165-11.814-2.5-11.814-2.5" transform="translate(-524.832 -141.359)" fill="#fff"/>
              <path id="Path_184272" data-name="Path 184272" d="M556.647,206.9a7.814,7.814,0,0,0-.192-1.717,13.371,13.371,0,0,0-8.981-4,8.578,8.578,0,0,0-5.726,2.547,7.783,7.783,0,0,0,2.547,9.479,10.868,10.868,0,0,0,4.452,1.022,11.971,11.971,0,0,0,4.691-1.032,7.775,7.775,0,0,0,3.209-6.3" transform="translate(-414.16 -153.993)"/>
              <path id="Path_184273" data-name="Path 184273" d="M709.78,185.819a8.434,8.434,0,0,0-5.935-.934,12.905,12.905,0,0,0-7.188,5.3,7.787,7.787,0,0,0,3.231,7.6,12.621,12.621,0,0,0,5.931.068,12.19,12.19,0,0,0,5.834-3.742,7.79,7.79,0,0,0-1.872-8.285" transform="translate(-533.177 -141.358)"/>
              <path id="Path_184274" data-name="Path 184274" d="M788.622,202.322s5.576-6.639,11.683-1.614,2.186,14.234-4.865,14.615c-3.528.19-7.265-4.225-7.265-4.225Z" transform="translate(-603.302 -152.19)" fill="#ea8271"/>
              <path id="Path_184275" data-name="Path 184275" d="M797.5,220.054a.676.676,0,0,1-.63-.92,13.82,13.82,0,0,1,1.868-3.2c1.682-2.14,3.7-3.194,5.838-3.053a.676.676,0,0,1-.09,1.349c-4.112-.277-6.333,5.339-6.355,5.4a.676.676,0,0,1-.63.432" transform="translate(-609.922 -162.935)"/>
              <path id="Path_184276" data-name="Path 184276" d="M807.208,235a.674.674,0,0,1-.441-.164l-4.464-3.852a.676.676,0,1,1,.883-1.023l4.464,3.852a.676.676,0,0,1-.442,1.188" transform="translate(-613.937 -175.891)"/>
              <path id="Path_184277" data-name="Path 184277" d="M582.278,126.137a3.738,3.738,0,0,1-1.894-.468,3.87,3.87,0,0,1-1.753-3.11,3.593,3.593,0,0,1,1.07-3.393c1.945-1.625,5.7-.5,5.858-.456a.676.676,0,0,1-.394,1.293c-.89-.27-3.451-.76-4.6.2a2.32,2.32,0,0,0-.594,2.2,2.615,2.615,0,0,0,1.091,2.1,3.876,3.876,0,0,0,2.9-.042.676.676,0,1,1,.525,1.246,6.264,6.264,0,0,1-2.206.433" transform="translate(-442.874 -90.542)" fill="#9199b0"/>
              <path id="Path_184278" data-name="Path 184278" d="M463.032,59.637a4.565,4.565,0,0,1-1.638-.281A4,4,0,0,1,459,56.564c-.5-1.682-.362-2.986.425-3.874,1.337-1.511,3.991-1.077,4.1-1.058a.676.676,0,0,1-.228,1.333c-.56-.094-2.17-.164-2.864.623-.454.515-.5,1.386-.14,2.588a2.689,2.689,0,0,0,1.578,1.918c1.776.68,4.546-.622,5.464-1.181a.676.676,0,0,1,.7,1.154,11.223,11.223,0,0,1-5.013,1.57" transform="translate(-351.115 -39.464)" fill="#9fa8c1"/>
              <path id="Path_184279" data-name="Path 184279" d="M581.749,425.656l-24.481.247a2.045,2.045,0,0,0-2.024,2.03l-.028,4.087s-2.55.208-9.507,1.619c-1.089,2.6-3.543,33.119-4,42-.475,9.315-1.06,67.218-.24,79.166l52.638.242c-.012-38.388-3.734-120.452-3.734-120.452l-.238-.941L583.5,432.15l.3-4.306a2.044,2.044,0,0,0-2.06-2.189" transform="translate(-414.152 -325.813)" fill="#fff"/>
              <path id="Path_184280" data-name="Path 184280" d="M604.221,434.418a.582.582,0,0,1-.145-.018l-6.279-1.6a.586.586,0,0,1-.44-.61l.3-4.306a1.443,1.443,0,0,0-.393-1.1,1.409,1.409,0,0,0-1.076-.459l-24.481.247a1.464,1.464,0,0,0-1.443,1.448l-.028,4.087a.587.587,0,0,1-.526.58c-.022,0-2.26.244-9.087,1.629a.587.587,0,0,1-.233-1.15c5.148-1.044,7.682-1.441,8.676-1.579l.025-3.575a2.643,2.643,0,0,1,2.6-2.612l24.481-.247a2.6,2.6,0,0,1,1.942.828,2.637,2.637,0,0,1,.709,1.989l-.27,3.817,5.8,1.475a.586.586,0,0,1-.144,1.155" transform="translate(-428.589 -325.429)"/>
              <path id="Path_184281" data-name="Path 184281" d="M904.079,609.027a.586.586,0,0,1-.557-.77c3.629-11.008,17.982-41.558,18.126-41.865a.586.586,0,0,1,1.061.5c-.144.307-14.467,30.792-18.074,41.733a.587.587,0,0,1-.557.4" transform="translate(-691.571 -433.281)" fill="#fff"/>
              <path id="Path_184282" data-name="Path 184282" d="M930.338,887.6a.586.586,0,0,1-.583-.526c-.017-.165-1.777-16.8-6.748-39.889-4.586-21.3-12.919-52.586-26.577-80.725-3.485-7.179-2.537-49.029-2.5-50.807a.587.587,0,0,1,1.173.028c-.011.432-.984,43.341,2.378,50.267,13.712,28.249,22.073,59.643,26.672,81.006,4.983,23.143,6.748,39.833,6.765,40a.586.586,0,0,1-.522.644.535.535,0,0,1-.061,0" transform="translate(-684.14 -547.349)" fill="#fff"/>
              <path id="Path_184283" data-name="Path 184283" d="M396.838,746.365h-.023a.586.586,0,0,1-.564-.608c.625-16.526-2.031-45.854-2.058-46.148a.586.586,0,0,1,1.168-.107c.027.3,2.69,29.7,2.062,46.3a.587.587,0,0,1-.586.564" transform="translate(-301.731 -535.018)" fill="#fff"/>
              <path id="Path_184284" data-name="Path 184284" d="M232.473,738.785a.587.587,0,0,1-.578-.49l-8.13-48.546a.586.586,0,1,1,1.157-.194l8.13,48.546a.586.586,0,0,1-.482.675.572.572,0,0,1-.1.008" transform="translate(-171.273 -527.439)" fill="#fff"/>
              <path id="Path_184285" data-name="Path 184285" d="M259.878,848.875a.584.584,0,0,1-.391-.149l-11.153-9.964a.586.586,0,1,1,.781-.874l11.153,9.964a.586.586,0,0,1-.391,1.024" transform="translate(-189.935 -641.238)" fill="#fff"/>
              <path id="Path_184286" data-name="Path 184286" d="M32.509,662.982a.586.586,0,0,1-.089-1.166l43.119-6.652a.586.586,0,1,1,.179,1.159L32.6,662.975a.588.588,0,0,1-.09.007" transform="translate(-24.436 -501.483)" fill="#fff"/>
              <path id="Path_184287" data-name="Path 184287" d="M803.838,733.811h-.009a.586.586,0,0,1-.578-.595c.516-35.484-7.588-85.728-12.951-118.975-3-18.571-5.16-31.99-4.929-36.637,2-40.31-5.092-119.283-5.164-120.076a.586.586,0,1,1,1.168-.106c.072.794,7.173,79.848,5.168,120.24-.225,4.524,2.044,18.587,4.916,36.392,5.37,33.287,13.484,83.592,12.966,119.179a.586.586,0,0,1-.586.578" transform="translate(-597.201 -349.721)" fill="#fff"/>
              <path id="Path_184288" data-name="Path 184288" d="M483.855,733.127h-.008a.586.586,0,0,1-.578-.594c.82-61.59,2.661-100.261,4.062-121.856,1.446-22.3,2.734-31.5,2.865-32.4-2.1-21.855-3.97-55.04-1.022-89.155,1.767-20.443,4.473-31.675,4.5-31.786a.586.586,0,0,1,1.139.278c-.027.11-2.716,11.281-4.474,31.646-1.622,18.8-2.761,49.489,1.031,88.977a.578.578,0,0,1,0,.144c-.013.088-1.352,9.033-2.867,32.418-1.4,21.579-3.237,60.217-4.056,121.751a.587.587,0,0,1-.586.579" transform="translate(-369.914 -349.72)" fill="#fff"/>
              <path id="Path_184289" data-name="Path 184289" d="M1039.293,1342a.586.586,0,0,1-.086-1.166c17.7-2.666,27.137-13.07,27.231-13.175a.586.586,0,1,1,.876.78c-.1.108-9.816,10.827-27.932,13.555a.584.584,0,0,1-.088.007" transform="translate(-795.07 -1016.096)" fill="#fff"/>
              <path id="Path_184290" data-name="Path 184290" d="M31.076,641.155a.586.586,0,0,1-.1-1.165L74,632.7a.586.586,0,1,1,.2,1.156l-43.026,7.286a.588.588,0,0,1-.1.008" transform="translate(-23.339 -484.291)" fill="#fff"/>
            </g>
          </g>
        </g>
      </g>
    </g>
  </g>
</svg>
