<svg xmlns="http://www.w3.org/2000/svg" xmlns:xlink="http://www.w3.org/1999/xlink" width="89" height="85" viewBox="0 0 89 85">
  <defs>
    <clipPath id="clip-path">
      <rect id="Rectangle_45273" data-name="Rectangle 45273" width="64.062" height="64.039" fill="none"/>
    </clipPath>
  </defs>
  <g id="_18" data-name="18" transform="translate(-698 -4457)">
    <g id="Group_165391" data-name="Group 165391" transform="translate(698 4457)">
      <rect id="Rectangle_40797" data-name="Rectangle 40797" width="89" height="85" rx="15" fill="#ffd947"/>
    </g>
    <g id="Group_174979" data-name="Group 174979" transform="translate(710.807 4467.807)">
      <g id="Group_174979-2" data-name="Group 174979" clip-path="url(#clip-path)">
        <path id="Path_182926" data-name="Path 182926" d="M50.336,36.838a4.9,4.9,0,0,1-1.6-.076h0l-.273-1.13H54.32l9.109,0c0,.061,0,.121,0,.181a.754.754,0,0,0,.709-.828c.016-.482-.143-.845-.68-.925l-.027,0c0,.062,0,.124,0,.186l-.057,0-.057-.008H48.679c-.992,0-1.365-.493-1.127-1.483.092-.383.19-.764.285-1.146q.824-3.7,1.65-7.409.693-3.1,1.4-6.19a.685.685,0,0,0-.541-.942c-.623-.158-1.248-.317-1.88-.432-.594-.108-.883.124-1.018.714q-1.624,7.129-3.25,14.259h0c-.137.647-.3,1.291-.4,1.943-.086.527-.336.7-.877.7-3.3-.024-6.6-.012-9.905-.012-.436,0-.872-.006-1.308,0-.371.006-.563-.078-.375-.508a20.741,20.741,0,0,1,.88-2.118c.493-1.6,1.132-3.16,1.52-4.8a27.519,27.519,0,0,0,.722-6.03,45.313,45.313,0,0,0-.116-5.161,27.341,27.341,0,0,0-.87-3.76,16.508,16.508,0,0,0-2.638-5.11A20.659,20.659,0,0,0,27.966,4H63.323a.311.311,0,0,1,.121,0v.18l.03,0c.558-.072.671-.467.663-.935a.765.765,0,0,0-.709-.817v.2l-10.711,0c-.166.009-.331.027-.5.027q-10.72,0-21.44,0c-.186,0-.372-.021-.558-.033h0c-1.747.01-3.5.124-5.237-.008-1.185-.09-2.332-.584-3.543-.661-.27-.017-.538-.05-.808-.066-.195-.012-.386-.008-.371-.29.012-.238.175-.247.35-.249h.062l9.547.033c.165-.012.331-.033.5-.033q10.782,0,21.564,0c.145,0,.289.017.434.027l10.712,0v.2a.759.759,0,0,0,.7-.644c.066-.39.03-.759-.421-.925H19.335c-.545.125-.636.541-.625,1,.01.4-.132.6-.57.63a18.782,18.782,0,0,0-1.917.245,12.761,12.761,0,0,0-9.8,7.114,20.385,20.385,0,0,0-1.945,8.385,32.841,32.841,0,0,0,.88,10.031,2.534,2.534,0,0,1-.061,1.169c-.251,1.328-.6,2.638-.766,3.98a6.775,6.775,0,0,0,1.066,5.12A.853.853,0,0,1,5.6,38.833c-1.43,2.173-2.79,4.39-4.039,6.673A7.929,7.929,0,0,0,.146,49.717l.043-.011q0,.9.008,1.792a.209.209,0,0,1-.045-.007,5.822,5.822,0,0,0,1.725,4.227,11.558,11.558,0,0,0,3.146,2.219c.727.395.737.425.591,1.217-.068.369-.168.73-.235,1.1a1.323,1.323,0,0,0,.277,1.288,1.153,1.153,0,0,1,.309,1.126c-.142,1.154.066,1.373,1.219,1.373H31.734c1.04,0,1.219-.194,1.235-1.247.007-.442-.1-.867-.131-1.3s.046-.676.6-.649a5.043,5.043,0,0,0,4.8-2.565c1.42-2.278,2.741-4.614,4.135-6.908,1.08-1.777,2.139-3.569,3.213-5.35.384-.637.784-1.256.223-2-.175-.233.046-.391.205-.512a4.569,4.569,0,0,0,1.05-.972,1.6,1.6,0,0,1,1.5-.67c4.685.018,9.37.01,14.056.009a5.677,5.677,0,0,0,.811-.021.726.726,0,0,0,.7-.862c-.012-.452-.126-.841-.7-.812v.133l-.15,0c-1.748.008-3.5.021-5.243.023q-4.528.006-9.055,0h-.733c.158-.69.4-1.307.482-1.965.046-.358.4-.222.623-.223q5.589-.015,11.178-.01c.915,0,1.83.019,2.745.029h.152c0,.045,0,.09,0,.134h.051c.574,0,.647-.412.651-.838,0-.474-.194-.795-.7-.808,0,.052,0,.1,0,.156q-6.549.017-13.1.029m-4.958-4.4c.578-2.616,1.175-5.228,1.765-7.842.452-2.006.9-4.014,1.359-6.018.046-.2-.017-.519.41-.476.488.049.5.287.409.668-.562,2.449-1.111,4.9-1.666,7.353-.481,2.127-.969,4.253-1.436,6.383-.073.333-.168.556-.532.477-.627.085-.355-.334-.308-.546M39.192,35.63h3.737a6.2,6.2,0,0,1-.741,1.135c-.185.144-.4.075-.6.076q-4.8,0-9.6-.008a2.062,2.062,0,0,1-1.415-.945c-.052-.147-.016-.243.143-.268a1.635,1.635,0,0,1,.249-.008l8.227.018m-5.3,4.7a.4.4,0,0,1-.4-.225c-.319-.625-.644-1.247-1.017-1.968,2.937,0,5.783,0,8.629,0,.289,0,.367.082.257.367a6.884,6.884,0,0,0-.416,1.5c-.036.254-.191.334-.436.334q-3.306-.007-6.612,0m1.639,6.874c-.41-1.971-.894-3.744-1.431-5.541h4.68M6.12,16.625A16.231,16.231,0,0,1,8.607,8.36a10.627,10.627,0,0,1,6.278-4.546,17.19,17.19,0,0,1,8.514-.19,11.484,11.484,0,0,1,8.512,7.806,21.817,21.817,0,0,1,1.194,6.087A31.638,31.638,0,0,1,30.358,32.56c-.133.3-.256.614-.378.924a1.08,1.08,0,0,1-1.665.614c-.863-.449-.878-.457-.484-1.343a2.261,2.261,0,0,0,.089-2.069c-.341-.723.041-1.555.077-2.339.026-.572.11-1.141.1-1.724a13.488,13.488,0,0,1,.686-3.768c.341-1.276.364-1.27,1.683-1.364a2.316,2.316,0,0,0,1.99-2.278A2.288,2.288,0,0,0,30.4,16.994c-1.2-.057-1.2-.057-1.2-1.265,0-1.354,0-2.707,0-4.061a5.747,5.747,0,0,0-.062-.681c-.045-.353-.169-.666-.573-.711-.432-.049-.633.232-.743.6a.465.465,0,0,1,0,.107q0,1.372.009,2.743c0,.29-.012.589-.433.466-1.857-.542-2.788-1.254-2.929-3.21a.427.427,0,0,1,0-.1c-.107-.365-.306-.649-.726-.606s-.563.354-.556.747h0c-.022,2.155,1.2,3.668,3.5,4.334,1.141.331,1.163.331,1.136,1.522a25.847,25.847,0,0,1-.226,5.224,8.337,8.337,0,0,1-16.4-.921c-.147-1.35-.036-2.7-.085-4.053-.013-.366.17-.458.476-.5a8.545,8.545,0,0,0,2.031-.582,5.166,5.166,0,0,0,3.419-4.582c.016-.186.043-.371.065-.556-.156-.313-.28-.676-.727-.646a.723.723,0,0,0-.67.621.467.467,0,0,1,0,.109,4.051,4.051,0,0,1-3.151,4.034c-1.464.47-1.466.47-1.463-1.057,0-1,.011-1.991.016-2.986a.385.385,0,0,1,0-.092h0a.588.588,0,0,0-.7-.615c-.425.029-.577.312-.574.737.014,1.728-.01,3.457.014,5.185.007.507-.139.686-.668.688a2.4,2.4,0,0,0-2.645,1.968A2.271,2.271,0,0,0,8.61,21.492c1.192.03,1.187.031,1.49,1.191a22.1,22.1,0,0,1,1.034,3.263c.106,1.027.335,2.071-.65,2.869-.271.22-.137.573-.057.882a26.664,26.664,0,0,0,1.089,3.12c.163.414.115.675-.33.811a.919.919,0,0,0-.167.085c-1.015.569-1.029.578-1.589-.4a24.865,24.865,0,0,1-3.115-9.274,43.067,43.067,0,0,1-.2-7.411m23.033,2.66c.087-.45-.273-1.122.681-1.036.809.074,1.252.354,1.261.981.009.667-.454.964-1.356,1.011s-.471-.6-.585-.956M21.542,31.723a2.213,2.213,0,0,0,0,.436c.3,1.425-.5,2.2-1.633,2.78a1.3,1.3,0,0,1-.345.139c-.66.119-2.245-1.142-2.255-1.814-.016-1.039.013-2.079,0-3.118-.006-.381.136-.459.48-.393a8.679,8.679,0,0,0,3.284-.006c.361-.069.489.052.475.416-.021.519-.005,1.039-.005,1.559m-1.9,4.919a1.713,1.713,0,0,0,.835-.22c.985-.7,2.224-1.131,2.587-2.477.037-.136.112-.227.267-.176.109.035.123.107.115.41a10.167,10.167,0,0,1-1.784,5.032,23.084,23.084,0,0,1-1.461,1.867.958.958,0,0,1-1.6-.006A11.462,11.462,0,0,1,15.4,34.32c-.014-.2-.172-.494.178-.56.317-.059.277.258.337.427a2.768,2.768,0,0,0,1.209,1.387c.777.5,1.484,1.177,2.526,1.067M9.164,20.243c-.853-.065-1.313-.343-1.327-.977-.014-.653.462-1.007,1.348-1,.6,0,.6,0,.6,1.042-.082.357.294,1.007-.626.937m-.43,15.289q-.675.648-1.323,1.325c-.223.233-.372.184-.54-.058a3.969,3.969,0,0,1-.761-1.954,10.206,10.206,0,0,1,.438-4.184c.339.229.347.572.473.84A35.369,35.369,0,0,0,8.8,34.926a.423.423,0,0,1-.068.605m1.7,27.1c-.846,0-1.692-.005-2.537,0-.254,0-.334-.1-.281-.338.046-.207.059-.412.38-.335.815.195,1.636.367,2.454.549Zm.577-1.39q-1.831-.412-3.663-.825c-.226-.051-.289-.188-.219-.417.1-.31.162-.629.255-1,1.172.675,2.3,1.324,3.428,1.977a2.068,2.068,0,0,1,.233.181l-.034.082M18,62.135c-.033.295-.091.5-.474.482A28.794,28.794,0,0,1,14,61.923c-.344-.064-.681-.16-1.007-.238.131-.54.249-1,.354-1.464.058-.253.171-.335.437-.246a2.409,2.409,0,0,1,1.166.667,3.479,3.479,0,0,0,2.627,1.219c.164.007.46-.106.418.273M17.967,53.5h0a3.059,3.059,0,0,0-1.6,1.212A1.178,1.178,0,0,1,14.8,54.9a.315.315,0,0,1-.07-.394c.2-.586-.114-.88-.579-1.135-1.035-.566-2.057-1.155-3.084-1.734-1.891-.847-1.891-.847-1.452-2.81.2-.912.421-1.82.61-2.735.081-.394.222-.554.666-.452,3.3.76,6.6,1.5,9.9,2.24.269.061.431.12.344.489-.528,2.242-1.023,4.492-1.535,6.739-.032.139.026.4-.234.342-.2-.043-.077-.245-.069-.376.062-1.126-.238-1.481-1.334-1.569m-2.293,5.985a2.474,2.474,0,0,0-1.464-.765c-.373-.1-.445-.287-.35-.632.139-.5.245-1.008.367-1.512.051-.207.1-.436.4-.324a2.386,2.386,0,0,0,3.133-1.139c.017-.026.072-.027.165-.06.02,1.35.382,1.707,1.711,1.8.808.054,1.613.158,2.42.226.288.024.485.108.471.439a3.24,3.24,0,0,1-1.185,2.628,2.381,2.381,0,0,1-1.841.571c-.474-.059-.951-.113-1.428-.128a2.935,2.935,0,0,1-2.4-1.1m28.354-14c-2.353,3.9-4.677,7.816-7.011,11.728a5.148,5.148,0,0,1-.679.968,3.482,3.482,0,0,1-5.867-1.419c-.582-1.951-1.1-3.922-1.639-5.885-.05-.18-.085-.366-.149-.541a.638.638,0,0,0-.826-.469.6.6,0,0,0-.42.789c.168.728.363,1.45.546,2.174.37,1.3.755,2.587,1.105,3.888a5.064,5.064,0,0,0,1.749,2.8.616.616,0,0,1,.276.458c.065.746.134,1.491.224,2.234.043.358-.125.41-.428.409-3.726-.007-7.451,0-11.177-.009-.139,0-.393.094-.373-.177.016-.215.081-.443.409-.434,1.911.05,2.982-1.123,3.808-2.643.085-.486.211-.969.246-1.459.1-1.414-.334-1.945-1.738-2.188-1.246.019-1.238.02-.967-1.163.509-2.22,1.007-4.443,1.511-6.664.153-.675-.013-.969-.694-1.123Q18,45.867,14.058,44.99c-1.212-.272-2.427-.535-3.638-.81-.883-.2-1.132-.051-1.323.808q-.5,2.243-1.005,4.485c-.042.188.007.457-.334.393a.648.648,0,0,0-.828.468c-.14.431.161.645.438.869h0q2.839,1.552,5.681,3.1a.364.364,0,0,1,.215.491q-.611,2.478-1.178,4.966c-.072.316-.191.3-.421.167q-3.6-2.1-7.21-4.188A5.793,5.793,0,0,1,1.946,48.32,58.444,58.444,0,0,1,8.072,38.143a4.169,4.169,0,0,1,.388-.4,11.636,11.636,0,0,1,2.617-2.39h0A8.548,8.548,0,0,1,13.562,34.1c.4-.148.516-.018.507.368-.006.249.029.5.045.747a13.872,13.872,0,0,0,3.357,6.638,2.323,2.323,0,0,0,3.83.016,14.192,14.192,0,0,0,3.085-5.355c.053-.219.123-.435.184-.652h0a8.254,8.254,0,0,0,.13-1.237c-.025-.65.251-.639.74-.463a11.838,11.838,0,0,1,4.755,3.32,15.366,15.366,0,0,1,3.249,6.783c.333,1.287.639,2.579.935,3.875a1.674,1.674,0,0,1-.261,1.513,3.225,3.225,0,0,0-.3.542.579.579,0,0,0,.233.81.608.608,0,0,0,.883-.143,4.042,4.042,0,0,0,.3-.475c1.549-2.656,3.106-5.307,4.637-7.973.22-.383.373-.451.723-.159.477.4,1,.746,1.5,1.116.579.4,1.14.836,1.743,1.2.436.263.466.472.2.914m3.351-7.84a5.923,5.923,0,0,1-3.157,5.209.291.291,0,0,1-.387-.008,2.912,2.912,0,0,0-.558-.4,1.689,1.689,0,0,1-.944-2.439,11.448,11.448,0,0,1,.79-2.022c.621-1.032,1.261-2.053,1.887-3.082a1.017,1.017,0,0,1,1.091-.55,1,1,0,0,1,.832.823,8.188,8.188,0,0,1,.445,2.466" transform="translate(-0.088)"/>
        <path id="Path_182927" data-name="Path 182927" d="M.063,133.95c0-.036,0-.072,0-.108L0,133.857v1.749a.218.218,0,0,0,.064.01c0-.016,0-.03,0-.046v-1.62" transform="translate(0 -84.125)" fill="#7e7c86"/>
        <path id="Path_182928" data-name="Path 182928" d="M.2,133.813l-.043.011c0,.036,0,.072,0,.108q0,.81,0,1.62c0,.016,0,.03,0,.046a.188.188,0,0,0,.045.007q0-.9-.008-1.792" transform="translate(-0.098 -84.107)" fill="#7e7c86"/>
        <path id="Path_182929" data-name="Path 182929" d="M115.309,33.643a9.086,9.086,0,0,0,2.468-4.115,2.579,2.579,0,0,1,.151-.338h0a2.037,2.037,0,0,0-.274-1.546c-.1-.123-.074-.359-.075-.544,0-2.725.02-5.45-.025-8.175-.008-.468.39-.714.38-1.133v0q-8.072.007-16.144.016a8.908,8.908,0,0,0-4.036.866c-.381.191-.795.179-1.166.348l0,0c.727-.016.906.131.909.832.009,2.414,0,4.829,0,7.243,0,.45-.145.808-.649.81-.541,0-.675-.366-.673-.846.009-1.873,0-3.746,0-5.665-.4.087-.534.542-.911.6-.467.076-.685-.2-.834-.577q-2.419,2.394-4.84,4.787c-.147.145-.3.283-.455.42a1.529,1.529,0,0,0,.052.2,38.472,38.472,0,0,1,.117,6.171,26.971,26.971,0,0,1-2.273,9.786l11.574,0c.182-1.36.557-2.679.861-4.013.741-3.242,1.446-6.492,2.2-9.731.042-.182.088-.363.141-.543a1.134,1.134,0,0,1,1.459-.907c.511.092,1.021.2,1.522.338a1.08,1.08,0,0,1,.913,1.483c-.445,2.158-.964,4.3-1.443,6.45-.438,1.968-.9,3.931-1.321,5.9-.074.344-.211.671-.266,1.019a8.241,8.241,0,0,0,6-2.529c2.2-2.217,4.393-4.435,6.627-6.616m-10.714-9.532a11.529,11.529,0,0,1-1.246.007c-.364-.021-.47.126-.452.47.022.414.013.831,0,1.246a.661.661,0,1,1-1.321-.012c-.011-.537.166-1.225-.1-1.569-.285-.369-1.008-.085-1.538-.131-.42-.036-.738-.184-.732-.667.006-.508.322-.654.784-.668.512-.016,1.166.231,1.5-.107.3-.307.077-.95.085-1.444.007-.448.123-.794.64-.811s.67.315.7.764c.03.514-.22,1.177.1,1.5s.988.087,1.5.1c.451.01.7.194.746.627a.636.636,0,0,1-.661.7m3.106,3.022c0-1.6,0-3.2,0-4.8V21.277c-.274.262-.429.429-.6.572a.614.614,0,0,1-.9-.027.594.594,0,0,1-.036-.893c.569-.605,1.148-1.205,1.766-1.759a.646.646,0,0,1,1.1.455,5.76,5.76,0,0,1,.015.809q0,3.148,0,6.295c0,.146,0,.291,0,.436-.017.429-.2.744-.661.746-.486,0-.684-.309-.683-.779" transform="translate(-54.71 -11.182)" fill="#265a67"/>
        <path id="Path_182930" data-name="Path 182930" d="M122.535,58.3c.424-1.971.883-3.934,1.321-5.9.478-2.151,1-4.292,1.443-6.45a1.081,1.081,0,0,0-.913-1.484c-.5-.139-1.011-.246-1.522-.338a1.133,1.133,0,0,0-1.458.907c-.053.179-.1.36-.142.543-.755,3.239-1.459,6.489-2.2,9.731-.3,1.333-.679,2.653-.861,4.013h.205q1.625-7.129,3.25-14.259c.134-.591.423-.822,1.018-.714.632.115,1.257.273,1.88.432a.685.685,0,0,1,.541.941q-.713,3.093-1.4,6.191-.83,3.7-1.65,7.409c.075,0,.15,0,.224,0,.056-.348.192-.675.266-1.019" transform="translate(-74.294 -27.718)" fill="#265a67"/>
        <path id="Path_182931" data-name="Path 182931" d="M88.959,47.972a38.473,38.473,0,0,0-.117-6.171,1.591,1.591,0,0,1-.052-.2l-.188.169a45.4,45.4,0,0,1,.116,5.161A27.539,27.539,0,0,1,88,52.957c-.389,1.641-1.027,3.2-1.52,4.8h.211a26.963,26.963,0,0,0,2.273-9.786" transform="translate(-54.353 -26.145)" fill="#265a67"/>
        <path id="Path_182932" data-name="Path 182932" d="M57.908,104.152c-.6-.364-1.165-.8-1.743-1.2a30.715,30.715,0,0,1-1.886,3.221c-1.157,1.971-2.367,3.912-3.557,5.863a4.379,4.379,0,0,1-.36.509,1.314,1.314,0,0,1-1.336.486,1.362,1.362,0,0,1-1.094-1c-.9-3.007-1.76-6.025-2.7-9.019a11.625,11.625,0,0,0-5.856-6.9c-.292-.158-.715-.194-.728-.666-.062.217-.131.433-.185.652a14.182,14.182,0,0,1-3.085,5.355,2.323,2.323,0,0,1-3.83-.016A13.873,13.873,0,0,1,28.194,94.8a2.81,2.81,0,0,1-3.037.141h0a11.643,11.643,0,0,0-2.617,2.391,28.978,28.978,0,0,0,2.172,2.716,9.927,9.927,0,0,0,1.848,2.006,7.464,7.464,0,0,0,2.735.984c2.319.566,4.648,1.1,6.969,1.657a1.874,1.874,0,0,1,1.376,2.09q-.684,4.077-1.378,8.152c-.021.123-.063.241-.095.362,1.4.243,1.841.774,1.738,2.188-.036.49-.162.973-.247,1.459a1.376,1.376,0,0,0,.846.487,8.387,8.387,0,0,0,2.855.095,1.43,1.43,0,0,0,1.13-1.892c-.259-1.134-.517-2.27-.829-3.39a1.675,1.675,0,0,1,.4-1.83c-.183-.724-.378-1.446-.546-2.174a.6.6,0,0,1,.42-.789.637.637,0,0,1,.826.469c.064.175.1.36.149.541.543,1.962,1.056,3.934,1.639,5.885a3.482,3.482,0,0,0,5.867,1.419,5.151,5.151,0,0,0,.679-.968c2.333-3.911,4.657-7.828,7.01-11.727.267-.442.237-.651-.2-.914" transform="translate(-14.167 -59.583)" fill="#f3d392"/>
        <path id="Path_182933" data-name="Path 182933" d="M19.429,38.688c.56.981.574.972,1.589.4a.883.883,0,0,1,.167-.085c.445-.136.493-.4.33-.811a26.6,26.6,0,0,1-1.089-3.12c-.079-.309-.214-.662.057-.881.985-.8.757-1.842.65-2.869A22.116,22.116,0,0,0,20.1,28.061c-.3-1.16-.3-1.161-1.49-1.191a2.271,2.271,0,0,1-2.078-2.642,2.4,2.4,0,0,1,2.645-1.968c.528,0,.675-.181.668-.688-.025-1.728,0-3.457-.014-5.186,0-.425.149-.708.574-.737a.588.588,0,0,1,.7.615l4.6-.008a.723.723,0,0,1,.67-.621c.446-.03.57.333.727.646l1.712.009c.117-.385.312-.7.776-.631.486.076.525.451.494.853a.625.625,0,0,0,.1.474c-.118-.579.134-.764.693-.7a11.513,11.513,0,0,1,2.311.117c-.006-.393.129-.7.557-.747s.619.241.726.606h3.355c.11-.371.311-.652.743-.6.4.045.529.358.573.711a5.747,5.747,0,0,1,.062.681c.006,1.354,0,2.707,0,4.061,0,1.208,0,1.208,1.2,1.265a2.288,2.288,0,0,1,2.051,2.218,2.316,2.316,0,0,1-1.99,2.279c-1.319.094-1.341.088-1.683,1.364A13.489,13.489,0,0,0,38.093,32c.013.583-.071,1.152-.1,1.724-.035.783-.417,1.616-.076,2.339a2.261,2.261,0,0,1-.089,2.069c-.394.886-.379.893.484,1.343a1.081,1.081,0,0,0,1.665-.614c.121-.31.245-.619.378-.924A31.639,31.639,0,0,0,43.1,22.895a21.82,21.82,0,0,0-1.194-6.088A11.483,11.483,0,0,0,33.4,9a17.19,17.19,0,0,0-8.514.191,10.628,10.628,0,0,0-6.279,4.546A16.236,16.236,0,0,0,16.119,22a43.064,43.064,0,0,0,.2,7.41,24.858,24.858,0,0,0,3.115,9.274M24.3,11.57a14.314,14.314,0,0,1,10.112-.134,1.371,1.371,0,0,1,1.032.906,1.068,1.068,0,0,1-1.114,1.41c-1.622.014-3.244,0-4.867,0-1.581,0-3.161,0-4.742,0a1.192,1.192,0,0,1-1.244-.9A1.113,1.113,0,0,1,24.3,11.57" transform="translate(-10.087 -5.378)" fill="#353c60"/>
        <path id="Path_182934" data-name="Path 182934" d="M39.739,29.57a.846.846,0,0,0-.853.458.469.469,0,0,1-.134.051,2.916,2.916,0,0,0,1.769,2.151c.429.177.654.484.458.929-.214.488-.618.481-1.048.274a4.239,4.239,0,0,1-2.55-3.974c-.031.014-.063.027-.1.039a1.973,1.973,0,0,1-1.624-.145c-.022.185-.049.37-.065.556a5.165,5.165,0,0,1-3.418,4.582,8.553,8.553,0,0,1-2.031.582c-.306.046-.489.137-.475.5.048,1.35-.062,2.7.085,4.053a8.337,8.337,0,0,0,16.4.921,25.847,25.847,0,0,0,.226-5.224c.027-1.191.005-1.191-1.136-1.522-2.3-.666-3.518-2.179-3.5-4.334h0a6.611,6.611,0,0,1-2.01.1m-6.426,6.773a.6.6,0,0,1-.655-.663.585.585,0,0,1,.624-.631q1.025-.02,2.051,0a.6.6,0,0,1,.632.63.611.611,0,0,1-.662.664c-.352.008-.7,0-1.057,0-.311,0-.622.006-.933,0m1.609,2.838c-.537-.01-.681-.388-.651-.863-.021-.464.1-.838.644-.875.457-.031.7.3.7.9,0,.469-.151.85-.689.84m5.242,5.369a3.96,3.96,0,0,1-2.142.548,3.845,3.845,0,0,1-1.8-.407.631.631,0,0,1-.39-.86.614.614,0,0,1,.873-.361,3.23,3.23,0,0,0,2.878-.094.609.609,0,0,1,.884.325.619.619,0,0,1-.3.849m1.993-6.2c.022.48-.142.844-.678.832s-.653-.412-.648-.872.1-.861.656-.863c.588,0,.691.42.669.9m1.22-3.3a.579.579,0,0,1,.588.663.589.589,0,0,1-.629.626c-.332,0-.663,0-.995,0-.352,0-.705.013-1.057,0a.6.6,0,0,1-.626-.634.589.589,0,0,1,.606-.651c.7-.022,1.409-.02,2.113,0" transform="translate(-18.649 -18.449)" fill="#fea99f"/>
        <path id="Path_182935" data-name="Path 182935" d="M54.744,29.338c-.559-.061-.812.124-.693.7,0,.007,0,.014.006.022a.469.469,0,0,0,.134-.051.846.846,0,0,1,.853-.458,6.6,6.6,0,0,0,2.01-.1,11.51,11.51,0,0,0-2.31-.117" transform="translate(-33.955 -18.433)" fill="#fea99f"/>
        <path id="Path_182936" data-name="Path 182936" d="M47.421,29.5c.032-.012.065-.025.1-.039,0-.033-.006-.064-.007-.1L45.8,29.353a1.973,1.973,0,0,0,1.624.145" transform="translate(-28.785 -18.449)" fill="#fea99f"/>
        <path id="Path_182937" data-name="Path 182937" d="M87.414,17.744c.22-.218.434-.489.775-.45a1.155,1.155,0,0,1,.4-.672c.579-.553,1.152-1.113,1.728-1.67l.009,0c-.014-.01-.024-.022-.039-.033.159-.373.553-.325.84-.468a10.5,10.5,0,0,1,4.832-.988c4.885.013,9.771,0,14.656.009.36,0,.749-.085,1.057.2q.005-1.181.01-2.362l-.077.009a4.651,4.651,0,0,1-1.058.054q-16.371,0-32.744,0a2.039,2.039,0,0,0-.724.051,12.848,12.848,0,0,1,2.176,2.157c.045.057.084.117.129.175a1.34,1.34,0,0,1,.335-.026c1.29,0,2.579-.01,3.868,0a1.484,1.484,0,0,1,1.521,1.039,1.162,1.162,0,0,1-.31,1.261c-.909.935-1.8,1.889-2.777,2.757.018.053.035.107.055.159a14.826,14.826,0,0,1,.74,3.141c.016.1.028.2.042.306a2.027,2.027,0,0,1,.333-.444c1.412-1.4,2.811-2.813,4.225-4.211" transform="translate(-48.445 -7.108)" fill="#264653"/>
        <path id="Path_182938" data-name="Path 182938" d="M77.979,13.246A12.857,12.857,0,0,0,75.8,11.09a2.036,2.036,0,0,1,.724-.051q16.372,0,32.744,0a4.673,4.673,0,0,0,1.058-.054l.077-.009v-.2H75.051a20.7,20.7,0,0,1,2.862,2.749.423.423,0,0,1,.195-.1c-.044-.058-.083-.118-.129-.175" transform="translate(-47.172 -6.772)" fill="#264653"/>
        <path id="Path_182939" data-name="Path 182939" d="M90.847,34.756a14.825,14.825,0,0,0-.74-3.141c-.02-.053-.037-.106-.055-.159-.065.058-.127.119-.194.176a27.45,27.45,0,0,1,.87,3.76,2.922,2.922,0,0,1,.161-.33c-.014-.1-.026-.2-.042-.306" transform="translate(-56.479 -19.771)" fill="#264653"/>
        <path id="Path_182940" data-name="Path 182940" d="M132.962,17.1c-4.885-.007-9.771,0-14.656-.009a10.5,10.5,0,0,0-4.832.988c-.286.143-.681.1-.839.468.015.01.025.022.039.033.371-.169.785-.158,1.166-.349a8.916,8.916,0,0,1,4.036-.866q8.072-.016,16.144-.016h0c0-.015,0-.031,0-.046-.308-.288-.7-.2-1.057-.2" transform="translate(-70.795 -10.741)" fill="#264653"/>
        <path id="Path_182941" data-name="Path 182941" d="M97.956,27.473c0-.022.009-.039.012-.06-.341-.039-.555.232-.776.45-1.414,1.4-2.813,2.811-4.225,4.211a2.027,2.027,0,0,0-.333.444c.008.054.017.108.027.161.154-.138.308-.275.455-.42q2.423-2.391,4.84-4.787" transform="translate(-58.224 -17.228)" fill="#264653"/>
        <path id="Path_182942" data-name="Path 182942" d="M92.361,41.164a2.885,2.885,0,0,0-.161.33c.062-.057.125-.113.188-.169-.01-.053-.02-.107-.027-.161" transform="translate(-57.951 -25.873)" fill="#264653"/>
        <path id="Path_182943" data-name="Path 182943" d="M24.2,118.624c.412-2.458.813-4.917,1.24-7.373a1.652,1.652,0,0,0-1.361-2.081c-2.357-.6-4.719-1.174-7.1-1.68a6.012,6.012,0,0,1-3.8-2.286c-.718-.967-1.533-1.86-2.286-2.8-.184-.23-.366-.463-.243-.789a4.083,4.083,0,0,0-.388.4,58.422,58.422,0,0,0-6.127,10.177,5.792,5.792,0,0,0,2.509,7.42c.811-1.362,1.618-2.725,2.434-4.083.114-.189.224-.4.478-.452-.277-.224-.578-.438-.438-.869a.648.648,0,0,1,.827-.468c.341.063.292-.206.335-.394q.5-2.242,1.005-4.485c.191-.859.44-1.009,1.323-.808,1.212.275,2.426.539,3.638.81q3.94.882,7.879,1.77c.681.155.848.448.694,1.124-.5,2.221-1,4.444-1.51,6.664-.272,1.183-.279,1.182.967,1.163-.254-.3-.133-.638-.079-.955" transform="translate(-2.284 -63.868)" fill="#f3b575"/>
        <path id="Path_182944" data-name="Path 182944" d="M37.572,111.065a1.874,1.874,0,0,0-1.376-2.09c-2.321-.56-4.649-1.09-6.969-1.657a7.469,7.469,0,0,1-2.735-.984,9.925,9.925,0,0,1-1.848-2.006,28.873,28.873,0,0,1-2.173-2.716c-.123.326.059.559.243.789.753.942,1.568,1.835,2.285,2.8a6.012,6.012,0,0,0,3.8,2.286c2.377.506,4.74,1.082,7.1,1.68a1.652,1.652,0,0,1,1.361,2.081c-.426,2.455-.828,4.915-1.24,7.373-.053.318-.175.657.079.955.032-.12.074-.239.095-.361q.692-4.076,1.378-8.152" transform="translate(-14.099 -63.867)" fill="#f3b575"/>
        <path id="Path_182945" data-name="Path 182945" d="M142.366,62.732c-.937,0-1.874.007-2.812-.006a.879.879,0,0,1-.872-.584.8.8,0,0,1,.246-.952c1.177-1.178,2.36-2.352,3.531-3.536.459-.464.922-.34,1.464.011V49.51a7.334,7.334,0,0,1-2.107,3.883q-3.6,3.638-7.238,7.235a8.416,8.416,0,0,1-5.257,2.331,1.162,1.162,0,0,1-.667-.07c-.029.4-.176.783-.235,1.181a.782.782,0,0,0,.791,1.009c.249.022.5.012.747.012q6.448,0,12.9,0a4.115,4.115,0,0,1,.993.054l.089.012V62.381a2.193,2.193,0,0,1-1.57.351" transform="translate(-80.706 -31.119)" fill="#264653"/>
        <path id="Path_182946" data-name="Path 182946" d="M143.338,87.51a4.116,4.116,0,0,0-.993-.054q-6.448,0-12.9,0c-.249,0-.5.01-.747-.012a.783.783,0,0,1-.792-1.009c.059-.4.207-.777.236-1.181a.658.658,0,0,1-.2-.161c-.1.382-.193.764-.285,1.146-.238.99.135,1.483,1.127,1.483h14.639v-.2l-.089-.012" transform="translate(-80.196 -53.484)" fill="#264653"/>
        <path id="Path_182947" data-name="Path 182947" d="M129.749,62.311a8.418,8.418,0,0,0,5.257-2.331q3.644-3.592,7.238-7.235a7.334,7.334,0,0,0,2.107-3.883c0-.128,0-.255,0-.383a2.5,2.5,0,0,0-.151.338,9.09,9.09,0,0,1-2.468,4.115c-2.233,2.18-4.43,4.4-6.627,6.616a8.24,8.24,0,0,1-6,2.529c-.006.042-.017.083-.021.125,0,.013,0,.026,0,.039a1.162,1.162,0,0,0,.667.07" transform="translate(-81.133 -30.471)" fill="#264653"/>
        <path id="Path_182948" data-name="Path 182948" d="M128.751,85.211c0-.042.014-.083.021-.125-.075,0-.149,0-.224,0a.664.664,0,0,0,.2.161c0-.013,0-.026,0-.039" transform="translate(-80.797 -53.48)" fill="#264653"/>
        <path id="Path_182949" data-name="Path 182949" d="M72.312,99.85a36.183,36.183,0,0,1,1.2,3.738c.626,2,1.2,4.022,1.811,6.028.181.589.409,1.115,1.1,1.205s1.056-.385,1.366-.9c1.442-2.383,2.9-4.757,4.342-7.14.259-.427.529-.845.789-1.272.128-.21.242-.444.514-.514-.5-.37-1.019-.718-1.5-1.116-.35-.292-.5-.224-.723.159-1.531,2.666-3.088,5.317-4.637,7.973a4.038,4.038,0,0,1-.3.475.608.608,0,0,1-.884.143.579.579,0,0,1-.233-.81,3.236,3.236,0,0,1,.3-.542,1.674,1.674,0,0,0,.261-1.513c-.3-1.3-.6-2.588-.935-3.875a15.366,15.366,0,0,0-3.249-6.783,11.835,11.835,0,0,0-4.755-3.32c-.489-.176-.766-.188-.74.463a8.245,8.245,0,0,1-.13,1.237h0a12.645,12.645,0,0,1,6.4,6.36" transform="translate(-41.429 -57.629)" fill="#f3f6ba"/>
        <path id="Path_182950" data-name="Path 182950" d="M66.641,97.206a11.624,11.624,0,0,1,5.856,6.9c.937,2.994,1.8,6.013,2.7,9.019a1.362,1.362,0,0,0,1.093,1,1.313,1.313,0,0,0,1.336-.487,4.3,4.3,0,0,0,.36-.508c1.191-1.951,2.4-3.892,3.557-5.863a30.749,30.749,0,0,0,1.886-3.221c-.272.071-.386.3-.514.514-.26.426-.531.845-.789,1.272-1.443,2.383-2.9,4.756-4.342,7.14-.31.513-.674.988-1.366.9s-.915-.616-1.1-1.205c-.615-2.006-1.185-4.026-1.811-6.028a36.153,36.153,0,0,0-1.2-3.738,12.645,12.645,0,0,0-6.4-6.36c.013.472.436.508.728.666" transform="translate(-41.429 -60.679)" fill="#f3f6ba"/>
        <path id="Path_182951" data-name="Path 182951" d="M12.537,141.549c-.192.328-.335.73-.78.832q3.606,2.093,7.21,4.188c.23.134.348.149.42-.166q.569-2.488,1.178-4.966a.364.364,0,0,0-.215-.491q-2.845-1.543-5.682-3.1a3.438,3.438,0,0,1-.583,1.085c-.5.88-1.037,1.743-1.55,2.619" transform="translate(-7.39 -86.641)" fill="#f3d392"/>
        <path id="Path_182952" data-name="Path 182952" d="M14.191,138.3c-.816,1.358-1.624,2.722-2.434,4.083.445-.1.588-.5.78-.832.512-.875,1.046-1.738,1.55-2.618a3.443,3.443,0,0,0,.583-1.085c-.255.049-.365.263-.478.452" transform="translate(-7.39 -86.642)" fill="#f3d392"/>
        <path id="Path_182953" data-name="Path 182953" d="M35,132.62c.26.058.2-.2.234-.342.512-2.247,1.006-4.5,1.535-6.739.087-.369-.075-.428-.344-.489-3.3-.742-6.6-1.48-9.9-2.239-.444-.1-.585.058-.666.451-.189.915-.406,1.823-.61,2.735-.439,1.963-.438,1.963,1.453,2.81.214-.931.419-1.865.646-2.792a.836.836,0,0,1,1.114-.7q2.554.576,5.1,1.185c.681.163.86.5.7,1.2q-.336,1.489-.666,2.98c1.1.088,1.4.443,1.334,1.569-.007.131-.126.333.069.376" transform="translate(-15.72 -77.172)" fill="#fe4b6e"/>
        <path id="Path_182954" data-name="Path 182954" d="M60.771,145.67c.126.566.3,1.123.41,1.693a1.757,1.757,0,0,1-1.807,2.25,7.628,7.628,0,0,1-2.537-.151c-.351-.116-.737-.226-.735-.717-.826,1.52-1.9,2.693-3.808,2.643-.328-.009-.394.219-.409.434-.02.271.234.177.373.177,3.726.006,7.451,0,11.177.009.3,0,.471-.051.428-.409-.09-.743-.159-1.488-.224-2.234a.616.616,0,0,0-.277-.458,5.066,5.066,0,0,1-1.748-2.8c-.35-1.3-.735-2.593-1.105-3.889-.474,1.194.012,2.318.264,3.455" transform="translate(-32.61 -89.388)" fill="#f3b575"/>
        <path id="Path_182955" data-name="Path 182955" d="M67.242,144.046c.312,1.12.57,2.256.829,3.39a1.431,1.431,0,0,1-1.13,1.892,8.387,8.387,0,0,1-2.855-.1,1.375,1.375,0,0,1-.846-.487c0,.491.384.6.735.717a7.638,7.638,0,0,0,2.537.151,1.757,1.757,0,0,0,1.807-2.25c-.109-.57-.285-1.127-.41-1.693-.253-1.137-.738-2.261-.264-3.455a1.674,1.674,0,0,0-.4,1.83" transform="translate(-39.749 -89.388)" fill="#f3b575"/>
        <path id="Path_182956" data-name="Path 182956" d="M36.387,134.565c.146-.733.32-1.46.475-2.191a.677.677,0,0,0-.557-.924c-1.647-.434-3.32-.752-4.977-1.144a.668.668,0,0,0-.879.559c-.185.66-.3,1.337-.475,2-.071.263-.116.534-.409.654,1.027.58,2.049,1.169,3.084,1.735.465.255.779.548.579,1.134a.316.316,0,0,0,.07.395,1.178,1.178,0,0,0,1.564-.184,3.061,3.061,0,0,1,1.6-1.212c-.255-.252-.13-.546-.075-.821" transform="translate(-18.583 -81.884)" fill="#fe8b86"/>
        <path id="Path_182957" data-name="Path 182957" d="M37.128,131.92c.157-.695-.022-1.033-.7-1.2q-2.546-.611-5.1-1.185a.835.835,0,0,0-1.114.7c-.228.928-.432,1.861-.647,2.793.293-.121.338-.391.409-.654.179-.662.29-1.339.475-2a.668.668,0,0,1,.879-.559c1.657.392,3.33.709,4.977,1.144a.677.677,0,0,1,.557.923c-.155.731-.329,1.458-.475,2.191-.055.276-.18.569.075.822h0q.333-1.489.666-2.98" transform="translate(-18.583 -81.398)" fill="#fe8b86"/>
        <path id="Path_182958" data-name="Path 182958" d="M86.327,85.634a1.029,1.029,0,0,1-.568-.1c-.134.462-.351.894-.515,1.345-.285.786-.24.857.581.858q4.762,0,9.525,0c.29,0,.581-.011.871,0a.636.636,0,0,0,.7-.555c.135-.539.227-1.089.4-1.618a1.223,1.223,0,0,1-.465.076q-5.267.016-10.533,0" transform="translate(-53.479 -53.758)" fill="#264653"/>
        <path id="Path_182959" data-name="Path 182959" d="M96.186,86.9a.636.636,0,0,1-.7.555c-.29-.009-.581,0-.871,0q-4.762,0-9.525,0c-.821,0-.865-.072-.58-.858.163-.452.381-.883.514-1.345a.534.534,0,0,1-.157-.157,20.745,20.745,0,0,0-.88,2.119c-.188.429,0,.513.376.507.436-.007.872,0,1.308,0,3.3,0,6.6-.012,9.905.012.542,0,.791-.171.877-.7.107-.653.267-1.3.4-1.944a.63.63,0,0,1-.266.192c-.173.529-.265,1.079-.4,1.618" transform="translate(-52.74 -53.484)" fill="#264653"/>
        <path id="Path_182960" data-name="Path 182960" d="M86.931,85.147c-.009.037-.023.072-.033.108a1.03,1.03,0,0,0,.568.1q5.267.019,10.533,0a1.225,1.225,0,0,0,.466-.076c.02-.061.036-.124.059-.185a.051.051,0,0,1,0-.007l-11.574,0-.02.05" transform="translate(-54.619 -53.484)" fill="#264653"/>
        <path id="Path_182961" data-name="Path 182961" d="M118.1,85.1c-.023.061-.039.123-.059.185a.634.634,0,0,0,.266-.192H118.1V85.1" transform="translate(-74.191 -53.484)" fill="#264653"/>
        <path id="Path_182962" data-name="Path 182962" d="M86.632,85.262c.01-.036.024-.071.033-.108.007-.017.013-.033.02-.05h-.211a.538.538,0,0,0,.158.157" transform="translate(-54.352 -53.492)" fill="#264653"/>
        <path id="Path_182963" data-name="Path 182963" d="M44.5,153.3a3.241,3.241,0,0,0,1.184-2.628c.014-.332-.183-.415-.471-.439-.807-.068-1.612-.172-2.42-.226-1.329-.089-1.691-.447-1.711-1.8-.093.032-.149.033-.165.059a2.385,2.385,0,0,1-3.133,1.139c-.3-.112-.349.117-.4.324-.123.5-.23,1.013-.368,1.512-.1.345-.023.536.35.632a2.475,2.475,0,0,1,1.463.765,2.936,2.936,0,0,0,2.4,1.1c.476.015.953.068,1.427.128A2.382,2.382,0,0,0,44.5,153.3" transform="translate(-23.24 -93.158)" fill="#fea99f"/>
        <path id="Path_182964" data-name="Path 182964" d="M41.645,91.3c-.06-.169-.02-.487-.337-.427-.35.065-.192.356-.178.56a11.461,11.461,0,0,0,3.206,6.751.958.958,0,0,0,1.6.006A23.144,23.144,0,0,0,47.4,96.322a10.168,10.168,0,0,0,1.784-5.032c.008-.3-.006-.374-.115-.41-.155-.051-.231.04-.267.176-.363,1.346-1.6,1.782-2.588,2.477a1.709,1.709,0,0,1-.835.219c-1.043.11-1.75-.568-2.526-1.067A2.768,2.768,0,0,1,41.645,91.3" transform="translate(-25.822 -57.112)" fill="#497caf"/>
        <path id="Path_182965" data-name="Path 182965" d="M117.176,92.457a1.016,1.016,0,0,0-1.091.55c-.627,1.029-1.266,2.049-1.887,3.081a11.481,11.481,0,0,0-.79,2.022,1.689,1.689,0,0,0,.944,2.439,3,3,0,0,1,.558.4.29.29,0,0,0,.387.008,5.921,5.921,0,0,0,3.157-5.208,8.192,8.192,0,0,0-.445-2.466,1,1,0,0,0-.832-.823" transform="translate(-71.16 -58.103)" fill="#fea99f"/>
        <path id="Path_182966" data-name="Path 182966" d="M103.545,4.345h-.1c-2.809.039-5.619.013-8.428.016q-6.462.008-12.925,0a7.749,7.749,0,0,1-1.059-.038l-.119,0a2.032,2.032,0,0,0,0,.78l.108.006a5.675,5.675,0,0,1,.748-.039q10.583,0,21.167,0a3.6,3.6,0,0,1,.5.016h.107a1.516,1.516,0,0,0,0-.743" transform="translate(-50.836 -2.717)" fill="#f3d39c"/>
        <path id="Path_182967" data-name="Path 182967" d="M81.1,3.881a7.749,7.749,0,0,0,1.059.038q6.462,0,12.925,0c2.809,0,5.619.023,8.428-.016h.1a1.729,1.729,0,0,0-.08-.255c-.145-.009-.289-.027-.434-.027q-10.782,0-21.564,0c-.165,0-.33.022-.5.033a2.165,2.165,0,0,0-.053.23l.119,0" transform="translate(-50.9 -2.275)" fill="#f3d39c"/>
        <path id="Path_182968" data-name="Path 182968" d="M103.5,6.355a3.6,3.6,0,0,0-.5-.016q-10.583,0-21.167,0a5.609,5.609,0,0,0-.748.039l-.108-.006a2.214,2.214,0,0,0,.054.233h0c.186.011.372.033.558.033q10.72,0,21.44,0c.165,0,.331-.018.5-.027a1.738,1.738,0,0,0,.08-.256H103.5" transform="translate(-50.899 -3.984)" fill="#f3d39c"/>
        <path id="Path_182969" data-name="Path 182969" d="M161.769,13.648l.006,0c.221.406-.141.738-.136,1.136.032,2.742.013,5.484.02,8.226a11.286,11.286,0,0,1,.184,1.841c-.009.1-.027.193-.04.29.1.146.036.319.036.475q.009,3.743,0,7.485c0,.648,0,.655-.63.539a.835.835,0,0,0-.8.24q-1.685,1.668-3.351,3.353a.652.652,0,0,0,.472,1.183,20.553,20.553,0,0,0,3.853-.119c.2-.043.457-.1.447.233a24.979,24.979,0,0,1-.04,2.589l.087.012q.007-13.307.015-26.613,0-1.628,0-3.255l-.1.013a9.219,9.219,0,0,1-.025,2.368" transform="translate(-98.54 -7.082)" fill="#265a67"/>
        <path id="Path_182970" data-name="Path 182970" d="M170.234,10.767h0c.008.065.012.13.019.2l.1-.013c0-.06,0-.12,0-.18a.309.309,0,0,0-.121,0" transform="translate(-106.999 -6.765)" fill="#265a67"/>
        <path id="Path_182971" data-name="Path 182971" d="M170.22,91.838l.056.008.057,0v-.186l-.087-.012c-.009.065-.016.13-.027.195" transform="translate(-106.99 -57.601)" fill="#265a67"/>
        <path id="Path_182972" data-name="Path 182972" d="M169.56,17.72c.011.419-.387.665-.38,1.134.044,2.724.02,5.45.025,8.175,0,.184-.024.421.075.544a2.035,2.035,0,0,1,.274,1.546h0a.337.337,0,0,1,.045.055c.013-.1.031-.191.04-.29a11.286,11.286,0,0,0-.184-1.841c-.007-2.742.012-5.485-.02-8.226,0-.4.357-.73.136-1.135l-.006,0c0,.014,0,.029,0,.042Z" transform="translate(-106.337 -11.11)" fill="#265a67"/>
        <path id="Path_182973" data-name="Path 182973" d="M170.2,13.666l0,0a9.219,9.219,0,0,0,.025-2.368l-.019,0q-.005,1.181-.01,2.362" transform="translate(-106.98 -7.104)" fill="#265a67"/>
        <path id="Path_182974" data-name="Path 182974" d="M170.251,10.971c-.007-.065-.011-.13-.019-.2,0,.066,0,.132,0,.2l.019,0" transform="translate(-106.997 -6.773)" fill="#265a67"/>
        <path id="Path_182975" data-name="Path 182975" d="M170.2,17.712c0-.014,0-.028,0-.042l0,0c0,.015,0,.031,0,.046" transform="translate(-106.979 -11.104)" fill="#265a67"/>
        <path id="Path_182976" data-name="Path 182976" d="M161.2,57.109c-.542-.35-1-.475-1.464-.011-1.172,1.185-2.354,2.358-3.531,3.536a.8.8,0,0,0-.245.952.878.878,0,0,0,.872.584c.937.013,1.874.007,2.811.006a2.192,2.192,0,0,0,1.57-.351V64.6l.027,0a24.979,24.979,0,0,0,.04-2.589c.01-.335-.246-.276-.447-.233a20.553,20.553,0,0,1-3.853.119.652.652,0,0,1-.472-1.183q1.662-1.69,3.351-3.354a.837.837,0,0,1,.8-.24c.626.116.63.109.63-.539q0-3.743,0-7.486c0-.156.062-.329-.036-.475-.015.11-.026.221-.045.328v8.154" transform="translate(-97.983 -30.564)" fill="#265a67"/>
        <path id="Path_182977" data-name="Path 182977" d="M170.22,91.633v.2c.011-.065.018-.13.027-.195l-.027,0" transform="translate(-106.99 -57.595)" fill="#265a67"/>
        <path id="Path_182978" data-name="Path 182978" d="M170.186,48.862c.019-.107.031-.218.045-.328a.357.357,0,0,0-.045-.055v.383" transform="translate(-106.968 -30.471)" fill="#265a67"/>
        <path id="Path_182979" data-name="Path 182979" d="M140.554,104.19a4.452,4.452,0,0,0,0-.5.508.508,0,0,1,.141-.5c-2.842.036-5.684.083-8.527.051a1.12,1.12,0,0,0-1.2,1.345.322.322,0,0,0,.293.34,2.942,2.942,0,0,0,.5.025c1,0,2,.013,3,0,1.982-.029,3.963.014,5.945.05-.141-.1-.143-.324-.143-.811" transform="translate(-82.311 -64.86)" fill="#f27443"/>
        <path id="Path_182980" data-name="Path 182980" d="M140.655,104.744c-.425-.01-.651-.012-.773-.1-1.981-.036-3.963-.079-5.945-.05-1,.015-2,0-3,0a2.9,2.9,0,0,1-.5-.025.322.322,0,0,1-.293-.34,1.12,1.12,0,0,1,1.2-1.346c2.842.032,5.684-.014,8.527-.05a.736.736,0,0,1,.467-.107c1.224.023,2.449.01,3.673.005a1.294,1.294,0,0,0,.67-.067c-.915-.01-1.83-.028-2.745-.029q-5.589,0-11.178.01c-.223,0-.578-.135-.623.223-.084.658-.324,1.275-.482,1.965h.733q4.527,0,9.055,0c1.748,0,3.5-.015,5.243-.023-1.342-.161-2.689-.036-4.034-.066" transform="translate(-81.496 -64.502)" fill="#f27443"/>
        <path id="Path_182981" data-name="Path 182981" d="M50.122,80.053a8.681,8.681,0,0,1-3.284.006c-.344-.066-.487.012-.48.393.017,1.039-.012,2.079,0,3.118.01.672,1.6,1.933,2.255,1.814a1.3,1.3,0,0,0,.345-.139c1.138-.577,1.932-1.356,1.633-2.78a2.186,2.186,0,0,1,0-.436c0-.52-.016-1.04,0-1.559.014-.364-.114-.485-.474-.416" transform="translate(-29.137 -50.305)" fill="#fe7c81"/>
        <path id="Path_182982" data-name="Path 182982" d="M95.637,104.531a6.885,6.885,0,0,1,.416-1.5c.11-.285.032-.367-.257-.367-2.846,0-5.692,0-8.629,0,.373.721.7,1.343,1.017,1.968a.4.4,0,0,0,.4.225q3.306,0,6.612,0c.245,0,.4-.079.436-.334" transform="translate(-54.788 -64.53)" fill="#f27443"/>
        <path id="Path_182983" data-name="Path 182983" d="M88.487,20.548a1.192,1.192,0,0,0,.423-1.386,1.307,1.307,0,0,0-1.328-.737c-1.079-.019-2.159-.012-3.239,0a3.949,3.949,0,0,1-.722-.057,17.035,17.035,0,0,1,2.124,3.726c.134.323.228.659.336.989a2.656,2.656,0,0,1,.471-.592c.652-.64,1.3-1.282,1.936-1.94" transform="translate(-52.559 -11.543)" fill="#265a67"/>
        <path id="Path_182984" data-name="Path 182984" d="M85.537,22.959c-.108-.331-.2-.666-.336-.989a17.05,17.05,0,0,0-2.124-3.726,3.126,3.126,0,0,1-.321-.071,16.515,16.515,0,0,1,2.638,5.111h0a1.579,1.579,0,0,1,.143-.324" transform="translate(-52.015 -11.422)" fill="#265a67"/>
        <path id="Path_182985" data-name="Path 182985" d="M88.694,20.129A1.161,1.161,0,0,0,89,18.868a1.484,1.484,0,0,0-1.52-1.039c-1.29-.013-2.579,0-3.869,0a1.338,1.338,0,0,0-.335.026c.043.056.084.115.127.172a3.982,3.982,0,0,0,.722.057c1.079-.01,2.159-.016,3.239,0a1.308,1.308,0,0,1,1.328.737c.252.578-.048,1-.423,1.386-.634.657-1.285,1.3-1.936,1.94a2.66,2.66,0,0,0-.471.592c.016.049.034.1.051.147.975-.869,1.868-1.822,2.777-2.757" transform="translate(-52.345 -11.202)" fill="#265a67"/>
        <path id="Path_182986" data-name="Path 182986" d="M82.95,17.9a.425.425,0,0,0-.2.1,3.262,3.262,0,0,0,.322.071c-.043-.057-.083-.116-.127-.173" transform="translate(-52.015 -11.251)" fill="#265a67"/>
        <path id="Path_182987" data-name="Path 182987" d="M90,31.058a1.578,1.578,0,0,0-.143.324h0c.066-.058.128-.118.194-.177-.017-.049-.035-.1-.051-.147" transform="translate(-56.479 -19.521)" fill="#265a67"/>
        <path id="Path_182988" data-name="Path 182988" d="M33.9,25.647c-1.192.007-3.147-.185-4.339-.192-.136,0,.26,1.205.143,1.145-.042,0-.084.379-.126.379-.006,1-.015,1.991-.017,2.987,0,1.527,0,1.527,1.463,1.056a4.05,4.05,0,0,0,3.151-4.034c-.054,0-.159-.717-.212-.717-.107.049.06-.624-.064-.623" transform="translate(-18.564 -15.999)" fill="#353c60"/>
        <path id="Path_182989" data-name="Path 182989" d="M30.383,29.633q1.789.009,3.577,0a.845.845,0,0,0,.348-.066L30,29.559a.832.832,0,0,0,.385.074" transform="translate(-18.855 -18.579)" fill="#353c60"/>
        <path id="Path_182990" data-name="Path 182990" d="M151.669,4.3c-3.133-.007-6.266.021-9.4-.013a.572.572,0,0,1,0,.741c3.137-.03,6.273-.008,9.41-.013a3.823,3.823,0,0,1,.991.059c.032,0,.061.01.092.015V4.225c-.034.006-.068.012-.1.016a3.953,3.953,0,0,1-.99.056" transform="translate(-89.422 -2.656)" fill="#f3a161"/>
        <path id="Path_182991" data-name="Path 182991" d="M151.31,6.337c-3.137.005-6.273-.017-9.409.013a1.84,1.84,0,0,1-.219.257l10.711,0v-.2c-.03,0-.059-.012-.091-.015a3.826,3.826,0,0,0-.991-.059" transform="translate(-89.052 -3.98)" fill="#f3a161"/>
        <path id="Path_182992" data-name="Path 182992" d="M141.681,3.69h0a1.828,1.828,0,0,1,.219.256c3.133.035,6.266.007,9.4.014a3.955,3.955,0,0,0,.99-.056c.035,0,.069-.01.1-.016v-.2H141.681" transform="translate(-89.052 -2.319)" fill="#f3a161"/>
        <path id="Path_182993" data-name="Path 182993" d="M141.9,5.124h.139a.573.573,0,0,0,0-.742H141.9a1.525,1.525,0,0,1,0,.743" transform="translate(-89.188 -2.754)" fill="#f3a161"/>
        <path id="Path_182994" data-name="Path 182994" d="M141.762,6.381a1.736,1.736,0,0,1-.08.256,1.839,1.839,0,0,0,.219-.257h-.139" transform="translate(-89.053 -4.01)" fill="#f3a161"/>
        <path id="Path_182995" data-name="Path 182995" d="M141.761,3.949h.139a1.787,1.787,0,0,0-.219-.256,1.727,1.727,0,0,1,.08.255" transform="translate(-89.052 -2.322)" fill="#f3a161"/>
        <path id="Path_182996" data-name="Path 182996" d="M122.066,63.616c.364.079.459-.144.532-.477.468-2.13.956-4.255,1.436-6.383.554-2.451,1.1-4.9,1.666-7.354.087-.381.079-.62-.409-.668-.427-.043-.364.277-.41.476-.463,2-.907,4.011-1.36,6.017-.59,2.614-1.186,5.226-1.765,7.842-.047.212-.318.631.309.546" transform="translate(-76.467 -30.629)" fill="#f2a160"/>
        <path id="Path_182997" data-name="Path 182997" d="M154.957,96.412a3.211,3.211,0,0,1-.87.06c-2.685-.026-5.371.06-8.054-.044l-.081,0c0,.013,0,.026.006.038.091.429.085.651-.084.763l.355-.006c2.913-.073,5.828-.1,8.742.016.022,0,.04,0,.061,0l0-.842c-.025,0-.047.008-.073.01" transform="translate(-91.687 -60.592)" fill="#f2a160"/>
        <path id="Path_182998" data-name="Path 182998" d="M146,95.918c.011.069.02.137.032.206l.081,0c2.683.1,5.369.018,8.054.044a3.2,3.2,0,0,0,.87-.06c.026,0,.048-.007.073-.01,0-.061,0-.121,0-.181l-9.109,0" transform="translate(-91.765 -60.286)" fill="#f2a160"/>
        <path id="Path_182999" data-name="Path 182999" d="M136.862,98.514l-.355.006a1.119,1.119,0,0,1-.584.1q-2.476.013-4.952.02h0a4.911,4.911,0,0,0,1.6.076q6.548,0,13.1-.03c0-.052,0-.1,0-.156-.021,0-.039,0-.061,0-2.914-.112-5.829-.089-8.742-.016" transform="translate(-82.32 -61.881)" fill="#f2a160"/>
        <path id="Path_183000" data-name="Path 183000" d="M82.174,95.876c-.159.025-.2.121-.144.268a2.064,2.064,0,0,0,1.415.945q4.8.007,9.6.008c.2,0,.416.069.6-.075C92.9,97.014,92.155,97,91.409,97c-.952,0-1.05-.146-.759-1.114h0l-8.227-.018a1.635,1.635,0,0,0-.249.008" transform="translate(-51.545 -60.256)" fill="#f2a160"/>
        <path id="Path_183001" data-name="Path 183001" d="M162.034,103.1c-.149.217-.414.191-.652.2-1.058.019-2.117,0-3.176.011-.711.008-1.012.494-.746,1.165.12.3.377.292.623.3,1.079.015,2.159-.008,3.238.014.254.005.552-.052.716.195h.217q0-.938,0-1.876h-.219" transform="translate(-98.909 -64.804)" fill="#f3a161"/>
        <path id="Path_183002" data-name="Path 183002" d="M169.945,108.149a.569.569,0,0,1,.066.136l.151,0v-.133h-.217" transform="translate(-106.817 -67.976)" fill="#f3a161"/>
        <path id="Path_183003" data-name="Path 183003" d="M170,102.737h0a.532.532,0,0,1-.068.136h.22v-.134H170" transform="translate(-106.811 -64.574)" fill="#f3a161"/>
        <path id="Path_183004" data-name="Path 183004" d="M156.774,103.635a4.626,4.626,0,0,1,0,.5c0,.487,0,.707.143.811,1.578.029,3.157.053,4.735.033h.006c-.163-.246-.462-.189-.716-.195-1.079-.022-2.159,0-3.238-.014-.246,0-.5.006-.623-.3-.266-.671.035-1.157.746-1.165,1.059-.012,2.118.008,3.176-.011.238,0,.5.022.652-.2-1.581,0-3.162.013-4.744.033a.508.508,0,0,0-.14.5" transform="translate(-98.533 -64.803)" fill="#f3a161"/>
        <path id="Path_183005" data-name="Path 183005" d="M161.916,108.094c-1.579.02-3.157,0-4.735-.033.122.09.348.092.773.1,1.345.03,2.692-.095,4.034.066a.569.569,0,0,0-.066-.136Z" transform="translate(-98.794 -67.92)" fill="#f3a161"/>
        <path id="Path_183006" data-name="Path 183006" d="M161.305,102.805c-1.224.006-2.449.018-3.673-.005a.739.739,0,0,0-.467.107c1.581-.02,3.162-.037,4.744-.033a.53.53,0,0,0,.068-.136,1.3,1.3,0,0,1-.671.067" transform="translate(-98.784 -64.575)" fill="#f3a161"/>
        <path id="Path_183007" data-name="Path 183007" d="M66.085,4.336c-2.949.067-5.893.008-8.6.029a24.852,24.852,0,0,0,6.9.725,12.394,12.394,0,0,1,1.689.015.573.573,0,0,1,.006-.769" transform="translate(-36.133 -2.725)" fill="#f3a161"/>
        <path id="Path_183008" data-name="Path 183008" d="M62.4,4.642a24.854,24.854,0,0,1-6.9-.725c2.7-.021,5.648.038,8.6-.029a2.645,2.645,0,0,1,.183-.233l-9.547-.033h-.062c-.174,0-.337.011-.35.249-.014.282.176.278.371.29.27.017.538.049.808.067,1.211.077,2.358.571,3.543.661,1.736.132,3.491.017,5.237.007a2.515,2.515,0,0,1-.189-.241A12.453,12.453,0,0,0,62.4,4.642" transform="translate(-34.138 -2.277)" fill="#f3a161"/>
        <path id="Path_183009" data-name="Path 183009" d="M80.506,4.329l-.13,0a.573.573,0,0,0-.006.769l.135.008a2.032,2.032,0,0,1,0-.78" transform="translate(-50.425 -2.721)" fill="#f3a161"/>
        <path id="Path_183010" data-name="Path 183010" d="M80.762,3.94a2.142,2.142,0,0,1,.053-.23,2.574,2.574,0,0,0-.184.233l.13,0" transform="translate(-50.68 -2.332)" fill="#f3a161"/>
        <path id="Path_183011" data-name="Path 183011" d="M80.617,6.407a2.667,2.667,0,0,0,.189.241,2.294,2.294,0,0,1-.054-.233l-.135-.008" transform="translate(-50.671 -4.027)" fill="#f3a161"/>
        <path id="Path_183012" data-name="Path 183012" d="M16.576,82.542a10.206,10.206,0,0,0-.438,4.184,3.967,3.967,0,0,0,.761,1.954c.168.242.316.291.54.058q.646-.676,1.323-1.324a.423.423,0,0,0,.068-.605,35.368,35.368,0,0,1-1.781-3.425c-.126-.268-.134-.611-.473-.84" transform="translate(-10.116 -51.881)" fill="#353c60"/>
        <path id="Path_183013" data-name="Path 183013" d="M65.79,25.6c-.15-.715-.1,1.381-.15,1.381.14,1.956,1.072,2.668,2.929,3.211.422.123.434-.176.433-.466q0-1.371-.009-2.743c-.052,0-.1-1.036-.155-1.036a7.78,7.78,0,0,1-.9-.2" transform="translate(-41.257 -15.999)" fill="#353c60"/>
        <path id="Path_183014" data-name="Path 183014" d="M132.027,96.524c-.58.012-.634.118-.354.577l.087.036a2.479,2.479,0,0,1,.331-.017c1.1-.008,2.205-.023,3.307,0,.63.016,1.224.032,1.441-.64-1.6.072-3.207.006-4.811.039" transform="translate(-82.658 -60.645)" fill="#f2d29c"/>
        <path id="Path_183015" data-name="Path 183015" d="M130.958,96.785l-.086-.036c-.28-.46-.225-.565.354-.577,1.6-.033,3.209.033,4.812-.039a1.6,1.6,0,0,0,.053-.209h-5.855l.273,1.13h0a.6.6,0,0,1,.449-.269" transform="translate(-81.858 -60.292)" fill="#f2d29c"/>
        <path id="Path_183016" data-name="Path 183016" d="M135.82,97.121c-1.1-.027-2.2-.012-3.307,0a2.484,2.484,0,0,0-.331.016,1.767,1.767,0,0,0,.7.173c1.463-.013,2.926,0,4.39-.027.169-.112.175-.334.084-.763,0-.013,0-.026-.006-.038l-.085,0c-.218.672-.811.656-1.442.64" transform="translate(-83.081 -60.64)" fill="#f2d29c"/>
        <path id="Path_183017" data-name="Path 183017" d="M131.421,98.242a.6.6,0,0,0-.449.269q2.476-.01,4.952-.02a1.119,1.119,0,0,0,.584-.1c-1.464.029-2.927.014-4.39.027a1.773,1.773,0,0,1-.7-.173" transform="translate(-82.321 -61.749)" fill="#f2d29c"/>
        <path id="Path_183018" data-name="Path 183018" d="M145.856,96.132l.085,0c-.012-.068-.022-.137-.032-.206a1.531,1.531,0,0,1-.053.208" transform="translate(-91.676 -60.292)" fill="#f2d29c"/>
        <path id="Path_183019" data-name="Path 183019" d="M39.336,163.285a3.48,3.48,0,0,1-2.627-1.219,2.41,2.41,0,0,0-1.166-.668c-.265-.088-.379-.007-.436.246-.105.463-.223.924-.354,1.464.327.078.664.175,1.007.238a28.788,28.788,0,0,0,3.52.693c.383.023.442-.187.474-.482.042-.38-.254-.266-.418-.273" transform="translate(-21.844 -101.424)" fill="#fd4b6d"/>
        <path id="Path_183020" data-name="Path 183020" d="M105.971,96.759c.533.009,1.067-.006,1.6.01.264.008.543,0,.7.283a6.226,6.226,0,0,0,.741-1.135h-3.737a.7.7,0,0,1,.153.394c.022.343.24.442.544.446" transform="translate(-66.168 -60.288)" fill="#f1d29c"/>
        <path id="Path_183021" data-name="Path 183021" d="M105.787,97.032c.746,0,1.491.014,2.236.021-.154-.288-.433-.275-.7-.283-.533-.016-1.067,0-1.6-.01-.3-.005-.522-.1-.544-.446a.7.7,0,0,0-.153-.395c-.291.968-.193,1.11.759,1.114" transform="translate(-65.923 -60.288)" fill="#f1d29c"/>
        <path id="Path_183022" data-name="Path 183022" d="M22.209,49.167c-.886,0-1.363.35-1.348,1,.014.633.474.912,1.326.977.92.069.544-.58.626-.937,0-1.039,0-1.039-.6-1.042" transform="translate(-13.112 -30.903)" fill="#f9a69d"/>
        <path id="Path_183023" data-name="Path 183023" d="M78.821,51.108c.9-.048,1.365-.344,1.356-1.011-.009-.627-.451-.907-1.261-.981-.953-.087-.594.586-.681,1.036.115.355-.317,1,.585.956" transform="translate(-49.17 -30.867)" fill="#f9a79d"/>
        <path id="Path_183024" data-name="Path 183024" d="M32.623,92.808c-.017-.249-.051-.5-.046-.747.009-.386-.1-.516-.508-.368a8.55,8.55,0,0,0-2.484,1.256,9.169,9.169,0,0,0,3.037-.141" transform="translate(-18.596 -57.595)" fill="#f2f5ba"/>
        <path id="Path_183025" data-name="Path 183025" d="M32.623,94.8a9.169,9.169,0,0,1-3.037.141,2.811,2.811,0,0,0,3.037-.141" transform="translate(-18.596 -59.583)" fill="#f2f5ba"/>
        <path id="Path_183026" data-name="Path 183026" d="M19.158,158.843c-.093.368-.16.688-.255,1-.07.229-.007.365.219.416q1.831.416,3.663.825l.034-.082a2.067,2.067,0,0,0-.233-.181c-1.127-.652-2.256-1.3-3.428-1.977" transform="translate(-11.864 -99.839)" fill="#fc4a6d"/>
        <path id="Path_183027" data-name="Path 183027" d="M20.235,167.117c-.053.239.027.34.281.338.845-.008,1.692,0,2.537,0l.015-.121c-.819-.182-1.639-.354-2.454-.549-.321-.077-.334.129-.38.336" transform="translate(-12.709 -104.818)" fill="#efd091"/>
        <path id="Path_183028" data-name="Path 183028" d="M41.641,29.39l.147.007a.489.489,0,0,0,0-.109.517.517,0,0,1-.147.1" transform="translate(-26.173 -18.408)" fill="#65556f"/>
        <path id="Path_183029" data-name="Path 183029" d="M29.766,29.4a.5.5,0,0,1-.116-.088h0a.385.385,0,0,0,0,.092l.115,0" transform="translate(-18.635 -18.421)" fill="#65556f"/>
        <path id="Path_183030" data-name="Path 183030" d="M29.772,29.546l-.115,0h.127l-.012,0" transform="translate(-18.641 -18.571)" fill="#65556f"/>
        <path id="Path_183031" data-name="Path 183031" d="M41.6,29.569h.161l-.146-.007-.015.006" transform="translate(-26.148 -18.581)" fill="#65556f"/>
        <path id="Path_183032" data-name="Path 183032" d="M74.3,29.388c.046,0,.092,0,.138.008a.465.465,0,0,0,0-.107h0a.536.536,0,0,1-.138.1" transform="translate(-46.698 -18.41)" fill="#65556f"/>
        <path id="Path_183033" data-name="Path 183033" d="M65.768,29.39a.525.525,0,0,1-.135-.1.427.427,0,0,0,0,.1l.134-.008" transform="translate(-41.251 -18.412)" fill="#65556f"/>
        <path id="Path_183034" data-name="Path 183034" d="M65.774,29.553l-.134.008h.15l-.016-.008" transform="translate(-41.257 -18.575)" fill="#65556f"/>
        <path id="Path_183035" data-name="Path 183035" d="M74.251,29.563h.155l-.138-.008-.017.008" transform="translate(-46.67 -18.576)" fill="#65556f"/>
        <path id="Path_183036" data-name="Path 183036" d="M141.086,29.179c.006-.145,0-.291,0-.436q0-3.148,0-6.3a5.754,5.754,0,0,0-.015-.809.646.646,0,0,0-1.1-.455c-.618.553-1.2,1.154-1.766,1.758a.594.594,0,0,0,.036.893.615.615,0,0,0,.9.027c.175-.142.33-.31.6-.572v1.058c0,1.6,0,3.2,0,4.8,0,.47.2.781.683.779.456,0,.644-.318.661-.747" transform="translate(-86.752 -13.195)" fill="#fdfdfd"/>
        <path id="Path_183037" data-name="Path 183037" d="M125.079,27.243c-.514-.012-1.177.227-1.5-.1s-.075-.987-.1-1.5c-.026-.45-.182-.782-.7-.765s-.633.363-.64.811c-.009.494.213,1.137-.085,1.444-.329.338-.983.092-1.5.107-.462.014-.778.16-.784.668-.006.483.312.63.732.666.529.046,1.253-.238,1.538.131.266.344.089,1.032.1,1.569a.661.661,0,1,0,1.322.012c.017-.415.026-.832,0-1.246-.018-.343.088-.491.452-.469a11.715,11.715,0,0,0,1.246-.007.636.636,0,0,0,.661-.7c-.042-.432-.3-.616-.746-.626" transform="translate(-75.281 -15.637)" fill="#fdfefe"/>
        <path id="Path_183038" data-name="Path 183038" d="M109.058,21.514c-.637.661-1.257,1.339-1.944,1.951a.7.7,0,0,1,.136.038.7.7,0,0,0,.954.078c.594-.4.852-.243.866.5.029,1.539.005,3.078.012,4.618a2.163,2.163,0,0,0,.059.681.314.314,0,0,0,.619-.016,2.6,2.6,0,0,0,.046-.683c0-1.872-.014-3.744.009-5.616.009-.731.055-1.448-.608-1.946h-.012a.508.508,0,0,1-.137.4" transform="translate(-67.325 -13.272)" fill="#fefefe"/>
        <path id="Path_183039" data-name="Path 183039" d="M109.719,23.06c-.023,1.872-.007,3.744-.009,5.616a2.6,2.6,0,0,1-.046.683.314.314,0,0,1-.619.016,2.165,2.165,0,0,1-.059-.681c-.007-1.539.017-3.079-.012-4.618-.014-.74-.272-.892-.866-.5a.7.7,0,0,1-.954-.078.727.727,0,0,0-.136-.038l-.057.053c.149.379.367.653.834.577.378-.062.507-.517.911-.6,0,1.919.006,3.792,0,5.665,0,.481.132.85.673.846.5,0,.65-.36.649-.81,0-2.415,0-4.829,0-7.243,0-.7-.182-.848-.909-.832.663.5.617,1.215.608,1.946" transform="translate(-67.229 -13.27)" fill="#fefefe"/>
        <path id="Path_183040" data-name="Path 183040" d="M108.982,21.514a.508.508,0,0,0,.137-.4c-.575.557-1.148,1.117-1.727,1.67a1.153,1.153,0,0,0-.4.672l.045.007c.687-.611,1.307-1.29,1.944-1.951" transform="translate(-67.249 -13.272)" fill="#fefefe"/>
        <path id="Path_183041" data-name="Path 183041" d="M106.973,27.42c0,.02-.01.038-.012.06l.057-.053-.045-.007" transform="translate(-67.229 -17.235)" fill="#fefefe"/>
        <path id="Path_183042" data-name="Path 183042" d="M37.252,17.177c1.581,0,3.161,0,4.742,0,1.622,0,3.245.009,4.867,0a1.068,1.068,0,0,0,1.115-1.41,1.372,1.372,0,0,0-1.032-.906,14.315,14.315,0,0,0-10.113.134,1.112,1.112,0,0,0-.822,1.287,1.192,1.192,0,0,0,1.244.9" transform="translate(-22.617 -8.8)" fill="#355fa0"/>
        <path id="Path_183043" data-name="Path 183043" d="M50.821,29.5a4.167,4.167,0,0,0,1.645,2.762,2.092,2.092,0,0,0,.582.356c.264.1.576.292.777-.051.212-.362-.117-.517-.361-.665a3.531,3.531,0,0,1-1.488-1.543c-.113-.248-.267-.512-.075-.792-.195.025-.237-.187-.289-.352-.267-.844-.263-.846-.987-.313.182.149.168.385.2.6" transform="translate(-31.82 -17.937)"/>
        <path id="Path_183044" data-name="Path 183044" d="M51.475,28.659c.052.165.094.377.289.352.006-.008.009-.016.014-.024a.63.63,0,0,1-.1-.474c.031-.4-.009-.777-.494-.853-.463-.073-.659.247-.776.631a.446.446,0,0,1,.081.054c.723-.533.72-.531.987.313" transform="translate(-31.683 -17.379)"/>
        <path id="Path_183045" data-name="Path 183045" d="M51.85,30.979a3.533,3.533,0,0,0,1.488,1.543c.244.147.573.3.361.664-.2.343-.513.148-.777.052a2.107,2.107,0,0,1-.582-.357A4.166,4.166,0,0,1,50.7,30.12c-.028-.212-.013-.447-.2-.6h0a.426.426,0,0,1-.073.041,4.239,4.239,0,0,0,2.55,3.974c.43.208.834.214,1.048-.274.2-.446-.03-.753-.459-.93a2.916,2.916,0,0,1-1.769-2.15l-.02,0c-.193.279-.038.543.074.791" transform="translate(-31.694 -18.556)"/>
        <path id="Path_183046" data-name="Path 183046" d="M50.486,29.432h0a.5.5,0,0,0-.081-.054c0,.033.006.064.007.1a.428.428,0,0,0,.073-.042" transform="translate(-31.683 -18.465)"/>
        <path id="Path_183047" data-name="Path 183047" d="M54.08,31.271c0-.007,0-.014-.007-.022-.006.008-.009.016-.014.024l.021,0" transform="translate(-33.978 -19.641)"/>
        <path id="Path_183048" data-name="Path 183048" d="M49.9,66.965a3.231,3.231,0,0,1-2.878.094.613.613,0,0,0-.873.361.631.631,0,0,0,.39.86,3.844,3.844,0,0,0,1.8.407,3.96,3.96,0,0,0,2.141-.548.619.619,0,0,0,.3-.849.609.609,0,0,0-.884-.325" transform="translate(-28.972 -42.038)" fill="#312d3d"/>
        <path id="Path_183049" data-name="Path 183049" d="M40.355,45.965a.61.61,0,0,0,.662-.664.6.6,0,0,0-.631-.63q-1.026-.02-2.051,0a.585.585,0,0,0-.624.631.6.6,0,0,0,.655.663c.311.008.621,0,.932,0,.353,0,.7.006,1.057,0" transform="translate(-23.703 -28.071)"/>
        <path id="Path_183050" data-name="Path 183050" d="M59.249,45.326a.6.6,0,0,0,.626.634c.351.016.7,0,1.057,0,.331,0,.663,0,.994,0a.589.589,0,0,0,.629-.626.579.579,0,0,0-.588-.663c-.7-.019-1.409-.022-2.113,0a.589.589,0,0,0-.606.651" transform="translate(-37.24 -28.07)"/>
        <path id="Path_183051" data-name="Path 183051" d="M42.691,51.128c-.545.037-.665.41-.644.875-.029.475.114.853.652.863s.685-.37.689-.84c.005-.6-.24-.929-.7-.9" transform="translate(-26.426 -32.135)" fill="#342f3f"/>
        <path id="Path_183052" data-name="Path 183052" d="M60.372,51.141c-.552,0-.652.407-.656.863s.1.859.648.871.7-.351.678-.832c.022-.483-.081-.9-.669-.9" transform="translate(-37.534 -32.144)" fill="#312e3e"/>
      </g>
    </g>
  </g>
</svg>
