<svg xmlns="http://www.w3.org/2000/svg" xmlns:xlink="http://www.w3.org/1999/xlink" width="89" height="85" viewBox="0 0 89 85">
  <defs>
    <clipPath id="clip-path">
      <rect id="Rectangle_45274" data-name="Rectangle 45274" width="59.042" height="59.034" fill="none"/>
    </clipPath>
  </defs>
  <g id="_19" data-name="19" transform="translate(-698 -4457)">
    <g id="Group_165391" data-name="Group 165391" transform="translate(698 4457)">
      <rect id="Rectangle_40797" data-name="Rectangle 40797" width="89" height="85" rx="15" fill="#ffd947"/>
    </g>
    <g id="Group_174980" data-name="Group 174980" transform="translate(713 4470)">
      <g id="Group_174980-2" data-name="Group 174980" clip-path="url(#clip-path)">
        <path id="Path_183053" data-name="Path 183053" d="M7.914,0H8.49a8.458,8.458,0,0,1,3.216,1.71,16.7,16.7,0,0,1,3.519,3.454,1,1,0,0,0,1.22.415,20.892,20.892,0,0,1,10.578,0,1.009,1.009,0,0,0,1.219-.415,17.463,17.463,0,0,1,5.6-4.778A5.072,5.072,0,0,1,34.975,0h.576c.483.123.629.505.726.932a24.511,24.511,0,0,1,.555,4.156,18.794,18.794,0,0,1-.289,5.268.746.746,0,0,0,.353.875c1.871,1.34,3.709,2.727,5.577,4.071.171.123.343.246.5.385a1.134,1.134,0,0,1,.325,1.626,19.244,19.244,0,0,1-4.229,5.407,30.692,30.692,0,0,1-5.287,3.86c-.778.454-1.561.9-2.381,1.279-.41.188-.328.377-.1.641.519.59,1.052,1.169,1.545,1.782.316.393.6.264.932.015a14.854,14.854,0,0,1,5.634-2.658A16.012,16.012,0,0,1,58.84,39.758c.136.6.072,1.215.2,1.811v3.109A13.7,13.7,0,0,1,57.8,49.639a14.29,14.29,0,0,1-2.015,3.322c-.491.592-.861.63-1.539.2a1.111,1.111,0,0,1,.015-1.557,13.675,13.675,0,0,0,2.714-6.382A13.965,13.965,0,0,0,45.137,29.336c-.344-.052-.688-.036-1.032-.056a10.611,10.611,0,0,0-4.1.32,13.206,13.206,0,0,0-4.886,2.234c-.512.368-.514.4-.111.875,1.391,1.636,2.793,3.264,4.02,5.031a25.482,25.482,0,0,1,2.055,3.391c.2.434.446.845.62,1.29.121.308.24.353.462.091a7.113,7.113,0,0,0,1.883-3.907,9.118,9.118,0,0,0,.088-1.777c.023-.768.342-1.147.976-1.162a1.041,1.041,0,0,1,1.064,1.114,9.211,9.211,0,0,1-2.524,6.99,16.1,16.1,0,0,1-5.614,3.721,32.608,32.608,0,0,1-4.061,1.444c-.153.043-.389.029-.41.238-.015.158.186.225.3.317a3.443,3.443,0,0,1,.6.535,1.042,1.042,0,0,1,.128,1.136,13.331,13.331,0,0,1-.66,1.341.715.715,0,0,0,.245,1.079,13.643,13.643,0,0,1,1.039.908,1.07,1.07,0,0,1,.218,1.577,2.552,2.552,0,0,0-.156.241c-.106.233-.477.407-.329.669.117.208.462.085.7.085q3.968.008,7.936,0a14.04,14.04,0,0,0,7.038-2.142c.195-.121.38-.257.576-.376.741-.453,1.042-.4,1.615.279a.965.965,0,0,1-.4,1.343,12.365,12.365,0,0,1-2.778,1.614,14.687,14.687,0,0,1-5.978,1.236Q30.528,59,17.38,59.034a1.991,1.991,0,0,1-2.008-1.147,39.513,39.513,0,0,1-4.921-13.97A28.879,28.879,0,0,1,12.2,28.9c.3-.733.3-.743-.411-1.089a28.121,28.121,0,0,1-4.492-2.673c-.566-.422-.625-.656-.434-1.337.524-.676,1.033-.738,1.775-.218a36.851,36.851,0,0,0,10.073,4.744,2.886,2.886,0,0,1-.04-2.169c.1-.255-.063-.434-.211-.616a20.647,20.647,0,0,0-4.17-3.677,23.271,23.271,0,0,0-10.4-4.05,2.668,2.668,0,0,0-.4-.038,1.344,1.344,0,0,0-.488.027,1.4,1.4,0,0,0,.363.617c.531.7,1.089,1.387,1.683,2.04a1.064,1.064,0,0,1,.009,1.624,1.1,1.1,0,0,1-1.458-.218A23.792,23.792,0,0,1,.212,17.374a1.273,1.273,0,0,1,.435-1.808C2.5,14.212,4.336,12.819,6.22,11.5a1.307,1.307,0,0,0,.647-1.512A24.642,24.642,0,0,1,7.209.8a.912.912,0,0,1,.7-.8" transform="translate(0)" fill="#060606"/>
        <path id="Path_183054" data-name="Path 183054" d="M87.259,95.524H78.092c.315-.444.592-.823.856-1.209a.887.887,0,0,0-.161-1.361c-.457-.408-.913-.821-1.4-1.2a.438.438,0,0,1-.12-.671c.288-.518.545-1.054.8-1.591a.877.877,0,0,0-.32-1.295c-.332-.256-.671-.5-1.043-.776a3.063,3.063,0,0,1,1.053-.373,23.3,23.3,0,0,0,8.274-3.98,9.276,9.276,0,0,0,3.634-7.937c-.029-.663-.3-.992-.851-1a.779.779,0,0,0-.876.834,7.844,7.844,0,0,1-.125,2.058,6.162,6.162,0,0,1-2.91,2.571.234.234,0,0,1-.268-.038A43.947,43.947,0,0,0,78.378,71c-.366-.412-.275-.566.111-.844A14.242,14.242,0,0,1,86.5,67.383a4.2,4.2,0,0,1,1.2.065,13.788,13.788,0,0,1,8.407,8.071,14.658,14.658,0,0,1-2.4,15.748,13.13,13.13,0,0,1-5.725,4.123,3.857,3.857,0,0,1-.731.133" transform="translate(-43.638 -38.328)" fill="#fc9d35"/>
        <path id="Path_183055" data-name="Path 183055" d="M42.245,19.138c-1.111.348-2.247.606-3.342,1.014a27.455,27.455,0,0,0-10.754,7.277,1.555,1.555,0,0,1-1.073.475,3.356,3.356,0,0,1-3.111-1.363A25.158,25.158,0,0,0,8.319,18.777c0-.245.224-.286.359-.386,2.7-1.993,5.372-4.023,8.246-5.766.593-.36.681-.7.383-1.362a19.362,19.362,0,0,0-3.473-5.184c-.126-.136-.32-.241-.3-.466.017-.166.01-.383.109-.479.117-.113.275.065.4.139a17.394,17.394,0,0,1,5.074,4.782c.564.77.754.827,1.639.518a17.817,17.817,0,0,1,7.092-.82,11.972,11.972,0,0,1,3.11.489,37.021,37.021,0,0,1,7.94,5.4c1.014.874,2.018,1.761,2.948,2.727.2.211.49.4.4.767" transform="translate(-4.733 -2.9)" fill="#fc9d35"/>
        <path id="Path_183056" data-name="Path 183056" d="M62.772,86.034a32.243,32.243,0,0,1-4.96,1.588A17.58,17.58,0,0,0,50.4,91.37a9.9,9.9,0,0,0-3.279,5.595c-.091.471-.385.314-.638.34s-.4.011-.445-.333a40.388,40.388,0,0,1,.938-16.577,21.624,21.624,0,0,1,5.334-9.388c.2-.2.432-.374.65-.56.616.266.914.863,1.329,1.326a77.993,77.993,0,0,1,5,6.018,23.123,23.123,0,0,1,3.482,6.455,2.39,2.39,0,0,1,0,1.789" transform="translate(-25.95 -40.077)" fill="#fc9d35"/>
        <path id="Path_183057" data-name="Path 183057" d="M40.491,68.4c-3.962,4.485-5.705,9.716-6.372,15.385-.091.78-.134,1.567-.163,2.352-.016.4-.13.447-.466.26a9.883,9.883,0,0,1-5.368-7.7A22.2,22.2,0,0,1,29.3,69.418c.228-.748.555-1.467.8-2.209.116-.348.275-.367.585-.243,1.99.8,4.045,1.4,6.1,2a3.5,3.5,0,0,0,2.013-.11c.513-.141,1.028-.276,1.683-.451" transform="translate(-15.931 -38.057)" fill="#f1eaea"/>
        <path id="Path_183058" data-name="Path 183058" d="M101.186,95.626a14.656,14.656,0,0,0,7.73-6.246,13.836,13.836,0,0,0,2.133-6.235,15.01,15.01,0,0,0-9.2-15.424,1.06,1.06,0,0,1-.223-.171,13.177,13.177,0,0,1,8.23,3.249,14.008,14.008,0,0,1,2.12,19.293c-.374.5-.5.934-.066,1.433a15.1,15.1,0,0,1-1.7,1.68c-.552-.5-.76-.511-1.4-.069a13.651,13.651,0,0,1-7.626,2.489" transform="translate(-57.565 -38.429)" fill="#f6880f"/>
        <path id="Path_183059" data-name="Path 183059" d="M10.416,46.955l-2.023-1.8c.444-.639.432-.873-.1-1.452a23.157,23.157,0,0,1-2.318-2.95,15.951,15.951,0,0,1,3.2.416,23.924,23.924,0,0,1,12.913,7.57c.138.153.335.257.188.575a2.188,2.188,0,0,0,.178,2.436,38.64,38.64,0,0,1-4.353-1.527A31.111,31.111,0,0,1,11.818,46.8c-.575-.413-.845-.371-1.4.152" transform="translate(-3.401 -23.186)" fill="#f1eaea"/>
        <path id="Path_183060" data-name="Path 183060" d="M56.658,51.664a2.165,2.165,0,0,0,.163-2.375c-.136-.25.006-.345.133-.481a25.241,25.241,0,0,1,13.185-7.683,19.229,19.229,0,0,1,3.014-.419c-1.326,3.607-10.864,9.943-16.494,10.958" transform="translate(-32.233 -23.158)" fill="#f1eaea"/>
        <path id="Path_183061" data-name="Path 183061" d="M72.471,84.067c.156-2.074-.89-3.758-1.838-5.445a42.156,42.156,0,0,0-5.355-7.115c-.883-1-1.743-2.018-2.614-3.028a10.466,10.466,0,0,1,1.809-1.4.3.3,0,0,1,.476.063c2.95,3.544,6.332,6.729,8.842,10.639A22.11,22.11,0,0,1,75.9,81.915c.081.213.167.4-.125.57a16.7,16.7,0,0,1-3.3,1.582" transform="translate(-35.65 -38.11)" fill="#f6880f"/>
        <path id="Path_183062" data-name="Path 183062" d="M53.05,122.776a8.769,8.769,0,0,1,2.709-4.671,13.4,13.4,0,0,1,5.008-2.836.49.49,0,0,1,.519.084c.41.315.823.629,1.251.918.223.15.247.279.119.515-.292.537-.548,1.093-.825,1.639a.917.917,0,0,0,.25,1.23c.453.385.89.789,1.355,1.159.235.188.272.343.055.551a.325.325,0,0,0-.068.093,2.321,2.321,0,0,1-2.564,1.351c-2.583-.111-5.174-.034-7.808-.034" transform="translate(-30.18 -65.555)" fill="#f1eaea"/>
        <path id="Path_183063" data-name="Path 183063" d="M72.125,19.138a6.99,6.99,0,0,0-1.619-1.765,48.006,48.006,0,0,0-4.69-3.909,38.057,38.057,0,0,0-4.287-2.733,1.726,1.726,0,0,1-.689-.489,4.4,4.4,0,0,1,1.213.333c.866.311,1.064.249,1.6-.483a17.523,17.523,0,0,1,4.967-4.731c.169-.1.4-.41.569-.179a.633.633,0,0,1-.12.832,12.952,12.952,0,0,0-.989,1.121A19,19,0,0,0,65.6,11.064c-.429.912-.348,1.177.5,1.691,2.909,1.761,5.59,3.844,8.327,5.849a1.478,1.478,0,0,1,.153.169l-2.457.364" transform="translate(-34.612 -2.9)" fill="#f6880f"/>
        <path id="Path_183064" data-name="Path 183064" d="M30.18,108.739a11.4,11.4,0,0,0,3.968,3.084,1.454,1.454,0,0,1,.97,1.595,36.737,36.737,0,0,0,.378,5.214c.059.417-.08.449-.434.475A.989.989,0,0,1,34,118.492a40.336,40.336,0,0,1-3.805-9.332.5.5,0,0,1-.012-.421" transform="translate(-17.145 -61.862)" fill="#f6880f"/>
        <path id="Path_183065" data-name="Path 183065" d="M19.939,16.669a18.262,18.262,0,0,1-.247-4.714,17.414,17.414,0,0,1,2.157,3.217.216.216,0,0,1-.095.329c-.594.377-1.185.76-1.816,1.167" transform="translate(-11.183 -6.801)" fill="#f0e9e9"/>
        <path id="Path_183066" data-name="Path 183066" d="M78.187,11.978a18.233,18.233,0,0,1-.234,4.689c-.63-.4-1.229-.793-1.833-1.176a.194.194,0,0,1-.077-.289,17.991,17.991,0,0,1,2.144-3.225" transform="translate(-43.241 -6.814)" fill="#f0e9e9"/>
        <path id="Path_183067" data-name="Path 183067" d="M95.1,92.287A7.492,7.492,0,0,0,98.051,90c.073-.085.152-.165.228-.247a7.217,7.217,0,0,1-2.34,4.363L95.1,92.287" transform="translate(-54.104 -51.062)" fill="#f5880f"/>
        <path id="Path_183068" data-name="Path 183068" d="M48.606,61.985c.288,0,.576,0,.863,0a.456.456,0,0,1,.324.808c-1.2,1.447-1.193,1.447-2.421.028-.15-.172-.263-.339-.156-.563a.516.516,0,0,1,.527-.276c.288,0,.576,0,.863,0" transform="translate(-26.838 -35.262)" fill="#99582d"/>
        <path id="Path_183069" data-name="Path 183069" d="M39.746,38.467a.822.822,0,1,1-1.64-.029.82.82,0,1,1,1.64.029" transform="translate(-21.678 -21.402)" fill="#080706"/>
        <path id="Path_183070" data-name="Path 183070" d="M59.722,37.62a.784.784,0,0,1,.822.832.822.822,0,1,1-1.641,0,.777.777,0,0,1,.819-.833" transform="translate(-33.51 -21.402)" fill="#080706"/>
      </g>
    </g>
  </g>
</svg>
