<svg xmlns="http://www.w3.org/2000/svg" xmlns:xlink="http://www.w3.org/1999/xlink" width="390" height="361.411" viewBox="0 0 390 361.411">
  <defs>
    <clipPath id="clip-path">
      <path id="Path_184392" data-name="Path 184392" d="M0,0H390V340H0Z" transform="translate(327 5833)" fill="#e1e8ff"/>
    </clipPath>
    <clipPath id="clip-path-2">
      <rect id="Rectangle_45339" data-name="Rectangle 45339" width="377.304" height="326.296" fill="none"/>
    </clipPath>
    <clipPath id="clip-path-3">
      <path id="Path_184324" data-name="Path 184324" d="M99.993,34.571c-5.151.552,4.028,10.468,11.378,9.678,6.235-.668,5.54-4,4.285-5.123a18.45,18.45,0,0,0-12.823-4.712,26.848,26.848,0,0,0-2.84.157" transform="translate(-98.493 -34.414)" fill="none"/>
    </clipPath>
    <clipPath id="clip-path-4">
      <path id="Path_184326" data-name="Path 184326" d="M92.4,27.664s13.532,16.053,28.532,1.61c0,0-6.76-6.964-15.706-6.964-3.977,0-8.386,1.377-12.825,5.354" transform="translate(-92.4 -22.31)" fill="none"/>
    </clipPath>
  </defs>
  <g id="_19" data-name="19" transform="translate(4.674 5.884)">
    <path id="Path_184344" data-name="Path 184344" d="M0,0H390V340H0Z" transform="translate(-4.674 -5.884)" fill="#e1e8ff"/>
    <g id="Mask_Group_305" data-name="Mask Group 305" transform="translate(-331.674 -5838.884)" clip-path="url(#clip-path)">
      <path id="Path_184391" data-name="Path 184391" d="M466.971-31.551s94.387,45.8-11.57,104.914-144.378-31.23-232.24,77.773S124.433,306.674,68.248,275.58-49.6,163.538-5.975,73.362,2.515-89.907,183.758-73.762,436.01-37.737,447.819-45.507,466.971-31.551,466.971-31.551Z" transform="translate(365.054 5813.597)" fill="#c4d1ff"/>
    </g>
    <g id="Group_175158" data-name="Group 175158" transform="translate(0.326)">
      <g id="Group_175151" data-name="Group 175151">
        <g id="Group_175150" data-name="Group 175150" clip-path="url(#clip-path-2)">
          <path id="Path_184291" data-name="Path 184291" d="M174.652,256.617l-.135-132.193A52.878,52.878,0,0,0,121.638,71.6H53.876A52.876,52.876,0,0,0,1,124.479V256.617Z" transform="translate(0.958 68.621)" fill="#ff9fa3"/>
          <path id="Path_184292" data-name="Path 184292" d="M3.917,257.576V125.437a50.978,50.978,0,0,1,50.92-50.92H122.6a50.991,50.991,0,0,1,50.92,50.869l.135,132.191h3.917l-.135-132.195A54.912,54.912,0,0,0,122.6,70.6H54.837A54.9,54.9,0,0,0,0,125.437v132.14Z" transform="translate(0 67.662)" fill="#ffb6c8"/>
          <path id="Path_184293" data-name="Path 184293" d="M255.54,51.645C221.623,31.1,167,74.494,167,74.494s-48.924.292-69.617,4.641S40.158,126.14,16.34,195.878C1.485,239.374,5.582,280.134,49.9,280.134c23.146,0,191.359-16.423,191.359-16.423s127.812,19.124,127.812-42.842c0-55.9-66.934-141-113.531-169.224m-2.4,139.958,2.752-37.139,26.317,35.088Z" transform="translate(8.232 44.204)" fill="#fff0f1"/>
          <path id="Path_184294" data-name="Path 184294" d="M150.913,48.708c-22.61,8.157-41.692,23.309-41.692,23.309s-20.232.123-40.178,1.367l-.164.419,62.478,34.274Z" transform="translate(66.011 46.681)" fill="#5774cd"/>
          <path id="Path_184295" data-name="Path 184295" d="M106.979,237.37a.979.979,0,0,1-.977-.946l-5.354-157.8a.979.979,0,1,1,1.956-.065l5.354,157.8a.98.98,0,0,1-.944,1.012Z" transform="translate(96.458 74.381)"/>
          <path id="Path_184296" data-name="Path 184296" d="M146.228,134.749s9.555,3.527-36.257,9.573c-21.9,2.891-26.285,17.422-27.478,22.568a3.136,3.136,0,0,0,2.244,3.584,6.427,6.427,0,0,0,6.692-1.537,45.682,45.682,0,0,1,10.005-7.792c9.379-5.587,29.045,6.357,45.675,7.5,5.082.351,30.651-8.668,37.076-13.589,13.172-10.09,7.009-20.494,7.009-20.494Z" transform="translate(78.991 128.963)" fill="#ed8974"/>
          <path id="Path_184297" data-name="Path 184297" d="M165.112,138.841s-31.416-5.859-59.572,2.334c-19.813,5.766-25.531,15.931-27.18,21.448a4.206,4.206,0,0,0,2.977,5.051,4.759,4.759,0,0,0,5.06-1.222A44.19,44.19,0,0,1,97,158c9.379-5.587,29.331-6.557,29.331-6.557l33.457.785Z" transform="translate(74.951 131.118)" fill="#ed8974"/>
          <path id="Path_184298" data-name="Path 184298" d="M174.26,146.067s-32.644-13.987-65.453-9.371c-25.651,3.607-33.8,17.747-36.138,23.745a3.536,3.536,0,0,0,1.565,4.254,6.747,6.747,0,0,0,7.849-.415,54.08,54.08,0,0,1,12.986-7.9c11.686-5.182,33.657-2.281,33.657-2.281l36.2,7.935Z" transform="translate(69.431 130.112)" fill="#ed8974"/>
          <path id="Path_184299" data-name="Path 184299" d="M175.451,143.02S142.807,129.035,110,133.649c-25.735,3.619-33.855,17.841-36.16,23.8a3.459,3.459,0,0,0,1.529,4.158,6.847,6.847,0,0,0,7.957-.419,54.174,54.174,0,0,1,12.935-7.857c11.686-5.182,33.657-2.282,33.657-2.282l36.2,7.935Z" transform="translate(70.558 127.192)" fill="#ed8974"/>
          <path id="Path_184300" data-name="Path 184300" d="M82.839,163.337a.532.532,0,0,1-.235-.012.653.653,0,0,1-.431-.785c.95-4.093,3.835-16.542,26.548-22.3,6.241-1.588,15.7-1.281,16.1-1.267a.649.649,0,0,1-.035,1.293c-.1,0-9.706-.306-15.794,1.234-22.008,5.583-24.762,17.459-25.667,21.36a.614.614,0,0,1-.486.482" transform="translate(78.735 133.154)"/>
          <path id="Path_184301" data-name="Path 184301" d="M78.714,162.211a.532.532,0,0,1-.235-.012.653.653,0,0,1-.431-.785c1.148-4.949,3.286-14.159,24.11-22.373,7.318-2.891,20.88-2.133,21.456-2.1a.629.629,0,0,1,.56.682.606.606,0,0,1-.627.611c-.137-.008-13.889-.779-20.986,2.021-20.23,7.98-22.19,16.425-23.362,21.472a.614.614,0,0,1-.486.482" transform="translate(74.782 131.134)"/>
          <path id="Path_184302" data-name="Path 184302" d="M74.04,159a.532.532,0,0,1-.235-.012.653.653,0,0,1-.431-.785c1.042-4.487,6.038-15.706,29.885-22.95,7.571-2.305,20.778-1.257,21.335-1.212a.629.629,0,0,1,.548.693.606.606,0,0,1-.636.6c-.133-.012-13.552-1.063-20.927,1.169-23.9,7.262-28.279,18.691-29.053,22.02a.614.614,0,0,1-.486.482" transform="translate(70.303 128.195)"/>
          <path id="Path_184303" data-name="Path 184303" d="M174.847,120.615l-64.585,2.8,5.305,62.239,92.894-1.463Z" transform="translate(105.672 115.595)" fill="#fff0f1"/>
          <path id="Path_184304" data-name="Path 184304" d="M135.352,123.521l-.051,0a.979.979,0,0,1-.928-1.026l2.142-42.129a.979.979,0,1,1,1.956.1l-2.142,42.127a.979.979,0,0,1-.977.93" transform="translate(128.779 76.127)"/>
          <path id="Path_184305" data-name="Path 184305" d="M117.879,198.037a.98.98,0,0,1-.973-.881l-7.14-70.69a.98.98,0,0,1,.9-1.075l111.389-7.853a.98.98,0,0,1,.139,1.954l-110.382,7.783,7.038,69.685a.976.976,0,0,1-.875,1.071.85.85,0,0,1-.1.006" transform="translate(105.192 112.643)"/>
          <path id="Path_184306" data-name="Path 184306" d="M152.67,125.721a.979.979,0,0,1-.593-1.759l20.708-15.708a.979.979,0,1,1,1.183,1.561l-20.706,15.706a.975.975,0,0,1-.591.2" transform="translate(145.376 103.558)"/>
          <path id="Path_184307" data-name="Path 184307" d="M58.656,225.929A.978.978,0,0,1,58.409,224c10.45-2.736,71.4-58.593,77.924-64.591l-29.478-54.449L18.847,162.223a.979.979,0,1,1-1.067-1.641l88.9-57.837a.978.978,0,0,1,1.394.353l30.347,56.053a.983.983,0,0,1-.2,1.187C135.455,162.891,70.361,222.9,58.9,225.9a.915.915,0,0,1-.249.033" transform="translate(16.613 98.316)"/>
          <path id="Path_184308" data-name="Path 184308" d="M38.352,127.659a.82.82,0,0,1-.1-.006L20.4,125.867a.978.978,0,1,1,.2-1.947l17.849,1.786a.979.979,0,0,1-.1,1.953" transform="translate(18.709 118.758)"/>
          <path id="Path_184309" data-name="Path 184309" d="M64.009,115.81a.979.979,0,0,1-.948-.736L51.638,70.448a.978.978,0,1,1,1.9-.486l11.425,44.626a.978.978,0,0,1-.707,1.191.939.939,0,0,1-.243.031" transform="translate(49.459 66.343)"/>
          <path id="Path_184310" data-name="Path 184310" d="M80.808,160.465a.974.974,0,0,1-.823-.448l-29.6-45.673a.979.979,0,1,1,1.643-1.063l29.6,45.675a.979.979,0,0,1-.288,1.353.99.99,0,0,1-.533.157" transform="translate(48.134 108.137)"/>
          <path id="Path_184311" data-name="Path 184311" d="M129.691,179.7a.979.979,0,0,1-.975-.881l-5.5-54.978a.977.977,0,0,1,.877-1.071.967.967,0,0,1,1.071.875l5.5,54.978a.979.979,0,0,1-.877,1.071.809.809,0,0,1-.1.006" transform="translate(118.085 117.657)"/>
          <path id="Path_184312" data-name="Path 184312" d="M107.958,22.029c2.011,3.032,6.645,3.692,9.684,1.69a9.057,9.057,0,0,0,3.427-9.639,12.22,12.22,0,0,0-7.036-7.851,19.01,19.01,0,0,0-10.712-1.044A9.037,9.037,0,0,0,96.541,16.5c1.6,4.733,7.849,7.209,11.417,5.53" transform="translate(92.141 4.663)" fill="#ffb6c8"/>
          <path id="Path_184313" data-name="Path 184313" d="M79.8,48.57l-2.28,27.977,40.922,3.18,3.568-36.5Z" transform="translate(74.294 41.43)" fill="#e5826e"/>
          <path id="Path_184314" data-name="Path 184314" d="M75.617,73.191l49.958,28.375-.764-54.312a220.7,220.7,0,0,0-29.384,23.43s-8.19.93-19.811,2.507" transform="translate(72.47 45.287)" fill="#e5826e"/>
          <path id="Path_184315" data-name="Path 184315" d="M112.348,67.629l2.372-24.249-32.452,4.1c6.337,6.284,17.285,15.624,30.081,20.144" transform="translate(78.843 41.575)"/>
          <path id="Path_184316" data-name="Path 184316" d="M104.66,7.583C128.519,5.024,149,20.011,151.7,45.2s.621,43.979-23.238,46.537c-29.008,3.112-57.2-11.049-59.9-36.234S80.8,10.143,104.66,7.583" transform="translate(65.403 6.997)" fill="#e5826e"/>
          <path id="Path_184317" data-name="Path 184317" d="M122.64,26.488l-13.946,3.774L111,45.388Z" transform="translate(104.171 25.385)" fill="#e5826e"/>
          <path id="Path_184318" data-name="Path 184318" d="M120.93,29.274s-14.106-14.535-28.53-1.61c0,0,13.53,16.053,28.53,1.61" transform="translate(88.554 21.381)" fill="#fff"/>
          <path id="Path_184319" data-name="Path 184319" d="M95.459,22.408a1.241,1.241,0,0,1-.926-2.189c9.813-8.127,18.121-3.049,18.473-2.828a1.24,1.24,0,0,1-1.32,2.1c-.292-.178-7.189-4.3-15.569,2.64a1.243,1.243,0,0,1-.658.278" transform="translate(90.169 14.972)"/>
          <path id="Path_184320" data-name="Path 184320" d="M74.492,63.755c4.908-2.323,9.876-4.686,14.016-8.2s7.426-8.366,7.881-13.775-2.481-11.261-7.583-13.117c7.475,7.364,21.523,6.1,27.56-2.481A3.8,3.8,0,0,0,111,20.933a34.506,34.506,0,0,0,26.072-10.587c2.487-2.622,1.157-7.4-1.958-9.228s-7.172-1.23-10.36.47-5.742,4.35-8.427,6.768-5.687,4.712-9.228,5.429A42.082,42.082,0,0,0,80.118,32.462a43.2,43.2,0,0,0-5.626,31.293" transform="translate(70.536 0)" fill="#ffb6c8"/>
          <path id="Path_184321" data-name="Path 184321" d="M93.94,42.8c-6.055,14.429-4.536,30.1.2,45.019C80.472,86.062,66.2,73.85,63.808,62.6c-2.293-10.814.186-25.545,7.773-36.857C90.239-2.073,122.487,6.493,122.487,6.493S100,28.366,93.94,42.8" transform="translate(60.365 5.03)" fill="#fd521b"/>
          <path id="Path_184322" data-name="Path 184322" d="M115.654,39.126c-2.992-2.667-7.788-5.4-15.661-4.555-5.151.552,4.026,10.468,11.378,9.678,6.235-.668,5.54-4,4.283-5.123" transform="translate(94.394 32.982)"/>
        </g>
      </g>
      <g id="Group_175153" data-name="Group 175153" transform="translate(192.887 67.396)">
        <g id="Group_175152" data-name="Group 175152" clip-path="url(#clip-path-3)">
          <path id="Path_184323" data-name="Path 184323" d="M96.573,38.533s12.661-6.057,30.825.219-20.79,13.785-20.79,13.785Z" transform="translate(-100.333 -32.985)" fill="#fd521b"/>
        </g>
      </g>
      <g id="Group_175155" data-name="Group 175155" transform="translate(180.954 43.691)">
        <g id="Group_175154" data-name="Group 175154" clip-path="url(#clip-path-4)">
          <path id="Path_184325" data-name="Path 184325" d="M117.654,29.176A10.126,10.126,0,1,1,106.5,20.187a10.125,10.125,0,0,1,11.149,8.989" transform="translate(-87.552 -24.401)"/>
        </g>
      </g>
      <g id="Group_175157" data-name="Group 175157">
        <g id="Group_175156" data-name="Group 175156" clip-path="url(#clip-path-2)">
          <path id="Path_184327" data-name="Path 184327" d="M88.269,35.108c-5.08-4.7-12.365-4.714-16.27-.037S69.043,47.344,74.123,52.04s12.365,4.716,16.27.039S93.349,39.8,88.269,35.108" transform="translate(66.696 30.261)" fill="#e5826e"/>
          <path id="Path_184328" data-name="Path 184328" d="M83.994,41.629a1.245,1.245,0,0,1-.505-.051L72.528,38.1a1.242,1.242,0,0,1,.75-2.368l10.961,3.484a1.241,1.241,0,0,1-.245,2.417" transform="translate(68.68 34.188)"/>
          <path id="Path_184329" data-name="Path 184329" d="M75.835,45.031a1.239,1.239,0,0,1-1.3-1.651l1.894-5.29a1.241,1.241,0,1,1,2.336.836l-1.9,5.29a1.238,1.238,0,0,1-1.036.815" transform="translate(71.365 35.717)"/>
          <path id="Path_184330" data-name="Path 184330" d="M97.382,79.347a1.2,1.2,0,0,1-.278,0,1.238,1.238,0,0,1-1.087-1.375L99.11,51.591a1.24,1.24,0,0,1,2.464.288L98.481,78.257a1.243,1.243,0,0,1-1.1,1.091" transform="translate(92.013 48.392)"/>
          <path id="Path_184331" data-name="Path 184331" d="M344.726,177.693H32.879a4.988,4.988,0,0,1-4.988-4.988V158a4.987,4.987,0,0,1,4.988-4.988H344.726A4.987,4.987,0,0,1,349.714,158v14.7a4.987,4.987,0,0,1-4.988,4.988" transform="translate(26.73 146.645)" fill="#8284d2"/>
          <path id="Path_184332" data-name="Path 184332" d="M347.945,180.609H30.5c-1.682,0-3.049-3.116-3.049-6.946v-14.7c0-3.831,1.367-6.946,3.049-6.946H347.945c1.68,0,3.049,3.116,3.049,6.946v14.7c0,3.831-1.369,6.946-3.049,6.946M30.5,155.93c-.732,0-1.33,1.359-1.33,3.03v14.7c0,1.669.6,3.03,1.33,3.03H347.945c.732,0,1.33-1.361,1.33-3.03v-14.7c0-1.671-.6-3.03-1.33-3.03Z" transform="translate(26.309 145.686)" fill="#5774cd"/>
          <path id="Path_184333" data-name="Path 184333" d="M124.751,164.2l-40.625,4.929-11.09-67.3,46.388-5.63Z" transform="translate(69.997 92.2)" fill="#fd521b"/>
          <rect id="Rectangle_45340" data-name="Rectangle 45340" width="54.107" height="6.557" transform="translate(138.58 187.968) rotate(-6.918)"/>
          <path id="Path_184334" data-name="Path 184334" d="M72.032,107.141a.974.974,0,0,1-.605-.21.985.985,0,0,1-.368-.652l-.789-6.51a.981.981,0,0,1,.854-1.091l53.714-6.518a.961.961,0,0,1,.721.2.985.985,0,0,1,.368.652l.791,6.51a.982.982,0,0,1-.856,1.091L72.15,107.133a.79.79,0,0,1-.117.008m.3-6.635.554,4.565,51.768-6.282-.552-4.565Z" transform="translate(67.338 88.317)"/>
          <rect id="Rectangle_45341" data-name="Rectangle 45341" width="40.621" height="6.558" transform="translate(144.484 180.645) rotate(-6.92)"/>
          <path id="Path_184335" data-name="Path 184335" d="M75.047,102.607a.975.975,0,0,1-.605-.21.985.985,0,0,1-.368-.652l-.789-6.51a.98.98,0,0,1,.854-1.091l40.325-4.894a.949.949,0,0,1,.723.2.985.985,0,0,1,.368.652l.789,6.51a.979.979,0,0,1-.856,1.091L75.165,102.6a.788.788,0,0,1-.118.008m.3-6.635.554,4.565,38.38-4.659-.554-4.565Z" transform="translate(70.227 85.527)"/>
          <path id="Path_184336" data-name="Path 184336" d="M121.613,132.258,119.4,104.036l-45.088,5.472,4.6,27.932Z" transform="translate(71.221 99.706)" fill="#fff"/>
          <path id="Path_184337" data-name="Path 184337" d="M94.234,100.856l-25.575,5.333a7.639,7.639,0,0,0-5.7,9.541,8.2,8.2,0,0,0,10.017,5.995l25.061-7.176a6.774,6.774,0,0,0,4.408-8.791,7.233,7.233,0,0,0-8.211-4.9" transform="translate(60.087 96.523)" fill="#e5826e"/>
          <path id="Path_184338" data-name="Path 184338" d="M103.259,122.08l-30.1,8.159a7.552,7.552,0,0,1-8.509-3.885l-.347-.646c-2.311-4.3-.223-9.475,4.263-10.581l30.453-7.512a7.635,7.635,0,0,1,8.85,5.033,7.117,7.117,0,0,1-4.606,9.434" transform="translate(60.712 102.941)" fill="#e5826e"/>
          <path id="Path_184339" data-name="Path 184339" d="M100.508,119.821h0A6.585,6.585,0,0,0,92.9,115.8l-20.244,4.673a6.581,6.581,0,0,0-5.055,7.2l.2,1.669a6.583,6.583,0,0,0,8.521,5.485L96.362,128.5a6.584,6.584,0,0,0,4.146-8.674" transform="translate(64.738 110.821)" fill="#e5826e"/>
          <path id="Path_184340" data-name="Path 184340" d="M96.647,125.62h0A5.7,5.7,0,0,0,90.5,122.8l-16.625,4.185a4.915,4.915,0,0,0-3.269,6.451l.568,1.823c.987,3.177,4.367,5.027,7.221,3.958l16.059-6.01c2.891-1.081,3.925-4.659,2.193-7.591" transform="translate(67.412 117.552)" fill="#e5826e"/>
          <path id="Path_184341" data-name="Path 184341" d="M65.175,115.578l.006-.035a.636.636,0,0,1,.76-.472,11.368,11.368,0,0,0,4.493-.257l26.62-7.293c.213-.047,4.489-.948,7.6,1.181a7.111,7.111,0,0,1,2.941,5c1.3,8.247-10.227,10.712-10.947,10.859l-15.8,4.594c-1.189.345-7.736,1.917-9.443,2.2a.632.632,0,0,1-.21-1.247c1.678-.282,8.129-1.831,9.3-2.17l15.824-4.6a.549.549,0,0,1,.061-.014c.112-.022,11.112-2.166,9.964-9.424a5.886,5.886,0,0,0-2.407-4.156c-2.667-1.825-6.547-1.007-6.586-1l-26.579,7.283a12.462,12.462,0,0,1-5.121.27.632.632,0,0,1-.48-.725" transform="translate(62.453 102.827)"/>
          <path id="Path_184342" data-name="Path 184342" d="M70.474,135.51a.633.633,0,0,1,.519-.515c1.657-.278,11.333-3.167,12.929-3.715,1.492-.515,6.435-2.005,6.645-2.068.09-.027,9.251-2.91,7.467-8.864-.629-2.092-2.227-3.257-4.751-3.46a12.261,12.261,0,0,0-3.854.36.633.633,0,0,1-.349-1.216c2.859-.823,8.664-1.054,10.166,3.954,1.716,5.728-4.686,9.332-8.313,10.436-.053.016-5.129,1.547-6.6,2.054-1.5.517-11.325,3.464-13.131,3.766a.63.63,0,0,1-.729-.519.6.6,0,0,1,0-.213" transform="translate(67.531 110.766)"/>
          <path id="Path_184343" data-name="Path 184343" d="M64.983,106.458a.632.632,0,0,1,.48-.507c.163-.037,16.345-3.809,22.944-5.282,6.954-1.551,11.823.492,13.354,5.6,1.835,6.116-4,9.224-4.066,9.255a.633.633,0,0,1-.582-1.124c.2-.108,4.964-2.663,3.435-7.767-1.336-4.461-5.55-6.14-11.868-4.731-6.594,1.471-22.768,5.241-22.931,5.278a.631.631,0,0,1-.76-.472.613.613,0,0,1-.008-.253" transform="translate(62.269 95.993)"/>
        </g>
      </g>
    </g>
    <g id="Group_174316" data-name="Group 174316" transform="translate(109.326 313.069)">
      <g id="Group_173798" data-name="Group 173798" transform="translate(0 0)">
        <rect id="Rectangle_44603" data-name="Rectangle 44603" width="158.826" height="42.458" rx="21.229" fill="#3c3fa7"/>
      </g>
      <path id="Path_184393" data-name="Path 184393" d="M-31.464-1.671a1.61,1.61,0,0,1,.078-.467,1.769,1.769,0,0,1,.219-.467,1.4,1.4,0,0,1,.347-.361.766.766,0,0,1,.46-.149.943.943,0,0,1,.517.149,2.625,2.625,0,0,1,.446.361,5.249,5.249,0,0,1,.418.474,3.556,3.556,0,0,0,.446.474,2.5,2.5,0,0,0,.538.361,1.467,1.467,0,0,0,.666.149,1.4,1.4,0,0,0,1.112-.524A4,4,0,0,0-25.5-3.059a10.758,10.758,0,0,0,.411-1.982q.135-1.119.191-2.308t.057-2.358V-12.7q0-.581-.007-1.345t-.042-1.635q-.035-.871-.106-1.72a5.763,5.763,0,0,0-.106-.729,1.051,1.051,0,0,0-.2-.439.664.664,0,0,0-.368-.219,2.627,2.627,0,0,0-.6-.057h-.283q-.156,0-.326.014-.595.028-1.1.05t-.878.021a.923.923,0,0,1-.545-.219,2.583,2.583,0,0,1-.524-.538,3.558,3.558,0,0,1-.389-.673,1.606,1.606,0,0,1-.156-.637.509.509,0,0,1,.085-.312.628.628,0,0,1,.227-.184.95.95,0,0,1,.3-.092,2.462,2.462,0,0,1,.319-.021q1.005,0,2.124-.078t2.273-.17q1.154-.092,2.308-.17t2.23-.078a2.751,2.751,0,0,1,.694.092,2.409,2.409,0,0,1,.637.262,1.6,1.6,0,0,1,.467.418.914.914,0,0,1,.184.559q0,.212-.014.481a1.989,1.989,0,0,1-.092.51,1.154,1.154,0,0,1-.227.411.509.509,0,0,1-.4.17,4.119,4.119,0,0,1-.765-.078,4.119,4.119,0,0,0-.765-.078,2.364,2.364,0,0,0-.779.106.929.929,0,0,0-.446.3.976.976,0,0,0-.184.467,2.3,2.3,0,0,0,.007.595q.113,1.034.212,2.159t.17,2.181q.071,1.055.106,1.982t.035,1.593A40.615,40.615,0,0,1-22-5.246a12.712,12.712,0,0,1-.864,3.54A5.442,5.442,0,0,1-24.582.588a4.562,4.562,0,0,1-2.8.814,4.135,4.135,0,0,1-1.352-.248A5.394,5.394,0,0,1-30.055.489,4.129,4.129,0,0,1-31.06-.489,1.988,1.988,0,0,1-31.464-1.671ZM-16.043-12.6a3.482,3.482,0,0,1,1.947.559,5.045,5.045,0,0,1,1.458,1.473,7.236,7.236,0,0,1,.92,2.06A8.69,8.69,0,0,1-11.4-6.174a7.189,7.189,0,0,1-.453,2.605,6.515,6.515,0,0,1-1.2,2.011,5.346,5.346,0,0,1-1.713,1.3,4.594,4.594,0,0,1-1.99.46A3.277,3.277,0,0,1-18.578-.29a3.839,3.839,0,0,1-1.211-1.253,5.593,5.593,0,0,1-.666-1.706A8.658,8.658,0,0,1-20.66-5.1,9.69,9.69,0,0,1-20.5-6.839a10.849,10.849,0,0,1,.46-1.72,10.035,10.035,0,0,1,.715-1.565,6.746,6.746,0,0,1,.935-1.289,4.324,4.324,0,0,1,1.112-.871A2.576,2.576,0,0,1-16.043-12.6Zm.241,2.69a.971.971,0,0,0-.7.446A4.732,4.732,0,0,0-17.162-8.3a9.18,9.18,0,0,0-.489,1.614,8.659,8.659,0,0,0-.191,1.805q0,.142.014.552a4.232,4.232,0,0,0,.12.85,2.174,2.174,0,0,0,.354.779.816.816,0,0,0,.7.34,1.385,1.385,0,0,0,.892-.368,3.7,3.7,0,0,0,.786-.949A5.559,5.559,0,0,0-14.415-5,5.291,5.291,0,0,0-14.2-6.471q0-.241-.014-.595a6.915,6.915,0,0,0-.071-.736,6.018,6.018,0,0,0-.163-.758,2.938,2.938,0,0,0-.283-.68,1.519,1.519,0,0,0-.439-.489A1.068,1.068,0,0,0-15.8-9.912Zm5.494,9.19a3.846,3.846,0,0,1-.1-.687q-.042-.5-.064-1.189t-.028-1.48q-.007-.793-.007-1.543t.007-1.395q.007-.644.007-1.027a8.208,8.208,0,0,1,.071-1.005,4.722,4.722,0,0,1,.255-1.062,2.673,2.673,0,0,1,.489-.843,1,1,0,0,1,.786-.347.758.758,0,0,1,.559.191,1.442,1.442,0,0,1,.3.425q.106.234.177.425t.212.191a.582.582,0,0,0,.34-.212q.2-.2.453-.432a4.265,4.265,0,0,1,.573-.439,3.526,3.526,0,0,1,.708-.347,2.49,2.49,0,0,1,.857-.142,2.605,2.605,0,0,1,1.112.234,2.708,2.708,0,0,1,.857.616,2.87,2.87,0,0,1,.552.864,2.546,2.546,0,0,1,.2.977,3.182,3.182,0,0,1-.042.524,1.432,1.432,0,0,1-.156.46.9.9,0,0,1-.319.333,1.024,1.024,0,0,1-.545.127A.922.922,0,0,1-3.7-7.7a1.983,1.983,0,0,1-.347-.425,3.255,3.255,0,0,0-.3-.425.624.624,0,0,0-.5-.191A1.468,1.468,0,0,0-5.9-8.206a4.931,4.931,0,0,0-.9,1.388,9.794,9.794,0,0,0-.63,1.954A10.444,10.444,0,0,0-7.675-2.62a6.728,6.728,0,0,1-.113,1.331A3.168,3.168,0,0,1-8.1-.382a1.35,1.35,0,0,1-.453.51A1.04,1.04,0,0,1-9.1.283a1,1,0,0,1-.453-.1,1.323,1.323,0,0,1-.347-.248,1.487,1.487,0,0,1-.248-.326A2.288,2.288,0,0,1-10.309-.722ZM8.241-23.067a.765.765,0,0,1,.63.319,2.443,2.443,0,0,1,.389.758,4.484,4.484,0,0,1,.191.913,5.307,5.307,0,0,1,.035.772q-.085,2.818-.234,5.445T8.985-9.636q-.12,2.6-.156,5.232t.092,5.466a2.386,2.386,0,0,1-.028.347,1.235,1.235,0,0,1-.106.354.817.817,0,0,1-.212.276.5.5,0,0,1-.333.113,1.121,1.121,0,0,1-.828-.319,2.286,2.286,0,0,1-.5-.779,4.671,4.671,0,0,1-.269-.97Q6.556-.425,6.5-.821q-.042-.312-.092-.6t-.1-.524A1.9,1.9,0,0,0,6.2-2.322q-.064-.142-.135-.142a.512.512,0,0,0-.34.184q-.184.184-.411.453t-.517.595a4.354,4.354,0,0,1-.651.595,3.611,3.611,0,0,1-.821.453A2.742,2.742,0,0,1,2.294,0,3.61,3.61,0,0,1,.673-.347,3.463,3.463,0,0,1-.5-1.281,4.1,4.1,0,0,1-1.218-2.62a5.068,5.068,0,0,1-.241-1.558,10.318,10.318,0,0,1,.17-1.834,11.068,11.068,0,0,1,.5-1.834A10.572,10.572,0,0,1-.007-9.53,7.349,7.349,0,0,1,1.02-10.917a4.617,4.617,0,0,1,1.246-.942,3.1,3.1,0,0,1,1.43-.347,2.19,2.19,0,0,1,.609.078q.269.078.5.163t.411.163a.907.907,0,0,0,.354.078.431.431,0,0,0,.319-.12.8.8,0,0,0,.184-.29,1.494,1.494,0,0,0,.085-.34q.021-.17.035-.255.085-.595.142-1.409t.106-1.728q.05-.913.106-1.862t.135-1.82q.078-.871.2-1.6a7.265,7.265,0,0,1,.29-1.211,1.138,1.138,0,0,1,.4-.481A1.1,1.1,0,0,1,8.241-23.067ZM1.359-3.781a1.269,1.269,0,0,0,.071.453.985.985,0,0,0,.17.3.611.611,0,0,0,.212.163.532.532,0,0,0,.212.05A1.251,1.251,0,0,0,2.782-3.1,4.015,4.015,0,0,0,3.5-3.823,7.639,7.639,0,0,0,4.156-4.8a11.622,11.622,0,0,0,.531-1.055,7.869,7.869,0,0,0,.354-.956,2.626,2.626,0,0,0,.127-.666,1.544,1.544,0,0,0-.057-.4,1.182,1.182,0,0,0-.184-.389,1.069,1.069,0,0,0-.333-.3.949.949,0,0,0-.489-.12,1.248,1.248,0,0,0-.772.276,3.145,3.145,0,0,0-.666.715,6.289,6.289,0,0,0-.552.984,8.545,8.545,0,0,0-.411,1.09,10.266,10.266,0,0,0-.255,1.034A4.5,4.5,0,0,0,1.359-3.781ZM20.022-1.713a3.291,3.291,0,0,1,.042.991,1.979,1.979,0,0,1-.205.694,1.038,1.038,0,0,1-.375.4A.928.928,0,0,1,19,.51a.842.842,0,0,1-.588-.227A1.949,1.949,0,0,1,18-.276,4.106,4.106,0,0,1,17.714-1q-.113-.389-.2-.722t-.149-.559q-.064-.227-.149-.227a.569.569,0,0,0-.375.205,5.446,5.446,0,0,0-.446.517q-.241.312-.531.673a5.147,5.147,0,0,1-.651.673,3.467,3.467,0,0,1-.8.517,2.244,2.244,0,0,1-.963.205,2.323,2.323,0,0,1-1.317-.4,3.544,3.544,0,0,1-1.02-1.062A5.484,5.484,0,0,1,10.457-2.7a6.857,6.857,0,0,1-.234-1.8,8.938,8.938,0,0,1,.184-1.735,11.462,11.462,0,0,1,.531-1.841A10.2,10.2,0,0,1,11.8-9.827a7.5,7.5,0,0,1,1.189-1.48,5.511,5.511,0,0,1,1.494-1.027,4.175,4.175,0,0,1,1.784-.382,3.218,3.218,0,0,1,1.359.262,2.782,2.782,0,0,1,.956.715,3.581,3.581,0,0,1,.623,1.062,7.289,7.289,0,0,1,.361,1.31,11.854,11.854,0,0,1,.17,1.451q.042.75.042,1.487T19.8-5q.021.708.05,1.338t.078,1.133Q19.98-2.025,20.022-1.713ZM13.042-3.951A1.959,1.959,0,0,0,13.275-2.9q.234.368.432.368a1.281,1.281,0,0,0,.765-.283,4.116,4.116,0,0,0,.75-.743,7.415,7.415,0,0,0,.687-1.034,11.247,11.247,0,0,0,.559-1.154,9.29,9.29,0,0,0,.382-1.1,3.4,3.4,0,0,0,.142-.871q0-.014-.007-.156T16.95-8.22q-.028-.205-.085-.446a1.867,1.867,0,0,0-.17-.453,1.088,1.088,0,0,0-.283-.347A.641.641,0,0,0,16-9.6a1.145,1.145,0,0,0-.729.3,3.58,3.58,0,0,0-.687.786,8.245,8.245,0,0,0-.609,1.1,11.063,11.063,0,0,0-.489,1.239,11.176,11.176,0,0,0-.326,1.218A5.156,5.156,0,0,0,13.042-3.951Zm7.986-5.494a2.287,2.287,0,0,1,.113-.644,2.957,2.957,0,0,1,.326-.715,2.2,2.2,0,0,1,.524-.581,1.127,1.127,0,0,1,.708-.241,1.117,1.117,0,0,1,.588.135.845.845,0,0,1,.333.389,1.9,1.9,0,0,1,.142.623q.028.368.028.821,0,.864.269.864.142,0,.283-.212l.595-.892a6.6,6.6,0,0,1,.793-.97,4.537,4.537,0,0,1,1.041-.786,2.743,2.743,0,0,1,1.352-.326,2.017,2.017,0,0,1,1.232.347,2.162,2.162,0,0,1,.715.991,5.249,5.249,0,0,1,.3,1.551,14.549,14.549,0,0,1-.028,2.011q-.071.949-.085,2.421t.113,3.625a1.717,1.717,0,0,1-.021.4,1.354,1.354,0,0,1-.135.411,1.085,1.085,0,0,1-.255.326.585.585,0,0,1-.4.135,1.612,1.612,0,0,1-1.168-.4,2.534,2.534,0,0,1-.623-.963,4.383,4.383,0,0,1-.255-1.147q-.05-.588-.05-.942,0-.623.05-1.119t.1-.963q.05-.467.1-.927a9.354,9.354,0,0,0,.05-1,6.51,6.51,0,0,0-.035-.758,1.935,1.935,0,0,0-.1-.453.488.488,0,0,0-.142-.219.256.256,0,0,0-.149-.057.963.963,0,0,0-.559.326,7.3,7.3,0,0,0-.743.835q-.4.51-.807,1.126t-.75,1.182a3.28,3.28,0,0,0-.248.566q-.092.283-.12.411a4.664,4.664,0,0,0-.042.7v.913q0,.481-.021.97a4.859,4.859,0,0,1-.113.885,1.892,1.892,0,0,1-.262.644A.55.55,0,0,1,23.194.1h-.283a1.31,1.31,0,0,1-.425-.078,2.183,2.183,0,0,1-.425-.2A2.088,2.088,0,0,1,21.7-.453a1.034,1.034,0,0,1-.234-.312,4.181,4.181,0,0,1-.234-.942q-.092-.6-.149-1.352t-.071-1.586Q21-5.48,21-6.273q0-.991.014-1.834T21.028-9.445Z" transform="translate(79 31.048)" fill="#ffd947"/>
    </g>
  </g>
</svg>
