<svg xmlns="http://www.w3.org/2000/svg" xmlns:xlink="http://www.w3.org/1999/xlink" width="89" height="85" viewBox="0 0 89 85">
  <defs>
    <clipPath id="clip-path">
      <rect id="Rectangle_45275" data-name="Rectangle 45275" width="69.993" height="69.96" fill="none"/>
    </clipPath>
  </defs>
  <g id="_20" data-name="20" transform="translate(-698 -4457)">
    <g id="Group_165391" data-name="Group 165391" transform="translate(698 4457)">
      <rect id="Rectangle_40797" data-name="Rectangle 40797" width="89" height="85" rx="15" fill="#ffd947"/>
    </g>
    <g id="Group_174981" data-name="Group 174981" transform="translate(708 4465)">
      <g id="Group_174981-2" data-name="Group 174981" clip-path="url(#clip-path)">
        <path id="Path_183071" data-name="Path 183071" d="M15.118,35.161a7.69,7.69,0,0,1-1.4-3.248c-.066-.417-.327-.32-.561-.32-1.927-.005-3.854-.014-5.781.006-.427,0-.6-.061-.6-.556.013-1.709-.01-1.709,1.691-1.709,1.528,0,3.056-.011,4.583.008.377.005.585-.065.511-.488a1.3,1.3,0,0,1,0-.211,3.418,3.418,0,0,0-.044-1.39c-.2-.4-.83-.211-1.254-.361A4.433,4.433,0,0,1,9.13,23.331a4.277,4.277,0,0,1,1.62-4.25c.213-.179.445-.335.7-.526-1.214-.73-2.386-1.454-3.58-2.14-.354-.2-.384-.343-.151-.675.661-.94,1.268-1.918,1.927-2.859a.675.675,0,0,0,.015-.923C8.98,11,8.371,10,7.69,9.043c-.276-.388-.179-.527.2-.71,1.224-.59,2.425-1.227,3.653-1.807.4-.19.493-.341.271-.762C11.094,4.4,10.422,3,9.733,1.619a2.269,2.269,0,0,1-.1-.273A104.066,104.066,0,0,1,26.85.024,14.484,14.484,0,0,1,40.526,12.7a16.755,16.755,0,0,1-.383,5.661,2.873,2.873,0,0,0,.186,2.6,3.156,3.156,0,0,1,.269.779c.033-.557-.1-1.125.117-1.325.317-.3.89-.1,1.352-.1,1.621-.013,3.243,0,4.865-.011.341,0,.477.055.487.45.043,1.813.059,1.812-1.727,1.812-1.528,0-3.056.008-4.583-.006-.335,0-.455.058-.5.44a4.451,4.451,0,0,1-4.03,4.045c-.43.054-.45.213-.46.558a20.283,20.283,0,0,1-.239,4.771,7.715,7.715,0,0,1-4.472,5.286c-.416.188-.572.357-.434.828.2.671.087,1.6.507,1.991.463.436,1.386.13,2.106.132,4.348.01,8.7.131,13.042-.03,5.963-.221,10.269-3.163,12.94-8.5a2.948,2.948,0,0,0,.14-.322.552.552,0,0,0-.007-.172q-3.695,0-7.392,0a2.314,2.314,0,0,1-2.645-2.624q0-7.544,0-15.088a2.309,2.309,0,0,1,2.6-2.594q4.195,0,8.39,0A2.285,2.285,0,0,1,63.2,13.8c0,.679,0,1.359,0,2.093a5.666,5.666,0,0,1,4.415.978,5.358,5.358,0,0,1,2.338,4.439c.036,3.736.069,7.475-.011,11.21A23.792,23.792,0,0,1,50.661,54.877a42.509,42.509,0,0,1-7.376.4c-1.433,0-2.867.023-4.3-.013-.492-.012-.618.111-.616.61.022,4.465,0,8.931.026,13.4,0,.546-.128.687-.682.686Q19.205,69.934.7,69.96c-.542,0-.7-.12-.687-.68C.1,66.6-.142,63.918.153,61.249a22.918,22.918,0,0,1,11.019-17.6,21.257,21.257,0,0,1,6.591-2.735.643.643,0,0,0,.591-.65c.011-.14.059-.276.077-.415.087-.647.549-1.383.26-1.9-.261-.464-1.058-.611-1.591-.942-.288-.179-.483-.043-.71.07-1.383.691-2.772,1.369-4.144,2.082-.361.188-.492.109-.666-.234-.795-1.566-.806-1.56.741-2.336q1.319-.662,2.636-1.327c.041-.021.078-.051.16-.107" transform="translate(0 0)"/>
        <path id="Path_183072" data-name="Path 183072" d="M93.822,29.98c.081.038.145.067.207.1,1.295.65,2.585,1.306,3.886,1.946.256.126.3.26.143.483a.32.32,0,0,0-.031.063c-.742,1.668-.743,1.669-2.383.845-.793-.4-1.566-.847-2.385-1.182-.542-.222-.519-.465-.271-.88.215-.36.374-.753.575-1.123.057-.1.069-.3.259-.25" transform="translate(-50.33 -16.252)" fill="#010101"/>
        <path id="Path_183073" data-name="Path 183073" d="M98.179,56.5c.049.233-.151.255-.287.323-1.274.641-2.55,1.275-3.82,1.923-.22.112-.332.135-.488-.119-1.019-1.655-1.027-1.651.694-2.512.794-.4,1.612-.753,2.378-1.2.5-.294.707-.154.9.327.17.434.413.838.626,1.258" transform="translate(-50.367 -29.691)" fill="#010101"/>
        <path id="Path_183074" data-name="Path 183074" d="M7.238,65.257c0,1.077,0,1.077-1.109,1.077-1.148,0-1.148,0-1.148-1.179,0-1.077,0-1.077,1.109-1.077,1.148,0,1.148,0,1.148,1.179" transform="translate(-2.701 -34.745)"/>
        <path id="Path_183075" data-name="Path 183075" d="M26.666,118.442c-3.854,0-7.708-.016-11.562.016-.649.005-.859-.105-.852-.815.041-4.018.01-8.037.032-12.055,0-.532-.106-.713-.678-.7-1.59.039-1.59.01-1.59,1.607,0,1.528-.023,3.056.013,4.582.012.509-.145.615-.626.607-1.809-.029-3.619-.02-5.428-.005-.392,0-.57-.015-.483-.518A20.866,20.866,0,0,1,18.064,94.9c.376-.172.507-.07.656.284.906,2.162,1.851,4.307,2.749,6.471.2.476.347.48.721.174,1.674-1.366,3.387-2.685,5.043-4.072.471-.394.74-.336,1.175.023,1.647,1.362,3.338,2.67,4.991,4.026.4.33.554.311.762-.184,1.04-2.486,2.126-4.953,3.166-7.439a.786.786,0,0,1,.867-.577q5.851.027,11.7-.012c.357,0,.487.056.485.444q-.023,4.618,0,9.235c0,.376-.13.488-.485.487q-4.088,0-8.178.019c-.336,0-.379-.144-.374-.422.012-.846-.01-1.692.011-2.538.008-.334-.091-.427-.431-.441-1.833-.08-1.832-.091-1.832,1.712,0,5.217-.012,10.434.016,15.651,0,.609-.174.715-.738.711-3.9-.026-7.8-.014-11.7-.014" transform="translate(-2.966 -50.751)" fill="#fbd670"/>
        <path id="Path_183076" data-name="Path 183076" d="M34.77,16.218c-.906-.884-1.826-1.754-2.709-2.661-.32-.328-.531-.371-.835-.007-.345.412-.964.753-1.033,1.193-.067.424.611.759.971,1.122.253.255.282.414.009.68-1.209,1.183-2.4,2.384-3.591,3.588a.44.44,0,0,1-.655.1c-1.014-.637-2.039-1.257-3.078-1.852-.361-.206-.387-.379-.158-.7.487-.691.919-1.421,1.421-2.1a.717.717,0,0,0-.011-1c-.485-.662-.9-1.374-1.381-2.043-.227-.318-.169-.456.169-.618,1.142-.55,2.26-1.15,3.409-1.684.463-.215.5-.428.275-.852-.531-.994-1.014-2.013-1.526-3.017-.168-.328-.244-.528.268-.592A99.329,99.329,0,0,1,38.748,4.93,12.215,12.215,0,0,1,50.954,14.975a13.614,13.614,0,0,1-.254,5.657c-.038.175-.046.363-.331.355-1.188-.033-1.478-.307-1.478-1.452,0-1.064,0-1.062-1.077-1.068-.211,0-.422-.016-.633-.025a1.662,1.662,0,0,1-.582-.5,4.263,4.263,0,0,0-3.471-1.552,9.808,9.808,0,0,1-1.476-.027,1.613,1.613,0,0,1-.8-.55c-.649-.644-1.31-1.276-1.934-1.943-.4-.43-.735-.427-1.091.023-.058.073.019-.015-.049.051-.776.763-.776.763-.03,1.537a2.724,2.724,0,0,1,.367.424c.155.248.066.392-.2.464a8.07,8.07,0,0,1-3.154-.155" transform="translate(-12.766 -2.673)" fill="#b17946"/>
        <path id="Path_183077" data-name="Path 183077" d="M40.73,29.555l3.421-.027c.334-.033.491.234.684.422q1,.978,1.981,1.981c.285.293.539.34.82.016.061-.07.132-.132.2-.2.878-.872.816-.766.028-1.559-.173-.175-.413-.327-.364-.635a16.7,16.7,0,0,1,2.595.059,4.3,4.3,0,0,1,3.05,2.166c-.466-.057-.558.168-.557.6q.023,6.834.009,13.667a5.668,5.668,0,0,1-6.074,6.064q-3.135,0-6.27,0a5.661,5.661,0,0,1-2.22-.447c.179-.107.285-.161.381-.23.346-.249,1.082-.269,1.022-.684a5.76,5.76,0,0,0-.824-1.768c-.118-.217-.3-.009-.424.05-.613.292-1.228.585-1.819.919-.341.192-.525.122-.734-.186a6.792,6.792,0,0,1-.873-1.754c-.093-.291-.082-.453.278-.413a1.053,1.053,0,0,0,.211,0c.505-.045,1.288.229,1.456-.115a4.906,4.906,0,0,0,.1-1.862c.009-.284-.167-.281-.366-.279-.47,0-.94-.016-1.409.007-.338.016-.5-.043-.493-.446.017-2.959.012-5.918.005-8.876a.785.785,0,0,1,.251-.617q1.978-1.956,3.931-3.939c.259-.263.411-.274.671,0,.355.369.681,1.012,1.116,1,.471-.017.763-.694,1.181-1.026.39-.311.376-.548,0-.869a13.094,13.094,0,0,1-.962-1.013" transform="translate(-18.726 -16.01)" fill="#efcfb3"/>
        <path id="Path_183078" data-name="Path 183078" d="M108.515,74.074c-.011-.2-.028-.387-.029-.571,0-3.008,0-6.016-.006-9.024,0-.385.037-.586.511-.717q10.744-2.974,12.846-13.945c.079-.414.09-.84.148-1.259a2.83,2.83,0,0,0-.919-2.737,3.718,3.718,0,0,1-.249-5.462,3.18,3.18,0,0,1,3.518-.718,3.065,3.065,0,0,1,2.169,2.931c.008,4.275.376,8.576-.153,12.82-1,8.013-5.345,13.7-12.634,17.146a18.79,18.79,0,0,1-5.2,1.536" transform="translate(-58.821 -21.361)" fill="#efcfb3"/>
        <path id="Path_183079" data-name="Path 183079" d="M113.405,37.479c0-2.444.011-4.889-.01-7.333,0-.444.1-.6.574-.595q3.948.036,7.9,0c.477,0,.616.147.571.6a4.959,4.959,0,0,0,0,.986,3.3,3.3,0,0,1-.959,2.8,5.716,5.716,0,0,0,.111,7.5,2.928,2.928,0,0,1,.668,2.8c-.3,1.329.049,1.106-1.339,1.114-2.3.012-4.607-.013-6.91.016-.505.006-.619-.143-.614-.628.025-2.421.011-4.842.011-7.262" transform="translate(-61.486 -16.023)" fill="#959ea9"/>
        <path id="Path_183080" data-name="Path 183080" d="M53.473,86.384c.073.247-.121.318-.28.414-1.225.737-2.457,1.464-3.673,2.216A.634.634,0,0,1,48.753,89q-1.8-1.1-3.621-2.168a.51.51,0,0,1-.285-.677c.162-.611.26-1.239.366-1.863.063-.368.186-.538.628-.532,2.207.032,4.416.026,6.623,0,.385,0,.538.114.6.477.12.716.271,1.428.409,2.141" transform="translate(-24.299 -45.418)" fill="#efcfb3"/>
        <path id="Path_183081" data-name="Path 183081" d="M8.39,138c.962,0,1.924.016,2.886-.008.365-.009.479.095.472.468q-.035,1.794,0,3.589c.007.365-.1.476-.467.472q-2.92-.027-5.842,0c-.361,0-.485-.082-.477-.463.025-1.2.022-2.393,0-3.589-.006-.366.1-.486.472-.477.985.026,1.97.009,2.956.009" transform="translate(-2.69 -74.824)" fill="#efcfb3"/>
        <path id="Path_183082" data-name="Path 183082" d="M61.973,98.594c-.989-.789-1.918-1.54-2.861-2.275-.3-.23-.269-.36.044-.543,1.111-.65,2.213-1.319,3.316-1.984.484-.291,1-.1,1.625-.167l-2.125,4.968" transform="translate(-31.941 -50.766)" fill="#fec629"/>
        <path id="Path_183083" data-name="Path 183083" d="M40.711,98.766c-.622-1.443-1.225-2.839-1.825-4.235-.067-.156-.127-.353.105-.4.488-.092.954-.363,1.482-.02.983.636,2,1.224,3.012,1.811.325.188.417.314.068.583-.943.728-1.868,1.481-2.842,2.258" transform="translate(-21.053 -50.94)" fill="#fec629"/>
        <path id="Path_183084" data-name="Path 183084" d="M26.956,46.631c0,.633-.017,1.266.007,1.9.013.35-.141.377-.422.329a2.269,2.269,0,0,1,0-4.455c.281-.048.434-.02.421.331-.024.631-.007,1.265-.007,1.9" transform="translate(-13.394 -24.067)" fill="#efcfb3"/>
        <path id="Path_183085" data-name="Path 183085" d="M78.907,46.636c0-.633.016-1.266-.006-1.9-.013-.34.124-.387.415-.338a2.27,2.27,0,0,1,.011,4.459c-.366.068-.437-.067-.426-.4.021-.608.006-1.218.006-1.827" transform="translate(-42.782 -24.067)" fill="#efcfb3"/>
        <path id="Path_183086" data-name="Path 183086" d="M57.4,26.059c.367.39.723.791,1.106,1.164.214.209.255.373,0,.562a.364.364,0,0,0-.05.049c-1.222,1.328-1.219,1.325-2.5.058-.63-.626-1.272-1.24-1.909-1.859-.124-.14-.251-.276-.37-.42-.3-.358-.979-.673-.872-1.023.184-.6.833-.983,1.311-1.43.238-.223.373.07.507.2.928.894,1.848,1.8,2.77,2.7" transform="translate(-28.632 -12.515)"/>
        <path id="Path_183087" data-name="Path 183087" d="M50.605,59.146c1.009,0,2.019-.013,3.029,0a3.382,3.382,0,1,1,0,6.763c-.188,0-.376,0-.564,0-1.886,0-1.877,0-1.7-1.909.026-.278.108-.358.373-.352q.88.022,1.761,0a1.132,1.132,0,1,0-.011-2.25c-2.019-.01-4.038-.017-6.057.008-.458.005-.583-.115-.581-.577.008-1.69-.011-1.69,1.711-1.69h2.043" transform="translate(-25.405 -32.068)"/>
        <path id="Path_183088" data-name="Path 183088" d="M54.053,42.8c0,.986-.013,1.971.007,2.956.007.333-.09.425-.429.44-1.835.078-1.834.089-1.834-1.7,0-1.525.013-3.05-.009-4.575-.005-.393.1-.505.5-.511,1.764-.025,1.763-.039,1.763,1.7V42.8" transform="translate(-28.081 -21.362)"/>
        <path id="Path_183089" data-name="Path 183089" d="M63.953,40.02a7.42,7.42,0,0,0,.561.732c.91.928.939.948-.023,1.842-.446.414-.476.648-.008,1.078.971.892.944.922.032,1.834-.685.685-.685.685-1.349.02-.7-.7-1.382-1.4-2.092-2.081-.241-.231-.255-.372-.006-.612.826-.8,1.627-1.62,2.44-2.43.1-.1.209-.18.447-.383" transform="translate(-33.014 -21.7)" fill="#010000"/>
        <path id="Path_183090" data-name="Path 183090" d="M42.528,43.336c-.092.1-.163.191-.241.271-.827.829-1.664,1.65-2.478,2.491-.237.244-.389.244-.615-.006-.376-.417-1.014-.752-1.119-1.218-.117-.519.627-.82.987-1.219.219-.243.252-.379.006-.623-.379-.376-1.1-.755-1.024-1.156.1-.482.746-.849,1.138-1.282.212-.235.365-.287.615-.028.813.843,1.651,1.662,2.478,2.492.08.08.152.168.254.279" transform="translate(-20.625 -21.902)"/>
        <path id="Path_183091" data-name="Path 183091" d="M120.6,35.668c0,1.093,0,1.093-1.111,1.093-1.146,0-1.146,0-1.146-1.128s0-1.128,1.146-1.128c1.111,0,1.111,0,1.111,1.163" transform="translate(-64.172 -18.71)"/>
      </g>
    </g>
  </g>
</svg>
