<svg xmlns="http://www.w3.org/2000/svg" xmlns:xlink="http://www.w3.org/1999/xlink" width="228" height="340" viewBox="0 0 228 340">
  <defs>
    <clipPath id="clip-path">
      <rect id="Rectangle_45215" data-name="Rectangle 45215" width="228" height="340" transform="translate(1105 925.602)" fill="#fff" stroke="#707070" stroke-width="1"/>
    </clipPath>
    <clipPath id="clip-path-2">
      <rect id="Rectangle_45362" data-name="Rectangle 45362" width="227.941" height="339.521" fill="none"/>
    </clipPath>
    <clipPath id="clip-path-3">
      <path id="Path_184635" data-name="Path 184635" d="M140.066,37.212c2.737.449-2.467,5.477-6.373,4.837-3.315-.544-2.843-2.307-2.138-2.868a9.756,9.756,0,0,1,6.3-2.156,13.637,13.637,0,0,1,2.211.187" transform="translate(-131.047 -37.025)" fill="none"/>
    </clipPath>
    <clipPath id="clip-path-4">
      <path id="Path_184637" data-name="Path 184637" d="M139.209,27.415s-7.716,8.178-15.3.008a13.37,13.37,0,0,1,8.085-3.27,9.99,9.99,0,0,1,7.219,3.262" transform="translate(-123.906 -24.153)" fill="none"/>
    </clipPath>
  </defs>
  <g id="_23" data-name="23" transform="translate(-1105 -925.602)" clip-path="url(#clip-path)">
    <g id="Group_174828" data-name="Group 174828" transform="translate(1105 926)">
      <g id="Group_174815" data-name="Group 174815" transform="translate(0 168.08)">
        <rect id="Rectangle_45210" data-name="Rectangle 45210" width="172.683" height="171.135" transform="translate(69.693)" fill="#6b8dfc"/>
        <path id="Rectangle_45211" data-name="Rectangle 45211" d="M98.344,0H242.376a0,0,0,0,1,0,0V98.344a0,0,0,0,1,0,0H0a0,0,0,0,1,0,0v0A98.344,98.344,0,0,1,98.344,0Z" transform="translate(0 72.79)" fill="#3c3fa7"/>
      </g>
      <g id="Group_175206" data-name="Group 175206" transform="translate(4.45 2.441)">
        <g id="Group_175199" data-name="Group 175199" transform="translate(0)">
          <g id="Group_175198" data-name="Group 175198" clip-path="url(#clip-path-2)">
            <path id="Path_184592" data-name="Path 184592" d="M101.547,319.921a.962.962,0,0,0,.958-.742l19.144-93.647a11.627,11.627,0,0,1,11.574-8.963h42.032a.917.917,0,1,0,0-1.83H133.223c-6.579,0-12.254,4.394-13.491,10.448l-19.144,93.647a.921.921,0,0,0,.775,1.071,1.2,1.2,0,0,0,.185.016" transform="translate(-46.476 -5.09)" fill="#ffb6c8"/>
            <path id="Path_184593" data-name="Path 184593" d="M60.94,212.4h63.1c22,0,39.843-16.709,39.843-37.321V101.987c0-13.637-11.8-24.692-26.36-24.692h-33.78c-14.548,0-26.346,11.039-26.361,24.666l-.076,68.288-41.12,4.776V189.21c0,12.805,11.082,23.186,24.752,23.186" transform="translate(28.726 -1.832)" fill="#fff"/>
            <path id="Path_184594" data-name="Path 184594" d="M60.916,213.288h63.1c22.509,0,40.82-17.152,40.82-38.235V101.965c0-14.119-12.263-25.606-27.337-25.606H103.72c-15.058,0-27.322,11.475-27.337,25.58l-.074,67.481L36.043,174.1a.938.938,0,0,0-.856.908v14.185c0,13.288,11.542,24.1,25.729,24.1M137.5,78.188c14,0,25.385,10.667,25.385,23.778v73.088c0,20.074-17.436,36.406-38.867,36.406h-63.1c-13.111,0-23.777-9.99-23.777-22.271V175.811L77.4,171.135a.937.937,0,0,0,.856-.907l.075-68.287c.015-13.1,11.4-23.753,25.385-23.753Z" transform="translate(28.751 -1.81)" fill="#ffb6c8"/>
            <path id="Path_184595" data-name="Path 184595" d="M142.637,338a1.1,1.1,0,0,0,.158-.012.923.923,0,0,0,.806-1.049L124.2,225.213c-1.242-6.079-6.916-10.474-13.5-10.474H43.1a.916.916,0,1,0,0,1.829h67.6a11.628,11.628,0,0,1,11.575,8.964l19.4,111.7a.96.96,0,0,0,.963.768" transform="translate(43.201 -5.09)" fill="#ffb6c8"/>
            <path id="Path_184596" data-name="Path 184596" d="M139.811,338a1.1,1.1,0,0,0,.158-.012.923.923,0,0,0,.806-1.049l-19.4-111.723c-1.243-6.079-6.917-10.474-13.5-10.474H65.843a.916.916,0,1,0,0,1.829h42.032a11.629,11.629,0,0,1,11.575,8.964l19.4,111.7a.96.96,0,0,0,.963.768" transform="translate(23.823 -5.09)" fill="#ffb6c8"/>
            <path id="Path_184597" data-name="Path 184597" d="M167.792,166.634l-2.146,49.691H74.4l1.373-51.879Z" transform="translate(-12.485 -3.898)" fill="#5774cd"/>
            <path id="Path_184598" data-name="Path 184598" d="M129.16,301.379l4.662,25.615,20.6-1.957-5.564-31Z" transform="translate(-52.58 -6.97)" fill="#e5826e"/>
            <path id="Path_184599" data-name="Path 184599" d="M155.228,301.151l-23.52,8.557L129.4,296.891l23.5-8.857Z" transform="translate(-53.623 -6.827)"/>
            <path id="Path_184600" data-name="Path 184600" d="M102.79,300.934l-6.749,23.1,19.113,7.9,8.236-27.918Z" transform="translate(10.787 -7.133)" fill="#e5826e"/>
            <path id="Path_184601" data-name="Path 184601" d="M98.309,300.934l20.6,3.078-3.221,10.92L96.041,308.7Z" transform="translate(15.268 -7.133)"/>
            <path id="Path_184602" data-name="Path 184602" d="M108.283,171.646h0A23.341,23.341,0,0,0,79.92,188.533L52.281,297.515,97.53,308.992,125.17,200.01a23.341,23.341,0,0,0-16.887-28.363" transform="translate(51.008 -4.052)" fill="#5774cd"/>
            <path id="Path_184603" data-name="Path 184603" d="M148.582,171.545l-.746.1a22.964,22.964,0,0,0-19.591,25.9l14.461,104.244,46.239-6.414L174.484,191.136a22.964,22.964,0,0,0-25.9-19.591" transform="translate(-85.993 -4.061)" fill="#5774cd"/>
            <path id="Path_184604" data-name="Path 184604" d="M100.376,54.633c16.908-10.24,44.138,11.391,44.138,11.391s24.39.145,34.705,2.314,28.529,23.432,40.4,58.2c7.405,21.684,5.363,42-16.731,42-11.539,0-95.4-8.187-95.4-8.187S43.778,169.887,43.778,139c0-27.865,33.367-70.293,56.6-84.363m1.193,69.773L100.2,105.892,87.078,123.384Z" transform="translate(-38.284 -1.23)" fill="#d7e5ff"/>
            <path id="Path_184605" data-name="Path 184605" d="M104.065,54.465a83.927,83.927,0,0,1,20.784,11.62s10.086.062,20.03.681l.082.209L113.814,84.061Z" transform="translate(-18.619 -1.291)" fill="#5774cd"/>
            <path id="Path_184606" data-name="Path 184606" d="M136.322,163.012a.488.488,0,0,0,.487-.472l2.669-78.667a.488.488,0,1,0-.975-.033l-2.669,78.667a.488.488,0,0,0,.471.5Z" transform="translate(-44.152 -1.976)"/>
            <path id="Path_184607" data-name="Path 184607" d="M147.388,144.106s-3.809,1.406,14.452,3.815c8.728,1.152,10.477,6.944,10.952,9a1.251,1.251,0,0,1-.894,1.428,2.562,2.562,0,0,1-2.668-.612,18.17,18.17,0,0,0-3.987-3.107c-3.738-2.227-11.577,2.534-18.207,2.99-2.025.14-12.216-3.454-14.777-5.417-5.252-4.021-2.794-8.169-2.794-8.169Z" transform="translate(-70.715 -3.414)" fill="#ed8974"/>
            <path id="Path_184608" data-name="Path 184608" d="M125.519,146.639s12.522-2.335,23.745.93c7.9,2.3,10.177,6.35,10.834,8.549a1.675,1.675,0,0,1-1.186,2.012,1.9,1.9,0,0,1-2.017-.486,17.606,17.606,0,0,0-4.227-3.37c-3.739-2.227-11.691-2.613-11.691-2.613l-13.335.312Z" transform="translate(-54.762 -3.457)" fill="#ed8974"/>
            <path id="Path_184609" data-name="Path 184609" d="M120.915,149.1s13.011-5.575,26.09-3.735c10.224,1.438,13.473,7.074,14.4,9.465a1.407,1.407,0,0,1-.624,1.695,2.689,2.689,0,0,1-3.128-.165,21.581,21.581,0,0,0-5.175-3.149c-4.658-2.065-13.416-.909-13.416-.909l-14.431,3.163Z" transform="translate(-51.604 -3.437)" fill="#ed8974"/>
            <path id="Path_184610" data-name="Path 184610" d="M121.855,146.662s13.011-5.575,26.09-3.735c10.258,1.443,13.494,7.111,14.413,9.489a1.38,1.38,0,0,1-.61,1.657,2.729,2.729,0,0,1-3.172-.167,21.574,21.574,0,0,0-5.155-3.132c-4.658-2.065-13.416-.909-13.416-.909l-14.431,3.163Z" transform="translate(-53.469 -3.379)" fill="#ed8974"/>
            <path id="Path_184611" data-name="Path 184611" d="M145.64,157.255a.218.218,0,0,0,.094,0,.26.26,0,0,0,.172-.313c-.379-1.63-1.528-6.593-10.582-8.889a28.225,28.225,0,0,0-6.417-.506.259.259,0,0,0,.015.515,28.624,28.624,0,0,1,6.3.492c8.772,2.225,9.869,6.959,10.23,8.514a.247.247,0,0,0,.194.191" transform="translate(-43.598 -3.497)"/>
            <path id="Path_184612" data-name="Path 184612" d="M143.5,155.961a.218.218,0,0,0,.094,0,.26.26,0,0,0,.172-.313c-.458-1.972-1.309-5.643-9.61-8.917-2.917-1.152-8.323-.849-8.552-.836a.251.251,0,0,0-.224.271.242.242,0,0,0,.25.244c.055,0,5.536-.31,8.365.805,8.063,3.181,8.845,6.547,9.311,8.559a.247.247,0,0,0,.194.191" transform="translate(-38.237 -3.457)"/>
            <path id="Path_184613" data-name="Path 184613" d="M142.011,153.451a.217.217,0,0,0,.094,0,.261.261,0,0,0,.173-.313c-.416-1.789-2.407-6.26-11.912-9.147-3.018-.92-8.282-.5-8.506-.484a.254.254,0,0,0-.219.276.244.244,0,0,0,.255.238c.054,0,5.4-.424,8.342.467,9.526,2.894,11.27,7.449,11.579,8.777a.247.247,0,0,0,.193.191" transform="translate(-33.101 -3.399)"/>
            <path id="Path_184614" data-name="Path 184614" d="M162.206,126.373l32.2,1.4L191.758,158.8l-46.31-.729Z" transform="translate(-108.463 -2.995)" fill="#d7e5ff"/>
            <path id="Path_184615" data-name="Path 184615" d="M171.114,107.169h.025a.488.488,0,0,0,.463-.512l-1.068-21a.488.488,0,1,0-.975.05l1.068,21a.488.488,0,0,0,.487.464" transform="translate(-109.201 -2.019)"/>
            <path id="Path_184616" data-name="Path 184616" d="M197.407,163.425a.489.489,0,0,0,.485-.439l3.56-35.24a.488.488,0,0,0-.112-.363.493.493,0,0,0-.339-.173l-55.53-3.915a.488.488,0,0,0-.069.974l55.028,3.88-3.509,34.74a.486.486,0,0,0,.436.534l.05,0" transform="translate(-115.026 -2.922)"/>
            <path id="Path_184617" data-name="Path 184617" d="M197.688,122.62a.488.488,0,0,0,.3-.877l-10.323-7.831a.488.488,0,0,0-.591.778l10.323,7.83a.486.486,0,0,0,.295.1" transform="translate(-152.684 -2.698)"/>
            <path id="Path_184618" data-name="Path 184618" d="M92.343,169.833a.488.488,0,0,0,.123-.96c-5.21-1.364-35.6-29.21-38.847-32.2l14.7-27.144,43.874,28.545a.488.488,0,1,0,.532-.818L68.4,108.423a.488.488,0,0,0-.7.176L52.579,136.542a.49.49,0,0,0,.1.592c1.379,1.272,33.83,31.189,39.541,32.683a.457.457,0,0,0,.124.017" transform="translate(63.722 -2.568)"/>
            <path id="Path_184619" data-name="Path 184619" d="M55.2,131.54l.049,0,8.9-.89a.488.488,0,1,0-.1-.97l-8.9.89a.488.488,0,0,0,.048.973" transform="translate(109.943 -3.074)"/>
            <path id="Path_184620" data-name="Path 184620" d="M87.283,98.206a.488.488,0,0,0,.473-.367L93.45,75.592a.488.488,0,1,0-.945-.242L86.809,97.6a.488.488,0,0,0,.352.594.468.468,0,0,0,.121.016" transform="translate(49.739 -1.777)"/>
            <path id="Path_184621" data-name="Path 184621" d="M85.9,142.336a.486.486,0,0,0,.41-.224l14.758-22.769a.488.488,0,1,0-.819-.53l-14.758,22.77a.488.488,0,0,0,.409.753" transform="translate(43.409 -2.811)"/>
            <path id="Path_184622" data-name="Path 184622" d="M158.89,156.908a.488.488,0,0,0,.485-.439l2.74-27.409a.487.487,0,0,0-.437-.533.481.481,0,0,0-.534.436l-2.74,27.408a.488.488,0,0,0,.437.534l.049,0" transform="translate(-88.824 -3.046)"/>
            <path id="Path_184623" data-name="Path 184623" d="M133.984,14.442a3.876,3.876,0,0,1-5.229.615A4.853,4.853,0,0,1,127.211,9.8a6.54,6.54,0,0,1,4-3.987,10.183,10.183,0,0,1,5.759-.239,4.841,4.841,0,0,1,3.287,6.252c-1,2.484-4.413,3.62-6.271,2.616" transform="translate(-36.582 -0.125)" fill="#ffb6c8"/>
            <path id="Path_184624" data-name="Path 184624" d="M132.467,50.646l.383,15.028-21.975.477-.818-19.623Z" transform="translate(-12.357 -1.103)" fill="#e5826e"/>
            <path id="Path_184625" data-name="Path 184625" d="M135.592,66.154,108.03,79.833l2.033-29.018a118.276,118.276,0,0,1,15.012,13.407s4.35.742,10.518,1.932" transform="translate(-13.12 -1.205)" fill="#e5826e"/>
            <path id="Path_184626" data-name="Path 184626" d="M114.807,59.81l-.544-13.036,17.23,3.165c-3.575,3.17-9.708,7.837-16.686,9.871" transform="translate(-15.106 -1.109)"/>
            <path id="Path_184627" data-name="Path 184627" d="M125.455,8.942c-12.682-2.081-24.079,5.321-26.276,18.707s-1.646,23.5,11.036,25.579c15.417,2.53,30.914-4.2,33.112-17.585s-5.19-24.619-17.872-26.7" transform="translate(-11.629 -0.204)" fill="#e5826e"/>
            <path id="Path_184628" data-name="Path 184628" d="M141.586,27.638l7.344,2.434-1.685,8.02Z" transform="translate(-59.218 -0.655)" fill="#e5826e"/>
            <path id="Path_184629" data-name="Path 184629" d="M123.906,27.422s7.977-7.35,15.3-.008c0,0-7.716,8.179-15.3.008" transform="translate(-32.238 -0.573)" fill="#fff"/>
            <path id="Path_184630" data-name="Path 184630" d="M134.89,20.864a.664.664,0,0,0,.56-1.142c-5-4.64-9.6-2.172-9.792-2.065a.664.664,0,0,0,.642,1.163c.161-.087,3.973-2.084,8.246,1.876a.674.674,0,0,0,.344.168" transform="translate(-30.067 -0.401)"/>
            <path id="Path_184631" data-name="Path 184631" d="M136.363,35.78a33.5,33.5,0,0,1-7.25-4.8,11.274,11.274,0,0,1-3.8-7.6c-.081-2.906,1.664-5.947,4.447-6.787-4.217,3.714-11.69,2.618-14.662-2.15a2.036,2.036,0,0,1,3.024-2.648,18.478,18.478,0,0,1-13.624-6.441c-1.251-1.476-.4-3.99,1.323-4.876a5.8,5.8,0,0,1,5.526.562,23.9,23.9,0,0,1,4.3,3.87,10.954,10.954,0,0,0,4.772,3.179,22.535,22.535,0,0,1,13.87,10.793,23.135,23.135,0,0,1,2.074,16.9" transform="translate(-10.62 0)" fill="#ffb6c8"/>
            <path id="Path_184632" data-name="Path 184632" d="M106.811,27.14c2.806,7.9,1.526,16.232-1.45,24.067,7.357-.529,15.356-6.632,16.969-12.577,1.55-5.715.665-13.665-3.055-19.941C110.131,3.259,92.632,6.876,92.632,6.876s11.374,12.368,14.18,20.264" transform="translate(14.447 -0.154)" fill="#fd521b"/>
            <path id="Path_184633" data-name="Path 184633" d="M131.554,39.181a10.243,10.243,0,0,1,8.51-1.968c2.738.449-2.466,5.477-6.373,4.836-3.314-.544-2.843-2.306-2.137-2.867" transform="translate(-40.828 -0.878)"/>
          </g>
        </g>
        <g id="Group_175201" data-name="Group 175201" transform="translate(90.218 36.147)">
          <g id="Group_175200" data-name="Group 175200" transform="translate(0)" clip-path="url(#clip-path-3)">
            <path id="Path_184634" data-name="Path 184634" d="M148.292,40.286s-6.589-3.618-16.489-.8,10.7,7.992,10.7,7.992Z" transform="translate(-136.622 -37.058)" fill="#fd521b"/>
          </g>
        </g>
        <g id="Group_175203" data-name="Group 175203" transform="translate(91.668 23.58)">
          <g id="Group_175202" data-name="Group 175202" transform="translate(0)" clip-path="url(#clip-path-4)">
            <path id="Path_184636" data-name="Path 184636" d="M129.41,26.144a5.423,5.423,0,1,0,6.23-4.473,5.424,5.424,0,0,0-6.23,4.473" transform="translate(-130.185 -24.092)"/>
          </g>
        </g>
        <g id="Group_175205" data-name="Group 175205" transform="translate(0)">
          <g id="Group_175204" data-name="Group 175204" clip-path="url(#clip-path-2)">
            <path id="Path_184638" data-name="Path 184638" d="M102.876,37.189c2.857-2.36,6.752-2.151,8.7.466s1.214,6.652-1.643,9.011-6.752,2.151-8.7-.466-1.214-6.652,1.643-9.011" transform="translate(17.506 -0.843)" fill="#e5826e"/>
            <path id="Path_184639" data-name="Path 184639" d="M102.892,42.952a.661.661,0,0,0,.272-.012l5.964-1.535a.665.665,0,0,0-.33-1.288l-5.965,1.535a.665.665,0,0,0,.059,1.3" transform="translate(18.403 -0.95)"/>
            <path id="Path_184640" data-name="Path 184640" d="M107.01,45.787a.664.664,0,0,0,.744-.844l-.854-2.884a.664.664,0,0,0-1.274.377l.854,2.885a.664.664,0,0,0,.53.467" transform="translate(17.065 -0.986)"/>
            <path id="Path_184641" data-name="Path 184641" d="M89.642,317.781l-6.176,23.786h44.842l.456-5.142c.579-6.518-4.511-11.412-11.455-12.434L110.4,324l-8.889,1.818Z" transform="translate(17.644 -7.533)" fill="#ffc849"/>
            <path id="Path_184642" data-name="Path 184642" d="M104.951,325.252l5.672-4.751c1.73-1.449.208-3.443-2.809-3.681l-8.377-.659c-2.7-.212-4.994,1.134-4.587,2.693l1.871,7.151Z" transform="translate(24.034 -7.494)" fill="#ffc849"/>
            <path id="Path_184643" data-name="Path 184643" d="M97.583,327a.345.345,0,0,0,.1-.015l9.376-2.814a.348.348,0,0,0-.2-.667l-6.71,2.014,6.989-4.194a.348.348,0,0,0-.293-.628l-13.787,4.764a.349.349,0,1,0,.227.659l10.63-3.674L97.4,326.349a.348.348,0,0,0,.18.646" transform="translate(30.011 -7.601)"/>
            <path id="Path_184644" data-name="Path 184644" d="M161.519,317.781l5.744,23.786h-41.7l-.424-5.142c-.537-6.518,4.2-11.412,10.652-12.434l6.424.013,8.266,1.818Z" transform="translate(-61.455 -7.533)" fill="#ffc849"/>
            <path id="Path_184645" data-name="Path 184645" d="M149.835,325.252l-5.713-4.751c-1.743-1.449-.21-3.443,2.829-3.681l8.437-.659c2.719-.212,5.03,1.134,4.62,2.693l-1.884,7.151Z" transform="translate(-72.104 -7.494)" fill="#ffc849"/>
            <path id="Path_184646" data-name="Path 184646" d="M129.935,337.712h37.39a.351.351,0,1,0,0-.7h-37.39a.351.351,0,1,0,0,.7" transform="translate(-66.249 -7.988)"/>
            <path id="Path_184647" data-name="Path 184647" d="M157.306,327a.41.41,0,0,0,.357-.191.323.323,0,0,0-.131-.444l-6.518-3.883L161.6,326.11a.42.42,0,0,0,.519-.2.335.335,0,0,0-.226-.452L148.008,320.7a.424.424,0,0,0-.5.161.321.321,0,0,0,.127.45l7.018,4.18-6.661-1.984a.416.416,0,0,0-.509.216.339.339,0,0,0,.249.442l9.444,2.814a.46.46,0,0,0,.13.019" transform="translate(-78.175 -7.601)"/>
            <path id="Path_184648" data-name="Path 184648" d="M124.026,302.737a.488.488,0,0,0,.127-.96l-45.19-12.087a.489.489,0,1,0-.253.944L123.9,302.72a.521.521,0,0,0,.127.017" transform="translate(26.936 -6.866)"/>
            <path id="Path_184649" data-name="Path 184649" d="M129.5,295.923a.481.481,0,0,0,.082-.007l46.054-7.747a.489.489,0,0,0,.4-.563.484.484,0,0,0-.563-.4l-46.054,7.748a.488.488,0,0,0,.08.969" transform="translate(-74.048 -6.808)"/>
            <path id="Path_184650" data-name="Path 184650" d="M99.356,217.383a.487.487,0,0,0,.473-.368l7.088-27.946a.488.488,0,0,0-.947-.24l-7.087,27.946a.487.487,0,0,0,.352.593.474.474,0,0,0,.121.016" transform="translate(24.485 -4.467)"/>
            <path id="Path_184651" data-name="Path 184651" d="M142.761,217.446l.05,0a.487.487,0,0,0,.436-.535l-2.569-25.352a.493.493,0,0,0-.535-.435.488.488,0,0,0-.436.535l2.569,25.352a.489.489,0,0,0,.485.438" transform="translate(-51.702 -4.53)"/>
            <path id="Path_184652" data-name="Path 184652" d="M54.87,167.4S42.676,178.469,40.9,210.14l9.864-5.74,4.1-12.457Z" transform="translate(133.137 -3.968)" fill="#fff"/>
            <path id="Path_184653" data-name="Path 184653" d="M40.883,211.092a.977.977,0,0,0,.974-.922c.9-16.111,4.568-26.7,7.485-32.742,3.154-6.536,6.134-9.308,6.163-9.334a.976.976,0,0,0-1.314-1.444c-.511.463-12.511,11.706-14.285,43.411a.977.977,0,0,0,.921,1.029l.056,0" transform="translate(133.159 -3.944)" fill="#ffb6c8"/>
            <path id="Path_184654" data-name="Path 184654" d="M106.752,136.337l17.37,2.108,4.743-28.777-19.835-2.407Z" transform="translate(-5.146 -2.542)" fill="#fd521b"/>
            <rect id="Rectangle_45363" data-name="Rectangle 45363" width="23.136" height="2.804" transform="matrix(-0.993, -0.12, 0.12, -0.993, 125.285, 107.315)"/>
            <path id="Path_184655" data-name="Path 184655" d="M127.759,110.194a.42.42,0,0,0,.416-.368l.338-2.783a.419.419,0,0,0-.365-.467L105.18,103.79a.41.41,0,0,0-.309.085.426.426,0,0,0-.157.279l-.338,2.783a.419.419,0,0,0,.365.467l22.967,2.786a.285.285,0,0,0,.05,0m-.128-2.837-.236,1.952-22.137-2.686.237-1.953Z" transform="translate(-2.475 -2.46)"/>
            <rect id="Rectangle_45364" data-name="Rectangle 45364" width="17.369" height="2.804" transform="translate(122.76 104.184) rotate(-173.081)"/>
            <path id="Path_184656" data-name="Path 184656" d="M124.62,107a.416.416,0,0,0,.258-.09.421.421,0,0,0,.157-.278l.338-2.783a.419.419,0,0,0-.365-.467l-17.242-2.092a.4.4,0,0,0-.309.086.414.414,0,0,0-.157.278l-.338,2.784a.418.418,0,0,0,.365.466L124.569,107a.282.282,0,0,0,.051,0m-.13-2.837-.235,1.952-16.412-1.992.236-1.952Z" transform="translate(-1.859 -2.401)"/>
            <path id="Path_184657" data-name="Path 184657" d="M107.848,126.046l.945-12.068,19.28,2.34L126.1,128.261Z" transform="translate(-5.423 -2.702)" fill="#fff"/>
            <path id="Path_184658" data-name="Path 184658" d="M101.557,111.191l10.935,2.281a3.265,3.265,0,0,1,2.439,4.079,3.5,3.5,0,0,1-4.283,2.564L99.93,117.045a2.9,2.9,0,0,1-1.885-3.759,3.093,3.093,0,0,1,3.512-2.1" transform="translate(17.336 -2.634)" fill="#e5826e"/>
            <path id="Path_184659" data-name="Path 184659" d="M100.608,123.146l12.872,3.488a3.228,3.228,0,0,0,3.638-1.661l.149-.277a3.075,3.075,0,0,0-1.824-4.524l-13.021-3.212a3.264,3.264,0,0,0-3.784,2.153,3.043,3.043,0,0,0,1.969,4.033" transform="translate(14.158 -2.77)" fill="#e5826e"/>
            <path id="Path_184660" data-name="Path 184660" d="M102.24,125.717h0A2.817,2.817,0,0,1,105.5,124l8.656,2a2.816,2.816,0,0,1,2.162,3.081l-.086.714a2.816,2.816,0,0,1-3.644,2.345l-8.57-2.71a2.815,2.815,0,0,1-1.773-3.709" transform="translate(11.981 -2.937)" fill="#e5826e"/>
            <path id="Path_184661" data-name="Path 184661" d="M104.8,131.217h0a2.438,2.438,0,0,1,2.628-1.2l7.109,1.79a2.1,2.1,0,0,1,1.4,2.758l-.243.781a2.46,2.46,0,0,1-3.087,1.692l-6.866-2.57a2.192,2.192,0,0,1-.938-3.246" transform="translate(9.927 -3.08)" fill="#e5826e"/>
            <path id="Path_184662" data-name="Path 184662" d="M118.185,120.314l0-.015a.271.271,0,0,0-.325-.2,4.862,4.862,0,0,1-1.92-.109l-11.383-3.118a4.63,4.63,0,0,0-3.25.5,3.033,3.033,0,0,0-1.258,2.139c-.557,3.525,4.373,4.581,4.681,4.643l6.755,1.965c.509.146,3.308.819,4.038.941a.27.27,0,1,0,.089-.533c-.718-.121-3.475-.783-3.975-.928l-6.767-1.968a.106.106,0,0,0-.025-.006c-.048-.009-4.752-.926-4.261-4.029a2.514,2.514,0,0,1,1.029-1.778,4.125,4.125,0,0,1,2.816-.426l11.365,3.113a5.335,5.335,0,0,0,2.19.116.271.271,0,0,0,.205-.31" transform="translate(12.12 -2.768)"/>
            <path id="Path_184663" data-name="Path 184663" d="M116.971,132.4a.271.271,0,0,0-.222-.22c-.709-.119-4.846-1.354-5.529-1.589-.638-.22-2.751-.857-2.841-.885-.039-.012-3.956-1.244-3.192-3.789a2.068,2.068,0,0,1,2.031-1.48,5.229,5.229,0,0,1,1.648.154.271.271,0,0,0,.149-.52c-1.222-.351-3.7-.451-4.346,1.691-.734,2.449,2,3.99,3.554,4.463.022.007,2.194.661,2.822.878s4.842,1.482,5.615,1.611a.269.269,0,0,0,.311-.222.263.263,0,0,0,0-.092" transform="translate(8.898 -2.936)"/>
            <path id="Path_184664" data-name="Path 184664" d="M115.715,113.348a.272.272,0,0,0-.205-.217c-.069-.017-6.988-1.629-9.811-2.258-2.974-.664-5.055.21-5.71,2.4a3.463,3.463,0,0,0,1.738,3.957.271.271,0,0,0,.25-.48,2.875,2.875,0,0,1-1.469-3.321c.571-1.907,2.373-2.625,5.074-2.023,2.82.629,9.737,2.241,9.806,2.257a.271.271,0,0,0,.328-.31" transform="translate(14.751 -2.623)"/>
            <path id="Path_184665" data-name="Path 184665" d="M3.108,177.6H224.864a2.486,2.486,0,0,0,2.487-2.487v-7.33a2.486,2.486,0,0,0-2.487-2.487H3.108a2.486,2.486,0,0,0-2.487,2.487v7.33A2.486,2.486,0,0,0,3.108,177.6" transform="translate(-0.016 -3.918)" fill="#fff"/>
            <path id="Path_184666" data-name="Path 184666" d="M2.148,178.551H225.792c1.185,0,2.149-1.553,2.149-3.463v-7.33c0-1.91-.964-3.463-2.149-3.463H2.148C.964,164.295,0,165.848,0,167.758v7.33c0,1.91.964,3.463,2.148,3.463m223.644-12.3c.516,0,.937.678.937,1.51v7.33c0,.832-.421,1.51-.937,1.51H2.148c-.516,0-.936-.679-.936-1.51v-7.33c0-.833.42-1.51.936-1.51Z" transform="translate(0 -3.894)" fill="#5774cd"/>
            <rect id="Rectangle_45365" data-name="Rectangle 45365" width="3.579" height="165.06" transform="translate(191.81 173.583)" fill="#fff"/>
            <path id="Path_184667" data-name="Path 184667" d="M33.332,343.714H36.91c.261,0,.472-.393.472-.879V177.775c0-.485-.211-.879-.472-.879H33.332c-.261,0-.472.393-.472.879V342.835c0,.485.211.879.472.879m3.108-1.757H33.8v-163.3h2.637Z" transform="translate(158.479 -4.193)" fill="#5774cd"/>
            <rect id="Rectangle_45366" data-name="Rectangle 45366" width="3.579" height="165.06" transform="translate(44.856 173.583)" fill="#fff"/>
            <path id="Path_184668" data-name="Path 184668" d="M183.853,343.714h3.579c.26,0,.471-.393.471-.879V177.775c0-.485-.211-.879-.471-.879h-3.579c-.26,0-.471.393-.471.879V342.835c0,.485.211.879.471.879m3.108-1.757h-2.637v-163.3h2.637Z" transform="translate(-138.997 -4.193)" fill="#5774cd"/>
            <path id="Path_184669" data-name="Path 184669" d="M105.511,150.656l47.857,14.078H86.794s14.112-14.389,18.717-14.078" transform="translate(-10.163 -3.571)" fill="#ffc849"/>
            <path id="Path_184670" data-name="Path 184670" d="M158.251,150.964s-.07-3.625-3-2.4-1.591,2.179-4.158,3.812-6.612.609-7.319,3-.853,5.63-3.51,5.8-4.528.473-3.337,1.857a5.874,5.874,0,0,0,3.337,1.643s14.806-13.357,17.987-13.715" transform="translate(-63.633 -3.516)" fill="#ff8349"/>
            <path id="Path_184671" data-name="Path 184671" d="M129.4,161.815c0,.565,1.4,1.024,3.129,1.024s3.13-.459,3.13-1.024-1.4-1.024-3.13-1.024-3.129.459-3.129,1.024" transform="translate(-34.055 -3.811)" fill="#ff8349"/>
            <path id="Path_184672" data-name="Path 184672" d="M129.4,156.185c0,.565,1.4,1.024,3.129,1.024s3.13-.459,3.13-1.024-1.4-1.024-3.13-1.024-3.129.459-3.129,1.024" transform="translate(-34.055 -3.678)" fill="#ff8349"/>
            <path id="Path_184673" data-name="Path 184673" d="M112.9,160.766c0,.565,1.4,1.024,3.129,1.024s3.13-.459,3.13-1.024-1.4-1.024-3.13-1.024-3.129.459-3.129,1.024" transform="translate(-1.44 -3.786)" fill="#ff8349"/>
            <path id="Path_184674" data-name="Path 184674" d="M141.742,162.864c0,.565,1.4,1.024,3.129,1.024s3.13-.459,3.13-1.024-1.4-1.024-3.13-1.024-3.129.459-3.129,1.024" transform="translate(-58.442 -3.836)" fill="#ff8349"/>
            <path id="Path_184675" data-name="Path 184675" d="M138.493,158.812c0,.565,1.4,1.024,3.129,1.024s3.13-.459,3.13-1.024-1.4-1.024-3.13-1.024-3.129.459-3.129,1.024" transform="translate(-52.021 -3.74)" fill="#ff8349"/>
            <path id="Path_184676" data-name="Path 184676" d="M103,162.864c0,.565,1.4,1.024,3.129,1.024s3.13-.459,3.13-1.024-1.4-1.024-3.13-1.024S103,162.3,103,162.864" transform="translate(18.127 -3.836)" fill="#ff8349"/>
          </g>
        </g>
      </g>
    </g>
  </g>
</svg>
