<svg xmlns="http://www.w3.org/2000/svg" xmlns:xlink="http://www.w3.org/1999/xlink" width="89" height="85" viewBox="0 0 89 85">
  <defs>
    <clipPath id="clip-path">
      <rect id="Rectangle_45278" data-name="Rectangle 45278" width="61.603" height="67.868" fill="none"/>
    </clipPath>
  </defs>
  <g id="_23" data-name="23" transform="translate(-698 -4457)">
    <g id="Group_165391" data-name="Group 165391" transform="translate(698 4457)">
      <rect id="Rectangle_40797" data-name="Rectangle 40797" width="89" height="85" rx="15" fill="#ffd947"/>
    </g>
    <g id="Group_174984" data-name="Group 174984" transform="translate(712 4466)">
      <g id="Group_174984-2" data-name="Group 174984" transform="translate(0 0)" clip-path="url(#clip-path)">
        <path id="Path_183133" data-name="Path 183133" d="M6.428,67.868a2.38,2.38,0,0,1-1.461-2.594c.059-.813,0-1.634.016-2.451a1.886,1.886,0,0,1,1.5-1.927c.43-.093.443-.287.441-.619-.008-2.209,0-4.417,0-6.626V32.394c-.291-.023-.373.194-.5.316a3.737,3.737,0,1,1-5.222-5.345q8.294-8.1,16.616-16.174L27.971,1.305a3.732,3.732,0,0,1,5.669,0Q38.678,6.2,43.71,11.092c.2-.04.133-.2.133-.317.006-1.082,0-2.164.008-3.246,0-.3-.039-.452-.407-.51a1.852,1.852,0,0,1-1.717-1.933c-.038-1.037-.039-2.077,0-3.113A1.946,1.946,0,0,1,43.793.02q4.7-.013,9.407,0a1.973,1.973,0,0,1,2.105,2.051q.023,1.457,0,2.915a1.892,1.892,0,0,1-1.757,2.036c-.339.053-.375.188-.369.463.013.6.009,1.192,0,1.788a.992.992,0,0,1-.765,1.088c-.828.2-1.1.043-1.368-.8-.031-.594-.02-1.19-.012-1.785.005-.38-.118-.569-.531-.566-1.3.008-2.6.016-3.9.013-.446,0-.634.209-.634.647,0,1.543,0,3.087,0,4.63a1.425,1.425,0,0,0,.533,1.022c1.467,1.463,2.9,2.956,4.512,4.328.036-1.317,0-2.623.031-3.928.268-.846.535-1,1.374-.808a1.022,1.022,0,0,1,.763,1.155c0,1.81.012,3.621-.009,5.431a1.276,1.276,0,0,0,.428,1.033c2.26,2.171,4.5,4.367,6.749,6.546A3.716,3.716,0,0,1,61.595,30.3a3.73,3.73,0,0,1-6.111,2.663c-.237-.188-.45-.405-.679-.614-.19.194-.1.4-.1.586q-.008,13.611-.013,27.221c0,.445.053.68.572.8a1.8,1.8,0,0,1,1.371,1.81c.023,1.06.018,2.12,0,3.179a2.18,2.18,0,0,1-1.444,1.929Z" transform="translate(0 0)"/>
        <path id="Path_183134" data-name="Path 183134" d="M81.287,17.348c-.624-.053-1.088.137-1.228.814a20.068,20.068,0,0,0-.051,2.045c-.008.162.092.387-.123.464-.178.064-.338-.075-.466-.2a22.777,22.777,0,0,1-1.72-1.741,1.936,1.936,0,0,1-.464-1.281c-.011-1.787-.014-3.574,0-5.361.007-.7.081-.752.758-.755.463,0,.929.031,1.389-.009.481-.041.668.092.641.611a8.345,8.345,0,0,0,.034,1.845c.142.672.6.86,1.224.809a.477.477,0,0,0-.265.469c.019.607.021,1.215,0,1.821a.5.5,0,0,0,.27.465" transform="translate(-28.867 -4.232)" fill="#695d67"/>
        <path id="Path_183135" data-name="Path 183135" d="M41.658,18.77c1.8,1.728,3.6,3.45,5.389,5.187Q53.674,30.4,60.3,36.841a1.374,1.374,0,0,1,.468,1.087q-.021,14.61.006,29.219c0,.607-.173.711-.734.709q-10.863-.029-21.727,0c-.612,0-.709-.182-.708-.737q.026-12.953.012-25.906c0-1.8-.567-2.364-2.377-2.364-1.237,0-2.473,0-3.71,0-.817,0-1.057.2-1.3,1.015a3.057,3.057,0,0,1-2.616-.083,1.067,1.067,0,0,0-1.224-.936c-1.584.011-3.167.011-4.752.016-.288-.438.065-.727.295-.973a39.248,39.248,0,0,1,2.909-2.883c.167-.145.343-.277.5-.436,2.775-2.867,5.687-5.593,8.544-8.376,2.445-2.382,4.847-4.809,7.354-7.128a1.16,1.16,0,0,1,.428-.3" transform="translate(-8.045 -7.016)" fill="#deeaf9"/>
        <path id="Path_183136" data-name="Path 183136" d="M38.923,17.185A12.283,12.283,0,0,1,37,19.172c-.56.5-1.1,1.016-1.631,1.539-2.628,2.576-5.209,5.2-7.89,7.72-1.654,1.555-3.193,3.227-4.874,4.75-1.062.962-2.063,1.984-3.084,2.986a1.518,1.518,0,0,0-.622,1.113,1.966,1.966,0,0,0-1.378,2.135c.02,8.7,0,17.4.026,26.106,0,.622-.172.792-.768.749a19.591,19.591,0,0,0-2.118-.005c-.354.013-.483-.115-.443-.455a2.772,2.772,0,0,0,0-.331q0-14.544-.011-29.088a1.449,1.449,0,0,1,.481-1.15Q25.219,25.024,35.723,14.778c.286-.279.453-.369.774-.027.783.835,1.614,1.626,2.427,2.434" transform="translate(-5.31 -5.431)" fill="#b0dafb"/>
        <path id="Path_183137" data-name="Path 183137" d="M28.961,61.784c3.092-.028,6.183-.072,9.274.023a1.175,1.175,0,0,1,.065.647q0,10.327,0,20.654c0,.748,0,.749-.748.749q-4,0-8.008,0c-.683,0-.753-.069-.794-.738-.011-.176-.007-.353-.007-.529q0-9.8,0-19.595a1.759,1.759,0,0,1,.212-1.21" transform="translate(-10.743 -23.082)" fill="#aa6b51"/>
        <path id="Path_183138" data-name="Path 183138" d="M32.918,8.236c-.833-.633-1.159-.608-1.928.14Q18.717,20.317,6.445,32.259A2.28,2.28,0,0,1,5.225,33,1.739,1.739,0,0,1,3.733,30.03c1.394-1.385,2.807-2.752,4.215-4.122L30.406,4.059c1.2-1.17,2-1.169,3.212.021.629.617,1.247,1.247,1.869,1.87a22.184,22.184,0,0,0-1.78,1.507,3.459,3.459,0,0,1-.789.778" transform="translate(-1.193 -1.19)" fill="#fe4756"/>
        <path id="Path_183139" data-name="Path 183139" d="M19.009,100.333c.22-.009.44-.027.66-.027q20.622,0,41.243-.014c.592,0,.818.131.761.752a15.7,15.7,0,0,0-.008,1.919c.011.323-.111.443-.42.406a2.333,2.333,0,0,0-.265,0H19.605c-.2,0-.4-.014-.594-.023a4.49,4.49,0,0,1,0-3.013" transform="translate(-7.009 -37.489)" fill="#43ca8d"/>
        <path id="Path_183140" data-name="Path 183140" d="M50.663,9.887A5.706,5.706,0,0,1,53.232,7.6c2.065,1.989,4.136,3.971,6.192,5.969q9.138,8.883,18.266,17.775a2.16,2.16,0,0,1,.855,1.505,1.737,1.737,0,0,1-3,1.288c-1.07-1.02-2.123-2.058-3.183-3.089Q61.643,20.617,50.921,10.183c-.093-.091-.172-.2-.258-.3" transform="translate(-18.938 -2.842)" fill="#fe656f"/>
        <path id="Path_183141" data-name="Path 183141" d="M26.7,61.784c0,7.068.009,14.137-.013,21.2,0,.626.146.828.8.818q3.842-.056,7.685,0c.625.009.82-.143.817-.795-.023-7.068-.013-14.137-.012-21.2.2.177.109.414.109.621.006,6.934,0,13.869.016,20.8,0,.546-.138.707-.7.7q-6.028-.039-12.055-.009c-.532,0-.661-.158-.659-.671q.023-10.4,0-20.8c0-.553.151-.723.7-.7,1.1.046,2.207.026,3.31.033" transform="translate(-8.48 -23.082)" fill="#955a44"/>
        <path id="Path_183142" data-name="Path 183142" d="M30.309,52.331a18.22,18.22,0,0,0,2.614.083,1.144,1.144,0,0,0,1.339.978c1.19-.03,2.383-.01,3.574-.006.211,0,.5-.06.487.279a11.652,11.652,0,0,1-.08,2.489.9.9,0,0,1-.515.061q-4.092,0-8.181,0c-.674,0-.754-.075-.787-.741-.021-.417,0-.836-.006-1.254-.006-.51.147-.864.74-.832a1.058,1.058,0,0,0,.814-1.057" transform="translate(-10.747 -19.561)" fill="#bb7b62"/>
        <path id="Path_183143" data-name="Path 183143" d="M78.529,13.749a4.748,4.748,0,0,1-.1-1.819c-.01-.425-.128-.6-.567-.569a9.656,9.656,0,0,1-1.386,0c-.484-.038-.591.174-.586.615.019,1.828.016,3.656,0,5.483a1.619,1.619,0,0,0,.431,1.143c.626.678,1.286,1.324,2,2.055.236-.9-.088-1.745.2-2.528v4.386c-.666-.618-1.251-1.14-1.813-1.684-1.06-1.028-2.1-2.078-3.162-3.1a1.231,1.231,0,0,1-.423-.981c.021-1.608.025-3.217,0-4.826-.008-.511.136-.7.672-.687,1.388.031,2.777.024,4.164-.007.474-.011.615.152.589.606-.036.637-.02,1.277-.026,1.916" transform="translate(-27.336 -4.197)" fill="#544e55"/>
        <path id="Path_183144" data-name="Path 183144" d="M73.946,3.213c2.14-.007,4.281-.005,6.42-.029.4,0,.477.162.467.511-.02.684-.019,1.369,0,2.053.009.344-.059.522-.464.517C78.184,6.24,76,6.24,73.815,6.23a5.328,5.328,0,0,1-.1-2.8c.014-.11.132-.165.229-.217" transform="translate(-27.503 -1.19)" fill="#7a6b78"/>
        <path id="Path_183145" data-name="Path 183145" d="M16.154,100.339l0,3.013c-1.54.008-3.08.009-4.62.028-.306,0-.432-.088-.425-.41q.027-1.122,0-2.245c-.007-.319.114-.419.423-.415,1.54.019,3.08.021,4.62.03" transform="translate(-4.153 -37.495)" fill="#00b966"/>
        <path id="Path_183146" data-name="Path 183146" d="M27.223,54.011a.637.637,0,0,0-.537.8c.089.624-.266,1.43.153,1.842.389.382,1.178.11,1.789.114,2.448.016,4.9.011,7.344.013-.183.188-.417.1-.626.1-3.988,0-7.977-.012-11.965.008-.542,0-.752-.13-.7-.694a12.754,12.754,0,0,0,0-1.652c-.016-.382.082-.551.508-.543,1.344.026,2.688.012,4.032.014" transform="translate(-8.475 -20.184)" fill="#aa6a51"/>
        <path id="Path_183147" data-name="Path 183147" d="M72.516,3.215a14.264,14.264,0,0,0-.13,3.017c-.723.008-1.445.006-2.168.029-.336.011-.472-.108-.463-.453.017-.723.018-1.447,0-2.17-.009-.348.126-.46.462-.45.766.023,1.533.019,2.3.027" transform="translate(-26.074 -1.191)" fill="#685c66"/>
        <path id="Path_183148" data-name="Path 183148" d="M68.526,63.869q0,5.4,0,10.8c0,1.571-.584,2.149-2.16,2.15q-6.523,0-13.046,0c-1.51,0-2.142-.619-2.142-2.118q0-10.862,0-21.726c0-1.49.65-2.131,2.143-2.132q6.556,0,13.112,0c1.452,0,2.091.639,2.092,2.1q.006,5.465,0,10.929" transform="translate(-19.129 -19.003)"/>
        <path id="Path_183149" data-name="Path 183149" d="M38.251,75.4a2.933,2.933,0,0,1-2.969,2.983A2.988,2.988,0,0,1,32.3,75.4a3.027,3.027,0,0,1,2.956-2.968,2.974,2.974,0,0,1,3,2.973" transform="translate(-12.072 -27.073)"/>
        <path id="Path_183150" data-name="Path 183150" d="M72.305,65.57c0,1.081-.013,2.161.007,3.241.007.373-.05.547-.493.539-1.587-.029-3.175-.02-4.762,0-.343,0-.455-.1-.453-.447q.02-3.34,0-6.682c0-.39.143-.481.5-.478q2.381.023,4.762,0c.353,0,.451.116.445.457-.018,1.125-.007,2.249-.007,3.374" transform="translate(-24.896 -23.078)" fill="#60b7fd"/>
        <path id="Path_183151" data-name="Path 183151" d="M72.305,80.822c0,1.08-.015,2.16.008,3.239.009.4-.064.58-.529.57-1.564-.031-3.128-.021-4.692,0-.371,0-.492-.1-.49-.483q.023-3.3,0-6.61c0-.358.076-.5.47-.5q2.378.032,4.757,0c.373,0,.49.1.482.48-.023,1.1-.008,2.2-.008,3.3" transform="translate(-24.896 -28.796)" fill="#60b7fd"/>
        <path id="Path_183152" data-name="Path 183152" d="M58.283,69.317c-1.167.008-2.334,0-3.5.031-.356.008-.445-.121-.443-.458q.017-3.338,0-6.678c0-.329.083-.478.442-.47,1.166.027,2.333.029,3.5.041a1.163,1.163,0,0,1,.205.81q.008,2.959,0,5.918a1.053,1.053,0,0,1-.2.806" transform="translate(-20.311 -23.079)" fill="#23a7fd"/>
        <path id="Path_183153" data-name="Path 183153" d="M58.282,84.594c-1.166.009-2.333.008-3.5.034-.353.008-.448-.121-.446-.458q.018-3.336,0-6.673c0-.341.1-.462.446-.455,1.166.025,2.333.023,3.5.03a1.073,1.073,0,0,1,.2.813q.011,2.948,0,5.9a1.1,1.1,0,0,1-.2.814" transform="translate(-20.311 -28.798)" fill="#23a7fd"/>
        <path id="Path_183154" data-name="Path 183154" d="M69.869,54.147a12.468,12.468,0,0,1-.021,2.665.974.974,0,0,1-.519.056q-4.136,0-8.272,0c-.68,0-.755-.075-.8-.738-.128-2.04-.128-2.04,1.876-2.04q3.507,0,7.015,0a1.639,1.639,0,0,1,.718.054" transform="translate(-22.508 -20.215)" fill="#23a6fc"/>
        <path id="Path_183155" data-name="Path 183155" d="M67.667,54.1c-2.911,0-5.822.015-8.732,0-.512,0-.73.128-.673.665a5.432,5.432,0,0,1,0,1.189c-.072.622.13.832.786.822,2.624-.037,5.248-.016,7.872-.015.242,0,.485,0,.728.007-.165.169-.376.086-.563.086-4.033,0-8.067-.009-12.1.013-.534,0-.7-.156-.656-.673a10.154,10.154,0,0,0,0-1.586c-.04-.5.137-.627.63-.624,3.725.02,7.45,0,11.175.018a3.153,3.153,0,0,1,1.535.1" transform="translate(-20.305 -20.167)" fill="#0192f9"/>
        <path id="Path_183156" data-name="Path 183156" d="M60.637,69.3q0-3.767,0-7.533c1.758-.153,1.758-.153,1.758,1.542,0,1.833-.01,3.666.008,5.5,0,.391-.081.567-.507.524s-.837-.023-1.256-.031" transform="translate(-22.665 -23.066)" fill="#5fb7fd"/>
        <path id="Path_183157" data-name="Path 183157" d="M60.637,84.591q0-3.761,0-7.522c1.756-.1,1.756-.1,1.756,1.612,0,1.808-.011,3.617.008,5.425,0,.4-.091.562-.511.52s-.835-.026-1.254-.035" transform="translate(-22.666 -28.794)" fill="#5fb7fd"/>
        <path id="Path_183158" data-name="Path 183158" d="M37.453,76.629a.969.969,0,0,1-1.024.958,1,1,0,0,1-.956-.975,1.026,1.026,0,0,1,1.006-1.005,1,1,0,0,1,.974,1.022" transform="translate(-13.26 -28.261)" fill="#dce8f7"/>
      </g>
    </g>
  </g>
</svg>
