<svg xmlns="http://www.w3.org/2000/svg" xmlns:xlink="http://www.w3.org/1999/xlink" width="89" height="85" viewBox="0 0 89 85">
  <defs>
    <clipPath id="clip-path">
      <rect id="Rectangle_45279" data-name="Rectangle 45279" width="54.342" height="58.601" fill="none"/>
    </clipPath>
  </defs>
  <g id="_24" data-name="24" transform="translate(-698 -4457)">
    <g id="Group_165391" data-name="Group 165391" transform="translate(698 4457)">
      <rect id="Rectangle_40797" data-name="Rectangle 40797" width="89" height="85" rx="15" fill="#ffd947"/>
    </g>
    <g id="Group_174985" data-name="Group 174985" transform="translate(715 4470)">
      <g id="Group_174985-2" data-name="Group 174985" clip-path="url(#clip-path)">
        <path id="Path_183159" data-name="Path 183159" d="M85.856,0a7.421,7.421,0,0,0,1.759.268c5.522.871,9.006,4.171,10.918,9.253a13.8,13.8,0,0,1,.5,8.911,7.4,7.4,0,0,1-1.353,2.54,4.234,4.234,0,0,1,2.492,2.744,5.338,5.338,0,0,1-4.11,6.473,1.678,1.678,0,0,0-1.315.992,23.7,23.7,0,0,1-5.56,6.688c-.209.177-.389.318-.344.648q.23,1.67.4,3.347a.468.468,0,0,0,.395.461c.658.188,1.315.383,1.966.592a.428.428,0,0,0,.572-.146,2.137,2.137,0,0,1,2.415-.724c1.388.4,2.782.791,4.149,1.258a10.539,10.539,0,0,1,7.391,8.89c.27,1.634.577,3.261.867,4.891.007.037.018.074.025.112.137.771-.053,1.22-.576,1.362s-.895-.175-1.129-.924a5.39,5.39,0,0,1-.463-1.923c-.234-1.254-.436-2.514-.687-3.764a8.556,8.556,0,0,0-6-6.857c-1.156-.389-2.326-.734-3.5-1.076-1-.292-1.161-.159-1.205.9,0,.076,0,.152,0,.229q-.163,1.924-.493,3.825A1.113,1.113,0,0,1,91.759,50c-.693-.331-.871-.591-.787-1.337.115-1.022.281-2.037.406-3.058.083-.675.033-.768-.63-.992q-.135-.046-.272-.087c-.787-.238-.786-.238-1.137.5a1.077,1.077,0,0,1-.145.176c-1.091,2.86-3.351,4.1-6.228,4.456-.435.053-.559.168-.555.607.023,2.344.011,4.688.01,7.032a3.336,3.336,0,0,1-.011.514.853.853,0,0,1-1.7.007,2.783,2.783,0,0,1-.01-.457q0-23.869,0-47.738c0-.8.129-.989.78-1.182a.834.834,0,0,1,1.064.779,6.556,6.556,0,0,1,.035,1.14c0,.762.015,1.524,0,2.285a.619.619,0,0,0,.611.724,27.029,27.029,0,0,0,3.867.323,11.334,11.334,0,0,1,3.879.595A8.538,8.538,0,0,1,95.7,18.411c.176.4.307.814.475,1.247.267-.079.356-.3.469-.482a6.488,6.488,0,0,0,.956-3.086A13.748,13.748,0,0,0,93.275,4.84a8.844,8.844,0,0,0-3.888-2.217,20.064,20.064,0,0,0-6.257-.735c-.394,0-.538.185-.538.559,0,.8,0,1.6,0,2.393a2.473,2.473,0,0,1-.051.623.829.829,0,0,1-1.166.626.836.836,0,0,1-.671-.919c0-1.231,0-2.462,0-3.694A1.639,1.639,0,0,1,81.733,0h.573a11.025,11.025,0,0,0,1.767.059c.25-.028.509.06.752-.059h.458a.148.148,0,0,0,.229,0Z" transform="translate(-52.722)"/>
        <path id="Path_183160" data-name="Path 183160" d="M87.175.107A5.869,5.869,0,0,1,85.335,0h1.833c.036.021.049.045.039.069s-.021.038-.032.038" transform="translate(-55.751)" fill="#111"/>
        <path id="Path_183161" data-name="Path 183161" d="M90.628.107c0-.036-.006-.071-.007-.107h.687c-.2.219-.453.073-.68.107" transform="translate(-59.204)" fill="#2b2b2b"/>
        <path id="Path_183162" data-name="Path 183162" d="M94.153,0c-.076.168-.153.15-.229,0Z" transform="translate(-61.362)" fill="#818181"/>
        <path id="Path_183163" data-name="Path 183163" d="M8.5,10.287c-.713-.359-.862-.733-.512-1.412a8.644,8.644,0,0,1,7.944-5.137,4.681,4.681,0,0,1,1.748.238.983.983,0,0,0,1.143-.3A13.427,13.427,0,0,1,24.178.606a1.459,1.459,0,0,1,2.084,1.526q0,27.822.006,55.645c0,.529-.114.971-.677,1.106-.54.13-.856-.193-1.056-.657a1.2,1.2,0,0,1-.149-.823c0-2.168,0-4.336,0-6.5,0-.68-.006-.675-.664-.789a7.923,7.923,0,0,1-4.62-2.288,5.954,5.954,0,0,1-1.375-2.4c-.238-.782-.23-.785-1.031-.559-1.249.376-1.059.309-.9,1.4a54.682,54.682,0,0,0,2.894,10.979,1.235,1.235,0,0,1,.04,1.1c-.568.823-1.19.779-1.717-.122a1.2,1.2,0,0,1-.372-.63,56.7,56.7,0,0,1-2.98-11.844c-.042-.34-.036-.684-.092-1.024-.072-.441-.309-.57-.727-.482a14.577,14.577,0,0,0-1.539.446,20.184,20.184,0,0,0-4.082,1.469,8.815,8.815,0,0,0-4.392,6.558c-.253,1.6-.568,3.19-.849,4.785a.894.894,0,0,1-.225.573c-.03.07-.064.138-.088.21a.8.8,0,0,1-1.017.6.8.8,0,0,1-.626-1c.291-1.688.607-3.372.886-5.062A12.947,12.947,0,0,1,2.024,49,10.614,10.614,0,0,1,8.39,43.61c1.316-.44,2.66-.8,3.988-1.2a2.2,2.2,0,0,1,2.563.727.394.394,0,0,0,.526.139c.649-.217,1.306-.416,1.967-.59a.457.457,0,0,0,.4-.46q.182-1.676.4-3.347a.541.541,0,0,0-.244-.526c-.56-.489-1.118-.981-1.654-1.5-.564-.542-.558-.917-.025-1.512.466-.355.8-.337,1.3.124.575.528,1.111,1.1,1.732,1.577a12.111,12.111,0,0,0,4.222,2.225c.721.2.811.13.813-.6,0-1.01-.01-2.02.006-3.03A.541.541,0,0,0,23.849,35a3.712,3.712,0,0,1-2.6-1.6.962.962,0,0,1,.005-1.308,1.022,1.022,0,0,1,1.2-.23,1.622,1.622,0,0,1,.512.448,1.942,1.942,0,0,0,.956.6c.287.079.446-.019.453-.324q.018-.8,0-1.6c-.008-.314-.231-.406-.479-.483a1.169,1.169,0,0,1-.736-.5.971.971,0,0,1,.632-1.48c.564-.079.6-.356.6-.8q-.011-6.031,0-12.062a.665.665,0,0,0-.467-.79,18.516,18.516,0,0,1-2.594-1.4c-.381-.275-.761-.551-1.129-.845-.728-.57-.724-.568-1.1.276A9.089,9.089,0,0,1,15.464,17.1a5.412,5.412,0,0,0-2.8,5.08,27.931,27.931,0,0,0,.076,3.36,23.932,23.932,0,0,0,.223,2.384,9.689,9.689,0,0,0,1.58,3.823,4.674,4.674,0,0,1,.513.823c.149.364.239.737-.159,1.024-.671.464-1.065.4-1.534-.261a13.5,13.5,0,0,1-1.373-2.3.658.658,0,0,0-.575-.434,5.4,5.4,0,0,1-4.64-5.881,4.016,4.016,0,0,1,1.855-3.007c.176-.12.361-.173.138-.454a10.5,10.5,0,0,1-2.024-6.7c0-.381.022-.762.046-1.142.043-.666.319-.919,1.018-.95.578.088.791.3.833.88.04.551.019,1.1.013,1.656A8.9,8.9,0,0,0,9.747,19.4a3.089,3.089,0,0,0,.914,1.059c.181-.071.16-.226.186-.345a6.823,6.823,0,0,1,3.394-4.6c2.036-1.18,2.979-3.082,3.682-5.179a1.052,1.052,0,0,0,.047-.452C17.837,8.69,17.713,7.5,17.614,6.3c-.033-.4-.324-.534-.664-.591a6.38,6.38,0,0,0-4.4.805,7.393,7.393,0,0,0-2.86,3.113c-.35.681-.624.82-1.181.656" transform="translate(0 -0.326)"/>
        <path id="Path_183164" data-name="Path 183164" d="M48.166,38.081q.008,6.489.015,12.978a.843.843,0,0,1-.034.165,2.464,2.464,0,0,0-.622-.066.794.794,0,0,0-.738.749.739.739,0,0,0,.605.9c.79.08.857.529.8,1.157a8.536,8.536,0,0,0,0,1.371c.026.37-.139.415-.434.352a2.208,2.208,0,0,1-1.343-.8c-.414-.527-.911-.632-1.321-.311-.428.335-.444.821-.036,1.362A3.627,3.627,0,0,0,47.789,57.4c.325.026.406.122.4.433-.016,1.3-.031,2.593.006,3.888.013.465-.205.435-.507.374a10.756,10.756,0,0,1-4.078-1.848,16.89,16.89,0,0,1-2.43-2.078,1,1,0,0,0-1.23-.289,12.5,12.5,0,0,0-1.412-1.747,1.1,1.1,0,0,0-.167-1.308,10.419,10.419,0,0,1-2.118-6.752,14.534,14.534,0,0,1-.009-2.787,6.461,6.461,0,0,1,1.068-2.374,7.49,7.49,0,0,1,2.5-2.756,7.7,7.7,0,0,0,2.874-3.877c.112-.283.2-.575.339-.846.2-.4.493-.573.928-.334l1.036.767a19.052,19.052,0,0,0,2.282,1.552c.317.193.7.3.9.659" transform="translate(-23.639 -22.863)" fill="#f1d0a4"/>
        <path id="Path_183165" data-name="Path 183165" d="M5.049,140.037a53.578,53.578,0,0,1,1.326-7.054,8.561,8.561,0,0,1,5.907-5.795c1.263-.416,2.545-.779,3.821-1.156.591-.174.836-.05.888.506a54.244,54.244,0,0,0,3.3,13.533.483.483,0,0,1,.014.113q-7.269.006-14.538.014a2,2,0,0,1-.719-.162" transform="translate(-3.299 -82.292)" fill="#f4dd46"/>
        <path id="Path_183166" data-name="Path 183166" d="M96.88,21.766a8.6,8.6,0,0,0-7.23-4.594,43.051,43.051,0,0,1-5.289-.422c-.477-.1-.708-.235-.682-.787.051-1.083.02-2.171.013-3.256,0-.69-.251-.951-.936-1.033a4.827,4.827,0,0,0-.109-2.353c.8-.016,1.042-.266,1.046-1.072,0-.972,0-1.944,0-2.916,0-.191-.03-.383.272-.384a21.282,21.282,0,0,1,6.729.741.521.521,0,0,1,.1.057,10.375,10.375,0,0,1,4.435,4.07,14.616,14.616,0,0,1,2.413,6.658,11.309,11.309,0,0,1-.294,4.814c-.07.209-.051.577-.468.478" transform="translate(-53.995 -3.232)" fill="#7a6d79"/>
        <path id="Path_183167" data-name="Path 183167" d="M109.412,134.759c.771-.043,1.007-.26,1.119-1.065.171-1.236.33-2.473.494-3.709a.316.316,0,0,1,.221-.033,16.086,16.086,0,0,1,5.777,2.344,10.021,10.021,0,0,1,3.856,6.635c.156.938.345,1.87.5,2.808.073.458.217.756.754.686a.471.471,0,0,1,.466.155.91.91,0,0,1-.556.074q-7.1,0-14.2-.007c-.121-.223.018-.4.105-.588a23.258,23.258,0,0,0,1.271-3.48,1.4,1.4,0,0,0-.347-1.656,4.325,4.325,0,0,1,.542-2.164" transform="translate(-70.424 -84.895)" fill="#f4dd46"/>
        <path id="Path_183168" data-name="Path 183168" d="M23.229,19.606c.567.042.845-.292,1.082-.756a7.04,7.04,0,0,1,5.248-4,6.017,6.017,0,0,1,2.386.064.612.612,0,0,1,.541.615c.11,1.213.241,2.425.359,3.637a.994.994,0,0,1-.015.4c-.717,2.169-1.647,4.161-3.769,5.385A6.686,6.686,0,0,0,25.61,30.1a2.641,2.641,0,0,1-1.217-1.2A9.521,9.521,0,0,1,23.2,24.02c0-.362,0-.726.034-1.085a.962.962,0,0,0-.7-1.14c.147-.024.211-.1.244-.256.137-.647.3-1.289.447-1.932" transform="translate(-14.725 -9.645)" fill="#7a6d79"/>
        <path id="Path_183169" data-name="Path 183169" d="M128.681,139.978c-.394-.063-.908.157-1.158-.1-.232-.24-.2-.737-.279-1.122a38.184,38.184,0,0,0-.876-4.219,9.38,9.38,0,0,0-6.163-6.172c-1.023-.351-2.062-.656-3.094-.982.025-1.657.261-1.591,1.561-1.164,1.012.332,2.04.611,3.057.928A8.7,8.7,0,0,1,128.1,134.2c.372,1.9.672,3.818,1.005,5.727l-.425.047" transform="translate(-76.511 -82.293)" fill="#f2d232"/>
        <path id="Path_183170" data-name="Path 183170" d="M104.041,132.947l-.485,2.165a.317.317,0,0,1-.274.175.855.855,0,0,0-.71.723A21.558,21.558,0,0,1,101,140.267c-.128.273-.064.612-.315.833-.138-.229-.356-.235-.593-.236-.594-.005-.642-.081-.33-.612a17.738,17.738,0,0,0,1.492-3.5,31.831,31.831,0,0,0,1.405-6.3c.028-.243.085-.484.107-.727.088-.989-.246-1.374-1.241-1.448.121-.37-.006-.933.306-1.084.252-.122.706.166,1.068.278,1.055.324,1.061.326.921,1.444-.118.943-.228,1.888-.386,2.825a1,1,0,0,0,.605,1.2" transform="translate(-65.054 -83.083)" fill="#efe8e5"/>
        <path id="Path_183171" data-name="Path 183171" d="M45.847,128.109a7.13,7.13,0,0,0,.137,2.185,41.4,41.4,0,0,0,.957,5.133,24,24,0,0,0,1.925,5.235,3.1,3.1,0,0,1,.416.934c-.45.049-.917-.109-1.352.114a1.72,1.72,0,0,0-.145-.943A56.864,56.864,0,0,1,45,130.73c-.1-.581-.159-1.17-.27-1.748-.079-.409,0-.651.461-.7a4.416,4.416,0,0,0,.657-.172" transform="translate(-29.205 -83.696)" fill="#efe8e5"/>
        <path id="Path_183172" data-name="Path 183172" d="M102.759,156.067a1.377,1.377,0,0,1,.128-.827,20.063,20.063,0,0,0,1.615-4.307c.179-.711.389-.851,1.127-.854a.937.937,0,0,1,.546,1.258,23.8,23.8,0,0,1-1.631,4.465,2.28,2.28,0,0,1-.436.642c-.466.352-.933.225-1.348-.377" transform="translate(-67.125 -98.05)"/>
        <path id="Path_183173" data-name="Path 183173" d="M97.005,48.981a3.97,3.97,0,0,1,.706,2.308,34.538,34.538,0,0,1-.289,6.5,10.983,10.983,0,0,1-2.3,4.785,19.951,19.951,0,0,1-6.3,5.793A8.564,8.564,0,0,1,85.643,69.4c0-1.554,0-3.075,0-4.6,0-.25.114-.277.314-.26a2.45,2.45,0,0,1,1.629.725c.483.5.951.554,1.341.189s.359-.89-.121-1.4a3.894,3.894,0,0,0-2.692-1.213c-.354-.023-.5-.092-.477-.478.035-.551.022-1.105,0-1.657-.01-.306.038-.464.4-.534.82-.159,1.134-.543,1.016-1.1s-.5-.736-1.391-.609V46.135a1.112,1.112,0,0,1,.726.043,20.367,20.367,0,0,0,3.173.376,17.691,17.691,0,0,1,4.473.5,5.862,5.862,0,0,1,2.971,1.93" transform="translate(-55.945 -30.108)" fill="#f1d0a4"/>
        <path id="Path_183174" data-name="Path 183174" d="M90.706,122.326a3.613,3.613,0,0,1-1.486,2.02A6.2,6.2,0,0,1,86,125.528c-.282.029-.356-.043-.354-.324.018-1.843.018-3.686.024-5.529a.613.613,0,0,1,.432-.251,13.22,13.22,0,0,0,2.376-.6c.9-.275,1.36.034,1.443.962.034.379.106.754.129,1.133a1.176,1.176,0,0,0,.477.988c.144.1.28.214.177.422" transform="translate(-55.955 -77.565)" fill="#f1d0a4"/>
        <path id="Path_183175" data-name="Path 183175" d="M112.232,23.269c.287-.04.266-.306.314-.484A13.061,13.061,0,0,0,112.6,16.6a15.023,15.023,0,0,0-2.89-6.236,13.591,13.591,0,0,0-3.567-3.118A8.782,8.782,0,0,1,109.93,9.4a13.82,13.82,0,0,1,4.435,11.519,5.983,5.983,0,0,1-1.6,3.882l-.537-1.531" transform="translate(-69.347 -4.736)" fill="#685e68"/>
        <path id="Path_183176" data-name="Path 183176" d="M124.243,70.752A29.747,29.747,0,0,0,124.676,65c.008-.343.191-.3.413-.257a2.473,2.473,0,0,1,1.946,2.066,3.625,3.625,0,0,1-2.792,3.939" transform="translate(-81.17 -42.282)" fill="#f1ba87"/>
        <path id="Path_183177" data-name="Path 183177" d="M97.032,47.545a8.767,8.767,0,0,0-2.964-1.76,12.206,12.206,0,0,0-2.519-.409,26.6,26.6,0,0,1-5.593-.575,2.8,2.8,0,0,1-.265-.1c-.05-.9-.051-.887.843-.734,1.735.3,3.5.2,5.244.383a6.684,6.684,0,0,1,5.256,3.2" transform="translate(-55.972 -28.672)" fill="#f1ba87"/>
        <path id="Path_183178" data-name="Path 183178" d="M90.718,118.829c-.237-.36-.755-.5-.79-1.022-.029-.431-.116-.859-.133-1.291-.045-1.114-.376-1.368-1.421-.989a16.389,16.389,0,0,1-2.689.651c-.051-1.018-.053-1.03.9-1.217a12.625,12.625,0,0,0,3.9-1.59c.158,1.5.317,2.929.45,4.359a1.96,1.96,0,0,1-.208,1.1" transform="translate(-55.968 -74.068)" fill="#f1ba87"/>
        <path id="Path_183179" data-name="Path 183179" d="M61.124,5.847V16.572a12.205,12.205,0,0,1-3.006-1.8c-1.767-1.373-1.756-1.382-1.9-3.64A8.952,8.952,0,0,0,56.062,9.6a.993.993,0,0,1,.4-1.082,12.328,12.328,0,0,1,4.21-2.582c.108-.038.217-.072.327-.1a.4.4,0,0,1,.124.011" transform="translate(-36.603 -3.811)" fill="#7a6d79"/>
        <path id="Path_183180" data-name="Path 183180" d="M61.058,118.191c.007,1.845.007,3.69.027,5.535,0,.3-.115.338-.369.306a5.782,5.782,0,0,1-4.036-2.1,3.574,3.574,0,0,1-.735-2.68c.1-.926.229-1.848.346-2.772a.475.475,0,0,1,.433.073,12.9,12.9,0,0,0,4.036,1.487.545.545,0,0,1,.3.153" transform="translate(-36.533 -76.08)" fill="#f1cfa3"/>
        <path id="Path_183181" data-name="Path 183181" d="M43.857,33.845a.732.732,0,0,0-.885.586,9.672,9.672,0,0,1-2.288,3.892,9.053,9.053,0,0,1-1.355,1.029,7.106,7.106,0,0,0-2.121,2.631c-.287.512-.519,1.055-.8,1.572a2.036,2.036,0,0,0-.237,1.039c.012.742-.007,1.484-.013,2.226a19.733,19.733,0,0,1,.073-5.006,4.778,4.778,0,0,1,2.391-3.338,9.548,9.548,0,0,0,4.207-5.149,2.58,2.58,0,0,1,.137-.256l.89.776" transform="translate(-23.543 -21.605)" fill="#f1ba87"/>
        <path id="Path_183182" data-name="Path 183182" d="M27.156,70.77a3.689,3.689,0,0,1-2.712-3.945,2.5,2.5,0,0,1,1.943-2.073c.327-.066.382.051.381.343a37.54,37.54,0,0,0,.209,4.449c.046.392.113.782.178,1.227" transform="translate(-15.952 -42.292)" fill="#f1ba87"/>
        <path id="Path_183183" data-name="Path 183183" d="M61.756,116.339a11.231,11.231,0,0,1-4.125-1.349c-.218-.113-.428-.242-.643-.364.033-.32.066-.64.1-1.01A12.936,12.936,0,0,0,60.361,115c.148.035.3.066.445.1,1,.2,1,.2.95,1.238" transform="translate(-37.231 -74.227)" fill="#f1c494"/>
        <path id="Path_183184" data-name="Path 183184" d="M64.76,39.729a18.873,18.873,0,0,1-2.907-1.863.57.57,0,0,1-.271-.348,18.431,18.431,0,0,0,2.962,1.539c.369.133.207.428.216.672" transform="translate(-40.233 -24.511)" fill="#ecb786"/>
        <path id="Path_183185" data-name="Path 183185" d="M54.883,52.414a4.9,4.9,0,0,1,1.9.313.881.881,0,0,1,.639,1.151.854.854,0,0,1-1.183.472,4.246,4.246,0,0,0-2.635-.018c-.662.174-1.094-.009-1.247-.523-.139-.467.135-.883.732-1.1a4.745,4.745,0,0,1,1.793-.292" transform="translate(-34.183 -34.241)"/>
        <path id="Path_183186" data-name="Path 183186" d="M59.181,65.6c0,.38.027.762-.006,1.14a.82.82,0,0,1-.907.817.8.8,0,0,1-.79-.873q-.014-1.112,0-2.224a.8.8,0,0,1,.789-.872.816.816,0,0,1,.908.815c.033.4.007.8.007,1.2" transform="translate(-37.547 -41.543)" fill="#010101"/>
        <path id="Path_183187" data-name="Path 183187" d="M94.893,63.644a.834.834,0,0,1-.93.89c-.343-.033-.374.082-.367.355a3.161,3.161,0,0,1-.052.792.766.766,0,0,1-.891.622.746.746,0,0,1-.747-.724,8.621,8.621,0,0,1-.013-1.368.657.657,0,0,0-.508-.806.932.932,0,0,1-.513-.343.8.8,0,0,1-.021-1.006.76.76,0,0,1,.952-.322c.907.388,1.8.816,2.685,1.249a.768.768,0,0,1,.408.661" transform="translate(-59.245 -40.291)"/>
      </g>
    </g>
  </g>
</svg>
