<svg xmlns="http://www.w3.org/2000/svg" xmlns:xlink="http://www.w3.org/1999/xlink" width="89" height="85" viewBox="0 0 89 85">
  <defs>
    <clipPath id="clip-path">
      <rect id="Rectangle_45281" data-name="Rectangle 45281" width="58.431" height="58" fill="none"/>
    </clipPath>
  </defs>
  <g id="_26" data-name="26" transform="translate(-698 -4457)">
    <g id="Group_165391" data-name="Group 165391" transform="translate(698 4457)">
      <rect id="Rectangle_40797" data-name="Rectangle 40797" width="89" height="85" rx="15" fill="#ffd947"/>
    </g>
    <g id="Group_174987" data-name="Group 174987" transform="translate(713 4471)">
      <g id="Group_174987-2" data-name="Group 174987" transform="translate(0 0)" clip-path="url(#clip-path)">
        <path id="Path_183208" data-name="Path 183208" d="M57.537,49.957a2.128,2.128,0,0,1-.416-1.71,9.787,9.787,0,0,0-5.41-10.694c-.32-.162-.336-.3-.228-.6A22.344,22.344,0,0,0,52.8,30.788,23.58,23.58,0,0,0,51.309,20.54a.462.462,0,0,1,.135-.629,5.724,5.724,0,0,0,1.846-2.886.555.555,0,0,1,.443-.442A3.515,3.515,0,0,0,55.759,15.1a9.84,9.84,0,0,0-.323-11A.826.826,0,0,0,54.3,3.781c-.56.471-.625.79-.192,1.413a7.985,7.985,0,0,1,1.444,5.272A7.7,7.7,0,0,1,54.292,14.2a.959.959,0,0,1-.18.219c-.152.125-.272.394-.5.281-.189-.093-.086-.347-.087-.527-.007-1.33,0-2.659,0-3.989a3.073,3.073,0,0,0-2.6-2.669c-.222-.045-.427-.064-.411-.409a.778.778,0,0,0-.8-.856c-.465-.046-.807.277-.9.839A4.759,4.759,0,0,1,47.9,9.334a5.485,5.485,0,0,1-3.843,1.872,7.993,7.993,0,0,1-2.217.041.841.841,0,0,0-.97.537.8.8,0,0,0,.3,1.006.478.478,0,0,1,.219.43c-.008.492,0,.985,0,1.528a1.769,1.769,0,0,1-1-.984A8.112,8.112,0,0,1,45.53,1.96a7.379,7.379,0,0,1,4.536.231,2.456,2.456,0,0,1,.953.362,1.084,1.084,0,0,0,1.448-.144c.171-.8.061-1.018-.688-1.391A9.776,9.776,0,0,0,38.27,6.443c-.166.453-.288.537-.77.359a23.4,23.4,0,0,0-16.63-.026c-.482.176-.663.182-.865-.361A9.812,9.812,0,1,0,2.326,14.762a3.715,3.715,0,0,0,2.187,1.806.654.654,0,0,1,.511.515,5.492,5.492,0,0,0,1.749,2.751.6.6,0,0,1,.182.819,22.257,22.257,0,0,0-1.465,6.715,23.3,23.3,0,0,0,1.347,9.65c.1.261.057.392-.215.509a7.977,7.977,0,0,0-1.615.957c-.6.452-.662.711-.333,1.409h0c.507.4.95.253,1.443-.085a7.966,7.966,0,0,1,7.694-.945A2.053,2.053,0,0,1,14.06,39a7.924,7.924,0,0,1,4.8,6.392,7.809,7.809,0,0,1-.083,2.555,3.979,3.979,0,0,0,.808,3.16,2.191,2.191,0,0,1-1.521,3.525H16.238a8.927,8.927,0,0,0,.667-4.492c0-.99.013-1.98,0-2.97A3.09,3.09,0,0,0,14.349,44.1c-.327-.066-.528-.116-.505-.538a.727.727,0,0,0-.718-.75.782.782,0,0,0-.891.554,6.636,6.636,0,0,0-.156.723c-.5,2.152-2.008,3.17-4.045,3.584a10.737,10.737,0,0,1-3.071.119c-.5-.043-.921.039-1.089.587-.148.48.035.824.652,1.075.29.119.223.308.229.5a16.028,16.028,0,0,0,.158,3.3c.112.456.28.9.433,1.384a14.372,14.372,0,0,1-1.868-.013,2.172,2.172,0,0,1-1.513-3.36,4.851,4.851,0,0,0,.828-3.875A7.168,7.168,0,0,1,3.469,43a1.048,1.048,0,0,0-.189-1.387h0c-.755-.2-1.01-.085-1.349.627A9.828,9.828,0,0,0,1.179,48.3a1.844,1.844,0,0,1-.292,1.465A8.361,8.361,0,0,0,0,51.336v2.286c.1.009.1.093.126.159a3.929,3.929,0,0,0,3.912,2.594c.743,0,1.486.01,2.228-.005a1.126,1.126,0,0,1,.779.259,6,6,0,0,0,7.539.025,1.2,1.2,0,0,1,.822-.285c.837.016,1.675.017,2.513,0a3.926,3.926,0,0,0,3.709-2.93,7.087,7.087,0,0,0,.089-1.912,23.939,23.939,0,0,0,14.853.01c0,.192.008.341,0,.49a3.921,3.921,0,0,0,4.045,4.349c.762.007,1.524.014,2.285,0a1.181,1.181,0,0,1,.822.286,5.77,5.77,0,0,0,6.718.485,4.793,4.793,0,0,1,3.084-.767c.266.016.533,0,.8,0a3.958,3.958,0,0,0,3.216-6.417M15.11,52.617A4.341,4.341,0,0,1,6.5,52.193c-.041-.721,0-1.447-.033-2.169-.019-.384.123-.488.483-.5a8.837,8.837,0,0,0,3.155-.7,5.7,5.7,0,0,0,3.006-2.672.665.665,0,0,1,.809-.405A1.419,1.419,0,0,1,15.184,47.2c.021.818,0,1.637,0,2.651a22.969,22.969,0,0,1-.079,2.77M43.567,12.965a8.7,8.7,0,0,0,3.725-.959,5.507,5.507,0,0,0,2.448-2.4.691.691,0,0,1,.858-.418,1.372,1.372,0,0,1,1.215,1.367c.028.875.006,1.752.006,2.628h-.006c0,.781.032,1.563-.006,2.342a4.3,4.3,0,0,1-4.363,4.155,4.349,4.349,0,0,1-4.328-4.212c-.028-.666.016-1.335-.019-2-.02-.377.114-.492.469-.508M5.374,11.254a.976.976,0,0,0-1.124.47.808.808,0,0,0,.356,1.125.405.405,0,0,1,.159.4c0,.323.013.648-.005.971-.011.172.12.433-.112.5-.177.049-.34-.153-.456-.3a6.906,6.906,0,0,1-1.43-3.789,8.078,8.078,0,0,1,8.51-8.891,5.487,5.487,0,0,1,2.1.44,7.5,7.5,0,0,1,4.448,3.608,7.867,7.867,0,0,1-.01,8.146,1.736,1.736,0,0,1-.885.846V13.15q-.011-1.2-.021-2.4a3.1,3.1,0,0,0-2.638-3.226c-.326-.065-.427-.179-.422-.513a.72.72,0,0,0-.71-.752.778.778,0,0,0-.916.587c-.069.216-.089.447-.139.67a4.324,4.324,0,0,1-3.1,3.34,8.6,8.6,0,0,1-3.6.395m1.121,4.4c-.035-.569-.022-1.141-.024-1.712,0-.935,0-.932.91-1.009A8.49,8.49,0,0,0,10.647,12a5.515,5.515,0,0,0,2.448-2.4.686.686,0,0,1,.859-.413,1.417,1.417,0,0,1,1.232,1.48c.017.8,0,1.6,0,2.58a23.252,23.252,0,0,1-.085,2.838,4.343,4.343,0,0,1-8.61-.44M37.406,49.4a22.076,22.076,0,0,1-16.531,0c-.536-.208-.471-.586-.418-.965a13.852,13.852,0,0,0,.134-3.071,9.925,9.925,0,0,0-8.161-8.66,9.752,9.752,0,0,0-3.462.065c-.321.069-.42-.014-.524-.3a22.27,22.27,0,0,1-1.291-7.779,21.545,21.545,0,0,1,1.3-7.207c.12-.338.214-.46.627-.338a6.016,6.016,0,0,0,7.522-4,.77.77,0,0,1,.586-.582,3.548,3.548,0,0,0,2.038-1.646A9.567,9.567,0,0,0,20.6,9.123c-.028-.34.086-.453.375-.565A21.919,21.919,0,0,1,37.287,8.54a.528.528,0,0,1,.4.656,9.492,9.492,0,0,0,1.446,5.82,3.505,3.505,0,0,0,1.986,1.541.719.719,0,0,1,.555.541,6.021,6.021,0,0,0,7.553,4.036c.382-.112.484-.017.6.307a22.062,22.062,0,0,1,.033,14.985c-.1.3-.189.4-.55.328A9.805,9.805,0,0,0,37.806,48.1c.035.205.03.417.049.626a.585.585,0,0,1-.449.673m14.4,2.688a4.349,4.349,0,0,1-8.691-.044c-.029-.685.015-1.372-.019-2.057-.018-.375.145-.444.463-.456a9.1,9.1,0,0,0,3.106-.668A5.878,5.878,0,0,0,49.8,46.084a.551.551,0,0,1,.616-.348,1.384,1.384,0,0,1,1.392,1.376c.031.875.007,1.752.007,2.629h0c0,.781.031,1.564-.006,2.343m4.124,2.02a1.955,1.955,0,0,1-1.175.522H52.949c1-2.35.494-4.823.576-7.247a3.024,3.024,0,0,0-2.655-3.31c-.289-.06-.356-.146-.353-.426a.8.8,0,0,0-.769-.84.865.865,0,0,0-.927.752c-.067.3-.106.6-.193.89a4.644,4.644,0,0,1-3.974,3.232,10.589,10.589,0,0,1-3.07.111c-.516-.047-.931.088-1.071.62a.79.79,0,0,0,.631,1.039c.3.083.242.285.248.484.029.912-.054,1.826.062,2.738a6.84,6.84,0,0,0,.588,1.962,7.643,7.643,0,0,1-2.058-.034,2.2,2.2,0,0,1-1.292-3.467,4.424,4.424,0,0,0,.787-3.443A8.108,8.108,0,0,1,50.474,38.87a3.84,3.84,0,0,1,.4.2,8.105,8.105,0,0,1,4.549,8.949,3.733,3.733,0,0,0,.764,3,2.192,2.192,0,0,1-.257,3.082" transform="translate(0.001 0)"/>
        <path id="Path_183209" data-name="Path 183209" d="M5.828,89.03a10.656,10.656,0,0,0-.692,2.23,9.412,9.412,0,0,0,.045,3.012A3.879,3.879,0,0,1,4.581,97c-.107.18-.234.348-.342.527a2.043,2.043,0,0,0,1.417,3.112.8.8,0,0,0,.113.015c.436.012.979.191,1.28-.061.354-.3-.093-.75-.167-1.137a14.849,14.849,0,0,1-.088-2.735,1.166,1.166,0,0,0-.538-1.156A.883.883,0,0,1,5.9,94.5a.9.9,0,0,1,.892-.674c.741-.056,1.483.022,2.227-.012a7.111,7.111,0,0,0,2.858-.721,3.929,3.929,0,0,0,2.135-2.678,4.46,4.46,0,0,1,.25-.936.983.983,0,0,1,.987-.642.9.9,0,0,1,.844.738.729.729,0,0,0,.606.586,3.3,3.3,0,0,1,2.52,3.327c.012,1.543.009,3.086,0,4.628a5.567,5.567,0,0,1-.428,2.116c-.159.383-.036.466.329.44.341-.023.686,0,1.028-.01a2.062,2.062,0,0,0,.233-.04,2.862,2.862,0,0,0,.361-3.5,4.508,4.508,0,0,1-.746-3.866,6.967,6.967,0,0,0-.322-3.178,8.358,8.358,0,0,0-3.211-4.646c-.109-.05-.217-.1-.329-.146a7.88,7.88,0,0,0-7.846.868c-.644.439-1.105.41-1.468-.084a6.055,6.055,0,0,0-1.4,1.718h0a.861.861,0,0,1,.406,1.24" transform="translate(-2.142 -46.178)" fill="#fe5a95"/>
        <path id="Path_183210" data-name="Path 183210" d="M11.76,85.962a7.88,7.88,0,0,1,7.846-.868c.113.045.221.1.329.146-.039-.029-.074-.06-.113-.087a.922.922,0,0,1-.145-.171,2.046,2.046,0,0,0-.249-.133,7.965,7.965,0,0,0-7.694.944c-.493.338-.936.488-1.443.085.363.494.824.522,1.468.084" transform="translate(-5.616 -45.984)" fill="#fe5a95"/>
        <path id="Path_183211" data-name="Path 183211" d="M5.375,92.984A7.164,7.164,0,0,0,4.7,97.374a4.853,4.853,0,0,1-.828,3.875,2.172,2.172,0,0,0,1.512,3.36,14.379,14.379,0,0,0,1.869.013c-.154-.484-.321-.927-.433-1.384a16,16,0,0,1-.157-3.3c-.007-.193.06-.383-.23-.5-.617-.251-.8-.6-.652-1.075.169-.547.591-.63,1.09-.587a10.735,10.735,0,0,0,3.07-.119c2.037-.414,3.546-1.432,4.045-3.584a6.429,6.429,0,0,1,.156-.723.782.782,0,0,1,.89-.554.727.727,0,0,1,.719.751c-.023.422.178.472.505.537a3.09,3.09,0,0,1,2.551,3.069c.018.99,0,1.98,0,2.97a8.924,8.924,0,0,1-.666,4.492h1.828c.059-.059.115-.12.169-.183a2.035,2.035,0,0,1-.233.04c-.343.007-.686-.013-1.028.01-.365.025-.488-.057-.329-.44a5.567,5.567,0,0,0,.427-2.116c.009-1.542.012-3.085,0-4.628a3.3,3.3,0,0,0-2.52-3.327.728.728,0,0,1-.606-.586.9.9,0,0,0-.845-.738.983.983,0,0,0-.987.642,4.432,4.432,0,0,0-.25.936A3.933,3.933,0,0,1,11.637,96.9a7.112,7.112,0,0,1-2.858.721c-.743.034-1.485-.045-2.226.012a.9.9,0,0,0-.892.674.883.883,0,0,0,.359,1.059,1.167,1.167,0,0,1,.538,1.156,14.849,14.849,0,0,0,.087,2.735c.074.386.521.84.167,1.137-.3.252-.844.072-1.28.061a.8.8,0,0,1-.113-.015A2.043,2.043,0,0,1,4,101.33c.108-.179.235-.347.343-.527a3.879,3.879,0,0,0,.6-2.724A9.438,9.438,0,0,1,4.9,95.067a10.657,10.657,0,0,1,.693-2.23.861.861,0,0,0-.406-1.24,1.048,1.048,0,0,1,.189,1.387" transform="translate(-1.906 -49.985)" fill="#fe5a95"/>
        <path id="Path_183212" data-name="Path 183212" d="M111.616,5.665c-.325-.127-.635-.294-.965-.409.281.251.61.444.9.693a8.929,8.929,0,0,1,3.042,5.788,7.993,7.993,0,0,1-.554,3.938c0,.542.01,1.088.035,1.643a1.255,1.255,0,0,0,.7-.723,7.834,7.834,0,0,0-.122-7.986,5.56,5.56,0,0,1-.477-.841.779.779,0,0,1,.508-1.119c-.232.04-.328-.15-.461-.276a6.824,6.824,0,0,0-1.369-1.1.871.871,0,0,1-1.235.387" transform="translate(-60.382 -2.868)" fill="#5b5555"/>
        <path id="Path_183213" data-name="Path 183213" d="M118.051,9.443a5.518,5.518,0,0,0,.476.841,7.834,7.834,0,0,1,.122,7.986,1.256,1.256,0,0,1-.7.723c-.025-.556-.032-1.1-.035-1.644-.013.034-.024.068-.036.1,0-.707,0-1.414,0-2.121,0-.2.064-.422-.092-.6,0,1.33-.005,2.659,0,3.989,0,.18-.1.433.087.527.229.113.349-.157.5-.282a.966.966,0,0,0,.18-.219,7.7,7.7,0,0,0,1.257-3.733,7.984,7.984,0,0,0-1.444-5.272c-.433-.624-.368-.942.192-1.414a.779.779,0,0,0-.507,1.119" transform="translate(-64.26 -4.542)" fill="#5b5555"/>
        <path id="Path_183214" data-name="Path 183214" d="M111.161,5.185a2.457,2.457,0,0,0-.953-.362,2.05,2.05,0,0,0,.2.2c.33.115.64.282.965.409a.872.872,0,0,0,1.235-.388,1.083,1.083,0,0,1-1.448.144" transform="translate(-60.141 -2.632)" fill="#5b5555"/>
        <path id="Path_183215" data-name="Path 183215" d="M100.825,96.308a3.16,3.16,0,0,1-.449-2.655,8.482,8.482,0,0,0-1.223-5.993,9.485,9.485,0,0,0-2.21-2.429.664.664,0,0,1-.117-.189,3.875,3.875,0,0,0-.4-.2,8.108,8.108,0,0,0-11,8.818,4.42,4.42,0,0,1-.786,3.442,2.2,2.2,0,0,0,1.292,3.467,7.643,7.643,0,0,0,2.058.034,6.823,6.823,0,0,1-.588-1.962c-.116-.912-.034-1.826-.062-2.739-.006-.2.054-.4-.248-.484a.79.79,0,0,1-.632-1.039c.14-.532.555-.667,1.072-.62a10.59,10.59,0,0,0,3.07-.112,4.644,4.644,0,0,0,3.973-3.232c.087-.29.127-.594.194-.89a.865.865,0,0,1,.926-.751.8.8,0,0,1,.769.84c0,.28.064.367.353.427a3.023,3.023,0,0,1,2.655,3.309c-.081,2.425.424,4.9-.575,7.248h1.808a3.129,3.129,0,0,0,.117-4.286" transform="translate(-45.95 -45.968)" fill="#fea630"/>
        <path id="Path_183216" data-name="Path 183216" d="M15.362,9.6c.05-.223.071-.453.139-.669a.778.778,0,0,1,.915-.588.721.721,0,0,1,.71.753c0,.334.1.448.422.513a3.1,3.1,0,0,1,2.638,3.226q.01,1.2.022,2.4a8.273,8.273,0,0,0,.368-5.654,9.194,9.194,0,0,0-3.92-5.32,5.489,5.489,0,0,0-2.105-.44A8.078,8.078,0,0,0,6.041,12.7a6.906,6.906,0,0,0,1.43,3.789c.115.146.278.348.456.3.232-.064.1-.324.112-.5.019-.323,0-.647.006-.971a.405.405,0,0,0-.159-.4A.808.808,0,0,1,7.53,13.8a.976.976,0,0,1,1.124-.47,8.6,8.6,0,0,0,3.6-.395,4.326,4.326,0,0,0,3.1-3.34" transform="translate(-3.279 -2.077)" fill="#c37a4a"/>
        <path id="Path_183217" data-name="Path 183217" d="M101.238,14.747a8.687,8.687,0,0,0-.986-7.331,8.537,8.537,0,0,0-2.287-2.442c-.144-.1-.331-.186-.38-.371-.017,0-.032-.011-.049-.015a8.007,8.007,0,0,0-9.5,3.6c-1.713,3.028-.994,7.028.649,8.516.039-.6.2-1.137-.194-1.607a.978.978,0,0,1-.179-1.2,1.091,1.091,0,0,1,1.178-.515,8.406,8.406,0,0,0,3.758-.462,4.161,4.161,0,0,0,2.838-3.16,4.01,4.01,0,0,1,.209-.77.9.9,0,0,1,.9-.575.863.863,0,0,1,.906.647c.093.428.348.564.723.685a3.092,3.092,0,0,1,2.324,2.737c0,.01,0,.021,0,.031a.318.318,0,0,1,.089.233,11.544,11.544,0,0,1-.006,2" transform="translate(-47.505 -2.275)" fill="#756f6f"/>
        <path id="Path_183218" data-name="Path 183218" d="M100.927,12.293v-.031A3.092,3.092,0,0,0,98.6,9.525c-.376-.12-.631-.257-.724-.685a.863.863,0,0,0-.906-.647.9.9,0,0,0-.9.575,3.978,3.978,0,0,0-.209.77,4.162,4.162,0,0,1-2.838,3.16,8.409,8.409,0,0,1-3.759.462,1.091,1.091,0,0,0-1.178.515.978.978,0,0,0,.179,1.2c.393.471.233,1.009.194,1.607C86.815,15,86.1,11,87.809,7.969a8.007,8.007,0,0,1,9.5-3.6c.017,0,.032.011.049.015a.388.388,0,0,1-.013-.138,7.382,7.382,0,0,0-4.536-.231,8.112,8.112,0,0,0-5.145,11.8,1.769,1.769,0,0,0,1,.984c0-.543-.005-1.036,0-1.528a.479.479,0,0,0-.219-.43.8.8,0,0,1-.3-1.006.841.841,0,0,1,.97-.537,8.01,8.01,0,0,0,2.217-.04,5.483,5.483,0,0,0,3.842-1.872,4.76,4.76,0,0,0,.914-2.244c.093-.562.435-.885.9-.84a.778.778,0,0,1,.8.856c-.017.346.189.364.411.41a3.073,3.073,0,0,1,2.6,2.668.209.209,0,0,1,.129.052" transform="translate(-47.276 -2.057)" fill="#756f6f"/>
        <path id="Path_183219" data-name="Path 183219" d="M110.615,5.5A8.533,8.533,0,0,1,112.9,7.939a8.688,8.688,0,0,1,.986,7.331,11.543,11.543,0,0,0,.006-2,.317.317,0,0,0-.089-.233c.008.852,0,1.706,0,2.571a8,8,0,0,0,.553-3.938,8.93,8.93,0,0,0-3.041-5.788c-.287-.249-.616-.442-.9-.693-.062-.022-.125-.042-.189-.059.049.185.236.267.38.371" transform="translate(-60.155 -2.797)" fill="#756f6f"/>
        <path id="Path_183220" data-name="Path 183220" d="M110.407,5.02a2.216,2.216,0,0,1-.2-.2.377.377,0,0,0,.012.137c.064.017.127.037.189.059" transform="translate(-60.139 -2.632)" fill="#756f6f"/>
        <path id="Path_183221" data-name="Path 183221" d="M117.9,23.022c.008.707,0,1.414,0,2.121.013-.034.024-.068.036-.1-.005-.865,0-1.719,0-2.57a.2.2,0,0,0-.129-.052c.155.181.089.4.092.6" transform="translate(-64.291 -12.234)" fill="#756f6f"/>
        <path id="Path_183222" data-name="Path 183222" d="M18.289,30.694a4.334,4.334,0,0,0,4.59-3.583,23.336,23.336,0,0,0,.085-2.838c0-.982.012-1.781,0-2.58a1.418,1.418,0,0,0-1.232-1.48.687.687,0,0,0-.86.413,5.512,5.512,0,0,1-2.447,2.4,8.48,8.48,0,0,1-3.266.927c-.91.077-.913.074-.91,1.009,0,.571-.011,1.143.023,1.712a4.316,4.316,0,0,0,4.021,4.023" transform="translate(-7.773 -11.018)" fill="#fcd0a6"/>
        <path id="Path_183223" data-name="Path 183223" d="M22.951,104.782c0-1.014.017-1.833,0-2.651a1.419,1.419,0,0,0-1.269-1.447.665.665,0,0,0-.809.405,5.7,5.7,0,0,1-3.006,2.672,8.837,8.837,0,0,1-3.155.7c-.36.012-.5.116-.483.5.035.722-.008,1.448.033,2.17a4.341,4.341,0,0,0,8.616.423,22.961,22.961,0,0,0,.079-2.77" transform="translate(-7.761 -54.935)" fill="#fcd0a6"/>
        <path id="Path_183224" data-name="Path 183224" d="M103.581,102.048a1.383,1.383,0,0,0-1.392-1.376.552.552,0,0,0-.617.348,5.877,5.877,0,0,1-3.136,2.775,9.1,9.1,0,0,1-3.105.668c-.318.012-.482.081-.463.456.034.684-.01,1.372.019,2.057a4.348,4.348,0,0,0,8.691.044c.038-.779.006-1.562.006-2.343h0c0-.876.025-1.754-.007-2.629" transform="translate(-51.768 -54.935)" fill="#fcd0a6"/>
        <path id="Path_183225" data-name="Path 183225" d="M94.884,26.487A4.349,4.349,0,0,0,99.212,30.7a4.3,4.3,0,0,0,4.363-4.155c.038-.779.005-1.561.005-2.342h.006c0-.876.021-1.753-.007-2.628a1.371,1.371,0,0,0-1.215-1.367.69.69,0,0,0-.857.418,5.509,5.509,0,0,1-2.449,2.4,8.7,8.7,0,0,1-3.725.959c-.355.016-.489.132-.469.508.035.665-.009,1.334.019,2" transform="translate(-51.767 -11.015)" fill="#fcd0a6"/>
        <path id="Path_183226" data-name="Path 183226" d="M32.657,7.992a8.743,8.743,0,0,1,.711,7.267c-.067.2-.075.467-.373.507v1.626a1.739,1.739,0,0,0,.885-.845A7.87,7.87,0,0,0,33.89,8.4a7.5,7.5,0,0,0-4.448-3.609,7.09,7.09,0,0,1,3.215,3.2" transform="translate(-16.067 -2.614)" fill="#b16944"/>
        <path id="Path_183227" data-name="Path 183227" d="M33.362,10.112a8.272,8.272,0,0,1-.368,5.654c.3-.04.306-.307.373-.507a8.744,8.744,0,0,0-.711-7.267,7.086,7.086,0,0,0-3.214-3.2,9.193,9.193,0,0,1,3.92,5.32" transform="translate(-16.067 -2.615)" fill="#b16944"/>
        <path id="Path_183228" data-name="Path 183228" d="M35.8,92.711a7.734,7.734,0,0,1-.047,2.6,3.363,3.363,0,0,0,.6,2.692,3.157,3.157,0,0,1,.333,3.2,1.889,1.889,0,0,1-.372.637,1.964,1.964,0,0,0,1.091-2.922,5.814,5.814,0,0,1-.879-4.435,7.326,7.326,0,0,0-1.767-5.652,7.714,7.714,0,0,0-2.116-1.842A8.6,8.6,0,0,1,35.8,92.711" transform="translate(-17.815 -47.471)" fill="#fe3b81"/>
        <path id="Path_183229" data-name="Path 183229" d="M33.837,88.2A7.326,7.326,0,0,1,35.6,93.857a5.815,5.815,0,0,0,.879,4.436,1.964,1.964,0,0,1-1.091,2.922.947.947,0,0,1-.435.259,2.191,2.191,0,0,0,1.521-3.525,3.983,3.983,0,0,1-.808-3.16,7.8,7.8,0,0,0,.083-2.555,7.924,7.924,0,0,0-4.8-6.392,8.254,8.254,0,0,1,.771.522A7.72,7.72,0,0,1,33.837,88.2" transform="translate(-16.889 -46.844)" fill="#fe3b81"/>
        <path id="Path_183230" data-name="Path 183230" d="M36.074,100.888a3.159,3.159,0,0,0-.333-3.2,3.362,3.362,0,0,1-.6-2.692,7.734,7.734,0,0,0,.047-2.6,8.6,8.6,0,0,0-3.152-5.721c-.165-.1-.337-.182-.512-.263a8.358,8.358,0,0,1,3.211,4.646,6.967,6.967,0,0,1,.322,3.178A4.508,4.508,0,0,0,35.8,98.1a2.862,2.862,0,0,1-.361,3.5,2.152,2.152,0,0,0,.266-.076,1.905,1.905,0,0,0,.372-.637" transform="translate(-17.2 -47.154)" fill="#fe3b81"/>
        <path id="Path_183231" data-name="Path 183231" d="M31.208,86.1c.175.082.347.168.512.263a8.187,8.187,0,0,0-.77-.522.891.891,0,0,0,.145.171c.039.028.074.059.113.087" transform="translate(-16.889 -46.844)" fill="#fe3b81"/>
        <path id="Path_183232" data-name="Path 183232" d="M40.2,119.681a2.133,2.133,0,0,1-.266.076c-.054.063-.11.124-.169.183a.952.952,0,0,0,.435-.259" transform="translate(-21.702 -65.31)" fill="#fe3b81"/>
        <path id="Path_183233" data-name="Path 183233" d="M116.538,94.958a8.1,8.1,0,0,0-4.549-8.949,8.539,8.539,0,0,1,3.741,6.075,8.736,8.736,0,0,1-.071,2.955,2.911,2.911,0,0,0,.6,2.355,3.118,3.118,0,0,1,.409,3.235,1.638,1.638,0,0,1-.793.932,1.953,1.953,0,0,0,1.175-.522,2.192,2.192,0,0,0,.258-3.082,3.733,3.733,0,0,1-.765-3" transform="translate(-61.112 -46.935)" fill="#f98816"/>
        <path id="Path_183234" data-name="Path 183234" d="M116.665,100.629a3.121,3.121,0,0,0-.409-3.235,2.913,2.913,0,0,1-.6-2.355,8.751,8.751,0,0,0,.072-2.955,8.54,8.54,0,0,0-3.741-6.074.687.687,0,0,0,.116.189,9.478,9.478,0,0,1,2.21,2.429,8.481,8.481,0,0,1,1.223,5.993,3.162,3.162,0,0,0,.449,2.655,3.129,3.129,0,0,1-.117,4.286,1.641,1.641,0,0,0,.793-.932" transform="translate(-61.113 -46.936)" fill="#f98816"/>
        <path id="Path_183235" data-name="Path 183235" d="M59.749,59.4a1.937,1.937,0,0,0,2.064-2.154q.025-3.743,0-7.487a2.044,2.044,0,0,0-2.235-2.185c-1.41,0-2.819-.018-4.229.01-.41.008-.5-.116-.49-.506.023-1.619.021-3.239.005-4.858A2.047,2.047,0,0,0,52.8,40.032q-6.057-.022-12.115,0a1.967,1.967,0,0,0-2.046,1.953q-.063,3.428,0,6.857a1.957,1.957,0,0,0,2.042,1.95c.666.019,1.333,0,2,.007.827.006.733-.105.735.722,0,1.905-.011,3.81.005,5.715a2.065,2.065,0,0,0,2.177,2.2c.438.01.876.01,1.314,0,.662-.014.9-.213,1.059-.876-.184-.681-.371-.829-1.077-.835-.418,0-.837,0-1.255,0-.321,0-.508-.136-.508-.472q0-3.138.012-6.276c0-.03.039-.06.1-.142.66.6,1.326,1.188,1.965,1.8a2.058,2.058,0,0,0,2.336.569,1.949,1.949,0,0,0,1.3-1.955c0-.407.169-.47.512-.457.493.02.989.009,1.483,0a1.952,1.952,0,0,0,1.817-1.161c.113-.23.206-.358.49-.352,1.14.024,2.281.02,3.422.026,1.843-.048,1.521-.167,1.535,1.458.018,2.09-.007,4.18.013,6.27,0,.516-.167.722-.692.7-.739-.031-1.481-.01-2.222-.012a11.92,11.92,0,0,0-1.952,1.632c-.162.13-.3.29-.466.416-.328.252-.584.156-.629-.251-.033-.3,0-.606-.015-.909a.813.813,0,0,0-.89-.879c-.682-.015-1.365.007-2.047-.008a.89.89,0,0,0-1.014.84c.161.662.4.859,1.058.877a4.6,4.6,0,0,0,.628,0c.373-.04.564.035.62.482a1.952,1.952,0,0,0,1.63,1.686,1.92,1.92,0,0,0,1.867-.623A4.123,4.123,0,0,1,59.749,59.4M53.157,48.554c0,.34-.125.544-.5.529-.4-.016-.8-.02-1.193-.03-.456.01-.911.013-1.367.032a.87.87,0,0,0-.959.957c-.015.361,0,.723-.008,1.084,0,.189,0,.39-.224.478s-.358-.063-.5-.19c-.687-.63-1.38-1.253-2.054-1.9a1.5,1.5,0,0,0-1.126-.441c-1.407.018-2.815-.008-4.223.015-.477.007-.688-.124-.683-.641.02-2.035.012-4.071.005-6.106,0-.379.088-.612.537-.61q5.25.022,10.5.022c.417-.006.835,0,1.251-.02.4-.016.542.184.541.555q0,3.131,0,6.263" transform="translate(-21.065 -21.84)"/>
        <path id="Path_183236" data-name="Path 183236" d="M58.838,68.94a14.137,14.137,0,0,1,2.557,0c.527.047.76.394.822,1,.035.341-.169.838.226.974.341.118.6-.329.868-.55.44-.358.806-.8,1.27-1.138a1.251,1.251,0,0,1,.657-.312c.367-.007.733-.01,1.1-.015.143-.084.2-.255.193-.543-.022-2.528-.012-5.057-.013-7.585-1,0-2,.006-3-.006a.917.917,0,0,0-.9.47,2.073,2.073,0,0,1-1.864,1.018c-.343,0-.686,0-1.028,0-.658.007-.7.028-.805.688a2.136,2.136,0,0,1-1.5,1.777,2.063,2.063,0,0,1-2.212-.516c-.53-.492-1.108-.931-1.6-1.463-.085-.092-.187-.228-.333-.147-.105.06-.084.2-.084.317,0,1.77-.016,3.54.007,5.31.006.518.168.649.712.676.418.021.839-.025,1.255.029a.752.752,0,0,1,.756.954h2.212c-.064-.553.149-.885.7-.936m2.152-4.982q2-.04,3.993,0a.82.82,0,0,1,.866.864c0,.519-.336.825-.94.835-.646.012-1.293,0-1.939,0s-1.294.011-1.94,0a.849.849,0,1,1-.04-1.7" transform="translate(-29.026 -33.157)" fill="#00c1f7"/>
        <path id="Path_183237" data-name="Path 183237" d="M65.083,78.793c.682.015,1.365-.007,2.047.008a.813.813,0,0,1,.89.879c.015.3-.018.609.015.909.045.408.3.5.629.251.165-.126.3-.286.466-.416a11.919,11.919,0,0,1,1.952-1.632,1.043,1.043,0,0,1,.77-.083.7.7,0,0,0,.416-.058c-.366,0-.733.008-1.1.015a1.251,1.251,0,0,0-.658.312c-.464.336-.83.78-1.27,1.138-.271.221-.528.668-.869.55-.4-.136-.191-.634-.226-.975-.062-.6-.295-.948-.822-.995a14.1,14.1,0,0,0-2.557,0c-.551.051-.764.383-.7.936a.89.89,0,0,1,1.014-.84" transform="translate(-34.956 -42.913)" fill="#00c1f7"/>
        <path id="Path_183238" data-name="Path 183238" d="M55.047,68.723c-.416-.054-.837-.008-1.255-.029-.544-.027-.706-.158-.712-.676-.023-1.77-.01-3.54-.007-5.31,0-.113-.021-.258.084-.317.145-.081.248.055.333.147.493.532,1.071.971,1.6,1.463a2.064,2.064,0,0,0,2.212.516,2.136,2.136,0,0,0,1.5-1.777c.107-.66.147-.681.805-.688.343,0,.685,0,1.028,0A2.074,2.074,0,0,0,62.5,61.031a.916.916,0,0,1,.9-.47c1,.012,2,0,3,.006v-.146c-1.141-.006-2.281,0-3.422-.026-.284-.006-.378.122-.491.352a1.952,1.952,0,0,1-1.817,1.161c-.494.011-.99.022-1.483,0-.342-.014-.512.05-.512.457a1.947,1.947,0,0,1-1.3,1.955,2.058,2.058,0,0,1-2.336-.569c-.639-.613-1.305-1.2-1.965-1.8-.057.082-.1.112-.1.142q-.01,3.138-.012,6.276c0,.335.187.474.507.472.418,0,.837,0,1.255,0,.706.006.893.154,1.077.835a.752.752,0,0,0-.756-.954" transform="translate(-28.902 -32.957)" fill="#00c1f7"/>
        <path id="Path_183239" data-name="Path 183239" d="M53.432,43.815q-5.25-.008-10.5-.023c-.45,0-.539.231-.537.61.006,2.035.015,4.071-.005,6.106,0,.517.206.648.683.641,1.407-.022,2.815,0,4.223-.015a1.5,1.5,0,0,1,1.126.441c.674.644,1.367,1.267,2.054,1.9.139.128.274.276.5.19s.221-.289.224-.477c.008-.362-.007-.723.008-1.084a.87.87,0,0,1,.959-.957c.455-.019.911-.022,1.367-.032q0-3.372.008-6.744a1.017,1.017,0,0,0-.106-.552M49.921,48.34c-.647.011-1.294,0-1.942,0-.666,0-1.333.011-2,0a.9.9,0,0,1-1-.872c0-.5.393-.834,1.014-.837q1.971-.012,3.941,0c.653,0,1,.3,1.011.827s-.364.872-1.029.884" transform="translate(-23.132 -23.897)" fill="#feb44e"/>
        <path id="Path_183240" data-name="Path 183240" d="M82.773,61.382q.008,3.39,0,6.781c0,.421-.012.631-.132.738l.663-.009c.4-.005.591-.183.593-.587q.01-3.476,0-6.951c0-.417-.206-.577-.6-.567a5.042,5.042,0,0,1-.6-.011,1.328,1.328,0,0,1,.079.606" transform="translate(-45.098 -33.166)" fill="#00aaed"/>
        <path id="Path_183241" data-name="Path 183241" d="M81.594,60.583c.395-.01.6.15.6.566q.005,3.476,0,6.951c0,.4-.192.581-.592.587l-.663.009c-.115.1-.33.109-.739.112a2.386,2.386,0,0,0-.68.033c.741,0,1.483-.019,2.222.012.525.022.7-.184.692-.7-.02-2.09.005-4.18-.013-6.27-.014-1.625.308-1.506-1.535-1.458a.578.578,0,0,1,.1.147,5.142,5.142,0,0,0,.6.011" transform="translate(-43.394 -32.961)" fill="#00aaed"/>
        <path id="Path_183242" data-name="Path 183242" d="M82.495,68.161q.01-3.39,0-6.781a1.328,1.328,0,0,0-.079-.606h-.1c0,2.529-.01,5.057.013,7.585,0,.288-.05.459-.193.543l.232,0c.119-.107.13-.317.132-.738" transform="translate(-44.819 -33.164)" fill="#00aaed"/>
        <path id="Path_183243" data-name="Path 183243" d="M80.2,78.771c.409,0,.624-.01.739-.112l-.232,0a.708.708,0,0,1-.416.058,1.044,1.044,0,0,0-.77.084,2.385,2.385,0,0,1,.68-.033" transform="translate(-43.394 -42.924)" fill="#00aaed"/>
        <path id="Path_183244" data-name="Path 183244" d="M82.61,60.6h.022a.587.587,0,0,0-.1-.147c0,.049,0,.1,0,.146h.082" transform="translate(-45.036 -32.989)" fill="#00aaed"/>
        <path id="Path_183245" data-name="Path 183245" d="M67.947,43.8c-.417.018-.834.015-1.251.02.283.154.283.432.285.7.011,1.988.009,3.976,0,5.964a.861.861,0,0,1-.189.636c.4.01.8.015,1.193.03.376.015.5-.189.5-.529q0-3.132,0-6.263c0-.37-.143-.571-.541-.554" transform="translate(-36.396 -23.899)" fill="#fd991b"/>
        <path id="Path_183246" data-name="Path 183246" d="M66.981,44.537c0-.263,0-.541-.285-.7a1.016,1.016,0,0,1,.106.552q-.006,3.373-.008,6.744a.861.861,0,0,0,.189-.636c.006-1.988.009-3.976,0-5.964" transform="translate(-36.396 -23.925)" fill="#fd991b"/>
        <path id="Path_183247" data-name="Path 183247" d="M69.359,69.472c.646.015,1.293,0,1.94,0s1.293.01,1.94,0c.6-.011.936-.317.939-.835a.819.819,0,0,0-.866-.864q-2-.037-3.993,0a.849.849,0,1,0,.04,1.7" transform="translate(-37.355 -36.974)" fill="#000101"/>
        <path id="Path_183248" data-name="Path 183248" d="M53.056,50.03q-1.97-.011-3.941,0c-.621,0-1.009.336-1.014.837a.9.9,0,0,0,1,.872c.666.015,1.332,0,2,0,.647,0,1.294.009,1.942,0,.666-.011,1.041-.343,1.029-.884s-.358-.823-1.011-.826" transform="translate(-26.249 -27.299)" fill="#010100"/>
      </g>
    </g>
  </g>
</svg>
