<svg xmlns="http://www.w3.org/2000/svg" xmlns:xlink="http://www.w3.org/1999/xlink" width="89" height="85" viewBox="0 0 89 85">
  <defs>
    <clipPath id="clip-path">
      <rect id="Rectangle_45283" data-name="Rectangle 45283" width="55.393" height="61.582" fill="none"/>
    </clipPath>
  </defs>
  <g id="_28" data-name="28" transform="translate(-698 -4457)">
    <g id="Group_165391" data-name="Group 165391" transform="translate(698 4457)">
      <rect id="Rectangle_40797" data-name="Rectangle 40797" width="89" height="85" rx="15" fill="#ffd947"/>
    </g>
    <g id="Group_174989" data-name="Group 174989" transform="translate(715 4469)">
      <g id="Group_174989-2" data-name="Group 174989" clip-path="url(#clip-path)">
        <path id="Path_183267" data-name="Path 183267" d="M11,61.582a1.344,1.344,0,0,1-.732-1.376,8.259,8.259,0,0,1,7.966-7.859c.941-.027,1.883,0,2.824-.017.194,0,.5.159.517-.276a.47.47,0,0,0-.427-.573,23.169,23.169,0,0,1-7.989-3.723c-.34-.244-.672-.5-1.067-.792a6.392,6.392,0,0,0,.516,1.612c.282.749.233,1.182-.231,1.507-.54.378-1,.171-1.469-.192A27.392,27.392,0,0,1,.333,32.006,27.718,27.718,0,0,1,21.838.719a26.874,26.874,0,0,1,15.124.962.6.6,0,0,0,.855-.279A2.973,2.973,0,0,1,42.565,1a6.9,6.9,0,0,1,1.6,2.583c.1.265.194.392.5.373a1.984,1.984,0,0,1,1.228.414c1.047.7,2.091,1.407,3.141,2.1a1.922,1.922,0,0,1,.842.984c.1.31.281.307.543.3a7.273,7.273,0,0,1,2.771.42,3.03,3.03,0,0,1,1.586,4.751,2.231,2.231,0,0,1-.52.653c-.787.527-.992,1.407-1.406,2.164-.136.247,0,.413.084.6a27.156,27.156,0,0,1,2.349,8.822,27.551,27.551,0,0,1-5.993,20.067,27.073,27.073,0,0,1-4.8,4.689,1.1,1.1,0,0,1-1.421.168c-.454-.311-.526-.771-.266-1.449.2-.517.388-1.038.584-1.561-.193-.089-.258.046-.335.106a23.952,23.952,0,0,1-8.7,4.3c-.185.049-.463,0-.484.328s0,.537.452.536a30.939,30.939,0,0,1,3.781.077,8.267,8.267,0,0,1,7.067,7.777,1.344,1.344,0,0,1-.732,1.377Z" transform="translate(0 0)"/>
        <path id="Path_183268" data-name="Path 183268" d="M46.677,16.01l.589.382a2.252,2.252,0,0,1,.323.638,6.122,6.122,0,0,0,1.13,2.032,2.1,2.1,0,0,0,1.867.88.855.855,0,0,1,.414.041,4.626,4.626,0,0,0,1.687,1.073,1.183,1.183,0,0,1,.465.676,25.984,25.984,0,0,1,1.636,6.985A26.7,26.7,0,0,1,50.55,46.032a1.344,1.344,0,0,1-.428.493c-.106.059-.233.109-.224-.1.3-2.24.575-4.483.68-6.742a79.7,79.7,0,0,0,.054-9.9,2.841,2.841,0,0,0-1.34-2.111,23.975,23.975,0,0,0-8.9-3.585,43.448,43.448,0,0,0-10.908-.964c-.5.019-1,.063-1.5.112-.3.029-.433-.057-.432-.387a18.015,18.015,0,0,1,.949-6.611,10.1,10.1,0,0,1,.471-.97.93.93,0,0,0-.208-1.2.942.942,0,0,0-1.214-.128,13.738,13.738,0,0,0-2.351,1.763,15.52,15.52,0,0,0-4.995,8.425c-.076.379-.324.463-.618.54a22.2,22.2,0,0,0-6.325,2.83,3.442,3.442,0,0,0-1.678,3.057,96.243,96.243,0,0,0,.665,14.562c.194,1.423.469,2.83.79,4.4a23.091,23.091,0,0,1-2.59-3.02,24.861,24.861,0,0,1-4.786-12.51A25.16,25.16,0,0,1,13.848,12.4,24.588,24.588,0,0,1,27.564,5.893a24.886,24.886,0,0,1,10.8.767.876.876,0,0,1-.421,1.163,3.412,3.412,0,0,0-1.238,1.433,1.824,1.824,0,0,0,.98,2.533c.535.236,1.121.282,1.661.492a6.474,6.474,0,0,0,2.515,1.082c.986.7,2.019,1.34,3,2.044a2.685,2.685,0,0,0,1.81.6" transform="translate(-3.449 -3.498)" fill="#9f522d"/>
        <path id="Path_183269" data-name="Path 183269" d="M51.871,72.748a18.129,18.129,0,0,1-5.494,1.159,22.351,22.351,0,0,1-16.569-5.181c-1.946-1.632-1.985-1.617-2.3-4.309a94.038,94.038,0,0,1-.613-13.378,2,2,0,0,1,1.09-1.882,21.322,21.322,0,0,1,6-2.513c1.076-.253,1.207-.389,1.4-1.489a13.219,13.219,0,0,1,3.728-7.088c-.1.992-.2,1.87-.279,2.75a19.488,19.488,0,0,0,.009,3.6c.085.869.49,1.222,1.35,1.122a40.479,40.479,0,0,1,13.194.756,15.944,15.944,0,0,1,2.934.824,16.35,16.35,0,0,1,2.347,1.185A2.713,2.713,0,0,1,60,50.518a71.661,71.661,0,0,1-.12,9.115c-.135,2.4-.42,4.783-.737,7.164a1.756,1.756,0,0,1-.472,1.012,21.87,21.87,0,0,1-5.021,4.072c-.572.329-1.175.593-1.774.867" transform="translate(-16.704 -23.672)" fill="#fedfb1"/>
        <path id="Path_183270" data-name="Path 183270" d="M61.3,148.928c-.44.006-.88.018-1.321.018H33.538c-.692,0-.692,0-.5-.683a6.154,6.154,0,0,1,5.712-4.448c1.02-.044,2.043,0,3.064-.02a.43.43,0,0,1,.474.335,4.076,4.076,0,0,0,4.135,2.766c1.222,0,2.443.006,3.665,0a4.066,4.066,0,0,0,3.987-2.717c.073-.182.09-.391.373-.379a29.337,29.337,0,0,1,3.956.12,6.945,6.945,0,0,1,3.068,4.451c.054.214.1.443-.18.558" transform="translate(-20.476 -89.413)" fill="#fedb00"/>
        <path id="Path_183271" data-name="Path 183271" d="M121.851,71.675c.15.145.2,0,.259-.094a26.917,26.917,0,0,0,2.761-5.234,24.084,24.084,0,0,0,1.665-6.638,26.288,26.288,0,0,0-1.9-13.4,3.01,3.01,0,0,0,1.652-.037c.338-.134.369.14.447.325a25.826,25.826,0,0,1-3.219,25.539,14.094,14.094,0,0,1-2.26,2.448l.59-2.91" transform="translate(-75.403 -28.751)" fill="#783e22"/>
        <path id="Path_183272" data-name="Path 183272" d="M92.992,87.635a41.284,41.284,0,0,0,4.057-2.621A36.676,36.676,0,0,0,99.8,82.443c.406-.4.317-.944.374-1.412.2-1.615.385-3.232.527-4.856a87.167,87.167,0,0,0,.319-9.679,3.536,3.536,0,0,0-.587-2.558,8.621,8.621,0,0,0-1.909-1.313,5.425,5.425,0,0,1-1.084-.616,16.49,16.49,0,0,1,5.109,2.426,1.223,1.223,0,0,1,.483,1.045c.112,2.862.06,5.723-.111,8.58-.137,2.3-.376,4.583-.672,6.865a2.117,2.117,0,0,1-.613,1.306A22.269,22.269,0,0,1,93.509,87.5a4.836,4.836,0,0,1-.517.133" transform="translate(-57.825 -38.559)" fill="#dec39b"/>
        <path id="Path_183273" data-name="Path 183273" d="M66.478,140.987c-.66,0-1.32.011-1.98,0a2.046,2.046,0,0,1-2.115-2.121c0-.4-.13-.918.07-1.16.224-.272.735,0,1.12.04a25.193,25.193,0,0,0,6.4-.1c.512-.082.688.051.609.562a5.036,5.036,0,0,0-.006.659,2.053,2.053,0,0,1-2.116,2.123c-.66.014-1.32,0-1.98,0" transform="translate(-38.765 -85.554)" fill="#fedfb1"/>
        <path id="Path_183274" data-name="Path 183274" d="M100.424,11.235a4.531,4.531,0,0,1-1.819-.33,1.013,1.013,0,0,1-.511-1.674,3.114,3.114,0,0,1,1.041-.979,1.155,1.155,0,0,0,.6-.91,2.992,2.992,0,0,1,.552-1.378.962.962,0,0,1,1.619-.168,4.921,4.921,0,0,1,1.4,2.732c.107.588-1.512,2.6-2.108,2.663-.258.029-.52.031-.779.045" transform="translate(-60.835 -3.375)" fill="#e81e63"/>
        <path id="Path_183275" data-name="Path 183275" d="M129.3,25.829a6.026,6.026,0,0,1,1.9.354,1.015,1.015,0,0,1,.515,1.679,2.873,2.873,0,0,1-.99.945,1.242,1.242,0,0,0-.666,1,2.81,2.81,0,0,1-.547,1.313.935.935,0,0,1-1.563.214,4.9,4.9,0,0,1-1.458-2.83,6.806,6.806,0,0,1,1.76-2.539c.371-.075.752-.1,1.049-.141" transform="translate(-78.655 -16.061)" fill="#e81e63"/>
        <path id="Path_183276" data-name="Path 183276" d="M117.69,18.331c-.045.075-.1.179-.167.278-.6.9-1.206,1.789-1.792,2.7-.177.273-.3.327-.594.122-.88-.623-1.779-1.221-2.688-1.8-.315-.2-.334-.349-.121-.651.622-.881,1.212-1.785,1.807-2.685.131-.2.218-.356.5-.161.935.649,1.888,1.273,2.831,1.91.094.064.22.109.225.293" transform="translate(-69.761 -9.973)" fill="#e81e63"/>
        <path id="Path_183277" data-name="Path 183277" d="M90,13.982A2.947,2.947,0,0,1,87.361,12.9a2.4,2.4,0,0,1,.947-3.343,1.351,1.351,0,0,0,.711-1.194,7.963,7.963,0,0,1,1.534.511C88.964,10.436,88.334,12.1,90,13.982" transform="translate(-54.101 -5.2)" fill="#783e22"/>
        <path id="Path_183278" data-name="Path 183278" d="M103.194,149.138a2.78,2.78,0,0,0-.385-1.8,6.423,6.423,0,0,0-2.015-2.683,4.189,4.189,0,0,1-.489-.521,6.128,6.128,0,0,1,5.005,4.621c.067.312.03.433-.322.414-.6-.031-1.2-.02-1.794-.026" transform="translate(-62.372 -89.623)" fill="#fdc008"/>
        <path id="Path_183279" data-name="Path 183279" d="M119.6,37.689a1.874,1.874,0,0,1-2.127-.521,5.793,5.793,0,0,1-1.607-3.07,3.53,3.53,0,0,0,2.062.834c.174-.013.21.145.256.281a8.434,8.434,0,0,0,1.417,2.476" transform="translate(-72.047 -21.203)" fill="#773e22"/>
        <path id="Path_183280" data-name="Path 183280" d="M106.393,28.727a1.283,1.283,0,0,1-1.352-.12c-.936-.646-1.884-1.273-2.832-1.9a1.827,1.827,0,0,1-.629-.626c.219,0,.439.021.658.008.706-.042,1.278-.019,1.692.787.359.7,1.246.958,1.884,1.434.191.142.386.279.579.419" transform="translate(-63.165 -16.214)" fill="#773e22"/>
        <path id="Path_183281" data-name="Path 183281" d="M66.565,111.3c.961,0,1.922-.006,2.882,0,.811.007,1.176.365,1.183,1.169a6.481,6.481,0,0,1-.192,2.14,4.1,4.1,0,0,1-7.995-1.178c-.008-.36-.014-.721,0-1.081A.986.986,0,0,1,63.5,111.3c1.021-.016,2.041,0,3.062,0" transform="translate(-38.824 -69.205)"/>
        <path id="Path_183282" data-name="Path 183282" d="M41.6,84.179a3.679,3.679,0,0,1,3.534,2.645,1.021,1.021,0,0,1-.644,1.393.993.993,0,0,1-1.289-.745,1.614,1.614,0,0,0-3.107-.113c-.288.785-.762,1.073-1.383.842-.6-.223-.8-.8-.54-1.552a3.715,3.715,0,0,1,3.429-2.47" transform="translate(-23.668 -52.344)"/>
        <path id="Path_183283" data-name="Path 183283" d="M96.75,87.261a1.021,1.021,0,0,1-.765.966.954.954,0,0,1-1.132-.453,3.447,3.447,0,0,1-.224-.551,1.543,1.543,0,0,0-1.506-.982,1.516,1.516,0,0,0-1.445.982c-.064.145-.1.305-.165.448a1,1,0,0,1-1.249.54,1.006,1.006,0,0,1-.677-1.184,3.659,3.659,0,0,1,7.135,0c.015.078.019.158.029.237" transform="translate(-55.693 -52.345)"/>
        <path id="Path_183284" data-name="Path 183284" d="M43.268,75.311c-.5,0-1,.022-1.5-.006a.971.971,0,0,1-1-.985.961.961,0,0,1,.945-1.036c1.06-.04,2.123-.039,3.184,0a.958.958,0,0,1,.967,1.017.982.982,0,0,1-1.035,1.01c-.52.024-1.041,0-1.562,0v0" transform="translate(-25.352 -45.551)" fill="#010100"/>
        <path id="Path_183285" data-name="Path 183285" d="M94.811,75.31c-.5,0-1,.022-1.5-.006a.973.973,0,0,1-1-.985.956.956,0,0,1,.947-1.033c1.06-.041,2.123-.041,3.184,0a.963.963,0,0,1,.965,1.019.978.978,0,0,1-1.035,1.008c-.52.024-1.042,0-1.562,0v0" transform="translate(-57.403 -45.552)" fill="#010100"/>
        <path id="Path_183286" data-name="Path 183286" d="M69.921,100.46c.359,0,.719-.018,1.076,0a.986.986,0,0,1,.963.951.966.966,0,0,1-.855,1.052,16.588,16.588,0,0,1-2.386,0,.963.963,0,0,1-.845-1.059.987.987,0,0,1,.972-.942c.357-.021.717,0,1.076,0" transform="translate(-42.204 -62.464)" fill="#010100"/>
        <path id="Path_183287" data-name="Path 183287" d="M44.992,110.562c-.16,0-.32.006-.48,0a1.02,1.02,0,0,1-1.08-.975,1.058,1.058,0,0,1,1.01-1.062,6.8,6.8,0,0,1,.9-.008,1.093,1.093,0,0,1,1.175,1.033c.008.6-.45,1-1.164,1.014-.12,0-.24,0-.36,0" transform="translate(-27.006 -67.471)" fill="#e81f63"/>
        <path id="Path_183288" data-name="Path 183288" d="M96.493,110.561c-.14,0-.28,0-.42,0a1.031,1.031,0,0,1-1.106-.95,1.064,1.064,0,0,1,1.049-1.091,7,7,0,0,1,.9,0,1.08,1.08,0,0,1,1.135,1.067,1.031,1.031,0,0,1-1.138.979c-.14,0-.28,0-.42,0" transform="translate(-59.051 -67.47)" fill="#e81f63"/>
        <path id="Path_183289" data-name="Path 183289" d="M69.935,116.715c.56,0,1.121.017,1.679-.006.361-.015.39.143.327.434a2.083,2.083,0,0,1-2.044,1.617,2.11,2.11,0,0,1-1.98-1.625c-.064-.3-.009-.441.338-.427.559.023,1.119.006,1.679.006" transform="translate(-42.218 -72.572)" fill="#ee314c"/>
      </g>
    </g>
  </g>
</svg>
