<svg xmlns="http://www.w3.org/2000/svg" xmlns:xlink="http://www.w3.org/1999/xlink" width="89" height="85" viewBox="0 0 89 85">
  <defs>
    <clipPath id="clip-path">
      <rect id="Rectangle_45284" data-name="Rectangle 45284" width="49.5" height="67.507" fill="none"/>
    </clipPath>
  </defs>
  <g id="_29" data-name="29" transform="translate(-698 -4457)">
    <g id="Group_165391" data-name="Group 165391" transform="translate(698 4457)">
      <rect id="Rectangle_40797" data-name="Rectangle 40797" width="89" height="85" rx="15" fill="#ffd947"/>
    </g>
    <g id="Group_174990" data-name="Group 174990" transform="translate(718 4466)">
      <g id="Group_174990-2" data-name="Group 174990" clip-path="url(#clip-path)">
        <path id="Path_183290" data-name="Path 183290" d="M33.726,37.121c.183-.864.473-1.106,1.33-1.11A14.641,14.641,0,0,1,49.382,48.82a25.12,25.12,0,0,1,.117,2.736q0,7.206,0,14.411c0,1.189-.353,1.54-1.551,1.54H1.553c-1.2,0-1.548-.35-1.549-1.541,0-5.062-.009-10.123,0-15.184A14.586,14.586,0,0,1,12.279,36.2a15.451,15.451,0,0,1,2.168-.179c.855-.027,1.145.239,1.33,1.1.129.77-.3,1.276-1.2,1.312a15.76,15.76,0,0,0-2.3.257,11.919,11.919,0,0,0-6.434,3.495.96.96,0,0,0-.181.213.244.244,0,0,0-.013.066c.518.125,16.1.149,16.923.014-1.2-1.2-2.375-2.373-3.544-3.546a9.243,9.243,0,0,1-.871-.914c-.2-.264-.39-.543-.176-.894.006-1.87,0-3.739.026-5.609a.9.9,0,0,0-.365-.7,9.164,9.164,0,0,1-2.228-3.274.971.971,0,0,0-.85-.668,5.449,5.449,0,0,1-4.425-5.026,3.444,3.444,0,0,1,2.642-3.7c.116-.065.242-.1.36-.163-.066-.051-.168-.016-.222-.093A2.18,2.18,0,0,1,11.3,15.766a22.123,22.123,0,0,1,0-2.24A2.314,2.314,0,0,1,13.5,11.241a2.415,2.415,0,0,1,1.3-.2H33.27c1.3,0,1.374-.109,1-1.373C33.8,8.109,33.8,8.109,32.206,8.109q-7.619,0-15.237-.007a1.8,1.8,0,0,0-1.61.626.92.92,0,0,1-1.3.3c-.885-.792-.935-1.015-.448-2.028a12.349,12.349,0,0,1,23.4,3.921,1.339,1.339,0,0,0,.478.949c1.133.984,1.13,4.508.038,5.526a2.31,2.31,0,0,1-.965.539c.033.065.044.129.075.14,2.4.9,3.24,2.595,2.472,5.049a5.24,5.24,0,0,1-4.156,3.739,1.051,1.051,0,0,0-.894.719,8.749,8.749,0,0,1-2.143,3.171,1.193,1.193,0,0,0-.421.964c.029,1.8.022,3.6.027,5.407.265.559-.143.883-.458,1.207-1.192,1.224-2.414,2.421-3.617,3.634a1.418,1.418,0,0,0-.472.6H43.936a8.253,8.253,0,0,0-2.084-1.932A12.2,12.2,0,0,0,35.2,38.455a1.76,1.76,0,0,1-1.013-.226c-.375-.268-.7-.577-.466-1.108" transform="translate(0 0)"/>
        <path id="Path_183291" data-name="Path 183291" d="M29.29,17.907a1.341,1.341,0,0,0,1.5-.877c.144-.383.455-.258.711-.258q6.389-.01,12.779,0c1.4,0,2.809.016,4.213-.009a.714.714,0,0,1,.812.545,17.09,17.09,0,0,1,.64,2.144c.11.484.057.714-.571.711-5.875-.028-11.749-.016-17.624-.018-1.006,0-2.012-.013-3.017-.02a16.848,16.848,0,0,1,.559-2.214" transform="translate(-15.229 -8.88)" fill="#dae8ed"/>
        <path id="Path_183292" data-name="Path 183292" d="M63.5,78.992c.19.913.457,1.109,1.455,1.143a12.365,12.365,0,0,1,9.227,4.435H56.329l-.154-.14c.28-.229.58-.439.837-.692,1.25-1.234,2.485-2.483,3.732-3.72a1.579,1.579,0,0,0,.551-1.024l2.207,0" transform="translate(-29.776 -41.871)" fill="#336589"/>
        <path id="Path_183293" data-name="Path 183293" d="M23.78,79a1.644,1.644,0,0,0,.6,1.072c1.478,1.467,2.95,2.941,4.512,4.5H10.935a11.44,11.44,0,0,1,3.668-3,12.223,12.223,0,0,1,5.584-1.438c.925-.016,1.2-.245,1.386-1.139l2.207,0" transform="translate(-5.796 -41.871)" fill="#336589"/>
        <path id="Path_183294" data-name="Path 183294" d="M27.34,38.031c.125-.015.339-.071.314.1-.031.214-.265.2-.452.158l.138-.257" transform="translate(-14.419 -20.148)" fill="#494949"/>
        <path id="Path_183295" data-name="Path 183295" d="M43.773,38.315c2.412,0,4.823.012,7.235-.01.458,0,.658.061.635.59a62.44,62.44,0,0,1-.154,6.451,7.853,7.853,0,0,1-15.465-.029,61.051,61.051,0,0,1-.144-6.662c-.016-.445.283-.336.516-.337q3.688-.006,7.376,0" transform="translate(-19.007 -20.304)" fill="#fcd4a5"/>
        <path id="Path_183296" data-name="Path 183296" d="M12.674,112.238c-.211-.89-.5-1.132-1.4-1.134-1.968,0-3.936-.014-5.9.008-.453,0-.618-.117-.6-.586.036-.772.025-1.547,0-2.319-.01-.364.109-.524.48-.481a3.706,3.706,0,0,0,.422,0q21.613,0,43.226-.015c.685,0,.97.126.89.868a14.792,14.792,0,0,0-.009,2.036c.011.356-.094.53-.474.488a5.214,5.214,0,0,0-.562,0h-32.4c-1.052,0-1.4.3-1.462,1.251a3.808,3.808,0,0,1-2.209-.116" transform="translate(-2.528 -57.095)" fill="#336589"/>
        <path id="Path_183297" data-name="Path 183297" d="M27.619,99.05q-10.787,0-21.575.013c-.624,0-.744-.14-.566-.732.269-.9.361-2.009,1.044-2.536.506-.39,1.532-.118,2.326-.118q19.607,0,39.214-.018a.907.907,0,0,1,1.024.672c.236.66.46,1.321.664,1.993.176.574.082.742-.555.74q-10.787-.031-21.575-.013" transform="translate(-2.864 -50.666)" fill="#dae8ed"/>
        <path id="Path_183298" data-name="Path 183298" d="M21.548,117.31a7.291,7.291,0,0,1,2.209.116c.206.813.46,1,1.412,1q12.348,0,24.7,0c.913,0,.915,0,.912.917,0,1.192-.012,2.384-.017,3.577a2.472,2.472,0,0,1-2.214,0c-.212-.92-.466-1.118-1.473-1.118-8.248,0-16.5-.011-24.745.018-.707,0-.844-.2-.813-.849.06-1.216.027-2.436.033-3.654" transform="translate(-11.402 -62.166)" fill="#dae8ed"/>
        <path id="Path_183299" data-name="Path 183299" d="M48.546,129.266H50.76c.006,1.289-.015,2.578.031,3.865.019.54-.158.658-.672.656-5.273-.019-10.545-.011-15.818-.011-4.007,0-8.014-.017-12.021.017-.642.005-.808-.18-.761-.785a15.113,15.113,0,0,0,0-2.037c-.028-.481.162-.615.605-.576.349.031.7.006,1.054.006q11.951,0,23.9,0c.986,0,1.261-.22,1.463-1.135" transform="translate(-11.402 -68.519)" fill="#336589"/>
        <path id="Path_183300" data-name="Path 183300" d="M39.99,30.985c-3.491,0-6.983-.011-10.474.012-.551,0-.781-.092-.766-.715.037-1.546,0-1.546,1.539-1.546,6.7,0,13.4.009,20.1-.015.645,0,.9.107.867.824-.062,1.438-.016,1.44-1.429,1.44Z" transform="translate(-15.239 -15.224)" fill="#336589"/>
        <path id="Path_183301" data-name="Path 183301" d="M43.085,69.6a10.225,10.225,0,0,0,9-.008c0,1.33,0,2.577,0,3.823,0,.219-.181.319-.308.446C50.5,75.143,49.211,76.4,47.957,77.7c-.327.338-.487.259-.77-.029-1.244-1.273-2.509-2.525-3.773-3.78a.923.923,0,0,1-.339-.721c.023-1.147.009-2.294.009-3.566" transform="translate(-22.833 -36.89)" fill="#fccd96"/>
        <path id="Path_183302" data-name="Path 183302" d="M51.773,8.166H37.034c3.369-4.367,11.119-4.508,14.739,0" transform="translate(-19.63 -2.564)" fill="#336589"/>
        <path id="Path_183303" data-name="Path 183303" d="M7.6,119.7c.8,0,1.591.016,2.385-.008.34-.01.438.1.429.433q-.033,1.262,0,2.525c.009.345-.111.429-.439.426q-2.385-.023-4.771,0c-.343,0-.437-.1-.429-.436.021-.842.024-1.684,0-2.525-.01-.35.114-.431.44-.422.795.021,1.59.007,2.385.007" transform="translate(-2.532 -63.447)" fill="#dae8ed"/>
        <path id="Path_183304" data-name="Path 183304" d="M91.446,119.7c.772,0,1.544.015,2.315-.007.328-.009.448.077.438.424-.024.841-.022,1.684,0,2.525.008.334-.091.438-.431.434q-2.385-.025-4.771,0c-.331,0-.446-.085-.437-.428q.034-1.262,0-2.525c-.009-.338.094-.44.431-.431.818.023,1.637.008,2.455.008" transform="translate(-46.942 -63.447)" fill="#dae8ed"/>
        <path id="Path_183305" data-name="Path 183305" d="M7.541,135.052c-.75,0-1.5-.01-2.248,0-.329.006-.526-.046-.514-.45.024-.842.016-1.686,0-2.529,0-.308.118-.406.415-.4,1.592.008,3.184.011,4.776,0,.338,0,.448.121.442.45-.016.82-.021,1.64,0,2.459.01.375-.127.486-.488.477-.8-.02-1.592-.006-2.388-.006" transform="translate(-2.533 -69.795)" fill="#336589"/>
        <path id="Path_183306" data-name="Path 183306" d="M91.306,135.048c-.726,0-1.453-.018-2.177.008-.405.014-.6-.077-.575-.535.035-.771.025-1.545,0-2.318-.011-.376.078-.543.5-.538,1.545.022,3.091.016,4.636,0,.343,0,.513.072.5.462q-.037,1.229,0,2.458c.011.389-.156.472-.5.465-.8-.018-1.592-.006-2.388-.006" transform="translate(-46.938 -69.791)" fill="#336589"/>
        <path id="Path_183307" data-name="Path 183307" d="M74.208,47.328c0-1.213,0-2.418,0-3.624a.52.52,0,0,1,.327-.483,1.323,1.323,0,0,1,1.908.885,3.009,3.009,0,0,1-2.231,3.222" transform="translate(-39.333 -22.826)" fill="#fbcd96"/>
        <path id="Path_183308" data-name="Path 183308" d="M28.613,45.374c0,.514-.023,1.029.007,1.541.026.454-.121.461-.472.279a3.092,3.092,0,0,1-1.778-2.8A1.3,1.3,0,0,1,28.1,43.122a.63.63,0,0,1,.518.711c-.034.511-.008,1.027-.008,1.541h.008" transform="translate(-13.977 -22.822)" fill="#fbcd96"/>
      </g>
    </g>
  </g>
</svg>
