<svg xmlns="http://www.w3.org/2000/svg" xmlns:xlink="http://www.w3.org/1999/xlink" width="228" height="340" viewBox="0 0 228 340">
  <defs>
    <clipPath id="clip-path">
      <rect id="Rectangle_44928" data-name="Rectangle 44928" width="228" height="340" transform="translate(1105 925.602)" fill="#fff" stroke="#707070" stroke-width="1"/>
    </clipPath>
    <clipPath id="clip-path-2">
      <rect id="Rectangle_45292" data-name="Rectangle 45292" width="234.211" height="156.092" fill="#3c3fa7"/>
    </clipPath>
    <clipPath id="clip-path-3">
      <rect id="Rectangle_45288" data-name="Rectangle 45288" width="220.63" height="314.957" fill="none"/>
    </clipPath>
    <clipPath id="clip-path-4">
      <path id="Path_183365" data-name="Path 183365" d="M135.969,19.223s-4.656,6.307-9.876.891a6.166,6.166,0,0,1,4.929-2.977,7.974,7.974,0,0,1,4.947,2.085" transform="translate(-126.093 -17.138)" fill="none"/>
    </clipPath>
    <clipPath id="clip-path-5">
      <path id="Path_183367" data-name="Path 183367" d="M148.79,19.115c-6.173,2.708-6.682-4.452-6.682-4.452a5.976,5.976,0,0,1,2.154-.449c3.8,0,4.527,4.9,4.527,4.9" transform="translate(-142.108 -14.214)" fill="none"/>
    </clipPath>
    <clipPath id="clip-path-7">
      <path id="Path_183370" data-name="Path 183370" d="M142.692,28.19c.687.983-3.259,2.205-4.535,2.136-2.2-.119-2.57-1.147-.114-2.068a7.985,7.985,0,0,1,2.782-.537,2.72,2.72,0,0,1,1.866.469" transform="translate(-136.349 -27.721)" fill="none"/>
    </clipPath>
    <clipPath id="clip-path-9">
      <path id="Path_183449" data-name="Path 183449" d="M87.113,22.991s-3.62,4.934-9.618,3.6c0,0,.849-4.854,5.234-4.854a9.748,9.748,0,0,1,4.383,1.255" transform="translate(-77.495 -21.736)" fill="none"/>
    </clipPath>
    <clipPath id="clip-path-11">
      <path id="Path_183467" data-name="Path 183467" d="M86.675,34C86.56,36.543,81.9,38.669,80,36.741c-1.238-1.258,3.311-3.524,5.528-3.524.7,0,1.17.228,1.145.788" transform="translate(-79.792 -33.217)" fill="none"/>
    </clipPath>
  </defs>
  <g id="_6" data-name="6" transform="translate(-1105 -925.602)" clip-path="url(#clip-path)">
    <g id="Group_174179" data-name="Group 174179" transform="translate(1101.516 950.258)">
      <g id="Group_174173" data-name="Group 174173" transform="translate(3.484 143.822)">
        <rect id="Rectangle_44927" data-name="Rectangle 44927" width="172.683" height="171.134" transform="translate(69.693)" fill="#6b8dfc"/>
        <path id="Rectangle_44926" data-name="Rectangle 44926" d="M98.344,0H242.376a0,0,0,0,1,0,0V98.344a0,0,0,0,1,0,0H0a0,0,0,0,1,0,0v0A98.344,98.344,0,0,1,98.344,0Z" transform="translate(0 72.79)" fill="#3c3fa7"/>
      </g>
      <g id="Group_175033" data-name="Group 175033" transform="translate(0 37.344)">
        <g id="Group_175032" data-name="Group 175032" clip-path="url(#clip-path-2)">
          <path id="Path_183468" data-name="Path 183468" d="M45.409,100.968H35.023a.486.486,0,0,1-.486-.486V9.278H.486a.486.486,0,0,1,0-.973H35.023a.486.486,0,0,1,.486.486V100h9.413V.487A.486.486,0,0,1,45.81.212L53.664,11.69a.484.484,0,0,1,.085.274V90.62H62.2V45.7a.487.487,0,0,1,.486-.486h52.2V10.637a.486.486,0,0,1,.486-.486h33.406a.486.486,0,0,1,.486.486v62.2h43.711V34.158a.486.486,0,0,1,.486-.486h20.447a.486.486,0,0,1,.486.486V50h7.336V9.714a.485.485,0,0,1,.085-.274l5.7-8.324a.486.486,0,0,1,.888.274V56.106h5.326a.486.486,0,1,1,0,.973h-5.813a.486.486,0,0,1-.486-.486V2.961l-4.723,6.9v40.62a.486.486,0,0,1-.486.486h-8.309a.486.486,0,0,1-.486-.486V34.644H193.946V73.323a.486.486,0,0,1-.486.486H148.776a.486.486,0,0,1-.486-.486v-62.2H115.856V45.7a.486.486,0,0,1-.486.486h-52.2v44.92a.486.486,0,0,1-.486.486H53.262a.487.487,0,0,1-.486-.486V12.115L45.9,2.059v98.423a.486.486,0,0,1-.486.486" transform="translate(0 0)" fill="#3c3fa7"/>
          <path id="Path_183469" data-name="Path 183469" d="M152.193,239.807h-.023a.487.487,0,0,1-.463-.509c.962-20.482-2.364-33.074-9.883-37.425-3.935-2.276-8.33-1.744-11.325-.9a23.763,23.763,0,0,0-5.685,2.449.487.487,0,0,1-.745-.465,46.052,46.052,0,0,0-.719-13.108c-1.893-8.9-6.435-14.212-13.5-15.8-4.582-1.027-8.515-.454-11.693,1.7-5.907,4.011-7.266,12.211-7.279,12.293a.486.486,0,0,1-.942.079,38.181,38.181,0,0,0-7.32-11.863A34.117,34.117,0,0,0,55.6,164.909c-10.967.249-19.818,3.867-26.308,10.754-12.813,13.6-12.162,35.593-12.153,35.813a.487.487,0,0,1-.463.5.5.5,0,0,1-.509-.456c-.007-.116-.776-11.65-6.881-16.1a9.927,9.927,0,0,0-8.678-1.308.486.486,0,0,1-.241-.943c3.674-.941,6.868-.448,9.495,1.466,2.73,1.99,4.786,5.433,6.108,10.233.143.521.27,1.029.382,1.516.593-7.478,2.967-21.559,12.229-31.39,6.676-7.086,15.759-10.809,27-11.064,13.976-.3,22.823,6.193,27.787,11.712a40.249,40.249,0,0,1,6.9,10.673c.708-2.7,2.66-8.183,7.344-11.365,3.407-2.316,7.6-2.938,12.452-1.849,15.807,3.544,15.361,24.31,15.051,29.017,2.536-1.394,10.383-5.034,17.194-1.1,7.863,4.545,11.353,17.436,10.373,38.315a.486.486,0,0,1-.485.464" transform="translate(0 -84.201)" fill="#3c3fa7"/>
          <path id="Path_183470" data-name="Path 183470" d="M355,274.977h-.017a.485.485,0,0,1-.47-.5,61.709,61.709,0,0,1,2.042-12.894c2.437-8.633,6.621-13.344,12.1-13.626a3.868,3.868,0,0,1,2.957,1.1c1.445,1.376,2.137,3.8,2.467,5.832,1.473-6.822,5.419-21.581,12.27-23.177,7.56-1.763,10.671,5.78,11.45,8.157,1.871-1.357,7.882-5.239,12.4-2.79,6.038,3.274,6.108,15.937,6.108,16.474a.486.486,0,0,1-.973,0c0-.126-.068-12.621-5.6-15.619-4.734-2.567-11.823,3.067-11.895,3.125a.487.487,0,0,1-.778-.265,15.779,15.779,0,0,0-2.273-4.845c-2.13-2.957-4.894-4.064-8.218-3.29-8.124,1.894-12.153,25.547-12.193,25.786a.486.486,0,0,1-.966-.081c0-.062-.02-6.274-2.469-8.6a2.872,2.872,0,0,0-2.236-.837c-12.257.628-13.212,25.33-13.221,25.58a.486.486,0,0,1-.485.47" transform="translate(-182.098 -118.884)" fill="#3c3fa7"/>
        </g>
      </g>
      <g id="Group_175031" data-name="Group 175031" transform="translate(6.79)">
        <g id="Group_175014" data-name="Group 175014" transform="translate(0)">
          <g id="Group_175013" data-name="Group 175013" clip-path="url(#clip-path-3)">
            <path id="Path_183351" data-name="Path 183351" d="M135.608,10.814S132.316.467,146.081.9Z" transform="translate(-45.427 -0.1)"/>
            <path id="Path_183352" data-name="Path 183352" d="M114.866,36.83c-.418-.85,1.821,12.063,1.821,12.063l15.151.191L127.81,29.155Z" transform="translate(-13.046 -3.294)" fill="#ed8c6b"/>
            <path id="Path_183353" data-name="Path 183353" d="M130.977,29.962,119.24,36.92c-.2-.4.2,2.307.68,5.261l12.412-10.937Z" transform="translate(-17.42 -3.385)"/>
            <path id="Path_183354" data-name="Path 183354" d="M128.795,2.078a18.214,18.214,0,0,0-11.358,16.04c-.611,12.223,2.375,18.248,14.567,17.231A17.483,17.483,0,0,0,146.565,26l-.841-12.112L140.244,2.34Z" transform="translate(-30.034 -0.234)" fill="#ed8c6b"/>
            <path id="Path_183355" data-name="Path 183355" d="M126.093,20.115s3.461-6.056,9.876-.892c0,0-4.657,6.309-9.876.892" transform="translate(-27.181 -1.936)" fill="#fff"/>
            <path id="Path_183356" data-name="Path 183356" d="M148.79,19.115s-.988-6.66-6.681-4.452c0,0,.51,7.16,6.681,4.452" transform="translate(-54.208 -1.605)" fill="#fff"/>
            <path id="Path_183357" data-name="Path 183357" d="M142.213,23.839a.6.6,0,0,0,.514-.9l-1.581-2.672,2.182.275a.6.6,0,0,0,.149-1.183l-3.388-.428a.592.592,0,0,0-.574.264.6.6,0,0,0-.015.632l2.2,3.719a.6.6,0,0,0,.514.293" transform="translate(-47.031 -2.138)"/>
            <path id="Path_183358" data-name="Path 183358" d="M134.412,12.6a.6.6,0,0,0,.29-1.118,9.12,9.12,0,0,0-5.8-1.3.6.6,0,0,0-.468.7.6.6,0,0,0,.7.47,8.148,8.148,0,0,1,4.992,1.174.6.6,0,0,0,.29.075" transform="translate(-28.285 -1.142)"/>
            <path id="Path_183359" data-name="Path 183359" d="M145.3,10.441a.6.6,0,0,0,.442-1A4.208,4.208,0,0,0,141.789,8.2a.6.6,0,1,0,.315,1.15,2.978,2.978,0,0,1,2.755.9.6.6,0,0,0,.439.192" transform="translate(-50.639 -0.912)"/>
            <path id="Path_183360" data-name="Path 183360" d="M123.978,6.549c.784-4.706-17.805,2.1-13.758-5.609,0,0,11.959-3.174,19.216,2.136s11.437,17.976-1.219,26.909l-.149-7.1s-5.893-5.517-4.09-16.334" transform="translate(-12.954 0.001)"/>
            <path id="Path_183361" data-name="Path 183361" d="M114.876,23.17c2.129-1.9,5.13-1.848,6.7.108s1.124,5.08-1,6.976-5.13,1.848-6.7-.107-1.124-5.081,1-6.977" transform="translate(-2.059 -2.46)" fill="#ed8c6b"/>
            <path id="Path_183362" data-name="Path 183362" d="M115.306,28a.6.6,0,0,0,.17-.025l4.541-1.352a.6.6,0,1,0-.34-1.144l-4.542,1.353a.6.6,0,0,0,.17,1.168" transform="translate(-1.56 -2.876)"/>
            <path id="Path_183363" data-name="Path 183363" d="M118.668,30.228a.6.6,0,0,0,.565-.788l-.741-2.194a.6.6,0,0,0-.757-.373.594.594,0,0,0-.373.756l.741,2.194a.6.6,0,0,0,.565.405" transform="translate(-2.705 -3.033)"/>
          </g>
        </g>
        <g id="Group_175016" data-name="Group 175016" transform="translate(98.912 15.202)">
          <g id="Group_175015" data-name="Group 175015" transform="translate(0)" clip-path="url(#clip-path-4)">
            <path id="Path_183364" data-name="Path 183364" d="M132.745,20.632a3.49,3.49,0,1,1-3.026-3.9,3.489,3.489,0,0,1,3.026,3.9" transform="translate(-122.631 -17.089)"/>
          </g>
        </g>
        <g id="Group_175018" data-name="Group 175018" transform="translate(87.901 12.609)">
          <g id="Group_175017" data-name="Group 175017" transform="translate(0)" clip-path="url(#clip-path-5)">
            <path id="Path_183366" data-name="Path 183366" d="M147.313,18.39a3.379,3.379,0,1,1-6.63-.836,3.379,3.379,0,1,1,6.63.836" transform="translate(-139.371 -14.201)"/>
          </g>
        </g>
        <g id="Group_175020" data-name="Group 175020" transform="translate(0)">
          <g id="Group_175019" data-name="Group 175019" clip-path="url(#clip-path-3)">
            <path id="Path_183368" data-name="Path 183368" d="M142.693,28.19c-.273-.391-2.192-.854-4.649.067s-2.088,1.95.114,2.068c1.276.069,5.223-1.153,4.535-2.136" transform="translate(-43.082 -3.132)"/>
          </g>
        </g>
        <g id="Group_175022" data-name="Group 175022" transform="translate(93.267 24.589)">
          <g id="Group_175021" data-name="Group 175021" transform="translate(0)" clip-path="url(#clip-path-7)">
            <path id="Path_183369" data-name="Path 183369" d="M135.175,29.845A23.669,23.669,0,0,1,142.7,28.3c3.766-.026-.708,3.162-.708,3.162l-5.805,1.4Z" transform="translate(-136.747 -27.787)" fill="#fd521b"/>
          </g>
        </g>
        <g id="Group_175024" data-name="Group 175024" transform="translate(0)">
          <g id="Group_175023" data-name="Group 175023" clip-path="url(#clip-path-3)">
            <path id="Path_183371" data-name="Path 183371" d="M240.419,294.546l-21.875,45.4-43.453-35.834,5.353-7.362a8.061,8.061,0,0,1,11.137-1.867l16.869,11.785,12.951-21Z" transform="translate(-175.092 -32.283)" fill="#5774cd"/>
            <path id="Path_183372" data-name="Path 183372" d="M75.943,277.739l31.628,29.835L95.624,331.789a8.243,8.243,0,0,1-7.391,4.6H58.784l.513-10.5a8.877,8.877,0,0,1,7.621-8.323l8.128-1.152,3.842-7.939L58.913,290.928Z" transform="translate(60.919 -31.387)" fill="#5774cd"/>
            <path id="Path_183373" data-name="Path 183373" d="M175.09,298.228l7.746-12.561,19.018,8.879-7.962,16.523Z" transform="translate(-136.527 -32.283)" fill="#ed8c6b"/>
            <path id="Path_183374" data-name="Path 183374" d="M96.736,305.182,80.5,290.929l17.03-13.189L109.9,289.4Z" transform="translate(39.326 -31.387)" fill="#ed8c6b"/>
            <path id="Path_183375" data-name="Path 183375" d="M220.61,313.955a.5.5,0,0,0,.051,0,.346.346,0,0,0,.294-.393l-1.617-11.319a.347.347,0,0,0-.637-.137l-4.765,7.562-.832-9.257a.348.348,0,0,0-.639-.157l-3.58,5.544a.347.347,0,1,0,.583.377l3.033-4.7.834,9.275a.348.348,0,0,0,.265.307.352.352,0,0,0,.375-.153l4.809-7.633,1.483,10.384a.348.348,0,0,0,.342.3" transform="translate(-185.556 -33.913)"/>
            <path id="Path_183376" data-name="Path 183376" d="M175.091,289.293l2.236-3.626L201.613,297l-4.973,10.324Z" transform="translate(-136.286 -32.283)"/>
            <path id="Path_183377" data-name="Path 183377" d="M92.92,305.458,81.231,295.193l22.537-17.453,6.123,5.775Z" transform="translate(38.689 -31.387)"/>
            <path id="Path_183378" data-name="Path 183378" d="M239.911,336.506a.347.347,0,0,0,.216-.619l-43.235-34.249a.347.347,0,1,0-.431.545L239.7,336.43a.34.34,0,0,0,.216.075" transform="translate(-193.769 -34.079)"/>
            <path id="Path_183379" data-name="Path 183379" d="M192.369,320.567a5.443,5.443,0,1,0,5.443-5.443,5.442,5.442,0,0,0-5.443,5.443" transform="translate(-153.254 -35.612)" fill="#fff"/>
            <path id="Path_183380" data-name="Path 183380" d="M71.659,306.218a5.252,5.252,0,1,0,5.252-5.252,5.252,5.252,0,0,0-5.252,5.252" transform="translate(74.906 -34.012)" fill="#fff"/>
            <path id="Path_183381" data-name="Path 183381" d="M62.713,336.207H88.774a8.633,8.633,0,0,0,7.7-4.8l11.617-23.671a.336.336,0,1,0-.6-.3L95.872,331.112a7.957,7.957,0,0,1-7.1,4.424H62.713a.335.335,0,1,0,0,.671" transform="translate(57.177 -34.723)"/>
            <path id="Path_183382" data-name="Path 183382" d="M163.21,115.924,104.164,265.2l37.142,19.047,57.379-158.567Z" transform="translate(-70.447 -13.1)" fill="#fc5f65"/>
            <path id="Path_183383" data-name="Path 183383" d="M128.213,130.553s-9.328,46.82-7.857,69.521c2.2,33.962,26.107,58.744,26.107,58.744l-34.1,27.288s-36.446-43.831-35.183-83.566c1.617-50.822,7.939-67.7,7.939-67.7l-1.951-3.5,7.7-20.8,39.675,9.116Z" transform="translate(5.739 -12.491)" fill="#fc5f65"/>
            <path id="Path_183384" data-name="Path 183384" d="M201.654,293.361a.444.444,0,0,0,.2-.837l-35.139-18.1a.443.443,0,0,0-.4.789l35.137,18.1a.439.439,0,0,0,.2.05" transform="translate(-128.773 -31.007)"/>
            <path id="Path_183385" data-name="Path 183385" d="M123.749,269.761a.443.443,0,0,0,.362-.7c-.286-.4-28.643-40.805-30.84-74.089-1.149-17.4,3.106-38.387,6.878-52.932,4.09-15.775,8.51-27.581,8.554-27.7a.443.443,0,1,0-.829-.311c-.044.118-4.479,11.958-8.582,27.778-3.789,14.611-8.063,35.7-6.906,53.223,2.214,33.536,30.714,74.137,31,74.543a.442.442,0,0,0,.362.187" transform="translate(14.664 -12.853)"/>
            <path id="Path_183386" data-name="Path 183386" d="M83.921,296.335a.441.441,0,0,0,.282-.1l33.205-27.408a.444.444,0,0,0-.565-.684l-33.2,27.407a.444.444,0,0,0,.282.786" transform="translate(29.017 -30.291)"/>
            <path id="Path_183387" data-name="Path 183387" d="M121.4,49.023S101.484,61.388,99.186,89.176c-1.888,22.819,11.489,22.356,18.633,23.631,8.2,1.464,29.18,5.681,29.18,5.681l-3.054-63.509Z" transform="translate(-14.186 -5.539)" fill="#c4d1ff"/>
            <path id="Path_183388" data-name="Path 183388" d="M96.979,55.645A7.83,7.83,0,0,1,98.3,46.2c2.928-2.928,18.554-10.741,27.537-4.835s6.967,14.084,1.576,16.672-30.429-2.389-30.429-2.389" transform="translate(3.522 -4.43)" fill="#c4d1ff"/>
            <path id="Path_183389" data-name="Path 183389" d="M103.222,151.988l.805,31.109s-7.413,9.99-5.047,19.042,5.26,2.349,5.26,2.349,14.112-4.832,16.275-9.536c.724-1.574-2.494-9.09-2.534-12.312-.028-2.161,1.043-25.8,1.043-25.8Z" transform="translate(12.628 -17.176)" fill="#ed8c6b"/>
            <path id="Path_183390" data-name="Path 183390" d="M114.993,212.9l-2.712-9.061a2.882,2.882,0,0,1,1.993-3.563,2.817,2.817,0,0,1,3.575,2.054l2.052,9.239a2.553,2.553,0,0,1-1.981,3.018,2.483,2.483,0,0,1-2.928-1.687" transform="translate(1.181 -22.619)" fill="#ed8c6b"/>
            <path id="Path_183391" data-name="Path 183391" d="M114.331,210.243l-2.607-11.013a2.6,2.6,0,0,0-2.663-1.968l-.26.01a2.69,2.69,0,0,0-2.563,3.3l2.868,11a2.622,2.622,0,0,0,3.078,1.864,2.677,2.677,0,0,0,2.147-3.2" transform="translate(12.071 -22.292)" fill="#ed8c6b"/>
            <path id="Path_183392" data-name="Path 183392" d="M105.949,210.534h0a2.262,2.262,0,0,1-2.55-1.66l-2.005-7.256a2.493,2.493,0,0,1,1.376-2.928l.553-.245a2.269,2.269,0,0,1,3.163,1.676l1.453,7.5a2.478,2.478,0,0,1-1.99,2.912" transform="translate(22.791 -22.403)" fill="#ed8c6b"/>
            <path id="Path_183393" data-name="Path 183393" d="M100.992,207.366h0a1.963,1.963,0,0,1-1.927-1.42l-1.539-6.023a1.85,1.85,0,0,1,1.447-2.225l.665-.158a1.983,1.983,0,0,1,2.465,1.549l.875,6.181a1.908,1.908,0,0,1-1.986,2.1" transform="translate(31.178 -22.317)" fill="#ed8c6b"/>
            <path id="Path_183394" data-name="Path 183394" d="M106.122,203.651a.3.3,0,0,0-.391-.189.335.335,0,0,0-.2.412c.114.359,1.242,4.7,1.822,6.948a.3.3,0,0,0,.382.218.332.332,0,0,0,.222-.4c-.068-.266-1.684-6.515-1.831-6.981l0-.008" transform="translate(19.075 -22.991)"/>
            <path id="Path_183395" data-name="Path 183395" d="M111.65,205.229a.3.3,0,0,0-.391-.187.331.331,0,0,0-.2.412c.127.4,1.326,5.44,1.943,8.051a.3.3,0,0,0,.377.226.332.332,0,0,0,.231-.395c-.074-.31-1.79-7.578-1.956-8.1l0-.008" transform="translate(8.52 -23.169)"/>
            <path id="Path_183396" data-name="Path 183396" d="M101.477,201.526a.3.3,0,0,0-.4-.186.334.334,0,0,0-.192.416c.159.465,1.014,4.19,1.443,6.1a.3.3,0,0,0,.375.231.332.332,0,0,0,.234-.393c-.051-.226-1.252-5.549-1.463-6.162h0" transform="translate(28.212 -22.75)"/>
            <path id="Path_183397" data-name="Path 183397" d="M118.676,203.651c-.1-.29-.3-.5-.459-.474s-.243.311-.152.637l2.241,8.04c.09.325.306.568.48.541s.243-.311.152-.636l-2.241-8.039q-.009-.035-.021-.069" transform="translate(-5.035 -22.96)"/>
            <path id="Path_183398" data-name="Path 183398" d="M115.281,175.342s-13.511-1.751-15.468-17.409-11.834-63.972-8.7-85.018c2.324-15.586,9.751-23.74,20.8-22.342,12.865,1.629,15.126,16.359,17.913,42.986,3.176,30.353,3.257,47.644,3.889,57.993,1.206,19.774-11.665,22.534-11.665,22.534Z" transform="translate(6.555 -5.697)" fill="#c4d1ff"/>
            <path id="Path_183399" data-name="Path 183399" d="M104.459,57.356a.44.44,0,0,0,.279-.1c.157-.127,15.809-12.52,26.829-1.122a.443.443,0,1,0,.637-.616c-11.586-11.983-27.859.917-28.023,1.048a.443.443,0,0,0,.279.789" transform="translate(-3.959 -5.698)"/>
            <path id="Path_183400" data-name="Path 183400" d="M152.335,238.515a.456.456,0,0,0,.152-.027.443.443,0,0,0,.265-.569c-4.313-11.86-6.34-22.886-6.025-32.772,1.6-50.168,7.848-67.392,7.911-67.56a.444.444,0,0,0-.028-.372l-1.951-3.5a.443.443,0,1,0-.774.431l1.855,3.326c-.695,2.046-6.389,20.186-7.9,67.646-.318,10,1.727,21.137,6.079,33.1a.444.444,0,0,0,.417.292" transform="translate(-63.365 -15.085)"/>
            <path id="Path_183401" data-name="Path 183401" d="M129.095,113.349h.029a.444.444,0,0,0,.414-.471c-.02-.326-2.084-32.569-1.03-42.661.993-9.516,5.679-15.521,8.534-16.584a.444.444,0,1,0-.31-.832c-3.152,1.174-8.063,7.325-9.1,17.325-1.063,10.166,1.006,42.484,1.026,42.81a.444.444,0,0,0,.442.415" transform="translate(-29.635 -5.963)"/>
            <path id="Path_183402" data-name="Path 183402" d="M157.959,104.982s-9.077-9.346-16.143-9.345c-4.224,0-7.065-.075-8.668-.134a2.238,2.238,0,0,1-1.943-1.96,1.681,1.681,0,0,1,1.079-2.031,31.073,31.073,0,0,1,13.607,0c6.486,1.534,16.372,10,16.372,10Z" transform="translate(-57.978 -10.255)" fill="#ed8c6b"/>
            <path id="Path_183403" data-name="Path 183403" d="M161.584,98.626s-7.665-7.876-14.732-7.876c-4.548,0-7.493-.085-9.014-.146a1.759,1.759,0,0,1-1.522-1.539,2.075,2.075,0,0,1,1.353-2.515,31.037,31.037,0,0,1,13.26.078c6.486,1.534,16.373,10,16.373,10Z" transform="translate(-67.541 -9.703)" fill="#ed8c6b"/>
            <path id="Path_183404" data-name="Path 183404" d="M164.172,94.613s-7.665-7.876-14.732-7.876c-4.55,0-7.5-.085-9.017-.147a1.754,1.754,0,0,1-1.519-1.535,2.076,2.076,0,0,1,1.354-2.518,31.016,31.016,0,0,1,13.258.078c6.486,1.534,16.373,10,16.373,10Z" transform="translate(-72.424 -9.25)" fill="#ed8c6b"/>
            <path id="Path_183405" data-name="Path 183405" d="M161.929,102.848s-16.74-19.576-23.389-20.793c-4.282-.784-8.372-.966-9.8-1.286a1.83,1.83,0,0,1-1.266-1.712,1.948,1.948,0,0,1,1.512-2.243c2.954-.293,9.336-.548,14.779,1.8,5.941,2.569,22.124,18.93,22.124,18.93Z" transform="translate(-58.328 -8.659)" fill="#ed8c6b"/>
            <path id="Path_183406" data-name="Path 183406" d="M127.8,81.328l-4.14-6.509a3.2,3.2,0,0,1,.421-4.052,1.886,1.886,0,0,1,2.726.386c1.321,1.6,17.349,17.413,17.349,17.413l7.407,11.075-20.495-9.394Z" transform="translate(-40.144 -7.949)" fill="#ed8c6b"/>
            <path id="Path_183407" data-name="Path 183407" d="M163.864,91.646a.358.358,0,0,1,.02.151c-.013.15-.122.245-.243.213a29.012,29.012,0,0,0-12.648-.51.288.288,0,0,1-.118-.546,29.367,29.367,0,0,1,12.813.514.275.275,0,0,1,.176.178" transform="translate(-76.936 -10.225)"/>
            <path id="Path_183408" data-name="Path 183408" d="M169.089,87.731a.334.334,0,0,1,.01.208.217.217,0,0,1-.3.162,17.788,17.788,0,0,0-3.366-1.232,32.335,32.335,0,0,0-13.452-.162,1.79,1.79,0,0,0-.934.71.212.212,0,0,1-.339.018.339.339,0,0,1-.036-.41,2.24,2.24,0,0,1,1.2-.89,32.778,32.778,0,0,1,13.628.166,18.233,18.233,0,0,1,3.452,1.262.294.294,0,0,1,.144.168" transform="translate(-82.076 -9.661)"/>
            <path id="Path_183409" data-name="Path 183409" d="M162.447,83.761a.277.277,0,0,1,0,.192.215.215,0,0,1-.292.131,19.4,19.4,0,0,0-4.65-1.645,29.111,29.111,0,0,0-6.538-.349.232.232,0,0,1-.228-.239.241.241,0,0,1,.216-.258,29.479,29.479,0,0,1,6.627.355,19.846,19.846,0,0,1,4.751,1.678.241.241,0,0,1,.117.135" transform="translate(-75.535 -9.215)"/>
            <path id="Path_183410" data-name="Path 183410" d="M153.589,80.156a.343.343,0,0,1,0,.241.211.211,0,0,1-.319.114c-.762-.49-4.92-2.092-4.962-2.107a.325.325,0,0,1-.175-.365.222.222,0,0,1,.293-.186c.174.067,4.246,1.635,5.049,2.151a.3.3,0,0,1,.116.153" transform="translate(-64.364 -8.796)"/>
            <path id="Path_183411" data-name="Path 183411" d="M148.467,90.6c.006.039.01.077.013.117,0,.08-.095.168-.225.2s-.239-.016-.247-.095c0-.036-.006-.073-.012-.109-.327-2.534-5.234-4.059-5.286-4.074-.1-.032-.119-.121-.04-.2a.371.371,0,0,1,.331-.087,15.282,15.282,0,0,1,2.651,1.141c1.195.662,2.636,1.732,2.814,3.111" transform="translate(-54.354 -9.756)"/>
            <path id="Path_183412" data-name="Path 183412" d="M58.35,272.9a.333.333,0,0,0,.2-.6l-3.924-2.931,7.193-2.288a.333.333,0,0,0,.049-.615l-3.332-1.67,14.605-14.006a.332.332,0,0,0,.067-.389.336.336,0,0,0-.352-.178L53.6,253.5l14.729-9.955a.332.332,0,1,0-.373-.551l-16,10.816a.333.333,0,0,0-.122.4.34.34,0,0,0,.365.2L71.9,251.059,57.735,264.641a.332.332,0,0,0,.081.538l3.023,1.514-7.031,2.235a.333.333,0,0,0-.1.585l4.441,3.319a.336.336,0,0,0,.2.066" transform="translate(101.44 -27.454)"/>
            <path id="Path_183413" data-name="Path 183413" d="M77.106,15.382S73.753,4.788,85.772,6.3Z" transform="translate(66.848 -0.695)" fill="#ffb6c8"/>
            <path id="Path_183414" data-name="Path 183414" d="M84.4,24.752c1.225-9.728-3.383-17.515-12.088-19.883C57.448.827,50.126,9.373,48.9,19.1S52.962,40.9,61.984,40.93c11.439.035,21.188-6.451,22.413-16.178" transform="translate(92.819 -0.433)" fill="#ffb6c8"/>
            <path id="Path_183415" data-name="Path 183415" d="M21.2,253.794l17.716,7.429L44.7,249.132,24.827,238.109Z" transform="translate(157.13 -26.908)" fill="#ed8c6b"/>
            <path id="Path_183416" data-name="Path 183416" d="M51.024,241.929l-6.51,17.309L34.7,255.123l2.488-10.745,6.949-6.269Z" transform="translate(138.829 -26.908)"/>
            <path id="Path_183417" data-name="Path 183417" d="M81.406,309.111,76.117,328.5l14.05,4.176L97.9,310.722Z" transform="translate(55.216 -34.932)" fill="#ed8c6b"/>
            <path id="Path_183418" data-name="Path 183418" d="M57.365,138.471s-28.676,59.96-24.287,74.748c5.814,19.589,49.814,38.459,49.814,38.459l19.465-30.943L72.553,200.8l10.229-15.737-14.6-54.451Z" transform="translate(89.339 -14.76)" fill="#ffd947"/>
            <path id="Path_183419" data-name="Path 183419" d="M76.117,318.66l2.605-9.549,20.135,1.966-3.614,10.26c-5.38.237-12.624-.116-19.126-2.677" transform="translate(54.259 -34.932)"/>
            <path id="Path_183420" data-name="Path 183420" d="M11.652,136.666S25.826,147.63,32.94,133,31.8,83.529,26.412,73.777C17.9,58.369,2.508,61.693,2.508,61.693Z" transform="translate(182.705 -6.937)"/>
            <path id="Path_183421" data-name="Path 183421" d="M66.177,62.462S62.3,54.079,68.189,50.3s6.174-1.344,6.174-1.344Z" transform="translate(88.681 -5.445)" fill="#fd521b"/>
            <path id="Path_183422" data-name="Path 183422" d="M136.176,56.213a9.93,9.93,0,0,0-10.44,6.29C122.569,69.953,113.9,97.681,113.9,97.681L81.075,79.519,70.638,99.966s37.646,39.769,53.3,28.947,12.24-72.7,12.24-72.7" transform="translate(21.484 -6.344)" fill="#fc5f65"/>
            <path id="Path_183423" data-name="Path 183423" d="M99.5,142.906S88.689,227.259,63.595,296.377c0,0-22.3,4.533-34.779-6.293L59.321,158.618l-3.591-4.559,7.064-17.067Z" transform="translate(95.568 -15.481)" fill="#ffd947"/>
            <path id="Path_183424" data-name="Path 183424" d="M29.6,74.81s-8.161,54.716-.534,61.219,48.859.067,49.151-5.129-1.17-16.2-1.17-16.2L74.6,85.749,50.312,54.457,36.748,56.288Z" transform="translate(119.479 -6.153)" fill="#fc5f65"/>
            <path id="Path_183425" data-name="Path 183425" d="M25.228,126.006,60.47,140.033l.467-8.552-32.571-9.538Z" transform="translate(137.317 -13.78)"/>
            <path id="Path_183426" data-name="Path 183426" d="M0,55.807s13.65-6.389,32.522,7.939,35.209,46.179,20.669,52.723-45.816,4.123-45.816,4.123L2.744,102.185,29.07,97.652,15.992,83.985Z" transform="translate(161.857 -6.146)" fill="#fc5f65"/>
            <path id="Path_183427" data-name="Path 183427" d="M54.736,105.976,69.157,54.894l-2.6-.527L51.029,104.709Z" transform="translate(106.211 -6.143)"/>
            <path id="Path_183428" data-name="Path 183428" d="M45.944,50.314s12.393-7.556,19.012-4.978,5.553,9.954,5.553,9.954-8.6-3.857-25.659,7.024Z" transform="translate(110.277 -5.062)" fill="#fc5f65"/>
            <path id="Path_183429" data-name="Path 183429" d="M58.372,43.515,59.953,50.9l1.181,5.522L66.291,50.8l6.474-4.548L70.51,36.431Z" transform="translate(96.089 -4.116)" fill="#ed8c6b"/>
            <path id="Path_183430" data-name="Path 183430" d="M62.233,50.66,60.7,43.514l12.138-7.083.188.82Z" transform="translate(93.758 -4.116)"/>
            <path id="Path_183431" data-name="Path 183431" d="M74.419,129.6a.333.333,0,0,0,.333-.328c.005-.419.586-42.016,3.649-53.834,1.226-4.73,5.449-15.614,5.491-15.723a.333.333,0,0,0-.621-.24c-.042.11-4.28,11.028-5.514,15.8-3.082,11.9-3.665,53.573-3.67,53.992a.333.333,0,0,0,.328.337Z" transform="translate(71.002 -6.696)"/>
            <path id="Path_183432" data-name="Path 183432" d="M45.5,124.992c4.657,0,9.614-.126,13.514-.53a.333.333,0,1,0-.069-.662c-9.54.99-25.482.3-27.65.2l-4.484-17.82,25.973-4.473a.332.332,0,0,0,.184-.557L39.886,87.484a.332.332,0,1,0-.48.459l12.646,13.215L26.34,105.585a.331.331,0,0,0-.265.409L30.706,124.4a.334.334,0,0,0,.306.251c.109.005,6.9.339,14.484.339" transform="translate(138.203 -9.874)"/>
            <path id="Path_183433" data-name="Path 183433" d="M22.015,103.3l.038,0,10.139-1.173a.332.332,0,0,0,.292-.368.327.327,0,0,0-.368-.292l-10.139,1.173a.332.332,0,0,0,.038.663" transform="translate(168.912 -11.466)"/>
            <path id="Path_183434" data-name="Path 183434" d="M75.136,61.1a.333.333,0,0,0,.2-.6,5.721,5.721,0,0,1-2.152-3.956.332.332,0,0,0-.663.035,6.288,6.288,0,0,0,2.426,4.462.337.337,0,0,0,.194.062" transform="translate(80.841 -6.353)"/>
            <path id="Path_183435" data-name="Path 183435" d="M44.879,60.117A.354.354,0,0,0,45,60.1a127.51,127.51,0,0,1,13.685-3.9c7.509-1.762,10.835-.312,10.867-.3a.333.333,0,0,0,.279-.6c-.139-.064-3.529-1.569-11.3.254-6.755,1.584-11.364,3.088-13.052,3.669,3.581-8.008,12.719-11,12.813-11.026a.333.333,0,0,0-.2-.634c-.1.032-10.051,3.28-13.519,12.1a.332.332,0,0,0,.31.454" transform="translate(111.098 -5.372)"/>
            <path id="Path_183436" data-name="Path 183436" d="M61.29,106.755l9.038-2.486a2.742,2.742,0,0,1,3.384,2.113,2.941,2.941,0,0,1-2.217,3.554l-9.177,1.815a2.433,2.433,0,0,1-2.848-2.085,2.6,2.6,0,0,1,1.819-2.91" transform="translate(94.121 -11.772)" fill="#ed8c6b"/>
            <path id="Path_183437" data-name="Path 183437" d="M60.246,117.8l10.948-2.326a2.708,2.708,0,0,0,2.08-2.633l.005-.263a2.58,2.58,0,0,0-3.095-2.68l-10.953,2.59a2.739,2.739,0,0,0-2,3.056,2.552,2.552,0,0,0,3.016,2.257" transform="translate(96.611 -12.411)" fill="#ed8c6b"/>
            <path id="Path_183438" data-name="Path 183438" d="M57.633,120.511h0a2.362,2.362,0,0,1,1.772-2.53l7.229-1.825a2.362,2.362,0,0,1,2.794,1.473l.208.565a2.362,2.362,0,0,1-1.822,3.147L60.377,122.6a2.362,2.362,0,0,1-2.744-2.09" transform="translate(99.737 -13.118)" fill="#ed8c6b"/>
            <path id="Path_183439" data-name="Path 183439" d="M57.6,124.941h0a2.046,2.046,0,0,1,1.5-1.906l5.994-1.387a1.764,1.764,0,0,1,2.1,1.524l.117.676a2.066,2.066,0,0,1-1.657,2.447l-6.112.71a1.838,1.838,0,0,1-1.943-2.064" transform="translate(102.206 -13.742)" fill="#ed8c6b"/>
            <path id="Path_183440" data-name="Path 183440" d="M73.2,109.712l-.008-.01a.227.227,0,0,0-.32-.027,4.081,4.081,0,0,1-1.476.655l-9.694,2.031a3.886,3.886,0,0,0-2.233,1.622,2.547,2.547,0,0,0-.12,2.079c.934,2.846,5.019,1.746,5.274,1.674l5.8-1.12c.436-.085,2.784-.655,3.376-.844a.227.227,0,0,0-.137-.433c-.582.185-2.9.747-3.324.83l-5.806,1.123-.022.005c-.039.012-3.9,1.128-4.725-1.377a2.111,2.111,0,0,1,.088-1.722,3.467,3.467,0,0,1,1.939-1.4l9.68-2.029a4.486,4.486,0,0,0,1.679-.752.228.228,0,0,0,.035-.31" transform="translate(94.172 -12.388)"/>
            <path id="Path_183441" data-name="Path 183441" d="M70.345,121.266a.227.227,0,0,0-.25-.079c-.575.183-4.137.845-4.737.93-.561.081-2.383.414-2.461.428-.034.006-3.43.586-3.835-1.606a1.736,1.736,0,0,1,.949-1.883,4.4,4.4,0,0,1,1.29-.516.227.227,0,1,0-.088-.445c-1.048.206-2.939,1.082-2.6,2.927.39,2.11,3.025,2.212,4.364,1.971.02,0,1.891-.346,2.444-.426s4.183-.749,4.809-.948a.226.226,0,0,0,.113-.353" transform="translate(98.284 -13.345)"/>
            <path id="Path_183442" data-name="Path 183442" d="M74.629,103.9a.227.227,0,0,0-.236-.083c-.059.015-5.843,1.462-8.191,2.072-2.475.644-3.694,2.093-3.346,3.976a2.905,2.905,0,0,0,2.814,2.289.227.227,0,0,0,0-.454,2.413,2.413,0,0,1-2.37-1.918c-.3-1.642.766-2.869,3.014-3.454,2.346-.61,8.128-2.057,8.187-2.07a.228.228,0,0,0,.165-.276.235.235,0,0,0-.039-.082" transform="translate(90.255 -11.731)"/>
            <path id="Path_183443" data-name="Path 183443" d="M86.368,25.616c1.216-9.658-2.278-16.156-10.888-17.9C64.848,5.57,57.115,12.493,55.9,22.149s2.369,20.03,11.154,20.035c11.136.007,18.1-6.911,19.316-16.569" transform="translate(84.652 -0.827)" fill="#ed8c6b"/>
            <path id="Path_183444" data-name="Path 183444" d="M77.5,26.59s1.368-7.83,9.618-3.6c0,0-3.62,4.934-9.618,3.6" transform="translate(64.781 -2.456)" fill="#fff"/>
            <path id="Path_183445" data-name="Path 183445" d="M89.641,25.034,94.2,26.686l.25,6.263Z" transform="translate(46.666 -2.828)" fill="#ed8c6b"/>
            <path id="Path_183446" data-name="Path 183446" d="M64.781,7.7c8.61,1.74,12.98,8.172,11.764,17.829-.456,3.618-2.04,9.467-4.027,12.1L67.793,23.988c-6.049.449-6.768-7.649-6.768-7.649-6.686-.38-6.661-5.631-6.055-8.34,2.808-1.126,6.184-1.032,9.81-.3" transform="translate(95.35 -0.807)" fill="#ffb6c8"/>
            <path id="Path_183447" data-name="Path 183447" d="M84.866,17.874c-.244.561-1.569.526-2.96-.081s-2.319-1.552-2.074-2.114,1.569-.526,2.961.08,2.318,1.553,2.073,2.115" transform="translate(64.95 -1.726)"/>
          </g>
        </g>
        <g id="Group_175026" data-name="Group 175026" transform="translate(142.276 19.28)">
          <g id="Group_175025" data-name="Group 175025" transform="translate(0)" clip-path="url(#clip-path-9)">
            <path id="Path_183448" data-name="Path 183448" d="M82.238,23.886a3.482,3.482,0,1,0,6.852.863,3.482,3.482,0,1,0-6.852-.863" transform="translate(-83.684 -21.585)"/>
          </g>
        </g>
        <g id="Group_175028" data-name="Group 175028" transform="translate(0)">
          <g id="Group_175027" data-name="Group 175027" clip-path="url(#clip-path-3)">
            <path id="Path_183450" data-name="Path 183450" d="M58.226,25.462a4.916,4.916,0,0,1,6.6-2.106,4.916,4.916,0,0,1,1.367,6.8,4.916,4.916,0,0,1-6.6,2.1,4.916,4.916,0,0,1-1.367-6.8" transform="translate(102.7 -2.573)" fill="#ed8c6b"/>
            <path id="Path_183451" data-name="Path 183451" d="M60.275,29.5a.464.464,0,0,0,.263-.082l3.994-2.747a.463.463,0,1,0-.526-.763l-3.995,2.747a.464.464,0,0,0,.263.845" transform="translate(102.846 -2.918)"/>
            <path id="Path_183452" data-name="Path 183452" d="M63,30.966a.458.458,0,0,0,.294-.1.464.464,0,0,0,.065-.653L61.9,28.419a.464.464,0,1,0-.718.587L62.646,30.8a.46.46,0,0,0,.358.17" transform="translate(102.988 -3.192)"/>
            <path id="Path_183453" data-name="Path 183453" d="M132.773,333.317l.145,16.658a2.1,2.1,0,0,1-2.461,2.087l-44.339-7.743a3.19,3.19,0,0,1-2.581-3.763l.693-3.5a8.886,8.886,0,0,1,9.744-7.1l14.612,1.7,9.647-3.049Z" transform="translate(13.671 -37.136)" fill="#d7e5ff"/>
            <path id="Path_183454" data-name="Path 183454" d="M80.9,332.477a.272.272,0,0,0,.272-.271l.033-4.012,5,3.64a.27.27,0,0,0,.3.012.276.276,0,0,0,.126-.278l-.514-3.009,16.329,2.851a.273.273,0,0,0,.237-.464l-11.5-11.125,13.715,4.9a.273.273,0,0,0,.183-.514l-14.9-5.323a.273.273,0,0,0-.281.453l11.773,11.384-15.836-2.765a.272.272,0,0,0-.316.314L85.978,331l-4.886-3.558a.272.272,0,0,0-.433.217l-.036,4.542a.273.273,0,0,0,.271.275Z" transform="translate(43.865 -36.035)"/>
            <path id="Path_183455" data-name="Path 183455" d="M105.455,318.754a.276.276,0,0,0,.209-.1.273.273,0,0,0,.044-.273c-.067-.175-1.69-4.3-4.352-5.193a3.3,3.3,0,0,0-2.894.416c-.781.487-1.126,1.02-1.021,1.582.379,2.042,7.187,3.411,7.962,3.56a.263.263,0,0,0,.052.005m-5.1-5.185a2.629,2.629,0,0,1,.831.137c1.923.643,3.315,3.313,3.814,4.4-2.794-.59-6.8-1.833-7.021-3.022-.059-.32.2-.663.773-1.02a3.015,3.015,0,0,1,1.6-.5" transform="translate(28.49 -35.374)"/>
            <path id="Path_183456" data-name="Path 183456" d="M98.683,323.549c2.687,0,8.022-3.8,8.7-4.285a.273.273,0,0,0-.057-.474c-.209-.084-5.151-2.057-8.1-.463a3.928,3.928,0,0,0-1.995,2.847c-.21,1.063-.035,1.785.525,2.143a1.7,1.7,0,0,0,.934.232m7.955-4.428c-2.263,1.58-7.2,4.634-8.6,3.738-.352-.225-.447-.757-.282-1.578a3.394,3.394,0,0,1,1.716-2.474c2.225-1.2,5.864-.133,7.162.314" transform="translate(26.979 -35.904)"/>
            <path id="Path_183457" data-name="Path 183457" d="M132.519,349.145a.273.273,0,0,0,.047-.541L83.51,340.039a.268.268,0,0,0-.315.221.271.271,0,0,0,.221.315l49.056,8.566a.291.291,0,0,0,.047,0" transform="translate(14.049 -38.427)"/>
            <path id="Path_183458" data-name="Path 183458" d="M11.487,247.173l16.752,1.519a2.121,2.121,0,0,1,1.852,2.681L17.881,295.152a3.221,3.221,0,0,1-4.039,2.217L10.4,296.324a8.972,8.972,0,0,1-6.159-10.5l3.168-14.513-2.1-10Z" transform="translate(186.886 -27.933)" fill="#d7e5ff"/>
            <path id="Path_183459" data-name="Path 183459" d="M38.491,268.8a.282.282,0,0,0,.03-.561l-4.016-.432,4.149-4.65a.28.28,0,0,0,.043-.311.273.273,0,0,0-.272-.157l-3.067.216,4.494-16.115a.282.282,0,0,0-.453-.29l-12.3,10.429,6.279-13.265a.281.281,0,1,0-.508-.24L26.03,257.865a.281.281,0,0,0,.082.343.278.278,0,0,0,.353-.009l12.6-10.678-4.355,15.615a.286.286,0,0,0,.052.254.274.274,0,0,0,.239.1l2.774-.2-4.053,4.542a.281.281,0,0,0,.179.467l4.561.491.03,0" transform="translate(157.704 -27.491)"/>
            <path id="Path_183460" data-name="Path 183460" d="M42.81,267.559c.03,0,.062,0,.093,0,2.094-.177,4.152-6.885,4.38-7.649a.281.281,0,0,0-.345-.351c-.183.051-4.5,1.268-5.657,3.858a3.336,3.336,0,0,0,.13,2.955c.389.791.859,1.191,1.4,1.191m3.776-7.3c-.873,2.746-2.517,6.635-3.73,6.737-.32.036-.642-.266-.942-.875a2.8,2.8,0,0,1-.121-2.476c.833-1.858,3.638-2.989,4.792-3.386" transform="translate(136.974 -29.331)"/>
            <path id="Path_183461" data-name="Path 183461" d="M41.181,269.985a1.388,1.388,0,0,0,1.158-.495c1.547-1.954-2.629-9.262-3.111-10.089a.3.3,0,0,0-.249-.14.284.284,0,0,0-.243.151c-.106.2-2.582,4.971-1.275,8.1a3.966,3.966,0,0,0,2.665,2.291,3.674,3.674,0,0,0,1.056.181m-2.176-9.838c1.362,2.437,3.93,7.681,2.892,8.994-.261.326-.8.37-1.607.124a3.427,3.427,0,0,1-2.31-1.968c-.979-2.344.444-5.881,1.025-7.15" transform="translate(145.06 -29.299)"/>
            <path id="Path_183462" data-name="Path 183462" d="M8.885,297.321a.282.282,0,0,0,.271-.206l13.507-48.436a.281.281,0,1,0-.542-.151L8.614,296.964a.281.281,0,0,0,.2.346.246.246,0,0,0,.075.011" transform="translate(190.325 -28.062)"/>
            <path id="Path_183463" data-name="Path 183463" d="M43.411,260.436a.333.333,0,0,0,.323-.254l8.559-35.173a.333.333,0,1,0-.647-.158l-8.559,35.173a.332.332,0,0,0,.244.4.306.306,0,0,0,.079.01" transform="translate(130.118 -25.381)"/>
            <path id="Path_183464" data-name="Path 183464" d="M74.075,235.08a.332.332,0,0,0,.325-.257l17.169-74a.334.334,0,0,0-.063-.281l-3.589-4.559a.333.333,0,1,0-.522.412l3.49,4.433L73.752,234.672a.333.333,0,0,0,.247.4.323.323,0,0,0,.075.009" transform="translate(63.643 -17.613)"/>
            <path id="Path_183465" data-name="Path 183465" d="M86.674,34c.106-2.326-8.3,1.08-6.671,2.736,1.9,1.929,6.557-.2,6.671-2.736" transform="translate(63.18 -3.753)"/>
          </g>
        </g>
        <g id="Group_175030" data-name="Group 175030" transform="translate(142.972 29.464)">
          <g id="Group_175029" data-name="Group 175029" transform="translate(0)" clip-path="url(#clip-path-11)">
            <path id="Path_183466" data-name="Path 183466" d="M78.711,35.292s6.292-1.488,9.427-.7.571,5.261.571,5.261l-9.686,2.237-2.407-6.179Z" transform="translate(-79.994 -33.346)" fill="#fd521b"/>
          </g>
        </g>
      </g>
    </g>
  </g>
</svg>
