<svg xmlns="http://www.w3.org/2000/svg" xmlns:xlink="http://www.w3.org/1999/xlink" width="144" height="138" viewBox="0 0 144 138">
  <defs>
    <clipPath id="clip-path">
      <rect id="Rectangle_45376" data-name="Rectangle 45376" width="90.988" height="100.35" fill="none"/>
    </clipPath>
  </defs>
  <g id="_7-1" data-name="7-1" transform="translate(-698 -4474.297)">
    <g id="Group_165391" data-name="Group 165391" transform="translate(161 3186.297)">
      <rect id="Rectangle_40797" data-name="Rectangle 40797" width="144" height="138" transform="translate(537 1288)" fill="#ffe891"/>
    </g>
    <g id="Group_175284" data-name="Group 175284" transform="translate(724.121 4493.122)">
      <g id="Group_175284-2" data-name="Group 175284" clip-path="url(#clip-path)">
        <path id="Path_184759" data-name="Path 184759" d="M39.415,0a7.738,7.738,0,0,1,2.453,1.333A5.055,5.055,0,0,1,43.5,5.085q.019,13.277,0,26.555a2.8,2.8,0,0,1-2.189,2.87,2.756,2.756,0,0,1-3.33-1.374c-1.241-1.991-2.484-3.982-3.675-6a1.473,1.473,0,0,0-1.47-.822q-13.719.04-27.438.014a4.987,4.987,0,0,1-5.265-3.9A6.983,6.983,0,0,1,.006,20.87q-.013-7.4,0-14.8C0,2.537.89,1.231,4.136,0Z" transform="translate(0)"/>
        <path id="Path_184760" data-name="Path 184760" d="M46,138.868c-3.233,0-6.466-.011-9.7,0a28.085,28.085,0,0,1-15.713-4.615Q12.016,128.7,3.441,123.14c-1.059-.687-1.317-1.242-.846-2.267,5.017-10.921,11.885-20.376,21.958-27.2A17.919,17.919,0,0,1,35.1,90.288a18.356,18.356,0,0,1,10.349,3.359c.406.285.677.436,1.183.1,6.842-4.591,13.772-4.58,20.725-.265,5.723,3.552,10.193,8.42,14.2,13.746a63.731,63.731,0,0,1,7.91,13.333c.581,1.368.444,1.837-.767,2.614-5.923,3.8-11.84,7.62-17.782,11.394A27.455,27.455,0,0,1,56,138.866c-3.331.011-6.662,0-9.994,0" transform="translate(-1.011 -38.521)"/>
        <path id="Path_184761" data-name="Path 184761" d="M110.592,28.228c1.288-.1,2.6.228,3.87-.2.483.605.854,1.346,1.754,1.448,1.372.1,2.743.01,4.111.046,1.139.029,1.49.316,1.769,1.423a5.985,5.985,0,0,1,.154,1.456q.005,7.487,0,14.974a3.505,3.505,0,0,1-.859,2.714,3.712,3.712,0,0,1-1.732.2c-7.669.005-15.339.019-23.008-.009-1.715-.006-3.413-.112-4.619,1.443a2.651,2.651,0,0,1-.964.131,2.207,2.207,0,0,0-1.922.973,3.887,3.887,0,0,1-.5.6c-.472.426-.718.349-.847-.262a2.808,2.808,0,0,1-.034-.585c.006-7.138-.023-14.276.011-21.414a2.224,2.224,0,0,1,2.035-1.821,7.3,7.3,0,0,1,1.367-.053c5.448,0,10.9-.022,16.344.017a3.514,3.514,0,0,0,3.072-1.087" transform="translate(-37.449 -11.962)" fill="#e9f8f9"/>
        <path id="Path_184762" data-name="Path 184762" d="M89.9,50.553c.628-1.289,1.68-1.542,3.049-1.533,8.377.056,16.754.029,25.131.025.389,0,.778-.039,1.167-.06a2.536,2.536,0,0,1,1.688-.324c1.5-.035,2.053-.564,2.114-2.064.037-.911.011-1.824.011-2.736q0-6.2,0-12.408c0-1.92-.6-2.4-2.485-2.6-2.271-.244-4.544-.065-6.81-.241a1.571,1.571,0,0,1-1.41-1.6,1.615,1.615,0,0,1,1.834-1.371c2.351.023,4.7-.01,7.053.012a4.983,4.983,0,0,1,5.072,5.093q.034,8.033,0,16.066a4.949,4.949,0,0,1-5.092,5.164c-2.415.053-4.833.013-7.249.013-6.857,0-13.715.009-20.573-.014a1.312,1.312,0,0,0-1.325.723c-1.172,1.994-2.4,3.953-3.621,5.92-.9,1.461-1.983,1.939-3.434,1.544a2.873,2.873,0,0,1-2.2-3.154q0-12.98,0-25.96a5.063,5.063,0,0,1,5.385-5.4q9.16-.009,18.32,0c1.282,0,1.642.3,1.96,1.559-.26,1.068-.965,1.4-2.023,1.394-6.091-.028-12.184-.016-18.275-.011a2.008,2.008,0,0,0-2.271,1.538,2.213,2.213,0,0,0-.084,1.058c-.006,5.322.029,10.644-.017,15.965-.026,3,.142,5.991.256,9.075.933-1.323,1.661-2.7,2.516-3.992A4.952,4.952,0,0,1,89.9,50.553" transform="translate(-35.339 -10.941)"/>
        <path id="Path_184763" data-name="Path 184763" d="M38.846,27.476a4.816,4.816,0,0,1-.437-.634,2.233,2.233,0,0,0-2.3-1.284c-9.308.028-18.616.016-27.924.015-.359,0-.72.01-1.077-.018A1.976,1.976,0,0,1,5.143,23.53q-.031-8.181,0-16.362A2.026,2.026,0,0,1,7.41,5.13q5.536-.019,11.072,0,9.993.012,19.986.032a1.837,1.837,0,0,1,.885,1.83c.042,1.337.015,2.674.015,4.012,0,5.024.011,10.046-.014,15.07,0,.495.221,1.143-.508,1.406" transform="translate(-2.188 -2.186)" fill="#e9f8f9"/>
        <path id="Path_184764" data-name="Path 184764" d="M63.665,27.48c.356-.315.2-.734.2-1.106.01-6.3,0-12.6.019-18.9a3.945,3.945,0,0,0-.6-2.315c.651-.01,1.3-.037,1.954-.029a2.13,2.13,0,0,1,2.326,2.3c.025,1.564.006,3.13.006,4.7,0,7.138,0,14.277-.186,21.519L63.665,27.48" transform="translate(-27.007 -2.19)" fill="#c8eef1"/>
        <path id="Path_184765" data-name="Path 184765" d="M58.9,158.781c-6.723,0-13.448.087-20.169-.03a20.709,20.709,0,0,1-10.517-3.007c-5.334-3.261-10.553-6.71-16.092-10.254,1.687-.2,3.078-.4,4.474-.535a161.587,161.587,0,0,1,20.419-1.022c4.305.115,8.608.351,12.691,1.954a1.516,1.516,0,0,0,1.145-.014c4.116-1.615,8.453-1.836,12.791-1.94a138.921,138.921,0,0,1,17.785.811c.05.53-.362.73-.708.953-5.7,3.667-11.387,7.352-17.122,10.962a15.232,15.232,0,0,1-4.7,2.121" transform="translate(-5.172 -61.406)" fill="#e659a9"/>
        <path id="Path_184766" data-name="Path 184766" d="M13.7,117.328c4.631-7.585,10.052-14.467,17.7-19.248,6.4-4,12.51-3.55,18.458,1.159.808.64,1.383.613,2.262-.12a14.378,14.378,0,0,1,7.052-3.344,14.979,14.979,0,0,1,4.2,2.421,54.933,54.933,0,0,1,8.019,7.549,76.455,76.455,0,0,1,7.027,9.364c.249.379.7.746.342,1.3-4.746-1.888-9.535-3.68-14.222-5.707a9.192,9.192,0,0,0-6.876-.428c-5.257,1.63-10.573,1.032-15.77-.654-1.325-.43-1.872-.19-2.359,1.051-.253.53-.753.447-1.194.451-1.857.019-3.715.049-5.57-.005a10.028,10.028,0,0,0-4.183.816c-4.4,1.817-8.815,3.576-13.233,5.338a5.12,5.12,0,0,1-1.01.362c-.265.045-.6.158-.646-.307" transform="translate(-5.847 -40.696)" fill="#e659a9"/>
        <path id="Path_184767" data-name="Path 184767" d="M44.255,123.4a2.437,2.437,0,0,0,1.394.99,29.69,29.69,0,0,0,19.3.2,1.347,1.347,0,0,1,1.02-.006q9.823,3.958,19.658,7.889a5.782,5.782,0,0,1,.534.32,45.119,45.119,0,0,1-5.643-.271c-6.789-.378-13.572-.6-20.321.5a24.07,24.07,0,0,0-3.515.826,3.481,3.481,0,0,1-2.239-.014,44.643,44.643,0,0,0-11.9-1.576c-5.98-.167-11.942.188-17.939.607q3.232-1.3,6.464-2.594,4.121-1.656,8.241-3.317c1.266-.514,1.433-.793,1.359-2.131a7.5,7.5,0,0,1,3.581-1.421" transform="translate(-10.502 -52.658)" fill="#fefefe"/>
        <path id="Path_184768" data-name="Path 184768" d="M112.618,116.429a1.884,1.884,0,0,0-.46-1.05,76.365,76.365,0,0,0-7.188-9.552,49.833,49.833,0,0,0-9.056-8.234c-.942-.629-1.922-1.2-2.884-1.8a12.778,12.778,0,0,1,8.581.887,31.326,31.326,0,0,1,9.031,6.293,69.366,69.366,0,0,1,13.064,17.263c.107.2.2.4.443.882l-11.531-4.689" transform="translate(-39.699 -40.713)" fill="#df3d9b"/>
        <path id="Path_184769" data-name="Path 184769" d="M93.717,159.412c1.756-.98,3.651-1.678,5.344-2.8,3.3-2.189,6.669-4.28,10.009-6.411q3.2-2.045,6.409-4.086a2.589,2.589,0,0,0,.768-.738l6.633.66c-.144.459-.488.539-.743.7q-6.776,4.366-13.565,8.713a24.89,24.89,0,0,1-14.854,3.96" transform="translate(-39.992 -62.037)" fill="#df3d9b"/>
        <path id="Path_184770" data-name="Path 184770" d="M38.035,122.83l-3.581,1.421c-.828-1-1.246-1.091-2.55-.568l-21,8.427c-.235.095-.471.187-.872.346a25.791,25.791,0,0,1,2.1-3.733c.259.33.517.111.781,0q7.131-2.879,14.266-5.75a8.9,8.9,0,0,1,3.6-.736c2.018.056,4.038.015,6.058.014a1.87,1.87,0,0,0,1.135-.186l.062.761" transform="translate(-4.282 -52.091)" fill="#df3d9b"/>
        <path id="Path_184771" data-name="Path 184771" d="M136.8,30.807c2.481-.008,4.962-.037,7.443-.017a2.03,2.03,0,0,1,2.165,2.146q.026,8.082,0,16.164a1.976,1.976,0,0,1-1.979,2.111c-.711.048-1.43-.017-2.146-.03a7.336,7.336,0,0,0,.6-3.132c-.033-4.8-.014-9.6-.014-14.4,0-.2,0-.392,0-.588-.051-1.779-.367-2.055-2.1-2.106a16.093,16.093,0,0,1-3.973-.15" transform="translate(-58.377 -13.137)" fill="#c8eef1"/>
        <path id="Path_184772" data-name="Path 184772" d="M92.068,53.894l-3.945,6.55-.206-.071V56.021q0-10.71,0-21.421c0-.38-.109-.786.162-1.132V55.837c.959-1.5,2.176-2.315,3.985-1.943" transform="translate(-37.51 -14.282)" fill="#c8eef1"/>
        <path id="Path_184773" data-name="Path 184773" d="M119.826,49.388a1.507,1.507,0,0,1-1.493-1.5,1.468,1.468,0,0,1,2.933-.05,1.513,1.513,0,0,1-1.44,1.551" transform="translate(-50.497 -19.826)" fill="#030303"/>
        <path id="Path_184774" data-name="Path 184774" d="M107.412,46.465a1.469,1.469,0,0,1,1.493,1.48,1.542,1.542,0,0,1-1.458,1.445,1.475,1.475,0,0,1-1.464-1.509,1.414,1.414,0,0,1,1.429-1.416" transform="translate(-45.227 -19.828)" fill="#020202"/>
        <path id="Path_184775" data-name="Path 184775" d="M133.632,47.894a1.479,1.479,0,0,1-1.478,1.5,1.538,1.538,0,0,1-1.443-1.458,1.471,1.471,0,0,1,1.5-1.467,1.416,1.416,0,0,1,1.418,1.429" transform="translate(-55.778 -19.828)" fill="#020202"/>
        <path id="Path_184776" data-name="Path 184776" d="M24.372,20.859a1.468,1.468,0,1,1,.014,2.936,1.468,1.468,0,0,1-.014-2.936" transform="translate(-9.783 -8.901)" fill="#020202"/>
        <path id="Path_184777" data-name="Path 184777" d="M36.748,20.858a1.468,1.468,0,0,1,.006,2.936,1.468,1.468,0,1,1-.006-2.936" transform="translate(-15.055 -8.901)" fill="#020202"/>
        <path id="Path_184778" data-name="Path 184778" d="M49.132,23.8a1.467,1.467,0,1,1,.022-2.933,1.467,1.467,0,0,1-.022,2.933" transform="translate(-20.344 -8.903)" fill="#010101"/>
      </g>
    </g>
  </g>
</svg>
