<svg xmlns="http://www.w3.org/2000/svg" xmlns:xlink="http://www.w3.org/1999/xlink" width="144" height="138" viewBox="0 0 144 138">
  <defs>
    <clipPath id="clip-path">
      <rect id="Rectangle_45265" data-name="Rectangle 45265" width="98.002" height="97.954" fill="none"/>
    </clipPath>
  </defs>
  <g id="_7" data-name="7" transform="translate(-698 -4474.297)">
    <g id="Group_165391" data-name="Group 165391" transform="translate(161 3186.297)">
      <rect id="Rectangle_40797" data-name="Rectangle 40797" width="144" height="138" transform="translate(537 1288)" fill="#ffe891"/>
    </g>
    <g id="Group_174955" data-name="Group 174955" transform="translate(721 4494.296)">
      <g id="Group_174955-2" data-name="Group 174955" clip-path="url(#clip-path)">
        <path id="Path_182764" data-name="Path 182764" d="M86.233,21.43c1.33-.546,1.785-.425,2.693.761A48.022,48.022,0,0,1,98.945,48.452,39.021,39.021,0,0,1,87.1,80.23a36.816,36.816,0,0,1-9.872,6.964,3.671,3.671,0,0,0-1.308,1.089,31.375,31.375,0,0,1-21.866,12.508c-11.934,1.327-21.809-2.826-29.486-12.085a6.729,6.729,0,0,0-2.16-1.778A39.1,39.1,0,0,1,9.7,76.569a1.689,1.689,0,0,1-.037-2.464,1.4,1.4,0,0,1,2.023-.386,3.943,3.943,0,0,1,.9.824,38.809,38.809,0,0,0,7.2,6.677,33.314,33.314,0,0,1-2.565-10.359,21.819,21.819,0,0,1-.071-2.853,1.171,1.171,0,0,0-1.015-1.368,11.723,11.723,0,0,1-6.1-3.883,11.589,11.589,0,0,1-2.7-7.117c-.054-1.155-.015-2.314-.008-3.472a8.4,8.4,0,0,1,8.564-8.524c1.129.006,1.866-.248,2.282-1.357a4.308,4.308,0,0,1,1.1-1.584,11.853,11.853,0,0,1,3.019-2.233,11.358,11.358,0,0,0,5.689-7.729c.265-1.127.358-2.287.616-3.415a1.893,1.893,0,0,1,3.677-.335,31.85,31.85,0,0,1,1.209,3.578c1.673,6.25,8.126,5.711,11.37,2.756a8.808,8.808,0,0,0,2.708-4.238,16.238,16.238,0,0,1,.765-2.218,1.892,1.892,0,0,1,3.507-.01,9.9,9.9,0,0,1,.573,1.638,8.914,8.914,0,0,0,9.31,6.982,2.011,2.011,0,0,1,1.384.829,1.93,1.93,0,0,1-.441,2.566,4.347,4.347,0,0,1-2.985.323,12.178,12.178,0,0,1-9.048-5.453c-.544-.818-.54-.809-1.108.015A11.918,11.918,0,0,1,38.533,39.2a9.3,9.3,0,0,1-7.123-4.067c-.177-.237-.25-.56-.613-.735a15.341,15.341,0,0,1-3.484,4.978,15.448,15.448,0,0,1-3.6,2.649,4.916,4.916,0,0,0-2.716,3.493,2.121,2.121,0,0,1-2.159,1.919c-.977.021-1.954.03-2.93,0a4.68,4.68,0,0,0-4.755,4.876c-.007.88.017,1.761-.005,2.64a8.179,8.179,0,0,0,1.229,4.54,7.578,7.578,0,0,0,3.493,3c1.076.478,1.243.391,1.247-.766.011-3.086-.015-6.173.012-9.258.013-1.487.5-2.046,1.88-2.316,1.463.242,1.941.821,1.946,2.467.015,5.171.026,10.341,0,15.512A27.8,27.8,0,0,0,24.24,81.792c4.926,9.05,12.526,14.3,22.807,15.538a28,28,0,0,0,15.02-2.391Q76.36,88.068,78.924,72.419a23.379,23.379,0,0,0,.294-3.856c-.023-6.287-.014-12.575-.013-18.861.037-1.222.03-2.446.012-3.669a4.573,4.573,0,0,0-3.54-4.648c-.359-.106-.724-.187-1.088-.268C68.607,39.792,64.5,36.338,62.52,30.476c-.055-.161-.119-.318-.174-.478-.325-1.11-.654-2.219-.953-3.336a1.9,1.9,0,1,1,3.63-1.074c.338,1.07.613,2.16.94,3.234a11.473,11.473,0,0,0,9.048,8.462,10.055,10.055,0,0,1,5.806,2.933,6.528,6.528,0,0,1,1.421,2.217,1.6,1.6,0,0,0,1.843,1.2A8.36,8.36,0,0,1,90.5,46.249a7.175,7.175,0,0,1,2.012,3.614,18.53,18.53,0,0,1-.095,8.4,11.3,11.3,0,0,1-7.989,8.27c-1.4.447-1.39.455-1.4,1.884a32.18,32.18,0,0,1-2.636,12.732c10.635-7.369,17.128-20.731,14.642-36a44.243,44.243,0,0,0-8.808-20.632,4.687,4.687,0,0,1-.7-1.119,1.47,1.47,0,0,1,.7-1.96" transform="translate(-1.066 -3.078)"/>
        <path id="Path_182765" data-name="Path 182765" d="M18.913,38.816a6.946,6.946,0,0,0-1.158,1.775c-.348,1.253-1.145,1.3-2.214,1.3a7.975,7.975,0,0,0-7.863,5.065,6.647,6.647,0,0,0-.615,2.859c.042,2.264-.229,4.545.489,6.769A11.4,11.4,0,0,0,16.2,64.5c.506.128.68.275.667.776a33.007,33.007,0,0,0,2.7,14.055c.05.116.158.235.009.406a36.543,36.543,0,0,1-7.188-6.384c-.294-.328-.564-.679-.87-.994a1.56,1.56,0,0,0-2.4-.274L7.452,69.247c-.01-.032-.04-.078-.028-.1.87-1.285.255-2.392-.333-3.57A32.49,32.49,0,0,1,3.709,53.367,44.752,44.752,0,0,1,14.387,20.375,44.552,44.552,0,0,1,31.534,7.7c.514-.218,1.011-.6,1.636-.4.189.545-.27.782-.541,1.093A79.992,79.992,0,0,0,27.294,14.8a46.791,46.791,0,0,0-7.915,19.462,33.061,33.061,0,0,0-.466,4.55" transform="translate(-0.52 -1.055)" fill="#4890d2"/>
        <path id="Path_182766" data-name="Path 182766" d="M95.326,19.112c-.814,1.166-.832,1.56.072,2.722a45.214,45.214,0,0,1,8.823,19.826c.067.366.082.741.122,1.113.152.772-.425.69-.825.616-2.978-.554-6.713-2.47-7.63-6.495a7.745,7.745,0,0,0-3.071-4.883,8.219,8.219,0,0,0-2.581-1.194,22.928,22.928,0,0,1-13.487-9.76A46.953,46.953,0,0,1,70.792,9.829,25.368,25.368,0,0,1,69.776,6.3c-.069-.4-.278-.913.383-1.083A20.011,20.011,0,0,1,75.149,6.6,47.156,47.156,0,0,1,89.611,15.22a2.578,2.578,0,0,1,.378.342,2.614,2.614,0,0,0,3.255,1.094c.482,1,1.483,1.556,2.083,2.456" transform="translate(-10.159 -0.761)" fill="#83d1f3"/>
        <path id="Path_182767" data-name="Path 182767" d="M83.086,15.9c-1.161.794-1.671.765-2.683-.183A45.536,45.536,0,0,0,60.654,4.747c-.2-.052-.4-.073-.6-.108a20.308,20.308,0,0,1-4.1-.567A44.712,44.712,0,0,0,33.861,6.138a1.633,1.633,0,0,1-1.178.178,40.594,40.594,0,0,0-11.106,6.075A45.134,45.134,0,0,0,7.756,29.21,43.732,43.732,0,0,0,3.649,43.285a49.659,49.659,0,0,0-.389,5.366A34.786,34.786,0,0,0,7.2,65.19c.61,1.159.708,2.079-.271,3-1.443.284-1.886.073-2.582-1.3A39.458,39.458,0,0,1,.144,45.375a48.21,48.21,0,0,1,15.6-32.367A47.079,47.079,0,0,1,43.022.37C58.08-1.364,71.214,3.024,82.453,13.159c1.156,1.042,1.244,1.46.632,2.737" transform="translate(0 0)"/>
        <path id="Path_182768" data-name="Path 182768" d="M35.771,6.863A39.643,39.643,0,0,1,46.148,4.176a41.915,41.915,0,0,1,7.5-.382,40.527,40.527,0,0,1,9.494,1.393c-.57.355-.2.835-.106,1.218a39.465,39.465,0,0,0,5.954,12.933,34.2,34.2,0,0,0,4.083,5.3,22.849,22.849,0,0,0,10.055,5.7A7.411,7.411,0,0,1,88.905,36.1c.9,4.041,3.768,5.907,7.488,6.844.359.091.769.157.879-.385A36.925,36.925,0,0,1,95.84,61.312,36.035,36.035,0,0,1,82.879,78.7c-.265.195-.553.36-1.011.654a45.734,45.734,0,0,0,1.841-5.239,33.14,33.14,0,0,0,1.067-8.967c-.018-.665.047-1.024.889-1.227a11.334,11.334,0,0,0,8.909-11.412,23.012,23.012,0,0,0-.151-4.475,8.142,8.142,0,0,0-8.006-6.672,5.774,5.774,0,0,0-.816.005c-.752.107-1.128-.162-1.408-.921-1.208-3.278-3.81-4.754-7.084-5.406-4.944-.984-8.01-4.051-9.447-8.82-.313-1.039-.57-2.094-.87-3.136a1.648,1.648,0,1,0-3.144.92q.474,1.767.945,3.536a13.312,13.312,0,0,1-.846,5.628,8.935,8.935,0,0,1-9.361-6.461c-.2-.683-.438-1.357-.662-2.034a1.622,1.622,0,0,0-1.632-1.28A1.642,1.642,0,0,0,50.478,24.7c-.335,1-.646,2-1.012,2.991-1.4,3.763-5.869,6.226-9.618,5.3a5.793,5.793,0,0,1-4.283-3.972q-.734-2.117-1.421-4.249A1.644,1.644,0,0,0,32.376,23.4c-.947.079-1.369.687-1.538,1.61a21.092,21.092,0,0,1-1.457,5.9,11.693,11.693,0,0,1-5.209,5.407,11.385,11.385,0,0,0-2.691,1.991c-.612-1.228-.1-2.476.057-3.668a45.339,45.339,0,0,1,2.994-11.135A44.7,44.7,0,0,1,32,11.12c1.234-1.438,2.511-2.839,3.769-4.257" transform="translate(-3.089 -0.548)" fill="#57b6ea"/>
        <path id="Path_182769" data-name="Path 182769" d="M82.8,52.118c0,6.806.35,13.634-.07,20.415-.7,11.326-6.416,19.608-16.493,24.852a6.754,6.754,0,0,1-.755.29c-3.169.963-6.335.465-9.495-.044-.366-.059-.963.021-.9-.678.489-.552,1.22-.548,1.846-.762A10.966,10.966,0,0,0,64.558,85.3a10.622,10.622,0,0,0-6.429-9.764A10.758,10.758,0,0,0,46.511,76.87a11.11,11.11,0,0,0-2.9,14.044,1.713,1.713,0,0,1,.356.936c-.2.6-.583.308-.89.149a8.65,8.65,0,0,1-1.7-1.281,31.054,31.054,0,0,1-9.45-13.97c-.126-.4-.413-.8-.089-1.241.362-.2.727-.039,1.094-.016a7.028,7.028,0,0,0,6.1-2.124,3.438,3.438,0,0,0,.032-4.868c-1.97-2.155-4.447-2.528-7.177-1.985-.491.1-1.011.538-1.5-.029a9.538,9.538,0,0,1-.013-3.566c.537-.532.856.047,1.167.289a11.287,11.287,0,0,0,10.927,1.9,2.1,2.1,0,0,0,1.745-2.268,7.1,7.1,0,0,1,2.733-2.76A2.226,2.226,0,0,0,49.2,58.271,11.135,11.135,0,0,0,47.749,48.02c-.237-.355-.646-.629-.554-1.144a1.079,1.079,0,0,1,.52-.468,10.289,10.289,0,0,0,4.729-6.156,13.436,13.436,0,0,1,.5-1.445c.095-.216.2-.456.492-.444s.384.256.472.474c.2.506.365,1.025.532,1.543A10.237,10.237,0,0,0,58.634,46.1c.364.235.784.446.838.962a2.021,2.021,0,0,1-.472,1,10.821,10.821,0,0,0-.647,11.86c2.13,3.927,5.6,5.7,9.971,5.808a10.893,10.893,0,0,0,3.975-.835,1.8,1.8,0,0,0,1.3-1.866,6.1,6.1,0,0,1,2.6-2.846c1.48-.007,1.808-.234,2.312-1.614a10.706,10.706,0,0,0,.223-7.357,1.391,1.391,0,0,1-.084-1.084.5.5,0,0,1,.53-.209c1.454.324,2.861.733,3.62,2.2" transform="translate(-4.404 -5.592)" fill="#f2d6ae"/>
        <path id="Path_182770" data-name="Path 182770" d="M30.378,75.031a31.236,31.236,0,0,0,5.092,9.98,31.856,31.856,0,0,0,6.118,6.044c.241.178.447.564.854.289.506-.033.683.4.932.694a11.215,11.215,0,0,0,9.638,4.136c.285-.015.612-.182.838.154-.139.282.007.309.255.354a28.127,28.127,0,0,0,9.16.413,5.379,5.379,0,0,1,.813-.005,27.2,27.2,0,0,1-13.961,2.58A29.44,29.44,0,0,1,22.626,70.706c-.081-5.44-.015-10.882-.019-16.323,0-1.3-.342-1.721-1.627-2.065a3.631,3.631,0,0,1,0-3.2A1.742,1.742,0,0,0,22.656,47.5a4.849,4.849,0,0,1,2.649-3.655,15.52,15.52,0,0,0,7.439-8.209c2.214,3.832,5.471,5.7,9.836,5.191a11.966,11.966,0,0,0,9.426-6.49,15.62,15.62,0,0,0,2.447,3.216,12.188,12.188,0,0,0,8.91,3.362,3.524,3.524,0,0,0,1.075-.281,2.373,2.373,0,0,1-.171,2.054,1.487,1.487,0,0,1-.911.59,10.737,10.737,0,0,0-4.609,2.791c-.214.208-.429.44-.777.4-.3-.533-.885-.714-1.343-1.046a10.528,10.528,0,0,1-3.812-5.489c-.217-.668-.457-1.328-.744-2.16a15.307,15.307,0,0,0-1.046,2.747,10.357,10.357,0,0,1-4.384,5.414,4.661,4.661,0,0,1-.749.295c-.356.11-.579-.131-.8-.326a11.754,11.754,0,0,0-10.406-2.869,1.319,1.319,0,0,1-.606-.006c-.609-.663-.536-1.586-.889-2.35a9.069,9.069,0,0,0-.7-1.646,22.5,22.5,0,0,1-1.532,5.458A12.63,12.63,0,0,1,29.228,46.2a11.245,11.245,0,0,0-1.02,14.36c.376.482.979.867.936,1.606q0,1.935,0,3.869c-.325.683-1.066.9-1.567,1.4-1.677,1.661-1.927,3.563-.591,5.151a5.831,5.831,0,0,0,2.322,1.759c.391.154.88.2,1.065.692" transform="translate(-3.004 -5.006)" fill="#ecb78d"/>
        <path id="Path_182771" data-name="Path 182771" d="M88.745,51.131A6.626,6.626,0,0,0,84.658,49.1c-.473-.027-.557-.445-.729-.753a10.9,10.9,0,0,0-9.413-5.938,1.333,1.333,0,0,1-.866-.217,1.845,1.845,0,0,0,0-1.673,24.726,24.726,0,0,1-1.167-3.9c-.038.447.142.956-.3,1.312a2.642,2.642,0,0,0-1.177-.7l.846-5.629a17.064,17.064,0,0,0,3.6,6.193,15.625,15.625,0,0,0,8.459,4.588c3.107.618,4.772,2.263,4.848,4.778.04,1.325-.011,2.652-.021,3.978" transform="translate(-10.351 -4.606)" fill="#ecb78d"/>
        <path id="Path_182772" data-name="Path 182772" d="M12.729,64.042a5.972,5.972,0,0,1-1.045-2.407,19.4,19.4,0,0,1-.158-5.787,4.75,4.75,0,0,1,4.832-4.208,1.491,1.491,0,0,1,.292,1.146c.007,1.861.062,3.724-.014,5.583a6.515,6.515,0,0,1-2.888,5.324,1.228,1.228,0,0,1-1.02.349" transform="translate(-1.66 -7.528)" fill="#ecb78d"/>
        <path id="Path_182773" data-name="Path 182773" d="M97.5,51.639a4.662,4.662,0,0,1,4.783,4.012,16.558,16.558,0,0,1-.22,6.377,5.451,5.451,0,0,1-.936,2.015,2.445,2.445,0,0,1-1.817-.973,6.523,6.523,0,0,1-2.077-4.4c-.094-2.028-.031-4.06-.021-6.091a1.232,1.232,0,0,1,.289-.943" transform="translate(-14.166 -7.528)" fill="#f8daae"/>
        <path id="Path_182774" data-name="Path 182774" d="M12.958,64.041a6.914,6.914,0,0,0,3.65-6.914c-.089-1.825-.02-3.659-.021-5.488l3.277,0v3.2c-1.284.329-1.634.754-1.637,2.041-.005,3.32-.028,6.639.016,9.958.012.849-.217.987-.967.7a7.888,7.888,0,0,1-4.319-3.492" transform="translate(-1.889 -7.527)" fill="#d99267"/>
        <path id="Path_182775" data-name="Path 182775" d="M97.271,51.63c0,1.8.072,3.6-.021,5.388a6.964,6.964,0,0,0,3.648,7.017,7.846,7.846,0,0,1-4.533,3.55c-.636.217-.743.025-.741-.568q.024-7.336,0-14.673c0-.561.139-.828.735-.752.3.038.609.028.914.038" transform="translate(-13.939 -7.519)" fill="#ecb78d"/>
        <path id="Path_182776" data-name="Path 182776" d="M72.257,38.67c.134-.57-.1-1.2.318-1.965.421,1.393.775,2.589,1.147,3.779a4.941,4.941,0,0,0,.5,1.309c.468.693.12.906-.484,1.05a2.158,2.158,0,0,1-2.249.243q.183-1.052.366-2.1a1.833,1.833,0,0,0,.4-2.313" transform="translate(-10.422 -5.351)" fill="#f7d9ae"/>
        <path id="Path_182777" data-name="Path 182777" d="M57.258,103.023a11.444,11.444,0,1,1-.88-22.7,11.42,11.42,0,0,1,10.312,9.6c.992,6.258-2.994,11.8-9.432,13.106" transform="translate(-6.412 -11.702)"/>
        <path id="Path_182778" data-name="Path 182778" d="M30.031,63.549A11.734,11.734,0,0,1,26.695,55a11.366,11.366,0,0,1,4.517-8.814c.156-.126.3-.264.454-.4a4.457,4.457,0,0,1,3.27-1.5,11.682,11.682,0,0,1,11.308,2.865c.174.157.357.306.536.458a19.586,19.586,0,0,1,2.136,3.76,11.108,11.108,0,0,1-.2,8.4,1.8,1.8,0,0,1-2.388,1.234,1.039,1.039,0,0,1-.581-.234,1.962,1.962,0,0,1-.288-2.347,7.636,7.636,0,0,0-1.433-8.362,7.788,7.788,0,0,0-12.213.744,7.666,7.666,0,0,0-.324,8.7,7.848,7.848,0,0,0,8.344,3.591c.6-.14,1.156-.4,1.748-.554a1.691,1.691,0,0,1,2.26.949c.273,1.462.065,1.941-1.275,2.463A11.3,11.3,0,0,1,30.582,64c-.183-.149-.367-.3-.551-.446" transform="translate(-3.89 -6.395)"/>
        <path id="Path_182779" data-name="Path 182779" d="M69.986,44.133l2.248-.243a11.389,11.389,0,0,1,10.152,5.5c.31.48.559,1,.836,1.5a11.781,11.781,0,0,1-.137,9.069c-.566,1.271-1.138,1.541-2.482,1.167a.607.607,0,0,1-.583-.2,2.153,2.153,0,0,1-.115-2.481,7.54,7.54,0,0,0-.067-6.233,7.875,7.875,0,1,0-13.505,7.911,7.914,7.914,0,0,0,8.837,2.721,4.234,4.234,0,0,1,1.676-.368c.753.056,1.309.345,1.424,1.173.19,1.333-.091,1.81-1.366,2.323A11.449,11.449,0,0,1,63.423,48.529c.161-.218.307-.446.46-.669a13.068,13.068,0,0,1,6.1-3.727" transform="translate(-8.915 -6.398)"/>
        <path id="Path_182780" data-name="Path 182780" d="M31.277,80.335a10.031,10.031,0,0,1-2.914-1.559c-2.356-2.152-2.024-4.811.56-6.764a12.119,12.119,0,0,1,1.124-.679,8.711,8.711,0,0,1,6.425.006,5.656,5.656,0,0,1,2.816,2.38c1.574,2.605-.378,5.136-2.748,6.168a8.743,8.743,0,0,1-5.264.448" transform="translate(-3.903 -10.309)" fill="#f79b8c"/>
        <path id="Path_182781" data-name="Path 182781" d="M79.807,70.744a6.838,6.838,0,0,1,4.264,1.669c2.383,2.241,2.247,4.89-.413,6.795-2.816,2.018-7.648,1.819-10.094-1.154-1.562-1.9-1.01-4.544,1.389-6.1a7.855,7.855,0,0,1,4.854-1.206" transform="translate(-10.595 -10.312)" fill="#f79b8c"/>
        <path id="Path_182782" data-name="Path 182782" d="M46.483,61.844l.41.319-2.486,2.491a2.2,2.2,0,0,0-2.833-.468,8.153,8.153,0,0,1-9.694-12.064,2.843,2.843,0,0,1,.355-.354c.372.4.258.9.263,1.357a9.526,9.526,0,0,0,12.911,9.02,4.841,4.841,0,0,1,1.073-.3" transform="translate(-4.457 -7.546)" fill="#57b6ea"/>
        <path id="Path_182783" data-name="Path 182783" d="M78.835,64.8a1.773,1.773,0,0,0-2.528-.727,8.151,8.151,0,0,1-11.26-7.987,6.744,6.744,0,0,1,1.6-4.293c.407.379.29.882.289,1.34A9.557,9.557,0,0,0,79.722,62.2a1.452,1.452,0,0,1,1.075-.172l.372.249L78.835,64.8" transform="translate(-9.481 -7.55)" fill="#57b6ea"/>
        <path id="Path_182784" data-name="Path 182784" d="M56.576,75.344a4.965,4.965,0,0,1-4.9-4.215A1.8,1.8,0,0,1,53,68.839c.987-.179,1.692.462,1.913,1.738a1.636,1.636,0,0,0,3.264-.035c.2-1.215.879-1.844,1.843-1.712a1.777,1.777,0,0,1,1.4,2.233,4.967,4.967,0,0,1-4.839,4.281" transform="translate(-7.528 -10.031)"/>
        <path id="Path_182785" data-name="Path 182785" d="M35.784,43.634a17.636,17.636,0,0,0-3.27,1.5,26.729,26.729,0,0,0,1.405-5.154c.043-.25-.026-.618.337-.642.278-.019.343.311.409.521a23.874,23.874,0,0,1,1.118,3.78" transform="translate(-4.74 -5.734)" fill="#f2d6ae"/>
        <path id="Path_182786" data-name="Path 182786" d="M48.86,96.169a8.051,8.051,0,0,1,1.871-10.142,8.222,8.222,0,0,1,10.51,0,8.048,8.048,0,0,1,1.866,10.141c-.343.083-.568-.155-.83-.3a12.248,12.248,0,0,0-12.585,0c-.264.145-.489.384-.831.3" transform="translate(-6.97 -12.264)" fill="#cb5144"/>
        <path id="Path_182787" data-name="Path 182787" d="M49.039,97.839c3.085-3,11.149-3.026,14.247,0a8.088,8.088,0,0,1-14.247,0" transform="translate(-7.149 -13.933)" fill="#f7664f"/>
        <path id="Path_182788" data-name="Path 182788" d="M46.765,61.268a7.359,7.359,0,0,1-5.306,1.176,9.7,9.7,0,0,1-8.6-7.231,13.09,13.09,0,0,1-.336-4.021c2.4-3.882,8.5-4.55,11.983-1.312a8.045,8.045,0,0,1,2.04,9.216,1.924,1.924,0,0,0,.224,2.171" transform="translate(-4.739 -6.97)" fill="#83d1f3"/>
        <path id="Path_182789" data-name="Path 182789" d="M81.072,61.441a9.778,9.778,0,0,1-13.962-6.994c-.2-1.09-.083-2.165-.19-3.243,3.029-4.908,10.844-4.468,13.692.781A7.817,7.817,0,0,1,81,59.053a2.15,2.15,0,0,0,.074,2.388" transform="translate(-9.755 -6.964)" fill="#83d1f3"/>
        <path id="Path_182790" data-name="Path 182790" d="M33.565,77.817c-1.052,0-2.1.022-3.156-.006a1.628,1.628,0,1,1,0-3.252q3.206-.036,6.413,0a1.625,1.625,0,1,1,0,3.249c-1.085.034-2.171.008-3.257.008" transform="translate(-4.183 -10.866)"/>
        <path id="Path_182791" data-name="Path 182791" d="M79.6,74.552c1.018,0,2.036-.019,3.054.005a1.631,1.631,0,0,1,1.741,1.6A1.609,1.609,0,0,1,82.7,77.809q-3.206.041-6.413,0a1.629,1.629,0,1,1,.054-3.252c1.085-.024,2.171-.005,3.257-.005" transform="translate(-10.874 -10.867)"/>
        <path id="Path_182792" data-name="Path 182792" d="M39.847,55.428a1.631,1.631,0,1,1-1.591,1.644,1.636,1.636,0,0,1,1.591-1.644" transform="translate(-5.577 -8.08)" fill="#3a529d"/>
        <path id="Path_182793" data-name="Path 182793" d="M74.336,55.428a1.632,1.632,0,1,1-1.652,1.584,1.633,1.633,0,0,1,1.652-1.584" transform="translate(-10.595 -8.08)" fill="#3a529d"/>
      </g>
    </g>
  </g>
</svg>
