<svg xmlns="http://www.w3.org/2000/svg" xmlns:xlink="http://www.w3.org/1999/xlink" width="155" height="110" viewBox="0 0 155 110">
  <defs>
    <clipPath id="clip-path">
      <rect id="Rectangle_45256" data-name="Rectangle 45256" width="83.143" height="83.139" fill="none"/>
    </clipPath>
  </defs>
  <g id="_8" data-name="8" transform="translate(1241 10269)">
    <g id="Group_174599" data-name="Group 174599" transform="translate(-1939 -14743.297)">
      <g id="Group_165391" data-name="Group 165391" transform="translate(698 4474.297)">
        <rect id="Rectangle_40797" data-name="Rectangle 40797" width="155" height="110" fill="#ffe891"/>
      </g>
    </g>
    <g id="Group_174931" data-name="Group 174931" transform="translate(-1205 -10255)">
      <g id="Group_174930" data-name="Group 174930" clip-path="url(#clip-path)">
        <path id="Path_182555" data-name="Path 182555" d="M58.135,0c1.877.99,2.159,2.108,1.005,3.989Q48.3,21.663,37.467,39.342c-1.521,2.488-2.6,5.209-3.931,7.8a.667.667,0,0,0,.065.737c3.22,5.465,6.348,10.986,9.687,16.377a59.216,59.216,0,0,0,4.592,5.771c1.174,1.451,2.356,2.894,3.53,4.345a4.673,4.673,0,0,1,.278,6.106C50,83.044,49.419,83.23,46.573,81.988c-.594-.259-.956-.283-1.4.293-.754.987-1.6,1.083-2.8.488a2.092,2.092,0,0,1-1.4-2.52c.055-.3.3-.634-.2-.785-.409-.124-.76-.431-1.2.112a2.09,2.09,0,0,1-3.056.638,2.084,2.084,0,0,1-1.309-2.755c.093-.439.036-.724-.422-.875a1.946,1.946,0,0,1-.572-.3c-.518-.4-.884-.343-1.346.177-.929,1.046-1.756,1.1-3.028.376a2.027,2.027,0,0,1-1.14-2.758c.214-.651.035-.93-.508-1.261-4.859-2.964-9.1-6.779-13.728-10.057-.552-.39-1.046-1.021-1.645-1.139s-.991.707-1.519,1.058a2.324,2.324,0,0,1-3.048-.207c-1.23-.883-1.587-1.7-1.237-2.874a2.636,2.636,0,0,1,.279-.671c.517-.8.27-1.258-.5-1.8a1.075,1.075,0,0,0-1.678.137c-1.755,1.768-3.417.677-4.59-.75a1.733,1.733,0,0,1-.147-2A1.985,1.985,0,0,0,0,51.8V50.5c1.537-2.564,3.057-5.138,4.614-7.689a15.494,15.494,0,0,1,4.539-5.215,42.972,42.972,0,0,1,4.508-2.713,1.772,1.772,0,0,0,.971-1.17Q19.6,18.184,24.6,2.665A3.987,3.987,0,0,1,26.47,0ZM35.065,27.316c1.1.354,2.19.744,3.3,1.048.843.23,1.8.951,2.5.556.681-.382.983-1.434,1.466-2.182.2-.312.249-.484-.206-.609-1.871-.512-3.732-1.06-5.6-1.6q-6.9-2.036-13.791-4.072c-1.184-.349-1.19-.345-1.55.786-.179.562-.62,1.271-.427,1.657s1.024.451,1.589.611a1.331,1.331,0,0,1,1.108,1.606,1.292,1.292,0,0,1-1.8.724c-.4-.149-.843-.207-1.236-.375-.433-.186-.6-.058-.73.364q-1.422,4.508-2.882,9a.754.754,0,0,0,.08.819,4.108,4.108,0,0,1,.863,2.638c.014.891.055,1.782.1,2.672a3.167,3.167,0,0,0,2.215,2.989,28.551,28.551,0,0,0,4.438.869c.491.364.641,0,.792-.369a10.087,10.087,0,0,1,2.026-3.283,9.1,9.1,0,0,1,7.2-2.889c.3.011.629.147.862-.237q1.948-3.218,3.93-6.415c.182-.295.134-.394-.2-.489-1.837-.525-3.667-1.074-5.5-1.615-1.993-.625-3.989-1.245-5.98-1.879-.962-.307-1.177-.648-1.11-1.66a1.437,1.437,0,0,1,1.918-.644c2.2.675,4.407,1.315,6.612,1.969M31.23,74.582c.274-.09.419-.333.608-.522a1.811,1.811,0,0,1,2.6-.419c.53.268,1.058.543,1.579.829,1.882,1.037,1.88,1.039,1.65,3.16a1.16,1.16,0,0,0,.034.251c.088-.044.182-.059.219-.113.937-1.362,2.118-1.4,3.468-.675.4.216.862.325,1.265.54a1.777,1.777,0,0,1,.953,2.036c-.038.2-.152.4-.038.616.228-.012.3-.212.428-.342a1.852,1.852,0,0,1,2.583-.577c.6.239,1.2.5,1.794.751.209.087.433.223.621-.051-.159-.255-.412-.287-.626-.385A160.336,160.336,0,0,1,30,70.043c-.983-.617-1.12-.893-.927-1.974.882-.72,1.162-.741,2.164-.121,2.319,1.437,4.65,2.852,7.1,4.058,3.826,2.121,7.774,3.99,11.8,5.789a2.022,2.022,0,0,0-.622-1.88c-2.576-3.17-5.219-6.29-7.693-9.537-.856-1.123-1.6-1.936-3.1-1.487a1.008,1.008,0,0,1-.551-.1,1.117,1.117,0,0,1-.792-1.112,1.143,1.143,0,0,1,.865-1.145,1.8,1.8,0,0,1,.481-.065c.392-.014.532-.1.315-.532-.616-1.215-.6-1.22-1.96-1.115a3.081,3.081,0,0,1-1.129-.018,1.13,1.13,0,0,1-.919-1.25,1.114,1.114,0,0,1,1-1.1,4.69,4.69,0,0,1,.566-.046c.116-.008.2-.046.216-.18.042-.358-.872-1.4-1.243-1.39-.54.015-1.081.085-1.62.075A1.245,1.245,0,0,1,32.7,55.785,1.226,1.226,0,0,1,33.81,54.52c.235-.044.472-.082.716-.124-.564-1.34-.564-1.34-1.872-1.221-.162.015-.323.033-.485.041-.958.044-1.546-.349-1.631-1.084s.38-1.179,1.371-1.343c.164-.027.408.061.4-.253A3.87,3.87,0,0,0,30.8,48.629c-2.091-.416-4.187-.807-6.281-1.207-1.346-.28-2.688-.574-4.037-.836a5.8,5.8,0,0,1-5.069-5.976c-.02-.81-.07-1.62-.1-2.43a1.852,1.852,0,0,0-.208-.856c-.145-.259-.286-.331-.572-.164a44.3,44.3,0,0,0-4.33,2.69c-.346.26-.357.445-.117.77a17.438,17.438,0,0,1,2.005,3.506,12.574,12.574,0,0,1,.627,9.528,1,1,0,0,0,.459,1.423c4.27,2.989,8.561,5.95,12.735,9.076.663.5,1.114,1.038.69,1.911-.724.662-1.214.743-1.933.2-5.974-4.523-12.274-8.595-18.232-13.14A9.544,9.544,0,0,1,3.678,50.2c-.072-.131-.152-.4-.306-.308-.356.208-.489.627-.717.957-.17.246,0,.383.174.532A1.838,1.838,0,0,1,3.3,53.785c-.169.368-.306.751-.467,1.123a.411.411,0,0,0,.114.57.43.43,0,0,0,.588-.04c.374-.312.737-.637,1.119-.939a1.765,1.765,0,0,1,2.439-.092q1.207.822,2.374,1.7a1.786,1.786,0,0,1,.65,2.352c-.183.48-.384.953-.591,1.422-.1.219-.141.393.1.561a.419.419,0,0,0,.582-.018c.393-.331.784-.665,1.186-.985a1.884,1.884,0,0,1,2.644-.028c1.262.932,2.511,1.881,3.782,2.8,3.876,2.805,7.443,6.041,11.59,8.463,1.573.918,2.507,1.935,1.742,3.826-.025.033-.077.084-.069.1.054.087.1.033.149-.018M50.176,2.464Q38.943,2.457,27.71,2.441c-.427,0-.534.2-.645.548q-2.28,7.126-4.6,14.239c-.174.534.046.644.465.763,1.453.411,2.9.846,4.349,1.265q5.437,1.57,10.876,3.133c1.7.513,3.418,1,5.108,1.554a.739.739,0,0,0,1.032-.4q6.3-10.3,12.621-20.6c.088-.143.282-.275.161-.484ZM8.084,41.977c-1.1,1.551-2,3.056-2.894,4.56a.784.784,0,0,0-.087.682,6.633,6.633,0,0,0,2.5,3.76c.747.53,1.488,1.074,2.2,1.657.436.359.605.357.763-.239,1.024-3.886-.334-7.185-2.48-10.42M33.934,40.77a6.706,6.706,0,0,0-6.262,4.318c-.1.346.014.441.292.5.979.19,1.962.36,2.937.572a.432.432,0,0,0,.561-.294c.808-1.671,1.622-3.339,2.473-5.091" transform="translate(0 0)" fill="#020303"/>
        <path id="Path_182556" data-name="Path 182556" d="M75.32,72.671A20.263,20.263,0,1,1,95.8,92.886,20.361,20.361,0,0,1,75.32,72.671m31.1-5.332a1.026,1.026,0,0,0,.9-.878c.444-1.7.944-3.377,1.439-5.058a.764.764,0,0,0-.125-.878,18.5,18.5,0,0,0-5.68-4.1.639.639,0,0,0-.74.055c-.67.5-1.354.977-2.032,1.464-1,.68-2,1.369-3.012,2.033a.756.756,0,0,0-.364.738c.016.945.025,1.891,0,2.835a.883.883,0,0,0,.453.854c1.165.78,2.3,1.6,3.465,2.387.868.586,1.662,1.619,2.616,1.648,1.015.03,2.053-.7,3.081-1.1m.636,2.425c-.832.311-1.66.635-2.5.925a1.082,1.082,0,0,0-.732.765q-1.015,3.069-2.084,6.12a.983.983,0,0,0,.169,1.029c.665.884,1.319,1.779,1.922,2.707a.918.918,0,0,0,1.131.491c1.781-.041,3.561-.108,5.341-.11a.958.958,0,0,0,.97-.635,18.565,18.565,0,0,0,2.032-6.684,1.332,1.332,0,0,0-.64-1.45c-1.4-.966-2.763-1.981-4.1-3.024-.513-.4-.961-.548-1.5-.134M100.9,87.04a9.71,9.71,0,0,0,1.2-3.731c-.016-.988-1.154-1.816-1.765-2.736-.149-.225-.326-.432-.465-.663a.686.686,0,0,0-.67-.342q-3.612.017-7.223,0a.707.707,0,0,0-.67.331q-1.032,1.5-2.114,2.973a.8.8,0,0,0-.126.818q1,2.908,1.976,5.823a.648.648,0,0,0,.564.475,18.5,18.5,0,0,0,3.939.431,17.728,17.728,0,0,0,4.06-.441.559.559,0,0,0,.5-.424c.252-.841.527-1.677.793-2.514M83.6,81.674v.161c.918,0,1.838-.019,2.756.009a.9.9,0,0,0,.883-.4q1-1.473,2.065-2.906a.9.9,0,0,0,.105-.966c-.414-1.14-.779-2.3-1.175-3.443-.369-1.068-.488-2.392-1.206-3.123-.742-.755-2.082-.912-3.142-1.373a.951.951,0,0,0-1.1.148q-2.225,1.692-4.5,3.313a.978.978,0,0,0-.451,1.009,18.4,18.4,0,0,0,2.156,7.152.738.738,0,0,0,.772.427c.946-.014,1.892,0,2.838,0M94.377,62.187a7.146,7.146,0,0,1,.008-.973,1.4,1.4,0,0,0-.766-1.512c-1.541-1-3.034-2.069-4.528-3.136a.871.871,0,0,0-1.021-.078,18.834,18.834,0,0,0-5.482,3.966.81.81,0,0,0-.2.925q.754,2.561,1.471,5.131a1,1,0,0,0,.7.781c.917.315,1.822.671,2.707,1.065a1.051,1.051,0,0,0,1.174-.158c1.449-1.038,2.882-2.107,4.4-3.041,1.161-.715,1.959-1.494,1.536-2.971m1.245,14.948c1.028,0,2.056-.019,3.083.008a.708.708,0,0,0,.815-.574q.915-2.81,1.907-5.6a.683.683,0,0,0-.294-.945q-2.547-1.731-5.066-3.506a.735.735,0,0,0-1,.029q-2.514,1.78-5.067,3.5a.614.614,0,0,0-.3.851q1,2.825,1.937,5.672a.708.708,0,0,0,.82.565c1.054-.031,2.109-.01,3.164-.01m-4.1-21.852c1.354.947,2.521,1.761,3.685,2.58a.585.585,0,0,0,.744-.008c1.185-.828,2.374-1.651,3.7-2.571a19.1,19.1,0,0,0-8.127,0m11.5,33.285.164.15a17.473,17.473,0,0,0,5.83-4.428c-1.495,0-2.911,0-4.327,0-.227,0-.3.2-.364.381l-1.3,3.893M82.161,84.28A15.157,15.157,0,0,0,88.041,88.6c-.363-1.39-.813-2.707-1.252-4.028a.386.386,0,0,0-.419-.293H82.161m31.082-13.943a17.092,17.092,0,0,0-2.506-6.991l-1.072,3.769c-.072.256-.172.478.139.7,1.116.791,2.208,1.616,3.439,2.524M77.962,70.3c1.26-.922,2.32-1.7,3.382-2.473a.434.434,0,0,0,.225-.48c-.369-1.3-.747-2.594-1.157-4.011a17.194,17.194,0,0,0-2.45,6.964" transform="translate(-32.702 -22.74)"/>
        <path id="Path_182557" data-name="Path 182557" d="M55.355,24.263Q49.917,22.7,44.479,21.13c-1.451-.419-2.9-.854-4.349-1.265-.418-.118-.639-.229-.465-.763q2.328-7.111,4.6-14.239c.111-.346.218-.549.645-.548q11.232.025,22.465.023A11.756,11.756,0,0,1,66.011,6.7c-2.829,4.632-5.683,9.248-8.5,13.888a27.79,27.79,0,0,0-2.156,3.673" transform="translate(-17.196 -1.874)" fill="#febf83"/>
        <path id="Path_182558" data-name="Path 182558" d="M39.377,45.269c-.067,1.012.148,1.352,1.111,1.659,1.991.635,3.986,1.254,5.98,1.88-.11.217-.205.442-.332.648-2.466,4.012-4.947,8.016-7.4,12.039a7.353,7.353,0,0,0-1.381,2.61,28.479,28.479,0,0,1-4.437-.87,3.165,3.165,0,0,1-2.215-2.988c-.049-.89-.091-1.781-.1-2.673a4.107,4.107,0,0,0-.863-2.637.755.755,0,0,1-.081-.82q1.455-4.5,2.882-9c.133-.422.3-.551.73-.365.393.169.832.227,1.236.375a1.291,1.291,0,0,0,1.8-.724l3.071.87" transform="translate(-12.841 -19.277)" fill="#e7f4fd"/>
        <path id="Path_182559" data-name="Path 182559" d="M45.953,100.454c-2.452-1.205-4.782-2.621-7.1-4.057-1-.621-1.282-.6-2.164.121-.753-.759-1.84-1.1-2.479-2,.424-.874-.027-1.415-.69-1.911-4.173-3.126-8.464-6.087-12.735-9.076a1,1,0,0,1-.459-1.424,12.572,12.572,0,0,0-.627-9.528,17.407,17.407,0,0,0-2.005-3.506c-.24-.325-.23-.51.117-.77a44.14,44.14,0,0,1,4.331-2.691c.286-.167.427-.094.572.164a1.854,1.854,0,0,1,.208.856c.035.81.084,1.619.1,2.43a5.8,5.8,0,0,0,5.068,5.976c1.349.263,2.692.556,4.038.836q-.062.21-.123.42c-.282-.091-.563-.187-.847-.272a5.858,5.858,0,1,0,4.248,6.338c.3,0,.4.222.52.439,2.045,3.667,4.056,7.353,6.158,10.986,1.168,2.019,2.049,4.216,3.612,6a2.121,2.121,0,0,1,.257.668" transform="translate(-7.609 -28.447)" fill="#5e9efb"/>
        <path id="Path_182560" data-name="Path 182560" d="M57.063,108.4a2.121,2.121,0,0,0-.257-.668c-1.563-1.786-2.443-3.983-3.612-6-2.1-3.634-4.113-7.32-6.158-10.987-.121-.217-.223-.439-.52-.439a5.865,5.865,0,0,0-3.124-5.921l-.184-.236-.02.072-.074.018.123-.421c2.094.4,4.19.791,6.281,1.207a3.868,3.868,0,0,1,1.515,1.906c0,.314-.24.225-.4.252-.991.165-1.454.615-1.371,1.343s.672,1.128,1.63,1.084c.162-.007.324-.025.485-.04,1.308-.119,1.308-.119,1.872,1.22-.244.042-.48.08-.716.124a1.226,1.226,0,0,0-1.115,1.265,1.246,1.246,0,0,0,1.268,1.132c.539.01,1.08-.061,1.621-.076.371-.01,1.285,1.033,1.243,1.391-.016.134-.1.172-.216.18a4.819,4.819,0,0,0-.566.046,1.114,1.114,0,0,0-1,1.1,1.131,1.131,0,0,0,.919,1.25,3.082,3.082,0,0,0,1.129.018c1.364-.106,1.345-.1,1.96,1.115.217.429.078.518-.314.532a1.827,1.827,0,0,0-.482.065,1.144,1.144,0,0,0-.865,1.145,1.118,1.118,0,0,0,.792,1.111,1.016,1.016,0,0,0,.551.1c1.5-.449,2.243.363,3.1,1.487,2.474,3.247,5.117,6.367,7.693,9.537a2.021,2.021,0,0,1,.622,1.88c-4.029-1.8-7.977-3.668-11.8-5.789" transform="translate(-18.719 -36.39)" fill="#4089e2"/>
        <path id="Path_182561" data-name="Path 182561" d="M67.441,24.281A27.79,27.79,0,0,1,69.6,20.608c2.817-4.64,5.671-9.256,8.5-13.888a11.757,11.757,0,0,0,1.361-2.364h6.905c.122.21-.072.341-.161.485q-6.309,10.3-12.621,20.6a.739.739,0,0,1-1.032.4c-1.691-.555-3.4-1.042-5.108-1.554" transform="translate(-29.282 -1.891)" fill="#f5af75"/>
        <path id="Path_182562" data-name="Path 182562" d="M28.581,104.336c.639.9,1.726,1.244,2.479,2-.194,1.081-.056,1.357.927,1.974a160.289,160.289,0,0,0,18.364,9.638c.213.1.467.131.626.385-.188.274-.412.138-.621.051-.6-.248-1.192-.512-1.794-.751a1.851,1.851,0,0,0-2.583.577c-.124.13-.2.33-.428.342-.114-.216,0-.412.038-.616a1.778,1.778,0,0,0-.953-2.036c-.4-.215-.862-.324-1.265-.54-1.349-.724-2.531-.687-3.468.675-.037.054-.131.07-.219.113a1.122,1.122,0,0,1-.034-.251c.23-2.121.232-2.124-1.65-3.16-.521-.287-1.048-.561-1.579-.829a1.812,1.812,0,0,0-2.6.419c-.188.188-.333.432-.607.522-.027-.027-.054-.053-.081-.079.765-1.891-.169-2.907-1.742-3.826-4.147-2.422-7.714-5.658-11.591-8.463-1.27-.919-2.52-1.869-3.781-2.8a1.885,1.885,0,0,0-2.644.028c-.4.319-.793.654-1.186.985a.42.42,0,0,1-.583.018c-.238-.168-.193-.342-.1-.561.208-.47.409-.943.591-1.422a1.786,1.786,0,0,0-.65-2.352q-1.167-.878-2.374-1.7a1.765,1.765,0,0,0-2.439.092c-.382.3-.745.627-1.119.939a.429.429,0,0,1-.588.04.41.41,0,0,1-.114-.57c.162-.372.3-.755.467-1.123a1.838,1.838,0,0,0-.473-2.407c-.178-.149-.343-.286-.174-.532.228-.33.361-.749.716-.957.154-.09.235.177.307.308a9.538,9.538,0,0,0,2.754,2.929c5.959,4.545,12.258,8.617,18.232,13.14.719.544,1.209.463,1.933-.2" transform="translate(-1.983 -38.268)" fill="#426f86"/>
        <path id="Path_182563" data-name="Path 182563" d="M43.331,67.487a7.353,7.353,0,0,1,1.381-2.61c2.448-4.023,4.929-8.027,7.4-12.039.127-.207.222-.432.332-.648,1.833.541,3.663,1.09,5.5,1.615.334.1.382.195.2.489q-1.978,3.2-3.93,6.415c-.233.384-.566.248-.862.237a9.1,9.1,0,0,0-7.2,2.889,10.081,10.081,0,0,0-2.026,3.283c-.151.372-.3.733-.792.369" transform="translate(-18.814 -22.66)" fill="#cadcea"/>
        <path id="Path_182564" data-name="Path 182564" d="M42.434,41.537l-3.071-.87a1.33,1.33,0,0,0-1.108-1.605c-.565-.16-1.4-.235-1.59-.611s.248-1.095.428-1.658c.36-1.131.366-1.135,1.55-.786q6.9,2.034,13.791,4.072a1.39,1.39,0,0,1-.318.878c-.393.629-.769,1.269-1.152,1.9-2.2-.654-4.413-1.295-6.612-1.97a1.437,1.437,0,0,0-1.918.644" transform="translate(-15.899 -15.546)" fill="#b6cedd"/>
        <path id="Path_182565" data-name="Path 182565" d="M11.969,74.188c2.146,3.235,3.5,6.534,2.48,10.421-.157.6-.326.6-.763.239-.707-.582-1.447-1.127-2.195-1.657a6.631,6.631,0,0,1-2.5-3.76.781.781,0,0,1,.087-.682c.9-1.5,1.792-3.01,2.894-4.56" transform="translate(-3.885 -32.211)" fill="#efa355"/>
        <path id="Path_182566" data-name="Path 182566" d="M61.973,46.143c.383-.635.759-1.275,1.152-1.9a1.39,1.39,0,0,0,.318-.878c1.864.535,3.725,1.083,5.6,1.6.455.124.408.3.206.609-.483.748-.785,1.8-1.466,2.182-.706.4-1.659-.325-2.5-.556-1.114-.3-2.2-.695-3.3-1.048" transform="translate(-26.908 -18.827)" fill="#9fbac8"/>
        <path id="Path_182567" data-name="Path 182567" d="M55.14,72.053c-.852,1.751-1.665,3.419-2.473,5.091a.432.432,0,0,1-.561.294c-.974-.212-1.958-.382-2.937-.572-.278-.054-.4-.149-.292-.5a6.706,6.706,0,0,1,6.262-4.318" transform="translate(-21.205 -31.283)" fill="#4089e2"/>
        <path id="Path_182568" data-name="Path 182568" d="M55.08,131.754c-.046.05-.1.1-.149.017-.008-.012.044-.063.068-.1.028.025.054.052.081.079" transform="translate(-23.849 -57.171)" fill="#426f86"/>
        <path id="Path_182569" data-name="Path 182569" d="M106.045,111.286a18.46,18.46,0,0,1-3.939-.431.646.646,0,0,1-.564-.475q-.985-2.912-1.976-5.822a.8.8,0,0,1,.126-.818q1.083-1.467,2.114-2.973a.707.707,0,0,1,.67-.331q3.611.014,7.223,0a.686.686,0,0,1,.67.342c.139.231.316.438.466.663.61.919,1.749,1.747,1.765,2.736a9.716,9.716,0,0,1-1.2,3.731,1.206,1.206,0,0,0-.763.413,28.151,28.151,0,0,1-3.193,2.146c-.453.306-1.136.209-1.4.821" transform="translate(-43.204 -43.607)" fill="#caddeb"/>
        <path id="Path_182570" data-name="Path 182570" d="M85.529,94.829c-.947,0-1.892-.009-2.839,0a.738.738,0,0,1-.772-.426,18.374,18.374,0,0,1-2.155-7.153.977.977,0,0,1,.45-1.009q2.275-1.625,4.5-3.313a.953.953,0,0,1,1.1-.148c1.06.462,2.4.618,3.142,1.373.718.731.837,2.055,1.206,3.123.4,1.146.761,2.3,1.175,3.443a.9.9,0,0,1-.106.966q-1.063,1.431-2.065,2.906a.9.9,0,0,1-.883.4c-.918-.028-1.837-.009-2.755-.009v-.161" transform="translate(-34.629 -35.896)" fill="#cadcea"/>
        <path id="Path_182571" data-name="Path 182571" d="M99.756,65.243c.423,1.477-.375,2.256-1.537,2.971-1.515.933-2.947,2-4.4,3.04a1.05,1.05,0,0,1-1.174.158c-.886-.394-1.791-.751-2.707-1.065a1,1,0,0,1-.7-.781q-.715-2.571-1.47-5.131a.81.81,0,0,1,.2-.925,18.839,18.839,0,0,1,5.481-3.966.872.872,0,0,1,1.021.078c1.494,1.067,2.987,2.139,4.528,3.137a1.4,1.4,0,0,1,.766,1.512,7.138,7.138,0,0,0-.007.972" transform="translate(-38.081 -25.797)" fill="#cadcea"/>
        <path id="Path_182572" data-name="Path 182572" d="M106.607,87.851c-1.055,0-2.111-.021-3.165.01a.707.707,0,0,1-.819-.565q-.936-2.847-1.937-5.672a.615.615,0,0,1,.3-.851q2.556-1.72,5.067-3.5a.736.736,0,0,1,1-.029q2.513,1.78,5.066,3.506a.683.683,0,0,1,.294.945q-.994,2.783-1.907,5.6a.708.708,0,0,1-.815.573c-1.027-.027-2.056-.008-3.083-.008" transform="translate(-43.687 -33.457)" fill="#2c5770"/>
        <path id="Path_182573" data-name="Path 182573" d="M129.8,82.918c.543-.415.991-.266,1.5.134,1.34,1.043,2.706,2.058,4.1,3.024a1.333,1.333,0,0,1,.641,1.45,18.565,18.565,0,0,1-2.032,6.684.959.959,0,0,1-.97.635c-1.781,0-3.561.068-5.341.11.117-.271.221-.548.351-.813a18.183,18.183,0,0,0,1.935-8.166,23.386,23.386,0,0,0-.191-3.058" transform="translate(-55.448 -35.894)" fill="#b6cedd"/>
        <path id="Path_182574" data-name="Path 182574" d="M122.908,71.608c-1.028.4-2.066,1.126-3.081,1.1-.954-.028-1.748-1.063-2.617-1.648-1.163-.784-2.3-1.607-3.465-2.387a.883.883,0,0,1-.453-.855c.028-.944.02-1.89,0-2.835a.757.757,0,0,1,.364-.738c1.013-.663,2.01-1.353,3.012-2.033a3.083,3.083,0,0,1,.98.7,19.706,19.706,0,0,1,3.974,5.249,10.45,10.45,0,0,1,1.282,3.455" transform="translate(-49.19 -27.01)" fill="#caddeb"/>
        <path id="Path_182575" data-name="Path 182575" d="M127.273,83.108a23.383,23.383,0,0,1,.191,3.058,18.184,18.184,0,0,1-1.935,8.166c-.131.264-.235.541-.351.813a.918.918,0,0,1-1.13-.491c-.6-.927-1.256-1.823-1.922-2.707a.982.982,0,0,1-.169-1.029q1.069-3.05,2.084-6.119a1.081,1.081,0,0,1,.733-.766c.84-.289,1.667-.614,2.5-.925" transform="translate(-52.919 -36.084)" fill="#cadcea"/>
        <path id="Path_182576" data-name="Path 182576" d="M125.5,70.372a10.451,10.451,0,0,0-1.282-3.455,19.706,19.706,0,0,0-3.974-5.249,3.083,3.083,0,0,0-.98-.7c.678-.487,1.362-.966,2.032-1.463a.637.637,0,0,1,.739-.056,18.5,18.5,0,0,1,5.68,4.1.765.765,0,0,1,.125.878c-.5,1.682-1,3.363-1.439,5.059a1.026,1.026,0,0,1-.9.878" transform="translate(-51.784 -25.774)" fill="#b6cedd"/>
        <path id="Path_182577" data-name="Path 182577" d="M103.958,57.18a19.108,19.108,0,0,1,8.127,0c-1.325.921-2.513,1.743-3.7,2.572a.584.584,0,0,1-.743.008c-1.164-.819-2.331-1.633-3.685-2.58" transform="translate(-45.137 -24.637)" fill="#2c5770"/>
        <path id="Path_182578" data-name="Path 182578" d="M124.283,113.057l1.3-3.893c.062-.185.137-.38.364-.381,1.416-.008,2.832,0,4.327,0a17.467,17.467,0,0,1-5.83,4.428l-.164-.15" transform="translate(-53.961 -47.229)" fill="#2c5770"/>
        <path id="Path_182579" data-name="Path 182579" d="M87.412,108.762h4.209a.386.386,0,0,1,.419.293c.439,1.321.889,2.638,1.252,4.028a15.153,15.153,0,0,1-5.879-4.321" transform="translate(-37.953 -47.222)" fill="#2c5770"/>
        <path id="Path_182580" data-name="Path 182580" d="M139.542,78.755c-1.231-.908-2.323-1.733-3.439-2.524-.311-.22-.211-.442-.139-.7l1.072-3.769a17.094,17.094,0,0,1,2.506,6.992" transform="translate(-59.001 -31.158)" fill="#2c5770"/>
        <path id="Path_182581" data-name="Path 182581" d="M79.99,78.71a17.194,17.194,0,0,1,2.45-6.964c.41,1.417.788,2.713,1.157,4.011a.434.434,0,0,1-.225.48c-1.062.775-2.123,1.551-3.382,2.473" transform="translate(-34.73 -31.151)" fill="#2c5770"/>
        <path id="Path_182582" data-name="Path 182582" d="M111.062,117.02c.265-.612.948-.515,1.4-.821a28.152,28.152,0,0,0,3.193-2.146,1.206,1.206,0,0,1,.763-.413c-.266.837-.54,1.672-.793,2.513a.559.559,0,0,1-.5.425,17.728,17.728,0,0,1-4.06.441" transform="translate(-48.221 -49.34)" fill="#b6cedd"/>
        <path id="Path_182583" data-name="Path 182583" d="M37.029,84.318A5.872,5.872,0,0,1,34.171,95.4,5.86,5.86,0,1,1,35.9,83.9c.284.085.565.181.847.272l.073-.018.02-.072c-.057.171.093.18.184.235m-2.58,1.8A3.443,3.443,0,0,0,30.9,89.461a3.5,3.5,0,0,0,3.328,3.508A3.453,3.453,0,0,0,37.755,89.6a3.4,3.4,0,0,0-3.307-3.481" transform="translate(-12.356 -36.328)" fill="#020303"/>
        <path id="Path_182584" data-name="Path 182584" d="M43.454,84.633c-.091-.055-.242-.064-.184-.235l.184.235" transform="translate(-18.781 -36.644)" fill="#5e9efb"/>
        <path id="Path_182585" data-name="Path 182585" d="M36.318,88a3.4,3.4,0,0,1,3.307,3.481,3.453,3.453,0,0,1-3.531,3.365,3.5,3.5,0,0,1-3.328-3.508A3.443,3.443,0,0,1,36.318,88" transform="translate(-14.226 -38.207)" fill="#e1d5c3"/>
      </g>
    </g>
  </g>
</svg>
