<svg xmlns="http://www.w3.org/2000/svg" xmlns:xlink="http://www.w3.org/1999/xlink" width="228" height="340" viewBox="0 0 228 340">
  <defs>
    <clipPath id="clip-path">
      <rect id="Rectangle_45180" data-name="Rectangle 45180" width="228" height="340" transform="translate(1105 925.602)" fill="#fff" stroke="#707070" stroke-width="1"/>
    </clipPath>
    <clipPath id="clip-path-2">
      <rect id="Rectangle_45318" data-name="Rectangle 45318" width="186.743" height="334.347" fill="none"/>
    </clipPath>
  </defs>
  <g id="_8" data-name="8" transform="translate(-1105 -925.602)" clip-path="url(#clip-path)">
    <g id="Group_174786" data-name="Group 174786" transform="translate(1105 926)">
      <g id="Group_174773" data-name="Group 174773" transform="translate(0 168.08)">
        <rect id="Rectangle_45175" data-name="Rectangle 45175" width="172.683" height="171.135" transform="translate(69.693)" fill="#6b8dfc"/>
        <path id="Rectangle_45176" data-name="Rectangle 45176" d="M98.344,0H242.376a0,0,0,0,1,0,0V98.344a0,0,0,0,1,0,0H0a0,0,0,0,1,0,0v0A98.344,98.344,0,0,1,98.344,0Z" transform="translate(0 72.79)" fill="#3c3fa7"/>
      </g>
      <g id="Group_175093" data-name="Group 175093" transform="translate(34 4.868)">
        <g id="Group_175092" data-name="Group 175092" clip-path="url(#clip-path-2)">
          <path id="Path_183915" data-name="Path 183915" d="M61.448,285.882a.98.98,0,0,1-.172-.014,1.049,1.049,0,0,1-.864-1.206L80.978,160.59c1.32-7.959,7.417-13.735,14.5-13.735h45.152a1.049,1.049,0,0,1,0,2.1H95.476c-6.051,0-11.278,5.038-12.429,11.979L62.481,285a1.048,1.048,0,0,1-1.033.878" transform="translate(-32.558 41.884)" fill="#12263f"/>
          <path id="Path_183916" data-name="Path 183916" d="M34.449,182.055h67.786a42.8,42.8,0,0,0,42.8-42.8V55.431a28.318,28.318,0,0,0-28.318-28.318H80.431A28.318,28.318,0,0,0,52.114,55.4l-.082,78.317L7.859,139.2v16.268a26.59,26.59,0,0,0,26.59,26.591" transform="translate(31.606 7.733)" fill="#e1e8ff"/>
          <path id="Path_183917" data-name="Path 183917" d="M146.32,139.486V55.663A29.4,29.4,0,0,0,116.953,26.3H80.665A29.407,29.407,0,0,0,51.3,55.633l-.08,77.39L7.963,138.388a1.047,1.047,0,0,0-.92,1.04V155.7a27.671,27.671,0,0,0,27.64,27.638H102.47a43.9,43.9,0,0,0,43.85-43.85M52.4,134.991a1.05,1.05,0,0,0,.92-1.04l.08-78.315a27.307,27.307,0,0,1,27.27-27.243h36.288a27.3,27.3,0,0,1,27.27,27.27v83.823a41.8,41.8,0,0,1-41.753,41.753H34.683A25.571,25.571,0,0,1,9.14,155.7V140.354Z" transform="translate(31.372 7.5)" fill="#5774cd"/>
          <path id="Path_183918" data-name="Path 183918" d="M107.974,289.381a1.049,1.049,0,0,1-1.035-.882L86.094,159.2a12.667,12.667,0,0,0-12.428-10.25H1.048a1.049,1.049,0,1,1,0-2.1H73.666A14.774,14.774,0,0,1,88.16,158.837l20.851,129.328a1.05,1.05,0,0,1-.869,1.2,1.076,1.076,0,0,1-.168.013" transform="translate(77.719 41.884)" fill="#12263f"/>
          <path id="Path_183919" data-name="Path 183919" d="M99.066,289.381a1.049,1.049,0,0,1-1.035-.882L77.186,159.2a12.668,12.668,0,0,0-12.428-10.25H19.606a1.049,1.049,0,1,1,0-2.1H64.758a14.774,14.774,0,0,1,14.493,11.983L100.1,288.165a1.05,1.05,0,0,1-.869,1.2,1.076,1.076,0,0,1-.168.013" transform="translate(62.777 41.884)" fill="#12263f"/>
          <path id="Path_183920" data-name="Path 183920" d="M101.538,83.994l10.875,2.25,5.98-14.272L105.7,70.965Z" transform="translate(-62.147 20.24)" fill="#e8926d"/>
          <path id="Path_183921" data-name="Path 183921" d="M148.755,67.608l-4.637,25.315a.937.937,0,0,1-1.5.567L110.475,68.212a.933.933,0,0,1-.342-.9l4.638-25.315a.936.936,0,0,1,1.5-.568L148.413,66.7a.931.931,0,0,1,.342.9" transform="translate(-103.552 11.758)" fill="#5774cd"/>
          <path id="Path_183922" data-name="Path 183922" d="M147.643,69.715l-5.259,22.7a.936.936,0,0,1-1.492.524l-30.95-24.431a.935.935,0,0,1-.342-.9l4.1-23.518a.936.936,0,0,1,1.5-.574l32.108,25.249a.936.936,0,0,1,.333.947" transform="translate(-101.765 12.354)" fill="#fff"/>
          <path id="Path_183923" data-name="Path 183923" d="M118.685,126.7,58.373,264.961l13.993,4.478L138,151.893Z" transform="translate(-26.274 36.137)" fill="#e8926d"/>
          <path id="Path_183924" data-name="Path 183924" d="M63.542,91.2,45.635,53.758a17.184,17.184,0,0,1,.289-15.4l2.258-4.3,41.7,59.807-11.842,7.294Z" transform="translate(40.369 9.714)" fill="#fff"/>
          <path id="Path_183925" data-name="Path 183925" d="M78.14,101.748a.488.488,0,0,0,.253-.072l11.841-7.294a.481.481,0,0,0,.143-.686l-41.7-59.807a.482.482,0,0,0-.823.051l-2.258,4.3a17.741,17.741,0,0,0-.3,15.831L63.2,91.52a.47.47,0,0,0,.162.189l14.5,9.954a.48.48,0,0,0,.272.085m11.154-7.919-11.14,6.862-14.136-9.7L46.168,53.657a16.773,16.773,0,0,1,.28-14.968l1.891-3.6ZM63.639,91.312h0Z" transform="translate(40.271 9.606)"/>
          <path id="Path_183926" data-name="Path 183926" d="M78.359,166.084l6.1-10.92L62.639,126.7l-4.266,9.778Z" transform="translate(27.265 36.137)"/>
          <path id="Path_183927" data-name="Path 183927" d="M54.6,88.954l54.745,24.359,12.689-14.342-59.9-28Z" transform="translate(-5.474 20.24)" fill="#fff"/>
          <path id="Path_183928" data-name="Path 183928" d="M109.457,113.9a.48.48,0,0,0,.36-.163L122.506,99.4a.482.482,0,0,0-.157-.756l-59.9-28.006a.483.483,0,0,0-.649.251L54.268,88.874a.481.481,0,0,0,.248.626l54.745,24.36a.5.5,0,0,0,.2.041m11.9-14.659L109.33,112.835,55.338,88.811,62.5,71.722Z" transform="translate(-5.58 20.133)"/>
          <path id="Path_183929" data-name="Path 183929" d="M139.864,199.08,98.972,143.591l26.743-12.814L109,107.825,71.951,128.68A11.072,11.072,0,0,0,69.035,145.6l56.789,65.177Z" transform="translate(-38.342 30.752)" fill="#e8926d"/>
          <path id="Path_183930" data-name="Path 183930" d="M85.919,137.785l14.623-7.007L83.829,107.826l-6.51,3.664Z" transform="translate(-13.17 30.753)"/>
          <path id="Path_183931" data-name="Path 183931" d="M111.306,112.371c.855,7.413.253,11.589-10.7,32.59s-28.325,45.175-28.325,45.175L30.78,131.7l41.728-20.912L67.685,32.138s13.268,12.553,21.35,26.811c10.528,18.574,20.557,38.549,22.271,53.422" transform="translate(35.61 9.166)" fill="#fc5f65"/>
          <path id="Path_183932" data-name="Path 183932" d="M71.549,32.979l13.2,9.9,9.811-11.328L81,20.936Z" transform="translate(0.227 5.971)" fill="#e8926d"/>
          <path id="Path_183933" data-name="Path 183933" d="M50.2,46.49l22.318,55.391,10.568-5.772L55.3,41.9Z" transform="translate(39.151 11.951)" fill="#fd521b"/>
          <path id="Path_183934" data-name="Path 183934" d="M124.192,76.638a20.558,20.558,0,0,1-14.7-.317c-8.129-3.187-15.1-16.609-15.1-16.609s20.272,1.364,26.644,4.23,3.156,12.7,3.156,12.7" transform="translate(-59.573 17.03)" fill="#e8926d"/>
          <path id="Path_183935" data-name="Path 183935" d="M102.459,64.154,99.727,63,95.355,76.886l3.605-.2Z" transform="translate(-38.267 17.969)"/>
          <path id="Path_183936" data-name="Path 183936" d="M151.012,69.7,134.829,93.035a.938.938,0,0,1-1.349.2L101.149,67.81a.934.934,0,0,1-.191-1.269L117.142,43.2a.937.937,0,0,1,1.347-.2l32.335,25.427a.937.937,0,0,1,.189,1.268" transform="translate(-93.972 12.207)" fill="#5774cd"/>
          <path id="Path_183937" data-name="Path 183937" d="M34.359,87.28l58.564,29.8a16.055,16.055,0,0,0,21.405-21.945L82.919,37.045A12.39,12.39,0,0,0,61.893,50.158l27.1,43.781L39.081,68.411Z" transform="translate(26.325 8.911)" fill="#fff"/>
          <path id="Path_183938" data-name="Path 183938" d="M100.3,119.414a16.534,16.534,0,0,0,14.561-24.4L83.457,36.922A12.871,12.871,0,0,0,61.6,50.517l26.19,42.312L39.413,68.087a.488.488,0,0,0-.419-.009.48.48,0,0,0-.267.321L34,87.27a.483.483,0,0,0,.249.546l58.564,29.8a16.473,16.473,0,0,0,7.486,1.8M72.5,31.829a12.055,12.055,0,0,1,2.249.212,11.786,11.786,0,0,1,7.877,5.367l31.392,58.066A15.574,15.574,0,0,1,93.255,116.76L35.033,87.131l4.482-17.909L88.887,94.473a.482.482,0,0,0,.63-.682l-27.1-43.782a11.978,11.978,0,0,1,3.043-15.84,11.78,11.78,0,0,1,7.04-2.34" transform="translate(26.211 8.805)"/>
          <path id="Path_183939" data-name="Path 183939" d="M126.018,67.976l1.861,10.333a2.226,2.226,0,0,0,1,1.481l.06.039a2.332,2.332,0,0,0,3.586-2.293l-1.921-10.373a2.248,2.248,0,0,0-1.376-1.664,2.325,2.325,0,0,0-3.212,2.478" transform="translate(-107.736 18.629)" fill="#e8926d"/>
          <path id="Path_183940" data-name="Path 183940" d="M122.16,70.126,124.2,81.273a2.379,2.379,0,0,0,1.114,1.594l.067.041a2.609,2.609,0,0,0,4.011-2.491l-2.1-11.188a2.424,2.424,0,0,0-1.529-1.79,2.592,2.592,0,0,0-3.6,2.687" transform="translate(-99.638 19.18)" fill="#e8926d"/>
          <path id="Path_183941" data-name="Path 183941" d="M118.864,74.421,120.37,82.3a1.648,1.648,0,0,0,.86,1.119l.053.03c1.482.811,3.458-.311,3.165-1.8l-1.559-7.905a1.721,1.721,0,0,0-1.184-1.256c-1.481-.509-3.1.591-2.842,1.932" transform="translate(-90.465 20.638)" fill="#e8926d"/>
          <path id="Path_183942" data-name="Path 183942" d="M115.886,77.676l1.361,6.507a1.355,1.355,0,0,0,.838.914l.053.022c1.464.646,3.457-.32,3.192-1.547l-1.414-6.529a1.491,1.491,0,0,0-1.161-1.019c-1.466-.4-3.1.546-2.87,1.653" transform="translate(-83.521 21.656)" fill="#e8926d"/>
          <path id="Path_183943" data-name="Path 183943" d="M80.278,25.982C78.226,13.585,85.459,2.061,96.436.243S117.976,7,120.028,19.4s-5.181,23.922-16.158,25.739-21.54-6.759-23.593-19.156" transform="translate(-36.36 0)" fill="#e8926d"/>
          <path id="Path_183944" data-name="Path 183944" d="M75.217,20.068s2.764,22.307-.581,30.2l17.34-19.065L89.2,27.252l5.088,1.412L99.441,23s-9.431-5.042-12.6-7.42-15.991-14.1-20.326-14.3S77.424,14.726,77.424,14.726Z" transform="translate(2.813 0.366)" fill="#ffb6c8"/>
          <path id="Path_183945" data-name="Path 183945" d="M118.765,14.44S111.348,22.825,103.092,12l-.132,4.412-6.412,5.05L94.07,15.494l.559,7.553-5.353,6.166s.523-12.772,2.441-16.78c1.089-2.275,6.3-7.872,6.3-7.872l11.722-.2Z" transform="translate(-46.76 1.245)" fill="#ffb6c8"/>
          <path id="Path_183946" data-name="Path 183946" d="M105.5,30.028l-3.444,5.055,6.308-1.208Z" transform="translate(-52.786 8.564)" fill="#e8926d"/>
          <path id="Path_183947" data-name="Path 183947" d="M101.5,32.363s-5.4-9.992,5.055-14.181c0,0,4.661,14.181-5.055,14.181" transform="translate(-49.592 5.186)" fill="#fff"/>
          <path id="Path_183948" data-name="Path 183948" d="M96.139,36.436a19.094,19.094,0,0,0,3.811.7l-1.909-8.459Z" transform="translate(-36.765 8.179)" fill="#5774cd"/>
          <path id="Path_183949" data-name="Path 183949" d="M92.473,11.93l24.1,4.737.842-10.62a19.331,19.331,0,0,0-16.853-5.8C93.427,1.425,87.893,6.72,85.445,13.678Z" transform="translate(-40.487 0)" fill="#ffb6c8"/>
          <path id="Path_183950" data-name="Path 183950" d="M110.238,27.828a5.294,5.294,0,1,1-5.294-5.294,5.294,5.294,0,0,1,5.294,5.294" transform="translate(-51.565 6.427)"/>
          <path id="Path_183951" data-name="Path 183951" d="M105.849,24.163a.585.585,0,0,0,.114-.012.577.577,0,0,0,.452-.68c-.35-1.747,2.11-3.982,3.087-4.695a.578.578,0,0,0-.68-.934c-.167.123-4.108,3.028-3.539,5.857a.578.578,0,0,0,.565.464" transform="translate(-58.238 5.057)"/>
          <path id="Path_183952" data-name="Path 183952" d="M93.334,11.841c-1.3-3.293-4.755-4.812-7.714-3.394a6.741,6.741,0,0,0-3,8.531c1.3,3.293,4.757,4.813,7.714,3.394a6.74,6.74,0,0,0,3-8.531" transform="translate(-12.636 2.258)" fill="#e8926d"/>
          <path id="Path_183953" data-name="Path 183953" d="M87.467,17.827a.578.578,0,0,0,.574-.524l.671-7.267a.578.578,0,0,0-.522-.63.586.586,0,0,0-.628.522L86.892,17.2a.577.577,0,0,0,.522.628l.054,0" transform="translate(-13.642 2.682)"/>
          <path id="Path_183954" data-name="Path 183954" d="M88.6,14.647a.577.577,0,0,0,.012-1.154l-3.886-.082a.545.545,0,0,0-.59.565.579.579,0,0,0,.565.59l3.888.081Z" transform="translate(-10.574 3.824)"/>
          <path id="Path_183955" data-name="Path 183955" d="M110.494,214.867l-11.077,25.2,14.1,4.479L126.5,221.473Z" transform="translate(-67.527 61.282)" fill="#d7e5ff"/>
          <path id="Path_183956" data-name="Path 183956" d="M94.316,184.171l-14.41-19.554L64.935,178.736l14.853,17.046Z" transform="translate(8.973 46.95)" fill="#d7e5ff"/>
          <path id="Path_183957" data-name="Path 183957" d="M156.2,237.752l-3.344,13.006,3.408,17.366H107.7l-.876-5.863a4.322,4.322,0,0,1,3.663-4.951c6.52-.891,18.535-3.644,23.141-12.01.832-1.51.532-13.107.532-13.107Z" transform="translate(-106.741 66.223)" fill="#ffd947"/>
          <path id="Path_183958" data-name="Path 183958" d="M90.644,178.408a.474.474,0,0,0,.285-.094.482.482,0,0,0,.1-.675L71.813,151.562a.482.482,0,1,0-.776.573l19.219,26.079a.484.484,0,0,0,.388.194" transform="translate(4.442 43.17)"/>
          <path id="Path_183959" data-name="Path 183959" d="M97.7,189.249a.481.481,0,0,0,.364-.8L80.881,168.736a.482.482,0,1,0-.727.632l17.178,19.715a.485.485,0,0,0,.364.166" transform="translate(-14.296 48.078)"/>
          <path id="Path_183960" data-name="Path 183960" d="M67.52,174.958l7.724,13.206,12.492,5.075L65.457,237.974l-4.929-1.536A4.3,4.3,0,0,1,57.7,231c2.054-6.219,7.981-21.3,2.515-29.077-.986-1.4-8.957-11.78-8.957-11.78Z" transform="translate(33.124 49.899)" fill="#ffd947"/>
          <path id="Path_183961" data-name="Path 183961" d="M107.418,257.859H155.8a.427.427,0,1,0,0-.853H107.418a.427.427,0,1,0,0,.853" transform="translate(-106.991 73.3)"/>
          <path id="Path_183962" data-name="Path 183962" d="M54.634,233.894a.424.424,0,0,0,.386-.247l21.023-45.525a.424.424,0,1,0-.77-.356L54.248,233.291a.426.426,0,0,0,.208.564.432.432,0,0,0,.177.039" transform="translate(40.991 53.482)"/>
          <path id="Path_183963" data-name="Path 183963" d="M74.856,203.052a.424.424,0,0,0,.352-.661L59.348,178.784a.424.424,0,1,0-.7.473L74.5,202.865a.423.423,0,0,0,.352.188" transform="translate(36.187 50.937)"/>
          <path id="Path_183964" data-name="Path 183964" d="M112.649,264.21a.427.427,0,0,0,.42-.356l4.862-28.616a.426.426,0,0,0-.348-.492.431.431,0,0,0-.492.35l-4.863,28.618a.428.428,0,0,0,.35.492.679.679,0,0,0,.072.005" transform="translate(-75.421 66.95)"/>
          <path id="Path_183965" data-name="Path 183965" d="M123.521,66.183a.48.48,0,0,0,.4-.213l9.6-14.32a.482.482,0,0,0-.8-.537l-9.6,14.32a.484.484,0,0,0,.132.67.476.476,0,0,0,.267.081" transform="translate(-104.991 14.517)" fill="#ffb6c8"/>
          <path id="Path_183966" data-name="Path 183966" d="M121.186,68.209a.481.481,0,0,0,.4-.213l9.6-14.318a.482.482,0,1,0-.8-.537l-9.6,14.319a.484.484,0,0,0,.132.67.476.476,0,0,0,.267.081" transform="translate(-99.655 15.095)" fill="#ffb6c8"/>
          <path id="Path_183967" data-name="Path 183967" d="M107,79.008a.482.482,0,0,0,.4-.207l8.295-11.963a.482.482,0,1,0-.792-.549l-8.3,11.961a.482.482,0,0,0,.122.671.47.47,0,0,0,.274.086" transform="translate(-65.925 18.847)" fill="#ffb6c8"/>
          <path id="Path_183968" data-name="Path 183968" d="M60.26,99.851s-48.749,25.41-47.424,61.106l21.313-2.128a36.072,36.072,0,0,0,31.211-26.383l1.767-6.462Z" transform="translate(103.154 28.478)" fill="#e1e8ff"/>
          <path id="Path_183969" data-name="Path 183969" d="M18.691,162.235a1.075,1.075,0,0,1-1.348-1c-.554-14.925,7.6-30.409,23.571-44.779A134.167,134.167,0,0,1,65.344,99.136a1.075,1.075,0,0,1,.993,1.906c-.482.251-48.132,25.513-46.847,60.114a1.075,1.075,0,0,1-.8,1.08" transform="translate(97.573 28.24)" fill="#5774cd"/>
        </g>
      </g>
    </g>
  </g>
</svg>
