<svg xmlns="http://www.w3.org/2000/svg" xmlns:xlink="http://www.w3.org/1999/xlink" width="144" height="138" viewBox="0 0 144 138">
  <defs>
    <clipPath id="clip-path">
      <rect id="Rectangle_45377" data-name="Rectangle 45377" width="106.522" height="106.581" fill="none"/>
    </clipPath>
  </defs>
  <g id="_9-1" data-name="9-1" transform="translate(-698 -4474.297)">
    <g id="Group_165391" data-name="Group 165391" transform="translate(161 3186.297)">
      <rect id="Rectangle_40797" data-name="Rectangle 40797" width="144" height="138" transform="translate(537 1288)" fill="#ffe891"/>
    </g>
    <g id="Group_175286" data-name="Group 175286" transform="translate(717 4490.297)">
      <g id="Group_175285" data-name="Group 175285" clip-path="url(#clip-path)">
        <path id="Path_184779" data-name="Path 184779" d="M97.513,62.472c2.278,0,4.456,0,6.634,0,1.527,0,2.392.685,2.374,1.861-.017,1.144-.864,1.9-2.308,1.781-1.209-.1-1.405.328-1.393,1.431a29.38,29.38,0,0,1-.371,7.426,14.529,14.529,0,0,1-6.185,8.912c-.7.466-.965.632-.058,1.247a14.493,14.493,0,0,1,6.642,12.4c.024,1.377.063,2.759-.017,4.132-.054.946.127,1.46,1.2,1.243a2.6,2.6,0,0,1,.8,0,1.832,1.832,0,0,1,.064,3.644,4.264,4.264,0,0,1-.8.018H68.5c-.192,0-.383.012-.574,0a1.835,1.835,0,0,1,.012-3.67c1.84-.142,1.819-.143,1.846-1.952a33.982,33.982,0,0,1,.241-6.1c-11.556,4.98-23.273,5.819-35.193,2.089A48.071,48.071,0,0,1,7.208,75.314,49.565,49.565,0,0,1,68.825,3.924,48.609,48.609,0,0,1,94.1,27.809a49.068,49.068,0,0,1,3.417,34.663" transform="translate(0 0)"/>
        <path id="Path_184780" data-name="Path 184780" d="M25.535,80.1a10.273,10.273,0,0,0,1.515-1.139,1.729,1.729,0,0,0-.013-2.482,1.808,1.808,0,0,0-2.581-.079c-.467.377-.839,1.235-1.338,1.1-.522-.137-.9-.883-1.306-1.387a38.533,38.533,0,0,1-8.62-21.7c-.052-.656.066-.918.749-.84a5.3,5.3,0,0,0,1.146-.006,1.838,1.838,0,0,0,1.7-1.839,1.868,1.868,0,0,0-1.726-1.82c-.626-.077-1.506.314-1.816-.219-.269-.46.042-1.257.092-1.9A38.355,38.355,0,0,1,23.359,25.669a10.315,10.315,0,0,0,1.05,1.369,1.763,1.763,0,0,0,2.572.043,1.8,1.8,0,0,0,.064-2.58c-1.185-1.452-1.184-1.45.3-2.648a38.6,38.6,0,0,1,21.7-8.611c.673-.054.905.1.828.762a5.384,5.384,0,0,0,0,1.032,1.845,1.845,0,0,0,1.857,1.8,1.879,1.879,0,0,0,1.81-1.74c.078-.622-.317-1.5.224-1.806.466-.265,1.259.031,1.906.1a38.148,38.148,0,0,1,21.4,9.307c.431.373.573.621.071,1.034a5.063,5.063,0,0,0-.941,1,1.672,1.672,0,0,0,.188,2.3,1.712,1.712,0,0,0,2.3.27c.065-.039.123-.09.186-.133.522-.366.9-1.324,1.423-1.15.594.2,1,1,1.455,1.563A38.609,38.609,0,0,1,90.215,49.1c.054.684-.117.9-.769.822a5.316,5.316,0,0,0-1.032,0,1.839,1.839,0,0,0-1.8,1.861,1.878,1.878,0,0,0,1.742,1.806c.623.079,1.472-.317,1.81.229.259.418-.041,1.181-.092,1.79A40.522,40.522,0,0,1,88.4,63.788c-.2.68-.535.847-1.209.844-5.588-.027-11.176-.019-16.765-.013-1.35,0-2.172.709-2.178,1.825a1.871,1.871,0,0,0,2.046,1.846c1.624.053,1.609.053,1.627,1.712.027,2.595-.208,5.208.548,7.754a14.1,14.1,0,0,0,1.982,4.23c.339.475.311.723-.181,1.073a39.047,39.047,0,0,1-20.12,7.22c-.441.033-.64-.055-.613-.529a8.887,8.887,0,0,0-.009-1.377,1.836,1.836,0,0,0-1.833-1.7,1.866,1.866,0,0,0-1.824,1.722c-.077.628.307,1.511-.21,1.822-.452.271-1.256-.028-1.9-.1A38.63,38.63,0,0,1,25.535,80.1" transform="translate(-2.136 -2.145)" fill="#e8edf1"/>
        <path id="Path_184781" data-name="Path 184781" d="M50.31,96.266A45.922,45.922,0,1,1,94.644,38.541a45.158,45.158,0,0,1-.023,23.8c-.16.6-.362.922-1.058.862-.948-.08-2.3.311-2.752-.174-.495-.538.3-1.732.528-2.641A42.279,42.279,0,1,0,42.274,91.814a41.6,41.6,0,0,0,32.758-7.255,2,2,0,0,1,2.678.487c.193.3-.012.406-.2.525a15.665,15.665,0,0,0-4.788,4.713,2.786,2.786,0,0,1-1.038.682,46.072,46.072,0,0,1-21.37,5.3" transform="translate(-0.704 -0.72)" fill="#feb532"/>
        <path id="Path_184782" data-name="Path 184782" d="M100.609,78.99c3.941,0,7.883.021,11.823-.018.764-.008,1.079.122,1.025.973-.136,2.134.176,4.285-.205,6.412a10.55,10.55,0,0,1-5.512,7.751,2.678,2.678,0,0,0-1.657,2.921,7.65,7.65,0,0,1,0,1.262,2.023,2.023,0,0,0,1.177,2.046,11.063,11.063,0,0,1,6.18,10.677c-.02,1.339-.025,2.679.008,4.018.013.533-.12.794-.692.712a4.225,4.225,0,0,0-.574,0,5.845,5.845,0,0,1-2.155-.066c-.625-.27-.339-1.211-.583-1.831a7.8,7.8,0,0,0-3.111-3.718,10.485,10.485,0,0,0-11.761.163,6.943,6.943,0,0,0-3.158,4.845c-.005.038.009.088-.011.113-.873,1.105-2.062.227-3.076.483-.646.163-.638-.311-.617-.759.118-2.55-.3-5.125.414-7.647a10.571,10.571,0,0,1,5.321-6.727,2.59,2.59,0,0,0,1.625-2.826,11.214,11.214,0,0,1-.008-1.491,1.919,1.919,0,0,0-1.114-1.852c-4.361-2.316-6.355-5.984-6.242-10.871.026-1.109.067-2.223-.015-3.327-.071-.955.136-1.291,1.2-1.269,3.9.08,7.8.032,11.708.032" transform="translate(-14.262 -12.843)" fill="#d9dbdd"/>
        <path id="Path_184783" data-name="Path 184783" d="M102,122.171c-1.6,0-3.208-.025-4.811.012-.693.015-.8-.215-.515-.79a5.366,5.366,0,0,1,4.1-2.767c2.334-.506,5.234.553,6.32,2.286.22.352.548.761.333,1.145-.157.281-.632.106-.963.109-1.489.013-2.978.006-4.467.006" transform="translate(-15.701 -19.274)" fill="#98c6e7"/>
        <path id="Path_184784" data-name="Path 184784" d="M56.282,37.042c-.715.655-1.271,1.121-2.079,1.006a1.8,1.8,0,0,1-1.146-2.97c1.221-1.367,2.543-2.65,3.887-3.9a1.715,1.715,0,0,1,2.563.172c1.134,1.084,2.236,2.2,3.333,3.323.96.98,1.043,2.024.26,2.828-.756.775-1.691.736-2.75-.114-.08-.064-.167-.121-.393-.281v5.449c0,1.531.047,3.064-.015,4.592-.054,1.326-.1,2.53,1.49,3.1a2.331,2.331,0,0,1,1.3,1.406c.356,1.063,1.085,1.13,2.027,1.125,6.009-.031,12.016-.016,18.057-.016.056-.42-.34-.552-.495-.818a1.742,1.742,0,0,1,.246-2.305,1.582,1.582,0,0,1,2.283-.2,53.938,53.938,0,0,1,4.137,4.131,1.688,1.688,0,0,1-.3,2.463c-1.105,1.114-2.206,2.232-3.329,3.328a1.856,1.856,0,0,1-2.744.265c-.8-.737-.79-1.7.032-2.748.082-.1.273-.17.143-.437H69.424c-1.76,0-3.521.018-5.281-.011A1.06,1.06,0,0,0,63,57.08a5.448,5.448,0,0,1-5.7,2.979,5.6,5.6,0,0,1-4.638-4.621,5.52,5.52,0,0,1,2.951-5.727c.378-.205.69-.331.686-.887-.03-3.855-.015-7.711-.015-11.782" transform="translate(-8.554 -4.99)"/>
        <path id="Path_184785" data-name="Path 184785" d="M109,86.532c-.005,3.634-1.592,6.089-4.857,7.411-.518.209-.711.454-.665.992a7.576,7.576,0,0,1-.009,1.49,1.809,1.809,0,0,1-1.877,1.648c-1.006-.075-1.83-.687-1.717-1.643.205-1.742-.614-2.426-2.031-3.175A6.7,6.7,0,0,1,94.311,87.1c-.083-3.514.138-3.719,3.612-3.719h7.92c2.825,0,3.165.339,3.161,3.147" transform="translate(-15.338 -13.563)"/>
        <path id="Path_184786" data-name="Path 184786" d="M104.559,107.215a1.835,1.835,0,1,1-1.757-1.884,1.866,1.866,0,0,1,1.757,1.884" transform="translate(-16.41 -17.132)" fill="#020202"/>
        <path id="Path_184787" data-name="Path 184787" d="M60.673,58.908a1.836,1.836,0,1,1-1.788-1.854,1.867,1.867,0,0,1,1.788,1.854" transform="translate(-9.271 -9.28)" fill="#fcb431"/>
        <path id="Path_184788" data-name="Path 184788" d="M102.48,87.772c.991,0,1.985.028,2.975-.011.557-.021.626.206.545.679a3.7,3.7,0,0,1-7.262.012c-.112-.606.125-.706.652-.689,1.029.032,2.06.009,3.09.009" transform="translate(-16.056 -14.274)" fill="#98c6e6"/>
      </g>
    </g>
  </g>
</svg>
