<svg xmlns="http://www.w3.org/2000/svg" xmlns:xlink="http://www.w3.org/1999/xlink" width="144" height="138" viewBox="0 0 144 138">
  <defs>
    <clipPath id="clip-path">
      <rect id="Rectangle_45266" data-name="Rectangle 45266" width="97.055" height="97.101" fill="none"/>
    </clipPath>
  </defs>
  <g id="_9" data-name="9" transform="translate(-698 -4474.297)">
    <g id="Group_165391" data-name="Group 165391" transform="translate(161 3186.297)">
      <rect id="Rectangle_40797" data-name="Rectangle 40797" width="144" height="138" transform="translate(537 1288)" fill="#ffe891"/>
    </g>
    <g id="Group_174956" data-name="Group 174956" transform="translate(721 4494.297)">
      <g id="Group_174956-2" data-name="Group 174956" transform="translate(0 0)" clip-path="url(#clip-path)">
        <path id="Path_182794" data-name="Path 182794" d="M20.373,74.143a1.641,1.641,0,0,1,1.425,0,14.135,14.135,0,0,0,7.983,1.019,14.57,14.57,0,0,0,1.752-28.4c.316-.648.613-1.247.9-1.849,2.105-4.394,2.088-2.65-.037-7.146a1.942,1.942,0,0,0-1.982-1.239q-2.877.056-5.755,0a1.935,1.935,0,0,0-1.976,1.25c-.476,1.027-1.01,2.026-1.61,3.217-.623-1.247-1.155-2.294-1.67-3.35a1.785,1.785,0,0,0-1.754-1.111q-3.029.024-6.058,0a1.787,1.787,0,0,0-1.763,1.1c-.457.936-.914,1.873-1.4,2.794a1.933,1.933,0,0,0,0,1.921c.618,1.193,1.153,2.432,1.825,3.593.41.711.218.883-.48,1.13a14.546,14.546,0,1,0,10.6,27.07m1.336-4.561a.845.845,0,0,1-1.292-.026A11.335,11.335,0,0,1,20.4,52.029a.887.887,0,0,1,1.369.029,11.253,11.253,0,0,1-.065,17.523m4.312-29.8c.5-.013,1.008,0,1.512,0h1.21a1.533,1.533,0,0,1,1.474,2.336c-.581,1.174-1.177,2.34-1.749,3.519a.992.992,0,0,1-1.837.021c-.615-1.27-1.274-2.518-1.884-3.789a1.584,1.584,0,0,1,1.274-2.084M36.415,53.8A11.275,11.275,0,0,1,24.4,71.61a14.676,14.676,0,0,0,.057-21.59c4-1.469,9.085.165,11.961,3.78M21.073,41.787c.827,1.644,1.579,3.147,2.34,4.645.163.322-.021.375-.269.474-1.2.476-2.376,1.13-3.653.17a3.639,3.639,0,0,0-.89-.335l2.473-4.955m-7.761-2.011c.437,0,.875,0,1.312,0h1.11a1.558,1.558,0,0,1,1.5,2.448c-.57,1.144-1.156,2.28-1.708,3.432a.995.995,0,0,1-1.838-.022c-.586-1.211-1.2-2.406-1.8-3.613a1.534,1.534,0,0,1,1.42-2.245m-7.7,27.836a11.3,11.3,0,0,1-.19-13.373A11.146,11.146,0,0,1,17.736,50,14.656,14.656,0,0,0,17.7,71.552c-3.8,1.4-9.112,0-12.092-3.94" transform="translate(0 -7.43)"/>
        <path id="Path_182795" data-name="Path 182795" d="M109.6,65.663c-.774.021-.933-.21-.929-.949q.045-9.845.015-19.689a8.087,8.087,0,0,0-8.511-8.478q-7.522-.01-15.044,0c-5.407,0-8.77,3.346-8.771,8.724,0,6.4-.022,12.79.023,19.184.007.945-.17,1.276-1.181,1.215-1.522-.092-2.069.517-2.074,2.031-.006,1.784,0,3.567,0,5.352,0,1.8.479,2.288,2.252,2.289H92.549q8.682,0,17.366,0c1.443,0,2-.572,2.01-2.024.008-1.784,0-3.567,0-5.352,0-1.852-.456-2.349-2.321-2.3m-4.151-21.227c.013,6.8,0,13.6.017,20.4,0,.6-.159.812-.791.826-2.452.055-2.452.078-2.452-2.387,0-5.452.012-10.9,0-16.357-.01-3.482.3-3.564-1.436-7.062a4.764,4.764,0,0,1,4.667,4.584M79.6,44.783a4.85,4.85,0,0,1,4.95-5q4.746-.022,9.492,0a4.841,4.841,0,0,1,4.949,5c.013,3.264,0,6.529,0,9.793,0,3.366-.018,6.731.015,10.1.007.715-.13.993-.928.989q-8.785-.053-17.569,0c-.8,0-.933-.268-.93-.986.025-6.63.009-13.26.018-19.891m26.947,27.324c-9.653,0-19.306-.014-28.958.021-.934,0-1.291-.169-1.251-1.191.083-2.06.022-2.063,2.071-2.063H92.536c5.011,0,10.022.019,15.034-.018.842-.006,1.179.144,1.149,1.087-.068,2.163-.014,2.164-2.171,2.164" transform="translate(-14.874 -7.433)"/>
        <path id="Path_182796" data-name="Path 182796" d="M54.1,37.108a1.654,1.654,0,0,0,2.712-.022c5.6-5.589,11.223-11.159,16.771-16.8a11.6,11.6,0,0,0,3.294-10.267,11.922,11.922,0,0,0-17.141-8.7,1.626,1.626,0,0,0-.6,2.675c.616.842,1.236,1.683,1.909,2.479a.786.786,0,0,1,.024,1.2c-1.207,1.533-2.344,3.121-3.531,4.671a1.766,1.766,0,0,0-.07,2.312c.673.966,1.29,1.971,1.974,2.928a.7.7,0,0,1-.109,1.1c-1.1,1.045-2.144,2.142-3.225,3.2a1.794,1.794,0,0,0-.507,2.1,26.512,26.512,0,0,0,.909,2.667c.692,1.363.045,2.422-.6,3.826a9.05,9.05,0,0,0-1.886-5.035c-.407-.488-.689-1.079-1.083-1.58a.887.887,0,0,1-.01-1.244c.691-.952,1.321-1.949,1.968-2.932.762-1.157.756-1.538-.058-2.633-1.065-1.431-2.125-2.865-3.217-4.275-.323-.417-.279-.636.143-.942q2.287-1.661,4.524-3.39a1.588,1.588,0,0,0,.2-2.6,39.623,39.623,0,0,0-2.957-2.9A11.4,11.4,0,0,0,43.077.349a11.838,11.838,0,0,0-5.748,19.958c5.5,5.685,11.166,11.214,16.769,16.8M60.054,22.5a35.775,35.775,0,0,0,2.587-2.548c1.091-1.1,1.148-1.631.311-2.9-.629-.954-1.235-1.926-1.91-2.846a.847.847,0,0,1,.053-1.22c1.2-1.537,2.335-3.123,3.525-4.669a1.779,1.779,0,0,0,.01-2.466c-.568-.7-1.1-1.438-1.732-2.276A8.426,8.426,0,0,1,70.375,5.03a8.481,8.481,0,0,1,1.376,12.414c-3.7,3.986-7.711,7.688-11.656,11.583.525-1.416-.241-2.6-.7-3.779a2.067,2.067,0,0,1,.661-2.75M43.392,3.605c3.651-1.022,6.665.179,9.188,2.887.417.447.129.613-.183.846q-2.06,1.54-4.114,3.091a1.68,1.68,0,0,0-.385,2.746c1.161,1.568,2.313,3.144,3.519,4.676a.85.85,0,0,1,.022,1.221c-.724,1.011-1.379,2.072-2.084,3.1a1.725,1.725,0,0,0,.01,2.149c.612.885,1.162,1.815,1.806,2.676A6.874,6.874,0,0,1,52.7,31.064c-.179-.151-.313-.25-.429-.366-4.237-4.236-8.516-8.429-12.7-12.719A8.606,8.606,0,0,1,43.392,3.605" transform="translate(-6.881 0)"/>
        <path id="Path_182797" data-name="Path 182797" d="M68.187,105.121a5.073,5.073,0,0,0-3.346-4.6c-2.035-.871-4.077-1.725-6.1-2.617a1.515,1.515,0,0,0-1.337,0c-2.15.942-4.342,1.791-6.469,2.782a4.972,4.972,0,0,0-2.979,4.332c-.28,3.028-.64,6.049-.955,9.073-.1.932-.156,1.867-.233,2.8H69.374q-.364-3.592-.73-7.182c-.156-1.529-.35-3.057-.458-4.591" transform="translate(-9.512 -19.882)" fill="#4483d0"/>
        <path id="Path_182798" data-name="Path 182798" d="M70.966,103.317c-.134-1.339-.233-2.682-.413-4.015A7.986,7.986,0,0,0,65.7,92.719c-1.814-.823-3.656-1.584-5.811-2.515a17.953,17.953,0,0,0,1.444-1.162,7.2,7.2,0,0,0,2.242-4.413,93.851,93.851,0,0,0,.087-10.187,1.443,1.443,0,0,0-1.6-1.364c-1.144-.022-2.289-.027-3.433,0a7.918,7.918,0,0,0-7.651,6.532c-.616,3.8-.332,7.42,2.9,10.15.5.419.4.633-.166.865q-2.424.992-4.822,2.05a7.685,7.685,0,0,0-4.862,6.229c-.537,4.066-.863,8.16-1.281,12.241-.029.286-.045.543.348.577a10,10,0,0,0,2.85.147h0c-.542-.836-.112-1.718-.033-2.544.3-3.146.589-6.294.95-9.433a5.4,5.4,0,0,1,3.431-4.616c1.976-.856,3.959-1.7,5.937-2.55a2.436,2.436,0,0,1,2.041,0c2.105.9,4.235,1.747,6.3,2.72a5.041,5.041,0,0,1,3.006,4.045c.487,3.836.782,7.694,1.194,11.538a.877.877,0,0,1-.219.84,8.9,8.9,0,0,0,2.552-.1c.571,0,.7-.268.633-.83-.286-2.54-.519-5.086-.773-7.629M57.744,88.047c-.263.217-.481.525-.832.143A11.354,11.354,0,0,1,54.406,85.2c-1.048-2.418-.448-6.052,1.323-7.692a5.407,5.407,0,0,1,4.33-1.191c.512.035.418.44.421.758.009,1.144,0,2.288,0,3.432a10.307,10.307,0,0,0,.01,1.412c.371,2.629-.825,4.537-2.749,6.131" transform="translate(-8.692 -14.86)"/>
        <path id="Path_182799" data-name="Path 182799" d="M69.525,116c-.412-3.844-.707-7.7-1.194-11.538a5.039,5.039,0,0,0-3.006-4.045c-2.069-.973-4.2-1.823-6.3-2.72a2.436,2.436,0,0,0-2.041,0c-1.978.852-3.961,1.694-5.937,2.55a5.4,5.4,0,0,0-3.43,4.616c-.361,3.139-.647,6.288-.95,9.433-.08.825-.51,1.708.033,2.544.076-.933.136-1.868.233-2.8.315-3.026.675-6.046.955-9.074a4.972,4.972,0,0,1,2.979-4.332c2.127-.991,4.318-1.84,6.468-2.782a1.515,1.515,0,0,1,1.337,0c2.026.892,4.068,1.746,6.1,2.617a5.074,5.074,0,0,1,3.345,4.6c.109,1.533.3,3.061.458,4.592q.364,3.591.73,7.181a.879.879,0,0,0,.218-.84" transform="translate(-9.443 -19.825)"/>
        <path id="Path_182800" data-name="Path 182800" d="M31.872,107.653A45.1,45.1,0,0,1,10.516,88.387c-1.1-1.917-1.082-1.9-3.076-.938-.7.334-.817.6-.429,1.328a48.823,48.823,0,0,0,12.9,15.476A47.8,47.8,0,0,0,30.9,110.765c.206.088.517.438.695.079.417-.84.749-1.722,1.123-2.608-.108-.44-.544-.449-.847-.583" transform="translate(-1.382 -17.657)"/>
        <path id="Path_182801" data-name="Path 182801" d="M107.426,89.7a12.832,12.832,0,0,1-1.314-.744c-.766-.561-1.175-.514-1.716.412a44.98,44.98,0,0,1-19.761,18.128c-.683.329-1.777.41-1.938,1.052-.152.607.511,1.4.746,2.129.2.629.448.718,1.074.441a48.73,48.73,0,0,0,22.877-20.375c.119-.2.234-.408.363-.633.045-.246-.166-.316-.332-.411" transform="translate(-16.815 -18.018)"/>
        <path id="Path_182802" data-name="Path 182802" d="M93.154,13.418a44.881,44.881,0,0,1,12.66,13.258c.424.672.66,1.8,1.322,1.894.639.1,1.393-.681,2.119-1.03.507-.244.57-.481.278-.985a48.941,48.941,0,0,0-14.8-16.02c-.165-.114-.332-.224-.475-.32-.276.039-.337.251-.445.409a15.742,15.742,0,0,1-.906,1.334c-.523.617-.474.967.243,1.459" transform="translate(-18.826 -2.078)"/>
        <path id="Path_182803" data-name="Path 182803" d="M8.764,27.816a4.522,4.522,0,0,1,1.145.629c.479.354.7.222.981-.264A45.218,45.218,0,0,1,24.649,13.253c.183-.127.443-.2.457-.531-.295-.448-.608-.925-.922-1.4-.777-1.174-.778-1.175-1.952-.342A49.58,49.58,0,0,0,8.313,26.072c-.531.884-.594,1.369.451,1.744" transform="translate(-1.615 -2.114)"/>
        <path id="Path_182804" data-name="Path 182804" d="M16.682,46.462a1,1,0,0,0,1.839.022c.551-1.152,1.138-2.288,1.707-3.432a1.557,1.557,0,0,0-1.5-2.448h-1.11c-.437,0-.875,0-1.312,0a1.534,1.534,0,0,0-1.42,2.245c.592,1.207,1.21,2.4,1.8,3.613" transform="translate(-2.992 -8.258)" fill="#81c3b6"/>
        <path id="Path_182805" data-name="Path 182805" d="M32.923,46.48a.993.993,0,0,0,1.838-.022c.57-1.179,1.167-2.345,1.748-3.519A1.533,1.533,0,0,0,35.034,40.6h-1.21c-.5,0-1.009-.01-1.512,0a1.583,1.583,0,0,0-1.273,2.083c.609,1.272,1.269,2.52,1.883,3.79" transform="translate(-6.291 -8.258)" fill="#70b4a7"/>
        <path id="Path_182806" data-name="Path 182806" d="M82.16,66.485q8.784-.053,17.568,0c.8,0,.935-.273.928-.989-.033-3.366-.014-6.731-.015-10.1,0-3.264.01-6.529,0-9.793a4.841,4.841,0,0,0-4.95-5q-4.745-.022-9.491,0a4.851,4.851,0,0,0-4.95,5c-.01,6.63.006,13.26-.018,19.89,0,.718.135.991.93.986m11.3-4.868h-2.52c-1.378,0-2.755-.014-4.133.006-.488.007-.7-.109-.733-.663-.143-2.578-.162-2.577,2.443-2.577,2.117,0,4.233.022,6.35-.013.664-.011.94.125.939.872,0,2.374.03,2.374-2.347,2.374m1.662-6.5a38.2,38.2,0,0,1-4.23.035c-1.377,0-2.755-.02-4.132.006-1.044.02-.727-.8-.631-1.205.16-.681-.719-1.923.625-1.991,2.782-.139,5.575-.028,8.364-.049,1.044-.008.727.8.631,1.206-.16.68.723,1.847-.626,2M86.7,45.452H90.94c1.849,0,3.7.024,5.546-.013.66-.013.943.119.942.869,0,2.376.032,2.376-2.347,2.376-3.194,0-6.386-.018-9.579.014-.738.007-1.064-.115-1.048-.972.044-2.274,0-2.275,2.25-2.275" transform="translate(-16.522 -8.257)" fill="#81c3b6"/>
        <path id="Path_182807" data-name="Path 182807" d="M108.387,77.107c-5.011.037-10.023.018-15.034.018H79.228c-2.05,0-1.989,0-2.072,2.062-.041,1.022.317,1.195,1.251,1.191,9.652-.033,19.3-.021,28.957-.021,2.157,0,2.1,0,2.171-2.164.03-.943-.307-1.094-1.149-1.087" transform="translate(-15.692 -15.683)" fill="#71b4a7"/>
        <path id="Path_182808" data-name="Path 182808" d="M109.284,47.756c.016,5.452,0,10.9,0,16.357,0,2.465,0,2.442,2.452,2.387.632-.014.793-.229.792-.826-.018-6.8,0-13.6-.018-20.4a4.763,4.763,0,0,0-4.667-4.584c1.737,3.5,1.426,3.58,1.436,7.062" transform="translate(-21.935 -8.276)" fill="#6aa99d"/>
        <path id="Path_182809" data-name="Path 182809" d="M53.091,31.525c.116.116.25.214.429.366A6.866,6.866,0,0,0,52,27.822c-.644-.86-1.194-1.79-1.806-2.676A1.724,1.724,0,0,1,50.181,23c.7-1.025,1.359-2.086,2.083-3.1a.849.849,0,0,0-.022-1.22c-1.207-1.533-2.358-3.108-3.519-4.676a1.679,1.679,0,0,1,.386-2.746c1.365-1.038,2.74-2.064,4.114-3.092.312-.233.6-.4.183-.845-2.523-2.708-5.538-3.91-9.189-2.888a8.607,8.607,0,0,0-3.822,14.374c4.181,4.29,8.459,8.484,12.7,12.719" transform="translate(-7.706 -0.828)" fill="#f8bda4"/>
        <path id="Path_182810" data-name="Path 182810" d="M66.556,29.86c3.945-3.895,7.953-7.6,11.655-11.583A8.479,8.479,0,0,0,76.836,5.863a8.426,8.426,0,0,0-7.477-1.455c.635.838,1.164,1.573,1.732,2.276a1.779,1.779,0,0,1-.01,2.466c-1.19,1.545-2.325,3.132-3.525,4.669a.846.846,0,0,0-.053,1.22c.676.92,1.281,1.893,1.91,2.846.837,1.269.78,1.8-.311,2.9a35.6,35.6,0,0,1-2.586,2.548,2.067,2.067,0,0,0-.661,2.75c.461,1.174,1.227,2.364.7,3.779" transform="translate(-13.343 -0.833)" fill="#f8bda4"/>
        <path id="Path_182811" data-name="Path 182811" d="M63.341,82.739a10.171,10.171,0,0,1-.01-1.412c0-1.144.006-2.289,0-3.433,0-.319.092-.723-.421-.758a5.4,5.4,0,0,0-4.33,1.191c-1.771,1.639-2.372,5.273-1.323,7.691a11.354,11.354,0,0,0,2.506,2.994c.351.382.569.075.832-.143,1.924-1.594,3.12-3.5,2.749-6.131" transform="translate(-11.54 -15.683)" fill="#4483d0"/>
        <path id="Path_182812" data-name="Path 182812" d="M86.325,49.936c3.193-.033,6.386-.014,9.579-.014,2.379,0,2.346,0,2.348-2.376,0-.75-.283-.882-.943-.869-1.848.037-3.7.013-5.546.013H87.527c-2.25,0-2.206,0-2.25,2.275-.017.857.311.98,1.048.972" transform="translate(-17.345 -9.493)"/>
        <path id="Path_182813" data-name="Path 182813" d="M96.97,56c.1-.409.413-1.214-.631-1.206-2.788.021-5.582-.09-8.364.049-1.344.067-.464,1.31-.625,1.99-.1.409-.413,1.225.631,1.205,1.377-.026,2.755-.006,4.132-.006A38.393,38.393,0,0,0,96.344,58c1.349-.151.466-1.318.626-2" transform="translate(-17.739 -11.14)"/>
        <path id="Path_182814" data-name="Path 182814" d="M96.1,62.909c-2.117.035-4.233.013-6.35.013-2.6,0-2.586,0-2.443,2.577.03.554.245.67.733.663,1.377-.021,2.755-.007,4.133-.007h2.52c2.377,0,2.345,0,2.347-2.375,0-.746-.276-.883-.939-.871" transform="translate(-17.747 -12.795)"/>
      </g>
    </g>
  </g>
</svg>
