<svg id="a6" xmlns="http://www.w3.org/2000/svg" xmlns:xlink="http://www.w3.org/1999/xlink" width="109.575" height="86.378" viewBox="0 0 109.575 86.378">
  <defs>
    <clipPath id="clip-path">
      <rect id="Rectángulo_44673" data-name="Rectángulo 44673" width="109.575" height="86.378" fill="none"/>
    </clipPath>
  </defs>
  <g id="Grupo_173589" data-name="Grupo 173589" clip-path="url(#clip-path)">
    <path id="Trazado_177695" data-name="Trazado 177695" d="M15.577,60.307c-.152.116-.3.236-.446.362a6.266,6.266,0,0,0,.51.9,4.573,4.573,0,0,0,.629.746A4.224,4.224,0,0,0,19.4,63.431Z" transform="translate(-3.918 -15.614)"/>
    <path id="Trazado_177696" data-name="Trazado 177696" d="M15.733,60.307q1.913,1.561,3.824,3.124l-3.823-3.125h0Z" transform="translate(-4.074 -15.614)"/>
    <path id="Trazado_177697" data-name="Trazado 177697" d="M14.432,59.961a1.79,1.79,0,0,0,.433.285q.218-.188.446-.361c-.248-.416-.3-1.007-.834-1.167a1.053,1.053,0,0,0-.253-.039,1.051,1.051,0,0,0,.208,1.281" transform="translate(-3.651 -15.193)"/>
    <path id="Trazado_177698" data-name="Trazado 177698" d="M15.442,59.9h0c-.248-.415-.3-1.006-.834-1.166.532.159.586.751.834,1.166" transform="translate(-3.782 -15.207)"/>
    <path id="Trazado_177699" data-name="Trazado 177699" d="M14.265,58.675l.005-.015-.012.014h.007" transform="translate(-3.692 -15.188)"/>
    <path id="Trazado_177700" data-name="Trazado 177700" d="M14.024,58.451l-.481-.619c-.058.1-.179.2-.165.287.064.386.3.48.645.332" transform="translate(-3.464 -14.974)"/>
    <path id="Trazado_177701" data-name="Trazado 177701" d="M14.268,58.66c-.007,0-.012,0-.018.005l.007.009Z" transform="translate(-3.69 -15.188)"/>
    <path id="Trazado_177702" data-name="Trazado 177702" d="M24.611,43.4c2.675-.159,4.266-1.767,4.552-4.59.23-2.268-2.217-4.976-4.49-4.878-2.59.113-4.475,1.321-4.71,4.175A4.706,4.706,0,0,0,24.611,43.4m-.044-6.33a1.574,1.574,0,0,1,.3.017,1.4,1.4,0,0,1,1.106,1.375,2.827,2.827,0,0,1-.01.367,1.377,1.377,0,0,1-.648,1.137,1.507,1.507,0,0,1-.445.167,2.236,2.236,0,0,1-.362.047c-.914.044-1.3-.618-1.381-1.4a1.4,1.4,0,0,1,1.439-1.712" transform="translate(-5.164 -8.784)"/>
    <path id="Trazado_177703" data-name="Trazado 177703" d="M107.771,105.4c-7.785.107-15.184.9-22.334,0,6.53,2.523,17.282,2.666,22.334,0" transform="translate(-22.121 -27.289)"/>
    <path id="Trazado_177704" data-name="Trazado 177704" d="M25.616,41.273a2.324,2.324,0,0,0,.362-.046,1.542,1.542,0,0,0,.445-.168,1.379,1.379,0,0,0,.647-1.137,2.758,2.758,0,0,0,.01-.362,1.4,1.4,0,0,0-1.106-1.379,1.566,1.566,0,0,0-.3-.017,1.4,1.4,0,0,0-1.439,1.712c.084.78.467,1.443,1.381,1.4" transform="translate(-6.271 -9.881)" fill="#fff"/>
    <path id="Trazado_177705" data-name="Trazado 177705" d="M27.194,41.674a1.377,1.377,0,0,0,.648-1.137,1.38,1.38,0,0,1-.648,1.137" transform="translate(-7.041 -10.496)" fill="#fff"/>
    <path id="Trazado_177706" data-name="Trazado 177706" d="M27.039,42.071a1.523,1.523,0,0,1-.445.167,1.523,1.523,0,0,0,.445-.167" transform="translate(-6.886 -10.893)" fill="#fff"/>
    <path id="Trazado_177707" data-name="Trazado 177707" d="M65.973,15.1C61.962,10.358,49.28,7.026,45.518,9.814c6.9.851,13.861,1.287,19.606,5.777l.849-.49" transform="translate(-11.785 -2.278)"/>
    <path id="Trazado_177708" data-name="Trazado 177708" d="M14.6,54.6c1.719.9,2.447,1.7,2.586,3.759A15.008,15.008,0,0,0,32.583,72.7c1.36-.017,3.178.477,4.014-.99.914-1.6-1.084-2.117-1.717-3.155-1.862-3.053-3.025-6.514-1.792-9.8.923-2.465,4.218-.824,6.282-1.7a2.6,2.6,0,0,1,.365-.054c2.853-.7,3.883.056,4.189,3.339,1.3,13.888,8.631,23.243,22.281,25.38,2.671.418,5.391.519,6.85.652a65.158,65.158,0,0,0,22.206-3.923,19.392,19.392,0,0,0,7.069-4.572c5.782-5.783,7.445-13.258,7.226-20.82-.3-10.31-3.14-19.926-13.709-24.7-2.771-1.251-4.011-2.588-4.414-5.735C90.381,18.406,82.24,12.26,74.272,13.07c-1.289.131-2.5.384-3.064,1.616-.521,1.148.563,1.727,1.234,2.4,2.514,2.52,2.784,5.643,2.368,8.929-.412,3.262-3.086,3.21-5.327,3.225-2.042.014-3.22-.951-3.375-3.549-.745-12.444-6.886-20.507-17.451-23.4A68.621,68.621,0,0,0,37.778.3a54.943,54.943,0,0,0-19.2,1.426C12.444,3.221,4.739,8.206,2.542,13.909A37.007,37.007,0,0,0,.963,35.8C2.8,44.026,6.991,50.621,14.6,54.6M69.2,31.575c2.415-.319,5.483,1.315,7.2-1.289,2.142-3.258,1.912-7,1.061-10.716-.239-1.039-1.231-1.87-.873-3.072,6.893.6,12.344,6,12.175,12.8-.079,3.156,1.165,4.133,3.713,5.193,9.558,3.974,13.393,11.859,13.971,21.665.551,9.362-1.961,17.435-10.626,22.39-5.237,2.995-11.078,4.1-17.052,4.275a76.023,76.023,0,0,1-11.456-.292A23.876,23.876,0,0,1,46.672,57.641,2.031,2.031,0,0,1,48.5,55.409c10.73-2.832,16.288-10.1,17.474-20.887.243-2.21,1.151-2.675,3.221-2.947M3.506,23.085c1.444-11.6,6.779-17.42,18.453-19.313A62.121,62.121,0,0,1,48.277,5.451c9.579,2.585,12.848,10.1,14.6,18.609A28.8,28.8,0,0,1,60.953,41.1c-2.213,5.355-6.186,8.452-11.327,10.975-5.205,2.554-10.537,1.955-15.85,2.278-2.322.142-3.269.979-3.748,3.074a17.41,17.41,0,0,0,1.657,11.8A11.408,11.408,0,0,1,20.24,56.889c.126-2.619-.716-3.544-2.954-4.531C7.854,48.2,4.289,40.11,3.4,30.478a34.623,34.623,0,0,1,.108-7.392" transform="translate(0 0)"/>
    <path id="Trazado_177709" data-name="Trazado 177709" d="M18.421,53.424c2.237.987,3.079,1.912,2.953,4.53A11.408,11.408,0,0,0,32.819,70.294a17.405,17.405,0,0,1-1.656-11.8c.479-2.1,1.427-2.932,3.748-3.074,5.311-.323,10.644.275,15.849-2.278,5.142-2.523,9.115-5.62,11.327-10.975a28.791,28.791,0,0,0,1.928-17.039C62.26,16.621,58.992,9.1,49.412,6.517A62.12,62.12,0,0,0,23.094,4.839C11.42,6.732,6.084,12.547,4.641,24.152a34.575,34.575,0,0,0-.107,7.392c.891,9.633,4.455,17.72,13.888,21.881M43.731,30.45c.309-2.919,2.178-4.354,4.984-4.22,2.941.141,4.386,2.057,4.239,4.89a4.434,4.434,0,0,1-4.5,4.557,4.824,4.824,0,0,1-4.727-5.227M56.023,45.98h0l.079-.056.126.039-.2.019-.017.013a10.516,10.516,0,0,1-2.769,3.3,10.779,10.779,0,0,1-4.373,1.974,15.6,15.6,0,0,1-2.194.311c2.886-2.237,6.576-3.13,9.332-5.583l.01-.016m-.7-32.09c.152.425.272.881-.245,1.1-.1.042-.4-.394-.6-.61C48.729,9.889,41.77,9.454,34.868,8.6c3.762-2.789,16.444.543,20.455,5.287m-20.914,12.3a4.379,4.379,0,0,1,4.632,4.585c-.184,2.466-.971,4.648-4.156,4.2-2.69-.037-5.138-2.18-4.99-4.445.182-2.765,1.873-4.164,4.514-4.344m-18.474,4.2c.235-2.854,2.12-4.062,4.71-4.175,2.273-.1,4.72,2.609,4.489,4.878-.286,2.822-1.878,4.43-4.552,4.59a4.706,4.706,0,0,1-4.648-5.294M11.215,43.924l.481.619c.006,0,.011,0,.018-.005l-.005.015a1.021,1.021,0,0,1,.253.039c.531.159.585.751.834,1.166h0l3.823,3.125a4.223,4.223,0,0,1-3.131-1.113,4.663,4.663,0,0,1-.629-.745,6.214,6.214,0,0,1-.51-.906,1.776,1.776,0,0,1-.433-.285,1.05,1.05,0,0,1-.208-1.281H11.7l-.006-.009c-.344.148-.582.054-.645-.332-.014-.084.106-.19.165-.287" transform="translate(-1.135 -1.066)" fill="#fcfcfc"/>
    <path id="Trazado_177710" data-name="Trazado 177710" d="M74.064,60.605h0l-.009.016,0,0,.007-.013" transform="translate(-19.173 -15.692)" fill="#fcfcfc"/>
    <path id="Trazado_177711" data-name="Trazado 177711" d="M64.8,61.173A2.03,2.03,0,0,0,62.969,63.4,23.877,23.877,0,0,0,83.6,88.289a75.925,75.925,0,0,0,11.456.291c5.972-.173,11.814-1.281,17.052-4.275,8.665-4.955,11.177-13.028,10.626-22.39-.577-9.807-4.412-17.69-13.97-21.666-2.548-1.06-3.792-2.037-3.714-5.192.17-6.8-5.281-12.2-12.174-12.8-.358,1.2.634,2.032.872,3.072.851,3.714,1.081,7.458-1.06,10.716-1.713,2.6-4.78.971-7.2,1.289-2.071.273-2.979.737-3.222,2.947C81.089,51.074,75.531,58.341,64.8,61.173m45.414-15.63.264.264-.2.362c5.017,1.782,8.2,6.932,8.274,13.228-2.6-4.8-4.649-9.117-8.292-13.2l-.046.084c-.082-.082-.245-.182-.231-.244a2.3,2.3,0,0,1,.231-.5M106.6,59.31c3.03-.182,4.448,1.621,4.91,4.472-.329,2.669-1.425,4.753-4.487,4.863-3,.107-4.577-1.625-4.761-4.5-.192-2.976,1.4-4.661,4.338-4.837M88.229,63.656c.2-2.726,1.81-4.241,4.569-4.358,2.742-.116,4.67,1.812,4.669,4.973-.22,2.4-1.488,4.28-4.524,4.384a4.541,4.541,0,0,1-4.714-5m13.718,20.217c-5.051,2.669-15.8,2.525-22.334,0,7.15.9,14.549.105,22.334,0m-18.5-19.54a4.216,4.216,0,0,1-4.306,4.326A4.642,4.642,0,0,1,74.3,63.816c.156-2.918,2.746-3.573,4.761-4.236,1.973-.649,4.347,2.124,4.387,4.753" transform="translate(-16.297 -5.764)" fill="#fcfcfc"/>
    <path id="Trazado_177712" data-name="Trazado 177712" d="M66.692,38.843c.146-2.834-1.3-4.75-4.24-4.89-2.805-.134-4.675,1.3-4.984,4.219A4.824,4.824,0,0,0,62.2,43.4a4.434,4.434,0,0,0,4.5-4.556m-6.114-.113a1.428,1.428,0,0,1-.024-.352c.047-.76.782-1.112,1.49-1.388a2.1,2.1,0,0,1,.665.186,1.535,1.535,0,0,1,.867,1.164,2.079,2.079,0,0,1,.029.323,1.533,1.533,0,0,1-1.31,1.519c-1.076.186-1.564-.637-1.716-1.453" transform="translate(-14.873 -8.789)"/>
    <path id="Trazado_177713" data-name="Trazado 177713" d="M43.8,42.681c3.185.445,3.972-1.738,4.156-4.2a4.38,4.38,0,0,0-4.632-4.585c-2.641.18-4.332,1.58-4.514,4.344-.148,2.266,2.3,4.409,4.99,4.445m-.939-5.774a2.511,2.511,0,0,1,.382.007,1.734,1.734,0,0,1,1.4.893,2.449,2.449,0,0,1,.263.741,1.773,1.773,0,0,1-1.248,1.618,2.905,2.905,0,0,1-.324.093c-1.211.279-1.47-.594-1.53-1.447-.056-.8-.11-1.842,1.06-1.906" transform="translate(-10.046 -8.773)"/>
    <path id="Trazado_177714" data-name="Trazado 177714" d="M63.654,65.9a10.781,10.781,0,0,0,4.372-1.974,10.489,10.489,0,0,0,2.765-3.3c-2.757,2.452-6.446,3.346-9.332,5.582a15.5,15.5,0,0,0,2.2-.31" transform="translate(-15.913 -15.697)"/>
    <path id="Trazado_177715" data-name="Trazado 177715" d="M70.321,63.924a10.5,10.5,0,0,0,2.769-3.3l-.005,0a10.473,10.473,0,0,1-2.764,3.3" transform="translate(-18.207 -15.696)"/>
    <path id="Trazado_177716" data-name="Trazado 177716" d="M74.078,60.6h0" transform="translate(-19.177 -15.691)"/>
    <path id="Trazado_177717" data-name="Trazado 177717" d="M74.07,60.581h0l.079-.056Z" transform="translate(-19.178 -15.671)"/>
    <path id="Trazado_177718" data-name="Trazado 177718" d="M74.074,60.6h-.009l-.007.013.016-.013" transform="translate(-19.175 -15.691)"/>
    <path id="Trazado_177719" data-name="Trazado 177719" d="M74.278,60.564l-.126-.039c-.022.021-.047.037-.07.057.03,0,.2-.018.2-.018" transform="translate(-19.181 -15.671)"/>
    <path id="Trazado_177720" data-name="Trazado 177720" d="M74.067,60.6h0" transform="translate(-19.177 -15.691)"/>
    <path id="Trazado_177721" data-name="Trazado 177721" d="M74.149,60.525l-.079.056h.009c.022-.021.047-.036.07-.057" transform="translate(-19.177 -15.671)"/>
    <path id="Trazado_177722" data-name="Trazado 177722" d="M72.579,18.4c.517-.218.4-.674.245-1.1l-.849.49c.207.216.506.651.6.61" transform="translate(-18.635 -4.48)"/>
    <path id="Trazado_177723" data-name="Trazado 177723" d="M101.772,81.592c3.035-.1,4.3-1.979,4.524-4.384,0-3.161-1.927-5.088-4.669-4.973-2.758.117-4.365,1.632-4.57,4.358a4.541,4.541,0,0,0,4.715,5m.033-6.195c.856,0,1.258.594,1.341,1.47-.075.914-.48,1.59-1.556,1.532a1.4,1.4,0,0,1-1.329-1.453c-.106-1.1.589-1.547,1.544-1.549" transform="translate(-25.126 -18.701)"/>
    <path id="Trazado_177724" data-name="Trazado 177724" d="M120.752,81.583c3.061-.11,4.157-2.194,4.487-4.863-.462-2.85-1.879-4.653-4.91-4.472-2.942.176-4.531,1.861-4.339,4.837.185,2.872,1.758,4.606,4.761,4.5m-.129-6.213a1.521,1.521,0,0,1-.259,3.028c-.9-.03-1.223-.725-1.267-1.482-.06-1.061.64-1.457,1.525-1.546" transform="translate(-30.028 -18.703)"/>
    <path id="Trazado_177725" data-name="Trazado 177725" d="M78.259,76.821A4.642,4.642,0,0,0,83.1,81.664a4.216,4.216,0,0,0,4.306-4.326c-.04-2.629-2.414-5.4-4.387-4.753-2.014.663-4.6,1.317-4.761,4.236m4.564-1.339c1.106-.1,1.439.652,1.564,1.538-.176.8-.49,1.433-1.4,1.435-1.071,0-1.524-.687-1.566-1.625-.04-.891.62-1.277,1.4-1.347" transform="translate(-20.261 -18.768)"/>
    <path id="Trazado_177726" data-name="Trazado 177726" d="M135.086,67.75c-.076-6.3-3.257-11.447-8.274-13.229l-.018.032c3.644,4.08,5.689,8.4,8.292,13.2" transform="translate(-32.829 -14.116)"/>
    <path id="Trazado_177727" data-name="Trazado 177727" d="M126.651,54.418l.046-.084-.049-.058c.023.008.044.019.067.027l.2-.362-.264-.264a2.34,2.34,0,0,0-.232.5c-.013.062.15.162.232.244" transform="translate(-32.731 -13.898)"/>
    <path id="Trazado_177728" data-name="Trazado 177728" d="M126.777,54.544l.018-.032c-.023-.007-.044-.018-.067-.026.017.019.032.039.049.058" transform="translate(-32.812 -14.107)"/>
    <path id="Trazado_177729" data-name="Trazado 177729" d="M64.69,39.727a1.984,1.984,0,0,0-.029-.323,1.536,1.536,0,0,0-.867-1.164,2.091,2.091,0,0,0-.66-.185c-.712.274-1.447.626-1.495,1.387a1.465,1.465,0,0,0,.024.352c.152.816.64,1.639,1.716,1.453a1.533,1.533,0,0,0,1.31-1.519" transform="translate(-15.959 -9.853)" fill="#fff"/>
    <path id="Trazado_177730" data-name="Trazado 177730" d="M65.415,39.468a1.536,1.536,0,0,0-.867-1.164,1.539,1.539,0,0,1,.867,1.164" transform="translate(-16.712 -9.917)" fill="#fff"/>
    <path id="Trazado_177731" data-name="Trazado 177731" d="M44.366,41.315a2.8,2.8,0,0,0,.324-.094A1.768,1.768,0,0,0,45.935,39.6a2.419,2.419,0,0,0-.261-.737,1.735,1.735,0,0,0-1.4-.893,2.409,2.409,0,0,0-.382-.007c-1.169.064-1.116,1.107-1.06,1.906.061.853.319,1.726,1.53,1.447" transform="translate(-11.085 -9.828)" fill="#fff"/>
    <path id="Trazado_177732" data-name="Trazado 177732" d="M45.346,41.537a1.773,1.773,0,0,0,1.248-1.618,2.464,2.464,0,0,0-.263-.741,2.434,2.434,0,0,1,.261.737,1.77,1.77,0,0,1-1.246,1.622" transform="translate(-11.741 -10.144)" fill="#fff"/>
    <path id="Trazado_177733" data-name="Trazado 177733" d="M102.711,79.505c1.076.059,1.481-.617,1.556-1.532-.083-.874-.485-1.47-1.341-1.47-.955,0-1.65.451-1.543,1.55a1.394,1.394,0,0,0,1.328,1.452" transform="translate(-26.247 -19.808)" fill="#fff"/>
    <path id="Trazado_177734" data-name="Trazado 177734" d="M121.453,79.494a1.521,1.521,0,0,0,.259-3.028c-.885.089-1.585.485-1.524,1.546.043.757.363,1.452,1.266,1.482" transform="translate(-31.117 -19.798)" fill="#fff"/>
    <path id="Trazado_177735" data-name="Trazado 177735" d="M84.1,79.5c.907,0,1.221-.63,1.4-1.435-.125-.885-.458-1.637-1.564-1.537-.78.07-1.439.456-1.4,1.347.041.938.5,1.629,1.566,1.625" transform="translate(-21.368 -19.811)" fill="#fff"/>
  </g>
</svg>
