<svg xmlns="http://www.w3.org/2000/svg" xmlns:xlink="http://www.w3.org/1999/xlink" width="1240" height="924.737" viewBox="0 0 1240 924.737">
  <defs>
    <clipPath id="clip-path">
      <path id="Path_182347" data-name="Path 182347" d="M17.427,0H1222.573C1232.2,0,1240,10.512,1240,23.48V901.257c0,12.968-7.8,23.48-17.427,23.48H17.427C7.8,924.737,0,914.225,0,901.257V23.48C0,10.512,7.8,0,17.427,0Z" transform="translate(180 5743)" fill="none"/>
    </clipPath>
  </defs>
  <g id="bg-2" transform="translate(-180 -5743)">
    <path id="Path_173387" data-name="Path 173387" d="M17.427,0H1222.573C1232.2,0,1240,10.512,1240,23.48V901.257c0,12.968-7.8,23.48-17.427,23.48H17.427C7.8,924.737,0,914.225,0,901.257V23.48C0,10.512,7.8,0,17.427,0Z" transform="translate(180 5743)" fill="#ffdfe0"/>
    <g id="Mask_Group_299" data-name="Mask Group 299" clip-path="url(#clip-path)">
      <g id="Group_173953" data-name="Group 173953" transform="translate(162.641 6227.908)">
        <path id="Path_178656" data-name="Path 178656" d="M1485.737,1981.761c-50.505,39.053-91.908,89.736-146.189,123.346-74.556,46.166-165.617,55.543-253.216,59.538s-177.468,4.164-259.475,35.221c-65.54,24.821-125.945,74.847-150.577,138.594H844.528c37.491-58.353,94.111-104.614,160.114-126.22,131.768-43.134,285,6.029,409.141-55.722,87.938-43.743,147.364-137.559,241.514-165.531,68.12-20.237,143.079-1.1,204.068,35.37,26.642,15.933,51.105,34.9,74.275,55.53V1944.979C1793.733,1872.788,1611.066,1884.844,1485.737,1981.761Z" transform="translate(-676.28 -1898.632)" fill="#ff9fa3"/>
        <path id="Path_178657" data-name="Path 178657" d="M1562.963,1944.816c-94.15,27.972-153.576,121.788-241.514,165.531-124.139,61.75-277.374,12.589-409.141,55.722-66,21.607-122.623,67.867-160.114,126.22H1841.306V2035.715c-23.169-20.625-47.633-39.6-74.275-55.53C1706.043,1943.712,1631.083,1924.579,1562.963,1944.816Z" transform="translate(-583.947 -1852.461)" fill="#fff0f1" opacity="0.614"/>
      </g>
      <g id="Group_174907" data-name="Group 174907" transform="translate(162.641 5734.133)">
        <path id="Path_178656-2" data-name="Path 178656" d="M1124.182,2255.332c50.505-39.053,91.908-89.736,146.189-123.346,74.556-46.166,165.617-55.543,253.216-59.538s177.468-4.164,259.475-35.221c65.54-24.821,125.945-74.847,150.577-138.594H1765.392c-37.491,58.353-94.111,104.614-160.114,126.221-131.768,43.134-285-6.029-409.141,55.722-87.938,43.743-147.364,137.559-241.514,165.531-68.12,20.237-143.079,1.1-204.068-35.37-26.642-15.933-51.105-34.9-74.275-55.53v136.908C816.186,2364.306,998.853,2352.249,1124.182,2255.332Z" transform="translate(-676.28 -1898.632)" fill="#ff9fa3"/>
        <path id="Path_178657-2" data-name="Path 178657" d="M1030.536,2284.067c94.15-27.972,153.576-121.788,241.514-165.531,124.139-61.75,277.374-12.589,409.141-55.722,66-21.607,122.623-67.867,160.114-126.22H752.194v256.574c23.169,20.625,47.633,39.6,74.275,55.53C887.457,2285.17,962.416,2304.3,1030.536,2284.067Z" transform="translate(-752.193 -1936.592)" fill="#fff0f1" opacity="0.614"/>
      </g>
    </g>
  </g>
</svg>
